<?xml version="1.0" encoding="UTF-8" standalone="no"?>
<!DOCTYPE svg PUBLIC "-//W3C//DTD SVG 1.1//EN"
 "http://www.w3.org/Graphics/SVG/1.1/DTD/svg11.dtd">
<!-- Generated by graphviz version 2.43.0 (0)
 -->
<!-- Title: include/helios/math/types/aabb.ixx Pages: 1 -->
<svg width="557pt" height="159pt"
 viewBox="0.00 0.00 556.50 159.00" xmlns="http://www.w3.org/2000/svg" xmlns:xlink="http://www.w3.org/1999/xlink">
<g id="graph0" class="graph" transform="scale(1 1) rotate(0) translate(4 155)">
<title>include/helios/math/types/aabb.ixx</title>
<!-- Node1 -->
<g id="Node000001" class="node">
<title>Node1</title>
<g id="a_Node000001"><a xlink:title="Axis&#45;Aligned Bounding Box (AABB) type and transformations.">
<polygon fill="#999999" stroke="#666666" points="281.5,-151 168.5,-151 168.5,-121 281.5,-121 281.5,-151"/>
<text text-anchor="start" x="176.5" y="-139" font-family="Helvetica,sans-Serif" font-size="10.00">include/helios/math</text>
<text text-anchor="middle" x="225" y="-128" font-family="Helvetica,sans-Serif" font-size="10.00">/types/aabb.ixx</text>
</a>
</g>
</g>
<!-- Node2 -->
<g id="Node000002" class="node">
<title>Node2</title>
<g id="a_Node000002"><a xlink:title=" ">
<polygon fill="#e0e0e0" stroke="#999999" points="58,-79.5 0,-79.5 0,-60.5 58,-60.5 58,-79.5"/>
<text text-anchor="middle" x="29" y="-67.5" font-family="Helvetica,sans-Serif" font-size="10.00">memory</text>
</a>
</g>
</g>
<!-- Node1&#45;&gt;Node2 -->
<g id="edge1_Node000001_Node000002" class="edge">
<title>Node1&#45;&gt;Node2</title>
<g id="a_edge1_Node000001_Node000002"><a xlink:title=" ">
<path fill="none" stroke="#63b8ff" d="M178.49,-120.91C146.92,-111.19 104.29,-97.76 67,-85 65.15,-84.37 63.26,-83.71 61.36,-83.04"/>
<polygon fill="#63b8ff" stroke="#63b8ff" points="62.44,-79.71 51.85,-79.61 60.07,-86.29 62.44,-79.71"/>
</a>
</g>
</g>
<!-- Node3 -->
<g id="Node000003" class="node">
<title>Node3</title>
<g id="a_Node000003"><a xlink:href="FloatingPointTypeTrait_8ixx.html" target="_top" xlink:title=" ">
<polygon fill="white" stroke="#666666" points="222,-85 76,-85 76,-55 222,-55 222,-85"/>
<text text-anchor="start" x="84" y="-73" font-family="Helvetica,sans-Serif" font-size="10.00">helios.math.traits.Floating</text>
<text text-anchor="middle" x="149" y="-62" font-family="Helvetica,sans-Serif" font-size="10.00">PointType</text>
</a>
</g>
</g>
<!-- Node1&#45;&gt;Node3 -->
<g id="edge2_Node000001_Node000003" class="edge">
<title>Node1&#45;&gt;Node3</title>
<g id="a_edge2_Node000001_Node000003"><a xlink:title=" ">
<path fill="none" stroke="#63b8ff" d="M208.13,-120.8C198,-112.26 184.92,-101.25 173.65,-91.75"/>
<polygon fill="#63b8ff" stroke="#63b8ff" points="175.72,-88.93 165.82,-85.16 171.21,-94.28 175.72,-88.93"/>
</a>
</g>
</g>
<!-- Node5 -->
<g id="Node000005" class="node">
<title>Node5</title>
<g id="a_Node000005"><a xlink:href="helios_2math_2concepts_2__module_8ixx.html" target="_top" xlink:title="Math concepts module exports.">
<polygon fill="white" stroke="#666666" points="361.5,-79.5 240.5,-79.5 240.5,-60.5 361.5,-60.5 361.5,-79.5"/>
<text text-anchor="middle" x="301" y="-67.5" font-family="Helvetica,sans-Serif" font-size="10.00">helios.math.concepts</text>
</a>
</g>
</g>
<!-- Node1&#45;&gt;Node5 -->
<g id="edge4_Node000001_Node000005" class="edge">
<title>Node1&#45;&gt;Node5</title>
<g id="a_edge4_Node000001_Node000005"><a xlink:title=" ">
<path fill="none" stroke="#63b8ff" d="M241.87,-120.8C253.95,-110.62 270.21,-96.93 282.62,-86.48"/>
<polygon fill="#63b8ff" stroke="#63b8ff" points="285.1,-88.96 290.5,-79.84 280.59,-83.61 285.1,-88.96"/>
</a>
</g>
</g>
<!-- Node6 -->
<g id="Node000006" class="node">
<title>Node6</title>
<g id="a_Node000006"><a xlink:href="helios_2math_2types_2__module_8ixx.html" target="_top" xlink:title="Module exports for vector and matrix type definitions.">
<polygon fill="white" stroke="#666666" points="530.5,-79.5 397.5,-79.5 397.5,-60.5 530.5,-60.5 530.5,-79.5"/>
<text text-anchor="middle" x="464" y="-67.5" font-family="Helvetica,sans-Serif" font-size="10.00">helios.math.types:mat4</text>
</a>
</g>
</g>
<!-- Node1&#45;&gt;Node6 -->
<g id="edge6_Node000001_Node000006" class="edge">
<title>Node1&#45;&gt;Node6</title>
<g id="a_edge6_Node000001_Node000006"><a xlink:title=" ">
<path fill="none" stroke="#63b8ff" d="M277.45,-120.95C321.03,-109.29 382.19,-92.91 422.44,-82.13"/>
<polygon fill="#63b8ff" stroke="#63b8ff" points="423.44,-85.48 432.19,-79.52 421.63,-78.72 423.44,-85.48"/>
</a>
</g>
</g>
<!-- Node4 -->
<g id="Node000004" class="node">
<title>Node4</title>
<g id="a_Node000004"><a xlink:title=" ">
<polygon fill="#e0e0e0" stroke="#999999" points="183.5,-19 114.5,-19 114.5,0 183.5,0 183.5,-19"/>
<text text-anchor="middle" x="149" y="-7" font-family="Helvetica,sans-Serif" font-size="10.00">type_traits</text>
</a>
</g>
</g>
<!-- Node3&#45;&gt;Node4 -->
<g id="edge3_Node000003_Node000004" class="edge">
<title>Node3&#45;&gt;Node4</title>
<g id="a_edge3_Node000003_Node000004"><a xlink:title=" ">
<path fill="none" stroke="#63b8ff" d="M149,-54.84C149,-47.21 149,-37.7 149,-29.45"/>
<polygon fill="#63b8ff" stroke="#63b8ff" points="152.5,-29.27 149,-19.27 145.5,-29.27 152.5,-29.27"/>
</a>
</g>
</g>
<!-- Node5&#45;&gt;Node5 -->
<g id="edge5_Node000005_Node000005" class="edge">
<title>Node5&#45;&gt;Node5</title>
<g id="a_edge5_Node000005_Node000005"><a xlink:title=" ">
<path fill="none" stroke="#63b8ff" d="M329.99,-79.53C354.2,-83.61 379.5,-80.43 379.5,-70 379.5,-61 360.64,-57.4 339.91,-59.2"/>
<polygon fill="#63b8ff" stroke="#63b8ff" points="339.46,-55.73 329.99,-60.47 340.35,-62.67 339.46,-55.73"/>
</a>
</g>
</g>
<!-- Node6&#45;&gt;Node6 -->
<g id="edge7_Node000006_Node000006" class="edge">
<title>Node6&#45;&gt;Node6</title>
<g id="a_edge7_Node000006_Node000006"><a xlink:title=" ">
<path fill="none" stroke="#63b8ff" d="M495.2,-79.53C521.27,-83.61 548.5,-80.43 548.5,-70 548.5,-60.91 527.83,-57.33 505.28,-59.25"/>
<polygon fill="#63b8ff" stroke="#63b8ff" points="504.71,-55.8 495.2,-60.47 505.55,-62.75 504.71,-55.8"/>
</a>
</g>
</g>
</g>
</svg>
