<?xml version="1.0" encoding="UTF-8" standalone="no"?>
<!DOCTYPE svg PUBLIC "-//W3C//DTD SVG 1.1//EN"
 "http://www.w3.org/Graphics/SVG/1.1/DTD/svg11.dtd">
<!-- Generated by graphviz version 2.43.0 (0)
 -->
<!-- Title: include/helios/engine/game/components/gameplay/Aim2DComponent.ixx Pages: 1 -->
<svg width="627pt" height="467pt"
 viewBox="0.00 0.00 627.00 467.00" xmlns="http://www.w3.org/2000/svg" xmlns:xlink="http://www.w3.org/1999/xlink">
<g id="graph0" class="graph" transform="scale(1 1) rotate(0) translate(4 463)">
<title>include/helios/engine/game/components/gameplay/Aim2DComponent.ixx</title>
<!-- Node1 -->
<g id="Node000001" class="node">
<title>Node1</title>
<g id="a_Node000001"><a xlink:title="Component for handling 2D aiming direction.">
<polygon fill="#999999" stroke="#666666" points="442,-459 280,-459 280,-418 442,-418 442,-459"/>
<text text-anchor="start" x="288" y="-447" font-family="Helvetica,sans-Serif" font-size="10.00">include/helios/engine</text>
<text text-anchor="start" x="288" y="-436" font-family="Helvetica,sans-Serif" font-size="10.00">/game/components/gameplay</text>
<text text-anchor="middle" x="361" y="-425" font-family="Helvetica,sans-Serif" font-size="10.00">/Aim2DComponent.ixx</text>
</a>
</g>
</g>
<!-- Node2 -->
<g id="Node000002" class="node">
<title>Node2</title>
<g id="a_Node000002"><a xlink:href="Component_8ixx.html" target="_top" xlink:title="Base class for components attached to GameObjects.">
<polygon fill="white" stroke="#666666" points="172,-376.5 0,-376.5 0,-357.5 172,-357.5 172,-376.5"/>
<text text-anchor="middle" x="86" y="-364.5" font-family="Helvetica,sans-Serif" font-size="10.00">helios.engine.game.Component</text>
</a>
</g>
</g>
<!-- Node1&#45;&gt;Node2 -->
<g id="edge1_Node000001_Node000002" class="edge">
<title>Node1&#45;&gt;Node2</title>
<g id="a_edge1_Node000001_Node000002"><a xlink:title=" ">
<path fill="none" stroke="#63b8ff" d="M283.67,-417.96C233.77,-405.34 170.7,-389.41 129.4,-378.97"/>
<polygon fill="#63b8ff" stroke="#63b8ff" points="130.2,-375.56 119.65,-376.5 128.48,-382.35 130.2,-375.56"/>
</a>
</g>
</g>
<!-- Node3 -->
<g id="Node000003" class="node">
<title>Node3</title>
<g id="a_Node000003"><a xlink:href="Updatable_8ixx.html" target="_top" xlink:title="Interface for components that require per&#45;frame updates.">
<polygon fill="white" stroke="#666666" points="356,-376.5 190,-376.5 190,-357.5 356,-357.5 356,-376.5"/>
<text text-anchor="middle" x="273" y="-364.5" font-family="Helvetica,sans-Serif" font-size="10.00">helios.engine.game.Updatable</text>
</a>
</g>
</g>
<!-- Node1&#45;&gt;Node3 -->
<g id="edge2_Node000001_Node000003" class="edge">
<title>Node1&#45;&gt;Node3</title>
<g id="a_edge2_Node000001_Node000003"><a xlink:title=" ">
<path fill="none" stroke="#63b8ff" d="M336.02,-417.77C322.15,-406.81 305.15,-393.39 292.31,-383.25"/>
<polygon fill="#63b8ff" stroke="#63b8ff" points="294.18,-380.27 284.17,-376.82 289.85,-385.76 294.18,-380.27"/>
</a>
</g>
</g>
<!-- Node4 -->
<g id="Node000004" class="node">
<title>Node4</title>
<g id="a_Node000004"><a xlink:href="UpdateContext_8ixx.html" target="_top" xlink:title="Context struct passed to components during per&#45;frame updates.">
<polygon fill="white" stroke="#666666" points="525.5,-382 374.5,-382 374.5,-352 525.5,-352 525.5,-382"/>
<text text-anchor="start" x="382.5" y="-370" font-family="Helvetica,sans-Serif" font-size="10.00">helios.engine.game.Update</text>
<text text-anchor="middle" x="450" y="-359" font-family="Helvetica,sans-Serif" font-size="10.00">Context</text>
</a>
</g>
</g>
<!-- Node1&#45;&gt;Node4 -->
<g id="edge3_Node000001_Node000004" class="edge">
<title>Node1&#45;&gt;Node4</title>
<g id="a_edge3_Node000001_Node000004"><a xlink:title=" ">
<path fill="none" stroke="#63b8ff" d="M386.27,-417.77C398.01,-408.6 411.97,-397.7 423.82,-388.44"/>
<polygon fill="#63b8ff" stroke="#63b8ff" points="426.3,-390.95 432.02,-382.04 421.99,-385.43 426.3,-390.95"/>
</a>
</g>
</g>
<!-- Node17 -->
<g id="Node000017" class="node">
<title>Node17</title>
<g id="a_Node000017"><a xlink:href="helios_2math_2types_2__module_8ixx.html" target="_top" xlink:title="Module exports for vector and matrix type definitions.">
<polygon fill="white" stroke="#666666" points="601,-184 497,-184 497,-165 601,-165 601,-184"/>
<text text-anchor="middle" x="549" y="-172" font-family="Helvetica,sans-Serif" font-size="10.00">helios.math.types</text>
</a>
</g>
</g>
<!-- Node1&#45;&gt;Node17 -->
<g id="edge25_Node000001_Node000017" class="edge">
<title>Node1&#45;&gt;Node17</title>
<g id="a_edge25_Node000001_Node000017"><a xlink:title=" ">
<path fill="none" stroke="#63b8ff" d="M442.08,-431.38C476.08,-424.44 512.8,-410.32 535,-382 578.88,-326.03 563.28,-233.17 553.94,-193.92"/>
<polygon fill="#63b8ff" stroke="#63b8ff" points="557.31,-192.98 551.47,-184.14 550.53,-194.7 557.31,-192.98"/>
</a>
</g>
</g>
<!-- Node5 -->
<g id="Node000005" class="node">
<title>Node5</title>
<g id="a_Node000005"><a xlink:title=" ">
<polygon fill="#e0e0e0" stroke="#999999" points="525.5,-310.5 460.5,-310.5 460.5,-291.5 525.5,-291.5 525.5,-310.5"/>
<text text-anchor="middle" x="493" y="-298.5" font-family="Helvetica,sans-Serif" font-size="10.00">stdexcept</text>
</a>
</g>
</g>
<!-- Node4&#45;&gt;Node5 -->
<g id="edge4_Node000004_Node000005" class="edge">
<title>Node4&#45;&gt;Node5</title>
<g id="a_edge4_Node000004_Node000005"><a xlink:title=" ">
<path fill="none" stroke="#63b8ff" d="M459.54,-351.8C465.98,-342.21 474.52,-329.5 481.36,-319.32"/>
<polygon fill="#63b8ff" stroke="#63b8ff" points="484.39,-321.1 487.06,-310.84 478.58,-317.19 484.39,-321.1"/>
</a>
</g>
</g>
<!-- Node6 -->
<g id="Node000006" class="node">
<title>Node6</title>
<g id="a_Node000006"><a xlink:href="InputSnapshot_8ixx.html" target="_top" xlink:title="Immutable snapshot of input state at a specific point in time.">
<polygon fill="white" stroke="#666666" points="442,-316 302,-316 302,-286 442,-286 442,-316"/>
<text text-anchor="start" x="310" y="-304" font-family="Helvetica,sans-Serif" font-size="10.00">helios.engine.game.Input</text>
<text text-anchor="middle" x="372" y="-293" font-family="Helvetica,sans-Serif" font-size="10.00">Snapshot</text>
</a>
</g>
</g>
<!-- Node4&#45;&gt;Node6 -->
<g id="edge5_Node000004_Node000006" class="edge">
<title>Node4&#45;&gt;Node6</title>
<g id="a_edge5_Node000004_Node000006"><a xlink:title=" ">
<path fill="none" stroke="#63b8ff" d="M432.69,-351.8C422.29,-343.26 408.87,-332.25 397.29,-322.75"/>
<polygon fill="#63b8ff" stroke="#63b8ff" points="399.21,-319.8 389.26,-316.16 394.77,-325.21 399.21,-319.8"/>
</a>
</g>
</g>
<!-- Node7 -->
<g id="Node000007" class="node">
<title>Node7</title>
<g id="a_Node000007"><a xlink:href="GamepadState_8ixx.html" target="_top" xlink:title="Representation of current gamepad input state.">
<polygon fill="white" stroke="#666666" points="477.5,-250 304.5,-250 304.5,-220 477.5,-220 477.5,-250"/>
<text text-anchor="start" x="312.5" y="-238" font-family="Helvetica,sans-Serif" font-size="10.00">helios.input.gamepad.Gamepad</text>
<text text-anchor="middle" x="391" y="-227" font-family="Helvetica,sans-Serif" font-size="10.00">State</text>
</a>
</g>
</g>
<!-- Node6&#45;&gt;Node7 -->
<g id="edge6_Node000006_Node000007" class="edge">
<title>Node6&#45;&gt;Node7</title>
<g id="a_edge6_Node000006_Node000007"><a xlink:title=" ">
<path fill="none" stroke="#63b8ff" d="M376.22,-285.8C378.48,-278.17 381.33,-268.57 383.92,-259.84"/>
<polygon fill="#63b8ff" stroke="#63b8ff" points="387.3,-260.75 386.8,-250.16 380.59,-258.75 387.3,-260.75"/>
</a>
</g>
</g>
<!-- Node8 -->
<g id="Node000008" class="node">
<title>Node8</title>
<g id="a_Node000008"><a xlink:href="LogManager_8ixx.html" target="_top" xlink:title="Central manager for scoped loggers with configurable sinks.">
<polygon fill="white" stroke="#666666" points="469,-184 323,-184 323,-165 469,-165 469,-184"/>
<text text-anchor="middle" x="396" y="-172" font-family="Helvetica,sans-Serif" font-size="10.00">helios.util.log.LogManager</text>
</a>
</g>
</g>
<!-- Node7&#45;&gt;Node8 -->
<g id="edge7_Node000007_Node000008" class="edge">
<title>Node7&#45;&gt;Node8</title>
<g id="a_edge7_Node000007_Node000008"><a xlink:title=" ">
<path fill="none" stroke="#63b8ff" d="M392.21,-219.84C392.86,-212.21 393.67,-202.7 394.38,-194.45"/>
<polygon fill="#63b8ff" stroke="#63b8ff" points="397.89,-194.53 395.25,-184.27 390.91,-193.93 397.89,-194.53"/>
</a>
</g>
</g>
<!-- Node15 -->
<g id="Node000015" class="node">
<title>Node15</title>
<g id="a_Node000015"><a xlink:href="Logger_8ixx.html" target="_top" xlink:title="Simple synchronous logger with configurable output sinks.">
<polygon fill="white" stroke="#666666" points="223.5,-129 104.5,-129 104.5,-110 223.5,-110 223.5,-129"/>
<text text-anchor="middle" x="164" y="-117" font-family="Helvetica,sans-Serif" font-size="10.00">helios.util.log.Logger</text>
</a>
</g>
</g>
<!-- Node7&#45;&gt;Node15 -->
<g id="edge22_Node000007_Node000015" class="edge">
<title>Node7&#45;&gt;Node15</title>
<g id="a_edge22_Node000007_Node000015"><a xlink:title=" ">
<path fill="none" stroke="#63b8ff" d="M362.71,-219.85C318.4,-197.7 233.27,-155.13 190.25,-133.63"/>
<polygon fill="#63b8ff" stroke="#63b8ff" points="191.76,-130.47 181.25,-129.12 188.63,-136.73 191.76,-130.47"/>
</a>
</g>
</g>
<!-- Node7&#45;&gt;Node17 -->
<g id="edge23_Node000007_Node000017" class="edge">
<title>Node7&#45;&gt;Node17</title>
<g id="a_edge23_Node000007_Node000017"><a xlink:title=" ">
<path fill="none" stroke="#63b8ff" d="M428.84,-219.99C455.44,-210.14 490.67,-197.1 516.1,-187.68"/>
<polygon fill="#63b8ff" stroke="#63b8ff" points="517.5,-190.89 525.67,-184.14 515.07,-184.33 517.5,-190.89"/>
</a>
</g>
</g>
<!-- Node9 -->
<g id="Node000009" class="node">
<title>Node9</title>
<g id="a_Node000009"><a xlink:title=" ">
<polygon fill="#e0e0e0" stroke="#999999" points="419,-19 375,-19 375,0 419,0 419,-19"/>
<text text-anchor="middle" x="397" y="-7" font-family="Helvetica,sans-Serif" font-size="10.00">string</text>
</a>
</g>
</g>
<!-- Node8&#45;&gt;Node9 -->
<g id="edge8_Node000008_Node000009" class="edge">
<title>Node8&#45;&gt;Node9</title>
<g id="a_edge8_Node000008_Node000009"><a xlink:title=" ">
<path fill="none" stroke="#63b8ff" d="M437.63,-164.97C462.15,-158.33 492.64,-147.12 515,-129 543.27,-106.1 571.84,-84.1 550,-55 535.49,-35.66 469.47,-21.99 429.04,-15.26"/>
<polygon fill="#63b8ff" stroke="#63b8ff" points="429.55,-11.79 419.12,-13.66 428.43,-18.7 429.55,-11.79"/>
</a>
</g>
</g>
<!-- Node10 -->
<g id="Node000010" class="node">
<title>Node10</title>
<g id="a_Node000010"><a xlink:title=" ">
<polygon fill="#e0e0e0" stroke="#999999" points="334.5,-129 241.5,-129 241.5,-110 334.5,-110 334.5,-129"/>
<text text-anchor="middle" x="288" y="-117" font-family="Helvetica,sans-Serif" font-size="10.00">unordered_map</text>
</a>
</g>
</g>
<!-- Node8&#45;&gt;Node10 -->
<g id="edge9_Node000008_Node000010" class="edge">
<title>Node8&#45;&gt;Node10</title>
<g id="a_edge9_Node000008_Node000010"><a xlink:title=" ">
<path fill="none" stroke="#63b8ff" d="M378.65,-164.98C361.43,-156.54 334.8,-143.47 314.85,-133.68"/>
<polygon fill="#63b8ff" stroke="#63b8ff" points="316.19,-130.43 305.67,-129.17 313.1,-136.72 316.19,-130.43"/>
</a>
</g>
</g>
<!-- Node11 -->
<g id="Node000011" class="node">
<title>Node11</title>
<g id="a_Node000011"><a xlink:title=" ">
<polygon fill="#e0e0e0" stroke="#999999" points="439,-129 353,-129 353,-110 439,-110 439,-129"/>
<text text-anchor="middle" x="396" y="-117" font-family="Helvetica,sans-Serif" font-size="10.00">unordered_set</text>
</a>
</g>
</g>
<!-- Node8&#45;&gt;Node11 -->
<g id="edge10_Node000008_Node000011" class="edge">
<title>Node8&#45;&gt;Node11</title>
<g id="a_edge10_Node000008_Node000011"><a xlink:title=" ">
<path fill="none" stroke="#63b8ff" d="M396,-164.75C396,-157.8 396,-147.85 396,-139.13"/>
<polygon fill="#63b8ff" stroke="#63b8ff" points="399.5,-139.09 396,-129.09 392.5,-139.09 399.5,-139.09"/>
</a>
</g>
</g>
<!-- Node12 -->
<g id="Node000012" class="node">
<title>Node12</title>
<g id="a_Node000012"><a xlink:title=" ">
<polygon fill="#e0e0e0" stroke="#999999" points="541,-74 483,-74 483,-55 541,-55 541,-74"/>
<text text-anchor="middle" x="512" y="-62" font-family="Helvetica,sans-Serif" font-size="10.00">memory</text>
</a>
</g>
</g>
<!-- Node8&#45;&gt;Node12 -->
<g id="edge11_Node000008_Node000012" class="edge">
<title>Node8&#45;&gt;Node12</title>
<g id="a_edge11_Node000008_Node000012"><a xlink:title=" ">
<path fill="none" stroke="#63b8ff" d="M436.24,-164.93C457.24,-158.45 481.68,-147.41 497,-129 507.3,-116.62 510.79,-98.4 511.85,-84.65"/>
<polygon fill="#63b8ff" stroke="#63b8ff" points="515.36,-84.51 512.27,-74.38 508.36,-84.23 515.36,-84.51"/>
</a>
</g>
</g>
<!-- Node13 -->
<g id="Node000013" class="node">
<title>Node13</title>
<g id="a_Node000013"><a xlink:title=" ">
<polygon fill="#e0e0e0" stroke="#999999" points="124,-74 76,-74 76,-55 124,-55 124,-74"/>
<text text-anchor="middle" x="100" y="-62" font-family="Helvetica,sans-Serif" font-size="10.00">mutex</text>
</a>
</g>
</g>
<!-- Node8&#45;&gt;Node13 -->
<g id="edge12_Node000008_Node000013" class="edge">
<title>Node8&#45;&gt;Node13</title>
<g id="a_edge12_Node000008_Node000013"><a xlink:title=" ">
<path fill="none" stroke="#63b8ff" d="M322.96,-173.22C243.49,-171.18 123.86,-162.44 95,-129 84.41,-116.72 87.59,-97.68 92.24,-83.65"/>
<polygon fill="#63b8ff" stroke="#63b8ff" points="95.59,-84.68 95.88,-74.09 89.05,-82.19 95.59,-84.68"/>
</a>
</g>
</g>
<!-- Node14 -->
<g id="Node000014" class="node">
<title>Node14</title>
<g id="a_Node000014"><a xlink:title=" ">
<polygon fill="#e0e0e0" stroke="#999999" points="292.5,-74 245.5,-74 245.5,-55 292.5,-55 292.5,-74"/>
<text text-anchor="middle" x="269" y="-62" font-family="Helvetica,sans-Serif" font-size="10.00">vector</text>
</a>
</g>
</g>
<!-- Node8&#45;&gt;Node14 -->
<g id="edge13_Node000008_Node000014" class="edge">
<title>Node8&#45;&gt;Node14</title>
<g id="a_edge13_Node000008_Node000014"><a xlink:title=" ">
<path fill="none" stroke="#63b8ff" d="M411.89,-164.97C432.38,-152.88 463.62,-129.98 448,-110 439,-98.49 351.85,-80.77 302.55,-71.55"/>
<polygon fill="#63b8ff" stroke="#63b8ff" points="303.12,-68.1 292.65,-69.72 301.85,-74.98 303.12,-68.1"/>
</a>
</g>
</g>
<!-- Node8&#45;&gt;Node15 -->
<g id="edge14_Node000008_Node000015" class="edge">
<title>Node8&#45;&gt;Node15</title>
<g id="a_edge14_Node000008_Node000015"><a xlink:title=" ">
<path fill="none" stroke="#63b8ff" d="M358.73,-164.98C318.68,-155.84 254.93,-141.27 211.36,-131.32"/>
<polygon fill="#63b8ff" stroke="#63b8ff" points="212.1,-127.9 201.57,-129.08 210.54,-134.72 212.1,-127.9"/>
</a>
</g>
</g>
<!-- Node16 -->
<g id="Node000016" class="node">
<title>Node16</title>
<g id="a_Node000016"><a xlink:href="LogSink_8ixx.html" target="_top" xlink:title="Abstract interface for log output destinations.">
<polygon fill="white" stroke="#666666" points="459,-74 335,-74 335,-55 459,-55 459,-74"/>
<text text-anchor="middle" x="397" y="-62" font-family="Helvetica,sans-Serif" font-size="10.00">helios.util.log.LogSink</text>
</a>
</g>
</g>
<!-- Node8&#45;&gt;Node16 -->
<g id="edge21_Node000008_Node000016" class="edge">
<title>Node8&#45;&gt;Node16</title>
<g id="a_edge21_Node000008_Node000016"><a xlink:title=" ">
<path fill="none" stroke="#63b8ff" d="M430.22,-164.93C448.71,-158.37 469.96,-147.24 481,-129 494.97,-105.92 464.91,-88.34 436.95,-77.6"/>
<polygon fill="#63b8ff" stroke="#63b8ff" points="437.81,-74.19 427.22,-74.08 435.43,-80.77 437.81,-74.19"/>
</a>
</g>
</g>
<!-- Node15&#45;&gt;Node9 -->
<g id="edge15_Node000015_Node000009" class="edge">
<title>Node15&#45;&gt;Node9</title>
<g id="a_edge15_Node000015_Node000009"><a xlink:title=" ">
<path fill="none" stroke="#63b8ff" d="M171.48,-109.72C183.63,-96.02 209.03,-69.6 236,-55 277.42,-32.58 331.09,-20.69 364.79,-15"/>
<polygon fill="#63b8ff" stroke="#63b8ff" points="365.67,-18.41 374.99,-13.37 364.57,-11.49 365.67,-18.41"/>
</a>
</g>
</g>
<!-- Node15&#45;&gt;Node12 -->
<g id="edge17_Node000015_Node000012" class="edge">
<title>Node15&#45;&gt;Node12</title>
<g id="a_edge17_Node000015_Node000012"><a xlink:title=" ">
<path fill="none" stroke="#63b8ff" d="M223.54,-110.6C284.92,-102.26 383.33,-88.37 468,-74 469.49,-73.75 471,-73.49 472.53,-73.21"/>
<polygon fill="#63b8ff" stroke="#63b8ff" points="473.48,-76.6 482.69,-71.36 472.22,-69.71 473.48,-76.6"/>
</a>
</g>
</g>
<!-- Node15&#45;&gt;Node13 -->
<g id="edge18_Node000015_Node000013" class="edge">
<title>Node15&#45;&gt;Node13</title>
<g id="a_edge18_Node000015_Node000013"><a xlink:title=" ">
<path fill="none" stroke="#63b8ff" d="M153.72,-109.98C144.16,-102.07 129.72,-90.11 118.22,-80.58"/>
<polygon fill="#63b8ff" stroke="#63b8ff" points="120.4,-77.85 110.47,-74.17 115.94,-83.24 120.4,-77.85"/>
</a>
</g>
</g>
<!-- Node15&#45;&gt;Node14 -->
<g id="edge16_Node000015_Node000014" class="edge">
<title>Node15&#45;&gt;Node14</title>
<g id="a_edge16_Node000015_Node000014"><a xlink:title=" ">
<path fill="none" stroke="#63b8ff" d="M180.87,-109.98C197.61,-101.54 223.5,-88.47 242.89,-78.68"/>
<polygon fill="#63b8ff" stroke="#63b8ff" points="244.47,-81.8 251.82,-74.17 241.32,-75.55 244.47,-81.8"/>
</a>
</g>
</g>
<!-- Node15&#45;&gt;Node16 -->
<g id="edge19_Node000015_Node000016" class="edge">
<title>Node15&#45;&gt;Node16</title>
<g id="a_edge19_Node000015_Node000016"><a xlink:title=" ">
<path fill="none" stroke="#63b8ff" d="M201.44,-109.98C241.65,-100.84 305.68,-86.27 349.44,-76.32"/>
<polygon fill="#63b8ff" stroke="#63b8ff" points="350.3,-79.71 359.27,-74.08 348.74,-72.89 350.3,-79.71"/>
</a>
</g>
</g>
<!-- Node16&#45;&gt;Node9 -->
<g id="edge20_Node000016_Node000009" class="edge">
<title>Node16&#45;&gt;Node9</title>
<g id="a_edge20_Node000016_Node000009"><a xlink:title=" ">
<path fill="none" stroke="#63b8ff" d="M397,-54.75C397,-47.8 397,-37.85 397,-29.13"/>
<polygon fill="#63b8ff" stroke="#63b8ff" points="400.5,-29.09 397,-19.09 393.5,-29.09 400.5,-29.09"/>
</a>
</g>
</g>
<!-- Node17&#45;&gt;Node17 -->
<g id="edge24_Node000017_Node000017" class="edge">
<title>Node17&#45;&gt;Node17</title>
<g id="a_edge24_Node000017_Node000017"><a xlink:title=" ">
<path fill="none" stroke="#63b8ff" d="M581.77,-184.03C601,-186.06 619,-182.88 619,-174.5 619,-167.62 606.89,-164.25 591.92,-164.38"/>
<polygon fill="#63b8ff" stroke="#63b8ff" points="591.55,-160.89 581.77,-164.97 591.95,-167.88 591.55,-160.89"/>
</a>
</g>
</g>
</g>
</svg>
