<?xml version="1.0" encoding="UTF-8" standalone="no"?>
<!DOCTYPE svg PUBLIC "-//W3C//DTD SVG 1.1//EN"
 "http://www.w3.org/Graphics/SVG/1.1/DTD/svg11.dtd">
<!-- Generated by graphviz version 2.43.0 (0)
 -->
<!-- Title: include/helios/engine/game/commands/Aim2DCommand.ixx Pages: 1 -->
<svg width="788pt" height="577pt"
 viewBox="0.00 0.00 788.00 577.00" xmlns="http://www.w3.org/2000/svg" xmlns:xlink="http://www.w3.org/1999/xlink">
<g id="graph0" class="graph" transform="scale(1 1) rotate(0) translate(4 573)">
<title>include/helios/engine/game/commands/Aim2DCommand.ixx</title>
<!-- Node1 -->
<g id="Node000001" class="node">
<title>Node1</title>
<g id="a_Node000001"><a xlink:title="Command for applying 2D aiming direction to GameObjects.">
<polygon fill="#999999" stroke="#666666" points="434.5,-569 225.5,-569 225.5,-539 434.5,-539 434.5,-569"/>
<text text-anchor="start" x="233.5" y="-557" font-family="Helvetica,sans-Serif" font-size="10.00">include/helios/engine</text>
<text text-anchor="middle" x="330" y="-546" font-family="Helvetica,sans-Serif" font-size="10.00">/game/commands/Aim2DCommand.ixx</text>
</a>
</g>
</g>
<!-- Node2 -->
<g id="Node000002" class="node">
<title>Node2</title>
<g id="a_Node000002"><a xlink:href="Aim2DComponent_8ixx.html" target="_top" xlink:title="Component for handling 2D aiming direction.">
<polygon fill="white" stroke="#666666" points="416.5,-448 187.5,-448 187.5,-418 416.5,-418 416.5,-448"/>
<text text-anchor="start" x="195.5" y="-436" font-family="Helvetica,sans-Serif" font-size="10.00">helios.engine.game.components.gameplay.</text>
<text text-anchor="middle" x="302" y="-425" font-family="Helvetica,sans-Serif" font-size="10.00">Aim2DComponent</text>
</a>
</g>
</g>
<!-- Node1&#45;&gt;Node2 -->
<g id="edge1_Node000001_Node000002" class="edge">
<title>Node1&#45;&gt;Node2</title>
<g id="a_edge1_Node000001_Node000002"><a xlink:title=" ">
<path fill="none" stroke="#63b8ff" d="M326.68,-538.88C321.98,-518.93 313.35,-482.22 307.64,-457.96"/>
<polygon fill="#63b8ff" stroke="#63b8ff" points="311.02,-457.03 305.32,-448.1 304.2,-458.64 311.02,-457.03"/>
</a>
</g>
</g>
<!-- Node18 -->
<g id="Node000018" class="node">
<title>Node18</title>
<g id="a_Node000018"><a xlink:href="helios_2math_2types_2__module_8ixx.html" target="_top" xlink:title="Module exports for vector and matrix type definitions.">
<polygon fill="white" stroke="#666666" points="104,-184 0,-184 0,-165 104,-165 104,-184"/>
<text text-anchor="middle" x="52" y="-172" font-family="Helvetica,sans-Serif" font-size="10.00">helios.math.types</text>
</a>
</g>
</g>
<!-- Node1&#45;&gt;Node18 -->
<g id="edge27_Node000001_Node000018" class="edge">
<title>Node1&#45;&gt;Node18</title>
<g id="a_edge27_Node000001_Node000018"><a xlink:title=" ">
<path fill="none" stroke="#63b8ff" d="M248.62,-538.93C154.99,-520.38 14,-484.12 14,-434 14,-434 14,-434 14,-300 14,-260.63 31.6,-217.18 42.84,-193.45"/>
<polygon fill="#63b8ff" stroke="#63b8ff" points="46.08,-194.8 47.34,-184.28 39.79,-191.71 46.08,-194.8"/>
</a>
</g>
</g>
<!-- Node19 -->
<g id="Node000019" class="node">
<title>Node19</title>
<g id="a_Node000019"><a xlink:href="GameObject_8ixx.html" target="_top" xlink:title="Base class for interactive game entities with transform capabilities.">
<polygon fill="white" stroke="#666666" points="611,-442.5 435,-442.5 435,-423.5 611,-423.5 611,-442.5"/>
<text text-anchor="middle" x="523" y="-430.5" font-family="Helvetica,sans-Serif" font-size="10.00">helios.engine.game.GameObject</text>
</a>
</g>
</g>
<!-- Node1&#45;&gt;Node19 -->
<g id="edge28_Node000001_Node000019" class="edge">
<title>Node1&#45;&gt;Node19</title>
<g id="a_edge28_Node000001_Node000019"><a xlink:title=" ">
<path fill="none" stroke="#63b8ff" d="M346.96,-538.78C364.93,-524.08 394.45,-500.95 422,-484 445.3,-469.66 473.29,-456.07 493.89,-446.68"/>
<polygon fill="#63b8ff" stroke="#63b8ff" points="495.38,-449.85 503.07,-442.55 492.51,-443.46 495.38,-449.85"/>
</a>
</g>
</g>
<!-- Node23 -->
<g id="Node000023" class="node">
<title>Node23</title>
<g id="a_Node000023"><a xlink:href="Command_8ixx.html" target="_top" xlink:title="Abstract base class for game commands following the Command pattern.">
<polygon fill="white" stroke="#666666" points="597,-503 431,-503 431,-484 597,-484 597,-503"/>
<text text-anchor="middle" x="514" y="-491" font-family="Helvetica,sans-Serif" font-size="10.00">helios.engine.game.Command</text>
</a>
</g>
</g>
<!-- Node1&#45;&gt;Node23 -->
<g id="edge37_Node000001_Node000023" class="edge">
<title>Node1&#45;&gt;Node23</title>
<g id="a_edge37_Node000001_Node000023"><a xlink:title=" ">
<path fill="none" stroke="#63b8ff" d="M374.07,-538.99C405.69,-528.94 447.78,-515.55 477.52,-506.1"/>
<polygon fill="#63b8ff" stroke="#63b8ff" points="478.63,-509.42 487.1,-503.05 476.51,-502.75 478.63,-509.42"/>
</a>
</g>
</g>
<!-- Node3 -->
<g id="Node000003" class="node">
<title>Node3</title>
<g id="a_Node000003"><a xlink:href="Component_8ixx.html" target="_top" xlink:title="Base class for components attached to GameObjects.">
<polygon fill="white" stroke="#666666" points="422,-376.5 250,-376.5 250,-357.5 422,-357.5 422,-376.5"/>
<text text-anchor="middle" x="336" y="-364.5" font-family="Helvetica,sans-Serif" font-size="10.00">helios.engine.game.Component</text>
</a>
</g>
</g>
<!-- Node2&#45;&gt;Node3 -->
<g id="edge2_Node000002_Node000003" class="edge">
<title>Node2&#45;&gt;Node3</title>
<g id="a_edge2_Node000002_Node000003"><a xlink:title=" ">
<path fill="none" stroke="#63b8ff" d="M309.55,-417.8C314.53,-408.41 321.12,-396.02 326.47,-385.95"/>
<polygon fill="#63b8ff" stroke="#63b8ff" points="329.7,-387.32 331.3,-376.84 323.52,-384.03 329.7,-387.32"/>
</a>
</g>
</g>
<!-- Node4 -->
<g id="Node000004" class="node">
<title>Node4</title>
<g id="a_Node000004"><a xlink:href="Updatable_8ixx.html" target="_top" xlink:title="Interface for components that require per&#45;frame updates.">
<polygon fill="white" stroke="#666666" points="606,-376.5 440,-376.5 440,-357.5 606,-357.5 606,-376.5"/>
<text text-anchor="middle" x="523" y="-364.5" font-family="Helvetica,sans-Serif" font-size="10.00">helios.engine.game.Updatable</text>
</a>
</g>
</g>
<!-- Node2&#45;&gt;Node4 -->
<g id="edge3_Node000002_Node000004" class="edge">
<title>Node2&#45;&gt;Node4</title>
<g id="a_edge3_Node000002_Node000004"><a xlink:title=" ">
<path fill="none" stroke="#63b8ff" d="M350.5,-417.95C390.45,-406.38 446.39,-390.18 483.62,-379.41"/>
<polygon fill="#63b8ff" stroke="#63b8ff" points="484.96,-382.66 493.59,-376.52 483.01,-375.94 484.96,-382.66"/>
</a>
</g>
</g>
<!-- Node5 -->
<g id="Node000005" class="node">
<title>Node5</title>
<g id="a_Node000005"><a xlink:href="UpdateContext_8ixx.html" target="_top" xlink:title="Context struct passed to components during per&#45;frame updates.">
<polygon fill="white" stroke="#666666" points="231.5,-382 80.5,-382 80.5,-352 231.5,-352 231.5,-382"/>
<text text-anchor="start" x="88.5" y="-370" font-family="Helvetica,sans-Serif" font-size="10.00">helios.engine.game.Update</text>
<text text-anchor="middle" x="156" y="-359" font-family="Helvetica,sans-Serif" font-size="10.00">Context</text>
</a>
</g>
</g>
<!-- Node2&#45;&gt;Node5 -->
<g id="edge4_Node000002_Node000005" class="edge">
<title>Node2&#45;&gt;Node5</title>
<g id="a_edge4_Node000002_Node000005"><a xlink:title=" ">
<path fill="none" stroke="#63b8ff" d="M269.96,-417.95C248.56,-408.58 220.23,-396.16 197.17,-386.05"/>
<polygon fill="#63b8ff" stroke="#63b8ff" points="198.53,-382.82 187.97,-382.01 195.72,-389.23 198.53,-382.82"/>
</a>
</g>
</g>
<!-- Node2&#45;&gt;Node18 -->
<g id="edge26_Node000002_Node000018" class="edge">
<title>Node2&#45;&gt;Node18</title>
<g id="a_edge26_Node000002_Node000018"><a xlink:title=" ">
<path fill="none" stroke="#63b8ff" d="M187.3,-419.93C137.59,-412.22 87.08,-400.16 71,-382 23.76,-328.65 38.21,-234.36 47.2,-194.32"/>
<polygon fill="#63b8ff" stroke="#63b8ff" points="50.66,-194.88 49.58,-184.34 43.85,-193.26 50.66,-194.88"/>
</a>
</g>
</g>
<!-- Node6 -->
<g id="Node000006" class="node">
<title>Node6</title>
<g id="a_Node000006"><a xlink:title=" ">
<polygon fill="#e0e0e0" stroke="#999999" points="309.5,-310.5 244.5,-310.5 244.5,-291.5 309.5,-291.5 309.5,-310.5"/>
<text text-anchor="middle" x="277" y="-298.5" font-family="Helvetica,sans-Serif" font-size="10.00">stdexcept</text>
</a>
</g>
</g>
<!-- Node5&#45;&gt;Node6 -->
<g id="edge5_Node000005_Node000006" class="edge">
<title>Node5&#45;&gt;Node6</title>
<g id="a_edge5_Node000005_Node000006"><a xlink:title=" ">
<path fill="none" stroke="#63b8ff" d="M182.55,-351.95C203.21,-341.03 231.68,-325.97 251.95,-315.25"/>
<polygon fill="#63b8ff" stroke="#63b8ff" points="253.69,-318.29 260.9,-310.52 250.42,-312.1 253.69,-318.29"/>
</a>
</g>
</g>
<!-- Node7 -->
<g id="Node000007" class="node">
<title>Node7</title>
<g id="a_Node000007"><a xlink:href="InputSnapshot_8ixx.html" target="_top" xlink:title="Immutable snapshot of input state at a specific point in time.">
<polygon fill="white" stroke="#666666" points="226,-316 86,-316 86,-286 226,-286 226,-316"/>
<text text-anchor="start" x="94" y="-304" font-family="Helvetica,sans-Serif" font-size="10.00">helios.engine.game.Input</text>
<text text-anchor="middle" x="156" y="-293" font-family="Helvetica,sans-Serif" font-size="10.00">Snapshot</text>
</a>
</g>
</g>
<!-- Node5&#45;&gt;Node7 -->
<g id="edge6_Node000005_Node000007" class="edge">
<title>Node5&#45;&gt;Node7</title>
<g id="a_edge6_Node000005_Node000007"><a xlink:title=" ">
<path fill="none" stroke="#63b8ff" d="M156,-351.8C156,-344.34 156,-334.99 156,-326.41"/>
<polygon fill="#63b8ff" stroke="#63b8ff" points="159.5,-326.16 156,-316.16 152.5,-326.16 159.5,-326.16"/>
</a>
</g>
</g>
<!-- Node8 -->
<g id="Node000008" class="node">
<title>Node8</title>
<g id="a_Node000008"><a xlink:href="GamepadState_8ixx.html" target="_top" xlink:title="Representation of current gamepad input state.">
<polygon fill="white" stroke="#666666" points="317.5,-250 144.5,-250 144.5,-220 317.5,-220 317.5,-250"/>
<text text-anchor="start" x="152.5" y="-238" font-family="Helvetica,sans-Serif" font-size="10.00">helios.input.gamepad.Gamepad</text>
<text text-anchor="middle" x="231" y="-227" font-family="Helvetica,sans-Serif" font-size="10.00">State</text>
</a>
</g>
</g>
<!-- Node7&#45;&gt;Node8 -->
<g id="edge7_Node000007_Node000008" class="edge">
<title>Node7&#45;&gt;Node8</title>
<g id="a_edge7_Node000007_Node000008"><a xlink:title=" ">
<path fill="none" stroke="#63b8ff" d="M172.64,-285.8C182.65,-277.26 195.55,-266.25 206.68,-256.75"/>
<polygon fill="#63b8ff" stroke="#63b8ff" points="209.07,-259.32 214.4,-250.16 204.52,-253.99 209.07,-259.32"/>
</a>
</g>
</g>
<!-- Node9 -->
<g id="Node000009" class="node">
<title>Node9</title>
<g id="a_Node000009"><a xlink:href="LogManager_8ixx.html" target="_top" xlink:title="Central manager for scoped loggers with configurable sinks.">
<polygon fill="white" stroke="#666666" points="446,-184 300,-184 300,-165 446,-165 446,-184"/>
<text text-anchor="middle" x="373" y="-172" font-family="Helvetica,sans-Serif" font-size="10.00">helios.util.log.LogManager</text>
</a>
</g>
</g>
<!-- Node8&#45;&gt;Node9 -->
<g id="edge8_Node000008_Node000009" class="edge">
<title>Node8&#45;&gt;Node9</title>
<g id="a_edge8_Node000008_Node000009"><a xlink:title=" ">
<path fill="none" stroke="#63b8ff" d="M265.01,-219.99C288.6,-210.27 319.74,-197.44 342.52,-188.06"/>
<polygon fill="#63b8ff" stroke="#63b8ff" points="344.12,-191.18 352.03,-184.14 341.45,-184.71 344.12,-191.18"/>
</a>
</g>
</g>
<!-- Node16 -->
<g id="Node000016" class="node">
<title>Node16</title>
<g id="a_Node000016"><a xlink:href="Logger_8ixx.html" target="_top" xlink:title="Simple synchronous logger with configurable output sinks.">
<polygon fill="white" stroke="#666666" points="558.5,-129 439.5,-129 439.5,-110 558.5,-110 558.5,-129"/>
<text text-anchor="middle" x="499" y="-117" font-family="Helvetica,sans-Serif" font-size="10.00">helios.util.log.Logger</text>
</a>
</g>
</g>
<!-- Node8&#45;&gt;Node16 -->
<g id="edge23_Node000008_Node000016" class="edge">
<title>Node8&#45;&gt;Node16</title>
<g id="a_edge23_Node000008_Node000016"><a xlink:title=" ">
<path fill="none" stroke="#63b8ff" d="M317.72,-229.55C361.9,-223.76 414.67,-211.14 455,-184 471.66,-172.79 483.88,-152.99 491.15,-138.46"/>
<polygon fill="#63b8ff" stroke="#63b8ff" points="494.5,-139.56 495.57,-129.02 488.16,-136.6 494.5,-139.56"/>
</a>
</g>
</g>
<!-- Node8&#45;&gt;Node18 -->
<g id="edge24_Node000008_Node000018" class="edge">
<title>Node8&#45;&gt;Node18</title>
<g id="a_edge24_Node000008_Node000018"><a xlink:title=" ">
<path fill="none" stroke="#63b8ff" d="M188.13,-219.99C157.5,-209.98 116.77,-196.67 87.87,-187.22"/>
<polygon fill="#63b8ff" stroke="#63b8ff" points="88.77,-183.83 78.17,-184.05 86.59,-190.49 88.77,-183.83"/>
</a>
</g>
</g>
<!-- Node10 -->
<g id="Node000010" class="node">
<title>Node10</title>
<g id="a_Node000010"><a xlink:title=" ">
<polygon fill="#e0e0e0" stroke="#999999" points="374,-19 330,-19 330,0 374,0 374,-19"/>
<text text-anchor="middle" x="352" y="-7" font-family="Helvetica,sans-Serif" font-size="10.00">string</text>
</a>
</g>
</g>
<!-- Node9&#45;&gt;Node10 -->
<g id="edge9_Node000009_Node000010" class="edge">
<title>Node9&#45;&gt;Node10</title>
<g id="a_edge9_Node000009_Node000010"><a xlink:title=" ">
<path fill="none" stroke="#63b8ff" d="M299.93,-169.61C238.77,-164.65 158.33,-153.54 138,-129 83.39,-63.07 247.48,-27.5 319.7,-15.35"/>
<polygon fill="#63b8ff" stroke="#63b8ff" points="320.35,-18.79 329.65,-13.73 319.22,-11.88 320.35,-18.79"/>
</a>
</g>
</g>
<!-- Node11 -->
<g id="Node000011" class="node">
<title>Node11</title>
<g id="a_Node000011"><a xlink:title=" ">
<polygon fill="#e0e0e0" stroke="#999999" points="240.5,-129 147.5,-129 147.5,-110 240.5,-110 240.5,-129"/>
<text text-anchor="middle" x="194" y="-117" font-family="Helvetica,sans-Serif" font-size="10.00">unordered_map</text>
</a>
</g>
</g>
<!-- Node9&#45;&gt;Node11 -->
<g id="edge10_Node000009_Node000011" class="edge">
<title>Node9&#45;&gt;Node11</title>
<g id="a_edge10_Node000009_Node000011"><a xlink:title=" ">
<path fill="none" stroke="#63b8ff" d="M344.24,-164.98C314.06,-156.05 266.43,-141.94 232.9,-132.02"/>
<polygon fill="#63b8ff" stroke="#63b8ff" points="233.57,-128.57 222.98,-129.08 231.58,-135.28 233.57,-128.57"/>
</a>
</g>
</g>
<!-- Node12 -->
<g id="Node000012" class="node">
<title>Node12</title>
<g id="a_Node000012"><a xlink:title=" ">
<polygon fill="#e0e0e0" stroke="#999999" points="345,-129 259,-129 259,-110 345,-110 345,-129"/>
<text text-anchor="middle" x="302" y="-117" font-family="Helvetica,sans-Serif" font-size="10.00">unordered_set</text>
</a>
</g>
</g>
<!-- Node9&#45;&gt;Node12 -->
<g id="edge11_Node000009_Node000012" class="edge">
<title>Node9&#45;&gt;Node12</title>
<g id="a_edge11_Node000009_Node000012"><a xlink:title=" ">
<path fill="none" stroke="#63b8ff" d="M361.59,-164.98C350.89,-157 334.66,-144.88 321.84,-135.31"/>
<polygon fill="#63b8ff" stroke="#63b8ff" points="323.72,-132.35 313.61,-129.17 319.53,-137.96 323.72,-132.35"/>
</a>
</g>
</g>
<!-- Node13 -->
<g id="Node000013" class="node">
<title>Node13</title>
<g id="a_Node000013"><a xlink:title=" ">
<polygon fill="#e0e0e0" stroke="#999999" points="678,-74 620,-74 620,-55 678,-55 678,-74"/>
<text text-anchor="middle" x="649" y="-62" font-family="Helvetica,sans-Serif" font-size="10.00">memory</text>
</a>
</g>
</g>
<!-- Node9&#45;&gt;Node13 -->
<g id="edge12_Node000009_Node000013" class="edge">
<title>Node9&#45;&gt;Node13</title>
<g id="a_edge12_Node000009_Node000013"><a xlink:title=" ">
<path fill="none" stroke="#63b8ff" d="M446.14,-168.75C489.01,-163.47 543.01,-152.35 586,-129 607.02,-117.58 625.55,-96.91 636.98,-82.26"/>
<polygon fill="#63b8ff" stroke="#63b8ff" points="639.94,-84.15 643.14,-74.05 634.34,-79.95 639.94,-84.15"/>
</a>
</g>
</g>
<!-- Node14 -->
<g id="Node000014" class="node">
<title>Node14</title>
<g id="a_Node000014"><a xlink:title=" ">
<polygon fill="#e0e0e0" stroke="#999999" points="480,-74 432,-74 432,-55 480,-55 480,-74"/>
<text text-anchor="middle" x="456" y="-62" font-family="Helvetica,sans-Serif" font-size="10.00">mutex</text>
</a>
</g>
</g>
<!-- Node9&#45;&gt;Node14 -->
<g id="edge13_Node000009_Node000014" class="edge">
<title>Node9&#45;&gt;Node14</title>
<g id="a_edge13_Node000009_Node000014"><a xlink:title=" ">
<path fill="none" stroke="#63b8ff" d="M379.79,-164.66C393.6,-146.69 425.15,-105.64 443.02,-82.38"/>
<polygon fill="#63b8ff" stroke="#63b8ff" points="446.03,-84.22 449.35,-74.16 440.48,-79.95 446.03,-84.22"/>
</a>
</g>
</g>
<!-- Node15 -->
<g id="Node000015" class="node">
<title>Node15</title>
<g id="a_Node000015"><a xlink:title=" ">
<polygon fill="#e0e0e0" stroke="#999999" points="601.5,-74 554.5,-74 554.5,-55 601.5,-55 601.5,-74"/>
<text text-anchor="middle" x="578" y="-62" font-family="Helvetica,sans-Serif" font-size="10.00">vector</text>
</a>
</g>
</g>
<!-- Node9&#45;&gt;Node15 -->
<g id="edge14_Node000009_Node000015" class="edge">
<title>Node9&#45;&gt;Node15</title>
<g id="a_edge14_Node000009_Node000015"><a xlink:title=" ">
<path fill="none" stroke="#63b8ff" d="M446.09,-165.39C494.24,-158.49 551.35,-146.83 568,-129 579.06,-117.16 580.79,-98.32 580.22,-84.24"/>
<polygon fill="#63b8ff" stroke="#63b8ff" points="583.7,-83.86 579.4,-74.18 576.72,-84.43 583.7,-83.86"/>
</a>
</g>
</g>
<!-- Node9&#45;&gt;Node16 -->
<g id="edge15_Node000009_Node000016" class="edge">
<title>Node9&#45;&gt;Node16</title>
<g id="a_edge15_Node000009_Node000016"><a xlink:title=" ">
<path fill="none" stroke="#63b8ff" d="M393.24,-164.98C413.7,-156.38 445.53,-142.99 468.93,-133.15"/>
<polygon fill="#63b8ff" stroke="#63b8ff" points="470.53,-136.27 478.39,-129.17 467.81,-129.82 470.53,-136.27"/>
</a>
</g>
</g>
<!-- Node17 -->
<g id="Node000017" class="node">
<title>Node17</title>
<g id="a_Node000017"><a xlink:href="LogSink_8ixx.html" target="_top" xlink:title="Abstract interface for log output destinations.">
<polygon fill="white" stroke="#666666" points="414,-74 290,-74 290,-55 414,-55 414,-74"/>
<text text-anchor="middle" x="352" y="-62" font-family="Helvetica,sans-Serif" font-size="10.00">helios.util.log.LogSink</text>
</a>
</g>
</g>
<!-- Node9&#45;&gt;Node17 -->
<g id="edge22_Node000009_Node000017" class="edge">
<title>Node9&#45;&gt;Node17</title>
<g id="a_edge22_Node000009_Node000017"><a xlink:title=" ">
<path fill="none" stroke="#63b8ff" d="M371.28,-164.66C367.88,-147.17 360.23,-107.8 355.65,-84.27"/>
<polygon fill="#63b8ff" stroke="#63b8ff" points="359.03,-83.31 353.68,-74.16 352.16,-84.64 359.03,-83.31"/>
</a>
</g>
</g>
<!-- Node16&#45;&gt;Node10 -->
<g id="edge16_Node000016_Node000010" class="edge">
<title>Node16&#45;&gt;Node10</title>
<g id="a_edge16_Node000016_Node000010"><a xlink:title=" ">
<path fill="none" stroke="#63b8ff" d="M500.24,-109.96C501.66,-96.59 502.33,-70.62 489,-55 462.97,-24.49 415.79,-14.74 384.17,-11.72"/>
<polygon fill="#63b8ff" stroke="#63b8ff" points="384.34,-8.22 374.1,-10.93 383.79,-15.2 384.34,-8.22"/>
</a>
</g>
</g>
<!-- Node16&#45;&gt;Node13 -->
<g id="edge18_Node000016_Node000013" class="edge">
<title>Node16&#45;&gt;Node13</title>
<g id="a_edge18_Node000016_Node000013"><a xlink:title=" ">
<path fill="none" stroke="#63b8ff" d="M523.1,-109.98C547.88,-101.23 586.7,-87.51 614.69,-77.62"/>
<polygon fill="#63b8ff" stroke="#63b8ff" points="616.2,-80.8 624.46,-74.17 613.87,-74.2 616.2,-80.8"/>
</a>
</g>
</g>
<!-- Node16&#45;&gt;Node14 -->
<g id="edge19_Node000016_Node000014" class="edge">
<title>Node16&#45;&gt;Node14</title>
<g id="a_edge19_Node000016_Node000014"><a xlink:title=" ">
<path fill="none" stroke="#63b8ff" d="M491.9,-109.75C485.83,-102.26 476.91,-91.28 469.49,-82.13"/>
<polygon fill="#63b8ff" stroke="#63b8ff" points="471.99,-79.65 462.97,-74.09 466.55,-84.06 471.99,-79.65"/>
</a>
</g>
</g>
<!-- Node16&#45;&gt;Node15 -->
<g id="edge17_Node000016_Node000015" class="edge">
<title>Node16&#45;&gt;Node15</title>
<g id="a_edge17_Node000016_Node000015"><a xlink:title=" ">
<path fill="none" stroke="#63b8ff" d="M511.69,-109.98C523.83,-101.84 542.36,-89.41 556.75,-79.76"/>
<polygon fill="#63b8ff" stroke="#63b8ff" points="558.72,-82.65 565.08,-74.17 554.82,-76.84 558.72,-82.65"/>
</a>
</g>
</g>
<!-- Node16&#45;&gt;Node17 -->
<g id="edge20_Node000016_Node000017" class="edge">
<title>Node16&#45;&gt;Node17</title>
<g id="a_edge20_Node000016_Node000017"><a xlink:title=" ">
<path fill="none" stroke="#63b8ff" d="M475.38,-109.98C451.1,-101.23 413.05,-87.51 385.63,-77.62"/>
<polygon fill="#63b8ff" stroke="#63b8ff" points="386.64,-74.27 376.05,-74.17 384.27,-80.85 386.64,-74.27"/>
</a>
</g>
</g>
<!-- Node17&#45;&gt;Node10 -->
<g id="edge21_Node000017_Node000010" class="edge">
<title>Node17&#45;&gt;Node10</title>
<g id="a_edge21_Node000017_Node000010"><a xlink:title=" ">
<path fill="none" stroke="#63b8ff" d="M352,-54.75C352,-47.8 352,-37.85 352,-29.13"/>
<polygon fill="#63b8ff" stroke="#63b8ff" points="355.5,-29.09 352,-19.09 348.5,-29.09 355.5,-29.09"/>
</a>
</g>
</g>
<!-- Node18&#45;&gt;Node18 -->
<g id="edge25_Node000018_Node000018" class="edge">
<title>Node18&#45;&gt;Node18</title>
<g id="a_edge25_Node000018_Node000018"><a xlink:title=" ">
<path fill="none" stroke="#63b8ff" d="M84.77,-184.03C104,-186.06 122,-182.88 122,-174.5 122,-167.62 109.89,-164.25 94.92,-164.38"/>
<polygon fill="#63b8ff" stroke="#63b8ff" points="94.55,-160.89 84.77,-164.97 94.95,-167.88 94.55,-160.89"/>
</a>
</g>
</g>
<!-- Node19&#45;&gt;Node3 -->
<g id="edge33_Node000019_Node000003" class="edge">
<title>Node19&#45;&gt;Node3</title>
<g id="a_edge33_Node000019_Node000003"><a xlink:title=" ">
<path fill="none" stroke="#63b8ff" d="M497.78,-423.37C465.07,-412.17 407.83,-392.58 370.94,-379.96"/>
<polygon fill="#63b8ff" stroke="#63b8ff" points="371.71,-376.52 361.12,-376.6 369.45,-383.15 371.71,-376.52"/>
</a>
</g>
</g>
<!-- Node19&#45;&gt;Node4 -->
<g id="edge31_Node000019_Node000004" class="edge">
<title>Node19&#45;&gt;Node4</title>
<g id="a_edge31_Node000019_Node000004"><a xlink:title=" ">
<path fill="none" stroke="#63b8ff" d="M523,-423.37C523,-414.16 523,-399.29 523,-387.27"/>
<polygon fill="#63b8ff" stroke="#63b8ff" points="526.5,-386.91 523,-376.91 519.5,-386.91 526.5,-386.91"/>
</a>
</g>
</g>
<!-- Node19&#45;&gt;Node5 -->
<g id="edge32_Node000019_Node000005" class="edge">
<title>Node19&#45;&gt;Node5</title>
<g id="a_edge32_Node000019_Node000005"><a xlink:title=" ">
<path fill="none" stroke="#63b8ff" d="M473.89,-423.44C414.56,-413.09 313.76,-395.51 241.57,-382.92"/>
<polygon fill="#63b8ff" stroke="#63b8ff" points="242.03,-379.45 231.58,-381.18 240.83,-386.35 242.03,-379.45"/>
</a>
</g>
</g>
<!-- Node19&#45;&gt;Node13 -->
<g id="edge29_Node000019_Node000013" class="edge">
<title>Node19&#45;&gt;Node13</title>
<g id="a_edge29_Node000019_Node000013"><a xlink:title=" ">
<path fill="none" stroke="#63b8ff" d="M591.13,-423.49C647.43,-415.25 721.77,-401.17 745,-382 774.93,-357.3 780,-340.81 780,-302 780,-302 780,-302 780,-173.5 780,-124.18 724.04,-93.2 685.27,-77.65"/>
<polygon fill="#63b8ff" stroke="#63b8ff" points="686.42,-74.34 675.83,-74.02 683.91,-80.87 686.42,-74.34"/>
</a>
</g>
</g>
<!-- Node19&#45;&gt;Node15 -->
<g id="edge30_Node000019_Node000015" class="edge">
<title>Node19&#45;&gt;Node15</title>
<g id="a_edge30_Node000019_Node000015"><a xlink:title=" ">
<path fill="none" stroke="#63b8ff" d="M585.99,-423.49C637.18,-415.3 703.91,-401.32 723,-382 748.69,-356.01 742,-338.54 742,-302 742,-302 742,-302 742,-173.5 742,-141.77 655.26,-99.07 607.95,-78.14"/>
<polygon fill="#63b8ff" stroke="#63b8ff" points="609.34,-74.93 598.77,-74.13 606.54,-81.34 609.34,-74.93"/>
</a>
</g>
</g>
<!-- Node20 -->
<g id="Node000020" class="node">
<title>Node20</title>
<g id="a_Node000020"><a xlink:href="Guid_8ixx.html" target="_top" xlink:title="Lightweight GUID (globally unique identifier) implementation.">
<polygon fill="white" stroke="#666666" points="714,-376.5 624,-376.5 624,-357.5 714,-357.5 714,-376.5"/>
<text text-anchor="middle" x="669" y="-364.5" font-family="Helvetica,sans-Serif" font-size="10.00">helios.util.Guid</text>
</a>
</g>
</g>
<!-- Node19&#45;&gt;Node20 -->
<g id="edge34_Node000019_Node000020" class="edge">
<title>Node19&#45;&gt;Node20</title>
<g id="a_edge34_Node000019_Node000020"><a xlink:title=" ">
<path fill="none" stroke="#63b8ff" d="M542.69,-423.37C567.73,-412.39 611.15,-393.36 639.98,-380.72"/>
<polygon fill="#63b8ff" stroke="#63b8ff" points="641.4,-383.92 649.16,-376.7 638.59,-377.51 641.4,-383.92"/>
</a>
</g>
</g>
<!-- Node21 -->
<g id="Node000021" class="node">
<title>Node21</title>
<g id="a_Node000021"><a xlink:title=" ">
<polygon fill="#e0e0e0" stroke="#999999" points="636,-310.5 586,-310.5 586,-291.5 636,-291.5 636,-310.5"/>
<text text-anchor="middle" x="611" y="-298.5" font-family="Helvetica,sans-Serif" font-size="10.00">atomic</text>
</a>
</g>
</g>
<!-- Node20&#45;&gt;Node21 -->
<g id="edge35_Node000020_Node000021" class="edge">
<title>Node20&#45;&gt;Node21</title>
<g id="a_edge35_Node000020_Node000021"><a xlink:title=" ">
<path fill="none" stroke="#63b8ff" d="M661.18,-357.37C652.15,-347.4 637.09,-330.79 625.83,-318.36"/>
<polygon fill="#63b8ff" stroke="#63b8ff" points="628.38,-315.96 619.07,-310.91 623.19,-320.67 628.38,-315.96"/>
</a>
</g>
</g>
<!-- Node22 -->
<g id="Node000022" class="node">
<title>Node22</title>
<g id="a_Node000022"><a xlink:title=" ">
<polygon fill="#e0e0e0" stroke="#999999" points="704,-310.5 654,-310.5 654,-291.5 704,-291.5 704,-310.5"/>
<text text-anchor="middle" x="679" y="-298.5" font-family="Helvetica,sans-Serif" font-size="10.00">cstdint</text>
</a>
</g>
</g>
<!-- Node20&#45;&gt;Node22 -->
<g id="edge36_Node000020_Node000022" class="edge">
<title>Node20&#45;&gt;Node22</title>
<g id="a_edge36_Node000020_Node000022"><a xlink:title=" ">
<path fill="none" stroke="#63b8ff" d="M670.35,-357.37C671.8,-348.07 674.16,-332.98 676.05,-320.9"/>
<polygon fill="#63b8ff" stroke="#63b8ff" points="679.52,-321.33 677.61,-310.91 672.61,-320.25 679.52,-321.33"/>
</a>
</g>
</g>
<!-- Node23&#45;&gt;Node19 -->
<g id="edge38_Node000023_Node000019" class="edge">
<title>Node23&#45;&gt;Node19</title>
<g id="a_edge38_Node000023_Node000019"><a xlink:title=" ">
<path fill="none" stroke="#63b8ff" d="M515.33,-483.87C516.59,-475.66 518.53,-463.04 520.15,-452.55"/>
<polygon fill="#63b8ff" stroke="#63b8ff" points="523.61,-453.08 521.67,-442.67 516.69,-452.02 523.61,-453.08"/>
</a>
</g>
</g>
</g>
</svg>
