<?xml version="1.0" encoding="UTF-8" standalone="no"?>
<!DOCTYPE svg PUBLIC "-//W3C//DTD SVG 1.1//EN"
 "http://www.w3.org/Graphics/SVG/1.1/DTD/svg11.dtd">
<!-- Generated by graphviz version 2.43.0 (0)
 -->
<!-- Title: include/helios/util/io/BasicStringFileReader.ixx Pages: 1 -->
<svg width="518pt" height="269pt"
 viewBox="0.00 0.00 518.00 269.00" xmlns="http://www.w3.org/2000/svg" xmlns:xlink="http://www.w3.org/1999/xlink">
<g id="graph0" class="graph" transform="scale(1 1) rotate(0) translate(4 265)">
<title>include/helios/util/io/BasicStringFileReader.ixx</title>
<!-- Node1 -->
<g id="Node000001" class="node">
<title>Node1</title>
<g id="a_Node000001"><a xlink:title=" ">
<polygon fill="#999999" stroke="#666666" points="155,-261 0,-261 0,-231 155,-231 155,-261"/>
<text text-anchor="start" x="8" y="-249" font-family="Helvetica,sans-Serif" font-size="10.00">include/helios/util</text>
<text text-anchor="middle" x="77.5" y="-238" font-family="Helvetica,sans-Serif" font-size="10.00">/io/BasicStringFileReader.ixx</text>
</a>
</g>
</g>
<!-- Node2 -->
<g id="Node000002" class="node">
<title>Node2</title>
<g id="a_Node000002"><a xlink:title=" ">
<polygon fill="#e0e0e0" stroke="#999999" points="111.5,-19 67.5,-19 67.5,0 111.5,0 111.5,-19"/>
<text text-anchor="middle" x="89.5" y="-7" font-family="Helvetica,sans-Serif" font-size="10.00">string</text>
</a>
</g>
</g>
<!-- Node1&#45;&gt;Node2 -->
<g id="edge1_Node000001_Node000002" class="edge">
<title>Node1&#45;&gt;Node2</title>
<g id="a_edge1_Node000001_Node000002"><a xlink:title=" ">
<path fill="none" stroke="#63b8ff" d="M78.2,-230.84C78.99,-214.85 80.33,-188.05 81.5,-165 83.98,-116.2 86.98,-58.73 88.5,-29.56"/>
<polygon fill="#63b8ff" stroke="#63b8ff" points="92.02,-29.38 89.04,-19.21 85.03,-29.01 92.02,-29.38"/>
</a>
</g>
</g>
<!-- Node3 -->
<g id="Node000003" class="node">
<title>Node3</title>
<g id="a_Node000003"><a xlink:href="StringFileReader_8ixx.html" target="_top" xlink:title=" ">
<polygon fill="white" stroke="#666666" points="216,-195 91,-195 91,-165 216,-165 216,-195"/>
<text text-anchor="start" x="99" y="-183" font-family="Helvetica,sans-Serif" font-size="10.00">helios.util.io.StringFile</text>
<text text-anchor="middle" x="153.5" y="-172" font-family="Helvetica,sans-Serif" font-size="10.00">Reader</text>
</a>
</g>
</g>
<!-- Node1&#45;&gt;Node3 -->
<g id="edge2_Node000001_Node000003" class="edge">
<title>Node1&#45;&gt;Node3</title>
<g id="a_edge2_Node000001_Node000003"><a xlink:title=" ">
<path fill="none" stroke="#63b8ff" d="M94.37,-230.8C104.5,-222.26 117.58,-211.25 128.85,-201.75"/>
<polygon fill="#63b8ff" stroke="#63b8ff" points="131.29,-204.28 136.68,-195.16 126.78,-198.93 131.29,-204.28"/>
</a>
</g>
</g>
<!-- Node3&#45;&gt;Node2 -->
<g id="edge3_Node000003_Node000002" class="edge">
<title>Node3&#45;&gt;Node2</title>
<g id="a_edge3_Node000003_Node000002"><a xlink:title=" ">
<path fill="none" stroke="#63b8ff" d="M146.86,-164.94C137.59,-144.99 120.53,-107.19 108.5,-74 103.1,-59.11 98.01,-41.87 94.46,-29.11"/>
<polygon fill="#63b8ff" stroke="#63b8ff" points="97.78,-27.96 91.77,-19.23 91.02,-29.8 97.78,-27.96"/>
</a>
</g>
</g>
<!-- Node4 -->
<g id="Node000004" class="node">
<title>Node4</title>
<g id="a_Node000004"><a xlink:href="LogManager_8ixx.html" target="_top" xlink:title=" ">
<polygon fill="white" stroke="#666666" points="297.5,-129 151.5,-129 151.5,-110 297.5,-110 297.5,-129"/>
<text text-anchor="middle" x="224.5" y="-117" font-family="Helvetica,sans-Serif" font-size="10.00">helios.util.log.LogManager</text>
</a>
</g>
</g>
<!-- Node3&#45;&gt;Node4 -->
<g id="edge4_Node000003_Node000004" class="edge">
<title>Node3&#45;&gt;Node4</title>
<g id="a_edge4_Node000003_Node000004"><a xlink:title=" ">
<path fill="none" stroke="#63b8ff" d="M170.69,-164.84C181.31,-156.09 194.94,-144.85 205.83,-135.88"/>
<polygon fill="#63b8ff" stroke="#63b8ff" points="208.37,-138.33 213.86,-129.27 203.92,-132.92 208.37,-138.33"/>
</a>
</g>
</g>
<!-- Node8 -->
<g id="Node000008" class="node">
<title>Node8</title>
<g id="a_Node000008"><a xlink:href="Logger_8ixx.html" target="_top" xlink:title=" ">
<polygon fill="white" stroke="#666666" points="510,-74 391,-74 391,-55 510,-55 510,-74"/>
<text text-anchor="middle" x="450.5" y="-62" font-family="Helvetica,sans-Serif" font-size="10.00">helios.util.log.Logger</text>
</a>
</g>
</g>
<!-- Node3&#45;&gt;Node8 -->
<g id="edge12_Node000003_Node000008" class="edge">
<title>Node3&#45;&gt;Node8</title>
<g id="a_edge12_Node000003_Node000008"><a xlink:title=" ">
<path fill="none" stroke="#63b8ff" d="M200.46,-164.98C230.95,-155.56 271.4,-142.44 306.5,-129 347.81,-113.18 394.47,-91.97 423.19,-78.52"/>
<polygon fill="#63b8ff" stroke="#63b8ff" points="425,-81.53 432.56,-74.1 422.02,-75.2 425,-81.53"/>
</a>
</g>
</g>
<!-- Node4&#45;&gt;Node2 -->
<g id="edge5_Node000004_Node000002" class="edge">
<title>Node4&#45;&gt;Node2</title>
<g id="a_edge5_Node000004_Node000002"><a xlink:title=" ">
<path fill="none" stroke="#63b8ff" d="M194.25,-109.88C173.63,-102.83 146.68,-91.19 127.5,-74 113.63,-61.56 103.28,-42.84 96.91,-28.94"/>
<polygon fill="#63b8ff" stroke="#63b8ff" points="99.99,-27.24 92.83,-19.44 93.56,-30.01 99.99,-27.24"/>
</a>
</g>
</g>
<!-- Node5 -->
<g id="Node000005" class="node">
<title>Node5</title>
<g id="a_Node000005"><a xlink:title=" ">
<polygon fill="#e0e0e0" stroke="#999999" points="230,-74 137,-74 137,-55 230,-55 230,-74"/>
<text text-anchor="middle" x="183.5" y="-62" font-family="Helvetica,sans-Serif" font-size="10.00">unordered_map</text>
</a>
</g>
</g>
<!-- Node4&#45;&gt;Node5 -->
<g id="edge6_Node000004_Node000005" class="edge">
<title>Node4&#45;&gt;Node5</title>
<g id="a_edge6_Node000004_Node000005"><a xlink:title=" ">
<path fill="none" stroke="#63b8ff" d="M217.73,-109.75C211.94,-102.26 203.44,-91.28 196.36,-82.13"/>
<polygon fill="#63b8ff" stroke="#63b8ff" points="199.03,-79.86 190.14,-74.09 193.49,-84.14 199.03,-79.86"/>
</a>
</g>
</g>
<!-- Node6 -->
<g id="Node000006" class="node">
<title>Node6</title>
<g id="a_Node000006"><a xlink:title=" ">
<polygon fill="#e0e0e0" stroke="#999999" points="306.5,-74 248.5,-74 248.5,-55 306.5,-55 306.5,-74"/>
<text text-anchor="middle" x="277.5" y="-62" font-family="Helvetica,sans-Serif" font-size="10.00">memory</text>
</a>
</g>
</g>
<!-- Node4&#45;&gt;Node6 -->
<g id="edge7_Node000004_Node000006" class="edge">
<title>Node4&#45;&gt;Node6</title>
<g id="a_edge7_Node000004_Node000006"><a xlink:title=" ">
<path fill="none" stroke="#63b8ff" d="M233.25,-109.75C240.97,-102.03 252.4,-90.6 261.72,-81.28"/>
<polygon fill="#63b8ff" stroke="#63b8ff" points="264.31,-83.64 268.91,-74.09 259.36,-78.69 264.31,-83.64"/>
</a>
</g>
</g>
<!-- Node7 -->
<g id="Node000007" class="node">
<title>Node7</title>
<g id="a_Node000007"><a xlink:title=" ">
<polygon fill="#e0e0e0" stroke="#999999" points="372.5,-74 324.5,-74 324.5,-55 372.5,-55 372.5,-74"/>
<text text-anchor="middle" x="348.5" y="-62" font-family="Helvetica,sans-Serif" font-size="10.00">mutex</text>
</a>
</g>
</g>
<!-- Node4&#45;&gt;Node7 -->
<g id="edge8_Node000004_Node000007" class="edge">
<title>Node4&#45;&gt;Node7</title>
<g id="a_edge8_Node000004_Node000007"><a xlink:title=" ">
<path fill="none" stroke="#63b8ff" d="M244.42,-109.98C264.55,-101.38 295.88,-87.99 318.91,-78.15"/>
<polygon fill="#63b8ff" stroke="#63b8ff" points="320.4,-81.32 328.21,-74.17 317.64,-74.88 320.4,-81.32"/>
</a>
</g>
</g>
<!-- Node4&#45;&gt;Node8 -->
<g id="edge9_Node000004_Node000008" class="edge">
<title>Node4&#45;&gt;Node8</title>
<g id="a_edge9_Node000004_Node000008"><a xlink:title=" ">
<path fill="none" stroke="#63b8ff" d="M260.81,-109.98C299.74,-100.86 361.66,-86.33 404.1,-76.38"/>
<polygon fill="#63b8ff" stroke="#63b8ff" points="404.97,-79.77 413.9,-74.08 403.37,-72.96 404.97,-79.77"/>
</a>
</g>
</g>
<!-- Node8&#45;&gt;Node2 -->
<g id="edge11_Node000008_Node000002" class="edge">
<title>Node8&#45;&gt;Node2</title>
<g id="a_edge11_Node000008_Node000002"><a xlink:title=" ">
<path fill="none" stroke="#63b8ff" d="M392.5,-54.98C315.79,-43.72 183.18,-24.25 122.07,-15.28"/>
<polygon fill="#63b8ff" stroke="#63b8ff" points="122.26,-11.77 111.86,-13.78 121.25,-18.7 122.26,-11.77"/>
</a>
</g>
</g>
<!-- Node9 -->
<g id="Node000009" class="node">
<title>Node9</title>
<g id="a_Node000009"><a xlink:title=" ">
<polygon fill="#e0e0e0" stroke="#999999" points="480.5,-19 420.5,-19 420.5,0 480.5,0 480.5,-19"/>
<text text-anchor="middle" x="450.5" y="-7" font-family="Helvetica,sans-Serif" font-size="10.00">iostream</text>
</a>
</g>
</g>
<!-- Node8&#45;&gt;Node9 -->
<g id="edge10_Node000008_Node000009" class="edge">
<title>Node8&#45;&gt;Node9</title>
<g id="a_edge10_Node000008_Node000009"><a xlink:title=" ">
<path fill="none" stroke="#63b8ff" d="M450.5,-54.75C450.5,-47.8 450.5,-37.85 450.5,-29.13"/>
<polygon fill="#63b8ff" stroke="#63b8ff" points="454,-29.09 450.5,-19.09 447,-29.09 454,-29.09"/>
</a>
</g>
</g>
</g>
</svg>
