<?xml version="1.0" encoding="UTF-8" standalone="no"?>
<!DOCTYPE svg PUBLIC "-//W3C//DTD SVG 1.1//EN"
 "http://www.w3.org/Graphics/SVG/1.1/DTD/svg11.dtd">
<!-- Generated by graphviz version 2.43.0 (0)
 -->
<!-- Title: include/helios/event/BasicEventManager.ixx Pages: 1 -->
<svg width="588pt" height="313pt"
 viewBox="0.00 0.00 588.44 313.00" xmlns="http://www.w3.org/2000/svg" xmlns:xlink="http://www.w3.org/1999/xlink">
<g id="graph0" class="graph" transform="scale(1 1) rotate(0) translate(4 309)">
<title>include/helios/event/BasicEventManager.ixx</title>
<!-- Node1 -->
<g id="Node000001" class="node">
<title>Node1</title>
<g id="a_Node000001"><a xlink:title=" ">
<polygon fill="#999999" stroke="#666666" points="299.44,-305 165.44,-305 165.44,-275 299.44,-275 299.44,-305"/>
<text text-anchor="start" x="173.44" y="-293" font-family="Helvetica,sans-Serif" font-size="10.00">include/helios/event</text>
<text text-anchor="middle" x="232.44" y="-282" font-family="Helvetica,sans-Serif" font-size="10.00">/BasicEventManager.ixx</text>
</a>
</g>
</g>
<!-- Node2 -->
<g id="Node000002" class="node">
<title>Node2</title>
<g id="a_Node000002"><a xlink:title=" ">
<polygon fill="#e0e0e0" stroke="#999999" points="274.94,-129 209.94,-129 209.94,-110 274.94,-110 274.94,-129"/>
<text text-anchor="middle" x="242.44" y="-117" font-family="Helvetica,sans-Serif" font-size="10.00">functional</text>
</a>
</g>
</g>
<!-- Node1&#45;&gt;Node2 -->
<g id="edge1_Node000001_Node000002" class="edge">
<title>Node1&#45;&gt;Node2</title>
<g id="a_edge1_Node000001_Node000002"><a xlink:title=" ">
<path fill="none" stroke="#63b8ff" d="M220.21,-274.79C212.9,-265.33 204.32,-252.25 200.44,-239 191.2,-207.43 188.29,-195.56 200.44,-165 204.96,-153.63 213.91,-143.48 222.4,-135.76"/>
<polygon fill="#63b8ff" stroke="#63b8ff" points="224.85,-138.27 230.23,-129.14 220.33,-132.92 224.85,-138.27"/>
</a>
</g>
</g>
<!-- Node3 -->
<g id="Node000003" class="node">
<title>Node3</title>
<g id="a_Node000003"><a xlink:title=" ">
<polygon fill="#e0e0e0" stroke="#999999" points="347.44,-74 289.44,-74 289.44,-55 347.44,-55 347.44,-74"/>
<text text-anchor="middle" x="318.44" y="-62" font-family="Helvetica,sans-Serif" font-size="10.00">memory</text>
</a>
</g>
</g>
<!-- Node1&#45;&gt;Node3 -->
<g id="edge2_Node000001_Node000003" class="edge">
<title>Node1&#45;&gt;Node3</title>
<g id="a_edge2_Node000001_Node000003"><a xlink:title=" ">
<path fill="none" stroke="#63b8ff" d="M165.36,-281.08C89.03,-268.51 -21.89,-237.53 4.44,-165 15.31,-135.05 22.77,-125.82 50.44,-110 88.74,-88.1 214.19,-74.44 278.96,-68.68"/>
<polygon fill="#63b8ff" stroke="#63b8ff" points="279.53,-72.14 289.18,-67.79 278.92,-65.17 279.53,-72.14"/>
</a>
</g>
</g>
<!-- Node4 -->
<g id="Node000004" class="node">
<title>Node4</title>
<g id="a_Node000004"><a xlink:href="Event_8ixx.html" target="_top" xlink:title=" ">
<polygon fill="white" stroke="#666666" points="574.94,-129 467.94,-129 467.94,-110 574.94,-110 574.94,-129"/>
<text text-anchor="middle" x="521.44" y="-117" font-family="Helvetica,sans-Serif" font-size="10.00">helios.event.Event</text>
</a>
</g>
</g>
<!-- Node1&#45;&gt;Node4 -->
<g id="edge3_Node000001_Node000004" class="edge">
<title>Node1&#45;&gt;Node4</title>
<g id="a_edge3_Node000001_Node000004"><a xlink:title=" ">
<path fill="none" stroke="#63b8ff" d="M299.46,-283.95C365.21,-275.1 462.62,-250.79 512.44,-184 521.9,-171.31 523.63,-153.13 523.3,-139.47"/>
<polygon fill="#63b8ff" stroke="#63b8ff" points="526.78,-139.04 522.65,-129.28 519.79,-139.48 526.78,-139.04"/>
</a>
</g>
</g>
<!-- Node8 -->
<g id="Node000008" class="node">
<title>Node8</title>
<g id="a_Node000008"><a xlink:href="Dispatcher_8ixx.html" target="_top" xlink:title=" ">
<polygon fill="white" stroke="#666666" points="481.44,-184 349.44,-184 349.44,-165 481.44,-165 481.44,-184"/>
<text text-anchor="middle" x="415.44" y="-172" font-family="Helvetica,sans-Serif" font-size="10.00">helios.event.Dispatcher</text>
</a>
</g>
</g>
<!-- Node1&#45;&gt;Node8 -->
<g id="edge8_Node000001_Node000008" class="edge">
<title>Node1&#45;&gt;Node8</title>
<g id="a_edge8_Node000001_Node000008"><a xlink:title=" ">
<path fill="none" stroke="#63b8ff" d="M293.08,-274.95C318.07,-267.16 346.29,-255.59 368.44,-239 384.85,-226.71 398.12,-207.12 406.32,-192.94"/>
<polygon fill="#63b8ff" stroke="#63b8ff" points="409.41,-194.6 411.17,-184.15 403.28,-191.22 409.41,-194.6"/>
</a>
</g>
</g>
<!-- Node10 -->
<g id="Node000010" class="node">
<title>Node10</title>
<g id="a_Node000010"><a xlink:href="EventQueue_8ixx.html" target="_top" xlink:title=" ">
<polygon fill="white" stroke="#666666" points="152.94,-184 13.94,-184 13.94,-165 152.94,-165 152.94,-184"/>
<text text-anchor="middle" x="83.44" y="-172" font-family="Helvetica,sans-Serif" font-size="10.00">helios.event.EventQueue</text>
</a>
</g>
</g>
<!-- Node1&#45;&gt;Node10 -->
<g id="edge13_Node000001_Node000010" class="edge">
<title>Node1&#45;&gt;Node10</title>
<g id="a_edge13_Node000001_Node000010"><a xlink:title=" ">
<path fill="none" stroke="#63b8ff" d="M213.87,-274.85C185.59,-253.31 131.97,-212.47 103.07,-190.46"/>
<polygon fill="#63b8ff" stroke="#63b8ff" points="105.03,-187.55 94.95,-184.27 100.79,-193.11 105.03,-187.55"/>
</a>
</g>
</g>
<!-- Node12 -->
<g id="Node000012" class="node">
<title>Node12</title>
<g id="a_Node000012"><a xlink:href="EventManager_8ixx.html" target="_top" xlink:title=" ">
<polygon fill="white" stroke="#666666" points="359.44,-239 209.44,-239 209.44,-220 359.44,-220 359.44,-239"/>
<text text-anchor="middle" x="284.44" y="-227" font-family="Helvetica,sans-Serif" font-size="10.00">helios.event.EventManager</text>
</a>
</g>
</g>
<!-- Node1&#45;&gt;Node12 -->
<g id="edge18_Node000001_Node000012" class="edge">
<title>Node1&#45;&gt;Node12</title>
<g id="a_edge18_Node000001_Node000012"><a xlink:title=" ">
<path fill="none" stroke="#63b8ff" d="M245.03,-274.84C252.5,-266.43 262,-255.74 269.81,-246.96"/>
<polygon fill="#63b8ff" stroke="#63b8ff" points="272.62,-249.07 276.65,-239.27 267.39,-244.41 272.62,-249.07"/>
</a>
</g>
</g>
<!-- Node4&#45;&gt;Node3 -->
<g id="edge4_Node000004_Node000003" class="edge">
<title>Node4&#45;&gt;Node3</title>
<g id="a_edge4_Node000004_Node000003"><a xlink:title=" ">
<path fill="none" stroke="#63b8ff" d="M488.82,-109.98C453.02,-100.64 395.56,-85.64 357.41,-75.68"/>
<polygon fill="#63b8ff" stroke="#63b8ff" points="358.24,-72.27 347.68,-73.13 356.47,-79.05 358.24,-72.27"/>
</a>
</g>
</g>
<!-- Node5 -->
<g id="Node000005" class="node">
<title>Node5</title>
<g id="a_Node000005"><a xlink:href="Guid_8ixx.html" target="_top" xlink:title=" ">
<polygon fill="white" stroke="#666666" points="566.44,-74 476.44,-74 476.44,-55 566.44,-55 566.44,-74"/>
<text text-anchor="middle" x="521.44" y="-62" font-family="Helvetica,sans-Serif" font-size="10.00">helios.util.Guid</text>
</a>
</g>
</g>
<!-- Node4&#45;&gt;Node5 -->
<g id="edge5_Node000004_Node000005" class="edge">
<title>Node4&#45;&gt;Node5</title>
<g id="a_edge5_Node000004_Node000005"><a xlink:title=" ">
<path fill="none" stroke="#63b8ff" d="M521.44,-109.75C521.44,-102.8 521.44,-92.85 521.44,-84.13"/>
<polygon fill="#63b8ff" stroke="#63b8ff" points="524.94,-84.09 521.44,-74.09 517.94,-84.09 524.94,-84.09"/>
</a>
</g>
</g>
<!-- Node6 -->
<g id="Node000006" class="node">
<title>Node6</title>
<g id="a_Node000006"><a xlink:title=" ">
<polygon fill="#e0e0e0" stroke="#999999" points="512.44,-19 462.44,-19 462.44,0 512.44,0 512.44,-19"/>
<text text-anchor="middle" x="487.44" y="-7" font-family="Helvetica,sans-Serif" font-size="10.00">atomic</text>
</a>
</g>
</g>
<!-- Node5&#45;&gt;Node6 -->
<g id="edge6_Node000005_Node000006" class="edge">
<title>Node5&#45;&gt;Node6</title>
<g id="a_edge6_Node000005_Node000006"><a xlink:title=" ">
<path fill="none" stroke="#63b8ff" d="M515.82,-54.75C511.12,-47.42 504.27,-36.73 498.47,-27.7"/>
<polygon fill="#63b8ff" stroke="#63b8ff" points="501.29,-25.62 492.95,-19.09 495.4,-29.4 501.29,-25.62"/>
</a>
</g>
</g>
<!-- Node7 -->
<g id="Node000007" class="node">
<title>Node7</title>
<g id="a_Node000007"><a xlink:title=" ">
<polygon fill="#e0e0e0" stroke="#999999" points="580.44,-19 530.44,-19 530.44,0 580.44,0 580.44,-19"/>
<text text-anchor="middle" x="555.44" y="-7" font-family="Helvetica,sans-Serif" font-size="10.00">cstdint</text>
</a>
</g>
</g>
<!-- Node5&#45;&gt;Node7 -->
<g id="edge7_Node000005_Node000007" class="edge">
<title>Node5&#45;&gt;Node7</title>
<g id="a_edge7_Node000005_Node000007"><a xlink:title=" ">
<path fill="none" stroke="#63b8ff" d="M527.05,-54.75C531.76,-47.42 538.61,-36.73 544.41,-27.7"/>
<polygon fill="#63b8ff" stroke="#63b8ff" points="547.48,-29.4 549.93,-19.09 541.58,-25.62 547.48,-29.4"/>
</a>
</g>
</g>
<!-- Node8&#45;&gt;Node2 -->
<g id="edge9_Node000008_Node000002" class="edge">
<title>Node8&#45;&gt;Node2</title>
<g id="a_edge9_Node000008_Node000002"><a xlink:title=" ">
<path fill="none" stroke="#63b8ff" d="M387.64,-164.98C358.47,-156.05 312.44,-141.94 280.04,-132.02"/>
<polygon fill="#63b8ff" stroke="#63b8ff" points="281.04,-128.66 270.45,-129.08 278.99,-135.36 281.04,-128.66"/>
</a>
</g>
</g>
<!-- Node8&#45;&gt;Node3 -->
<g id="edge10_Node000008_Node000003" class="edge">
<title>Node8&#45;&gt;Node3</title>
<g id="a_edge10_Node000008_Node000003"><a xlink:title=" ">
<path fill="none" stroke="#63b8ff" d="M407.77,-164.97C399.72,-156.01 386.68,-141.52 375.44,-129 360.98,-112.91 344.47,-94.51 332.96,-81.68"/>
<polygon fill="#63b8ff" stroke="#63b8ff" points="335.46,-79.23 326.18,-74.13 330.25,-83.91 335.46,-79.23"/>
</a>
</g>
</g>
<!-- Node8&#45;&gt;Node4 -->
<g id="edge12_Node000008_Node000004" class="edge">
<title>Node8&#45;&gt;Node4</title>
<g id="a_edge12_Node000008_Node000004"><a xlink:title=" ">
<path fill="none" stroke="#63b8ff" d="M432.47,-164.98C449.37,-156.54 475.5,-143.47 495.08,-133.68"/>
<polygon fill="#63b8ff" stroke="#63b8ff" points="496.72,-136.77 504.1,-129.17 493.59,-130.51 496.72,-136.77"/>
</a>
</g>
</g>
<!-- Node9 -->
<g id="Node000009" class="node">
<title>Node9</title>
<g id="a_Node000009"><a xlink:title=" ">
<polygon fill="#e0e0e0" stroke="#999999" points="449.94,-129 384.94,-129 384.94,-110 449.94,-110 449.94,-129"/>
<text text-anchor="middle" x="417.44" y="-117" font-family="Helvetica,sans-Serif" font-size="10.00">typeindex</text>
</a>
</g>
</g>
<!-- Node8&#45;&gt;Node9 -->
<g id="edge11_Node000008_Node000009" class="edge">
<title>Node8&#45;&gt;Node9</title>
<g id="a_edge11_Node000008_Node000009"><a xlink:title=" ">
<path fill="none" stroke="#63b8ff" d="M415.77,-164.75C416.03,-157.8 416.41,-147.85 416.74,-139.13"/>
<polygon fill="#63b8ff" stroke="#63b8ff" points="420.23,-139.21 417.11,-129.09 413.24,-138.95 420.23,-139.21"/>
</a>
</g>
</g>
<!-- Node10&#45;&gt;Node2 -->
<g id="edge15_Node000010_Node000002" class="edge">
<title>Node10&#45;&gt;Node2</title>
<g id="a_edge15_Node000010_Node000002"><a xlink:title=" ">
<path fill="none" stroke="#63b8ff" d="M108.98,-164.98C135.56,-156.13 177.38,-142.19 207.11,-132.28"/>
<polygon fill="#63b8ff" stroke="#63b8ff" points="208.31,-135.56 216.69,-129.08 206.1,-128.92 208.31,-135.56"/>
</a>
</g>
</g>
<!-- Node10&#45;&gt;Node3 -->
<g id="edge16_Node000010_Node000003" class="edge">
<title>Node10&#45;&gt;Node3</title>
<g id="a_edge16_Node000010_Node000003"><a xlink:title=" ">
<path fill="none" stroke="#63b8ff" d="M97.89,-164.82C119.66,-151.94 162.4,-127.4 200.44,-110 227.62,-97.57 259.36,-85.74 283.07,-77.41"/>
<polygon fill="#63b8ff" stroke="#63b8ff" points="284.41,-80.65 292.71,-74.06 282.11,-74.04 284.41,-80.65"/>
</a>
</g>
</g>
<!-- Node10&#45;&gt;Node4 -->
<g id="edge17_Node000010_Node000004" class="edge">
<title>Node10&#45;&gt;Node4</title>
<g id="a_edge17_Node000010_Node000004"><a xlink:title=" ">
<path fill="none" stroke="#63b8ff" d="M152.94,-165.59C226.04,-157.19 344.73,-143.34 457.63,-129.08"/>
<polygon fill="#63b8ff" stroke="#63b8ff" points="458.35,-132.52 467.83,-127.79 457.47,-125.58 458.35,-132.52"/>
</a>
</g>
</g>
<!-- Node11 -->
<g id="Node000011" class="node">
<title>Node11</title>
<g id="a_Node000011"><a xlink:title=" ">
<polygon fill="#e0e0e0" stroke="#999999" points="106.94,-129 59.94,-129 59.94,-110 106.94,-110 106.94,-129"/>
<text text-anchor="middle" x="83.44" y="-117" font-family="Helvetica,sans-Serif" font-size="10.00">deque</text>
</a>
</g>
</g>
<!-- Node10&#45;&gt;Node11 -->
<g id="edge14_Node000010_Node000011" class="edge">
<title>Node10&#45;&gt;Node11</title>
<g id="a_edge14_Node000010_Node000011"><a xlink:title=" ">
<path fill="none" stroke="#63b8ff" d="M83.44,-164.75C83.44,-157.8 83.44,-147.85 83.44,-139.13"/>
<polygon fill="#63b8ff" stroke="#63b8ff" points="86.94,-139.09 83.44,-129.09 79.94,-139.09 86.94,-139.09"/>
</a>
</g>
</g>
<!-- Node12&#45;&gt;Node2 -->
<g id="edge19_Node000012_Node000002" class="edge">
<title>Node12&#45;&gt;Node2</title>
<g id="a_edge19_Node000012_Node000002"><a xlink:title=" ">
<path fill="none" stroke="#63b8ff" d="M281.91,-219.75C278.26,-207.4 271.11,-184.19 263.44,-165 259.87,-156.08 255.39,-146.4 251.47,-138.36"/>
<polygon fill="#63b8ff" stroke="#63b8ff" points="254.52,-136.63 246.94,-129.23 248.25,-139.74 254.52,-136.63"/>
</a>
</g>
</g>
<!-- Node12&#45;&gt;Node3 -->
<g id="edge20_Node000012_Node000003" class="edge">
<title>Node12&#45;&gt;Node3</title>
<g id="a_edge20_Node000012_Node000003"><a xlink:title=" ">
<path fill="none" stroke="#63b8ff" d="M286.27,-219.74C291.59,-194.2 307.19,-119.43 314.53,-84.23"/>
<polygon fill="#63b8ff" stroke="#63b8ff" points="317.99,-84.81 316.6,-74.31 311.13,-83.38 317.99,-84.81"/>
</a>
</g>
</g>
<!-- Node12&#45;&gt;Node4 -->
<g id="edge24_Node000012_Node000004" class="edge">
<title>Node12&#45;&gt;Node4</title>
<g id="a_edge24_Node000012_Node000004"><a xlink:title=" ">
<path fill="none" stroke="#63b8ff" d="M354.47,-220C405.59,-212.59 469.45,-200.45 490.44,-184 504.6,-172.9 512.71,-153.69 517.05,-139.29"/>
<polygon fill="#63b8ff" stroke="#63b8ff" points="520.48,-140 519.68,-129.44 513.72,-138.2 520.48,-140"/>
</a>
</g>
</g>
<!-- Node12&#45;&gt;Node8 -->
<g id="edge22_Node000012_Node000008" class="edge">
<title>Node12&#45;&gt;Node8</title>
<g id="a_edge22_Node000012_Node000008"><a xlink:title=" ">
<path fill="none" stroke="#63b8ff" d="M305.49,-219.98C326.84,-211.34 360.14,-197.87 384.5,-188.02"/>
<polygon fill="#63b8ff" stroke="#63b8ff" points="386.05,-191.17 394.01,-184.17 383.43,-184.68 386.05,-191.17"/>
</a>
</g>
</g>
<!-- Node12&#45;&gt;Node10 -->
<g id="edge23_Node000012_Node000010" class="edge">
<title>Node12&#45;&gt;Node10</title>
<g id="a_edge23_Node000012_Node000010"><a xlink:title=" ">
<path fill="none" stroke="#63b8ff" d="M252.14,-219.98C217.81,-210.93 163.38,-196.58 125.67,-186.64"/>
<polygon fill="#63b8ff" stroke="#63b8ff" points="126.55,-183.25 115.99,-184.08 124.76,-190.02 126.55,-183.25"/>
</a>
</g>
</g>
<!-- Node13 -->
<g id="Node000013" class="node">
<title>Node13</title>
<g id="a_Node000013"><a xlink:title=" ">
<polygon fill="#e0e0e0" stroke="#999999" points="254.94,-184 209.94,-184 209.94,-165 254.94,-165 254.94,-184"/>
<text text-anchor="middle" x="232.44" y="-172" font-family="Helvetica,sans-Serif" font-size="10.00">utility</text>
</a>
</g>
</g>
<!-- Node12&#45;&gt;Node13 -->
<g id="edge21_Node000012_Node000013" class="edge">
<title>Node12&#45;&gt;Node13</title>
<g id="a_edge21_Node000012_Node000013"><a xlink:title=" ">
<path fill="none" stroke="#63b8ff" d="M275.85,-219.75C268.28,-212.03 257.06,-200.6 247.92,-191.28"/>
<polygon fill="#63b8ff" stroke="#63b8ff" points="250.37,-188.78 240.87,-184.09 245.37,-193.68 250.37,-188.78"/>
</a>
</g>
</g>
</g>
</svg>
