<?xml version="1.0" encoding="UTF-8" standalone="no"?>
<!DOCTYPE svg PUBLIC "-//W3C//DTD SVG 1.1//EN"
 "http://www.w3.org/Graphics/SVG/1.1/DTD/svg11.dtd">
<!-- Generated by graphviz version 2.43.0 (0)
 -->
<!-- Title: include/helios/event/BasicEventManager.ixx Pages: 1 -->
<svg width="1033pt" height="313pt"
 viewBox="0.00 0.00 1033.07 313.00" xmlns="http://www.w3.org/2000/svg" xmlns:xlink="http://www.w3.org/1999/xlink">
<g id="graph0" class="graph" transform="scale(1 1) rotate(0) translate(4 309)">
<title>include/helios/event/BasicEventManager.ixx</title>
<!-- Node1 -->
<g id="Node000001" class="node">
<title>Node1</title>
<g id="a_Node000001"><a xlink:title="Default implementation of an EventManager.">
<polygon fill="#999999" stroke="#666666" points="360.47,-305 226.47,-305 226.47,-275 360.47,-275 360.47,-305"/>
<text text-anchor="start" x="234.47" y="-293" font-family="Helvetica,sans-Serif" font-size="10.00">include/helios/event</text>
<text text-anchor="middle" x="293.47" y="-282" font-family="Helvetica,sans-Serif" font-size="10.00">/BasicEventManager.ixx</text>
</a>
</g>
</g>
<!-- Node2 -->
<g id="Node000002" class="node">
<title>Node2</title>
<g id="a_Node000002"><a xlink:title=" ">
<polygon fill="#e0e0e0" stroke="#999999" points="388.97,-129 323.97,-129 323.97,-110 388.97,-110 388.97,-129"/>
<text text-anchor="middle" x="356.47" y="-117" font-family="Helvetica,sans-Serif" font-size="10.00">functional</text>
</a>
</g>
</g>
<!-- Node1&#45;&gt;Node2 -->
<g id="edge1_Node000001_Node000002" class="edge">
<title>Node1&#45;&gt;Node2</title>
<g id="a_edge1_Node000001_Node000002"><a xlink:title=" ">
<path fill="none" stroke="#63b8ff" d="M298.73,-274.92C310.1,-244.52 336.94,-172.73 349.61,-138.83"/>
<polygon fill="#63b8ff" stroke="#63b8ff" points="352.97,-139.85 353.19,-129.25 346.41,-137.4 352.97,-139.85"/>
</a>
</g>
</g>
<!-- Node3 -->
<g id="Node000003" class="node">
<title>Node3</title>
<g id="a_Node000003"><a xlink:title=" ">
<polygon fill="#e0e0e0" stroke="#999999" points="509.47,-74 451.47,-74 451.47,-55 509.47,-55 509.47,-74"/>
<text text-anchor="middle" x="480.47" y="-62" font-family="Helvetica,sans-Serif" font-size="10.00">memory</text>
</a>
</g>
</g>
<!-- Node1&#45;&gt;Node3 -->
<g id="edge2_Node000001_Node000003" class="edge">
<title>Node1&#45;&gt;Node3</title>
<g id="a_edge2_Node000001_Node000003"><a xlink:title=" ">
<path fill="none" stroke="#63b8ff" d="M360.6,-281.65C413.93,-274.27 482.32,-260.81 499.47,-239 535.62,-193.02 506.45,-117.74 489.91,-83.48"/>
<polygon fill="#63b8ff" stroke="#63b8ff" points="492.89,-81.61 485.27,-74.25 486.63,-84.75 492.89,-81.61"/>
</a>
</g>
</g>
<!-- Node4 -->
<g id="Node000004" class="node">
<title>Node4</title>
<g id="a_Node000004"><a xlink:href="Event_8ixx.html" target="_top" xlink:title="Base class for events in the helios framework.">
<polygon fill="white" stroke="#666666" points="145.97,-129 38.97,-129 38.97,-110 145.97,-110 145.97,-129"/>
<text text-anchor="middle" x="92.47" y="-117" font-family="Helvetica,sans-Serif" font-size="10.00">helios.event.Event</text>
</a>
</g>
</g>
<!-- Node1&#45;&gt;Node4 -->
<g id="edge3_Node000001_Node000004" class="edge">
<title>Node1&#45;&gt;Node4</title>
<g id="a_edge3_Node000001_Node000004"><a xlink:title=" ">
<path fill="none" stroke="#63b8ff" d="M226.21,-285.68C157.59,-278.27 54.32,-255.15 4.47,-184 -11.73,-160.89 21.16,-143.08 51.23,-132.29"/>
<polygon fill="#63b8ff" stroke="#63b8ff" points="52.48,-135.56 60.83,-129.03 50.23,-128.93 52.48,-135.56"/>
</a>
</g>
</g>
<!-- Node9 -->
<g id="Node000009" class="node">
<title>Node9</title>
<g id="a_Node000009"><a xlink:href="Dispatcher_8ixx.html" target="_top" xlink:title="Dispatches events to registered callbacks.">
<polygon fill="white" stroke="#666666" points="312.47,-184 180.47,-184 180.47,-165 312.47,-165 312.47,-184"/>
<text text-anchor="middle" x="246.47" y="-172" font-family="Helvetica,sans-Serif" font-size="10.00">helios.event.Dispatcher</text>
</a>
</g>
</g>
<!-- Node1&#45;&gt;Node9 -->
<g id="edge9_Node000001_Node000009" class="edge">
<title>Node1&#45;&gt;Node9</title>
<g id="a_edge9_Node000001_Node000009"><a xlink:title=" ">
<path fill="none" stroke="#63b8ff" d="M287.51,-274.63C278.98,-254.03 263.29,-216.12 253.97,-193.63"/>
<polygon fill="#63b8ff" stroke="#63b8ff" points="257.14,-192.13 250.08,-184.23 250.67,-194.81 257.14,-192.13"/>
</a>
</g>
</g>
<!-- Node11 -->
<g id="Node000011" class="node">
<title>Node11</title>
<g id="a_Node000011"><a xlink:href="EventQueue_8ixx.html" target="_top" xlink:title="Thread&#45;safe queue for Event objects.">
<polygon fill="white" stroke="#666666" points="161.97,-184 22.97,-184 22.97,-165 161.97,-165 161.97,-184"/>
<text text-anchor="middle" x="92.47" y="-172" font-family="Helvetica,sans-Serif" font-size="10.00">helios.event.EventQueue</text>
</a>
</g>
</g>
<!-- Node1&#45;&gt;Node11 -->
<g id="edge14_Node000001_Node000011" class="edge">
<title>Node1&#45;&gt;Node11</title>
<g id="a_edge14_Node000001_Node000011"><a xlink:title=" ">
<path fill="none" stroke="#63b8ff" d="M268.41,-274.85C229.51,-252.89 155.06,-210.85 116.68,-189.17"/>
<polygon fill="#63b8ff" stroke="#63b8ff" points="118.17,-185.99 107.74,-184.12 114.73,-192.09 118.17,-185.99"/>
</a>
</g>
</g>
<!-- Node12 -->
<g id="Node000012" class="node">
<title>Node12</title>
<g id="a_Node000012"><a xlink:href="EventManager_8ixx.html" target="_top" xlink:title="High&#45;level event manager dispatching events to listeners.">
<polygon fill="white" stroke="#666666" points="490.47,-239 340.47,-239 340.47,-220 490.47,-220 490.47,-239"/>
<text text-anchor="middle" x="415.47" y="-227" font-family="Helvetica,sans-Serif" font-size="10.00">helios.event.EventManager</text>
</a>
</g>
</g>
<!-- Node1&#45;&gt;Node12 -->
<g id="edge18_Node000001_Node000012" class="edge">
<title>Node1&#45;&gt;Node12</title>
<g id="a_edge18_Node000001_Node000012"><a xlink:title=" ">
<path fill="none" stroke="#63b8ff" d="M322.69,-274.99C342.59,-265.45 368.75,-252.9 388.22,-243.57"/>
<polygon fill="#63b8ff" stroke="#63b8ff" points="389.94,-246.62 397.45,-239.14 386.92,-240.31 389.94,-246.62"/>
</a>
</g>
</g>
<!-- Node4&#45;&gt;Node3 -->
<g id="edge4_Node000004_Node000003" class="edge">
<title>Node4&#45;&gt;Node3</title>
<g id="a_edge4_Node000004_Node000003"><a xlink:title=" ">
<path fill="none" stroke="#63b8ff" d="M146.01,-111.19C225.1,-100.38 371.33,-80.41 441.25,-70.86"/>
<polygon fill="#63b8ff" stroke="#63b8ff" points="441.96,-74.29 451.39,-69.47 441.01,-67.36 441.96,-74.29"/>
</a>
</g>
</g>
<!-- Node5 -->
<g id="Node000005" class="node">
<title>Node5</title>
<g id="a_Node000005"><a xlink:title=" ">
<polygon fill="#e0e0e0" stroke="#999999" points="643.47,-19 599.47,-19 599.47,0 643.47,0 643.47,-19"/>
<text text-anchor="middle" x="621.47" y="-7" font-family="Helvetica,sans-Serif" font-size="10.00">string</text>
</a>
</g>
</g>
<!-- Node4&#45;&gt;Node5 -->
<g id="edge5_Node000004_Node000005" class="edge">
<title>Node4&#45;&gt;Node5</title>
<g id="a_edge5_Node000004_Node000005"><a xlink:title=" ">
<path fill="none" stroke="#63b8ff" d="M134.42,-109.94C236.79,-89.04 497.69,-35.77 589.17,-17.09"/>
<polygon fill="#63b8ff" stroke="#63b8ff" points="590.12,-20.47 599.22,-15.04 588.72,-13.61 590.12,-20.47"/>
</a>
</g>
</g>
<!-- Node6 -->
<g id="Node000006" class="node">
<title>Node6</title>
<g id="a_Node000006"><a xlink:href="Guid_8ixx.html" target="_top" xlink:title="Lightweight GUID (globally unique identifier) implementation.">
<polygon fill="white" stroke="#666666" points="137.47,-74 47.47,-74 47.47,-55 137.47,-55 137.47,-74"/>
<text text-anchor="middle" x="92.47" y="-62" font-family="Helvetica,sans-Serif" font-size="10.00">helios.util.Guid</text>
</a>
</g>
</g>
<!-- Node4&#45;&gt;Node6 -->
<g id="edge6_Node000004_Node000006" class="edge">
<title>Node4&#45;&gt;Node6</title>
<g id="a_edge6_Node000004_Node000006"><a xlink:title=" ">
<path fill="none" stroke="#63b8ff" d="M92.47,-109.75C92.47,-102.8 92.47,-92.85 92.47,-84.13"/>
<polygon fill="#63b8ff" stroke="#63b8ff" points="95.97,-84.09 92.47,-74.09 88.97,-84.09 95.97,-84.09"/>
</a>
</g>
</g>
<!-- Node7 -->
<g id="Node000007" class="node">
<title>Node7</title>
<g id="a_Node000007"><a xlink:title=" ">
<polygon fill="#e0e0e0" stroke="#999999" points="83.47,-19 33.47,-19 33.47,0 83.47,0 83.47,-19"/>
<text text-anchor="middle" x="58.47" y="-7" font-family="Helvetica,sans-Serif" font-size="10.00">atomic</text>
</a>
</g>
</g>
<!-- Node6&#45;&gt;Node7 -->
<g id="edge7_Node000006_Node000007" class="edge">
<title>Node6&#45;&gt;Node7</title>
<g id="a_edge7_Node000006_Node000007"><a xlink:title=" ">
<path fill="none" stroke="#63b8ff" d="M86.85,-54.75C82.15,-47.42 75.29,-36.73 69.5,-27.7"/>
<polygon fill="#63b8ff" stroke="#63b8ff" points="72.32,-25.62 63.98,-19.09 66.43,-29.4 72.32,-25.62"/>
</a>
</g>
</g>
<!-- Node8 -->
<g id="Node000008" class="node">
<title>Node8</title>
<g id="a_Node000008"><a xlink:title=" ">
<polygon fill="#e0e0e0" stroke="#999999" points="151.47,-19 101.47,-19 101.47,0 151.47,0 151.47,-19"/>
<text text-anchor="middle" x="126.47" y="-7" font-family="Helvetica,sans-Serif" font-size="10.00">cstdint</text>
</a>
</g>
</g>
<!-- Node6&#45;&gt;Node8 -->
<g id="edge8_Node000006_Node000008" class="edge">
<title>Node6&#45;&gt;Node8</title>
<g id="a_edge8_Node000006_Node000008"><a xlink:title=" ">
<path fill="none" stroke="#63b8ff" d="M98.08,-54.75C102.78,-47.42 109.64,-36.73 115.43,-27.7"/>
<polygon fill="#63b8ff" stroke="#63b8ff" points="118.5,-29.4 120.96,-19.09 112.61,-25.62 118.5,-29.4"/>
</a>
</g>
</g>
<!-- Node9&#45;&gt;Node2 -->
<g id="edge10_Node000009_Node000002" class="edge">
<title>Node9&#45;&gt;Node2</title>
<g id="a_edge10_Node000009_Node000002"><a xlink:title=" ">
<path fill="none" stroke="#63b8ff" d="M264.14,-164.98C281.75,-156.5 309.04,-143.35 329.39,-133.54"/>
<polygon fill="#63b8ff" stroke="#63b8ff" points="330.98,-136.66 338.47,-129.17 327.94,-130.36 330.98,-136.66"/>
</a>
</g>
</g>
<!-- Node9&#45;&gt;Node3 -->
<g id="edge11_Node000009_Node000003" class="edge">
<title>Node9&#45;&gt;Node3</title>
<g id="a_edge11_Node000009_Node000003"><a xlink:title=" ">
<path fill="none" stroke="#63b8ff" d="M240.33,-164.6C231.92,-151.21 219.28,-125.76 232.47,-110 258.6,-78.76 377.95,-69.42 441.06,-66.65"/>
<polygon fill="#63b8ff" stroke="#63b8ff" points="441.57,-70.14 451.42,-66.24 441.29,-63.14 441.57,-70.14"/>
</a>
</g>
</g>
<!-- Node9&#45;&gt;Node4 -->
<g id="edge13_Node000009_Node000004" class="edge">
<title>Node9&#45;&gt;Node4</title>
<g id="a_edge13_Node000009_Node000004"><a xlink:title=" ">
<path fill="none" stroke="#63b8ff" d="M221.72,-164.98C196.09,-156.16 155.83,-142.31 127.06,-132.41"/>
<polygon fill="#63b8ff" stroke="#63b8ff" points="128,-129.03 117.4,-129.08 125.72,-135.65 128,-129.03"/>
</a>
</g>
</g>
<!-- Node10 -->
<g id="Node000010" class="node">
<title>Node10</title>
<g id="a_Node000010"><a xlink:title=" ">
<polygon fill="#e0e0e0" stroke="#999999" points="305.97,-129 240.97,-129 240.97,-110 305.97,-110 305.97,-129"/>
<text text-anchor="middle" x="273.47" y="-117" font-family="Helvetica,sans-Serif" font-size="10.00">typeindex</text>
</a>
</g>
</g>
<!-- Node9&#45;&gt;Node10 -->
<g id="edge12_Node000009_Node000010" class="edge">
<title>Node9&#45;&gt;Node10</title>
<g id="a_edge12_Node000009_Node000010"><a xlink:title=" ">
<path fill="none" stroke="#63b8ff" d="M250.92,-164.75C254.58,-157.57 259.87,-147.18 264.41,-138.27"/>
<polygon fill="#63b8ff" stroke="#63b8ff" points="267.67,-139.59 269.09,-129.09 261.43,-136.41 267.67,-139.59"/>
</a>
</g>
</g>
<!-- Node11&#45;&gt;Node2 -->
<g id="edge15_Node000011_Node000002" class="edge">
<title>Node11&#45;&gt;Node2</title>
<g id="a_edge15_Node000011_Node000002"><a xlink:title=" ">
<path fill="none" stroke="#63b8ff" d="M135.65,-164.98C178.48,-156.51 246.26,-143.05 313.83,-129.32"/>
<polygon fill="#63b8ff" stroke="#63b8ff" points="314.69,-132.72 323.8,-127.3 313.3,-125.86 314.69,-132.72"/>
</a>
</g>
</g>
<!-- Node11&#45;&gt;Node3 -->
<g id="edge16_Node000011_Node000003" class="edge">
<title>Node11&#45;&gt;Node3</title>
<g id="a_edge16_Node000011_Node000003"><a xlink:title=" ">
<path fill="none" stroke="#63b8ff" d="M106.71,-164.85C130.05,-151.09 178.25,-124.29 222.47,-110 297.73,-85.68 389.88,-73.86 441.18,-68.79"/>
<polygon fill="#63b8ff" stroke="#63b8ff" points="441.57,-72.26 451.19,-67.83 440.9,-65.3 441.57,-72.26"/>
</a>
</g>
</g>
<!-- Node11&#45;&gt;Node4 -->
<g id="edge17_Node000011_Node000004" class="edge">
<title>Node11&#45;&gt;Node4</title>
<g id="a_edge17_Node000011_Node000004"><a xlink:title=" ">
<path fill="none" stroke="#63b8ff" d="M92.47,-164.75C92.47,-157.8 92.47,-147.85 92.47,-139.13"/>
<polygon fill="#63b8ff" stroke="#63b8ff" points="95.97,-139.09 92.47,-129.09 88.97,-139.09 95.97,-139.09"/>
</a>
</g>
</g>
<!-- Node12&#45;&gt;Node2 -->
<g id="edge19_Node000012_Node000002" class="edge">
<title>Node12&#45;&gt;Node2</title>
<g id="a_edge19_Node000012_Node000002"><a xlink:title=" ">
<path fill="none" stroke="#63b8ff" d="M419.66,-219.69C425.12,-206.86 432.92,-182.63 423.47,-165 415.96,-151 401.89,-140.66 388.58,-133.48"/>
<polygon fill="#63b8ff" stroke="#63b8ff" points="390.09,-130.33 379.58,-129.02 386.98,-136.6 390.09,-130.33"/>
</a>
</g>
</g>
<!-- Node12&#45;&gt;Node3 -->
<g id="edge20_Node000012_Node000003" class="edge">
<title>Node12&#45;&gt;Node3</title>
<g id="a_edge20_Node000012_Node000003"><a xlink:title=" ">
<path fill="none" stroke="#63b8ff" d="M420.68,-219.84C425.85,-211.03 433.82,-196.86 439.47,-184 454.66,-149.41 468.09,-107.27 475.17,-83.71"/>
<polygon fill="#63b8ff" stroke="#63b8ff" points="478.56,-84.59 478.04,-74.01 471.84,-82.61 478.56,-84.59"/>
</a>
</g>
</g>
<!-- Node12&#45;&gt;Node4 -->
<g id="edge40_Node000012_Node000004" class="edge">
<title>Node12&#45;&gt;Node4</title>
<g id="a_edge40_Node000012_Node000004"><a xlink:title=" ">
<path fill="none" stroke="#63b8ff" d="M340.37,-225.5C230.04,-220.32 34.84,-207.87 13.47,-184 -4.78,-163.62 28.25,-144.58 57.02,-132.77"/>
<polygon fill="#63b8ff" stroke="#63b8ff" points="58.5,-135.95 66.53,-129.04 55.95,-129.43 58.5,-135.95"/>
</a>
</g>
</g>
<!-- Node12&#45;&gt;Node9 -->
<g id="edge38_Node000012_Node000009" class="edge">
<title>Node12&#45;&gt;Node9</title>
<g id="a_edge38_Node000012_Node000009"><a xlink:title=" ">
<path fill="none" stroke="#63b8ff" d="M388.31,-219.98C359.94,-211.09 315.23,-197.07 283.6,-187.15"/>
<polygon fill="#63b8ff" stroke="#63b8ff" points="284.42,-183.73 273.83,-184.08 282.33,-190.41 284.42,-183.73"/>
</a>
</g>
</g>
<!-- Node12&#45;&gt;Node11 -->
<g id="edge39_Node000012_Node000011" class="edge">
<title>Node12&#45;&gt;Node11</title>
<g id="a_edge39_Node000012_Node000011"><a xlink:title=" ">
<path fill="none" stroke="#63b8ff" d="M363.57,-219.98C306.67,-210.65 215.42,-195.67 154.72,-185.71"/>
<polygon fill="#63b8ff" stroke="#63b8ff" points="154.93,-182.2 144.5,-184.04 153.8,-189.11 154.93,-182.2"/>
</a>
</g>
</g>
<!-- Node13 -->
<g id="Node000013" class="node">
<title>Node13</title>
<g id="a_Node000013"><a xlink:title=" ">
<polygon fill="#e0e0e0" stroke="#999999" points="413.97,-184 368.97,-184 368.97,-165 413.97,-165 413.97,-184"/>
<text text-anchor="middle" x="391.47" y="-172" font-family="Helvetica,sans-Serif" font-size="10.00">utility</text>
</a>
</g>
</g>
<!-- Node12&#45;&gt;Node13 -->
<g id="edge21_Node000012_Node000013" class="edge">
<title>Node12&#45;&gt;Node13</title>
<g id="a_edge21_Node000012_Node000013"><a xlink:title=" ">
<path fill="none" stroke="#63b8ff" d="M411.5,-219.75C408.25,-212.57 403.55,-202.18 399.51,-193.27"/>
<polygon fill="#63b8ff" stroke="#63b8ff" points="402.67,-191.75 395.35,-184.09 396.29,-194.64 402.67,-191.75"/>
</a>
</g>
</g>
<!-- Node14 -->
<g id="Node000014" class="node">
<title>Node14</title>
<g id="a_Node000014"><a xlink:href="Logger_8ixx.html" target="_top" xlink:title="Simple synchronous logger with configurable output sinks.">
<polygon fill="white" stroke="#666666" points="703.97,-129 584.97,-129 584.97,-110 703.97,-110 703.97,-129"/>
<text text-anchor="middle" x="644.47" y="-117" font-family="Helvetica,sans-Serif" font-size="10.00">helios.util.log.Logger</text>
</a>
</g>
</g>
<!-- Node12&#45;&gt;Node14 -->
<g id="edge22_Node000012_Node000014" class="edge">
<title>Node12&#45;&gt;Node14</title>
<g id="a_edge22_Node000012_Node000014"><a xlink:title=" ">
<path fill="none" stroke="#63b8ff" d="M433.82,-219.84C473.95,-200.92 569.69,-155.77 617.02,-133.45"/>
<polygon fill="#63b8ff" stroke="#63b8ff" points="618.79,-136.48 626.34,-129.05 615.81,-130.15 618.79,-136.48"/>
</a>
</g>
</g>
<!-- Node18 -->
<g id="Node000018" class="node">
<title>Node18</title>
<g id="a_Node000018"><a xlink:href="LogManager_8ixx.html" target="_top" xlink:title="Central manager for scoped loggers with configurable sinks.">
<polygon fill="white" stroke="#666666" points="843.47,-184 697.47,-184 697.47,-165 843.47,-165 843.47,-184"/>
<text text-anchor="middle" x="770.47" y="-172" font-family="Helvetica,sans-Serif" font-size="10.00">helios.util.log.LogManager</text>
</a>
</g>
</g>
<!-- Node12&#45;&gt;Node18 -->
<g id="edge29_Node000012_Node000018" class="edge">
<title>Node12&#45;&gt;Node18</title>
<g id="a_edge29_Node000012_Node000018"><a xlink:title=" ">
<path fill="none" stroke="#63b8ff" d="M472.5,-219.98C535.42,-210.59 636.58,-195.49 703.28,-185.53"/>
<polygon fill="#63b8ff" stroke="#63b8ff" points="703.9,-188.98 713.28,-184.04 702.87,-182.05 703.9,-188.98"/>
</a>
</g>
</g>
<!-- Node14&#45;&gt;Node3 -->
<g id="edge25_Node000014_Node000003" class="edge">
<title>Node14&#45;&gt;Node3</title>
<g id="a_edge25_Node000014_Node000003"><a xlink:title=" ">
<path fill="none" stroke="#63b8ff" d="M618.12,-109.98C590.7,-101.13 547.57,-87.19 516.9,-77.28"/>
<polygon fill="#63b8ff" stroke="#63b8ff" points="517.61,-73.83 507.02,-74.08 515.46,-80.49 517.61,-73.83"/>
</a>
</g>
</g>
<!-- Node14&#45;&gt;Node5 -->
<g id="edge23_Node000014_Node000005" class="edge">
<title>Node14&#45;&gt;Node5</title>
<g id="a_edge23_Node000014_Node000005"><a xlink:title=" ">
<path fill="none" stroke="#63b8ff" d="M629.34,-109.73C617.65,-101.99 602.35,-89.55 595.47,-74 588.49,-58.25 597.7,-40.03 607.02,-27.15"/>
<polygon fill="#63b8ff" stroke="#63b8ff" points="609.86,-29.21 613.3,-19.19 604.36,-24.88 609.86,-29.21"/>
</a>
</g>
</g>
<!-- Node15 -->
<g id="Node000015" class="node">
<title>Node15</title>
<g id="a_Node000015"><a xlink:title=" ">
<polygon fill="#e0e0e0" stroke="#999999" points="793.97,-74 746.97,-74 746.97,-55 793.97,-55 793.97,-74"/>
<text text-anchor="middle" x="770.47" y="-62" font-family="Helvetica,sans-Serif" font-size="10.00">vector</text>
</a>
</g>
</g>
<!-- Node14&#45;&gt;Node15 -->
<g id="edge24_Node000014_Node000015" class="edge">
<title>Node14&#45;&gt;Node15</title>
<g id="a_edge24_Node000014_Node000015"><a xlink:title=" ">
<path fill="none" stroke="#63b8ff" d="M664.71,-109.98C685.16,-101.38 717,-87.99 740.4,-78.15"/>
<polygon fill="#63b8ff" stroke="#63b8ff" points="741.99,-81.27 749.85,-74.17 739.28,-74.82 741.99,-81.27"/>
</a>
</g>
</g>
<!-- Node16 -->
<g id="Node000016" class="node">
<title>Node16</title>
<g id="a_Node000016"><a xlink:title=" ">
<polygon fill="#e0e0e0" stroke="#999999" points="947.47,-74 899.47,-74 899.47,-55 947.47,-55 947.47,-74"/>
<text text-anchor="middle" x="923.47" y="-62" font-family="Helvetica,sans-Serif" font-size="10.00">mutex</text>
</a>
</g>
</g>
<!-- Node14&#45;&gt;Node16 -->
<g id="edge26_Node000014_Node000016" class="edge">
<title>Node14&#45;&gt;Node16</title>
<g id="a_edge26_Node000014_Node000016"><a xlink:title=" ">
<path fill="none" stroke="#63b8ff" d="M689.29,-109.98C745.09,-99.39 839.15,-81.52 889.4,-71.97"/>
<polygon fill="#63b8ff" stroke="#63b8ff" points="890.26,-75.37 899.43,-70.07 888.95,-68.49 890.26,-75.37"/>
</a>
</g>
</g>
<!-- Node17 -->
<g id="Node000017" class="node">
<title>Node17</title>
<g id="a_Node000017"><a xlink:href="LogSink_8ixx.html" target="_top" xlink:title="Abstract interface for log output destinations.">
<polygon fill="white" stroke="#666666" points="728.47,-74 604.47,-74 604.47,-55 728.47,-55 728.47,-74"/>
<text text-anchor="middle" x="666.47" y="-62" font-family="Helvetica,sans-Serif" font-size="10.00">helios.util.log.LogSink</text>
</a>
</g>
</g>
<!-- Node14&#45;&gt;Node17 -->
<g id="edge27_Node000014_Node000017" class="edge">
<title>Node14&#45;&gt;Node17</title>
<g id="a_edge27_Node000014_Node000017"><a xlink:title=" ">
<path fill="none" stroke="#63b8ff" d="M648.1,-109.75C651.05,-102.65 655.3,-92.4 658.97,-83.56"/>
<polygon fill="#63b8ff" stroke="#63b8ff" points="662.3,-84.67 662.9,-74.09 655.83,-81.98 662.3,-84.67"/>
</a>
</g>
</g>
<!-- Node17&#45;&gt;Node5 -->
<g id="edge28_Node000017_Node000005" class="edge">
<title>Node17&#45;&gt;Node5</title>
<g id="a_edge28_Node000017_Node000005"><a xlink:title=" ">
<path fill="none" stroke="#63b8ff" d="M659.03,-54.75C652.61,-47.18 643.16,-36.05 635.34,-26.84"/>
<polygon fill="#63b8ff" stroke="#63b8ff" points="637.9,-24.45 628.76,-19.09 632.56,-28.98 637.9,-24.45"/>
</a>
</g>
</g>
<!-- Node18&#45;&gt;Node3 -->
<g id="edge33_Node000018_Node000003" class="edge">
<title>Node18&#45;&gt;Node3</title>
<g id="a_edge33_Node000018_Node000003"><a xlink:title=" ">
<path fill="none" stroke="#63b8ff" d="M707.52,-164.94C668.66,-158.24 618.39,-146.97 576.47,-129 547.13,-116.43 517.04,-94.83 498.54,-80.36"/>
<polygon fill="#63b8ff" stroke="#63b8ff" points="500.68,-77.58 490.68,-74.08 496.31,-83.06 500.68,-77.58"/>
</a>
</g>
</g>
<!-- Node18&#45;&gt;Node5 -->
<g id="edge30_Node000018_Node000005" class="edge">
<title>Node18&#45;&gt;Node5</title>
<g id="a_edge30_Node000018_Node000005"><a xlink:title=" ">
<path fill="none" stroke="#63b8ff" d="M843.72,-170.65C909.51,-166.36 999.11,-155.67 1021.47,-129 1026.89,-122.53 1025.02,-117.66 1021.47,-110 1005.54,-75.67 991.06,-70.33 956.47,-55 902.53,-31.1 726.59,-17.29 653.63,-12.46"/>
<polygon fill="#63b8ff" stroke="#63b8ff" points="653.84,-8.97 643.63,-11.82 653.39,-15.96 653.84,-8.97"/>
</a>
</g>
</g>
<!-- Node18&#45;&gt;Node14 -->
<g id="edge36_Node000018_Node000014" class="edge">
<title>Node18&#45;&gt;Node14</title>
<g id="a_edge36_Node000018_Node000014"><a xlink:title=" ">
<path fill="none" stroke="#63b8ff" d="M750.22,-164.98C729.77,-156.38 697.93,-142.99 674.53,-133.15"/>
<polygon fill="#63b8ff" stroke="#63b8ff" points="675.65,-129.82 665.08,-129.17 672.94,-136.27 675.65,-129.82"/>
</a>
</g>
</g>
<!-- Node18&#45;&gt;Node15 -->
<g id="edge35_Node000018_Node000015" class="edge">
<title>Node18&#45;&gt;Node15</title>
<g id="a_edge35_Node000018_Node000015"><a xlink:title=" ">
<path fill="none" stroke="#63b8ff" d="M770.47,-164.66C770.47,-147.17 770.47,-107.8 770.47,-84.27"/>
<polygon fill="#63b8ff" stroke="#63b8ff" points="773.97,-84.16 770.47,-74.16 766.97,-84.16 773.97,-84.16"/>
</a>
</g>
</g>
<!-- Node18&#45;&gt;Node16 -->
<g id="edge34_Node000018_Node000016" class="edge">
<title>Node18&#45;&gt;Node16</title>
<g id="a_edge34_Node000018_Node000016"><a xlink:title=" ">
<path fill="none" stroke="#63b8ff" d="M843.54,-169.61C904.69,-164.65 985.13,-153.54 1005.47,-129 1023.86,-106.79 987.14,-87.52 957.07,-76.2"/>
<polygon fill="#63b8ff" stroke="#63b8ff" points="958.21,-72.89 947.62,-72.81 955.85,-79.48 958.21,-72.89"/>
</a>
</g>
</g>
<!-- Node18&#45;&gt;Node17 -->
<g id="edge37_Node000018_Node000017" class="edge">
<title>Node18&#45;&gt;Node17</title>
<g id="a_edge37_Node000018_Node000017"><a xlink:title=" ">
<path fill="none" stroke="#63b8ff" d="M762.94,-164.67C752.23,-152.21 731.86,-128.89 713.47,-110 703.86,-100.14 692.69,-89.52 683.64,-81.14"/>
<polygon fill="#63b8ff" stroke="#63b8ff" points="685.77,-78.34 676.04,-74.15 681.03,-83.49 685.77,-78.34"/>
</a>
</g>
</g>
<!-- Node19 -->
<g id="Node000019" class="node">
<title>Node19</title>
<g id="a_Node000019"><a xlink:title=" ">
<polygon fill="#e0e0e0" stroke="#999999" points="891.97,-129 798.97,-129 798.97,-110 891.97,-110 891.97,-129"/>
<text text-anchor="middle" x="845.47" y="-117" font-family="Helvetica,sans-Serif" font-size="10.00">unordered_map</text>
</a>
</g>
</g>
<!-- Node18&#45;&gt;Node19 -->
<g id="edge31_Node000018_Node000019" class="edge">
<title>Node18&#45;&gt;Node19</title>
<g id="a_edge31_Node000018_Node000019"><a xlink:title=" ">
<path fill="none" stroke="#63b8ff" d="M782.52,-164.98C793.93,-156.92 811.3,-144.65 824.9,-135.03"/>
<polygon fill="#63b8ff" stroke="#63b8ff" points="827.05,-137.8 833.2,-129.17 823.01,-132.08 827.05,-137.8"/>
</a>
</g>
</g>
<!-- Node20 -->
<g id="Node000020" class="node">
<title>Node20</title>
<g id="a_Node000020"><a xlink:title=" ">
<polygon fill="#e0e0e0" stroke="#999999" points="996.47,-129 910.47,-129 910.47,-110 996.47,-110 996.47,-129"/>
<text text-anchor="middle" x="953.47" y="-117" font-family="Helvetica,sans-Serif" font-size="10.00">unordered_set</text>
</a>
</g>
</g>
<!-- Node18&#45;&gt;Node20 -->
<g id="edge32_Node000018_Node000020" class="edge">
<title>Node18&#45;&gt;Node20</title>
<g id="a_edge32_Node000018_Node000020"><a xlink:title=" ">
<path fill="none" stroke="#63b8ff" d="M799.87,-164.98C830.86,-156.01 879.84,-141.82 914.14,-131.89"/>
<polygon fill="#63b8ff" stroke="#63b8ff" points="915.2,-135.23 923.83,-129.08 913.25,-128.5 915.2,-135.23"/>
</a>
</g>
</g>
</g>
</svg>
