<?xml version="1.0" encoding="UTF-8" standalone="no"?>
<!DOCTYPE svg PUBLIC "-//W3C//DTD SVG 1.1//EN"
 "http://www.w3.org/Graphics/SVG/1.1/DTD/svg11.dtd">
<!-- Generated by graphviz version 2.43.0 (0)
 -->
<!-- Title: include/helios/rendering/asset/shape/basic/Circle.ixx Pages: 1 -->
<svg width="642pt" height="227pt"
 viewBox="0.00 0.00 642.00 227.17" xmlns="http://www.w3.org/2000/svg" xmlns:xlink="http://www.w3.org/1999/xlink">
<g id="graph0" class="graph" transform="scale(1 1) rotate(0) translate(4 223.17)">
<title>include/helios/rendering/asset/shape/basic/Circle.ixx</title>
<!-- Node1 -->
<g id="Node000001" class="node">
<title>Node1</title>
<g id="a_Node000001"><a xlink:title="Basic circle shape for rendering.">
<polygon fill="#999999" stroke="#666666" points="466,-219.17 311,-219.17 311,-189.17 466,-189.17 466,-219.17"/>
<text text-anchor="start" x="319" y="-207.17" font-family="Helvetica,sans-Serif" font-size="10.00">include/helios/rendering</text>
<text text-anchor="middle" x="388.5" y="-196.17" font-family="Helvetica,sans-Serif" font-size="10.00">/asset/shape/basic/Circle.ixx</text>
</a>
</g>
</g>
<!-- Node2 -->
<g id="Node000002" class="node">
<title>Node2</title>
<g id="a_Node000002"><a xlink:title=" ">
<polygon fill="#e0e0e0" stroke="#999999" points="47,-81.67 0,-81.67 0,-62.67 47,-62.67 47,-81.67"/>
<text text-anchor="middle" x="23.5" y="-69.67" font-family="Helvetica,sans-Serif" font-size="10.00">vector</text>
</a>
</g>
</g>
<!-- Node1&#45;&gt;Node2 -->
<g id="edge1_Node000001_Node000002" class="edge">
<title>Node1&#45;&gt;Node2</title>
<g id="a_edge1_Node000001_Node000002"><a xlink:title=" ">
<path fill="none" stroke="#63b8ff" d="M310.84,-192.18C266.17,-184.36 209.54,-171.87 161.5,-153.17 116.94,-135.84 69.72,-105.5 43.69,-87.58"/>
<polygon fill="#63b8ff" stroke="#63b8ff" points="45.61,-84.65 35.41,-81.8 41.61,-90.4 45.61,-84.65"/>
</a>
</g>
</g>
<!-- Node3 -->
<g id="Node000003" class="node">
<title>Node3</title>
<g id="a_Node000003"><a xlink:title=" ">
<polygon fill="#e0e0e0" stroke="#999999" points="557,-147.67 510,-147.67 510,-128.67 557,-128.67 557,-147.67"/>
<text text-anchor="middle" x="533.5" y="-135.67" font-family="Helvetica,sans-Serif" font-size="10.00">cmath</text>
</a>
</g>
</g>
<!-- Node1&#45;&gt;Node3 -->
<g id="edge2_Node000001_Node000003" class="edge">
<title>Node1&#45;&gt;Node3</title>
<g id="a_edge2_Node000001_Node000003"><a xlink:title=" ">
<path fill="none" stroke="#63b8ff" d="M420.32,-189.13C445.53,-178 480.43,-162.6 504.79,-151.85"/>
<polygon fill="#63b8ff" stroke="#63b8ff" points="506.47,-154.93 514.2,-147.69 503.64,-148.53 506.47,-154.93"/>
</a>
</g>
</g>
<!-- Node4 -->
<g id="Node000004" class="node">
<title>Node4</title>
<g id="a_Node000004"><a xlink:title=" ">
<polygon fill="#e0e0e0" stroke="#999999" points="634,-147.67 575,-147.67 575,-128.67 634,-128.67 634,-147.67"/>
<text text-anchor="middle" x="604.5" y="-135.67" font-family="Helvetica,sans-Serif" font-size="10.00">numbers</text>
</a>
</g>
</g>
<!-- Node1&#45;&gt;Node4 -->
<g id="edge3_Node000001_Node000004" class="edge">
<title>Node1&#45;&gt;Node4</title>
<g id="a_edge3_Node000001_Node000004"><a xlink:title=" ">
<path fill="none" stroke="#63b8ff" d="M442.97,-189.07C478.38,-179.61 525.43,-166.49 566.5,-153.17 568.41,-152.56 570.36,-151.9 572.32,-151.23"/>
<polygon fill="#63b8ff" stroke="#63b8ff" points="573.84,-154.4 582.1,-147.76 571.5,-147.81 573.84,-154.4"/>
</a>
</g>
</g>
<!-- Node5 -->
<g id="Node000005" class="node">
<title>Node5</title>
<g id="a_Node000005"><a xlink:href="PrimitiveType_8ixx.html" target="_top" xlink:title="Enum of primitive types for mesh rendering.">
<polygon fill="white" stroke="#666666" points="229.5,-87.17 65.5,-87.17 65.5,-57.17 229.5,-57.17 229.5,-87.17"/>
<text text-anchor="start" x="73.5" y="-75.17" font-family="Helvetica,sans-Serif" font-size="10.00">helios.rendering.model.config.</text>
<text text-anchor="middle" x="147.5" y="-64.17" font-family="Helvetica,sans-Serif" font-size="10.00">PrimitiveType</text>
</a>
</g>
</g>
<!-- Node1&#45;&gt;Node5 -->
<g id="edge4_Node000001_Node000005" class="edge">
<title>Node1&#45;&gt;Node5</title>
<g id="a_edge4_Node000001_Node000005"><a xlink:title=" ">
<path fill="none" stroke="#63b8ff" d="M310.56,-199.17C270.16,-193.56 222.16,-180.94 187.5,-153.17 169.87,-139.05 159.36,-115.15 153.57,-97.14"/>
<polygon fill="#63b8ff" stroke="#63b8ff" points="156.87,-95.95 150.69,-87.34 150.15,-97.92 156.87,-95.95"/>
</a>
</g>
</g>
<!-- Node6 -->
<g id="Node000006" class="node">
<title>Node6</title>
<g id="a_Node000006"><a xlink:href="helios_2math_2types_2__module_8ixx.html" target="_top" xlink:title="Module exports for vector and matrix type definitions.">
<polygon fill="white" stroke="#666666" points="486.5,-21.17 382.5,-21.17 382.5,-2.17 486.5,-2.17 486.5,-21.17"/>
<text text-anchor="middle" x="434.5" y="-9.17" font-family="Helvetica,sans-Serif" font-size="10.00">helios.math.types</text>
</a>
</g>
</g>
<!-- Node1&#45;&gt;Node6 -->
<g id="edge5_Node000001_Node000006" class="edge">
<title>Node1&#45;&gt;Node6</title>
<g id="a_edge5_Node000001_Node000006"><a xlink:title=" ">
<path fill="none" stroke="#63b8ff" d="M401.31,-189.14C419.12,-168.58 450.52,-128.22 462.5,-87.17 466.23,-74.38 466.2,-69.99 462.5,-57.17 459.63,-47.23 453.82,-37.37 448.22,-29.47"/>
<polygon fill="#63b8ff" stroke="#63b8ff" points="451,-27.34 442.17,-21.48 445.42,-31.56 451,-27.34"/>
</a>
</g>
</g>
<!-- Node7 -->
<g id="Node000007" class="node">
<title>Node7</title>
<g id="a_Node000007"><a xlink:href="Vertex_8ixx.html" target="_top" xlink:title="Vertex description and utilities for rendering.">
<polygon fill="white" stroke="#666666" points="453.5,-81.67 323.5,-81.67 323.5,-62.67 453.5,-62.67 453.5,-81.67"/>
<text text-anchor="middle" x="388.5" y="-69.67" font-family="Helvetica,sans-Serif" font-size="10.00">helios.rendering.Vertex</text>
</a>
</g>
</g>
<!-- Node1&#45;&gt;Node7 -->
<g id="edge7_Node000001_Node000007" class="edge">
<title>Node1&#45;&gt;Node7</title>
<g id="a_edge7_Node000001_Node000007"><a xlink:title=" ">
<path fill="none" stroke="#63b8ff" d="M388.5,-189.01C388.5,-165.51 388.5,-118.43 388.5,-92.1"/>
<polygon fill="#63b8ff" stroke="#63b8ff" points="392,-91.92 388.5,-81.92 385,-91.92 392,-91.92"/>
</a>
</g>
</g>
<!-- Node8 -->
<g id="Node000008" class="node">
<title>Node8</title>
<g id="a_Node000008"><a xlink:href="Shape_8ixx.html" target="_top" xlink:title="Interface for simple geometric shapes used for testing and debugging.">
<polygon fill="white" stroke="#666666" points="356.5,-153.17 196.5,-153.17 196.5,-123.17 356.5,-123.17 356.5,-153.17"/>
<text text-anchor="start" x="204.5" y="-141.17" font-family="Helvetica,sans-Serif" font-size="10.00">helios.rendering.asset.shape.</text>
<text text-anchor="middle" x="276.5" y="-130.17" font-family="Helvetica,sans-Serif" font-size="10.00">Shape</text>
</a>
</g>
</g>
<!-- Node1&#45;&gt;Node8 -->
<g id="edge9_Node000001_Node000008" class="edge">
<title>Node1&#45;&gt;Node8</title>
<g id="a_edge9_Node000001_Node000008"><a xlink:title=" ">
<path fill="none" stroke="#63b8ff" d="M363.92,-189.13C348.02,-180.04 327.12,-168.1 309.74,-158.17"/>
<polygon fill="#63b8ff" stroke="#63b8ff" points="311.44,-155.11 301.02,-153.19 307.97,-161.19 311.44,-155.11"/>
</a>
</g>
</g>
<!-- Node6&#45;&gt;Node6 -->
<g id="edge6_Node000006_Node000006" class="edge">
<title>Node6&#45;&gt;Node6</title>
<g id="a_edge6_Node000006_Node000006"><a xlink:title=" ">
<path fill="none" stroke="#63b8ff" d="M460.35,-21.21C481.94,-25.28 504.5,-22.1 504.5,-11.67 504.5,-2.87 488.44,0.76 470.45,-0.76"/>
<polygon fill="#63b8ff" stroke="#63b8ff" points="469.78,2.68 460.35,-2.14 470.73,-4.26 469.78,2.68"/>
</a>
</g>
</g>
<!-- Node7&#45;&gt;Node6 -->
<g id="edge8_Node000007_Node000006" class="edge">
<title>Node7&#45;&gt;Node6</title>
<g id="a_edge8_Node000007_Node000006"><a xlink:title=" ">
<path fill="none" stroke="#63b8ff" d="M395.29,-62.54C402.15,-53.82 412.93,-40.11 421.45,-29.27"/>
<polygon fill="#63b8ff" stroke="#63b8ff" points="424.25,-31.37 427.68,-21.34 418.75,-27.04 424.25,-31.37"/>
</a>
</g>
</g>
<!-- Node8&#45;&gt;Node2 -->
<g id="edge11_Node000008_Node000002" class="edge">
<title>Node8&#45;&gt;Node2</title>
<g id="a_edge11_Node000008_Node000002"><a xlink:title=" ">
<path fill="none" stroke="#63b8ff" d="M199.49,-123.17C156.85,-114.54 103.18,-102.25 56.5,-87.17 54.87,-86.65 53.21,-86.07 51.55,-85.47"/>
<polygon fill="#63b8ff" stroke="#63b8ff" points="52.72,-82.17 42.13,-81.76 50.15,-88.68 52.72,-82.17"/>
</a>
</g>
</g>
<!-- Node8&#45;&gt;Node5 -->
<g id="edge12_Node000008_Node000005" class="edge">
<title>Node8&#45;&gt;Node5</title>
<g id="a_edge12_Node000008_Node000005"><a xlink:title=" ">
<path fill="none" stroke="#63b8ff" d="M248.19,-123.13C229.62,-113.92 205.14,-101.77 184.96,-91.76"/>
<polygon fill="#63b8ff" stroke="#63b8ff" points="186.26,-88.5 175.74,-87.19 183.15,-94.77 186.26,-88.5"/>
</a>
</g>
</g>
<!-- Node8&#45;&gt;Node7 -->
<g id="edge13_Node000008_Node000007" class="edge">
<title>Node8&#45;&gt;Node7</title>
<g id="a_edge13_Node000008_Node000007"><a xlink:title=" ">
<path fill="none" stroke="#63b8ff" d="M301.08,-123.13C320.03,-112.3 346.08,-97.42 364.8,-86.72"/>
<polygon fill="#63b8ff" stroke="#63b8ff" points="366.65,-89.69 373.59,-81.69 363.18,-83.61 366.65,-89.69"/>
</a>
</g>
</g>
<!-- Node9 -->
<g id="Node000009" class="node">
<title>Node9</title>
<g id="a_Node000009"><a xlink:title=" ">
<polygon fill="#e0e0e0" stroke="#999999" points="305.5,-81.67 247.5,-81.67 247.5,-62.67 305.5,-62.67 305.5,-81.67"/>
<text text-anchor="middle" x="276.5" y="-69.67" font-family="Helvetica,sans-Serif" font-size="10.00">memory</text>
</a>
</g>
</g>
<!-- Node8&#45;&gt;Node9 -->
<g id="edge10_Node000008_Node000009" class="edge">
<title>Node8&#45;&gt;Node9</title>
<g id="a_edge10_Node000008_Node000009"><a xlink:title=" ">
<path fill="none" stroke="#63b8ff" d="M276.5,-122.97C276.5,-113.87 276.5,-101.96 276.5,-92.07"/>
<polygon fill="#63b8ff" stroke="#63b8ff" points="280,-92.02 276.5,-82.02 273,-92.02 280,-92.02"/>
</a>
</g>
</g>
</g>
</svg>
