<?xml version="1.0" encoding="UTF-8" standalone="no"?>
<!DOCTYPE svg PUBLIC "-//W3C//DTD SVG 1.1//EN"
 "http://www.w3.org/Graphics/SVG/1.1/DTD/svg11.dtd">
<!-- Generated by graphviz version 2.43.0 (0)
 -->
<!-- Title: helios::event::Event::tag Pages: 1 -->
<svg width="341pt" height="146pt"
 viewBox="0.00 0.00 341.00 146.00" xmlns="http://www.w3.org/2000/svg" xmlns:xlink="http://www.w3.org/1999/xlink">
<g id="graph0" class="graph" transform="scale(1 1) rotate(0) translate(4 142)">
<title>helios::event::Event::tag</title>
<!-- Node1 -->
<g id="Node000001" class="node">
<title>Node1</title>
<g id="a_Node000001"><a xlink:title="Returns the tag for this event. Will be 0 if none was specified.">
<polygon fill="#999999" stroke="#666666" points="333,-78.5 198,-78.5 198,-59.5 333,-59.5 333,-78.5"/>
<text text-anchor="middle" x="265.5" y="-66.5" font-family="Helvetica,sans-Serif" font-size="10.00">helios::event::Event::tag</text>
</a>
</g>
</g>
<!-- Node2 -->
<g id="Node000002" class="node">
<title>Node2</title>
<g id="a_Node000002"><a xlink:href="classhelios_1_1event_1_1Event.html#a741350d083ce20aefbb749fd0a83e5f2" target="_top" xlink:title="Constructs a new event with a unique Guid and teh specified default tag.">
<polygon fill="white" stroke="#666666" points="137.5,-138 24.5,-138 24.5,-108 137.5,-108 137.5,-138"/>
<text text-anchor="start" x="32.5" y="-126" font-family="Helvetica,sans-Serif" font-size="10.00">helios::event::Event</text>
<text text-anchor="middle" x="81" y="-115" font-family="Helvetica,sans-Serif" font-size="10.00">::Event</text>
</a>
</g>
</g>
<!-- Node1&#45;&gt;Node2 -->
<g id="edge1_Node000001_Node000002" class="edge">
<title>Node1&#45;&gt;Node2</title>
<g id="a_edge1_Node000001_Node000002"><a xlink:title=" ">
<path fill="none" stroke="#63b8ff" d="M222.48,-81.43C195.79,-89.33 161.07,-99.6 132.83,-107.96"/>
<polygon fill="#63b8ff" stroke="#63b8ff" points="223.7,-84.72 232.29,-78.53 221.71,-78.01 223.7,-84.72"/>
</a>
</g>
</g>
<!-- Node3 -->
<g id="Node000003" class="node">
<title>Node3</title>
<g id="a_Node000003"><a xlink:href="classhelios_1_1window_1_1event_1_1FrameBufferResizeEvent.html#a48c03ab86ea3ba9358c6c9b95a810a8c" target="_top" xlink:title="Constructs a `FrameBufferResizeEvent`.">
<polygon fill="white" stroke="#666666" points="152.5,-89.5 9.5,-89.5 9.5,-48.5 152.5,-48.5 152.5,-89.5"/>
<text text-anchor="start" x="17.5" y="-77.5" font-family="Helvetica,sans-Serif" font-size="10.00">helios::window::event</text>
<text text-anchor="start" x="17.5" y="-66.5" font-family="Helvetica,sans-Serif" font-size="10.00">::FrameBufferResizeEvent</text>
<text text-anchor="middle" x="81" y="-55.5" font-family="Helvetica,sans-Serif" font-size="10.00">::FrameBufferResizeEvent</text>
</a>
</g>
</g>
<!-- Node1&#45;&gt;Node3 -->
<g id="edge2_Node000001_Node000003" class="edge">
<title>Node1&#45;&gt;Node3</title>
<g id="a_edge2_Node000001_Node000003"><a xlink:title=" ">
<path fill="none" stroke="#63b8ff" d="M187.75,-69C176.16,-69 164.24,-69 152.78,-69"/>
<polygon fill="#63b8ff" stroke="#63b8ff" points="187.84,-72.5 197.84,-69 187.84,-65.5 187.84,-72.5"/>
</a>
</g>
</g>
<!-- Node4 -->
<g id="Node000004" class="node">
<title>Node4</title>
<g id="a_Node000004"><a xlink:href="classhelios_1_1window_1_1event_1_1WindowEvent.html#ab5286107303e5071ac3d87ac9ba69202" target="_top" xlink:title="Constructs a new WindowEvent with the specific source Guid and the specific tag.">
<polygon fill="white" stroke="#666666" points="162,-30 0,-30 0,0 162,0 162,-30"/>
<text text-anchor="start" x="8" y="-18" font-family="Helvetica,sans-Serif" font-size="10.00">helios::window::event</text>
<text text-anchor="middle" x="81" y="-7" font-family="Helvetica,sans-Serif" font-size="10.00">::WindowEvent::WindowEvent</text>
</a>
</g>
</g>
<!-- Node1&#45;&gt;Node4 -->
<g id="edge3_Node000001_Node000004" class="edge">
<title>Node1&#45;&gt;Node4</title>
<g id="a_edge3_Node000001_Node000004"><a xlink:title=" ">
<path fill="none" stroke="#63b8ff" d="M222.48,-56.57C195.79,-48.67 161.07,-38.4 132.83,-30.04"/>
<polygon fill="#63b8ff" stroke="#63b8ff" points="221.71,-59.99 232.29,-59.47 223.7,-53.28 221.71,-59.99"/>
</a>
</g>
</g>
</g>
</svg>
