<?xml version="1.0" encoding="UTF-8" standalone="no"?>
<!DOCTYPE svg PUBLIC "-//W3C//DTD SVG 1.1//EN"
 "http://www.w3.org/Graphics/SVG/1.1/DTD/svg11.dtd">
<!-- Generated by graphviz version 2.43.0 (0)
 -->
<!-- Title: helios::rendering::RenderCommand::RenderCommand Pages: 1 -->
<!--zoomable 316 -->

<svg id="main" version="1.1" xmlns="http://www.w3.org/2000/svg" xmlns:xlink="http://www.w3.org/1999/xlink" xml:space="preserve" onload="init(evt)">

<style type="text/css"><![CDATA[
.node, .edge {opacity: 0.7;}
.node.selected, .edge.selected {opacity: 1;}
.edge:hover path { stroke: red; }
.edge:hover polygon { stroke: red; fill: red; }
]]></style>

<defs>
  <circle id="rim" cx="0" cy="0" r="7"/>
  <circle id="rim2" cx="0" cy="0" r="3.5"/>
  <g id="zoomPlus">
    <use xlink:href="#rim" fill="#404040"><set attributeName="fill" to="#808080" begin="zoomplus.mouseover" end="zoomplus.mouseout"/></use>
    <path d="M-4,0h8M0,-4v8" fill="none" stroke="white" stroke-width="1.5" pointer-events="none"/>
  </g>
  <g id="zoomMin">
    <use xlink:href="#rim" fill="#404040"><set attributeName="fill" to="#808080" begin="zoomminus.mouseover" end="zoomminus.mouseout"/></use>
    <path d="M-4,0h8" fill="none" stroke="white" stroke-width="1.5" pointer-events="none"/>
  </g>
  <g id="arrowUp" transform="translate(30 24)">
    <use xlink:href="#rim"/>
    <path pointer-events="none" fill="none" stroke="white" stroke-width="1.5" d="M0,-3.0v7 M-2.5,-0.5L0,-3.0L2.5,-0.5"/>
  </g>
  <g id="arrowRight" transform="rotate(90) translate(36 -43)">
    <use xlink:href="#rim"/>
    <path pointer-events="none" fill="none" stroke="white" stroke-width="1.5" d="M0,-3.0v7 M-2.5,-0.5L0,-3.0L2.5,-0.5"/>
  </g>
  <g id="arrowDown" transform="rotate(180) translate(-30 -48)">
    <use xlink:href="#rim"/>
    <path pointer-events="none" fill="none" stroke="white" stroke-width="1.5" d="M0,-3.0v7 M-2.5,-0.5L0,-3.0L2.5,-0.5"/>
  </g>
  <g id="arrowLeft" transform="rotate(270) translate(-36 17)">
    <use xlink:href="#rim"/>
    <path pointer-events="none" fill="none" stroke="white" stroke-width="1.5" d="M0,-3.0v7 M-2.5,-0.5L0,-3.0L2.5,-0.5"/>
  </g>
  <g id="resetDef">
    <use xlink:href="#rim2" fill="#404040"><set attributeName="fill" to="#808080" begin="reset.mouseover" end="reset.mouseout"/></use>
  </g>
</defs>
<script type="application/ecmascript">
var viewWidth = 604;
var viewHeight = 316;
var sectionId = 'dynsection-4';
</script>
<script type="application/ecmascript" xlink:href="svg.min.js"/>
<svg id="graph" class="graph">
<g id="viewport">
<title>helios::rendering::RenderCommand::RenderCommand</title>
<!-- Node1 -->
<g id="Node000001" class="node">
<title>Node1</title>
<g id="a_Node000001"><a xlink:title="Constructs a new `RenderCommand`. Initializes this `RenderCommand` with weak pointers to the shader a...">
<polygon fill="#999999" stroke="#666666" points="192,-174 0,-174 0,-144 192,-144 192,-174"/>
<text text-anchor="start" x="8" y="-162" font-family="Helvetica,sans-Serif" font-size="10.00">helios::rendering::</text>
<text text-anchor="middle" x="96" y="-151" font-family="Helvetica,sans-Serif" font-size="10.00">RenderCommand::RenderCommand</text>
</a>
</g>
</g>
<!-- Node2 -->
<g id="Node000002" class="node">
<title>Node2</title>
<g id="a_Node000002"><a xlink:href="classhelios_1_1rendering_1_1RenderCommand.html#a12393226183cacaf5335beac7bffb6ab" target="_top" xlink:title="Returns a const ref to this command&#39;s UniformValueMap for the material.">
<polygon fill="white" stroke="#666666" points="418,-289.5 230,-289.5 230,-248.5 418,-248.5 418,-289.5"/>
<text text-anchor="start" x="238" y="-277.5" font-family="Helvetica,sans-Serif" font-size="10.00">helios::rendering::</text>
<text text-anchor="start" x="238" y="-266.5" font-family="Helvetica,sans-Serif" font-size="10.00">RenderCommand::materialUniform</text>
<text text-anchor="middle" x="324" y="-255.5" font-family="Helvetica,sans-Serif" font-size="10.00">Values</text>
</a>
</g>
</g>
<!-- Node1&#45;&gt;Node2 -->
<g id="edge1_Node000001_Node000002" class="edge">
<title>Node1&#45;&gt;Node2</title>
<g id="a_edge1_Node000001_Node000002"><a xlink:title=" ">
<path fill="none" stroke="#63b8ff" d="M120.5,-174.06C146.24,-190.16 189.05,-215.83 228,-234 235.99,-237.73 244.49,-241.33 253,-244.73"/>
<polygon fill="#63b8ff" stroke="#63b8ff" points="251.99,-248.09 262.58,-248.46 254.53,-241.57 251.99,-248.09"/>
</a>
</g>
</g>
<!-- Node3 -->
<g id="Node000003" class="node">
<title>Node3</title>
<g id="a_Node000003"><a xlink:href="classhelios_1_1rendering_1_1RenderCommand.html#a529b8d2ad25ab718c490b6a7c77afa88" target="_top" xlink:title="Returns a weak ptr to the shader associated with this command. Use `shader.lock()` on the return valu...">
<polygon fill="white" stroke="#666666" points="596,-235 456,-235 456,-205 596,-205 596,-235"/>
<text text-anchor="start" x="464" y="-223" font-family="Helvetica,sans-Serif" font-size="10.00">helios::rendering::</text>
<text text-anchor="middle" x="526" y="-212" font-family="Helvetica,sans-Serif" font-size="10.00">RenderCommand::shader</text>
</a>
</g>
</g>
<!-- Node1&#45;&gt;Node3 -->
<g id="edge12_Node000001_Node000003" class="edge">
<title>Node1&#45;&gt;Node3</title>
<g id="a_edge12_Node000001_Node000003"><a xlink:title=" ">
<path fill="none" stroke="#63b8ff" d="M135.33,-174.05C161.11,-183.48 196.09,-194.96 228,-201 300.95,-214.81 385.57,-219.1 445.78,-220.21"/>
<polygon fill="#63b8ff" stroke="#63b8ff" points="445.93,-223.71 455.98,-220.37 446.04,-216.71 445.93,-223.71"/>
</a>
</g>
</g>
<!-- Node4 -->
<g id="Node000004" class="node">
<title>Node4</title>
<g id="a_Node000004"><a xlink:href="classhelios_1_1rendering_1_1RenderCommand.html#ac09956f2f80434aebcf20bedad2859d5" target="_top" xlink:title="Returns a weak ptr to the mesh associated with this command. Use `mesh.lock()` on the return value to...">
<polygon fill="white" stroke="#666666" points="391,-174 257,-174 257,-144 391,-144 391,-174"/>
<text text-anchor="start" x="265" y="-162" font-family="Helvetica,sans-Serif" font-size="10.00">helios::rendering::</text>
<text text-anchor="middle" x="324" y="-151" font-family="Helvetica,sans-Serif" font-size="10.00">RenderCommand::mesh</text>
</a>
</g>
</g>
<!-- Node1&#45;&gt;Node4 -->
<g id="edge5_Node000001_Node000004" class="edge">
<title>Node1&#45;&gt;Node4</title>
<g id="a_edge5_Node000001_Node000004"><a xlink:title=" ">
<path fill="none" stroke="#63b8ff" d="M192.19,-159C210.34,-159 229.12,-159 246.59,-159"/>
<polygon fill="#63b8ff" stroke="#63b8ff" points="246.71,-162.5 256.71,-159 246.71,-155.5 246.71,-162.5"/>
</a>
</g>
</g>
<!-- Node5 -->
<g id="Node000005" class="node">
<title>Node5</title>
<g id="a_Node000005"><a xlink:href="classhelios_1_1rendering_1_1RenderCommand.html#ad4a8aa4a94a4abbd21e984ac47c60c04" target="_top" xlink:title="Returns a const ref to this command&#39;s UniformValueMap for the object.">
<polygon fill="white" stroke="#666666" points="412.5,-107.5 235.5,-107.5 235.5,-66.5 412.5,-66.5 412.5,-107.5"/>
<text text-anchor="start" x="243.5" y="-95.5" font-family="Helvetica,sans-Serif" font-size="10.00">helios::rendering::</text>
<text text-anchor="start" x="243.5" y="-84.5" font-family="Helvetica,sans-Serif" font-size="10.00">RenderCommand::objectUniform</text>
<text text-anchor="middle" x="324" y="-73.5" font-family="Helvetica,sans-Serif" font-size="10.00">Values</text>
</a>
</g>
</g>
<!-- Node1&#45;&gt;Node5 -->
<g id="edge7_Node000001_Node000005" class="edge">
<title>Node1&#45;&gt;Node5</title>
<g id="a_edge7_Node000001_Node000005"><a xlink:title=" ">
<path fill="none" stroke="#63b8ff" d="M144.1,-143.99C174.37,-134.35 214.34,-121.62 248.82,-110.63"/>
<polygon fill="#63b8ff" stroke="#63b8ff" points="249.92,-113.95 258.39,-107.58 247.8,-107.28 249.92,-113.95"/>
</a>
</g>
</g>
<!-- Node6 -->
<g id="Node000006" class="node">
<title>Node6</title>
<g id="a_Node000006"><a xlink:href="classhelios_1_1rendering_1_1RenderCommand.html#ab99843dfddf77202869e685426d0d759" target="_top" xlink:title="Prevent copying. A RenderCommand is not intended to be copied.">
<polygon fill="white" stroke="#666666" points="420,-30 228,-30 228,0 420,0 420,-30"/>
<text text-anchor="start" x="236" y="-18" font-family="Helvetica,sans-Serif" font-size="10.00">helios::rendering::</text>
<text text-anchor="middle" x="324" y="-7" font-family="Helvetica,sans-Serif" font-size="10.00">RenderCommand::RenderCommand</text>
</a>
</g>
</g>
<!-- Node1&#45;&gt;Node6 -->
<g id="edge10_Node000001_Node000006" class="edge">
<title>Node1&#45;&gt;Node6</title>
<g id="a_edge10_Node000001_Node000006"><a xlink:title=" ">
<path fill="none" stroke="#63b8ff" d="M113.87,-143.92C137.96,-122.87 184.18,-84.32 228,-58 242.78,-49.12 259.71,-40.9 275.15,-34.07"/>
<polygon fill="#63b8ff" stroke="#63b8ff" points="276.75,-37.19 284.53,-30.01 273.96,-30.77 276.75,-37.19"/>
</a>
</g>
</g>
<!-- Node2&#45;&gt;Node2 -->
<g id="edge2_Node000002_Node000002" class="edge">
<title>Node2&#45;&gt;Node2</title>
<g id="a_edge2_Node000002_Node000002"><a xlink:title=" ">
<path fill="none" stroke="#63b8ff" d="M286.87,-289.6C282.82,-299.15 295.2,-307.5 324,-307.5 342,-307.5 353.58,-304.24 358.75,-299.46"/>
<polygon fill="#63b8ff" stroke="#63b8ff" points="362.19,-300.14 361.13,-289.6 355.38,-298.5 362.19,-300.14"/>
</a>
</g>
</g>
<!-- Node2&#45;&gt;Node3 -->
<g id="edge3_Node000002_Node000003" class="edge">
<title>Node2&#45;&gt;Node3</title>
<g id="a_edge3_Node000002_Node000003"><a xlink:title=" ">
<path fill="none" stroke="#63b8ff" d="M408.95,-248.43C423.89,-244.77 439.32,-240.99 453.86,-237.43"/>
<polygon fill="#63b8ff" stroke="#63b8ff" points="454.88,-240.78 463.76,-235 453.22,-233.98 454.88,-240.78"/>
</a>
</g>
</g>
<!-- Node3&#45;&gt;Node3 -->
<g id="edge4_Node000003_Node000003" class="edge">
<title>Node3&#45;&gt;Node3</title>
<g id="a_edge4_Node000003_Node000003"><a xlink:title=" ">
<path fill="none" stroke="#63b8ff" d="M490.49,-235.28C482.6,-244.41 494.44,-253 526,-253 544.74,-253 556.53,-249.97 561.36,-245.6"/>
<polygon fill="#63b8ff" stroke="#63b8ff" points="564.86,-245.33 561.51,-235.28 557.86,-245.22 564.86,-245.33"/>
</a>
</g>
</g>
<!-- Node4&#45;&gt;Node4 -->
<g id="edge6_Node000004_Node000004" class="edge">
<title>Node4&#45;&gt;Node4</title>
<g id="a_edge6_Node000004_Node000004"><a xlink:title=" ">
<path fill="none" stroke="#63b8ff" d="M288.49,-174.28C280.6,-183.41 292.44,-192 324,-192 342.74,-192 354.53,-188.97 359.36,-184.6"/>
<polygon fill="#63b8ff" stroke="#63b8ff" points="362.86,-184.33 359.51,-174.28 355.86,-184.22 362.86,-184.33"/>
</a>
</g>
</g>
<!-- Node5&#45;&gt;Node3 -->
<g id="edge9_Node000005_Node000003" class="edge">
<title>Node5&#45;&gt;Node3</title>
<g id="a_edge9_Node000005_Node000003"><a xlink:title=" ">
<path fill="none" stroke="#63b8ff" d="M370.55,-107.57C386.59,-115.44 404.48,-124.96 420,-135 449.55,-154.12 480.54,-180.03 501.13,-198.21"/>
<polygon fill="#63b8ff" stroke="#63b8ff" points="498.95,-200.96 508.75,-205 503.61,-195.73 498.95,-200.96"/>
</a>
</g>
</g>
<!-- Node5&#45;&gt;Node5 -->
<g id="edge8_Node000005_Node000005" class="edge">
<title>Node5&#45;&gt;Node5</title>
<g id="a_edge8_Node000005_Node000005"><a xlink:title=" ">
<path fill="none" stroke="#63b8ff" d="M286.87,-107.6C282.82,-117.15 295.2,-125.5 324,-125.5 342,-125.5 353.58,-122.24 358.75,-117.46"/>
<polygon fill="#63b8ff" stroke="#63b8ff" points="362.19,-118.14 361.13,-107.6 355.38,-116.5 362.19,-118.14"/>
</a>
</g>
</g>
<!-- Node6&#45;&gt;Node6 -->
<g id="edge11_Node000006_Node000006" class="edge">
<title>Node6&#45;&gt;Node6</title>
<g id="a_edge11_Node000006_Node000006"><a xlink:title=" ">
<path fill="none" stroke="#63b8ff" d="M288.49,-30.28C280.6,-39.41 292.44,-48 324,-48 342.74,-48 354.53,-44.97 359.36,-40.6"/>
<polygon fill="#63b8ff" stroke="#63b8ff" points="362.86,-40.33 359.51,-30.28 355.86,-40.22 362.86,-40.33"/>
</a>
</g>
</g>
</g>
</svg>

<g id="navigator" transform="translate(0 0)" fill="#404254">
  <rect fill="#f2f5e9" fill-opacity="0.5" stroke="#606060" stroke-width=".5" x="0" y="0" width="60" height="60"/>
  <use id="zoomplus" xlink:href="#zoomPlus" x="17" y="9" onmousedown="handleZoom(evt,'in')"/>
  <use id="zoomminus" xlink:href="#zoomMin" x="42" y="9" onmousedown="handleZoom(evt,'out')"/>
  <use id="reset" xlink:href="#resetDef" x="30" y="36" onmousedown="handleReset()"/>
   <use id="arrowup" xlink:href="#arrowUp" x="0" y="0" onmousedown="handlePan(0,-1)"/>
  <use id="arrowright" xlink:href="#arrowRight" x="0" y="0" onmousedown="handlePan(1,0)"/>
  <use id="arrowdown" xlink:href="#arrowDown" x="0" y="0" onmousedown="handlePan(0,1)"/>
  <use id="arrowleft" xlink:href="#arrowLeft" x="0" y="0" onmousedown="handlePan(-1,0)"/>
</g>
<svg viewBox="0 0 15 15" width="100%" height="30px" preserveAspectRatio="xMaxYMin meet">
 <g id="arrow_out" transform="scale(0.3 0.3)">
  <a xlink:href="classhelios_1_1rendering_1_1RenderCommand_a26b8f9e5e6422bdda7ca626002c7d2a3_cgraph_org.svg" target="_base">
   <rect id="button" ry="5" rx="5" y="6" x="6" height="38" width="38"
        fill="#f2f5e9" fill-opacity="0.5" stroke="#606060" stroke-width="1.0"/>
   <path id="arrow"
     d="M 11.500037,31.436501 C 11.940474,20.09759 22.043105,11.32322 32.158766,21.979434 L 37.068811,17.246167 C 37.068811,17.246167 37.088388,32 37.088388,32 L 22.160133,31.978069 C 22.160133,31.978069 26.997745,27.140456 26.997745,27.140456 C 18.528582,18.264221 13.291696,25.230495 11.500037,31.436501 z"
     style="fill:#404040;"/>
  </a>
 </g>
</svg>

<style type='text/css'>
<![CDATA[
[data-mouse-over-selected='false'] { opacity: 0.7; }
[data-mouse-over-selected='true']  { opacity: 1.0; }
]]>
</style>
<script type="application/ecmascript"><![CDATA[
document.addEventListener('DOMContentLoaded', (event) => {
  highlightEdges();
  highlightAdjacentNodes();
});
]]></script>
</svg>
