<?xml version="1.0" encoding="UTF-8" standalone="no"?>
<!DOCTYPE svg PUBLIC "-//W3C//DTD SVG 1.1//EN"
 "http://www.w3.org/Graphics/SVG/1.1/DTD/svg11.dtd">
<!-- Generated by graphviz version 2.43.0 (0)
 -->
<!-- Title: helios::rendering::Renderable::Renderable Pages: 1 -->
<svg width="339pt" height="170pt"
 viewBox="0.00 0.00 339.00 170.00" xmlns="http://www.w3.org/2000/svg" xmlns:xlink="http://www.w3.org/1999/xlink">

<svg id="main" version="1.1" xmlns="http://www.w3.org/2000/svg" xmlns:xlink="http://www.w3.org/1999/xlink" xml:space="preserve">

<style type="text/css"><![CDATA[
.node, .edge {opacity: 0.7;}
.node.selected, .edge.selected {opacity: 1;}
.edge:hover path { stroke: red; }
.edge:hover polygon { stroke: red; fill: red; }
]]></style>
<script type="application/ecmascript" xlink:href="svg.min.js"/>
<svg id="graph" class="graph">
<g id="graph0" class="graph" transform="scale(1 1) rotate(0) translate(4 166)">
<title>helios::rendering::Renderable::Renderable</title>
<!-- Node1 -->
<g id="Node000001" class="node">
<title>Node1</title>
<g id="a_Node000001"><a xlink:title="Creates a new Renderable instance.">
<polygon fill="#999999" stroke="#666666" points="134,-96 0,-96 0,-66 134,-66 134,-96"/>
<text text-anchor="start" x="8" y="-84" font-family="Helvetica,sans-Serif" font-size="10.00">helios::rendering::</text>
<text text-anchor="middle" x="67" y="-73" font-family="Helvetica,sans-Serif" font-size="10.00">Renderable::Renderable</text>
</a>
</g>
</g>
<!-- Node2 -->
<g id="Node000002" class="node">
<title>Node2</title>
<g id="a_Node000002"><a xlink:href="classhelios_1_1rendering_1_1Renderable.html#a9ff2cf3f0474d419477027dc81c86165" target="_top" xlink:title="Returns a const reference to the optional instance&#45;specific MaterialPropertiesOverride.">
<polygon fill="white" stroke="#666666" points="331,-144 170,-144 170,-114 331,-114 331,-144"/>
<text text-anchor="start" x="178" y="-132" font-family="Helvetica,sans-Serif" font-size="10.00">helios::rendering::</text>
<text text-anchor="middle" x="250.5" y="-121" font-family="Helvetica,sans-Serif" font-size="10.00">Renderable::materialOverride</text>
</a>
</g>
</g>
<!-- Node1&#45;&gt;Node2 -->
<g id="edge1_Node000001_Node000002" class="edge">
<title>Node1&#45;&gt;Node2</title>
<g id="a_edge1_Node000001_Node000002"><a xlink:title=" ">
<path fill="none" stroke="#63b8ff" d="M124.93,-96.06C143.34,-100.93 163.93,-106.37 182.97,-111.41"/>
<polygon fill="#63b8ff" stroke="#63b8ff" points="182.21,-114.82 192.77,-114 184,-108.06 182.21,-114.82"/>
</a>
</g>
</g>
<!-- Node3 -->
<g id="Node000003" class="node">
<title>Node3</title>
<g id="a_Node000003"><a xlink:href="classhelios_1_1rendering_1_1Renderable.html#a5f6b1a62d690b901c71292fd85484601" target="_top" xlink:title="Deleted default constructor.">
<polygon fill="white" stroke="#666666" points="317.5,-96 183.5,-96 183.5,-66 317.5,-66 317.5,-96"/>
<text text-anchor="start" x="191.5" y="-84" font-family="Helvetica,sans-Serif" font-size="10.00">helios::rendering::</text>
<text text-anchor="middle" x="250.5" y="-73" font-family="Helvetica,sans-Serif" font-size="10.00">Renderable::Renderable</text>
</a>
</g>
</g>
<!-- Node1&#45;&gt;Node3 -->
<g id="edge3_Node000001_Node000003" class="edge">
<title>Node1&#45;&gt;Node3</title>
<g id="a_edge3_Node000001_Node000003"><a xlink:title=" ">
<path fill="none" stroke="#63b8ff" d="M134.04,-81C146.68,-81 160,-81 172.94,-81"/>
<polygon fill="#63b8ff" stroke="#63b8ff" points="173.21,-84.5 183.21,-81 173.21,-77.5 173.21,-84.5"/>
</a>
</g>
</g>
<!-- Node4 -->
<g id="Node000004" class="node">
<title>Node4</title>
<g id="a_Node000004"><a xlink:href="classhelios_1_1rendering_1_1Renderable.html#ad62cb2a3bbb92eb64b901e110a357e8c" target="_top" xlink:title="Returns a shared pointer to the RenderPrototype used by this Renderable.">
<polygon fill="white" stroke="#666666" points="329,-30 172,-30 172,0 329,0 329,-30"/>
<text text-anchor="start" x="180" y="-18" font-family="Helvetica,sans-Serif" font-size="10.00">helios::rendering::</text>
<text text-anchor="middle" x="250.5" y="-7" font-family="Helvetica,sans-Serif" font-size="10.00">Renderable::renderPrototype</text>
</a>
</g>
</g>
<!-- Node1&#45;&gt;Node4 -->
<g id="edge4_Node000001_Node000004" class="edge">
<title>Node1&#45;&gt;Node4</title>
<g id="a_edge4_Node000001_Node000004"><a xlink:title=" ">
<path fill="none" stroke="#63b8ff" d="M109.64,-65.86C136.04,-56.26 170.38,-43.77 198.42,-33.57"/>
<polygon fill="#63b8ff" stroke="#63b8ff" points="199.85,-36.78 208.05,-30.07 197.46,-30.2 199.85,-36.78"/>
</a>
</g>
</g>
<!-- Node2&#45;&gt;Node2 -->
<g id="edge2_Node000002_Node000002" class="edge">
<title>Node2&#45;&gt;Node2</title>
<g id="a_edge2_Node000002_Node000002"><a xlink:title=" ">
<path fill="none" stroke="#63b8ff" d="M218.51,-144.28C211.4,-153.41 222.06,-162 250.5,-162 267.38,-162 278,-158.97 282.36,-154.6"/>
<polygon fill="#63b8ff" stroke="#63b8ff" points="285.86,-154.32 282.49,-144.28 278.86,-154.23 285.86,-154.32"/>
</a>
</g>
</g>
<!-- Node4&#45;&gt;Node4 -->
<g id="edge5_Node000004_Node000004" class="edge">
<title>Node4&#45;&gt;Node4</title>
<g id="a_edge5_Node000004_Node000004"><a xlink:title=" ">
<path fill="none" stroke="#63b8ff" d="M218.51,-30.28C211.4,-39.41 222.06,-48 250.5,-48 267.38,-48 278,-44.97 282.36,-40.6"/>
<polygon fill="#63b8ff" stroke="#63b8ff" points="285.86,-40.32 282.49,-30.28 278.86,-40.23 285.86,-40.32"/>
</a>
</g>
</g>
</g>
</svg>
</svg>

<style type='text/css'>
<![CDATA[
[data-mouse-over-selected='false'] { opacity: 0.7; }
[data-mouse-over-selected='true']  { opacity: 1.0; }
]]>
</style>
<script type="application/ecmascript"><![CDATA[
document.addEventListener('DOMContentLoaded', (event) => {
  highlightEdges();
  highlightAdjacentNodes();
});
]]></script>
</svg>
