<?xml version="1.0" encoding="UTF-8" standalone="no"?>
<!DOCTYPE svg PUBLIC "-//W3C//DTD SVG 1.1//EN"
 "http://www.w3.org/Graphics/SVG/1.1/DTD/svg11.dtd">
<!-- Generated by graphviz version 2.43.0 (0)
 -->
<!-- Title: helios::rendering::RenderTarget::width Pages: 1 -->
<svg width="310pt" height="86pt"
 viewBox="0.00 0.00 310.00 86.00" xmlns="http://www.w3.org/2000/svg" xmlns:xlink="http://www.w3.org/1999/xlink">
<g id="graph0" class="graph" transform="scale(1 1) rotate(0) translate(4 82)">
<title>helios::rendering::RenderTarget::width</title>
<!-- Node1 -->
<g id="Node000001" class="node">
<title>Node1</title>
<g id="a_Node000001"><a xlink:title="Gets the width of the render target.">
<polygon fill="#999999" stroke="#666666" points="302,-54 188,-54 188,-24 302,-24 302,-54"/>
<text text-anchor="start" x="196" y="-42" font-family="Helvetica,sans-Serif" font-size="10.00">helios::rendering::</text>
<text text-anchor="middle" x="245" y="-31" font-family="Helvetica,sans-Serif" font-size="10.00">RenderTarget::width</text>
</a>
</g>
</g>
<!-- Node2 -->
<g id="Node000002" class="node">
<title>Node2</title>
<g id="a_Node000002"><a xlink:href="classhelios_1_1rendering_1_1RenderTarget.html#a33affb07801058a9950c0daba6e0aeaf" target="_top" xlink:title="Constructs a RenderTarget with an initial viewport and dimensions.">
<polygon fill="white" stroke="#666666" points="152,-78 0,-78 0,-48 152,-48 152,-78"/>
<text text-anchor="start" x="8" y="-66" font-family="Helvetica,sans-Serif" font-size="10.00">helios::rendering::</text>
<text text-anchor="middle" x="76" y="-55" font-family="Helvetica,sans-Serif" font-size="10.00">RenderTarget::RenderTarget</text>
</a>
</g>
</g>
<!-- Node1&#45;&gt;Node2 -->
<g id="edge1_Node000001_Node000002" class="edge">
<title>Node1&#45;&gt;Node2</title>
<g id="a_edge1_Node000001_Node000002"><a xlink:title=" ">
<path fill="none" stroke="#63b8ff" d="M177.81,-48.51C169.4,-49.72 160.75,-50.96 152.21,-52.19"/>
<polygon fill="#63b8ff" stroke="#63b8ff" points="178.53,-51.95 187.93,-47.06 177.53,-45.02 178.53,-51.95"/>
</a>
</g>
</g>
<!-- Node3 -->
<g id="Node000003" class="node">
<title>Node3</title>
<g id="a_Node000003"><a xlink:href="classhelios_1_1rendering_1_1RenderTarget.html#a65cfc3bea57ac3b5eb398c85754dc049" target="_top" xlink:title="Resizes this RenderTarget to the specified dimensions and propagates the change to every viewport.">
<polygon fill="white" stroke="#666666" points="137,-30 15,-30 15,0 137,0 137,-30"/>
<text text-anchor="start" x="23" y="-18" font-family="Helvetica,sans-Serif" font-size="10.00">helios::rendering::</text>
<text text-anchor="middle" x="76" y="-7" font-family="Helvetica,sans-Serif" font-size="10.00">RenderTarget::setSize</text>
</a>
</g>
</g>
<!-- Node1&#45;&gt;Node3 -->
<g id="edge2_Node000001_Node000003" class="edge">
<title>Node1&#45;&gt;Node3</title>
<g id="a_edge2_Node000001_Node000003"><a xlink:title=" ">
<path fill="none" stroke="#63b8ff" d="M177.83,-29.49C164.43,-27.56 150.4,-25.55 137.22,-23.65"/>
<polygon fill="#63b8ff" stroke="#63b8ff" points="177.53,-32.98 187.93,-30.94 178.53,-26.05 177.53,-32.98"/>
</a>
</g>
</g>
</g>
</svg>
