<?xml version="1.0" encoding="UTF-8" standalone="no"?>
<!DOCTYPE svg PUBLIC "-//W3C//DTD SVG 1.1//EN"
 "http://www.w3.org/Graphics/SVG/1.1/DTD/svg11.dtd">
<!-- Generated by graphviz version 2.43.0 (0)
 -->
<!-- Title: helios::rendering::model::Material::shader Pages: 1 -->
<svg width="341pt" height="116pt"
 viewBox="0.00 0.00 341.00 115.50" xmlns="http://www.w3.org/2000/svg" xmlns:xlink="http://www.w3.org/1999/xlink">

<svg id="main" version="1.1" xmlns="http://www.w3.org/2000/svg" xmlns:xlink="http://www.w3.org/1999/xlink" xml:space="preserve">

<style type="text/css"><![CDATA[
.node, .edge {opacity: 0.7;}
.node.selected, .edge.selected {opacity: 1;}
.edge:hover path { stroke: red; }
.edge:hover polygon { stroke: red; fill: red; }
]]></style>
<script type="application/ecmascript" xlink:href="svg.min.js"/>
<svg id="graph" class="graph">
<g id="graph0" class="graph" transform="scale(1 1) rotate(0) translate(4 111.5)">
<title>helios::rendering::model::Material::shader</title>
<!-- Node1 -->
<g id="Node000001" class="node">
<title>Node1</title>
<g id="a_Node000001"><a xlink:title="Returns a const ref to the shader used by this instance.">
<polygon fill="#999999" stroke="#666666" points="333,-71.5 200,-71.5 200,-41.5 333,-41.5 333,-71.5"/>
<text text-anchor="start" x="208" y="-59.5" font-family="Helvetica,sans-Serif" font-size="10.00">helios::rendering::</text>
<text text-anchor="middle" x="266.5" y="-48.5" font-family="Helvetica,sans-Serif" font-size="10.00">model::Material::shader</text>
</a>
</g>
</g>
<!-- Node1&#45;&gt;Node1 -->
<g id="edge2_Node000001_Node000001" class="edge">
<title>Node1&#45;&gt;Node1</title>
<g id="a_edge2_Node000001_Node000001"><a xlink:title=" ">
<path fill="none" stroke="#63b8ff" d="M298.71,-82.1C294.31,-86.47 283.57,-89.5 266.5,-89.5 237.75,-89.5 226.97,-80.91 234.16,-71.78"/>
<polygon fill="#63b8ff" stroke="#63b8ff" points="302.21,-81.82 298.84,-71.78 295.21,-81.73 302.21,-81.82"/>
</a>
</g>
</g>
<!-- Node2 -->
<g id="Node000002" class="node">
<title>Node2</title>
<g id="a_Node000002"><a xlink:href="classhelios_1_1rendering_1_1model_1_1Material.html#a23481bde5a56c1d2d4a9c8bca57bc7a1" target="_top" xlink:title="Creates a new Material.">
<polygon fill="white" stroke="#666666" points="152,-107.5 12,-107.5 12,-77.5 152,-77.5 152,-107.5"/>
<text text-anchor="start" x="20" y="-95.5" font-family="Helvetica,sans-Serif" font-size="10.00">helios::rendering::</text>
<text text-anchor="middle" x="82" y="-84.5" font-family="Helvetica,sans-Serif" font-size="10.00">model::Material::Material</text>
</a>
</g>
</g>
<!-- Node1&#45;&gt;Node2 -->
<g id="edge1_Node000001_Node000002" class="edge">
<title>Node1&#45;&gt;Node2</title>
<g id="a_edge1_Node000001_Node000002"><a xlink:title=" ">
<path fill="none" stroke="#63b8ff" d="M189.92,-71.41C177.37,-73.88 164.42,-76.44 152.05,-78.88"/>
<polygon fill="#63b8ff" stroke="#63b8ff" points="190.74,-74.82 199.87,-69.45 189.38,-67.95 190.74,-74.82"/>
</a>
</g>
</g>
<!-- Node3 -->
<g id="Node000003" class="node">
<title>Node3</title>
<g id="a_Node000003"><a xlink:href="classhelios_1_1rendering_1_1model_1_1Material.html#a3bd2e09ddc59bfc501a889079bc865b6" target="_top" xlink:title="Writes this Material&#39;s uniform values into the given map.">
<polygon fill="white" stroke="#666666" points="164,-41 0,-41 0,0 164,0 164,-41"/>
<text text-anchor="start" x="8" y="-29" font-family="Helvetica,sans-Serif" font-size="10.00">helios::rendering::</text>
<text text-anchor="start" x="8" y="-18" font-family="Helvetica,sans-Serif" font-size="10.00">model::Material::writeUniform</text>
<text text-anchor="middle" x="82" y="-7" font-family="Helvetica,sans-Serif" font-size="10.00">Values</text>
</a>
</g>
</g>
<!-- Node1&#45;&gt;Node3 -->
<g id="edge3_Node000001_Node000003" class="edge">
<title>Node1&#45;&gt;Node3</title>
<g id="a_edge3_Node000001_Node000003"><a xlink:title=" ">
<path fill="none" stroke="#63b8ff" d="M190.01,-41.61C181.51,-39.93 172.83,-38.22 164.27,-36.53"/>
<polygon fill="#63b8ff" stroke="#63b8ff" points="189.38,-45.05 199.87,-43.55 190.74,-38.18 189.38,-45.05"/>
</a>
</g>
</g>
<!-- Node3&#45;&gt;Node3 -->
<g id="edge4_Node000003_Node000003" class="edge">
<title>Node3&#45;&gt;Node3</title>
<g id="a_edge4_Node000003_Node000003"><a xlink:title=" ">
<path fill="none" stroke="#63b8ff" d="M113.66,-50.96C108.95,-55.74 98.4,-59 82,-59 55.77,-59 44.49,-50.65 48.18,-41.1"/>
<polygon fill="#63b8ff" stroke="#63b8ff" points="117.1,-51.61 115.82,-41.1 110.26,-50.12 117.1,-51.61"/>
</a>
</g>
</g>
</g>
</svg>
</svg>

<style type='text/css'>
<![CDATA[
[data-mouse-over-selected='false'] { opacity: 0.7; }
[data-mouse-over-selected='true']  { opacity: 1.0; }
]]>
</style>
<script type="application/ecmascript"><![CDATA[
document.addEventListener('DOMContentLoaded', (event) => {
  highlightEdges();
  highlightAdjacentNodes();
});
]]></script>
</svg>
