<?xml version="1.0" encoding="UTF-8" standalone="no"?>
<!DOCTYPE svg PUBLIC "-//W3C//DTD SVG 1.1//EN"
 "http://www.w3.org/Graphics/SVG/1.1/DTD/svg11.dtd">
<!-- Generated by graphviz version 2.43.0 (0)
 -->
<!-- Title: helios::engine::game::components::gameplay::ShootComponent::onAttach Pages: 1 -->
<svg width="508pt" height="65pt"
 viewBox="0.00 0.00 508.00 64.50" xmlns="http://www.w3.org/2000/svg" xmlns:xlink="http://www.w3.org/1999/xlink">
<g id="graph0" class="graph" transform="scale(1 1) rotate(0) translate(4 60.5)">
<title>helios::engine::game::components::gameplay::ShootComponent::onAttach</title>
<!-- Node1 -->
<g id="Node000001" class="node">
<title>Node1</title>
<g id="a_Node000001"><a xlink:title="Called when the component is attached to a GameObject.">
<polygon fill="#999999" stroke="#666666" points="156,-56.5 0,-56.5 0,-15.5 156,-15.5 156,-56.5"/>
<text text-anchor="start" x="8" y="-44.5" font-family="Helvetica,sans-Serif" font-size="10.00">helios::engine::game</text>
<text text-anchor="start" x="8" y="-33.5" font-family="Helvetica,sans-Serif" font-size="10.00">::components::gameplay</text>
<text text-anchor="middle" x="78" y="-22.5" font-family="Helvetica,sans-Serif" font-size="10.00">::ShootComponent::onAttach</text>
</a>
</g>
</g>
<!-- Node2 -->
<g id="Node000002" class="node">
<title>Node2</title>
<g id="a_Node000002"><a xlink:href="classhelios_1_1engine_1_1game_1_1Component.html#a0894e93b95d6d0b71602b8803d2cc213" target="_top" xlink:title="Returns the owning GameObject.">
<polygon fill="white" stroke="#666666" points="500,-51 356,-51 356,-21 500,-21 500,-51"/>
<text text-anchor="start" x="364" y="-39" font-family="Helvetica,sans-Serif" font-size="10.00">helios::engine::game</text>
<text text-anchor="middle" x="428" y="-28" font-family="Helvetica,sans-Serif" font-size="10.00">::Component::gameObject</text>
</a>
</g>
</g>
<!-- Node1&#45;&gt;Node2 -->
<g id="edge1_Node000001_Node000002" class="edge">
<title>Node1&#45;&gt;Node2</title>
<g id="a_edge1_Node000001_Node000002"><a xlink:title=" ">
<path fill="none" stroke="#63b8ff" d="M156.19,-38.32C168.18,-38.6 180.42,-38.85 192,-39 248.88,-39.75 263.12,-39.8 320,-39 328.35,-38.88 337.06,-38.71 345.75,-38.52"/>
<polygon fill="#63b8ff" stroke="#63b8ff" points="346.01,-42.01 355.92,-38.27 345.84,-35.01 346.01,-42.01"/>
</a>
</g>
</g>
<!-- Node3 -->
<g id="Node000003" class="node">
<title>Node3</title>
<g id="a_Node000003"><a xlink:href="classhelios_1_1engine_1_1game_1_1Component.html#a3a4f0b840b179c07299fc291a57fb51f" target="_top" xlink:title="Called when the component is attached to a GameObject.">
<polygon fill="white" stroke="#666666" points="320,-30 192,-30 192,0 320,0 320,-30"/>
<text text-anchor="start" x="200" y="-18" font-family="Helvetica,sans-Serif" font-size="10.00">helios::engine::game</text>
<text text-anchor="middle" x="256" y="-7" font-family="Helvetica,sans-Serif" font-size="10.00">::Component::onAttach</text>
</a>
</g>
</g>
<!-- Node1&#45;&gt;Node3 -->
<g id="edge2_Node000001_Node000003" class="edge">
<title>Node1&#45;&gt;Node3</title>
<g id="a_edge2_Node000001_Node000003"><a xlink:title=" ">
<path fill="none" stroke="#63b8ff" d="M156.2,-26.79C164.67,-25.78 173.27,-24.75 181.69,-23.75"/>
<polygon fill="#63b8ff" stroke="#63b8ff" points="182.34,-27.19 191.85,-22.53 181.51,-20.24 182.34,-27.19"/>
</a>
</g>
</g>
<!-- Node3&#45;&gt;Node2 -->
<g id="edge3_Node000003_Node000002" class="edge">
<title>Node3&#45;&gt;Node2</title>
<g id="a_edge3_Node000003_Node000002"><a xlink:title=" ">
<path fill="none" stroke="#63b8ff" d="M320.3,-22.82C328.65,-23.85 337.29,-24.92 345.88,-25.98"/>
<polygon fill="#63b8ff" stroke="#63b8ff" points="345.57,-29.47 355.92,-27.22 346.43,-22.52 345.57,-29.47"/>
</a>
</g>
</g>
</g>
</svg>
