<?xml version="1.0" encoding="UTF-8" standalone="no"?>
<!DOCTYPE svg PUBLIC "-//W3C//DTD SVG 1.1//EN"
 "http://www.w3.org/Graphics/SVG/1.1/DTD/svg11.dtd">
<!-- Generated by graphviz version 2.43.0 (0)
 -->
<!-- Title: helios::rendering::RenderCommand::renderPrototype Pages: 1 -->
<svg width="422pt" height="56pt"
 viewBox="0.00 0.00 422.00 56.00" xmlns="http://www.w3.org/2000/svg" xmlns:xlink="http://www.w3.org/1999/xlink">
<g id="graph0" class="graph" transform="scale(1 1) rotate(0) translate(4 52)">
<title>helios::rendering::RenderCommand::renderPrototype</title>
<!-- Node1 -->
<g id="Node000001" class="node">
<title>Node1</title>
<g id="a_Node000001"><a xlink:title="Returns a weak ptr to the RenderPrototype associated with this command. Use `renderPrototype....">
<polygon fill="#999999" stroke="#666666" points="414,-30 228,-30 228,0 414,0 414,-30"/>
<text text-anchor="start" x="236" y="-18" font-family="Helvetica,sans-Serif" font-size="10.00">helios::rendering::</text>
<text text-anchor="middle" x="321" y="-7" font-family="Helvetica,sans-Serif" font-size="10.00">RenderCommand::renderPrototype</text>
</a>
</g>
</g>
<!-- Node1&#45;&gt;Node1 -->
<g id="edge2_Node000001_Node000001" class="edge">
<title>Node1&#45;&gt;Node1</title>
<g id="a_edge2_Node000001_Node000001"><a xlink:title=" ">
<path fill="none" stroke="#63b8ff" d="M360.21,-40.6C354.85,-44.97 341.78,-48 321,-48 286,-48 272.88,-39.41 281.62,-30.28"/>
<polygon fill="#63b8ff" stroke="#63b8ff" points="363.71,-40.33 360.38,-30.28 356.71,-40.22 363.71,-40.33"/>
</a>
</g>
</g>
<!-- Node2 -->
<g id="Node000002" class="node">
<title>Node2</title>
<g id="a_Node000002"><a xlink:href="classhelios_1_1rendering_1_1RenderCommand.html#a964f958022fd5794082c60552a7ad946" target="_top" xlink:title="Constructs a new `RenderCommand`. Initializes this `RenderCommand` with weak pointers to the shader a...">
<polygon fill="white" stroke="#666666" points="192,-30 0,-30 0,0 192,0 192,-30"/>
<text text-anchor="start" x="8" y="-18" font-family="Helvetica,sans-Serif" font-size="10.00">helios::rendering::</text>
<text text-anchor="middle" x="96" y="-7" font-family="Helvetica,sans-Serif" font-size="10.00">RenderCommand::RenderCommand</text>
</a>
</g>
</g>
<!-- Node1&#45;&gt;Node2 -->
<g id="edge1_Node000001_Node000002" class="edge">
<title>Node1&#45;&gt;Node2</title>
<g id="a_edge1_Node000001_Node000002"><a xlink:title=" ">
<path fill="none" stroke="#63b8ff" d="M217.44,-15C209.01,-15 200.5,-15 192.12,-15"/>
<polygon fill="#63b8ff" stroke="#63b8ff" points="217.69,-18.5 227.69,-15 217.69,-11.5 217.69,-18.5"/>
</a>
</g>
</g>
</g>
</svg>
