<?xml version="1.0" encoding="UTF-8" standalone="no"?>
<!DOCTYPE svg PUBLIC "-//W3C//DTD SVG 1.1//EN"
 "http://www.w3.org/Graphics/SVG/1.1/DTD/svg11.dtd">
<!-- Generated by graphviz version 2.43.0 (0)
 -->
<!-- Title: helios::scene::Camera::setPerspective Pages: 1 -->
<svg width="294pt" height="302pt"
 viewBox="0.00 0.00 294.00 302.00" xmlns="http://www.w3.org/2000/svg" xmlns:xlink="http://www.w3.org/1999/xlink">

<svg id="main" version="1.1" xmlns="http://www.w3.org/2000/svg" xmlns:xlink="http://www.w3.org/1999/xlink" xml:space="preserve">

<style type="text/css"><![CDATA[
.node, .edge {opacity: 0.7;}
.node.selected, .edge.selected {opacity: 1;}
.edge:hover path { stroke: red; }
.edge:hover polygon { stroke: red; fill: red; }
]]></style>
<script type="application/ecmascript" xlink:href="svg.min.js"/>
<svg id="graph" class="graph">
<g id="graph0" class="graph" transform="scale(1 1) rotate(0) translate(4 298)">
<title>helios::scene::Camera::setPerspective</title>
<!-- Node1 -->
<g id="Node000001" class="node">
<title>Node1</title>
<g id="a_Node000001"><a xlink:title="Sets the perspective projection parameters.">
<polygon fill="#999999" stroke="#666666" points="125,-162 0,-162 0,-132 125,-132 125,-162"/>
<text text-anchor="start" x="8" y="-150" font-family="Helvetica,sans-Serif" font-size="10.00">helios::scene::Camera</text>
<text text-anchor="middle" x="62.5" y="-139" font-family="Helvetica,sans-Serif" font-size="10.00">::setPerspective</text>
</a>
</g>
</g>
<!-- Node1&#45;&gt;Node1 -->
<g id="edge6_Node000001_Node000001" class="edge">
<title>Node1&#45;&gt;Node1</title>
<g id="a_edge6_Node000001_Node000001"><a xlink:title=" ">
<path fill="none" stroke="#63b8ff" d="M34.38,-162.28C28.12,-171.41 37.5,-180 62.5,-180 77.34,-180 86.68,-176.97 90.51,-172.6"/>
<polygon fill="#63b8ff" stroke="#63b8ff" points="94.01,-172.32 90.62,-162.28 87.01,-172.23 94.01,-172.32"/>
</a>
</g>
</g>
<!-- Node2 -->
<g id="Node000002" class="node">
<title>Node2</title>
<g id="a_Node000002"><a xlink:href="classhelios_1_1scene_1_1Camera.html#a949e8c04f22ca2a1ace596e6e859bee3" target="_top" xlink:title="Gets the current aspect ratio.">
<polygon fill="white" stroke="#666666" points="286,-276 161,-276 161,-246 286,-246 286,-276"/>
<text text-anchor="start" x="169" y="-264" font-family="Helvetica,sans-Serif" font-size="10.00">helios::scene::Camera</text>
<text text-anchor="middle" x="223.5" y="-253" font-family="Helvetica,sans-Serif" font-size="10.00">::aspectRatio</text>
</a>
</g>
</g>
<!-- Node1&#45;&gt;Node2 -->
<g id="edge1_Node000001_Node000002" class="edge">
<title>Node1&#45;&gt;Node2</title>
<g id="a_edge1_Node000001_Node000002"><a xlink:title=" ">
<path fill="none" stroke="#63b8ff" d="M76.64,-162.25C94.18,-181.81 127.01,-215.75 161,-237 163.46,-238.54 166.03,-240.01 168.68,-241.4"/>
<polygon fill="#63b8ff" stroke="#63b8ff" points="167.33,-244.64 177.86,-245.88 170.4,-238.35 167.33,-244.64"/>
</a>
</g>
</g>
<!-- Node3 -->
<g id="Node000003" class="node">
<title>Node3</title>
<g id="a_Node000003"><a xlink:href="classhelios_1_1scene_1_1Camera.html#a6d1911bccc03c847625153d58cc49e99" target="_top" xlink:title="Constructs a camera with identity projection and view matrices.">
<polygon fill="white" stroke="#666666" points="286,-228 161,-228 161,-198 286,-198 286,-228"/>
<text text-anchor="start" x="169" y="-216" font-family="Helvetica,sans-Serif" font-size="10.00">helios::scene::Camera</text>
<text text-anchor="middle" x="223.5" y="-205" font-family="Helvetica,sans-Serif" font-size="10.00">::Camera</text>
</a>
</g>
</g>
<!-- Node1&#45;&gt;Node3 -->
<g id="edge3_Node000001_Node000003" class="edge">
<title>Node1&#45;&gt;Node3</title>
<g id="a_edge3_Node000001_Node000003"><a xlink:title=" ">
<path fill="none" stroke="#63b8ff" d="M97.67,-162.06C116.32,-170.2 139.86,-180.32 161,-189 165.17,-190.71 169.51,-192.46 173.86,-194.2"/>
<polygon fill="#63b8ff" stroke="#63b8ff" points="172.79,-197.54 183.38,-197.97 175.37,-191.03 172.79,-197.54"/>
</a>
</g>
</g>
<!-- Node4 -->
<g id="Node000004" class="node">
<title>Node4</title>
<g id="a_Node000004"><a xlink:href="classhelios_1_1scene_1_1Camera.html#a70b386e4c1f91bd4cca152d5efb4ed76" target="_top" xlink:title="Gets the current vertical field of view.">
<polygon fill="white" stroke="#666666" points="286,-162 161,-162 161,-132 286,-132 286,-162"/>
<text text-anchor="start" x="169" y="-150" font-family="Helvetica,sans-Serif" font-size="10.00">helios::scene::Camera</text>
<text text-anchor="middle" x="223.5" y="-139" font-family="Helvetica,sans-Serif" font-size="10.00">::fovY</text>
</a>
</g>
</g>
<!-- Node1&#45;&gt;Node4 -->
<g id="edge4_Node000001_Node000004" class="edge">
<title>Node1&#45;&gt;Node4</title>
<g id="a_edge4_Node000001_Node000004"><a xlink:title=" ">
<path fill="none" stroke="#63b8ff" d="M125.43,-147C133.67,-147 142.18,-147 150.58,-147"/>
<polygon fill="#63b8ff" stroke="#63b8ff" points="150.74,-150.5 160.74,-147 150.74,-143.5 150.74,-150.5"/>
</a>
</g>
</g>
<!-- Node5 -->
<g id="Node000005" class="node">
<title>Node5</title>
<g id="a_Node000005"><a xlink:href="classhelios_1_1scene_1_1Camera.html#ab6f32b1cf60371dfa764adfb13d4141e" target="_top" xlink:title="Gets the current far clipping plane distance.">
<polygon fill="white" stroke="#666666" points="286,-96 161,-96 161,-66 286,-66 286,-96"/>
<text text-anchor="start" x="169" y="-84" font-family="Helvetica,sans-Serif" font-size="10.00">helios::scene::Camera</text>
<text text-anchor="middle" x="223.5" y="-73" font-family="Helvetica,sans-Serif" font-size="10.00">::zFar</text>
</a>
</g>
</g>
<!-- Node1&#45;&gt;Node5 -->
<g id="edge7_Node000001_Node000005" class="edge">
<title>Node1&#45;&gt;Node5</title>
<g id="a_edge7_Node000001_Node000005"><a xlink:title=" ">
<path fill="none" stroke="#63b8ff" d="M99.98,-131.86C122.8,-122.38 152.4,-110.1 176.78,-99.98"/>
<polygon fill="#63b8ff" stroke="#63b8ff" points="178.3,-103.14 186.19,-96.07 175.61,-96.67 178.3,-103.14"/>
</a>
</g>
</g>
<!-- Node6 -->
<g id="Node000006" class="node">
<title>Node6</title>
<g id="a_Node000006"><a xlink:href="classhelios_1_1scene_1_1Camera.html#a11e3916a50eb417e8924ccea8fee56cd" target="_top" xlink:title="Gets the current near clipping plane distance.">
<polygon fill="white" stroke="#666666" points="286,-30 161,-30 161,0 286,0 286,-30"/>
<text text-anchor="start" x="169" y="-18" font-family="Helvetica,sans-Serif" font-size="10.00">helios::scene::Camera</text>
<text text-anchor="middle" x="223.5" y="-7" font-family="Helvetica,sans-Serif" font-size="10.00">::zNear</text>
</a>
</g>
</g>
<!-- Node1&#45;&gt;Node6 -->
<g id="edge9_Node000001_Node000006" class="edge">
<title>Node1&#45;&gt;Node6</title>
<g id="a_edge9_Node000001_Node000006"><a xlink:title=" ">
<path fill="none" stroke="#63b8ff" d="M78.42,-131.94C97.03,-113.45 130.18,-81.53 161,-57 170.14,-49.73 180.49,-42.35 190.05,-35.86"/>
<polygon fill="#63b8ff" stroke="#63b8ff" points="192.19,-38.64 198.56,-30.17 188.3,-32.82 192.19,-38.64"/>
</a>
</g>
</g>
<!-- Node2&#45;&gt;Node2 -->
<g id="edge2_Node000002_Node000002" class="edge">
<title>Node2&#45;&gt;Node2</title>
<g id="a_edge2_Node000002_Node000002"><a xlink:title=" ">
<path fill="none" stroke="#63b8ff" d="M195.38,-276.28C189.12,-285.41 198.5,-294 223.5,-294 238.34,-294 247.68,-290.97 251.51,-286.6"/>
<polygon fill="#63b8ff" stroke="#63b8ff" points="255.01,-286.32 251.62,-276.28 248.01,-286.23 255.01,-286.32"/>
</a>
</g>
</g>
<!-- Node4&#45;&gt;Node4 -->
<g id="edge5_Node000004_Node000004" class="edge">
<title>Node4&#45;&gt;Node4</title>
<g id="a_edge5_Node000004_Node000004"><a xlink:title=" ">
<path fill="none" stroke="#63b8ff" d="M195.38,-162.28C189.12,-171.41 198.5,-180 223.5,-180 238.34,-180 247.68,-176.97 251.51,-172.6"/>
<polygon fill="#63b8ff" stroke="#63b8ff" points="255.01,-172.32 251.62,-162.28 248.01,-172.23 255.01,-172.32"/>
</a>
</g>
</g>
<!-- Node5&#45;&gt;Node5 -->
<g id="edge8_Node000005_Node000005" class="edge">
<title>Node5&#45;&gt;Node5</title>
<g id="a_edge8_Node000005_Node000005"><a xlink:title=" ">
<path fill="none" stroke="#63b8ff" d="M195.38,-96.28C189.12,-105.41 198.5,-114 223.5,-114 238.34,-114 247.68,-110.97 251.51,-106.6"/>
<polygon fill="#63b8ff" stroke="#63b8ff" points="255.01,-106.32 251.62,-96.28 248.01,-106.23 255.01,-106.32"/>
</a>
</g>
</g>
<!-- Node6&#45;&gt;Node6 -->
<g id="edge10_Node000006_Node000006" class="edge">
<title>Node6&#45;&gt;Node6</title>
<g id="a_edge10_Node000006_Node000006"><a xlink:title=" ">
<path fill="none" stroke="#63b8ff" d="M195.38,-30.28C189.12,-39.41 198.5,-48 223.5,-48 238.34,-48 247.68,-44.97 251.51,-40.6"/>
<polygon fill="#63b8ff" stroke="#63b8ff" points="255.01,-40.32 251.62,-30.28 248.01,-40.23 255.01,-40.32"/>
</a>
</g>
</g>
</g>
</svg>
</svg>

<style type='text/css'>
<![CDATA[
[data-mouse-over-selected='false'] { opacity: 0.7; }
[data-mouse-over-selected='true']  { opacity: 1.0; }
]]>
</style>
<script type="application/ecmascript"><![CDATA[
document.addEventListener('DOMContentLoaded', (event) => {
  highlightEdges();
  highlightAdjacentNodes();
});
]]></script>
</svg>
