<?xml version="1.0" encoding="UTF-8" standalone="no"?>
<!DOCTYPE svg PUBLIC "-//W3C//DTD SVG 1.1//EN"
 "http://www.w3.org/Graphics/SVG/1.1/DTD/svg11.dtd">
<!-- Generated by graphviz version 2.43.0 (0)
 -->
<!-- Title: helios::engine::game::Level::setBounds Pages: 1 -->
<svg width="421pt" height="182pt"
 viewBox="0.00 0.00 421.00 182.00" xmlns="http://www.w3.org/2000/svg" xmlns:xlink="http://www.w3.org/1999/xlink">

<svg id="main" version="1.1" xmlns="http://www.w3.org/2000/svg" xmlns:xlink="http://www.w3.org/1999/xlink" xml:space="preserve">

<style type="text/css"><![CDATA[
.node, .edge {opacity: 0.7;}
.node.selected, .edge.selected {opacity: 1;}
.edge:hover path { stroke: red; }
.edge:hover polygon { stroke: red; fill: red; }
]]></style>
<script type="application/ecmascript" xlink:href="svg.min.js"/>
<svg id="graph" class="graph">
<g id="graph0" class="graph" transform="scale(1 1) rotate(0) translate(4 178)">
<title>helios::engine::game::Level::setBounds</title>
<!-- Node1 -->
<g id="Node000001" class="node">
<title>Node1</title>
<g id="a_Node000001"><a xlink:title="Sets the spatial boundaries of the level.">
<polygon fill="#999999" stroke="#666666" points="119,-126 0,-126 0,-96 119,-96 119,-126"/>
<text text-anchor="start" x="8" y="-114" font-family="Helvetica,sans-Serif" font-size="10.00">helios::engine::game</text>
<text text-anchor="middle" x="59.5" y="-103" font-family="Helvetica,sans-Serif" font-size="10.00">::Level::setBounds</text>
</a>
</g>
</g>
<!-- Node2 -->
<g id="Node000002" class="node">
<title>Node2</title>
<g id="a_Node000002"><a xlink:href="classhelios_1_1engine_1_1game_1_1Level.html#a040737104ff14df58baf3861e95838c7" target="_top" xlink:title="Retrieves the level boundaries in engine units (meters).">
<polygon fill="white" stroke="#666666" points="274,-150 155,-150 155,-120 274,-120 274,-150"/>
<text text-anchor="start" x="163" y="-138" font-family="Helvetica,sans-Serif" font-size="10.00">helios::engine::game</text>
<text text-anchor="middle" x="214.5" y="-127" font-family="Helvetica,sans-Serif" font-size="10.00">::Level::bounds</text>
</a>
</g>
</g>
<!-- Node1&#45;&gt;Node2 -->
<g id="edge1_Node000001_Node000002" class="edge">
<title>Node1&#45;&gt;Node2</title>
<g id="a_edge1_Node000001_Node000002"><a xlink:title=" ">
<path fill="none" stroke="#63b8ff" d="M119.22,-120.21C127.64,-121.53 136.36,-122.9 144.95,-124.25"/>
<polygon fill="#63b8ff" stroke="#63b8ff" points="144.52,-127.72 154.94,-125.81 145.6,-120.81 144.52,-127.72"/>
</a>
</g>
</g>
<!-- Node3 -->
<g id="Node000003" class="node">
<title>Node3</title>
<g id="a_Node000003"><a xlink:href="namespacehelios_1_1core_1_1units.html#a9c75f83e0476f8560ef6b20129582381" target="_top" xlink:title="Converts a value from a given unit to helios units.">
<polygon fill="white" stroke="#666666" points="266,-102 163,-102 163,-72 266,-72 266,-102"/>
<text text-anchor="start" x="171" y="-90" font-family="Helvetica,sans-Serif" font-size="10.00">helios::core::units</text>
<text text-anchor="middle" x="214.5" y="-79" font-family="Helvetica,sans-Serif" font-size="10.00">::from</text>
</a>
</g>
</g>
<!-- Node1&#45;&gt;Node3 -->
<g id="edge2_Node000001_Node000003" class="edge">
<title>Node1&#45;&gt;Node3</title>
<g id="a_edge2_Node000001_Node000003"><a xlink:title=" ">
<path fill="none" stroke="#63b8ff" d="M119.22,-101.79C130.18,-100.07 141.67,-98.27 152.7,-96.54"/>
<polygon fill="#63b8ff" stroke="#63b8ff" points="153.34,-99.98 162.67,-94.97 152.25,-93.06 153.34,-99.98"/>
</a>
</g>
</g>
<!-- Node4 -->
<g id="Node000004" class="node">
<title>Node4</title>
<g id="a_Node000004"><a xlink:href="namespacehelios_1_1core_1_1units.html#a44a24afd27dff622a0f8fb7d5009122c" target="_top" xlink:title="Converts centimeters to meters.">
<polygon fill="white" stroke="#666666" points="413,-174 310,-174 310,-144 413,-144 413,-174"/>
<text text-anchor="start" x="318" y="-162" font-family="Helvetica,sans-Serif" font-size="10.00">helios::core::units</text>
<text text-anchor="middle" x="361.5" y="-151" font-family="Helvetica,sans-Serif" font-size="10.00">::fromCm</text>
</a>
</g>
</g>
<!-- Node3&#45;&gt;Node4 -->
<g id="edge3_Node000003_Node000004" class="edge">
<title>Node3&#45;&gt;Node4</title>
<g id="a_edge3_Node000003_Node000004"><a xlink:title=" ">
<path fill="none" stroke="#63b8ff" d="M255.33,-102.09C261.67,-104.85 268.09,-107.86 274,-111 290.98,-120.03 293.27,-125.51 310,-135 312.53,-136.44 315.17,-137.87 317.84,-139.27"/>
<polygon fill="#63b8ff" stroke="#63b8ff" points="316.51,-142.52 327.01,-143.92 319.68,-136.28 316.51,-142.52"/>
</a>
</g>
</g>
<!-- Node5 -->
<g id="Node000005" class="node">
<title>Node5</title>
<g id="a_Node000005"><a xlink:href="namespacehelios_1_1core_1_1units.html#a3e0dff14fa37b52f552758069814ae54" target="_top" xlink:title="Pass&#45;through helper for meter values.">
<polygon fill="white" stroke="#666666" points="413,-126 310,-126 310,-96 413,-96 413,-126"/>
<text text-anchor="start" x="318" y="-114" font-family="Helvetica,sans-Serif" font-size="10.00">helios::core::units</text>
<text text-anchor="middle" x="361.5" y="-103" font-family="Helvetica,sans-Serif" font-size="10.00">::fromM</text>
</a>
</g>
</g>
<!-- Node3&#45;&gt;Node5 -->
<g id="edge4_Node000003_Node000005" class="edge">
<title>Node3&#45;&gt;Node5</title>
<g id="a_edge4_Node000003_Node000005"><a xlink:title=" ">
<path fill="none" stroke="#63b8ff" d="M266.21,-95.39C276.97,-97.17 288.43,-99.07 299.52,-100.91"/>
<polygon fill="#63b8ff" stroke="#63b8ff" points="299.13,-104.39 309.57,-102.57 300.28,-97.48 299.13,-104.39"/>
</a>
</g>
</g>
<!-- Node6 -->
<g id="Node000006" class="node">
<title>Node6</title>
<g id="a_Node000006"><a xlink:href="namespacehelios_1_1core_1_1units.html#a08f92aa18e9437370fe364675a387c8f" target="_top" xlink:title="Converts milliseconds to seconds.">
<polygon fill="white" stroke="#666666" points="413,-78 310,-78 310,-48 413,-48 413,-78"/>
<text text-anchor="start" x="318" y="-66" font-family="Helvetica,sans-Serif" font-size="10.00">helios::core::units</text>
<text text-anchor="middle" x="361.5" y="-55" font-family="Helvetica,sans-Serif" font-size="10.00">::fromMs</text>
</a>
</g>
</g>
<!-- Node3&#45;&gt;Node6 -->
<g id="edge5_Node000003_Node000006" class="edge">
<title>Node3&#45;&gt;Node6</title>
<g id="a_edge5_Node000003_Node000006"><a xlink:title=" ">
<path fill="none" stroke="#63b8ff" d="M266.21,-78.61C276.97,-76.83 288.43,-74.93 299.52,-73.09"/>
<polygon fill="#63b8ff" stroke="#63b8ff" points="300.28,-76.52 309.57,-71.43 299.13,-69.61 300.28,-76.52"/>
</a>
</g>
</g>
<!-- Node7 -->
<g id="Node000007" class="node">
<title>Node7</title>
<g id="a_Node000007"><a xlink:href="namespacehelios_1_1core_1_1units.html#ae56929b63f135d167f9f10c1a1cef5d3" target="_top" xlink:title="Converts seconds to seconds (identity helper).">
<polygon fill="white" stroke="#666666" points="413,-30 310,-30 310,0 413,0 413,-30"/>
<text text-anchor="start" x="318" y="-18" font-family="Helvetica,sans-Serif" font-size="10.00">helios::core::units</text>
<text text-anchor="middle" x="361.5" y="-7" font-family="Helvetica,sans-Serif" font-size="10.00">::fromS</text>
</a>
</g>
</g>
<!-- Node3&#45;&gt;Node7 -->
<g id="edge6_Node000003_Node000007" class="edge">
<title>Node3&#45;&gt;Node7</title>
<g id="a_edge6_Node000003_Node000007"><a xlink:title=" ">
<path fill="none" stroke="#63b8ff" d="M244.77,-71.88C263.39,-62.33 288.04,-49.8 310,-39 312.96,-37.54 316.03,-36.05 319.12,-34.56"/>
<polygon fill="#63b8ff" stroke="#63b8ff" points="320.88,-37.59 328.38,-30.11 317.85,-31.28 320.88,-37.59"/>
</a>
</g>
</g>
</g>
</svg>
</svg>

<style type='text/css'>
<![CDATA[
[data-mouse-over-selected='false'] { opacity: 0.7; }
[data-mouse-over-selected='true']  { opacity: 1.0; }
]]>
</style>
<script type="application/ecmascript"><![CDATA[
document.addEventListener('DOMContentLoaded', (event) => {
  highlightEdges();
  highlightAdjacentNodes();
});
]]></script>
</svg>
