<?xml version="1.0" encoding="UTF-8" standalone="no"?>
<!DOCTYPE svg PUBLIC "-//W3C//DTD SVG 1.1//EN"
 "http://www.w3.org/Graphics/SVG/1.1/DTD/svg11.dtd">
<!-- Generated by graphviz version 2.43.0 (0)
 -->
<!-- Title: helios::engine::game::GameObject::setRotation Pages: 1 -->
<svg width="340pt" height="56pt"
 viewBox="0.00 0.00 340.00 56.00" xmlns="http://www.w3.org/2000/svg" xmlns:xlink="http://www.w3.org/1999/xlink">
<g id="graph0" class="graph" transform="scale(1 1) rotate(0) translate(4 52)">
<title>helios::engine::game::GameObject::setRotation</title>
<!-- Node1 -->
<g id="Node000001" class="node">
<title>Node1</title>
<g id="a_Node000001"><a xlink:title="Applies a rotation transformation to the GameObject.">
<polygon fill="#999999" stroke="#666666" points="146,-30 0,-30 0,0 146,0 146,-30"/>
<text text-anchor="start" x="8" y="-18" font-family="Helvetica,sans-Serif" font-size="10.00">helios::engine::game</text>
<text text-anchor="middle" x="73" y="-7" font-family="Helvetica,sans-Serif" font-size="10.00">::GameObject::setRotation</text>
</a>
</g>
</g>
<!-- Node1&#45;&gt;Node1 -->
<g id="edge2_Node000001_Node000001" class="edge">
<title>Node1&#45;&gt;Node1</title>
<g id="a_edge2_Node000001_Node000001"><a xlink:title=" ">
<path fill="none" stroke="#63b8ff" d="M40.66,-30.28C33.47,-39.41 44.25,-48 73,-48 90.07,-48 100.81,-44.97 105.21,-40.6"/>
<polygon fill="#63b8ff" stroke="#63b8ff" points="108.71,-40.32 105.34,-30.28 101.71,-40.23 108.71,-40.32"/>
</a>
</g>
</g>
<!-- Node2 -->
<g id="Node000002" class="node">
<title>Node2</title>
<g id="a_Node000002"><a xlink:href="classhelios_1_1engine_1_1game_1_1GameObject.html#ad2ffd483600955f8c93b905387d4e9dc" target="_top" xlink:title="Constructs a GameObject associated with a SceneNode.">
<polygon fill="white" stroke="#666666" points="332,-30 182,-30 182,0 332,0 332,-30"/>
<text text-anchor="start" x="190" y="-18" font-family="Helvetica,sans-Serif" font-size="10.00">helios::engine::game</text>
<text text-anchor="middle" x="257" y="-7" font-family="Helvetica,sans-Serif" font-size="10.00">::GameObject::GameObject</text>
</a>
</g>
</g>
<!-- Node1&#45;&gt;Node2 -->
<g id="edge1_Node000001_Node000002" class="edge">
<title>Node1&#45;&gt;Node2</title>
<g id="a_edge1_Node000001_Node000002"><a xlink:title=" ">
<path fill="none" stroke="#63b8ff" d="M146.19,-15C154.52,-15 163.06,-15 171.53,-15"/>
<polygon fill="#63b8ff" stroke="#63b8ff" points="171.81,-18.5 181.81,-15 171.81,-11.5 171.81,-18.5"/>
</a>
</g>
</g>
</g>
</svg>
