<?xml version="1.0" encoding="UTF-8" standalone="no"?>
<!DOCTYPE svg PUBLIC "-//W3C//DTD SVG 1.1//EN"
 "http://www.w3.org/Graphics/SVG/1.1/DTD/svg11.dtd">
<!-- Generated by graphviz version 2.43.0 (0)
 -->
<!-- Title: helios::ext::opengl::rendering::OpenGLRenderable::OpenGLRenderable Pages: 1 -->
<svg width="374pt" height="122pt"
 viewBox="0.00 0.00 374.00 122.00" xmlns="http://www.w3.org/2000/svg" xmlns:xlink="http://www.w3.org/1999/xlink">

<svg id="main" version="1.1" xmlns="http://www.w3.org/2000/svg" xmlns:xlink="http://www.w3.org/1999/xlink" xml:space="preserve">

<style type="text/css"><![CDATA[
.node, .edge {opacity: 0.7;}
.node.selected, .edge.selected {opacity: 1;}
.edge:hover path { stroke: red; }
.edge:hover polygon { stroke: red; fill: red; }
]]></style>
<script type="application/ecmascript" xlink:href="svg.min.js"/>
<svg id="graph" class="graph">
<g id="graph0" class="graph" transform="scale(1 1) rotate(0) translate(4 118)">
<title>helios::ext::opengl::rendering::OpenGLRenderable::OpenGLRenderable</title>
<!-- Node1 -->
<g id="Node000001" class="node">
<title>Node1</title>
<g id="a_Node000001"><a xlink:title=" ">
<polygon fill="#999999" stroke="#666666" points="169,-68.5 0,-68.5 0,-27.5 169,-27.5 169,-68.5"/>
<text text-anchor="start" x="8" y="-56.5" font-family="Helvetica,sans-Serif" font-size="10.00">helios::ext::opengl</text>
<text text-anchor="start" x="8" y="-45.5" font-family="Helvetica,sans-Serif" font-size="10.00">::rendering::OpenGLRenderable</text>
<text text-anchor="middle" x="84.5" y="-34.5" font-family="Helvetica,sans-Serif" font-size="10.00">::OpenGLRenderable</text>
</a>
</g>
</g>
<!-- Node2 -->
<g id="Node000002" class="node">
<title>Node2</title>
<g id="a_Node000002"><a xlink:href="classhelios_1_1rendering_1_1Renderable.html#a75aba581d21c509d9d14581e76b3f0ca" target="_top" xlink:title="Returns a const reference to the MaterialInstance associated with this Renderable.">
<polygon fill="white" stroke="#666666" points="366,-96 205,-96 205,-66 366,-66 366,-96"/>
<text text-anchor="start" x="213" y="-84" font-family="Helvetica,sans-Serif" font-size="10.00">helios::rendering::</text>
<text text-anchor="middle" x="285.5" y="-73" font-family="Helvetica,sans-Serif" font-size="10.00">Renderable::materialInstance</text>
</a>
</g>
</g>
<!-- Node1&#45;&gt;Node2 -->
<g id="edge1_Node000001_Node000002" class="edge">
<title>Node1&#45;&gt;Node2</title>
<g id="a_edge1_Node000001_Node000002"><a xlink:title=" ">
<path fill="none" stroke="#63b8ff" d="M169.03,-61.85C177.51,-63.26 186.16,-64.69 194.71,-66.11"/>
<polygon fill="#63b8ff" stroke="#63b8ff" points="194.25,-69.58 204.68,-67.76 195.39,-62.68 194.25,-69.58"/>
</a>
</g>
</g>
<!-- Node3 -->
<g id="Node000003" class="node">
<title>Node3</title>
<g id="a_Node000003"><a xlink:href="classhelios_1_1rendering_1_1Renderable.html#a7a7d54190d3e65ee8a933e0e6ef75dea" target="_top" xlink:title="Returns a shared ptr to the Mesh this Renderable uses. The returned shared_ptr references the underly...">
<polygon fill="white" stroke="#666666" points="338,-30 233,-30 233,0 338,0 338,-30"/>
<text text-anchor="start" x="241" y="-18" font-family="Helvetica,sans-Serif" font-size="10.00">helios::rendering::</text>
<text text-anchor="middle" x="285.5" y="-7" font-family="Helvetica,sans-Serif" font-size="10.00">Renderable::mesh</text>
</a>
</g>
</g>
<!-- Node1&#45;&gt;Node3 -->
<g id="edge3_Node000001_Node000003" class="edge">
<title>Node1&#45;&gt;Node3</title>
<g id="a_edge3_Node000001_Node000003"><a xlink:title=" ">
<path fill="none" stroke="#63b8ff" d="M169.03,-34.15C187,-31.17 205.68,-28.07 222.65,-25.26"/>
<polygon fill="#63b8ff" stroke="#63b8ff" points="223.68,-28.63 232.97,-23.54 222.53,-21.73 223.68,-28.63"/>
</a>
</g>
</g>
<!-- Node2&#45;&gt;Node2 -->
<g id="edge2_Node000002_Node000002" class="edge">
<title>Node2&#45;&gt;Node2</title>
<g id="a_edge2_Node000002_Node000002"><a xlink:title=" ">
<path fill="none" stroke="#63b8ff" d="M250.34,-96.28C242.53,-105.41 254.25,-114 285.5,-114 304.05,-114 315.72,-110.97 320.51,-106.6"/>
<polygon fill="#63b8ff" stroke="#63b8ff" points="324.01,-106.32 320.66,-96.28 317.01,-106.22 324.01,-106.32"/>
</a>
</g>
</g>
<!-- Node3&#45;&gt;Node3 -->
<g id="edge4_Node000003_Node000003" class="edge">
<title>Node3&#45;&gt;Node3</title>
<g id="a_edge4_Node000003_Node000003"><a xlink:title=" ">
<path fill="none" stroke="#63b8ff" d="M250.34,-30.28C242.53,-39.41 254.25,-48 285.5,-48 304.05,-48 315.72,-44.97 320.51,-40.6"/>
<polygon fill="#63b8ff" stroke="#63b8ff" points="324.01,-40.32 320.66,-30.28 317.01,-40.22 324.01,-40.32"/>
</a>
</g>
</g>
</g>
</svg>
</svg>

<style type='text/css'>
<![CDATA[
[data-mouse-over-selected='false'] { opacity: 0.7; }
[data-mouse-over-selected='true']  { opacity: 1.0; }
]]>
</style>
<script type="application/ecmascript"><![CDATA[
document.addEventListener('DOMContentLoaded', (event) => {
  highlightEdges();
  highlightAdjacentNodes();
});
]]></script>
</svg>
