<?xml version="1.0" encoding="UTF-8" standalone="no"?>
<!DOCTYPE svg PUBLIC "-//W3C//DTD SVG 1.1//EN"
 "http://www.w3.org/Graphics/SVG/1.1/DTD/svg11.dtd">
<!-- Generated by graphviz version 2.43.0 (0)
 -->
<!-- Title: helios::engine::game::systems::physics::ScaleSystem::update Pages: 1 -->
<svg width="462pt" height="182pt"
 viewBox="0.00 0.00 462.00 182.00" xmlns="http://www.w3.org/2000/svg" xmlns:xlink="http://www.w3.org/1999/xlink">

<svg id="main" version="1.1" xmlns="http://www.w3.org/2000/svg" xmlns:xlink="http://www.w3.org/1999/xlink" xml:space="preserve">

<style type="text/css"><![CDATA[
.node, .edge {opacity: 0.7;}
.node.selected, .edge.selected {opacity: 1;}
.edge:hover path { stroke: red; }
.edge:hover polygon { stroke: red; fill: red; }
]]></style>
<script type="application/ecmascript" xlink:href="svg.min.js"/>
<svg id="graph" class="graph">
<g id="graph0" class="graph" transform="scale(1 1) rotate(0) translate(4 178)">
<title>helios::engine::game::systems::physics::ScaleSystem::update</title>
<!-- Node1 -->
<g id="Node000001" class="node">
<title>Node1</title>
<g id="a_Node000001"><a xlink:title="Updates scale for all entities with dirty ScaleComponents.">
<polygon fill="#999999" stroke="#666666" points="176,-107.5 0,-107.5 0,-66.5 176,-66.5 176,-107.5"/>
<text text-anchor="start" x="8" y="-95.5" font-family="Helvetica,sans-Serif" font-size="10.00">helios::engine::game</text>
<text text-anchor="start" x="8" y="-84.5" font-family="Helvetica,sans-Serif" font-size="10.00">::systems::physics::ScaleSystem</text>
<text text-anchor="middle" x="88" y="-73.5" font-family="Helvetica,sans-Serif" font-size="10.00">::update</text>
</a>
</g>
</g>
<!-- Node2 -->
<g id="Node000002" class="node">
<title>Node2</title>
<g id="a_Node000002"><a xlink:href="namespacehelios_1_1core_1_1units.html#a9c75f83e0476f8560ef6b20129582381" target="_top" xlink:title="Converts a value from a given unit to helios units.">
<polygon fill="white" stroke="#666666" points="315,-102 212,-102 212,-72 315,-72 315,-102"/>
<text text-anchor="start" x="220" y="-90" font-family="Helvetica,sans-Serif" font-size="10.00">helios::core::units</text>
<text text-anchor="middle" x="263.5" y="-79" font-family="Helvetica,sans-Serif" font-size="10.00">::from</text>
</a>
</g>
</g>
<!-- Node1&#45;&gt;Node2 -->
<g id="edge1_Node000001_Node000002" class="edge">
<title>Node1&#45;&gt;Node2</title>
<g id="a_edge1_Node000001_Node000002"><a xlink:title=" ">
<path fill="none" stroke="#63b8ff" d="M176,-87C184.56,-87 193.12,-87 201.34,-87"/>
<polygon fill="#63b8ff" stroke="#63b8ff" points="201.55,-90.5 211.55,-87 201.55,-83.5 201.55,-90.5"/>
</a>
</g>
</g>
<!-- Node3 -->
<g id="Node000003" class="node">
<title>Node3</title>
<g id="a_Node000003"><a xlink:href="namespacehelios_1_1core_1_1units.html#a44a24afd27dff622a0f8fb7d5009122c" target="_top" xlink:title="Converts centimeters to meters.">
<polygon fill="white" stroke="#666666" points="454,-174 351,-174 351,-144 454,-144 454,-174"/>
<text text-anchor="start" x="359" y="-162" font-family="Helvetica,sans-Serif" font-size="10.00">helios::core::units</text>
<text text-anchor="middle" x="402.5" y="-151" font-family="Helvetica,sans-Serif" font-size="10.00">::fromCm</text>
</a>
</g>
</g>
<!-- Node2&#45;&gt;Node3 -->
<g id="edge2_Node000002_Node000003" class="edge">
<title>Node2&#45;&gt;Node3</title>
<g id="a_edge2_Node000002_Node000003"><a xlink:title=" ">
<path fill="none" stroke="#63b8ff" d="M290.77,-102.14C307.79,-111.81 330.54,-124.47 351,-135 353.89,-136.49 356.89,-138 359.92,-139.5"/>
<polygon fill="#63b8ff" stroke="#63b8ff" points="358.5,-142.7 369.02,-143.94 361.57,-136.41 358.5,-142.7"/>
</a>
</g>
</g>
<!-- Node4 -->
<g id="Node000004" class="node">
<title>Node4</title>
<g id="a_Node000004"><a xlink:href="namespacehelios_1_1core_1_1units.html#a3e0dff14fa37b52f552758069814ae54" target="_top" xlink:title="Pass&#45;through helper for meter values.">
<polygon fill="white" stroke="#666666" points="454,-126 351,-126 351,-96 454,-96 454,-126"/>
<text text-anchor="start" x="359" y="-114" font-family="Helvetica,sans-Serif" font-size="10.00">helios::core::units</text>
<text text-anchor="middle" x="402.5" y="-103" font-family="Helvetica,sans-Serif" font-size="10.00">::fromM</text>
</a>
</g>
</g>
<!-- Node2&#45;&gt;Node4 -->
<g id="edge3_Node000002_Node000004" class="edge">
<title>Node2&#45;&gt;Node4</title>
<g id="a_edge3_Node000002_Node000004"><a xlink:title=" ">
<path fill="none" stroke="#63b8ff" d="M315.12,-95.87C323.45,-97.33 332.16,-98.85 340.7,-100.35"/>
<polygon fill="#63b8ff" stroke="#63b8ff" points="340.17,-103.81 350.63,-102.09 341.38,-96.91 340.17,-103.81"/>
</a>
</g>
</g>
<!-- Node5 -->
<g id="Node000005" class="node">
<title>Node5</title>
<g id="a_Node000005"><a xlink:href="namespacehelios_1_1core_1_1units.html#a08f92aa18e9437370fe364675a387c8f" target="_top" xlink:title="Converts milliseconds to seconds.">
<polygon fill="white" stroke="#666666" points="454,-78 351,-78 351,-48 454,-48 454,-78"/>
<text text-anchor="start" x="359" y="-66" font-family="Helvetica,sans-Serif" font-size="10.00">helios::core::units</text>
<text text-anchor="middle" x="402.5" y="-55" font-family="Helvetica,sans-Serif" font-size="10.00">::fromMs</text>
</a>
</g>
</g>
<!-- Node2&#45;&gt;Node5 -->
<g id="edge4_Node000002_Node000005" class="edge">
<title>Node2&#45;&gt;Node5</title>
<g id="a_edge4_Node000002_Node000005"><a xlink:title=" ">
<path fill="none" stroke="#63b8ff" d="M315.12,-78.13C323.45,-76.67 332.16,-75.15 340.7,-73.65"/>
<polygon fill="#63b8ff" stroke="#63b8ff" points="341.38,-77.09 350.63,-71.91 340.17,-70.19 341.38,-77.09"/>
</a>
</g>
</g>
<!-- Node6 -->
<g id="Node000006" class="node">
<title>Node6</title>
<g id="a_Node000006"><a xlink:href="namespacehelios_1_1core_1_1units.html#ae56929b63f135d167f9f10c1a1cef5d3" target="_top" xlink:title="Converts seconds to seconds (identity helper).">
<polygon fill="white" stroke="#666666" points="454,-30 351,-30 351,0 454,0 454,-30"/>
<text text-anchor="start" x="359" y="-18" font-family="Helvetica,sans-Serif" font-size="10.00">helios::core::units</text>
<text text-anchor="middle" x="402.5" y="-7" font-family="Helvetica,sans-Serif" font-size="10.00">::fromS</text>
</a>
</g>
</g>
<!-- Node2&#45;&gt;Node6 -->
<g id="edge5_Node000002_Node000006" class="edge">
<title>Node2&#45;&gt;Node6</title>
<g id="a_edge5_Node000002_Node000006"><a xlink:title=" ">
<path fill="none" stroke="#63b8ff" d="M290.77,-71.86C307.79,-62.19 330.54,-49.53 351,-39 353.89,-37.51 356.89,-36 359.92,-34.5"/>
<polygon fill="#63b8ff" stroke="#63b8ff" points="361.57,-37.59 369.02,-30.06 358.5,-31.3 361.57,-37.59"/>
</a>
</g>
</g>
</g>
</svg>
</svg>

<style type='text/css'>
<![CDATA[
[data-mouse-over-selected='false'] { opacity: 0.7; }
[data-mouse-over-selected='true']  { opacity: 1.0; }
]]>
</style>
<script type="application/ecmascript"><![CDATA[
document.addEventListener('DOMContentLoaded', (event) => {
  highlightEdges();
  highlightAdjacentNodes();
});
]]></script>
</svg>
