<?xml version="1.0" encoding="UTF-8" standalone="no"?>
<!DOCTYPE svg PUBLIC "-//W3C//DTD SVG 1.1//EN"
 "http://www.w3.org/Graphics/SVG/1.1/DTD/svg11.dtd">
<!-- Generated by graphviz version 2.43.0 (0)
 -->
<!-- Title: helios::rendering::Viewport::Viewport Pages: 1 -->
<svg width="328pt" height="368pt"
 viewBox="0.00 0.00 328.00 368.00" xmlns="http://www.w3.org/2000/svg" xmlns:xlink="http://www.w3.org/1999/xlink">
<g id="graph0" class="graph" transform="scale(1 1) rotate(0) translate(4 364)">
<title>helios::rendering::Viewport::Viewport</title>
<!-- Node1 -->
<g id="Node000001" class="node">
<title>Node1</title>
<g id="a_Node000001"><a xlink:title="Constructs a Viewport with normalized bounds set to (0.0f, 0.0f, 1.0f, 1.0f) and z&#45;index 0.">
<polygon fill="#999999" stroke="#666666" points="320,-177 210,-177 210,-147 320,-147 320,-177"/>
<text text-anchor="start" x="218" y="-165" font-family="Helvetica,sans-Serif" font-size="10.00">helios::rendering::</text>
<text text-anchor="middle" x="265" y="-154" font-family="Helvetica,sans-Serif" font-size="10.00">Viewport::Viewport</text>
</a>
</g>
</g>
<!-- Node2 -->
<g id="Node000002" class="node">
<title>Node2</title>
<g id="a_Node000002"><a xlink:href="classhelios_1_1rendering_1_1Viewport.html#a692205c554a7491297b8005412ddcb7f" target="_top" xlink:title="Assigns a camera scene node to this viewport.">
<polygon fill="white" stroke="#666666" points="174,-342 0,-342 0,-312 174,-312 174,-342"/>
<text text-anchor="start" x="8" y="-330" font-family="Helvetica,sans-Serif" font-size="10.00">helios::rendering::</text>
<text text-anchor="middle" x="87" y="-319" font-family="Helvetica,sans-Serif" font-size="10.00">Viewport::setCameraSceneNode</text>
</a>
</g>
</g>
<!-- Node1&#45;&gt;Node2 -->
<g id="edge1_Node000001_Node000002" class="edge">
<title>Node1&#45;&gt;Node2</title>
<g id="a_edge1_Node000001_Node000002"><a xlink:title=" ">
<path fill="none" stroke="#63b8ff" d="M254.75,-186.79C241.64,-218.5 214.64,-272.9 174,-303 169.39,-306.41 164.32,-309.34 159.01,-311.85"/>
<polygon fill="#63b8ff" stroke="#63b8ff" points="258.06,-187.94 258.51,-177.35 251.56,-185.34 258.06,-187.94"/>
</a>
</g>
</g>
<!-- Node3 -->
<g id="Node000003" class="node">
<title>Node3</title>
<g id="a_Node000003"><a xlink:href="classhelios_1_1rendering_1_1Viewport.html#af94f8b0ec7697edea1c0cf843c03ad3d" target="_top" xlink:title="Specifies the RGBA values used when clearing color buffers.">
<polygon fill="white" stroke="#666666" points="153,-276 21,-276 21,-246 153,-246 153,-276"/>
<text text-anchor="start" x="29" y="-264" font-family="Helvetica,sans-Serif" font-size="10.00">helios::rendering::</text>
<text text-anchor="middle" x="87" y="-253" font-family="Helvetica,sans-Serif" font-size="10.00">Viewport::setClearColor</text>
</a>
</g>
</g>
<!-- Node1&#45;&gt;Node3 -->
<g id="edge3_Node000001_Node000003" class="edge">
<title>Node1&#45;&gt;Node3</title>
<g id="a_edge3_Node000001_Node000003"><a xlink:title=" ">
<path fill="none" stroke="#63b8ff" d="M242.58,-184.4C225.45,-201.11 200.08,-223.31 174,-237 167.41,-240.46 160.27,-243.46 153.02,-246.06"/>
<polygon fill="#63b8ff" stroke="#63b8ff" points="245.22,-186.71 249.83,-177.17 240.28,-181.75 245.22,-186.71"/>
</a>
</g>
</g>
<!-- Node4 -->
<g id="Node000004" class="node">
<title>Node4</title>
<g id="a_Node000004"><a xlink:href="classhelios_1_1rendering_1_1Viewport.html#a7199b3df8a9c5817eaa21173a9c6e434" target="_top" xlink:title="Sets the clear flags for this viewport.">
<polygon fill="white" stroke="#666666" points="153.5,-210 20.5,-210 20.5,-180 153.5,-180 153.5,-210"/>
<text text-anchor="start" x="28.5" y="-198" font-family="Helvetica,sans-Serif" font-size="10.00">helios::rendering::</text>
<text text-anchor="middle" x="87" y="-187" font-family="Helvetica,sans-Serif" font-size="10.00">Viewport::setClearFlags</text>
</a>
</g>
</g>
<!-- Node1&#45;&gt;Node4 -->
<g id="edge5_Node000001_Node000004" class="edge">
<title>Node1&#45;&gt;Node4</title>
<g id="a_edge5_Node000001_Node000004"><a xlink:title=" ">
<path fill="none" stroke="#63b8ff" d="M199.55,-174.08C184.55,-176.9 168.57,-179.89 153.52,-182.71"/>
<polygon fill="#63b8ff" stroke="#63b8ff" points="200.57,-177.45 209.76,-172.17 199.28,-170.57 200.57,-177.45"/>
</a>
</g>
</g>
<!-- Node5 -->
<g id="Node000005" class="node">
<title>Node5</title>
<g id="a_Node000005"><a xlink:href="classhelios_1_1rendering_1_1Viewport.html#a9c8ed040c0e35728770ddd462860c5bc" target="_top" xlink:title="Sets the parent RenderTarget for this viewport and updates the CameraSceneNode and its associated Cam...">
<polygon fill="white" stroke="#666666" points="160,-144 14,-144 14,-114 160,-114 160,-144"/>
<text text-anchor="start" x="22" y="-132" font-family="Helvetica,sans-Serif" font-size="10.00">helios::rendering::</text>
<text text-anchor="middle" x="87" y="-121" font-family="Helvetica,sans-Serif" font-size="10.00">Viewport::setRenderTarget</text>
</a>
</g>
</g>
<!-- Node1&#45;&gt;Node5 -->
<g id="edge7_Node000001_Node000005" class="edge">
<title>Node1&#45;&gt;Node5</title>
<g id="a_edge7_Node000001_Node000005"><a xlink:title=" ">
<path fill="none" stroke="#63b8ff" d="M199.65,-149.93C186.82,-147.53 173.27,-144.99 160.2,-142.54"/>
<polygon fill="#63b8ff" stroke="#63b8ff" points="199.28,-153.43 209.76,-151.83 200.57,-146.55 199.28,-153.43"/>
</a>
</g>
</g>
<!-- Node6 -->
<g id="Node000006" class="node">
<title>Node6</title>
<g id="a_Node000006"><a xlink:href="classhelios_1_1rendering_1_1Viewport.html#af7fa261780058e3f8b85cb2d8b504fc0" target="_top" xlink:title="Sets the z&#45;index that controls rendering order relative to sibling viewports.">
<polygon fill="white" stroke="#666666" points="144.5,-78 29.5,-78 29.5,-48 144.5,-48 144.5,-78"/>
<text text-anchor="start" x="37.5" y="-66" font-family="Helvetica,sans-Serif" font-size="10.00">helios::rendering::</text>
<text text-anchor="middle" x="87" y="-55" font-family="Helvetica,sans-Serif" font-size="10.00">Viewport::setZIndex</text>
</a>
</g>
</g>
<!-- Node1&#45;&gt;Node6 -->
<g id="edge9_Node000001_Node000006" class="edge">
<title>Node1&#45;&gt;Node6</title>
<g id="a_edge9_Node000001_Node000006"><a xlink:title=" ">
<path fill="none" stroke="#63b8ff" d="M233,-141.17C215.88,-129.98 194.07,-116.21 174,-105 156.88,-95.44 137.27,-85.77 121.11,-78.12"/>
<polygon fill="#63b8ff" stroke="#63b8ff" points="231.21,-144.19 241.49,-146.77 235.06,-138.34 231.21,-144.19"/>
</a>
</g>
</g>
<!-- Node7 -->
<g id="Node000007" class="node">
<title>Node7</title>
<g id="a_Node000007"><a xlink:href="classhelios_1_1rendering_1_1Viewport.html#a219c81106b214b5e690210bd6258d2e2" target="_top" xlink:title="Constructs a Viewport with specified normalized dimensions.">
<polygon fill="white" stroke="#666666" points="142,-30 32,-30 32,0 142,0 142,-30"/>
<text text-anchor="start" x="40" y="-18" font-family="Helvetica,sans-Serif" font-size="10.00">helios::rendering::</text>
<text text-anchor="middle" x="87" y="-7" font-family="Helvetica,sans-Serif" font-size="10.00">Viewport::Viewport</text>
</a>
</g>
</g>
<!-- Node1&#45;&gt;Node7 -->
<g id="edge11_Node000001_Node000007" class="edge">
<title>Node1&#45;&gt;Node7</title>
<g id="a_edge11_Node000001_Node000007"><a xlink:title=" ">
<path fill="none" stroke="#63b8ff" d="M252.64,-137.89C238.23,-109.94 210.78,-64.47 174,-39 164.57,-32.47 153.4,-27.71 142.3,-24.24"/>
<polygon fill="#63b8ff" stroke="#63b8ff" points="249.58,-139.6 257.18,-146.98 255.84,-136.48 249.58,-139.6"/>
</a>
</g>
</g>
<!-- Node2&#45;&gt;Node2 -->
<g id="edge2_Node000002_Node000002" class="edge">
<title>Node2&#45;&gt;Node2</title>
<g id="a_edge2_Node000002_Node000002"><a xlink:title=" ">
<path fill="none" stroke="#63b8ff" d="M118.16,-352.6C113.9,-356.97 103.51,-360 87,-360 59.19,-360 48.76,-351.41 55.71,-342.28"/>
<polygon fill="#63b8ff" stroke="#63b8ff" points="121.66,-352.32 118.29,-342.28 114.66,-352.23 121.66,-352.32"/>
</a>
</g>
</g>
<!-- Node3&#45;&gt;Node3 -->
<g id="edge4_Node000003_Node000003" class="edge">
<title>Node3&#45;&gt;Node3</title>
<g id="a_edge4_Node000003_Node000003"><a xlink:title=" ">
<path fill="none" stroke="#63b8ff" d="M118.16,-286.6C113.9,-290.97 103.51,-294 87,-294 59.19,-294 48.76,-285.41 55.71,-276.28"/>
<polygon fill="#63b8ff" stroke="#63b8ff" points="121.66,-286.32 118.29,-276.28 114.66,-286.23 121.66,-286.32"/>
</a>
</g>
</g>
<!-- Node4&#45;&gt;Node4 -->
<g id="edge6_Node000004_Node000004" class="edge">
<title>Node4&#45;&gt;Node4</title>
<g id="a_edge6_Node000004_Node000004"><a xlink:title=" ">
<path fill="none" stroke="#63b8ff" d="M118.16,-220.6C113.9,-224.97 103.51,-228 87,-228 59.19,-228 48.76,-219.41 55.71,-210.28"/>
<polygon fill="#63b8ff" stroke="#63b8ff" points="121.66,-220.32 118.29,-210.28 114.66,-220.23 121.66,-220.32"/>
</a>
</g>
</g>
<!-- Node5&#45;&gt;Node5 -->
<g id="edge8_Node000005_Node000005" class="edge">
<title>Node5&#45;&gt;Node5</title>
<g id="a_edge8_Node000005_Node000005"><a xlink:title=" ">
<path fill="none" stroke="#63b8ff" d="M118.16,-154.6C113.9,-158.97 103.51,-162 87,-162 59.19,-162 48.76,-153.41 55.71,-144.28"/>
<polygon fill="#63b8ff" stroke="#63b8ff" points="121.66,-154.32 118.29,-144.28 114.66,-154.23 121.66,-154.32"/>
</a>
</g>
</g>
<!-- Node6&#45;&gt;Node6 -->
<g id="edge10_Node000006_Node000006" class="edge">
<title>Node6&#45;&gt;Node6</title>
<g id="a_edge10_Node000006_Node000006"><a xlink:title=" ">
<path fill="none" stroke="#63b8ff" d="M118.16,-88.6C113.9,-92.97 103.51,-96 87,-96 59.19,-96 48.76,-87.41 55.71,-78.28"/>
<polygon fill="#63b8ff" stroke="#63b8ff" points="121.66,-88.32 118.29,-78.28 114.66,-88.23 121.66,-88.32"/>
</a>
</g>
</g>
</g>
</svg>
