<?xml version="1.0" encoding="UTF-8" standalone="no"?>
<!DOCTYPE svg PUBLIC "-//W3C//DTD SVG 1.1//EN"
 "http://www.w3.org/Graphics/SVG/1.1/DTD/svg11.dtd">
<!-- Generated by graphviz version 2.43.0 (0)
 -->
<!-- Title: helios::event::BasicEventManager Pages: 1 -->
<svg width="164pt" height="177pt"
 viewBox="0.00 0.00 164.00 177.00" xmlns="http://www.w3.org/2000/svg" xmlns:xlink="http://www.w3.org/1999/xlink">
<g id="graph0" class="graph" transform="scale(1 1) rotate(0) translate(4 173)">
<title>helios::event::BasicEventManager</title>
<!-- Node1 -->
<g id="Node000001" class="node">
<title>Node1</title>
<g id="a_Node000001"><a xlink:title="Basic implementation of the EventManager.">
<polygon fill="#999999" stroke="#666666" points="148,-30 8,-30 8,0 148,0 148,-30"/>
<text text-anchor="start" x="16" y="-18" font-family="Helvetica,sans-Serif" font-size="10.00">helios::event::BasicEvent</text>
<text text-anchor="middle" x="78" y="-7" font-family="Helvetica,sans-Serif" font-size="10.00">Manager</text>
</a>
</g>
</g>
<!-- Node2 -->
<g id="Node000002" class="node">
<title>Node2</title>
<g id="a_Node000002"><a xlink:href="classhelios_1_1event_1_1EventManager.html" target="_top" xlink:title="An abstract EventManager managing the buffering and dispatching of events, acting as a central hub fo...">
<polygon fill="white" stroke="#666666" points="156,-86 0,-86 0,-67 156,-67 156,-86"/>
<text text-anchor="middle" x="78" y="-74" font-family="Helvetica,sans-Serif" font-size="10.00">helios::event::EventManager</text>
</a>
</g>
</g>
<!-- Node2&#45;&gt;Node1 -->
<g id="edge1_Node000001_Node000002" class="edge">
<title>Node2&#45;&gt;Node1</title>
<g id="a_edge1_Node000001_Node000002"><a xlink:title=" ">
<path fill="none" stroke="#63b8ff" d="M78,-56.73C78,-48.09 78,-38 78,-30.02"/>
<polygon fill="#63b8ff" stroke="#63b8ff" points="74.5,-56.98 78,-66.98 81.5,-56.98 74.5,-56.98"/>
</a>
</g>
</g>
<!-- Node3 -->
<g id="Node000003" class="node">
<title>Node3</title>
<g id="a_Node000003"><a xlink:href="classhelios_1_1util_1_1log_1_1Logger.html" target="_top" xlink:title="Logger implementation with configurable output sinks.">
<polygon fill="white" stroke="#666666" points="125.5,-169 30.5,-169 30.5,-139 125.5,-139 125.5,-169"/>
<text text-anchor="start" x="38.5" y="-157" font-family="Helvetica,sans-Serif" font-size="10.00">helios::util::log::</text>
<text text-anchor="middle" x="78" y="-146" font-family="Helvetica,sans-Serif" font-size="10.00">Logger</text>
</a>
</g>
</g>
<!-- Node3&#45;&gt;Node2 -->
<g id="edge2_Node000002_Node000003" class="edge">
<title>Node3&#45;&gt;Node2</title>
<g id="a_edge2_Node000002_Node000003"><a xlink:title=" ">
<path fill="none" stroke="#9a32cd" stroke-dasharray="5,2" d="M78,-128.4C78,-113.81 78,-96.22 78,-86.01"/>
<polygon fill="#9a32cd" stroke="#9a32cd" points="74.5,-128.8 78,-138.8 81.5,-128.8 74.5,-128.8"/>
</a>
</g>
<text text-anchor="start" x="81.5" y="-109.5" font-family="Helvetica,sans-Serif" font-size="10.00" fill="grey">logger_</text>
</g>
</g>
</svg>
