<?xml version="1.0" encoding="UTF-8" standalone="no"?>
<!DOCTYPE svg PUBLIC "-//W3C//DTD SVG 1.1//EN"
 "http://www.w3.org/Graphics/SVG/1.1/DTD/svg11.dtd">
<!-- Generated by graphviz version 2.43.0 (0)
 -->
<!-- Title: helios::ext::opengl::rendering::shader::OpenGLShader::OpenGLShader Pages: 1 -->
<svg width="398pt" height="108pt"
 viewBox="0.00 0.00 398.00 108.00" xmlns="http://www.w3.org/2000/svg" xmlns:xlink="http://www.w3.org/1999/xlink">
<g id="graph0" class="graph" transform="scale(1 1) rotate(0) translate(4 104)">
<title>helios::ext::opengl::rendering::shader::OpenGLShader::OpenGLShader</title>
<!-- Node1 -->
<g id="Node000001" class="node">
<title>Node1</title>
<g id="a_Node000001"><a xlink:title="Rule of three.">
<polygon fill="#999999" stroke="#666666" points="390,-70 217,-70 217,-29 390,-29 390,-70"/>
<text text-anchor="start" x="225" y="-58" font-family="Helvetica,sans-Serif" font-size="10.00">helios::ext::opengl</text>
<text text-anchor="start" x="225" y="-47" font-family="Helvetica,sans-Serif" font-size="10.00">::rendering::shader</text>
<text text-anchor="middle" x="303.5" y="-36" font-family="Helvetica,sans-Serif" font-size="10.00">::OpenGLShader::OpenGLShader</text>
</a>
</g>
</g>
<!-- Node1&#45;&gt;Node1 -->
<g id="edge1_Node000001_Node000001" class="edge">
<title>Node1&#45;&gt;Node1</title>
<g id="a_edge1_Node000001_Node000001"><a xlink:title=" ">
<path fill="none" stroke="#63b8ff" d="M339.97,-79.96C334.55,-84.74 322.39,-88 303.5,-88 273.27,-88 260.29,-79.65 264.54,-70.1"/>
<polygon fill="#63b8ff" stroke="#63b8ff" points="343.41,-80.65 342.46,-70.1 336.62,-78.94 343.41,-80.65"/>
</a>
</g>
</g>
<!-- Node2 -->
<g id="Node000002" class="node">
<title>Node2</title>
<g id="a_Node000002"><a xlink:href="classhelios_1_1ext_1_1opengl_1_1rendering_1_1shader_1_1OpenGLShader.html#aa190c03967578f7fe516a67372b5a0a1" target="_top" xlink:title=" ">
<polygon fill="white" stroke="#666666" points="165.5,-100 15.5,-100 15.5,-59 165.5,-59 165.5,-100"/>
<text text-anchor="start" x="23.5" y="-88" font-family="Helvetica,sans-Serif" font-size="10.00">helios::ext::opengl</text>
<text text-anchor="start" x="23.5" y="-77" font-family="Helvetica,sans-Serif" font-size="10.00">::rendering::shader</text>
<text text-anchor="middle" x="90.5" y="-66" font-family="Helvetica,sans-Serif" font-size="10.00">::OpenGLShader::operator=</text>
</a>
</g>
</g>
<!-- Node1&#45;&gt;Node2 -->
<g id="edge2_Node000001_Node000002" class="edge">
<title>Node1&#45;&gt;Node2</title>
<g id="a_edge2_Node000001_Node000002"><a xlink:title=" ">
<path fill="none" stroke="#63b8ff" d="M206.94,-63.09C193.07,-65.06 178.98,-67.06 165.62,-68.96"/>
<polygon fill="#63b8ff" stroke="#63b8ff" points="207.57,-66.53 216.98,-61.66 206.59,-59.6 207.57,-66.53"/>
</a>
</g>
</g>
<!-- Node3 -->
<g id="Node000003" class="node">
<title>Node3</title>
<g id="a_Node000003"><a xlink:href="classhelios_1_1ext_1_1opengl_1_1rendering_1_1shader_1_1OpenGLShader.html#a1edfbbae34556a588fa0bf3902d19b2a" target="_top" xlink:title="Deletes the program object upon destruction of this instance.">
<polygon fill="white" stroke="#666666" points="181,-41 0,-41 0,0 181,0 181,-41"/>
<text text-anchor="start" x="8" y="-29" font-family="Helvetica,sans-Serif" font-size="10.00">helios::ext::opengl</text>
<text text-anchor="start" x="8" y="-18" font-family="Helvetica,sans-Serif" font-size="10.00">::rendering::shader</text>
<text text-anchor="middle" x="90.5" y="-7" font-family="Helvetica,sans-Serif" font-size="10.00">::OpenGLShader::~OpenGLShader</text>
</a>
</g>
</g>
<!-- Node1&#45;&gt;Node3 -->
<g id="edge3_Node000001_Node000003" class="edge">
<title>Node1&#45;&gt;Node3</title>
<g id="a_edge3_Node000001_Node000003"><a xlink:title=" ">
<path fill="none" stroke="#63b8ff" d="M206.99,-36.37C198.43,-35.2 189.78,-34.01 181.27,-32.84"/>
<polygon fill="#63b8ff" stroke="#63b8ff" points="206.6,-39.85 216.98,-37.75 207.55,-32.92 206.6,-39.85"/>
</a>
</g>
</g>
</g>
</svg>
