<?xml version="1.0" encoding="UTF-8" standalone="no"?>
<!DOCTYPE svg PUBLIC "-//W3C//DTD SVG 1.1//EN"
 "http://www.w3.org/Graphics/SVG/1.1/DTD/svg11.dtd">
<!-- Generated by graphviz version 2.43.0 (0)
 -->
<!-- Title: helios::scene::Snapshot::Snapshot Pages: 1 -->
<svg width="306pt" height="236pt"
 viewBox="0.00 0.00 306.00 236.00" xmlns="http://www.w3.org/2000/svg" xmlns:xlink="http://www.w3.org/1999/xlink">
<g id="graph0" class="graph" transform="scale(1 1) rotate(0) translate(4 232)">
<title>helios::scene::Snapshot::Snapshot</title>
<!-- Node1 -->
<g id="Node000001" class="node">
<title>Node1</title>
<g id="a_Node000001"><a xlink:title="Constructs a new immutable Snapshot from the given data.">
<polygon fill="#999999" stroke="#666666" points="131,-129 0,-129 0,-99 131,-99 131,-129"/>
<text text-anchor="start" x="8" y="-117" font-family="Helvetica,sans-Serif" font-size="10.00">helios::scene::Snapshot</text>
<text text-anchor="middle" x="65.5" y="-106" font-family="Helvetica,sans-Serif" font-size="10.00">::Snapshot</text>
</a>
</g>
</g>
<!-- Node2 -->
<g id="Node000002" class="node">
<title>Node2</title>
<g id="a_Node000002"><a xlink:href="classhelios_1_1scene_1_1Snapshot.html#aae4b2f152fd9144ce8e264064495e867" target="_top" xlink:title="Returns a const reference to the projection matrix for this Snapshot.">
<polygon fill="white" stroke="#666666" points="298,-210 167,-210 167,-180 298,-180 298,-210"/>
<text text-anchor="start" x="175" y="-198" font-family="Helvetica,sans-Serif" font-size="10.00">helios::scene::Snapshot</text>
<text text-anchor="middle" x="232.5" y="-187" font-family="Helvetica,sans-Serif" font-size="10.00">::projectionMatrix</text>
</a>
</g>
</g>
<!-- Node1&#45;&gt;Node2 -->
<g id="edge1_Node000001_Node000002" class="edge">
<title>Node1&#45;&gt;Node2</title>
<g id="a_edge1_Node000001_Node000002"><a xlink:title=" ">
<path fill="none" stroke="#63b8ff" d="M90.7,-129.18C110.71,-141.37 140.09,-158.46 167,-171 170.78,-172.76 174.72,-174.49 178.72,-176.15"/>
<polygon fill="#63b8ff" stroke="#63b8ff" points="177.5,-179.44 188.09,-179.93 180.12,-172.95 177.5,-179.44"/>
</a>
</g>
</g>
<!-- Node3 -->
<g id="Node000003" class="node">
<title>Node3</title>
<g id="a_Node000003"><a xlink:href="classhelios_1_1scene_1_1Snapshot.html#adb178bc5c792fe32d49f76cba70b71c2" target="_top" xlink:title="Returns a const reference to this Snapshot&#39;s SnapshotItems.">
<polygon fill="white" stroke="#666666" points="298,-162 167,-162 167,-132 298,-132 298,-162"/>
<text text-anchor="start" x="175" y="-150" font-family="Helvetica,sans-Serif" font-size="10.00">helios::scene::Snapshot</text>
<text text-anchor="middle" x="232.5" y="-139" font-family="Helvetica,sans-Serif" font-size="10.00">::snapshotItems</text>
</a>
</g>
</g>
<!-- Node1&#45;&gt;Node3 -->
<g id="edge3_Node000001_Node000003" class="edge">
<title>Node1&#45;&gt;Node3</title>
<g id="a_edge3_Node000001_Node000003"><a xlink:title=" ">
<path fill="none" stroke="#63b8ff" d="M131.24,-126.95C139.67,-128.63 148.37,-130.37 156.95,-132.09"/>
<polygon fill="#63b8ff" stroke="#63b8ff" points="156.46,-135.56 166.95,-134.09 157.83,-128.7 156.46,-135.56"/>
</a>
</g>
</g>
<!-- Node4 -->
<g id="Node000004" class="node">
<title>Node4</title>
<g id="a_Node000004"><a xlink:href="classhelios_1_1scene_1_1Snapshot.html#a10d5c7307db942f3717c0ea07597020b" target="_top" xlink:title="Returns a const reference to the view matrix for this Snapshot.">
<polygon fill="white" stroke="#666666" points="298,-96 167,-96 167,-66 298,-66 298,-96"/>
<text text-anchor="start" x="175" y="-84" font-family="Helvetica,sans-Serif" font-size="10.00">helios::scene::Snapshot</text>
<text text-anchor="middle" x="232.5" y="-73" font-family="Helvetica,sans-Serif" font-size="10.00">::viewMatrix</text>
</a>
</g>
</g>
<!-- Node1&#45;&gt;Node4 -->
<g id="edge4_Node000001_Node000004" class="edge">
<title>Node1&#45;&gt;Node4</title>
<g id="a_edge4_Node000001_Node000004"><a xlink:title=" ">
<path fill="none" stroke="#63b8ff" d="M131.24,-101.05C139.67,-99.37 148.37,-97.63 156.95,-95.91"/>
<polygon fill="#63b8ff" stroke="#63b8ff" points="157.83,-99.3 166.95,-93.91 156.46,-92.44 157.83,-99.3"/>
</a>
</g>
</g>
<!-- Node5 -->
<g id="Node000005" class="node">
<title>Node5</title>
<g id="a_Node000005"><a xlink:href="classhelios_1_1scene_1_1Snapshot.html#acf922e0ea3d04ec30e0fba9cf2592ae5" target="_top" xlink:title="Returns the viewport associated with this Snapshot.">
<polygon fill="white" stroke="#666666" points="298,-30 167,-30 167,0 298,0 298,-30"/>
<text text-anchor="start" x="175" y="-18" font-family="Helvetica,sans-Serif" font-size="10.00">helios::scene::Snapshot</text>
<text text-anchor="middle" x="232.5" y="-7" font-family="Helvetica,sans-Serif" font-size="10.00">::viewport</text>
</a>
</g>
</g>
<!-- Node1&#45;&gt;Node5 -->
<g id="edge6_Node000001_Node000005" class="edge">
<title>Node1&#45;&gt;Node5</title>
<g id="a_edge6_Node000001_Node000005"><a xlink:title=" ">
<path fill="none" stroke="#63b8ff" d="M91.56,-98.96C119.87,-81.98 166.09,-54.25 197.6,-35.34"/>
<polygon fill="#63b8ff" stroke="#63b8ff" points="199.7,-38.16 206.48,-30.01 196.1,-32.16 199.7,-38.16"/>
</a>
</g>
</g>
<!-- Node2&#45;&gt;Node2 -->
<g id="edge2_Node000002_Node000002" class="edge">
<title>Node2&#45;&gt;Node2</title>
<g id="a_edge2_Node000002_Node000002"><a xlink:title=" ">
<path fill="none" stroke="#63b8ff" d="M203.32,-210.28C196.84,-219.41 206.56,-228 232.5,-228 247.9,-228 257.59,-224.97 261.56,-220.6"/>
<polygon fill="#63b8ff" stroke="#63b8ff" points="265.06,-220.32 261.68,-210.28 258.06,-220.23 265.06,-220.32"/>
</a>
</g>
</g>
<!-- Node4&#45;&gt;Node4 -->
<g id="edge5_Node000004_Node000004" class="edge">
<title>Node4&#45;&gt;Node4</title>
<g id="a_edge5_Node000004_Node000004"><a xlink:title=" ">
<path fill="none" stroke="#63b8ff" d="M203.32,-96.28C196.84,-105.41 206.56,-114 232.5,-114 247.9,-114 257.59,-110.97 261.56,-106.6"/>
<polygon fill="#63b8ff" stroke="#63b8ff" points="265.06,-106.32 261.68,-96.28 258.06,-106.23 265.06,-106.32"/>
</a>
</g>
</g>
<!-- Node5&#45;&gt;Node5 -->
<g id="edge7_Node000005_Node000005" class="edge">
<title>Node5&#45;&gt;Node5</title>
<g id="a_edge7_Node000005_Node000005"><a xlink:title=" ">
<path fill="none" stroke="#63b8ff" d="M203.32,-30.28C196.84,-39.41 206.56,-48 232.5,-48 247.9,-48 257.59,-44.97 261.56,-40.6"/>
<polygon fill="#63b8ff" stroke="#63b8ff" points="265.06,-40.32 261.68,-30.28 258.06,-40.23 265.06,-40.32"/>
</a>
</g>
</g>
</g>
</svg>
