<?xml version="1.0" encoding="UTF-8" standalone="no"?>
<!DOCTYPE svg PUBLIC "-//W3C//DTD SVG 1.1//EN"
 "http://www.w3.org/Graphics/SVG/1.1/DTD/svg11.dtd">
<!-- Generated by graphviz version 2.43.0 (0)
 -->
<!-- Title: helios::rendering::model::config::MaterialProperties::MaterialProperties Pages: 1 -->
<svg width="402pt" height="144pt"
 viewBox="0.00 0.00 402.00 144.00" xmlns="http://www.w3.org/2000/svg" xmlns:xlink="http://www.w3.org/1999/xlink">

<svg id="main" version="1.1" xmlns="http://www.w3.org/2000/svg" xmlns:xlink="http://www.w3.org/1999/xlink" xml:space="preserve">

<style type="text/css"><![CDATA[
.node, .edge {opacity: 0.7;}
.node.selected, .edge.selected {opacity: 1;}
.edge:hover path { stroke: red; }
.edge:hover polygon { stroke: red; fill: red; }
]]></style>
<script type="application/ecmascript" xlink:href="svg.min.js"/>
<svg id="graph" class="graph">
<g id="graph0" class="graph" transform="scale(1 1) rotate(0) translate(4 140)">
<title>helios::rendering::model::config::MaterialProperties::MaterialProperties</title>
<!-- Node1 -->
<g id="Node000001" class="node">
<title>Node1</title>
<g id="a_Node000001"><a xlink:title="Default constructor for MaterialProperties.">
<polygon fill="#999999" stroke="#666666" points="394,-79 215,-79 215,-38 394,-38 394,-79"/>
<text text-anchor="start" x="223" y="-67" font-family="Helvetica,sans-Serif" font-size="10.00">helios::rendering::</text>
<text text-anchor="start" x="223" y="-56" font-family="Helvetica,sans-Serif" font-size="10.00">model::config::MaterialProperties</text>
<text text-anchor="middle" x="304.5" y="-45" font-family="Helvetica,sans-Serif" font-size="10.00">::MaterialProperties</text>
</a>
</g>
</g>
<!-- Node2 -->
<g id="Node000002" class="node">
<title>Node2</title>
<g id="a_Node000002"><a xlink:href="classhelios_1_1rendering_1_1model_1_1config_1_1MaterialProperties.html#af37039d81ae928ad4f314bc99fa1e283" target="_top" xlink:title=" ">
<polygon fill="white" stroke="#666666" points="179,-118 0,-118 0,-77 179,-77 179,-118"/>
<text text-anchor="start" x="8" y="-106" font-family="Helvetica,sans-Serif" font-size="10.00">helios::rendering::</text>
<text text-anchor="start" x="8" y="-95" font-family="Helvetica,sans-Serif" font-size="10.00">model::config::MaterialProperties</text>
<text text-anchor="middle" x="89.5" y="-84" font-family="Helvetica,sans-Serif" font-size="10.00">::withBaseColor</text>
</a>
</g>
</g>
<!-- Node1&#45;&gt;Node2 -->
<g id="edge1_Node000001_Node000002" class="edge">
<title>Node1&#45;&gt;Node2</title>
<g id="a_edge1_Node000001_Node000002"><a xlink:title=" ">
<path fill="none" stroke="#63b8ff" d="M204.73,-76.58C196.2,-78.15 187.59,-79.72 179.14,-81.27"/>
<polygon fill="#63b8ff" stroke="#63b8ff" points="205.51,-80 214.71,-74.76 204.24,-73.12 205.51,-80"/>
</a>
</g>
</g>
<!-- Node3 -->
<g id="Node000003" class="node">
<title>Node3</title>
<g id="a_Node000003"><a xlink:href="classhelios_1_1rendering_1_1model_1_1config_1_1MaterialProperties.html#a92c5f004d75558b0211523bc10416667" target="_top" xlink:title=" ">
<polygon fill="white" stroke="#666666" points="179,-41 0,-41 0,0 179,0 179,-41"/>
<text text-anchor="start" x="8" y="-29" font-family="Helvetica,sans-Serif" font-size="10.00">helios::rendering::</text>
<text text-anchor="start" x="8" y="-18" font-family="Helvetica,sans-Serif" font-size="10.00">model::config::MaterialProperties</text>
<text text-anchor="middle" x="89.5" y="-7" font-family="Helvetica,sans-Serif" font-size="10.00">::withRoughness</text>
</a>
</g>
</g>
<!-- Node1&#45;&gt;Node3 -->
<g id="edge3_Node000001_Node000003" class="edge">
<title>Node1&#45;&gt;Node3</title>
<g id="a_edge3_Node000001_Node000003"><a xlink:title=" ">
<path fill="none" stroke="#63b8ff" d="M204.73,-40.88C196.2,-39.36 187.59,-37.82 179.14,-36.31"/>
<polygon fill="#63b8ff" stroke="#63b8ff" points="204.25,-44.35 214.71,-42.66 205.48,-37.46 204.25,-44.35"/>
</a>
</g>
</g>
<!-- Node2&#45;&gt;Node2 -->
<g id="edge2_Node000002_Node000002" class="edge">
<title>Node2&#45;&gt;Node2</title>
<g id="a_edge2_Node000002_Node000002"><a xlink:title=" ">
<path fill="none" stroke="#63b8ff" d="M126.32,-127.96C120.84,-132.74 108.57,-136 89.5,-136 58.99,-136 45.88,-127.65 50.17,-118.1"/>
<polygon fill="#63b8ff" stroke="#63b8ff" points="129.75,-128.65 128.83,-118.1 122.97,-126.92 129.75,-128.65"/>
</a>
</g>
</g>
<!-- Node3&#45;&gt;Node3 -->
<g id="edge4_Node000003_Node000003" class="edge">
<title>Node3&#45;&gt;Node3</title>
<g id="a_edge4_Node000003_Node000003"><a xlink:title=" ">
<path fill="none" stroke="#63b8ff" d="M126.32,-50.96C120.84,-55.74 108.57,-59 89.5,-59 58.99,-59 45.88,-50.65 50.17,-41.1"/>
<polygon fill="#63b8ff" stroke="#63b8ff" points="129.75,-51.65 128.83,-41.1 122.97,-49.92 129.75,-51.65"/>
</a>
</g>
</g>
</g>
</svg>
</svg>

<style type='text/css'>
<![CDATA[
[data-mouse-over-selected='false'] { opacity: 0.7; }
[data-mouse-over-selected='true']  { opacity: 1.0; }
]]>
</style>
<script type="application/ecmascript"><![CDATA[
document.addEventListener('DOMContentLoaded', (event) => {
  highlightEdges();
  highlightAdjacentNodes();
});
]]></script>
</svg>
