<?xml version="1.0" encoding="UTF-8" standalone="no"?>
<!DOCTYPE svg PUBLIC "-//W3C//DTD SVG 1.1//EN"
 "http://www.w3.org/Graphics/SVG/1.1/DTD/svg11.dtd">
<!-- Generated by graphviz version 2.43.0 (0)
 -->
<!-- Title: helios::engine::game::GameObject::GameObject Pages: 1 -->
<svg width="352pt" height="236pt"
 viewBox="0.00 0.00 352.00 236.00" xmlns="http://www.w3.org/2000/svg" xmlns:xlink="http://www.w3.org/1999/xlink">
<g id="graph0" class="graph" transform="scale(1 1) rotate(0) translate(4 232)">
<title>helios::engine::game::GameObject::GameObject</title>
<!-- Node1 -->
<g id="Node000001" class="node">
<title>Node1</title>
<g id="a_Node000001"><a xlink:title="Constructs a GameObject associated with a SceneNode.">
<polygon fill="#999999" stroke="#666666" points="344,-120 194,-120 194,-90 344,-90 344,-120"/>
<text text-anchor="start" x="202" y="-108" font-family="Helvetica,sans-Serif" font-size="10.00">helios::engine::game</text>
<text text-anchor="middle" x="269" y="-97" font-family="Helvetica,sans-Serif" font-size="10.00">::GameObject::GameObject</text>
</a>
</g>
</g>
<!-- Node2 -->
<g id="Node000002" class="node">
<title>Node2</title>
<g id="a_Node000002"><a xlink:href="classhelios_1_1engine_1_1game_1_1GameObject.html#a44d975fd81970a7f23dd2f58604d03d9" target="_top" xlink:title="Applies a rotation transformation to the GameObject.">
<polygon fill="white" stroke="#666666" points="152,-210 6,-210 6,-180 152,-180 152,-210"/>
<text text-anchor="start" x="14" y="-198" font-family="Helvetica,sans-Serif" font-size="10.00">helios::engine::game</text>
<text text-anchor="middle" x="79" y="-187" font-family="Helvetica,sans-Serif" font-size="10.00">::GameObject::setRotation</text>
</a>
</g>
</g>
<!-- Node1&#45;&gt;Node2 -->
<g id="edge1_Node000001_Node000002" class="edge">
<title>Node1&#45;&gt;Node2</title>
<g id="a_edge1_Node000001_Node000002"><a xlink:title=" ">
<path fill="none" stroke="#63b8ff" d="M238.13,-125.63C216.6,-139.82 186.42,-158.32 158,-171 150.75,-174.23 142.95,-177.2 135.17,-179.86"/>
<polygon fill="#63b8ff" stroke="#63b8ff" points="240.14,-128.5 246.52,-120.03 236.26,-122.67 240.14,-128.5"/>
</a>
</g>
</g>
<!-- Node3 -->
<g id="Node000003" class="node">
<title>Node3</title>
<g id="a_Node000003"><a xlink:href="classhelios_1_1engine_1_1game_1_1GameObject.html#a5021f749136ead897d28c06e0769085a" target="_top" xlink:title="Applies a scaling transformation to the GameObject.">
<polygon fill="white" stroke="#666666" points="144.5,-144 13.5,-144 13.5,-114 144.5,-114 144.5,-144"/>
<text text-anchor="start" x="21.5" y="-132" font-family="Helvetica,sans-Serif" font-size="10.00">helios::engine::game</text>
<text text-anchor="middle" x="79" y="-121" font-family="Helvetica,sans-Serif" font-size="10.00">::GameObject::setScale</text>
</a>
</g>
</g>
<!-- Node1&#45;&gt;Node3 -->
<g id="edge3_Node000001_Node000003" class="edge">
<title>Node1&#45;&gt;Node3</title>
<g id="a_edge3_Node000001_Node000003"><a xlink:title=" ">
<path fill="none" stroke="#63b8ff" d="M183.92,-115.73C170.7,-117.42 157.21,-119.14 144.52,-120.76"/>
<polygon fill="#63b8ff" stroke="#63b8ff" points="184.49,-119.19 193.97,-114.45 183.6,-112.25 184.49,-119.19"/>
</a>
</g>
</g>
<!-- Node4 -->
<g id="Node000004" class="node">
<title>Node4</title>
<g id="a_Node000004"><a xlink:href="classhelios_1_1engine_1_1game_1_1GameObject.html#a51493ff0aabbc452e19d223927aae3f9" target="_top" xlink:title="Sets the size of the GameObject in the game world.">
<polygon fill="white" stroke="#666666" points="141.5,-96 16.5,-96 16.5,-66 141.5,-66 141.5,-96"/>
<text text-anchor="start" x="24.5" y="-84" font-family="Helvetica,sans-Serif" font-size="10.00">helios::engine::game</text>
<text text-anchor="middle" x="79" y="-73" font-family="Helvetica,sans-Serif" font-size="10.00">::GameObject::setSize</text>
</a>
</g>
</g>
<!-- Node1&#45;&gt;Node4 -->
<g id="edge5_Node000001_Node000004" class="edge">
<title>Node1&#45;&gt;Node4</title>
<g id="a_edge5_Node000001_Node000004"><a xlink:title=" ">
<path fill="none" stroke="#63b8ff" d="M183.7,-94.24C169.51,-92.43 155.01,-90.58 141.53,-88.86"/>
<polygon fill="#63b8ff" stroke="#63b8ff" points="183.6,-97.75 193.97,-95.55 184.49,-90.81 183.6,-97.75"/>
</a>
</g>
</g>
<!-- Node5 -->
<g id="Node000005" class="node">
<title>Node5</title>
<g id="a_Node000005"><a xlink:href="classhelios_1_1engine_1_1game_1_1GameObject.html#a0f8f05fab17730b8ca40520fbde14c2c" target="_top" xlink:title="Applies a translation transformation to the GameObject.">
<polygon fill="white" stroke="#666666" points="158,-30 0,-30 0,0 158,0 158,-30"/>
<text text-anchor="start" x="8" y="-18" font-family="Helvetica,sans-Serif" font-size="10.00">helios::engine::game</text>
<text text-anchor="middle" x="79" y="-7" font-family="Helvetica,sans-Serif" font-size="10.00">::GameObject::setTranslation</text>
</a>
</g>
</g>
<!-- Node1&#45;&gt;Node5 -->
<g id="edge6_Node000001_Node000005" class="edge">
<title>Node1&#45;&gt;Node5</title>
<g id="a_edge6_Node000001_Node000005"><a xlink:title=" ">
<path fill="none" stroke="#63b8ff" d="M227.15,-85.44C192.44,-68.83 143.33,-45.32 111.57,-30.11"/>
<polygon fill="#63b8ff" stroke="#63b8ff" points="226,-88.77 236.53,-89.94 229.02,-82.46 226,-88.77"/>
</a>
</g>
</g>
<!-- Node2&#45;&gt;Node2 -->
<g id="edge2_Node000002_Node000002" class="edge">
<title>Node2&#45;&gt;Node2</title>
<g id="a_edge2_Node000002_Node000002"><a xlink:title=" ">
<path fill="none" stroke="#63b8ff" d="M111.91,-220.6C107.41,-224.97 96.44,-228 79,-228 49.62,-228 38.61,-219.41 45.95,-210.28"/>
<polygon fill="#63b8ff" stroke="#63b8ff" points="115.41,-220.32 112.05,-210.28 108.41,-220.23 115.41,-220.32"/>
</a>
</g>
</g>
<!-- Node3&#45;&gt;Node3 -->
<g id="edge4_Node000003_Node000003" class="edge">
<title>Node3&#45;&gt;Node3</title>
<g id="a_edge4_Node000003_Node000003"><a xlink:title=" ">
<path fill="none" stroke="#63b8ff" d="M111.91,-154.6C107.41,-158.97 96.44,-162 79,-162 49.62,-162 38.61,-153.41 45.95,-144.28"/>
<polygon fill="#63b8ff" stroke="#63b8ff" points="115.41,-154.32 112.05,-144.28 108.41,-154.23 115.41,-154.32"/>
</a>
</g>
</g>
<!-- Node5&#45;&gt;Node5 -->
<g id="edge7_Node000005_Node000005" class="edge">
<title>Node5&#45;&gt;Node5</title>
<g id="a_edge7_Node000005_Node000005"><a xlink:title=" ">
<path fill="none" stroke="#63b8ff" d="M111.91,-40.6C107.41,-44.97 96.44,-48 79,-48 49.62,-48 38.61,-39.41 45.95,-30.28"/>
<polygon fill="#63b8ff" stroke="#63b8ff" points="115.41,-40.32 112.05,-30.28 108.41,-40.23 115.41,-40.32"/>
</a>
</g>
</g>
</g>
</svg>
