<?xml version="1.0" encoding="UTF-8" standalone="no"?>
<!DOCTYPE svg PUBLIC "-//W3C//DTD SVG 1.1//EN"
 "http://www.w3.org/Graphics/SVG/1.1/DTD/svg11.dtd">
<!-- Generated by graphviz version 2.43.0 (0)
 -->
<!-- Title: helios::window::event::WindowEvent Pages: 1 -->
<svg width="236pt" height="110pt"
 viewBox="0.00 0.00 235.50 110.00" xmlns="http://www.w3.org/2000/svg" xmlns:xlink="http://www.w3.org/1999/xlink">
<g id="graph0" class="graph" transform="scale(1 1) rotate(0) translate(4 106)">
<title>helios::window::event::WindowEvent</title>
<!-- Node1 -->
<g id="Node000001" class="node">
<title>Node1</title>
<g id="a_Node000001"><a xlink:title="Abstract base class for Window related events.">
<polygon fill="#999999" stroke="#666666" points="178.5,-30 56.5,-30 56.5,0 178.5,0 178.5,-30"/>
<text text-anchor="start" x="64.5" y="-18" font-family="Helvetica,sans-Serif" font-size="10.00">helios::window::event</text>
<text text-anchor="middle" x="117.5" y="-7" font-family="Helvetica,sans-Serif" font-size="10.00">::WindowEvent</text>
</a>
</g>
</g>
<!-- Node2 -->
<g id="Node000002" class="node">
<title>Node2</title>
<g id="a_Node000002"><a xlink:href="classhelios_1_1event_1_1Event.html" target="_top" xlink:title="Base class for events in the helios framework.">
<polygon fill="white" stroke="#666666" points="113,-102 0,-102 0,-83 113,-83 113,-102"/>
<text text-anchor="middle" x="56.5" y="-90" font-family="Helvetica,sans-Serif" font-size="10.00">helios::event::Event</text>
</a>
</g>
</g>
<!-- Node2&#45;&gt;Node1 -->
<g id="edge1_Node000001_Node000002" class="edge">
<title>Node2&#45;&gt;Node1</title>
<g id="a_edge1_Node000001_Node000002"><a xlink:title=" ">
<path fill="none" stroke="#63b8ff" d="M69.9,-74.92C80.71,-61.54 95.76,-42.91 106.02,-30.21"/>
<polygon fill="#63b8ff" stroke="#63b8ff" points="67.06,-72.86 63.5,-82.84 72.5,-77.26 67.06,-72.86"/>
</a>
</g>
</g>
<!-- Node3 -->
<g id="Node000003" class="node">
<title>Node3</title>
<g id="a_Node000003"><a xlink:href="classhelios_1_1util_1_1Guid.html" target="_top" xlink:title="Representative of a Globally Unique Identifier.">
<polygon fill="white" stroke="#666666" points="227.5,-102 131.5,-102 131.5,-83 227.5,-83 227.5,-102"/>
<text text-anchor="middle" x="179.5" y="-90" font-family="Helvetica,sans-Serif" font-size="10.00">helios::util::Guid</text>
</a>
</g>
</g>
<!-- Node3&#45;&gt;Node1 -->
<g id="edge2_Node000001_Node000003" class="edge">
<title>Node3&#45;&gt;Node1</title>
<g id="a_edge2_Node000001_Node000003"><a xlink:title=" ">
<path fill="none" stroke="#9a32cd" stroke-dasharray="5,2" d="M165.88,-74.92C154.89,-61.54 139.6,-42.91 129.17,-30.21"/>
<polygon fill="#9a32cd" stroke="#9a32cd" points="163.34,-77.33 172.39,-82.84 168.75,-72.89 163.34,-77.33"/>
</a>
</g>
<text text-anchor="start" x="161" y="-53.5" font-family="Helvetica,sans-Serif" font-size="10.00" fill="grey">sourceGuid</text>
</g>
</g>
</svg>
