<?xml version="1.0" encoding="UTF-8" standalone="no"?>
<!DOCTYPE svg PUBLIC "-//W3C//DTD SVG 1.1//EN"
 "http://www.w3.org/Graphics/SVG/1.1/DTD/svg11.dtd">
<!-- Generated by graphviz version 2.43.0 (0)
 -->
<!-- Title: helios::rendering::RenderPass::frameUniformValues Pages: 1 -->
<svg width="388pt" height="116pt"
 viewBox="0.00 0.00 388.00 115.50" xmlns="http://www.w3.org/2000/svg" xmlns:xlink="http://www.w3.org/1999/xlink">

<svg id="main" version="1.1" xmlns="http://www.w3.org/2000/svg" xmlns:xlink="http://www.w3.org/1999/xlink" xml:space="preserve">

<style type="text/css"><![CDATA[
.node, .edge {opacity: 0.7;}
.node.selected, .edge.selected {opacity: 1;}
.edge:hover path { stroke: red; }
.edge:hover polygon { stroke: red; fill: red; }
]]></style>
<script type="application/ecmascript" xlink:href="svg.min.js"/>
<svg id="graph" class="graph">
<g id="graph0" class="graph" transform="scale(1 1) rotate(0) translate(4 111.5)">
<title>helios::rendering::RenderPass::frameUniformValues</title>
<!-- Node1 -->
<g id="Node000001" class="node">
<title>Node1</title>
<g id="a_Node000001"><a xlink:title="Returns a const ref to this `RenderPass`&#39; `UniformValueMap`. The map might be empty.">
<polygon fill="#999999" stroke="#666666" points="380,-71.5 200,-71.5 200,-41.5 380,-41.5 380,-71.5"/>
<text text-anchor="start" x="208" y="-59.5" font-family="Helvetica,sans-Serif" font-size="10.00">helios::rendering::</text>
<text text-anchor="middle" x="290" y="-48.5" font-family="Helvetica,sans-Serif" font-size="10.00">RenderPass::frameUniformValues</text>
</a>
</g>
</g>
<!-- Node1&#45;&gt;Node1 -->
<g id="edge1_Node000001_Node000001" class="edge">
<title>Node1&#45;&gt;Node1</title>
<g id="a_edge1_Node000001_Node000001"><a xlink:title=" ">
<path fill="none" stroke="#63b8ff" d="M326.41,-82.1C321.43,-86.47 309.3,-89.5 290,-89.5 257.5,-89.5 245.31,-80.91 253.44,-71.78"/>
<polygon fill="#63b8ff" stroke="#63b8ff" points="329.91,-81.83 326.56,-71.78 322.91,-81.72 329.91,-81.83"/>
</a>
</g>
</g>
<!-- Node2 -->
<g id="Node000002" class="node">
<title>Node2</title>
<g id="a_Node000002"><a xlink:href="classhelios_1_1rendering_1_1RenderPass.html#ae3f4f46b15048f4aa38852938748fe28" target="_top" xlink:title="Create a new `RenderPass` with the specified `RenderQueue` and the `UniformValueMap`....">
<polygon fill="white" stroke="#666666" points="149.5,-107.5 14.5,-107.5 14.5,-77.5 149.5,-77.5 149.5,-107.5"/>
<text text-anchor="start" x="22.5" y="-95.5" font-family="Helvetica,sans-Serif" font-size="10.00">helios::rendering::</text>
<text text-anchor="middle" x="82" y="-84.5" font-family="Helvetica,sans-Serif" font-size="10.00">RenderPass::RenderPass</text>
</a>
</g>
</g>
<!-- Node1&#45;&gt;Node2 -->
<g id="edge2_Node000001_Node000002" class="edge">
<title>Node1&#45;&gt;Node2</title>
<g id="a_edge2_Node000001_Node000002"><a xlink:title=" ">
<path fill="none" stroke="#63b8ff" d="M193.01,-73.28C178.33,-75.84 163.45,-78.44 149.59,-80.86"/>
<polygon fill="#63b8ff" stroke="#63b8ff" points="193.88,-76.68 203.13,-71.51 192.68,-69.78 193.88,-76.68"/>
</a>
</g>
</g>
<!-- Node3 -->
<g id="Node000003" class="node">
<title>Node3</title>
<g id="a_Node000003"><a xlink:href="classhelios_1_1rendering_1_1RenderPass.html#a54bc377a9a1ad0c2d0f8a31342d247d7" target="_top" xlink:title="Sets this `RenderPass`&#39; `UniformValueMap` containing per&#45;frame specific uniform values....">
<polygon fill="white" stroke="#666666" points="164,-41 0,-41 0,0 164,0 164,-41"/>
<text text-anchor="start" x="8" y="-29" font-family="Helvetica,sans-Serif" font-size="10.00">helios::rendering::</text>
<text text-anchor="start" x="8" y="-18" font-family="Helvetica,sans-Serif" font-size="10.00">RenderPass::setFrameUniform</text>
<text text-anchor="middle" x="82" y="-7" font-family="Helvetica,sans-Serif" font-size="10.00">Values</text>
</a>
</g>
</g>
<!-- Node1&#45;&gt;Node3 -->
<g id="edge3_Node000001_Node000003" class="edge">
<title>Node1&#45;&gt;Node3</title>
<g id="a_edge3_Node000001_Node000003"><a xlink:title=" ">
<path fill="none" stroke="#63b8ff" d="M193.08,-39.74C183.39,-38.04 173.62,-36.34 164.11,-34.68"/>
<polygon fill="#63b8ff" stroke="#63b8ff" points="192.68,-43.22 203.13,-41.49 193.88,-36.32 192.68,-43.22"/>
</a>
</g>
</g>
<!-- Node3&#45;&gt;Node3 -->
<g id="edge4_Node000003_Node000003" class="edge">
<title>Node3&#45;&gt;Node3</title>
<g id="a_edge4_Node000003_Node000003"><a xlink:title=" ">
<path fill="none" stroke="#63b8ff" d="M117.79,-50.96C112.46,-55.74 100.54,-59 82,-59 52.34,-59 39.6,-50.65 43.77,-41.1"/>
<polygon fill="#63b8ff" stroke="#63b8ff" points="121.22,-51.65 120.23,-41.1 114.43,-49.96 121.22,-51.65"/>
</a>
</g>
</g>
</g>
</svg>
</svg>

<style type='text/css'>
<![CDATA[
[data-mouse-over-selected='false'] { opacity: 0.7; }
[data-mouse-over-selected='true']  { opacity: 1.0; }
]]>
</style>
<script type="application/ecmascript"><![CDATA[
document.addEventListener('DOMContentLoaded', (event) => {
  highlightEdges();
  highlightAdjacentNodes();
});
]]></script>
</svg>
