<?xml version="1.0" encoding="UTF-8" standalone="no"?>
<!DOCTYPE svg PUBLIC "-//W3C//DTD SVG 1.1//EN"
 "http://www.w3.org/Graphics/SVG/1.1/DTD/svg11.dtd">
<!-- Generated by graphviz version 2.43.0 (0)
 -->
<!-- Title: helios::rendering::RenderPass::RenderPass Pages: 1 -->
<svg width="359pt" height="188pt"
 viewBox="0.00 0.00 359.00 188.00" xmlns="http://www.w3.org/2000/svg" xmlns:xlink="http://www.w3.org/1999/xlink">
<g id="graph0" class="graph" transform="scale(1 1) rotate(0) translate(4 184)">
<title>helios::rendering::RenderPass::RenderPass</title>
<!-- Node1 -->
<g id="Node000001" class="node">
<title>Node1</title>
<g id="a_Node000001"><a xlink:title="Create a new `RenderPass` with the specified `RenderQueue` and the `UniformValueMap`....">
<polygon fill="#999999" stroke="#666666" points="135,-96 0,-96 0,-66 135,-66 135,-96"/>
<text text-anchor="start" x="8" y="-84" font-family="Helvetica,sans-Serif" font-size="10.00">helios::rendering::</text>
<text text-anchor="middle" x="67.5" y="-73" font-family="Helvetica,sans-Serif" font-size="10.00">RenderPass::RenderPass</text>
</a>
</g>
</g>
<!-- Node2 -->
<g id="Node000002" class="node">
<title>Node2</title>
<g id="a_Node000002"><a xlink:href="classhelios_1_1rendering_1_1RenderPass.html#a9b3b86c9d3d2455bba80ee4b410fbb5b" target="_top" xlink:title="Returns a const ref to this `RenderPass`&#39; `UniformValueMap`. The map might be empty.">
<polygon fill="white" stroke="#666666" points="351,-162 171,-162 171,-132 351,-132 351,-162"/>
<text text-anchor="start" x="179" y="-150" font-family="Helvetica,sans-Serif" font-size="10.00">helios::rendering::</text>
<text text-anchor="middle" x="261" y="-139" font-family="Helvetica,sans-Serif" font-size="10.00">RenderPass::frameUniformValues</text>
</a>
</g>
</g>
<!-- Node1&#45;&gt;Node2 -->
<g id="edge1_Node000001_Node000002" class="edge">
<title>Node1&#45;&gt;Node2</title>
<g id="a_edge1_Node000001_Node000002"><a xlink:title=" ">
<path fill="none" stroke="#63b8ff" d="M102.26,-96.08C122.06,-104.61 147.68,-115.11 171,-123 177.07,-125.05 183.42,-127.05 189.81,-128.96"/>
<polygon fill="#63b8ff" stroke="#63b8ff" points="189.27,-132.45 199.85,-131.88 191.22,-125.73 189.27,-132.45"/>
</a>
</g>
</g>
<!-- Node3 -->
<g id="Node000003" class="node">
<title>Node3</title>
<g id="a_Node000003"><a xlink:href="classhelios_1_1rendering_1_1RenderPass.html#afac382a610028b5e09af4ade728b78b3" target="_top" xlink:title="Prevent copying. A RenderPass is not intended to be copied.">
<polygon fill="white" stroke="#666666" points="328.5,-96 193.5,-96 193.5,-66 328.5,-66 328.5,-96"/>
<text text-anchor="start" x="201.5" y="-84" font-family="Helvetica,sans-Serif" font-size="10.00">helios::rendering::</text>
<text text-anchor="middle" x="261" y="-73" font-family="Helvetica,sans-Serif" font-size="10.00">RenderPass::RenderPass</text>
</a>
</g>
</g>
<!-- Node1&#45;&gt;Node3 -->
<g id="edge3_Node000001_Node000003" class="edge">
<title>Node1&#45;&gt;Node3</title>
<g id="a_edge3_Node000001_Node000003"><a xlink:title=" ">
<path fill="none" stroke="#63b8ff" d="M135.21,-81C150.62,-81 167.13,-81 182.94,-81"/>
<polygon fill="#63b8ff" stroke="#63b8ff" points="183.21,-84.5 193.21,-81 183.21,-77.5 183.21,-84.5"/>
</a>
</g>
</g>
<!-- Node4 -->
<g id="Node000004" class="node">
<title>Node4</title>
<g id="a_Node000004"><a xlink:href="classhelios_1_1rendering_1_1RenderPass.html#aa8e67383f0e4057c47b80405c02eae19" target="_top" xlink:title="Returns a const ref to the `RenderQueue` this `RenderPass` holds.">
<polygon fill="white" stroke="#666666" points="332,-30 190,-30 190,0 332,0 332,-30"/>
<text text-anchor="start" x="198" y="-18" font-family="Helvetica,sans-Serif" font-size="10.00">helios::rendering::</text>
<text text-anchor="middle" x="261" y="-7" font-family="Helvetica,sans-Serif" font-size="10.00">RenderPass::renderQueue</text>
</a>
</g>
</g>
<!-- Node1&#45;&gt;Node4 -->
<g id="edge5_Node000001_Node000004" class="edge">
<title>Node1&#45;&gt;Node4</title>
<g id="a_edge5_Node000001_Node000004"><a xlink:title=" ">
<path fill="none" stroke="#63b8ff" d="M112.43,-65.86C140.41,-56.22 176.83,-43.66 206.49,-33.44"/>
<polygon fill="#63b8ff" stroke="#63b8ff" points="207.96,-36.64 216.27,-30.07 205.68,-30.02 207.96,-36.64"/>
</a>
</g>
</g>
<!-- Node2&#45;&gt;Node2 -->
<g id="edge2_Node000002_Node000002" class="edge">
<title>Node2&#45;&gt;Node2</title>
<g id="a_edge2_Node000002_Node000002"><a xlink:title=" ">
<path fill="none" stroke="#63b8ff" d="M227.25,-162.28C219.75,-171.41 231,-180 261,-180 278.81,-180 290.01,-176.97 294.61,-172.6"/>
<polygon fill="#63b8ff" stroke="#63b8ff" points="298.11,-172.32 294.75,-162.28 291.11,-172.23 298.11,-172.32"/>
</a>
</g>
</g>
<!-- Node3&#45;&gt;Node3 -->
<g id="edge4_Node000003_Node000003" class="edge">
<title>Node3&#45;&gt;Node3</title>
<g id="a_edge4_Node000003_Node000003"><a xlink:title=" ">
<path fill="none" stroke="#63b8ff" d="M227.25,-96.28C219.75,-105.41 231,-114 261,-114 278.81,-114 290.01,-110.97 294.61,-106.6"/>
<polygon fill="#63b8ff" stroke="#63b8ff" points="298.11,-106.32 294.75,-96.28 291.11,-106.23 298.11,-106.32"/>
</a>
</g>
</g>
<!-- Node4&#45;&gt;Node4 -->
<g id="edge6_Node000004_Node000004" class="edge">
<title>Node4&#45;&gt;Node4</title>
<g id="a_edge6_Node000004_Node000004"><a xlink:title=" ">
<path fill="none" stroke="#63b8ff" d="M227.25,-30.28C219.75,-39.41 231,-48 261,-48 278.81,-48 290.01,-44.97 294.61,-40.6"/>
<polygon fill="#63b8ff" stroke="#63b8ff" points="298.11,-40.32 294.75,-30.28 291.11,-40.23 298.11,-40.32"/>
</a>
</g>
</g>
</g>
</svg>
