<?xml version="1.0" encoding="UTF-8" standalone="no"?>
<!DOCTYPE svg PUBLIC "-//W3C//DTD SVG 1.1//EN"
 "http://www.w3.org/Graphics/SVG/1.1/DTD/svg11.dtd">
<!-- Generated by graphviz version 2.43.0 (0)
 -->
<!-- Title: helios::rendering::RenderCommand::RenderCommand Pages: 1 -->
<svg width="436pt" height="230pt"
 viewBox="0.00 0.00 436.00 230.00" xmlns="http://www.w3.org/2000/svg" xmlns:xlink="http://www.w3.org/1999/xlink">

<svg id="main" version="1.1" xmlns="http://www.w3.org/2000/svg" xmlns:xlink="http://www.w3.org/1999/xlink" xml:space="preserve">

<style type="text/css"><![CDATA[
.node, .edge {opacity: 0.7;}
.node.selected, .edge.selected {opacity: 1;}
.edge:hover path { stroke: red; }
.edge:hover polygon { stroke: red; fill: red; }
]]></style>
<script type="application/ecmascript" xlink:href="svg.min.js"/>
<svg id="graph" class="graph">
<g id="graph0" class="graph" transform="scale(1 1) rotate(0) translate(4 226)">
<title>helios::rendering::RenderCommand::RenderCommand</title>
<!-- Node1 -->
<g id="Node000001" class="node">
<title>Node1</title>
<g id="a_Node000001"><a xlink:title="Prevent copying. A RenderCommand is not intended to be copied.">
<polygon fill="#999999" stroke="#666666" points="428,-126 236,-126 236,-96 428,-96 428,-126"/>
<text text-anchor="start" x="244" y="-114" font-family="Helvetica,sans-Serif" font-size="10.00">helios::rendering::</text>
<text text-anchor="middle" x="332" y="-103" font-family="Helvetica,sans-Serif" font-size="10.00">RenderCommand::RenderCommand</text>
</a>
</g>
</g>
<!-- Node1&#45;&gt;Node1 -->
<g id="edge3_Node000001_Node000001" class="edge">
<title>Node1&#45;&gt;Node1</title>
<g id="a_edge3_Node000001_Node000001"><a xlink:title=" ">
<path fill="none" stroke="#63b8ff" d="M372.61,-136.6C367.06,-140.97 353.52,-144 332,-144 295.75,-144 282.16,-135.41 291.22,-126.28"/>
<polygon fill="#63b8ff" stroke="#63b8ff" points="376.11,-136.33 372.78,-126.28 369.11,-136.22 376.11,-136.33"/>
</a>
</g>
</g>
<!-- Node2 -->
<g id="Node000002" class="node">
<title>Node2</title>
<g id="a_Node000002"><a xlink:href="classhelios_1_1rendering_1_1RenderCommand.html#a615073c6f93784f04c4852d7543a3bd4" target="_top" xlink:title="Prevent copy assignment. A RenderCommand is not intended to be copied.">
<polygon fill="white" stroke="#666666" points="178.5,-222 21.5,-222 21.5,-192 178.5,-192 178.5,-222"/>
<text text-anchor="start" x="29.5" y="-210" font-family="Helvetica,sans-Serif" font-size="10.00">helios::rendering::</text>
<text text-anchor="middle" x="100" y="-199" font-family="Helvetica,sans-Serif" font-size="10.00">RenderCommand::operator=</text>
</a>
</g>
</g>
<!-- Node1&#45;&gt;Node2 -->
<g id="edge1_Node000001_Node000002" class="edge">
<title>Node1&#45;&gt;Node2</title>
<g id="a_edge1_Node000001_Node000002"><a xlink:title=" ">
<path fill="none" stroke="#63b8ff" d="M299.16,-131.63C273.33,-147.59 235.49,-169.23 200,-183 191.34,-186.36 182.07,-189.35 172.81,-191.98"/>
<polygon fill="#63b8ff" stroke="#63b8ff" points="301.15,-134.52 307.78,-126.25 297.44,-128.58 301.15,-134.52"/>
</a>
</g>
</g>
<!-- Node3 -->
<g id="Node000003" class="node">
<title>Node3</title>
<g id="a_Node000003"><a xlink:href="classhelios_1_1rendering_1_1RenderCommand.html#a0c749574b95603ba4b17df9b9692a628" target="_top" xlink:title="Delete move assignment.">
<polygon fill="white" stroke="#666666" points="178.5,-174 21.5,-174 21.5,-144 178.5,-144 178.5,-174"/>
<text text-anchor="start" x="29.5" y="-162" font-family="Helvetica,sans-Serif" font-size="10.00">helios::rendering::</text>
<text text-anchor="middle" x="100" y="-151" font-family="Helvetica,sans-Serif" font-size="10.00">RenderCommand::operator=</text>
</a>
</g>
</g>
<!-- Node1&#45;&gt;Node3 -->
<g id="edge2_Node000001_Node000003" class="edge">
<title>Node1&#45;&gt;Node3</title>
<g id="a_edge2_Node000001_Node000003"><a xlink:title=" ">
<path fill="none" stroke="#63b8ff" d="M248.75,-128.17C223.96,-133.34 196.95,-138.98 172.89,-144"/>
<polygon fill="#63b8ff" stroke="#63b8ff" points="249.78,-131.53 258.86,-126.06 248.35,-124.67 249.78,-131.53"/>
</a>
</g>
</g>
<!-- Node4 -->
<g id="Node000004" class="node">
<title>Node4</title>
<g id="a_Node000004"><a xlink:href="classhelios_1_1rendering_1_1RenderCommand.html#a4ae067558ed2b245ef93b9fa5e4ab3ac" target="_top" xlink:title="Delete move constructor.">
<polygon fill="white" stroke="#666666" points="196,-126 4,-126 4,-96 196,-96 196,-126"/>
<text text-anchor="start" x="12" y="-114" font-family="Helvetica,sans-Serif" font-size="10.00">helios::rendering::</text>
<text text-anchor="middle" x="100" y="-103" font-family="Helvetica,sans-Serif" font-size="10.00">RenderCommand::RenderCommand</text>
</a>
</g>
</g>
<!-- Node1&#45;&gt;Node4 -->
<g id="edge4_Node000001_Node000004" class="edge">
<title>Node1&#45;&gt;Node4</title>
<g id="a_edge4_Node000001_Node000004"><a xlink:title=" ">
<path fill="none" stroke="#63b8ff" d="M225.6,-111C215.78,-111 205.86,-111 196.14,-111"/>
<polygon fill="#63b8ff" stroke="#63b8ff" points="225.79,-114.5 235.79,-111 225.79,-107.5 225.79,-114.5"/>
</a>
</g>
</g>
<!-- Node5 -->
<g id="Node000005" class="node">
<title>Node5</title>
<g id="a_Node000005"><a xlink:href="classhelios_1_1rendering_1_1RenderCommand.html#a964f958022fd5794082c60552a7ad946" target="_top" xlink:title="Constructs a new `RenderCommand`. Initializes this `RenderCommand` with weak pointers to the shader a...">
<polygon fill="white" stroke="#666666" points="196,-78 4,-78 4,-48 196,-48 196,-78"/>
<text text-anchor="start" x="12" y="-66" font-family="Helvetica,sans-Serif" font-size="10.00">helios::rendering::</text>
<text text-anchor="middle" x="100" y="-55" font-family="Helvetica,sans-Serif" font-size="10.00">RenderCommand::RenderCommand</text>
</a>
</g>
</g>
<!-- Node1&#45;&gt;Node5 -->
<g id="edge5_Node000001_Node000005" class="edge">
<title>Node1&#45;&gt;Node5</title>
<g id="a_edge5_Node000001_Node000005"><a xlink:title=" ">
<path fill="none" stroke="#63b8ff" d="M248.75,-93.83C223.96,-88.66 196.95,-83.02 172.89,-78"/>
<polygon fill="#63b8ff" stroke="#63b8ff" points="248.35,-97.33 258.86,-95.94 249.78,-90.47 248.35,-97.33"/>
</a>
</g>
</g>
<!-- Node6 -->
<g id="Node000006" class="node">
<title>Node6</title>
<g id="a_Node000006"><a xlink:href="classhelios_1_1rendering_1_1RenderCommand.html#abdcb8135fa8f6bed19a52c0a98404288" target="_top" xlink:title=" ">
<polygon fill="white" stroke="#666666" points="200,-30 0,-30 0,0 200,0 200,-30"/>
<text text-anchor="start" x="8" y="-18" font-family="Helvetica,sans-Serif" font-size="10.00">helios::rendering::</text>
<text text-anchor="middle" x="100" y="-7" font-family="Helvetica,sans-Serif" font-size="10.00">RenderCommand::~RenderCommand</text>
</a>
</g>
</g>
<!-- Node1&#45;&gt;Node6 -->
<g id="edge6_Node000001_Node000006" class="edge">
<title>Node1&#45;&gt;Node6</title>
<g id="a_edge6_Node000001_Node000006"><a xlink:title=" ">
<path fill="none" stroke="#63b8ff" d="M299.16,-90.37C273.33,-74.41 235.49,-52.77 200,-39 191.34,-35.64 182.07,-32.65 172.81,-30.02"/>
<polygon fill="#63b8ff" stroke="#63b8ff" points="297.44,-93.42 307.78,-95.75 301.15,-87.48 297.44,-93.42"/>
</a>
</g>
</g>
</g>
</svg>
</svg>

<style type='text/css'>
<![CDATA[
[data-mouse-over-selected='false'] { opacity: 0.7; }
[data-mouse-over-selected='true']  { opacity: 1.0; }
]]>
</style>
<script type="application/ecmascript"><![CDATA[
document.addEventListener('DOMContentLoaded', (event) => {
  highlightEdges();
  highlightAdjacentNodes();
});
]]></script>
</svg>
