<?xml version="1.0" encoding="UTF-8" standalone="no"?>
<!DOCTYPE svg PUBLIC "-//W3C//DTD SVG 1.1//EN"
 "http://www.w3.org/Graphics/SVG/1.1/DTD/svg11.dtd">
<!-- Generated by graphviz version 2.43.0 (0)
 -->
<!-- Title: helios::rendering::RenderingDevice::render Pages: 1 -->
<svg width="370pt" height="134pt"
 viewBox="0.00 0.00 370.00 134.00" xmlns="http://www.w3.org/2000/svg" xmlns:xlink="http://www.w3.org/1999/xlink">
<g id="graph0" class="graph" transform="scale(1 1) rotate(0) translate(4 130)">
<title>helios::rendering::RenderingDevice::render</title>
<!-- Node1 -->
<g id="Node000001" class="node">
<title>Node1</title>
<g id="a_Node000001"><a xlink:title="Convenience method to subsequently call `beginRenderPass`, `doRender`, and `endRenderPass` (in this o...">
<polygon fill="#999999" stroke="#666666" points="137,-78 0,-78 0,-48 137,-48 137,-78"/>
<text text-anchor="start" x="8" y="-66" font-family="Helvetica,sans-Serif" font-size="10.00">helios::rendering::</text>
<text text-anchor="middle" x="68.5" y="-55" font-family="Helvetica,sans-Serif" font-size="10.00">RenderingDevice::render</text>
</a>
</g>
</g>
<!-- Node2 -->
<g id="Node000002" class="node">
<title>Node2</title>
<g id="a_Node000002"><a xlink:href="classhelios_1_1rendering_1_1RenderingDevice.html#a88169f8a968bce5a7d67446c61504d2f" target="_top" xlink:title="Signals this device that the application is now ready to begin a new render pass.">
<polygon fill="white" stroke="#666666" points="362,-126 173,-126 173,-96 362,-96 362,-126"/>
<text text-anchor="start" x="181" y="-114" font-family="Helvetica,sans-Serif" font-size="10.00">helios::rendering::</text>
<text text-anchor="middle" x="267.5" y="-103" font-family="Helvetica,sans-Serif" font-size="10.00">RenderingDevice::beginRenderPass</text>
</a>
</g>
</g>
<!-- Node1&#45;&gt;Node2 -->
<g id="edge1_Node000001_Node000002" class="edge">
<title>Node1&#45;&gt;Node2</title>
<g id="a_edge1_Node000001_Node000002"><a xlink:title=" ">
<path fill="none" stroke="#63b8ff" d="M131.29,-78.06C151.55,-82.99 174.23,-88.52 195.14,-93.61"/>
<polygon fill="#63b8ff" stroke="#63b8ff" points="194.38,-97.03 204.93,-96 196.04,-90.23 194.38,-97.03"/>
</a>
</g>
</g>
<!-- Node3 -->
<g id="Node000003" class="node">
<title>Node3</title>
<g id="a_Node000003"><a xlink:href="classhelios_1_1rendering_1_1RenderingDevice.html#a64e0eddc87562bc3e40ecc2cd9439e6b" target="_top" xlink:title="Advises this RenderingDevice to process the specified RenderPass.">
<polygon fill="white" stroke="#666666" points="343.5,-78 191.5,-78 191.5,-48 343.5,-48 343.5,-78"/>
<text text-anchor="start" x="199.5" y="-66" font-family="Helvetica,sans-Serif" font-size="10.00">helios::rendering::</text>
<text text-anchor="middle" x="267.5" y="-55" font-family="Helvetica,sans-Serif" font-size="10.00">RenderingDevice::doRender</text>
</a>
</g>
</g>
<!-- Node1&#45;&gt;Node3 -->
<g id="edge2_Node000001_Node000003" class="edge">
<title>Node1&#45;&gt;Node3</title>
<g id="a_edge2_Node000001_Node000003"><a xlink:title=" ">
<path fill="none" stroke="#63b8ff" d="M137.02,-63C151.23,-63 166.39,-63 181.16,-63"/>
<polygon fill="#63b8ff" stroke="#63b8ff" points="181.3,-66.5 191.3,-63 181.3,-59.5 181.3,-66.5"/>
</a>
</g>
</g>
<!-- Node4 -->
<g id="Node000004" class="node">
<title>Node4</title>
<g id="a_Node000004"><a xlink:href="classhelios_1_1rendering_1_1RenderingDevice.html#a1e3cfb7c060175c9005102a121f4c36d" target="_top" xlink:title="Ends the specified render pass of this RenderingDevice.">
<polygon fill="white" stroke="#666666" points="357.5,-30 177.5,-30 177.5,0 357.5,0 357.5,-30"/>
<text text-anchor="start" x="185.5" y="-18" font-family="Helvetica,sans-Serif" font-size="10.00">helios::rendering::</text>
<text text-anchor="middle" x="267.5" y="-7" font-family="Helvetica,sans-Serif" font-size="10.00">RenderingDevice::endRenderPass</text>
</a>
</g>
</g>
<!-- Node1&#45;&gt;Node4 -->
<g id="edge3_Node000001_Node000004" class="edge">
<title>Node1&#45;&gt;Node4</title>
<g id="a_edge3_Node000001_Node000004"><a xlink:title=" ">
<path fill="none" stroke="#63b8ff" d="M131.29,-47.94C151.55,-43.01 174.23,-37.48 195.14,-32.39"/>
<polygon fill="#63b8ff" stroke="#63b8ff" points="196.04,-35.77 204.93,-30 194.38,-28.97 196.04,-35.77"/>
</a>
</g>
</g>
</g>
</svg>
