<?xml version="1.0" encoding="UTF-8" standalone="no"?>
<!DOCTYPE svg PUBLIC "-//W3C//DTD SVG 1.1//EN"
 "http://www.w3.org/Graphics/SVG/1.1/DTD/svg11.dtd">
<!-- Generated by graphviz version 2.43.0 (0)
 -->
<!-- Title: helios::engine::game::components::scene::SceneNodeComponent::onAttach Pages: 1 -->
<svg width="588pt" height="119pt"
 viewBox="0.00 0.00 588.00 118.50" xmlns="http://www.w3.org/2000/svg" xmlns:xlink="http://www.w3.org/1999/xlink">
<g id="graph0" class="graph" transform="scale(1 1) rotate(0) translate(4 114.5)">
<title>helios::engine::game::components::scene::SceneNodeComponent::onAttach</title>
<!-- Node1 -->
<g id="Node000001" class="node">
<title>Node1</title>
<g id="a_Node000001"><a xlink:title="Called when the component is attached to a GameObject.">
<polygon fill="#999999" stroke="#666666" points="177,-95 0,-95 0,-54 177,-54 177,-95"/>
<text text-anchor="start" x="8" y="-83" font-family="Helvetica,sans-Serif" font-size="10.00">helios::engine::game</text>
<text text-anchor="start" x="8" y="-72" font-family="Helvetica,sans-Serif" font-size="10.00">::components::scene::</text>
<text text-anchor="middle" x="88.5" y="-61" font-family="Helvetica,sans-Serif" font-size="10.00">SceneNodeComponent::onAttach</text>
</a>
</g>
</g>
<!-- Node2 -->
<g id="Node000002" class="node">
<title>Node2</title>
<g id="a_Node000002"><a xlink:href="classhelios_1_1engine_1_1game_1_1Component.html#a0894e93b95d6d0b71602b8803d2cc213" target="_top" xlink:title="Returns the owning GameObject.">
<polygon fill="white" stroke="#666666" points="573,-110.5 429,-110.5 429,-80.5 573,-80.5 573,-110.5"/>
<text text-anchor="start" x="437" y="-98.5" font-family="Helvetica,sans-Serif" font-size="10.00">helios::engine::game</text>
<text text-anchor="middle" x="501" y="-87.5" font-family="Helvetica,sans-Serif" font-size="10.00">::Component::gameObject</text>
</a>
</g>
</g>
<!-- Node1&#45;&gt;Node2 -->
<g id="edge1_Node000001_Node000002" class="edge">
<title>Node1&#45;&gt;Node2</title>
<g id="a_edge1_Node000001_Node000002"><a xlink:title=" ">
<path fill="none" stroke="#63b8ff" d="M177.24,-93.69C189.2,-95.68 201.37,-97.38 213,-98.5 289.54,-105.87 309.12,-99.51 386,-98.5 396.61,-98.36 407.77,-98.15 418.79,-97.9"/>
<polygon fill="#63b8ff" stroke="#63b8ff" points="418.94,-101.4 428.86,-97.66 418.78,-94.4 418.94,-101.4"/>
</a>
</g>
</g>
<!-- Node3 -->
<g id="Node000003" class="node">
<title>Node3</title>
<g id="a_Node000003"><a xlink:href="classhelios_1_1engine_1_1game_1_1Component.html#a3a4f0b840b179c07299fc291a57fb51f" target="_top" xlink:title="Called when the component is attached to a GameObject.">
<polygon fill="white" stroke="#666666" points="363.5,-89.5 235.5,-89.5 235.5,-59.5 363.5,-59.5 363.5,-89.5"/>
<text text-anchor="start" x="243.5" y="-77.5" font-family="Helvetica,sans-Serif" font-size="10.00">helios::engine::game</text>
<text text-anchor="middle" x="299.5" y="-66.5" font-family="Helvetica,sans-Serif" font-size="10.00">::Component::onAttach</text>
</a>
</g>
</g>
<!-- Node1&#45;&gt;Node3 -->
<g id="edge2_Node000001_Node000003" class="edge">
<title>Node1&#45;&gt;Node3</title>
<g id="a_edge2_Node000001_Node000003"><a xlink:title=" ">
<path fill="none" stroke="#63b8ff" d="M177.23,-74.5C193.26,-74.5 209.84,-74.5 225.39,-74.5"/>
<polygon fill="#63b8ff" stroke="#63b8ff" points="225.45,-78 235.45,-74.5 225.45,-71 225.45,-78"/>
</a>
</g>
</g>
<!-- Node4 -->
<g id="Node000004" class="node">
<title>Node4</title>
<g id="a_Node000004"><a xlink:href="classhelios_1_1engine_1_1game_1_1components_1_1model_1_1ModelAabbComponent.html#af6bfb7c93720d3859802f0ab58f1b685" target="_top" xlink:title="Sets the AABB for this component.">
<polygon fill="white" stroke="#666666" points="386,-41 213,-41 213,0 386,0 386,-41"/>
<text text-anchor="start" x="221" y="-29" font-family="Helvetica,sans-Serif" font-size="10.00">helios::engine::game</text>
<text text-anchor="start" x="221" y="-18" font-family="Helvetica,sans-Serif" font-size="10.00">::components::model::</text>
<text text-anchor="middle" x="299.5" y="-7" font-family="Helvetica,sans-Serif" font-size="10.00">ModelAabbComponent::setAabb</text>
</a>
</g>
</g>
<!-- Node1&#45;&gt;Node4 -->
<g id="edge4_Node000001_Node000004" class="edge">
<title>Node1&#45;&gt;Node4</title>
<g id="a_edge4_Node000001_Node000004"><a xlink:title=" ">
<path fill="none" stroke="#63b8ff" d="M169.11,-53.93C182.16,-50.56 195.77,-47.04 209.04,-43.61"/>
<polygon fill="#63b8ff" stroke="#63b8ff" points="210.3,-46.9 219.11,-41.01 208.55,-40.12 210.3,-46.9"/>
</a>
</g>
</g>
<!-- Node3&#45;&gt;Node2 -->
<g id="edge3_Node000003_Node000002" class="edge">
<title>Node3&#45;&gt;Node2</title>
<g id="a_edge3_Node000003_Node000002"><a xlink:title=" ">
<path fill="none" stroke="#63b8ff" d="M363.62,-81.14C381.15,-82.99 400.44,-85.02 418.84,-86.96"/>
<polygon fill="#63b8ff" stroke="#63b8ff" points="418.65,-90.46 428.96,-88.02 419.38,-83.49 418.65,-90.46"/>
</a>
</g>
</g>
<!-- Node5 -->
<g id="Node000005" class="node">
<title>Node5</title>
<g id="a_Node000005"><a xlink:href="classhelios_1_1engine_1_1game_1_1components_1_1model_1_1ModelAabbComponent.html#ae07bdb0d996f909c13004b3db209492c" target="_top" xlink:title="Retrieves the stored AABB.">
<polygon fill="white" stroke="#666666" points="580,-41 422,-41 422,0 580,0 580,-41"/>
<text text-anchor="start" x="430" y="-29" font-family="Helvetica,sans-Serif" font-size="10.00">helios::engine::game</text>
<text text-anchor="start" x="430" y="-18" font-family="Helvetica,sans-Serif" font-size="10.00">::components::model::</text>
<text text-anchor="middle" x="501" y="-7" font-family="Helvetica,sans-Serif" font-size="10.00">ModelAabbComponent::aabb</text>
</a>
</g>
</g>
<!-- Node4&#45;&gt;Node5 -->
<g id="edge5_Node000004_Node000005" class="edge">
<title>Node4&#45;&gt;Node5</title>
<g id="a_edge5_Node000004_Node000005"><a xlink:title=" ">
<path fill="none" stroke="#63b8ff" d="M386.26,-20.5C394.67,-20.5 403.22,-20.5 411.65,-20.5"/>
<polygon fill="#63b8ff" stroke="#63b8ff" points="411.87,-24 421.87,-20.5 411.87,-17 411.87,-24"/>
</a>
</g>
</g>
</g>
</svg>
