<?xml version="1.0" encoding="UTF-8" standalone="no"?>
<!DOCTYPE svg PUBLIC "-//W3C//DTD SVG 1.1//EN"
 "http://www.w3.org/Graphics/SVG/1.1/DTD/svg11.dtd">
<!-- Generated by graphviz version 2.43.0 (0)
 -->
<!-- Title: helios::engine::game::components::physics::Move2DComponent::move Pages: 1 -->
<svg width="513pt" height="135pt"
 viewBox="0.00 0.00 513.00 135.00" xmlns="http://www.w3.org/2000/svg" xmlns:xlink="http://www.w3.org/1999/xlink">
<g id="graph0" class="graph" transform="scale(1 1) rotate(0) translate(4 131)">
<title>helios::engine::game::components::physics::Move2DComponent::move</title>
<!-- Node1 -->
<g id="Node000001" class="node">
<title>Node1</title>
<g id="a_Node000001"><a xlink:title="Sets the movement direction and throttle.">
<polygon fill="#999999" stroke="#666666" points="153,-95 0,-95 0,-54 153,-54 153,-95"/>
<text text-anchor="start" x="8" y="-83" font-family="Helvetica,sans-Serif" font-size="10.00">helios::engine::game</text>
<text text-anchor="start" x="8" y="-72" font-family="Helvetica,sans-Serif" font-size="10.00">::components::physics</text>
<text text-anchor="middle" x="76.5" y="-61" font-family="Helvetica,sans-Serif" font-size="10.00">::Move2DComponent::move</text>
</a>
</g>
</g>
<!-- Node2 -->
<g id="Node000002" class="node">
<title>Node2</title>
<g id="a_Node000002"><a xlink:href="namespacehelios_1_1math.html#a73c58ac1ac41973b9927ab6893662104" target="_top" xlink:title="Converts an angle from radians to degrees.">
<polygon fill="white" stroke="#666666" points="330.5,-127 208.5,-127 208.5,-108 330.5,-108 330.5,-127"/>
<text text-anchor="middle" x="269.5" y="-115" font-family="Helvetica,sans-Serif" font-size="10.00">helios::math::degrees</text>
</a>
</g>
</g>
<!-- Node1&#45;&gt;Node2 -->
<g id="edge1_Node000001_Node000002" class="edge">
<title>Node1&#45;&gt;Node2</title>
<g id="a_edge1_Node000001_Node000002"><a xlink:title=" ">
<path fill="none" stroke="#63b8ff" d="M153.26,-91.56C174.37,-96.31 196.83,-101.36 216.25,-105.74"/>
<polygon fill="#63b8ff" stroke="#63b8ff" points="215.59,-109.18 226.11,-107.96 217.12,-102.35 215.59,-109.18"/>
</a>
</g>
</g>
<!-- Node4 -->
<g id="Node000004" class="node">
<title>Node4</title>
<g id="a_Node000004"><a xlink:href="structhelios_1_1math_1_1vec2.html#a865490c9a5afdf0f5121c45b2157f1ff" target="_top" xlink:title="Returns the magnitude of this vec2&lt;T&gt;.">
<polygon fill="white" stroke="#666666" points="323,-89.5 216,-89.5 216,-59.5 323,-59.5 323,-89.5"/>
<text text-anchor="start" x="224" y="-77.5" font-family="Helvetica,sans-Serif" font-size="10.00">helios::math::vec2</text>
<text text-anchor="middle" x="269.5" y="-66.5" font-family="Helvetica,sans-Serif" font-size="10.00">::length</text>
</a>
</g>
</g>
<!-- Node1&#45;&gt;Node4 -->
<g id="edge3_Node000001_Node000004" class="edge">
<title>Node1&#45;&gt;Node4</title>
<g id="a_edge3_Node000001_Node000004"><a xlink:title=" ">
<path fill="none" stroke="#63b8ff" d="M153.26,-74.5C170.6,-74.5 188.84,-74.5 205.57,-74.5"/>
<polygon fill="#63b8ff" stroke="#63b8ff" points="205.77,-78 215.77,-74.5 205.77,-71 205.77,-78"/>
</a>
</g>
</g>
<!-- Node5 -->
<g id="Node000005" class="node">
<title>Node5</title>
<g id="a_Node000005"><a xlink:href="classhelios_1_1engine_1_1game_1_1components_1_1physics_1_1Move2DComponent.html#ab097d0a5c803ab9dd295368b155decbb" target="_top" xlink:title="Returns the current throttle value (0.0 to 1.0).">
<polygon fill="white" stroke="#666666" points="350,-41 189,-41 189,0 350,0 350,-41"/>
<text text-anchor="start" x="197" y="-29" font-family="Helvetica,sans-Serif" font-size="10.00">helios::engine::game</text>
<text text-anchor="start" x="197" y="-18" font-family="Helvetica,sans-Serif" font-size="10.00">::components::physics</text>
<text text-anchor="middle" x="269.5" y="-7" font-family="Helvetica,sans-Serif" font-size="10.00">::Move2DComponent::throttle</text>
</a>
</g>
</g>
<!-- Node1&#45;&gt;Node5 -->
<g id="edge4_Node000001_Node000005" class="edge">
<title>Node1&#45;&gt;Node5</title>
<g id="a_edge4_Node000001_Node000005"><a xlink:title=" ">
<path fill="none" stroke="#63b8ff" d="M150.25,-53.93C161.95,-50.62 174.13,-47.18 186.03,-43.82"/>
<polygon fill="#63b8ff" stroke="#63b8ff" points="187.28,-47.1 195.95,-41.01 185.37,-40.36 187.28,-47.1"/>
</a>
</g>
</g>
<!-- Node3 -->
<g id="Node000003" class="node">
<title>Node3</title>
<g id="a_Node000003"><a xlink:href="namespacehelios_1_1math.html#a4949642a7cca09c7950bb6a1b75260c9" target="_top" xlink:title="Converts an angle from degrees to radians.">
<polygon fill="white" stroke="#666666" points="505,-127 386,-127 386,-108 505,-108 505,-127"/>
<text text-anchor="middle" x="445.5" y="-115" font-family="Helvetica,sans-Serif" font-size="10.00">helios::math::radians</text>
</a>
</g>
</g>
<!-- Node2&#45;&gt;Node3 -->
<g id="edge2_Node000002_Node000003" class="edge">
<title>Node2&#45;&gt;Node3</title>
<g id="a_edge2_Node000002_Node000003"><a xlink:title=" ">
<path fill="none" stroke="#63b8ff" d="M330.87,-117.5C345.38,-117.5 360.99,-117.5 375.85,-117.5"/>
<polygon fill="#63b8ff" stroke="#63b8ff" points="376,-121 386,-117.5 376,-114 376,-121"/>
</a>
</g>
</g>
</g>
</svg>
