<?xml version="1.0" encoding="UTF-8" standalone="no"?>
<!DOCTYPE svg PUBLIC "-//W3C//DTD SVG 1.1//EN"
 "http://www.w3.org/Graphics/SVG/1.1/DTD/svg11.dtd">
<!-- Generated by graphviz version 2.43.0 (0)
 -->
<!-- Title: helios::event::EventManager::EventManager Pages: 1 -->
<svg width="356pt" height="326pt"
 viewBox="0.00 0.00 356.00 326.00" xmlns="http://www.w3.org/2000/svg" xmlns:xlink="http://www.w3.org/1999/xlink">
<g id="graph0" class="graph" transform="scale(1 1) rotate(0) translate(4 322)">
<title>helios::event::EventManager::EventManager</title>
<!-- Node1 -->
<g id="Node000001" class="node">
<title>Node1</title>
<g id="a_Node000001"><a xlink:title=" ">
<polygon fill="#999999" stroke="#666666" points="348,-174 192,-174 192,-144 348,-144 348,-174"/>
<text text-anchor="start" x="200" y="-162" font-family="Helvetica,sans-Serif" font-size="10.00">helios::event::EventManager</text>
<text text-anchor="middle" x="270" y="-151" font-family="Helvetica,sans-Serif" font-size="10.00">::EventManager</text>
</a>
</g>
</g>
<!-- Node2 -->
<g id="Node000002" class="node">
<title>Node2</title>
<g id="a_Node000002"><a xlink:href="classhelios_1_1event_1_1BasicEventManager.html#ac477416fc138acbb03df5e946dc99240" target="_top" xlink:title="Dispatches all events of the queue, passing ownership to the underlying Dispatcher....">
<polygon fill="white" stroke="#666666" points="148,-318 8,-318 8,-288 148,-288 148,-318"/>
<text text-anchor="start" x="16" y="-306" font-family="Helvetica,sans-Serif" font-size="10.00">helios::event::BasicEvent</text>
<text text-anchor="middle" x="78" y="-295" font-family="Helvetica,sans-Serif" font-size="10.00">Manager::dispatchAll</text>
</a>
</g>
</g>
<!-- Node1&#45;&gt;Node2 -->
<g id="edge1_Node000001_Node000002" class="edge">
<title>Node1&#45;&gt;Node2</title>
<g id="a_edge1_Node000001_Node000002"><a xlink:title=" ">
<path fill="none" stroke="#63b8ff" d="M252.83,-182.4C233.01,-209.41 196.94,-253.4 156,-279 150.54,-282.41 144.55,-285.38 138.41,-287.94"/>
<polygon fill="#63b8ff" stroke="#63b8ff" points="255.68,-184.43 258.69,-174.27 250,-180.34 255.68,-184.43"/>
</a>
</g>
</g>
<!-- Node3 -->
<g id="Node000003" class="node">
<title>Node3</title>
<g id="a_Node000003"><a xlink:href="classhelios_1_1event_1_1EventManager.html#a296603f6b1d157e9c3b2ccceb39d5787" target="_top" xlink:title="Dispatches all events currently held in the event queue.">
<polygon fill="white" stroke="#666666" points="156,-270 0,-270 0,-240 156,-240 156,-270"/>
<text text-anchor="start" x="8" y="-258" font-family="Helvetica,sans-Serif" font-size="10.00">helios::event::EventManager</text>
<text text-anchor="middle" x="78" y="-247" font-family="Helvetica,sans-Serif" font-size="10.00">::dispatchAll</text>
</a>
</g>
</g>
<!-- Node1&#45;&gt;Node3 -->
<g id="edge2_Node000001_Node000003" class="edge">
<title>Node1&#45;&gt;Node3</title>
<g id="a_edge2_Node000001_Node000003"><a xlink:title=" ">
<path fill="none" stroke="#63b8ff" d="M240.44,-180.22C218.29,-195.9 186.36,-216.9 156,-231 148.89,-234.3 141.2,-237.31 133.54,-239.99"/>
<polygon fill="#63b8ff" stroke="#63b8ff" points="242.63,-182.95 248.71,-174.28 238.55,-177.27 242.63,-182.95"/>
</a>
</g>
</g>
<!-- Node4 -->
<g id="Node000004" class="node">
<title>Node4</title>
<g id="a_Node000004"><a xlink:href="classhelios_1_1event_1_1BasicEventManager.html#a572c4c66409151b16992008849d9bbe6" target="_top" xlink:title="Posts an event based on the specified policy to the EventQueue.">
<polygon fill="white" stroke="#666666" points="148,-222 8,-222 8,-192 148,-192 148,-222"/>
<text text-anchor="start" x="16" y="-210" font-family="Helvetica,sans-Serif" font-size="10.00">helios::event::BasicEvent</text>
<text text-anchor="middle" x="78" y="-199" font-family="Helvetica,sans-Serif" font-size="10.00">Manager::post</text>
</a>
</g>
</g>
<!-- Node1&#45;&gt;Node4 -->
<g id="edge3_Node000001_Node000004" class="edge">
<title>Node1&#45;&gt;Node4</title>
<g id="a_edge3_Node000001_Node000004"><a xlink:title=" ">
<path fill="none" stroke="#63b8ff" d="M199.69,-176.51C179.58,-181.59 157.82,-187.09 138.38,-192"/>
<polygon fill="#63b8ff" stroke="#63b8ff" points="200.57,-179.9 209.4,-174.06 198.85,-173.11 200.57,-179.9"/>
</a>
</g>
</g>
<!-- Node5 -->
<g id="Node000005" class="node">
<title>Node5</title>
<g id="a_Node000005"><a xlink:href="classhelios_1_1event_1_1EventManager.html#a1ce9ef29ac8f29915b027fdc888db6a9" target="_top" xlink:title="Posts the event to the queue using the APPEND policy, passing ownership of the event to the underlyin...">
<polygon fill="white" stroke="#666666" points="156,-174 0,-174 0,-144 156,-144 156,-174"/>
<text text-anchor="start" x="8" y="-162" font-family="Helvetica,sans-Serif" font-size="10.00">helios::event::EventManager</text>
<text text-anchor="middle" x="78" y="-151" font-family="Helvetica,sans-Serif" font-size="10.00">::post</text>
</a>
</g>
</g>
<!-- Node1&#45;&gt;Node5 -->
<g id="edge4_Node000001_Node000005" class="edge">
<title>Node1&#45;&gt;Node5</title>
<g id="a_edge4_Node000001_Node000005"><a xlink:title=" ">
<path fill="none" stroke="#63b8ff" d="M181.94,-159C173.32,-159 164.62,-159 156.12,-159"/>
<polygon fill="#63b8ff" stroke="#63b8ff" points="181.99,-162.5 191.99,-159 181.99,-155.5 181.99,-162.5"/>
</a>
</g>
</g>
<!-- Node6 -->
<g id="Node000006" class="node">
<title>Node6</title>
<g id="a_Node000006"><a xlink:href="classhelios_1_1event_1_1EventManager.html#a7355384d93cdcebec0ee5f3fcb57bb2f" target="_top" xlink:title="Posts the event to the queue, passing ownership of the event to the underlying queue.">
<polygon fill="white" stroke="#666666" points="156,-126 0,-126 0,-96 156,-96 156,-126"/>
<text text-anchor="start" x="8" y="-114" font-family="Helvetica,sans-Serif" font-size="10.00">helios::event::EventManager</text>
<text text-anchor="middle" x="78" y="-103" font-family="Helvetica,sans-Serif" font-size="10.00">::post</text>
</a>
</g>
</g>
<!-- Node1&#45;&gt;Node6 -->
<g id="edge5_Node000001_Node000006" class="edge">
<title>Node1&#45;&gt;Node6</title>
<g id="a_edge5_Node000001_Node000006"><a xlink:title=" ">
<path fill="none" stroke="#63b8ff" d="M199.69,-141.49C179.58,-136.41 157.82,-130.91 138.38,-126"/>
<polygon fill="#63b8ff" stroke="#63b8ff" points="198.85,-144.89 209.4,-143.94 200.57,-138.1 198.85,-144.89"/>
</a>
</g>
</g>
<!-- Node7 -->
<g id="Node000007" class="node">
<title>Node7</title>
<g id="a_Node000007"><a xlink:href="classhelios_1_1event_1_1EventManager.html#a50af37271c6a4d4d6364a61e3d6d3d31" target="_top" xlink:title="Posts the event to the underlying EventQueue using the specified policy and the specified func.">
<polygon fill="white" stroke="#666666" points="156,-78 0,-78 0,-48 156,-48 156,-78"/>
<text text-anchor="start" x="8" y="-66" font-family="Helvetica,sans-Serif" font-size="10.00">helios::event::EventManager</text>
<text text-anchor="middle" x="78" y="-55" font-family="Helvetica,sans-Serif" font-size="10.00">::post</text>
</a>
</g>
</g>
<!-- Node1&#45;&gt;Node7 -->
<g id="edge6_Node000001_Node000007" class="edge">
<title>Node1&#45;&gt;Node7</title>
<g id="a_edge6_Node000001_Node000007"><a xlink:title=" ">
<path fill="none" stroke="#63b8ff" d="M240.44,-137.78C218.29,-122.1 186.36,-101.1 156,-87 148.89,-83.7 141.2,-80.69 133.54,-78.01"/>
<polygon fill="#63b8ff" stroke="#63b8ff" points="238.55,-140.73 248.71,-143.72 242.63,-135.05 238.55,-140.73"/>
</a>
</g>
</g>
<!-- Node8 -->
<g id="Node000008" class="node">
<title>Node8</title>
<g id="a_Node000008"><a xlink:href="classhelios_1_1event_1_1EventManager.html#ac25503abf074331900fa19d5a44a5ad0" target="_top" xlink:title="Subscribes a callback to the specified EventType.">
<polygon fill="white" stroke="#666666" points="156,-30 0,-30 0,0 156,0 156,-30"/>
<text text-anchor="start" x="8" y="-18" font-family="Helvetica,sans-Serif" font-size="10.00">helios::event::EventManager</text>
<text text-anchor="middle" x="78" y="-7" font-family="Helvetica,sans-Serif" font-size="10.00">::subscribe</text>
</a>
</g>
</g>
<!-- Node1&#45;&gt;Node8 -->
<g id="edge7_Node000001_Node000008" class="edge">
<title>Node1&#45;&gt;Node8</title>
<g id="a_edge7_Node000001_Node000008"><a xlink:title=" ">
<path fill="none" stroke="#63b8ff" d="M252.83,-135.6C233.01,-108.59 196.94,-64.6 156,-39 150.54,-35.59 144.55,-32.62 138.41,-30.06"/>
<polygon fill="#63b8ff" stroke="#63b8ff" points="250,-137.66 258.69,-143.73 255.68,-133.57 250,-137.66"/>
</a>
</g>
</g>
</g>
</svg>
