<?xml version="1.0" encoding="UTF-8" standalone="no"?>
<!DOCTYPE svg PUBLIC "-//W3C//DTD SVG 1.1//EN"
 "http://www.w3.org/Graphics/SVG/1.1/DTD/svg11.dtd">
<!-- Generated by graphviz version 2.43.0 (0)
 -->
<!-- Title: helios::core::Transform::translation Pages: 1 -->
<svg width="300pt" height="86pt"
 viewBox="0.00 0.00 300.00 86.00" xmlns="http://www.w3.org/2000/svg" xmlns:xlink="http://www.w3.org/1999/xlink">
<g id="graph0" class="graph" transform="scale(1 1) rotate(0) translate(4 82)">
<title>helios::core::Transform::translation</title>
<!-- Node1 -->
<g id="Node000001" class="node">
<title>Node1</title>
<g id="a_Node000001"><a xlink:title="Returns the current translation component of this Transform object.">
<polygon fill="#999999" stroke="#666666" points="292,-54 164,-54 164,-24 292,-24 292,-54"/>
<text text-anchor="start" x="172" y="-42" font-family="Helvetica,sans-Serif" font-size="10.00">helios::core::Transform</text>
<text text-anchor="middle" x="228" y="-31" font-family="Helvetica,sans-Serif" font-size="10.00">::translation</text>
</a>
</g>
</g>
<!-- Node1&#45;&gt;Node1 -->
<g id="edge3_Node000001_Node000001" class="edge">
<title>Node1&#45;&gt;Node1</title>
<g id="a_edge3_Node000001_Node000001"><a xlink:title=" ">
<path fill="none" stroke="#63b8ff" d="M256.71,-64.6C252.78,-68.97 243.21,-72 228,-72 202.38,-72 192.77,-63.41 199.17,-54.28"/>
<polygon fill="#63b8ff" stroke="#63b8ff" points="260.21,-64.32 256.83,-54.28 253.21,-64.23 260.21,-64.32"/>
</a>
</g>
</g>
<!-- Node2 -->
<g id="Node000002" class="node">
<title>Node2</title>
<g id="a_Node000002"><a xlink:href="classhelios_1_1core_1_1Transform.html#a9711584d0ce4920826495e3643b6b930" target="_top" xlink:title="Sets the translation component of this Transform. Marks this Transform object as dirty.">
<polygon fill="white" stroke="#666666" points="128,-78 0,-78 0,-48 128,-48 128,-78"/>
<text text-anchor="start" x="8" y="-66" font-family="Helvetica,sans-Serif" font-size="10.00">helios::core::Transform</text>
<text text-anchor="middle" x="64" y="-55" font-family="Helvetica,sans-Serif" font-size="10.00">::setTranslation</text>
</a>
</g>
</g>
<!-- Node1&#45;&gt;Node2 -->
<g id="edge1_Node000001_Node000002" class="edge">
<title>Node1&#45;&gt;Node2</title>
<g id="a_edge1_Node000001_Node000002"><a xlink:title=" ">
<path fill="none" stroke="#63b8ff" d="M153.91,-49.83C145.32,-51.1 136.62,-52.39 128.19,-53.64"/>
<polygon fill="#63b8ff" stroke="#63b8ff" points="154.52,-53.28 163.9,-48.35 153.5,-46.35 154.52,-53.28"/>
</a>
</g>
</g>
<!-- Node3 -->
<g id="Node000003" class="node">
<title>Node3</title>
<g id="a_Node000003"><a xlink:href="classhelios_1_1core_1_1Transform.html#adcfd7fa04e50e4b56cda48458ef30cbe" target="_top" xlink:title="Constructs a new Transformation matrix from the specified rotation, scale and translation.">
<polygon fill="white" stroke="#666666" points="128,-30 0,-30 0,0 128,0 128,-30"/>
<text text-anchor="start" x="8" y="-18" font-family="Helvetica,sans-Serif" font-size="10.00">helios::core::Transform</text>
<text text-anchor="middle" x="64" y="-7" font-family="Helvetica,sans-Serif" font-size="10.00">::Transform</text>
</a>
</g>
</g>
<!-- Node1&#45;&gt;Node3 -->
<g id="edge2_Node000001_Node000003" class="edge">
<title>Node1&#45;&gt;Node3</title>
<g id="a_edge2_Node000001_Node000003"><a xlink:title=" ">
<path fill="none" stroke="#63b8ff" d="M153.91,-28.17C145.32,-26.9 136.62,-25.61 128.19,-24.36"/>
<polygon fill="#63b8ff" stroke="#63b8ff" points="153.5,-31.65 163.9,-29.65 154.52,-24.72 153.5,-31.65"/>
</a>
</g>
</g>
</g>
</svg>
