<?xml version="1.0" encoding="UTF-8" standalone="no"?>
<!DOCTYPE svg PUBLIC "-//W3C//DTD SVG 1.1//EN"
 "http://www.w3.org/Graphics/SVG/1.1/DTD/svg11.dtd">
<!-- Generated by graphviz version 2.43.0 (0)
 -->
<!-- Title: helios::input::gamepad::GamepadState::triggerRight Pages: 1 -->
<svg width="377pt" height="86pt"
 viewBox="0.00 0.00 377.00 86.00" xmlns="http://www.w3.org/2000/svg" xmlns:xlink="http://www.w3.org/1999/xlink">
<g id="graph0" class="graph" transform="scale(1 1) rotate(0) translate(4 82)">
<title>helios::input::gamepad::GamepadState::triggerRight</title>
<!-- Node1 -->
<g id="Node000001" class="node">
<title>Node1</title>
<g id="a_Node000001"><a xlink:title="Returns the current value of the right trigger.">
<polygon fill="#999999" stroke="#666666" points="369,-54 210,-54 210,-24 369,-24 369,-54"/>
<text text-anchor="start" x="218" y="-42" font-family="Helvetica,sans-Serif" font-size="10.00">helios::input::gamepad</text>
<text text-anchor="middle" x="289.5" y="-31" font-family="Helvetica,sans-Serif" font-size="10.00">::GamepadState::triggerRight</text>
</a>
</g>
</g>
<!-- Node2 -->
<g id="Node000002" class="node">
<title>Node2</title>
<g id="a_Node000002"><a xlink:href="classhelios_1_1input_1_1gamepad_1_1GamepadState.html#a5d43064d7d1137357e7d546cf21bc222" target="_top" xlink:title="Creates a new GamepadState object.">
<polygon fill="white" stroke="#666666" points="174,-78 0,-78 0,-48 174,-48 174,-78"/>
<text text-anchor="start" x="8" y="-66" font-family="Helvetica,sans-Serif" font-size="10.00">helios::input::gamepad</text>
<text text-anchor="middle" x="87" y="-55" font-family="Helvetica,sans-Serif" font-size="10.00">::GamepadState::GamepadState</text>
</a>
</g>
</g>
<!-- Node1&#45;&gt;Node2 -->
<g id="edge1_Node000001_Node000002" class="edge">
<title>Node1&#45;&gt;Node2</title>
<g id="a_edge1_Node000001_Node000002"><a xlink:title=" ">
<path fill="none" stroke="#63b8ff" d="M199.84,-49.61C191.28,-50.64 182.6,-51.68 174.06,-52.7"/>
<polygon fill="#63b8ff" stroke="#63b8ff" points="200.32,-53.08 209.83,-48.42 199.49,-46.13 200.32,-53.08"/>
</a>
</g>
</g>
<!-- Node3 -->
<g id="Node000003" class="node">
<title>Node3</title>
<g id="a_Node000003"><a xlink:href="classhelios_1_1input_1_1gamepad_1_1GamepadState.html#a7d7e7b45d8f7a735ab51f5481b438825" target="_top" xlink:title="Updates the axes and button states of this GamepadState object.">
<polygon fill="white" stroke="#666666" points="166,-30 8,-30 8,0 166,0 166,-30"/>
<text text-anchor="start" x="16" y="-18" font-family="Helvetica,sans-Serif" font-size="10.00">helios::input::gamepad</text>
<text text-anchor="middle" x="87" y="-7" font-family="Helvetica,sans-Serif" font-size="10.00">::GamepadState::updateAxes</text>
</a>
</g>
</g>
<!-- Node1&#45;&gt;Node3 -->
<g id="edge2_Node000001_Node000003" class="edge">
<title>Node1&#45;&gt;Node3</title>
<g id="a_edge2_Node000001_Node000003"><a xlink:title=" ">
<path fill="none" stroke="#63b8ff" d="M199.64,-28.36C188.47,-27.03 177.1,-25.67 166.11,-24.35"/>
<polygon fill="#63b8ff" stroke="#63b8ff" points="199.49,-31.87 209.83,-29.58 200.32,-24.92 199.49,-31.87"/>
</a>
</g>
</g>
</g>
</svg>
