<?xml version="1.0" encoding="UTF-8" standalone="no"?>
<!DOCTYPE svg PUBLIC "-//W3C//DTD SVG 1.1//EN"
 "http://www.w3.org/Graphics/SVG/1.1/DTD/svg11.dtd">
<!-- Generated by graphviz version 2.43.0 (0)
 -->
<!-- Title: helios::rendering::RenderTarget::setSize Pages: 1 -->
<svg width="284pt" height="104pt"
 viewBox="0.00 0.00 284.00 104.00" xmlns="http://www.w3.org/2000/svg" xmlns:xlink="http://www.w3.org/1999/xlink">
<g id="graph0" class="graph" transform="scale(1 1) rotate(0) translate(4 100)">
<title>helios::rendering::RenderTarget::setSize</title>
<!-- Node1 -->
<g id="Node000001" class="node">
<title>Node1</title>
<g id="a_Node000001"><a xlink:title="Resizes this RenderTarget to the specified dimensions and propagates the change to every viewport.">
<polygon fill="#999999" stroke="#666666" points="122,-54 0,-54 0,-24 122,-24 122,-54"/>
<text text-anchor="start" x="8" y="-42" font-family="Helvetica,sans-Serif" font-size="10.00">helios::rendering::</text>
<text text-anchor="middle" x="61" y="-31" font-family="Helvetica,sans-Serif" font-size="10.00">RenderTarget::setSize</text>
</a>
</g>
</g>
<!-- Node2 -->
<g id="Node000002" class="node">
<title>Node2</title>
<g id="a_Node000002"><a xlink:href="classhelios_1_1rendering_1_1RenderTarget.html#a3e4f37f9cfb37b3327ef7285319552fe" target="_top" xlink:title="Gets the height of the render target.">
<polygon fill="white" stroke="#666666" points="276,-78 158,-78 158,-48 276,-48 276,-78"/>
<text text-anchor="start" x="166" y="-66" font-family="Helvetica,sans-Serif" font-size="10.00">helios::rendering::</text>
<text text-anchor="middle" x="217" y="-55" font-family="Helvetica,sans-Serif" font-size="10.00">RenderTarget::height</text>
</a>
</g>
</g>
<!-- Node1&#45;&gt;Node2 -->
<g id="edge1_Node000001_Node000002" class="edge">
<title>Node1&#45;&gt;Node2</title>
<g id="a_edge1_Node000001_Node000002"><a xlink:title=" ">
<path fill="none" stroke="#63b8ff" d="M122.42,-48.42C130.69,-49.7 139.23,-51.04 147.62,-52.34"/>
<polygon fill="#63b8ff" stroke="#63b8ff" points="147.35,-55.84 157.77,-53.92 148.43,-48.93 147.35,-55.84"/>
</a>
</g>
</g>
<!-- Node3 -->
<g id="Node000003" class="node">
<title>Node3</title>
<g id="a_Node000003"><a xlink:href="classhelios_1_1rendering_1_1RenderTarget.html#a4e5e2981a9a80dcf74936038c14d21f6" target="_top" xlink:title="Gets the width of the render target.">
<polygon fill="white" stroke="#666666" points="274,-30 160,-30 160,0 274,0 274,-30"/>
<text text-anchor="start" x="168" y="-18" font-family="Helvetica,sans-Serif" font-size="10.00">helios::rendering::</text>
<text text-anchor="middle" x="217" y="-7" font-family="Helvetica,sans-Serif" font-size="10.00">RenderTarget::width</text>
</a>
</g>
</g>
<!-- Node1&#45;&gt;Node3 -->
<g id="edge3_Node000001_Node000003" class="edge">
<title>Node1&#45;&gt;Node3</title>
<g id="a_edge3_Node000001_Node000003"><a xlink:title=" ">
<path fill="none" stroke="#63b8ff" d="M122.42,-29.58C131.36,-28.19 140.61,-26.75 149.66,-25.34"/>
<polygon fill="#63b8ff" stroke="#63b8ff" points="150.43,-28.76 159.77,-23.76 149.35,-21.84 150.43,-28.76"/>
</a>
</g>
</g>
<!-- Node2&#45;&gt;Node2 -->
<g id="edge2_Node000002_Node000002" class="edge">
<title>Node2&#45;&gt;Node2</title>
<g id="a_edge2_Node000002_Node000002"><a xlink:title=" ">
<path fill="none" stroke="#63b8ff" d="M189.58,-78.28C183.48,-87.41 192.62,-96 217,-96 231.47,-96 240.57,-92.97 244.31,-88.6"/>
<polygon fill="#63b8ff" stroke="#63b8ff" points="247.81,-88.31 244.42,-78.28 240.81,-88.24 247.81,-88.31"/>
</a>
</g>
</g>
</g>
</svg>
