<?xml version="1.0" encoding="UTF-8" standalone="no"?>
<!DOCTYPE svg PUBLIC "-//W3C//DTD SVG 1.1//EN"
 "http://www.w3.org/Graphics/SVG/1.1/DTD/svg11.dtd">
<!-- Generated by graphviz version 2.43.0 (0)
 -->
<!-- Title: helios::input::gamepad::GamepadState::GamepadState Pages: 1 -->
<!--zoomable 806 -->

<svg id="main" version="1.1" xmlns="http://www.w3.org/2000/svg" xmlns:xlink="http://www.w3.org/1999/xlink" xml:space="preserve" onload="init(evt)">

<style type="text/css"><![CDATA[
.node, .edge {opacity: 0.7;}
.node.selected, .edge.selected {opacity: 1;}
.edge:hover path { stroke: red; }
.edge:hover polygon { stroke: red; fill: red; }
]]></style>

<defs>
  <circle id="rim" cx="0" cy="0" r="7"/>
  <circle id="rim2" cx="0" cy="0" r="3.5"/>
  <g id="zoomPlus">
    <use xlink:href="#rim" fill="#404040"><set attributeName="fill" to="#808080" begin="zoomplus.mouseover" end="zoomplus.mouseout"/></use>
    <path d="M-4,0h8M0,-4v8" fill="none" stroke="white" stroke-width="1.5" pointer-events="none"/>
  </g>
  <g id="zoomMin">
    <use xlink:href="#rim" fill="#404040"><set attributeName="fill" to="#808080" begin="zoomminus.mouseover" end="zoomminus.mouseout"/></use>
    <path d="M-4,0h8" fill="none" stroke="white" stroke-width="1.5" pointer-events="none"/>
  </g>
  <g id="arrowUp" transform="translate(30 24)">
    <use xlink:href="#rim"/>
    <path pointer-events="none" fill="none" stroke="white" stroke-width="1.5" d="M0,-3.0v7 M-2.5,-0.5L0,-3.0L2.5,-0.5"/>
  </g>
  <g id="arrowRight" transform="rotate(90) translate(36 -43)">
    <use xlink:href="#rim"/>
    <path pointer-events="none" fill="none" stroke="white" stroke-width="1.5" d="M0,-3.0v7 M-2.5,-0.5L0,-3.0L2.5,-0.5"/>
  </g>
  <g id="arrowDown" transform="rotate(180) translate(-30 -48)">
    <use xlink:href="#rim"/>
    <path pointer-events="none" fill="none" stroke="white" stroke-width="1.5" d="M0,-3.0v7 M-2.5,-0.5L0,-3.0L2.5,-0.5"/>
  </g>
  <g id="arrowLeft" transform="rotate(270) translate(-36 17)">
    <use xlink:href="#rim"/>
    <path pointer-events="none" fill="none" stroke="white" stroke-width="1.5" d="M0,-3.0v7 M-2.5,-0.5L0,-3.0L2.5,-0.5"/>
  </g>
  <g id="resetDef">
    <use xlink:href="#rim2" fill="#404040"><set attributeName="fill" to="#808080" begin="reset.mouseover" end="reset.mouseout"/></use>
  </g>
</defs>
<script type="application/ecmascript">
var viewWidth = 415;
var viewHeight = 806;
var sectionId = 'dynsection-0';
</script>
<script type="application/ecmascript" xlink:href="svg.min.js"/>
<svg id="graph" class="graph">
<g id="viewport">
<title>helios::input::gamepad::GamepadState::GamepadState</title>
<!-- Node1 -->
<g id="Node000001" class="node">
<title>Node1</title>
<g id="a_Node000001"><a xlink:title="Creates a new GamepadState object.">
<polygon fill="#999999" stroke="#666666" points="174,-414 0,-414 0,-384 174,-384 174,-414"/>
<text text-anchor="start" x="8" y="-402" font-family="Helvetica,sans-Serif" font-size="10.00">helios::input::gamepad</text>
<text text-anchor="middle" x="87" y="-391" font-family="Helvetica,sans-Serif" font-size="10.00">::GamepadState::GamepadState</text>
</a>
</g>
</g>
<!-- Node2 -->
<g id="Node000002" class="node">
<title>Node2</title>
<g id="a_Node000002"><a xlink:href="classhelios_1_1input_1_1gamepad_1_1GamepadState.html#ad50c09d2f84f2e1095f937c787eac86e" target="_top" xlink:title="Returns true when the A button is pressed.">
<polygon fill="white" stroke="#666666" points="378.5,-798 238.5,-798 238.5,-768 378.5,-768 378.5,-798"/>
<text text-anchor="start" x="246.5" y="-786" font-family="Helvetica,sans-Serif" font-size="10.00">helios::input::gamepad</text>
<text text-anchor="middle" x="308.5" y="-775" font-family="Helvetica,sans-Serif" font-size="10.00">::GamepadState::buttonA</text>
</a>
</g>
</g>
<!-- Node1&#45;&gt;Node2 -->
<g id="edge1_Node000001_Node000002" class="edge">
<title>Node1&#45;&gt;Node2</title>
<g id="a_edge1_Node000001_Node000002"><a xlink:title=" ">
<path fill="none" stroke="#63b8ff" d="M88.26,-414.01C90.07,-469.06 104.03,-661.71 210,-759 215.47,-764.03 221.83,-768.04 228.62,-771.25"/>
<polygon fill="#63b8ff" stroke="#63b8ff" points="227.52,-774.58 238.1,-775.13 230.18,-768.1 227.52,-774.58"/>
</a>
</g>
</g>
<!-- Node3 -->
<g id="Node000003" class="node">
<title>Node3</title>
<g id="a_Node000003"><a xlink:href="classhelios_1_1input_1_1gamepad_1_1GamepadState.html#a068967ab65a6874ce5b5de039af79e8c" target="_top" xlink:title="Returns true when the B button is pressed.">
<polygon fill="white" stroke="#666666" points="378.5,-750 238.5,-750 238.5,-720 378.5,-720 378.5,-750"/>
<text text-anchor="start" x="246.5" y="-738" font-family="Helvetica,sans-Serif" font-size="10.00">helios::input::gamepad</text>
<text text-anchor="middle" x="308.5" y="-727" font-family="Helvetica,sans-Serif" font-size="10.00">::GamepadState::buttonB</text>
</a>
</g>
</g>
<!-- Node1&#45;&gt;Node3 -->
<g id="edge2_Node000001_Node000003" class="edge">
<title>Node1&#45;&gt;Node3</title>
<g id="a_edge2_Node000001_Node000003"><a xlink:title=" ">
<path fill="none" stroke="#63b8ff" d="M89.15,-414.1C93.83,-464.53 115.97,-628.58 210,-711 215.59,-715.9 222.02,-719.83 228.85,-722.98"/>
<polygon fill="#63b8ff" stroke="#63b8ff" points="227.81,-726.33 238.39,-726.82 230.42,-719.84 227.81,-726.33"/>
</a>
</g>
</g>
<!-- Node4 -->
<g id="Node000004" class="node">
<title>Node4</title>
<g id="a_Node000004"><a xlink:href="classhelios_1_1input_1_1gamepad_1_1GamepadState.html#a8b2355cd51de412b86fc565fa4f2d4e4" target="_top" xlink:title="Returns true when the Back button is pressed.">
<polygon fill="white" stroke="#666666" points="387,-702 230,-702 230,-672 387,-672 387,-702"/>
<text text-anchor="start" x="238" y="-690" font-family="Helvetica,sans-Serif" font-size="10.00">helios::input::gamepad</text>
<text text-anchor="middle" x="308.5" y="-679" font-family="Helvetica,sans-Serif" font-size="10.00">::GamepadState::buttonBack</text>
</a>
</g>
</g>
<!-- Node1&#45;&gt;Node4 -->
<g id="edge3_Node000001_Node000004" class="edge">
<title>Node1&#45;&gt;Node4</title>
<g id="a_edge3_Node000001_Node000004"><a xlink:title=" ">
<path fill="none" stroke="#63b8ff" d="M90.36,-414.32C98.23,-459.83 127.81,-595.22 210,-663 213.33,-665.75 216.92,-668.18 220.71,-670.35"/>
<polygon fill="#63b8ff" stroke="#63b8ff" points="219.32,-673.57 229.83,-674.92 222.46,-667.31 219.32,-673.57"/>
</a>
</g>
</g>
<!-- Node5 -->
<g id="Node000005" class="node">
<title>Node5</title>
<g id="a_Node000005"><a xlink:href="classhelios_1_1input_1_1gamepad_1_1GamepadState.html#a7a4a6a420b36e858ab68f6fd181ca0f0" target="_top" xlink:title="Returns true when the D&#45;pad Down button is pressed.">
<polygon fill="white" stroke="#666666" points="401.5,-654 215.5,-654 215.5,-624 401.5,-624 401.5,-654"/>
<text text-anchor="start" x="223.5" y="-642" font-family="Helvetica,sans-Serif" font-size="10.00">helios::input::gamepad</text>
<text text-anchor="middle" x="308.5" y="-631" font-family="Helvetica,sans-Serif" font-size="10.00">::GamepadState::buttonDpadDown</text>
</a>
</g>
</g>
<!-- Node1&#45;&gt;Node5 -->
<g id="edge4_Node000001_Node000005" class="edge">
<title>Node1&#45;&gt;Node5</title>
<g id="a_edge4_Node000001_Node000005"><a xlink:title=" ">
<path fill="none" stroke="#63b8ff" d="M91.97,-414.08C103.22,-453.67 139.15,-561.25 210,-615 211.81,-616.37 213.68,-617.66 215.61,-618.88"/>
<polygon fill="#63b8ff" stroke="#63b8ff" points="213.96,-621.97 224.4,-623.78 217.36,-615.85 213.96,-621.97"/>
</a>
</g>
</g>
<!-- Node6 -->
<g id="Node000006" class="node">
<title>Node6</title>
<g id="a_Node000006"><a xlink:href="classhelios_1_1input_1_1gamepad_1_1GamepadState.html#a1de9efc2cfe80fa50b14d3f0a7bee4ac" target="_top" xlink:title="Returns true when the D&#45;pad Left button is pressed.">
<polygon fill="white" stroke="#666666" points="396.5,-606 220.5,-606 220.5,-576 396.5,-576 396.5,-606"/>
<text text-anchor="start" x="228.5" y="-594" font-family="Helvetica,sans-Serif" font-size="10.00">helios::input::gamepad</text>
<text text-anchor="middle" x="308.5" y="-583" font-family="Helvetica,sans-Serif" font-size="10.00">::GamepadState::buttonDpadLeft</text>
</a>
</g>
</g>
<!-- Node1&#45;&gt;Node6 -->
<g id="edge5_Node000001_Node000006" class="edge">
<title>Node1&#45;&gt;Node6</title>
<g id="a_edge5_Node000001_Node000006"><a xlink:title=" ">
<path fill="none" stroke="#63b8ff" d="M94.48,-414.07C109.57,-447.26 150.33,-526.87 210,-567 212.29,-568.54 214.68,-569.99 217.13,-571.34"/>
<polygon fill="#63b8ff" stroke="#63b8ff" points="215.77,-574.57 226.29,-575.84 218.86,-568.28 215.77,-574.57"/>
</a>
</g>
</g>
<!-- Node7 -->
<g id="Node000007" class="node">
<title>Node7</title>
<g id="a_Node000007"><a xlink:href="classhelios_1_1input_1_1gamepad_1_1GamepadState.html#afbd0ee0861ba38451c1aecbb6fb0e283" target="_top" xlink:title="Returns true when the D&#45;pad Right button is pressed.">
<polygon fill="white" stroke="#666666" points="400.5,-558 216.5,-558 216.5,-528 400.5,-528 400.5,-558"/>
<text text-anchor="start" x="224.5" y="-546" font-family="Helvetica,sans-Serif" font-size="10.00">helios::input::gamepad</text>
<text text-anchor="middle" x="308.5" y="-535" font-family="Helvetica,sans-Serif" font-size="10.00">::GamepadState::buttonDpadRight</text>
</a>
</g>
</g>
<!-- Node1&#45;&gt;Node7 -->
<g id="edge6_Node000001_Node000007" class="edge">
<title>Node1&#45;&gt;Node7</title>
<g id="a_edge6_Node000001_Node000007"><a xlink:title=" ">
<path fill="none" stroke="#63b8ff" d="M98.93,-414.14C118.3,-439.82 161.23,-491.77 210,-519 213.27,-520.83 216.69,-522.52 220.19,-524.08"/>
<polygon fill="#63b8ff" stroke="#63b8ff" points="219.07,-527.4 229.65,-527.93 221.71,-520.92 219.07,-527.4"/>
</a>
</g>
</g>
<!-- Node8 -->
<g id="Node000008" class="node">
<title>Node8</title>
<g id="a_Node000008"><a xlink:href="classhelios_1_1input_1_1gamepad_1_1GamepadState.html#ab92525c10fcd68ba5b3c780f52e38174" target="_top" xlink:title="Returns true when the D&#45;pad Up button is pressed.">
<polygon fill="white" stroke="#666666" points="394.5,-510 222.5,-510 222.5,-480 394.5,-480 394.5,-510"/>
<text text-anchor="start" x="230.5" y="-498" font-family="Helvetica,sans-Serif" font-size="10.00">helios::input::gamepad</text>
<text text-anchor="middle" x="308.5" y="-487" font-family="Helvetica,sans-Serif" font-size="10.00">::GamepadState::buttonDpadUp</text>
</a>
</g>
</g>
<!-- Node1&#45;&gt;Node8 -->
<g id="edge7_Node000001_Node000008" class="edge">
<title>Node1&#45;&gt;Node8</title>
<g id="a_edge7_Node000001_Node000008"><a xlink:title=" ">
<path fill="none" stroke="#63b8ff" d="M109.04,-414.02C132.61,-430.19 172.42,-455.67 210,-471 215.15,-473.1 220.52,-475.05 225.99,-476.85"/>
<polygon fill="#63b8ff" stroke="#63b8ff" points="225.32,-480.3 235.9,-479.94 227.4,-473.62 225.32,-480.3"/>
</a>
</g>
</g>
<!-- Node9 -->
<g id="Node000009" class="node">
<title>Node9</title>
<g id="a_Node000009"><a xlink:href="classhelios_1_1input_1_1gamepad_1_1GamepadState.html#ac37675a6b2a9f26eacb75481a8654e60" target="_top" xlink:title="Returns true when the Guide button is pressed.">
<polygon fill="white" stroke="#666666" points="389,-462 228,-462 228,-432 389,-432 389,-462"/>
<text text-anchor="start" x="236" y="-450" font-family="Helvetica,sans-Serif" font-size="10.00">helios::input::gamepad</text>
<text text-anchor="middle" x="308.5" y="-439" font-family="Helvetica,sans-Serif" font-size="10.00">::GamepadState::buttonGuide</text>
</a>
</g>
</g>
<!-- Node1&#45;&gt;Node9 -->
<g id="edge8_Node000001_Node000009" class="edge">
<title>Node1&#45;&gt;Node9</title>
<g id="a_edge8_Node000001_Node000009"><a xlink:title=" ">
<path fill="none" stroke="#63b8ff" d="M156.85,-414.06C179.73,-419.06 205.38,-424.67 228.94,-429.82"/>
<polygon fill="#63b8ff" stroke="#63b8ff" points="228.38,-433.28 238.9,-432 229.87,-426.44 228.38,-433.28"/>
</a>
</g>
</g>
<!-- Node10 -->
<g id="Node000010" class="node">
<title>Node10</title>
<g id="a_Node000010"><a xlink:href="classhelios_1_1input_1_1gamepad_1_1GamepadState.html#a0e29924d8d026778ace2e91c778ba4a5" target="_top" xlink:title="Returns true when the left bumper is pressed.">
<polygon fill="white" stroke="#666666" points="403,-414 214,-414 214,-384 403,-384 403,-414"/>
<text text-anchor="start" x="222" y="-402" font-family="Helvetica,sans-Serif" font-size="10.00">helios::input::gamepad</text>
<text text-anchor="middle" x="308.5" y="-391" font-family="Helvetica,sans-Serif" font-size="10.00">::GamepadState::buttonLeftBumper</text>
</a>
</g>
</g>
<!-- Node1&#45;&gt;Node10 -->
<g id="edge9_Node000001_Node000010" class="edge">
<title>Node1&#45;&gt;Node10</title>
<g id="a_edge9_Node000001_Node000010"><a xlink:title=" ">
<path fill="none" stroke="#63b8ff" d="M174.12,-399C183.75,-399 193.63,-399 203.45,-399"/>
<polygon fill="#63b8ff" stroke="#63b8ff" points="203.65,-402.5 213.65,-399 203.65,-395.5 203.65,-402.5"/>
</a>
</g>
</g>
<!-- Node11 -->
<g id="Node000011" class="node">
<title>Node11</title>
<g id="a_Node000011"><a xlink:href="classhelios_1_1input_1_1gamepad_1_1GamepadState.html#afa01f268c73449a45d5cba341f68648a" target="_top" xlink:title="Returns true when the left thumbstick button is pressed.">
<polygon fill="white" stroke="#666666" points="401,-366 216,-366 216,-336 401,-336 401,-366"/>
<text text-anchor="start" x="224" y="-354" font-family="Helvetica,sans-Serif" font-size="10.00">helios::input::gamepad</text>
<text text-anchor="middle" x="308.5" y="-343" font-family="Helvetica,sans-Serif" font-size="10.00">::GamepadState::buttonLeftThumb</text>
</a>
</g>
</g>
<!-- Node1&#45;&gt;Node11 -->
<g id="edge10_Node000001_Node000011" class="edge">
<title>Node1&#45;&gt;Node11</title>
<g id="a_edge10_Node000001_Node000011"><a xlink:title=" ">
<path fill="none" stroke="#63b8ff" d="M156.85,-383.94C179.73,-378.94 205.38,-373.33 228.94,-368.18"/>
<polygon fill="#63b8ff" stroke="#63b8ff" points="229.87,-371.56 238.9,-366 228.38,-364.72 229.87,-371.56"/>
</a>
</g>
</g>
<!-- Node12 -->
<g id="Node000012" class="node">
<title>Node12</title>
<g id="a_Node000012"><a xlink:href="classhelios_1_1input_1_1gamepad_1_1GamepadState.html#a0153832e95905c8c7ad3ad9092d8eac0" target="_top" xlink:title="Returns true when the right bumper is pressed.">
<polygon fill="white" stroke="#666666" points="407,-318 210,-318 210,-288 407,-288 407,-318"/>
<text text-anchor="start" x="218" y="-306" font-family="Helvetica,sans-Serif" font-size="10.00">helios::input::gamepad</text>
<text text-anchor="middle" x="308.5" y="-295" font-family="Helvetica,sans-Serif" font-size="10.00">::GamepadState::buttonRightBumper</text>
</a>
</g>
</g>
<!-- Node1&#45;&gt;Node12 -->
<g id="edge11_Node000001_Node000012" class="edge">
<title>Node1&#45;&gt;Node12</title>
<g id="a_edge11_Node000001_Node000012"><a xlink:title=" ">
<path fill="none" stroke="#63b8ff" d="M109.04,-383.98C132.61,-367.81 172.42,-342.33 210,-327 215.15,-324.9 220.52,-322.95 225.99,-321.15"/>
<polygon fill="#63b8ff" stroke="#63b8ff" points="227.4,-324.38 235.9,-318.06 225.32,-317.7 227.4,-324.38"/>
</a>
</g>
</g>
<!-- Node13 -->
<g id="Node000013" class="node">
<title>Node13</title>
<g id="a_Node000013"><a xlink:href="classhelios_1_1input_1_1gamepad_1_1GamepadState.html#af6450490a050564bf1366148b04d67de" target="_top" xlink:title="Returns true when the right thumbstick button is pressed.">
<polygon fill="white" stroke="#666666" points="404.5,-270 212.5,-270 212.5,-240 404.5,-240 404.5,-270"/>
<text text-anchor="start" x="220.5" y="-258" font-family="Helvetica,sans-Serif" font-size="10.00">helios::input::gamepad</text>
<text text-anchor="middle" x="308.5" y="-247" font-family="Helvetica,sans-Serif" font-size="10.00">::GamepadState::buttonRightThumb</text>
</a>
</g>
</g>
<!-- Node1&#45;&gt;Node13 -->
<g id="edge12_Node000001_Node000013" class="edge">
<title>Node1&#45;&gt;Node13</title>
<g id="a_edge12_Node000001_Node000013"><a xlink:title=" ">
<path fill="none" stroke="#63b8ff" d="M98.93,-383.86C118.3,-358.18 161.23,-306.23 210,-279 213.27,-277.17 216.69,-275.48 220.19,-273.92"/>
<polygon fill="#63b8ff" stroke="#63b8ff" points="221.71,-277.08 229.65,-270.07 219.07,-270.6 221.71,-277.08"/>
</a>
</g>
</g>
<!-- Node14 -->
<g id="Node000014" class="node">
<title>Node14</title>
<g id="a_Node000014"><a xlink:href="classhelios_1_1input_1_1gamepad_1_1GamepadState.html#a2023f54665e7aa39ba455a901adc6e1d" target="_top" xlink:title="Returns true when the Start button is pressed.">
<polygon fill="white" stroke="#666666" points="386.5,-222 230.5,-222 230.5,-192 386.5,-192 386.5,-222"/>
<text text-anchor="start" x="238.5" y="-210" font-family="Helvetica,sans-Serif" font-size="10.00">helios::input::gamepad</text>
<text text-anchor="middle" x="308.5" y="-199" font-family="Helvetica,sans-Serif" font-size="10.00">::GamepadState::buttonStart</text>
</a>
</g>
</g>
<!-- Node1&#45;&gt;Node14 -->
<g id="edge13_Node000001_Node000014" class="edge">
<title>Node1&#45;&gt;Node14</title>
<g id="a_edge13_Node000001_Node000014"><a xlink:title=" ">
<path fill="none" stroke="#63b8ff" d="M94.48,-383.93C109.57,-350.74 150.33,-271.13 210,-231 213.5,-228.65 217.21,-226.52 221.05,-224.61"/>
<polygon fill="#63b8ff" stroke="#63b8ff" points="222.54,-227.78 230.25,-220.51 219.69,-221.39 222.54,-227.78"/>
</a>
</g>
</g>
<!-- Node15 -->
<g id="Node000015" class="node">
<title>Node15</title>
<g id="a_Node000015"><a xlink:href="classhelios_1_1input_1_1gamepad_1_1GamepadState.html#a2416fe357772c57d9dcf0fa46f3e255c" target="_top" xlink:title="Returns true when the X button is pressed.">
<polygon fill="white" stroke="#666666" points="378.5,-174 238.5,-174 238.5,-144 378.5,-144 378.5,-174"/>
<text text-anchor="start" x="246.5" y="-162" font-family="Helvetica,sans-Serif" font-size="10.00">helios::input::gamepad</text>
<text text-anchor="middle" x="308.5" y="-151" font-family="Helvetica,sans-Serif" font-size="10.00">::GamepadState::buttonX</text>
</a>
</g>
</g>
<!-- Node1&#45;&gt;Node15 -->
<g id="edge14_Node000001_Node000015" class="edge">
<title>Node1&#45;&gt;Node15</title>
<g id="a_edge14_Node000001_Node000015"><a xlink:title=" ">
<path fill="none" stroke="#63b8ff" d="M91.97,-383.92C103.22,-344.33 139.15,-236.75 210,-183 215.78,-178.62 222.25,-175.03 229.04,-172.08"/>
<polygon fill="#63b8ff" stroke="#63b8ff" points="230.39,-175.32 238.46,-168.46 227.87,-168.78 230.39,-175.32"/>
</a>
</g>
</g>
<!-- Node16 -->
<g id="Node000016" class="node">
<title>Node16</title>
<g id="a_Node000016"><a xlink:href="classhelios_1_1input_1_1gamepad_1_1GamepadState.html#a6bbce85c5ea851e8a6fa47e3c8e1d330" target="_top" xlink:title="Returns true when the Y button is pressed.">
<polygon fill="white" stroke="#666666" points="378,-126 239,-126 239,-96 378,-96 378,-126"/>
<text text-anchor="start" x="247" y="-114" font-family="Helvetica,sans-Serif" font-size="10.00">helios::input::gamepad</text>
<text text-anchor="middle" x="308.5" y="-103" font-family="Helvetica,sans-Serif" font-size="10.00">::GamepadState::buttonY</text>
</a>
</g>
</g>
<!-- Node1&#45;&gt;Node16 -->
<g id="edge15_Node000001_Node000016" class="edge">
<title>Node1&#45;&gt;Node16</title>
<g id="a_edge15_Node000001_Node000016"><a xlink:title=" ">
<path fill="none" stroke="#63b8ff" d="M90.36,-383.68C98.23,-338.17 127.81,-202.78 210,-135 215.73,-130.27 222.26,-126.45 229.16,-123.37"/>
<polygon fill="#63b8ff" stroke="#63b8ff" points="230.72,-126.52 238.75,-119.61 228.16,-120 230.72,-126.52"/>
</a>
</g>
</g>
<!-- Node17 -->
<g id="Node000017" class="node">
<title>Node17</title>
<g id="a_Node000017"><a xlink:href="classhelios_1_1input_1_1gamepad_1_1GamepadState.html#a24dee448f65b242cfa6fb36a2615559a" target="_top" xlink:title="Returns the current value of the left trigger.">
<polygon fill="white" stroke="#666666" points="384.5,-78 232.5,-78 232.5,-48 384.5,-48 384.5,-78"/>
<text text-anchor="start" x="240.5" y="-66" font-family="Helvetica,sans-Serif" font-size="10.00">helios::input::gamepad</text>
<text text-anchor="middle" x="308.5" y="-55" font-family="Helvetica,sans-Serif" font-size="10.00">::GamepadState::triggerLeft</text>
</a>
</g>
</g>
<!-- Node1&#45;&gt;Node17 -->
<g id="edge16_Node000001_Node000017" class="edge">
<title>Node1&#45;&gt;Node17</title>
<g id="a_edge16_Node000001_Node000017"><a xlink:title=" ">
<path fill="none" stroke="#63b8ff" d="M89.15,-383.9C93.83,-333.47 115.97,-169.42 210,-87 213.99,-83.5 218.42,-80.49 223.11,-77.91"/>
<polygon fill="#63b8ff" stroke="#63b8ff" points="224.93,-80.92 232.44,-73.45 221.91,-74.61 224.93,-80.92"/>
</a>
</g>
</g>
<!-- Node18 -->
<g id="Node000018" class="node">
<title>Node18</title>
<g id="a_Node000018"><a xlink:href="classhelios_1_1input_1_1gamepad_1_1GamepadState.html#a71cd296694d25b524c2d48943faa1590" target="_top" xlink:title="Returns the current value of the right trigger.">
<polygon fill="white" stroke="#666666" points="388,-30 229,-30 229,0 388,0 388,-30"/>
<text text-anchor="start" x="237" y="-18" font-family="Helvetica,sans-Serif" font-size="10.00">helios::input::gamepad</text>
<text text-anchor="middle" x="308.5" y="-7" font-family="Helvetica,sans-Serif" font-size="10.00">::GamepadState::triggerRight</text>
</a>
</g>
</g>
<!-- Node1&#45;&gt;Node18 -->
<g id="edge17_Node000001_Node000018" class="edge">
<title>Node1&#45;&gt;Node18</title>
<g id="a_edge17_Node000001_Node000018"><a xlink:title=" ">
<path fill="none" stroke="#63b8ff" d="M88.26,-383.99C90.07,-328.94 104.03,-136.29 210,-39 213.02,-36.23 216.31,-33.76 219.79,-31.57"/>
<polygon fill="#63b8ff" stroke="#63b8ff" points="221.69,-34.52 228.8,-26.67 218.34,-28.37 221.69,-34.52"/>
</a>
</g>
</g>
</g>
</svg>

<g id="navigator" transform="translate(0 0)" fill="#404254">
  <rect fill="#f2f5e9" fill-opacity="0.5" stroke="#606060" stroke-width=".5" x="0" y="0" width="60" height="60"/>
  <use id="zoomplus" xlink:href="#zoomPlus" x="17" y="9" onmousedown="handleZoom(evt,'in')"/>
  <use id="zoomminus" xlink:href="#zoomMin" x="42" y="9" onmousedown="handleZoom(evt,'out')"/>
  <use id="reset" xlink:href="#resetDef" x="30" y="36" onmousedown="handleReset()"/>
   <use id="arrowup" xlink:href="#arrowUp" x="0" y="0" onmousedown="handlePan(0,-1)"/>
  <use id="arrowright" xlink:href="#arrowRight" x="0" y="0" onmousedown="handlePan(1,0)"/>
  <use id="arrowdown" xlink:href="#arrowDown" x="0" y="0" onmousedown="handlePan(0,1)"/>
  <use id="arrowleft" xlink:href="#arrowLeft" x="0" y="0" onmousedown="handlePan(-1,0)"/>
</g>
<svg viewBox="0 0 15 15" width="100%" height="30px" preserveAspectRatio="xMaxYMin meet">
 <g id="arrow_out" transform="scale(0.3 0.3)">
  <a xlink:href="classhelios_1_1input_1_1gamepad_1_1GamepadState_a5d43064d7d1137357e7d546cf21bc222_cgraph_org.svg" target="_base">
   <rect id="button" ry="5" rx="5" y="6" x="6" height="38" width="38"
        fill="#f2f5e9" fill-opacity="0.5" stroke="#606060" stroke-width="1.0"/>
   <path id="arrow"
     d="M 11.500037,31.436501 C 11.940474,20.09759 22.043105,11.32322 32.158766,21.979434 L 37.068811,17.246167 C 37.068811,17.246167 37.088388,32 37.088388,32 L 22.160133,31.978069 C 22.160133,31.978069 26.997745,27.140456 26.997745,27.140456 C 18.528582,18.264221 13.291696,25.230495 11.500037,31.436501 z"
     style="fill:#404040;"/>
  </a>
 </g>
</svg>

<style type='text/css'>
<![CDATA[
[data-mouse-over-selected='false'] { opacity: 0.7; }
[data-mouse-over-selected='true']  { opacity: 1.0; }
]]>
</style>
<script type="application/ecmascript"><![CDATA[
document.addEventListener('DOMContentLoaded', (event) => {
  highlightEdges();
  highlightAdjacentNodes();
});
]]></script>
</svg>
