<?xml version="1.0" encoding="UTF-8" standalone="no"?>
<!DOCTYPE svg PUBLIC "-//W3C//DTD SVG 1.1//EN"
 "http://www.w3.org/Graphics/SVG/1.1/DTD/svg11.dtd">
<!-- Generated by graphviz version 2.43.0 (0)
 -->
<!-- Title: helios::scene::Camera::setZFar Pages: 1 -->
<svg width="294pt" height="104pt"
 viewBox="0.00 0.00 294.00 104.00" xmlns="http://www.w3.org/2000/svg" xmlns:xlink="http://www.w3.org/1999/xlink">

<svg id="main" version="1.1" xmlns="http://www.w3.org/2000/svg" xmlns:xlink="http://www.w3.org/1999/xlink" xml:space="preserve">

<style type="text/css"><![CDATA[
.node, .edge {opacity: 0.7;}
.node.selected, .edge.selected {opacity: 1;}
.edge:hover path { stroke: red; }
.edge:hover polygon { stroke: red; fill: red; }
]]></style>
<script type="application/ecmascript" xlink:href="svg.min.js"/>
<svg id="graph" class="graph">
<g id="graph0" class="graph" transform="scale(1 1) rotate(0) translate(4 100)">
<title>helios::scene::Camera::setZFar</title>
<!-- Node1 -->
<g id="Node000001" class="node">
<title>Node1</title>
<g id="a_Node000001"><a xlink:title="Sets the far clipping plane distance.">
<polygon fill="#999999" stroke="#666666" points="125,-63 0,-63 0,-33 125,-33 125,-63"/>
<text text-anchor="start" x="8" y="-51" font-family="Helvetica,sans-Serif" font-size="10.00">helios::scene::Camera</text>
<text text-anchor="middle" x="62.5" y="-40" font-family="Helvetica,sans-Serif" font-size="10.00">::setZFar</text>
</a>
</g>
</g>
<!-- Node1&#45;&gt;Node1 -->
<g id="edge2_Node000001_Node000001" class="edge">
<title>Node1&#45;&gt;Node1</title>
<g id="a_edge2_Node000001_Node000001"><a xlink:title=" ">
<path fill="none" stroke="#63b8ff" d="M34.38,-63.28C28.12,-72.41 37.5,-81 62.5,-81 77.34,-81 86.68,-77.97 90.51,-73.6"/>
<polygon fill="#63b8ff" stroke="#63b8ff" points="94.01,-73.32 90.62,-63.28 87.01,-73.23 94.01,-73.32"/>
</a>
</g>
</g>
<!-- Node2 -->
<g id="Node000002" class="node">
<title>Node2</title>
<g id="a_Node000002"><a xlink:href="classhelios_1_1scene_1_1Camera.html#a6d1911bccc03c847625153d58cc49e99" target="_top" xlink:title="Constructs a camera with identity projection and view matrices.">
<polygon fill="white" stroke="#666666" points="286,-96 161,-96 161,-66 286,-66 286,-96"/>
<text text-anchor="start" x="169" y="-84" font-family="Helvetica,sans-Serif" font-size="10.00">helios::scene::Camera</text>
<text text-anchor="middle" x="223.5" y="-73" font-family="Helvetica,sans-Serif" font-size="10.00">::Camera</text>
</a>
</g>
</g>
<!-- Node1&#45;&gt;Node2 -->
<g id="edge1_Node000001_Node000002" class="edge">
<title>Node1&#45;&gt;Node2</title>
<g id="a_edge1_Node000001_Node000002"><a xlink:title=" ">
<path fill="none" stroke="#63b8ff" d="M125.43,-60.85C133.76,-62.58 142.37,-64.37 150.86,-66.13"/>
<polygon fill="#63b8ff" stroke="#63b8ff" points="150.24,-69.58 160.74,-68.18 151.66,-62.72 150.24,-69.58"/>
</a>
</g>
</g>
<!-- Node3 -->
<g id="Node000003" class="node">
<title>Node3</title>
<g id="a_Node000003"><a xlink:href="classhelios_1_1scene_1_1Camera.html#ab6f32b1cf60371dfa764adfb13d4141e" target="_top" xlink:title="Gets the current far clipping plane distance.">
<polygon fill="white" stroke="#666666" points="286,-30 161,-30 161,0 286,0 286,-30"/>
<text text-anchor="start" x="169" y="-18" font-family="Helvetica,sans-Serif" font-size="10.00">helios::scene::Camera</text>
<text text-anchor="middle" x="223.5" y="-7" font-family="Helvetica,sans-Serif" font-size="10.00">::zFar</text>
</a>
</g>
</g>
<!-- Node1&#45;&gt;Node3 -->
<g id="edge3_Node000001_Node000003" class="edge">
<title>Node1&#45;&gt;Node3</title>
<g id="a_edge3_Node000001_Node000003"><a xlink:title=" ">
<path fill="none" stroke="#63b8ff" d="M125.43,-35.15C133.76,-33.42 142.37,-31.63 150.86,-29.87"/>
<polygon fill="#63b8ff" stroke="#63b8ff" points="151.66,-33.28 160.74,-27.82 150.24,-26.42 151.66,-33.28"/>
</a>
</g>
</g>
<!-- Node3&#45;&gt;Node3 -->
<g id="edge4_Node000003_Node000003" class="edge">
<title>Node3&#45;&gt;Node3</title>
<g id="a_edge4_Node000003_Node000003"><a xlink:title=" ">
<path fill="none" stroke="#63b8ff" d="M195.38,-30.28C189.12,-39.41 198.5,-48 223.5,-48 238.34,-48 247.68,-44.97 251.51,-40.6"/>
<polygon fill="#63b8ff" stroke="#63b8ff" points="255.01,-40.32 251.62,-30.28 248.01,-40.23 255.01,-40.32"/>
</a>
</g>
</g>
</g>
</svg>
</svg>

<style type='text/css'>
<![CDATA[
[data-mouse-over-selected='false'] { opacity: 0.7; }
[data-mouse-over-selected='true']  { opacity: 1.0; }
]]>
</style>
<script type="application/ecmascript"><![CDATA[
document.addEventListener('DOMContentLoaded', (event) => {
  highlightEdges();
  highlightAdjacentNodes();
});
]]></script>
</svg>
