<?xml version="1.0" encoding="UTF-8" standalone="no"?>
<!DOCTYPE svg PUBLIC "-//W3C//DTD SVG 1.1//EN"
 "http://www.w3.org/Graphics/SVG/1.1/DTD/svg11.dtd">
<!-- Generated by graphviz version 2.43.0 (0)
 -->
<!-- Title: helios::rendering::RenderCommand::RenderCommand Pages: 1 -->
<svg width="428pt" height="277pt"
 viewBox="0.00 0.00 428.00 276.50" xmlns="http://www.w3.org/2000/svg" xmlns:xlink="http://www.w3.org/1999/xlink">

<svg id="main" version="1.1" xmlns="http://www.w3.org/2000/svg" xmlns:xlink="http://www.w3.org/1999/xlink" xml:space="preserve">

<style type="text/css"><![CDATA[
.node, .edge {opacity: 0.7;}
.node.selected, .edge.selected {opacity: 1;}
.edge:hover path { stroke: red; }
.edge:hover polygon { stroke: red; fill: red; }
]]></style>
<script type="application/ecmascript" xlink:href="svg.min.js"/>
<svg id="graph" class="graph">
<g id="graph0" class="graph" transform="scale(1 1) rotate(0) translate(4 272.5)">
<title>helios::rendering::RenderCommand::RenderCommand</title>
<!-- Node1 -->
<g id="Node000001" class="node">
<title>Node1</title>
<g id="a_Node000001"><a xlink:title="Constructs a new `RenderCommand`. Initializes this `RenderCommand` with weak pointers to the shader a...">
<polygon fill="#999999" stroke="#666666" points="192,-132 0,-132 0,-102 192,-102 192,-132"/>
<text text-anchor="start" x="8" y="-120" font-family="Helvetica,sans-Serif" font-size="10.00">helios::rendering::</text>
<text text-anchor="middle" x="96" y="-109" font-family="Helvetica,sans-Serif" font-size="10.00">RenderCommand::RenderCommand</text>
</a>
</g>
</g>
<!-- Node2 -->
<g id="Node000002" class="node">
<title>Node2</title>
<g id="a_Node000002"><a xlink:href="classhelios_1_1rendering_1_1RenderCommand.html#a12393226183cacaf5335beac7bffb6ab" target="_top" xlink:title="Returns a const ref to this command&#39;s UniformValueMap for the material.">
<polygon fill="white" stroke="#666666" points="418,-250.5 230,-250.5 230,-209.5 418,-209.5 418,-250.5"/>
<text text-anchor="start" x="238" y="-238.5" font-family="Helvetica,sans-Serif" font-size="10.00">helios::rendering::</text>
<text text-anchor="start" x="238" y="-227.5" font-family="Helvetica,sans-Serif" font-size="10.00">RenderCommand::materialUniform</text>
<text text-anchor="middle" x="324" y="-216.5" font-family="Helvetica,sans-Serif" font-size="10.00">Values</text>
</a>
</g>
</g>
<!-- Node1&#45;&gt;Node2 -->
<g id="edge1_Node000001_Node000002" class="edge">
<title>Node1&#45;&gt;Node2</title>
<g id="a_edge1_Node000001_Node000002"><a xlink:title=" ">
<path fill="none" stroke="#63b8ff" d="M116.87,-132.22C141.71,-150.64 186.07,-181.61 228,-201 231.59,-202.66 235.31,-204.26 239.09,-205.79"/>
<polygon fill="#63b8ff" stroke="#63b8ff" points="238.02,-209.13 248.61,-209.46 240.54,-202.6 238.02,-209.13"/>
</a>
</g>
</g>
<!-- Node3 -->
<g id="Node000003" class="node">
<title>Node3</title>
<g id="a_Node000003"><a xlink:href="classhelios_1_1rendering_1_1RenderCommand.html#ad4a8aa4a94a4abbd21e984ac47c60c04" target="_top" xlink:title="Returns a const ref to this command&#39;s UniformValueMap for the object.">
<polygon fill="white" stroke="#666666" points="412.5,-173.5 235.5,-173.5 235.5,-132.5 412.5,-132.5 412.5,-173.5"/>
<text text-anchor="start" x="243.5" y="-161.5" font-family="Helvetica,sans-Serif" font-size="10.00">helios::rendering::</text>
<text text-anchor="start" x="243.5" y="-150.5" font-family="Helvetica,sans-Serif" font-size="10.00">RenderCommand::objectUniform</text>
<text text-anchor="middle" x="324" y="-139.5" font-family="Helvetica,sans-Serif" font-size="10.00">Values</text>
</a>
</g>
</g>
<!-- Node1&#45;&gt;Node3 -->
<g id="edge3_Node000001_Node000003" class="edge">
<title>Node1&#45;&gt;Node3</title>
<g id="a_edge3_Node000001_Node000003"><a xlink:title=" ">
<path fill="none" stroke="#63b8ff" d="M191.21,-132.01C202.54,-133.81 214.14,-135.66 225.52,-137.47"/>
<polygon fill="#63b8ff" stroke="#63b8ff" points="225.03,-140.94 235.45,-139.05 226.13,-134.02 225.03,-140.94"/>
</a>
</g>
</g>
<!-- Node4 -->
<g id="Node000004" class="node">
<title>Node4</title>
<g id="a_Node000004"><a xlink:href="classhelios_1_1rendering_1_1RenderCommand.html#ab99843dfddf77202869e685426d0d759" target="_top" xlink:title="Prevent copying. A RenderCommand is not intended to be copied.">
<polygon fill="white" stroke="#666666" points="420,-96 228,-96 228,-66 420,-66 420,-96"/>
<text text-anchor="start" x="236" y="-84" font-family="Helvetica,sans-Serif" font-size="10.00">helios::rendering::</text>
<text text-anchor="middle" x="324" y="-73" font-family="Helvetica,sans-Serif" font-size="10.00">RenderCommand::RenderCommand</text>
</a>
</g>
</g>
<!-- Node1&#45;&gt;Node4 -->
<g id="edge5_Node000001_Node000004" class="edge">
<title>Node1&#45;&gt;Node4</title>
<g id="a_edge5_Node000001_Node000004"><a xlink:title=" ">
<path fill="none" stroke="#63b8ff" d="M191.21,-101.99C200.28,-100.55 209.52,-99.08 218.68,-97.62"/>
<polygon fill="#63b8ff" stroke="#63b8ff" points="219.26,-101.07 228.58,-96.04 218.16,-94.16 219.26,-101.07"/>
</a>
</g>
</g>
<!-- Node5 -->
<g id="Node000005" class="node">
<title>Node5</title>
<g id="a_Node000005"><a xlink:href="classhelios_1_1rendering_1_1RenderCommand.html#a40e3e87c38bd9d0d6aca469cfad4a0c2" target="_top" xlink:title="Returns a weak ptr to the RenderPrototype associated with this command. Use `renderPrototype....">
<polygon fill="white" stroke="#666666" points="417,-30 231,-30 231,0 417,0 417,-30"/>
<text text-anchor="start" x="239" y="-18" font-family="Helvetica,sans-Serif" font-size="10.00">helios::rendering::</text>
<text text-anchor="middle" x="324" y="-7" font-family="Helvetica,sans-Serif" font-size="10.00">RenderCommand::renderPrototype</text>
</a>
</g>
</g>
<!-- Node1&#45;&gt;Node5 -->
<g id="edge7_Node000001_Node000005" class="edge">
<title>Node1&#45;&gt;Node5</title>
<g id="a_edge7_Node000001_Node000005"><a xlink:title=" ">
<path fill="none" stroke="#63b8ff" d="M129.52,-101.96C155.99,-89.75 194.35,-72.14 228,-57 244.77,-49.45 263.26,-41.25 279.43,-34.12"/>
<polygon fill="#63b8ff" stroke="#63b8ff" points="280.91,-37.29 288.65,-30.05 278.09,-30.88 280.91,-37.29"/>
</a>
</g>
</g>
<!-- Node2&#45;&gt;Node2 -->
<g id="edge2_Node000002_Node000002" class="edge">
<title>Node2&#45;&gt;Node2</title>
<g id="a_edge2_Node000002_Node000002"><a xlink:title=" ">
<path fill="none" stroke="#63b8ff" d="M282.1,-250.6C277.52,-260.15 291.49,-268.5 324,-268.5 344.32,-268.5 357.39,-265.24 363.23,-260.46"/>
<polygon fill="#63b8ff" stroke="#63b8ff" points="366.66,-261.16 365.9,-250.6 359.91,-259.33 366.66,-261.16"/>
</a>
</g>
</g>
<!-- Node3&#45;&gt;Node3 -->
<g id="edge4_Node000003_Node000003" class="edge">
<title>Node3&#45;&gt;Node3</title>
<g id="a_edge4_Node000003_Node000003"><a xlink:title=" ">
<path fill="none" stroke="#63b8ff" d="M282.1,-173.6C277.52,-183.15 291.49,-191.5 324,-191.5 344.32,-191.5 357.39,-188.24 363.23,-183.46"/>
<polygon fill="#63b8ff" stroke="#63b8ff" points="366.66,-184.16 365.9,-173.6 359.91,-182.33 366.66,-184.16"/>
</a>
</g>
</g>
<!-- Node4&#45;&gt;Node4 -->
<g id="edge6_Node000004_Node000004" class="edge">
<title>Node4&#45;&gt;Node4</title>
<g id="a_edge6_Node000004_Node000004"><a xlink:title=" ">
<path fill="none" stroke="#63b8ff" d="M283.92,-96.28C275.02,-105.41 288.38,-114 324,-114 345.15,-114 358.46,-110.97 363.91,-106.6"/>
<polygon fill="#63b8ff" stroke="#63b8ff" points="367.41,-106.33 364.08,-96.28 360.41,-106.22 367.41,-106.33"/>
</a>
</g>
</g>
<!-- Node5&#45;&gt;Node5 -->
<g id="edge8_Node000005_Node000005" class="edge">
<title>Node5&#45;&gt;Node5</title>
<g id="a_edge8_Node000005_Node000005"><a xlink:title=" ">
<path fill="none" stroke="#63b8ff" d="M283.92,-30.28C275.02,-39.41 288.38,-48 324,-48 345.15,-48 358.46,-44.97 363.91,-40.6"/>
<polygon fill="#63b8ff" stroke="#63b8ff" points="367.41,-40.33 364.08,-30.28 360.41,-40.22 367.41,-40.33"/>
</a>
</g>
</g>
</g>
</svg>
</svg>

<style type='text/css'>
<![CDATA[
[data-mouse-over-selected='false'] { opacity: 0.7; }
[data-mouse-over-selected='true']  { opacity: 1.0; }
]]>
</style>
<script type="application/ecmascript"><![CDATA[
document.addEventListener('DOMContentLoaded', (event) => {
  highlightEdges();
  highlightAdjacentNodes();
});
]]></script>
</svg>
