<?xml version="1.0" encoding="UTF-8" standalone="no"?>
<!DOCTYPE svg PUBLIC "-//W3C//DTD SVG 1.1//EN"
 "http://www.w3.org/Graphics/SVG/1.1/DTD/svg11.dtd">
<!-- Generated by graphviz version 2.43.0 (0)
 -->
<!-- Title: helios::util::log::LogManager::disableSink Pages: 1 -->
<svg width="322pt" height="56pt"
 viewBox="0.00 0.00 322.00 56.00" xmlns="http://www.w3.org/2000/svg" xmlns:xlink="http://www.w3.org/1999/xlink">
<g id="graph0" class="graph" transform="scale(1 1) rotate(0) translate(4 52)">
<title>helios::util::log::LogManager::disableSink</title>
<!-- Node1 -->
<g id="Node000001" class="node">
<title>Node1</title>
<g id="a_Node000001"><a xlink:title="Disables a sink by its type identifier.">
<polygon fill="#999999" stroke="#666666" points="314,-30 175,-30 175,0 314,0 314,-30"/>
<text text-anchor="start" x="183" y="-18" font-family="Helvetica,sans-Serif" font-size="10.00">helios::util::log::</text>
<text text-anchor="middle" x="244.5" y="-7" font-family="Helvetica,sans-Serif" font-size="10.00">LogManager::disableSink</text>
</a>
</g>
</g>
<!-- Node1&#45;&gt;Node1 -->
<g id="edge1_Node000001_Node000001" class="edge">
<title>Node1&#45;&gt;Node1</title>
<g id="a_edge1_Node000001_Node000001"><a xlink:title=" ">
<path fill="none" stroke="#63b8ff" d="M274.96,-40.6C270.79,-44.97 260.64,-48 244.5,-48 217.31,-48 207.12,-39.41 213.91,-30.28"/>
<polygon fill="#63b8ff" stroke="#63b8ff" points="278.46,-40.32 275.09,-30.28 271.46,-40.23 278.46,-40.32"/>
</a>
</g>
</g>
<!-- Node2 -->
<g id="Node000002" class="node">
<title>Node2</title>
<g id="a_Node000002"><a xlink:href="classhelios_1_1util_1_1log_1_1LogManager.html#ae38829e7fe152b20d7d48ced16c34341" target="_top" xlink:title="Disables a sink by instance.">
<polygon fill="white" stroke="#666666" points="139,-30 0,-30 0,0 139,0 139,-30"/>
<text text-anchor="start" x="8" y="-18" font-family="Helvetica,sans-Serif" font-size="10.00">helios::util::log::</text>
<text text-anchor="middle" x="69.5" y="-7" font-family="Helvetica,sans-Serif" font-size="10.00">LogManager::disableSink</text>
</a>
</g>
</g>
<!-- Node1&#45;&gt;Node2 -->
<g id="edge2_Node000001_Node000002" class="edge">
<title>Node1&#45;&gt;Node2</title>
<g id="a_edge2_Node000001_Node000002"><a xlink:title=" ">
<path fill="none" stroke="#63b8ff" d="M164.41,-15C155.97,-15 147.44,-15 139.13,-15"/>
<polygon fill="#63b8ff" stroke="#63b8ff" points="164.63,-18.5 174.63,-15 164.63,-11.5 164.63,-18.5"/>
</a>
</g>
</g>
</g>
</svg>
