<?xml version="1.0" encoding="UTF-8" standalone="no"?>
<!DOCTYPE svg PUBLIC "-//W3C//DTD SVG 1.1//EN"
 "http://www.w3.org/Graphics/SVG/1.1/DTD/svg11.dtd">
<!-- Generated by graphviz version 2.43.0 (0)
 -->
<!-- Title: helios::window::Window::Window Pages: 1 -->
<svg width="312pt" height="122pt"
 viewBox="0.00 0.00 312.00 122.00" xmlns="http://www.w3.org/2000/svg" xmlns:xlink="http://www.w3.org/1999/xlink">
<g id="graph0" class="graph" transform="scale(1 1) rotate(0) translate(4 118)">
<title>helios::window::Window::Window</title>
<!-- Node1 -->
<g id="Node000001" class="node">
<title>Node1</title>
<g id="a_Node000001"><a xlink:title="Constructs a new Window based on the provided configuration.">
<polygon fill="#999999" stroke="#666666" points="134,-63 0,-63 0,-33 134,-33 134,-63"/>
<text text-anchor="start" x="8" y="-51" font-family="Helvetica,sans-Serif" font-size="10.00">helios::window::Window</text>
<text text-anchor="middle" x="67" y="-40" font-family="Helvetica,sans-Serif" font-size="10.00">::Window</text>
</a>
</g>
</g>
<!-- Node2 -->
<g id="Node000002" class="node">
<title>Node2</title>
<g id="a_Node000002"><a xlink:href="classhelios_1_1window_1_1Window.html#a6bf6b252e26575dfced4453a3184994d" target="_top" xlink:title="Returns the RenderTarget associated with this Window.">
<polygon fill="white" stroke="#666666" points="304,-96 170,-96 170,-66 304,-66 304,-96"/>
<text text-anchor="start" x="178" y="-84" font-family="Helvetica,sans-Serif" font-size="10.00">helios::window::Window</text>
<text text-anchor="middle" x="237" y="-73" font-family="Helvetica,sans-Serif" font-size="10.00">::renderTarget</text>
</a>
</g>
</g>
<!-- Node1&#45;&gt;Node2 -->
<g id="edge1_Node000001_Node000002" class="edge">
<title>Node1&#45;&gt;Node2</title>
<g id="a_edge1_Node000001_Node000002"><a xlink:title=" ">
<path fill="none" stroke="#63b8ff" d="M134.4,-61.04C142.77,-62.69 151.39,-64.38 159.89,-66.05"/>
<polygon fill="#63b8ff" stroke="#63b8ff" points="159.32,-69.51 169.81,-68 160.67,-62.64 159.32,-69.51"/>
</a>
</g>
</g>
<!-- Node3 -->
<g id="Node000003" class="node">
<title>Node3</title>
<g id="a_Node000003"><a xlink:href="classhelios_1_1window_1_1Window.html#ae93d386b3c4293fd5c8ec3ff80003343" target="_top" xlink:title=" ">
<polygon fill="white" stroke="#666666" points="304,-30 170,-30 170,0 304,0 304,-30"/>
<text text-anchor="start" x="178" y="-18" font-family="Helvetica,sans-Serif" font-size="10.00">helios::window::Window</text>
<text text-anchor="middle" x="237" y="-7" font-family="Helvetica,sans-Serif" font-size="10.00">::Window</text>
</a>
</g>
</g>
<!-- Node1&#45;&gt;Node3 -->
<g id="edge3_Node000001_Node000003" class="edge">
<title>Node1&#45;&gt;Node3</title>
<g id="a_edge3_Node000001_Node000003"><a xlink:title=" ">
<path fill="none" stroke="#63b8ff" d="M134.4,-34.96C142.77,-33.31 151.39,-31.62 159.89,-29.95"/>
<polygon fill="#63b8ff" stroke="#63b8ff" points="160.67,-33.36 169.81,-28 159.32,-26.49 160.67,-33.36"/>
</a>
</g>
</g>
<!-- Node2&#45;&gt;Node2 -->
<g id="edge2_Node000002_Node000002" class="edge">
<title>Node2&#45;&gt;Node2</title>
<g id="a_edge2_Node000002_Node000002"><a xlink:title=" ">
<path fill="none" stroke="#63b8ff" d="M207.12,-96.28C200.48,-105.41 210.44,-114 237,-114 252.77,-114 262.69,-110.97 266.76,-106.6"/>
<polygon fill="#63b8ff" stroke="#63b8ff" points="270.26,-106.32 266.88,-96.28 263.26,-106.23 270.26,-106.32"/>
</a>
</g>
</g>
<!-- Node3&#45;&gt;Node3 -->
<g id="edge4_Node000003_Node000003" class="edge">
<title>Node3&#45;&gt;Node3</title>
<g id="a_edge4_Node000003_Node000003"><a xlink:title=" ">
<path fill="none" stroke="#63b8ff" d="M207.12,-30.28C200.48,-39.41 210.44,-48 237,-48 252.77,-48 262.69,-44.97 266.76,-40.6"/>
<polygon fill="#63b8ff" stroke="#63b8ff" points="270.26,-40.32 266.88,-30.28 263.26,-40.23 270.26,-40.32"/>
</a>
</g>
</g>
</g>
</svg>
