<?xml version="1.0" encoding="UTF-8" standalone="no"?>
<!DOCTYPE svg PUBLIC "-//W3C//DTD SVG 1.1//EN"
 "http://www.w3.org/Graphics/SVG/1.1/DTD/svg11.dtd">
<!-- Generated by graphviz version 2.43.0 (0)
 -->
<!-- Title: helios::rendering::model::Mesh::vertices Pages: 1 -->
<svg width="321pt" height="98pt"
 viewBox="0.00 0.00 321.00 97.50" xmlns="http://www.w3.org/2000/svg" xmlns:xlink="http://www.w3.org/1999/xlink">
<g id="graph0" class="graph" transform="scale(1 1) rotate(0) translate(4 93.5)">
<title>helios::rendering::model::Mesh::vertices</title>
<!-- Node1 -->
<g id="Node000001" class="node">
<title>Node1</title>
<g id="a_Node000001"><a xlink:title="Returns a const reference to the underlying vertices. The returned data is guaranteed to be a valid r...">
<polygon fill="#999999" stroke="#666666" points="313,-62.5 188,-62.5 188,-32.5 313,-32.5 313,-62.5"/>
<text text-anchor="start" x="196" y="-50.5" font-family="Helvetica,sans-Serif" font-size="10.00">helios::rendering::</text>
<text text-anchor="middle" x="250.5" y="-39.5" font-family="Helvetica,sans-Serif" font-size="10.00">model::Mesh::vertices</text>
</a>
</g>
</g>
<!-- Node1&#45;&gt;Node1 -->
<g id="edge3_Node000001_Node000001" class="edge">
<title>Node1&#45;&gt;Node1</title>
<g id="a_edge3_Node000001_Node000001"><a xlink:title=" ">
<path fill="none" stroke="#63b8ff" d="M280.96,-73.1C276.79,-77.47 266.64,-80.5 250.5,-80.5 223.31,-80.5 213.12,-71.91 219.91,-62.78"/>
<polygon fill="#63b8ff" stroke="#63b8ff" points="284.46,-72.82 281.09,-62.78 277.46,-72.73 284.46,-72.82"/>
</a>
</g>
</g>
<!-- Node2 -->
<g id="Node000002" class="node">
<title>Node2</title>
<g id="a_Node000002"><a xlink:href="classhelios_1_1rendering_1_1model_1_1Mesh.html#a77d112e319ebb8ddea82678f82fee694" target="_top" xlink:title="Creates a new Mesh instance.">
<polygon fill="white" stroke="#666666" points="132,-89.5 20,-89.5 20,-59.5 132,-59.5 132,-89.5"/>
<text text-anchor="start" x="28" y="-77.5" font-family="Helvetica,sans-Serif" font-size="10.00">helios::rendering::</text>
<text text-anchor="middle" x="76" y="-66.5" font-family="Helvetica,sans-Serif" font-size="10.00">model::Mesh::Mesh</text>
</a>
</g>
</g>
<!-- Node1&#45;&gt;Node2 -->
<g id="edge1_Node000001_Node000002" class="edge">
<title>Node1&#45;&gt;Node2</title>
<g id="a_edge1_Node000001_Node000002"><a xlink:title=" ">
<path fill="none" stroke="#63b8ff" d="M177.78,-58.73C162.5,-61.12 146.6,-63.61 132.06,-65.88"/>
<polygon fill="#63b8ff" stroke="#63b8ff" points="178.37,-62.18 187.71,-57.17 177.29,-55.26 178.37,-62.18"/>
</a>
</g>
</g>
<!-- Node3 -->
<g id="Node000003" class="node">
<title>Node3</title>
<g id="a_Node000003"><a xlink:href="classhelios_1_1ext_1_1opengl_1_1rendering_1_1model_1_1OpenGLMesh.html#a2d4c0ccf2f175ce3ac7dddc9bd7c808f" target="_top" xlink:title="Constructs a new OpenGLMesh instance from raw mesh data.">
<polygon fill="white" stroke="#666666" points="152,-41 0,-41 0,0 152,0 152,-41"/>
<text text-anchor="start" x="8" y="-29" font-family="Helvetica,sans-Serif" font-size="10.00">helios::ext::opengl</text>
<text text-anchor="start" x="8" y="-18" font-family="Helvetica,sans-Serif" font-size="10.00">::rendering::model::</text>
<text text-anchor="middle" x="76" y="-7" font-family="Helvetica,sans-Serif" font-size="10.00">OpenGLMesh::OpenGLMesh</text>
</a>
</g>
</g>
<!-- Node1&#45;&gt;Node3 -->
<g id="edge2_Node000001_Node000003" class="edge">
<title>Node1&#45;&gt;Node3</title>
<g id="a_edge2_Node000001_Node000003"><a xlink:title=" ">
<path fill="none" stroke="#63b8ff" d="M177.6,-36.25C169.21,-34.93 160.64,-33.59 152.22,-32.27"/>
<polygon fill="#63b8ff" stroke="#63b8ff" points="177.29,-39.74 187.71,-37.83 178.37,-32.82 177.29,-39.74"/>
</a>
</g>
</g>
</g>
</svg>
