<?xml version="1.0" encoding="UTF-8" standalone="no"?>
<!DOCTYPE svg PUBLIC "-//W3C//DTD SVG 1.1//EN"
 "http://www.w3.org/Graphics/SVG/1.1/DTD/svg11.dtd">
<!-- Generated by graphviz version 2.43.0 (0)
 -->
<!-- Title: helios::ext::glfw::input::GLFWInputAdapter Pages: 1 -->
<svg width="154pt" height="177pt"
 viewBox="0.00 0.00 154.00 177.00" xmlns="http://www.w3.org/2000/svg" xmlns:xlink="http://www.w3.org/1999/xlink">
<g id="graph0" class="graph" transform="scale(1 1) rotate(0) translate(4 173)">
<title>helios::ext::glfw::input::GLFWInputAdapter</title>
<!-- Node1 -->
<g id="Node000001" class="node">
<title>Node1</title>
<g id="a_Node000001"><a xlink:title="InputAdapter implementation for a GLFWWindow.">
<polygon fill="#999999" stroke="#666666" points="142.5,-30 3.5,-30 3.5,0 142.5,0 142.5,-30"/>
<text text-anchor="start" x="11.5" y="-18" font-family="Helvetica,sans-Serif" font-size="10.00">helios::ext::glfw::</text>
<text text-anchor="middle" x="73" y="-7" font-family="Helvetica,sans-Serif" font-size="10.00">input::GLFWInputAdapter</text>
</a>
</g>
</g>
<!-- Node2 -->
<g id="Node000002" class="node">
<title>Node2</title>
<g id="a_Node000002"><a xlink:href="classhelios_1_1input_1_1InputAdapter.html" target="_top" xlink:title="Abstract interface for platform&#45;specific input adapters.">
<polygon fill="white" stroke="#666666" points="146,-86 0,-86 0,-67 146,-67 146,-86"/>
<text text-anchor="middle" x="73" y="-74" font-family="Helvetica,sans-Serif" font-size="10.00">helios::input::InputAdapter</text>
</a>
</g>
</g>
<!-- Node2&#45;&gt;Node1 -->
<g id="edge1_Node000001_Node000002" class="edge">
<title>Node2&#45;&gt;Node1</title>
<g id="a_edge1_Node000001_Node000002"><a xlink:title=" ">
<path fill="none" stroke="#63b8ff" d="M73,-56.73C73,-48.09 73,-38 73,-30.02"/>
<polygon fill="#63b8ff" stroke="#63b8ff" points="69.5,-56.98 73,-66.98 76.5,-56.98 69.5,-56.98"/>
</a>
</g>
</g>
<!-- Node3 -->
<g id="Node000003" class="node">
<title>Node3</title>
<g id="a_Node000003"><a xlink:href="classhelios_1_1util_1_1log_1_1Logger.html" target="_top" xlink:title="Simple Logger implementation.">
<polygon fill="white" stroke="#666666" points="120.5,-169 25.5,-169 25.5,-139 120.5,-139 120.5,-169"/>
<text text-anchor="start" x="33.5" y="-157" font-family="Helvetica,sans-Serif" font-size="10.00">helios::util::log::</text>
<text text-anchor="middle" x="73" y="-146" font-family="Helvetica,sans-Serif" font-size="10.00">Logger</text>
</a>
</g>
</g>
<!-- Node3&#45;&gt;Node2 -->
<g id="edge2_Node000002_Node000003" class="edge">
<title>Node3&#45;&gt;Node2</title>
<g id="a_edge2_Node000002_Node000003"><a xlink:title=" ">
<path fill="none" stroke="#9a32cd" stroke-dasharray="5,2" d="M73,-128.4C73,-113.81 73,-96.22 73,-86.01"/>
<polygon fill="#9a32cd" stroke="#9a32cd" points="69.5,-128.8 73,-138.8 76.5,-128.8 69.5,-128.8"/>
</a>
</g>
<text text-anchor="start" x="76.5" y="-109.5" font-family="Helvetica,sans-Serif" font-size="10.00" fill="grey">logger_</text>
</g>
</g>
</svg>
