<?xml version="1.0" encoding="UTF-8" standalone="no"?>
<!DOCTYPE svg PUBLIC "-//W3C//DTD SVG 1.1//EN"
 "http://www.w3.org/Graphics/SVG/1.1/DTD/svg11.dtd">
<!-- Generated by graphviz version 2.43.0 (0)
 -->
<!-- Title: helios::ext::glfw::window::GLFWWindow::GLFWWindow Pages: 1 -->
<svg width="310pt" height="62pt"
 viewBox="0.00 0.00 310.00 61.50" xmlns="http://www.w3.org/2000/svg" xmlns:xlink="http://www.w3.org/1999/xlink">
<g id="graph0" class="graph" transform="scale(1 1) rotate(0) translate(4 57.5)">
<title>helios::ext::glfw::window::GLFWWindow::GLFWWindow</title>
<!-- Node1 -->
<g id="Node000001" class="node">
<title>Node1</title>
<g id="a_Node000001"><a xlink:title="Constructs a new GLFWWindow based in the provided configuration. The underlying native window is not ...">
<polygon fill="#999999" stroke="#666666" points="132,-41 0,-41 0,0 132,0 132,-41"/>
<text text-anchor="start" x="8" y="-29" font-family="Helvetica,sans-Serif" font-size="10.00">helios::ext::glfw::</text>
<text text-anchor="start" x="8" y="-18" font-family="Helvetica,sans-Serif" font-size="10.00">window::GLFWWindow::</text>
<text text-anchor="middle" x="66" y="-7" font-family="Helvetica,sans-Serif" font-size="10.00">GLFWWindow</text>
</a>
</g>
</g>
<!-- Node2 -->
<g id="Node000002" class="node">
<title>Node2</title>
<g id="a_Node000002"><a xlink:href="classhelios_1_1window_1_1Window.html#a6bf6b252e26575dfced4453a3184994d" target="_top" xlink:title="Returns the RenderTarget associated with this Window.">
<polygon fill="white" stroke="#666666" points="302,-35.5 168,-35.5 168,-5.5 302,-5.5 302,-35.5"/>
<text text-anchor="start" x="176" y="-23.5" font-family="Helvetica,sans-Serif" font-size="10.00">helios::window::Window</text>
<text text-anchor="middle" x="235" y="-12.5" font-family="Helvetica,sans-Serif" font-size="10.00">::renderTarget</text>
</a>
</g>
</g>
<!-- Node1&#45;&gt;Node2 -->
<g id="edge1_Node000001_Node000002" class="edge">
<title>Node1&#45;&gt;Node2</title>
<g id="a_edge1_Node000001_Node000002"><a xlink:title=" ">
<path fill="none" stroke="#63b8ff" d="M132.04,-20.5C140.47,-20.5 149.16,-20.5 157.75,-20.5"/>
<polygon fill="#63b8ff" stroke="#63b8ff" points="157.76,-24 167.76,-20.5 157.76,-17 157.76,-24"/>
</a>
</g>
</g>
<!-- Node2&#45;&gt;Node2 -->
<g id="edge2_Node000002_Node000002" class="edge">
<title>Node2&#45;&gt;Node2</title>
<g id="a_edge2_Node000002_Node000002"><a xlink:title=" ">
<path fill="none" stroke="#63b8ff" d="M205.47,-35.78C198.91,-44.91 208.75,-53.5 235,-53.5 250.59,-53.5 260.39,-50.47 264.41,-46.1"/>
<polygon fill="#63b8ff" stroke="#63b8ff" points="267.91,-45.82 264.53,-35.78 260.91,-45.73 267.91,-45.82"/>
</a>
</g>
</g>
</g>
</svg>
