<?xml version="1.0" encoding="UTF-8" standalone="no"?>
<!DOCTYPE svg PUBLIC "-//W3C//DTD SVG 1.1//EN"
 "http://www.w3.org/Graphics/SVG/1.1/DTD/svg11.dtd">
<!-- Generated by graphviz version 2.43.0 (0)
 -->
<!-- Title: helios::engine::game::components::scene::SceneNodeComponent Pages: 1 -->
<svg width="347pt" height="287pt"
 viewBox="0.00 0.00 347.00 287.00" xmlns="http://www.w3.org/2000/svg" xmlns:xlink="http://www.w3.org/1999/xlink">
<g id="graph0" class="graph" transform="scale(1 1) rotate(0) translate(4 283)">
<title>helios::engine::game::components::scene::SceneNodeComponent</title>
<!-- Node1 -->
<g id="Node000001" class="node">
<title>Node1</title>
<g id="a_Node000001"><a xlink:title="Component that links a GameObject to a SceneNode in the scene graph.">
<polygon fill="#999999" stroke="#666666" points="196.5,-41 68.5,-41 68.5,0 196.5,0 196.5,-41"/>
<text text-anchor="start" x="76.5" y="-29" font-family="Helvetica,sans-Serif" font-size="10.00">helios::engine::game</text>
<text text-anchor="start" x="76.5" y="-18" font-family="Helvetica,sans-Serif" font-size="10.00">::components::scene::</text>
<text text-anchor="middle" x="132.5" y="-7" font-family="Helvetica,sans-Serif" font-size="10.00">SceneNodeComponent</text>
</a>
</g>
</g>
<!-- Node2 -->
<g id="Node000002" class="node">
<title>Node2</title>
<g id="a_Node000002"><a xlink:href="classhelios_1_1engine_1_1game_1_1Component.html" target="_top" xlink:title="Abstract base class for components attached to GameObjects.">
<polygon fill="white" stroke="#666666" points="119,-124 0,-124 0,-94 119,-94 119,-124"/>
<text text-anchor="start" x="8" y="-112" font-family="Helvetica,sans-Serif" font-size="10.00">helios::engine::game</text>
<text text-anchor="middle" x="59.5" y="-101" font-family="Helvetica,sans-Serif" font-size="10.00">::Component</text>
</a>
</g>
</g>
<!-- Node2&#45;&gt;Node1 -->
<g id="edge1_Node000001_Node000002" class="edge">
<title>Node2&#45;&gt;Node1</title>
<g id="a_edge1_Node000001_Node000002"><a xlink:title=" ">
<path fill="none" stroke="#63b8ff" d="M78.3,-85.72C89.89,-71.99 104.61,-54.55 115.78,-41.31"/>
<polygon fill="#63b8ff" stroke="#63b8ff" points="75.33,-83.82 71.55,-93.72 80.68,-88.33 75.33,-83.82"/>
</a>
</g>
</g>
<!-- Node3 -->
<g id="Node000003" class="node">
<title>Node3</title>
<g id="a_Node000003"><a xlink:href="classhelios_1_1engine_1_1game_1_1GameObject.html" target="_top" xlink:title="Base class for interactive game entities using a component&#45;based architecture.">
<polygon fill="white" stroke="#666666" points="119,-207 0,-207 0,-177 119,-177 119,-207"/>
<text text-anchor="start" x="8" y="-195" font-family="Helvetica,sans-Serif" font-size="10.00">helios::engine::game</text>
<text text-anchor="middle" x="59.5" y="-184" font-family="Helvetica,sans-Serif" font-size="10.00">::GameObject</text>
</a>
</g>
</g>
<!-- Node3&#45;&gt;Node2 -->
<g id="edge2_Node000002_Node000003" class="edge">
<title>Node3&#45;&gt;Node2</title>
<g id="a_edge2_Node000002_Node000003"><a xlink:title=" ">
<path fill="none" stroke="#9a32cd" stroke-dasharray="5,2" d="M59.5,-166.59C59.5,-152.75 59.5,-135.91 59.5,-124.22"/>
<polygon fill="#9a32cd" stroke="#9a32cd" points="56,-166.89 59.5,-176.89 63,-166.89 56,-166.89"/>
</a>
</g>
<text text-anchor="start" x="63" y="-147.5" font-family="Helvetica,sans-Serif" font-size="10.00" fill="grey">gameObject_</text>
</g>
<!-- Node4 -->
<g id="Node000004" class="node">
<title>Node4</title>
<g id="a_Node000004"><a xlink:href="classhelios_1_1util_1_1Guid.html" target="_top" xlink:title="Representative of a Globally Unique Identifier.">
<polygon fill="white" stroke="#666666" points="107.5,-279 11.5,-279 11.5,-260 107.5,-260 107.5,-279"/>
<text text-anchor="middle" x="59.5" y="-267" font-family="Helvetica,sans-Serif" font-size="10.00">helios::util::Guid</text>
</a>
</g>
</g>
<!-- Node4&#45;&gt;Node3 -->
<g id="edge3_Node000003_Node000004" class="edge">
<title>Node4&#45;&gt;Node3</title>
<g id="a_edge3_Node000003_Node000004"><a xlink:title=" ">
<path fill="none" stroke="#9a32cd" stroke-dasharray="5,2" d="M59.5,-249.57C59.5,-236.43 59.5,-219.18 59.5,-207.21"/>
<polygon fill="#9a32cd" stroke="#9a32cd" points="56,-249.84 59.5,-259.84 63,-249.84 56,-249.84"/>
</a>
</g>
<text text-anchor="start" x="63" y="-230.5" font-family="Helvetica,sans-Serif" font-size="10.00" fill="grey">guid_</text>
</g>
<!-- Node5 -->
<g id="Node000005" class="node">
<title>Node5</title>
<g id="a_Node000005"><a xlink:href="classhelios_1_1scene_1_1SceneNode.html" target="_top" xlink:title="Represents a SceneNode within a SceneGraph.">
<polygon fill="white" stroke="#666666" points="278,-118.5 137,-118.5 137,-99.5 278,-99.5 278,-118.5"/>
<text text-anchor="middle" x="207.5" y="-106.5" font-family="Helvetica,sans-Serif" font-size="10.00">helios::scene::SceneNode</text>
</a>
</g>
</g>
<!-- Node5&#45;&gt;Node1 -->
<g id="edge4_Node000001_Node000005" class="edge">
<title>Node5&#45;&gt;Node1</title>
<g id="a_edge4_Node000001_Node000005"><a xlink:title=" ">
<path fill="none" stroke="#9a32cd" stroke-dasharray="5,2" d="M193.44,-91.79C180.98,-77.41 162.74,-56.38 149.47,-41.07"/>
<polygon fill="#9a32cd" stroke="#9a32cd" points="190.84,-94.13 200.03,-99.39 196.13,-89.54 190.84,-94.13"/>
</a>
</g>
<text text-anchor="start" x="182.5" y="-64.5" font-family="Helvetica,sans-Serif" font-size="10.00" fill="grey">sceneNode_</text>
</g>
<!-- Node5&#45;&gt;Node5 -->
<g id="edge5_Node000005_Node000005" class="edge">
<title>Node5&#45;&gt;Node5</title>
<g id="a_edge5_Node000005_Node000005"><a xlink:title=" ">
<path fill="none" stroke="#9a32cd" stroke-dasharray="5,2" d="M288.2,-114.19C293.07,-112.96 296,-111.23 296,-109 296,-105.52 288.87,-103.26 278.33,-102.2"/>
<polygon fill="#9a32cd" stroke="#9a32cd" points="287.63,-110.74 278.33,-115.8 288.76,-117.65 287.63,-110.74"/>
</a>
</g>
<text text-anchor="start" x="299.5" y="-106" font-family="Helvetica,sans-Serif" font-size="10.00" fill="grey">parent_</text>
</g>
<!-- Node6 -->
<g id="Node000006" class="node">
<title>Node6</title>
<g id="a_Node000006"><a xlink:href="classhelios_1_1core_1_1Transform.html" target="_top" xlink:title="Represents a 3D transformation consisting of translation, rotation and scale.">
<polygon fill="white" stroke="#666666" points="271.5,-201.5 143.5,-201.5 143.5,-182.5 271.5,-182.5 271.5,-201.5"/>
<text text-anchor="middle" x="207.5" y="-189.5" font-family="Helvetica,sans-Serif" font-size="10.00">helios::core::Transform</text>
</a>
</g>
</g>
<!-- Node6&#45;&gt;Node5 -->
<g id="edge6_Node000005_Node000006" class="edge">
<title>Node6&#45;&gt;Node5</title>
<g id="a_edge6_Node000005_Node000006"><a xlink:title=" ">
<path fill="none" stroke="#9a32cd" stroke-dasharray="5,2" d="M207.5,-172.05C207.5,-155.29 207.5,-131.56 207.5,-118.85"/>
<polygon fill="#9a32cd" stroke="#9a32cd" points="204,-172.33 207.5,-182.33 211,-172.33 204,-172.33"/>
</a>
</g>
<text text-anchor="start" x="210.5" y="-147.5" font-family="Helvetica,sans-Serif" font-size="10.00" fill="grey">localTransform_</text>
</g>
</g>
</svg>
