<?xml version="1.0" encoding="UTF-8" standalone="no"?>
<!DOCTYPE svg PUBLIC "-//W3C//DTD SVG 1.1//EN"
 "http://www.w3.org/Graphics/SVG/1.1/DTD/svg11.dtd">
<!-- Generated by graphviz version 2.43.0 (0)
 -->
<!-- Title: helios::rendering::model::Material::Material Pages: 1 -->
<svg width="375pt" height="104pt"
 viewBox="0.00 0.00 375.00 104.00" xmlns="http://www.w3.org/2000/svg" xmlns:xlink="http://www.w3.org/1999/xlink">
<g id="graph0" class="graph" transform="scale(1 1) rotate(0) translate(4 100)">
<title>helios::rendering::model::Material::Material</title>
<!-- Node1 -->
<g id="Node000001" class="node">
<title>Node1</title>
<g id="a_Node000001"><a xlink:title="Creates a new Material.">
<polygon fill="#999999" stroke="#666666" points="140,-63 0,-63 0,-33 140,-33 140,-63"/>
<text text-anchor="start" x="8" y="-51" font-family="Helvetica,sans-Serif" font-size="10.00">helios::rendering::</text>
<text text-anchor="middle" x="70" y="-40" font-family="Helvetica,sans-Serif" font-size="10.00">model::Material::Material</text>
</a>
</g>
</g>
<!-- Node2 -->
<g id="Node000002" class="node">
<title>Node2</title>
<g id="a_Node000002"><a xlink:href="classhelios_1_1rendering_1_1model_1_1Material.html#abee66c72fa5c827dfdba3a2efe023277" target="_top" xlink:title="Returns a const reference to the underlying MaterialProperties.">
<polygon fill="white" stroke="#666666" points="367,-96 176,-96 176,-66 367,-66 367,-96"/>
<text text-anchor="start" x="184" y="-84" font-family="Helvetica,sans-Serif" font-size="10.00">helios::rendering::</text>
<text text-anchor="middle" x="271.5" y="-73" font-family="Helvetica,sans-Serif" font-size="10.00">model::Material::materialProperties</text>
</a>
</g>
</g>
<!-- Node1&#45;&gt;Node2 -->
<g id="edge1_Node000001_Node000002" class="edge">
<title>Node1&#45;&gt;Node2</title>
<g id="a_edge1_Node000001_Node000002"><a xlink:title=" ">
<path fill="none" stroke="#63b8ff" d="M140.22,-59.45C149.75,-61.03 159.7,-62.67 169.67,-64.32"/>
<polygon fill="#63b8ff" stroke="#63b8ff" points="169.18,-67.79 179.62,-65.97 170.33,-60.88 169.18,-67.79"/>
</a>
</g>
</g>
<!-- Node3 -->
<g id="Node000003" class="node">
<title>Node3</title>
<g id="a_Node000003"><a xlink:href="classhelios_1_1rendering_1_1model_1_1Material.html#afc78ee032a66d4b2bb48b866612c9125" target="_top" xlink:title="Returns a const ref to the shader used by this instance.">
<polygon fill="white" stroke="#666666" points="338,-30 205,-30 205,0 338,0 338,-30"/>
<text text-anchor="start" x="213" y="-18" font-family="Helvetica,sans-Serif" font-size="10.00">helios::rendering::</text>
<text text-anchor="middle" x="271.5" y="-7" font-family="Helvetica,sans-Serif" font-size="10.00">model::Material::shader</text>
</a>
</g>
</g>
<!-- Node1&#45;&gt;Node3 -->
<g id="edge2_Node000001_Node000003" class="edge">
<title>Node1&#45;&gt;Node3</title>
<g id="a_edge2_Node000001_Node000003"><a xlink:title=" ">
<path fill="none" stroke="#63b8ff" d="M140.22,-36.55C157.71,-33.66 176.6,-30.53 194.42,-27.59"/>
<polygon fill="#63b8ff" stroke="#63b8ff" points="195.47,-30.96 204.76,-25.87 194.33,-24.05 195.47,-30.96"/>
</a>
</g>
</g>
<!-- Node3&#45;&gt;Node3 -->
<g id="edge3_Node000003_Node000003" class="edge">
<title>Node3&#45;&gt;Node3</title>
<g id="a_edge3_Node000003_Node000003"><a xlink:title=" ">
<path fill="none" stroke="#63b8ff" d="M236.34,-30.28C228.53,-39.41 240.25,-48 271.5,-48 290.05,-48 301.72,-44.97 306.51,-40.6"/>
<polygon fill="#63b8ff" stroke="#63b8ff" points="310.01,-40.32 306.66,-30.28 303.01,-40.22 310.01,-40.32"/>
</a>
</g>
</g>
</g>
</svg>
