<?xml version="1.0" encoding="UTF-8" standalone="no"?>
<!DOCTYPE svg PUBLIC "-//W3C//DTD SVG 1.1//EN"
 "http://www.w3.org/Graphics/SVG/1.1/DTD/svg11.dtd">
<!-- Generated by graphviz version 2.43.0 (0)
 -->
<!-- Title: helios::engine::game::System Pages: 1 -->
<svg width="508pt" height="441pt"
 viewBox="0.00 0.00 508.00 441.00" xmlns="http://www.w3.org/2000/svg" xmlns:xlink="http://www.w3.org/1999/xlink">
<g id="graph0" class="graph" transform="scale(1 1) rotate(0) translate(4 437)">
<title>helios::engine::game::System</title>
<!-- Node1 -->
<g id="Node000001" class="node">
<title>Node1</title>
<g id="a_Node000001"><a xlink:title="Abstract base class for game systems.">
<polygon fill="#999999" stroke="#666666" points="274,-231.5 155,-231.5 155,-201.5 274,-201.5 274,-231.5"/>
<text text-anchor="start" x="163" y="-219.5" font-family="Helvetica,sans-Serif" font-size="10.00">helios::engine::game</text>
<text text-anchor="middle" x="214.5" y="-208.5" font-family="Helvetica,sans-Serif" font-size="10.00">::System</text>
</a>
</g>
</g>
<!-- Node3 -->
<g id="Node000003" class="node">
<title>Node3</title>
<g id="a_Node000003"><a xlink:href="classhelios_1_1engine_1_1game_1_1systems_1_1gameplay_1_1ProjectilePoolSystem.html" target="_top" xlink:title="Object pool system for efficient projectile spawning and lifecycle management.">
<polygon fill="white" stroke="#666666" points="467,-433 343,-433 343,-392 467,-392 467,-433"/>
<text text-anchor="start" x="351" y="-421" font-family="Helvetica,sans-Serif" font-size="10.00">helios::engine::game</text>
<text text-anchor="start" x="351" y="-410" font-family="Helvetica,sans-Serif" font-size="10.00">::systems::gameplay::</text>
<text text-anchor="middle" x="405" y="-399" font-family="Helvetica,sans-Serif" font-size="10.00">ProjectilePoolSystem</text>
</a>
</g>
</g>
<!-- Node1&#45;&gt;Node3 -->
<g id="edge2_Node000001_Node000003" class="edge">
<title>Node1&#45;&gt;Node3</title>
<g id="a_edge2_Node000001_Node000003"><a xlink:title=" ">
<path fill="none" stroke="#63b8ff" d="M223.15,-241.85C235.48,-278.46 263.23,-345.87 310,-383.5 319.58,-391.21 331.21,-396.87 342.97,-401.04"/>
<polygon fill="#63b8ff" stroke="#63b8ff" points="226.35,-240.4 219.94,-231.96 219.7,-242.56 226.35,-240.4"/>
</a>
</g>
</g>
<!-- Node4 -->
<g id="Node000004" class="node">
<title>Node4</title>
<g id="a_Node000004"><a xlink:href="classhelios_1_1engine_1_1game_1_1systems_1_1physics_1_1BoundsUpdateSystem.html" target="_top" xlink:title="System that updates AABB colliders based on entity world transforms.">
<polygon fill="white" stroke="#666666" points="497,-374 313,-374 313,-333 497,-333 497,-374"/>
<text text-anchor="start" x="321" y="-362" font-family="Helvetica,sans-Serif" font-size="10.00">helios::engine::game</text>
<text text-anchor="start" x="321" y="-351" font-family="Helvetica,sans-Serif" font-size="10.00">::systems::physics::BoundsUpdate</text>
<text text-anchor="middle" x="405" y="-340" font-family="Helvetica,sans-Serif" font-size="10.00">System</text>
</a>
</g>
</g>
<!-- Node1&#45;&gt;Node4 -->
<g id="edge3_Node000001_Node000004" class="edge">
<title>Node1&#45;&gt;Node4</title>
<g id="a_edge3_Node000001_Node000004"><a xlink:title=" ">
<path fill="none" stroke="#63b8ff" d="M230.37,-240.16C246.94,-264.66 275.94,-302.4 310,-324.5 314.73,-327.57 319.8,-330.33 325.05,-332.81"/>
<polygon fill="#63b8ff" stroke="#63b8ff" points="233.27,-238.2 224.84,-231.78 227.43,-242.06 233.27,-238.2"/>
</a>
</g>
</g>
<!-- Node5 -->
<g id="Node000005" class="node">
<title>Node5</title>
<g id="a_Node000005"><a xlink:href="classhelios_1_1engine_1_1game_1_1systems_1_1physics_1_1LevelBoundsBehaviorSystem.html" target="_top" xlink:title="System that handles entity behavior when colliding with level boundaries.">
<polygon fill="white" stroke="#666666" points="492.5,-315 317.5,-315 317.5,-274 492.5,-274 492.5,-315"/>
<text text-anchor="start" x="325.5" y="-303" font-family="Helvetica,sans-Serif" font-size="10.00">helios::engine::game</text>
<text text-anchor="start" x="325.5" y="-292" font-family="Helvetica,sans-Serif" font-size="10.00">::systems::physics::LevelBounds</text>
<text text-anchor="middle" x="405" y="-281" font-family="Helvetica,sans-Serif" font-size="10.00">BehaviorSystem</text>
</a>
</g>
</g>
<!-- Node1&#45;&gt;Node5 -->
<g id="edge4_Node000001_Node000005" class="edge">
<title>Node1&#45;&gt;Node5</title>
<g id="a_edge4_Node000001_Node000005"><a xlink:title=" ">
<path fill="none" stroke="#63b8ff" d="M251.46,-236.49C268.84,-245.7 290.18,-256.36 310,-264.5 318.08,-267.82 326.67,-271 335.25,-273.98"/>
<polygon fill="#63b8ff" stroke="#63b8ff" points="252.72,-233.19 242.25,-231.55 249.41,-239.36 252.72,-233.19"/>
</a>
</g>
</g>
<!-- Node6 -->
<g id="Node000006" class="node">
<title>Node6</title>
<g id="a_Node000006"><a xlink:href="classhelios_1_1engine_1_1game_1_1systems_1_1physics_1_1Move2DSystem.html" target="_top" xlink:title="System that processes 2D movement and rotation for entities.">
<polygon fill="white" stroke="#666666" points="500,-255.5 310,-255.5 310,-225.5 500,-225.5 500,-255.5"/>
<text text-anchor="start" x="318" y="-243.5" font-family="Helvetica,sans-Serif" font-size="10.00">helios::engine::game</text>
<text text-anchor="middle" x="405" y="-232.5" font-family="Helvetica,sans-Serif" font-size="10.00">::systems::physics::Move2DSystem</text>
</a>
</g>
</g>
<!-- Node1&#45;&gt;Node6 -->
<g id="edge5_Node000001_Node000006" class="edge">
<title>Node1&#45;&gt;Node6</title>
<g id="a_edge5_Node000001_Node000006"><a xlink:title=" ">
<path fill="none" stroke="#63b8ff" d="M284.13,-225.24C292.49,-226.3 301.13,-227.4 309.77,-228.5"/>
<polygon fill="#63b8ff" stroke="#63b8ff" points="284.47,-221.75 274.11,-223.96 283.59,-228.7 284.47,-221.75"/>
</a>
</g>
</g>
<!-- Node7 -->
<g id="Node000007" class="node">
<title>Node7</title>
<g id="a_Node000007"><a xlink:href="classhelios_1_1engine_1_1game_1_1systems_1_1physics_1_1ScaleSystem.html" target="_top" xlink:title="System that applies scaling to entities based on their ScaleComponent.">
<polygon fill="white" stroke="#666666" points="493,-207.5 317,-207.5 317,-177.5 493,-177.5 493,-207.5"/>
<text text-anchor="start" x="325" y="-195.5" font-family="Helvetica,sans-Serif" font-size="10.00">helios::engine::game</text>
<text text-anchor="middle" x="405" y="-184.5" font-family="Helvetica,sans-Serif" font-size="10.00">::systems::physics::ScaleSystem</text>
</a>
</g>
</g>
<!-- Node1&#45;&gt;Node7 -->
<g id="edge6_Node000001_Node000007" class="edge">
<title>Node1&#45;&gt;Node7</title>
<g id="a_edge6_Node000001_Node000007"><a xlink:title=" ">
<path fill="none" stroke="#63b8ff" d="M284.11,-207.76C294.7,-206.42 305.77,-205.01 316.71,-203.61"/>
<polygon fill="#63b8ff" stroke="#63b8ff" points="283.59,-204.3 274.11,-209.04 284.47,-211.25 283.59,-204.3"/>
</a>
</g>
</g>
<!-- Node8 -->
<g id="Node000008" class="node">
<title>Node8</title>
<g id="a_Node000008"><a xlink:href="classhelios_1_1engine_1_1game_1_1systems_1_1post_1_1ScaleClearSystem.html" target="_top" xlink:title="System that clears the dirty state of ScaleComponents at the end of a frame.">
<polygon fill="white" stroke="#666666" points="479.5,-159 330.5,-159 330.5,-118 479.5,-118 479.5,-159"/>
<text text-anchor="start" x="338.5" y="-147" font-family="Helvetica,sans-Serif" font-size="10.00">helios::engine::game</text>
<text text-anchor="start" x="338.5" y="-136" font-family="Helvetica,sans-Serif" font-size="10.00">::systems::post::ScaleClear</text>
<text text-anchor="middle" x="405" y="-125" font-family="Helvetica,sans-Serif" font-size="10.00">System</text>
</a>
</g>
</g>
<!-- Node1&#45;&gt;Node8 -->
<g id="edge7_Node000001_Node000008" class="edge">
<title>Node1&#45;&gt;Node8</title>
<g id="a_edge7_Node000001_Node000008"><a xlink:title=" ">
<path fill="none" stroke="#63b8ff" d="M251.46,-196.51C268.84,-187.3 290.18,-176.64 310,-168.5 318.08,-165.18 326.67,-162 335.25,-159.02"/>
<polygon fill="#63b8ff" stroke="#63b8ff" points="249.41,-193.64 242.25,-201.45 252.72,-199.81 249.41,-193.64"/>
</a>
</g>
</g>
<!-- Node9 -->
<g id="Node000009" class="node">
<title>Node9</title>
<g id="a_Node000009"><a xlink:href="classhelios_1_1engine_1_1game_1_1systems_1_1post_1_1TransformClearSystem.html" target="_top" xlink:title="System that clears the dirty state of TransformComponents at the end of a frame.">
<polygon fill="white" stroke="#666666" points="490.5,-100 319.5,-100 319.5,-59 490.5,-59 490.5,-100"/>
<text text-anchor="start" x="327.5" y="-88" font-family="Helvetica,sans-Serif" font-size="10.00">helios::engine::game</text>
<text text-anchor="start" x="327.5" y="-77" font-family="Helvetica,sans-Serif" font-size="10.00">::systems::post::TransformClear</text>
<text text-anchor="middle" x="405" y="-66" font-family="Helvetica,sans-Serif" font-size="10.00">System</text>
</a>
</g>
</g>
<!-- Node1&#45;&gt;Node9 -->
<g id="edge8_Node000001_Node000009" class="edge">
<title>Node1&#45;&gt;Node9</title>
<g id="a_edge8_Node000001_Node000009"><a xlink:title=" ">
<path fill="none" stroke="#63b8ff" d="M230.37,-192.84C246.94,-168.34 275.94,-130.6 310,-108.5 314.73,-105.43 319.8,-102.67 325.05,-100.19"/>
<polygon fill="#63b8ff" stroke="#63b8ff" points="227.43,-190.94 224.84,-201.22 233.27,-194.8 227.43,-190.94"/>
</a>
</g>
</g>
<!-- Node10 -->
<g id="Node000010" class="node">
<title>Node10</title>
<g id="a_Node000010"><a xlink:href="classhelios_1_1engine_1_1game_1_1systems_1_1scene_1_1SceneSyncSystem.html" target="_top" xlink:title="System that synchronizes TransformComponents with SceneNodes.">
<polygon fill="white" stroke="#666666" points="483.5,-41 326.5,-41 326.5,0 483.5,0 483.5,-41"/>
<text text-anchor="start" x="334.5" y="-29" font-family="Helvetica,sans-Serif" font-size="10.00">helios::engine::game</text>
<text text-anchor="start" x="334.5" y="-18" font-family="Helvetica,sans-Serif" font-size="10.00">::systems::scene::SceneSync</text>
<text text-anchor="middle" x="405" y="-7" font-family="Helvetica,sans-Serif" font-size="10.00">System</text>
</a>
</g>
</g>
<!-- Node1&#45;&gt;Node10 -->
<g id="edge9_Node000001_Node000010" class="edge">
<title>Node1&#45;&gt;Node10</title>
<g id="a_edge9_Node000001_Node000010"><a xlink:title=" ">
<path fill="none" stroke="#63b8ff" d="M223.15,-191.15C235.48,-154.54 263.23,-87.13 310,-49.5 314.92,-45.54 320.39,-42.12 326.13,-39.16"/>
<polygon fill="#63b8ff" stroke="#63b8ff" points="219.7,-190.44 219.94,-201.04 226.35,-192.6 219.7,-190.44"/>
</a>
</g>
</g>
<!-- Node2 -->
<g id="Node000002" class="node">
<title>Node2</title>
<g id="a_Node000002"><a xlink:href="classhelios_1_1engine_1_1game_1_1Updatable.html" target="_top" xlink:title="Interface for components that require per&#45;frame updates.">
<polygon fill="white" stroke="#666666" points="119,-231.5 0,-231.5 0,-201.5 119,-201.5 119,-231.5"/>
<text text-anchor="start" x="8" y="-219.5" font-family="Helvetica,sans-Serif" font-size="10.00">helios::engine::game</text>
<text text-anchor="middle" x="59.5" y="-208.5" font-family="Helvetica,sans-Serif" font-size="10.00">::Updatable</text>
</a>
</g>
</g>
<!-- Node2&#45;&gt;Node1 -->
<g id="edge1_Node000001_Node000002" class="edge">
<title>Node2&#45;&gt;Node1</title>
<g id="a_edge1_Node000001_Node000002"><a xlink:title=" ">
<path fill="none" stroke="#63b8ff" d="M129.49,-216.5C137.99,-216.5 146.62,-216.5 154.94,-216.5"/>
<polygon fill="#63b8ff" stroke="#63b8ff" points="129.22,-213 119.22,-216.5 129.22,-220 129.22,-213"/>
</a>
</g>
</g>
</g>
</svg>
