<?xml version="1.0" encoding="UTF-8" standalone="no"?>
<!DOCTYPE svg PUBLIC "-//W3C//DTD SVG 1.1//EN"
 "http://www.w3.org/Graphics/SVG/1.1/DTD/svg11.dtd">
<!-- Generated by graphviz version 2.43.0 (0)
 -->
<!-- Title: helios::rendering::RenderPrototype::material Pages: 1 -->
<svg width="376pt" height="56pt"
 viewBox="0.00 0.00 376.00 56.00" xmlns="http://www.w3.org/2000/svg" xmlns:xlink="http://www.w3.org/1999/xlink">
<g id="graph0" class="graph" transform="scale(1 1) rotate(0) translate(4 52)">
<title>helios::rendering::RenderPrototype::material</title>
<!-- Node1 -->
<g id="Node000001" class="node">
<title>Node1</title>
<g id="a_Node000001"><a xlink:title="Returns a const reference to the immutable Material used by this RenderPrototype. The Material contai...">
<polygon fill="#999999" stroke="#666666" points="368,-30 222,-30 222,0 368,0 368,-30"/>
<text text-anchor="start" x="230" y="-18" font-family="Helvetica,sans-Serif" font-size="10.00">helios::rendering::</text>
<text text-anchor="middle" x="295" y="-7" font-family="Helvetica,sans-Serif" font-size="10.00">RenderPrototype::material</text>
</a>
</g>
</g>
<!-- Node1&#45;&gt;Node1 -->
<g id="edge1_Node000001_Node000001" class="edge">
<title>Node1&#45;&gt;Node1</title>
<g id="a_edge1_Node000001_Node000001"><a xlink:title=" ">
<path fill="none" stroke="#63b8ff" d="M330.36,-40.6C325.53,-44.97 313.74,-48 295,-48 263.44,-48 251.6,-39.41 259.49,-30.28"/>
<polygon fill="#63b8ff" stroke="#63b8ff" points="333.86,-40.33 330.51,-30.28 326.86,-40.22 333.86,-40.33"/>
</a>
</g>
</g>
<!-- Node2 -->
<g id="Node000002" class="node">
<title>Node2</title>
<g id="a_Node000002"><a xlink:href="classhelios_1_1rendering_1_1RenderPrototype.html#aaf0b17fa2eac3cafa86b4294917c9778" target="_top" xlink:title="Creates a new RenderPrototype using the specified Material and Mesh.">
<polygon fill="white" stroke="#666666" points="186,-30 0,-30 0,0 186,0 186,-30"/>
<text text-anchor="start" x="8" y="-18" font-family="Helvetica,sans-Serif" font-size="10.00">helios::rendering::</text>
<text text-anchor="middle" x="93" y="-7" font-family="Helvetica,sans-Serif" font-size="10.00">RenderPrototype::RenderPrototype</text>
</a>
</g>
</g>
<!-- Node1&#45;&gt;Node2 -->
<g id="edge2_Node000001_Node000002" class="edge">
<title>Node1&#45;&gt;Node2</title>
<g id="a_edge2_Node000001_Node000002"><a xlink:title=" ">
<path fill="none" stroke="#63b8ff" d="M211.68,-15C203.31,-15 194.77,-15 186.3,-15"/>
<polygon fill="#63b8ff" stroke="#63b8ff" points="211.8,-18.5 221.8,-15 211.8,-11.5 211.8,-18.5"/>
</a>
</g>
</g>
</g>
</svg>
