<?xml version="1.0" encoding="UTF-8" standalone="no"?>
<!DOCTYPE svg PUBLIC "-//W3C//DTD SVG 1.1//EN"
 "http://www.w3.org/Graphics/SVG/1.1/DTD/svg11.dtd">
<!-- Generated by graphviz version 2.43.0 (0)
 -->
<!-- Title: helios::ext::glfw::app::GLFWApplication Pages: 1 -->
<svg width="139pt" height="177pt"
 viewBox="0.00 0.00 139.00 177.00" xmlns="http://www.w3.org/2000/svg" xmlns:xlink="http://www.w3.org/1999/xlink">
<g id="graph0" class="graph" transform="scale(1 1) rotate(0) translate(4 173)">
<title>helios::ext::glfw::app::GLFWApplication</title>
<!-- Node1 -->
<g id="Node000001" class="node">
<title>Node1</title>
<g id="a_Node000001"><a xlink:title="An Application implementation for glfw&#45;based environments.">
<polygon fill="#999999" stroke="#666666" points="127,-30 4,-30 4,0 127,0 127,-30"/>
<text text-anchor="start" x="12" y="-18" font-family="Helvetica,sans-Serif" font-size="10.00">helios::ext::glfw::</text>
<text text-anchor="middle" x="65.5" y="-7" font-family="Helvetica,sans-Serif" font-size="10.00">app::GLFWApplication</text>
</a>
</g>
</g>
<!-- Node2 -->
<g id="Node000002" class="node">
<title>Node2</title>
<g id="a_Node000002"><a xlink:href="classhelios_1_1app_1_1Application.html" target="_top" xlink:title="Class providing the entry point for a helios application.">
<polygon fill="white" stroke="#666666" points="131,-86 0,-86 0,-67 131,-67 131,-86"/>
<text text-anchor="middle" x="65.5" y="-74" font-family="Helvetica,sans-Serif" font-size="10.00">helios::app::Application</text>
</a>
</g>
</g>
<!-- Node2&#45;&gt;Node1 -->
<g id="edge1_Node000001_Node000002" class="edge">
<title>Node2&#45;&gt;Node1</title>
<g id="a_edge1_Node000001_Node000002"><a xlink:title=" ">
<path fill="none" stroke="#63b8ff" d="M65.5,-56.73C65.5,-48.09 65.5,-38 65.5,-30.02"/>
<polygon fill="#63b8ff" stroke="#63b8ff" points="62,-56.98 65.5,-66.98 69,-56.98 62,-56.98"/>
</a>
</g>
</g>
<!-- Node3 -->
<g id="Node000003" class="node">
<title>Node3</title>
<g id="a_Node000003"><a xlink:href="classhelios_1_1util_1_1log_1_1Logger.html" target="_top" xlink:title="Simple Logger implementation.">
<polygon fill="white" stroke="#666666" points="113,-169 18,-169 18,-139 113,-139 113,-169"/>
<text text-anchor="start" x="26" y="-157" font-family="Helvetica,sans-Serif" font-size="10.00">helios::util::log::</text>
<text text-anchor="middle" x="65.5" y="-146" font-family="Helvetica,sans-Serif" font-size="10.00">Logger</text>
</a>
</g>
</g>
<!-- Node3&#45;&gt;Node2 -->
<g id="edge2_Node000002_Node000003" class="edge">
<title>Node3&#45;&gt;Node2</title>
<g id="a_edge2_Node000002_Node000003"><a xlink:title=" ">
<path fill="none" stroke="#9a32cd" stroke-dasharray="5,2" d="M65.5,-128.4C65.5,-113.81 65.5,-96.22 65.5,-86.01"/>
<polygon fill="#9a32cd" stroke="#9a32cd" points="62,-128.8 65.5,-138.8 69,-128.8 62,-128.8"/>
</a>
</g>
<text text-anchor="start" x="69" y="-109.5" font-family="Helvetica,sans-Serif" font-size="10.00" fill="grey">logger_</text>
</g>
</g>
</svg>
