<?xml version="1.0" encoding="UTF-8" standalone="no"?>
<!DOCTYPE svg PUBLIC "-//W3C//DTD SVG 1.1//EN"
 "http://www.w3.org/Graphics/SVG/1.1/DTD/svg11.dtd">
<!-- Generated by graphviz version 2.43.0 (0)
 -->
<!-- Title: helios::rendering::Renderable::Renderable Pages: 1 -->
<svg width="339pt" height="170pt"
 viewBox="0.00 0.00 339.00 170.00" xmlns="http://www.w3.org/2000/svg" xmlns:xlink="http://www.w3.org/1999/xlink">

<svg id="main" version="1.1" xmlns="http://www.w3.org/2000/svg" xmlns:xlink="http://www.w3.org/1999/xlink" xml:space="preserve">

<style type="text/css"><![CDATA[
.node, .edge {opacity: 0.7;}
.node.selected, .edge.selected {opacity: 1;}
.edge:hover path { stroke: red; }
.edge:hover polygon { stroke: red; fill: red; }
]]></style>
<script type="application/ecmascript" xlink:href="svg.min.js"/>
<svg id="graph" class="graph">
<g id="graph0" class="graph" transform="scale(1 1) rotate(0) translate(4 166)">
<title>helios::rendering::Renderable::Renderable</title>
<!-- Node1 -->
<g id="Node000001" class="node">
<title>Node1</title>
<g id="a_Node000001"><a xlink:title="Creates a new Renderable instance.">
<polygon fill="#999999" stroke="#666666" points="134,-78 0,-78 0,-48 134,-48 134,-78"/>
<text text-anchor="start" x="8" y="-66" font-family="Helvetica,sans-Serif" font-size="10.00">helios::rendering::</text>
<text text-anchor="middle" x="67" y="-55" font-family="Helvetica,sans-Serif" font-size="10.00">Renderable::Renderable</text>
</a>
</g>
</g>
<!-- Node2 -->
<g id="Node000002" class="node">
<title>Node2</title>
<g id="a_Node000002"><a xlink:href="classhelios_1_1rendering_1_1Renderable.html#a75aba581d21c509d9d14581e76b3f0ca" target="_top" xlink:title="Returns a const reference to the MaterialInstance associated with this Renderable.">
<polygon fill="white" stroke="#666666" points="331,-144 170,-144 170,-114 331,-114 331,-144"/>
<text text-anchor="start" x="178" y="-132" font-family="Helvetica,sans-Serif" font-size="10.00">helios::rendering::</text>
<text text-anchor="middle" x="250.5" y="-121" font-family="Helvetica,sans-Serif" font-size="10.00">Renderable::materialInstance</text>
</a>
</g>
</g>
<!-- Node1&#45;&gt;Node2 -->
<g id="edge1_Node000001_Node000002" class="edge">
<title>Node1&#45;&gt;Node2</title>
<g id="a_edge1_Node000001_Node000002"><a xlink:title=" ">
<path fill="none" stroke="#63b8ff" d="M102.14,-78.03C121.8,-86.45 147.09,-96.85 170,-105 175.57,-106.98 181.39,-108.94 187.25,-110.84"/>
<polygon fill="#63b8ff" stroke="#63b8ff" points="186.5,-114.28 197.09,-113.97 188.62,-107.61 186.5,-114.28"/>
</a>
</g>
</g>
<!-- Node3 -->
<g id="Node000003" class="node">
<title>Node3</title>
<g id="a_Node000003"><a xlink:href="classhelios_1_1rendering_1_1Renderable.html#a7a7d54190d3e65ee8a933e0e6ef75dea" target="_top" xlink:title="Returns a shared ptr to the Mesh this Renderable uses. The returned shared_ptr references the underly...">
<polygon fill="white" stroke="#666666" points="303,-78 198,-78 198,-48 303,-48 303,-78"/>
<text text-anchor="start" x="206" y="-66" font-family="Helvetica,sans-Serif" font-size="10.00">helios::rendering::</text>
<text text-anchor="middle" x="250.5" y="-55" font-family="Helvetica,sans-Serif" font-size="10.00">Renderable::mesh</text>
</a>
</g>
</g>
<!-- Node1&#45;&gt;Node3 -->
<g id="edge3_Node000001_Node000003" class="edge">
<title>Node1&#45;&gt;Node3</title>
<g id="a_edge3_Node000001_Node000003"><a xlink:title=" ">
<path fill="none" stroke="#63b8ff" d="M134.04,-63C151.41,-63 170.1,-63 187.26,-63"/>
<polygon fill="#63b8ff" stroke="#63b8ff" points="187.73,-66.5 197.73,-63 187.73,-59.5 187.73,-66.5"/>
</a>
</g>
</g>
<!-- Node4 -->
<g id="Node000004" class="node">
<title>Node4</title>
<g id="a_Node000004"><a xlink:href="classhelios_1_1rendering_1_1Renderable.html#a5a0b1ee7371be890d2b48b5582e4eebf" target="_top" xlink:title=" ">
<polygon fill="white" stroke="#666666" points="317.5,-30 183.5,-30 183.5,0 317.5,0 317.5,-30"/>
<text text-anchor="start" x="191.5" y="-18" font-family="Helvetica,sans-Serif" font-size="10.00">helios::rendering::</text>
<text text-anchor="middle" x="250.5" y="-7" font-family="Helvetica,sans-Serif" font-size="10.00">Renderable::Renderable</text>
</a>
</g>
</g>
<!-- Node1&#45;&gt;Node4 -->
<g id="edge5_Node000001_Node000004" class="edge">
<title>Node1&#45;&gt;Node4</title>
<g id="a_edge5_Node000001_Node000004"><a xlink:title=" ">
<path fill="none" stroke="#63b8ff" d="M124.93,-47.94C143.34,-43.07 163.93,-37.63 182.97,-32.59"/>
<polygon fill="#63b8ff" stroke="#63b8ff" points="184,-35.94 192.77,-30 182.21,-29.18 184,-35.94"/>
</a>
</g>
</g>
<!-- Node2&#45;&gt;Node2 -->
<g id="edge2_Node000002_Node000002" class="edge">
<title>Node2&#45;&gt;Node2</title>
<g id="a_edge2_Node000002_Node000002"><a xlink:title=" ">
<path fill="none" stroke="#63b8ff" d="M218.51,-144.28C211.4,-153.41 222.06,-162 250.5,-162 267.38,-162 278,-158.97 282.36,-154.6"/>
<polygon fill="#63b8ff" stroke="#63b8ff" points="285.86,-154.32 282.49,-144.28 278.86,-154.23 285.86,-154.32"/>
</a>
</g>
</g>
<!-- Node3&#45;&gt;Node3 -->
<g id="edge4_Node000003_Node000003" class="edge">
<title>Node3&#45;&gt;Node3</title>
<g id="a_edge4_Node000003_Node000003"><a xlink:title=" ">
<path fill="none" stroke="#63b8ff" d="M218.51,-78.28C211.4,-87.41 222.06,-96 250.5,-96 267.38,-96 278,-92.97 282.36,-88.6"/>
<polygon fill="#63b8ff" stroke="#63b8ff" points="285.86,-88.32 282.49,-78.28 278.86,-88.23 285.86,-88.32"/>
</a>
</g>
</g>
</g>
</svg>
</svg>

<style type='text/css'>
<![CDATA[
[data-mouse-over-selected='false'] { opacity: 0.7; }
[data-mouse-over-selected='true']  { opacity: 1.0; }
]]>
</style>
<script type="application/ecmascript"><![CDATA[
document.addEventListener('DOMContentLoaded', (event) => {
  highlightEdges();
  highlightAdjacentNodes();
});
]]></script>
</svg>
