<?xml version="1.0" encoding="UTF-8" standalone="no"?>
<!DOCTYPE svg PUBLIC "-//W3C//DTD SVG 1.1//EN"
 "http://www.w3.org/Graphics/SVG/1.1/DTD/svg11.dtd">
<!-- Generated by graphviz version 2.43.0 (0)
 -->
<!-- Title: helios::input::gamepad::GamepadState::updateAxes Pages: 1 -->
<svg width="399pt" height="806pt"
 viewBox="0.00 0.00 399.00 806.00" xmlns="http://www.w3.org/2000/svg" xmlns:xlink="http://www.w3.org/1999/xlink">
<g id="graph0" class="graph" transform="scale(1 1) rotate(0) translate(4 802)">
<title>helios::input::gamepad::GamepadState::updateAxes</title>
<!-- Node1 -->
<g id="Node000001" class="node">
<title>Node1</title>
<g id="a_Node000001"><a xlink:title="Updates the axes and button states of this GamepadState object.">
<polygon fill="#999999" stroke="#666666" points="158,-414 0,-414 0,-384 158,-384 158,-414"/>
<text text-anchor="start" x="8" y="-402" font-family="Helvetica,sans-Serif" font-size="10.00">helios::input::gamepad</text>
<text text-anchor="middle" x="79" y="-391" font-family="Helvetica,sans-Serif" font-size="10.00">::GamepadState::updateAxes</text>
</a>
</g>
</g>
<!-- Node2 -->
<g id="Node000002" class="node">
<title>Node2</title>
<g id="a_Node000002"><a xlink:href="classhelios_1_1input_1_1gamepad_1_1GamepadState.html#ad50c09d2f84f2e1095f937c787eac86e" target="_top" xlink:title="Returns true when the A button is pressed.">
<polygon fill="white" stroke="#666666" points="362.5,-798 222.5,-798 222.5,-768 362.5,-768 362.5,-798"/>
<text text-anchor="start" x="230.5" y="-786" font-family="Helvetica,sans-Serif" font-size="10.00">helios::input::gamepad</text>
<text text-anchor="middle" x="292.5" y="-775" font-family="Helvetica,sans-Serif" font-size="10.00">::GamepadState::buttonA</text>
</a>
</g>
</g>
<!-- Node1&#45;&gt;Node2 -->
<g id="edge1_Node000001_Node000002" class="edge">
<title>Node1&#45;&gt;Node2</title>
<g id="a_edge1_Node000001_Node000002"><a xlink:title=" ">
<path fill="none" stroke="#63b8ff" d="M79.9,-414.36C80.41,-469.82 89.93,-661.52 194,-759 199.51,-764.16 205.95,-768.26 212.84,-771.52"/>
<polygon fill="#63b8ff" stroke="#63b8ff" points="211.89,-774.91 222.48,-775.45 214.54,-768.43 211.89,-774.91"/>
</a>
</g>
</g>
<!-- Node3 -->
<g id="Node000003" class="node">
<title>Node3</title>
<g id="a_Node000003"><a xlink:href="classhelios_1_1input_1_1gamepad_1_1GamepadState.html#a068967ab65a6874ce5b5de039af79e8c" target="_top" xlink:title="Returns true when the B button is pressed.">
<polygon fill="white" stroke="#666666" points="362.5,-750 222.5,-750 222.5,-720 362.5,-720 362.5,-750"/>
<text text-anchor="start" x="230.5" y="-738" font-family="Helvetica,sans-Serif" font-size="10.00">helios::input::gamepad</text>
<text text-anchor="middle" x="292.5" y="-727" font-family="Helvetica,sans-Serif" font-size="10.00">::GamepadState::buttonB</text>
</a>
</g>
</g>
<!-- Node1&#45;&gt;Node3 -->
<g id="edge2_Node000001_Node000003" class="edge">
<title>Node1&#45;&gt;Node3</title>
<g id="a_edge2_Node000001_Node000003"><a xlink:title=" ">
<path fill="none" stroke="#63b8ff" d="M80.73,-414.08C84.02,-464.42 101.68,-628.23 194,-711 199.53,-715.96 205.93,-719.93 212.74,-723.11"/>
<polygon fill="#63b8ff" stroke="#63b8ff" points="211.67,-726.45 222.25,-726.97 214.3,-719.97 211.67,-726.45"/>
</a>
</g>
</g>
<!-- Node4 -->
<g id="Node000004" class="node">
<title>Node4</title>
<g id="a_Node000004"><a xlink:href="classhelios_1_1input_1_1gamepad_1_1GamepadState.html#a8b2355cd51de412b86fc565fa4f2d4e4" target="_top" xlink:title="Returns true when the Back button is pressed.">
<polygon fill="white" stroke="#666666" points="371,-702 214,-702 214,-672 371,-672 371,-702"/>
<text text-anchor="start" x="222" y="-690" font-family="Helvetica,sans-Serif" font-size="10.00">helios::input::gamepad</text>
<text text-anchor="middle" x="292.5" y="-679" font-family="Helvetica,sans-Serif" font-size="10.00">::GamepadState::buttonBack</text>
</a>
</g>
</g>
<!-- Node1&#45;&gt;Node4 -->
<g id="edge3_Node000001_Node000004" class="edge">
<title>Node1&#45;&gt;Node4</title>
<g id="a_edge3_Node000001_Node000004"><a xlink:title=" ">
<path fill="none" stroke="#63b8ff" d="M81.87,-414.3C88.28,-459.73 113.59,-594.96 194,-663 197.29,-665.79 200.86,-668.26 204.62,-670.45"/>
<polygon fill="#63b8ff" stroke="#63b8ff" points="203.2,-673.66 213.7,-675.08 206.38,-667.42 203.2,-673.66"/>
</a>
</g>
</g>
<!-- Node5 -->
<g id="Node000005" class="node">
<title>Node5</title>
<g id="a_Node000005"><a xlink:href="classhelios_1_1input_1_1gamepad_1_1GamepadState.html#a7a4a6a420b36e858ab68f6fd181ca0f0" target="_top" xlink:title="Returns true when the D&#45;pad Down button is pressed.">
<polygon fill="white" stroke="#666666" points="385.5,-654 199.5,-654 199.5,-624 385.5,-624 385.5,-654"/>
<text text-anchor="start" x="207.5" y="-642" font-family="Helvetica,sans-Serif" font-size="10.00">helios::input::gamepad</text>
<text text-anchor="middle" x="292.5" y="-631" font-family="Helvetica,sans-Serif" font-size="10.00">::GamepadState::buttonDpadDown</text>
</a>
</g>
</g>
<!-- Node1&#45;&gt;Node5 -->
<g id="edge4_Node000001_Node000005" class="edge">
<title>Node1&#45;&gt;Node5</title>
<g id="a_edge4_Node000001_Node000005"><a xlink:title=" ">
<path fill="none" stroke="#63b8ff" d="M83.4,-414.06C93.14,-453.61 125,-561.09 194,-615 195.79,-616.4 197.64,-617.71 199.56,-618.95"/>
<polygon fill="#63b8ff" stroke="#63b8ff" points="197.86,-622.01 208.29,-623.92 201.33,-615.93 197.86,-622.01"/>
</a>
</g>
</g>
<!-- Node6 -->
<g id="Node000006" class="node">
<title>Node6</title>
<g id="a_Node000006"><a xlink:href="classhelios_1_1input_1_1gamepad_1_1GamepadState.html#a1de9efc2cfe80fa50b14d3f0a7bee4ac" target="_top" xlink:title="Returns true when the D&#45;pad Left button is pressed.">
<polygon fill="white" stroke="#666666" points="380.5,-606 204.5,-606 204.5,-576 380.5,-576 380.5,-606"/>
<text text-anchor="start" x="212.5" y="-594" font-family="Helvetica,sans-Serif" font-size="10.00">helios::input::gamepad</text>
<text text-anchor="middle" x="292.5" y="-583" font-family="Helvetica,sans-Serif" font-size="10.00">::GamepadState::buttonDpadLeft</text>
</a>
</g>
</g>
<!-- Node1&#45;&gt;Node6 -->
<g id="edge5_Node000001_Node000006" class="edge">
<title>Node1&#45;&gt;Node6</title>
<g id="a_edge5_Node000001_Node000006"><a xlink:title=" ">
<path fill="none" stroke="#63b8ff" d="M85.77,-414.07C99.29,-447.24 136.28,-526.83 194,-567 196.13,-568.48 198.34,-569.87 200.61,-571.18"/>
<polygon fill="#63b8ff" stroke="#63b8ff" points="199.18,-574.37 209.68,-575.8 202.36,-568.14 199.18,-574.37"/>
</a>
</g>
</g>
<!-- Node7 -->
<g id="Node000007" class="node">
<title>Node7</title>
<g id="a_Node000007"><a xlink:href="classhelios_1_1input_1_1gamepad_1_1GamepadState.html#afbd0ee0861ba38451c1aecbb6fb0e283" target="_top" xlink:title="Returns true when the D&#45;pad Right button is pressed.">
<polygon fill="white" stroke="#666666" points="384.5,-558 200.5,-558 200.5,-528 384.5,-528 384.5,-558"/>
<text text-anchor="start" x="208.5" y="-546" font-family="Helvetica,sans-Serif" font-size="10.00">helios::input::gamepad</text>
<text text-anchor="middle" x="292.5" y="-535" font-family="Helvetica,sans-Serif" font-size="10.00">::GamepadState::buttonDpadRight</text>
</a>
</g>
</g>
<!-- Node1&#45;&gt;Node7 -->
<g id="edge6_Node000001_Node000007" class="edge">
<title>Node1&#45;&gt;Node7</title>
<g id="a_edge6_Node000001_Node000007"><a xlink:title=" ">
<path fill="none" stroke="#63b8ff" d="M89.97,-414.16C107.7,-439.87 147.28,-491.87 194,-519 197.07,-520.78 200.27,-522.43 203.56,-523.96"/>
<polygon fill="#63b8ff" stroke="#63b8ff" points="202.45,-527.3 213.02,-527.96 205.17,-520.85 202.45,-527.3"/>
</a>
</g>
</g>
<!-- Node8 -->
<g id="Node000008" class="node">
<title>Node8</title>
<g id="a_Node000008"><a xlink:href="classhelios_1_1input_1_1gamepad_1_1GamepadState.html#ab92525c10fcd68ba5b3c780f52e38174" target="_top" xlink:title="Returns true when the D&#45;pad Up button is pressed.">
<polygon fill="white" stroke="#666666" points="378.5,-510 206.5,-510 206.5,-480 378.5,-480 378.5,-510"/>
<text text-anchor="start" x="214.5" y="-498" font-family="Helvetica,sans-Serif" font-size="10.00">helios::input::gamepad</text>
<text text-anchor="middle" x="292.5" y="-487" font-family="Helvetica,sans-Serif" font-size="10.00">::GamepadState::buttonDpadUp</text>
</a>
</g>
</g>
<!-- Node1&#45;&gt;Node8 -->
<g id="edge7_Node000001_Node000008" class="edge">
<title>Node1&#45;&gt;Node8</title>
<g id="a_edge7_Node000001_Node000008"><a xlink:title=" ">
<path fill="none" stroke="#63b8ff" d="M99.5,-414.09C121.38,-430.34 158.46,-455.88 194,-471 198.96,-473.11 204.15,-475.06 209.43,-476.86"/>
<polygon fill="#63b8ff" stroke="#63b8ff" points="208.43,-480.22 219.03,-479.94 210.57,-473.55 208.43,-480.22"/>
</a>
</g>
</g>
<!-- Node9 -->
<g id="Node000009" class="node">
<title>Node9</title>
<g id="a_Node000009"><a xlink:href="classhelios_1_1input_1_1gamepad_1_1GamepadState.html#ac37675a6b2a9f26eacb75481a8654e60" target="_top" xlink:title="Returns true when the Guide button is pressed.">
<polygon fill="white" stroke="#666666" points="373,-462 212,-462 212,-432 373,-432 373,-462"/>
<text text-anchor="start" x="220" y="-450" font-family="Helvetica,sans-Serif" font-size="10.00">helios::input::gamepad</text>
<text text-anchor="middle" x="292.5" y="-439" font-family="Helvetica,sans-Serif" font-size="10.00">::GamepadState::buttonGuide</text>
</a>
</g>
</g>
<!-- Node1&#45;&gt;Node9 -->
<g id="edge8_Node000001_Node000009" class="edge">
<title>Node1&#45;&gt;Node9</title>
<g id="a_edge8_Node000001_Node000009"><a xlink:title=" ">
<path fill="none" stroke="#63b8ff" d="M146.34,-414.06C168.29,-419.04 192.88,-424.62 215.5,-429.75"/>
<polygon fill="#63b8ff" stroke="#63b8ff" points="214.87,-433.2 225.4,-432 216.42,-426.37 214.87,-433.2"/>
</a>
</g>
</g>
<!-- Node10 -->
<g id="Node000010" class="node">
<title>Node10</title>
<g id="a_Node000010"><a xlink:href="classhelios_1_1input_1_1gamepad_1_1GamepadState.html#a0e29924d8d026778ace2e91c778ba4a5" target="_top" xlink:title="Returns true when the left bumper is pressed.">
<polygon fill="white" stroke="#666666" points="387,-414 198,-414 198,-384 387,-384 387,-414"/>
<text text-anchor="start" x="206" y="-402" font-family="Helvetica,sans-Serif" font-size="10.00">helios::input::gamepad</text>
<text text-anchor="middle" x="292.5" y="-391" font-family="Helvetica,sans-Serif" font-size="10.00">::GamepadState::buttonLeftBumper</text>
</a>
</g>
</g>
<!-- Node1&#45;&gt;Node10 -->
<g id="edge9_Node000001_Node000010" class="edge">
<title>Node1&#45;&gt;Node10</title>
<g id="a_edge9_Node000001_Node000010"><a xlink:title=" ">
<path fill="none" stroke="#63b8ff" d="M158.15,-399C167.76,-399 177.69,-399 187.61,-399"/>
<polygon fill="#63b8ff" stroke="#63b8ff" points="187.91,-402.5 197.91,-399 187.91,-395.5 187.91,-402.5"/>
</a>
</g>
</g>
<!-- Node11 -->
<g id="Node000011" class="node">
<title>Node11</title>
<g id="a_Node000011"><a xlink:href="classhelios_1_1input_1_1gamepad_1_1GamepadState.html#afa01f268c73449a45d5cba341f68648a" target="_top" xlink:title="Returns true when the left thumbstick button is pressed.">
<polygon fill="white" stroke="#666666" points="385,-366 200,-366 200,-336 385,-336 385,-366"/>
<text text-anchor="start" x="208" y="-354" font-family="Helvetica,sans-Serif" font-size="10.00">helios::input::gamepad</text>
<text text-anchor="middle" x="292.5" y="-343" font-family="Helvetica,sans-Serif" font-size="10.00">::GamepadState::buttonLeftThumb</text>
</a>
</g>
</g>
<!-- Node1&#45;&gt;Node11 -->
<g id="edge10_Node000001_Node000011" class="edge">
<title>Node1&#45;&gt;Node11</title>
<g id="a_edge10_Node000001_Node000011"><a xlink:title=" ">
<path fill="none" stroke="#63b8ff" d="M146.34,-383.94C168.29,-378.96 192.88,-373.38 215.5,-368.25"/>
<polygon fill="#63b8ff" stroke="#63b8ff" points="216.42,-371.63 225.4,-366 214.87,-364.8 216.42,-371.63"/>
</a>
</g>
</g>
<!-- Node12 -->
<g id="Node000012" class="node">
<title>Node12</title>
<g id="a_Node000012"><a xlink:href="classhelios_1_1input_1_1gamepad_1_1GamepadState.html#a0153832e95905c8c7ad3ad9092d8eac0" target="_top" xlink:title="Returns true when the right bumper is pressed.">
<polygon fill="white" stroke="#666666" points="391,-318 194,-318 194,-288 391,-288 391,-318"/>
<text text-anchor="start" x="202" y="-306" font-family="Helvetica,sans-Serif" font-size="10.00">helios::input::gamepad</text>
<text text-anchor="middle" x="292.5" y="-295" font-family="Helvetica,sans-Serif" font-size="10.00">::GamepadState::buttonRightBumper</text>
</a>
</g>
</g>
<!-- Node1&#45;&gt;Node12 -->
<g id="edge11_Node000001_Node000012" class="edge">
<title>Node1&#45;&gt;Node12</title>
<g id="a_edge11_Node000001_Node000012"><a xlink:title=" ">
<path fill="none" stroke="#63b8ff" d="M99.5,-383.91C121.38,-367.66 158.46,-342.12 194,-327 198.96,-324.89 204.15,-322.94 209.43,-321.14"/>
<polygon fill="#63b8ff" stroke="#63b8ff" points="210.57,-324.45 219.03,-318.06 208.43,-317.78 210.57,-324.45"/>
</a>
</g>
</g>
<!-- Node13 -->
<g id="Node000013" class="node">
<title>Node13</title>
<g id="a_Node000013"><a xlink:href="classhelios_1_1input_1_1gamepad_1_1GamepadState.html#af6450490a050564bf1366148b04d67de" target="_top" xlink:title="Returns true when the right thumbstick button is pressed.">
<polygon fill="white" stroke="#666666" points="388.5,-270 196.5,-270 196.5,-240 388.5,-240 388.5,-270"/>
<text text-anchor="start" x="204.5" y="-258" font-family="Helvetica,sans-Serif" font-size="10.00">helios::input::gamepad</text>
<text text-anchor="middle" x="292.5" y="-247" font-family="Helvetica,sans-Serif" font-size="10.00">::GamepadState::buttonRightThumb</text>
</a>
</g>
</g>
<!-- Node1&#45;&gt;Node13 -->
<g id="edge12_Node000001_Node000013" class="edge">
<title>Node1&#45;&gt;Node13</title>
<g id="a_edge12_Node000001_Node000013"><a xlink:title=" ">
<path fill="none" stroke="#63b8ff" d="M89.97,-383.84C107.7,-358.13 147.28,-306.13 194,-279 197.07,-277.22 200.27,-275.57 203.56,-274.04"/>
<polygon fill="#63b8ff" stroke="#63b8ff" points="205.17,-277.15 213.02,-270.04 202.45,-270.7 205.17,-277.15"/>
</a>
</g>
</g>
<!-- Node14 -->
<g id="Node000014" class="node">
<title>Node14</title>
<g id="a_Node000014"><a xlink:href="classhelios_1_1input_1_1gamepad_1_1GamepadState.html#a2023f54665e7aa39ba455a901adc6e1d" target="_top" xlink:title="Returns true when the Start button is pressed.">
<polygon fill="white" stroke="#666666" points="370.5,-222 214.5,-222 214.5,-192 370.5,-192 370.5,-222"/>
<text text-anchor="start" x="222.5" y="-210" font-family="Helvetica,sans-Serif" font-size="10.00">helios::input::gamepad</text>
<text text-anchor="middle" x="292.5" y="-199" font-family="Helvetica,sans-Serif" font-size="10.00">::GamepadState::buttonStart</text>
</a>
</g>
</g>
<!-- Node1&#45;&gt;Node14 -->
<g id="edge13_Node000001_Node000014" class="edge">
<title>Node1&#45;&gt;Node14</title>
<g id="a_edge13_Node000001_Node000014"><a xlink:title=" ">
<path fill="none" stroke="#63b8ff" d="M85.77,-383.93C99.29,-350.76 136.28,-271.17 194,-231 197.46,-228.59 201.14,-226.42 204.96,-224.47"/>
<polygon fill="#63b8ff" stroke="#63b8ff" points="206.46,-227.64 214.11,-220.3 203.56,-221.27 206.46,-227.64"/>
</a>
</g>
</g>
<!-- Node15 -->
<g id="Node000015" class="node">
<title>Node15</title>
<g id="a_Node000015"><a xlink:href="classhelios_1_1input_1_1gamepad_1_1GamepadState.html#a2416fe357772c57d9dcf0fa46f3e255c" target="_top" xlink:title="Returns true when the X button is pressed.">
<polygon fill="white" stroke="#666666" points="362.5,-174 222.5,-174 222.5,-144 362.5,-144 362.5,-174"/>
<text text-anchor="start" x="230.5" y="-162" font-family="Helvetica,sans-Serif" font-size="10.00">helios::input::gamepad</text>
<text text-anchor="middle" x="292.5" y="-151" font-family="Helvetica,sans-Serif" font-size="10.00">::GamepadState::buttonX</text>
</a>
</g>
</g>
<!-- Node1&#45;&gt;Node15 -->
<g id="edge14_Node000001_Node000015" class="edge">
<title>Node1&#45;&gt;Node15</title>
<g id="a_edge14_Node000001_Node000015"><a xlink:title=" ">
<path fill="none" stroke="#63b8ff" d="M83.4,-383.94C93.14,-344.39 125,-236.91 194,-183 199.71,-178.54 206.14,-174.89 212.91,-171.91"/>
<polygon fill="#63b8ff" stroke="#63b8ff" points="214.26,-175.14 222.3,-168.25 211.71,-168.62 214.26,-175.14"/>
</a>
</g>
</g>
<!-- Node16 -->
<g id="Node000016" class="node">
<title>Node16</title>
<g id="a_Node000016"><a xlink:href="classhelios_1_1input_1_1gamepad_1_1GamepadState.html#a6bbce85c5ea851e8a6fa47e3c8e1d330" target="_top" xlink:title="Returns true when the Y button is pressed.">
<polygon fill="white" stroke="#666666" points="362,-126 223,-126 223,-96 362,-96 362,-126"/>
<text text-anchor="start" x="231" y="-114" font-family="Helvetica,sans-Serif" font-size="10.00">helios::input::gamepad</text>
<text text-anchor="middle" x="292.5" y="-103" font-family="Helvetica,sans-Serif" font-size="10.00">::GamepadState::buttonY</text>
</a>
</g>
</g>
<!-- Node1&#45;&gt;Node16 -->
<g id="edge15_Node000001_Node000016" class="edge">
<title>Node1&#45;&gt;Node16</title>
<g id="a_edge15_Node000001_Node000016"><a xlink:title=" ">
<path fill="none" stroke="#63b8ff" d="M81.87,-383.7C88.28,-338.27 113.59,-203.04 194,-135 199.72,-130.16 206.26,-126.27 213.2,-123.15"/>
<polygon fill="#63b8ff" stroke="#63b8ff" points="214.83,-126.27 222.85,-119.34 212.27,-119.75 214.83,-126.27"/>
</a>
</g>
</g>
<!-- Node17 -->
<g id="Node000017" class="node">
<title>Node17</title>
<g id="a_Node000017"><a xlink:href="classhelios_1_1input_1_1gamepad_1_1GamepadState.html#a24dee448f65b242cfa6fb36a2615559a" target="_top" xlink:title="Returns the current value of the left trigger.">
<polygon fill="white" stroke="#666666" points="368.5,-78 216.5,-78 216.5,-48 368.5,-48 368.5,-78"/>
<text text-anchor="start" x="224.5" y="-66" font-family="Helvetica,sans-Serif" font-size="10.00">helios::input::gamepad</text>
<text text-anchor="middle" x="292.5" y="-55" font-family="Helvetica,sans-Serif" font-size="10.00">::GamepadState::triggerLeft</text>
</a>
</g>
</g>
<!-- Node1&#45;&gt;Node17 -->
<g id="edge16_Node000001_Node000017" class="edge">
<title>Node1&#45;&gt;Node17</title>
<g id="a_edge16_Node000001_Node000017"><a xlink:title=" ">
<path fill="none" stroke="#63b8ff" d="M80.73,-383.92C84.02,-333.58 101.68,-169.77 194,-87 197.95,-83.45 202.35,-80.41 207.02,-77.81"/>
<polygon fill="#63b8ff" stroke="#63b8ff" points="208.84,-80.82 216.31,-73.31 205.79,-74.52 208.84,-80.82"/>
</a>
</g>
</g>
<!-- Node18 -->
<g id="Node000018" class="node">
<title>Node18</title>
<g id="a_Node000018"><a xlink:href="classhelios_1_1input_1_1gamepad_1_1GamepadState.html#a71cd296694d25b524c2d48943faa1590" target="_top" xlink:title="Returns the current value of the right trigger.">
<polygon fill="white" stroke="#666666" points="372,-30 213,-30 213,0 372,0 372,-30"/>
<text text-anchor="start" x="221" y="-18" font-family="Helvetica,sans-Serif" font-size="10.00">helios::input::gamepad</text>
<text text-anchor="middle" x="292.5" y="-7" font-family="Helvetica,sans-Serif" font-size="10.00">::GamepadState::triggerRight</text>
</a>
</g>
</g>
<!-- Node1&#45;&gt;Node18 -->
<g id="edge17_Node000001_Node000018" class="edge">
<title>Node1&#45;&gt;Node18</title>
<g id="a_edge17_Node000001_Node000018"><a xlink:title=" ">
<path fill="none" stroke="#63b8ff" d="M79.9,-383.64C80.41,-328.18 89.93,-136.48 194,-39 196.99,-36.2 200.26,-33.71 203.72,-31.5"/>
<polygon fill="#63b8ff" stroke="#63b8ff" points="205.62,-34.44 212.69,-26.55 202.24,-28.31 205.62,-34.44"/>
</a>
</g>
</g>
</g>
</svg>
