<?xml version="1.0" encoding="UTF-8" standalone="no"?>
<!DOCTYPE svg PUBLIC "-//W3C//DTD SVG 1.1//EN"
 "http://www.w3.org/Graphics/SVG/1.1/DTD/svg11.dtd">
<!-- Generated by graphviz version 2.43.0 (0)
 -->
<!-- Title: helios::app::controller::WindowRenderingController Pages: 1 -->
<svg width="193pt" height="170pt"
 viewBox="0.00 0.00 193.00 170.00" xmlns="http://www.w3.org/2000/svg" xmlns:xlink="http://www.w3.org/1999/xlink">
<g id="graph0" class="graph" transform="scale(1 1) rotate(0) translate(4 166)">
<title>helios::app::controller::WindowRenderingController</title>
<!-- Node1 -->
<g id="Node000001" class="node">
<title>Node1</title>
<g id="a_Node000001"><a xlink:title="Abstract base controller for handling window related events.">
<polygon fill="#999999" stroke="#666666" points="172,-96 13,-96 13,-66 172,-66 172,-96"/>
<text text-anchor="start" x="21" y="-84" font-family="Helvetica,sans-Serif" font-size="10.00">helios::app::controller</text>
<text text-anchor="middle" x="92.5" y="-73" font-family="Helvetica,sans-Serif" font-size="10.00">::WindowRenderingController</text>
</a>
</g>
</g>
<!-- Node3 -->
<g id="Node000003" class="node">
<title>Node3</title>
<g id="a_Node000003"><a xlink:href="classhelios_1_1app_1_1controller_1_1BasicWindowRenderingController.html" target="_top" xlink:title="Basic implementation of a window rendering controller.">
<polygon fill="white" stroke="#666666" points="185,-30 0,-30 0,0 185,0 185,-30"/>
<text text-anchor="start" x="8" y="-18" font-family="Helvetica,sans-Serif" font-size="10.00">helios::app::controller</text>
<text text-anchor="middle" x="92.5" y="-7" font-family="Helvetica,sans-Serif" font-size="10.00">::BasicWindowRenderingController</text>
</a>
</g>
</g>
<!-- Node1&#45;&gt;Node3 -->
<g id="edge2_Node000001_Node000003" class="edge">
<title>Node1&#45;&gt;Node3</title>
<g id="a_edge2_Node000001_Node000003"><a xlink:title=" ">
<path fill="none" stroke="#63b8ff" d="M92.5,-55.54C92.5,-46.96 92.5,-37.61 92.5,-30.16"/>
<polygon fill="#63b8ff" stroke="#63b8ff" points="89,-55.8 92.5,-65.8 96,-55.8 89,-55.8"/>
</a>
</g>
</g>
<!-- Node2 -->
<g id="Node000002" class="node">
<title>Node2</title>
<g id="a_Node000002"><a xlink:href="classhelios_1_1app_1_1controller_1_1Controller.html" target="_top" xlink:title="Abstract base class for application controllers.">
<polygon fill="white" stroke="#666666" points="153.5,-162 31.5,-162 31.5,-132 153.5,-132 153.5,-162"/>
<text text-anchor="start" x="39.5" y="-150" font-family="Helvetica,sans-Serif" font-size="10.00">helios::app::controller</text>
<text text-anchor="middle" x="92.5" y="-139" font-family="Helvetica,sans-Serif" font-size="10.00">::Controller</text>
</a>
</g>
</g>
<!-- Node2&#45;&gt;Node1 -->
<g id="edge1_Node000001_Node000002" class="edge">
<title>Node2&#45;&gt;Node1</title>
<g id="a_edge1_Node000001_Node000002"><a xlink:title=" ">
<path fill="none" stroke="#63b8ff" d="M92.5,-121.54C92.5,-112.96 92.5,-103.61 92.5,-96.16"/>
<polygon fill="#63b8ff" stroke="#63b8ff" points="89,-121.8 92.5,-131.8 96,-121.8 89,-121.8"/>
</a>
</g>
</g>
</g>
</svg>
