<?xml version="1.0" encoding="UTF-8" standalone="no"?>
<!DOCTYPE svg PUBLIC "-//W3C//DTD SVG 1.1//EN"
 "http://www.w3.org/Graphics/SVG/1.1/DTD/svg11.dtd">
<!-- Generated by graphviz version 2.43.0 (0)
 -->
<!-- Title: helios::engine::game::components::gameplay::ShootComponent Pages: 1 -->
<svg width="981pt" height="177pt"
 viewBox="0.00 0.00 981.00 177.35" xmlns="http://www.w3.org/2000/svg" xmlns:xlink="http://www.w3.org/1999/xlink">
<g id="graph0" class="graph" transform="scale(1 1) rotate(0) translate(4 173.35)">
<title>helios::engine::game::components::gameplay::ShootComponent</title>
<!-- Node1 -->
<g id="Node000001" class="node">
<title>Node1</title>
<g id="a_Node000001"><a xlink:title="Component for handling projectile shooting with rate limiting.">
<polygon fill="#999999" stroke="#666666" points="973,-123.5 836,-123.5 836,-82.5 973,-82.5 973,-123.5"/>
<text text-anchor="start" x="844" y="-111.5" font-family="Helvetica,sans-Serif" font-size="10.00">helios::engine::game</text>
<text text-anchor="start" x="844" y="-100.5" font-family="Helvetica,sans-Serif" font-size="10.00">::components::gameplay</text>
<text text-anchor="middle" x="904.5" y="-89.5" font-family="Helvetica,sans-Serif" font-size="10.00">::ShootComponent</text>
</a>
</g>
</g>
<!-- Node2 -->
<g id="Node000002" class="node">
<title>Node2</title>
<g id="a_Node000002"><a xlink:href="classhelios_1_1engine_1_1game_1_1Component.html" target="_top" xlink:title="Abstract base class for components attached to GameObjects.">
<polygon fill="white" stroke="#666666" points="510,-143 391,-143 391,-113 510,-113 510,-143"/>
<text text-anchor="start" x="399" y="-131" font-family="Helvetica,sans-Serif" font-size="10.00">helios::engine::game</text>
<text text-anchor="middle" x="450.5" y="-120" font-family="Helvetica,sans-Serif" font-size="10.00">::Component</text>
</a>
</g>
</g>
<!-- Node2&#45;&gt;Node1 -->
<g id="edge1_Node000001_Node000002" class="edge">
<title>Node2&#45;&gt;Node1</title>
<g id="a_edge1_Node000001_Node000002"><a xlink:title=" ">
<path fill="none" stroke="#63b8ff" d="M499.87,-146.33C514.76,-151.11 531.36,-155.6 547,-158 666.31,-176.3 701.69,-172.31 818,-140 832.8,-135.89 848.4,-129.73 862.15,-123.62"/>
<polygon fill="#63b8ff" stroke="#63b8ff" points="500.95,-143 490.36,-143.16 498.74,-149.64 500.95,-143"/>
</a>
</g>
</g>
<!-- Node6 -->
<g id="Node000006" class="node">
<title>Node6</title>
<g id="a_Node000006"><a xlink:href="classhelios_1_1engine_1_1game_1_1components_1_1gameplay_1_1Aim2DComponent.html" target="_top" xlink:title="Component for handling 2D aiming direction and fire frequency.">
<polygon fill="white" stroke="#666666" points="684,-148.5 547,-148.5 547,-107.5 684,-107.5 684,-148.5"/>
<text text-anchor="start" x="555" y="-136.5" font-family="Helvetica,sans-Serif" font-size="10.00">helios::engine::game</text>
<text text-anchor="start" x="555" y="-125.5" font-family="Helvetica,sans-Serif" font-size="10.00">::components::gameplay</text>
<text text-anchor="middle" x="615.5" y="-114.5" font-family="Helvetica,sans-Serif" font-size="10.00">::Aim2DComponent</text>
</a>
</g>
</g>
<!-- Node2&#45;&gt;Node6 -->
<g id="edge6_Node000006_Node000002" class="edge">
<title>Node2&#45;&gt;Node6</title>
<g id="a_edge6_Node000006_Node000002"><a xlink:title=" ">
<path fill="none" stroke="#63b8ff" d="M520.49,-128C529.23,-128 538.16,-128 546.88,-128"/>
<polygon fill="#63b8ff" stroke="#63b8ff" points="520.35,-124.5 510.35,-128 520.35,-131.5 520.35,-124.5"/>
</a>
</g>
</g>
<!-- Node7 -->
<g id="Node000007" class="node">
<title>Node7</title>
<g id="a_Node000007"><a xlink:href="classhelios_1_1engine_1_1game_1_1components_1_1physics_1_1TransformComponent.html" target="_top" xlink:title="Component that holds transformation data (position, rotation, scale).">
<polygon fill="white" stroke="#666666" points="679.5,-89.5 551.5,-89.5 551.5,-48.5 679.5,-48.5 679.5,-89.5"/>
<text text-anchor="start" x="559.5" y="-77.5" font-family="Helvetica,sans-Serif" font-size="10.00">helios::engine::game</text>
<text text-anchor="start" x="559.5" y="-66.5" font-family="Helvetica,sans-Serif" font-size="10.00">::components::physics</text>
<text text-anchor="middle" x="615.5" y="-55.5" font-family="Helvetica,sans-Serif" font-size="10.00">::TransformComponent</text>
</a>
</g>
</g>
<!-- Node2&#45;&gt;Node7 -->
<g id="edge8_Node000007_Node000002" class="edge">
<title>Node2&#45;&gt;Node7</title>
<g id="a_edge8_Node000007_Node000002"><a xlink:title=" ">
<path fill="none" stroke="#63b8ff" d="M502.53,-109.53C520.03,-103.2 539.72,-96.07 557.65,-89.58"/>
<polygon fill="#63b8ff" stroke="#63b8ff" points="501.27,-106.26 493.05,-112.96 503.65,-112.85 501.27,-106.26"/>
</a>
</g>
</g>
<!-- Node3 -->
<g id="Node000003" class="node">
<title>Node3</title>
<g id="a_Node000003"><a xlink:href="classhelios_1_1engine_1_1game_1_1GameObject.html" target="_top" xlink:title="Base class for interactive game entities using a component&#45;based architecture.">
<polygon fill="white" stroke="#666666" points="284,-143 165,-143 165,-113 284,-113 284,-143"/>
<text text-anchor="start" x="173" y="-131" font-family="Helvetica,sans-Serif" font-size="10.00">helios::engine::game</text>
<text text-anchor="middle" x="224.5" y="-120" font-family="Helvetica,sans-Serif" font-size="10.00">::GameObject</text>
</a>
</g>
</g>
<!-- Node3&#45;&gt;Node2 -->
<g id="edge2_Node000002_Node000003" class="edge">
<title>Node3&#45;&gt;Node2</title>
<g id="a_edge2_Node000002_Node000003"><a xlink:title=" ">
<path fill="none" stroke="#9a32cd" stroke-dasharray="5,2" d="M294.32,-128C325.23,-128 361.3,-128 390.89,-128"/>
<polygon fill="#9a32cd" stroke="#9a32cd" points="294.06,-124.5 284.06,-128 294.06,-131.5 294.06,-124.5"/>
</a>
</g>
<text text-anchor="start" x="305.5" y="-133.5" font-family="Helvetica,sans-Serif" font-size="10.00" fill="grey">gameObject_</text>
</g>
<!-- Node4 -->
<g id="Node000004" class="node">
<title>Node4</title>
<g id="a_Node000004"><a xlink:href="classhelios_1_1util_1_1Guid.html" target="_top" xlink:title="Representative of a Globally Unique Identifier.">
<polygon fill="white" stroke="#666666" points="96,-137.5 0,-137.5 0,-118.5 96,-118.5 96,-137.5"/>
<text text-anchor="middle" x="48" y="-125.5" font-family="Helvetica,sans-Serif" font-size="10.00">helios::util::Guid</text>
</a>
</g>
</g>
<!-- Node4&#45;&gt;Node3 -->
<g id="edge3_Node000003_Node000004" class="edge">
<title>Node4&#45;&gt;Node3</title>
<g id="a_edge3_Node000003_Node000004"><a xlink:title=" ">
<path fill="none" stroke="#9a32cd" stroke-dasharray="5,2" d="M106.38,-128C125.09,-128 145.88,-128 164.7,-128"/>
<polygon fill="#9a32cd" stroke="#9a32cd" points="106.22,-124.5 96.22,-128 106.22,-131.5 106.22,-124.5"/>
</a>
</g>
<text text-anchor="start" x="117.5" y="-133.5" font-family="Helvetica,sans-Serif" font-size="10.00" fill="grey">guid_</text>
</g>
<!-- Node5 -->
<g id="Node000005" class="node">
<title>Node5</title>
<g id="a_Node000005"><a xlink:href="classhelios_1_1engine_1_1game_1_1Updatable.html" target="_top" xlink:title="Interface for components that require per&#45;frame updates.">
<polygon fill="white" stroke="#666666" points="675,-30 556,-30 556,0 675,0 675,-30"/>
<text text-anchor="start" x="564" y="-18" font-family="Helvetica,sans-Serif" font-size="10.00">helios::engine::game</text>
<text text-anchor="middle" x="615.5" y="-7" font-family="Helvetica,sans-Serif" font-size="10.00">::Updatable</text>
</a>
</g>
</g>
<!-- Node5&#45;&gt;Node1 -->
<g id="edge4_Node000001_Node000005" class="edge">
<title>Node5&#45;&gt;Node1</title>
<g id="a_edge4_Node000001_Node000005"><a xlink:title=" ">
<path fill="none" stroke="#63b8ff" d="M681.72,-32.75C721.31,-43.78 772.76,-58.57 818,-73 827.14,-75.92 836.78,-79.15 846.16,-82.38"/>
<polygon fill="#63b8ff" stroke="#63b8ff" points="682.49,-29.34 671.92,-30.03 680.62,-36.08 682.49,-29.34"/>
</a>
</g>
</g>
<!-- Node6&#45;&gt;Node1 -->
<g id="edge5_Node000001_Node000006" class="edge">
<title>Node6&#45;&gt;Node1</title>
<g id="a_edge5_Node000001_Node000006"><a xlink:title=" ">
<path fill="none" stroke="#9a32cd" stroke-dasharray="5,2" d="M694.28,-121.22C738.51,-117.37 793.36,-112.59 835.81,-108.9"/>
<polygon fill="#9a32cd" stroke="#9a32cd" points="693.81,-117.75 684.15,-122.11 694.42,-124.73 693.81,-117.75"/>
</a>
</g>
<text text-anchor="start" x="720" y="-124.5" font-family="Helvetica,sans-Serif" font-size="10.00" fill="grey">aimComponent_</text>
</g>
<!-- Node7&#45;&gt;Node1 -->
<g id="edge7_Node000001_Node000007" class="edge">
<title>Node7&#45;&gt;Node1</title>
<g id="a_edge7_Node000001_Node000007"><a xlink:title=" ">
<path fill="none" stroke="#9a32cd" stroke-dasharray="5,2" d="M689.69,-75.79C727.97,-79.56 775.57,-84.57 818,-90 823.81,-90.74 829.83,-91.56 835.87,-92.42"/>
<polygon fill="#9a32cd" stroke="#9a32cd" points="689.96,-72.3 679.66,-74.81 689.28,-79.27 689.96,-72.3"/>
</a>
</g>
<text text-anchor="start" x="705" y="-95.5" font-family="Helvetica,sans-Serif" font-size="10.00" fill="grey">transformComponent_</text>
</g>
</g>
</svg>
