<?xml version="1.0" encoding="UTF-8" standalone="no"?>
<!DOCTYPE svg PUBLIC "-//W3C//DTD SVG 1.1//EN"
 "http://www.w3.org/Graphics/SVG/1.1/DTD/svg11.dtd">
<!-- Generated by graphviz version 2.43.0 (0)
 -->
<!-- Title: helios::rendering::RenderCommand::materialUniformValues Pages: 1 -->
<svg width="424pt" height="67pt"
 viewBox="0.00 0.00 424.00 67.00" xmlns="http://www.w3.org/2000/svg" xmlns:xlink="http://www.w3.org/1999/xlink">
<g id="graph0" class="graph" transform="scale(1 1) rotate(0) translate(4 63)">
<title>helios::rendering::RenderCommand::materialUniformValues</title>
<!-- Node1 -->
<g id="Node000001" class="node">
<title>Node1</title>
<g id="a_Node000001"><a xlink:title="Returns a const ref to this command&#39;s UniformValueMap for the material.">
<polygon fill="#999999" stroke="#666666" points="416,-41 228,-41 228,0 416,0 416,-41"/>
<text text-anchor="start" x="236" y="-29" font-family="Helvetica,sans-Serif" font-size="10.00">helios::rendering::</text>
<text text-anchor="start" x="236" y="-18" font-family="Helvetica,sans-Serif" font-size="10.00">RenderCommand::materialUniform</text>
<text text-anchor="middle" x="322" y="-7" font-family="Helvetica,sans-Serif" font-size="10.00">Values</text>
</a>
</g>
</g>
<!-- Node1&#45;&gt;Node1 -->
<g id="edge1_Node000001_Node000001" class="edge">
<title>Node1&#45;&gt;Node1</title>
<g id="a_edge1_Node000001_Node000001"><a xlink:title=" ">
<path fill="none" stroke="#63b8ff" d="M360.88,-50.96C355.1,-55.74 342.14,-59 322,-59 289.78,-59 275.93,-50.65 280.46,-41.1"/>
<polygon fill="#63b8ff" stroke="#63b8ff" points="364.32,-51.66 363.54,-41.1 357.56,-49.84 364.32,-51.66"/>
</a>
</g>
</g>
<!-- Node2 -->
<g id="Node000002" class="node">
<title>Node2</title>
<g id="a_Node000002"><a xlink:href="classhelios_1_1rendering_1_1RenderCommand.html#a964f958022fd5794082c60552a7ad946" target="_top" xlink:title="Constructs a new `RenderCommand`. Initializes this `RenderCommand` with weak pointers to the shader a...">
<polygon fill="white" stroke="#666666" points="192,-35.5 0,-35.5 0,-5.5 192,-5.5 192,-35.5"/>
<text text-anchor="start" x="8" y="-23.5" font-family="Helvetica,sans-Serif" font-size="10.00">helios::rendering::</text>
<text text-anchor="middle" x="96" y="-12.5" font-family="Helvetica,sans-Serif" font-size="10.00">RenderCommand::RenderCommand</text>
</a>
</g>
</g>
<!-- Node1&#45;&gt;Node2 -->
<g id="edge2_Node000001_Node000002" class="edge">
<title>Node1&#45;&gt;Node2</title>
<g id="a_edge2_Node000001_Node000002"><a xlink:title=" ">
<path fill="none" stroke="#63b8ff" d="M217.68,-20.5C209.21,-20.5 200.69,-20.5 192.29,-20.5"/>
<polygon fill="#63b8ff" stroke="#63b8ff" points="217.95,-24 227.95,-20.5 217.95,-17 217.95,-24"/>
</a>
</g>
</g>
</g>
</svg>
