<?xml version="1.0" encoding="UTF-8" standalone="no"?>
<!DOCTYPE svg PUBLIC "-//W3C//DTD SVG 1.1//EN"
 "http://www.w3.org/Graphics/SVG/1.1/DTD/svg11.dtd">
<!-- Generated by graphviz version 2.43.0 (0)
 -->
<!-- Title: helios::engine::game::components::physics::ScaleComponent::onAttach Pages: 1 -->
<svg width="507pt" height="65pt"
 viewBox="0.00 0.00 507.00 64.50" xmlns="http://www.w3.org/2000/svg" xmlns:xlink="http://www.w3.org/1999/xlink">
<g id="graph0" class="graph" transform="scale(1 1) rotate(0) translate(4 60.5)">
<title>helios::engine::game::components::physics::ScaleComponent::onAttach</title>
<!-- Node1 -->
<g id="Node000001" class="node">
<title>Node1</title>
<g id="a_Node000001"><a xlink:title="Called when the component is attached to a GameObject.">
<polygon fill="#999999" stroke="#666666" points="155,-56.5 0,-56.5 0,-15.5 155,-15.5 155,-56.5"/>
<text text-anchor="start" x="8" y="-44.5" font-family="Helvetica,sans-Serif" font-size="10.00">helios::engine::game</text>
<text text-anchor="start" x="8" y="-33.5" font-family="Helvetica,sans-Serif" font-size="10.00">::components::physics</text>
<text text-anchor="middle" x="77.5" y="-22.5" font-family="Helvetica,sans-Serif" font-size="10.00">::ScaleComponent::onAttach</text>
</a>
</g>
</g>
<!-- Node2 -->
<g id="Node000002" class="node">
<title>Node2</title>
<g id="a_Node000002"><a xlink:href="classhelios_1_1engine_1_1game_1_1Component.html#a0894e93b95d6d0b71602b8803d2cc213" target="_top" xlink:title="Returns the owning GameObject.">
<polygon fill="white" stroke="#666666" points="499,-51 355,-51 355,-21 499,-21 499,-51"/>
<text text-anchor="start" x="363" y="-39" font-family="Helvetica,sans-Serif" font-size="10.00">helios::engine::game</text>
<text text-anchor="middle" x="427" y="-28" font-family="Helvetica,sans-Serif" font-size="10.00">::Component::gameObject</text>
</a>
</g>
</g>
<!-- Node1&#45;&gt;Node2 -->
<g id="edge1_Node000001_Node000002" class="edge">
<title>Node1&#45;&gt;Node2</title>
<g id="a_edge1_Node000001_Node000002"><a xlink:title=" ">
<path fill="none" stroke="#63b8ff" d="M155.05,-38.32C167.08,-38.6 179.38,-38.85 191,-39 247.88,-39.76 262.12,-39.8 319,-39 327.35,-38.88 336.06,-38.71 344.75,-38.52"/>
<polygon fill="#63b8ff" stroke="#63b8ff" points="345.01,-42.01 354.92,-38.27 344.84,-35.01 345.01,-42.01"/>
</a>
</g>
</g>
<!-- Node3 -->
<g id="Node000003" class="node">
<title>Node3</title>
<g id="a_Node000003"><a xlink:href="classhelios_1_1engine_1_1game_1_1Component.html#a3a4f0b840b179c07299fc291a57fb51f" target="_top" xlink:title="Called when the component is attached to a GameObject.">
<polygon fill="white" stroke="#666666" points="319,-30 191,-30 191,0 319,0 319,-30"/>
<text text-anchor="start" x="199" y="-18" font-family="Helvetica,sans-Serif" font-size="10.00">helios::engine::game</text>
<text text-anchor="middle" x="255" y="-7" font-family="Helvetica,sans-Serif" font-size="10.00">::Component::onAttach</text>
</a>
</g>
</g>
<!-- Node1&#45;&gt;Node3 -->
<g id="edge2_Node000001_Node000003" class="edge">
<title>Node1&#45;&gt;Node3</title>
<g id="a_edge2_Node000001_Node000003"><a xlink:title=" ">
<path fill="none" stroke="#63b8ff" d="M155.22,-26.82C163.68,-25.81 172.28,-24.78 180.69,-23.77"/>
<polygon fill="#63b8ff" stroke="#63b8ff" points="181.33,-27.22 190.85,-22.56 180.5,-20.27 181.33,-27.22"/>
</a>
</g>
</g>
<!-- Node3&#45;&gt;Node2 -->
<g id="edge3_Node000003_Node000002" class="edge">
<title>Node3&#45;&gt;Node2</title>
<g id="a_edge3_Node000003_Node000002"><a xlink:title=" ">
<path fill="none" stroke="#63b8ff" d="M319.3,-22.82C327.65,-23.85 336.29,-24.92 344.88,-25.98"/>
<polygon fill="#63b8ff" stroke="#63b8ff" points="344.57,-29.47 354.92,-27.22 345.43,-22.52 344.57,-29.47"/>
</a>
</g>
</g>
</g>
</svg>
