<?xml version="1.0" encoding="UTF-8" standalone="no"?>
<!DOCTYPE svg PUBLIC "-//W3C//DTD SVG 1.1//EN"
 "http://www.w3.org/Graphics/SVG/1.1/DTD/svg11.dtd">
<!-- Generated by graphviz version 2.43.0 (0)
 -->
<!-- Title: helios::rendering::RenderTarget::RenderTarget Pages: 1 -->
<svg width="314pt" height="104pt"
 viewBox="0.00 0.00 314.00 104.00" xmlns="http://www.w3.org/2000/svg" xmlns:xlink="http://www.w3.org/1999/xlink">
<g id="graph0" class="graph" transform="scale(1 1) rotate(0) translate(4 100)">
<title>helios::rendering::RenderTarget::RenderTarget</title>
<!-- Node1 -->
<g id="Node000001" class="node">
<title>Node1</title>
<g id="a_Node000001"><a xlink:title="Constructs a RenderTarget with an initial viewport and dimensions.">
<polygon fill="#999999" stroke="#666666" points="152,-54 0,-54 0,-24 152,-24 152,-54"/>
<text text-anchor="start" x="8" y="-42" font-family="Helvetica,sans-Serif" font-size="10.00">helios::rendering::</text>
<text text-anchor="middle" x="76" y="-31" font-family="Helvetica,sans-Serif" font-size="10.00">RenderTarget::RenderTarget</text>
</a>
</g>
</g>
<!-- Node2 -->
<g id="Node000002" class="node">
<title>Node2</title>
<g id="a_Node000002"><a xlink:href="classhelios_1_1rendering_1_1RenderTarget.html#a3e4f37f9cfb37b3327ef7285319552fe" target="_top" xlink:title="Gets the height of the render target.">
<polygon fill="white" stroke="#666666" points="306,-78 188,-78 188,-48 306,-48 306,-78"/>
<text text-anchor="start" x="196" y="-66" font-family="Helvetica,sans-Serif" font-size="10.00">helios::rendering::</text>
<text text-anchor="middle" x="247" y="-55" font-family="Helvetica,sans-Serif" font-size="10.00">RenderTarget::height</text>
</a>
</g>
</g>
<!-- Node1&#45;&gt;Node2 -->
<g id="edge1_Node000001_Node000002" class="edge">
<title>Node1&#45;&gt;Node2</title>
<g id="a_edge1_Node000001_Node000002"><a xlink:title=" ">
<path fill="none" stroke="#63b8ff" d="M152.11,-49.67C160.63,-50.88 169.29,-52.11 177.72,-53.3"/>
<polygon fill="#63b8ff" stroke="#63b8ff" points="177.47,-56.8 187.86,-54.74 178.45,-49.87 177.47,-56.8"/>
</a>
</g>
</g>
<!-- Node3 -->
<g id="Node000003" class="node">
<title>Node3</title>
<g id="a_Node000003"><a xlink:href="classhelios_1_1rendering_1_1RenderTarget.html#a4e5e2981a9a80dcf74936038c14d21f6" target="_top" xlink:title="Gets the width of the render target.">
<polygon fill="white" stroke="#666666" points="304,-30 190,-30 190,0 304,0 304,-30"/>
<text text-anchor="start" x="198" y="-18" font-family="Helvetica,sans-Serif" font-size="10.00">helios::rendering::</text>
<text text-anchor="middle" x="247" y="-7" font-family="Helvetica,sans-Serif" font-size="10.00">RenderTarget::width</text>
</a>
</g>
</g>
<!-- Node1&#45;&gt;Node3 -->
<g id="edge3_Node000001_Node000003" class="edge">
<title>Node1&#45;&gt;Node3</title>
<g id="a_edge3_Node000001_Node000003"><a xlink:title=" ">
<path fill="none" stroke="#63b8ff" d="M152.11,-28.33C161.33,-27.02 170.71,-25.69 179.79,-24.4"/>
<polygon fill="#63b8ff" stroke="#63b8ff" points="180.48,-27.84 189.89,-22.97 179.49,-20.91 180.48,-27.84"/>
</a>
</g>
</g>
<!-- Node2&#45;&gt;Node2 -->
<g id="edge2_Node000002_Node000002" class="edge">
<title>Node2&#45;&gt;Node2</title>
<g id="a_edge2_Node000002_Node000002"><a xlink:title=" ">
<path fill="none" stroke="#63b8ff" d="M217.12,-78.28C210.48,-87.41 220.44,-96 247,-96 262.77,-96 272.69,-92.97 276.76,-88.6"/>
<polygon fill="#63b8ff" stroke="#63b8ff" points="280.26,-88.32 276.88,-78.28 273.26,-88.23 280.26,-88.32"/>
</a>
</g>
</g>
</g>
</svg>
