<?xml version="1.0" encoding="UTF-8" standalone="no"?>
<!DOCTYPE svg PUBLIC "-//W3C//DTD SVG 1.1//EN"
 "http://www.w3.org/Graphics/SVG/1.1/DTD/svg11.dtd">
<!-- Generated by graphviz version 2.43.0 (0)
 -->
<!-- Title: helios::scene::CameraSceneNode::addNode Pages: 1 -->
<svg width="339pt" height="56pt"
 viewBox="0.00 0.00 339.00 56.00" xmlns="http://www.w3.org/2000/svg" xmlns:xlink="http://www.w3.org/1999/xlink">
<g id="graph0" class="graph" transform="scale(1 1) rotate(0) translate(4 52)">
<title>helios::scene::CameraSceneNode::addNode</title>
<!-- Node1 -->
<g id="Node000001" class="node">
<title>Node1</title>
<g id="a_Node000001"><a xlink:title="Prevents adding child nodes to a camera scene node.">
<polygon fill="#999999" stroke="#666666" points="154,-30 0,-30 0,0 154,0 154,-30"/>
<text text-anchor="start" x="8" y="-18" font-family="Helvetica,sans-Serif" font-size="10.00">helios::scene::CameraScene</text>
<text text-anchor="middle" x="77" y="-7" font-family="Helvetica,sans-Serif" font-size="10.00">Node::addNode</text>
</a>
</g>
</g>
<!-- Node2 -->
<g id="Node000002" class="node">
<title>Node2</title>
<g id="a_Node000002"><a xlink:href="classhelios_1_1scene_1_1SceneNode.html#a30ad1d7f49d6114a261cbac2706546ab" target="_top" xlink:title="Delete copy constructor. A SceneNode is not copyable.">
<polygon fill="white" stroke="#666666" points="331,-30 190,-30 190,0 331,0 331,-30"/>
<text text-anchor="start" x="198" y="-18" font-family="Helvetica,sans-Serif" font-size="10.00">helios::scene::SceneNode</text>
<text text-anchor="middle" x="260.5" y="-7" font-family="Helvetica,sans-Serif" font-size="10.00">::SceneNode</text>
</a>
</g>
</g>
<!-- Node1&#45;&gt;Node2 -->
<g id="edge1_Node000001_Node000002" class="edge">
<title>Node1&#45;&gt;Node2</title>
<g id="a_edge1_Node000001_Node000002"><a xlink:title=" ">
<path fill="none" stroke="#63b8ff" d="M154.18,-15C162.6,-15 171.18,-15 179.64,-15"/>
<polygon fill="#63b8ff" stroke="#63b8ff" points="179.87,-18.5 189.87,-15 179.87,-11.5 179.87,-18.5"/>
</a>
</g>
</g>
<!-- Node2&#45;&gt;Node2 -->
<g id="edge2_Node000002_Node000002" class="edge">
<title>Node2&#45;&gt;Node2</title>
<g id="a_edge2_Node000002_Node000002"><a xlink:title=" ">
<path fill="none" stroke="#63b8ff" d="M228.51,-30.28C221.4,-39.41 232.06,-48 260.5,-48 277.38,-48 288,-44.97 292.36,-40.6"/>
<polygon fill="#63b8ff" stroke="#63b8ff" points="295.86,-40.32 292.49,-30.28 288.86,-40.23 295.86,-40.32"/>
</a>
</g>
</g>
</g>
</svg>
