<?xml version="1.0" encoding="UTF-8" standalone="no"?>
<!DOCTYPE svg PUBLIC "-//W3C//DTD SVG 1.1//EN"
 "http://www.w3.org/Graphics/SVG/1.1/DTD/svg11.dtd">
<!-- Generated by graphviz version 2.43.0 (0)
 -->
<!-- Title: helios::rendering::model::config::MaterialProperties::withBaseColor Pages: 1 -->
<svg width="402pt" height="67pt"
 viewBox="0.00 0.00 402.00 67.00" xmlns="http://www.w3.org/2000/svg" xmlns:xlink="http://www.w3.org/1999/xlink">
<g id="graph0" class="graph" transform="scale(1 1) rotate(0) translate(4 63)">
<title>helios::rendering::model::config::MaterialProperties::withBaseColor</title>
<!-- Node1 -->
<g id="Node000001" class="node">
<title>Node1</title>
<g id="a_Node000001"><a xlink:title=" ">
<polygon fill="#999999" stroke="#666666" points="179,-41 0,-41 0,0 179,0 179,-41"/>
<text text-anchor="start" x="8" y="-29" font-family="Helvetica,sans-Serif" font-size="10.00">helios::rendering::</text>
<text text-anchor="start" x="8" y="-18" font-family="Helvetica,sans-Serif" font-size="10.00">model::config::MaterialProperties</text>
<text text-anchor="middle" x="89.5" y="-7" font-family="Helvetica,sans-Serif" font-size="10.00">::withBaseColor</text>
</a>
</g>
</g>
<!-- Node1&#45;&gt;Node1 -->
<g id="edge2_Node000001_Node000001" class="edge">
<title>Node1&#45;&gt;Node1</title>
<g id="a_edge2_Node000001_Node000001"><a xlink:title=" ">
<path fill="none" stroke="#63b8ff" d="M50.17,-41.1C45.88,-50.65 58.99,-59 89.5,-59 108.57,-59 120.84,-55.74 126.32,-50.96"/>
<polygon fill="#63b8ff" stroke="#63b8ff" points="129.75,-51.65 128.83,-41.1 122.97,-49.92 129.75,-51.65"/>
</a>
</g>
</g>
<!-- Node2 -->
<g id="Node000002" class="node">
<title>Node2</title>
<g id="a_Node000002"><a xlink:href="classhelios_1_1rendering_1_1model_1_1config_1_1MaterialProperties.html#af471bada8012ac6da20c56ffd1388426" target="_top" xlink:title="Default constructor for MaterialProperties.">
<polygon fill="white" stroke="#666666" points="394,-41 215,-41 215,0 394,0 394,-41"/>
<text text-anchor="start" x="223" y="-29" font-family="Helvetica,sans-Serif" font-size="10.00">helios::rendering::</text>
<text text-anchor="start" x="223" y="-18" font-family="Helvetica,sans-Serif" font-size="10.00">model::config::MaterialProperties</text>
<text text-anchor="middle" x="304.5" y="-7" font-family="Helvetica,sans-Serif" font-size="10.00">::MaterialProperties</text>
</a>
</g>
</g>
<!-- Node1&#45;&gt;Node2 -->
<g id="edge1_Node000001_Node000002" class="edge">
<title>Node1&#45;&gt;Node2</title>
<g id="a_edge1_Node000001_Node000002"><a xlink:title=" ">
<path fill="none" stroke="#63b8ff" d="M179.29,-20.5C187.65,-20.5 196.16,-20.5 204.6,-20.5"/>
<polygon fill="#63b8ff" stroke="#63b8ff" points="204.86,-24 214.86,-20.5 204.85,-17 204.86,-24"/>
</a>
</g>
</g>
</g>
</svg>
