<?xml version="1.0" encoding="UTF-8" standalone="no"?>
<!DOCTYPE svg PUBLIC "-//W3C//DTD SVG 1.1//EN"
 "http://www.w3.org/Graphics/SVG/1.1/DTD/svg11.dtd">
<!-- Generated by graphviz version 2.43.0 (0)
 -->
<!-- Title: helios::engine::game::System::onAdd Pages: 1 -->
<svg width="353pt" height="167pt"
 viewBox="0.00 0.00 353.00 167.00" xmlns="http://www.w3.org/2000/svg" xmlns:xlink="http://www.w3.org/1999/xlink">
<g id="graph0" class="graph" transform="scale(1 1) rotate(0) translate(4 163)">
<title>helios::engine::game::System::onAdd</title>
<!-- Node1 -->
<g id="Node000001" class="node">
<title>Node1</title>
<g id="a_Node000001"><a xlink:title="Called when the system is added to a GameWorld.">
<polygon fill="#999999" stroke="#666666" points="345,-94.5 226,-94.5 226,-64.5 345,-64.5 345,-94.5"/>
<text text-anchor="start" x="234" y="-82.5" font-family="Helvetica,sans-Serif" font-size="10.00">helios::engine::game</text>
<text text-anchor="middle" x="285.5" y="-71.5" font-family="Helvetica,sans-Serif" font-size="10.00">::System::onAdd</text>
</a>
</g>
</g>
<!-- Node2 -->
<g id="Node000002" class="node">
<title>Node2</title>
<g id="a_Node000002"><a xlink:href="classhelios_1_1engine_1_1game_1_1systems_1_1gameplay_1_1ProjectilePoolSystem.html#a4ec8c849cddbd6bf8a247fbfe4edf51f" target="_top" xlink:title="Called when the system is added to a GameWorld.">
<polygon fill="white" stroke="#666666" points="173.5,-159 16.5,-159 16.5,-118 173.5,-118 173.5,-159"/>
<text text-anchor="start" x="24.5" y="-147" font-family="Helvetica,sans-Serif" font-size="10.00">helios::engine::game</text>
<text text-anchor="start" x="24.5" y="-136" font-family="Helvetica,sans-Serif" font-size="10.00">::systems::gameplay::</text>
<text text-anchor="middle" x="95" y="-125" font-family="Helvetica,sans-Serif" font-size="10.00">ProjectilePoolSystem::onAdd</text>
</a>
</g>
</g>
<!-- Node1&#45;&gt;Node2 -->
<g id="edge1_Node000001_Node000002" class="edge">
<title>Node1&#45;&gt;Node2</title>
<g id="a_edge1_Node000001_Node000002"><a xlink:title=" ">
<path fill="none" stroke="#63b8ff" d="M227.64,-97.63C215.24,-101.56 202.18,-105.69 190,-109.5 181.2,-112.25 171.93,-115.14 162.78,-117.97"/>
<polygon fill="#63b8ff" stroke="#63b8ff" points="228.95,-100.89 237.42,-94.53 226.83,-94.22 228.95,-100.89"/>
</a>
</g>
</g>
<!-- Node3 -->
<g id="Node000003" class="node">
<title>Node3</title>
<g id="a_Node000003"><a xlink:href="classhelios_1_1engine_1_1game_1_1systems_1_1physics_1_1Move2DSystem.html#a6125947c755c48c8019504848e181e58" target="_top" xlink:title="Called when the system is added to a GameWorld.">
<polygon fill="white" stroke="#666666" points="190,-100 0,-100 0,-59 190,-59 190,-100"/>
<text text-anchor="start" x="8" y="-88" font-family="Helvetica,sans-Serif" font-size="10.00">helios::engine::game</text>
<text text-anchor="start" x="8" y="-77" font-family="Helvetica,sans-Serif" font-size="10.00">::systems::physics::Move2DSystem</text>
<text text-anchor="middle" x="95" y="-66" font-family="Helvetica,sans-Serif" font-size="10.00">::onAdd</text>
</a>
</g>
</g>
<!-- Node1&#45;&gt;Node3 -->
<g id="edge2_Node000001_Node000003" class="edge">
<title>Node1&#45;&gt;Node3</title>
<g id="a_edge2_Node000001_Node000003"><a xlink:title=" ">
<path fill="none" stroke="#63b8ff" d="M215.87,-79.5C207.51,-79.5 198.87,-79.5 190.23,-79.5"/>
<polygon fill="#63b8ff" stroke="#63b8ff" points="215.89,-83 225.89,-79.5 215.89,-76 215.89,-83"/>
</a>
</g>
</g>
<!-- Node4 -->
<g id="Node000004" class="node">
<title>Node4</title>
<g id="a_Node000004"><a xlink:href="classhelios_1_1engine_1_1game_1_1systems_1_1physics_1_1ScaleSystem.html#a32557d196742d615b17eb040c0039cba" target="_top" xlink:title="Called when the system is added to a GameWorld.">
<polygon fill="white" stroke="#666666" points="183,-41 7,-41 7,0 183,0 183,-41"/>
<text text-anchor="start" x="15" y="-29" font-family="Helvetica,sans-Serif" font-size="10.00">helios::engine::game</text>
<text text-anchor="start" x="15" y="-18" font-family="Helvetica,sans-Serif" font-size="10.00">::systems::physics::ScaleSystem</text>
<text text-anchor="middle" x="95" y="-7" font-family="Helvetica,sans-Serif" font-size="10.00">::onAdd</text>
</a>
</g>
</g>
<!-- Node1&#45;&gt;Node4 -->
<g id="edge3_Node000001_Node000004" class="edge">
<title>Node1&#45;&gt;Node4</title>
<g id="a_edge3_Node000001_Node000004"><a xlink:title=" ">
<path fill="none" stroke="#63b8ff" d="M226.89,-61.47C206.31,-55.03 182.96,-47.72 161.75,-41.08"/>
<polygon fill="#63b8ff" stroke="#63b8ff" points="225.86,-64.81 236.45,-64.46 227.95,-58.13 225.86,-64.81"/>
</a>
</g>
</g>
</g>
</svg>
