<?xml version="1.0" encoding="UTF-8" standalone="no"?>
<!DOCTYPE svg PUBLIC "-//W3C//DTD SVG 1.1//EN"
 "http://www.w3.org/Graphics/SVG/1.1/DTD/svg11.dtd">
<!-- Generated by graphviz version 2.43.0 (0)
 -->
<!-- Title: helios::event::EventManager::dispatcher Pages: 1 -->
<svg width="362pt" height="86pt"
 viewBox="0.00 0.00 362.00 86.00" xmlns="http://www.w3.org/2000/svg" xmlns:xlink="http://www.w3.org/1999/xlink">
<g id="graph0" class="graph" transform="scale(1 1) rotate(0) translate(4 82)">
<title>helios::event::EventManager::dispatcher</title>
<!-- Node1 -->
<g id="Node000001" class="node">
<title>Node1</title>
<g id="a_Node000001"><a xlink:title="Returns a reference to the dispatcher used with this EventManager.">
<polygon fill="#999999" stroke="#666666" points="354,-54 198,-54 198,-24 354,-24 354,-54"/>
<text text-anchor="start" x="206" y="-42" font-family="Helvetica,sans-Serif" font-size="10.00">helios::event::EventManager</text>
<text text-anchor="middle" x="276" y="-31" font-family="Helvetica,sans-Serif" font-size="10.00">::dispatcher</text>
</a>
</g>
</g>
<!-- Node2 -->
<g id="Node000002" class="node">
<title>Node2</title>
<g id="a_Node000002"><a xlink:href="classhelios_1_1event_1_1BasicEventManager.html#a09c5a6c3edfa8b34e5858606be3e769b" target="_top" xlink:title="Constructs a new BasicEventManager, using the specified EventQueue and the Dispatcher.">
<polygon fill="white" stroke="#666666" points="162,-78 0,-78 0,-48 162,-48 162,-78"/>
<text text-anchor="start" x="8" y="-66" font-family="Helvetica,sans-Serif" font-size="10.00">helios::event::BasicEvent</text>
<text text-anchor="middle" x="81" y="-55" font-family="Helvetica,sans-Serif" font-size="10.00">Manager::BasicEventManager</text>
</a>
</g>
</g>
<!-- Node1&#45;&gt;Node2 -->
<g id="edge1_Node000001_Node000002" class="edge">
<title>Node1&#45;&gt;Node2</title>
<g id="a_edge1_Node000001_Node000002"><a xlink:title=" ">
<path fill="none" stroke="#63b8ff" d="M187.89,-49.83C179.32,-50.9 170.64,-51.98 162.15,-53.03"/>
<polygon fill="#63b8ff" stroke="#63b8ff" points="188.4,-53.3 197.89,-48.59 187.53,-46.35 188.4,-53.3"/>
</a>
</g>
</g>
<!-- Node3 -->
<g id="Node000003" class="node">
<title>Node3</title>
<g id="a_Node000003"><a xlink:href="classhelios_1_1event_1_1EventManager.html#a3c5b42ff27558661f8fdb53873caa80a" target="_top" xlink:title="Creates a new EventManager using the specified EventQueue and Dispatcher.">
<polygon fill="white" stroke="#666666" points="159,-30 3,-30 3,0 159,0 159,-30"/>
<text text-anchor="start" x="11" y="-18" font-family="Helvetica,sans-Serif" font-size="10.00">helios::event::EventManager</text>
<text text-anchor="middle" x="81" y="-7" font-family="Helvetica,sans-Serif" font-size="10.00">::EventManager</text>
</a>
</g>
</g>
<!-- Node1&#45;&gt;Node3 -->
<g id="edge2_Node000001_Node000003" class="edge">
<title>Node1&#45;&gt;Node3</title>
<g id="a_edge2_Node000001_Node000003"><a xlink:title=" ">
<path fill="none" stroke="#63b8ff" d="M187.68,-28.14C178.22,-26.97 168.64,-25.77 159.3,-24.61"/>
<polygon fill="#63b8ff" stroke="#63b8ff" points="187.53,-31.65 197.89,-29.41 188.4,-24.7 187.53,-31.65"/>
</a>
</g>
</g>
</g>
</svg>
