<?xml version="1.0" encoding="UTF-8" standalone="no"?>
<!DOCTYPE svg PUBLIC "-//W3C//DTD SVG 1.1//EN"
 "http://www.w3.org/Graphics/SVG/1.1/DTD/svg11.dtd">
<!-- Generated by graphviz version 2.43.0 (0)
 -->
<!-- Title: helios::rendering::RenderCommand::shader Pages: 1 -->
<svg width="600pt" height="183pt"
 viewBox="0.00 0.00 600.00 183.00" xmlns="http://www.w3.org/2000/svg" xmlns:xlink="http://www.w3.org/1999/xlink">
<g id="graph0" class="graph" transform="scale(1 1) rotate(0) translate(4 179)">
<title>helios::rendering::RenderCommand::shader</title>
<!-- Node1 -->
<g id="Node000001" class="node">
<title>Node1</title>
<g id="a_Node000001"><a xlink:title="Returns a weak ptr to the shader associated with this command. Use `shader.lock()` on the return valu...">
<polygon fill="#999999" stroke="#666666" points="592,-102.5 452,-102.5 452,-72.5 592,-72.5 592,-102.5"/>
<text text-anchor="start" x="460" y="-90.5" font-family="Helvetica,sans-Serif" font-size="10.00">helios::rendering::</text>
<text text-anchor="middle" x="522" y="-79.5" font-family="Helvetica,sans-Serif" font-size="10.00">RenderCommand::shader</text>
</a>
</g>
</g>
<!-- Node1&#45;&gt;Node1 -->
<g id="edge8_Node000001_Node000001" class="edge">
<title>Node1&#45;&gt;Node1</title>
<g id="a_edge8_Node000001_Node000001"><a xlink:title=" ">
<path fill="none" stroke="#63b8ff" d="M557.01,-113.1C552.22,-117.47 540.55,-120.5 522,-120.5 490.75,-120.5 479.03,-111.91 486.84,-102.78"/>
<polygon fill="#63b8ff" stroke="#63b8ff" points="560.51,-112.82 557.16,-102.78 553.51,-112.72 560.51,-112.82"/>
</a>
</g>
</g>
<!-- Node2 -->
<g id="Node000002" class="node">
<title>Node2</title>
<g id="a_Node000002"><a xlink:href="classhelios_1_1rendering_1_1RenderCommand.html#a12393226183cacaf5335beac7bffb6ab" target="_top" xlink:title="Returns a const ref to this command&#39;s UniformValueMap for the material.">
<polygon fill="white" stroke="#666666" points="416,-157 228,-157 228,-116 416,-116 416,-157"/>
<text text-anchor="start" x="236" y="-145" font-family="Helvetica,sans-Serif" font-size="10.00">helios::rendering::</text>
<text text-anchor="start" x="236" y="-134" font-family="Helvetica,sans-Serif" font-size="10.00">RenderCommand::materialUniform</text>
<text text-anchor="middle" x="322" y="-123" font-family="Helvetica,sans-Serif" font-size="10.00">Values</text>
</a>
</g>
</g>
<!-- Node1&#45;&gt;Node2 -->
<g id="edge1_Node000001_Node000002" class="edge">
<title>Node1&#45;&gt;Node2</title>
<g id="a_edge1_Node000001_Node000002"><a xlink:title=" ">
<path fill="none" stroke="#63b8ff" d="M450.42,-104.97C435.99,-108.54 420.69,-112.33 405.88,-115.99"/>
<polygon fill="#63b8ff" stroke="#63b8ff" points="451.38,-108.33 460.25,-102.53 449.7,-101.54 451.38,-108.33"/>
</a>
</g>
</g>
<!-- Node3 -->
<g id="Node000003" class="node">
<title>Node3</title>
<g id="a_Node000003"><a xlink:href="classhelios_1_1rendering_1_1RenderCommand.html#a26b8f9e5e6422bdda7ca626002c7d2a3" target="_top" xlink:title="Constructs a new `RenderCommand`. Initializes this `RenderCommand` with weak pointers to the shader a...">
<polygon fill="white" stroke="#666666" points="192,-102.5 0,-102.5 0,-72.5 192,-72.5 192,-102.5"/>
<text text-anchor="start" x="8" y="-90.5" font-family="Helvetica,sans-Serif" font-size="10.00">helios::rendering::</text>
<text text-anchor="middle" x="96" y="-79.5" font-family="Helvetica,sans-Serif" font-size="10.00">RenderCommand::RenderCommand</text>
</a>
</g>
</g>
<!-- Node1&#45;&gt;Node3 -->
<g id="edge7_Node000001_Node000003" class="edge">
<title>Node1&#45;&gt;Node3</title>
<g id="a_edge7_Node000001_Node000003"><a xlink:title=" ">
<path fill="none" stroke="#63b8ff" d="M441.75,-87.5C371.03,-87.5 267.35,-87.5 192.17,-87.5"/>
<polygon fill="#63b8ff" stroke="#63b8ff" points="441.93,-91 451.93,-87.5 441.93,-84 441.93,-91"/>
</a>
</g>
</g>
<!-- Node4 -->
<g id="Node000004" class="node">
<title>Node4</title>
<g id="a_Node000004"><a xlink:href="classhelios_1_1rendering_1_1RenderCommand.html#ad4a8aa4a94a4abbd21e984ac47c60c04" target="_top" xlink:title="Returns a const ref to this command&#39;s UniformValueMap for the object.">
<polygon fill="white" stroke="#666666" points="410.5,-41 233.5,-41 233.5,0 410.5,0 410.5,-41"/>
<text text-anchor="start" x="241.5" y="-29" font-family="Helvetica,sans-Serif" font-size="10.00">helios::rendering::</text>
<text text-anchor="start" x="241.5" y="-18" font-family="Helvetica,sans-Serif" font-size="10.00">RenderCommand::objectUniform</text>
<text text-anchor="middle" x="322" y="-7" font-family="Helvetica,sans-Serif" font-size="10.00">Values</text>
</a>
</g>
</g>
<!-- Node1&#45;&gt;Node4 -->
<g id="edge4_Node000001_Node000004" class="edge">
<title>Node1&#45;&gt;Node4</title>
<g id="a_edge4_Node000001_Node000004"><a xlink:title=" ">
<path fill="none" stroke="#63b8ff" d="M466.97,-69.22C441.24,-60.51 410.36,-50.06 383.8,-41.07"/>
<polygon fill="#63b8ff" stroke="#63b8ff" points="465.97,-72.57 476.56,-72.46 468.21,-65.94 465.97,-72.57"/>
</a>
</g>
</g>
<!-- Node2&#45;&gt;Node2 -->
<g id="edge2_Node000002_Node000002" class="edge">
<title>Node2&#45;&gt;Node2</title>
<g id="a_edge2_Node000002_Node000002"><a xlink:title=" ">
<path fill="none" stroke="#63b8ff" d="M356.41,-166.96C351.29,-171.74 339.82,-175 322,-175 293.48,-175 281.23,-166.65 285.24,-157.1"/>
<polygon fill="#63b8ff" stroke="#63b8ff" points="359.85,-167.64 358.76,-157.1 353.04,-166.01 359.85,-167.64"/>
</a>
</g>
</g>
<!-- Node2&#45;&gt;Node3 -->
<g id="edge3_Node000002_Node000003" class="edge">
<title>Node2&#45;&gt;Node3</title>
<g id="a_edge3_Node000002_Node000003"><a xlink:title=" ">
<path fill="none" stroke="#63b8ff" d="M218.15,-114C200.43,-110.12 182.4,-106.18 165.85,-102.56"/>
<polygon fill="#63b8ff" stroke="#63b8ff" points="217.43,-117.43 227.95,-116.15 218.93,-110.59 217.43,-117.43"/>
</a>
</g>
</g>
<!-- Node4&#45;&gt;Node3 -->
<g id="edge6_Node000004_Node000003" class="edge">
<title>Node4&#45;&gt;Node3</title>
<g id="a_edge6_Node000004_Node000003"><a xlink:title=" ">
<path fill="none" stroke="#63b8ff" d="M242.61,-43.95C211.02,-53.4 175.5,-64.02 147.45,-72.41"/>
<polygon fill="#63b8ff" stroke="#63b8ff" points="243.69,-47.28 252.27,-41.06 241.69,-40.57 243.69,-47.28"/>
</a>
</g>
</g>
<!-- Node4&#45;&gt;Node4 -->
<g id="edge5_Node000004_Node000004" class="edge">
<title>Node4&#45;&gt;Node4</title>
<g id="a_edge5_Node000004_Node000004"><a xlink:title=" ">
<path fill="none" stroke="#63b8ff" d="M356.41,-50.96C351.29,-55.74 339.82,-59 322,-59 293.48,-59 281.23,-50.65 285.24,-41.1"/>
<polygon fill="#63b8ff" stroke="#63b8ff" points="359.85,-51.64 358.76,-41.1 353.04,-50.01 359.85,-51.64"/>
</a>
</g>
</g>
</g>
</svg>
