<?xml version="1.0" encoding="UTF-8" standalone="no"?>
<!DOCTYPE svg PUBLIC "-//W3C//DTD SVG 1.1//EN"
 "http://www.w3.org/Graphics/SVG/1.1/DTD/svg11.dtd">
<!-- Generated by graphviz version 2.43.0 (0)
 -->
<!-- Title: helios::engine::game::Component::gameObject Pages: 1 -->
<svg width="544pt" height="232pt"
 viewBox="0.00 0.00 544.00 231.50" xmlns="http://www.w3.org/2000/svg" xmlns:xlink="http://www.w3.org/1999/xlink">
<g id="graph0" class="graph" transform="scale(1 1) rotate(0) translate(4 227.5)">
<title>helios::engine::game::Component::gameObject</title>
<!-- Node1 -->
<g id="Node000001" class="node">
<title>Node1</title>
<g id="a_Node000001"><a xlink:title="Returns the owning GameObject.">
<polygon fill="#999999" stroke="#666666" points="536,-138 392,-138 392,-108 536,-108 536,-138"/>
<text text-anchor="start" x="400" y="-126" font-family="Helvetica,sans-Serif" font-size="10.00">helios::engine::game</text>
<text text-anchor="middle" x="464" y="-115" font-family="Helvetica,sans-Serif" font-size="10.00">::Component::gameObject</text>
</a>
</g>
</g>
<!-- Node2 -->
<g id="Node000002" class="node">
<title>Node2</title>
<g id="a_Node000002"><a xlink:href="classhelios_1_1engine_1_1game_1_1Component.html#a3a4f0b840b179c07299fc291a57fb51f" target="_top" xlink:title="Called when the component is attached to a GameObject.">
<polygon fill="white" stroke="#666666" points="348.5,-138 220.5,-138 220.5,-108 348.5,-108 348.5,-138"/>
<text text-anchor="start" x="228.5" y="-126" font-family="Helvetica,sans-Serif" font-size="10.00">helios::engine::game</text>
<text text-anchor="middle" x="284.5" y="-115" font-family="Helvetica,sans-Serif" font-size="10.00">::Component::onAttach</text>
</a>
</g>
</g>
<!-- Node1&#45;&gt;Node2 -->
<g id="edge1_Node000001_Node000002" class="edge">
<title>Node1&#45;&gt;Node2</title>
<g id="a_edge1_Node000001_Node000002"><a xlink:title=" ">
<path fill="none" stroke="#63b8ff" d="M381.71,-123C370.62,-123 359.37,-123 348.67,-123"/>
<polygon fill="#63b8ff" stroke="#63b8ff" points="381.83,-126.5 391.83,-123 381.83,-119.5 381.83,-126.5"/>
</a>
</g>
</g>
<!-- Node3 -->
<g id="Node000003" class="node">
<title>Node3</title>
<g id="a_Node000003"><a xlink:href="classhelios_1_1engine_1_1game_1_1components_1_1gameplay_1_1ShootComponent.html#a982f9dee44c71d5b368daeeece71e2af" target="_top" xlink:title="Called when the component is attached to a GameObject.">
<polygon fill="white" stroke="#666666" points="166.5,-223.5 10.5,-223.5 10.5,-182.5 166.5,-182.5 166.5,-223.5"/>
<text text-anchor="start" x="18.5" y="-211.5" font-family="Helvetica,sans-Serif" font-size="10.00">helios::engine::game</text>
<text text-anchor="start" x="18.5" y="-200.5" font-family="Helvetica,sans-Serif" font-size="10.00">::components::gameplay</text>
<text text-anchor="middle" x="88.5" y="-189.5" font-family="Helvetica,sans-Serif" font-size="10.00">::ShootComponent::onAttach</text>
</a>
</g>
</g>
<!-- Node1&#45;&gt;Node3 -->
<g id="edge5_Node000001_Node000003" class="edge">
<title>Node1&#45;&gt;Node3</title>
<g id="a_edge5_Node000001_Node000003"><a xlink:title=" ">
<path fill="none" stroke="#63b8ff" d="M419.08,-141.78C399.99,-149.32 377.19,-157.51 356,-163 293.27,-179.24 220.41,-189.62 166.75,-195.72"/>
<polygon fill="#63b8ff" stroke="#63b8ff" points="420.44,-145.01 428.41,-138.03 417.83,-138.51 420.44,-145.01"/>
</a>
</g>
</g>
<!-- Node4 -->
<g id="Node000004" class="node">
<title>Node4</title>
<g id="a_Node000004"><a xlink:href="classhelios_1_1engine_1_1game_1_1components_1_1physics_1_1ScaleComponent.html#a3bce83bc309c3871781fce628cc34107" target="_top" xlink:title="Called when the component is attached to a GameObject.">
<polygon fill="white" stroke="#666666" points="166,-163.5 11,-163.5 11,-122.5 166,-122.5 166,-163.5"/>
<text text-anchor="start" x="19" y="-151.5" font-family="Helvetica,sans-Serif" font-size="10.00">helios::engine::game</text>
<text text-anchor="start" x="19" y="-140.5" font-family="Helvetica,sans-Serif" font-size="10.00">::components::physics</text>
<text text-anchor="middle" x="88.5" y="-129.5" font-family="Helvetica,sans-Serif" font-size="10.00">::ScaleComponent::onAttach</text>
</a>
</g>
</g>
<!-- Node1&#45;&gt;Node4 -->
<g id="edge6_Node000001_Node000004" class="edge">
<title>Node1&#45;&gt;Node4</title>
<g id="a_edge6_Node000001_Node000004"><a xlink:title=" ">
<path fill="none" stroke="#63b8ff" d="M396.67,-140.26C383.3,-143.06 369.27,-145.53 356,-147 292.3,-154.06 219.52,-152.31 166.13,-149.21"/>
<polygon fill="#63b8ff" stroke="#63b8ff" points="397.73,-143.61 406.75,-138.06 396.24,-136.77 397.73,-143.61"/>
</a>
</g>
</g>
<!-- Node5 -->
<g id="Node000005" class="node">
<title>Node5</title>
<g id="a_Node000005"><a xlink:href="classhelios_1_1engine_1_1game_1_1components_1_1scene_1_1SceneNodeComponent.html#ae7578125e68c725783741c57a0cc9313" target="_top" xlink:title="Called when the component is attached to a GameObject.">
<polygon fill="white" stroke="#666666" points="177,-103.5 0,-103.5 0,-62.5 177,-62.5 177,-103.5"/>
<text text-anchor="start" x="8" y="-91.5" font-family="Helvetica,sans-Serif" font-size="10.00">helios::engine::game</text>
<text text-anchor="start" x="8" y="-80.5" font-family="Helvetica,sans-Serif" font-size="10.00">::components::scene::</text>
<text text-anchor="middle" x="88.5" y="-69.5" font-family="Helvetica,sans-Serif" font-size="10.00">SceneNodeComponent::onAttach</text>
</a>
</g>
</g>
<!-- Node1&#45;&gt;Node5 -->
<g id="edge7_Node000001_Node000005" class="edge">
<title>Node1&#45;&gt;Node5</title>
<g id="a_edge7_Node000001_Node000005"><a xlink:title=" ">
<path fill="none" stroke="#63b8ff" d="M393.94,-105.81C381.38,-103.17 368.35,-100.74 356,-99 296.68,-90.62 229.33,-86.63 177.17,-84.72"/>
<polygon fill="#63b8ff" stroke="#63b8ff" points="393.37,-109.26 403.89,-107.96 394.85,-102.42 393.37,-109.26"/>
</a>
</g>
</g>
<!-- Node6 -->
<g id="Node000006" class="node">
<title>Node6</title>
<g id="a_Node000006"><a xlink:href="classhelios_1_1engine_1_1game_1_1components_1_1input_1_1TwinStickInputComponent.html#aaeab3d39edea2bbbb2da0cf521fd6059" target="_top" xlink:title="Processes gamepad input and generates movement/aiming commands.">
<polygon fill="white" stroke="#666666" points="356,-52 213,-52 213,0 356,0 356,-52"/>
<text text-anchor="start" x="221" y="-40" font-family="Helvetica,sans-Serif" font-size="10.00">helios::engine::game</text>
<text text-anchor="start" x="221" y="-29" font-family="Helvetica,sans-Serif" font-size="10.00">::components::input::</text>
<text text-anchor="start" x="221" y="-18" font-family="Helvetica,sans-Serif" font-size="10.00">TwinStickInputComponent</text>
<text text-anchor="middle" x="284.5" y="-7" font-family="Helvetica,sans-Serif" font-size="10.00">::update</text>
</a>
</g>
</g>
<!-- Node1&#45;&gt;Node6 -->
<g id="edge8_Node000001_Node000006" class="edge">
<title>Node1&#45;&gt;Node6</title>
<g id="a_edge8_Node000001_Node000006"><a xlink:title=" ">
<path fill="none" stroke="#63b8ff" d="M426.19,-102.89C399.3,-88.19 362.59,-68.13 333.42,-52.19"/>
<polygon fill="#63b8ff" stroke="#63b8ff" points="424.81,-106.12 435.27,-107.84 428.17,-99.98 424.81,-106.12"/>
</a>
</g>
</g>
<!-- Node2&#45;&gt;Node3 -->
<g id="edge2_Node000002_Node000003" class="edge">
<title>Node2&#45;&gt;Node3</title>
<g id="a_edge2_Node000002_Node000003"><a xlink:title=" ">
<path fill="none" stroke="#63b8ff" d="M244.5,-142.56C224.54,-152.24 199.72,-163.8 177,-173 169.11,-176.19 160.74,-179.35 152.42,-182.35"/>
<polygon fill="#63b8ff" stroke="#63b8ff" points="246.14,-145.65 253.59,-138.11 243.07,-139.36 246.14,-145.65"/>
</a>
</g>
</g>
<!-- Node2&#45;&gt;Node4 -->
<g id="edge3_Node000002_Node000004" class="edge">
<title>Node2&#45;&gt;Node4</title>
<g id="a_edge3_Node000002_Node000004"><a xlink:title=" ">
<path fill="none" stroke="#63b8ff" d="M209.97,-130.58C195.66,-132.06 180.62,-133.61 166.21,-135.09"/>
<polygon fill="#63b8ff" stroke="#63b8ff" points="210.66,-134.03 220.25,-129.52 209.94,-127.07 210.66,-134.03"/>
</a>
</g>
</g>
<!-- Node2&#45;&gt;Node5 -->
<g id="edge4_Node000002_Node000005" class="edge">
<title>Node2&#45;&gt;Node5</title>
<g id="a_edge4_Node000002_Node000005"><a xlink:title=" ">
<path fill="none" stroke="#63b8ff" d="M210.12,-107.87C199.41,-105.66 188.29,-103.37 177.33,-101.11"/>
<polygon fill="#63b8ff" stroke="#63b8ff" points="209.74,-111.37 220.25,-109.96 211.16,-104.51 209.74,-111.37"/>
</a>
</g>
</g>
</g>
</svg>
