<?xml version="1.0" encoding="UTF-8" standalone="no"?>
<!DOCTYPE svg PUBLIC "-//W3C//DTD SVG 1.1//EN"
 "http://www.w3.org/Graphics/SVG/1.1/DTD/svg11.dtd">
<!-- Generated by graphviz version 2.43.0 (0)
 -->
<!-- Title: helios::engine::game::systems::gameplay::ProjectilePoolSystem::onAdd Pages: 1 -->
<svg width="504pt" height="108pt"
 viewBox="0.00 0.00 504.00 108.00" xmlns="http://www.w3.org/2000/svg" xmlns:xlink="http://www.w3.org/1999/xlink">
<g id="graph0" class="graph" transform="scale(1 1) rotate(0) translate(4 104)">
<title>helios::engine::game::systems::gameplay::ProjectilePoolSystem::onAdd</title>
<!-- Node1 -->
<g id="Node000001" class="node">
<title>Node1</title>
<g id="a_Node000001"><a xlink:title="Called when the system is added to a GameWorld.">
<polygon fill="#999999" stroke="#666666" points="157,-75.5 0,-75.5 0,-34.5 157,-34.5 157,-75.5"/>
<text text-anchor="start" x="8" y="-63.5" font-family="Helvetica,sans-Serif" font-size="10.00">helios::engine::game</text>
<text text-anchor="start" x="8" y="-52.5" font-family="Helvetica,sans-Serif" font-size="10.00">::systems::gameplay::</text>
<text text-anchor="middle" x="78.5" y="-41.5" font-family="Helvetica,sans-Serif" font-size="10.00">ProjectilePoolSystem::onAdd</text>
</a>
</g>
</g>
<!-- Node2 -->
<g id="Node000002" class="node">
<title>Node2</title>
<g id="a_Node000002"><a xlink:href="classhelios_1_1engine_1_1game_1_1System.html#a3abad1bebaa98c46f28105702c58b473" target="_top" xlink:title="Called when the system is added to a GameWorld.">
<polygon fill="white" stroke="#666666" points="315.5,-100 196.5,-100 196.5,-70 315.5,-70 315.5,-100"/>
<text text-anchor="start" x="204.5" y="-88" font-family="Helvetica,sans-Serif" font-size="10.00">helios::engine::game</text>
<text text-anchor="middle" x="256" y="-77" font-family="Helvetica,sans-Serif" font-size="10.00">::System::onAdd</text>
</a>
</g>
</g>
<!-- Node1&#45;&gt;Node2 -->
<g id="edge1_Node000001_Node000002" class="edge">
<title>Node1&#45;&gt;Node2</title>
<g id="a_edge1_Node000001_Node000002"><a xlink:title=" ">
<path fill="none" stroke="#63b8ff" d="M157.24,-68.29C166.87,-69.94 176.66,-71.61 186.15,-73.23"/>
<polygon fill="#63b8ff" stroke="#63b8ff" points="185.84,-76.73 196.29,-74.96 187.02,-69.83 185.84,-76.73"/>
</a>
</g>
</g>
<!-- Node3 -->
<g id="Node000003" class="node">
<title>Node3</title>
<g id="a_Node000003"><a xlink:href="classhelios_1_1engine_1_1game_1_1systems_1_1gameplay_1_1ProjectilePoolSystem.html#a2a64b5c683b4ff6fb6dfac8f64acab39" target="_top" xlink:title=" ">
<polygon fill="white" stroke="#666666" points="319,-52 193,-52 193,0 319,0 319,-52"/>
<text text-anchor="start" x="201" y="-40" font-family="Helvetica,sans-Serif" font-size="10.00">helios::engine::game</text>
<text text-anchor="start" x="201" y="-29" font-family="Helvetica,sans-Serif" font-size="10.00">::systems::gameplay::</text>
<text text-anchor="start" x="201" y="-18" font-family="Helvetica,sans-Serif" font-size="10.00">ProjectilePoolSystem::</text>
<text text-anchor="middle" x="256" y="-7" font-family="Helvetica,sans-Serif" font-size="10.00">prepareProjectiles</text>
</a>
</g>
</g>
<!-- Node1&#45;&gt;Node3 -->
<g id="edge2_Node000001_Node000003" class="edge">
<title>Node1&#45;&gt;Node3</title>
<g id="a_edge2_Node000001_Node000003"><a xlink:title=" ">
<path fill="none" stroke="#63b8ff" d="M157.24,-42.15C165.72,-40.75 174.32,-39.33 182.72,-37.94"/>
<polygon fill="#63b8ff" stroke="#63b8ff" points="183.56,-41.35 192.85,-36.27 182.42,-34.45 183.56,-41.35"/>
</a>
</g>
</g>
<!-- Node4 -->
<g id="Node000004" class="node">
<title>Node4</title>
<g id="a_Node000004"><a xlink:href="classhelios_1_1scene_1_1SceneNode.html#a1020ca70c5268619a3bdfb3acb843e34" target="_top" xlink:title="Returns the axis&#45;aligned bounding box for this SceneNode in world coordinates.">
<polygon fill="white" stroke="#666666" points="496,-41 355,-41 355,-11 496,-11 496,-41"/>
<text text-anchor="start" x="363" y="-29" font-family="Helvetica,sans-Serif" font-size="10.00">helios::scene::SceneNode</text>
<text text-anchor="middle" x="425.5" y="-18" font-family="Helvetica,sans-Serif" font-size="10.00">::aabb</text>
</a>
</g>
</g>
<!-- Node3&#45;&gt;Node4 -->
<g id="edge3_Node000003_Node000004" class="edge">
<title>Node3&#45;&gt;Node4</title>
<g id="a_edge3_Node000003_Node000004"><a xlink:title=" ">
<path fill="none" stroke="#63b8ff" d="M319.37,-26C327.57,-26 336.06,-26 344.5,-26"/>
<polygon fill="#63b8ff" stroke="#63b8ff" points="344.75,-29.5 354.75,-26 344.75,-22.5 344.75,-29.5"/>
</a>
</g>
</g>
<!-- Node4&#45;&gt;Node4 -->
<g id="edge4_Node000004_Node000004" class="edge">
<title>Node4&#45;&gt;Node4</title>
<g id="a_edge4_Node000004_Node000004"><a xlink:title=" ">
<path fill="none" stroke="#63b8ff" d="M395.97,-41.28C389.41,-50.41 399.25,-59 425.5,-59 441.09,-59 450.89,-55.97 454.91,-51.6"/>
<polygon fill="#63b8ff" stroke="#63b8ff" points="458.41,-51.32 455.03,-41.28 451.41,-51.23 458.41,-51.32"/>
</a>
</g>
</g>
</g>
</svg>
