<?xml version="1.0" encoding="UTF-8" standalone="no"?>
<!DOCTYPE svg PUBLIC "-//W3C//DTD SVG 1.1//EN"
 "http://www.w3.org/Graphics/SVG/1.1/DTD/svg11.dtd">
<!-- Generated by graphviz version 2.43.0 (0)
 -->
<!-- Title: helios::app::Application::eventManager Pages: 1 -->
<svg width="306pt" height="98pt"
 viewBox="0.00 0.00 306.00 97.50" xmlns="http://www.w3.org/2000/svg" xmlns:xlink="http://www.w3.org/1999/xlink">
<g id="graph0" class="graph" transform="scale(1 1) rotate(0) translate(4 93.5)">
<title>helios::app::Application::eventManager</title>
<!-- Node1 -->
<g id="Node000001" class="node">
<title>Node1</title>
<g id="a_Node000001"><a xlink:title="Returns the event manager owned by this application.">
<polygon fill="#999999" stroke="#666666" points="298,-62.5 167,-62.5 167,-32.5 298,-32.5 298,-62.5"/>
<text text-anchor="start" x="175" y="-50.5" font-family="Helvetica,sans-Serif" font-size="10.00">helios::app::Application</text>
<text text-anchor="middle" x="232.5" y="-39.5" font-family="Helvetica,sans-Serif" font-size="10.00">::eventManager</text>
</a>
</g>
</g>
<!-- Node2 -->
<g id="Node000002" class="node">
<title>Node2</title>
<g id="a_Node000002"><a xlink:href="classhelios_1_1app_1_1Application.html#a770ed54a97c68d5ac40542f3a702121a" target="_top" xlink:title="Creates a new application instance.">
<polygon fill="white" stroke="#666666" points="131,-89.5 0,-89.5 0,-59.5 131,-59.5 131,-89.5"/>
<text text-anchor="start" x="8" y="-77.5" font-family="Helvetica,sans-Serif" font-size="10.00">helios::app::Application</text>
<text text-anchor="middle" x="65.5" y="-66.5" font-family="Helvetica,sans-Serif" font-size="10.00">::Application</text>
</a>
</g>
</g>
<!-- Node1&#45;&gt;Node2 -->
<g id="edge1_Node000001_Node000002" class="edge">
<title>Node1&#45;&gt;Node2</title>
<g id="a_edge1_Node000001_Node000002"><a xlink:title=" ">
<path fill="none" stroke="#63b8ff" d="M156.76,-59.73C148.18,-61.13 139.48,-62.56 131.05,-63.94"/>
<polygon fill="#63b8ff" stroke="#63b8ff" points="157.46,-63.16 166.76,-58.09 156.33,-56.25 157.46,-63.16"/>
</a>
</g>
</g>
<!-- Node3 -->
<g id="Node000003" class="node">
<title>Node3</title>
<g id="a_Node000003"><a xlink:href="classhelios_1_1ext_1_1glfw_1_1app_1_1GLFWApplication.html#ad50cfc2051b48c6c447df3b53b0734bd" target="_top" xlink:title="Constructs a new `GLFWApplication` instance.">
<polygon fill="white" stroke="#666666" points="127,-41 4,-41 4,0 127,0 127,-41"/>
<text text-anchor="start" x="12" y="-29" font-family="Helvetica,sans-Serif" font-size="10.00">helios::ext::glfw::</text>
<text text-anchor="start" x="12" y="-18" font-family="Helvetica,sans-Serif" font-size="10.00">app::GLFWApplication</text>
<text text-anchor="middle" x="65.5" y="-7" font-family="Helvetica,sans-Serif" font-size="10.00">::GLFWApplication</text>
</a>
</g>
</g>
<!-- Node1&#45;&gt;Node3 -->
<g id="edge2_Node000001_Node000003" class="edge">
<title>Node1&#45;&gt;Node3</title>
<g id="a_edge2_Node000001_Node000003"><a xlink:title=" ">
<path fill="none" stroke="#63b8ff" d="M156.85,-35.28C146.86,-33.65 136.72,-31.99 127.01,-30.4"/>
<polygon fill="#63b8ff" stroke="#63b8ff" points="156.33,-38.75 166.76,-36.91 157.46,-31.84 156.33,-38.75"/>
</a>
</g>
</g>
</g>
</svg>
