<?xml version="1.0" encoding="UTF-8" standalone="no"?>
<!DOCTYPE svg PUBLIC "-//W3C//DTD SVG 1.1//EN"
 "http://www.w3.org/Graphics/SVG/1.1/DTD/svg11.dtd">
<!-- Generated by graphviz version 2.43.0 (0)
 -->
<!-- Title: helios::ext::opengl::rendering::shader::OpenGLShader::operator= Pages: 1 -->
<svg width="367pt" height="67pt"
 viewBox="0.00 0.00 367.00 67.00" xmlns="http://www.w3.org/2000/svg" xmlns:xlink="http://www.w3.org/1999/xlink">
<g id="graph0" class="graph" transform="scale(1 1) rotate(0) translate(4 63)">
<title>helios::ext::opengl::rendering::shader::OpenGLShader::operator=</title>
<!-- Node1 -->
<g id="Node000001" class="node">
<title>Node1</title>
<g id="a_Node000001"><a xlink:title=" ">
<polygon fill="#999999" stroke="#666666" points="150,-41 0,-41 0,0 150,0 150,-41"/>
<text text-anchor="start" x="8" y="-29" font-family="Helvetica,sans-Serif" font-size="10.00">helios::ext::opengl</text>
<text text-anchor="start" x="8" y="-18" font-family="Helvetica,sans-Serif" font-size="10.00">::rendering::shader</text>
<text text-anchor="middle" x="75" y="-7" font-family="Helvetica,sans-Serif" font-size="10.00">::OpenGLShader::operator=</text>
</a>
</g>
</g>
<!-- Node2 -->
<g id="Node000002" class="node">
<title>Node2</title>
<g id="a_Node000002"><a xlink:href="classhelios_1_1ext_1_1opengl_1_1rendering_1_1shader_1_1OpenGLShader.html#ad8d11452ce5d18c63378b2c11c12391c" target="_top" xlink:title="Rule of three.">
<polygon fill="white" stroke="#666666" points="359,-41 186,-41 186,0 359,0 359,-41"/>
<text text-anchor="start" x="194" y="-29" font-family="Helvetica,sans-Serif" font-size="10.00">helios::ext::opengl</text>
<text text-anchor="start" x="194" y="-18" font-family="Helvetica,sans-Serif" font-size="10.00">::rendering::shader</text>
<text text-anchor="middle" x="272.5" y="-7" font-family="Helvetica,sans-Serif" font-size="10.00">::OpenGLShader::OpenGLShader</text>
</a>
</g>
</g>
<!-- Node1&#45;&gt;Node2 -->
<g id="edge1_Node000001_Node000002" class="edge">
<title>Node1&#45;&gt;Node2</title>
<g id="a_edge1_Node000001_Node000002"><a xlink:title=" ">
<path fill="none" stroke="#63b8ff" d="M150.19,-20.5C158.57,-20.5 167.2,-20.5 175.81,-20.5"/>
<polygon fill="#63b8ff" stroke="#63b8ff" points="175.9,-24 185.9,-20.5 175.9,-17 175.9,-24"/>
</a>
</g>
</g>
<!-- Node2&#45;&gt;Node2 -->
<g id="edge2_Node000002_Node000002" class="edge">
<title>Node2&#45;&gt;Node2</title>
<g id="a_edge2_Node000002_Node000002"><a xlink:title=" ">
<path fill="none" stroke="#63b8ff" d="M236.48,-41.1C232.55,-50.65 244.55,-59 272.5,-59 289.97,-59 301.21,-55.74 306.22,-50.96"/>
<polygon fill="#63b8ff" stroke="#63b8ff" points="309.66,-51.63 308.52,-41.1 302.84,-50.04 309.66,-51.63"/>
</a>
</g>
</g>
</g>
</svg>
