<?xml version="1.0" encoding="UTF-8" standalone="no"?>
<!DOCTYPE svg PUBLIC "-//W3C//DTD SVG 1.1//EN"
 "http://www.w3.org/Graphics/SVG/1.1/DTD/svg11.dtd">
<!-- Generated by graphviz version 2.43.0 (0)
 -->
<!-- Title: helios::rendering::Viewport::setClearFlags Pages: 1 -->
<svg width="293pt" height="104pt"
 viewBox="0.00 0.00 293.00 104.00" xmlns="http://www.w3.org/2000/svg" xmlns:xlink="http://www.w3.org/1999/xlink">

<svg id="main" version="1.1" xmlns="http://www.w3.org/2000/svg" xmlns:xlink="http://www.w3.org/1999/xlink" xml:space="preserve">

<style type="text/css"><![CDATA[
.node, .edge {opacity: 0.7;}
.node.selected, .edge.selected {opacity: 1;}
.edge:hover path { stroke: red; }
.edge:hover polygon { stroke: red; fill: red; }
]]></style>
<script type="application/ecmascript" xlink:href="svg.min.js"/>
<svg id="graph" class="graph">
<g id="graph0" class="graph" transform="scale(1 1) rotate(0) translate(4 100)">
<title>helios::rendering::Viewport::setClearFlags</title>
<!-- Node1 -->
<g id="Node000001" class="node">
<title>Node1</title>
<g id="a_Node000001"><a xlink:title="Sets the clear flags for this viewport.">
<polygon fill="#999999" stroke="#666666" points="133,-54 0,-54 0,-24 133,-24 133,-54"/>
<text text-anchor="start" x="8" y="-42" font-family="Helvetica,sans-Serif" font-size="10.00">helios::rendering::</text>
<text text-anchor="middle" x="66.5" y="-31" font-family="Helvetica,sans-Serif" font-size="10.00">Viewport::setClearFlags</text>
</a>
</g>
</g>
<!-- Node1&#45;&gt;Node1 -->
<g id="edge3_Node000001_Node000001" class="edge">
<title>Node1&#45;&gt;Node1</title>
<g id="a_edge3_Node000001_Node000001"><a xlink:title=" ">
<path fill="none" stroke="#63b8ff" d="M38.38,-54.28C32.12,-63.41 41.5,-72 66.5,-72 81.34,-72 90.68,-68.97 94.51,-64.6"/>
<polygon fill="#63b8ff" stroke="#63b8ff" points="98.01,-64.32 94.62,-54.28 91.01,-64.23 98.01,-64.32"/>
</a>
</g>
</g>
<!-- Node2 -->
<g id="Node000002" class="node">
<title>Node2</title>
<g id="a_Node000002"><a xlink:href="classhelios_1_1rendering_1_1Viewport.html#a77b488470dd2c811db40faeec666983b" target="_top" xlink:title="Gets the clear flags for this viewport.">
<polygon fill="white" stroke="#666666" points="285,-78 169,-78 169,-48 285,-48 285,-78"/>
<text text-anchor="start" x="177" y="-66" font-family="Helvetica,sans-Serif" font-size="10.00">helios::rendering::</text>
<text text-anchor="middle" x="227" y="-55" font-family="Helvetica,sans-Serif" font-size="10.00">Viewport::clearFlags</text>
</a>
</g>
</g>
<!-- Node1&#45;&gt;Node2 -->
<g id="edge1_Node000001_Node000002" class="edge">
<title>Node1&#45;&gt;Node2</title>
<g id="a_edge1_Node000001_Node000002"><a xlink:title=" ">
<path fill="none" stroke="#63b8ff" d="M133.34,-48.97C141.69,-50.23 150.23,-51.53 158.6,-52.79"/>
<polygon fill="#63b8ff" stroke="#63b8ff" points="158.28,-56.29 168.7,-54.32 159.33,-49.37 158.28,-56.29"/>
</a>
</g>
</g>
<!-- Node3 -->
<g id="Node000003" class="node">
<title>Node3</title>
<g id="a_Node000003"><a xlink:href="classhelios_1_1rendering_1_1Viewport.html#acab3a95a725e2ce895c8cf5a075e5a8c" target="_top" xlink:title="Constructs a Viewport with normalized bounds set to (0.0f, 0.0f, 1.0f, 1.0f) and z&#45;index 0.">
<polygon fill="white" stroke="#666666" points="282,-30 172,-30 172,0 282,0 282,-30"/>
<text text-anchor="start" x="180" y="-18" font-family="Helvetica,sans-Serif" font-size="10.00">helios::rendering::</text>
<text text-anchor="middle" x="227" y="-7" font-family="Helvetica,sans-Serif" font-size="10.00">Viewport::Viewport</text>
</a>
</g>
</g>
<!-- Node1&#45;&gt;Node3 -->
<g id="edge4_Node000001_Node000003" class="edge">
<title>Node1&#45;&gt;Node3</title>
<g id="a_edge4_Node000001_Node000003"><a xlink:title=" ">
<path fill="none" stroke="#63b8ff" d="M133.34,-29.03C142.71,-27.61 152.34,-26.15 161.68,-24.74"/>
<polygon fill="#63b8ff" stroke="#63b8ff" points="162.31,-28.18 171.67,-23.23 161.26,-21.26 162.31,-28.18"/>
</a>
</g>
</g>
<!-- Node2&#45;&gt;Node2 -->
<g id="edge2_Node000002_Node000002" class="edge">
<title>Node2&#45;&gt;Node2</title>
<g id="a_edge2_Node000002_Node000002"><a xlink:title=" ">
<path fill="none" stroke="#63b8ff" d="M198.88,-78.28C192.62,-87.41 202,-96 227,-96 241.84,-96 251.18,-92.97 255.01,-88.6"/>
<polygon fill="#63b8ff" stroke="#63b8ff" points="258.51,-88.32 255.12,-78.28 251.51,-88.23 258.51,-88.32"/>
</a>
</g>
</g>
</g>
</svg>
</svg>

<style type='text/css'>
<![CDATA[
[data-mouse-over-selected='false'] { opacity: 0.7; }
[data-mouse-over-selected='true']  { opacity: 1.0; }
]]>
</style>
<script type="application/ecmascript"><![CDATA[
document.addEventListener('DOMContentLoaded', (event) => {
  highlightEdges();
  highlightAdjacentNodes();
});
]]></script>
</svg>
