<?xml version="1.0" encoding="UTF-8" standalone="no"?>
<!DOCTYPE svg PUBLIC "-//W3C//DTD SVG 1.1//EN"
 "http://www.w3.org/Graphics/SVG/1.1/DTD/svg11.dtd">
<!-- Generated by graphviz version 2.43.0 (0)
 -->
<!-- Title: helios::rendering::model::Mesh::meshConfig Pages: 1 -->
<svg width="339pt" height="205pt"
 viewBox="0.00 0.00 339.00 204.50" xmlns="http://www.w3.org/2000/svg" xmlns:xlink="http://www.w3.org/1999/xlink">

<svg id="main" version="1.1" xmlns="http://www.w3.org/2000/svg" xmlns:xlink="http://www.w3.org/1999/xlink" xml:space="preserve">

<style type="text/css"><![CDATA[
.node, .edge {opacity: 0.7;}
.node.selected, .edge.selected {opacity: 1;}
.edge:hover path { stroke: red; }
.edge:hover polygon { stroke: red; fill: red; }
]]></style>
<script type="application/ecmascript" xlink:href="svg.min.js"/>
<svg id="graph" class="graph">
<g id="graph0" class="graph" transform="scale(1 1) rotate(0) translate(4 200.5)">
<title>helios::rendering::model::Mesh::meshConfig</title>
<!-- Node1 -->
<g id="Node000001" class="node">
<title>Node1</title>
<g id="a_Node000001"><a xlink:title="Returns a const reference to MeshConfig used with this Mesh. The returned MeshConfig is guaranteed to...">
<polygon fill="#999999" stroke="#666666" points="331,-121.5 188,-121.5 188,-91.5 331,-91.5 331,-121.5"/>
<text text-anchor="start" x="196" y="-109.5" font-family="Helvetica,sans-Serif" font-size="10.00">helios::rendering::</text>
<text text-anchor="middle" x="259.5" y="-98.5" font-family="Helvetica,sans-Serif" font-size="10.00">model::Mesh::meshConfig</text>
</a>
</g>
</g>
<!-- Node1&#45;&gt;Node1 -->
<g id="edge3_Node000001_Node000001" class="edge">
<title>Node1&#45;&gt;Node1</title>
<g id="a_edge3_Node000001_Node000001"><a xlink:title=" ">
<path fill="none" stroke="#63b8ff" d="M291.36,-132.1C287,-136.47 276.38,-139.5 259.5,-139.5 231.06,-139.5 220.4,-130.91 227.51,-121.78"/>
<polygon fill="#63b8ff" stroke="#63b8ff" points="294.86,-131.82 291.49,-121.78 287.86,-131.73 294.86,-131.82"/>
</a>
</g>
</g>
<!-- Node2 -->
<g id="Node000002" class="node">
<title>Node2</title>
<g id="a_Node000002"><a xlink:href="classhelios_1_1rendering_1_1model_1_1Mesh.html#ab2753b40fbb3c77b8fb74e760342e6a1" target="_top" xlink:title="Creates a new Mesh instance from the specified Shape.">
<polygon fill="white" stroke="#666666" points="132,-196.5 20,-196.5 20,-166.5 132,-166.5 132,-196.5"/>
<text text-anchor="start" x="28" y="-184.5" font-family="Helvetica,sans-Serif" font-size="10.00">helios::rendering::</text>
<text text-anchor="middle" x="76" y="-173.5" font-family="Helvetica,sans-Serif" font-size="10.00">model::Mesh::Mesh</text>
</a>
</g>
</g>
<!-- Node1&#45;&gt;Node2 -->
<g id="edge1_Node000001_Node000002" class="edge">
<title>Node1&#45;&gt;Node2</title>
<g id="a_edge1_Node000001_Node000002"><a xlink:title=" ">
<path fill="none" stroke="#63b8ff" d="M220.48,-126.27C200.41,-136.31 175.19,-148.29 152,-157.5 144.12,-160.63 135.66,-163.65 127.36,-166.43"/>
<polygon fill="#63b8ff" stroke="#63b8ff" points="222.25,-129.3 229.6,-121.67 219.09,-123.05 222.25,-129.3"/>
</a>
</g>
</g>
<!-- Node3 -->
<g id="Node000003" class="node">
<title>Node3</title>
<g id="a_Node000003"><a xlink:href="classhelios_1_1rendering_1_1model_1_1Mesh.html#a77d112e319ebb8ddea82678f82fee694" target="_top" xlink:title="Creates a new Mesh instance.">
<polygon fill="white" stroke="#666666" points="132,-148.5 20,-148.5 20,-118.5 132,-118.5 132,-148.5"/>
<text text-anchor="start" x="28" y="-136.5" font-family="Helvetica,sans-Serif" font-size="10.00">helios::rendering::</text>
<text text-anchor="middle" x="76" y="-125.5" font-family="Helvetica,sans-Serif" font-size="10.00">model::Mesh::Mesh</text>
</a>
</g>
</g>
<!-- Node1&#45;&gt;Node3 -->
<g id="edge2_Node000001_Node000003" class="edge">
<title>Node1&#45;&gt;Node3</title>
<g id="a_edge2_Node000001_Node000003"><a xlink:title=" ">
<path fill="none" stroke="#63b8ff" d="M177.73,-118.51C162.29,-120.81 146.45,-123.17 132.04,-125.31"/>
<polygon fill="#63b8ff" stroke="#63b8ff" points="178.43,-121.95 187.81,-117.02 177.4,-115.03 178.43,-121.95"/>
</a>
</g>
</g>
<!-- Node4 -->
<g id="Node000004" class="node">
<title>Node4</title>
<g id="a_Node000004"><a xlink:href="classhelios_1_1ext_1_1opengl_1_1rendering_1_1model_1_1OpenGLMesh.html#a4118cd59bc33ae54ff8abb339cd67fc9" target="_top" xlink:title="Creates a new OpenGLMesh instance from the specified Shape.">
<polygon fill="white" stroke="#666666" points="152,-100 0,-100 0,-59 152,-59 152,-100"/>
<text text-anchor="start" x="8" y="-88" font-family="Helvetica,sans-Serif" font-size="10.00">helios::ext::opengl</text>
<text text-anchor="start" x="8" y="-77" font-family="Helvetica,sans-Serif" font-size="10.00">::rendering::model::</text>
<text text-anchor="middle" x="76" y="-66" font-family="Helvetica,sans-Serif" font-size="10.00">OpenGLMesh::OpenGLMesh</text>
</a>
</g>
</g>
<!-- Node1&#45;&gt;Node4 -->
<g id="edge4_Node000001_Node000004" class="edge">
<title>Node1&#45;&gt;Node4</title>
<g id="a_edge4_Node000001_Node000004"><a xlink:title=" ">
<path fill="none" stroke="#63b8ff" d="M177.89,-94.51C169.38,-93.24 160.75,-91.96 152.3,-90.7"/>
<polygon fill="#63b8ff" stroke="#63b8ff" points="177.4,-97.97 187.81,-95.98 178.43,-91.05 177.4,-97.97"/>
</a>
</g>
</g>
<!-- Node5 -->
<g id="Node000005" class="node">
<title>Node5</title>
<g id="a_Node000005"><a xlink:href="classhelios_1_1ext_1_1opengl_1_1rendering_1_1model_1_1OpenGLMesh.html#a2d4c0ccf2f175ce3ac7dddc9bd7c808f" target="_top" xlink:title="Constructs a new OpenGLMesh instance from raw mesh data.">
<polygon fill="white" stroke="#666666" points="152,-41 0,-41 0,0 152,0 152,-41"/>
<text text-anchor="start" x="8" y="-29" font-family="Helvetica,sans-Serif" font-size="10.00">helios::ext::opengl</text>
<text text-anchor="start" x="8" y="-18" font-family="Helvetica,sans-Serif" font-size="10.00">::rendering::model::</text>
<text text-anchor="middle" x="76" y="-7" font-family="Helvetica,sans-Serif" font-size="10.00">OpenGLMesh::OpenGLMesh</text>
</a>
</g>
</g>
<!-- Node1&#45;&gt;Node5 -->
<g id="edge5_Node000001_Node000005" class="edge">
<title>Node1&#45;&gt;Node5</title>
<g id="a_edge5_Node000001_Node000005"><a xlink:title=" ">
<path fill="none" stroke="#63b8ff" d="M222.79,-86.54C202.33,-75.4 176.02,-61.58 152,-50.5 145.12,-47.33 137.81,-44.16 130.55,-41.13"/>
<polygon fill="#63b8ff" stroke="#63b8ff" points="221.3,-89.71 231.75,-91.44 224.66,-83.57 221.3,-89.71"/>
</a>
</g>
</g>
</g>
</svg>
</svg>

<style type='text/css'>
<![CDATA[
[data-mouse-over-selected='false'] { opacity: 0.7; }
[data-mouse-over-selected='true']  { opacity: 1.0; }
]]>
</style>
<script type="application/ecmascript"><![CDATA[
document.addEventListener('DOMContentLoaded', (event) => {
  highlightEdges();
  highlightAdjacentNodes();
});
]]></script>
</svg>
