<?xml version="1.0" encoding="UTF-8" standalone="no"?>
<!DOCTYPE svg PUBLIC "-//W3C//DTD SVG 1.1//EN"
 "http://www.w3.org/Graphics/SVG/1.1/DTD/svg11.dtd">
<!-- Generated by graphviz version 2.43.0 (0)
 -->
<!-- Title: helios::scene::SceneNode::aabb Pages: 1 -->
<svg width="687pt" height="108pt"
 viewBox="0.00 0.00 687.00 108.00" xmlns="http://www.w3.org/2000/svg" xmlns:xlink="http://www.w3.org/1999/xlink">
<g id="graph0" class="graph" transform="scale(1 1) rotate(0) translate(4 104)">
<title>helios::scene::SceneNode::aabb</title>
<!-- Node1 -->
<g id="Node000001" class="node">
<title>Node1</title>
<g id="a_Node000001"><a xlink:title="Returns the axis&#45;aligned bounding box for this SceneNode in world coordinates.">
<polygon fill="#999999" stroke="#666666" points="679,-64.5 538,-64.5 538,-34.5 679,-34.5 679,-64.5"/>
<text text-anchor="start" x="546" y="-52.5" font-family="Helvetica,sans-Serif" font-size="10.00">helios::scene::SceneNode</text>
<text text-anchor="middle" x="608.5" y="-41.5" font-family="Helvetica,sans-Serif" font-size="10.00">::aabb</text>
</a>
</g>
</g>
<!-- Node1&#45;&gt;Node1 -->
<g id="edge1_Node000001_Node000001" class="edge">
<title>Node1&#45;&gt;Node1</title>
<g id="a_edge1_Node000001_Node000001"><a xlink:title=" ">
<path fill="none" stroke="#63b8ff" d="M637.91,-75.1C633.89,-79.47 624.09,-82.5 608.5,-82.5 582.25,-82.5 572.41,-73.91 578.97,-64.78"/>
<polygon fill="#63b8ff" stroke="#63b8ff" points="641.41,-74.82 638.03,-64.78 634.41,-74.73 641.41,-74.82"/>
</a>
</g>
</g>
<!-- Node2 -->
<g id="Node000002" class="node">
<title>Node2</title>
<g id="a_Node000002"><a xlink:href="classhelios_1_1engine_1_1game_1_1systems_1_1gameplay_1_1ProjectilePoolSystem.html#a2a64b5c683b4ff6fb6dfac8f64acab39" target="_top" xlink:title=" ">
<polygon fill="white" stroke="#666666" points="502,-75.5 376,-75.5 376,-23.5 502,-23.5 502,-75.5"/>
<text text-anchor="start" x="384" y="-63.5" font-family="Helvetica,sans-Serif" font-size="10.00">helios::engine::game</text>
<text text-anchor="start" x="384" y="-52.5" font-family="Helvetica,sans-Serif" font-size="10.00">::systems::gameplay::</text>
<text text-anchor="start" x="384" y="-41.5" font-family="Helvetica,sans-Serif" font-size="10.00">ProjectilePoolSystem::</text>
<text text-anchor="middle" x="439" y="-30.5" font-family="Helvetica,sans-Serif" font-size="10.00">prepareProjectiles</text>
</a>
</g>
</g>
<!-- Node1&#45;&gt;Node2 -->
<g id="edge2_Node000001_Node000002" class="edge">
<title>Node1&#45;&gt;Node2</title>
<g id="a_edge2_Node000001_Node000002"><a xlink:title=" ">
<path fill="none" stroke="#63b8ff" d="M527.84,-49.5C519.21,-49.5 510.52,-49.5 502.14,-49.5"/>
<polygon fill="#63b8ff" stroke="#63b8ff" points="527.92,-53 537.92,-49.5 527.92,-46 527.92,-53"/>
</a>
</g>
</g>
<!-- Node3 -->
<g id="Node000003" class="node">
<title>Node3</title>
<g id="a_Node000003"><a xlink:href="classhelios_1_1engine_1_1game_1_1systems_1_1gameplay_1_1ProjectilePoolSystem.html#a4ec8c849cddbd6bf8a247fbfe4edf51f" target="_top" xlink:title="Called when the system is added to a GameWorld.">
<polygon fill="white" stroke="#666666" points="339.5,-100 182.5,-100 182.5,-59 339.5,-59 339.5,-100"/>
<text text-anchor="start" x="190.5" y="-88" font-family="Helvetica,sans-Serif" font-size="10.00">helios::engine::game</text>
<text text-anchor="start" x="190.5" y="-77" font-family="Helvetica,sans-Serif" font-size="10.00">::systems::gameplay::</text>
<text text-anchor="middle" x="261" y="-66" font-family="Helvetica,sans-Serif" font-size="10.00">ProjectilePoolSystem::onAdd</text>
</a>
</g>
</g>
<!-- Node2&#45;&gt;Node3 -->
<g id="edge3_Node000002_Node000003" class="edge">
<title>Node2&#45;&gt;Node3</title>
<g id="a_edge3_Node000002_Node000003"><a xlink:title=" ">
<path fill="none" stroke="#63b8ff" d="M365.87,-61.79C357.19,-63.28 348.29,-64.79 339.53,-66.29"/>
<polygon fill="#63b8ff" stroke="#63b8ff" points="366.68,-65.21 375.95,-60.08 365.5,-58.31 366.68,-65.21"/>
</a>
</g>
</g>
<!-- Node4 -->
<g id="Node000004" class="node">
<title>Node4</title>
<g id="a_Node000004"><a xlink:href="classhelios_1_1engine_1_1game_1_1systems_1_1gameplay_1_1ProjectilePoolSystem.html#a211dd83f0fdffdb4c106fdd0a9466867" target="_top" xlink:title="Spawns a projectile from the pool at the given position with muzzleVelocity.">
<polygon fill="white" stroke="#666666" points="340,-41 182,-41 182,0 340,0 340,-41"/>
<text text-anchor="start" x="190" y="-29" font-family="Helvetica,sans-Serif" font-size="10.00">helios::engine::game</text>
<text text-anchor="start" x="190" y="-18" font-family="Helvetica,sans-Serif" font-size="10.00">::systems::gameplay::</text>
<text text-anchor="middle" x="261" y="-7" font-family="Helvetica,sans-Serif" font-size="10.00">ProjectilePoolSystem::spawn</text>
</a>
</g>
</g>
<!-- Node2&#45;&gt;Node4 -->
<g id="edge4_Node000002_Node000004" class="edge">
<title>Node2&#45;&gt;Node4</title>
<g id="a_edge4_Node000002_Node000004"><a xlink:title=" ">
<path fill="none" stroke="#63b8ff" d="M366.04,-37.64C357.51,-36.24 348.76,-34.8 340.14,-33.38"/>
<polygon fill="#63b8ff" stroke="#63b8ff" points="365.51,-41.1 375.95,-39.28 366.65,-34.2 365.51,-41.1"/>
</a>
</g>
</g>
<!-- Node5 -->
<g id="Node000005" class="node">
<title>Node5</title>
<g id="a_Node000005"><a xlink:href="classhelios_1_1engine_1_1game_1_1components_1_1gameplay_1_1ShootComponent.html#afba2f37150b83cc00ddd065697884711" target="_top" xlink:title="Updates the component, spawning projectiles when ready.">
<polygon fill="white" stroke="#666666" points="146,-41 0,-41 0,0 146,0 146,-41"/>
<text text-anchor="start" x="8" y="-29" font-family="Helvetica,sans-Serif" font-size="10.00">helios::engine::game</text>
<text text-anchor="start" x="8" y="-18" font-family="Helvetica,sans-Serif" font-size="10.00">::components::gameplay</text>
<text text-anchor="middle" x="73" y="-7" font-family="Helvetica,sans-Serif" font-size="10.00">::ShootComponent::update</text>
</a>
</g>
</g>
<!-- Node4&#45;&gt;Node5 -->
<g id="edge5_Node000004_Node000005" class="edge">
<title>Node4&#45;&gt;Node5</title>
<g id="a_edge5_Node000004_Node000005"><a xlink:title=" ">
<path fill="none" stroke="#63b8ff" d="M171.88,-20.5C163.29,-20.5 154.65,-20.5 146.24,-20.5"/>
<polygon fill="#63b8ff" stroke="#63b8ff" points="171.93,-24 181.93,-20.5 171.93,-17 171.93,-24"/>
</a>
</g>
</g>
</g>
</svg>
