<?xml version="1.0" encoding="UTF-8" standalone="no"?>
<!DOCTYPE svg PUBLIC "-//W3C//DTD SVG 1.1//EN"
 "http://www.w3.org/Graphics/SVG/1.1/DTD/svg11.dtd">
<!-- Generated by graphviz version 2.43.0 (0)
 -->
<!-- Title: helios::app::controller::BasicWindowRenderingController Pages: 1 -->
<svg width="244pt" height="188pt"
 viewBox="0.00 0.00 243.50 188.00" xmlns="http://www.w3.org/2000/svg" xmlns:xlink="http://www.w3.org/1999/xlink">
<g id="graph0" class="graph" transform="scale(1 1) rotate(0) translate(4 184)">
<title>helios::app::controller::BasicWindowRenderingController</title>
<!-- Node1 -->
<g id="Node000001" class="node">
<title>Node1</title>
<g id="a_Node000001"><a xlink:title="Basic implementation of a window rendering controller.">
<polygon fill="#999999" stroke="#666666" points="216.5,-30 31.5,-30 31.5,0 216.5,0 216.5,-30"/>
<text text-anchor="start" x="39.5" y="-18" font-family="Helvetica,sans-Serif" font-size="10.00">helios::app::controller</text>
<text text-anchor="middle" x="124" y="-7" font-family="Helvetica,sans-Serif" font-size="10.00">::BasicWindowRenderingController</text>
</a>
</g>
</g>
<!-- Node2 -->
<g id="Node000002" class="node">
<title>Node2</title>
<g id="a_Node000002"><a xlink:href="classhelios_1_1app_1_1controller_1_1WindowRenderingController.html" target="_top" xlink:title="Abstract base controller for handling window related events.">
<polygon fill="white" stroke="#666666" points="203.5,-97 44.5,-97 44.5,-67 203.5,-67 203.5,-97"/>
<text text-anchor="start" x="52.5" y="-85" font-family="Helvetica,sans-Serif" font-size="10.00">helios::app::controller</text>
<text text-anchor="middle" x="124" y="-74" font-family="Helvetica,sans-Serif" font-size="10.00">::WindowRenderingController</text>
</a>
</g>
</g>
<!-- Node2&#45;&gt;Node1 -->
<g id="edge1_Node000001_Node000002" class="edge">
<title>Node2&#45;&gt;Node1</title>
<g id="a_edge1_Node000001_Node000002"><a xlink:title=" ">
<path fill="none" stroke="#63b8ff" d="M124,-56.61C124,-47.65 124,-37.82 124,-30.08"/>
<polygon fill="#63b8ff" stroke="#63b8ff" points="120.5,-56.9 124,-66.9 127.5,-56.9 120.5,-56.9"/>
</a>
</g>
</g>
<!-- Node3 -->
<g id="Node000003" class="node">
<title>Node3</title>
<g id="a_Node000003"><a xlink:href="classhelios_1_1app_1_1controller_1_1Controller.html" target="_top" xlink:title="Abstract base class for application controllers.">
<polygon fill="white" stroke="#666666" points="122,-180 0,-180 0,-150 122,-150 122,-180"/>
<text text-anchor="start" x="8" y="-168" font-family="Helvetica,sans-Serif" font-size="10.00">helios::app::controller</text>
<text text-anchor="middle" x="61" y="-157" font-family="Helvetica,sans-Serif" font-size="10.00">::Controller</text>
</a>
</g>
</g>
<!-- Node3&#45;&gt;Node2 -->
<g id="edge2_Node000002_Node000003" class="edge">
<title>Node3&#45;&gt;Node2</title>
<g id="a_edge2_Node000002_Node000003"><a xlink:title=" ">
<path fill="none" stroke="#63b8ff" d="M78.41,-141.62C89.45,-127.43 103.4,-109.49 112.94,-97.22"/>
<polygon fill="#63b8ff" stroke="#63b8ff" points="75.35,-139.85 71.97,-149.89 80.88,-144.15 75.35,-139.85"/>
</a>
</g>
</g>
<!-- Node4 -->
<g id="Node000004" class="node">
<title>Node4</title>
<g id="a_Node000004"><a xlink:href="classhelios_1_1util_1_1log_1_1Logger.html" target="_top" xlink:title="Logger implementation with configurable output sinks.">
<polygon fill="white" stroke="#666666" points="235.5,-180 140.5,-180 140.5,-150 235.5,-150 235.5,-180"/>
<text text-anchor="start" x="148.5" y="-168" font-family="Helvetica,sans-Serif" font-size="10.00">helios::util::log::</text>
<text text-anchor="middle" x="188" y="-157" font-family="Helvetica,sans-Serif" font-size="10.00">Logger</text>
</a>
</g>
</g>
<!-- Node4&#45;&gt;Node2 -->
<g id="edge3_Node000002_Node000004" class="edge">
<title>Node4&#45;&gt;Node2</title>
<g id="a_edge3_Node000002_Node000004"><a xlink:title=" ">
<path fill="none" stroke="#9a32cd" stroke-dasharray="5,2" d="M170.63,-142.02C159.37,-127.76 145.02,-109.61 135.23,-97.22"/>
<polygon fill="#9a32cd" stroke="#9a32cd" points="167.91,-144.21 176.85,-149.89 173.4,-139.87 167.91,-144.21"/>
</a>
</g>
<text text-anchor="start" x="164.5" y="-120.5" font-family="Helvetica,sans-Serif" font-size="10.00" fill="grey">logger_</text>
</g>
</g>
</svg>
