<?xml version="1.0" encoding="UTF-8" standalone="no"?>
<!DOCTYPE svg PUBLIC "-//W3C//DTD SVG 1.1//EN"
 "http://www.w3.org/Graphics/SVG/1.1/DTD/svg11.dtd">
<!-- Generated by graphviz version 2.43.0 (0)
 -->
<!-- Title: helios::engine::game::Component Pages: 1 -->
<!--zoomable 580 -->

<svg id="main" version="1.1" xmlns="http://www.w3.org/2000/svg" xmlns:xlink="http://www.w3.org/1999/xlink" xml:space="preserve" onload="init(evt)">

<style type="text/css"><![CDATA[
.node, .edge {opacity: 0.7;}
.node.selected, .edge.selected {opacity: 1;}
.edge:hover path { stroke: red; }
.edge:hover polygon { stroke: red; fill: red; }
]]></style>

<defs>
  <circle id="rim" cx="0" cy="0" r="7"/>
  <circle id="rim2" cx="0" cy="0" r="3.5"/>
  <g id="zoomPlus">
    <use xlink:href="#rim" fill="#404040"><set attributeName="fill" to="#808080" begin="zoomplus.mouseover" end="zoomplus.mouseout"/></use>
    <path d="M-4,0h8M0,-4v8" fill="none" stroke="white" stroke-width="1.5" pointer-events="none"/>
  </g>
  <g id="zoomMin">
    <use xlink:href="#rim" fill="#404040"><set attributeName="fill" to="#808080" begin="zoomminus.mouseover" end="zoomminus.mouseout"/></use>
    <path d="M-4,0h8" fill="none" stroke="white" stroke-width="1.5" pointer-events="none"/>
  </g>
  <g id="arrowUp" transform="translate(30 24)">
    <use xlink:href="#rim"/>
    <path pointer-events="none" fill="none" stroke="white" stroke-width="1.5" d="M0,-3.0v7 M-2.5,-0.5L0,-3.0L2.5,-0.5"/>
  </g>
  <g id="arrowRight" transform="rotate(90) translate(36 -43)">
    <use xlink:href="#rim"/>
    <path pointer-events="none" fill="none" stroke="white" stroke-width="1.5" d="M0,-3.0v7 M-2.5,-0.5L0,-3.0L2.5,-0.5"/>
  </g>
  <g id="arrowDown" transform="rotate(180) translate(-30 -48)">
    <use xlink:href="#rim"/>
    <path pointer-events="none" fill="none" stroke="white" stroke-width="1.5" d="M0,-3.0v7 M-2.5,-0.5L0,-3.0L2.5,-0.5"/>
  </g>
  <g id="arrowLeft" transform="rotate(270) translate(-36 17)">
    <use xlink:href="#rim"/>
    <path pointer-events="none" fill="none" stroke="white" stroke-width="1.5" d="M0,-3.0v7 M-2.5,-0.5L0,-3.0L2.5,-0.5"/>
  </g>
  <g id="resetDef">
    <use xlink:href="#rim2" fill="#404040"><set attributeName="fill" to="#808080" begin="reset.mouseover" end="reset.mouseout"/></use>
  </g>
</defs>
<script type="application/ecmascript">
var viewWidth = 348;
var viewHeight = 580;
var sectionId = 'dynsection-0';
</script>
<script type="application/ecmascript" xlink:href="svg.min.js"/>
<svg id="graph" class="graph">
<g id="viewport">
<title>helios::engine::game::Component</title>
<!-- Node1 -->
<g id="Node000001" class="node">
<title>Node1</title>
<g id="a_Node000001"><a xlink:title="Abstract base class for components attached to GameObjects.">
<polygon fill="#999999" stroke="#666666" points="119,-300.5 0,-300.5 0,-270.5 119,-270.5 119,-300.5"/>
<text text-anchor="start" x="8" y="-288.5" font-family="Helvetica,sans-Serif" font-size="10.00">helios::engine::game</text>
<text text-anchor="middle" x="59.5" y="-277.5" font-family="Helvetica,sans-Serif" font-size="10.00">::Component</text>
</a>
</g>
</g>
<!-- Node2 -->
<g id="Node000002" class="node">
<title>Node2</title>
<g id="a_Node000002"><a xlink:href="classhelios_1_1engine_1_1game_1_1components_1_1gameplay_1_1Aim2DComponent.html" target="_top" xlink:title="Component for handling 2D aiming direction and fire frequency.">
<polygon fill="white" stroke="#666666" points="316,-572 179,-572 179,-531 316,-531 316,-572"/>
<text text-anchor="start" x="187" y="-560" font-family="Helvetica,sans-Serif" font-size="10.00">helios::engine::game</text>
<text text-anchor="start" x="187" y="-549" font-family="Helvetica,sans-Serif" font-size="10.00">::components::gameplay</text>
<text text-anchor="middle" x="247.5" y="-538" font-family="Helvetica,sans-Serif" font-size="10.00">::Aim2DComponent</text>
</a>
</g>
</g>
<!-- Node1&#45;&gt;Node2 -->
<g id="edge1_Node000001_Node000002" class="edge">
<title>Node1&#45;&gt;Node2</title>
<g id="a_edge1_Node000001_Node000002"><a xlink:title=" ">
<path fill="none" stroke="#63b8ff" d="M63.48,-310.94C70.48,-359.17 92.41,-464.29 155,-522.5 161.83,-528.86 170.06,-533.82 178.73,-537.69"/>
<polygon fill="#63b8ff" stroke="#63b8ff" points="66.91,-310.19 62.11,-300.75 59.98,-311.13 66.91,-310.19"/>
</a>
</g>
</g>
<!-- Node3 -->
<g id="Node000003" class="node">
<title>Node3</title>
<g id="a_Node000003"><a xlink:href="classhelios_1_1engine_1_1game_1_1components_1_1gameplay_1_1ShootComponent.html" target="_top" xlink:title="Component for handling projectile shooting with rate limiting.">
<polygon fill="white" stroke="#666666" points="316,-513 179,-513 179,-472 316,-472 316,-513"/>
<text text-anchor="start" x="187" y="-501" font-family="Helvetica,sans-Serif" font-size="10.00">helios::engine::game</text>
<text text-anchor="start" x="187" y="-490" font-family="Helvetica,sans-Serif" font-size="10.00">::components::gameplay</text>
<text text-anchor="middle" x="247.5" y="-479" font-family="Helvetica,sans-Serif" font-size="10.00">::ShootComponent</text>
</a>
</g>
</g>
<!-- Node1&#45;&gt;Node3 -->
<g id="edge2_Node000001_Node000003" class="edge">
<title>Node1&#45;&gt;Node3</title>
<g id="a_edge2_Node000001_Node000003"><a xlink:title=" ">
<path fill="none" stroke="#63b8ff" d="M67.12,-310.5C78.58,-348.95 105.74,-422.45 155,-463.5 162.04,-469.37 170.28,-474.05 178.88,-477.79"/>
<polygon fill="#63b8ff" stroke="#63b8ff" points="70.42,-309.29 64.3,-300.64 63.69,-311.21 70.42,-309.29"/>
</a>
</g>
</g>
<!-- Node4 -->
<g id="Node000004" class="node">
<title>Node4</title>
<g id="a_Node000004"><a xlink:href="classhelios_1_1engine_1_1game_1_1components_1_1input_1_1TwinStickInputComponent.html" target="_top" xlink:title="Input component for twin&#45;stick gamepad control schemes.">
<polygon fill="white" stroke="#666666" points="319,-454 176,-454 176,-413 319,-413 319,-454"/>
<text text-anchor="start" x="184" y="-442" font-family="Helvetica,sans-Serif" font-size="10.00">helios::engine::game</text>
<text text-anchor="start" x="184" y="-431" font-family="Helvetica,sans-Serif" font-size="10.00">::components::input::</text>
<text text-anchor="middle" x="247.5" y="-420" font-family="Helvetica,sans-Serif" font-size="10.00">TwinStickInputComponent</text>
</a>
</g>
</g>
<!-- Node1&#45;&gt;Node4 -->
<g id="edge3_Node000001_Node000004" class="edge">
<title>Node1&#45;&gt;Node4</title>
<g id="a_edge3_Node000001_Node000004"><a xlink:title=" ">
<path fill="none" stroke="#63b8ff" d="M73.59,-309.45C89.46,-336.34 118.66,-379.46 155,-404.5 161.31,-408.85 168.31,-412.57 175.54,-415.75"/>
<polygon fill="#63b8ff" stroke="#63b8ff" points="76.56,-307.6 68.54,-300.67 70.49,-311.09 76.56,-307.6"/>
</a>
</g>
</g>
<!-- Node5 -->
<g id="Node000005" class="node">
<title>Node5</title>
<g id="a_Node000005"><a xlink:href="classhelios_1_1engine_1_1game_1_1components_1_1model_1_1ModelAabbComponent.html" target="_top" xlink:title="Component that stores the canonical Axis&#45;Aligned Bounding Box (AABB) of a model.">
<polygon fill="white" stroke="#666666" points="311.5,-395 183.5,-395 183.5,-354 311.5,-354 311.5,-395"/>
<text text-anchor="start" x="191.5" y="-383" font-family="Helvetica,sans-Serif" font-size="10.00">helios::engine::game</text>
<text text-anchor="start" x="191.5" y="-372" font-family="Helvetica,sans-Serif" font-size="10.00">::components::model::</text>
<text text-anchor="middle" x="247.5" y="-361" font-family="Helvetica,sans-Serif" font-size="10.00">ModelAabbComponent</text>
</a>
</g>
</g>
<!-- Node1&#45;&gt;Node5 -->
<g id="edge4_Node000001_Node000005" class="edge">
<title>Node1&#45;&gt;Node5</title>
<g id="a_edge4_Node000001_Node000005"><a xlink:title=" ">
<path fill="none" stroke="#63b8ff" d="M89.38,-306.61C107.54,-319.17 131.84,-334.7 155,-345.5 163.91,-349.65 173.57,-353.44 183.17,-356.79"/>
<polygon fill="#63b8ff" stroke="#63b8ff" points="91.19,-303.6 81,-300.72 87.17,-309.33 91.19,-303.6"/>
</a>
</g>
</g>
<!-- Node6 -->
<g id="Node000006" class="node">
<title>Node6</title>
<g id="a_Node000006"><a xlink:href="classhelios_1_1engine_1_1game_1_1components_1_1physics_1_1AabbColliderComponent.html" target="_top" xlink:title="Component that defines an Axis&#45;Aligned Bounding Box (AABB) for physics interactions.">
<polygon fill="white" stroke="#666666" points="318,-336 177,-336 177,-295 318,-295 318,-336"/>
<text text-anchor="start" x="185" y="-324" font-family="Helvetica,sans-Serif" font-size="10.00">helios::engine::game</text>
<text text-anchor="start" x="185" y="-313" font-family="Helvetica,sans-Serif" font-size="10.00">::components::physics</text>
<text text-anchor="middle" x="247.5" y="-302" font-family="Helvetica,sans-Serif" font-size="10.00">::AabbColliderComponent</text>
</a>
</g>
</g>
<!-- Node1&#45;&gt;Node6 -->
<g id="edge5_Node000001_Node000006" class="edge">
<title>Node1&#45;&gt;Node6</title>
<g id="a_edge5_Node000001_Node000006"><a xlink:title=" ">
<path fill="none" stroke="#63b8ff" d="M129.15,-296.57C144.69,-299.08 161.21,-301.74 176.8,-304.26"/>
<polygon fill="#63b8ff" stroke="#63b8ff" points="129.53,-293.09 119.1,-294.95 128.41,-300 129.53,-293.09"/>
</a>
</g>
</g>
<!-- Node7 -->
<g id="Node000007" class="node">
<title>Node7</title>
<g id="a_Node000007"><a xlink:href="classhelios_1_1engine_1_1game_1_1components_1_1physics_1_1LevelBoundsBehaviorComponent.html" target="_top" xlink:title="Component that defines how an entity reacts to level boundaries.">
<polygon fill="white" stroke="#666666" points="340,-277 155,-277 155,-236 340,-236 340,-277"/>
<text text-anchor="start" x="163" y="-265" font-family="Helvetica,sans-Serif" font-size="10.00">helios::engine::game</text>
<text text-anchor="start" x="163" y="-254" font-family="Helvetica,sans-Serif" font-size="10.00">::components::physics</text>
<text text-anchor="middle" x="247.5" y="-243" font-family="Helvetica,sans-Serif" font-size="10.00">::LevelBoundsBehaviorComponent</text>
</a>
</g>
</g>
<!-- Node1&#45;&gt;Node7 -->
<g id="edge6_Node000001_Node000007" class="edge">
<title>Node1&#45;&gt;Node7</title>
<g id="a_edge6_Node000001_Node000007"><a xlink:title=" ">
<path fill="none" stroke="#63b8ff" d="M129.16,-274.8C137.54,-273.49 146.2,-272.14 154.85,-270.79"/>
<polygon fill="#63b8ff" stroke="#63b8ff" points="128.44,-271.37 119.1,-276.36 129.52,-278.28 128.44,-271.37"/>
</a>
</g>
</g>
<!-- Node8 -->
<g id="Node000008" class="node">
<title>Node8</title>
<g id="a_Node000008"><a xlink:href="classhelios_1_1engine_1_1game_1_1components_1_1physics_1_1Move2DComponent.html" target="_top" xlink:title="Component for 2D physics&#45;based movement with rotation.">
<polygon fill="white" stroke="#666666" points="310,-218 185,-218 185,-177 310,-177 310,-218"/>
<text text-anchor="start" x="193" y="-206" font-family="Helvetica,sans-Serif" font-size="10.00">helios::engine::game</text>
<text text-anchor="start" x="193" y="-195" font-family="Helvetica,sans-Serif" font-size="10.00">::components::physics</text>
<text text-anchor="middle" x="247.5" y="-184" font-family="Helvetica,sans-Serif" font-size="10.00">::Move2DComponent</text>
</a>
</g>
</g>
<!-- Node1&#45;&gt;Node8 -->
<g id="edge7_Node000001_Node000008" class="edge">
<title>Node1&#45;&gt;Node8</title>
<g id="a_edge7_Node000001_Node000008"><a xlink:title=" ">
<path fill="none" stroke="#63b8ff" d="M90.24,-264.76C108.36,-252.75 132.33,-238 155,-227.5 164.41,-223.14 174.62,-219.14 184.71,-215.57"/>
<polygon fill="#63b8ff" stroke="#63b8ff" points="88.19,-261.92 81.84,-270.4 92.09,-267.73 88.19,-261.92"/>
</a>
</g>
</g>
<!-- Node9 -->
<g id="Node000009" class="node">
<title>Node9</title>
<g id="a_Node000009"><a xlink:href="classhelios_1_1engine_1_1game_1_1components_1_1physics_1_1ScaleComponent.html" target="_top" xlink:title="Component that defines the physical dimensions (scale) of an entity.">
<polygon fill="white" stroke="#666666" points="310,-159 185,-159 185,-118 310,-118 310,-159"/>
<text text-anchor="start" x="193" y="-147" font-family="Helvetica,sans-Serif" font-size="10.00">helios::engine::game</text>
<text text-anchor="start" x="193" y="-136" font-family="Helvetica,sans-Serif" font-size="10.00">::components::physics</text>
<text text-anchor="middle" x="247.5" y="-125" font-family="Helvetica,sans-Serif" font-size="10.00">::ScaleComponent</text>
</a>
</g>
</g>
<!-- Node1&#45;&gt;Node9 -->
<g id="edge8_Node000001_Node000009" class="edge">
<title>Node1&#45;&gt;Node9</title>
<g id="a_edge8_Node000001_Node000009"><a xlink:title=" ">
<path fill="none" stroke="#63b8ff" d="M73.99,-261.6C90.05,-235.2 119.25,-193.18 155,-168.5 163.94,-162.33 174.24,-157.36 184.64,-153.37"/>
<polygon fill="#63b8ff" stroke="#63b8ff" points="70.96,-259.84 68.87,-270.23 76.98,-263.41 70.96,-259.84"/>
</a>
</g>
</g>
<!-- Node10 -->
<g id="Node000010" class="node">
<title>Node10</title>
<g id="a_Node000010"><a xlink:href="classhelios_1_1engine_1_1game_1_1components_1_1physics_1_1TransformComponent.html" target="_top" xlink:title="Component that holds transformation data (position, rotation, scale).">
<polygon fill="white" stroke="#666666" points="311.5,-100 183.5,-100 183.5,-59 311.5,-59 311.5,-100"/>
<text text-anchor="start" x="191.5" y="-88" font-family="Helvetica,sans-Serif" font-size="10.00">helios::engine::game</text>
<text text-anchor="start" x="191.5" y="-77" font-family="Helvetica,sans-Serif" font-size="10.00">::components::physics</text>
<text text-anchor="middle" x="247.5" y="-66" font-family="Helvetica,sans-Serif" font-size="10.00">::TransformComponent</text>
</a>
</g>
</g>
<!-- Node1&#45;&gt;Node10 -->
<g id="edge9_Node000001_Node000010" class="edge">
<title>Node1&#45;&gt;Node10</title>
<g id="a_edge9_Node000001_Node000010"><a xlink:title=" ">
<path fill="none" stroke="#63b8ff" d="M67.34,-260.55C79.02,-222.53 106.4,-150.22 155,-109.5 163.2,-102.63 173.02,-97.32 183.14,-93.22"/>
<polygon fill="#63b8ff" stroke="#63b8ff" points="63.93,-259.73 64.46,-270.31 70.65,-261.72 63.93,-259.73"/>
</a>
</g>
</g>
<!-- Node11 -->
<g id="Node000011" class="node">
<title>Node11</title>
<g id="a_Node000011"><a xlink:href="classhelios_1_1engine_1_1game_1_1components_1_1scene_1_1SceneNodeComponent.html" target="_top" xlink:title="Component that links a GameObject to a SceneNode in the scene graph.">
<polygon fill="white" stroke="#666666" points="311.5,-41 183.5,-41 183.5,0 311.5,0 311.5,-41"/>
<text text-anchor="start" x="191.5" y="-29" font-family="Helvetica,sans-Serif" font-size="10.00">helios::engine::game</text>
<text text-anchor="start" x="191.5" y="-18" font-family="Helvetica,sans-Serif" font-size="10.00">::components::scene::</text>
<text text-anchor="middle" x="247.5" y="-7" font-family="Helvetica,sans-Serif" font-size="10.00">SceneNodeComponent</text>
</a>
</g>
</g>
<!-- Node1&#45;&gt;Node11 -->
<g id="edge10_Node000001_Node000011" class="edge">
<title>Node1&#45;&gt;Node11</title>
<g id="a_edge10_Node000001_Node000011"><a xlink:title=" ">
<path fill="none" stroke="#63b8ff" d="M63.6,-260.33C70.81,-212.59 93.07,-108.5 155,-50.5 163.05,-42.96 173.04,-37.31 183.42,-33.08"/>
<polygon fill="#63b8ff" stroke="#63b8ff" points="60.11,-260.02 62.18,-270.41 67.04,-260.99 60.11,-260.02"/>
</a>
</g>
</g>
</g>
</svg>

<g id="navigator" transform="translate(0 0)" fill="#404254">
  <rect fill="#f2f5e9" fill-opacity="0.5" stroke="#606060" stroke-width=".5" x="0" y="0" width="60" height="60"/>
  <use id="zoomplus" xlink:href="#zoomPlus" x="17" y="9" onmousedown="handleZoom(evt,'in')"/>
  <use id="zoomminus" xlink:href="#zoomMin" x="42" y="9" onmousedown="handleZoom(evt,'out')"/>
  <use id="reset" xlink:href="#resetDef" x="30" y="36" onmousedown="handleReset()"/>
   <use id="arrowup" xlink:href="#arrowUp" x="0" y="0" onmousedown="handlePan(0,-1)"/>
  <use id="arrowright" xlink:href="#arrowRight" x="0" y="0" onmousedown="handlePan(1,0)"/>
  <use id="arrowdown" xlink:href="#arrowDown" x="0" y="0" onmousedown="handlePan(0,1)"/>
  <use id="arrowleft" xlink:href="#arrowLeft" x="0" y="0" onmousedown="handlePan(-1,0)"/>
</g>
<svg viewBox="0 0 15 15" width="100%" height="30px" preserveAspectRatio="xMaxYMin meet">
 <g id="arrow_out" transform="scale(0.3 0.3)">
  <a xlink:href="classhelios_1_1engine_1_1game_1_1Component__inherit__graph_org.svg" target="_base">
   <rect id="button" ry="5" rx="5" y="6" x="6" height="38" width="38"
        fill="#f2f5e9" fill-opacity="0.5" stroke="#606060" stroke-width="1.0"/>
   <path id="arrow"
     d="M 11.500037,31.436501 C 11.940474,20.09759 22.043105,11.32322 32.158766,21.979434 L 37.068811,17.246167 C 37.068811,17.246167 37.088388,32 37.088388,32 L 22.160133,31.978069 C 22.160133,31.978069 26.997745,27.140456 26.997745,27.140456 C 18.528582,18.264221 13.291696,25.230495 11.500037,31.436501 z"
     style="fill:#404040;"/>
  </a>
 </g>
</svg>

<style type='text/css'>
<![CDATA[
[data-mouse-over-selected='false'] { opacity: 0.7; }
[data-mouse-over-selected='true']  { opacity: 1.0; }
]]>
</style>
<script type="application/ecmascript"><![CDATA[
document.addEventListener('DOMContentLoaded', (event) => {
  highlightEdges();
  highlightAdjacentNodes();
});
]]></script>
</svg>
