<?xml version="1.0" encoding="UTF-8" standalone="no"?>
<!DOCTYPE svg PUBLIC "-//W3C//DTD SVG 1.1//EN"
 "http://www.w3.org/Graphics/SVG/1.1/DTD/svg11.dtd">
<!-- Generated by graphviz version 2.43.0 (0)
 -->
<!-- Title: helios::input::GamepadState::GamepadState Pages: 1 -->
<!--zoomable 806 -->

<svg id="main" version="1.1" xmlns="http://www.w3.org/2000/svg" xmlns:xlink="http://www.w3.org/1999/xlink" xml:space="preserve" onload="init(evt)">

<style type="text/css"><![CDATA[
.node, .edge {opacity: 0.7;}
.node.selected, .edge.selected {opacity: 1;}
.edge:hover path { stroke: red; }
.edge:hover polygon { stroke: red; fill: red; }
]]></style>

<defs>
  <circle id="rim" cx="0" cy="0" r="7"/>
  <circle id="rim2" cx="0" cy="0" r="3.5"/>
  <g id="zoomPlus">
    <use xlink:href="#rim" fill="#404040"><set attributeName="fill" to="#808080" begin="zoomplus.mouseover" end="zoomplus.mouseout"/></use>
    <path d="M-4,0h8M0,-4v8" fill="none" stroke="white" stroke-width="1.5" pointer-events="none"/>
  </g>
  <g id="zoomMin">
    <use xlink:href="#rim" fill="#404040"><set attributeName="fill" to="#808080" begin="zoomminus.mouseover" end="zoomminus.mouseout"/></use>
    <path d="M-4,0h8" fill="none" stroke="white" stroke-width="1.5" pointer-events="none"/>
  </g>
  <g id="arrowUp" transform="translate(30 24)">
    <use xlink:href="#rim"/>
    <path pointer-events="none" fill="none" stroke="white" stroke-width="1.5" d="M0,-3.0v7 M-2.5,-0.5L0,-3.0L2.5,-0.5"/>
  </g>
  <g id="arrowRight" transform="rotate(90) translate(36 -43)">
    <use xlink:href="#rim"/>
    <path pointer-events="none" fill="none" stroke="white" stroke-width="1.5" d="M0,-3.0v7 M-2.5,-0.5L0,-3.0L2.5,-0.5"/>
  </g>
  <g id="arrowDown" transform="rotate(180) translate(-30 -48)">
    <use xlink:href="#rim"/>
    <path pointer-events="none" fill="none" stroke="white" stroke-width="1.5" d="M0,-3.0v7 M-2.5,-0.5L0,-3.0L2.5,-0.5"/>
  </g>
  <g id="arrowLeft" transform="rotate(270) translate(-36 17)">
    <use xlink:href="#rim"/>
    <path pointer-events="none" fill="none" stroke="white" stroke-width="1.5" d="M0,-3.0v7 M-2.5,-0.5L0,-3.0L2.5,-0.5"/>
  </g>
  <g id="resetDef">
    <use xlink:href="#rim2" fill="#404040"><set attributeName="fill" to="#808080" begin="reset.mouseover" end="reset.mouseout"/></use>
  </g>
</defs>
<script type="application/ecmascript">
var viewWidth = 545;
var viewHeight = 806;
var sectionId = 'dynsection-0';
</script>
<script type="application/ecmascript" xlink:href="svg.min.js"/>
<svg id="graph" class="graph">
<g id="viewport">
<title>helios::input::GamepadState::GamepadState</title>
<!-- Node1 -->
<g id="Node000001" class="node">
<title>Node1</title>
<g id="a_Node000001"><a xlink:title="Creates a new GamepadState object.">
<polygon fill="#999999" stroke="#666666" points="155,-411 0,-411 0,-381 155,-381 155,-411"/>
<text text-anchor="start" x="8" y="-399" font-family="Helvetica,sans-Serif" font-size="10.00">helios::input::GamepadState</text>
<text text-anchor="middle" x="77.5" y="-388" font-family="Helvetica,sans-Serif" font-size="10.00">::GamepadState</text>
</a>
</g>
</g>
<!-- Node2 -->
<g id="Node000002" class="node">
<title>Node2</title>
<g id="a_Node000002"><a xlink:href="classhelios_1_1input_1_1GamepadState.html#aad622f428f48b34e16ad5ec334bd127b" target="_top" xlink:title="Returns true when the A button is pressed.">
<polygon fill="white" stroke="#666666" points="537,-798 382,-798 382,-768 537,-768 537,-798"/>
<text text-anchor="start" x="390" y="-786" font-family="Helvetica,sans-Serif" font-size="10.00">helios::input::GamepadState</text>
<text text-anchor="middle" x="459.5" y="-775" font-family="Helvetica,sans-Serif" font-size="10.00">::buttonA</text>
</a>
</g>
</g>
<!-- Node1&#45;&gt;Node2 -->
<g id="edge1_Node000001_Node000002" class="edge">
<title>Node1&#45;&gt;Node2</title>
<g id="a_edge1_Node000001_Node000002"><a xlink:title=" ">
<path fill="none" stroke="#63b8ff" d="M79.48,-411.3C83.48,-460.9 102.89,-618.88 191,-702 239.78,-748.02 313.85,-767.96 371.69,-776.56"/>
<polygon fill="#63b8ff" stroke="#63b8ff" points="371.54,-780.07 381.93,-777.99 372.51,-773.14 371.54,-780.07"/>
</a>
</g>
</g>
<!-- Node3 -->
<g id="Node000003" class="node">
<title>Node3</title>
<g id="a_Node000003"><a xlink:href="classhelios_1_1input_1_1GamepadState.html#a13d75e66ef5ae123d3327ccbef0c5633" target="_top" xlink:title="Returns true when the B button is pressed.">
<polygon fill="white" stroke="#666666" points="537,-750 382,-750 382,-720 537,-720 537,-750"/>
<text text-anchor="start" x="390" y="-738" font-family="Helvetica,sans-Serif" font-size="10.00">helios::input::GamepadState</text>
<text text-anchor="middle" x="459.5" y="-727" font-family="Helvetica,sans-Serif" font-size="10.00">::buttonB</text>
</a>
</g>
</g>
<!-- Node1&#45;&gt;Node3 -->
<g id="edge2_Node000001_Node000003" class="edge">
<title>Node1&#45;&gt;Node3</title>
<g id="a_edge2_Node000001_Node000003"><a xlink:title=" ">
<path fill="none" stroke="#63b8ff" d="M80.58,-411.15C87.5,-455.54 113.81,-586.5 191,-655 240.85,-699.24 314.32,-719.03 371.65,-727.88"/>
<polygon fill="#63b8ff" stroke="#63b8ff" points="371.4,-731.38 381.8,-729.36 372.4,-724.45 371.4,-731.38"/>
</a>
</g>
</g>
<!-- Node4 -->
<g id="Node000004" class="node">
<title>Node4</title>
<g id="a_Node000004"><a xlink:href="classhelios_1_1input_1_1GamepadState.html#a8477f57add844940545f15114a442f58" target="_top" xlink:title="Returns true when the Back button is pressed.">
<polygon fill="white" stroke="#666666" points="537,-702 382,-702 382,-672 537,-672 537,-702"/>
<text text-anchor="start" x="390" y="-690" font-family="Helvetica,sans-Serif" font-size="10.00">helios::input::GamepadState</text>
<text text-anchor="middle" x="459.5" y="-679" font-family="Helvetica,sans-Serif" font-size="10.00">::buttonBack</text>
</a>
</g>
</g>
<!-- Node1&#45;&gt;Node4 -->
<g id="edge3_Node000001_Node000004" class="edge">
<title>Node1&#45;&gt;Node4</title>
<g id="a_edge3_Node000001_Node000004"><a xlink:title=" ">
<path fill="none" stroke="#63b8ff" d="M82.13,-411.25C92.23,-450.31 124.41,-554.67 191,-609 242.27,-650.83 315.13,-670.23 371.86,-679.22"/>
<polygon fill="#63b8ff" stroke="#63b8ff" points="371.48,-682.7 381.89,-680.73 372.53,-675.78 371.48,-682.7"/>
</a>
</g>
</g>
<!-- Node5 -->
<g id="Node000005" class="node">
<title>Node5</title>
<g id="a_Node000005"><a xlink:href="classhelios_1_1input_1_1GamepadState.html#a844503e4099979e7c34f0350c78271cf" target="_top" xlink:title="Returns true when the D&#45;pad Down button is pressed.">
<polygon fill="white" stroke="#666666" points="537,-654 382,-654 382,-624 537,-624 537,-654"/>
<text text-anchor="start" x="390" y="-642" font-family="Helvetica,sans-Serif" font-size="10.00">helios::input::GamepadState</text>
<text text-anchor="middle" x="459.5" y="-631" font-family="Helvetica,sans-Serif" font-size="10.00">::buttonDpadDown</text>
</a>
</g>
</g>
<!-- Node1&#45;&gt;Node5 -->
<g id="edge4_Node000001_Node000005" class="edge">
<title>Node1&#45;&gt;Node5</title>
<g id="a_edge4_Node000001_Node000005"><a xlink:title=" ">
<path fill="none" stroke="#63b8ff" d="M84.2,-411.04C97.54,-444.16 134.04,-523.76 191,-565 244.02,-603.39 316.09,-621.87 372.07,-630.77"/>
<polygon fill="#63b8ff" stroke="#63b8ff" points="371.56,-634.23 381.97,-632.27 372.61,-627.31 371.56,-634.23"/>
</a>
</g>
</g>
<!-- Node6 -->
<g id="Node000006" class="node">
<title>Node6</title>
<g id="a_Node000006"><a xlink:href="classhelios_1_1input_1_1GamepadState.html#a75bca4b779fe81f43d8f8425180b7ece" target="_top" xlink:title="Returns true when the D&#45;pad Left button is pressed.">
<polygon fill="white" stroke="#666666" points="537,-606 382,-606 382,-576 537,-576 537,-606"/>
<text text-anchor="start" x="390" y="-594" font-family="Helvetica,sans-Serif" font-size="10.00">helios::input::GamepadState</text>
<text text-anchor="middle" x="459.5" y="-583" font-family="Helvetica,sans-Serif" font-size="10.00">::buttonDpadLeft</text>
</a>
</g>
</g>
<!-- Node1&#45;&gt;Node6 -->
<g id="edge5_Node000001_Node000006" class="edge">
<title>Node1&#45;&gt;Node6</title>
<g id="a_edge5_Node000001_Node000006"><a xlink:title=" ">
<path fill="none" stroke="#63b8ff" d="M87.2,-411.01C103.77,-438.18 142.55,-495.44 191,-525 245.88,-558.48 316.85,-574.99 371.9,-583.13"/>
<polygon fill="#63b8ff" stroke="#63b8ff" points="371.6,-586.62 381.99,-584.56 372.58,-579.69 371.6,-586.62"/>
</a>
</g>
</g>
<!-- Node7 -->
<g id="Node000007" class="node">
<title>Node7</title>
<g id="a_Node000007"><a xlink:href="classhelios_1_1input_1_1GamepadState.html#a0c868ae7d3209efe9b807992f2eb6899" target="_top" xlink:title="Returns true when the D&#45;pad Right button is pressed.">
<polygon fill="white" stroke="#666666" points="537,-558 382,-558 382,-528 537,-528 537,-558"/>
<text text-anchor="start" x="390" y="-546" font-family="Helvetica,sans-Serif" font-size="10.00">helios::input::GamepadState</text>
<text text-anchor="middle" x="459.5" y="-535" font-family="Helvetica,sans-Serif" font-size="10.00">::buttonDpadRight</text>
</a>
</g>
</g>
<!-- Node1&#45;&gt;Node7 -->
<g id="edge6_Node000001_Node000007" class="edge">
<title>Node1&#45;&gt;Node7</title>
<g id="a_edge6_Node000001_Node000007"><a xlink:title=" ">
<path fill="none" stroke="#63b8ff" d="M91.75,-411.06C111.27,-432.23 149.89,-470.36 191,-490 247.68,-517.09 317.48,-530.34 371.56,-536.81"/>
<polygon fill="#63b8ff" stroke="#63b8ff" points="371.48,-540.33 381.81,-537.98 372.27,-533.37 371.48,-540.33"/>
</a>
</g>
</g>
<!-- Node8 -->
<g id="Node000008" class="node">
<title>Node8</title>
<g id="a_Node000008"><a xlink:href="classhelios_1_1input_1_1GamepadState.html#adcf29eec4d0c29f716c1013b1254c23c" target="_top" xlink:title="Returns true when the D&#45;pad Up button is pressed.">
<polygon fill="white" stroke="#666666" points="537,-510 382,-510 382,-480 537,-480 537,-510"/>
<text text-anchor="start" x="390" y="-498" font-family="Helvetica,sans-Serif" font-size="10.00">helios::input::GamepadState</text>
<text text-anchor="middle" x="459.5" y="-487" font-family="Helvetica,sans-Serif" font-size="10.00">::buttonDpadUp</text>
</a>
</g>
</g>
<!-- Node1&#45;&gt;Node8 -->
<g id="edge7_Node000001_Node000008" class="edge">
<title>Node1&#45;&gt;Node8</title>
<g id="a_edge7_Node000001_Node000008"><a xlink:title=" ">
<path fill="none" stroke="#63b8ff" d="M98.41,-411.11C119.99,-426.64 156.04,-450.16 191,-462 249.29,-481.75 318.29,-489.91 371.61,-493.19"/>
<polygon fill="#63b8ff" stroke="#63b8ff" points="371.54,-496.69 381.72,-493.76 371.94,-489.7 371.54,-496.69"/>
</a>
</g>
</g>
<!-- Node9 -->
<g id="Node000009" class="node">
<title>Node9</title>
<g id="a_Node000009"><a xlink:href="classhelios_1_1input_1_1GamepadState.html#a431dc64f41310e1a27927e856194c1a5" target="_top" xlink:title="Returns true when the Guide button is pressed.">
<polygon fill="white" stroke="#666666" points="537,-462 382,-462 382,-432 537,-432 537,-462"/>
<text text-anchor="start" x="390" y="-450" font-family="Helvetica,sans-Serif" font-size="10.00">helios::input::GamepadState</text>
<text text-anchor="middle" x="459.5" y="-439" font-family="Helvetica,sans-Serif" font-size="10.00">::buttonGuide</text>
</a>
</g>
</g>
<!-- Node1&#45;&gt;Node9 -->
<g id="edge8_Node000001_Node000009" class="edge">
<title>Node1&#45;&gt;Node9</title>
<g id="a_edge8_Node000001_Node000009"><a xlink:title=" ">
<path fill="none" stroke="#63b8ff" d="M107.17,-411.19C129.37,-422.07 161.24,-435.86 191,-442 250.51,-454.28 319.05,-455.31 371.86,-453.39"/>
<polygon fill="#63b8ff" stroke="#63b8ff" points="372.01,-456.88 381.86,-452.98 371.73,-449.89 372.01,-456.88"/>
</a>
</g>
</g>
<!-- Node10 -->
<g id="Node000010" class="node">
<title>Node10</title>
<g id="a_Node000010"><a xlink:href="classhelios_1_1input_1_1GamepadState.html#a47f2f780c1b29fafdf9f9eeff5197915" target="_top" xlink:title="Returns true when the left bumper is pressed.">
<polygon fill="white" stroke="#666666" points="537,-414 382,-414 382,-384 537,-384 537,-414"/>
<text text-anchor="start" x="390" y="-402" font-family="Helvetica,sans-Serif" font-size="10.00">helios::input::GamepadState</text>
<text text-anchor="middle" x="459.5" y="-391" font-family="Helvetica,sans-Serif" font-size="10.00">::buttonLeftBumper</text>
</a>
</g>
</g>
<!-- Node1&#45;&gt;Node10 -->
<g id="edge9_Node000001_Node000010" class="edge">
<title>Node1&#45;&gt;Node10</title>
<g id="a_edge9_Node000001_Node000010"><a xlink:title=" ">
<path fill="none" stroke="#63b8ff" d="M155.19,-394.22C208.67,-393.27 281.69,-392.57 346,-394 354.36,-394.19 363.06,-394.45 371.77,-394.76"/>
<polygon fill="#63b8ff" stroke="#63b8ff" points="371.84,-398.26 381.96,-395.14 372.1,-391.27 371.84,-398.26"/>
</a>
</g>
</g>
<!-- Node11 -->
<g id="Node000011" class="node">
<title>Node11</title>
<g id="a_Node000011"><a xlink:href="classhelios_1_1input_1_1GamepadState.html#a7323e081da339576b34477ee0fc3daae" target="_top" xlink:title="Returns true when the left thumbstick button is pressed.">
<polygon fill="white" stroke="#666666" points="537,-366 382,-366 382,-336 537,-336 537,-366"/>
<text text-anchor="start" x="390" y="-354" font-family="Helvetica,sans-Serif" font-size="10.00">helios::input::GamepadState</text>
<text text-anchor="middle" x="459.5" y="-343" font-family="Helvetica,sans-Serif" font-size="10.00">::buttonLeftThumb</text>
</a>
</g>
</g>
<!-- Node1&#45;&gt;Node11 -->
<g id="edge10_Node000001_Node000011" class="edge">
<title>Node1&#45;&gt;Node11</title>
<g id="a_edge10_Node000001_Node000011"><a xlink:title=" ">
<path fill="none" stroke="#63b8ff" d="M155.4,-386.89C217.98,-379.48 306.3,-369.02 371.46,-361.31"/>
<polygon fill="#63b8ff" stroke="#63b8ff" points="372.2,-364.74 381.72,-360.09 371.37,-357.79 372.2,-364.74"/>
</a>
</g>
</g>
<!-- Node12 -->
<g id="Node000012" class="node">
<title>Node12</title>
<g id="a_Node000012"><a xlink:href="classhelios_1_1input_1_1GamepadState.html#a2287f433f45a9ad3aad31f39df731a93" target="_top" xlink:title="Returns true when the right bumper is pressed.">
<polygon fill="white" stroke="#666666" points="537,-318 382,-318 382,-288 537,-288 537,-318"/>
<text text-anchor="start" x="390" y="-306" font-family="Helvetica,sans-Serif" font-size="10.00">helios::input::GamepadState</text>
<text text-anchor="middle" x="459.5" y="-295" font-family="Helvetica,sans-Serif" font-size="10.00">::buttonRightBumper</text>
</a>
</g>
</g>
<!-- Node1&#45;&gt;Node12 -->
<g id="edge11_Node000001_Node000012" class="edge">
<title>Node1&#45;&gt;Node12</title>
<g id="a_edge11_Node000001_Node000012"><a xlink:title=" ">
<path fill="none" stroke="#63b8ff" d="M123.67,-380.95C144.11,-374.4 168.65,-366.89 191,-361 251.01,-345.19 319.4,-330.42 372.01,-319.74"/>
<polygon fill="#63b8ff" stroke="#63b8ff" points="372.87,-323.14 381.97,-317.73 371.48,-316.28 372.87,-323.14"/>
</a>
</g>
</g>
<!-- Node13 -->
<g id="Node000013" class="node">
<title>Node13</title>
<g id="a_Node000013"><a xlink:href="classhelios_1_1input_1_1GamepadState.html#ae0439676110dabd9f4be364973e6351b" target="_top" xlink:title="Returns true when the right thumbstick button is pressed.">
<polygon fill="white" stroke="#666666" points="537,-270 382,-270 382,-240 537,-240 537,-270"/>
<text text-anchor="start" x="390" y="-258" font-family="Helvetica,sans-Serif" font-size="10.00">helios::input::GamepadState</text>
<text text-anchor="middle" x="459.5" y="-247" font-family="Helvetica,sans-Serif" font-size="10.00">::buttonRightThumb</text>
</a>
</g>
</g>
<!-- Node1&#45;&gt;Node13 -->
<g id="edge12_Node000001_Node000013" class="edge">
<title>Node1&#45;&gt;Node13</title>
<g id="a_edge12_Node000001_Node000013"><a xlink:title=" ">
<path fill="none" stroke="#63b8ff" d="M96.83,-380.84C118.18,-363.9 155.13,-336.8 191,-321 248.78,-295.55 318.09,-278.8 371.68,-268.54"/>
<polygon fill="#63b8ff" stroke="#63b8ff" points="372.65,-271.92 381.84,-266.64 371.36,-265.04 372.65,-271.92"/>
</a>
</g>
</g>
<!-- Node14 -->
<g id="Node000014" class="node">
<title>Node14</title>
<g id="a_Node000014"><a xlink:href="classhelios_1_1input_1_1GamepadState.html#a8544813c5c7257f91d8c4e744339cdfb" target="_top" xlink:title="Returns true when the Start button is pressed.">
<polygon fill="white" stroke="#666666" points="537,-222 382,-222 382,-192 537,-192 537,-222"/>
<text text-anchor="start" x="390" y="-210" font-family="Helvetica,sans-Serif" font-size="10.00">helios::input::GamepadState</text>
<text text-anchor="middle" x="459.5" y="-199" font-family="Helvetica,sans-Serif" font-size="10.00">::buttonStart</text>
</a>
</g>
</g>
<!-- Node1&#45;&gt;Node14 -->
<g id="edge13_Node000001_Node000014" class="edge">
<title>Node1&#45;&gt;Node14</title>
<g id="a_edge13_Node000001_Node000014"><a xlink:title=" ">
<path fill="none" stroke="#63b8ff" d="M87.53,-380.87C104.34,-354.09 143.11,-298.49 191,-270 246.01,-237.28 316.82,-221.55 371.77,-213.99"/>
<polygon fill="#63b8ff" stroke="#63b8ff" points="372.38,-217.44 381.84,-212.67 371.47,-210.5 372.38,-217.44"/>
</a>
</g>
</g>
<!-- Node15 -->
<g id="Node000015" class="node">
<title>Node15</title>
<g id="a_Node000015"><a xlink:href="classhelios_1_1input_1_1GamepadState.html#a53bb4989b63951ebf222bf5c6bd277a4" target="_top" xlink:title="Returns true when the X button is pressed.">
<polygon fill="white" stroke="#666666" points="537,-174 382,-174 382,-144 537,-144 537,-174"/>
<text text-anchor="start" x="390" y="-162" font-family="Helvetica,sans-Serif" font-size="10.00">helios::input::GamepadState</text>
<text text-anchor="middle" x="459.5" y="-151" font-family="Helvetica,sans-Serif" font-size="10.00">::buttonX</text>
</a>
</g>
</g>
<!-- Node1&#45;&gt;Node15 -->
<g id="edge14_Node000001_Node000015" class="edge">
<title>Node1&#45;&gt;Node15</title>
<g id="a_edge14_Node000001_Node000015"><a xlink:title=" ">
<path fill="none" stroke="#63b8ff" d="M83.2,-380.86C95.01,-345.45 129.5,-256.98 191,-214 243.68,-177.18 315.58,-163.93 371.57,-159.62"/>
<polygon fill="#63b8ff" stroke="#63b8ff" points="372.1,-163.09 381.83,-158.91 371.62,-156.11 372.1,-163.09"/>
</a>
</g>
</g>
<!-- Node16 -->
<g id="Node000016" class="node">
<title>Node16</title>
<g id="a_Node000016"><a xlink:href="classhelios_1_1input_1_1GamepadState.html#a856df613c1508ad369875f94b042c4f2" target="_top" xlink:title="Returns true when the Y button is pressed.">
<polygon fill="white" stroke="#666666" points="537,-126 382,-126 382,-96 537,-96 537,-126"/>
<text text-anchor="start" x="390" y="-114" font-family="Helvetica,sans-Serif" font-size="10.00">helios::input::GamepadState</text>
<text text-anchor="middle" x="459.5" y="-103" font-family="Helvetica,sans-Serif" font-size="10.00">::buttonY</text>
</a>
</g>
</g>
<!-- Node1&#45;&gt;Node16 -->
<g id="edge15_Node000001_Node000016" class="edge">
<title>Node1&#45;&gt;Node16</title>
<g id="a_edge15_Node000001_Node000016"><a xlink:title=" ">
<path fill="none" stroke="#63b8ff" d="M80.8,-380.74C88.13,-337.9 115.05,-215.93 191,-158 242.28,-118.89 315.14,-108.15 371.86,-106.64"/>
<polygon fill="#63b8ff" stroke="#63b8ff" points="371.96,-110.14 381.9,-106.46 371.84,-103.14 371.96,-110.14"/>
</a>
</g>
</g>
<!-- Node17 -->
<g id="Node000017" class="node">
<title>Node17</title>
<g id="a_Node000017"><a xlink:href="classhelios_1_1input_1_1GamepadState.html#a259753c014cb11fe211cca3137f67ae5" target="_top" xlink:title="Returns the current value of the left trigger.">
<polygon fill="white" stroke="#666666" points="537,-78 382,-78 382,-48 537,-48 537,-78"/>
<text text-anchor="start" x="390" y="-66" font-family="Helvetica,sans-Serif" font-size="10.00">helios::input::GamepadState</text>
<text text-anchor="middle" x="459.5" y="-55" font-family="Helvetica,sans-Serif" font-size="10.00">::triggerLeft</text>
</a>
</g>
</g>
<!-- Node1&#45;&gt;Node17 -->
<g id="edge16_Node000001_Node000017" class="edge">
<title>Node1&#45;&gt;Node17</title>
<g id="a_edge16_Node000001_Node000017"><a xlink:title=" ">
<path fill="none" stroke="#63b8ff" d="M79.28,-380.89C82.67,-331.96 100.42,-176.88 191,-104 241.24,-63.57 314.51,-54.71 371.66,-55.19"/>
<polygon fill="#63b8ff" stroke="#63b8ff" points="371.72,-58.69 381.78,-55.37 371.84,-51.69 371.72,-58.69"/>
</a>
</g>
</g>
<!-- Node18 -->
<g id="Node000018" class="node">
<title>Node18</title>
<g id="a_Node000018"><a xlink:href="classhelios_1_1input_1_1GamepadState.html#a18ff7a69f4c8ebba20a25f53ea7a9714" target="_top" xlink:title="Returns the current value of the right trigger.">
<polygon fill="white" stroke="#666666" points="537,-30 382,-30 382,0 537,0 537,-30"/>
<text text-anchor="start" x="390" y="-18" font-family="Helvetica,sans-Serif" font-size="10.00">helios::input::GamepadState</text>
<text text-anchor="middle" x="459.5" y="-7" font-family="Helvetica,sans-Serif" font-size="10.00">::triggerRight</text>
</a>
</g>
</g>
<!-- Node1&#45;&gt;Node18 -->
<g id="edge17_Node000001_Node000018" class="edge">
<title>Node1&#45;&gt;Node18</title>
<g id="a_edge17_Node000001_Node000018"><a xlink:title=" ">
<path fill="none" stroke="#63b8ff" d="M78.23,-380.89C78.13,-326.42 85.73,-138.71 191,-51 240.58,-9.69 314.24,-2.41 371.72,-4.5"/>
<polygon fill="#63b8ff" stroke="#63b8ff" points="371.74,-8 381.89,-4.97 372.06,-1.01 371.74,-8"/>
</a>
</g>
</g>
<!-- Node19 -->
<g id="Node000019" class="node">
<title>Node19</title>
<g id="a_Node000019"><a xlink:href="classhelios_1_1input_1_1GamepadState.html#a22a26dfe8eeef1007c641452b768f0f9" target="_top" xlink:title="Updates the axes and button states of this GamepadState object.">
<polygon fill="white" stroke="#666666" points="346,-433 191,-433 191,-403 346,-403 346,-433"/>
<text text-anchor="start" x="199" y="-421" font-family="Helvetica,sans-Serif" font-size="10.00">helios::input::GamepadState</text>
<text text-anchor="middle" x="268.5" y="-410" font-family="Helvetica,sans-Serif" font-size="10.00">::updateAxes</text>
</a>
</g>
</g>
<!-- Node1&#45;&gt;Node19 -->
<g id="edge18_Node000001_Node000019" class="edge">
<title>Node1&#45;&gt;Node19</title>
<g id="a_edge18_Node000001_Node000019"><a xlink:title=" ">
<path fill="none" stroke="#63b8ff" d="M155.1,-404.92C163.56,-405.9 172.22,-406.91 180.79,-407.91"/>
<polygon fill="#63b8ff" stroke="#63b8ff" points="180.45,-411.39 190.79,-409.07 181.26,-404.44 180.45,-411.39"/>
</a>
</g>
</g>
<!-- Node19&#45;&gt;Node2 -->
<g id="edge19_Node000019_Node000002" class="edge">
<title>Node19&#45;&gt;Node2</title>
<g id="a_edge19_Node000019_Node000002"><a xlink:title=" ">
<path fill="none" stroke="#63b8ff" d="M269.84,-433.08C271.87,-485.88 285.87,-664.27 382,-759 383.08,-760.07 384.22,-761.09 385.39,-762.07"/>
<polygon fill="#63b8ff" stroke="#63b8ff" points="383.46,-764.99 393.66,-767.87 387.48,-759.26 383.46,-764.99"/>
</a>
</g>
</g>
<!-- Node19&#45;&gt;Node3 -->
<g id="edge20_Node000019_Node000003" class="edge">
<title>Node19&#45;&gt;Node3</title>
<g id="a_edge20_Node000019_Node000003"><a xlink:title=" ">
<path fill="none" stroke="#63b8ff" d="M270.8,-433.3C275.7,-481.47 297.4,-631.54 382,-711 383.14,-712.07 384.33,-713.1 385.56,-714.07"/>
<polygon fill="#63b8ff" stroke="#63b8ff" points="383.95,-717.21 394.21,-719.89 387.86,-711.41 383.95,-717.21"/>
</a>
</g>
</g>
<!-- Node19&#45;&gt;Node4 -->
<g id="edge21_Node000019_Node000004" class="edge">
<title>Node19&#45;&gt;Node4</title>
<g id="a_edge21_Node000019_Node000004"><a xlink:title=" ">
<path fill="none" stroke="#63b8ff" d="M272.06,-433.2C280.06,-475.96 308.6,-598.34 382,-663 383.33,-664.17 384.71,-665.28 386.15,-666.34"/>
<polygon fill="#63b8ff" stroke="#63b8ff" points="384.5,-669.44 394.82,-671.83 388.24,-663.53 384.5,-669.44"/>
</a>
</g>
</g>
<!-- Node19&#45;&gt;Node5 -->
<g id="edge22_Node000019_Node000005" class="edge">
<title>Node19&#45;&gt;Node5</title>
<g id="a_edge22_Node000019_Node000005"><a xlink:title=" ">
<path fill="none" stroke="#63b8ff" d="M273.88,-433.11C285.31,-469.9 319.58,-564.73 382,-615 383.59,-616.28 385.24,-617.49 386.95,-618.63"/>
<polygon fill="#63b8ff" stroke="#63b8ff" points="385.5,-621.84 395.9,-623.84 389.02,-615.79 385.5,-621.84"/>
</a>
</g>
</g>
<!-- Node19&#45;&gt;Node6 -->
<g id="edge23_Node000019_Node000006" class="edge">
<title>Node19&#45;&gt;Node6</title>
<g id="a_edge23_Node000019_Node000006"><a xlink:title=" ">
<path fill="none" stroke="#63b8ff" d="M276.82,-433.14C292.11,-463.19 330.34,-530.58 382,-567 384.14,-568.51 386.38,-569.93 388.69,-571.26"/>
<polygon fill="#63b8ff" stroke="#63b8ff" points="387.41,-574.53 397.91,-575.97 390.6,-568.3 387.41,-574.53"/>
</a>
</g>
</g>
<!-- Node19&#45;&gt;Node7 -->
<g id="edge24_Node000019_Node000007" class="edge">
<title>Node19&#45;&gt;Node7</title>
<g id="a_edge24_Node000019_Node000007"><a xlink:title=" ">
<path fill="none" stroke="#63b8ff" d="M282.5,-433.24C302.01,-455.18 340.95,-495.62 382,-519 385.06,-520.74 388.25,-522.37 391.54,-523.9"/>
<polygon fill="#63b8ff" stroke="#63b8ff" points="390.39,-527.21 400.96,-527.92 393.14,-520.78 390.39,-527.21"/>
</a>
</g>
</g>
<!-- Node19&#45;&gt;Node8 -->
<g id="edge25_Node000019_Node000008" class="edge">
<title>Node19&#45;&gt;Node8</title>
<g id="a_edge25_Node000019_Node000008"><a xlink:title=" ">
<path fill="none" stroke="#63b8ff" d="M298.63,-433.07C321.06,-444.34 353.04,-459.7 382,-471 387.02,-472.96 392.28,-474.88 397.58,-476.72"/>
<polygon fill="#63b8ff" stroke="#63b8ff" points="396.54,-480.06 407.14,-479.95 398.78,-473.43 396.54,-480.06"/>
</a>
</g>
</g>
<!-- Node19&#45;&gt;Node9 -->
<g id="edge26_Node000019_Node000009" class="edge">
<title>Node19&#45;&gt;Node9</title>
<g id="a_edge26_Node000019_Node000009"><a xlink:title=" ">
<path fill="none" stroke="#63b8ff" d="M346.1,-429.75C354.56,-431.05 363.22,-432.38 371.79,-433.69"/>
<polygon fill="#63b8ff" stroke="#63b8ff" points="371.37,-437.17 381.79,-435.23 372.44,-430.25 371.37,-437.17"/>
</a>
</g>
</g>
<!-- Node19&#45;&gt;Node10 -->
<g id="edge27_Node000019_Node000010" class="edge">
<title>Node19&#45;&gt;Node10</title>
<g id="a_edge27_Node000019_Node000010"><a xlink:title=" ">
<path fill="none" stroke="#63b8ff" d="M346.1,-410.3C354.56,-409.45 363.22,-408.58 371.79,-407.72"/>
<polygon fill="#63b8ff" stroke="#63b8ff" points="372.19,-411.19 381.79,-406.71 371.49,-404.23 372.19,-411.19"/>
</a>
</g>
</g>
<!-- Node19&#45;&gt;Node11 -->
<g id="edge28_Node000019_Node000011" class="edge">
<title>Node19&#45;&gt;Node11</title>
<g id="a_edge28_Node000019_Node000011"><a xlink:title=" ">
<path fill="none" stroke="#63b8ff" d="M307.05,-402.99C328.81,-394.45 356.82,-383.75 382,-375 387.56,-373.07 393.37,-371.12 399.19,-369.21"/>
<polygon fill="#63b8ff" stroke="#63b8ff" points="400.53,-372.46 408.97,-366.05 398.38,-365.8 400.53,-372.46"/>
</a>
</g>
</g>
<!-- Node19&#45;&gt;Node12 -->
<g id="edge29_Node000019_Node000012" class="edge">
<title>Node19&#45;&gt;Node12</title>
<g id="a_edge29_Node000019_Node000012"><a xlink:title=" ">
<path fill="none" stroke="#63b8ff" d="M284.52,-402.67C304.91,-382.67 343.25,-347.77 382,-327 385.32,-325.22 388.8,-323.54 392.36,-321.98"/>
<polygon fill="#63b8ff" stroke="#63b8ff" points="394,-325.09 401.94,-318.07 391.35,-318.61 394,-325.09"/>
</a>
</g>
</g>
<!-- Node19&#45;&gt;Node13 -->
<g id="edge30_Node000019_Node000013" class="edge">
<title>Node19&#45;&gt;Node13</title>
<g id="a_edge30_Node000019_Node000013"><a xlink:title=" ">
<path fill="none" stroke="#63b8ff" d="M277.84,-402.57C294.07,-373.95 332.71,-312.52 382,-279 384.37,-277.39 386.86,-275.88 389.43,-274.46"/>
<polygon fill="#63b8ff" stroke="#63b8ff" points="391,-277.59 398.42,-270.03 387.91,-271.31 391,-277.59"/>
</a>
</g>
</g>
<!-- Node19&#45;&gt;Node14 -->
<g id="edge31_Node000019_Node000014" class="edge">
<title>Node19&#45;&gt;Node14</title>
<g id="a_edge31_Node000019_Node000014"><a xlink:title=" ">
<path fill="none" stroke="#63b8ff" d="M274.38,-402.87C286.58,-367.39 321.85,-278.32 382,-231 383.78,-229.6 385.64,-228.28 387.56,-227.04"/>
<polygon fill="#63b8ff" stroke="#63b8ff" points="389.38,-230.04 396.37,-222.07 385.94,-223.94 389.38,-230.04"/>
</a>
</g>
</g>
<!-- Node19&#45;&gt;Node15 -->
<g id="edge32_Node000019_Node000015" class="edge">
<title>Node19&#45;&gt;Node15</title>
<g id="a_edge32_Node000019_Node000015"><a xlink:title=" ">
<path fill="none" stroke="#63b8ff" d="M272.38,-402.81C281.07,-361.25 310.91,-244.62 382,-183 383.5,-181.7 385.07,-180.47 386.69,-179.31"/>
<polygon fill="#63b8ff" stroke="#63b8ff" points="388.58,-182.26 395.25,-174.03 384.9,-176.3 388.58,-182.26"/>
</a>
</g>
</g>
<!-- Node19&#45;&gt;Node16 -->
<g id="edge33_Node000019_Node000016" class="edge">
<title>Node19&#45;&gt;Node16</title>
<g id="a_edge33_Node000019_Node000016"><a xlink:title=" ">
<path fill="none" stroke="#63b8ff" d="M271.01,-402.88C276.5,-355.97 299.66,-211.44 382,-135 383.15,-133.93 384.34,-132.92 385.58,-131.94"/>
<polygon fill="#63b8ff" stroke="#63b8ff" points="387.87,-134.62 394.25,-126.16 383.99,-128.8 387.87,-134.62"/>
</a>
</g>
</g>
<!-- Node19&#45;&gt;Node17 -->
<g id="edge34_Node000019_Node000017" class="edge">
<title>Node19&#45;&gt;Node17</title>
<g id="a_edge34_Node000019_Node000017"><a xlink:title=" ">
<path fill="none" stroke="#63b8ff" d="M270.01,-402.99C272.6,-351.27 288.21,-178.6 382,-87 383.09,-85.94 384.22,-84.92 385.4,-83.95"/>
<polygon fill="#63b8ff" stroke="#63b8ff" points="387.49,-86.76 393.69,-78.17 383.49,-81.02 387.49,-86.76"/>
</a>
</g>
</g>
<!-- Node19&#45;&gt;Node18 -->
<g id="edge35_Node000019_Node000018" class="edge">
<title>Node19&#45;&gt;Node18</title>
<g id="a_edge35_Node000019_Node000018"><a xlink:title=" ">
<path fill="none" stroke="#63b8ff" d="M269.26,-402.86C269.22,-346.4 276.78,-145.86 382,-39 383.07,-37.92 384.18,-36.88 385.34,-35.89"/>
<polygon fill="#63b8ff" stroke="#63b8ff" points="387.45,-38.69 393.54,-30.02 383.37,-33 387.45,-38.69"/>
</a>
</g>
</g>
</g>
</svg>

<g id="navigator" transform="translate(0 0)" fill="#404254">
  <rect fill="#f2f5e9" fill-opacity="0.5" stroke="#606060" stroke-width=".5" x="0" y="0" width="60" height="60"/>
  <use id="zoomplus" xlink:href="#zoomPlus" x="17" y="9" onmousedown="handleZoom(evt,'in')"/>
  <use id="zoomminus" xlink:href="#zoomMin" x="42" y="9" onmousedown="handleZoom(evt,'out')"/>
  <use id="reset" xlink:href="#resetDef" x="30" y="36" onmousedown="handleReset()"/>
   <use id="arrowup" xlink:href="#arrowUp" x="0" y="0" onmousedown="handlePan(0,-1)"/>
  <use id="arrowright" xlink:href="#arrowRight" x="0" y="0" onmousedown="handlePan(1,0)"/>
  <use id="arrowdown" xlink:href="#arrowDown" x="0" y="0" onmousedown="handlePan(0,1)"/>
  <use id="arrowleft" xlink:href="#arrowLeft" x="0" y="0" onmousedown="handlePan(-1,0)"/>
</g>
<svg viewBox="0 0 15 15" width="100%" height="30px" preserveAspectRatio="xMaxYMin meet">
 <g id="arrow_out" transform="scale(0.3 0.3)">
  <a xlink:href="classhelios_1_1input_1_1GamepadState_a4571c54073e4f9d9db2630d1f7c88628_cgraph_org.svg" target="_base">
   <rect id="button" ry="5" rx="5" y="6" x="6" height="38" width="38"
        fill="#f2f5e9" fill-opacity="0.5" stroke="#606060" stroke-width="1.0"/>
   <path id="arrow"
     d="M 11.500037,31.436501 C 11.940474,20.09759 22.043105,11.32322 32.158766,21.979434 L 37.068811,17.246167 C 37.068811,17.246167 37.088388,32 37.088388,32 L 22.160133,31.978069 C 22.160133,31.978069 26.997745,27.140456 26.997745,27.140456 C 18.528582,18.264221 13.291696,25.230495 11.500037,31.436501 z"
     style="fill:#404040;"/>
  </a>
 </g>
</svg>

<style type='text/css'>
<![CDATA[
[data-mouse-over-selected='false'] { opacity: 0.7; }
[data-mouse-over-selected='true']  { opacity: 1.0; }
]]>
</style>
<script type="application/ecmascript"><![CDATA[
document.addEventListener('DOMContentLoaded', (event) => {
  highlightEdges();
  highlightAdjacentNodes();
});
]]></script>
</svg>
