<?xml version="1.0" encoding="UTF-8" standalone="no"?>
<!DOCTYPE svg PUBLIC "-//W3C//DTD SVG 1.1//EN"
 "http://www.w3.org/Graphics/SVG/1.1/DTD/svg11.dtd">
<!-- Generated by graphviz version 2.43.0 (0)
 -->
<!-- Title: helios::engine::game::systems::gameplay::ProjectilePoolSystem::spawn Pages: 1 -->
<svg width="505pt" height="67pt"
 viewBox="0.00 0.00 505.00 67.00" xmlns="http://www.w3.org/2000/svg" xmlns:xlink="http://www.w3.org/1999/xlink">
<g id="graph0" class="graph" transform="scale(1 1) rotate(0) translate(4 63)">
<title>helios::engine::game::systems::gameplay::ProjectilePoolSystem::spawn</title>
<!-- Node1 -->
<g id="Node000001" class="node">
<title>Node1</title>
<g id="a_Node000001"><a xlink:title="Spawns a projectile from the pool at the given position with muzzleVelocity.">
<polygon fill="#999999" stroke="#666666" points="158,-46.5 0,-46.5 0,-5.5 158,-5.5 158,-46.5"/>
<text text-anchor="start" x="8" y="-34.5" font-family="Helvetica,sans-Serif" font-size="10.00">helios::engine::game</text>
<text text-anchor="start" x="8" y="-23.5" font-family="Helvetica,sans-Serif" font-size="10.00">::systems::gameplay::</text>
<text text-anchor="middle" x="79" y="-12.5" font-family="Helvetica,sans-Serif" font-size="10.00">ProjectilePoolSystem::spawn</text>
</a>
</g>
</g>
<!-- Node2 -->
<g id="Node000002" class="node">
<title>Node2</title>
<g id="a_Node000002"><a xlink:href="classhelios_1_1engine_1_1game_1_1systems_1_1gameplay_1_1ProjectilePoolSystem.html#a2a64b5c683b4ff6fb6dfac8f64acab39" target="_top" xlink:title=" ">
<polygon fill="white" stroke="#666666" points="320,-52 194,-52 194,0 320,0 320,-52"/>
<text text-anchor="start" x="202" y="-40" font-family="Helvetica,sans-Serif" font-size="10.00">helios::engine::game</text>
<text text-anchor="start" x="202" y="-29" font-family="Helvetica,sans-Serif" font-size="10.00">::systems::gameplay::</text>
<text text-anchor="start" x="202" y="-18" font-family="Helvetica,sans-Serif" font-size="10.00">ProjectilePoolSystem::</text>
<text text-anchor="middle" x="257" y="-7" font-family="Helvetica,sans-Serif" font-size="10.00">prepareProjectiles</text>
</a>
</g>
</g>
<!-- Node1&#45;&gt;Node2 -->
<g id="edge1_Node000001_Node000002" class="edge">
<title>Node1&#45;&gt;Node2</title>
<g id="a_edge1_Node000001_Node000002"><a xlink:title=" ">
<path fill="none" stroke="#63b8ff" d="M158.22,-26C166.71,-26 175.31,-26 183.72,-26"/>
<polygon fill="#63b8ff" stroke="#63b8ff" points="183.86,-29.5 193.86,-26 183.86,-22.5 183.86,-29.5"/>
</a>
</g>
</g>
<!-- Node3 -->
<g id="Node000003" class="node">
<title>Node3</title>
<g id="a_Node000003"><a xlink:href="classhelios_1_1scene_1_1SceneNode.html#a1020ca70c5268619a3bdfb3acb843e34" target="_top" xlink:title="Returns the axis&#45;aligned bounding box for this SceneNode in world coordinates.">
<polygon fill="white" stroke="#666666" points="497,-41 356,-41 356,-11 497,-11 497,-41"/>
<text text-anchor="start" x="364" y="-29" font-family="Helvetica,sans-Serif" font-size="10.00">helios::scene::SceneNode</text>
<text text-anchor="middle" x="426.5" y="-18" font-family="Helvetica,sans-Serif" font-size="10.00">::aabb</text>
</a>
</g>
</g>
<!-- Node2&#45;&gt;Node3 -->
<g id="edge2_Node000002_Node000003" class="edge">
<title>Node2&#45;&gt;Node3</title>
<g id="a_edge2_Node000002_Node000003"><a xlink:title=" ">
<path fill="none" stroke="#63b8ff" d="M320.37,-26C328.57,-26 337.06,-26 345.5,-26"/>
<polygon fill="#63b8ff" stroke="#63b8ff" points="345.75,-29.5 355.75,-26 345.75,-22.5 345.75,-29.5"/>
</a>
</g>
</g>
<!-- Node3&#45;&gt;Node3 -->
<g id="edge3_Node000003_Node000003" class="edge">
<title>Node3&#45;&gt;Node3</title>
<g id="a_edge3_Node000003_Node000003"><a xlink:title=" ">
<path fill="none" stroke="#63b8ff" d="M396.97,-41.28C390.41,-50.41 400.25,-59 426.5,-59 442.09,-59 451.89,-55.97 455.91,-51.6"/>
<polygon fill="#63b8ff" stroke="#63b8ff" points="459.41,-51.32 456.03,-41.28 452.41,-51.23 459.41,-51.32"/>
</a>
</g>
</g>
</g>
</svg>
