<?xml version="1.0" encoding="UTF-8" standalone="no"?>
<!DOCTYPE svg PUBLIC "-//W3C//DTD SVG 1.1//EN"
 "http://www.w3.org/Graphics/SVG/1.1/DTD/svg11.dtd">
<!-- Generated by graphviz version 2.43.0 (0)
 -->
<!-- Title: helios::engine::game::systems::gameplay::ProjectilePoolSystem::prepareProjectiles Pages: 1 -->
<svg width="311pt" height="67pt"
 viewBox="0.00 0.00 311.00 67.00" xmlns="http://www.w3.org/2000/svg" xmlns:xlink="http://www.w3.org/1999/xlink">
<g id="graph0" class="graph" transform="scale(1 1) rotate(0) translate(4 63)">
<title>helios::engine::game::systems::gameplay::ProjectilePoolSystem::prepareProjectiles</title>
<!-- Node1 -->
<g id="Node000001" class="node">
<title>Node1</title>
<g id="a_Node000001"><a xlink:title=" ">
<polygon fill="#999999" stroke="#666666" points="126,-52 0,-52 0,0 126,0 126,-52"/>
<text text-anchor="start" x="8" y="-40" font-family="Helvetica,sans-Serif" font-size="10.00">helios::engine::game</text>
<text text-anchor="start" x="8" y="-29" font-family="Helvetica,sans-Serif" font-size="10.00">::systems::gameplay::</text>
<text text-anchor="start" x="8" y="-18" font-family="Helvetica,sans-Serif" font-size="10.00">ProjectilePoolSystem::</text>
<text text-anchor="middle" x="63" y="-7" font-family="Helvetica,sans-Serif" font-size="10.00">prepareProjectiles</text>
</a>
</g>
</g>
<!-- Node2 -->
<g id="Node000002" class="node">
<title>Node2</title>
<g id="a_Node000002"><a xlink:href="classhelios_1_1scene_1_1SceneNode.html#a1020ca70c5268619a3bdfb3acb843e34" target="_top" xlink:title="Returns the axis&#45;aligned bounding box for this SceneNode in world coordinates.">
<polygon fill="white" stroke="#666666" points="303,-41 162,-41 162,-11 303,-11 303,-41"/>
<text text-anchor="start" x="170" y="-29" font-family="Helvetica,sans-Serif" font-size="10.00">helios::scene::SceneNode</text>
<text text-anchor="middle" x="232.5" y="-18" font-family="Helvetica,sans-Serif" font-size="10.00">::aabb</text>
</a>
</g>
</g>
<!-- Node1&#45;&gt;Node2 -->
<g id="edge1_Node000001_Node000002" class="edge">
<title>Node1&#45;&gt;Node2</title>
<g id="a_edge1_Node000001_Node000002"><a xlink:title=" ">
<path fill="none" stroke="#63b8ff" d="M126.37,-26C134.57,-26 143.06,-26 151.5,-26"/>
<polygon fill="#63b8ff" stroke="#63b8ff" points="151.75,-29.5 161.75,-26 151.75,-22.5 151.75,-29.5"/>
</a>
</g>
</g>
<!-- Node2&#45;&gt;Node2 -->
<g id="edge2_Node000002_Node000002" class="edge">
<title>Node2&#45;&gt;Node2</title>
<g id="a_edge2_Node000002_Node000002"><a xlink:title=" ">
<path fill="none" stroke="#63b8ff" d="M202.97,-41.28C196.41,-50.41 206.25,-59 232.5,-59 248.09,-59 257.89,-55.97 261.91,-51.6"/>
<polygon fill="#63b8ff" stroke="#63b8ff" points="265.41,-51.32 262.03,-41.28 258.41,-51.23 265.41,-51.32"/>
</a>
</g>
</g>
</g>
</svg>
