<?xml version="1.0" encoding="UTF-8" standalone="no"?>
<!DOCTYPE svg PUBLIC "-//W3C//DTD SVG 1.1//EN"
 "http://www.w3.org/Graphics/SVG/1.1/DTD/svg11.dtd">
<!-- Generated by graphviz version 2.43.0 (0)
 -->
<!-- Title: helios::ext::opengl::rendering::model::OpenGLMesh::OpenGLMesh Pages: 1 -->
<svg width="356pt" height="226pt"
 viewBox="0.00 0.00 356.00 226.00" xmlns="http://www.w3.org/2000/svg" xmlns:xlink="http://www.w3.org/1999/xlink">

<svg id="main" version="1.1" xmlns="http://www.w3.org/2000/svg" xmlns:xlink="http://www.w3.org/1999/xlink" xml:space="preserve">

<style type="text/css"><![CDATA[
.node, .edge {opacity: 0.7;}
.node.selected, .edge.selected {opacity: 1;}
.edge:hover path { stroke: red; }
.edge:hover polygon { stroke: red; fill: red; }
]]></style>
<script type="application/ecmascript" xlink:href="svg.min.js"/>
<svg id="graph" class="graph">
<g id="graph0" class="graph" transform="scale(1 1) rotate(0) translate(4 222)">
<title>helios::ext::opengl::rendering::model::OpenGLMesh::OpenGLMesh</title>
<!-- Node1 -->
<g id="Node000001" class="node">
<title>Node1</title>
<g id="a_Node000001"><a xlink:title="Rule of three.">
<polygon fill="#999999" stroke="#666666" points="348,-129 196,-129 196,-88 348,-88 348,-129"/>
<text text-anchor="start" x="204" y="-117" font-family="Helvetica,sans-Serif" font-size="10.00">helios::ext::opengl</text>
<text text-anchor="start" x="204" y="-106" font-family="Helvetica,sans-Serif" font-size="10.00">::rendering::model::</text>
<text text-anchor="middle" x="272" y="-95" font-family="Helvetica,sans-Serif" font-size="10.00">OpenGLMesh::OpenGLMesh</text>
</a>
</g>
</g>
<!-- Node1&#45;&gt;Node1 -->
<g id="edge2_Node000001_Node000001" class="edge">
<title>Node1&#45;&gt;Node1</title>
<g id="a_edge2_Node000001_Node000001"><a xlink:title=" ">
<path fill="none" stroke="#63b8ff" d="M305.03,-138.96C300.12,-143.74 289.11,-147 272,-147 244.62,-147 232.86,-138.65 236.71,-129.1"/>
<polygon fill="#63b8ff" stroke="#63b8ff" points="308.47,-139.63 307.29,-129.1 301.65,-138.06 308.47,-139.63"/>
</a>
</g>
</g>
<!-- Node2 -->
<g id="Node000002" class="node">
<title>Node2</title>
<g id="a_Node000002"><a xlink:href="classhelios_1_1ext_1_1opengl_1_1rendering_1_1model_1_1OpenGLMesh.html#a4118cd59bc33ae54ff8abb339cd67fc9" target="_top" xlink:title="Creates a new OpenGLMesh instance from the specified Shape.">
<polygon fill="white" stroke="#666666" points="156,-218 4,-218 4,-177 156,-177 156,-218"/>
<text text-anchor="start" x="12" y="-206" font-family="Helvetica,sans-Serif" font-size="10.00">helios::ext::opengl</text>
<text text-anchor="start" x="12" y="-195" font-family="Helvetica,sans-Serif" font-size="10.00">::rendering::model::</text>
<text text-anchor="middle" x="80" y="-184" font-family="Helvetica,sans-Serif" font-size="10.00">OpenGLMesh::OpenGLMesh</text>
</a>
</g>
</g>
<!-- Node1&#45;&gt;Node2 -->
<g id="edge1_Node000001_Node000002" class="edge">
<title>Node1&#45;&gt;Node2</title>
<g id="a_edge1_Node000001_Node000002"><a xlink:title=" ">
<path fill="none" stroke="#63b8ff" d="M227.23,-134.04C207.1,-145.3 182.69,-158.27 160,-168.5 153.61,-171.38 146.83,-174.2 140.05,-176.89"/>
<polygon fill="#63b8ff" stroke="#63b8ff" points="229.17,-136.97 236.16,-129.01 225.73,-130.87 229.17,-136.97"/>
</a>
</g>
</g>
<!-- Node3 -->
<g id="Node000003" class="node">
<title>Node3</title>
<g id="a_Node000003"><a xlink:href="classhelios_1_1ext_1_1opengl_1_1rendering_1_1model_1_1OpenGLMesh.html#a2d4c0ccf2f175ce3ac7dddc9bd7c808f" target="_top" xlink:title="Constructs a new OpenGLMesh instance from raw mesh data.">
<polygon fill="white" stroke="#666666" points="156,-159 4,-159 4,-118 156,-118 156,-159"/>
<text text-anchor="start" x="12" y="-147" font-family="Helvetica,sans-Serif" font-size="10.00">helios::ext::opengl</text>
<text text-anchor="start" x="12" y="-136" font-family="Helvetica,sans-Serif" font-size="10.00">::rendering::model::</text>
<text text-anchor="middle" x="80" y="-125" font-family="Helvetica,sans-Serif" font-size="10.00">OpenGLMesh::OpenGLMesh</text>
</a>
</g>
</g>
<!-- Node1&#45;&gt;Node3 -->
<g id="edge3_Node000001_Node000003" class="edge">
<title>Node1&#45;&gt;Node3</title>
<g id="a_edge3_Node000001_Node000003"><a xlink:title=" ">
<path fill="none" stroke="#63b8ff" d="M186.02,-121.92C176.07,-123.49 165.97,-125.08 156.17,-126.63"/>
<polygon fill="#63b8ff" stroke="#63b8ff" points="186.58,-125.37 195.91,-120.36 185.48,-118.46 186.58,-125.37"/>
</a>
</g>
</g>
<!-- Node4 -->
<g id="Node000004" class="node">
<title>Node4</title>
<g id="a_Node000004"><a xlink:href="classhelios_1_1ext_1_1opengl_1_1rendering_1_1model_1_1OpenGLMesh.html#a08733d30fdbd808ffa626d97182cd3e3" target="_top" xlink:title=" ">
<polygon fill="white" stroke="#666666" points="148.5,-100 11.5,-100 11.5,-59 148.5,-59 148.5,-100"/>
<text text-anchor="start" x="19.5" y="-88" font-family="Helvetica,sans-Serif" font-size="10.00">helios::ext::opengl</text>
<text text-anchor="start" x="19.5" y="-77" font-family="Helvetica,sans-Serif" font-size="10.00">::rendering::model::</text>
<text text-anchor="middle" x="80" y="-66" font-family="Helvetica,sans-Serif" font-size="10.00">OpenGLMesh::operator=</text>
</a>
</g>
</g>
<!-- Node1&#45;&gt;Node4 -->
<g id="edge4_Node000001_Node000004" class="edge">
<title>Node1&#45;&gt;Node4</title>
<g id="a_edge4_Node000001_Node000004"><a xlink:title=" ">
<path fill="none" stroke="#63b8ff" d="M185.98,-95.52C173.51,-93.62 160.82,-91.68 148.76,-89.84"/>
<polygon fill="#63b8ff" stroke="#63b8ff" points="185.49,-98.99 195.91,-97.04 186.55,-92.07 185.49,-98.99"/>
</a>
</g>
</g>
<!-- Node5 -->
<g id="Node000005" class="node">
<title>Node5</title>
<g id="a_Node000005"><a xlink:href="classhelios_1_1ext_1_1opengl_1_1rendering_1_1model_1_1OpenGLMesh.html#af94e18c86ddf3125da54c8f64796cda6" target="_top" xlink:title="Frees allocated resources bv this instance. If an instance of this class is destructed,...">
<polygon fill="white" stroke="#666666" points="160,-41 0,-41 0,0 160,0 160,-41"/>
<text text-anchor="start" x="8" y="-29" font-family="Helvetica,sans-Serif" font-size="10.00">helios::ext::opengl</text>
<text text-anchor="start" x="8" y="-18" font-family="Helvetica,sans-Serif" font-size="10.00">::rendering::model::</text>
<text text-anchor="middle" x="80" y="-7" font-family="Helvetica,sans-Serif" font-size="10.00">OpenGLMesh::~OpenGLMesh</text>
</a>
</g>
</g>
<!-- Node1&#45;&gt;Node5 -->
<g id="edge5_Node000001_Node000005" class="edge">
<title>Node1&#45;&gt;Node5</title>
<g id="a_edge5_Node000001_Node000005"><a xlink:title=" ">
<path fill="none" stroke="#63b8ff" d="M225.46,-83.15C205.62,-72.51 181.93,-60.35 160,-50.5 152.91,-47.31 145.37,-44.16 137.86,-41.16"/>
<polygon fill="#63b8ff" stroke="#63b8ff" points="223.83,-86.24 234.29,-87.92 227.15,-80.09 223.83,-86.24"/>
</a>
</g>
</g>
</g>
</svg>
</svg>

<style type='text/css'>
<![CDATA[
[data-mouse-over-selected='false'] { opacity: 0.7; }
[data-mouse-over-selected='true']  { opacity: 1.0; }
]]>
</style>
<script type="application/ecmascript"><![CDATA[
document.addEventListener('DOMContentLoaded', (event) => {
  highlightEdges();
  highlightAdjacentNodes();
});
]]></script>
</svg>
