<?xml version="1.0" encoding="UTF-8" standalone="no"?>
<!DOCTYPE svg PUBLIC "-//W3C//DTD SVG 1.1//EN"
 "http://www.w3.org/Graphics/SVG/1.1/DTD/svg11.dtd">
<!-- Generated by graphviz version 2.43.0 (0)
 -->
<!-- Title: helios::rendering::Viewport::renderTarget Pages: 1 -->
<svg width="318pt" height="56pt"
 viewBox="0.00 0.00 318.00 56.00" xmlns="http://www.w3.org/2000/svg" xmlns:xlink="http://www.w3.org/1999/xlink">
<g id="graph0" class="graph" transform="scale(1 1) rotate(0) translate(4 52)">
<title>helios::rendering::Viewport::renderTarget</title>
<!-- Node1 -->
<g id="Node000001" class="node">
<title>Node1</title>
<g id="a_Node000001"><a xlink:title="Gets the parent RenderTarget.">
<polygon fill="#999999" stroke="#666666" points="310,-30 182,-30 182,0 310,0 310,-30"/>
<text text-anchor="start" x="190" y="-18" font-family="Helvetica,sans-Serif" font-size="10.00">helios::rendering::</text>
<text text-anchor="middle" x="246" y="-7" font-family="Helvetica,sans-Serif" font-size="10.00">Viewport::renderTarget</text>
</a>
</g>
</g>
<!-- Node1&#45;&gt;Node1 -->
<g id="edge1_Node000001_Node000001" class="edge">
<title>Node1&#45;&gt;Node1</title>
<g id="a_edge1_Node000001_Node000001"><a xlink:title=" ">
<path fill="none" stroke="#63b8ff" d="M276.11,-40.6C271.99,-44.97 261.96,-48 246,-48 219.12,-48 209.05,-39.41 215.77,-30.28"/>
<polygon fill="#63b8ff" stroke="#63b8ff" points="279.61,-40.32 276.23,-30.28 272.61,-40.23 279.61,-40.32"/>
</a>
</g>
</g>
<!-- Node2 -->
<g id="Node000002" class="node">
<title>Node2</title>
<g id="a_Node000002"><a xlink:href="classhelios_1_1rendering_1_1Viewport.html#a9c8ed040c0e35728770ddd462860c5bc" target="_top" xlink:title="Sets the parent RenderTarget for this viewport and updates the CameraSceneNode and its associated Cam...">
<polygon fill="white" stroke="#666666" points="146,-30 0,-30 0,0 146,0 146,-30"/>
<text text-anchor="start" x="8" y="-18" font-family="Helvetica,sans-Serif" font-size="10.00">helios::rendering::</text>
<text text-anchor="middle" x="73" y="-7" font-family="Helvetica,sans-Serif" font-size="10.00">Viewport::setRenderTarget</text>
</a>
</g>
</g>
<!-- Node1&#45;&gt;Node2 -->
<g id="edge2_Node000001_Node000002" class="edge">
<title>Node1&#45;&gt;Node2</title>
<g id="a_edge2_Node000001_Node000002"><a xlink:title=" ">
<path fill="none" stroke="#63b8ff" d="M171.62,-15C163.18,-15 154.58,-15 146.16,-15"/>
<polygon fill="#63b8ff" stroke="#63b8ff" points="171.81,-18.5 181.81,-15 171.81,-11.5 171.81,-18.5"/>
</a>
</g>
</g>
<!-- Node2&#45;&gt;Node2 -->
<g id="edge3_Node000002_Node000002" class="edge">
<title>Node2&#45;&gt;Node2</title>
<g id="a_edge3_Node000002_Node000002"><a xlink:title=" ">
<path fill="none" stroke="#63b8ff" d="M103.11,-40.6C98.99,-44.97 88.96,-48 73,-48 46.12,-48 36.05,-39.41 42.77,-30.28"/>
<polygon fill="#63b8ff" stroke="#63b8ff" points="106.61,-40.32 103.23,-30.28 99.61,-40.23 106.61,-40.32"/>
</a>
</g>
</g>
</g>
</svg>
