<?xml version="1.0" encoding="UTF-8" standalone="no"?>
<!DOCTYPE svg PUBLIC "-//W3C//DTD SVG 1.1//EN"
 "http://www.w3.org/Graphics/SVG/1.1/DTD/svg11.dtd">
<!-- Generated by graphviz version 2.43.0 (0)
 -->
<!-- Title: helios::engine::game::GameObject::setScale Pages: 1 -->
<svg width="325pt" height="56pt"
 viewBox="0.00 0.00 325.00 56.00" xmlns="http://www.w3.org/2000/svg" xmlns:xlink="http://www.w3.org/1999/xlink">
<g id="graph0" class="graph" transform="scale(1 1) rotate(0) translate(4 52)">
<title>helios::engine::game::GameObject::setScale</title>
<!-- Node1 -->
<g id="Node000001" class="node">
<title>Node1</title>
<g id="a_Node000001"><a xlink:title="Applies a scaling transformation to the GameObject.">
<polygon fill="#999999" stroke="#666666" points="131,-30 0,-30 0,0 131,0 131,-30"/>
<text text-anchor="start" x="8" y="-18" font-family="Helvetica,sans-Serif" font-size="10.00">helios::engine::game</text>
<text text-anchor="middle" x="65.5" y="-7" font-family="Helvetica,sans-Serif" font-size="10.00">::GameObject::setScale</text>
</a>
</g>
</g>
<!-- Node1&#45;&gt;Node1 -->
<g id="edge2_Node000001_Node000001" class="edge">
<title>Node1&#45;&gt;Node1</title>
<g id="a_edge2_Node000001_Node000001"><a xlink:title=" ">
<path fill="none" stroke="#63b8ff" d="M34.56,-30.28C27.69,-39.41 38,-48 65.5,-48 81.83,-48 92.1,-44.97 96.31,-40.6"/>
<polygon fill="#63b8ff" stroke="#63b8ff" points="99.81,-40.32 96.44,-30.28 92.81,-40.23 99.81,-40.32"/>
</a>
</g>
</g>
<!-- Node2 -->
<g id="Node000002" class="node">
<title>Node2</title>
<g id="a_Node000002"><a xlink:href="classhelios_1_1engine_1_1game_1_1GameObject.html#ad2ffd483600955f8c93b905387d4e9dc" target="_top" xlink:title="Constructs a GameObject associated with a SceneNode.">
<polygon fill="white" stroke="#666666" points="317,-30 167,-30 167,0 317,0 317,-30"/>
<text text-anchor="start" x="175" y="-18" font-family="Helvetica,sans-Serif" font-size="10.00">helios::engine::game</text>
<text text-anchor="middle" x="242" y="-7" font-family="Helvetica,sans-Serif" font-size="10.00">::GameObject::GameObject</text>
</a>
</g>
</g>
<!-- Node1&#45;&gt;Node2 -->
<g id="edge1_Node000001_Node000002" class="edge">
<title>Node1&#45;&gt;Node2</title>
<g id="a_edge1_Node000001_Node000002"><a xlink:title=" ">
<path fill="none" stroke="#63b8ff" d="M131.48,-15C139.68,-15 148.15,-15 156.6,-15"/>
<polygon fill="#63b8ff" stroke="#63b8ff" points="156.86,-18.5 166.86,-15 156.86,-11.5 156.86,-18.5"/>
</a>
</g>
</g>
</g>
</svg>
