<?xml version="1.0" encoding="UTF-8" standalone="no"?>
<!DOCTYPE svg PUBLIC "-//W3C//DTD SVG 1.1//EN"
 "http://www.w3.org/Graphics/SVG/1.1/DTD/svg11.dtd">
<!-- Generated by graphviz version 2.43.0 (0)
 -->
<!-- Title: helios::ext::glfw::window::GLFWWindow Pages: 1 -->
<svg width="142pt" height="177pt"
 viewBox="0.00 0.00 142.00 177.00" xmlns="http://www.w3.org/2000/svg" xmlns:xlink="http://www.w3.org/1999/xlink">
<g id="graph0" class="graph" transform="scale(1 1) rotate(0) translate(4 173)">
<title>helios::ext::glfw::window::GLFWWindow</title>
<!-- Node1 -->
<g id="Node000001" class="node">
<title>Node1</title>
<g id="a_Node000001"><a xlink:title="An OpenGL focused window implementation using GLFW.">
<polygon fill="#999999" stroke="#666666" points="130.5,-30 3.5,-30 3.5,0 130.5,0 130.5,-30"/>
<text text-anchor="start" x="11.5" y="-18" font-family="Helvetica,sans-Serif" font-size="10.00">helios::ext::glfw::</text>
<text text-anchor="middle" x="67" y="-7" font-family="Helvetica,sans-Serif" font-size="10.00">window::GLFWWindow</text>
</a>
</g>
</g>
<!-- Node2 -->
<g id="Node000002" class="node">
<title>Node2</title>
<g id="a_Node000002"><a xlink:href="classhelios_1_1window_1_1Window.html" target="_top" xlink:title="Abstract base class representing a generic window.">
<polygon fill="white" stroke="#666666" points="134,-86 0,-86 0,-67 134,-67 134,-86"/>
<text text-anchor="middle" x="67" y="-74" font-family="Helvetica,sans-Serif" font-size="10.00">helios::window::Window</text>
</a>
</g>
</g>
<!-- Node2&#45;&gt;Node1 -->
<g id="edge1_Node000001_Node000002" class="edge">
<title>Node2&#45;&gt;Node1</title>
<g id="a_edge1_Node000001_Node000002"><a xlink:title=" ">
<path fill="none" stroke="#63b8ff" d="M67,-56.73C67,-48.09 67,-38 67,-30.02"/>
<polygon fill="#63b8ff" stroke="#63b8ff" points="63.5,-56.98 67,-66.98 70.5,-56.98 63.5,-56.98"/>
</a>
</g>
</g>
<!-- Node3 -->
<g id="Node000003" class="node">
<title>Node3</title>
<g id="a_Node000003"><a xlink:href="classhelios_1_1util_1_1log_1_1Logger.html" target="_top" xlink:title="Logger implementation with configurable output sinks.">
<polygon fill="white" stroke="#666666" points="114.5,-169 19.5,-169 19.5,-139 114.5,-139 114.5,-169"/>
<text text-anchor="start" x="27.5" y="-157" font-family="Helvetica,sans-Serif" font-size="10.00">helios::util::log::</text>
<text text-anchor="middle" x="67" y="-146" font-family="Helvetica,sans-Serif" font-size="10.00">Logger</text>
</a>
</g>
</g>
<!-- Node3&#45;&gt;Node2 -->
<g id="edge2_Node000002_Node000003" class="edge">
<title>Node3&#45;&gt;Node2</title>
<g id="a_edge2_Node000002_Node000003"><a xlink:title=" ">
<path fill="none" stroke="#9a32cd" stroke-dasharray="5,2" d="M67,-128.4C67,-113.81 67,-96.22 67,-86.01"/>
<polygon fill="#9a32cd" stroke="#9a32cd" points="63.5,-128.8 67,-138.8 70.5,-128.8 63.5,-128.8"/>
</a>
</g>
<text text-anchor="start" x="70.5" y="-109.5" font-family="Helvetica,sans-Serif" font-size="10.00" fill="grey">logger_</text>
</g>
</g>
</svg>
