<?xml version="1.0" encoding="UTF-8" standalone="no"?>
<!DOCTYPE svg PUBLIC "-//W3C//DTD SVG 1.1//EN"
 "http://www.w3.org/Graphics/SVG/1.1/DTD/svg11.dtd">
<!-- Generated by graphviz version 2.43.0 (0)
 -->
<!-- Title: helios::app::controller::WindowRenderingController Pages: 1 -->
<svg width="244pt" height="121pt"
 viewBox="0.00 0.00 243.50 121.00" xmlns="http://www.w3.org/2000/svg" xmlns:xlink="http://www.w3.org/1999/xlink">
<g id="graph0" class="graph" transform="scale(1 1) rotate(0) translate(4 117)">
<title>helios::app::controller::WindowRenderingController</title>
<!-- Node1 -->
<g id="Node000001" class="node">
<title>Node1</title>
<g id="a_Node000001"><a xlink:title="Abstract base controller for handling window related events.">
<polygon fill="#999999" stroke="#666666" points="203.5,-30 44.5,-30 44.5,0 203.5,0 203.5,-30"/>
<text text-anchor="start" x="52.5" y="-18" font-family="Helvetica,sans-Serif" font-size="10.00">helios::app::controller</text>
<text text-anchor="middle" x="124" y="-7" font-family="Helvetica,sans-Serif" font-size="10.00">::WindowRenderingController</text>
</a>
</g>
</g>
<!-- Node2 -->
<g id="Node000002" class="node">
<title>Node2</title>
<g id="a_Node000002"><a xlink:href="classhelios_1_1app_1_1controller_1_1Controller.html" target="_top" xlink:title="Abstract base class for application controllers.">
<polygon fill="white" stroke="#666666" points="122,-113 0,-113 0,-83 122,-83 122,-113"/>
<text text-anchor="start" x="8" y="-101" font-family="Helvetica,sans-Serif" font-size="10.00">helios::app::controller</text>
<text text-anchor="middle" x="61" y="-90" font-family="Helvetica,sans-Serif" font-size="10.00">::Controller</text>
</a>
</g>
</g>
<!-- Node2&#45;&gt;Node1 -->
<g id="edge1_Node000001_Node000002" class="edge">
<title>Node2&#45;&gt;Node1</title>
<g id="a_edge1_Node000001_Node000002"><a xlink:title=" ">
<path fill="none" stroke="#63b8ff" d="M78.41,-74.62C89.45,-60.43 103.4,-42.49 112.94,-30.22"/>
<polygon fill="#63b8ff" stroke="#63b8ff" points="75.35,-72.85 71.97,-82.89 80.88,-77.15 75.35,-72.85"/>
</a>
</g>
</g>
<!-- Node3 -->
<g id="Node000003" class="node">
<title>Node3</title>
<g id="a_Node000003"><a xlink:href="classhelios_1_1util_1_1log_1_1Logger.html" target="_top" xlink:title="Logger implementation with configurable output sinks.">
<polygon fill="white" stroke="#666666" points="235.5,-113 140.5,-113 140.5,-83 235.5,-83 235.5,-113"/>
<text text-anchor="start" x="148.5" y="-101" font-family="Helvetica,sans-Serif" font-size="10.00">helios::util::log::</text>
<text text-anchor="middle" x="188" y="-90" font-family="Helvetica,sans-Serif" font-size="10.00">Logger</text>
</a>
</g>
</g>
<!-- Node3&#45;&gt;Node1 -->
<g id="edge2_Node000001_Node000003" class="edge">
<title>Node3&#45;&gt;Node1</title>
<g id="a_edge2_Node000001_Node000003"><a xlink:title=" ">
<path fill="none" stroke="#9a32cd" stroke-dasharray="5,2" d="M170.63,-75.02C159.37,-60.76 145.02,-42.61 135.23,-30.22"/>
<polygon fill="#9a32cd" stroke="#9a32cd" points="167.91,-77.21 176.85,-82.89 173.4,-72.87 167.91,-77.21"/>
</a>
</g>
<text text-anchor="start" x="164.5" y="-53.5" font-family="Helvetica,sans-Serif" font-size="10.00" fill="grey">logger_</text>
</g>
</g>
</svg>
