<?xml version="1.0" encoding="UTF-8" standalone="no"?>
<!DOCTYPE svg PUBLIC "-//W3C//DTD SVG 1.1//EN"
 "http://www.w3.org/Graphics/SVG/1.1/DTD/svg11.dtd">
<!-- Generated by graphviz version 2.43.0 (0)
 -->
<!-- Title: helios::input::gamepad::GamepadSettings::GamepadSettings Pages: 1 -->
<svg width="431pt" height="323pt"
 viewBox="0.00 0.00 431.00 322.50" xmlns="http://www.w3.org/2000/svg" xmlns:xlink="http://www.w3.org/1999/xlink">

<svg id="main" version="1.1" xmlns="http://www.w3.org/2000/svg" xmlns:xlink="http://www.w3.org/1999/xlink" xml:space="preserve">

<style type="text/css"><![CDATA[
.node, .edge {opacity: 0.7;}
.node.selected, .edge.selected {opacity: 1;}
.edge:hover path { stroke: red; }
.edge:hover polygon { stroke: red; fill: red; }
]]></style>
<script type="application/ecmascript" xlink:href="svg.min.js"/>
<svg id="graph" class="graph">
<g id="graph0" class="graph" transform="scale(1 1) rotate(0) translate(4 318.5)">
<title>helios::input::gamepad::GamepadSettings::GamepadSettings</title>
<!-- Node1 -->
<g id="Node000001" class="node">
<title>Node1</title>
<g id="a_Node000001"><a xlink:title="Default constructor with zero deadzone and no axis inversion.">
<polygon fill="#999999" stroke="#666666" points="423,-182.5 220,-182.5 220,-152.5 423,-152.5 423,-182.5"/>
<text text-anchor="start" x="228" y="-170.5" font-family="Helvetica,sans-Serif" font-size="10.00">helios::input::gamepad</text>
<text text-anchor="middle" x="321.5" y="-159.5" font-family="Helvetica,sans-Serif" font-size="10.00">::GamepadSettings::GamepadSettings</text>
</a>
</g>
</g>
<!-- Node2 -->
<g id="Node000002" class="node">
<title>Node2</title>
<g id="a_Node000002"><a xlink:href="classhelios_1_1input_1_1gamepad_1_1GamepadSettings.html#af5ac72dc6b04400f79bc7fab851c0d02" target="_top" xlink:title="Sets whether the left stick&#39;s X&#45;axis should be inverted.">
<polygon fill="white" stroke="#666666" points="184,-314.5 0,-314.5 0,-284.5 184,-284.5 184,-314.5"/>
<text text-anchor="start" x="8" y="-302.5" font-family="Helvetica,sans-Serif" font-size="10.00">helios::input::gamepad</text>
<text text-anchor="middle" x="92" y="-291.5" font-family="Helvetica,sans-Serif" font-size="10.00">::GamepadSettings::setInvertLeftX</text>
</a>
</g>
</g>
<!-- Node1&#45;&gt;Node2 -->
<g id="edge1_Node000001_Node000002" class="edge">
<title>Node1&#45;&gt;Node2</title>
<g id="a_edge1_Node000001_Node000002"><a xlink:title=" ">
<path fill="none" stroke="#63b8ff" d="M298.31,-189.91C272.86,-214.39 228.83,-253.09 184,-275.5 177.13,-278.93 169.72,-281.92 162.19,-284.5"/>
<polygon fill="#63b8ff" stroke="#63b8ff" points="300.88,-192.29 305.6,-182.8 296,-187.28 300.88,-192.29"/>
</a>
</g>
</g>
<!-- Node3 -->
<g id="Node000003" class="node">
<title>Node3</title>
<g id="a_Node000003"><a xlink:href="classhelios_1_1input_1_1gamepad_1_1GamepadSettings.html#aeeb056d8dcc5c7007e3a1dd542c4ddea" target="_top" xlink:title="Sets whether the left stick&#39;s Y&#45;axis should be inverted.">
<polygon fill="white" stroke="#666666" points="183.5,-266.5 0.5,-266.5 0.5,-236.5 183.5,-236.5 183.5,-266.5"/>
<text text-anchor="start" x="8.5" y="-254.5" font-family="Helvetica,sans-Serif" font-size="10.00">helios::input::gamepad</text>
<text text-anchor="middle" x="92" y="-243.5" font-family="Helvetica,sans-Serif" font-size="10.00">::GamepadSettings::setInvertLeftY</text>
</a>
</g>
</g>
<!-- Node1&#45;&gt;Node3 -->
<g id="edge2_Node000001_Node000003" class="edge">
<title>Node1&#45;&gt;Node3</title>
<g id="a_edge2_Node000001_Node000003"><a xlink:title=" ">
<path fill="none" stroke="#63b8ff" d="M280.8,-186.92C253.91,-199.58 217.34,-215.86 184,-227.5 174.9,-230.68 165.16,-233.67 155.56,-236.38"/>
<polygon fill="#63b8ff" stroke="#63b8ff" points="282.35,-190.06 289.88,-182.61 279.35,-183.74 282.35,-190.06"/>
</a>
</g>
</g>
<!-- Node4 -->
<g id="Node000004" class="node">
<title>Node4</title>
<g id="a_Node000004"><a xlink:href="classhelios_1_1input_1_1gamepad_1_1GamepadSettings.html#af93e6e1d89959cc5e75a690106067bbb" target="_top" xlink:title="Sets whether the right stick&#39;s X&#45;axis should be inverted.">
<polygon fill="white" stroke="#666666" points="171.5,-218 12.5,-218 12.5,-177 171.5,-177 171.5,-218"/>
<text text-anchor="start" x="20.5" y="-206" font-family="Helvetica,sans-Serif" font-size="10.00">helios::input::gamepad</text>
<text text-anchor="start" x="20.5" y="-195" font-family="Helvetica,sans-Serif" font-size="10.00">::GamepadSettings::setInvert</text>
<text text-anchor="middle" x="92" y="-184" font-family="Helvetica,sans-Serif" font-size="10.00">RightX</text>
</a>
</g>
</g>
<!-- Node1&#45;&gt;Node4 -->
<g id="edge3_Node000001_Node000004" class="edge">
<title>Node1&#45;&gt;Node4</title>
<g id="a_edge3_Node000001_Node000004"><a xlink:title=" ">
<path fill="none" stroke="#63b8ff" d="M209.53,-182.13C196.8,-183.81 184.03,-185.5 171.84,-187.1"/>
<polygon fill="#63b8ff" stroke="#63b8ff" points="210.27,-185.57 219.72,-180.79 209.35,-178.63 210.27,-185.57"/>
</a>
</g>
</g>
<!-- Node5 -->
<g id="Node000005" class="node">
<title>Node5</title>
<g id="a_Node000005"><a xlink:href="classhelios_1_1input_1_1gamepad_1_1GamepadSettings.html#a43ef8d4468525f7668cfeb3507b94cc0" target="_top" xlink:title="Sets whether the right stick&#39;s Y&#45;axis should be inverted.">
<polygon fill="white" stroke="#666666" points="171.5,-159 12.5,-159 12.5,-118 171.5,-118 171.5,-159"/>
<text text-anchor="start" x="20.5" y="-147" font-family="Helvetica,sans-Serif" font-size="10.00">helios::input::gamepad</text>
<text text-anchor="start" x="20.5" y="-136" font-family="Helvetica,sans-Serif" font-size="10.00">::GamepadSettings::setInvert</text>
<text text-anchor="middle" x="92" y="-125" font-family="Helvetica,sans-Serif" font-size="10.00">RightY</text>
</a>
</g>
</g>
<!-- Node1&#45;&gt;Node5 -->
<g id="edge4_Node000001_Node000005" class="edge">
<title>Node1&#45;&gt;Node5</title>
<g id="a_edge4_Node000001_Node000005"><a xlink:title=" ">
<path fill="none" stroke="#63b8ff" d="M209.53,-153.35C196.8,-151.73 184.03,-150.1 171.84,-148.55"/>
<polygon fill="#63b8ff" stroke="#63b8ff" points="209.36,-156.86 219.72,-154.65 210.24,-149.92 209.36,-156.86"/>
</a>
</g>
</g>
<!-- Node6 -->
<g id="Node000006" class="node">
<title>Node6</title>
<g id="a_Node000006"><a xlink:href="classhelios_1_1input_1_1gamepad_1_1GamepadSettings.html#a293b6bf5db21ef05a729d6ae8b7d9cf6" target="_top" xlink:title="Sets the deadzone threshold for the left analog stick.">
<polygon fill="white" stroke="#666666" points="178.5,-100 5.5,-100 5.5,-59 178.5,-59 178.5,-100"/>
<text text-anchor="start" x="13.5" y="-88" font-family="Helvetica,sans-Serif" font-size="10.00">helios::input::gamepad</text>
<text text-anchor="start" x="13.5" y="-77" font-family="Helvetica,sans-Serif" font-size="10.00">::GamepadSettings::setLeftStick</text>
<text text-anchor="middle" x="92" y="-66" font-family="Helvetica,sans-Serif" font-size="10.00">Deadzone</text>
</a>
</g>
</g>
<!-- Node1&#45;&gt;Node6 -->
<g id="edge5_Node000001_Node000006" class="edge">
<title>Node1&#45;&gt;Node6</title>
<g id="a_edge5_Node000001_Node000006"><a xlink:title=" ">
<path fill="none" stroke="#63b8ff" d="M277.72,-148.24C251,-136.48 215.76,-121.46 184,-109.5 175.59,-106.33 166.68,-103.17 157.86,-100.15"/>
<polygon fill="#63b8ff" stroke="#63b8ff" points="276.6,-151.57 287.16,-152.41 279.43,-145.17 276.6,-151.57"/>
</a>
</g>
</g>
<!-- Node7 -->
<g id="Node000007" class="node">
<title>Node7</title>
<g id="a_Node000007"><a xlink:href="classhelios_1_1input_1_1gamepad_1_1GamepadSettings.html#a28cfbd69d43a587eaebf11b504800e10" target="_top" xlink:title="Sets the deadzone threshold for the right analog stick.">
<polygon fill="white" stroke="#666666" points="182,-41 2,-41 2,0 182,0 182,-41"/>
<text text-anchor="start" x="10" y="-29" font-family="Helvetica,sans-Serif" font-size="10.00">helios::input::gamepad</text>
<text text-anchor="start" x="10" y="-18" font-family="Helvetica,sans-Serif" font-size="10.00">::GamepadSettings::setRightStick</text>
<text text-anchor="middle" x="92" y="-7" font-family="Helvetica,sans-Serif" font-size="10.00">Deadzone</text>
</a>
</g>
</g>
<!-- Node1&#45;&gt;Node7 -->
<g id="edge6_Node000001_Node000007" class="edge">
<title>Node1&#45;&gt;Node7</title>
<g id="a_edge6_Node000001_Node000007"><a xlink:title=" ">
<path fill="none" stroke="#63b8ff" d="M299.64,-144.92C274.48,-118.88 229.83,-76.35 184,-50.5 177.91,-47.07 171.38,-43.95 164.7,-41.15"/>
<polygon fill="#63b8ff" stroke="#63b8ff" points="297.37,-147.61 306.81,-152.44 302.44,-142.78 297.37,-147.61"/>
</a>
</g>
</g>
</g>
</svg>
</svg>

<style type='text/css'>
<![CDATA[
[data-mouse-over-selected='false'] { opacity: 0.7; }
[data-mouse-over-selected='true']  { opacity: 1.0; }
]]>
</style>
<script type="application/ecmascript"><![CDATA[
document.addEventListener('DOMContentLoaded', (event) => {
  highlightEdges();
  highlightAdjacentNodes();
});
]]></script>
</svg>
