<?xml version="1.0" encoding="UTF-8" standalone="no"?>
<!DOCTYPE svg PUBLIC "-//W3C//DTD SVG 1.1//EN"
 "http://www.w3.org/Graphics/SVG/1.1/DTD/svg11.dtd">
<!-- Generated by graphviz version 2.43.0 (0)
 -->
<!-- Title: helios::engine::game::Command Pages: 1 -->
<svg width="336pt" height="134pt"
 viewBox="0.00 0.00 336.00 134.00" xmlns="http://www.w3.org/2000/svg" xmlns:xlink="http://www.w3.org/1999/xlink">
<g id="graph0" class="graph" transform="scale(1 1) rotate(0) translate(4 130)">
<title>helios::engine::game::Command</title>
<!-- Node1 -->
<g id="Node000001" class="node">
<title>Node1</title>
<g id="a_Node000001"><a xlink:title="Abstract base class for encapsulating game actions as executable commands.">
<polygon fill="#999999" stroke="#666666" points="119,-78 0,-78 0,-48 119,-48 119,-78"/>
<text text-anchor="start" x="8" y="-66" font-family="Helvetica,sans-Serif" font-size="10.00">helios::engine::game</text>
<text text-anchor="middle" x="59.5" y="-55" font-family="Helvetica,sans-Serif" font-size="10.00">::Command</text>
</a>
</g>
</g>
<!-- Node2 -->
<g id="Node000002" class="node">
<title>Node2</title>
<g id="a_Node000002"><a xlink:href="classhelios_1_1engine_1_1game_1_1commands_1_1Aim2DCommand.html" target="_top" xlink:title="Command that applies 2D aiming direction to a GameObject.">
<polygon fill="white" stroke="#666666" points="324.5,-126 158.5,-126 158.5,-96 324.5,-96 324.5,-126"/>
<text text-anchor="start" x="166.5" y="-114" font-family="Helvetica,sans-Serif" font-size="10.00">helios::engine::game</text>
<text text-anchor="middle" x="241.5" y="-103" font-family="Helvetica,sans-Serif" font-size="10.00">::commands::Aim2DCommand</text>
</a>
</g>
</g>
<!-- Node1&#45;&gt;Node2 -->
<g id="edge1_Node000001_Node000002" class="edge">
<title>Node1&#45;&gt;Node2</title>
<g id="a_edge1_Node000001_Node000002"><a xlink:title=" ">
<path fill="none" stroke="#63b8ff" d="M126.69,-80.65C145.59,-85.69 165.99,-91.13 184.24,-96"/>
<polygon fill="#63b8ff" stroke="#63b8ff" points="127.52,-77.25 116.96,-78.06 125.72,-84.01 127.52,-77.25"/>
</a>
</g>
</g>
<!-- Node3 -->
<g id="Node000003" class="node">
<title>Node3</title>
<g id="a_Node000003"><a xlink:href="classhelios_1_1engine_1_1game_1_1commands_1_1Move2DCommand.html" target="_top" xlink:title="Command that applies 2D directional movement to a GameObject.">
<polygon fill="white" stroke="#666666" points="328,-78 155,-78 155,-48 328,-48 328,-78"/>
<text text-anchor="start" x="163" y="-66" font-family="Helvetica,sans-Serif" font-size="10.00">helios::engine::game</text>
<text text-anchor="middle" x="241.5" y="-55" font-family="Helvetica,sans-Serif" font-size="10.00">::commands::Move2DCommand</text>
</a>
</g>
</g>
<!-- Node1&#45;&gt;Node3 -->
<g id="edge2_Node000001_Node000003" class="edge">
<title>Node1&#45;&gt;Node3</title>
<g id="a_edge2_Node000001_Node000003"><a xlink:title=" ">
<path fill="none" stroke="#63b8ff" d="M129.48,-63C137.83,-63 146.43,-63 154.98,-63"/>
<polygon fill="#63b8ff" stroke="#63b8ff" points="129.44,-59.5 119.44,-63 129.44,-66.5 129.44,-59.5"/>
</a>
</g>
</g>
<!-- Node4 -->
<g id="Node000004" class="node">
<title>Node4</title>
<g id="a_Node000004"><a xlink:href="classhelios_1_1engine_1_1game_1_1commands_1_1ShootCommand.html" target="_top" xlink:title="Command that triggers a shooting action on a GameObject.">
<polygon fill="white" stroke="#666666" points="322,-30 161,-30 161,0 322,0 322,-30"/>
<text text-anchor="start" x="169" y="-18" font-family="Helvetica,sans-Serif" font-size="10.00">helios::engine::game</text>
<text text-anchor="middle" x="241.5" y="-7" font-family="Helvetica,sans-Serif" font-size="10.00">::commands::ShootCommand</text>
</a>
</g>
</g>
<!-- Node1&#45;&gt;Node4 -->
<g id="edge3_Node000001_Node000004" class="edge">
<title>Node1&#45;&gt;Node4</title>
<g id="a_edge3_Node000001_Node000004"><a xlink:title=" ">
<path fill="none" stroke="#63b8ff" d="M126.69,-45.35C145.59,-40.31 165.99,-34.87 184.24,-30"/>
<polygon fill="#63b8ff" stroke="#63b8ff" points="125.72,-41.99 116.96,-47.94 127.52,-48.75 125.72,-41.99"/>
</a>
</g>
</g>
</g>
</svg>
