<?xml version="1.0" encoding="UTF-8" standalone="no"?>
<!DOCTYPE svg PUBLIC "-//W3C//DTD SVG 1.1//EN"
 "http://www.w3.org/Graphics/SVG/1.1/DTD/svg11.dtd">
<!-- Generated by graphviz version 2.43.0 (0)
 -->
<!-- Title: helios::engine::game::Updatable Pages: 1 -->
<svg width="532pt" height="441pt"
 viewBox="0.00 0.00 532.00 441.00" xmlns="http://www.w3.org/2000/svg" xmlns:xlink="http://www.w3.org/1999/xlink">
<g id="graph0" class="graph" transform="scale(1 1) rotate(0) translate(4 437)">
<title>helios::engine::game::Updatable</title>
<!-- Node1 -->
<g id="Node000001" class="node">
<title>Node1</title>
<g id="a_Node000001"><a xlink:title="Interface for components that require per&#45;frame updates.">
<polygon fill="#999999" stroke="#666666" points="119,-177.5 0,-177.5 0,-147.5 119,-147.5 119,-177.5"/>
<text text-anchor="start" x="8" y="-165.5" font-family="Helvetica,sans-Serif" font-size="10.00">helios::engine::game</text>
<text text-anchor="middle" x="59.5" y="-154.5" font-family="Helvetica,sans-Serif" font-size="10.00">::Updatable</text>
</a>
</g>
</g>
<!-- Node2 -->
<g id="Node000002" class="node">
<title>Node2</title>
<g id="a_Node000002"><a xlink:href="classhelios_1_1engine_1_1game_1_1System.html" target="_top" xlink:title="Abstract base class for game systems.">
<polygon fill="white" stroke="#666666" points="286,-231.5 167,-231.5 167,-201.5 286,-201.5 286,-231.5"/>
<text text-anchor="start" x="175" y="-219.5" font-family="Helvetica,sans-Serif" font-size="10.00">helios::engine::game</text>
<text text-anchor="middle" x="226.5" y="-208.5" font-family="Helvetica,sans-Serif" font-size="10.00">::System</text>
</a>
</g>
</g>
<!-- Node1&#45;&gt;Node2 -->
<g id="edge1_Node000001_Node000002" class="edge">
<title>Node1&#45;&gt;Node2</title>
<g id="a_edge1_Node000001_Node000002"><a xlink:title=" ">
<path fill="none" stroke="#63b8ff" d="M116.05,-180.68C136.67,-187.43 159.82,-195 179.5,-201.45"/>
<polygon fill="#63b8ff" stroke="#63b8ff" points="117.05,-177.33 106.46,-177.54 114.88,-183.98 117.05,-177.33"/>
</a>
</g>
</g>
<!-- Node11 -->
<g id="Node000011" class="node">
<title>Node11</title>
<g id="a_Node000011"><a xlink:href="classhelios_1_1engine_1_1game_1_1components_1_1gameplay_1_1ShootComponent.html" target="_top" xlink:title="Component for handling projectile shooting with rate limiting.">
<polygon fill="white" stroke="#666666" points="295,-183 158,-183 158,-142 295,-142 295,-183"/>
<text text-anchor="start" x="166" y="-171" font-family="Helvetica,sans-Serif" font-size="10.00">helios::engine::game</text>
<text text-anchor="start" x="166" y="-160" font-family="Helvetica,sans-Serif" font-size="10.00">::components::gameplay</text>
<text text-anchor="middle" x="226.5" y="-149" font-family="Helvetica,sans-Serif" font-size="10.00">::ShootComponent</text>
</a>
</g>
</g>
<!-- Node1&#45;&gt;Node11 -->
<g id="edge10_Node000001_Node000011" class="edge">
<title>Node1&#45;&gt;Node11</title>
<g id="a_edge10_Node000001_Node000011"><a xlink:title=" ">
<path fill="none" stroke="#63b8ff" d="M129.25,-162.5C138.68,-162.5 148.35,-162.5 157.76,-162.5"/>
<polygon fill="#63b8ff" stroke="#63b8ff" points="129.14,-159 119.14,-162.5 129.14,-166 129.14,-159"/>
</a>
</g>
</g>
<!-- Node12 -->
<g id="Node000012" class="node">
<title>Node12</title>
<g id="a_Node000012"><a xlink:href="classhelios_1_1engine_1_1game_1_1components_1_1input_1_1TwinStickInputComponent.html" target="_top" xlink:title="Input component for twin&#45;stick gamepad control schemes.">
<polygon fill="white" stroke="#666666" points="298,-124 155,-124 155,-83 298,-83 298,-124"/>
<text text-anchor="start" x="163" y="-112" font-family="Helvetica,sans-Serif" font-size="10.00">helios::engine::game</text>
<text text-anchor="start" x="163" y="-101" font-family="Helvetica,sans-Serif" font-size="10.00">::components::input::</text>
<text text-anchor="middle" x="226.5" y="-90" font-family="Helvetica,sans-Serif" font-size="10.00">TwinStickInputComponent</text>
</a>
</g>
</g>
<!-- Node1&#45;&gt;Node12 -->
<g id="edge11_Node000001_Node000012" class="edge">
<title>Node1&#45;&gt;Node12</title>
<g id="a_edge11_Node000001_Node000012"><a xlink:title=" ">
<path fill="none" stroke="#63b8ff" d="M112.15,-144.03C129.87,-137.7 149.8,-130.57 167.95,-124.08"/>
<polygon fill="#63b8ff" stroke="#63b8ff" points="110.8,-140.8 102.56,-147.46 113.16,-147.39 110.8,-140.8"/>
</a>
</g>
</g>
<!-- Node3 -->
<g id="Node000003" class="node">
<title>Node3</title>
<g id="a_Node000003"><a xlink:href="classhelios_1_1engine_1_1game_1_1systems_1_1gameplay_1_1ProjectilePoolSystem.html" target="_top" xlink:title="Object pool system for efficient projectile spawning and lifecycle management.">
<polygon fill="white" stroke="#666666" points="491,-433 367,-433 367,-392 491,-392 491,-433"/>
<text text-anchor="start" x="375" y="-421" font-family="Helvetica,sans-Serif" font-size="10.00">helios::engine::game</text>
<text text-anchor="start" x="375" y="-410" font-family="Helvetica,sans-Serif" font-size="10.00">::systems::gameplay::</text>
<text text-anchor="middle" x="429" y="-399" font-family="Helvetica,sans-Serif" font-size="10.00">ProjectilePoolSystem</text>
</a>
</g>
</g>
<!-- Node2&#45;&gt;Node3 -->
<g id="edge2_Node000002_Node000003" class="edge">
<title>Node2&#45;&gt;Node3</title>
<g id="a_edge2_Node000002_Node000003"><a xlink:title=" ">
<path fill="none" stroke="#63b8ff" d="M236.82,-241.4C251.76,-277.93 284.5,-345.78 334,-383.5 343.64,-390.85 355.17,-396.35 366.79,-400.47"/>
<polygon fill="#63b8ff" stroke="#63b8ff" points="240.03,-239.98 233.08,-231.98 233.52,-242.56 240.03,-239.98"/>
</a>
</g>
</g>
<!-- Node4 -->
<g id="Node000004" class="node">
<title>Node4</title>
<g id="a_Node000004"><a xlink:href="classhelios_1_1engine_1_1game_1_1systems_1_1physics_1_1BoundsUpdateSystem.html" target="_top" xlink:title="System that updates AABB colliders based on entity world transforms.">
<polygon fill="white" stroke="#666666" points="521,-374 337,-374 337,-333 521,-333 521,-374"/>
<text text-anchor="start" x="345" y="-362" font-family="Helvetica,sans-Serif" font-size="10.00">helios::engine::game</text>
<text text-anchor="start" x="345" y="-351" font-family="Helvetica,sans-Serif" font-size="10.00">::systems::physics::BoundsUpdate</text>
<text text-anchor="middle" x="429" y="-340" font-family="Helvetica,sans-Serif" font-size="10.00">System</text>
</a>
</g>
</g>
<!-- Node2&#45;&gt;Node4 -->
<g id="edge3_Node000002_Node000004" class="edge">
<title>Node2&#45;&gt;Node4</title>
<g id="a_edge3_Node000002_Node000004"><a xlink:title=" ">
<path fill="none" stroke="#63b8ff" d="M244.68,-239.77C263.88,-264.2 297.16,-302.12 334,-324.5 339.11,-327.6 344.58,-330.4 350.21,-332.92"/>
<polygon fill="#63b8ff" stroke="#63b8ff" points="247.37,-237.52 238.49,-231.73 241.82,-241.79 247.37,-237.52"/>
</a>
</g>
</g>
<!-- Node5 -->
<g id="Node000005" class="node">
<title>Node5</title>
<g id="a_Node000005"><a xlink:href="classhelios_1_1engine_1_1game_1_1systems_1_1physics_1_1LevelBoundsBehaviorSystem.html" target="_top" xlink:title="System that handles entity behavior when colliding with level boundaries.">
<polygon fill="white" stroke="#666666" points="516.5,-315 341.5,-315 341.5,-274 516.5,-274 516.5,-315"/>
<text text-anchor="start" x="349.5" y="-303" font-family="Helvetica,sans-Serif" font-size="10.00">helios::engine::game</text>
<text text-anchor="start" x="349.5" y="-292" font-family="Helvetica,sans-Serif" font-size="10.00">::systems::physics::LevelBounds</text>
<text text-anchor="middle" x="429" y="-281" font-family="Helvetica,sans-Serif" font-size="10.00">BehaviorSystem</text>
</a>
</g>
</g>
<!-- Node2&#45;&gt;Node5 -->
<g id="edge4_Node000002_Node000005" class="edge">
<title>Node2&#45;&gt;Node5</title>
<g id="a_edge4_Node000002_Node000005"><a xlink:title=" ">
<path fill="none" stroke="#63b8ff" d="M267.63,-235.9C287.39,-245.11 311.71,-255.95 334,-264.5 342.48,-267.75 351.47,-270.94 360.41,-273.96"/>
<polygon fill="#63b8ff" stroke="#63b8ff" points="268.86,-232.61 258.33,-231.52 265.89,-238.95 268.86,-232.61"/>
</a>
</g>
</g>
<!-- Node6 -->
<g id="Node000006" class="node">
<title>Node6</title>
<g id="a_Node000006"><a xlink:href="classhelios_1_1engine_1_1game_1_1systems_1_1physics_1_1Move2DSystem.html" target="_top" xlink:title="System that processes 2D movement and rotation for entities.">
<polygon fill="white" stroke="#666666" points="524,-255.5 334,-255.5 334,-225.5 524,-225.5 524,-255.5"/>
<text text-anchor="start" x="342" y="-243.5" font-family="Helvetica,sans-Serif" font-size="10.00">helios::engine::game</text>
<text text-anchor="middle" x="429" y="-232.5" font-family="Helvetica,sans-Serif" font-size="10.00">::systems::physics::Move2DSystem</text>
</a>
</g>
</g>
<!-- Node2&#45;&gt;Node6 -->
<g id="edge5_Node000002_Node000006" class="edge">
<title>Node2&#45;&gt;Node6</title>
<g id="a_edge5_Node000002_Node000006"><a xlink:title=" ">
<path fill="none" stroke="#63b8ff" d="M296.09,-224.71C308.29,-226.17 321.18,-227.71 333.93,-229.24"/>
<polygon fill="#63b8ff" stroke="#63b8ff" points="296.38,-221.22 286.03,-223.51 295.54,-228.17 296.38,-221.22"/>
</a>
</g>
</g>
<!-- Node7 -->
<g id="Node000007" class="node">
<title>Node7</title>
<g id="a_Node000007"><a xlink:href="classhelios_1_1engine_1_1game_1_1systems_1_1physics_1_1ScaleSystem.html" target="_top" xlink:title="System that applies scaling to entities based on their ScaleComponent.">
<polygon fill="white" stroke="#666666" points="517,-207.5 341,-207.5 341,-177.5 517,-177.5 517,-207.5"/>
<text text-anchor="start" x="349" y="-195.5" font-family="Helvetica,sans-Serif" font-size="10.00">helios::engine::game</text>
<text text-anchor="middle" x="429" y="-184.5" font-family="Helvetica,sans-Serif" font-size="10.00">::systems::physics::ScaleSystem</text>
</a>
</g>
</g>
<!-- Node2&#45;&gt;Node7 -->
<g id="edge6_Node000002_Node000007" class="edge">
<title>Node2&#45;&gt;Node7</title>
<g id="a_edge6_Node000002_Node000007"><a xlink:title=" ">
<path fill="none" stroke="#63b8ff" d="M296.26,-208.27C310.57,-206.56 325.83,-204.73 340.7,-202.95"/>
<polygon fill="#63b8ff" stroke="#63b8ff" points="295.54,-204.83 286.03,-209.49 296.38,-211.78 295.54,-204.83"/>
</a>
</g>
</g>
<!-- Node8 -->
<g id="Node000008" class="node">
<title>Node8</title>
<g id="a_Node000008"><a xlink:href="classhelios_1_1engine_1_1game_1_1systems_1_1post_1_1ScaleClearSystem.html" target="_top" xlink:title="System that clears the dirty state of ScaleComponents at the end of a frame.">
<polygon fill="white" stroke="#666666" points="503.5,-159 354.5,-159 354.5,-118 503.5,-118 503.5,-159"/>
<text text-anchor="start" x="362.5" y="-147" font-family="Helvetica,sans-Serif" font-size="10.00">helios::engine::game</text>
<text text-anchor="start" x="362.5" y="-136" font-family="Helvetica,sans-Serif" font-size="10.00">::systems::post::ScaleClear</text>
<text text-anchor="middle" x="429" y="-125" font-family="Helvetica,sans-Serif" font-size="10.00">System</text>
</a>
</g>
</g>
<!-- Node2&#45;&gt;Node8 -->
<g id="edge7_Node000002_Node000008" class="edge">
<title>Node2&#45;&gt;Node8</title>
<g id="a_edge7_Node000002_Node000008"><a xlink:title=" ">
<path fill="none" stroke="#63b8ff" d="M286.42,-197.74C290.39,-196.08 294.28,-194.33 298,-192.5 315.25,-184 316.67,-176.84 334,-168.5 341.1,-165.08 348.68,-161.93 356.35,-159.04"/>
<polygon fill="#63b8ff" stroke="#63b8ff" points="285.09,-194.51 277.09,-201.45 287.67,-201.01 285.09,-194.51"/>
</a>
</g>
</g>
<!-- Node9 -->
<g id="Node000009" class="node">
<title>Node9</title>
<g id="a_Node000009"><a xlink:href="classhelios_1_1engine_1_1game_1_1systems_1_1post_1_1TransformClearSystem.html" target="_top" xlink:title="System that clears the dirty state of TransformComponents at the end of a frame.">
<polygon fill="white" stroke="#666666" points="514.5,-100 343.5,-100 343.5,-59 514.5,-59 514.5,-100"/>
<text text-anchor="start" x="351.5" y="-88" font-family="Helvetica,sans-Serif" font-size="10.00">helios::engine::game</text>
<text text-anchor="start" x="351.5" y="-77" font-family="Helvetica,sans-Serif" font-size="10.00">::systems::post::TransformClear</text>
<text text-anchor="middle" x="429" y="-66" font-family="Helvetica,sans-Serif" font-size="10.00">System</text>
</a>
</g>
</g>
<!-- Node2&#45;&gt;Node9 -->
<g id="edge8_Node000002_Node000009" class="edge">
<title>Node2&#45;&gt;Node9</title>
<g id="a_edge8_Node000002_Node000009"><a xlink:title=" ">
<path fill="none" stroke="#63b8ff" d="M294.01,-195.86C295.39,-194.79 296.73,-193.67 298,-192.5 327.56,-165.24 304.18,-136.47 334,-109.5 337.94,-105.94 342.3,-102.8 346.93,-100.03"/>
<polygon fill="#63b8ff" stroke="#63b8ff" points="292.04,-192.96 285.6,-201.37 295.88,-198.81 292.04,-192.96"/>
</a>
</g>
</g>
<!-- Node10 -->
<g id="Node000010" class="node">
<title>Node10</title>
<g id="a_Node000010"><a xlink:href="classhelios_1_1engine_1_1game_1_1systems_1_1scene_1_1SceneSyncSystem.html" target="_top" xlink:title="System that synchronizes TransformComponents with SceneNodes.">
<polygon fill="white" stroke="#666666" points="507.5,-41 350.5,-41 350.5,0 507.5,0 507.5,-41"/>
<text text-anchor="start" x="358.5" y="-29" font-family="Helvetica,sans-Serif" font-size="10.00">helios::engine::game</text>
<text text-anchor="start" x="358.5" y="-18" font-family="Helvetica,sans-Serif" font-size="10.00">::systems::scene::SceneSync</text>
<text text-anchor="middle" x="429" y="-7" font-family="Helvetica,sans-Serif" font-size="10.00">System</text>
</a>
</g>
</g>
<!-- Node2&#45;&gt;Node10 -->
<g id="edge9_Node000002_Node000010" class="edge">
<title>Node2&#45;&gt;Node10</title>
<g id="a_edge9_Node000002_Node000010"><a xlink:title=" ">
<path fill="none" stroke="#63b8ff" d="M294.63,-195.81C295.81,-194.76 296.93,-193.66 298,-192.5 342.42,-144.31 288.89,-97.05 334,-49.5 338.7,-44.54 344.23,-40.43 350.21,-37.01"/>
<polygon fill="#63b8ff" stroke="#63b8ff" points="292.21,-193.25 286.22,-201.99 296.35,-198.89 292.21,-193.25"/>
</a>
</g>
</g>
</g>
</svg>
