<?xml version="1.0" encoding="UTF-8" standalone="no"?>
<!DOCTYPE svg PUBLIC "-//W3C//DTD SVG 1.1//EN"
 "http://www.w3.org/Graphics/SVG/1.1/DTD/svg11.dtd">
<!-- Generated by graphviz version 2.43.0 (0)
 -->
<!-- Title: helios::ext::opengl::rendering::shader::OpenGLShader::~OpenGLShader Pages: 1 -->
<svg width="398pt" height="67pt"
 viewBox="0.00 0.00 398.00 67.00" xmlns="http://www.w3.org/2000/svg" xmlns:xlink="http://www.w3.org/1999/xlink">
<g id="graph0" class="graph" transform="scale(1 1) rotate(0) translate(4 63)">
<title>helios::ext::opengl::rendering::shader::OpenGLShader::~OpenGLShader</title>
<!-- Node1 -->
<g id="Node000001" class="node">
<title>Node1</title>
<g id="a_Node000001"><a xlink:title="Deletes the program object upon destruction of this instance.">
<polygon fill="#999999" stroke="#666666" points="181,-41 0,-41 0,0 181,0 181,-41"/>
<text text-anchor="start" x="8" y="-29" font-family="Helvetica,sans-Serif" font-size="10.00">helios::ext::opengl</text>
<text text-anchor="start" x="8" y="-18" font-family="Helvetica,sans-Serif" font-size="10.00">::rendering::shader</text>
<text text-anchor="middle" x="90.5" y="-7" font-family="Helvetica,sans-Serif" font-size="10.00">::OpenGLShader::~OpenGLShader</text>
</a>
</g>
</g>
<!-- Node2 -->
<g id="Node000002" class="node">
<title>Node2</title>
<g id="a_Node000002"><a xlink:href="classhelios_1_1ext_1_1opengl_1_1rendering_1_1shader_1_1OpenGLShader.html#ad8d11452ce5d18c63378b2c11c12391c" target="_top" xlink:title="Rule of three.">
<polygon fill="white" stroke="#666666" points="390,-41 217,-41 217,0 390,0 390,-41"/>
<text text-anchor="start" x="225" y="-29" font-family="Helvetica,sans-Serif" font-size="10.00">helios::ext::opengl</text>
<text text-anchor="start" x="225" y="-18" font-family="Helvetica,sans-Serif" font-size="10.00">::rendering::shader</text>
<text text-anchor="middle" x="303.5" y="-7" font-family="Helvetica,sans-Serif" font-size="10.00">::OpenGLShader::OpenGLShader</text>
</a>
</g>
</g>
<!-- Node1&#45;&gt;Node2 -->
<g id="edge1_Node000001_Node000002" class="edge">
<title>Node1&#45;&gt;Node2</title>
<g id="a_edge1_Node000001_Node000002"><a xlink:title=" ">
<path fill="none" stroke="#63b8ff" d="M181.29,-20.5C189.66,-20.5 198.17,-20.5 206.6,-20.5"/>
<polygon fill="#63b8ff" stroke="#63b8ff" points="206.82,-24 216.82,-20.5 206.82,-17 206.82,-24"/>
</a>
</g>
</g>
<!-- Node2&#45;&gt;Node2 -->
<g id="edge2_Node000002_Node000002" class="edge">
<title>Node2&#45;&gt;Node2</title>
<g id="a_edge2_Node000002_Node000002"><a xlink:title=" ">
<path fill="none" stroke="#63b8ff" d="M264.54,-41.1C260.29,-50.65 273.27,-59 303.5,-59 322.39,-59 334.55,-55.74 339.97,-50.96"/>
<polygon fill="#63b8ff" stroke="#63b8ff" points="343.41,-51.65 342.46,-41.1 336.62,-49.94 343.41,-51.65"/>
</a>
</g>
</g>
</g>
</svg>
