<?xml version="1.0" encoding="UTF-8" standalone="no"?>
<!DOCTYPE svg PUBLIC "-//W3C//DTD SVG 1.1//EN"
 "http://www.w3.org/Graphics/SVG/1.1/DTD/svg11.dtd">
<!-- Generated by graphviz version 2.43.0 (0)
 -->
<!-- Title: helios::rendering::model::Material::writeUniformValues Pages: 1 -->
<svg width="341pt" height="67pt"
 viewBox="0.00 0.00 341.00 67.00" xmlns="http://www.w3.org/2000/svg" xmlns:xlink="http://www.w3.org/1999/xlink">
<g id="graph0" class="graph" transform="scale(1 1) rotate(0) translate(4 63)">
<title>helios::rendering::model::Material::writeUniformValues</title>
<!-- Node1 -->
<g id="Node000001" class="node">
<title>Node1</title>
<g id="a_Node000001"><a xlink:title="Writes this Material&#39;s uniform values into the given map.">
<polygon fill="#999999" stroke="#666666" points="164,-41 0,-41 0,0 164,0 164,-41"/>
<text text-anchor="start" x="8" y="-29" font-family="Helvetica,sans-Serif" font-size="10.00">helios::rendering::</text>
<text text-anchor="start" x="8" y="-18" font-family="Helvetica,sans-Serif" font-size="10.00">model::Material::writeUniform</text>
<text text-anchor="middle" x="82" y="-7" font-family="Helvetica,sans-Serif" font-size="10.00">Values</text>
</a>
</g>
</g>
<!-- Node1&#45;&gt;Node1 -->
<g id="edge3_Node000001_Node000001" class="edge">
<title>Node1&#45;&gt;Node1</title>
<g id="a_edge3_Node000001_Node000001"><a xlink:title=" ">
<path fill="none" stroke="#63b8ff" d="M48.18,-41.1C44.49,-50.65 55.77,-59 82,-59 98.4,-59 108.95,-55.74 113.66,-50.96"/>
<polygon fill="#63b8ff" stroke="#63b8ff" points="117.1,-51.61 115.82,-41.1 110.26,-50.12 117.1,-51.61"/>
</a>
</g>
</g>
<!-- Node2 -->
<g id="Node000002" class="node">
<title>Node2</title>
<g id="a_Node000002"><a xlink:href="classhelios_1_1rendering_1_1model_1_1Material.html#afc78ee032a66d4b2bb48b866612c9125" target="_top" xlink:title="Returns a const ref to the shader used by this instance.">
<polygon fill="white" stroke="#666666" points="333,-35.5 200,-35.5 200,-5.5 333,-5.5 333,-35.5"/>
<text text-anchor="start" x="208" y="-23.5" font-family="Helvetica,sans-Serif" font-size="10.00">helios::rendering::</text>
<text text-anchor="middle" x="266.5" y="-12.5" font-family="Helvetica,sans-Serif" font-size="10.00">model::Material::shader</text>
</a>
</g>
</g>
<!-- Node1&#45;&gt;Node2 -->
<g id="edge1_Node000001_Node000002" class="edge">
<title>Node1&#45;&gt;Node2</title>
<g id="a_edge1_Node000001_Node000002"><a xlink:title=" ">
<path fill="none" stroke="#63b8ff" d="M164.11,-20.5C172.64,-20.5 181.28,-20.5 189.75,-20.5"/>
<polygon fill="#63b8ff" stroke="#63b8ff" points="189.96,-24 199.96,-20.5 189.96,-17 189.96,-24"/>
</a>
</g>
</g>
<!-- Node2&#45;&gt;Node2 -->
<g id="edge2_Node000002_Node000002" class="edge">
<title>Node2&#45;&gt;Node2</title>
<g id="a_edge2_Node000002_Node000002"><a xlink:title=" ">
<path fill="none" stroke="#63b8ff" d="M234.16,-35.78C226.97,-44.91 237.75,-53.5 266.5,-53.5 283.57,-53.5 294.31,-50.47 298.71,-46.1"/>
<polygon fill="#63b8ff" stroke="#63b8ff" points="302.21,-45.82 298.84,-35.78 295.21,-45.73 302.21,-45.82"/>
</a>
</g>
</g>
</g>
</svg>
