<?xml version="1.0" encoding="UTF-8" standalone="no"?>
<!DOCTYPE svg PUBLIC "-//W3C//DTD SVG 1.1//EN"
 "http://www.w3.org/Graphics/SVG/1.1/DTD/svg11.dtd">
<!-- Generated by graphviz version 2.43.0 (0)
 -->
<!-- Title: helios::input::gamepad::GamepadState::buttonDpadDown Pages: 1 -->
<svg width="404pt" height="86pt"
 viewBox="0.00 0.00 404.00 86.00" xmlns="http://www.w3.org/2000/svg" xmlns:xlink="http://www.w3.org/1999/xlink">
<g id="graph0" class="graph" transform="scale(1 1) rotate(0) translate(4 82)">
<title>helios::input::gamepad::GamepadState::buttonDpadDown</title>
<!-- Node1 -->
<g id="Node000001" class="node">
<title>Node1</title>
<g id="a_Node000001"><a xlink:title="Returns true when the D&#45;pad Down button is pressed.">
<polygon fill="#999999" stroke="#666666" points="396,-54 210,-54 210,-24 396,-24 396,-54"/>
<text text-anchor="start" x="218" y="-42" font-family="Helvetica,sans-Serif" font-size="10.00">helios::input::gamepad</text>
<text text-anchor="middle" x="303" y="-31" font-family="Helvetica,sans-Serif" font-size="10.00">::GamepadState::buttonDpadDown</text>
</a>
</g>
</g>
<!-- Node2 -->
<g id="Node000002" class="node">
<title>Node2</title>
<g id="a_Node000002"><a xlink:href="classhelios_1_1input_1_1gamepad_1_1GamepadState.html#a5d43064d7d1137357e7d546cf21bc222" target="_top" xlink:title="Creates a new GamepadState object.">
<polygon fill="white" stroke="#666666" points="174,-78 0,-78 0,-48 174,-48 174,-78"/>
<text text-anchor="start" x="8" y="-66" font-family="Helvetica,sans-Serif" font-size="10.00">helios::input::gamepad</text>
<text text-anchor="middle" x="87" y="-55" font-family="Helvetica,sans-Serif" font-size="10.00">::GamepadState::GamepadState</text>
</a>
</g>
</g>
<!-- Node1&#45;&gt;Node2 -->
<g id="edge1_Node000001_Node000002" class="edge">
<title>Node1&#45;&gt;Node2</title>
<g id="a_edge1_Node000001_Node000002"><a xlink:title=" ">
<path fill="none" stroke="#63b8ff" d="M199.72,-50.47C191.2,-51.43 182.64,-52.39 174.26,-53.33"/>
<polygon fill="#63b8ff" stroke="#63b8ff" points="200.14,-53.95 209.69,-49.35 199.36,-46.99 200.14,-53.95"/>
</a>
</g>
</g>
<!-- Node3 -->
<g id="Node000003" class="node">
<title>Node3</title>
<g id="a_Node000003"><a xlink:href="classhelios_1_1input_1_1gamepad_1_1GamepadState.html#a7d7e7b45d8f7a735ab51f5481b438825" target="_top" xlink:title="Updates the axes and button states of this GamepadState object.">
<polygon fill="white" stroke="#666666" points="166,-30 8,-30 8,0 166,0 166,-30"/>
<text text-anchor="start" x="16" y="-18" font-family="Helvetica,sans-Serif" font-size="10.00">helios::input::gamepad</text>
<text text-anchor="middle" x="87" y="-7" font-family="Helvetica,sans-Serif" font-size="10.00">::GamepadState::updateAxes</text>
</a>
</g>
</g>
<!-- Node1&#45;&gt;Node3 -->
<g id="edge2_Node000001_Node000003" class="edge">
<title>Node1&#45;&gt;Node3</title>
<g id="a_edge2_Node000001_Node000003"><a xlink:title=" ">
<path fill="none" stroke="#63b8ff" d="M199.46,-27.5C188.29,-26.25 177.06,-24.99 166.24,-23.77"/>
<polygon fill="#63b8ff" stroke="#63b8ff" points="199.36,-31.01 209.69,-28.65 200.14,-24.05 199.36,-31.01"/>
</a>
</g>
</g>
</g>
</svg>
