<?xml version="1.0" encoding="UTF-8" standalone="no"?>
<!DOCTYPE svg PUBLIC "-//W3C//DTD SVG 1.1//EN"
 "http://www.w3.org/Graphics/SVG/1.1/DTD/svg11.dtd">
<!-- Generated by graphviz version 2.43.0 (0)
 -->
<!-- Title: helios::ext::glfw::app::GLFWApplication::GLFWApplication Pages: 1 -->
<svg width="298pt" height="152pt"
 viewBox="0.00 0.00 298.00 152.00" xmlns="http://www.w3.org/2000/svg" xmlns:xlink="http://www.w3.org/1999/xlink">

<svg id="main" version="1.1" xmlns="http://www.w3.org/2000/svg" xmlns:xlink="http://www.w3.org/1999/xlink" xml:space="preserve">

<style type="text/css"><![CDATA[
.node, .edge {opacity: 0.7;}
.node.selected, .edge.selected {opacity: 1;}
.edge:hover path { stroke: red; }
.edge:hover polygon { stroke: red; fill: red; }
]]></style>
<script type="application/ecmascript" xlink:href="svg.min.js"/>
<svg id="graph" class="graph">
<g id="graph0" class="graph" transform="scale(1 1) rotate(0) translate(4 148)">
<title>helios::ext::glfw::app::GLFWApplication::GLFWApplication</title>
<!-- Node1 -->
<g id="Node000001" class="node">
<title>Node1</title>
<g id="a_Node000001"><a xlink:title="Constructs a new `GLFWApplication` instance.">
<polygon fill="#999999" stroke="#666666" points="123,-83.5 0,-83.5 0,-42.5 123,-42.5 123,-83.5"/>
<text text-anchor="start" x="8" y="-71.5" font-family="Helvetica,sans-Serif" font-size="10.00">helios::ext::glfw::</text>
<text text-anchor="start" x="8" y="-60.5" font-family="Helvetica,sans-Serif" font-size="10.00">app::GLFWApplication</text>
<text text-anchor="middle" x="61.5" y="-49.5" font-family="Helvetica,sans-Serif" font-size="10.00">::GLFWApplication</text>
</a>
</g>
</g>
<!-- Node2 -->
<g id="Node000002" class="node">
<title>Node2</title>
<g id="a_Node000002"><a xlink:href="classhelios_1_1app_1_1Application.html#a6ea14c8bd591020cbd5d2baef551a804" target="_top" xlink:title="Returns the EventManager owned by this application.">
<polygon fill="white" stroke="#666666" points="290,-144 159,-144 159,-114 290,-114 290,-144"/>
<text text-anchor="start" x="167" y="-132" font-family="Helvetica,sans-Serif" font-size="10.00">helios::app::Application</text>
<text text-anchor="middle" x="224.5" y="-121" font-family="Helvetica,sans-Serif" font-size="10.00">::eventManager</text>
</a>
</g>
</g>
<!-- Node1&#45;&gt;Node2 -->
<g id="edge1_Node000001_Node000002" class="edge">
<title>Node1&#45;&gt;Node2</title>
<g id="a_edge1_Node000001_Node000002"><a xlink:title=" ">
<path fill="none" stroke="#63b8ff" d="M108.43,-83.59C124.36,-90.58 142.39,-98.3 159,-105 163.41,-106.78 168,-108.58 172.62,-110.36"/>
<polygon fill="#63b8ff" stroke="#63b8ff" points="171.49,-113.68 182.08,-113.97 173.98,-107.14 171.49,-113.68"/>
</a>
</g>
</g>
<!-- Node3 -->
<g id="Node000003" class="node">
<title>Node3</title>
<g id="a_Node000003"><a xlink:href="classhelios_1_1app_1_1Application.html#a11fe3ec9b45731268a0eff32ced9f06c" target="_top" xlink:title="Returns the InputManager owned by this Application.">
<polygon fill="white" stroke="#666666" points="290,-78 159,-78 159,-48 290,-48 290,-78"/>
<text text-anchor="start" x="167" y="-66" font-family="Helvetica,sans-Serif" font-size="10.00">helios::app::Application</text>
<text text-anchor="middle" x="224.5" y="-55" font-family="Helvetica,sans-Serif" font-size="10.00">::inputManager</text>
</a>
</g>
</g>
<!-- Node1&#45;&gt;Node3 -->
<g id="edge2_Node000001_Node000003" class="edge">
<title>Node1&#45;&gt;Node3</title>
<g id="a_edge2_Node000001_Node000003"><a xlink:title=" ">
<path fill="none" stroke="#63b8ff" d="M123.37,-63C131.6,-63 140.12,-63 148.56,-63"/>
<polygon fill="#63b8ff" stroke="#63b8ff" points="148.79,-66.5 158.79,-63 148.79,-59.5 148.79,-66.5"/>
</a>
</g>
</g>
<!-- Node4 -->
<g id="Node000004" class="node">
<title>Node4</title>
<g id="a_Node000004"><a xlink:href="classhelios_1_1app_1_1Application.html#a13d126308f1b5b61d9b87fc4dde57530" target="_top" xlink:title="Returns the RenderingDevice owned by this Application.">
<polygon fill="white" stroke="#666666" points="290,-30 159,-30 159,0 290,0 290,-30"/>
<text text-anchor="start" x="167" y="-18" font-family="Helvetica,sans-Serif" font-size="10.00">helios::app::Application</text>
<text text-anchor="middle" x="224.5" y="-7" font-family="Helvetica,sans-Serif" font-size="10.00">::renderingDevice</text>
</a>
</g>
</g>
<!-- Node1&#45;&gt;Node4 -->
<g id="edge4_Node000001_Node000004" class="edge">
<title>Node1&#45;&gt;Node4</title>
<g id="a_edge4_Node000001_Node000004"><a xlink:title=" ">
<path fill="none" stroke="#63b8ff" d="M123.37,-44.85C136.42,-40.96 150.21,-36.85 163.25,-32.96"/>
<polygon fill="#63b8ff" stroke="#63b8ff" points="164.46,-36.25 173.04,-30.04 162.46,-29.55 164.46,-36.25"/>
</a>
</g>
</g>
<!-- Node3&#45;&gt;Node3 -->
<g id="edge3_Node000003_Node000003" class="edge">
<title>Node3&#45;&gt;Node3</title>
<g id="a_edge3_Node000003_Node000003"><a xlink:title=" ">
<path fill="none" stroke="#63b8ff" d="M196.02,-78.28C189.7,-87.41 199.19,-96 224.5,-96 239.53,-96 248.98,-92.97 252.86,-88.6"/>
<polygon fill="#63b8ff" stroke="#63b8ff" points="256.36,-88.32 252.98,-78.28 249.36,-88.23 256.36,-88.32"/>
</a>
</g>
</g>
</g>
</svg>
</svg>

<style type='text/css'>
<![CDATA[
[data-mouse-over-selected='false'] { opacity: 0.7; }
[data-mouse-over-selected='true']  { opacity: 1.0; }
]]>
</style>
<script type="application/ecmascript"><![CDATA[
document.addEventListener('DOMContentLoaded', (event) => {
  highlightEdges();
  highlightAdjacentNodes();
});
]]></script>
</svg>
