<?xml version="1.0" encoding="UTF-8" standalone="no"?>
<!DOCTYPE svg PUBLIC "-//W3C//DTD SVG 1.1//EN"
 "http://www.w3.org/Graphics/SVG/1.1/DTD/svg11.dtd">
<!-- Generated by graphviz version 2.43.0 (0)
 -->
<!-- Title: helios::ext::opengl::rendering::model::OpenGLMesh::OpenGLMesh Pages: 1 -->
<svg width="348pt" height="134pt"
 viewBox="0.00 0.00 348.00 133.50" xmlns="http://www.w3.org/2000/svg" xmlns:xlink="http://www.w3.org/1999/xlink">

<svg id="main" version="1.1" xmlns="http://www.w3.org/2000/svg" xmlns:xlink="http://www.w3.org/1999/xlink" xml:space="preserve">

<style type="text/css"><![CDATA[
.node, .edge {opacity: 0.7;}
.node.selected, .edge.selected {opacity: 1;}
.edge:hover path { stroke: red; }
.edge:hover polygon { stroke: red; fill: red; }
]]></style>
<script type="application/ecmascript" xlink:href="svg.min.js"/>
<svg id="graph" class="graph">
<g id="graph0" class="graph" transform="scale(1 1) rotate(0) translate(4 129.5)">
<title>helios::ext::opengl::rendering::model::OpenGLMesh::OpenGLMesh</title>
<!-- Node1 -->
<g id="Node000001" class="node">
<title>Node1</title>
<g id="a_Node000001"><a xlink:title="Creates a new OpenGLMesh instance from the specified Shape.">
<polygon fill="#999999" stroke="#666666" points="152,-77 0,-77 0,-36 152,-36 152,-77"/>
<text text-anchor="start" x="8" y="-65" font-family="Helvetica,sans-Serif" font-size="10.00">helios::ext::opengl</text>
<text text-anchor="start" x="8" y="-54" font-family="Helvetica,sans-Serif" font-size="10.00">::rendering::model::</text>
<text text-anchor="middle" x="76" y="-43" font-family="Helvetica,sans-Serif" font-size="10.00">OpenGLMesh::OpenGLMesh</text>
</a>
</g>
</g>
<!-- Node2 -->
<g id="Node000002" class="node">
<title>Node2</title>
<g id="a_Node000002"><a xlink:href="classhelios_1_1rendering_1_1model_1_1Mesh.html#a0f0040d40bc06b1d36ca7ee9a7bbe2ca" target="_top" xlink:title="Returns a const reference to MeshConfig used with this Mesh. The returned MeshConfig is guaranteed to...">
<polygon fill="white" stroke="#666666" points="335.5,-107.5 192.5,-107.5 192.5,-77.5 335.5,-77.5 335.5,-107.5"/>
<text text-anchor="start" x="200.5" y="-95.5" font-family="Helvetica,sans-Serif" font-size="10.00">helios::rendering::</text>
<text text-anchor="middle" x="264" y="-84.5" font-family="Helvetica,sans-Serif" font-size="10.00">model::Mesh::meshConfig</text>
</a>
</g>
</g>
<!-- Node1&#45;&gt;Node2 -->
<g id="edge1_Node000001_Node000002" class="edge">
<title>Node1&#45;&gt;Node2</title>
<g id="a_edge1_Node000001_Node000002"><a xlink:title=" ">
<path fill="none" stroke="#63b8ff" d="M152.12,-71.04C162.1,-72.97 172.37,-74.96 182.44,-76.91"/>
<polygon fill="#63b8ff" stroke="#63b8ff" points="181.94,-80.38 192.42,-78.84 183.27,-73.5 181.94,-80.38"/>
</a>
</g>
</g>
<!-- Node3 -->
<g id="Node000003" class="node">
<title>Node3</title>
<g id="a_Node000003"><a xlink:href="classhelios_1_1ext_1_1opengl_1_1rendering_1_1model_1_1OpenGLMesh.html#a9b3f32bc20f441643ae07027a88ec3cd" target="_top" xlink:title="Rule of three.">
<polygon fill="white" stroke="#666666" points="340,-41 188,-41 188,0 340,0 340,-41"/>
<text text-anchor="start" x="196" y="-29" font-family="Helvetica,sans-Serif" font-size="10.00">helios::ext::opengl</text>
<text text-anchor="start" x="196" y="-18" font-family="Helvetica,sans-Serif" font-size="10.00">::rendering::model::</text>
<text text-anchor="middle" x="264" y="-7" font-family="Helvetica,sans-Serif" font-size="10.00">OpenGLMesh::OpenGLMesh</text>
</a>
</g>
</g>
<!-- Node1&#45;&gt;Node3 -->
<g id="edge3_Node000001_Node000003" class="edge">
<title>Node1&#45;&gt;Node3</title>
<g id="a_edge3_Node000001_Node000003"><a xlink:title=" ">
<path fill="none" stroke="#63b8ff" d="M152.12,-41.96C160.6,-40.32 169.28,-38.64 177.87,-36.98"/>
<polygon fill="#63b8ff" stroke="#63b8ff" points="178.75,-40.37 187.9,-35.03 177.42,-33.5 178.75,-40.37"/>
</a>
</g>
</g>
<!-- Node2&#45;&gt;Node2 -->
<g id="edge2_Node000002_Node000002" class="edge">
<title>Node2&#45;&gt;Node2</title>
<g id="a_edge2_Node000002_Node000002"><a xlink:title=" ">
<path fill="none" stroke="#63b8ff" d="M230.95,-107.78C223.61,-116.91 234.62,-125.5 264,-125.5 281.44,-125.5 292.41,-122.47 296.91,-118.1"/>
<polygon fill="#63b8ff" stroke="#63b8ff" points="300.41,-117.82 297.05,-107.78 293.41,-117.73 300.41,-117.82"/>
</a>
</g>
</g>
<!-- Node3&#45;&gt;Node3 -->
<g id="edge4_Node000003_Node000003" class="edge">
<title>Node3&#45;&gt;Node3</title>
<g id="a_edge4_Node000003_Node000003"><a xlink:title=" ">
<path fill="none" stroke="#63b8ff" d="M229.45,-41.1C225.68,-50.65 237.2,-59 264,-59 280.75,-59 291.53,-55.74 296.34,-50.96"/>
<polygon fill="#63b8ff" stroke="#63b8ff" points="299.78,-51.62 298.55,-41.1 292.95,-50.09 299.78,-51.62"/>
</a>
</g>
</g>
</g>
</svg>
</svg>

<style type='text/css'>
<![CDATA[
[data-mouse-over-selected='false'] { opacity: 0.7; }
[data-mouse-over-selected='true']  { opacity: 1.0; }
]]>
</style>
<script type="application/ecmascript"><![CDATA[
document.addEventListener('DOMContentLoaded', (event) => {
  highlightEdges();
  highlightAdjacentNodes();
});
]]></script>
</svg>
