<?xml version="1.0" encoding="UTF-8" standalone="no"?>
<!DOCTYPE svg PUBLIC "-//W3C//DTD SVG 1.1//EN"
 "http://www.w3.org/Graphics/SVG/1.1/DTD/svg11.dtd">
<!-- Generated by graphviz version 2.43.0 (0)
 -->
<!-- Title: helios::ext::opengl::rendering::OpenGLDevice Pages: 1 -->
<svg width="155pt" height="188pt"
 viewBox="0.00 0.00 155.00 188.00" xmlns="http://www.w3.org/2000/svg" xmlns:xlink="http://www.w3.org/1999/xlink">
<g id="graph0" class="graph" transform="scale(1 1) rotate(0) translate(4 184)">
<title>helios::ext::opengl::rendering::OpenGLDevice</title>
<!-- Node1 -->
<g id="Node000001" class="node">
<title>Node1</title>
<g id="a_Node000001"><a xlink:title="OpenGL RenderingDevice representative.">
<polygon fill="#999999" stroke="#666666" points="147,-30 0,-30 0,0 147,0 147,-30"/>
<text text-anchor="start" x="8" y="-18" font-family="Helvetica,sans-Serif" font-size="10.00">helios::ext::opengl</text>
<text text-anchor="middle" x="73.5" y="-7" font-family="Helvetica,sans-Serif" font-size="10.00">::rendering::OpenGLDevice</text>
</a>
</g>
</g>
<!-- Node2 -->
<g id="Node000002" class="node">
<title>Node2</title>
<g id="a_Node000002"><a xlink:href="classhelios_1_1rendering_1_1RenderingDevice.html" target="_top" xlink:title="Abstract interface for a low&#45;level rendering device.">
<polygon fill="white" stroke="#666666" points="125.5,-97 21.5,-97 21.5,-67 125.5,-67 125.5,-97"/>
<text text-anchor="start" x="29.5" y="-85" font-family="Helvetica,sans-Serif" font-size="10.00">helios::rendering::</text>
<text text-anchor="middle" x="73.5" y="-74" font-family="Helvetica,sans-Serif" font-size="10.00">RenderingDevice</text>
</a>
</g>
</g>
<!-- Node2&#45;&gt;Node1 -->
<g id="edge1_Node000001_Node000002" class="edge">
<title>Node2&#45;&gt;Node1</title>
<g id="a_edge1_Node000001_Node000002"><a xlink:title=" ">
<path fill="none" stroke="#63b8ff" d="M73.5,-56.61C73.5,-47.65 73.5,-37.82 73.5,-30.08"/>
<polygon fill="#63b8ff" stroke="#63b8ff" points="70,-56.9 73.5,-66.9 77,-56.9 70,-56.9"/>
</a>
</g>
</g>
<!-- Node3 -->
<g id="Node000003" class="node">
<title>Node3</title>
<g id="a_Node000003"><a xlink:href="classhelios_1_1util_1_1log_1_1Logger.html" target="_top" xlink:title="Simple Logger implementation.">
<polygon fill="white" stroke="#666666" points="121,-180 26,-180 26,-150 121,-150 121,-180"/>
<text text-anchor="start" x="34" y="-168" font-family="Helvetica,sans-Serif" font-size="10.00">helios::util::log::</text>
<text text-anchor="middle" x="73.5" y="-157" font-family="Helvetica,sans-Serif" font-size="10.00">Logger</text>
</a>
</g>
</g>
<!-- Node3&#45;&gt;Node2 -->
<g id="edge2_Node000002_Node000003" class="edge">
<title>Node3&#45;&gt;Node2</title>
<g id="a_edge2_Node000002_Node000003"><a xlink:title=" ">
<path fill="none" stroke="#9a32cd" stroke-dasharray="5,2" d="M73.5,-139.59C73.5,-125.75 73.5,-108.91 73.5,-97.22"/>
<polygon fill="#9a32cd" stroke="#9a32cd" points="70,-139.89 73.5,-149.89 77,-139.89 70,-139.89"/>
</a>
</g>
<text text-anchor="start" x="77" y="-120.5" font-family="Helvetica,sans-Serif" font-size="10.00" fill="grey">logger_</text>
</g>
</g>
</svg>
