<?xml version="1.0" encoding="UTF-8" standalone="no"?>
<!DOCTYPE svg PUBLIC "-//W3C//DTD SVG 1.1//EN"
 "http://www.w3.org/Graphics/SVG/1.1/DTD/svg11.dtd">
<!-- Generated by graphviz version 2.43.0 (0)
 -->
<!-- Title: helios::scene::Snapshot::Snapshot Pages: 1 -->
<svg width="306pt" height="170pt"
 viewBox="0.00 0.00 306.00 170.00" xmlns="http://www.w3.org/2000/svg" xmlns:xlink="http://www.w3.org/1999/xlink">

<svg id="main" version="1.1" xmlns="http://www.w3.org/2000/svg" xmlns:xlink="http://www.w3.org/1999/xlink" xml:space="preserve">

<style type="text/css"><![CDATA[
.node, .edge {opacity: 0.7;}
.node.selected, .edge.selected {opacity: 1;}
.edge:hover path { stroke: red; }
.edge:hover polygon { stroke: red; fill: red; }
]]></style>
<script type="application/ecmascript" xlink:href="svg.min.js"/>
<svg id="graph" class="graph">
<g id="graph0" class="graph" transform="scale(1 1) rotate(0) translate(4 166)">
<title>helios::scene::Snapshot::Snapshot</title>
<!-- Node1 -->
<g id="Node000001" class="node">
<title>Node1</title>
<g id="a_Node000001"><a xlink:title="Constructs a new immutable Snapshot from the given data.">
<polygon fill="#999999" stroke="#666666" points="131,-96 0,-96 0,-66 131,-66 131,-96"/>
<text text-anchor="start" x="8" y="-84" font-family="Helvetica,sans-Serif" font-size="10.00">helios::scene::Snapshot</text>
<text text-anchor="middle" x="65.5" y="-73" font-family="Helvetica,sans-Serif" font-size="10.00">::Snapshot</text>
</a>
</g>
</g>
<!-- Node2 -->
<g id="Node000002" class="node">
<title>Node2</title>
<g id="a_Node000002"><a xlink:href="classhelios_1_1scene_1_1Snapshot.html#aae4b2f152fd9144ce8e264064495e867" target="_top" xlink:title="Returns a const ref to the projection matrix for this Snapshot. The matrix represents the projection ...">
<polygon fill="white" stroke="#666666" points="298,-144 167,-144 167,-114 298,-114 298,-144"/>
<text text-anchor="start" x="175" y="-132" font-family="Helvetica,sans-Serif" font-size="10.00">helios::scene::Snapshot</text>
<text text-anchor="middle" x="232.5" y="-121" font-family="Helvetica,sans-Serif" font-size="10.00">::projectionMatrix</text>
</a>
</g>
</g>
<!-- Node1&#45;&gt;Node2 -->
<g id="edge1_Node000001_Node000002" class="edge">
<title>Node1&#45;&gt;Node2</title>
<g id="a_edge1_Node000001_Node000002"><a xlink:title=" ">
<path fill="none" stroke="#63b8ff" d="M118.25,-96.06C134.69,-100.84 153.02,-106.17 170.07,-111.13"/>
<polygon fill="#63b8ff" stroke="#63b8ff" points="169.35,-114.56 179.93,-114 171.31,-107.84 169.35,-114.56"/>
</a>
</g>
</g>
<!-- Node3 -->
<g id="Node000003" class="node">
<title>Node3</title>
<g id="a_Node000003"><a xlink:href="classhelios_1_1scene_1_1Snapshot.html#adb178bc5c792fe32d49f76cba70b71c2" target="_top" xlink:title="Returns a const ref to this `Snapshot`&#39;s SnapshotItems. The vector contains all renderable items in t...">
<polygon fill="white" stroke="#666666" points="298,-96 167,-96 167,-66 298,-66 298,-96"/>
<text text-anchor="start" x="175" y="-84" font-family="Helvetica,sans-Serif" font-size="10.00">helios::scene::Snapshot</text>
<text text-anchor="middle" x="232.5" y="-73" font-family="Helvetica,sans-Serif" font-size="10.00">::snapshotItems</text>
</a>
</g>
</g>
<!-- Node1&#45;&gt;Node3 -->
<g id="edge3_Node000001_Node000003" class="edge">
<title>Node1&#45;&gt;Node3</title>
<g id="a_edge3_Node000001_Node000003"><a xlink:title=" ">
<path fill="none" stroke="#63b8ff" d="M131.24,-81C139.58,-81 148.18,-81 156.67,-81"/>
<polygon fill="#63b8ff" stroke="#63b8ff" points="156.95,-84.5 166.95,-81 156.95,-77.5 156.95,-84.5"/>
</a>
</g>
</g>
<!-- Node4 -->
<g id="Node000004" class="node">
<title>Node4</title>
<g id="a_Node000004"><a xlink:href="classhelios_1_1scene_1_1Snapshot.html#a10d5c7307db942f3717c0ea07597020b" target="_top" xlink:title="Returns a const ref to the view matrix for this Snapshot. The matrix represents the view matrix of th...">
<polygon fill="white" stroke="#666666" points="298,-30 167,-30 167,0 298,0 298,-30"/>
<text text-anchor="start" x="175" y="-18" font-family="Helvetica,sans-Serif" font-size="10.00">helios::scene::Snapshot</text>
<text text-anchor="middle" x="232.5" y="-7" font-family="Helvetica,sans-Serif" font-size="10.00">::viewMatrix</text>
</a>
</g>
</g>
<!-- Node1&#45;&gt;Node4 -->
<g id="edge4_Node000001_Node000004" class="edge">
<title>Node1&#45;&gt;Node4</title>
<g id="a_edge4_Node000001_Node000004"><a xlink:title=" ">
<path fill="none" stroke="#63b8ff" d="M104.35,-65.86C128.15,-56.34 159.03,-43.99 184.39,-33.84"/>
<polygon fill="#63b8ff" stroke="#63b8ff" points="185.84,-37.03 193.82,-30.07 183.24,-30.54 185.84,-37.03"/>
</a>
</g>
</g>
<!-- Node2&#45;&gt;Node2 -->
<g id="edge2_Node000002_Node000002" class="edge">
<title>Node2&#45;&gt;Node2</title>
<g id="a_edge2_Node000002_Node000002"><a xlink:title=" ">
<path fill="none" stroke="#63b8ff" d="M203.32,-144.28C196.84,-153.41 206.56,-162 232.5,-162 247.9,-162 257.59,-158.97 261.56,-154.6"/>
<polygon fill="#63b8ff" stroke="#63b8ff" points="265.06,-154.32 261.68,-144.28 258.06,-154.23 265.06,-154.32"/>
</a>
</g>
</g>
<!-- Node4&#45;&gt;Node4 -->
<g id="edge5_Node000004_Node000004" class="edge">
<title>Node4&#45;&gt;Node4</title>
<g id="a_edge5_Node000004_Node000004"><a xlink:title=" ">
<path fill="none" stroke="#63b8ff" d="M203.32,-30.28C196.84,-39.41 206.56,-48 232.5,-48 247.9,-48 257.59,-44.97 261.56,-40.6"/>
<polygon fill="#63b8ff" stroke="#63b8ff" points="265.06,-40.32 261.68,-30.28 258.06,-40.23 265.06,-40.32"/>
</a>
</g>
</g>
</g>
</svg>
</svg>

<style type='text/css'>
<![CDATA[
[data-mouse-over-selected='false'] { opacity: 0.7; }
[data-mouse-over-selected='true']  { opacity: 1.0; }
]]>
</style>
<script type="application/ecmascript"><![CDATA[
document.addEventListener('DOMContentLoaded', (event) => {
  highlightEdges();
  highlightAdjacentNodes();
});
]]></script>
</svg>
