<?xml version="1.0" encoding="UTF-8" standalone="no"?>
<!DOCTYPE svg PUBLIC "-//W3C//DTD SVG 1.1//EN"
 "http://www.w3.org/Graphics/SVG/1.1/DTD/svg11.dtd">
<!-- Generated by graphviz version 2.43.0 (0)
 -->
<!-- Title: helios::engine::game::GameObject::get Pages: 1 -->
<svg width="336pt" height="264pt"
 viewBox="0.00 0.00 336.00 263.50" xmlns="http://www.w3.org/2000/svg" xmlns:xlink="http://www.w3.org/1999/xlink">

<svg id="main" version="1.1" xmlns="http://www.w3.org/2000/svg" xmlns:xlink="http://www.w3.org/1999/xlink" xml:space="preserve">

<style type="text/css"><![CDATA[
.node, .edge {opacity: 0.7;}
.node.selected, .edge.selected {opacity: 1;}
.edge:hover path { stroke: red; }
.edge:hover polygon { stroke: red; fill: red; }
]]></style>
<script type="application/ecmascript" xlink:href="svg.min.js"/>
<svg id="graph" class="graph">
<g id="graph0" class="graph" transform="scale(1 1) rotate(0) translate(4 259.5)">
<title>helios::engine::game::GameObject::get</title>
<!-- Node1 -->
<g id="Node000001" class="node">
<title>Node1</title>
<g id="a_Node000001"><a xlink:title="Retrieves a component of type T.">
<polygon fill="#999999" stroke="#666666" points="328,-132 209,-132 209,-102 328,-102 328,-132"/>
<text text-anchor="start" x="217" y="-120" font-family="Helvetica,sans-Serif" font-size="10.00">helios::engine::game</text>
<text text-anchor="middle" x="268.5" y="-109" font-family="Helvetica,sans-Serif" font-size="10.00">::GameObject::get</text>
</a>
</g>
</g>
<!-- Node2 -->
<g id="Node000002" class="node">
<title>Node2</title>
<g id="a_Node000002"><a xlink:href="classhelios_1_1engine_1_1game_1_1commands_1_1Aim2DCommand.html#adcf8bbd3975dd917ebc77fa3ea20128a" target="_top" xlink:title="Executes the aim command on a GameObject.">
<polygon fill="white" stroke="#666666" points="169.5,-255.5 3.5,-255.5 3.5,-214.5 169.5,-214.5 169.5,-255.5"/>
<text text-anchor="start" x="11.5" y="-243.5" font-family="Helvetica,sans-Serif" font-size="10.00">helios::engine::game</text>
<text text-anchor="start" x="11.5" y="-232.5" font-family="Helvetica,sans-Serif" font-size="10.00">::commands::Aim2DCommand</text>
<text text-anchor="middle" x="86.5" y="-221.5" font-family="Helvetica,sans-Serif" font-size="10.00">::execute</text>
</a>
</g>
</g>
<!-- Node1&#45;&gt;Node2 -->
<g id="edge1_Node000001_Node000002" class="edge">
<title>Node1&#45;&gt;Node2</title>
<g id="a_edge1_Node000001_Node000002"><a xlink:title=" ">
<path fill="none" stroke="#63b8ff" d="M248.24,-140.03C230.51,-159.94 202.54,-188.24 173,-206 167.9,-209.07 162.42,-211.87 156.8,-214.4"/>
<polygon fill="#63b8ff" stroke="#63b8ff" points="251.03,-142.16 254.97,-132.33 245.76,-137.56 251.03,-142.16"/>
</a>
</g>
</g>
<!-- Node3 -->
<g id="Node000003" class="node">
<title>Node3</title>
<g id="a_Node000003"><a xlink:href="classhelios_1_1engine_1_1game_1_1commands_1_1Move2DCommand.html#aa350d238ae20ca8089a7869b8860f903" target="_top" xlink:title="Executes the movement command on a GameObject.">
<polygon fill="white" stroke="#666666" points="173,-196.5 0,-196.5 0,-155.5 173,-155.5 173,-196.5"/>
<text text-anchor="start" x="8" y="-184.5" font-family="Helvetica,sans-Serif" font-size="10.00">helios::engine::game</text>
<text text-anchor="start" x="8" y="-173.5" font-family="Helvetica,sans-Serif" font-size="10.00">::commands::Move2DCommand</text>
<text text-anchor="middle" x="86.5" y="-162.5" font-family="Helvetica,sans-Serif" font-size="10.00">::execute</text>
</a>
</g>
</g>
<!-- Node1&#45;&gt;Node3 -->
<g id="edge2_Node000001_Node000003" class="edge">
<title>Node1&#45;&gt;Node3</title>
<g id="a_edge2_Node000001_Node000003"><a xlink:title=" ">
<path fill="none" stroke="#63b8ff" d="M211.96,-135.21C192.43,-141.61 170.36,-148.84 150.28,-155.42"/>
<polygon fill="#63b8ff" stroke="#63b8ff" points="213.2,-138.48 221.61,-132.04 211.02,-131.83 213.2,-138.48"/>
</a>
</g>
</g>
<!-- Node4 -->
<g id="Node000004" class="node">
<title>Node4</title>
<g id="a_Node000004"><a xlink:href="classhelios_1_1engine_1_1game_1_1commands_1_1ShootCommand.html#a9e012933d5cf99796c46f677dcb7a151" target="_top" xlink:title="Executes the shoot command on a GameObject.">
<polygon fill="white" stroke="#666666" points="167,-137.5 6,-137.5 6,-96.5 167,-96.5 167,-137.5"/>
<text text-anchor="start" x="14" y="-125.5" font-family="Helvetica,sans-Serif" font-size="10.00">helios::engine::game</text>
<text text-anchor="start" x="14" y="-114.5" font-family="Helvetica,sans-Serif" font-size="10.00">::commands::ShootCommand</text>
<text text-anchor="middle" x="86.5" y="-103.5" font-family="Helvetica,sans-Serif" font-size="10.00">::execute</text>
</a>
</g>
</g>
<!-- Node1&#45;&gt;Node4 -->
<g id="edge3_Node000001_Node000004" class="edge">
<title>Node1&#45;&gt;Node4</title>
<g id="a_edge3_Node000001_Node000004"><a xlink:title=" ">
<path fill="none" stroke="#63b8ff" d="M198.47,-117C188.23,-117 177.61,-117 167.18,-117"/>
<polygon fill="#63b8ff" stroke="#63b8ff" points="198.56,-120.5 208.56,-117 198.56,-113.5 198.56,-120.5"/>
</a>
</g>
</g>
<!-- Node5 -->
<g id="Node000005" class="node">
<title>Node5</title>
<g id="a_Node000005"><a xlink:href="classhelios_1_1engine_1_1game_1_1GameObject.html#a834e29f3aef6fa533f1bc3adf7752343" target="_top" xlink:title="Retrieves an existing component of type T, or creates and adds it if not present.">
<polygon fill="white" stroke="#666666" points="154,-78 19,-78 19,-48 154,-48 154,-78"/>
<text text-anchor="start" x="27" y="-66" font-family="Helvetica,sans-Serif" font-size="10.00">helios::engine::game</text>
<text text-anchor="middle" x="86.5" y="-55" font-family="Helvetica,sans-Serif" font-size="10.00">::GameObject::getOrAdd</text>
</a>
</g>
</g>
<!-- Node1&#45;&gt;Node5 -->
<g id="edge4_Node000001_Node000005" class="edge">
<title>Node1&#45;&gt;Node5</title>
<g id="a_edge4_Node000001_Node000005"><a xlink:title=" ">
<path fill="none" stroke="#63b8ff" d="M209.11,-98.95C197.17,-95.3 184.69,-91.5 173,-88 162.19,-84.76 150.59,-81.33 139.53,-78.09"/>
<polygon fill="#63b8ff" stroke="#63b8ff" points="208.39,-102.39 218.98,-101.97 210.44,-95.7 208.39,-102.39"/>
</a>
</g>
</g>
<!-- Node6 -->
<g id="Node000006" class="node">
<title>Node6</title>
<g id="a_Node000006"><a xlink:href="classhelios_1_1engine_1_1game_1_1GameObject.html#a75ba7876058a260289f28b39c6fce25a" target="_top" xlink:title="Checks if the GameObject has a component of type T.">
<polygon fill="white" stroke="#666666" points="146,-30 27,-30 27,0 146,0 146,-30"/>
<text text-anchor="start" x="35" y="-18" font-family="Helvetica,sans-Serif" font-size="10.00">helios::engine::game</text>
<text text-anchor="middle" x="86.5" y="-7" font-family="Helvetica,sans-Serif" font-size="10.00">::GameObject::has</text>
</a>
</g>
</g>
<!-- Node1&#45;&gt;Node6 -->
<g id="edge5_Node000001_Node000006" class="edge">
<title>Node1&#45;&gt;Node6</title>
<g id="a_edge5_Node000001_Node000006"><a xlink:title=" ">
<path fill="none" stroke="#63b8ff" d="M246.08,-94.81C228.08,-77.34 200.88,-53.58 173,-39 164.67,-34.64 155.45,-31 146.24,-27.98"/>
<polygon fill="#63b8ff" stroke="#63b8ff" points="243.64,-97.32 253.21,-101.87 248.57,-92.35 243.64,-97.32"/>
</a>
</g>
</g>
</g>
</svg>
</svg>

<style type='text/css'>
<![CDATA[
[data-mouse-over-selected='false'] { opacity: 0.7; }
[data-mouse-over-selected='true']  { opacity: 1.0; }
]]>
</style>
<script type="application/ecmascript"><![CDATA[
document.addEventListener('DOMContentLoaded', (event) => {
  highlightEdges();
  highlightAdjacentNodes();
});
]]></script>
</svg>
