<?xml version="1.0" encoding="UTF-8" standalone="no"?>
<!DOCTYPE svg PUBLIC "-//W3C//DTD SVG 1.1//EN"
 "http://www.w3.org/Graphics/SVG/1.1/DTD/svg11.dtd">
<!-- Generated by graphviz version 2.43.0 (0)
 -->
<!-- Title: helios::rendering::model::Mesh::Mesh Pages: 1 -->
<svg width="299pt" height="56pt"
 viewBox="0.00 0.00 299.00 56.00" xmlns="http://www.w3.org/2000/svg" xmlns:xlink="http://www.w3.org/1999/xlink">
<g id="graph0" class="graph" transform="scale(1 1) rotate(0) translate(4 52)">
<title>helios::rendering::model::Mesh::Mesh</title>
<!-- Node1 -->
<g id="Node000001" class="node">
<title>Node1</title>
<g id="a_Node000001"><a xlink:title="Creates a new Mesh instance from the specified Shape.">
<polygon fill="#999999" stroke="#666666" points="112,-30 0,-30 0,0 112,0 112,-30"/>
<text text-anchor="start" x="8" y="-18" font-family="Helvetica,sans-Serif" font-size="10.00">helios::rendering::</text>
<text text-anchor="middle" x="56" y="-7" font-family="Helvetica,sans-Serif" font-size="10.00">model::Mesh::Mesh</text>
</a>
</g>
</g>
<!-- Node2 -->
<g id="Node000002" class="node">
<title>Node2</title>
<g id="a_Node000002"><a xlink:href="classhelios_1_1rendering_1_1model_1_1Mesh.html#a0f0040d40bc06b1d36ca7ee9a7bbe2ca" target="_top" xlink:title="Returns a const reference to MeshConfig used with this Mesh. The returned MeshConfig is guaranteed to...">
<polygon fill="white" stroke="#666666" points="291,-30 148,-30 148,0 291,0 291,-30"/>
<text text-anchor="start" x="156" y="-18" font-family="Helvetica,sans-Serif" font-size="10.00">helios::rendering::</text>
<text text-anchor="middle" x="219.5" y="-7" font-family="Helvetica,sans-Serif" font-size="10.00">model::Mesh::meshConfig</text>
</a>
</g>
</g>
<!-- Node1&#45;&gt;Node2 -->
<g id="edge1_Node000001_Node000002" class="edge">
<title>Node1&#45;&gt;Node2</title>
<g id="a_edge1_Node000001_Node000002"><a xlink:title=" ">
<path fill="none" stroke="#63b8ff" d="M112.13,-15C120.4,-15 129.08,-15 137.75,-15"/>
<polygon fill="#63b8ff" stroke="#63b8ff" points="137.92,-18.5 147.92,-15 137.92,-11.5 137.92,-18.5"/>
</a>
</g>
</g>
<!-- Node2&#45;&gt;Node2 -->
<g id="edge2_Node000002_Node000002" class="edge">
<title>Node2&#45;&gt;Node2</title>
<g id="a_edge2_Node000002_Node000002"><a xlink:title=" ">
<path fill="none" stroke="#63b8ff" d="M191.02,-30.28C184.7,-39.41 194.19,-48 219.5,-48 234.53,-48 243.98,-44.97 247.86,-40.6"/>
<polygon fill="#63b8ff" stroke="#63b8ff" points="251.36,-40.32 247.98,-30.28 244.36,-40.23 251.36,-40.32"/>
</a>
</g>
</g>
</g>
</svg>
