<?xml version="1.0" encoding="UTF-8" standalone="no"?>
<!DOCTYPE svg PUBLIC "-//W3C//DTD SVG 1.1//EN"
 "http://www.w3.org/Graphics/SVG/1.1/DTD/svg11.dtd">
<!-- Generated by graphviz version 2.43.0 (0)
 -->
<!-- Title: helios::rendering::Renderable::Renderable Pages: 1 -->
<svg width="312pt" height="230pt"
 viewBox="0.00 0.00 312.00 230.00" xmlns="http://www.w3.org/2000/svg" xmlns:xlink="http://www.w3.org/1999/xlink">
<g id="graph0" class="graph" transform="scale(1 1) rotate(0) translate(4 226)">
<title>helios::rendering::Renderable::Renderable</title>
<!-- Node1 -->
<g id="Node000001" class="node">
<title>Node1</title>
<g id="a_Node000001"><a xlink:title="Deleted default constructor.">
<polygon fill="#999999" stroke="#666666" points="304,-126 170,-126 170,-96 304,-96 304,-126"/>
<text text-anchor="start" x="178" y="-114" font-family="Helvetica,sans-Serif" font-size="10.00">helios::rendering::</text>
<text text-anchor="middle" x="237" y="-103" font-family="Helvetica,sans-Serif" font-size="10.00">Renderable::Renderable</text>
</a>
</g>
</g>
<!-- Node2 -->
<g id="Node000002" class="node">
<title>Node2</title>
<g id="a_Node000002"><a xlink:href="classhelios_1_1rendering_1_1Renderable.html#adc490817c535742ed59dc691a68f440f" target="_top" xlink:title="Deleted copy assignment operator.">
<polygon fill="white" stroke="#666666" points="131,-222 3,-222 3,-192 131,-192 131,-222"/>
<text text-anchor="start" x="11" y="-210" font-family="Helvetica,sans-Serif" font-size="10.00">helios::rendering::</text>
<text text-anchor="middle" x="67" y="-199" font-family="Helvetica,sans-Serif" font-size="10.00">Renderable::operator=</text>
</a>
</g>
</g>
<!-- Node1&#45;&gt;Node2 -->
<g id="edge1_Node000001_Node000002" class="edge">
<title>Node1&#45;&gt;Node2</title>
<g id="a_edge1_Node000001_Node000002"><a xlink:title=" ">
<path fill="none" stroke="#63b8ff" d="M209.82,-132.43C189.93,-147.97 161.4,-168.68 134,-183 127.84,-186.22 121.15,-189.2 114.48,-191.88"/>
<polygon fill="#63b8ff" stroke="#63b8ff" points="212.12,-135.07 217.79,-126.12 207.78,-129.58 212.12,-135.07"/>
</a>
</g>
</g>
<!-- Node3 -->
<g id="Node000003" class="node">
<title>Node3</title>
<g id="a_Node000003"><a xlink:href="classhelios_1_1rendering_1_1Renderable.html#ac5f1ab331ba24f577a29f072701e595d" target="_top" xlink:title="Defaulted move assignment operator.">
<polygon fill="white" stroke="#666666" points="131,-174 3,-174 3,-144 131,-144 131,-174"/>
<text text-anchor="start" x="11" y="-162" font-family="Helvetica,sans-Serif" font-size="10.00">helios::rendering::</text>
<text text-anchor="middle" x="67" y="-151" font-family="Helvetica,sans-Serif" font-size="10.00">Renderable::operator=</text>
</a>
</g>
</g>
<!-- Node1&#45;&gt;Node3 -->
<g id="edge2_Node000001_Node000003" class="edge">
<title>Node1&#45;&gt;Node3</title>
<g id="a_edge2_Node000001_Node000003"><a xlink:title=" ">
<path fill="none" stroke="#63b8ff" d="M173.25,-128.93C155.89,-133.89 137.23,-139.22 120.51,-144"/>
<polygon fill="#63b8ff" stroke="#63b8ff" points="174.65,-132.17 183.3,-126.06 172.73,-125.44 174.65,-132.17"/>
</a>
</g>
</g>
<!-- Node4 -->
<g id="Node000004" class="node">
<title>Node4</title>
<g id="a_Node000004"><a xlink:href="classhelios_1_1rendering_1_1Renderable.html#a6a9406c41eca52028f9cd08a1c2c300a" target="_top" xlink:title="Deleted copy constructor.">
<polygon fill="white" stroke="#666666" points="134,-126 0,-126 0,-96 134,-96 134,-126"/>
<text text-anchor="start" x="8" y="-114" font-family="Helvetica,sans-Serif" font-size="10.00">helios::rendering::</text>
<text text-anchor="middle" x="67" y="-103" font-family="Helvetica,sans-Serif" font-size="10.00">Renderable::Renderable</text>
</a>
</g>
</g>
<!-- Node1&#45;&gt;Node4 -->
<g id="edge3_Node000001_Node000004" class="edge">
<title>Node1&#45;&gt;Node4</title>
<g id="a_edge3_Node000001_Node000004"><a xlink:title=" ">
<path fill="none" stroke="#63b8ff" d="M159.41,-111C150.99,-111 142.47,-111 134.19,-111"/>
<polygon fill="#63b8ff" stroke="#63b8ff" points="159.6,-114.5 169.6,-111 159.6,-107.5 159.6,-114.5"/>
</a>
</g>
</g>
<!-- Node5 -->
<g id="Node000005" class="node">
<title>Node5</title>
<g id="a_Node000005"><a xlink:href="classhelios_1_1rendering_1_1Renderable.html#a6d557b575fc5bd09bcb1370e5ea4b0a9" target="_top" xlink:title="Defaulted move constructor.">
<polygon fill="white" stroke="#666666" points="134,-78 0,-78 0,-48 134,-48 134,-78"/>
<text text-anchor="start" x="8" y="-66" font-family="Helvetica,sans-Serif" font-size="10.00">helios::rendering::</text>
<text text-anchor="middle" x="67" y="-55" font-family="Helvetica,sans-Serif" font-size="10.00">Renderable::Renderable</text>
</a>
</g>
</g>
<!-- Node1&#45;&gt;Node5 -->
<g id="edge4_Node000001_Node000005" class="edge">
<title>Node1&#45;&gt;Node5</title>
<g id="a_edge4_Node000001_Node000005"><a xlink:title=" ">
<path fill="none" stroke="#63b8ff" d="M173.25,-93.07C155.89,-88.11 137.23,-82.78 120.51,-78"/>
<polygon fill="#63b8ff" stroke="#63b8ff" points="172.73,-96.56 183.3,-95.94 174.65,-89.83 172.73,-96.56"/>
</a>
</g>
</g>
<!-- Node6 -->
<g id="Node000006" class="node">
<title>Node6</title>
<g id="a_Node000006"><a xlink:href="classhelios_1_1rendering_1_1Renderable.html#a528392841e8f262631950e1bde961e57" target="_top" xlink:title="Creates a new Renderable instance.">
<polygon fill="white" stroke="#666666" points="134,-30 0,-30 0,0 134,0 134,-30"/>
<text text-anchor="start" x="8" y="-18" font-family="Helvetica,sans-Serif" font-size="10.00">helios::rendering::</text>
<text text-anchor="middle" x="67" y="-7" font-family="Helvetica,sans-Serif" font-size="10.00">Renderable::Renderable</text>
</a>
</g>
</g>
<!-- Node1&#45;&gt;Node6 -->
<g id="edge5_Node000001_Node000006" class="edge">
<title>Node1&#45;&gt;Node6</title>
<g id="a_edge5_Node000001_Node000006"><a xlink:title=" ">
<path fill="none" stroke="#63b8ff" d="M209.82,-89.57C189.93,-74.03 161.4,-53.32 134,-39 127.84,-35.78 121.15,-32.8 114.48,-30.12"/>
<polygon fill="#63b8ff" stroke="#63b8ff" points="207.78,-92.42 217.79,-95.88 212.12,-86.93 207.78,-92.42"/>
</a>
</g>
</g>
</g>
</svg>
