<?xml version="1.0" encoding="UTF-8" standalone="no"?>
<!DOCTYPE svg PUBLIC "-//W3C//DTD SVG 1.1//EN"
 "http://www.w3.org/Graphics/SVG/1.1/DTD/svg11.dtd">
<!-- Generated by graphviz version 2.43.0 (0)
 -->
<!-- Title: helios::scene::SceneNode::SceneNode Pages: 1 -->
<svg width="339pt" height="674pt"
 viewBox="0.00 0.00 339.00 674.00" xmlns="http://www.w3.org/2000/svg" xmlns:xlink="http://www.w3.org/1999/xlink">
<g id="graph0" class="graph" transform="scale(1 1) rotate(0) translate(4 670)">
<title>helios::scene::SceneNode::SceneNode</title>
<!-- Node1 -->
<g id="Node000001" class="node">
<title>Node1</title>
<g id="a_Node000001"><a xlink:title="Delete copy constructor. A SceneNode is not copyable.">
<polygon fill="#999999" stroke="#666666" points="331,-348 190,-348 190,-318 331,-318 331,-348"/>
<text text-anchor="start" x="198" y="-336" font-family="Helvetica,sans-Serif" font-size="10.00">helios::scene::SceneNode</text>
<text text-anchor="middle" x="260.5" y="-325" font-family="Helvetica,sans-Serif" font-size="10.00">::SceneNode</text>
</a>
</g>
</g>
<!-- Node1&#45;&gt;Node1 -->
<g id="edge9_Node000001_Node000001" class="edge">
<title>Node1&#45;&gt;Node1</title>
<g id="a_edge9_Node000001_Node000001"><a xlink:title=" ">
<path fill="none" stroke="#63b8ff" d="M292.36,-358.6C288,-362.97 277.38,-366 260.5,-366 232.06,-366 221.4,-357.41 228.51,-348.28"/>
<polygon fill="#63b8ff" stroke="#63b8ff" points="295.86,-358.32 292.49,-348.28 288.86,-358.23 295.86,-358.32"/>
</a>
</g>
</g>
<!-- Node2 -->
<g id="Node000002" class="node">
<title>Node2</title>
<g id="a_Node000002"><a xlink:href="classhelios_1_1scene_1_1CameraSceneNode.html#a58b5b9c583ddf40dcc81793c19fc0c79" target="_top" xlink:title="Prevents adding child nodes to a camera scene node.">
<polygon fill="white" stroke="#666666" points="154,-666 0,-666 0,-636 154,-636 154,-666"/>
<text text-anchor="start" x="8" y="-654" font-family="Helvetica,sans-Serif" font-size="10.00">helios::scene::CameraScene</text>
<text text-anchor="middle" x="77" y="-643" font-family="Helvetica,sans-Serif" font-size="10.00">Node::addNode</text>
</a>
</g>
</g>
<!-- Node1&#45;&gt;Node2 -->
<g id="edge1_Node000001_Node000002" class="edge">
<title>Node1&#45;&gt;Node2</title>
<g id="a_edge1_Node000001_Node000002"><a xlink:title=" ">
<path fill="none" stroke="#63b8ff" d="M257.76,-358.52C252.52,-415.09 232.04,-551.92 154,-627 150.41,-630.45 146.33,-633.41 141.96,-635.94"/>
<polygon fill="#63b8ff" stroke="#63b8ff" points="261.27,-358.58 258.62,-348.32 254.29,-357.99 261.27,-358.58"/>
</a>
</g>
</g>
<!-- Node3 -->
<g id="Node000003" class="node">
<title>Node3</title>
<g id="a_Node000003"><a xlink:href="classhelios_1_1scene_1_1SceneNode.html#a639af371377e5279a7e644da2af05e5a" target="_top" xlink:title="Adds a new child node to this SceneNode. The node&#39;s parent is automatically set to **this** node.">
<polygon fill="white" stroke="#666666" points="147.5,-600 6.5,-600 6.5,-570 147.5,-570 147.5,-600"/>
<text text-anchor="start" x="14.5" y="-588" font-family="Helvetica,sans-Serif" font-size="10.00">helios::scene::SceneNode</text>
<text text-anchor="middle" x="77" y="-577" font-family="Helvetica,sans-Serif" font-size="10.00">::addNode</text>
</a>
</g>
</g>
<!-- Node1&#45;&gt;Node3 -->
<g id="edge2_Node000001_Node000003" class="edge">
<title>Node1&#45;&gt;Node3</title>
<g id="a_edge2_Node000001_Node000003"><a xlink:title=" ">
<path fill="none" stroke="#63b8ff" d="M254.88,-357.88C244.92,-404.56 217.03,-505.53 154,-561 150.05,-564.47 145.6,-567.44 140.89,-569.99"/>
<polygon fill="#63b8ff" stroke="#63b8ff" points="258.33,-358.51 256.89,-348.01 251.47,-357.11 258.33,-358.51"/>
</a>
</g>
</g>
<!-- Node4 -->
<g id="Node000004" class="node">
<title>Node4</title>
<g id="a_Node000004"><a xlink:href="classhelios_1_1scene_1_1SceneNode.html#a345af64a75ad370d482051006658c81e" target="_top" xlink:title="Returns a const ref to the list of this node&#39;s children.">
<polygon fill="white" stroke="#666666" points="147.5,-534 6.5,-534 6.5,-504 147.5,-504 147.5,-534"/>
<text text-anchor="start" x="14.5" y="-522" font-family="Helvetica,sans-Serif" font-size="10.00">helios::scene::SceneNode</text>
<text text-anchor="middle" x="77" y="-511" font-family="Helvetica,sans-Serif" font-size="10.00">::children</text>
</a>
</g>
</g>
<!-- Node1&#45;&gt;Node4 -->
<g id="edge4_Node000001_Node000004" class="edge">
<title>Node1&#45;&gt;Node4</title>
<g id="a_edge4_Node000001_Node000004"><a xlink:title=" ">
<path fill="none" stroke="#63b8ff" d="M249.67,-358.11C234.47,-393.72 201.92,-458.59 154,-495 149.48,-498.43 144.46,-501.38 139.22,-503.91"/>
<polygon fill="#63b8ff" stroke="#63b8ff" points="253.07,-359.05 253.66,-348.47 246.6,-356.37 253.07,-359.05"/>
</a>
</g>
</g>
<!-- Node5 -->
<g id="Node000005" class="node">
<title>Node5</title>
<g id="a_Node000005"><a xlink:href="classhelios_1_1scene_1_1SceneNode.html#a7cc7b1c8b3b57927c9d33abd8f652964" target="_top" xlink:title="Delete copy assignment operator.">
<polygon fill="white" stroke="#666666" points="147.5,-486 6.5,-486 6.5,-456 147.5,-456 147.5,-486"/>
<text text-anchor="start" x="14.5" y="-474" font-family="Helvetica,sans-Serif" font-size="10.00">helios::scene::SceneNode</text>
<text text-anchor="middle" x="77" y="-463" font-family="Helvetica,sans-Serif" font-size="10.00">::operator=</text>
</a>
</g>
</g>
<!-- Node1&#45;&gt;Node5 -->
<g id="edge6_Node000001_Node000005" class="edge">
<title>Node1&#45;&gt;Node5</title>
<g id="a_edge6_Node000001_Node000005"><a xlink:title=" ">
<path fill="none" stroke="#63b8ff" d="M243.4,-356.71C224.74,-382.47 191.69,-423.11 154,-447 148.62,-450.41 142.73,-453.37 136.67,-455.93"/>
<polygon fill="#63b8ff" stroke="#63b8ff" points="246.45,-358.46 249.38,-348.28 240.74,-354.41 246.45,-358.46"/>
</a>
</g>
</g>
<!-- Node6 -->
<g id="Node000006" class="node">
<title>Node6</title>
<g id="a_Node000006"><a xlink:href="classhelios_1_1scene_1_1SceneNode.html#a4e31b52717a76a9bae9a80a1db0b808b" target="_top" xlink:title="Returns a pointer to this node&#39;s parent node.">
<polygon fill="white" stroke="#666666" points="147.5,-420 6.5,-420 6.5,-390 147.5,-390 147.5,-420"/>
<text text-anchor="start" x="14.5" y="-408" font-family="Helvetica,sans-Serif" font-size="10.00">helios::scene::SceneNode</text>
<text text-anchor="middle" x="77" y="-397" font-family="Helvetica,sans-Serif" font-size="10.00">::parent</text>
</a>
</g>
</g>
<!-- Node1&#45;&gt;Node6 -->
<g id="edge7_Node000001_Node000006" class="edge">
<title>Node1&#45;&gt;Node6</title>
<g id="a_edge7_Node000001_Node000006"><a xlink:title=" ">
<path fill="none" stroke="#63b8ff" d="M219.77,-352.45C200.21,-361.68 176.12,-372.51 154,-381 145.86,-384.12 137.13,-387.16 128.58,-389.97"/>
<polygon fill="#63b8ff" stroke="#63b8ff" points="221.46,-355.53 228.99,-348.07 218.45,-349.2 221.46,-355.53"/>
</a>
</g>
</g>
<!-- Node7 -->
<g id="Node000007" class="node">
<title>Node7</title>
<g id="a_Node000007"><a xlink:href="classhelios_1_1scene_1_1SceneNode.html#a1a7a726c994dd5b29a0719f45845ccb0" target="_top" xlink:title="Constructs a new SceneNode that represents no renderable object. Nodes constructed in this way should...">
<polygon fill="white" stroke="#666666" points="147.5,-372 6.5,-372 6.5,-342 147.5,-342 147.5,-372"/>
<text text-anchor="start" x="14.5" y="-360" font-family="Helvetica,sans-Serif" font-size="10.00">helios::scene::SceneNode</text>
<text text-anchor="middle" x="77" y="-349" font-family="Helvetica,sans-Serif" font-size="10.00">::SceneNode</text>
</a>
</g>
</g>
<!-- Node1&#45;&gt;Node7 -->
<g id="edge10_Node000001_Node000007" class="edge">
<title>Node1&#45;&gt;Node7</title>
<g id="a_edge10_Node000001_Node000007"><a xlink:title=" ">
<path fill="none" stroke="#63b8ff" d="M179.72,-343.55C169.08,-344.96 158.22,-346.39 147.77,-347.77"/>
<polygon fill="#63b8ff" stroke="#63b8ff" points="180.39,-346.99 189.85,-342.21 179.47,-340.05 180.39,-346.99"/>
</a>
</g>
</g>
<!-- Node8 -->
<g id="Node000008" class="node">
<title>Node8</title>
<g id="a_Node000008"><a xlink:href="classhelios_1_1scene_1_1SceneNode.html#af2af3ad7c17ecf2a693724deed12ce02" target="_top" xlink:title="Constructs a new SceneNode representing a renderable object.">
<polygon fill="white" stroke="#666666" points="147.5,-324 6.5,-324 6.5,-294 147.5,-294 147.5,-324"/>
<text text-anchor="start" x="14.5" y="-312" font-family="Helvetica,sans-Serif" font-size="10.00">helios::scene::SceneNode</text>
<text text-anchor="middle" x="77" y="-301" font-family="Helvetica,sans-Serif" font-size="10.00">::SceneNode</text>
</a>
</g>
</g>
<!-- Node1&#45;&gt;Node8 -->
<g id="edge11_Node000001_Node000008" class="edge">
<title>Node1&#45;&gt;Node8</title>
<g id="a_edge11_Node000001_Node000008"><a xlink:title=" ">
<path fill="none" stroke="#63b8ff" d="M179.72,-322.45C169.08,-321.04 158.22,-319.61 147.77,-318.23"/>
<polygon fill="#63b8ff" stroke="#63b8ff" points="179.47,-325.95 189.85,-323.79 180.39,-319.01 179.47,-325.95"/>
</a>
</g>
</g>
<!-- Node9 -->
<g id="Node000009" class="node">
<title>Node9</title>
<g id="a_Node000009"><a xlink:href="classhelios_1_1scene_1_1SceneNode.html#ac391d6973219428d9048caffe721cfb1" target="_top" xlink:title="Constructs a new SceneNode representing a renderable object.">
<polygon fill="white" stroke="#666666" points="147.5,-276 6.5,-276 6.5,-246 147.5,-246 147.5,-276"/>
<text text-anchor="start" x="14.5" y="-264" font-family="Helvetica,sans-Serif" font-size="10.00">helios::scene::SceneNode</text>
<text text-anchor="middle" x="77" y="-253" font-family="Helvetica,sans-Serif" font-size="10.00">::SceneNode</text>
</a>
</g>
</g>
<!-- Node1&#45;&gt;Node9 -->
<g id="edge12_Node000001_Node000009" class="edge">
<title>Node1&#45;&gt;Node9</title>
<g id="a_edge12_Node000001_Node000009"><a xlink:title=" ">
<path fill="none" stroke="#63b8ff" d="M219.77,-313.55C200.21,-304.32 176.12,-293.49 154,-285 145.86,-281.88 137.13,-278.84 128.58,-276.03"/>
<polygon fill="#63b8ff" stroke="#63b8ff" points="218.45,-316.8 228.99,-317.93 221.46,-310.47 218.45,-316.8"/>
</a>
</g>
</g>
<!-- Node10 -->
<g id="Node000010" class="node">
<title>Node10</title>
<g id="a_Node000010"><a xlink:href="classhelios_1_1scene_1_1SceneNode.html#a8e150f0c631aa964846dc20cd627b538" target="_top" xlink:title="Sets the parent of this SceneNode. Internally used once a child was added to this SceneNode.">
<polygon fill="white" stroke="#666666" points="147.5,-228 6.5,-228 6.5,-198 147.5,-198 147.5,-228"/>
<text text-anchor="start" x="14.5" y="-216" font-family="Helvetica,sans-Serif" font-size="10.00">helios::scene::SceneNode</text>
<text text-anchor="middle" x="77" y="-205" font-family="Helvetica,sans-Serif" font-size="10.00">::setParent</text>
</a>
</g>
</g>
<!-- Node1&#45;&gt;Node10 -->
<g id="edge13_Node000001_Node000010" class="edge">
<title>Node1&#45;&gt;Node10</title>
<g id="a_edge13_Node000001_Node000010"><a xlink:title=" ">
<path fill="none" stroke="#63b8ff" d="M239.8,-310.08C220.09,-288.44 187.88,-256.49 154,-237 148.12,-233.62 141.71,-230.65 135.19,-228.07"/>
<polygon fill="#63b8ff" stroke="#63b8ff" points="237.45,-312.7 246.73,-317.82 242.67,-308.03 237.45,-312.7"/>
</a>
</g>
</g>
<!-- Node11 -->
<g id="Node000011" class="node">
<title>Node11</title>
<g id="a_Node000011"><a xlink:href="classhelios_1_1scene_1_1SceneNode.html#acac79a13bb5bb933c3f9c230a98d3daf" target="_top" xlink:title="Applies rotation to this node&#39;s **local** transform. Marks the node dirty. Implementing APIs should c...">
<polygon fill="white" stroke="#666666" points="147.5,-162 6.5,-162 6.5,-132 147.5,-132 147.5,-162"/>
<text text-anchor="start" x="14.5" y="-150" font-family="Helvetica,sans-Serif" font-size="10.00">helios::scene::SceneNode</text>
<text text-anchor="middle" x="77" y="-139" font-family="Helvetica,sans-Serif" font-size="10.00">::setRotation</text>
</a>
</g>
</g>
<!-- Node1&#45;&gt;Node11 -->
<g id="edge14_Node000001_Node000011" class="edge">
<title>Node1&#45;&gt;Node11</title>
<g id="a_edge14_Node000001_Node000011"><a xlink:title=" ">
<path fill="none" stroke="#63b8ff" d="M246.42,-309.11C228.67,-278.35 194.48,-224.63 154,-189 141.78,-178.24 126.34,-169.09 112.58,-162.1"/>
<polygon fill="#63b8ff" stroke="#63b8ff" points="243.41,-310.9 251.39,-317.87 249.5,-307.45 243.41,-310.9"/>
</a>
</g>
</g>
<!-- Node12 -->
<g id="Node000012" class="node">
<title>Node12</title>
<g id="a_Node000012"><a xlink:href="classhelios_1_1scene_1_1SceneNode.html#aa61104006dc48bc2a57dbe6fc6cbcb5b" target="_top" xlink:title="Applies a scaling transformation to this node&#39;s **local** transform. Marks the node dirty....">
<polygon fill="white" stroke="#666666" points="147.5,-96 6.5,-96 6.5,-66 147.5,-66 147.5,-96"/>
<text text-anchor="start" x="14.5" y="-84" font-family="Helvetica,sans-Serif" font-size="10.00">helios::scene::SceneNode</text>
<text text-anchor="middle" x="77" y="-73" font-family="Helvetica,sans-Serif" font-size="10.00">::setScale</text>
</a>
</g>
</g>
<!-- Node1&#45;&gt;Node12 -->
<g id="edge16_Node000001_Node000012" class="edge">
<title>Node1&#45;&gt;Node12</title>
<g id="a_edge16_Node000001_Node000012"><a xlink:title=" ">
<path fill="none" stroke="#63b8ff" d="M252.39,-308.17C239.16,-265.69 207.18,-178.31 154,-123 143.24,-111.81 128.83,-102.82 115.46,-96.08"/>
<polygon fill="#63b8ff" stroke="#63b8ff" points="249.1,-309.4 255.35,-317.95 255.8,-307.37 249.1,-309.4"/>
</a>
</g>
</g>
<!-- Node13 -->
<g id="Node000013" class="node">
<title>Node13</title>
<g id="a_Node000013"><a xlink:href="classhelios_1_1scene_1_1SceneNode.html#a1f08f342381c9ad0f2d5d8b88c450229" target="_top" xlink:title="Applies translation to this node&#39;s **local** transform. Marks the node dirty. Implementing APIs shoul...">
<polygon fill="white" stroke="#666666" points="147.5,-30 6.5,-30 6.5,0 147.5,0 147.5,-30"/>
<text text-anchor="start" x="14.5" y="-18" font-family="Helvetica,sans-Serif" font-size="10.00">helios::scene::SceneNode</text>
<text text-anchor="middle" x="77" y="-7" font-family="Helvetica,sans-Serif" font-size="10.00">::setTranslation</text>
</a>
</g>
</g>
<!-- Node1&#45;&gt;Node13 -->
<g id="edge18_Node000001_Node000013" class="edge">
<title>Node1&#45;&gt;Node13</title>
<g id="a_edge18_Node000001_Node000013"><a xlink:title=" ">
<path fill="none" stroke="#63b8ff" d="M255.83,-307.92C247.03,-255.58 220.29,-133.27 154,-57 144.11,-45.62 130.35,-36.72 117.25,-30.11"/>
<polygon fill="#63b8ff" stroke="#63b8ff" points="252.41,-308.67 257.45,-317.99 259.32,-307.56 252.41,-308.67"/>
</a>
</g>
</g>
<!-- Node3&#45;&gt;Node3 -->
<g id="edge3_Node000003_Node000003" class="edge">
<title>Node3&#45;&gt;Node3</title>
<g id="a_edge3_Node000003_Node000003"><a xlink:title=" ">
<path fill="none" stroke="#63b8ff" d="M108.86,-610.6C104.5,-614.97 93.88,-618 77,-618 48.56,-618 37.9,-609.41 45.01,-600.28"/>
<polygon fill="#63b8ff" stroke="#63b8ff" points="112.36,-610.32 108.99,-600.28 105.36,-610.23 112.36,-610.32"/>
</a>
</g>
</g>
<!-- Node4&#45;&gt;Node4 -->
<g id="edge5_Node000004_Node000004" class="edge">
<title>Node4&#45;&gt;Node4</title>
<g id="a_edge5_Node000004_Node000004"><a xlink:title=" ">
<path fill="none" stroke="#63b8ff" d="M108.86,-544.6C104.5,-548.97 93.88,-552 77,-552 48.56,-552 37.9,-543.41 45.01,-534.28"/>
<polygon fill="#63b8ff" stroke="#63b8ff" points="112.36,-544.32 108.99,-534.28 105.36,-544.23 112.36,-544.32"/>
</a>
</g>
</g>
<!-- Node6&#45;&gt;Node6 -->
<g id="edge8_Node000006_Node000006" class="edge">
<title>Node6&#45;&gt;Node6</title>
<g id="a_edge8_Node000006_Node000006"><a xlink:title=" ">
<path fill="none" stroke="#63b8ff" d="M108.86,-430.6C104.5,-434.97 93.88,-438 77,-438 48.56,-438 37.9,-429.41 45.01,-420.28"/>
<polygon fill="#63b8ff" stroke="#63b8ff" points="112.36,-430.32 108.99,-420.28 105.36,-430.23 112.36,-430.32"/>
</a>
</g>
</g>
<!-- Node11&#45;&gt;Node11 -->
<g id="edge15_Node000011_Node000011" class="edge">
<title>Node11&#45;&gt;Node11</title>
<g id="a_edge15_Node000011_Node000011"><a xlink:title=" ">
<path fill="none" stroke="#63b8ff" d="M108.86,-172.6C104.5,-176.97 93.88,-180 77,-180 48.56,-180 37.9,-171.41 45.01,-162.28"/>
<polygon fill="#63b8ff" stroke="#63b8ff" points="112.36,-172.32 108.99,-162.28 105.36,-172.23 112.36,-172.32"/>
</a>
</g>
</g>
<!-- Node12&#45;&gt;Node12 -->
<g id="edge17_Node000012_Node000012" class="edge">
<title>Node12&#45;&gt;Node12</title>
<g id="a_edge17_Node000012_Node000012"><a xlink:title=" ">
<path fill="none" stroke="#63b8ff" d="M108.86,-106.6C104.5,-110.97 93.88,-114 77,-114 48.56,-114 37.9,-105.41 45.01,-96.28"/>
<polygon fill="#63b8ff" stroke="#63b8ff" points="112.36,-106.32 108.99,-96.28 105.36,-106.23 112.36,-106.32"/>
</a>
</g>
</g>
<!-- Node13&#45;&gt;Node13 -->
<g id="edge19_Node000013_Node000013" class="edge">
<title>Node13&#45;&gt;Node13</title>
<g id="a_edge19_Node000013_Node000013"><a xlink:title=" ">
<path fill="none" stroke="#63b8ff" d="M108.86,-40.6C104.5,-44.97 93.88,-48 77,-48 48.56,-48 37.9,-39.41 45.01,-30.28"/>
<polygon fill="#63b8ff" stroke="#63b8ff" points="112.36,-40.32 108.99,-30.28 105.36,-40.23 112.36,-40.32"/>
</a>
</g>
</g>
</g>
</svg>
