<?xml version="1.0" encoding="UTF-8" standalone="no"?>
<!DOCTYPE svg PUBLIC "-//W3C//DTD SVG 1.1//EN"
 "http://www.w3.org/Graphics/SVG/1.1/DTD/svg11.dtd">
<!-- Generated by graphviz version 2.43.0 (0)
 -->
<!-- Title: helios::engine::game::components::gameplay::ShootComponent::update Pages: 1 -->
<svg width="687pt" height="67pt"
 viewBox="0.00 0.00 687.00 67.00" xmlns="http://www.w3.org/2000/svg" xmlns:xlink="http://www.w3.org/1999/xlink">
<g id="graph0" class="graph" transform="scale(1 1) rotate(0) translate(4 63)">
<title>helios::engine::game::components::gameplay::ShootComponent::update</title>
<!-- Node1 -->
<g id="Node000001" class="node">
<title>Node1</title>
<g id="a_Node000001"><a xlink:title="Updates the component, spawning projectiles when ready.">
<polygon fill="#999999" stroke="#666666" points="146,-46.5 0,-46.5 0,-5.5 146,-5.5 146,-46.5"/>
<text text-anchor="start" x="8" y="-34.5" font-family="Helvetica,sans-Serif" font-size="10.00">helios::engine::game</text>
<text text-anchor="start" x="8" y="-23.5" font-family="Helvetica,sans-Serif" font-size="10.00">::components::gameplay</text>
<text text-anchor="middle" x="73" y="-12.5" font-family="Helvetica,sans-Serif" font-size="10.00">::ShootComponent::update</text>
</a>
</g>
</g>
<!-- Node2 -->
<g id="Node000002" class="node">
<title>Node2</title>
<g id="a_Node000002"><a xlink:href="classhelios_1_1engine_1_1game_1_1systems_1_1gameplay_1_1ProjectilePoolSystem.html#a211dd83f0fdffdb4c106fdd0a9466867" target="_top" xlink:title="Spawns a projectile from the pool at the given position with muzzleVelocity.">
<polygon fill="white" stroke="#666666" points="340,-46.5 182,-46.5 182,-5.5 340,-5.5 340,-46.5"/>
<text text-anchor="start" x="190" y="-34.5" font-family="Helvetica,sans-Serif" font-size="10.00">helios::engine::game</text>
<text text-anchor="start" x="190" y="-23.5" font-family="Helvetica,sans-Serif" font-size="10.00">::systems::gameplay::</text>
<text text-anchor="middle" x="261" y="-12.5" font-family="Helvetica,sans-Serif" font-size="10.00">ProjectilePoolSystem::spawn</text>
</a>
</g>
</g>
<!-- Node1&#45;&gt;Node2 -->
<g id="edge1_Node000001_Node000002" class="edge">
<title>Node1&#45;&gt;Node2</title>
<g id="a_edge1_Node000001_Node000002"><a xlink:title=" ">
<path fill="none" stroke="#63b8ff" d="M146.18,-26C154.45,-26 162.96,-26 171.42,-26"/>
<polygon fill="#63b8ff" stroke="#63b8ff" points="171.7,-29.5 181.7,-26 171.7,-22.5 171.7,-29.5"/>
</a>
</g>
</g>
<!-- Node3 -->
<g id="Node000003" class="node">
<title>Node3</title>
<g id="a_Node000003"><a xlink:href="classhelios_1_1engine_1_1game_1_1systems_1_1gameplay_1_1ProjectilePoolSystem.html#a2a64b5c683b4ff6fb6dfac8f64acab39" target="_top" xlink:title=" ">
<polygon fill="white" stroke="#666666" points="502,-52 376,-52 376,0 502,0 502,-52"/>
<text text-anchor="start" x="384" y="-40" font-family="Helvetica,sans-Serif" font-size="10.00">helios::engine::game</text>
<text text-anchor="start" x="384" y="-29" font-family="Helvetica,sans-Serif" font-size="10.00">::systems::gameplay::</text>
<text text-anchor="start" x="384" y="-18" font-family="Helvetica,sans-Serif" font-size="10.00">ProjectilePoolSystem::</text>
<text text-anchor="middle" x="439" y="-7" font-family="Helvetica,sans-Serif" font-size="10.00">prepareProjectiles</text>
</a>
</g>
</g>
<!-- Node2&#45;&gt;Node3 -->
<g id="edge2_Node000002_Node000003" class="edge">
<title>Node2&#45;&gt;Node3</title>
<g id="a_edge2_Node000002_Node000003"><a xlink:title=" ">
<path fill="none" stroke="#63b8ff" d="M340.22,-26C348.71,-26 357.31,-26 365.72,-26"/>
<polygon fill="#63b8ff" stroke="#63b8ff" points="365.86,-29.5 375.86,-26 365.86,-22.5 365.86,-29.5"/>
</a>
</g>
</g>
<!-- Node4 -->
<g id="Node000004" class="node">
<title>Node4</title>
<g id="a_Node000004"><a xlink:href="classhelios_1_1scene_1_1SceneNode.html#a1020ca70c5268619a3bdfb3acb843e34" target="_top" xlink:title="Returns the axis&#45;aligned bounding box for this SceneNode in world coordinates.">
<polygon fill="white" stroke="#666666" points="679,-41 538,-41 538,-11 679,-11 679,-41"/>
<text text-anchor="start" x="546" y="-29" font-family="Helvetica,sans-Serif" font-size="10.00">helios::scene::SceneNode</text>
<text text-anchor="middle" x="608.5" y="-18" font-family="Helvetica,sans-Serif" font-size="10.00">::aabb</text>
</a>
</g>
</g>
<!-- Node3&#45;&gt;Node4 -->
<g id="edge3_Node000003_Node000004" class="edge">
<title>Node3&#45;&gt;Node4</title>
<g id="a_edge3_Node000003_Node000004"><a xlink:title=" ">
<path fill="none" stroke="#63b8ff" d="M502.37,-26C510.57,-26 519.06,-26 527.5,-26"/>
<polygon fill="#63b8ff" stroke="#63b8ff" points="527.75,-29.5 537.75,-26 527.75,-22.5 527.75,-29.5"/>
</a>
</g>
</g>
<!-- Node4&#45;&gt;Node4 -->
<g id="edge4_Node000004_Node000004" class="edge">
<title>Node4&#45;&gt;Node4</title>
<g id="a_edge4_Node000004_Node000004"><a xlink:title=" ">
<path fill="none" stroke="#63b8ff" d="M578.97,-41.28C572.41,-50.41 582.25,-59 608.5,-59 624.09,-59 633.89,-55.97 637.91,-51.6"/>
<polygon fill="#63b8ff" stroke="#63b8ff" points="641.41,-51.32 638.03,-41.28 634.41,-51.23 641.41,-51.32"/>
</a>
</g>
</g>
</g>
</svg>
