<?xml version="1.0" encoding="UTF-8" standalone="no"?>
<!DOCTYPE svg PUBLIC "-//W3C//DTD SVG 1.1//EN"
 "http://www.w3.org/Graphics/SVG/1.1/DTD/svg11.dtd">
<!-- Generated by graphviz version 2.43.0 (0)
 -->
<!-- Title: helios::ext::glfw::window::GLFWWindow::setWindowUserPointer Pages: 1 -->
<svg width="308pt" height="67pt"
 viewBox="0.00 0.00 308.00 67.00" xmlns="http://www.w3.org/2000/svg" xmlns:xlink="http://www.w3.org/1999/xlink">
<g id="graph0" class="graph" transform="scale(1 1) rotate(0) translate(4 63)">
<title>helios::ext::glfw::window::GLFWWindow::setWindowUserPointer</title>
<!-- Node1 -->
<g id="Node000001" class="node">
<title>Node1</title>
<g id="a_Node000001"><a xlink:title="Sets the user&#45;defined pointer for his GLFWWindow.">
<polygon fill="#999999" stroke="#666666" points="132,-41 0,-41 0,0 132,0 132,-41"/>
<text text-anchor="start" x="8" y="-29" font-family="Helvetica,sans-Serif" font-size="10.00">helios::ext::glfw::</text>
<text text-anchor="start" x="8" y="-18" font-family="Helvetica,sans-Serif" font-size="10.00">window::GLFWWindow::</text>
<text text-anchor="middle" x="66" y="-7" font-family="Helvetica,sans-Serif" font-size="10.00">setWindowUserPointer</text>
</a>
</g>
</g>
<!-- Node1&#45;&gt;Node1 -->
<g id="edge1_Node000001_Node000001" class="edge">
<title>Node1&#45;&gt;Node1</title>
<g id="a_edge1_Node000001_Node000001"><a xlink:title=" ">
<path fill="none" stroke="#63b8ff" d="M35.12,-41.1C31.75,-50.65 42.05,-59 66,-59 80.97,-59 90.61,-55.74 94.9,-50.96"/>
<polygon fill="#63b8ff" stroke="#63b8ff" points="98.35,-51.59 96.88,-41.1 91.48,-50.22 98.35,-51.59"/>
</a>
</g>
</g>
<!-- Node2 -->
<g id="Node000002" class="node">
<title>Node2</title>
<g id="a_Node000002"><a xlink:href="classhelios_1_1ext_1_1glfw_1_1window_1_1GLFWWindow.html#a7af89366a1d6c25a7db318172697a491" target="_top" xlink:title="Returns a const reference to the `GLFWWindowUserPointer` managed by this class.">
<polygon fill="white" stroke="#666666" points="300,-41 168,-41 168,0 300,0 300,-41"/>
<text text-anchor="start" x="176" y="-29" font-family="Helvetica,sans-Serif" font-size="10.00">helios::ext::glfw::</text>
<text text-anchor="start" x="176" y="-18" font-family="Helvetica,sans-Serif" font-size="10.00">window::GLFWWindow::</text>
<text text-anchor="middle" x="234" y="-7" font-family="Helvetica,sans-Serif" font-size="10.00">windowUserPointer</text>
</a>
</g>
</g>
<!-- Node1&#45;&gt;Node2 -->
<g id="edge2_Node000001_Node000002" class="edge">
<title>Node1&#45;&gt;Node2</title>
<g id="a_edge2_Node000001_Node000002"><a xlink:title=" ">
<path fill="none" stroke="#63b8ff" d="M132.13,-20.5C140.46,-20.5 149.04,-20.5 157.52,-20.5"/>
<polygon fill="#63b8ff" stroke="#63b8ff" points="157.78,-24 167.78,-20.5 157.78,-17 157.78,-24"/>
</a>
</g>
</g>
<!-- Node2&#45;&gt;Node2 -->
<g id="edge3_Node000002_Node000002" class="edge">
<title>Node2&#45;&gt;Node2</title>
<g id="a_edge3_Node000002_Node000002"><a xlink:title=" ">
<path fill="none" stroke="#63b8ff" d="M203.12,-41.1C199.75,-50.65 210.05,-59 234,-59 248.97,-59 258.61,-55.74 262.9,-50.96"/>
<polygon fill="#63b8ff" stroke="#63b8ff" points="266.35,-51.59 264.88,-41.1 259.48,-50.22 266.35,-51.59"/>
</a>
</g>
</g>
</g>
</svg>
