<?xml version="1.0" encoding="UTF-8" standalone="no"?>
<!DOCTYPE svg PUBLIC "-//W3C//DTD SVG 1.1//EN"
 "http://www.w3.org/Graphics/SVG/1.1/DTD/svg11.dtd">
<!-- Generated by graphviz version 2.43.0 (0)
 -->
<!-- Title: helios::scene::SceneNode Pages: 1 -->
<svg width="210pt" height="99pt"
 viewBox="0.00 0.00 210.00 99.00" xmlns="http://www.w3.org/2000/svg" xmlns:xlink="http://www.w3.org/1999/xlink">
<g id="graph0" class="graph" transform="scale(1 1) rotate(0) translate(4 95)">
<title>helios::scene::SceneNode</title>
<!-- Node1 -->
<g id="Node000001" class="node">
<title>Node1</title>
<g id="a_Node000001"><a xlink:title="Represents a SceneNode within a SceneGraph.">
<polygon fill="#999999" stroke="#666666" points="141,-19 0,-19 0,0 141,0 141,-19"/>
<text text-anchor="middle" x="70.5" y="-7" font-family="Helvetica,sans-Serif" font-size="10.00">helios::scene::SceneNode</text>
</a>
</g>
</g>
<!-- Node1&#45;&gt;Node1 -->
<g id="edge1_Node000001_Node000001" class="edge">
<title>Node1&#45;&gt;Node1</title>
<g id="a_edge1_Node000001_Node000001"><a xlink:title=" ">
<path fill="none" stroke="#9a32cd" stroke-dasharray="5,2" d="M151.55,-14.09C156.21,-12.99 159,-11.46 159,-9.5 159,-6.37 151.87,-4.33 141.33,-3.38"/>
<polygon fill="#9a32cd" stroke="#9a32cd" points="150.7,-10.68 141.33,-15.62 151.73,-17.6 150.7,-10.68"/>
</a>
</g>
<text text-anchor="start" x="162.5" y="-6.5" font-family="Helvetica,sans-Serif" font-size="10.00" fill="grey">parent_</text>
</g>
<!-- Node2 -->
<g id="Node000002" class="node">
<title>Node2</title>
<g id="a_Node000002"><a xlink:href="classhelios_1_1scene_1_1Transform.html" target="_top" xlink:title="Represents a 3D transformation consisting of translation, rotation and scale.">
<polygon fill="white" stroke="#666666" points="138,-91 3,-91 3,-72 138,-72 138,-91"/>
<text text-anchor="middle" x="70.5" y="-79" font-family="Helvetica,sans-Serif" font-size="10.00">helios::scene::Transform</text>
</a>
</g>
</g>
<!-- Node2&#45;&gt;Node1 -->
<g id="edge2_Node000001_Node000002" class="edge">
<title>Node2&#45;&gt;Node1</title>
<g id="a_edge2_Node000001_Node000002"><a xlink:title=" ">
<path fill="none" stroke="#9a32cd" stroke-dasharray="5,2" d="M70.5,-61.58C70.5,-47.76 70.5,-29.68 70.5,-19.15"/>
<polygon fill="#9a32cd" stroke="#9a32cd" points="67,-61.92 70.5,-71.92 74,-61.92 67,-61.92"/>
</a>
</g>
<text text-anchor="start" x="73.5" y="-42.5" font-family="Helvetica,sans-Serif" font-size="10.00" fill="grey">localTransform_</text>
</g>
</g>
</svg>
