<?xml version="1.0" encoding="UTF-8" standalone="no"?>
<!DOCTYPE svg PUBLIC "-//W3C//DTD SVG 1.1//EN"
 "http://www.w3.org/Graphics/SVG/1.1/DTD/svg11.dtd">
<!-- Generated by graphviz version 2.43.0 (0)
 -->
<!-- Title: helios::engine::game::systems::gameplay::ProjectilePoolSystem Pages: 1 -->
<!--zoomable 242 -->

<svg id="main" version="1.1" xmlns="http://www.w3.org/2000/svg" xmlns:xlink="http://www.w3.org/1999/xlink" xml:space="preserve" onload="init(evt)">

<style type="text/css"><![CDATA[
.node, .edge {opacity: 0.7;}
.node.selected, .edge.selected {opacity: 1;}
.edge:hover path { stroke: red; }
.edge:hover polygon { stroke: red; fill: red; }
]]></style>

<defs>
  <circle id="rim" cx="0" cy="0" r="7"/>
  <circle id="rim2" cx="0" cy="0" r="3.5"/>
  <g id="zoomPlus">
    <use xlink:href="#rim" fill="#404040"><set attributeName="fill" to="#808080" begin="zoomplus.mouseover" end="zoomplus.mouseout"/></use>
    <path d="M-4,0h8M0,-4v8" fill="none" stroke="white" stroke-width="1.5" pointer-events="none"/>
  </g>
  <g id="zoomMin">
    <use xlink:href="#rim" fill="#404040"><set attributeName="fill" to="#808080" begin="zoomminus.mouseover" end="zoomminus.mouseout"/></use>
    <path d="M-4,0h8" fill="none" stroke="white" stroke-width="1.5" pointer-events="none"/>
  </g>
  <g id="arrowUp" transform="translate(30 24)">
    <use xlink:href="#rim"/>
    <path pointer-events="none" fill="none" stroke="white" stroke-width="1.5" d="M0,-3.0v7 M-2.5,-0.5L0,-3.0L2.5,-0.5"/>
  </g>
  <g id="arrowRight" transform="rotate(90) translate(36 -43)">
    <use xlink:href="#rim"/>
    <path pointer-events="none" fill="none" stroke="white" stroke-width="1.5" d="M0,-3.0v7 M-2.5,-0.5L0,-3.0L2.5,-0.5"/>
  </g>
  <g id="arrowDown" transform="rotate(180) translate(-30 -48)">
    <use xlink:href="#rim"/>
    <path pointer-events="none" fill="none" stroke="white" stroke-width="1.5" d="M0,-3.0v7 M-2.5,-0.5L0,-3.0L2.5,-0.5"/>
  </g>
  <g id="arrowLeft" transform="rotate(270) translate(-36 17)">
    <use xlink:href="#rim"/>
    <path pointer-events="none" fill="none" stroke="white" stroke-width="1.5" d="M0,-3.0v7 M-2.5,-0.5L0,-3.0L2.5,-0.5"/>
  </g>
  <g id="resetDef">
    <use xlink:href="#rim2" fill="#404040"><set attributeName="fill" to="#808080" begin="reset.mouseover" end="reset.mouseout"/></use>
  </g>
</defs>
<script type="application/ecmascript">
var viewWidth = 1084;
var viewHeight = 242;
var sectionId = 'dynsection-1';
</script>
<script type="application/ecmascript" xlink:href="svg.min.js"/>
<svg id="graph" class="graph">
<g id="viewport">
<title>helios::engine::game::systems::gameplay::ProjectilePoolSystem</title>
<!-- Node1 -->
<g id="Node000001" class="node">
<title>Node1</title>
<g id="a_Node000001"><a xlink:title="Object pool system for efficient projectile spawning and lifecycle management.">
<polygon fill="#999999" stroke="#666666" points="1076,-140 952,-140 952,-99 1076,-99 1076,-140"/>
<text text-anchor="start" x="960" y="-128" font-family="Helvetica,sans-Serif" font-size="10.00">helios::engine::game</text>
<text text-anchor="start" x="960" y="-117" font-family="Helvetica,sans-Serif" font-size="10.00">::systems::gameplay::</text>
<text text-anchor="middle" x="1014" y="-106" font-family="Helvetica,sans-Serif" font-size="10.00">ProjectilePoolSystem</text>
</a>
</g>
</g>
<!-- Node2 -->
<g id="Node000002" class="node">
<title>Node2</title>
<g id="a_Node000002"><a xlink:href="classhelios_1_1engine_1_1game_1_1System.html" target="_top" xlink:title="Abstract base class for game systems.">
<polygon fill="white" stroke="#666666" points="785,-201.5 666,-201.5 666,-171.5 785,-171.5 785,-201.5"/>
<text text-anchor="start" x="674" y="-189.5" font-family="Helvetica,sans-Serif" font-size="10.00">helios::engine::game</text>
<text text-anchor="middle" x="725.5" y="-178.5" font-family="Helvetica,sans-Serif" font-size="10.00">::System</text>
</a>
</g>
</g>
<!-- Node2&#45;&gt;Node1 -->
<g id="edge1_Node000001_Node000002" class="edge">
<title>Node2&#45;&gt;Node1</title>
<g id="a_edge1_Node000001_Node000002"><a xlink:title=" ">
<path fill="none" stroke="#63b8ff" d="M795.44,-178.1C836.19,-172.26 888.56,-163.22 934,-150.5 944.22,-147.64 954.93,-143.94 965.06,-140.09"/>
<polygon fill="#63b8ff" stroke="#63b8ff" points="794.76,-174.67 785.34,-179.52 795.73,-181.6 794.76,-174.67"/>
</a>
</g>
</g>
<!-- Node3 -->
<g id="Node000003" class="node">
<title>Node3</title>
<g id="a_Node000003"><a xlink:href="classhelios_1_1engine_1_1game_1_1Updatable.html" target="_top" xlink:title="Interface for components that require per&#45;frame updates.">
<polygon fill="white" stroke="#666666" points="543,-233.5 424,-233.5 424,-203.5 543,-203.5 543,-233.5"/>
<text text-anchor="start" x="432" y="-221.5" font-family="Helvetica,sans-Serif" font-size="10.00">helios::engine::game</text>
<text text-anchor="middle" x="483.5" y="-210.5" font-family="Helvetica,sans-Serif" font-size="10.00">::Updatable</text>
</a>
</g>
</g>
<!-- Node3&#45;&gt;Node2 -->
<g id="edge2_Node000002_Node000003" class="edge">
<title>Node3&#45;&gt;Node2</title>
<g id="a_edge2_Node000002_Node000003"><a xlink:title=" ">
<path fill="none" stroke="#63b8ff" d="M553.32,-211.17C580.1,-208.14 611.02,-204.42 639,-200.5 647.64,-199.29 656.75,-197.91 665.68,-196.5"/>
<polygon fill="#63b8ff" stroke="#63b8ff" points="552.82,-207.71 543.27,-212.3 553.6,-214.66 552.82,-207.71"/>
</a>
</g>
</g>
<!-- Node4 -->
<g id="Node000004" class="node">
<title>Node4</title>
<g id="a_Node000004"><a xlink:href="classhelios_1_1engine_1_1game_1_1GameWorld.html" target="_top" xlink:title="Central registry for managing game entities, systems, and the active level.">
<polygon fill="white" stroke="#666666" points="543,-185.5 424,-185.5 424,-155.5 543,-155.5 543,-185.5"/>
<text text-anchor="start" x="432" y="-173.5" font-family="Helvetica,sans-Serif" font-size="10.00">helios::engine::game</text>
<text text-anchor="middle" x="483.5" y="-162.5" font-family="Helvetica,sans-Serif" font-size="10.00">::GameWorld</text>
</a>
</g>
</g>
<!-- Node4&#45;&gt;Node2 -->
<g id="edge3_Node000002_Node000004" class="edge">
<title>Node4&#45;&gt;Node2</title>
<g id="a_edge3_Node000002_Node000004"><a xlink:title=" ">
<path fill="none" stroke="#9a32cd" stroke-dasharray="5,2" d="M553.52,-175.1C589.1,-177.47 632.04,-180.34 665.98,-182.6"/>
<polygon fill="#9a32cd" stroke="#9a32cd" points="553.42,-171.59 543.21,-174.41 552.96,-178.57 553.42,-171.59"/>
</a>
</g>
<text text-anchor="start" x="575.5" y="-185" font-family="Helvetica,sans-Serif" font-size="10.00" fill="grey">gameWorld_</text>
</g>
<!-- Node5 -->
<g id="Node000005" class="node">
<title>Node5</title>
<g id="a_Node000005"><a xlink:href="classhelios_1_1util_1_1log_1_1Logger.html" target="_top" xlink:title="Logger implementation with configurable output sinks.">
<polygon fill="white" stroke="#666666" points="276.5,-185.5 181.5,-185.5 181.5,-155.5 276.5,-155.5 276.5,-185.5"/>
<text text-anchor="start" x="189.5" y="-173.5" font-family="Helvetica,sans-Serif" font-size="10.00">helios::util::log::</text>
<text text-anchor="middle" x="229" y="-162.5" font-family="Helvetica,sans-Serif" font-size="10.00">Logger</text>
</a>
</g>
</g>
<!-- Node5&#45;&gt;Node4 -->
<g id="edge4_Node000004_Node000005" class="edge">
<title>Node5&#45;&gt;Node4</title>
<g id="a_edge4_Node000004_Node000005"><a xlink:title=" ">
<path fill="none" stroke="#9a32cd" stroke-dasharray="5,2" d="M286.66,-170.5C327.48,-170.5 382.41,-170.5 423.71,-170.5"/>
<polygon fill="#9a32cd" stroke="#9a32cd" points="286.61,-167 276.61,-170.5 286.61,-174 286.61,-167"/>
</a>
</g>
<text text-anchor="start" x="335" y="-176" font-family="Helvetica,sans-Serif" font-size="10.00" fill="grey">logger_</text>
</g>
<!-- Node6 -->
<g id="Node000006" class="node">
<title>Node6</title>
<g id="a_Node000006"><a xlink:href="classhelios_1_1engine_1_1game_1_1components_1_1gameplay_1_1Aim2DComponent.html" target="_top" xlink:title="Component for handling 2D aiming direction and fire frequency.">
<polygon fill="white" stroke="#666666" points="794,-41 657,-41 657,0 794,0 794,-41"/>
<text text-anchor="start" x="665" y="-29" font-family="Helvetica,sans-Serif" font-size="10.00">helios::engine::game</text>
<text text-anchor="start" x="665" y="-18" font-family="Helvetica,sans-Serif" font-size="10.00">::components::gameplay</text>
<text text-anchor="middle" x="725.5" y="-7" font-family="Helvetica,sans-Serif" font-size="10.00">::Aim2DComponent</text>
</a>
</g>
</g>
<!-- Node6&#45;&gt;Node1 -->
<g id="edge5_Node000001_Node000006" class="edge">
<title>Node6&#45;&gt;Node1</title>
<g id="a_edge5_Node000001_Node000006"><a xlink:title=" ">
<path fill="none" stroke="#9a32cd" stroke-dasharray="5,2" d="M804.15,-31.88C844,-39.34 892.72,-51.03 934,-68.5 952.49,-76.32 971.45,-88.4 986.16,-98.84"/>
<polygon fill="#9a32cd" stroke="#9a32cd" points="804.69,-28.42 794.22,-30.07 803.43,-35.31 804.69,-28.42"/>
</a>
</g>
<text text-anchor="start" x="833" y="-74" font-family="Helvetica,sans-Serif" font-size="10.00" fill="grey">aimComponent_</text>
</g>
<!-- Node7 -->
<g id="Node000007" class="node">
<title>Node7</title>
<g id="a_Node000007"><a xlink:href="classhelios_1_1engine_1_1game_1_1Component.html" target="_top" xlink:title="Abstract base class for components attached to GameObjects.">
<polygon fill="white" stroke="#666666" points="543,-50.5 424,-50.5 424,-20.5 543,-20.5 543,-50.5"/>
<text text-anchor="start" x="432" y="-38.5" font-family="Helvetica,sans-Serif" font-size="10.00">helios::engine::game</text>
<text text-anchor="middle" x="483.5" y="-27.5" font-family="Helvetica,sans-Serif" font-size="10.00">::Component</text>
</a>
</g>
</g>
<!-- Node7&#45;&gt;Node6 -->
<g id="edge6_Node000006_Node000007" class="edge">
<title>Node7&#45;&gt;Node6</title>
<g id="a_edge6_Node000006_Node000007"><a xlink:title=" ">
<path fill="none" stroke="#63b8ff" d="M553.5,-31.19C585.89,-29.16 624.37,-26.76 656.62,-24.74"/>
<polygon fill="#63b8ff" stroke="#63b8ff" points="552.97,-27.71 543.21,-31.83 553.41,-34.7 552.97,-27.71"/>
</a>
</g>
</g>
<!-- Node10 -->
<g id="Node000010" class="node">
<title>Node10</title>
<g id="a_Node000010"><a xlink:href="classhelios_1_1engine_1_1game_1_1components_1_1scene_1_1SceneNodeComponent.html" target="_top" xlink:title="Component that links a GameObject to a SceneNode in the scene graph.">
<polygon fill="white" stroke="#666666" points="789.5,-100 661.5,-100 661.5,-59 789.5,-59 789.5,-100"/>
<text text-anchor="start" x="669.5" y="-88" font-family="Helvetica,sans-Serif" font-size="10.00">helios::engine::game</text>
<text text-anchor="start" x="669.5" y="-77" font-family="Helvetica,sans-Serif" font-size="10.00">::components::scene::</text>
<text text-anchor="middle" x="725.5" y="-66" font-family="Helvetica,sans-Serif" font-size="10.00">SceneNodeComponent</text>
</a>
</g>
</g>
<!-- Node7&#45;&gt;Node10 -->
<g id="edge10_Node000010_Node000007" class="edge">
<title>Node7&#45;&gt;Node10</title>
<g id="a_edge10_Node000010_Node000007"><a xlink:title=" ">
<path fill="none" stroke="#63b8ff" d="M553.09,-48.07C587.16,-54.32 628.05,-61.82 661.35,-67.92"/>
<polygon fill="#63b8ff" stroke="#63b8ff" points="553.68,-44.62 543.21,-46.26 552.42,-51.51 553.68,-44.62"/>
</a>
</g>
</g>
<!-- Node8 -->
<g id="Node000008" class="node">
<title>Node8</title>
<g id="a_Node000008"><a xlink:href="classhelios_1_1engine_1_1game_1_1GameObject.html" target="_top" xlink:title="Base class for interactive game entities using a component&#45;based architecture.">
<polygon fill="white" stroke="#666666" points="288.5,-50.5 169.5,-50.5 169.5,-20.5 288.5,-20.5 288.5,-50.5"/>
<text text-anchor="start" x="177.5" y="-38.5" font-family="Helvetica,sans-Serif" font-size="10.00">helios::engine::game</text>
<text text-anchor="middle" x="229" y="-27.5" font-family="Helvetica,sans-Serif" font-size="10.00">::GameObject</text>
</a>
</g>
</g>
<!-- Node8&#45;&gt;Node7 -->
<g id="edge7_Node000007_Node000008" class="edge">
<title>Node8&#45;&gt;Node7</title>
<g id="a_edge7_Node000007_Node000008"><a xlink:title=" ">
<path fill="none" stroke="#9a32cd" stroke-dasharray="5,2" d="M298.57,-35.5C337.76,-35.5 386.4,-35.5 423.82,-35.5"/>
<polygon fill="#9a32cd" stroke="#9a32cd" points="298.56,-32 288.56,-35.5 298.56,-39 298.56,-32"/>
</a>
</g>
<text text-anchor="start" x="321" y="-41" font-family="Helvetica,sans-Serif" font-size="10.00" fill="grey">gameObject_</text>
</g>
<!-- Node9 -->
<g id="Node000009" class="node">
<title>Node9</title>
<g id="a_Node000009"><a xlink:href="classhelios_1_1util_1_1Guid.html" target="_top" xlink:title="Representative of a Globally Unique Identifier.">
<polygon fill="white" stroke="#666666" points="96,-45 0,-45 0,-26 96,-26 96,-45"/>
<text text-anchor="middle" x="48" y="-33" font-family="Helvetica,sans-Serif" font-size="10.00">helios::util::Guid</text>
</a>
</g>
</g>
<!-- Node9&#45;&gt;Node8 -->
<g id="edge8_Node000008_Node000009" class="edge">
<title>Node9&#45;&gt;Node8</title>
<g id="a_edge8_Node000008_Node000009"><a xlink:title=" ">
<path fill="none" stroke="#9a32cd" stroke-dasharray="5,2" d="M106.04,-35.5C126.28,-35.5 149.08,-35.5 169.44,-35.5"/>
<polygon fill="#9a32cd" stroke="#9a32cd" points="106.03,-32 96.03,-35.5 106.03,-39 106.03,-32"/>
</a>
</g>
<text text-anchor="start" x="117.5" y="-41" font-family="Helvetica,sans-Serif" font-size="10.00" fill="grey">guid_</text>
</g>
<!-- Node10&#45;&gt;Node1 -->
<g id="edge9_Node000001_Node000010" class="edge">
<title>Node10&#45;&gt;Node1</title>
<g id="a_edge9_Node000001_Node000010"><a xlink:title=" ">
<path fill="none" stroke="#9a32cd" stroke-dasharray="5,2" d="M799.87,-87.77C839.63,-92.49 889.58,-98.79 934,-105.5 939.78,-106.37 945.8,-107.34 951.81,-108.34"/>
<polygon fill="#9a32cd" stroke="#9a32cd" points="800.07,-84.27 789.73,-86.58 799.25,-91.22 800.07,-84.27"/>
</a>
</g>
<text text-anchor="start" x="815" y="-111" font-family="Helvetica,sans-Serif" font-size="10.00" fill="grey">sceneNodeComponent_</text>
</g>
<!-- Node11 -->
<g id="Node000011" class="node">
<title>Node11</title>
<g id="a_Node000011"><a xlink:href="classhelios_1_1scene_1_1SceneNode.html" target="_top" xlink:title="Represents a SceneNode within a SceneGraph.">
<polygon fill="white" stroke="#666666" points="554,-95 413,-95 413,-76 554,-76 554,-95"/>
<text text-anchor="middle" x="483.5" y="-83" font-family="Helvetica,sans-Serif" font-size="10.00">helios::scene::SceneNode</text>
</a>
</g>
</g>
<!-- Node11&#45;&gt;Node1 -->
<g id="edge14_Node000001_Node000011" class="edge">
<title>Node11&#45;&gt;Node1</title>
<g id="a_edge14_Node000001_Node000011"><a xlink:title=" ">
<path fill="none" stroke="#9a32cd" stroke-dasharray="5,2" d="M535.51,-97.1C547.44,-99.51 560.12,-101.81 572,-103.5 731.51,-126.13 772.92,-125.56 934,-122.5 939.76,-122.39 945.76,-122.24 951.76,-122.05"/>
<polygon fill="#9a32cd" stroke="#9a32cd" points="536.21,-93.67 525.71,-95.07 534.79,-100.53 536.21,-93.67"/>
</a>
</g>
<text text-anchor="start" x="700.5" y="-129" font-family="Helvetica,sans-Serif" font-size="10.00" fill="grey">rootNode_</text>
</g>
<!-- Node11&#45;&gt;Node10 -->
<g id="edge11_Node000010_Node000011" class="edge">
<title>Node11&#45;&gt;Node10</title>
<g id="a_edge11_Node000010_Node000011"><a xlink:title=" ">
<path fill="none" stroke="#9a32cd" stroke-dasharray="5,2" d="M564.31,-83.5C595.8,-82.72 631.47,-81.83 661.15,-81.08"/>
<polygon fill="#9a32cd" stroke="#9a32cd" points="564.15,-80.01 554.24,-83.76 564.32,-87.01 564.15,-80.01"/>
</a>
</g>
<text text-anchor="start" x="575.5" y="-88" font-family="Helvetica,sans-Serif" font-size="10.00" fill="grey">sceneNode_</text>
</g>
<!-- Node11&#45;&gt;Node11 -->
<g id="edge12_Node000011_Node000011" class="edge">
<title>Node11&#45;&gt;Node11</title>
<g id="a_edge12_Node000011_Node000011"><a xlink:title=" ">
<path fill="none" stroke="#9a32cd" stroke-dasharray="5,2" d="M460.91,-104.55C462.42,-109.38 469.95,-113 483.5,-113 505.18,-113 511.45,-103.73 502.3,-95.08"/>
<polygon fill="#9a32cd" stroke="#9a32cd" points="464.23,-105.67 464.7,-95.08 457.73,-103.07 464.23,-105.67"/>
</a>
</g>
<text text-anchor="start" x="465.5" y="-118.5" font-family="Helvetica,sans-Serif" font-size="10.00" fill="grey">parent_</text>
</g>
<!-- Node12 -->
<g id="Node000012" class="node">
<title>Node12</title>
<g id="a_Node000012"><a xlink:href="classhelios_1_1core_1_1Transform.html" target="_top" xlink:title="Represents a 3D transformation consisting of translation, rotation and scale.">
<polygon fill="white" stroke="#666666" points="293,-95 165,-95 165,-76 293,-76 293,-95"/>
<text text-anchor="middle" x="229" y="-83" font-family="Helvetica,sans-Serif" font-size="10.00">helios::core::Transform</text>
</a>
</g>
</g>
<!-- Node12&#45;&gt;Node11 -->
<g id="edge13_Node000011_Node000012" class="edge">
<title>Node12&#45;&gt;Node11</title>
<g id="a_edge13_Node000011_Node000012"><a xlink:title=" ">
<path fill="none" stroke="#9a32cd" stroke-dasharray="5,2" d="M303.08,-85.5C337.6,-85.5 378.6,-85.5 412.69,-85.5"/>
<polygon fill="#9a32cd" stroke="#9a32cd" points="303.07,-82 293.07,-85.5 303.07,-89 303.07,-82"/>
</a>
</g>
<text text-anchor="start" x="314" y="-91" font-family="Helvetica,sans-Serif" font-size="10.00" fill="grey">localTransform_</text>
</g>
</g>
</svg>

<g id="navigator" transform="translate(0 0)" fill="#404254">
  <rect fill="#f2f5e9" fill-opacity="0.5" stroke="#606060" stroke-width=".5" x="0" y="0" width="60" height="60"/>
  <use id="zoomplus" xlink:href="#zoomPlus" x="17" y="9" onmousedown="handleZoom(evt,'in')"/>
  <use id="zoomminus" xlink:href="#zoomMin" x="42" y="9" onmousedown="handleZoom(evt,'out')"/>
  <use id="reset" xlink:href="#resetDef" x="30" y="36" onmousedown="handleReset()"/>
   <use id="arrowup" xlink:href="#arrowUp" x="0" y="0" onmousedown="handlePan(0,-1)"/>
  <use id="arrowright" xlink:href="#arrowRight" x="0" y="0" onmousedown="handlePan(1,0)"/>
  <use id="arrowdown" xlink:href="#arrowDown" x="0" y="0" onmousedown="handlePan(0,1)"/>
  <use id="arrowleft" xlink:href="#arrowLeft" x="0" y="0" onmousedown="handlePan(-1,0)"/>
</g>
<svg viewBox="0 0 15 15" width="100%" height="30px" preserveAspectRatio="xMaxYMin meet">
 <g id="arrow_out" transform="scale(0.3 0.3)">
  <a xlink:href="classhelios_1_1engine_1_1game_1_1systems_1_1gameplay_1_1ProjectilePoolSystem__coll__graph_org.svg" target="_base">
   <rect id="button" ry="5" rx="5" y="6" x="6" height="38" width="38"
        fill="#f2f5e9" fill-opacity="0.5" stroke="#606060" stroke-width="1.0"/>
   <path id="arrow"
     d="M 11.500037,31.436501 C 11.940474,20.09759 22.043105,11.32322 32.158766,21.979434 L 37.068811,17.246167 C 37.068811,17.246167 37.088388,32 37.088388,32 L 22.160133,31.978069 C 22.160133,31.978069 26.997745,27.140456 26.997745,27.140456 C 18.528582,18.264221 13.291696,25.230495 11.500037,31.436501 z"
     style="fill:#404040;"/>
  </a>
 </g>
</svg>

<style type='text/css'>
<![CDATA[
[data-mouse-over-selected='false'] { opacity: 0.7; }
[data-mouse-over-selected='true']  { opacity: 1.0; }
]]>
</style>
<script type="application/ecmascript"><![CDATA[
document.addEventListener('DOMContentLoaded', (event) => {
  highlightEdges();
  highlightAdjacentNodes();
});
]]></script>
</svg>
