<?xml version="1.0" encoding="UTF-8" standalone="no"?>
<!DOCTYPE svg PUBLIC "-//W3C//DTD SVG 1.1//EN"
 "http://www.w3.org/Graphics/SVG/1.1/DTD/svg11.dtd">
<!-- Generated by graphviz version 2.43.0 (0)
 -->
<!-- Title: helios::scene::Camera::Camera Pages: 1 -->
<svg width="294pt" height="386pt"
 viewBox="0.00 0.00 294.00 386.00" xmlns="http://www.w3.org/2000/svg" xmlns:xlink="http://www.w3.org/1999/xlink">
<g id="graph0" class="graph" transform="scale(1 1) rotate(0) translate(4 382)">
<title>helios::scene::Camera::Camera</title>
<!-- Node1 -->
<g id="Node000001" class="node">
<title>Node1</title>
<g id="a_Node000001"><a xlink:title="Constructs a camera with identity projection and view matrices.">
<polygon fill="#999999" stroke="#666666" points="286,-195 161,-195 161,-165 286,-165 286,-195"/>
<text text-anchor="start" x="169" y="-183" font-family="Helvetica,sans-Serif" font-size="10.00">helios::scene::Camera</text>
<text text-anchor="middle" x="223.5" y="-172" font-family="Helvetica,sans-Serif" font-size="10.00">::Camera</text>
</a>
</g>
</g>
<!-- Node2 -->
<g id="Node000002" class="node">
<title>Node2</title>
<g id="a_Node000002"><a xlink:href="classhelios_1_1scene_1_1Camera.html#a865085d03e951123b7560d68f5eca056" target="_top" xlink:title="Sets the aspect ratio used by the camera.">
<polygon fill="white" stroke="#666666" points="125,-360 0,-360 0,-330 125,-330 125,-360"/>
<text text-anchor="start" x="8" y="-348" font-family="Helvetica,sans-Serif" font-size="10.00">helios::scene::Camera</text>
<text text-anchor="middle" x="62.5" y="-337" font-family="Helvetica,sans-Serif" font-size="10.00">::setAspectRatio</text>
</a>
</g>
</g>
<!-- Node1&#45;&gt;Node2 -->
<g id="edge1_Node000001_Node000002" class="edge">
<title>Node1&#45;&gt;Node2</title>
<g id="a_edge1_Node000001_Node000002"><a xlink:title=" ">
<path fill="none" stroke="#63b8ff" d="M211.2,-204.65C195.81,-235.75 165.45,-289.02 125,-321 120.68,-324.41 115.82,-327.39 110.78,-329.97"/>
<polygon fill="#63b8ff" stroke="#63b8ff" points="214.48,-205.91 215.67,-195.39 208.17,-202.87 214.48,-205.91"/>
</a>
</g>
</g>
<!-- Node3 -->
<g id="Node000003" class="node">
<title>Node3</title>
<g id="a_Node000003"><a xlink:href="classhelios_1_1scene_1_1Camera.html#a1fb02da77bd02b2c88f974ceccab7ce9" target="_top" xlink:title="Sets the vertical field of view.">
<polygon fill="white" stroke="#666666" points="125,-294 0,-294 0,-264 125,-264 125,-294"/>
<text text-anchor="start" x="8" y="-282" font-family="Helvetica,sans-Serif" font-size="10.00">helios::scene::Camera</text>
<text text-anchor="middle" x="62.5" y="-271" font-family="Helvetica,sans-Serif" font-size="10.00">::setFovY</text>
</a>
</g>
</g>
<!-- Node1&#45;&gt;Node3 -->
<g id="edge3_Node000001_Node000003" class="edge">
<title>Node1&#45;&gt;Node3</title>
<g id="a_edge3_Node000001_Node000003"><a xlink:title=" ">
<path fill="none" stroke="#63b8ff" d="M198.37,-201.7C179.43,-217.93 151.85,-239.84 125,-255 119.31,-258.21 113.11,-261.18 106.9,-263.86"/>
<polygon fill="#63b8ff" stroke="#63b8ff" points="200.68,-204.33 205.93,-195.13 196.09,-199.04 200.68,-204.33"/>
</a>
</g>
</g>
<!-- Node4 -->
<g id="Node000004" class="node">
<title>Node4</title>
<g id="a_Node000004"><a xlink:href="classhelios_1_1scene_1_1Camera.html#a956f0190d0bd24ad8960d3e6a94b82db" target="_top" xlink:title="Sets the perspective projection parameters.">
<polygon fill="white" stroke="#666666" points="125,-228 0,-228 0,-198 125,-198 125,-228"/>
<text text-anchor="start" x="8" y="-216" font-family="Helvetica,sans-Serif" font-size="10.00">helios::scene::Camera</text>
<text text-anchor="middle" x="62.5" y="-205" font-family="Helvetica,sans-Serif" font-size="10.00">::setPerspective</text>
</a>
</g>
</g>
<!-- Node1&#45;&gt;Node4 -->
<g id="edge5_Node000001_Node000004" class="edge">
<title>Node1&#45;&gt;Node4</title>
<g id="a_edge5_Node000001_Node000004"><a xlink:title=" ">
<path fill="none" stroke="#63b8ff" d="M150.68,-194.91C142.2,-196.67 133.59,-198.45 125.26,-200.18"/>
<polygon fill="#63b8ff" stroke="#63b8ff" points="151.49,-198.31 160.57,-192.85 150.07,-191.46 151.49,-198.31"/>
</a>
</g>
</g>
<!-- Node5 -->
<g id="Node000005" class="node">
<title>Node5</title>
<g id="a_Node000005"><a xlink:href="classhelios_1_1scene_1_1Camera.html#aa4db3f9ad22b14be836f3f5ba42576b7" target="_top" xlink:title="Sets the view matrix for this camera.">
<polygon fill="white" stroke="#666666" points="125,-162 0,-162 0,-132 125,-132 125,-162"/>
<text text-anchor="start" x="8" y="-150" font-family="Helvetica,sans-Serif" font-size="10.00">helios::scene::Camera</text>
<text text-anchor="middle" x="62.5" y="-139" font-family="Helvetica,sans-Serif" font-size="10.00">::setViewMatrix</text>
</a>
</g>
</g>
<!-- Node1&#45;&gt;Node5 -->
<g id="edge7_Node000001_Node000005" class="edge">
<title>Node1&#45;&gt;Node5</title>
<g id="a_edge7_Node000001_Node000005"><a xlink:title=" ">
<path fill="none" stroke="#63b8ff" d="M150.68,-165.09C142.2,-163.33 133.59,-161.55 125.26,-159.82"/>
<polygon fill="#63b8ff" stroke="#63b8ff" points="150.07,-168.54 160.57,-167.15 151.49,-161.69 150.07,-168.54"/>
</a>
</g>
</g>
<!-- Node6 -->
<g id="Node000006" class="node">
<title>Node6</title>
<g id="a_Node000006"><a xlink:href="classhelios_1_1scene_1_1Camera.html#a2fcf4ad5e74f95606f6d6ec5184b6d1f" target="_top" xlink:title="Sets the far clipping plane distance.">
<polygon fill="white" stroke="#666666" points="125,-96 0,-96 0,-66 125,-66 125,-96"/>
<text text-anchor="start" x="8" y="-84" font-family="Helvetica,sans-Serif" font-size="10.00">helios::scene::Camera</text>
<text text-anchor="middle" x="62.5" y="-73" font-family="Helvetica,sans-Serif" font-size="10.00">::setZFar</text>
</a>
</g>
</g>
<!-- Node1&#45;&gt;Node6 -->
<g id="edge9_Node000001_Node000006" class="edge">
<title>Node1&#45;&gt;Node6</title>
<g id="a_edge9_Node000001_Node000006"><a xlink:title=" ">
<path fill="none" stroke="#63b8ff" d="M189.8,-159.64C159.42,-140.72 114.88,-112.99 87.61,-96.01"/>
<polygon fill="#63b8ff" stroke="#63b8ff" points="188.01,-162.65 198.35,-164.96 191.71,-156.71 188.01,-162.65"/>
</a>
</g>
</g>
<!-- Node7 -->
<g id="Node000007" class="node">
<title>Node7</title>
<g id="a_Node000007"><a xlink:href="classhelios_1_1scene_1_1Camera.html#a162c8f353ae0ec96b0b8371a90b99064" target="_top" xlink:title="Sets the near clipping plane distance.">
<polygon fill="white" stroke="#666666" points="125,-30 0,-30 0,0 125,0 125,-30"/>
<text text-anchor="start" x="8" y="-18" font-family="Helvetica,sans-Serif" font-size="10.00">helios::scene::Camera</text>
<text text-anchor="middle" x="62.5" y="-7" font-family="Helvetica,sans-Serif" font-size="10.00">::setZNear</text>
</a>
</g>
</g>
<!-- Node1&#45;&gt;Node7 -->
<g id="edge11_Node000001_Node000007" class="edge">
<title>Node1&#45;&gt;Node7</title>
<g id="a_edge11_Node000001_Node000007"><a xlink:title=" ">
<path fill="none" stroke="#63b8ff" d="M206.93,-156.27C189.08,-130.13 158,-87.73 125,-57 114.21,-46.95 100.84,-37.53 89.32,-30.16"/>
<polygon fill="#63b8ff" stroke="#63b8ff" points="204.18,-158.46 212.67,-164.79 209.99,-154.54 204.18,-158.46"/>
</a>
</g>
</g>
<!-- Node2&#45;&gt;Node2 -->
<g id="edge2_Node000002_Node000002" class="edge">
<title>Node2&#45;&gt;Node2</title>
<g id="a_edge2_Node000002_Node000002"><a xlink:title=" ">
<path fill="none" stroke="#63b8ff" d="M90.51,-370.6C86.68,-374.97 77.34,-378 62.5,-378 37.5,-378 28.12,-369.41 34.37,-360.28"/>
<polygon fill="#63b8ff" stroke="#63b8ff" points="94.01,-370.32 90.62,-360.28 87.01,-370.23 94.01,-370.32"/>
</a>
</g>
</g>
<!-- Node3&#45;&gt;Node3 -->
<g id="edge4_Node000003_Node000003" class="edge">
<title>Node3&#45;&gt;Node3</title>
<g id="a_edge4_Node000003_Node000003"><a xlink:title=" ">
<path fill="none" stroke="#63b8ff" d="M90.51,-304.6C86.68,-308.97 77.34,-312 62.5,-312 37.5,-312 28.12,-303.41 34.37,-294.28"/>
<polygon fill="#63b8ff" stroke="#63b8ff" points="94.01,-304.32 90.62,-294.28 87.01,-304.23 94.01,-304.32"/>
</a>
</g>
</g>
<!-- Node4&#45;&gt;Node4 -->
<g id="edge6_Node000004_Node000004" class="edge">
<title>Node4&#45;&gt;Node4</title>
<g id="a_edge6_Node000004_Node000004"><a xlink:title=" ">
<path fill="none" stroke="#63b8ff" d="M90.51,-238.6C86.68,-242.97 77.34,-246 62.5,-246 37.5,-246 28.12,-237.41 34.37,-228.28"/>
<polygon fill="#63b8ff" stroke="#63b8ff" points="94.01,-238.32 90.62,-228.28 87.01,-238.23 94.01,-238.32"/>
</a>
</g>
</g>
<!-- Node5&#45;&gt;Node5 -->
<g id="edge8_Node000005_Node000005" class="edge">
<title>Node5&#45;&gt;Node5</title>
<g id="a_edge8_Node000005_Node000005"><a xlink:title=" ">
<path fill="none" stroke="#63b8ff" d="M90.51,-172.6C86.68,-176.97 77.34,-180 62.5,-180 37.5,-180 28.12,-171.41 34.37,-162.28"/>
<polygon fill="#63b8ff" stroke="#63b8ff" points="94.01,-172.32 90.62,-162.28 87.01,-172.23 94.01,-172.32"/>
</a>
</g>
</g>
<!-- Node6&#45;&gt;Node6 -->
<g id="edge10_Node000006_Node000006" class="edge">
<title>Node6&#45;&gt;Node6</title>
<g id="a_edge10_Node000006_Node000006"><a xlink:title=" ">
<path fill="none" stroke="#63b8ff" d="M90.51,-106.6C86.68,-110.97 77.34,-114 62.5,-114 37.5,-114 28.12,-105.41 34.37,-96.28"/>
<polygon fill="#63b8ff" stroke="#63b8ff" points="94.01,-106.32 90.62,-96.28 87.01,-106.23 94.01,-106.32"/>
</a>
</g>
</g>
<!-- Node7&#45;&gt;Node7 -->
<g id="edge12_Node000007_Node000007" class="edge">
<title>Node7&#45;&gt;Node7</title>
<g id="a_edge12_Node000007_Node000007"><a xlink:title=" ">
<path fill="none" stroke="#63b8ff" d="M90.51,-40.6C86.68,-44.97 77.34,-48 62.5,-48 37.5,-48 28.12,-39.41 34.37,-30.28"/>
<polygon fill="#63b8ff" stroke="#63b8ff" points="94.01,-40.32 90.62,-30.28 87.01,-40.23 94.01,-40.32"/>
</a>
</g>
</g>
</g>
</svg>
