<?xml version="1.0" encoding="UTF-8" standalone="no"?>
<!DOCTYPE svg PUBLIC "-//W3C//DTD SVG 1.1//EN"
 "http://www.w3.org/Graphics/SVG/1.1/DTD/svg11.dtd">
<!-- Generated by graphviz version 2.43.0 (0)
 -->
<!-- Title: helios::rendering::RenderPass::RenderPass Pages: 1 -->
<svg width="359pt" height="254pt"
 viewBox="0.00 0.00 359.00 254.00" xmlns="http://www.w3.org/2000/svg" xmlns:xlink="http://www.w3.org/1999/xlink">

<svg id="main" version="1.1" xmlns="http://www.w3.org/2000/svg" xmlns:xlink="http://www.w3.org/1999/xlink" xml:space="preserve">

<style type="text/css"><![CDATA[
.node, .edge {opacity: 0.7;}
.node.selected, .edge.selected {opacity: 1;}
.edge:hover path { stroke: red; }
.edge:hover polygon { stroke: red; fill: red; }
]]></style>
<script type="application/ecmascript" xlink:href="svg.min.js"/>
<svg id="graph" class="graph">
<g id="graph0" class="graph" transform="scale(1 1) rotate(0) translate(4 250)">
<title>helios::rendering::RenderPass::RenderPass</title>
<!-- Node1 -->
<g id="Node000001" class="node">
<title>Node1</title>
<g id="a_Node000001"><a xlink:title="Create a new `RenderPass` with the specified `Viewport`, `RenderQueue` and the `UniformValueMap`....">
<polygon fill="#999999" stroke="#666666" points="135,-129 0,-129 0,-99 135,-99 135,-129"/>
<text text-anchor="start" x="8" y="-117" font-family="Helvetica,sans-Serif" font-size="10.00">helios::rendering::</text>
<text text-anchor="middle" x="67.5" y="-106" font-family="Helvetica,sans-Serif" font-size="10.00">RenderPass::RenderPass</text>
</a>
</g>
</g>
<!-- Node2 -->
<g id="Node000002" class="node">
<title>Node2</title>
<g id="a_Node000002"><a xlink:href="classhelios_1_1rendering_1_1RenderPass.html#a9b3b86c9d3d2455bba80ee4b410fbb5b" target="_top" xlink:title="Returns a const reference to this `RenderPass`&#39; `UniformValueMap`.">
<polygon fill="white" stroke="#666666" points="351,-228 171,-228 171,-198 351,-198 351,-228"/>
<text text-anchor="start" x="179" y="-216" font-family="Helvetica,sans-Serif" font-size="10.00">helios::rendering::</text>
<text text-anchor="middle" x="261" y="-205" font-family="Helvetica,sans-Serif" font-size="10.00">RenderPass::frameUniformValues</text>
</a>
</g>
</g>
<!-- Node1&#45;&gt;Node2 -->
<g id="edge1_Node000001_Node000002" class="edge">
<title>Node1&#45;&gt;Node2</title>
<g id="a_edge1_Node000001_Node000002"><a xlink:title=" ">
<path fill="none" stroke="#63b8ff" d="M85.01,-129.11C104.3,-146 137.8,-173.06 171,-189 175.09,-190.96 179.36,-192.78 183.73,-194.47"/>
<polygon fill="#63b8ff" stroke="#63b8ff" points="182.81,-197.86 193.4,-197.96 185.18,-191.27 182.81,-197.86"/>
</a>
</g>
</g>
<!-- Node3 -->
<g id="Node000003" class="node">
<title>Node3</title>
<g id="a_Node000003"><a xlink:href="classhelios_1_1rendering_1_1RenderPass.html#afac382a610028b5e09af4ade728b78b3" target="_top" xlink:title="Prevent copying. A RenderPass is not intended to be copied.">
<polygon fill="white" stroke="#666666" points="328.5,-162 193.5,-162 193.5,-132 328.5,-132 328.5,-162"/>
<text text-anchor="start" x="201.5" y="-150" font-family="Helvetica,sans-Serif" font-size="10.00">helios::rendering::</text>
<text text-anchor="middle" x="261" y="-139" font-family="Helvetica,sans-Serif" font-size="10.00">RenderPass::RenderPass</text>
</a>
</g>
</g>
<!-- Node1&#45;&gt;Node3 -->
<g id="edge3_Node000001_Node000003" class="edge">
<title>Node1&#45;&gt;Node3</title>
<g id="a_edge3_Node000001_Node000003"><a xlink:title=" ">
<path fill="none" stroke="#63b8ff" d="M135.21,-125.5C150.62,-128.15 167.13,-131 182.94,-133.72"/>
<polygon fill="#63b8ff" stroke="#63b8ff" points="182.76,-137.24 193.21,-135.49 183.95,-130.34 182.76,-137.24"/>
</a>
</g>
</g>
<!-- Node4 -->
<g id="Node000004" class="node">
<title>Node4</title>
<g id="a_Node000004"><a xlink:href="classhelios_1_1rendering_1_1RenderPass.html#aa8e67383f0e4057c47b80405c02eae19" target="_top" xlink:title="Returns a const ref to the `RenderQueue` this `RenderPass` holds.">
<polygon fill="white" stroke="#666666" points="332,-96 190,-96 190,-66 332,-66 332,-96"/>
<text text-anchor="start" x="198" y="-84" font-family="Helvetica,sans-Serif" font-size="10.00">helios::rendering::</text>
<text text-anchor="middle" x="261" y="-73" font-family="Helvetica,sans-Serif" font-size="10.00">RenderPass::renderQueue</text>
</a>
</g>
</g>
<!-- Node1&#45;&gt;Node4 -->
<g id="edge5_Node000001_Node000004" class="edge">
<title>Node1&#45;&gt;Node4</title>
<g id="a_edge5_Node000001_Node000004"><a xlink:title=" ">
<path fill="none" stroke="#63b8ff" d="M135.21,-102.5C149.59,-100.03 164.94,-97.38 179.78,-94.82"/>
<polygon fill="#63b8ff" stroke="#63b8ff" points="180.69,-98.22 189.95,-93.07 179.5,-91.32 180.69,-98.22"/>
</a>
</g>
</g>
<!-- Node5 -->
<g id="Node000005" class="node">
<title>Node5</title>
<g id="a_Node000005"><a xlink:href="classhelios_1_1rendering_1_1RenderPass.html#ab0e71c167bc7d90cd4dc1be780cbe7d5" target="_top" xlink:title="Returns a const ref to the `Viewport` this `RenderPass` holds.">
<polygon fill="white" stroke="#666666" points="322,-30 200,-30 200,0 322,0 322,-30"/>
<text text-anchor="start" x="208" y="-18" font-family="Helvetica,sans-Serif" font-size="10.00">helios::rendering::</text>
<text text-anchor="middle" x="261" y="-7" font-family="Helvetica,sans-Serif" font-size="10.00">RenderPass::viewport</text>
</a>
</g>
</g>
<!-- Node1&#45;&gt;Node5 -->
<g id="edge7_Node000001_Node000005" class="edge">
<title>Node1&#45;&gt;Node5</title>
<g id="a_edge7_Node000001_Node000005"><a xlink:title=" ">
<path fill="none" stroke="#63b8ff" d="M94.36,-98.99C114.93,-87.21 144.55,-70.58 171,-57 185.96,-49.32 202.58,-41.34 217.36,-34.42"/>
<polygon fill="#63b8ff" stroke="#63b8ff" points="219.19,-37.43 226.78,-30.04 216.23,-31.08 219.19,-37.43"/>
</a>
</g>
</g>
<!-- Node2&#45;&gt;Node2 -->
<g id="edge2_Node000002_Node000002" class="edge">
<title>Node2&#45;&gt;Node2</title>
<g id="a_edge2_Node000002_Node000002"><a xlink:title=" ">
<path fill="none" stroke="#63b8ff" d="M227.25,-228.28C219.75,-237.41 231,-246 261,-246 278.81,-246 290.01,-242.97 294.61,-238.6"/>
<polygon fill="#63b8ff" stroke="#63b8ff" points="298.11,-238.32 294.75,-228.28 291.11,-238.23 298.11,-238.32"/>
</a>
</g>
</g>
<!-- Node3&#45;&gt;Node3 -->
<g id="edge4_Node000003_Node000003" class="edge">
<title>Node3&#45;&gt;Node3</title>
<g id="a_edge4_Node000003_Node000003"><a xlink:title=" ">
<path fill="none" stroke="#63b8ff" d="M227.25,-162.28C219.75,-171.41 231,-180 261,-180 278.81,-180 290.01,-176.97 294.61,-172.6"/>
<polygon fill="#63b8ff" stroke="#63b8ff" points="298.11,-172.32 294.75,-162.28 291.11,-172.23 298.11,-172.32"/>
</a>
</g>
</g>
<!-- Node4&#45;&gt;Node4 -->
<g id="edge6_Node000004_Node000004" class="edge">
<title>Node4&#45;&gt;Node4</title>
<g id="a_edge6_Node000004_Node000004"><a xlink:title=" ">
<path fill="none" stroke="#63b8ff" d="M227.25,-96.28C219.75,-105.41 231,-114 261,-114 278.81,-114 290.01,-110.97 294.61,-106.6"/>
<polygon fill="#63b8ff" stroke="#63b8ff" points="298.11,-106.32 294.75,-96.28 291.11,-106.23 298.11,-106.32"/>
</a>
</g>
</g>
<!-- Node5&#45;&gt;Node5 -->
<g id="edge8_Node000005_Node000005" class="edge">
<title>Node5&#45;&gt;Node5</title>
<g id="a_edge8_Node000005_Node000005"><a xlink:title=" ">
<path fill="none" stroke="#63b8ff" d="M227.25,-30.28C219.75,-39.41 231,-48 261,-48 278.81,-48 290.01,-44.97 294.61,-40.6"/>
<polygon fill="#63b8ff" stroke="#63b8ff" points="298.11,-40.32 294.75,-30.28 291.11,-40.23 298.11,-40.32"/>
</a>
</g>
</g>
</g>
</svg>
</svg>

<style type='text/css'>
<![CDATA[
[data-mouse-over-selected='false'] { opacity: 0.7; }
[data-mouse-over-selected='true']  { opacity: 1.0; }
]]>
</style>
<script type="application/ecmascript"><![CDATA[
document.addEventListener('DOMContentLoaded', (event) => {
  highlightEdges();
  highlightAdjacentNodes();
});
]]></script>
</svg>
