<?xml version="1.0" encoding="UTF-8" standalone="no"?>
<!DOCTYPE svg PUBLIC "-//W3C//DTD SVG 1.1//EN"
 "http://www.w3.org/Graphics/SVG/1.1/DTD/svg11.dtd">
<!-- Generated by graphviz version 2.43.0 (0)
 -->
<!-- Title: helios::rendering::Viewport::setCameraSceneNode Pages: 1 -->
<svg width="376pt" height="104pt"
 viewBox="0.00 0.00 376.00 104.00" xmlns="http://www.w3.org/2000/svg" xmlns:xlink="http://www.w3.org/1999/xlink">
<g id="graph0" class="graph" transform="scale(1 1) rotate(0) translate(4 100)">
<title>helios::rendering::Viewport::setCameraSceneNode</title>
<!-- Node1 -->
<g id="Node000001" class="node">
<title>Node1</title>
<g id="a_Node000001"><a xlink:title="Assigns a camera scene node to this viewport.">
<polygon fill="#999999" stroke="#666666" points="174,-54 0,-54 0,-24 174,-24 174,-54"/>
<text text-anchor="start" x="8" y="-42" font-family="Helvetica,sans-Serif" font-size="10.00">helios::rendering::</text>
<text text-anchor="middle" x="87" y="-31" font-family="Helvetica,sans-Serif" font-size="10.00">Viewport::setCameraSceneNode</text>
</a>
</g>
</g>
<!-- Node1&#45;&gt;Node1 -->
<g id="edge3_Node000001_Node000001" class="edge">
<title>Node1&#45;&gt;Node1</title>
<g id="a_edge3_Node000001_Node000001"><a xlink:title=" ">
<path fill="none" stroke="#63b8ff" d="M51.49,-54.28C43.6,-63.41 55.44,-72 87,-72 105.74,-72 117.53,-68.97 122.36,-64.6"/>
<polygon fill="#63b8ff" stroke="#63b8ff" points="125.86,-64.33 122.51,-54.28 118.86,-64.22 125.86,-64.33"/>
</a>
</g>
</g>
<!-- Node2 -->
<g id="Node000002" class="node">
<title>Node2</title>
<g id="a_Node000002"><a xlink:href="classhelios_1_1rendering_1_1Viewport.html#ac0a2a8555099d41b4000196e0c35edbd" target="_top" xlink:title="Gets the camera scene node associated with this viewport.">
<polygon fill="white" stroke="#666666" points="368,-78 210,-78 210,-48 368,-48 368,-78"/>
<text text-anchor="start" x="218" y="-66" font-family="Helvetica,sans-Serif" font-size="10.00">helios::rendering::</text>
<text text-anchor="middle" x="289" y="-55" font-family="Helvetica,sans-Serif" font-size="10.00">Viewport::cameraSceneNode</text>
</a>
</g>
</g>
<!-- Node1&#45;&gt;Node2 -->
<g id="edge1_Node000001_Node000002" class="edge">
<title>Node1&#45;&gt;Node2</title>
<g id="a_edge1_Node000001_Node000002"><a xlink:title=" ">
<path fill="none" stroke="#63b8ff" d="M174.27,-49.35C182.78,-50.37 191.43,-51.41 199.95,-52.43"/>
<polygon fill="#63b8ff" stroke="#63b8ff" points="199.55,-55.91 209.9,-53.63 200.38,-48.96 199.55,-55.91"/>
</a>
</g>
</g>
<!-- Node3 -->
<g id="Node000003" class="node">
<title>Node3</title>
<g id="a_Node000003"><a xlink:href="classhelios_1_1rendering_1_1Viewport.html#acab3a95a725e2ce895c8cf5a075e5a8c" target="_top" xlink:title="Constructs a Viewport with normalized bounds set to (0.0f, 0.0f, 1.0f, 1.0f) and z&#45;index 0.">
<polygon fill="white" stroke="#666666" points="344,-30 234,-30 234,0 344,0 344,-30"/>
<text text-anchor="start" x="242" y="-18" font-family="Helvetica,sans-Serif" font-size="10.00">helios::rendering::</text>
<text text-anchor="middle" x="289" y="-7" font-family="Helvetica,sans-Serif" font-size="10.00">Viewport::Viewport</text>
</a>
</g>
</g>
<!-- Node1&#45;&gt;Node3 -->
<g id="edge4_Node000001_Node000003" class="edge">
<title>Node1&#45;&gt;Node3</title>
<g id="a_edge4_Node000001_Node000003"><a xlink:title=" ">
<path fill="none" stroke="#63b8ff" d="M174.27,-28.65C190.83,-26.66 207.91,-24.61 223.64,-22.72"/>
<polygon fill="#63b8ff" stroke="#63b8ff" points="224.24,-26.18 233.75,-21.51 223.41,-19.23 224.24,-26.18"/>
</a>
</g>
</g>
<!-- Node2&#45;&gt;Node2 -->
<g id="edge2_Node000002_Node000002" class="edge">
<title>Node2&#45;&gt;Node2</title>
<g id="a_edge2_Node000002_Node000002"><a xlink:title=" ">
<path fill="none" stroke="#63b8ff" d="M253.49,-78.28C245.6,-87.41 257.44,-96 289,-96 307.74,-96 319.53,-92.97 324.36,-88.6"/>
<polygon fill="#63b8ff" stroke="#63b8ff" points="327.86,-88.33 324.51,-78.28 320.86,-88.22 327.86,-88.33"/>
</a>
</g>
</g>
</g>
</svg>
