<?xml version="1.0" encoding="UTF-8" standalone="no"?>
<!DOCTYPE svg PUBLIC "-//W3C//DTD SVG 1.1//EN"
 "http://www.w3.org/Graphics/SVG/1.1/DTD/svg11.dtd">
<!-- Generated by graphviz version 2.43.0 (0)
 -->
<!-- Title: helios::scene::Camera::fovY Pages: 1 -->
<svg width="294pt" height="122pt"
 viewBox="0.00 0.00 294.00 122.00" xmlns="http://www.w3.org/2000/svg" xmlns:xlink="http://www.w3.org/1999/xlink">
<g id="graph0" class="graph" transform="scale(1 1) rotate(0) translate(4 118)">
<title>helios::scene::Camera::fovY</title>
<!-- Node1 -->
<g id="Node000001" class="node">
<title>Node1</title>
<g id="a_Node000001"><a xlink:title="Gets the current vertical field of view.">
<polygon fill="#999999" stroke="#666666" points="286,-63 161,-63 161,-33 286,-33 286,-63"/>
<text text-anchor="start" x="169" y="-51" font-family="Helvetica,sans-Serif" font-size="10.00">helios::scene::Camera</text>
<text text-anchor="middle" x="223.5" y="-40" font-family="Helvetica,sans-Serif" font-size="10.00">::fovY</text>
</a>
</g>
</g>
<!-- Node1&#45;&gt;Node1 -->
<g id="edge1_Node000001_Node000001" class="edge">
<title>Node1&#45;&gt;Node1</title>
<g id="a_edge1_Node000001_Node000001"><a xlink:title=" ">
<path fill="none" stroke="#63b8ff" d="M251.51,-73.6C247.68,-77.97 238.34,-81 223.5,-81 198.5,-81 189.12,-72.41 195.38,-63.28"/>
<polygon fill="#63b8ff" stroke="#63b8ff" points="255.01,-73.32 251.62,-63.28 248.01,-73.23 255.01,-73.32"/>
</a>
</g>
</g>
<!-- Node2 -->
<g id="Node000002" class="node">
<title>Node2</title>
<g id="a_Node000002"><a xlink:href="classhelios_1_1scene_1_1Camera.html#a1fb02da77bd02b2c88f974ceccab7ce9" target="_top" xlink:title="Sets the vertical field of view.">
<polygon fill="white" stroke="#666666" points="125,-96 0,-96 0,-66 125,-66 125,-96"/>
<text text-anchor="start" x="8" y="-84" font-family="Helvetica,sans-Serif" font-size="10.00">helios::scene::Camera</text>
<text text-anchor="middle" x="62.5" y="-73" font-family="Helvetica,sans-Serif" font-size="10.00">::setFovY</text>
</a>
</g>
</g>
<!-- Node1&#45;&gt;Node2 -->
<g id="edge2_Node000001_Node000002" class="edge">
<title>Node1&#45;&gt;Node2</title>
<g id="a_edge2_Node000001_Node000002"><a xlink:title=" ">
<path fill="none" stroke="#63b8ff" d="M150.68,-62.91C142.2,-64.67 133.59,-66.45 125.26,-68.18"/>
<polygon fill="#63b8ff" stroke="#63b8ff" points="151.49,-66.31 160.57,-60.85 150.07,-59.46 151.49,-66.31"/>
</a>
</g>
</g>
<!-- Node3 -->
<g id="Node000003" class="node">
<title>Node3</title>
<g id="a_Node000003"><a xlink:href="classhelios_1_1scene_1_1Camera.html#a956f0190d0bd24ad8960d3e6a94b82db" target="_top" xlink:title="Sets the perspective projection parameters.">
<polygon fill="white" stroke="#666666" points="125,-30 0,-30 0,0 125,0 125,-30"/>
<text text-anchor="start" x="8" y="-18" font-family="Helvetica,sans-Serif" font-size="10.00">helios::scene::Camera</text>
<text text-anchor="middle" x="62.5" y="-7" font-family="Helvetica,sans-Serif" font-size="10.00">::setPerspective</text>
</a>
</g>
</g>
<!-- Node1&#45;&gt;Node3 -->
<g id="edge4_Node000001_Node000003" class="edge">
<title>Node1&#45;&gt;Node3</title>
<g id="a_edge4_Node000001_Node000003"><a xlink:title=" ">
<path fill="none" stroke="#63b8ff" d="M150.68,-33.09C142.2,-31.33 133.59,-29.55 125.26,-27.82"/>
<polygon fill="#63b8ff" stroke="#63b8ff" points="150.07,-36.54 160.57,-35.15 151.49,-29.69 150.07,-36.54"/>
</a>
</g>
</g>
<!-- Node2&#45;&gt;Node2 -->
<g id="edge3_Node000002_Node000002" class="edge">
<title>Node2&#45;&gt;Node2</title>
<g id="a_edge3_Node000002_Node000002"><a xlink:title=" ">
<path fill="none" stroke="#63b8ff" d="M90.51,-106.6C86.68,-110.97 77.34,-114 62.5,-114 37.5,-114 28.12,-105.41 34.37,-96.28"/>
<polygon fill="#63b8ff" stroke="#63b8ff" points="94.01,-106.32 90.62,-96.28 87.01,-106.23 94.01,-106.32"/>
</a>
</g>
</g>
<!-- Node3&#45;&gt;Node3 -->
<g id="edge5_Node000003_Node000003" class="edge">
<title>Node3&#45;&gt;Node3</title>
<g id="a_edge5_Node000003_Node000003"><a xlink:title=" ">
<path fill="none" stroke="#63b8ff" d="M90.51,-40.6C86.68,-44.97 77.34,-48 62.5,-48 37.5,-48 28.12,-39.41 34.37,-30.28"/>
<polygon fill="#63b8ff" stroke="#63b8ff" points="94.01,-40.32 90.62,-30.28 87.01,-40.23 94.01,-40.32"/>
</a>
</g>
</g>
</g>
</svg>
