<?xml version="1.0" encoding="UTF-8" standalone="no"?>
<!DOCTYPE svg PUBLIC "-//W3C//DTD SVG 1.1//EN"
 "http://www.w3.org/Graphics/SVG/1.1/DTD/svg11.dtd">
<!-- Generated by graphviz version 2.43.0 (0)
 -->
<!-- Title: helios::input::GamepadState::updateAxes Pages: 1 -->
<svg width="354pt" height="806pt"
 viewBox="0.00 0.00 354.00 806.00" xmlns="http://www.w3.org/2000/svg" xmlns:xlink="http://www.w3.org/1999/xlink">
<g id="graph0" class="graph" transform="scale(1 1) rotate(0) translate(4 802)">
<title>helios::input::GamepadState::updateAxes</title>
<!-- Node1 -->
<g id="Node000001" class="node">
<title>Node1</title>
<g id="a_Node000001"><a xlink:title="Updates the axes and button states of this GamepadState object.">
<polygon fill="#999999" stroke="#666666" points="155,-414 0,-414 0,-384 155,-384 155,-414"/>
<text text-anchor="start" x="8" y="-402" font-family="Helvetica,sans-Serif" font-size="10.00">helios::input::GamepadState</text>
<text text-anchor="middle" x="77.5" y="-391" font-family="Helvetica,sans-Serif" font-size="10.00">::updateAxes</text>
</a>
</g>
</g>
<!-- Node2 -->
<g id="Node000002" class="node">
<title>Node2</title>
<g id="a_Node000002"><a xlink:href="classhelios_1_1input_1_1GamepadState.html#aad622f428f48b34e16ad5ec334bd127b" target="_top" xlink:title="Returns true when the A button is pressed.">
<polygon fill="white" stroke="#666666" points="346,-798 191,-798 191,-768 346,-768 346,-798"/>
<text text-anchor="start" x="199" y="-786" font-family="Helvetica,sans-Serif" font-size="10.00">helios::input::GamepadState</text>
<text text-anchor="middle" x="268.5" y="-775" font-family="Helvetica,sans-Serif" font-size="10.00">::buttonA</text>
</a>
</g>
</g>
<!-- Node1&#45;&gt;Node2 -->
<g id="edge1_Node000001_Node000002" class="edge">
<title>Node1&#45;&gt;Node2</title>
<g id="a_edge1_Node000001_Node000002"><a xlink:title=" ">
<path fill="none" stroke="#63b8ff" d="M78.54,-414.14C79.52,-468.83 90.35,-658.24 191,-759 192.08,-760.08 193.2,-761.11 194.36,-762.09"/>
<polygon fill="#63b8ff" stroke="#63b8ff" points="192.42,-765 202.6,-767.93 196.47,-759.29 192.42,-765"/>
</a>
</g>
</g>
<!-- Node3 -->
<g id="Node000003" class="node">
<title>Node3</title>
<g id="a_Node000003"><a xlink:href="classhelios_1_1input_1_1GamepadState.html#a13d75e66ef5ae123d3327ccbef0c5633" target="_top" xlink:title="Returns true when the B button is pressed.">
<polygon fill="white" stroke="#666666" points="346,-750 191,-750 191,-720 346,-720 346,-750"/>
<text text-anchor="start" x="199" y="-738" font-family="Helvetica,sans-Serif" font-size="10.00">helios::input::GamepadState</text>
<text text-anchor="middle" x="268.5" y="-727" font-family="Helvetica,sans-Serif" font-size="10.00">::buttonB</text>
</a>
</g>
</g>
<!-- Node1&#45;&gt;Node3 -->
<g id="edge2_Node000001_Node000003" class="edge">
<title>Node1&#45;&gt;Node3</title>
<g id="a_edge2_Node000001_Node000003"><a xlink:title=" ">
<path fill="none" stroke="#63b8ff" d="M79.38,-414.2C83.11,-464.24 101.85,-625.52 191,-711 192.13,-712.08 193.31,-713.12 194.53,-714.11"/>
<polygon fill="#63b8ff" stroke="#63b8ff" points="192.89,-717.23 203.13,-719.97 196.84,-711.45 192.89,-717.23"/>
</a>
</g>
</g>
<!-- Node4 -->
<g id="Node000004" class="node">
<title>Node4</title>
<g id="a_Node000004"><a xlink:href="classhelios_1_1input_1_1GamepadState.html#a8477f57add844940545f15114a442f58" target="_top" xlink:title="Returns true when the Back button is pressed.">
<polygon fill="white" stroke="#666666" points="346,-702 191,-702 191,-672 346,-672 346,-702"/>
<text text-anchor="start" x="199" y="-690" font-family="Helvetica,sans-Serif" font-size="10.00">helios::input::GamepadState</text>
<text text-anchor="middle" x="268.5" y="-679" font-family="Helvetica,sans-Serif" font-size="10.00">::buttonBack</text>
</a>
</g>
</g>
<!-- Node1&#45;&gt;Node4 -->
<g id="edge3_Node000001_Node000004" class="edge">
<title>Node1&#45;&gt;Node4</title>
<g id="a_edge3_Node000001_Node000004"><a xlink:title=" ">
<path fill="none" stroke="#63b8ff" d="M80.48,-414.06C87.18,-458.85 113.09,-592.43 191,-663 192.31,-664.19 193.68,-665.32 195.1,-666.39"/>
<polygon fill="#63b8ff" stroke="#63b8ff" points="193.41,-669.47 203.71,-671.95 197.21,-663.59 193.41,-669.47"/>
</a>
</g>
</g>
<!-- Node5 -->
<g id="Node000005" class="node">
<title>Node5</title>
<g id="a_Node000005"><a xlink:href="classhelios_1_1input_1_1GamepadState.html#a844503e4099979e7c34f0350c78271cf" target="_top" xlink:title="Returns true when the D&#45;pad Down button is pressed.">
<polygon fill="white" stroke="#666666" points="346,-654 191,-654 191,-624 346,-624 346,-654"/>
<text text-anchor="start" x="199" y="-642" font-family="Helvetica,sans-Serif" font-size="10.00">helios::input::GamepadState</text>
<text text-anchor="middle" x="268.5" y="-631" font-family="Helvetica,sans-Serif" font-size="10.00">::buttonDpadDown</text>
</a>
</g>
</g>
<!-- Node1&#45;&gt;Node5 -->
<g id="edge4_Node000001_Node000005" class="edge">
<title>Node1&#45;&gt;Node5</title>
<g id="a_edge4_Node000001_Node000005"><a xlink:title=" ">
<path fill="none" stroke="#63b8ff" d="M82.06,-414.1C92.07,-453.29 124.23,-559.07 191,-615 192.52,-616.27 194.11,-617.48 195.75,-618.62"/>
<polygon fill="#63b8ff" stroke="#63b8ff" points="194.01,-621.66 204.38,-623.82 197.62,-615.66 194.01,-621.66"/>
</a>
</g>
</g>
<!-- Node6 -->
<g id="Node000006" class="node">
<title>Node6</title>
<g id="a_Node000006"><a xlink:href="classhelios_1_1input_1_1GamepadState.html#a75bca4b779fe81f43d8f8425180b7ece" target="_top" xlink:title="Returns true when the D&#45;pad Left button is pressed.">
<polygon fill="white" stroke="#666666" points="346,-606 191,-606 191,-576 346,-576 346,-606"/>
<text text-anchor="start" x="199" y="-594" font-family="Helvetica,sans-Serif" font-size="10.00">helios::input::GamepadState</text>
<text text-anchor="middle" x="268.5" y="-583" font-family="Helvetica,sans-Serif" font-size="10.00">::buttonDpadLeft</text>
</a>
</g>
</g>
<!-- Node1&#45;&gt;Node6 -->
<g id="edge5_Node000001_Node000006" class="edge">
<title>Node1&#45;&gt;Node6</title>
<g id="a_edge5_Node000001_Node000006"><a xlink:title=" ">
<path fill="none" stroke="#63b8ff" d="M84.43,-414.05C98.11,-446.85 135.07,-525.15 191,-567 192.86,-568.39 194.79,-569.7 196.8,-570.93"/>
<polygon fill="#63b8ff" stroke="#63b8ff" points="195.47,-574.19 205.93,-575.88 198.8,-568.04 195.47,-574.19"/>
</a>
</g>
</g>
<!-- Node7 -->
<g id="Node000007" class="node">
<title>Node7</title>
<g id="a_Node000007"><a xlink:href="classhelios_1_1input_1_1GamepadState.html#a0c868ae7d3209efe9b807992f2eb6899" target="_top" xlink:title="Returns true when the D&#45;pad Right button is pressed.">
<polygon fill="white" stroke="#666666" points="346,-558 191,-558 191,-528 346,-528 346,-558"/>
<text text-anchor="start" x="199" y="-546" font-family="Helvetica,sans-Serif" font-size="10.00">helios::input::GamepadState</text>
<text text-anchor="middle" x="268.5" y="-535" font-family="Helvetica,sans-Serif" font-size="10.00">::buttonDpadRight</text>
</a>
</g>
</g>
<!-- Node1&#45;&gt;Node7 -->
<g id="edge6_Node000001_Node000007" class="edge">
<title>Node1&#45;&gt;Node7</title>
<g id="a_edge6_Node000001_Node000007"><a xlink:title=" ">
<path fill="none" stroke="#63b8ff" d="M88.76,-414.26C106.59,-439.66 145.78,-490.6 191,-519 193.63,-520.65 196.38,-522.19 199.2,-523.64"/>
<polygon fill="#63b8ff" stroke="#63b8ff" points="197.92,-526.9 208.47,-527.92 200.86,-520.55 197.92,-526.9"/>
</a>
</g>
</g>
<!-- Node8 -->
<g id="Node000008" class="node">
<title>Node8</title>
<g id="a_Node000008"><a xlink:href="classhelios_1_1input_1_1GamepadState.html#adcf29eec4d0c29f716c1013b1254c23c" target="_top" xlink:title="Returns true when the D&#45;pad Up button is pressed.">
<polygon fill="white" stroke="#666666" points="346,-510 191,-510 191,-480 346,-480 346,-510"/>
<text text-anchor="start" x="199" y="-498" font-family="Helvetica,sans-Serif" font-size="10.00">helios::input::GamepadState</text>
<text text-anchor="middle" x="268.5" y="-487" font-family="Helvetica,sans-Serif" font-size="10.00">::buttonDpadUp</text>
</a>
</g>
</g>
<!-- Node1&#45;&gt;Node8 -->
<g id="edge7_Node000001_Node000008" class="edge">
<title>Node1&#45;&gt;Node8</title>
<g id="a_edge7_Node000001_Node000008"><a xlink:title=" ">
<path fill="none" stroke="#63b8ff" d="M98.69,-414.27C120.51,-430.2 156.75,-455.01 191,-471 195.08,-472.91 199.36,-474.71 203.71,-476.42"/>
<polygon fill="#63b8ff" stroke="#63b8ff" points="202.72,-479.78 213.31,-479.98 205.15,-473.22 202.72,-479.78"/>
</a>
</g>
</g>
<!-- Node9 -->
<g id="Node000009" class="node">
<title>Node9</title>
<g id="a_Node000009"><a xlink:href="classhelios_1_1input_1_1GamepadState.html#a431dc64f41310e1a27927e856194c1a5" target="_top" xlink:title="Returns true when the Guide button is pressed.">
<polygon fill="white" stroke="#666666" points="346,-462 191,-462 191,-432 346,-432 346,-462"/>
<text text-anchor="start" x="199" y="-450" font-family="Helvetica,sans-Serif" font-size="10.00">helios::input::GamepadState</text>
<text text-anchor="middle" x="268.5" y="-439" font-family="Helvetica,sans-Serif" font-size="10.00">::buttonGuide</text>
</a>
</g>
</g>
<!-- Node1&#45;&gt;Node9 -->
<g id="edge8_Node000001_Node000009" class="edge">
<title>Node1&#45;&gt;Node9</title>
<g id="a_edge8_Node000001_Node000009"><a xlink:title=" ">
<path fill="none" stroke="#63b8ff" d="M137.78,-414.06C157.05,-418.95 178.59,-424.42 198.5,-429.48"/>
<polygon fill="#63b8ff" stroke="#63b8ff" points="197.87,-432.93 208.43,-432 199.6,-426.14 197.87,-432.93"/>
</a>
</g>
</g>
<!-- Node10 -->
<g id="Node000010" class="node">
<title>Node10</title>
<g id="a_Node000010"><a xlink:href="classhelios_1_1input_1_1GamepadState.html#a47f2f780c1b29fafdf9f9eeff5197915" target="_top" xlink:title="Returns true when the left bumper is pressed.">
<polygon fill="white" stroke="#666666" points="346,-414 191,-414 191,-384 346,-384 346,-414"/>
<text text-anchor="start" x="199" y="-402" font-family="Helvetica,sans-Serif" font-size="10.00">helios::input::GamepadState</text>
<text text-anchor="middle" x="268.5" y="-391" font-family="Helvetica,sans-Serif" font-size="10.00">::buttonLeftBumper</text>
</a>
</g>
</g>
<!-- Node1&#45;&gt;Node10 -->
<g id="edge9_Node000001_Node000010" class="edge">
<title>Node1&#45;&gt;Node10</title>
<g id="a_edge9_Node000001_Node000010"><a xlink:title=" ">
<path fill="none" stroke="#63b8ff" d="M155.1,-399C163.56,-399 172.22,-399 180.79,-399"/>
<polygon fill="#63b8ff" stroke="#63b8ff" points="180.79,-402.5 190.79,-399 180.79,-395.5 180.79,-402.5"/>
</a>
</g>
</g>
<!-- Node11 -->
<g id="Node000011" class="node">
<title>Node11</title>
<g id="a_Node000011"><a xlink:href="classhelios_1_1input_1_1GamepadState.html#a7323e081da339576b34477ee0fc3daae" target="_top" xlink:title="Returns true when the left thumbstick button is pressed.">
<polygon fill="white" stroke="#666666" points="346,-366 191,-366 191,-336 346,-336 346,-366"/>
<text text-anchor="start" x="199" y="-354" font-family="Helvetica,sans-Serif" font-size="10.00">helios::input::GamepadState</text>
<text text-anchor="middle" x="268.5" y="-343" font-family="Helvetica,sans-Serif" font-size="10.00">::buttonLeftThumb</text>
</a>
</g>
</g>
<!-- Node1&#45;&gt;Node11 -->
<g id="edge10_Node000001_Node000011" class="edge">
<title>Node1&#45;&gt;Node11</title>
<g id="a_edge10_Node000001_Node000011"><a xlink:title=" ">
<path fill="none" stroke="#63b8ff" d="M137.78,-383.94C157.05,-379.05 178.59,-373.58 198.5,-368.52"/>
<polygon fill="#63b8ff" stroke="#63b8ff" points="199.6,-371.86 208.43,-366 197.87,-365.07 199.6,-371.86"/>
</a>
</g>
</g>
<!-- Node12 -->
<g id="Node000012" class="node">
<title>Node12</title>
<g id="a_Node000012"><a xlink:href="classhelios_1_1input_1_1GamepadState.html#a2287f433f45a9ad3aad31f39df731a93" target="_top" xlink:title="Returns true when the right bumper is pressed.">
<polygon fill="white" stroke="#666666" points="346,-318 191,-318 191,-288 346,-288 346,-318"/>
<text text-anchor="start" x="199" y="-306" font-family="Helvetica,sans-Serif" font-size="10.00">helios::input::GamepadState</text>
<text text-anchor="middle" x="268.5" y="-295" font-family="Helvetica,sans-Serif" font-size="10.00">::buttonRightBumper</text>
</a>
</g>
</g>
<!-- Node1&#45;&gt;Node12 -->
<g id="edge11_Node000001_Node000012" class="edge">
<title>Node1&#45;&gt;Node12</title>
<g id="a_edge11_Node000001_Node000012"><a xlink:title=" ">
<path fill="none" stroke="#63b8ff" d="M98.69,-383.73C120.51,-367.8 156.75,-342.99 191,-327 195.08,-325.09 199.36,-323.29 203.71,-321.58"/>
<polygon fill="#63b8ff" stroke="#63b8ff" points="205.15,-324.78 213.31,-318.02 202.72,-318.22 205.15,-324.78"/>
</a>
</g>
</g>
<!-- Node13 -->
<g id="Node000013" class="node">
<title>Node13</title>
<g id="a_Node000013"><a xlink:href="classhelios_1_1input_1_1GamepadState.html#ae0439676110dabd9f4be364973e6351b" target="_top" xlink:title="Returns true when the right thumbstick button is pressed.">
<polygon fill="white" stroke="#666666" points="346,-270 191,-270 191,-240 346,-240 346,-270"/>
<text text-anchor="start" x="199" y="-258" font-family="Helvetica,sans-Serif" font-size="10.00">helios::input::GamepadState</text>
<text text-anchor="middle" x="268.5" y="-247" font-family="Helvetica,sans-Serif" font-size="10.00">::buttonRightThumb</text>
</a>
</g>
</g>
<!-- Node1&#45;&gt;Node13 -->
<g id="edge12_Node000001_Node000013" class="edge">
<title>Node1&#45;&gt;Node13</title>
<g id="a_edge12_Node000001_Node000013"><a xlink:title=" ">
<path fill="none" stroke="#63b8ff" d="M88.76,-383.74C106.59,-358.34 145.78,-307.4 191,-279 193.63,-277.35 196.38,-275.81 199.2,-274.36"/>
<polygon fill="#63b8ff" stroke="#63b8ff" points="200.86,-277.45 208.47,-270.08 197.92,-271.1 200.86,-277.45"/>
</a>
</g>
</g>
<!-- Node14 -->
<g id="Node000014" class="node">
<title>Node14</title>
<g id="a_Node000014"><a xlink:href="classhelios_1_1input_1_1GamepadState.html#a8544813c5c7257f91d8c4e744339cdfb" target="_top" xlink:title="Returns true when the Start button is pressed.">
<polygon fill="white" stroke="#666666" points="346,-222 191,-222 191,-192 346,-192 346,-222"/>
<text text-anchor="start" x="199" y="-210" font-family="Helvetica,sans-Serif" font-size="10.00">helios::input::GamepadState</text>
<text text-anchor="middle" x="268.5" y="-199" font-family="Helvetica,sans-Serif" font-size="10.00">::buttonStart</text>
</a>
</g>
</g>
<!-- Node1&#45;&gt;Node14 -->
<g id="edge13_Node000001_Node000014" class="edge">
<title>Node1&#45;&gt;Node14</title>
<g id="a_edge13_Node000001_Node000014"><a xlink:title=" ">
<path fill="none" stroke="#63b8ff" d="M84.43,-383.95C98.11,-351.15 135.07,-272.85 191,-231 192.86,-229.61 194.79,-228.3 196.8,-227.07"/>
<polygon fill="#63b8ff" stroke="#63b8ff" points="198.8,-229.96 205.93,-222.12 195.47,-223.81 198.8,-229.96"/>
</a>
</g>
</g>
<!-- Node15 -->
<g id="Node000015" class="node">
<title>Node15</title>
<g id="a_Node000015"><a xlink:href="classhelios_1_1input_1_1GamepadState.html#a53bb4989b63951ebf222bf5c6bd277a4" target="_top" xlink:title="Returns true when the X button is pressed.">
<polygon fill="white" stroke="#666666" points="346,-174 191,-174 191,-144 346,-144 346,-174"/>
<text text-anchor="start" x="199" y="-162" font-family="Helvetica,sans-Serif" font-size="10.00">helios::input::GamepadState</text>
<text text-anchor="middle" x="268.5" y="-151" font-family="Helvetica,sans-Serif" font-size="10.00">::buttonX</text>
</a>
</g>
</g>
<!-- Node1&#45;&gt;Node15 -->
<g id="edge14_Node000001_Node000015" class="edge">
<title>Node1&#45;&gt;Node15</title>
<g id="a_edge14_Node000001_Node000015"><a xlink:title=" ">
<path fill="none" stroke="#63b8ff" d="M82.06,-383.9C92.07,-344.71 124.23,-238.93 191,-183 192.52,-181.73 194.11,-180.52 195.75,-179.38"/>
<polygon fill="#63b8ff" stroke="#63b8ff" points="197.62,-182.34 204.38,-174.18 194.01,-176.34 197.62,-182.34"/>
</a>
</g>
</g>
<!-- Node16 -->
<g id="Node000016" class="node">
<title>Node16</title>
<g id="a_Node000016"><a xlink:href="classhelios_1_1input_1_1GamepadState.html#a856df613c1508ad369875f94b042c4f2" target="_top" xlink:title="Returns true when the Y button is pressed.">
<polygon fill="white" stroke="#666666" points="346,-126 191,-126 191,-96 346,-96 346,-126"/>
<text text-anchor="start" x="199" y="-114" font-family="Helvetica,sans-Serif" font-size="10.00">helios::input::GamepadState</text>
<text text-anchor="middle" x="268.5" y="-103" font-family="Helvetica,sans-Serif" font-size="10.00">::buttonY</text>
</a>
</g>
</g>
<!-- Node1&#45;&gt;Node16 -->
<g id="edge15_Node000001_Node000016" class="edge">
<title>Node1&#45;&gt;Node16</title>
<g id="a_edge15_Node000001_Node000016"><a xlink:title=" ">
<path fill="none" stroke="#63b8ff" d="M80.48,-383.94C87.18,-339.15 113.09,-205.57 191,-135 192.31,-133.81 193.68,-132.68 195.1,-131.61"/>
<polygon fill="#63b8ff" stroke="#63b8ff" points="197.21,-134.41 203.71,-126.05 193.41,-128.53 197.21,-134.41"/>
</a>
</g>
</g>
<!-- Node17 -->
<g id="Node000017" class="node">
<title>Node17</title>
<g id="a_Node000017"><a xlink:href="classhelios_1_1input_1_1GamepadState.html#a259753c014cb11fe211cca3137f67ae5" target="_top" xlink:title="Returns the current value of the left trigger.">
<polygon fill="white" stroke="#666666" points="346,-78 191,-78 191,-48 346,-48 346,-78"/>
<text text-anchor="start" x="199" y="-66" font-family="Helvetica,sans-Serif" font-size="10.00">helios::input::GamepadState</text>
<text text-anchor="middle" x="268.5" y="-55" font-family="Helvetica,sans-Serif" font-size="10.00">::triggerLeft</text>
</a>
</g>
</g>
<!-- Node1&#45;&gt;Node17 -->
<g id="edge16_Node000001_Node000017" class="edge">
<title>Node1&#45;&gt;Node17</title>
<g id="a_edge16_Node000001_Node000017"><a xlink:title=" ">
<path fill="none" stroke="#63b8ff" d="M79.38,-383.8C83.11,-333.76 101.85,-172.48 191,-87 192.13,-85.92 193.31,-84.88 194.53,-83.89"/>
<polygon fill="#63b8ff" stroke="#63b8ff" points="196.84,-86.55 203.13,-78.03 192.89,-80.77 196.84,-86.55"/>
</a>
</g>
</g>
<!-- Node18 -->
<g id="Node000018" class="node">
<title>Node18</title>
<g id="a_Node000018"><a xlink:href="classhelios_1_1input_1_1GamepadState.html#a18ff7a69f4c8ebba20a25f53ea7a9714" target="_top" xlink:title="Returns the current value of the right trigger.">
<polygon fill="white" stroke="#666666" points="346,-30 191,-30 191,0 346,0 346,-30"/>
<text text-anchor="start" x="199" y="-18" font-family="Helvetica,sans-Serif" font-size="10.00">helios::input::GamepadState</text>
<text text-anchor="middle" x="268.5" y="-7" font-family="Helvetica,sans-Serif" font-size="10.00">::triggerRight</text>
</a>
</g>
</g>
<!-- Node1&#45;&gt;Node18 -->
<g id="edge17_Node000001_Node000018" class="edge">
<title>Node1&#45;&gt;Node18</title>
<g id="a_edge17_Node000001_Node000018"><a xlink:title=" ">
<path fill="none" stroke="#63b8ff" d="M78.54,-383.86C79.52,-329.17 90.35,-139.76 191,-39 192.08,-37.92 193.2,-36.89 194.36,-35.91"/>
<polygon fill="#63b8ff" stroke="#63b8ff" points="196.47,-38.71 202.6,-30.07 192.42,-33 196.47,-38.71"/>
</a>
</g>
</g>
</g>
</svg>
