<?xml version="1.0" encoding="UTF-8" standalone="no"?>
<!DOCTYPE svg PUBLIC "-//W3C//DTD SVG 1.1//EN"
 "http://www.w3.org/Graphics/SVG/1.1/DTD/svg11.dtd">
<!-- Generated by graphviz version 2.43.0 (0)
 -->
<!-- Title: helios::rendering::model::Mesh::Mesh Pages: 1 -->
<svg width="299pt" height="188pt"
 viewBox="0.00 0.00 299.00 188.00" xmlns="http://www.w3.org/2000/svg" xmlns:xlink="http://www.w3.org/1999/xlink">

<svg id="main" version="1.1" xmlns="http://www.w3.org/2000/svg" xmlns:xlink="http://www.w3.org/1999/xlink" xml:space="preserve">

<style type="text/css"><![CDATA[
.node, .edge {opacity: 0.7;}
.node.selected, .edge.selected {opacity: 1;}
.edge:hover path { stroke: red; }
.edge:hover polygon { stroke: red; fill: red; }
]]></style>
<script type="application/ecmascript" xlink:href="svg.min.js"/>
<svg id="graph" class="graph">
<g id="graph0" class="graph" transform="scale(1 1) rotate(0) translate(4 184)">
<title>helios::rendering::model::Mesh::Mesh</title>
<!-- Node1 -->
<g id="Node000001" class="node">
<title>Node1</title>
<g id="a_Node000001"><a xlink:title="Creates a new Mesh instance.">
<polygon fill="#999999" stroke="#666666" points="112,-96 0,-96 0,-66 112,-66 112,-96"/>
<text text-anchor="start" x="8" y="-84" font-family="Helvetica,sans-Serif" font-size="10.00">helios::rendering::</text>
<text text-anchor="middle" x="56" y="-73" font-family="Helvetica,sans-Serif" font-size="10.00">model::Mesh::Mesh</text>
</a>
</g>
</g>
<!-- Node2 -->
<g id="Node000002" class="node">
<title>Node2</title>
<g id="a_Node000002"><a xlink:href="classhelios_1_1rendering_1_1model_1_1Mesh.html#a5d5e430b3449485439c14953df2c0744" target="_top" xlink:title="Returns a const reference to the underlying indices. The returned data is guaranteed to be a valid re...">
<polygon fill="white" stroke="#666666" points="279.5,-162 159.5,-162 159.5,-132 279.5,-132 279.5,-162"/>
<text text-anchor="start" x="167.5" y="-150" font-family="Helvetica,sans-Serif" font-size="10.00">helios::rendering::</text>
<text text-anchor="middle" x="219.5" y="-139" font-family="Helvetica,sans-Serif" font-size="10.00">model::Mesh::indices</text>
</a>
</g>
</g>
<!-- Node1&#45;&gt;Node2 -->
<g id="edge1_Node000001_Node000002" class="edge">
<title>Node1&#45;&gt;Node2</title>
<g id="a_edge1_Node000001_Node000002"><a xlink:title=" ">
<path fill="none" stroke="#63b8ff" d="M87.82,-96.2C105.28,-104.56 127.64,-114.86 148,-123 152.68,-124.87 157.57,-126.73 162.5,-128.54"/>
<polygon fill="#63b8ff" stroke="#63b8ff" points="161.39,-131.85 171.98,-131.93 163.75,-125.26 161.39,-131.85"/>
</a>
</g>
</g>
<!-- Node3 -->
<g id="Node000003" class="node">
<title>Node3</title>
<g id="a_Node000003"><a xlink:href="classhelios_1_1rendering_1_1model_1_1Mesh.html#a0f0040d40bc06b1d36ca7ee9a7bbe2ca" target="_top" xlink:title="Returns a const reference to MeshConfig used with this Mesh. The returned MeshConfig is guaranteed to...">
<polygon fill="white" stroke="#666666" points="291,-96 148,-96 148,-66 291,-66 291,-96"/>
<text text-anchor="start" x="156" y="-84" font-family="Helvetica,sans-Serif" font-size="10.00">helios::rendering::</text>
<text text-anchor="middle" x="219.5" y="-73" font-family="Helvetica,sans-Serif" font-size="10.00">model::Mesh::meshConfig</text>
</a>
</g>
</g>
<!-- Node1&#45;&gt;Node3 -->
<g id="edge3_Node000001_Node000003" class="edge">
<title>Node1&#45;&gt;Node3</title>
<g id="a_edge3_Node000001_Node000003"><a xlink:title=" ">
<path fill="none" stroke="#63b8ff" d="M112.13,-81C120.4,-81 129.08,-81 137.75,-81"/>
<polygon fill="#63b8ff" stroke="#63b8ff" points="137.92,-84.5 147.92,-81 137.92,-77.5 137.92,-84.5"/>
</a>
</g>
</g>
<!-- Node4 -->
<g id="Node000004" class="node">
<title>Node4</title>
<g id="a_Node000004"><a xlink:href="classhelios_1_1rendering_1_1model_1_1Mesh.html#aa2383da2182e03b6308d1b878a43d244" target="_top" xlink:title="Returns a const reference to the underlying vertices. The returned data is guaranteed to be a valid r...">
<polygon fill="white" stroke="#666666" points="282,-30 157,-30 157,0 282,0 282,-30"/>
<text text-anchor="start" x="165" y="-18" font-family="Helvetica,sans-Serif" font-size="10.00">helios::rendering::</text>
<text text-anchor="middle" x="219.5" y="-7" font-family="Helvetica,sans-Serif" font-size="10.00">model::Mesh::vertices</text>
</a>
</g>
</g>
<!-- Node1&#45;&gt;Node4 -->
<g id="edge5_Node000001_Node000004" class="edge">
<title>Node1&#45;&gt;Node4</title>
<g id="a_edge5_Node000001_Node000004"><a xlink:title=" ">
<path fill="none" stroke="#63b8ff" d="M94.05,-65.86C117.24,-56.38 147.3,-44.1 172.07,-33.98"/>
<polygon fill="#63b8ff" stroke="#63b8ff" points="173.69,-37.09 181.62,-30.07 171.04,-30.61 173.69,-37.09"/>
</a>
</g>
</g>
<!-- Node2&#45;&gt;Node2 -->
<g id="edge2_Node000002_Node000002" class="edge">
<title>Node2&#45;&gt;Node2</title>
<g id="a_edge2_Node000002_Node000002"><a xlink:title=" ">
<path fill="none" stroke="#63b8ff" d="M191.02,-162.28C184.7,-171.41 194.19,-180 219.5,-180 234.53,-180 243.98,-176.97 247.86,-172.6"/>
<polygon fill="#63b8ff" stroke="#63b8ff" points="251.36,-172.32 247.98,-162.28 244.36,-172.23 251.36,-172.32"/>
</a>
</g>
</g>
<!-- Node3&#45;&gt;Node3 -->
<g id="edge4_Node000003_Node000003" class="edge">
<title>Node3&#45;&gt;Node3</title>
<g id="a_edge4_Node000003_Node000003"><a xlink:title=" ">
<path fill="none" stroke="#63b8ff" d="M191.02,-96.28C184.7,-105.41 194.19,-114 219.5,-114 234.53,-114 243.98,-110.97 247.86,-106.6"/>
<polygon fill="#63b8ff" stroke="#63b8ff" points="251.36,-106.32 247.98,-96.28 244.36,-106.23 251.36,-106.32"/>
</a>
</g>
</g>
<!-- Node4&#45;&gt;Node4 -->
<g id="edge6_Node000004_Node000004" class="edge">
<title>Node4&#45;&gt;Node4</title>
<g id="a_edge6_Node000004_Node000004"><a xlink:title=" ">
<path fill="none" stroke="#63b8ff" d="M191.02,-30.28C184.7,-39.41 194.19,-48 219.5,-48 234.53,-48 243.98,-44.97 247.86,-40.6"/>
<polygon fill="#63b8ff" stroke="#63b8ff" points="251.36,-40.32 247.98,-30.28 244.36,-40.23 251.36,-40.32"/>
</a>
</g>
</g>
</g>
</svg>
</svg>

<style type='text/css'>
<![CDATA[
[data-mouse-over-selected='false'] { opacity: 0.7; }
[data-mouse-over-selected='true']  { opacity: 1.0; }
]]>
</style>
<script type="application/ecmascript"><![CDATA[
document.addEventListener('DOMContentLoaded', (event) => {
  highlightEdges();
  highlightAdjacentNodes();
});
]]></script>
</svg>
