<?xml version="1.0" encoding="UTF-8" standalone="no"?>
<!DOCTYPE svg PUBLIC "-//W3C//DTD SVG 1.1//EN"
 "http://www.w3.org/Graphics/SVG/1.1/DTD/svg11.dtd">
<!-- Generated by graphviz version 2.43.0 (0)
 -->
<!-- Title: helios::ext::opengl::rendering::model::OpenGLMesh::OpenGLMesh Pages: 1 -->
<svg width="348pt" height="266pt"
 viewBox="0.00 0.00 348.00 266.00" xmlns="http://www.w3.org/2000/svg" xmlns:xlink="http://www.w3.org/1999/xlink">

<svg id="main" version="1.1" xmlns="http://www.w3.org/2000/svg" xmlns:xlink="http://www.w3.org/1999/xlink" xml:space="preserve">

<style type="text/css"><![CDATA[
.node, .edge {opacity: 0.7;}
.node.selected, .edge.selected {opacity: 1;}
.edge:hover path { stroke: red; }
.edge:hover polygon { stroke: red; fill: red; }
]]></style>
<script type="application/ecmascript" xlink:href="svg.min.js"/>
<svg id="graph" class="graph">
<g id="graph0" class="graph" transform="scale(1 1) rotate(0) translate(4 262)">
<title>helios::ext::opengl::rendering::model::OpenGLMesh::OpenGLMesh</title>
<!-- Node1 -->
<g id="Node000001" class="node">
<title>Node1</title>
<g id="a_Node000001"><a xlink:title="Constructs a new OpenGLMesh instance from raw mesh data.">
<polygon fill="#999999" stroke="#666666" points="152,-143.5 0,-143.5 0,-102.5 152,-102.5 152,-143.5"/>
<text text-anchor="start" x="8" y="-131.5" font-family="Helvetica,sans-Serif" font-size="10.00">helios::ext::opengl</text>
<text text-anchor="start" x="8" y="-120.5" font-family="Helvetica,sans-Serif" font-size="10.00">::rendering::model::</text>
<text text-anchor="middle" x="76" y="-109.5" font-family="Helvetica,sans-Serif" font-size="10.00">OpenGLMesh::OpenGLMesh</text>
</a>
</g>
</g>
<!-- Node2 -->
<g id="Node000002" class="node">
<title>Node2</title>
<g id="a_Node000002"><a xlink:href="classhelios_1_1rendering_1_1model_1_1Mesh.html#a5d5e430b3449485439c14953df2c0744" target="_top" xlink:title="Returns a const reference to the underlying indices. The returned data is guaranteed to be a valid re...">
<polygon fill="white" stroke="#666666" points="324,-240 204,-240 204,-210 324,-210 324,-240"/>
<text text-anchor="start" x="212" y="-228" font-family="Helvetica,sans-Serif" font-size="10.00">helios::rendering::</text>
<text text-anchor="middle" x="264" y="-217" font-family="Helvetica,sans-Serif" font-size="10.00">model::Mesh::indices</text>
</a>
</g>
</g>
<!-- Node1&#45;&gt;Node2 -->
<g id="edge1_Node000001_Node000002" class="edge">
<title>Node1&#45;&gt;Node2</title>
<g id="a_edge1_Node000001_Node000002"><a xlink:title=" ">
<path fill="none" stroke="#63b8ff" d="M101.63,-143.61C123.25,-160.88 156.15,-185.18 188,-201 191.72,-202.85 195.61,-204.59 199.58,-206.24"/>
<polygon fill="#63b8ff" stroke="#63b8ff" points="198.36,-209.52 208.95,-209.89 200.9,-203 198.36,-209.52"/>
</a>
</g>
</g>
<!-- Node3 -->
<g id="Node000003" class="node">
<title>Node3</title>
<g id="a_Node000003"><a xlink:href="classhelios_1_1rendering_1_1model_1_1Mesh.html#a0f0040d40bc06b1d36ca7ee9a7bbe2ca" target="_top" xlink:title="Returns a const reference to MeshConfig used with this Mesh. The returned MeshConfig is guaranteed to...">
<polygon fill="white" stroke="#666666" points="335.5,-174 192.5,-174 192.5,-144 335.5,-144 335.5,-174"/>
<text text-anchor="start" x="200.5" y="-162" font-family="Helvetica,sans-Serif" font-size="10.00">helios::rendering::</text>
<text text-anchor="middle" x="264" y="-151" font-family="Helvetica,sans-Serif" font-size="10.00">model::Mesh::meshConfig</text>
</a>
</g>
</g>
<!-- Node1&#45;&gt;Node3 -->
<g id="edge3_Node000001_Node000003" class="edge">
<title>Node1&#45;&gt;Node3</title>
<g id="a_edge3_Node000001_Node000003"><a xlink:title=" ">
<path fill="none" stroke="#63b8ff" d="M152.12,-137.54C162.1,-139.47 172.37,-141.46 182.44,-143.41"/>
<polygon fill="#63b8ff" stroke="#63b8ff" points="181.94,-146.88 192.42,-145.34 183.27,-140 181.94,-146.88"/>
</a>
</g>
</g>
<!-- Node4 -->
<g id="Node000004" class="node">
<title>Node4</title>
<g id="a_Node000004"><a xlink:href="classhelios_1_1ext_1_1opengl_1_1rendering_1_1model_1_1OpenGLMesh.html#a9b3f32bc20f441643ae07027a88ec3cd" target="_top" xlink:title="Rule of three.">
<polygon fill="white" stroke="#666666" points="340,-107.5 188,-107.5 188,-66.5 340,-66.5 340,-107.5"/>
<text text-anchor="start" x="196" y="-95.5" font-family="Helvetica,sans-Serif" font-size="10.00">helios::ext::opengl</text>
<text text-anchor="start" x="196" y="-84.5" font-family="Helvetica,sans-Serif" font-size="10.00">::rendering::model::</text>
<text text-anchor="middle" x="264" y="-73.5" font-family="Helvetica,sans-Serif" font-size="10.00">OpenGLMesh::OpenGLMesh</text>
</a>
</g>
</g>
<!-- Node1&#45;&gt;Node4 -->
<g id="edge5_Node000001_Node000004" class="edge">
<title>Node1&#45;&gt;Node4</title>
<g id="a_edge5_Node000001_Node000004"><a xlink:title=" ">
<path fill="none" stroke="#63b8ff" d="M152.12,-108.46C160.6,-106.82 169.28,-105.14 177.87,-103.48"/>
<polygon fill="#63b8ff" stroke="#63b8ff" points="178.75,-106.87 187.9,-101.53 177.42,-100 178.75,-106.87"/>
</a>
</g>
</g>
<!-- Node5 -->
<g id="Node000005" class="node">
<title>Node5</title>
<g id="a_Node000005"><a xlink:href="classhelios_1_1rendering_1_1model_1_1Mesh.html#aa2383da2182e03b6308d1b878a43d244" target="_top" xlink:title="Returns a const reference to the underlying vertices. The returned data is guaranteed to be a valid r...">
<polygon fill="white" stroke="#666666" points="326.5,-30 201.5,-30 201.5,0 326.5,0 326.5,-30"/>
<text text-anchor="start" x="209.5" y="-18" font-family="Helvetica,sans-Serif" font-size="10.00">helios::rendering::</text>
<text text-anchor="middle" x="264" y="-7" font-family="Helvetica,sans-Serif" font-size="10.00">model::Mesh::vertices</text>
</a>
</g>
</g>
<!-- Node1&#45;&gt;Node5 -->
<g id="edge7_Node000001_Node000005" class="edge">
<title>Node1&#45;&gt;Node5</title>
<g id="a_edge7_Node000001_Node000005"><a xlink:title=" ">
<path fill="none" stroke="#63b8ff" d="M111.95,-102.43C133.78,-89.6 162.49,-72.78 188,-58 200.96,-50.49 215.21,-42.3 227.78,-35.11"/>
<polygon fill="#63b8ff" stroke="#63b8ff" points="229.65,-38.07 236.59,-30.07 226.17,-31.99 229.65,-38.07"/>
</a>
</g>
</g>
<!-- Node2&#45;&gt;Node2 -->
<g id="edge2_Node000002_Node000002" class="edge">
<title>Node2&#45;&gt;Node2</title>
<g id="a_edge2_Node000002_Node000002"><a xlink:title=" ">
<path fill="none" stroke="#63b8ff" d="M230.95,-240.28C223.61,-249.41 234.62,-258 264,-258 281.44,-258 292.41,-254.97 296.91,-250.6"/>
<polygon fill="#63b8ff" stroke="#63b8ff" points="300.41,-250.32 297.05,-240.28 293.41,-250.23 300.41,-250.32"/>
</a>
</g>
</g>
<!-- Node3&#45;&gt;Node3 -->
<g id="edge4_Node000003_Node000003" class="edge">
<title>Node3&#45;&gt;Node3</title>
<g id="a_edge4_Node000003_Node000003"><a xlink:title=" ">
<path fill="none" stroke="#63b8ff" d="M230.95,-174.28C223.61,-183.41 234.62,-192 264,-192 281.44,-192 292.41,-188.97 296.91,-184.6"/>
<polygon fill="#63b8ff" stroke="#63b8ff" points="300.41,-184.32 297.05,-174.28 293.41,-184.23 300.41,-184.32"/>
</a>
</g>
</g>
<!-- Node4&#45;&gt;Node4 -->
<g id="edge6_Node000004_Node000004" class="edge">
<title>Node4&#45;&gt;Node4</title>
<g id="a_edge6_Node000004_Node000004"><a xlink:title=" ">
<path fill="none" stroke="#63b8ff" d="M229.45,-107.6C225.68,-117.15 237.2,-125.5 264,-125.5 280.75,-125.5 291.53,-122.24 296.34,-117.46"/>
<polygon fill="#63b8ff" stroke="#63b8ff" points="299.78,-118.12 298.55,-107.6 292.95,-116.59 299.78,-118.12"/>
</a>
</g>
</g>
<!-- Node5&#45;&gt;Node5 -->
<g id="edge8_Node000005_Node000005" class="edge">
<title>Node5&#45;&gt;Node5</title>
<g id="a_edge8_Node000005_Node000005"><a xlink:title=" ">
<path fill="none" stroke="#63b8ff" d="M230.95,-30.28C223.61,-39.41 234.62,-48 264,-48 281.44,-48 292.41,-44.97 296.91,-40.6"/>
<polygon fill="#63b8ff" stroke="#63b8ff" points="300.41,-40.32 297.05,-30.28 293.41,-40.23 300.41,-40.32"/>
</a>
</g>
</g>
</g>
</svg>
</svg>

<style type='text/css'>
<![CDATA[
[data-mouse-over-selected='false'] { opacity: 0.7; }
[data-mouse-over-selected='true']  { opacity: 1.0; }
]]>
</style>
<script type="application/ecmascript"><![CDATA[
document.addEventListener('DOMContentLoaded', (event) => {
  highlightEdges();
  highlightAdjacentNodes();
});
]]></script>
</svg>
