<?xml version="1.0" encoding="UTF-8" standalone="no"?>
<!DOCTYPE svg PUBLIC "-//W3C//DTD SVG 1.1//EN"
 "http://www.w3.org/Graphics/SVG/1.1/DTD/svg11.dtd">
<!-- Generated by graphviz version 2.43.0 (0)
 -->
<!-- Title: helios::scene::SceneNode::SceneNode Pages: 1 -->
<!--zoomable 674 -->

<svg id="main" version="1.1" xmlns="http://www.w3.org/2000/svg" xmlns:xlink="http://www.w3.org/1999/xlink" xml:space="preserve" onload="init(evt)">

<style type="text/css"><![CDATA[
.node, .edge {opacity: 0.7;}
.node.selected, .edge.selected {opacity: 1;}
.edge:hover path { stroke: red; }
.edge:hover polygon { stroke: red; fill: red; }
]]></style>

<defs>
  <circle id="rim" cx="0" cy="0" r="7"/>
  <circle id="rim2" cx="0" cy="0" r="3.5"/>
  <g id="zoomPlus">
    <use xlink:href="#rim" fill="#404040"><set attributeName="fill" to="#808080" begin="zoomplus.mouseover" end="zoomplus.mouseout"/></use>
    <path d="M-4,0h8M0,-4v8" fill="none" stroke="white" stroke-width="1.5" pointer-events="none"/>
  </g>
  <g id="zoomMin">
    <use xlink:href="#rim" fill="#404040"><set attributeName="fill" to="#808080" begin="zoomminus.mouseover" end="zoomminus.mouseout"/></use>
    <path d="M-4,0h8" fill="none" stroke="white" stroke-width="1.5" pointer-events="none"/>
  </g>
  <g id="arrowUp" transform="translate(30 24)">
    <use xlink:href="#rim"/>
    <path pointer-events="none" fill="none" stroke="white" stroke-width="1.5" d="M0,-3.0v7 M-2.5,-0.5L0,-3.0L2.5,-0.5"/>
  </g>
  <g id="arrowRight" transform="rotate(90) translate(36 -43)">
    <use xlink:href="#rim"/>
    <path pointer-events="none" fill="none" stroke="white" stroke-width="1.5" d="M0,-3.0v7 M-2.5,-0.5L0,-3.0L2.5,-0.5"/>
  </g>
  <g id="arrowDown" transform="rotate(180) translate(-30 -48)">
    <use xlink:href="#rim"/>
    <path pointer-events="none" fill="none" stroke="white" stroke-width="1.5" d="M0,-3.0v7 M-2.5,-0.5L0,-3.0L2.5,-0.5"/>
  </g>
  <g id="arrowLeft" transform="rotate(270) translate(-36 17)">
    <use xlink:href="#rim"/>
    <path pointer-events="none" fill="none" stroke="white" stroke-width="1.5" d="M0,-3.0v7 M-2.5,-0.5L0,-3.0L2.5,-0.5"/>
  </g>
  <g id="resetDef">
    <use xlink:href="#rim2" fill="#404040"><set attributeName="fill" to="#808080" begin="reset.mouseover" end="reset.mouseout"/></use>
  </g>
</defs>
<script type="application/ecmascript">
var viewWidth = 326;
var viewHeight = 674;
var sectionId = 'dynsection-3';
</script>
<script type="application/ecmascript" xlink:href="svg.min.js"/>
<svg id="graph" class="graph">
<g id="viewport">
<title>helios::scene::SceneNode::SceneNode</title>
<!-- Node1 -->
<g id="Node000001" class="node">
<title>Node1</title>
<g id="a_Node000001"><a xlink:title="Delete copy constructor. A SceneNode is not copyable.">
<polygon fill="#999999" stroke="#666666" points="318,-321 177,-321 177,-291 318,-291 318,-321"/>
<text text-anchor="start" x="185" y="-309" font-family="Helvetica,sans-Serif" font-size="10.00">helios::scene::SceneNode</text>
<text text-anchor="middle" x="247.5" y="-298" font-family="Helvetica,sans-Serif" font-size="10.00">::SceneNode</text>
</a>
</g>
</g>
<!-- Node1&#45;&gt;Node1 -->
<g id="edge13_Node000001_Node000001" class="edge">
<title>Node1&#45;&gt;Node1</title>
<g id="a_edge13_Node000001_Node000001"><a xlink:title=" ">
<path fill="none" stroke="#63b8ff" d="M278.31,-331.6C274.1,-335.97 263.83,-339 247.5,-339 220,-339 209.69,-330.41 216.56,-321.28"/>
<polygon fill="#63b8ff" stroke="#63b8ff" points="281.81,-331.32 278.44,-321.28 274.81,-331.23 281.81,-331.32"/>
</a>
</g>
</g>
<!-- Node2 -->
<g id="Node000002" class="node">
<title>Node2</title>
<g id="a_Node000002"><a xlink:href="classhelios_1_1scene_1_1Camera.html#a08c74a826af54a6de82dd64516df4017" target="_top" xlink:title="This method will do nothing but return `nullptr`, indicating that a `Camera` must not have child node...">
<polygon fill="white" stroke="#666666" points="133,-666 8,-666 8,-636 133,-636 133,-666"/>
<text text-anchor="start" x="16" y="-654" font-family="Helvetica,sans-Serif" font-size="10.00">helios::scene::Camera</text>
<text text-anchor="middle" x="70.5" y="-643" font-family="Helvetica,sans-Serif" font-size="10.00">::addChild</text>
</a>
</g>
</g>
<!-- Node1&#45;&gt;Node2 -->
<g id="edge1_Node000001_Node000002" class="edge">
<title>Node1&#45;&gt;Node2</title>
<g id="a_edge1_Node000001_Node000002"><a xlink:title=" ">
<path fill="none" stroke="#63b8ff" d="M245.52,-331.2C241.84,-390.92 224.33,-542.42 141,-627 137.6,-630.46 133.67,-633.41 129.45,-635.95"/>
<polygon fill="#63b8ff" stroke="#63b8ff" points="249.02,-331.32 246.06,-321.15 242.03,-330.95 249.02,-331.32"/>
</a>
</g>
</g>
<!-- Node3 -->
<g id="Node000003" class="node">
<title>Node3</title>
<g id="a_Node000003"><a xlink:href="classhelios_1_1scene_1_1SceneNode.html#a8f13644573f0a5ffd64d11424937fdce" target="_top" xlink:title="Adds a new child node to this SceneNode. The node&#39;s parent is automatically set to **this** node.">
<polygon fill="white" stroke="#666666" points="141,-600 0,-600 0,-570 141,-570 141,-600"/>
<text text-anchor="start" x="8" y="-588" font-family="Helvetica,sans-Serif" font-size="10.00">helios::scene::SceneNode</text>
<text text-anchor="middle" x="70.5" y="-577" font-family="Helvetica,sans-Serif" font-size="10.00">::addChild</text>
</a>
</g>
</g>
<!-- Node1&#45;&gt;Node3 -->
<g id="edge2_Node000001_Node000003" class="edge">
<title>Node1&#45;&gt;Node3</title>
<g id="a_edge2_Node000001_Node000003"><a xlink:title=" ">
<path fill="none" stroke="#63b8ff" d="M243.05,-331.12C234.79,-381.76 209.23,-496.73 141,-561 137.38,-564.41 133.24,-567.34 128.84,-569.86"/>
<polygon fill="#63b8ff" stroke="#63b8ff" points="246.54,-331.48 244.6,-321.06 239.62,-330.41 246.54,-331.48"/>
</a>
</g>
</g>
<!-- Node4 -->
<g id="Node000004" class="node">
<title>Node4</title>
<g id="a_Node000004"><a xlink:href="classhelios_1_1scene_1_1SceneNode.html#a345af64a75ad370d482051006658c81e" target="_top" xlink:title="Returns a const ref to the list of this node&#39;s children.">
<polygon fill="white" stroke="#666666" points="141,-534 0,-534 0,-504 141,-504 141,-534"/>
<text text-anchor="start" x="8" y="-522" font-family="Helvetica,sans-Serif" font-size="10.00">helios::scene::SceneNode</text>
<text text-anchor="middle" x="70.5" y="-511" font-family="Helvetica,sans-Serif" font-size="10.00">::children</text>
</a>
</g>
</g>
<!-- Node1&#45;&gt;Node4 -->
<g id="edge4_Node000001_Node000004" class="edge">
<title>Node1&#45;&gt;Node4</title>
<g id="a_edge4_Node000001_Node000004"><a xlink:title=" ">
<path fill="none" stroke="#63b8ff" d="M239.13,-330.71C225.94,-370.84 194.54,-450.17 141,-495 136.89,-498.44 132.26,-501.4 127.38,-503.94"/>
<polygon fill="#63b8ff" stroke="#63b8ff" points="242.47,-331.77 242.17,-321.18 235.8,-329.64 242.47,-331.77"/>
</a>
</g>
</g>
<!-- Node5 -->
<g id="Node000005" class="node">
<title>Node5</title>
<g id="a_Node000005"><a xlink:href="classhelios_1_1scene_1_1SceneNode.html#a7cc7b1c8b3b57927c9d33abd8f652964" target="_top" xlink:title="Delete copy assignment constructor. A SceneNode ist not indtended to be copied.">
<polygon fill="white" stroke="#666666" points="141,-486 0,-486 0,-456 141,-456 141,-486"/>
<text text-anchor="start" x="8" y="-474" font-family="Helvetica,sans-Serif" font-size="10.00">helios::scene::SceneNode</text>
<text text-anchor="middle" x="70.5" y="-463" font-family="Helvetica,sans-Serif" font-size="10.00">::operator=</text>
</a>
</g>
</g>
<!-- Node1&#45;&gt;Node5 -->
<g id="edge6_Node000001_Node000005" class="edge">
<title>Node1&#45;&gt;Node5</title>
<g id="a_edge6_Node000001_Node000005"><a xlink:title=" ">
<path fill="none" stroke="#63b8ff" d="M234.45,-329.99C217.61,-361.21 184.19,-415.48 141,-447 136.36,-450.39 131.2,-453.32 125.86,-455.87"/>
<polygon fill="#63b8ff" stroke="#63b8ff" points="237.57,-331.57 239.14,-321.09 231.38,-328.31 237.57,-331.57"/>
</a>
</g>
</g>
<!-- Node6 -->
<g id="Node000006" class="node">
<title>Node6</title>
<g id="a_Node000006"><a xlink:href="classhelios_1_1scene_1_1SceneNode.html#a4e31b52717a76a9bae9a80a1db0b808b" target="_top" xlink:title="Returns a pointer to this node&#39;s parent node.">
<polygon fill="white" stroke="#666666" points="141,-420 0,-420 0,-390 141,-390 141,-420"/>
<text text-anchor="start" x="8" y="-408" font-family="Helvetica,sans-Serif" font-size="10.00">helios::scene::SceneNode</text>
<text text-anchor="middle" x="70.5" y="-397" font-family="Helvetica,sans-Serif" font-size="10.00">::parent</text>
</a>
</g>
</g>
<!-- Node1&#45;&gt;Node6 -->
<g id="edge7_Node000001_Node000006" class="edge">
<title>Node1&#45;&gt;Node6</title>
<g id="a_edge7_Node000001_Node000006"><a xlink:title=" ">
<path fill="none" stroke="#63b8ff" d="M220.55,-327.66C199.98,-344 169.98,-366.09 141,-381 134.64,-384.27 127.74,-387.26 120.84,-389.93"/>
<polygon fill="#63b8ff" stroke="#63b8ff" points="222.89,-330.26 228.48,-321.26 218.5,-324.81 222.89,-330.26"/>
</a>
</g>
</g>
<!-- Node7 -->
<g id="Node000007" class="node">
<title>Node7</title>
<g id="a_Node000007"><a xlink:href="classhelios_1_1scene_1_1SceneNode.html#a93c13a4891599eeaf09fd47ae25439b9" target="_top" xlink:title="Applies rotation to this node&#39;s **local** transform. Marks the node dirty. Implementing APIs should c...">
<polygon fill="white" stroke="#666666" points="141,-354 0,-354 0,-324 141,-324 141,-354"/>
<text text-anchor="start" x="8" y="-342" font-family="Helvetica,sans-Serif" font-size="10.00">helios::scene::SceneNode</text>
<text text-anchor="middle" x="70.5" y="-331" font-family="Helvetica,sans-Serif" font-size="10.00">::rotate</text>
</a>
</g>
</g>
<!-- Node1&#45;&gt;Node7 -->
<g id="edge9_Node000001_Node000007" class="edge">
<title>Node1&#45;&gt;Node7</title>
<g id="a_edge9_Node000001_Node000007"><a xlink:title=" ">
<path fill="none" stroke="#63b8ff" d="M166.85,-321.02C158.3,-322.63 149.64,-324.26 141.21,-325.85"/>
<polygon fill="#63b8ff" stroke="#63b8ff" points="167.65,-324.43 176.83,-319.14 166.36,-317.55 167.65,-324.43"/>
</a>
</g>
</g>
<!-- Node8 -->
<g id="Node000008" class="node">
<title>Node8</title>
<g id="a_Node000008"><a xlink:href="classhelios_1_1scene_1_1SceneNode.html#aaadb3500317f5c3552d9f7192421e0de" target="_top" xlink:title="Applies a scaling transformation to this node&#39;s **local** transform. Marks the node dirty....">
<polygon fill="white" stroke="#666666" points="141,-288 0,-288 0,-258 141,-258 141,-288"/>
<text text-anchor="start" x="8" y="-276" font-family="Helvetica,sans-Serif" font-size="10.00">helios::scene::SceneNode</text>
<text text-anchor="middle" x="70.5" y="-265" font-family="Helvetica,sans-Serif" font-size="10.00">::scale</text>
</a>
</g>
</g>
<!-- Node1&#45;&gt;Node8 -->
<g id="edge11_Node000001_Node000008" class="edge">
<title>Node1&#45;&gt;Node8</title>
<g id="a_edge11_Node000001_Node000008"><a xlink:title=" ">
<path fill="none" stroke="#63b8ff" d="M166.85,-290.98C158.3,-289.37 149.64,-287.74 141.21,-286.15"/>
<polygon fill="#63b8ff" stroke="#63b8ff" points="166.36,-294.45 176.83,-292.86 167.65,-287.57 166.36,-294.45"/>
</a>
</g>
</g>
<!-- Node9 -->
<g id="Node000009" class="node">
<title>Node9</title>
<g id="a_Node000009"><a xlink:href="classhelios_1_1scene_1_1SceneNode.html#a1a7a726c994dd5b29a0719f45845ccb0" target="_top" xlink:title="Constructs a new SceneNode that represents no renderable object. Nodes constructed in this way should...">
<polygon fill="white" stroke="#666666" points="141,-240 0,-240 0,-210 141,-210 141,-240"/>
<text text-anchor="start" x="8" y="-228" font-family="Helvetica,sans-Serif" font-size="10.00">helios::scene::SceneNode</text>
<text text-anchor="middle" x="70.5" y="-217" font-family="Helvetica,sans-Serif" font-size="10.00">::SceneNode</text>
</a>
</g>
</g>
<!-- Node1&#45;&gt;Node9 -->
<g id="edge14_Node000001_Node000009" class="edge">
<title>Node1&#45;&gt;Node9</title>
<g id="a_edge14_Node000001_Node000009"><a xlink:title=" ">
<path fill="none" stroke="#63b8ff" d="M212.62,-285.87C192.27,-274.24 165.63,-259.82 141,-249 133.87,-245.87 126.19,-242.87 118.63,-240.11"/>
<polygon fill="#63b8ff" stroke="#63b8ff" points="211.09,-289.02 221.5,-290.99 214.59,-282.96 211.09,-289.02"/>
</a>
</g>
</g>
<!-- Node10 -->
<g id="Node000010" class="node">
<title>Node10</title>
<g id="a_Node000010"><a xlink:href="classhelios_1_1scene_1_1SceneNode.html#af2af3ad7c17ecf2a693724deed12ce02" target="_top" xlink:title="Constructs a new SceneNode representing a renderable object.">
<polygon fill="white" stroke="#666666" points="141,-192 0,-192 0,-162 141,-162 141,-192"/>
<text text-anchor="start" x="8" y="-180" font-family="Helvetica,sans-Serif" font-size="10.00">helios::scene::SceneNode</text>
<text text-anchor="middle" x="70.5" y="-169" font-family="Helvetica,sans-Serif" font-size="10.00">::SceneNode</text>
</a>
</g>
</g>
<!-- Node1&#45;&gt;Node10 -->
<g id="edge15_Node000001_Node000010" class="edge">
<title>Node1&#45;&gt;Node10</title>
<g id="a_edge15_Node000001_Node000010"><a xlink:title=" ">
<path fill="none" stroke="#63b8ff" d="M228.67,-282.93C209.37,-259.36 176.54,-223.17 141,-201 135.58,-197.62 129.63,-194.65 123.56,-192.05"/>
<polygon fill="#63b8ff" stroke="#63b8ff" points="226.16,-285.39 235.15,-290.99 231.62,-281 226.16,-285.39"/>
</a>
</g>
</g>
<!-- Node11 -->
<g id="Node000011" class="node">
<title>Node11</title>
<g id="a_Node000011"><a xlink:href="classhelios_1_1scene_1_1SceneNode.html#ac391d6973219428d9048caffe721cfb1" target="_top" xlink:title="Constructs a new SceneNode representing a renderable object.">
<polygon fill="white" stroke="#666666" points="141,-144 0,-144 0,-114 141,-114 141,-144"/>
<text text-anchor="start" x="8" y="-132" font-family="Helvetica,sans-Serif" font-size="10.00">helios::scene::SceneNode</text>
<text text-anchor="middle" x="70.5" y="-121" font-family="Helvetica,sans-Serif" font-size="10.00">::SceneNode</text>
</a>
</g>
</g>
<!-- Node1&#45;&gt;Node11 -->
<g id="edge16_Node000001_Node000011" class="edge">
<title>Node1&#45;&gt;Node11</title>
<g id="a_edge16_Node000001_Node000011"><a xlink:title=" ">
<path fill="none" stroke="#63b8ff" d="M235.68,-281.43C219.68,-247.79 186.59,-187.65 141,-153 136.53,-149.6 131.54,-146.66 126.35,-144.13"/>
<polygon fill="#63b8ff" stroke="#63b8ff" points="232.54,-282.96 239.92,-290.56 238.89,-280.02 232.54,-282.96"/>
</a>
</g>
</g>
<!-- Node12 -->
<g id="Node000012" class="node">
<title>Node12</title>
<g id="a_Node000012"><a xlink:href="classhelios_1_1scene_1_1SceneNode.html#a8e150f0c631aa964846dc20cd627b538" target="_top" xlink:title="Sets the parent of this SceneNode. Internally used once a child was added to this SceneNode.">
<polygon fill="white" stroke="#666666" points="141,-96 0,-96 0,-66 141,-66 141,-96"/>
<text text-anchor="start" x="8" y="-84" font-family="Helvetica,sans-Serif" font-size="10.00">helios::scene::SceneNode</text>
<text text-anchor="middle" x="70.5" y="-73" font-family="Helvetica,sans-Serif" font-size="10.00">::setParent</text>
</a>
</g>
</g>
<!-- Node1&#45;&gt;Node12 -->
<g id="edge17_Node000001_Node000012" class="edge">
<title>Node1&#45;&gt;Node12</title>
<g id="a_edge17_Node000001_Node000012"><a xlink:title=" ">
<path fill="none" stroke="#63b8ff" d="M240.03,-281.25C227.77,-239.11 197.21,-153.31 141,-105 137.03,-101.59 132.55,-98.65 127.82,-96.13"/>
<polygon fill="#63b8ff" stroke="#63b8ff" points="236.69,-282.29 242.76,-290.98 243.43,-280.4 236.69,-282.29"/>
</a>
</g>
</g>
<!-- Node13 -->
<g id="Node000013" class="node">
<title>Node13</title>
<g id="a_Node000013"><a xlink:href="classhelios_1_1scene_1_1SceneNode.html#a63bdfe0a081a96112036b8e7d226fd09" target="_top" xlink:title="Applies translation to this node&#39;s **local** transform. Marks the node dirty. Implementing APIs shoul...">
<polygon fill="white" stroke="#666666" points="141,-30 0,-30 0,0 141,0 141,-30"/>
<text text-anchor="start" x="8" y="-18" font-family="Helvetica,sans-Serif" font-size="10.00">helios::scene::SceneNode</text>
<text text-anchor="middle" x="70.5" y="-7" font-family="Helvetica,sans-Serif" font-size="10.00">::translate</text>
</a>
</g>
</g>
<!-- Node1&#45;&gt;Node13 -->
<g id="edge18_Node000001_Node000013" class="edge">
<title>Node1&#45;&gt;Node13</title>
<g id="a_edge18_Node000001_Node000013"><a xlink:title=" ">
<path fill="none" stroke="#63b8ff" d="M241.32,-280.91C230.28,-232.65 200.45,-125.61 141,-57 131.4,-45.92 118.13,-36.91 105.75,-30.12"/>
<polygon fill="#63b8ff" stroke="#63b8ff" points="237.93,-281.8 243.51,-290.8 244.77,-280.29 237.93,-281.8"/>
</a>
</g>
</g>
<!-- Node3&#45;&gt;Node3 -->
<g id="edge3_Node000003_Node000003" class="edge">
<title>Node3&#45;&gt;Node3</title>
<g id="a_edge3_Node000003_Node000003"><a xlink:title=" ">
<path fill="none" stroke="#63b8ff" d="M101.31,-610.6C97.1,-614.97 86.83,-618 70.5,-618 43,-618 32.69,-609.41 39.56,-600.28"/>
<polygon fill="#63b8ff" stroke="#63b8ff" points="104.81,-610.32 101.44,-600.28 97.81,-610.23 104.81,-610.32"/>
</a>
</g>
</g>
<!-- Node4&#45;&gt;Node4 -->
<g id="edge5_Node000004_Node000004" class="edge">
<title>Node4&#45;&gt;Node4</title>
<g id="a_edge5_Node000004_Node000004"><a xlink:title=" ">
<path fill="none" stroke="#63b8ff" d="M101.31,-544.6C97.1,-548.97 86.83,-552 70.5,-552 43,-552 32.69,-543.41 39.56,-534.28"/>
<polygon fill="#63b8ff" stroke="#63b8ff" points="104.81,-544.32 101.44,-534.28 97.81,-544.23 104.81,-544.32"/>
</a>
</g>
</g>
<!-- Node6&#45;&gt;Node6 -->
<g id="edge8_Node000006_Node000006" class="edge">
<title>Node6&#45;&gt;Node6</title>
<g id="a_edge8_Node000006_Node000006"><a xlink:title=" ">
<path fill="none" stroke="#63b8ff" d="M101.31,-430.6C97.1,-434.97 86.83,-438 70.5,-438 43,-438 32.69,-429.41 39.56,-420.28"/>
<polygon fill="#63b8ff" stroke="#63b8ff" points="104.81,-430.32 101.44,-420.28 97.81,-430.23 104.81,-430.32"/>
</a>
</g>
</g>
<!-- Node7&#45;&gt;Node7 -->
<g id="edge10_Node000007_Node000007" class="edge">
<title>Node7&#45;&gt;Node7</title>
<g id="a_edge10_Node000007_Node000007"><a xlink:title=" ">
<path fill="none" stroke="#63b8ff" d="M101.31,-364.6C97.1,-368.97 86.83,-372 70.5,-372 43,-372 32.69,-363.41 39.56,-354.28"/>
<polygon fill="#63b8ff" stroke="#63b8ff" points="104.81,-364.32 101.44,-354.28 97.81,-364.23 104.81,-364.32"/>
</a>
</g>
</g>
<!-- Node8&#45;&gt;Node8 -->
<g id="edge12_Node000008_Node000008" class="edge">
<title>Node8&#45;&gt;Node8</title>
<g id="a_edge12_Node000008_Node000008"><a xlink:title=" ">
<path fill="none" stroke="#63b8ff" d="M101.31,-298.6C97.1,-302.97 86.83,-306 70.5,-306 43,-306 32.69,-297.41 39.56,-288.28"/>
<polygon fill="#63b8ff" stroke="#63b8ff" points="104.81,-298.32 101.44,-288.28 97.81,-298.23 104.81,-298.32"/>
</a>
</g>
</g>
<!-- Node13&#45;&gt;Node13 -->
<g id="edge19_Node000013_Node000013" class="edge">
<title>Node13&#45;&gt;Node13</title>
<g id="a_edge19_Node000013_Node000013"><a xlink:title=" ">
<path fill="none" stroke="#63b8ff" d="M101.31,-40.6C97.1,-44.97 86.83,-48 70.5,-48 43,-48 32.69,-39.41 39.56,-30.28"/>
<polygon fill="#63b8ff" stroke="#63b8ff" points="104.81,-40.32 101.44,-30.28 97.81,-40.23 104.81,-40.32"/>
</a>
</g>
</g>
</g>
</svg>

<g id="navigator" transform="translate(0 0)" fill="#404254">
  <rect fill="#f2f5e9" fill-opacity="0.5" stroke="#606060" stroke-width=".5" x="0" y="0" width="60" height="60"/>
  <use id="zoomplus" xlink:href="#zoomPlus" x="17" y="9" onmousedown="handleZoom(evt,'in')"/>
  <use id="zoomminus" xlink:href="#zoomMin" x="42" y="9" onmousedown="handleZoom(evt,'out')"/>
  <use id="reset" xlink:href="#resetDef" x="30" y="36" onmousedown="handleReset()"/>
   <use id="arrowup" xlink:href="#arrowUp" x="0" y="0" onmousedown="handlePan(0,-1)"/>
  <use id="arrowright" xlink:href="#arrowRight" x="0" y="0" onmousedown="handlePan(1,0)"/>
  <use id="arrowdown" xlink:href="#arrowDown" x="0" y="0" onmousedown="handlePan(0,1)"/>
  <use id="arrowleft" xlink:href="#arrowLeft" x="0" y="0" onmousedown="handlePan(-1,0)"/>
</g>
<svg viewBox="0 0 15 15" width="100%" height="30px" preserveAspectRatio="xMaxYMin meet">
 <g id="arrow_out" transform="scale(0.3 0.3)">
  <a xlink:href="classhelios_1_1scene_1_1SceneNode_a30ad1d7f49d6114a261cbac2706546ab_icgraph_org.svg" target="_base">
   <rect id="button" ry="5" rx="5" y="6" x="6" height="38" width="38"
        fill="#f2f5e9" fill-opacity="0.5" stroke="#606060" stroke-width="1.0"/>
   <path id="arrow"
     d="M 11.500037,31.436501 C 11.940474,20.09759 22.043105,11.32322 32.158766,21.979434 L 37.068811,17.246167 C 37.068811,17.246167 37.088388,32 37.088388,32 L 22.160133,31.978069 C 22.160133,31.978069 26.997745,27.140456 26.997745,27.140456 C 18.528582,18.264221 13.291696,25.230495 11.500037,31.436501 z"
     style="fill:#404040;"/>
  </a>
 </g>
</svg>

<style type='text/css'>
<![CDATA[
[data-mouse-over-selected='false'] { opacity: 0.7; }
[data-mouse-over-selected='true']  { opacity: 1.0; }
]]>
</style>
<script type="application/ecmascript"><![CDATA[
document.addEventListener('DOMContentLoaded', (event) => {
  highlightEdges();
  highlightAdjacentNodes();
});
]]></script>
</svg>
