<?xml version="1.0" encoding="UTF-8" standalone="no"?>
<!DOCTYPE svg PUBLIC "-//W3C//DTD SVG 1.1//EN"
 "http://www.w3.org/Graphics/SVG/1.1/DTD/svg11.dtd">
<!-- Generated by graphviz version 2.43.0 (0)
 -->
<!-- Title: helios::ext::glfw::app::GLFWRAIIGuard::GLFWRAIIGuard Pages: 1 -->
<svg width="292pt" height="226pt"
 viewBox="0.00 0.00 292.00 226.00" xmlns="http://www.w3.org/2000/svg" xmlns:xlink="http://www.w3.org/1999/xlink">

<svg id="main" version="1.1" xmlns="http://www.w3.org/2000/svg" xmlns:xlink="http://www.w3.org/1999/xlink" xml:space="preserve">

<style type="text/css"><![CDATA[
.node, .edge {opacity: 0.7;}
.node.selected, .edge.selected {opacity: 1;}
.edge:hover path { stroke: red; }
.edge:hover polygon { stroke: red; fill: red; }
]]></style>
<script type="application/ecmascript" xlink:href="svg.min.js"/>
<svg id="graph" class="graph">
<g id="graph0" class="graph" transform="scale(1 1) rotate(0) translate(4 222)">
<title>helios::ext::glfw::app::GLFWRAIIGuard::GLFWRAIIGuard</title>
<!-- Node1 -->
<g id="Node000001" class="node">
<title>Node1</title>
<g id="a_Node000001"><a xlink:title="Initializes the glfw library by calling `glfwInit()`.">
<polygon fill="#999999" stroke="#666666" points="284,-129 160,-129 160,-88 284,-88 284,-129"/>
<text text-anchor="start" x="168" y="-117" font-family="Helvetica,sans-Serif" font-size="10.00">helios::ext::glfw::</text>
<text text-anchor="start" x="168" y="-106" font-family="Helvetica,sans-Serif" font-size="10.00">app::GLFWRAIIGuard::</text>
<text text-anchor="middle" x="222" y="-95" font-family="Helvetica,sans-Serif" font-size="10.00">GLFWRAIIGuard</text>
</a>
</g>
</g>
<!-- Node2 -->
<g id="Node000002" class="node">
<title>Node2</title>
<g id="a_Node000002"><a xlink:href="classhelios_1_1ext_1_1glfw_1_1app_1_1GLFWRAIIGuard.html#abd3a5d9eda6e2f8f739d57b47810d314" target="_top" xlink:title=" ">
<polygon fill="white" stroke="#666666" points="124,-218 0,-218 0,-177 124,-177 124,-218"/>
<text text-anchor="start" x="8" y="-206" font-family="Helvetica,sans-Serif" font-size="10.00">helios::ext::glfw::</text>
<text text-anchor="start" x="8" y="-195" font-family="Helvetica,sans-Serif" font-size="10.00">app::GLFWRAIIGuard::</text>
<text text-anchor="middle" x="62" y="-184" font-family="Helvetica,sans-Serif" font-size="10.00">GLFWRAIIGuard</text>
</a>
</g>
</g>
<!-- Node1&#45;&gt;Node2 -->
<g id="edge1_Node000001_Node000002" class="edge">
<title>Node1&#45;&gt;Node2</title>
<g id="a_edge1_Node000001_Node000002"><a xlink:title=" ">
<path fill="none" stroke="#63b8ff" d="M180.93,-134.66C163.67,-145.57 143.1,-158.09 124,-168.5 118.75,-171.36 113.17,-174.23 107.6,-177"/>
<polygon fill="#63b8ff" stroke="#63b8ff" points="183.07,-137.45 189.63,-129.13 179.31,-131.54 183.07,-137.45"/>
</a>
</g>
</g>
<!-- Node3 -->
<g id="Node000003" class="node">
<title>Node3</title>
<g id="a_Node000003"><a xlink:href="classhelios_1_1ext_1_1glfw_1_1app_1_1GLFWRAIIGuard.html#ae20f63cd3cda1c6a3673d5962bd4fe13" target="_top" xlink:title="No copy or move.">
<polygon fill="white" stroke="#666666" points="124,-159 0,-159 0,-118 124,-118 124,-159"/>
<text text-anchor="start" x="8" y="-147" font-family="Helvetica,sans-Serif" font-size="10.00">helios::ext::glfw::</text>
<text text-anchor="start" x="8" y="-136" font-family="Helvetica,sans-Serif" font-size="10.00">app::GLFWRAIIGuard::</text>
<text text-anchor="middle" x="62" y="-125" font-family="Helvetica,sans-Serif" font-size="10.00">GLFWRAIIGuard</text>
</a>
</g>
</g>
<!-- Node1&#45;&gt;Node3 -->
<g id="edge2_Node000001_Node000003" class="edge">
<title>Node1&#45;&gt;Node3</title>
<g id="a_edge2_Node000001_Node000003"><a xlink:title=" ">
<path fill="none" stroke="#63b8ff" d="M149.91,-122C141.33,-123.63 132.61,-125.28 124.18,-126.88"/>
<polygon fill="#63b8ff" stroke="#63b8ff" points="150.74,-125.4 159.91,-120.1 149.44,-118.53 150.74,-125.4"/>
</a>
</g>
</g>
<!-- Node4 -->
<g id="Node000004" class="node">
<title>Node4</title>
<g id="a_Node000004"><a xlink:href="classhelios_1_1ext_1_1glfw_1_1app_1_1GLFWRAIIGuard.html#a676c87e0841663581037a25f2f91b342" target="_top" xlink:title=" ">
<polygon fill="white" stroke="#666666" points="124,-100 0,-100 0,-59 124,-59 124,-100"/>
<text text-anchor="start" x="8" y="-88" font-family="Helvetica,sans-Serif" font-size="10.00">helios::ext::glfw::</text>
<text text-anchor="start" x="8" y="-77" font-family="Helvetica,sans-Serif" font-size="10.00">app::GLFWRAIIGuard::</text>
<text text-anchor="middle" x="62" y="-66" font-family="Helvetica,sans-Serif" font-size="10.00">operator=</text>
</a>
</g>
</g>
<!-- Node1&#45;&gt;Node4 -->
<g id="edge3_Node000001_Node000004" class="edge">
<title>Node1&#45;&gt;Node4</title>
<g id="a_edge3_Node000001_Node000004"><a xlink:title=" ">
<path fill="none" stroke="#63b8ff" d="M149.91,-95.45C141.33,-93.88 132.61,-92.28 124.18,-90.73"/>
<polygon fill="#63b8ff" stroke="#63b8ff" points="149.45,-98.92 159.91,-97.29 150.71,-92.04 149.45,-98.92"/>
</a>
</g>
</g>
<!-- Node5 -->
<g id="Node000005" class="node">
<title>Node5</title>
<g id="a_Node000005"><a xlink:href="classhelios_1_1ext_1_1glfw_1_1app_1_1GLFWRAIIGuard.html#a41fef77759e58e66eb27ea3373d3bee9" target="_top" xlink:title=" ">
<polygon fill="white" stroke="#666666" points="124,-41 0,-41 0,0 124,0 124,-41"/>
<text text-anchor="start" x="8" y="-29" font-family="Helvetica,sans-Serif" font-size="10.00">helios::ext::glfw::</text>
<text text-anchor="start" x="8" y="-18" font-family="Helvetica,sans-Serif" font-size="10.00">app::GLFWRAIIGuard::</text>
<text text-anchor="middle" x="62" y="-7" font-family="Helvetica,sans-Serif" font-size="10.00">operator=</text>
</a>
</g>
</g>
<!-- Node1&#45;&gt;Node5 -->
<g id="edge4_Node000001_Node000005" class="edge">
<title>Node1&#45;&gt;Node5</title>
<g id="a_edge4_Node000001_Node000005"><a xlink:title=" ">
<path fill="none" stroke="#63b8ff" d="M179.56,-82.7C162.53,-72.37 142.5,-60.56 124,-50.5 118.19,-47.34 112.01,-44.13 105.89,-41.04"/>
<polygon fill="#63b8ff" stroke="#63b8ff" points="177.81,-85.74 188.17,-87.96 181.45,-79.76 177.81,-85.74"/>
</a>
</g>
</g>
</g>
</svg>
</svg>

<style type='text/css'>
<![CDATA[
[data-mouse-over-selected='false'] { opacity: 0.7; }
[data-mouse-over-selected='true']  { opacity: 1.0; }
]]>
</style>
<script type="application/ecmascript"><![CDATA[
document.addEventListener('DOMContentLoaded', (event) => {
  highlightEdges();
  highlightAdjacentNodes();
});
]]></script>
</svg>
