<?xml version="1.0" encoding="UTF-8" standalone="no"?>
<!DOCTYPE svg PUBLIC "-//W3C//DTD SVG 1.1//EN"
 "http://www.w3.org/Graphics/SVG/1.1/DTD/svg11.dtd">
<!-- Generated by graphviz version 2.43.0 (0)
 -->
<!-- Title: include/helios/engine/game/Command.ixx Pages: 1 -->
<!--zoomable 511 -->

<svg id="main" version="1.1" xmlns="http://www.w3.org/2000/svg" xmlns:xlink="http://www.w3.org/1999/xlink" xml:space="preserve" onload="init(evt)">

<style type="text/css"><![CDATA[
.node, .edge {opacity: 0.7;}
.node.selected, .edge.selected {opacity: 1;}
.edge:hover path { stroke: red; }
.edge:hover polygon { stroke: red; fill: red; }
]]></style>

<defs>
  <circle id="rim" cx="0" cy="0" r="7"/>
  <circle id="rim2" cx="0" cy="0" r="3.5"/>
  <g id="zoomPlus">
    <use xlink:href="#rim" fill="#404040"><set attributeName="fill" to="#808080" begin="zoomplus.mouseover" end="zoomplus.mouseout"/></use>
    <path d="M-4,0h8M0,-4v8" fill="none" stroke="white" stroke-width="1.5" pointer-events="none"/>
  </g>
  <g id="zoomMin">
    <use xlink:href="#rim" fill="#404040"><set attributeName="fill" to="#808080" begin="zoomminus.mouseover" end="zoomminus.mouseout"/></use>
    <path d="M-4,0h8" fill="none" stroke="white" stroke-width="1.5" pointer-events="none"/>
  </g>
  <g id="arrowUp" transform="translate(30 24)">
    <use xlink:href="#rim"/>
    <path pointer-events="none" fill="none" stroke="white" stroke-width="1.5" d="M0,-3.0v7 M-2.5,-0.5L0,-3.0L2.5,-0.5"/>
  </g>
  <g id="arrowRight" transform="rotate(90) translate(36 -43)">
    <use xlink:href="#rim"/>
    <path pointer-events="none" fill="none" stroke="white" stroke-width="1.5" d="M0,-3.0v7 M-2.5,-0.5L0,-3.0L2.5,-0.5"/>
  </g>
  <g id="arrowDown" transform="rotate(180) translate(-30 -48)">
    <use xlink:href="#rim"/>
    <path pointer-events="none" fill="none" stroke="white" stroke-width="1.5" d="M0,-3.0v7 M-2.5,-0.5L0,-3.0L2.5,-0.5"/>
  </g>
  <g id="arrowLeft" transform="rotate(270) translate(-36 17)">
    <use xlink:href="#rim"/>
    <path pointer-events="none" fill="none" stroke="white" stroke-width="1.5" d="M0,-3.0v7 M-2.5,-0.5L0,-3.0L2.5,-0.5"/>
  </g>
  <g id="resetDef">
    <use xlink:href="#rim2" fill="#404040"><set attributeName="fill" to="#808080" begin="reset.mouseover" end="reset.mouseout"/></use>
  </g>
</defs>
<script type="application/ecmascript">
var viewWidth = 1096;
var viewHeight = 511;
var sectionId = 'dynsection-0';
</script>
<script type="application/ecmascript" xlink:href="svg.min.js"/>
<svg id="graph" class="graph">
<g id="viewport">
<title>include/helios/engine/game/Command.ixx</title>
<!-- Node1 -->
<g id="Node000001" class="node">
<title>Node1</title>
<g id="a_Node000001"><a xlink:title="Abstract base class for game commands following the Command pattern.">
<polygon fill="#999999" stroke="#666666" points="697,-503 577,-503 577,-473 697,-473 697,-503"/>
<text text-anchor="start" x="585" y="-491" font-family="Helvetica,sans-Serif" font-size="10.00">include/helios/engine</text>
<text text-anchor="middle" x="637" y="-480" font-family="Helvetica,sans-Serif" font-size="10.00">/game/Command.ixx</text>
</a>
</g>
</g>
<!-- Node2 -->
<g id="Node000002" class="node">
<title>Node2</title>
<g id="a_Node000002"><a xlink:href="GameObject_8ixx.html" target="_top" xlink:title="Base class for interactive game entities with transform capabilities.">
<polygon fill="white" stroke="#666666" points="725,-437 549,-437 549,-418 725,-418 725,-437"/>
<text text-anchor="middle" x="637" y="-425" font-family="Helvetica,sans-Serif" font-size="10.00">helios.engine.game.GameObject</text>
</a>
</g>
</g>
<!-- Node1&#45;&gt;Node2 -->
<g id="edge1_Node000001_Node000002" class="edge">
<title>Node1&#45;&gt;Node2</title>
<g id="a_edge1_Node000001_Node000002"><a xlink:title=" ">
<path fill="none" stroke="#63b8ff" d="M637,-472.84C637,-465.21 637,-455.7 637,-447.45"/>
<polygon fill="#63b8ff" stroke="#63b8ff" points="640.5,-447.27 637,-437.27 633.5,-447.27 640.5,-447.27"/>
</a>
</g>
</g>
<!-- Node3 -->
<g id="Node000003" class="node">
<title>Node3</title>
<g id="a_Node000003"><a xlink:title=" ">
<polygon fill="#e0e0e0" stroke="#999999" points="67,-74 9,-74 9,-55 67,-55 67,-74"/>
<text text-anchor="middle" x="38" y="-62" font-family="Helvetica,sans-Serif" font-size="10.00">memory</text>
</a>
</g>
</g>
<!-- Node2&#45;&gt;Node3 -->
<g id="edge2_Node000002_Node000003" class="edge">
<title>Node2&#45;&gt;Node3</title>
<g id="a_edge2_Node000002_Node000003"><a xlink:title=" ">
<path fill="none" stroke="#63b8ff" d="M548.76,-427.39C373.87,-426.76 0,-412.5 0,-302 0,-302 0,-302 0,-173.5 0,-140.02 16.45,-103.84 27.7,-83.01"/>
<polygon fill="#63b8ff" stroke="#63b8ff" points="30.87,-84.53 32.72,-74.1 24.76,-81.1 30.87,-84.53"/>
</a>
</g>
</g>
<!-- Node4 -->
<g id="Node000004" class="node">
<title>Node4</title>
<g id="a_Node000004"><a xlink:title=" ">
<polygon fill="#e0e0e0" stroke="#999999" points="379.5,-74 332.5,-74 332.5,-55 379.5,-55 379.5,-74"/>
<text text-anchor="middle" x="356" y="-62" font-family="Helvetica,sans-Serif" font-size="10.00">vector</text>
</a>
</g>
</g>
<!-- Node2&#45;&gt;Node4 -->
<g id="edge3_Node000002_Node000004" class="edge">
<title>Node2&#45;&gt;Node4</title>
<g id="a_edge3_Node000002_Node000004"><a xlink:title=" ">
<path fill="none" stroke="#63b8ff" d="M627.94,-417.8C619.71,-409.39 607.84,-395.91 601,-382 584.88,-349.2 582,-338.54 582,-302 582,-302 582,-302 582,-173.5 582,-89.43 453.13,-70.75 390.01,-66.63"/>
<polygon fill="#63b8ff" stroke="#63b8ff" points="389.94,-63.12 379.76,-66.06 389.55,-70.11 389.94,-63.12"/>
</a>
</g>
</g>
<!-- Node5 -->
<g id="Node000005" class="node">
<title>Node5</title>
<g id="a_Node000005"><a xlink:href="Updatable_8ixx.html" target="_top" xlink:title="Interface for components that require per&#45;frame updates.">
<polygon fill="white" stroke="#666666" points="776,-376.5 610,-376.5 610,-357.5 776,-357.5 776,-376.5"/>
<text text-anchor="middle" x="693" y="-364.5" font-family="Helvetica,sans-Serif" font-size="10.00">helios.engine.game.Updatable</text>
</a>
</g>
</g>
<!-- Node2&#45;&gt;Node5 -->
<g id="edge4_Node000002_Node000005" class="edge">
<title>Node2&#45;&gt;Node5</title>
<g id="a_edge4_Node000002_Node000005"><a xlink:title=" ">
<path fill="none" stroke="#63b8ff" d="M645.26,-417.87C653.78,-408.97 667.26,-394.89 677.73,-383.95"/>
<polygon fill="#63b8ff" stroke="#63b8ff" points="680.32,-386.31 684.7,-376.67 675.26,-381.47 680.32,-386.31"/>
</a>
</g>
</g>
<!-- Node6 -->
<g id="Node000006" class="node">
<title>Node6</title>
<g id="a_Node000006"><a xlink:href="UpdateContext_8ixx.html" target="_top" xlink:title="Context struct passed to components during per&#45;frame updates.">
<polygon fill="white" stroke="#666666" points="531.5,-382 380.5,-382 380.5,-352 531.5,-352 531.5,-382"/>
<text text-anchor="start" x="388.5" y="-370" font-family="Helvetica,sans-Serif" font-size="10.00">helios.engine.game.Update</text>
<text text-anchor="middle" x="456" y="-359" font-family="Helvetica,sans-Serif" font-size="10.00">Context</text>
</a>
</g>
</g>
<!-- Node2&#45;&gt;Node6 -->
<g id="edge5_Node000002_Node000006" class="edge">
<title>Node2&#45;&gt;Node6</title>
<g id="a_edge5_Node000002_Node000006"><a xlink:title=" ">
<path fill="none" stroke="#63b8ff" d="M610.68,-417.99C584.18,-409.43 542.54,-395.97 509.14,-385.18"/>
<polygon fill="#63b8ff" stroke="#63b8ff" points="510.11,-381.81 499.52,-382.06 507.95,-388.47 510.11,-381.81"/>
</a>
</g>
</g>
<!-- Node18 -->
<g id="Node000018" class="node">
<title>Node18</title>
<g id="a_Node000018"><a xlink:href="Component_8ixx.html" target="_top" xlink:title="Base class for components attached to GameObjects.">
<polygon fill="white" stroke="#666666" points="966,-376.5 794,-376.5 794,-357.5 966,-357.5 966,-376.5"/>
<text text-anchor="middle" x="880" y="-364.5" font-family="Helvetica,sans-Serif" font-size="10.00">helios.engine.game.Component</text>
</a>
</g>
</g>
<!-- Node2&#45;&gt;Node18 -->
<g id="edge27_Node000002_Node000018" class="edge">
<title>Node2&#45;&gt;Node18</title>
<g id="a_edge27_Node000002_Node000018"><a xlink:title=" ">
<path fill="none" stroke="#63b8ff" d="M672.33,-417.99C715.26,-407.66 787.74,-390.21 834.72,-378.9"/>
<polygon fill="#63b8ff" stroke="#63b8ff" points="835.72,-382.26 844.62,-376.52 834.08,-375.45 835.72,-382.26"/>
</a>
</g>
</g>
<!-- Node19 -->
<g id="Node000019" class="node">
<title>Node19</title>
<g id="a_Node000019"><a xlink:href="Guid_8ixx.html" target="_top" xlink:title="Lightweight GUID (globally unique identifier) implementation.">
<polygon fill="white" stroke="#666666" points="1074,-376.5 984,-376.5 984,-357.5 1074,-357.5 1074,-376.5"/>
<text text-anchor="middle" x="1029" y="-364.5" font-family="Helvetica,sans-Serif" font-size="10.00">helios.util.Guid</text>
</a>
</g>
</g>
<!-- Node2&#45;&gt;Node19 -->
<g id="edge28_Node000002_Node000019" class="edge">
<title>Node2&#45;&gt;Node19</title>
<g id="a_edge28_Node000002_Node000019"><a xlink:title=" ">
<path fill="none" stroke="#63b8ff" d="M724.31,-417.98C792.84,-410.58 890.47,-398.46 975,-382 979.51,-381.12 984.2,-380.09 988.85,-378.99"/>
<polygon fill="#63b8ff" stroke="#63b8ff" points="990.01,-382.31 998.88,-376.51 988.33,-375.51 990.01,-382.31"/>
</a>
</g>
</g>
<!-- Node7 -->
<g id="Node000007" class="node">
<title>Node7</title>
<g id="a_Node000007"><a xlink:title=" ">
<polygon fill="#e0e0e0" stroke="#999999" points="488.5,-310.5 423.5,-310.5 423.5,-291.5 488.5,-291.5 488.5,-310.5"/>
<text text-anchor="middle" x="456" y="-298.5" font-family="Helvetica,sans-Serif" font-size="10.00">stdexcept</text>
</a>
</g>
</g>
<!-- Node6&#45;&gt;Node7 -->
<g id="edge6_Node000006_Node000007" class="edge">
<title>Node6&#45;&gt;Node7</title>
<g id="a_edge6_Node000006_Node000007"><a xlink:title=" ">
<path fill="none" stroke="#63b8ff" d="M456,-351.8C456,-342.7 456,-330.79 456,-320.9"/>
<polygon fill="#63b8ff" stroke="#63b8ff" points="459.5,-320.84 456,-310.84 452.5,-320.84 459.5,-320.84"/>
</a>
</g>
</g>
<!-- Node8 -->
<g id="Node000008" class="node">
<title>Node8</title>
<g id="a_Node000008"><a xlink:href="InputSnapshot_8ixx.html" target="_top" xlink:title="Immutable snapshot of input state at a specific point in time.">
<polygon fill="white" stroke="#666666" points="316,-316 176,-316 176,-286 316,-286 316,-316"/>
<text text-anchor="start" x="184" y="-304" font-family="Helvetica,sans-Serif" font-size="10.00">helios.engine.game.Input</text>
<text text-anchor="middle" x="246" y="-293" font-family="Helvetica,sans-Serif" font-size="10.00">Snapshot</text>
</a>
</g>
</g>
<!-- Node6&#45;&gt;Node8 -->
<g id="edge7_Node000006_Node000008" class="edge">
<title>Node6&#45;&gt;Node8</title>
<g id="a_edge7_Node000006_Node000008"><a xlink:title=" ">
<path fill="none" stroke="#63b8ff" d="M409.91,-351.95C378.05,-342.24 335.47,-329.27 301.7,-318.98"/>
<polygon fill="#63b8ff" stroke="#63b8ff" points="302.56,-315.58 291.98,-316.01 300.52,-322.28 302.56,-315.58"/>
</a>
</g>
</g>
<!-- Node9 -->
<g id="Node000009" class="node">
<title>Node9</title>
<g id="a_Node000009"><a xlink:href="GamepadState_8ixx.html" target="_top" xlink:title="Representation of current gamepad input state.">
<polygon fill="white" stroke="#666666" points="311.5,-250 138.5,-250 138.5,-220 311.5,-220 311.5,-250"/>
<text text-anchor="start" x="146.5" y="-238" font-family="Helvetica,sans-Serif" font-size="10.00">helios.input.gamepad.Gamepad</text>
<text text-anchor="middle" x="225" y="-227" font-family="Helvetica,sans-Serif" font-size="10.00">State</text>
</a>
</g>
</g>
<!-- Node8&#45;&gt;Node9 -->
<g id="edge8_Node000008_Node000009" class="edge">
<title>Node8&#45;&gt;Node9</title>
<g id="a_edge8_Node000008_Node000009"><a xlink:title=" ">
<path fill="none" stroke="#63b8ff" d="M241.34,-285.8C238.84,-278.17 235.69,-268.57 232.82,-259.84"/>
<polygon fill="#63b8ff" stroke="#63b8ff" points="236.09,-258.57 229.65,-250.16 229.44,-260.76 236.09,-258.57"/>
</a>
</g>
</g>
<!-- Node10 -->
<g id="Node000010" class="node">
<title>Node10</title>
<g id="a_Node000010"><a xlink:href="LogManager_8ixx.html" target="_top" xlink:title="Central manager for scoped loggers with configurable sinks.">
<polygon fill="white" stroke="#666666" points="357,-184 211,-184 211,-165 357,-165 357,-184"/>
<text text-anchor="middle" x="284" y="-172" font-family="Helvetica,sans-Serif" font-size="10.00">helios.util.log.LogManager</text>
</a>
</g>
</g>
<!-- Node9&#45;&gt;Node10 -->
<g id="edge9_Node000009_Node000010" class="edge">
<title>Node9&#45;&gt;Node10</title>
<g id="a_edge9_Node000009_Node000010"><a xlink:title=" ">
<path fill="none" stroke="#63b8ff" d="M239.28,-219.84C247.93,-211.26 258.99,-200.3 267.94,-191.42"/>
<polygon fill="#63b8ff" stroke="#63b8ff" points="270.52,-193.79 275.16,-184.27 265.59,-188.82 270.52,-193.79"/>
</a>
</g>
</g>
<!-- Node15 -->
<g id="Node000015" class="node">
<title>Node15</title>
<g id="a_Node000015"><a xlink:href="Logger_8ixx.html" target="_top" xlink:title="Simple synchronous logger with configurable output sinks.">
<polygon fill="white" stroke="#666666" points="185.5,-129 66.5,-129 66.5,-110 185.5,-110 185.5,-129"/>
<text text-anchor="middle" x="126" y="-117" font-family="Helvetica,sans-Serif" font-size="10.00">helios.util.log.Logger</text>
</a>
</g>
</g>
<!-- Node9&#45;&gt;Node15 -->
<g id="edge24_Node000009_Node000015" class="edge">
<title>Node9&#45;&gt;Node15</title>
<g id="a_edge24_Node000009_Node000015"><a xlink:title=" ">
<path fill="none" stroke="#63b8ff" d="M212.46,-219.63C194.01,-198.47 159.63,-159.05 140.24,-136.83"/>
<polygon fill="#63b8ff" stroke="#63b8ff" points="142.83,-134.46 133.61,-129.23 137.55,-139.07 142.83,-134.46"/>
</a>
</g>
</g>
<!-- Node17 -->
<g id="Node000017" class="node">
<title>Node17</title>
<g id="a_Node000017"><a xlink:href="helios_2math_2types_2__module_8ixx.html" target="_top" xlink:title="Module exports for vector and matrix type definitions.">
<polygon fill="white" stroke="#666666" points="137,-184 33,-184 33,-165 137,-165 137,-184"/>
<text text-anchor="middle" x="85" y="-172" font-family="Helvetica,sans-Serif" font-size="10.00">helios.math.types</text>
</a>
</g>
</g>
<!-- Node9&#45;&gt;Node17 -->
<g id="edge25_Node000009_Node000017" class="edge">
<title>Node9&#45;&gt;Node17</title>
<g id="a_edge25_Node000009_Node000017"><a xlink:title=" ">
<path fill="none" stroke="#63b8ff" d="M191.47,-219.99C168.21,-210.27 137.51,-197.44 115.05,-188.06"/>
<polygon fill="#63b8ff" stroke="#63b8ff" points="116.25,-184.77 105.68,-184.14 113.55,-191.22 116.25,-184.77"/>
</a>
</g>
</g>
<!-- Node10&#45;&gt;Node3 -->
<g id="edge13_Node000010_Node000003" class="edge">
<title>Node10&#45;&gt;Node3</title>
<g id="a_edge13_Node000010_Node000003"><a xlink:title=" ">
<path fill="none" stroke="#63b8ff" d="M210.95,-167.34C153.41,-161.04 79.31,-149.24 57,-129 44.63,-117.77 40.18,-98.86 38.64,-84.58"/>
<polygon fill="#63b8ff" stroke="#63b8ff" points="42.12,-84.1 37.94,-74.37 35.13,-84.58 42.12,-84.1"/>
</a>
</g>
</g>
<!-- Node10&#45;&gt;Node4 -->
<g id="edge15_Node000010_Node000004" class="edge">
<title>Node10&#45;&gt;Node4</title>
<g id="a_edge15_Node000010_Node000004"><a xlink:title=" ">
<path fill="none" stroke="#63b8ff" d="M286.15,-164.71C289.55,-151.89 297.07,-127.67 309,-110 316.41,-99.02 326.97,-88.71 336.2,-80.79"/>
<polygon fill="#63b8ff" stroke="#63b8ff" points="338.67,-83.29 344.17,-74.23 334.23,-77.88 338.67,-83.29"/>
</a>
</g>
</g>
<!-- Node11 -->
<g id="Node000011" class="node">
<title>Node11</title>
<g id="a_Node000011"><a xlink:title=" ">
<polygon fill="#e0e0e0" stroke="#999999" points="274,-19 230,-19 230,0 274,0 274,-19"/>
<text text-anchor="middle" x="252" y="-7" font-family="Helvetica,sans-Serif" font-size="10.00">string</text>
</a>
</g>
</g>
<!-- Node10&#45;&gt;Node11 -->
<g id="edge10_Node000010_Node000011" class="edge">
<title>Node10&#45;&gt;Node11</title>
<g id="a_edge10_Node000010_Node000011"><a xlink:title=" ">
<path fill="none" stroke="#63b8ff" d="M357.09,-170.02C420.01,-165.31 503.91,-154.35 525,-129 530.4,-122.51 529.73,-117 525,-110 470.74,-29.74 344.25,-13.9 284.44,-11"/>
<polygon fill="#63b8ff" stroke="#63b8ff" points="284.21,-7.49 274.08,-10.6 283.94,-14.48 284.21,-7.49"/>
</a>
</g>
</g>
<!-- Node12 -->
<g id="Node000012" class="node">
<title>Node12</title>
<g id="a_Node000012"><a xlink:title=" ">
<polygon fill="#e0e0e0" stroke="#999999" points="411.5,-129 318.5,-129 318.5,-110 411.5,-110 411.5,-129"/>
<text text-anchor="middle" x="365" y="-117" font-family="Helvetica,sans-Serif" font-size="10.00">unordered_map</text>
</a>
</g>
</g>
<!-- Node10&#45;&gt;Node12 -->
<g id="edge11_Node000010_Node000012" class="edge">
<title>Node10&#45;&gt;Node12</title>
<g id="a_edge11_Node000010_Node000012"><a xlink:title=" ">
<path fill="none" stroke="#63b8ff" d="M297.01,-164.98C309.46,-156.84 328.46,-144.41 343.21,-134.76"/>
<polygon fill="#63b8ff" stroke="#63b8ff" points="345.3,-137.57 351.75,-129.17 341.46,-131.72 345.3,-137.57"/>
</a>
</g>
</g>
<!-- Node13 -->
<g id="Node000013" class="node">
<title>Node13</title>
<g id="a_Node000013"><a xlink:title=" ">
<polygon fill="#e0e0e0" stroke="#999999" points="516,-129 430,-129 430,-110 516,-110 516,-129"/>
<text text-anchor="middle" x="473" y="-117" font-family="Helvetica,sans-Serif" font-size="10.00">unordered_set</text>
</a>
</g>
</g>
<!-- Node10&#45;&gt;Node13 -->
<g id="edge12_Node000010_Node000013" class="edge">
<title>Node10&#45;&gt;Node13</title>
<g id="a_edge12_Node000010_Node000013"><a xlink:title=" ">
<path fill="none" stroke="#63b8ff" d="M314.37,-164.98C346.37,-156.01 396.96,-141.82 432.38,-131.89"/>
<polygon fill="#63b8ff" stroke="#63b8ff" points="433.71,-135.15 442.4,-129.08 431.82,-128.41 433.71,-135.15"/>
</a>
</g>
</g>
<!-- Node14 -->
<g id="Node000014" class="node">
<title>Node14</title>
<g id="a_Node000014"><a xlink:title=" ">
<polygon fill="#e0e0e0" stroke="#999999" points="172,-74 124,-74 124,-55 172,-55 172,-74"/>
<text text-anchor="middle" x="148" y="-62" font-family="Helvetica,sans-Serif" font-size="10.00">mutex</text>
</a>
</g>
</g>
<!-- Node10&#45;&gt;Node14 -->
<g id="edge14_Node000010_Node000014" class="edge">
<title>Node10&#45;&gt;Node14</title>
<g id="a_edge14_Node000010_Node000014"><a xlink:title=" ">
<path fill="none" stroke="#63b8ff" d="M272.87,-164.66C249.64,-146.22 195.78,-103.45 166.98,-80.57"/>
<polygon fill="#63b8ff" stroke="#63b8ff" points="168.91,-77.64 158.9,-74.16 164.56,-83.12 168.91,-77.64"/>
</a>
</g>
</g>
<!-- Node10&#45;&gt;Node15 -->
<g id="edge16_Node000010_Node000015" class="edge">
<title>Node10&#45;&gt;Node15</title>
<g id="a_edge16_Node000010_Node000015"><a xlink:title=" ">
<path fill="none" stroke="#63b8ff" d="M258.61,-164.98C232.2,-156.13 190.65,-142.19 161.11,-132.28"/>
<polygon fill="#63b8ff" stroke="#63b8ff" points="162.18,-128.94 151.58,-129.08 159.95,-135.58 162.18,-128.94"/>
</a>
</g>
</g>
<!-- Node16 -->
<g id="Node000016" class="node">
<title>Node16</title>
<g id="a_Node000016"><a xlink:href="LogSink_8ixx.html" target="_top" xlink:title="Abstract interface for log output destinations.">
<polygon fill="white" stroke="#666666" points="314,-74 190,-74 190,-55 314,-55 314,-74"/>
<text text-anchor="middle" x="252" y="-62" font-family="Helvetica,sans-Serif" font-size="10.00">helios.util.log.LogSink</text>
</a>
</g>
</g>
<!-- Node10&#45;&gt;Node16 -->
<g id="edge23_Node000010_Node000016" class="edge">
<title>Node10&#45;&gt;Node16</title>
<g id="a_edge23_Node000010_Node000016"><a xlink:title=" ">
<path fill="none" stroke="#63b8ff" d="M281.38,-164.66C276.18,-147.09 264.43,-107.45 257.47,-83.95"/>
<polygon fill="#63b8ff" stroke="#63b8ff" points="260.76,-82.75 254.57,-74.16 254.05,-84.74 260.76,-82.75"/>
</a>
</g>
</g>
<!-- Node15&#45;&gt;Node3 -->
<g id="edge19_Node000015_Node000003" class="edge">
<title>Node15&#45;&gt;Node3</title>
<g id="a_edge19_Node000015_Node000003"><a xlink:title=" ">
<path fill="none" stroke="#63b8ff" d="M111.86,-109.98C98.21,-101.77 77.31,-89.18 61.22,-79.49"/>
<polygon fill="#63b8ff" stroke="#63b8ff" points="62.77,-76.33 52.4,-74.17 59.16,-82.33 62.77,-76.33"/>
</a>
</g>
</g>
<!-- Node15&#45;&gt;Node4 -->
<g id="edge18_Node000015_Node000004" class="edge">
<title>Node15&#45;&gt;Node4</title>
<g id="a_edge18_Node000015_Node000004"><a xlink:title=" ">
<path fill="none" stroke="#63b8ff" d="M165.33,-109.98C203.05,-101.73 261.86,-88.65 322.15,-74.15"/>
<polygon fill="#63b8ff" stroke="#63b8ff" points="323.33,-77.46 332.23,-71.71 321.69,-70.66 323.33,-77.46"/>
</a>
</g>
</g>
<!-- Node15&#45;&gt;Node11 -->
<g id="edge17_Node000015_Node000011" class="edge">
<title>Node15&#45;&gt;Node11</title>
<g id="a_edge17_Node000015_Node000011"><a xlink:title=" ">
<path fill="none" stroke="#63b8ff" d="M120.77,-109.78C113.64,-96.62 103.03,-71.47 115,-55 138.77,-22.28 187.18,-13.14 219.61,-10.85"/>
<polygon fill="#63b8ff" stroke="#63b8ff" points="220.14,-14.33 229.94,-10.31 219.77,-7.34 220.14,-14.33"/>
</a>
</g>
</g>
<!-- Node15&#45;&gt;Node14 -->
<g id="edge20_Node000015_Node000014" class="edge">
<title>Node15&#45;&gt;Node14</title>
<g id="a_edge20_Node000015_Node000014"><a xlink:title=" ">
<path fill="none" stroke="#63b8ff" d="M129.63,-109.75C132.58,-102.65 136.83,-92.4 140.51,-83.56"/>
<polygon fill="#63b8ff" stroke="#63b8ff" points="143.83,-84.67 144.43,-74.09 137.37,-81.98 143.83,-84.67"/>
</a>
</g>
</g>
<!-- Node15&#45;&gt;Node16 -->
<g id="edge21_Node000015_Node000016" class="edge">
<title>Node15&#45;&gt;Node16</title>
<g id="a_edge21_Node000015_Node000016"><a xlink:title=" ">
<path fill="none" stroke="#63b8ff" d="M146.24,-109.98C166.7,-101.38 198.53,-87.99 221.93,-78.15"/>
<polygon fill="#63b8ff" stroke="#63b8ff" points="223.53,-81.27 231.39,-74.17 220.81,-74.82 223.53,-81.27"/>
</a>
</g>
</g>
<!-- Node16&#45;&gt;Node11 -->
<g id="edge22_Node000016_Node000011" class="edge">
<title>Node16&#45;&gt;Node11</title>
<g id="a_edge22_Node000016_Node000011"><a xlink:title=" ">
<path fill="none" stroke="#63b8ff" d="M252,-54.75C252,-47.8 252,-37.85 252,-29.13"/>
<polygon fill="#63b8ff" stroke="#63b8ff" points="255.5,-29.09 252,-19.09 248.5,-29.09 255.5,-29.09"/>
</a>
</g>
</g>
<!-- Node17&#45;&gt;Node17 -->
<g id="edge26_Node000017_Node000017" class="edge">
<title>Node17&#45;&gt;Node17</title>
<g id="a_edge26_Node000017_Node000017"><a xlink:title=" ">
<path fill="none" stroke="#63b8ff" d="M117.77,-184.03C137,-186.06 155,-182.88 155,-174.5 155,-167.62 142.89,-164.25 127.92,-164.38"/>
<polygon fill="#63b8ff" stroke="#63b8ff" points="127.55,-160.89 117.77,-164.97 127.95,-167.88 127.55,-160.89"/>
</a>
</g>
</g>
<!-- Node20 -->
<g id="Node000020" class="node">
<title>Node20</title>
<g id="a_Node000020"><a xlink:title=" ">
<polygon fill="#e0e0e0" stroke="#999999" points="1020,-310.5 970,-310.5 970,-291.5 1020,-291.5 1020,-310.5"/>
<text text-anchor="middle" x="995" y="-298.5" font-family="Helvetica,sans-Serif" font-size="10.00">atomic</text>
</a>
</g>
</g>
<!-- Node19&#45;&gt;Node20 -->
<g id="edge29_Node000019_Node000020" class="edge">
<title>Node19&#45;&gt;Node20</title>
<g id="a_edge29_Node000019_Node000020"><a xlink:title=" ">
<path fill="none" stroke="#63b8ff" d="M1024.41,-357.37C1019.32,-347.78 1010.96,-332.05 1004.46,-319.8"/>
<polygon fill="#63b8ff" stroke="#63b8ff" points="1007.51,-318.09 999.73,-310.91 1001.33,-321.38 1007.51,-318.09"/>
</a>
</g>
</g>
<!-- Node21 -->
<g id="Node000021" class="node">
<title>Node21</title>
<g id="a_Node000021"><a xlink:title=" ">
<polygon fill="#e0e0e0" stroke="#999999" points="1088,-310.5 1038,-310.5 1038,-291.5 1088,-291.5 1088,-310.5"/>
<text text-anchor="middle" x="1063" y="-298.5" font-family="Helvetica,sans-Serif" font-size="10.00">cstdint</text>
</a>
</g>
</g>
<!-- Node19&#45;&gt;Node21 -->
<g id="edge30_Node000019_Node000021" class="edge">
<title>Node19&#45;&gt;Node21</title>
<g id="a_edge30_Node000019_Node000021"><a xlink:title=" ">
<path fill="none" stroke="#63b8ff" d="M1033.59,-357.37C1038.68,-347.78 1047.04,-332.05 1053.54,-319.8"/>
<polygon fill="#63b8ff" stroke="#63b8ff" points="1056.67,-321.38 1058.27,-310.91 1050.49,-318.09 1056.67,-321.38"/>
</a>
</g>
</g>
</g>
</svg>

<g id="navigator" transform="translate(0 0)" fill="#404254">
  <rect fill="#f2f5e9" fill-opacity="0.5" stroke="#606060" stroke-width=".5" x="0" y="0" width="60" height="60"/>
  <use id="zoomplus" xlink:href="#zoomPlus" x="17" y="9" onmousedown="handleZoom(evt,'in')"/>
  <use id="zoomminus" xlink:href="#zoomMin" x="42" y="9" onmousedown="handleZoom(evt,'out')"/>
  <use id="reset" xlink:href="#resetDef" x="30" y="36" onmousedown="handleReset()"/>
   <use id="arrowup" xlink:href="#arrowUp" x="0" y="0" onmousedown="handlePan(0,-1)"/>
  <use id="arrowright" xlink:href="#arrowRight" x="0" y="0" onmousedown="handlePan(1,0)"/>
  <use id="arrowdown" xlink:href="#arrowDown" x="0" y="0" onmousedown="handlePan(0,1)"/>
  <use id="arrowleft" xlink:href="#arrowLeft" x="0" y="0" onmousedown="handlePan(-1,0)"/>
</g>
<svg viewBox="0 0 15 15" width="100%" height="30px" preserveAspectRatio="xMaxYMin meet">
 <g id="arrow_out" transform="scale(0.3 0.3)">
  <a xlink:href="Command_8ixx__incl_org.svg" target="_base">
   <rect id="button" ry="5" rx="5" y="6" x="6" height="38" width="38"
        fill="#f2f5e9" fill-opacity="0.5" stroke="#606060" stroke-width="1.0"/>
   <path id="arrow"
     d="M 11.500037,31.436501 C 11.940474,20.09759 22.043105,11.32322 32.158766,21.979434 L 37.068811,17.246167 C 37.068811,17.246167 37.088388,32 37.088388,32 L 22.160133,31.978069 C 22.160133,31.978069 26.997745,27.140456 26.997745,27.140456 C 18.528582,18.264221 13.291696,25.230495 11.500037,31.436501 z"
     style="fill:#404040;"/>
  </a>
 </g>
</svg>

<style type='text/css'>
<![CDATA[
[data-mouse-over-selected='false'] { opacity: 0.7; }
[data-mouse-over-selected='true']  { opacity: 1.0; }
]]>
</style>
<script type="application/ecmascript"><![CDATA[
document.addEventListener('DOMContentLoaded', (event) => {
  highlightEdges();
  highlightAdjacentNodes();
});
]]></script>
</svg>
