<?xml version="1.0" encoding="UTF-8" standalone="no"?>
<!DOCTYPE svg PUBLIC "-//W3C//DTD SVG 1.1//EN"
 "http://www.w3.org/Graphics/SVG/1.1/DTD/svg11.dtd">
<!-- Generated by graphviz version 2.43.0 (0)
 -->
<!-- Title: include/helios/rendering/asset/shape/basic/Cube.ixx Pages: 1 -->
<svg width="467pt" height="227pt"
 viewBox="0.00 0.00 466.50 227.17" xmlns="http://www.w3.org/2000/svg" xmlns:xlink="http://www.w3.org/1999/xlink">

<svg id="main" version="1.1" xmlns="http://www.w3.org/2000/svg" xmlns:xlink="http://www.w3.org/1999/xlink" xml:space="preserve">

<style type="text/css"><![CDATA[
.node, .edge {opacity: 0.7;}
.node.selected, .edge.selected {opacity: 1;}
.edge:hover path { stroke: red; }
.edge:hover polygon { stroke: red; fill: red; }
]]></style>
<script type="application/ecmascript" xlink:href="svg.min.js"/>
<svg id="graph" class="graph">
<g id="graph0" class="graph" transform="scale(1 1) rotate(0) translate(4 223.17)">
<title>include/helios/rendering/asset/shape/basic/Cube.ixx</title>
<!-- Node1 -->
<g id="Node000001" class="node">
<title>Node1</title>
<g id="a_Node000001"><a xlink:title="Basic cube shape for rendering.">
<polygon fill="#999999" stroke="#666666" points="277.5,-219.17 125.5,-219.17 125.5,-189.17 277.5,-189.17 277.5,-219.17"/>
<text text-anchor="start" x="133.5" y="-207.17" font-family="Helvetica,sans-Serif" font-size="10.00">include/helios/rendering</text>
<text text-anchor="middle" x="201.5" y="-196.17" font-family="Helvetica,sans-Serif" font-size="10.00">/asset/shape/basic/Cube.ixx</text>
</a>
</g>
</g>
<!-- Node2 -->
<g id="Node000002" class="node">
<title>Node2</title>
<g id="a_Node000002"><a xlink:title=" ">
<polygon fill="#e0e0e0" stroke="#999999" points="47,-81.67 0,-81.67 0,-62.67 47,-62.67 47,-81.67"/>
<text text-anchor="middle" x="23.5" y="-69.67" font-family="Helvetica,sans-Serif" font-size="10.00">vector</text>
</a>
</g>
</g>
<!-- Node1&#45;&gt;Node2 -->
<g id="edge1_Node000001_Node000002" class="edge">
<title>Node1&#45;&gt;Node2</title>
<g id="a_edge1_Node000001_Node000002"><a xlink:title=" ">
<path fill="none" stroke="#63b8ff" d="M182.11,-189.01C148.2,-164.25 78.44,-113.3 43.86,-88.04"/>
<polygon fill="#63b8ff" stroke="#63b8ff" points="45.62,-84.99 35.48,-81.92 41.49,-90.65 45.62,-84.99"/>
</a>
</g>
</g>
<!-- Node3 -->
<g id="Node000003" class="node">
<title>Node3</title>
<g id="a_Node000003"><a xlink:href="PrimitiveType_8ixx.html" target="_top" xlink:title="Enum of primitive types for mesh rendering.">
<polygon fill="white" stroke="#666666" points="229.5,-87.17 65.5,-87.17 65.5,-57.17 229.5,-57.17 229.5,-87.17"/>
<text text-anchor="start" x="73.5" y="-75.17" font-family="Helvetica,sans-Serif" font-size="10.00">helios.rendering.model.config.</text>
<text text-anchor="middle" x="147.5" y="-64.17" font-family="Helvetica,sans-Serif" font-size="10.00">PrimitiveType</text>
</a>
</g>
</g>
<!-- Node1&#45;&gt;Node3 -->
<g id="edge2_Node000001_Node000003" class="edge">
<title>Node1&#45;&gt;Node3</title>
<g id="a_edge2_Node000001_Node000003"><a xlink:title=" ">
<path fill="none" stroke="#63b8ff" d="M189.19,-188.76C181.63,-179.22 172.31,-166.13 166.5,-153.17 158.52,-135.4 153.65,-113.83 150.84,-97.58"/>
<polygon fill="#63b8ff" stroke="#63b8ff" points="154.23,-96.61 149.21,-87.28 147.32,-97.7 154.23,-96.61"/>
</a>
</g>
</g>
<!-- Node4 -->
<g id="Node000004" class="node">
<title>Node4</title>
<g id="a_Node000004"><a xlink:href="Vertex_8ixx.html" target="_top" xlink:title="Vertex description and utilities for rendering.">
<polygon fill="white" stroke="#666666" points="453.5,-81.67 323.5,-81.67 323.5,-62.67 453.5,-62.67 453.5,-81.67"/>
<text text-anchor="middle" x="388.5" y="-69.67" font-family="Helvetica,sans-Serif" font-size="10.00">helios.rendering.Vertex</text>
</a>
</g>
</g>
<!-- Node1&#45;&gt;Node4 -->
<g id="edge3_Node000001_Node000004" class="edge">
<title>Node1&#45;&gt;Node4</title>
<g id="a_edge3_Node000001_Node000004"><a xlink:title=" ">
<path fill="none" stroke="#63b8ff" d="M273.35,-189.14C297.95,-181.62 324.32,-170.25 344.5,-153.17 363.83,-136.82 376.17,-109.72 382.72,-91.66"/>
<polygon fill="#63b8ff" stroke="#63b8ff" points="386.1,-92.58 385.98,-81.99 379.47,-90.34 386.1,-92.58"/>
</a>
</g>
</g>
<!-- Node6 -->
<g id="Node000006" class="node">
<title>Node6</title>
<g id="a_Node000006"><a xlink:href="Shape_8ixx.html" target="_top" xlink:title="Interface for simple geometric shapes used for testing and debugging.">
<polygon fill="white" stroke="#666666" points="335.5,-153.17 175.5,-153.17 175.5,-123.17 335.5,-123.17 335.5,-153.17"/>
<text text-anchor="start" x="183.5" y="-141.17" font-family="Helvetica,sans-Serif" font-size="10.00">helios.rendering.asset.shape.</text>
<text text-anchor="middle" x="255.5" y="-130.17" font-family="Helvetica,sans-Serif" font-size="10.00">Shape</text>
</a>
</g>
</g>
<!-- Node1&#45;&gt;Node6 -->
<g id="edge6_Node000001_Node000006" class="edge">
<title>Node1&#45;&gt;Node6</title>
<g id="a_edge6_Node000001_Node000006"><a xlink:title=" ">
<path fill="none" stroke="#63b8ff" d="M213.48,-188.97C220.41,-180.77 229.26,-170.28 237.05,-161.04"/>
<polygon fill="#63b8ff" stroke="#63b8ff" points="239.78,-163.24 243.55,-153.34 234.43,-158.72 239.78,-163.24"/>
</a>
</g>
</g>
<!-- Node5 -->
<g id="Node000005" class="node">
<title>Node5</title>
<g id="a_Node000005"><a xlink:href="helios_2math_2types_2__module_8ixx.html" target="_top" xlink:title="Module exports for vector and matrix type definitions.">
<polygon fill="white" stroke="#666666" points="440.5,-21.17 336.5,-21.17 336.5,-2.17 440.5,-2.17 440.5,-21.17"/>
<text text-anchor="middle" x="388.5" y="-9.17" font-family="Helvetica,sans-Serif" font-size="10.00">helios.math.types</text>
</a>
</g>
</g>
<!-- Node4&#45;&gt;Node5 -->
<g id="edge4_Node000004_Node000005" class="edge">
<title>Node4&#45;&gt;Node5</title>
<g id="a_edge4_Node000004_Node000005"><a xlink:title=" ">
<path fill="none" stroke="#63b8ff" d="M388.5,-62.54C388.5,-54.42 388.5,-41.98 388.5,-31.56"/>
<polygon fill="#63b8ff" stroke="#63b8ff" points="392,-31.34 388.5,-21.34 385,-31.34 392,-31.34"/>
</a>
</g>
</g>
<!-- Node5&#45;&gt;Node5 -->
<g id="edge5_Node000005_Node000005" class="edge">
<title>Node5&#45;&gt;Node5</title>
<g id="a_edge5_Node000005_Node000005"><a xlink:title=" ">
<path fill="none" stroke="#63b8ff" d="M414.35,-21.21C435.94,-25.28 458.5,-22.1 458.5,-11.67 458.5,-2.87 442.44,0.76 424.45,-0.76"/>
<polygon fill="#63b8ff" stroke="#63b8ff" points="423.78,2.68 414.35,-2.14 424.73,-4.26 423.78,2.68"/>
</a>
</g>
</g>
<!-- Node6&#45;&gt;Node2 -->
<g id="edge8_Node000006_Node000002" class="edge">
<title>Node6&#45;&gt;Node2</title>
<g id="a_edge8_Node000006_Node000002"><a xlink:title=" ">
<path fill="none" stroke="#63b8ff" d="M188.88,-123.16C149.87,-114.28 99.9,-101.73 56.5,-87.17 54.88,-86.63 53.22,-86.04 51.56,-85.42"/>
<polygon fill="#63b8ff" stroke="#63b8ff" points="52.74,-82.13 42.15,-81.68 50.15,-88.63 52.74,-82.13"/>
</a>
</g>
</g>
<!-- Node6&#45;&gt;Node3 -->
<g id="edge9_Node000006_Node000003" class="edge">
<title>Node6&#45;&gt;Node3</title>
<g id="a_edge9_Node000006_Node000003"><a xlink:title=" ">
<path fill="none" stroke="#63b8ff" d="M231.8,-123.13C216.61,-114.13 196.68,-102.32 180.02,-92.44"/>
<polygon fill="#63b8ff" stroke="#63b8ff" points="181.53,-89.27 171.15,-87.19 177.96,-95.3 181.53,-89.27"/>
</a>
</g>
</g>
<!-- Node6&#45;&gt;Node4 -->
<g id="edge10_Node000006_Node000004" class="edge">
<title>Node6&#45;&gt;Node4</title>
<g id="a_edge10_Node000006_Node000004"><a xlink:title=" ">
<path fill="none" stroke="#63b8ff" d="M284.69,-123.13C307.6,-112.1 339.25,-96.87 361.57,-86.14"/>
<polygon fill="#63b8ff" stroke="#63b8ff" points="363.31,-89.18 370.8,-81.69 360.27,-82.87 363.31,-89.18"/>
</a>
</g>
</g>
<!-- Node7 -->
<g id="Node000007" class="node">
<title>Node7</title>
<g id="a_Node000007"><a xlink:title=" ">
<polygon fill="#e0e0e0" stroke="#999999" points="305.5,-81.67 247.5,-81.67 247.5,-62.67 305.5,-62.67 305.5,-81.67"/>
<text text-anchor="middle" x="276.5" y="-69.67" font-family="Helvetica,sans-Serif" font-size="10.00">memory</text>
</a>
</g>
</g>
<!-- Node6&#45;&gt;Node7 -->
<g id="edge7_Node000006_Node000007" class="edge">
<title>Node6&#45;&gt;Node7</title>
<g id="a_edge7_Node000006_Node000007"><a xlink:title=" ">
<path fill="none" stroke="#63b8ff" d="M260.16,-122.97C263.18,-113.78 267.14,-101.71 270.4,-91.75"/>
<polygon fill="#63b8ff" stroke="#63b8ff" points="273.81,-92.61 273.6,-82.02 267.15,-90.43 273.81,-92.61"/>
</a>
</g>
</g>
</g>
</svg>
</svg>

<style type='text/css'>
<![CDATA[
[data-mouse-over-selected='false'] { opacity: 0.7; }
[data-mouse-over-selected='true']  { opacity: 1.0; }
]]>
</style>
<script type="application/ecmascript"><![CDATA[
document.addEventListener('DOMContentLoaded', (event) => {
  highlightEdges();
  highlightAdjacentNodes();
});
]]></script>
</svg>
