<?xml version="1.0" encoding="UTF-8" standalone="no"?>
<!DOCTYPE svg PUBLIC "-//W3C//DTD SVG 1.1//EN"
 "http://www.w3.org/Graphics/SVG/1.1/DTD/svg11.dtd">
<!-- Generated by graphviz version 2.43.0 (0)
 -->
<!-- Title: include/helios/event/DequeEventQueue.ixx Pages: 1 -->
<svg width="410pt" height="258pt"
 viewBox="0.00 0.00 409.50 258.00" xmlns="http://www.w3.org/2000/svg" xmlns:xlink="http://www.w3.org/1999/xlink">
<g id="graph0" class="graph" transform="scale(1 1) rotate(0) translate(4 254)">
<title>include/helios/event/DequeEventQueue.ixx</title>
<!-- Node1 -->
<g id="Node000001" class="node">
<title>Node1</title>
<g id="a_Node000001"><a xlink:title="Double&#45;ended event queue implementation.">
<polygon fill="#999999" stroke="#666666" points="177.5,-250 49.5,-250 49.5,-220 177.5,-220 177.5,-250"/>
<text text-anchor="start" x="57.5" y="-238" font-family="Helvetica,sans-Serif" font-size="10.00">include/helios/event</text>
<text text-anchor="middle" x="113.5" y="-227" font-family="Helvetica,sans-Serif" font-size="10.00">/DequeEventQueue.ixx</text>
</a>
</g>
</g>
<!-- Node2 -->
<g id="Node000002" class="node">
<title>Node2</title>
<g id="a_Node000002"><a xlink:title=" ">
<polygon fill="#e0e0e0" stroke="#999999" points="47,-184 0,-184 0,-165 47,-165 47,-184"/>
<text text-anchor="middle" x="23.5" y="-172" font-family="Helvetica,sans-Serif" font-size="10.00">deque</text>
</a>
</g>
</g>
<!-- Node1&#45;&gt;Node2 -->
<g id="edge1_Node000001_Node000002" class="edge">
<title>Node1&#45;&gt;Node2</title>
<g id="a_edge1_Node000001_Node000002"><a xlink:title=" ">
<path fill="none" stroke="#63b8ff" d="M91.71,-219.84C77.63,-210.68 59.37,-198.82 45.29,-189.66"/>
<polygon fill="#63b8ff" stroke="#63b8ff" points="47.01,-186.61 36.72,-184.09 43.2,-192.48 47.01,-186.61"/>
</a>
</g>
</g>
<!-- Node3 -->
<g id="Node000003" class="node">
<title>Node3</title>
<g id="a_Node000003"><a xlink:title=" ">
<polygon fill="#e0e0e0" stroke="#999999" points="176,-129 111,-129 111,-110 176,-110 176,-129"/>
<text text-anchor="middle" x="143.5" y="-117" font-family="Helvetica,sans-Serif" font-size="10.00">functional</text>
</a>
</g>
</g>
<!-- Node1&#45;&gt;Node3 -->
<g id="edge2_Node000001_Node000003" class="edge">
<title>Node1&#45;&gt;Node3</title>
<g id="a_edge2_Node000001_Node000003"><a xlink:title=" ">
<path fill="none" stroke="#63b8ff" d="M117.3,-219.63C122.72,-199.12 132.67,-161.47 138.63,-138.93"/>
<polygon fill="#63b8ff" stroke="#63b8ff" points="142.02,-139.79 141.19,-129.23 135.25,-138 142.02,-139.79"/>
</a>
</g>
</g>
<!-- Node4 -->
<g id="Node000004" class="node">
<title>Node4</title>
<g id="a_Node000004"><a xlink:title=" ">
<polygon fill="#e0e0e0" stroke="#999999" points="231.5,-74 173.5,-74 173.5,-55 231.5,-55 231.5,-74"/>
<text text-anchor="middle" x="202.5" y="-62" font-family="Helvetica,sans-Serif" font-size="10.00">memory</text>
</a>
</g>
</g>
<!-- Node1&#45;&gt;Node4 -->
<g id="edge3_Node000001_Node000004" class="edge">
<title>Node1&#45;&gt;Node4</title>
<g id="a_edge3_Node000001_Node000004"><a xlink:title=" ">
<path fill="none" stroke="#63b8ff" d="M106.71,-219.61C96.17,-194.97 79.29,-144.06 101.5,-110 115.21,-88.98 141.32,-77.82 163.55,-71.94"/>
<polygon fill="#63b8ff" stroke="#63b8ff" points="164.52,-75.3 173.44,-69.59 162.9,-68.49 164.52,-75.3"/>
</a>
</g>
</g>
<!-- Node5 -->
<g id="Node000005" class="node">
<title>Node5</title>
<g id="a_Node000005"><a xlink:href="Event_8ixx.html" target="_top" xlink:title="Base class for events in the helios framework.">
<polygon fill="white" stroke="#666666" points="348,-129 241,-129 241,-110 348,-110 348,-129"/>
<text text-anchor="middle" x="294.5" y="-117" font-family="Helvetica,sans-Serif" font-size="10.00">helios.event.Event</text>
</a>
</g>
</g>
<!-- Node1&#45;&gt;Node5 -->
<g id="edge4_Node000001_Node000005" class="edge">
<title>Node1&#45;&gt;Node5</title>
<g id="a_edge4_Node000001_Node000005"><a xlink:title=" ">
<path fill="none" stroke="#63b8ff" d="M177.67,-223.85C222.24,-215.38 276.11,-201.83 290.5,-184 300.46,-171.66 300.51,-153.18 298.63,-139.33"/>
<polygon fill="#63b8ff" stroke="#63b8ff" points="302.06,-138.66 296.86,-129.43 295.17,-139.89 302.06,-138.66"/>
</a>
</g>
</g>
<!-- Node10 -->
<g id="Node000010" class="node">
<title>Node10</title>
<g id="a_Node000010"><a xlink:href="EventQueue_8ixx.html" target="_top" xlink:title="Thread&#45;safe queue for Event objects.">
<polygon fill="white" stroke="#666666" points="281,-184 142,-184 142,-165 281,-165 281,-184"/>
<text text-anchor="middle" x="211.5" y="-172" font-family="Helvetica,sans-Serif" font-size="10.00">helios.event.EventQueue</text>
</a>
</g>
</g>
<!-- Node1&#45;&gt;Node10 -->
<g id="edge10_Node000001_Node000010" class="edge">
<title>Node1&#45;&gt;Node10</title>
<g id="a_edge10_Node000001_Node000010"><a xlink:title=" ">
<path fill="none" stroke="#63b8ff" d="M137.22,-219.84C152.7,-210.6 172.82,-198.59 188.21,-189.4"/>
<polygon fill="#63b8ff" stroke="#63b8ff" points="190.31,-192.23 197.1,-184.09 186.72,-186.21 190.31,-192.23"/>
</a>
</g>
</g>
<!-- Node5&#45;&gt;Node4 -->
<g id="edge5_Node000005_Node000004" class="edge">
<title>Node5&#45;&gt;Node4</title>
<g id="a_edge5_Node000005_Node000004"><a xlink:title=" ">
<path fill="none" stroke="#63b8ff" d="M279.72,-109.98C265.32,-101.69 243.19,-88.94 226.31,-79.22"/>
<polygon fill="#63b8ff" stroke="#63b8ff" points="227.96,-76.13 217.55,-74.17 224.47,-82.19 227.96,-76.13"/>
</a>
</g>
</g>
<!-- Node6 -->
<g id="Node000006" class="node">
<title>Node6</title>
<g id="a_Node000006"><a xlink:title=" ">
<polygon fill="#e0e0e0" stroke="#999999" points="401.5,-74 357.5,-74 357.5,-55 401.5,-55 401.5,-74"/>
<text text-anchor="middle" x="379.5" y="-62" font-family="Helvetica,sans-Serif" font-size="10.00">string</text>
</a>
</g>
</g>
<!-- Node5&#45;&gt;Node6 -->
<g id="edge6_Node000005_Node000006" class="edge">
<title>Node5&#45;&gt;Node6</title>
<g id="a_edge6_Node000005_Node000006"><a xlink:title=" ">
<path fill="none" stroke="#63b8ff" d="M308.16,-109.98C321.34,-101.77 341.53,-89.18 357.07,-79.49"/>
<polygon fill="#63b8ff" stroke="#63b8ff" points="358.96,-82.43 365.59,-74.17 355.26,-76.49 358.96,-82.43"/>
</a>
</g>
</g>
<!-- Node7 -->
<g id="Node000007" class="node">
<title>Node7</title>
<g id="a_Node000007"><a xlink:href="Guid_8ixx.html" target="_top" xlink:title="Lightweight GUID (globally unique identifier) implementation.">
<polygon fill="white" stroke="#666666" points="339.5,-74 249.5,-74 249.5,-55 339.5,-55 339.5,-74"/>
<text text-anchor="middle" x="294.5" y="-62" font-family="Helvetica,sans-Serif" font-size="10.00">helios.util.Guid</text>
</a>
</g>
</g>
<!-- Node5&#45;&gt;Node7 -->
<g id="edge7_Node000005_Node000007" class="edge">
<title>Node5&#45;&gt;Node7</title>
<g id="a_edge7_Node000005_Node000007"><a xlink:title=" ">
<path fill="none" stroke="#63b8ff" d="M294.5,-109.75C294.5,-102.8 294.5,-92.85 294.5,-84.13"/>
<polygon fill="#63b8ff" stroke="#63b8ff" points="298,-84.09 294.5,-74.09 291,-84.09 298,-84.09"/>
</a>
</g>
</g>
<!-- Node8 -->
<g id="Node000008" class="node">
<title>Node8</title>
<g id="a_Node000008"><a xlink:title=" ">
<polygon fill="#e0e0e0" stroke="#999999" points="285.5,-19 235.5,-19 235.5,0 285.5,0 285.5,-19"/>
<text text-anchor="middle" x="260.5" y="-7" font-family="Helvetica,sans-Serif" font-size="10.00">atomic</text>
</a>
</g>
</g>
<!-- Node7&#45;&gt;Node8 -->
<g id="edge8_Node000007_Node000008" class="edge">
<title>Node7&#45;&gt;Node8</title>
<g id="a_edge8_Node000007_Node000008"><a xlink:title=" ">
<path fill="none" stroke="#63b8ff" d="M288.89,-54.75C284.18,-47.42 277.33,-36.73 271.53,-27.7"/>
<polygon fill="#63b8ff" stroke="#63b8ff" points="274.36,-25.62 266.01,-19.09 268.46,-29.4 274.36,-25.62"/>
</a>
</g>
</g>
<!-- Node9 -->
<g id="Node000009" class="node">
<title>Node9</title>
<g id="a_Node000009"><a xlink:title=" ">
<polygon fill="#e0e0e0" stroke="#999999" points="353.5,-19 303.5,-19 303.5,0 353.5,0 353.5,-19"/>
<text text-anchor="middle" x="328.5" y="-7" font-family="Helvetica,sans-Serif" font-size="10.00">cstdint</text>
</a>
</g>
</g>
<!-- Node7&#45;&gt;Node9 -->
<g id="edge9_Node000007_Node000009" class="edge">
<title>Node7&#45;&gt;Node9</title>
<g id="a_edge9_Node000007_Node000009"><a xlink:title=" ">
<path fill="none" stroke="#63b8ff" d="M300.11,-54.75C304.82,-47.42 311.67,-36.73 317.47,-27.7"/>
<polygon fill="#63b8ff" stroke="#63b8ff" points="320.54,-29.4 322.99,-19.09 314.64,-25.62 320.54,-29.4"/>
</a>
</g>
</g>
<!-- Node10&#45;&gt;Node3 -->
<g id="edge11_Node000010_Node000003" class="edge">
<title>Node10&#45;&gt;Node3</title>
<g id="a_edge11_Node000010_Node000003"><a xlink:title=" ">
<path fill="none" stroke="#63b8ff" d="M200.57,-164.98C190.42,-157.07 175.08,-145.11 162.85,-135.58"/>
<polygon fill="#63b8ff" stroke="#63b8ff" points="164.66,-132.56 154.62,-129.17 160.36,-138.08 164.66,-132.56"/>
</a>
</g>
</g>
<!-- Node10&#45;&gt;Node4 -->
<g id="edge12_Node000010_Node000004" class="edge">
<title>Node10&#45;&gt;Node4</title>
<g id="a_edge12_Node000010_Node000004"><a xlink:title=" ">
<path fill="none" stroke="#63b8ff" d="M210.76,-164.66C209.31,-147.17 206.03,-107.8 204.06,-84.27"/>
<polygon fill="#63b8ff" stroke="#63b8ff" points="207.54,-83.83 203.22,-74.16 200.56,-84.41 207.54,-83.83"/>
</a>
</g>
</g>
<!-- Node10&#45;&gt;Node5 -->
<g id="edge13_Node000010_Node000005" class="edge">
<title>Node10&#45;&gt;Node5</title>
<g id="a_edge13_Node000010_Node000005"><a xlink:title=" ">
<path fill="none" stroke="#63b8ff" d="M224.84,-164.98C237.59,-156.84 257.05,-144.41 272.17,-134.76"/>
<polygon fill="#63b8ff" stroke="#63b8ff" points="274.38,-137.5 280.92,-129.17 270.61,-131.6 274.38,-137.5"/>
</a>
</g>
</g>
</g>
</svg>
