<?xml version="1.0" encoding="UTF-8" standalone="no"?>
<!DOCTYPE svg PUBLIC "-//W3C//DTD SVG 1.1//EN"
 "http://www.w3.org/Graphics/SVG/1.1/DTD/svg11.dtd">
<!-- Generated by graphviz version 2.43.0 (0)
 -->
<!-- Title: include/helios/event/DequeEventQueue.ixx Pages: 1 -->
<svg width="404pt" height="258pt"
 viewBox="0.00 0.00 403.50 258.00" xmlns="http://www.w3.org/2000/svg" xmlns:xlink="http://www.w3.org/1999/xlink">

<svg id="main" version="1.1" xmlns="http://www.w3.org/2000/svg" xmlns:xlink="http://www.w3.org/1999/xlink" xml:space="preserve">

<style type="text/css"><![CDATA[
.node, .edge {opacity: 0.7;}
.node.selected, .edge.selected {opacity: 1;}
.edge:hover path { stroke: red; }
.edge:hover polygon { stroke: red; fill: red; }
]]></style>
<script type="application/ecmascript" xlink:href="svg.min.js"/>
<svg id="graph" class="graph">
<g id="graph0" class="graph" transform="scale(1 1) rotate(0) translate(4 254)">
<title>include/helios/event/DequeEventQueue.ixx</title>
<!-- Node1 -->
<g id="Node000001" class="node">
<title>Node1</title>
<g id="a_Node000001"><a xlink:title=" ">
<polygon fill="#999999" stroke="#666666" points="215.5,-250 87.5,-250 87.5,-220 215.5,-220 215.5,-250"/>
<text text-anchor="start" x="95.5" y="-238" font-family="Helvetica,sans-Serif" font-size="10.00">include/helios/event</text>
<text text-anchor="middle" x="151.5" y="-227" font-family="Helvetica,sans-Serif" font-size="10.00">/DequeEventQueue.ixx</text>
</a>
</g>
</g>
<!-- Node2 -->
<g id="Node000002" class="node">
<title>Node2</title>
<g id="a_Node000002"><a xlink:title=" ">
<polygon fill="#e0e0e0" stroke="#999999" points="47,-129 0,-129 0,-110 47,-110 47,-129"/>
<text text-anchor="middle" x="23.5" y="-117" font-family="Helvetica,sans-Serif" font-size="10.00">deque</text>
</a>
</g>
</g>
<!-- Node1&#45;&gt;Node2 -->
<g id="edge1_Node000001_Node000002" class="edge">
<title>Node1&#45;&gt;Node2</title>
<g id="a_edge1_Node000001_Node000002"><a xlink:title=" ">
<path fill="none" stroke="#63b8ff" d="M120.17,-219.83C103.07,-211.1 82.23,-198.76 66.5,-184 52.28,-170.66 40.26,-151.8 32.57,-138.1"/>
<polygon fill="#63b8ff" stroke="#63b8ff" points="35.6,-136.34 27.77,-129.19 29.43,-139.66 35.6,-136.34"/>
</a>
</g>
</g>
<!-- Node3 -->
<g id="Node000003" class="node">
<title>Node3</title>
<g id="a_Node000003"><a xlink:title=" ">
<polygon fill="#e0e0e0" stroke="#999999" points="160,-129 95,-129 95,-110 160,-110 160,-129"/>
<text text-anchor="middle" x="127.5" y="-117" font-family="Helvetica,sans-Serif" font-size="10.00">functional</text>
</a>
</g>
</g>
<!-- Node1&#45;&gt;Node3 -->
<g id="edge2_Node000001_Node000003" class="edge">
<title>Node1&#45;&gt;Node3</title>
<g id="a_edge2_Node000001_Node000003"><a xlink:title=" ">
<path fill="none" stroke="#63b8ff" d="M113.78,-219.88C98.07,-211.9 81.42,-200.21 72.5,-184 61.93,-164.81 82.7,-146.28 101.67,-134.24"/>
<polygon fill="#63b8ff" stroke="#63b8ff" points="103.62,-137.15 110.42,-129.03 100.04,-131.14 103.62,-137.15"/>
</a>
</g>
</g>
<!-- Node4 -->
<g id="Node000004" class="node">
<title>Node4</title>
<g id="a_Node000004"><a xlink:title=" ">
<polygon fill="#e0e0e0" stroke="#999999" points="273.5,-74 215.5,-74 215.5,-55 273.5,-55 273.5,-74"/>
<text text-anchor="middle" x="244.5" y="-62" font-family="Helvetica,sans-Serif" font-size="10.00">memory</text>
</a>
</g>
</g>
<!-- Node1&#45;&gt;Node4 -->
<g id="edge3_Node000001_Node000004" class="edge">
<title>Node1&#45;&gt;Node4</title>
<g id="a_edge3_Node000001_Node000004"><a xlink:title=" ">
<path fill="none" stroke="#63b8ff" d="M186.63,-219.86C202.29,-211.72 219.45,-199.91 229.5,-184 248.91,-153.27 248.77,-109.08 246.76,-84.26"/>
<polygon fill="#63b8ff" stroke="#63b8ff" points="250.21,-83.66 245.73,-74.06 243.25,-84.36 250.21,-83.66"/>
</a>
</g>
</g>
<!-- Node5 -->
<g id="Node000005" class="node">
<title>Node5</title>
<g id="a_Node000005"><a xlink:href="Event_8ixx.html" target="_top" xlink:title=" ">
<polygon fill="white" stroke="#666666" points="385,-129 278,-129 278,-110 385,-110 385,-129"/>
<text text-anchor="middle" x="331.5" y="-117" font-family="Helvetica,sans-Serif" font-size="10.00">helios.event.Event</text>
</a>
</g>
</g>
<!-- Node1&#45;&gt;Node5 -->
<g id="edge4_Node000001_Node000005" class="edge">
<title>Node1&#45;&gt;Node5</title>
<g id="a_edge4_Node000001_Node000005"><a xlink:title=" ">
<path fill="none" stroke="#63b8ff" d="M191.25,-219.99C213.44,-211.27 241.05,-198.89 263.5,-184 283.98,-170.42 304.14,-150.55 317.12,-136.67"/>
<polygon fill="#63b8ff" stroke="#63b8ff" points="319.71,-139.02 323.88,-129.28 314.55,-134.29 319.71,-139.02"/>
</a>
</g>
</g>
<!-- Node9 -->
<g id="Node000009" class="node">
<title>Node9</title>
<g id="a_Node000009"><a xlink:href="EventQueue_8ixx.html" target="_top" xlink:title=" ">
<polygon fill="white" stroke="#666666" points="221,-184 82,-184 82,-165 221,-165 221,-184"/>
<text text-anchor="middle" x="151.5" y="-172" font-family="Helvetica,sans-Serif" font-size="10.00">helios.event.EventQueue</text>
</a>
</g>
</g>
<!-- Node1&#45;&gt;Node9 -->
<g id="edge9_Node000001_Node000009" class="edge">
<title>Node1&#45;&gt;Node9</title>
<g id="a_edge9_Node000001_Node000009"><a xlink:title=" ">
<path fill="none" stroke="#63b8ff" d="M151.5,-219.84C151.5,-212.21 151.5,-202.7 151.5,-194.45"/>
<polygon fill="#63b8ff" stroke="#63b8ff" points="155,-194.27 151.5,-184.27 148,-194.27 155,-194.27"/>
</a>
</g>
</g>
<!-- Node5&#45;&gt;Node4 -->
<g id="edge5_Node000005_Node000004" class="edge">
<title>Node5&#45;&gt;Node4</title>
<g id="a_edge5_Node000005_Node000004"><a xlink:title=" ">
<path fill="none" stroke="#63b8ff" d="M317.52,-109.98C304.03,-101.77 283.37,-89.18 267.46,-79.49"/>
<polygon fill="#63b8ff" stroke="#63b8ff" points="269.09,-76.38 258.73,-74.17 265.45,-82.36 269.09,-76.38"/>
</a>
</g>
</g>
<!-- Node6 -->
<g id="Node000006" class="node">
<title>Node6</title>
<g id="a_Node000006"><a xlink:href="Guid_8ixx.html" target="_top" xlink:title=" ">
<polygon fill="white" stroke="#666666" points="381.5,-74 291.5,-74 291.5,-55 381.5,-55 381.5,-74"/>
<text text-anchor="middle" x="336.5" y="-62" font-family="Helvetica,sans-Serif" font-size="10.00">helios.util.Guid</text>
</a>
</g>
</g>
<!-- Node5&#45;&gt;Node6 -->
<g id="edge6_Node000005_Node000006" class="edge">
<title>Node5&#45;&gt;Node6</title>
<g id="a_edge6_Node000005_Node000006"><a xlink:title=" ">
<path fill="none" stroke="#63b8ff" d="M332.33,-109.75C332.98,-102.8 333.92,-92.85 334.74,-84.13"/>
<polygon fill="#63b8ff" stroke="#63b8ff" points="338.23,-84.37 335.69,-74.09 331.27,-83.72 338.23,-84.37"/>
</a>
</g>
</g>
<!-- Node7 -->
<g id="Node000007" class="node">
<title>Node7</title>
<g id="a_Node000007"><a xlink:title=" ">
<polygon fill="#e0e0e0" stroke="#999999" points="327.5,-19 277.5,-19 277.5,0 327.5,0 327.5,-19"/>
<text text-anchor="middle" x="302.5" y="-7" font-family="Helvetica,sans-Serif" font-size="10.00">atomic</text>
</a>
</g>
</g>
<!-- Node6&#45;&gt;Node7 -->
<g id="edge7_Node000006_Node000007" class="edge">
<title>Node6&#45;&gt;Node7</title>
<g id="a_edge7_Node000006_Node000007"><a xlink:title=" ">
<path fill="none" stroke="#63b8ff" d="M330.89,-54.75C326.18,-47.42 319.33,-36.73 313.53,-27.7"/>
<polygon fill="#63b8ff" stroke="#63b8ff" points="316.36,-25.62 308.01,-19.09 310.46,-29.4 316.36,-25.62"/>
</a>
</g>
</g>
<!-- Node8 -->
<g id="Node000008" class="node">
<title>Node8</title>
<g id="a_Node000008"><a xlink:title=" ">
<polygon fill="#e0e0e0" stroke="#999999" points="395.5,-19 345.5,-19 345.5,0 395.5,0 395.5,-19"/>
<text text-anchor="middle" x="370.5" y="-7" font-family="Helvetica,sans-Serif" font-size="10.00">cstdint</text>
</a>
</g>
</g>
<!-- Node6&#45;&gt;Node8 -->
<g id="edge8_Node000006_Node000008" class="edge">
<title>Node6&#45;&gt;Node8</title>
<g id="a_edge8_Node000006_Node000008"><a xlink:title=" ">
<path fill="none" stroke="#63b8ff" d="M342.11,-54.75C346.82,-47.42 353.67,-36.73 359.47,-27.7"/>
<polygon fill="#63b8ff" stroke="#63b8ff" points="362.54,-29.4 364.99,-19.09 356.64,-25.62 362.54,-29.4"/>
</a>
</g>
</g>
<!-- Node9&#45;&gt;Node2 -->
<g id="edge10_Node000009_Node000002" class="edge">
<title>Node9&#45;&gt;Node2</title>
<g id="a_edge10_Node000009_Node000002"><a xlink:title=" ">
<path fill="none" stroke="#63b8ff" d="M130.93,-164.98C110.07,-156.34 77.53,-142.87 53.73,-133.02"/>
<polygon fill="#63b8ff" stroke="#63b8ff" points="55.02,-129.76 44.44,-129.17 52.34,-136.23 55.02,-129.76"/>
</a>
</g>
</g>
<!-- Node9&#45;&gt;Node3 -->
<g id="edge11_Node000009_Node000003" class="edge">
<title>Node9&#45;&gt;Node3</title>
<g id="a_edge11_Node000009_Node000003"><a xlink:title=" ">
<path fill="none" stroke="#63b8ff" d="M147.54,-164.75C144.29,-157.57 139.58,-147.18 135.55,-138.27"/>
<polygon fill="#63b8ff" stroke="#63b8ff" points="138.7,-136.75 131.39,-129.09 132.33,-139.64 138.7,-136.75"/>
</a>
</g>
</g>
<!-- Node9&#45;&gt;Node4 -->
<g id="edge12_Node000009_Node000004" class="edge">
<title>Node9&#45;&gt;Node4</title>
<g id="a_edge12_Node000009_Node000004"><a xlink:title=" ">
<path fill="none" stroke="#63b8ff" d="M159.11,-164.66C174.72,-146.54 210.56,-104.91 230.49,-81.77"/>
<polygon fill="#63b8ff" stroke="#63b8ff" points="233.17,-84.02 237.04,-74.16 227.87,-79.45 233.17,-84.02"/>
</a>
</g>
</g>
<!-- Node9&#45;&gt;Node5 -->
<g id="edge13_Node000009_Node000005" class="edge">
<title>Node9&#45;&gt;Node5</title>
<g id="a_edge13_Node000009_Node000005"><a xlink:title=" ">
<path fill="none" stroke="#63b8ff" d="M180.42,-164.98C210.77,-156.05 258.67,-141.94 292.38,-132.02"/>
<polygon fill="#63b8ff" stroke="#63b8ff" points="293.75,-135.26 302.35,-129.08 291.77,-128.55 293.75,-135.26"/>
</a>
</g>
</g>
</g>
</svg>
</svg>

<style type='text/css'>
<![CDATA[
[data-mouse-over-selected='false'] { opacity: 0.7; }
[data-mouse-over-selected='true']  { opacity: 1.0; }
]]>
</style>
<script type="application/ecmascript"><![CDATA[
document.addEventListener('DOMContentLoaded', (event) => {
  highlightEdges();
  highlightAdjacentNodes();
});
]]></script>
</svg>
