<?xml version="1.0" encoding="UTF-8" standalone="no"?>
<!DOCTYPE svg PUBLIC "-//W3C//DTD SVG 1.1//EN"
 "http://www.w3.org/Graphics/SVG/1.1/DTD/svg11.dtd">
<!-- Generated by graphviz version 2.43.0 (0)
 -->
<!-- Title: include/ext/glfw Pages: 1 -->
<svg width="206pt" height="180pt"
 viewBox="0.00 0.00 206.00 180.00" xmlns="http://www.w3.org/2000/svg" xmlns:xlink="http://www.w3.org/1999/xlink">
<g id="graph0" class="graph" transform="scale(1 1) rotate(0) translate(4 176)">
<title>include/ext/glfw</title>
<g id="clust1" class="cluster">
<title>clusterdir_106756a8ee71bdde7f7b779a3a0a52e4</title>
<g id="a_clust1"><a xlink:href="dir_106756a8ee71bdde7f7b779a3a0a52e4.html" target="_top" xlink:title="ext">
<polygon fill="#edf0f7" stroke="#7f7f7f" stroke-dasharray="5,2" points="8,-39 8,-164 190,-164 190,-39 8,-39"/>
<text text-anchor="middle" x="99" y="-152" font-family="Helvetica,sans-Serif" font-size="10.00">ext</text>
</a>
</g>
</g>
<g id="clust2" class="cluster">
<title>clusterdir_87bb11e6601443413726efc9dc479d01</title>
<g id="a_clust2"><a xlink:href="dir_87bb11e6601443413726efc9dc479d01.html" target="_top">
<polygon fill="#edf0f7" stroke="#404040" stroke-width="2" points="16,-47 16,-137 182,-137 182,-47 16,-47"/>
</a>
</g>
</g>
<!-- dir_87bb11e6601443413726efc9dc479d01 -->
<g id="node1" class="node">
<title>dir_87bb11e6601443413726efc9dc479d01</title>
<text text-anchor="middle" x="155" y="-117" font-family="Helvetica,sans-Serif" font-size="10.00">glfw</text>
</g>
<!-- dir_ee15f2335c5359d3d8a57db99fa3af3b -->
<g id="node2" class="node">
<title>dir_ee15f2335c5359d3d8a57db99fa3af3b</title>
<g id="a_node2"><a xlink:href="dir_ee15f2335c5359d3d8a57db99fa3af3b.html" target="_top" xlink:title="app">
<polygon fill="#a2b4d6" stroke="#404040" points="59.5,-129 24.5,-129 24.5,-110 59.5,-110 59.5,-129"/>
<text text-anchor="middle" x="42" y="-117" font-family="Helvetica,sans-Serif" font-size="10.00">app</text>
</a>
</g>
</g>
<!-- dir_2b315964352bf5a0709299532b4abd35 -->
<g id="node4" class="node">
<title>dir_2b315964352bf5a0709299532b4abd35</title>
<g id="a_node4"><a xlink:href="dir_2b315964352bf5a0709299532b4abd35.html" target="_top" xlink:title="window">
<polygon fill="#a2b4d6" stroke="#404040" points="78,-74 24,-74 24,-55 78,-55 78,-74"/>
<text text-anchor="middle" x="51" y="-62" font-family="Helvetica,sans-Serif" font-size="10.00">window</text>
</a>
</g>
</g>
<!-- dir_ee15f2335c5359d3d8a57db99fa3af3b&#45;&gt;dir_2b315964352bf5a0709299532b4abd35 -->
<g id="edge2" class="edge">
<title>dir_ee15f2335c5359d3d8a57db99fa3af3b&#45;&gt;dir_2b315964352bf5a0709299532b4abd35</title>
<g id="a_edge2"><a xlink:href="dir_000000_000053.html" target="_top">
<path fill="none" stroke="#63b8ff" d="M43.49,-109.75C44.67,-102.8 46.36,-92.85 47.84,-84.13"/>
<polygon fill="#63b8ff" stroke="#63b8ff" points="51.32,-84.53 49.54,-74.09 44.42,-83.36 51.32,-84.53"/>
</a>
</g>
<g id="a_edge2&#45;headlabel"><a xlink:href="dir_000000_000053.html" target="_top" xlink:title="3">
<text text-anchor="middle" x="53.52" y="-86.05" font-family="Helvetica,sans-Serif" font-size="10.00" fill="#63b8ff">3</text>
</a>
</g>
</g>
<!-- dir_08c09894bd9f0ab4b1e9fdc7a2628766 -->
<g id="node5" class="node">
<title>dir_08c09894bd9f0ab4b1e9fdc7a2628766</title>
<g id="a_node5"><a xlink:href="dir_08c09894bd9f0ab4b1e9fdc7a2628766.html" target="_top" xlink:title="helios">
<polygon fill="#edf0f7" stroke="red" stroke-dasharray="5,2" points="129,-19 83,-19 83,0 129,0 129,-19"/>
<text text-anchor="middle" x="106" y="-7" font-family="Helvetica,sans-Serif" font-size="10.00">helios</text>
</a>
</g>
</g>
<!-- dir_ee15f2335c5359d3d8a57db99fa3af3b&#45;&gt;dir_08c09894bd9f0ab4b1e9fdc7a2628766 -->
<g id="edge1" class="edge">
<title>dir_ee15f2335c5359d3d8a57db99fa3af3b&#45;&gt;dir_08c09894bd9f0ab4b1e9fdc7a2628766</title>
<g id="a_edge1"><a xlink:href="dir_000000_000020.html" target="_top">
<path fill="none" stroke="#63b8ff" d="M53.59,-109.84C63.77,-101.66 78.29,-88.51 87,-74 95.33,-60.13 100.24,-42.33 102.98,-29.11"/>
<polygon fill="#63b8ff" stroke="#63b8ff" points="106.42,-29.74 104.79,-19.27 99.54,-28.47 106.42,-29.74"/>
</a>
</g>
<g id="a_edge1&#45;headlabel"><a xlink:href="dir_000000_000020.html" target="_top" xlink:title="7">
<text text-anchor="middle" x="108.56" y="-31.29" font-family="Helvetica,sans-Serif" font-size="10.00" fill="#63b8ff">7</text>
</a>
</g>
</g>
<!-- dir_62a5493cb66bd37caaed2493be31f34e -->
<g id="node3" class="node">
<title>dir_62a5493cb66bd37caaed2493be31f34e</title>
<g id="a_node3"><a xlink:href="dir_62a5493cb66bd37caaed2493be31f34e.html" target="_top" xlink:title="input">
<polygon fill="#a2b4d6" stroke="#404040" points="118.5,-129 77.5,-129 77.5,-110 118.5,-110 118.5,-129"/>
<text text-anchor="middle" x="98" y="-117" font-family="Helvetica,sans-Serif" font-size="10.00">input</text>
</a>
</g>
</g>
<!-- dir_62a5493cb66bd37caaed2493be31f34e&#45;&gt;dir_2b315964352bf5a0709299532b4abd35 -->
<g id="edge4" class="edge">
<title>dir_62a5493cb66bd37caaed2493be31f34e&#45;&gt;dir_2b315964352bf5a0709299532b4abd35</title>
<g id="a_edge4"><a xlink:href="dir_000023_000053.html" target="_top">
<path fill="none" stroke="#63b8ff" d="M90.24,-109.75C83.53,-102.18 73.66,-91.05 65.49,-81.84"/>
<polygon fill="#63b8ff" stroke="#63b8ff" points="67.87,-79.25 58.62,-74.09 62.63,-83.89 67.87,-79.25"/>
</a>
</g>
<g id="a_edge4&#45;headlabel"><a xlink:href="dir_000023_000053.html" target="_top" xlink:title="1">
<text text-anchor="middle" x="72.38" y="-77.55" font-family="Helvetica,sans-Serif" font-size="10.00" fill="#63b8ff">1</text>
</a>
</g>
</g>
<!-- dir_62a5493cb66bd37caaed2493be31f34e&#45;&gt;dir_08c09894bd9f0ab4b1e9fdc7a2628766 -->
<g id="edge3" class="edge">
<title>dir_62a5493cb66bd37caaed2493be31f34e&#45;&gt;dir_08c09894bd9f0ab4b1e9fdc7a2628766</title>
<g id="a_edge3"><a xlink:href="dir_000023_000020.html" target="_top">
<path fill="none" stroke="#63b8ff" d="M103.84,-109.76C109.25,-101.1 116.9,-87.26 120,-74 123.54,-58.85 123.52,-54.15 120,-39 119.15,-35.35 117.76,-31.62 116.18,-28.12"/>
<polygon fill="#63b8ff" stroke="#63b8ff" points="119.22,-26.37 111.51,-19.09 113,-29.58 119.22,-26.37"/>
</a>
</g>
<g id="a_edge3&#45;headlabel"><a xlink:href="dir_000023_000020.html" target="_top" xlink:title="9">
<text text-anchor="middle" x="123.39" y="-25.75" font-family="Helvetica,sans-Serif" font-size="10.00" fill="#63b8ff">9</text>
</a>
</g>
</g>
<!-- dir_2b315964352bf5a0709299532b4abd35&#45;&gt;dir_08c09894bd9f0ab4b1e9fdc7a2628766 -->
<g id="edge5" class="edge">
<title>dir_2b315964352bf5a0709299532b4abd35&#45;&gt;dir_08c09894bd9f0ab4b1e9fdc7a2628766</title>
<g id="a_edge5"><a xlink:href="dir_000053_000020.html" target="_top">
<path fill="none" stroke="#63b8ff" d="M60.08,-54.75C68.09,-47.03 79.96,-35.6 89.62,-26.28"/>
<polygon fill="#63b8ff" stroke="#63b8ff" points="92.31,-28.55 97.09,-19.09 87.46,-23.51 92.31,-28.55"/>
</a>
</g>
<g id="a_edge5&#45;headlabel"><a xlink:href="dir_000053_000020.html" target="_top" xlink:title="5">
<text text-anchor="middle" x="91.7" y="-30.59" font-family="Helvetica,sans-Serif" font-size="10.00" fill="#63b8ff">5</text>
</a>
</g>
</g>
</g>
</svg>
