<?xml version="1.0" encoding="UTF-8" standalone="no"?>
<!DOCTYPE svg PUBLIC "-//W3C//DTD SVG 1.1//EN"
 "http://www.w3.org/Graphics/SVG/1.1/DTD/svg11.dtd">
<!-- Generated by graphviz version 2.43.0 (0)
 -->
<!-- Title: include/helios/rendering/model Pages: 1 -->
<svg width="240pt" height="196pt"
 viewBox="0.00 0.00 240.00 196.00" xmlns="http://www.w3.org/2000/svg" xmlns:xlink="http://www.w3.org/1999/xlink">
<g id="graph0" class="graph" transform="scale(1 1) rotate(0) translate(4 192)">
<title>include/helios/rendering/model</title>
<g id="clust1" class="cluster">
<title>clusterdir_9ba586a504c756f19720715161f17166</title>
<g id="a_clust1"><a xlink:href="dir_9ba586a504c756f19720715161f17166.html" target="_top" xlink:title="rendering">
<polygon fill="#edf0f7" stroke="#7f7f7f" stroke-dasharray="5,2" points="8,-8 8,-180 152,-180 152,-8 8,-8"/>
<text text-anchor="middle" x="80" y="-168" font-family="Helvetica,sans-Serif" font-size="10.00">rendering</text>
</a>
</g>
</g>
<g id="clust2" class="cluster">
<title>clusterdir_93c18e872bfe9baf2066232ace9cc478</title>
<g id="a_clust2"><a xlink:href="dir_93c18e872bfe9baf2066232ace9cc478.html" target="_top">
<polygon fill="#edf0f7" stroke="#404040" stroke-width="2" points="28,-63 28,-153 92,-153 92,-63 28,-63"/>
</a>
</g>
</g>
<!-- dir_869a74fcf9d0260a88bfc70b1dd6928c -->
<g id="node1" class="node">
<title>dir_869a74fcf9d0260a88bfc70b1dd6928c</title>
<g id="a_node1"><a xlink:href="dir_869a74fcf9d0260a88bfc70b1dd6928c.html" target="_top" xlink:title="shader">
<polygon fill="#a2b4d6" stroke="#404040" points="75,-35 25,-35 25,-16 75,-16 75,-35"/>
<text text-anchor="middle" x="50" y="-23" font-family="Helvetica,sans-Serif" font-size="10.00">shader</text>
</a>
</g>
</g>
<!-- dir_dd4be7afabb700f6b3872556ecdc0008 -->
<g id="node2" class="node">
<title>dir_dd4be7afabb700f6b3872556ecdc0008</title>
<g id="a_node2"><a xlink:href="dir_dd4be7afabb700f6b3872556ecdc0008.html" target="_top" xlink:title="asset">
<polygon fill="#a2b4d6" stroke="red" points="143.5,-90 100.5,-90 100.5,-71 143.5,-71 143.5,-90"/>
<text text-anchor="middle" x="122" y="-78" font-family="Helvetica,sans-Serif" font-size="10.00">asset</text>
</a>
</g>
</g>
<!-- dir_93c18e872bfe9baf2066232ace9cc478 -->
<g id="node3" class="node">
<title>dir_93c18e872bfe9baf2066232ace9cc478</title>
<text text-anchor="middle" x="60" y="-133" font-family="Helvetica,sans-Serif" font-size="10.00">model</text>
</g>
<!-- dir_93c18e872bfe9baf2066232ace9cc478&#45;&gt;dir_869a74fcf9d0260a88bfc70b1dd6928c -->
<g id="edge4" class="edge">
<title>dir_93c18e872bfe9baf2066232ace9cc478&#45;&gt;dir_869a74fcf9d0260a88bfc70b1dd6928c</title>
<g id="a_edge4"><a xlink:href="dir_000025_000031.html" target="_top">
<path fill="none" stroke="#63b8ff" d="M50.98,-125.96C42.93,-117.66 31.71,-104.25 27,-90 23.24,-78.61 23.67,-74.53 27,-63 28.99,-56.11 32.71,-49.26 36.59,-43.39"/>
<polygon fill="#63b8ff" stroke="#63b8ff" points="39.56,-45.26 42.59,-35.11 33.89,-41.15 39.56,-45.26"/>
</a>
</g>
<g id="a_edge4&#45;headlabel"><a xlink:href="dir_000025_000031.html" target="_top" xlink:title="6">
<text text-anchor="middle" x="39.75" y="-47.34" font-family="Helvetica,sans-Serif" font-size="10.00" fill="#63b8ff">6</text>
</a>
</g>
</g>
<!-- dir_93c18e872bfe9baf2066232ace9cc478&#45;&gt;dir_dd4be7afabb700f6b3872556ecdc0008 -->
<g id="edge5" class="edge">
<title>dir_93c18e872bfe9baf2066232ace9cc478&#45;&gt;dir_dd4be7afabb700f6b3872556ecdc0008</title>
<g id="a_edge5"><a xlink:href="dir_000025_000002.html" target="_top">
<path fill="none" stroke="#63b8ff" d="M69.96,-125.98C79.13,-118.15 92.94,-106.34 104.03,-96.86"/>
<polygon fill="#63b8ff" stroke="#63b8ff" points="106.53,-99.33 111.86,-90.17 101.98,-94.01 106.53,-99.33"/>
</a>
</g>
<g id="a_edge5&#45;headlabel"><a xlink:href="dir_000025_000002.html" target="_top" xlink:title="1">
<text text-anchor="middle" x="105.64" y="-101.32" font-family="Helvetica,sans-Serif" font-size="10.00" fill="#63b8ff">1</text>
</a>
</g>
</g>
<!-- dir_02afb991ea97bf2661aaeca4ba6c3d78 -->
<g id="node4" class="node">
<title>dir_02afb991ea97bf2661aaeca4ba6c3d78</title>
<g id="a_node4"><a xlink:href="dir_02afb991ea97bf2661aaeca4ba6c3d78.html" target="_top" xlink:title="config">
<polygon fill="#a2b4d6" stroke="#404040" points="82,-90 36,-90 36,-71 82,-71 82,-90"/>
<text text-anchor="middle" x="59" y="-78" font-family="Helvetica,sans-Serif" font-size="10.00">config</text>
</a>
</g>
</g>
<!-- dir_93c18e872bfe9baf2066232ace9cc478&#45;&gt;dir_02afb991ea97bf2661aaeca4ba6c3d78 -->
<g id="edge2" class="edge">
<title>dir_93c18e872bfe9baf2066232ace9cc478&#45;&gt;dir_02afb991ea97bf2661aaeca4ba6c3d78</title>
<g id="a_edge2"><a xlink:href="dir_000025_000005.html" target="_top">
<path fill="none" stroke="#63b8ff" d="M59.83,-125.75C59.7,-118.8 59.52,-108.85 59.35,-100.13"/>
<polygon fill="#63b8ff" stroke="#63b8ff" points="62.85,-100.02 59.16,-90.09 55.85,-100.15 62.85,-100.02"/>
</a>
</g>
<g id="a_edge2&#45;headlabel"><a xlink:href="dir_000025_000005.html" target="_top" xlink:title="3">
<text text-anchor="middle" x="65.76" y="-101.06" font-family="Helvetica,sans-Serif" font-size="10.00" fill="#63b8ff">3</text>
</a>
</g>
</g>
<!-- dir_0046d781185df00694c70533b055a138 -->
<g id="node5" class="node">
<title>dir_0046d781185df00694c70533b055a138</title>
<g id="a_node5"><a xlink:href="dir_0046d781185df00694c70533b055a138.html" target="_top" xlink:title="math">
<polygon fill="#edf0f7" stroke="red" stroke-dasharray="5,2" points="202,-35 160,-35 160,-16 202,-16 202,-35"/>
<text text-anchor="middle" x="181" y="-23" font-family="Helvetica,sans-Serif" font-size="10.00">math</text>
</a>
</g>
</g>
<!-- dir_93c18e872bfe9baf2066232ace9cc478&#45;&gt;dir_0046d781185df00694c70533b055a138 -->
<g id="edge1" class="edge">
<title>dir_93c18e872bfe9baf2066232ace9cc478&#45;&gt;dir_0046d781185df00694c70533b055a138</title>
<g id="a_edge1"><a xlink:href="dir_000025_000023.html" target="_top">
<path fill="none" stroke="#63b8ff" d="M83.5,-128.98C104.99,-122.82 136.34,-110.85 156,-90 167.67,-77.62 174.12,-59.15 177.52,-45.31"/>
<polygon fill="#63b8ff" stroke="#63b8ff" points="180.97,-45.93 179.65,-35.42 174.13,-44.46 180.97,-45.93"/>
</a>
</g>
<g id="a_edge1&#45;headlabel"><a xlink:href="dir_000025_000023.html" target="_top" xlink:title="3">
<text text-anchor="middle" x="182.99" y="-47.54" font-family="Helvetica,sans-Serif" font-size="10.00" fill="#63b8ff">3</text>
</a>
</g>
</g>
<!-- dir_7f0768799dd37ef2f2adcdfec91ab1e9 -->
<g id="node6" class="node">
<title>dir_7f0768799dd37ef2f2adcdfec91ab1e9</title>
<g id="a_node6"><a xlink:href="dir_7f0768799dd37ef2f2adcdfec91ab1e9.html" target="_top" xlink:title="util">
<polygon fill="#edf0f7" stroke="red" stroke-dasharray="5,2" points="232,-90 200,-90 200,-71 232,-71 232,-90"/>
<text text-anchor="middle" x="216" y="-78" font-family="Helvetica,sans-Serif" font-size="10.00">util</text>
</a>
</g>
</g>
<!-- dir_93c18e872bfe9baf2066232ace9cc478&#45;&gt;dir_7f0768799dd37ef2f2adcdfec91ab1e9 -->
<g id="edge3" class="edge">
<title>dir_93c18e872bfe9baf2066232ace9cc478&#45;&gt;dir_7f0768799dd37ef2f2adcdfec91ab1e9</title>
<g id="a_edge3"><a xlink:href="dir_000025_000039.html" target="_top">
<path fill="none" stroke="#63b8ff" d="M83.69,-126.45C112.36,-116.71 160.46,-100.37 190.09,-90.3"/>
<polygon fill="#63b8ff" stroke="#63b8ff" points="191.4,-93.56 199.74,-87.03 189.14,-86.93 191.4,-93.56"/>
</a>
</g>
<g id="a_edge3&#45;headlabel"><a xlink:href="dir_000025_000039.html" target="_top" xlink:title="3">
<text text-anchor="middle" x="188.9" y="-94.9" font-family="Helvetica,sans-Serif" font-size="10.00" fill="#63b8ff">3</text>
</a>
</g>
</g>
<!-- dir_02afb991ea97bf2661aaeca4ba6c3d78&#45;&gt;dir_869a74fcf9d0260a88bfc70b1dd6928c -->
<g id="edge7" class="edge">
<title>dir_02afb991ea97bf2661aaeca4ba6c3d78&#45;&gt;dir_869a74fcf9d0260a88bfc70b1dd6928c</title>
<g id="a_edge7"><a xlink:href="dir_000005_000031.html" target="_top">
<path fill="none" stroke="#63b8ff" d="M57.51,-70.75C56.33,-63.8 54.64,-53.85 53.16,-45.13"/>
<polygon fill="#63b8ff" stroke="#63b8ff" points="56.58,-44.36 51.46,-35.09 49.68,-45.53 56.58,-44.36"/>
</a>
</g>
<g id="a_edge7&#45;headlabel"><a xlink:href="dir_000005_000031.html" target="_top" xlink:title="4">
<text text-anchor="middle" x="59.98" y="-44.93" font-family="Helvetica,sans-Serif" font-size="10.00" fill="#63b8ff">4</text>
</a>
</g>
</g>
<!-- dir_02afb991ea97bf2661aaeca4ba6c3d78&#45;&gt;dir_0046d781185df00694c70533b055a138 -->
<g id="edge6" class="edge">
<title>dir_02afb991ea97bf2661aaeca4ba6c3d78&#45;&gt;dir_0046d781185df00694c70533b055a138</title>
<g id="a_edge6"><a xlink:href="dir_000005_000023.html" target="_top">
<path fill="none" stroke="#63b8ff" d="M71.91,-70.95C76.29,-68.23 81.27,-65.33 86,-63 97.65,-57.26 127.24,-46.08 150.33,-37.6"/>
<polygon fill="#63b8ff" stroke="#63b8ff" points="151.57,-40.87 159.76,-34.15 149.17,-34.3 151.57,-40.87"/>
</a>
</g>
<g id="a_edge6&#45;headlabel"><a xlink:href="dir_000005_000023.html" target="_top" xlink:title="2">
<text text-anchor="middle" x="149.17" y="-42.27" font-family="Helvetica,sans-Serif" font-size="10.00" fill="#63b8ff">2</text>
</a>
</g>
</g>
</g>
</svg>
