<?xml version="1.0" encoding="UTF-8" standalone="no"?>
<!DOCTYPE svg PUBLIC "-//W3C//DTD SVG 1.1//EN"
 "http://www.w3.org/Graphics/SVG/1.1/DTD/svg11.dtd">
<!-- Generated by graphviz version 2.43.0 (0)
 -->
<!-- Title: include/helios/math Pages: 1 -->
<svg width="176pt" height="259pt"
 viewBox="0.00 0.00 176.00 259.00" xmlns="http://www.w3.org/2000/svg" xmlns:xlink="http://www.w3.org/1999/xlink">
<g id="graph0" class="graph" transform="scale(1 1) rotate(0) translate(4 255)">
<title>include/helios/math</title>
<g id="clust1" class="cluster">
<title>clusterdir_08c09894bd9f0ab4b1e9fdc7a2628766</title>
<g id="a_clust1"><a xlink:href="dir_08c09894bd9f0ab4b1e9fdc7a2628766.html" target="_top" xlink:title="helios">
<polygon fill="#edf0f7" stroke="#7f7f7f" stroke-dasharray="5,2" points="8,-8 8,-243 160,-243 160,-8 8,-8"/>
<text text-anchor="middle" x="84" y="-231" font-family="Helvetica,sans-Serif" font-size="10.00">helios</text>
</a>
</g>
</g>
<g id="clust2" class="cluster">
<title>clusterdir_0046d781185df00694c70533b055a138</title>
<g id="a_clust2"><a xlink:href="dir_0046d781185df00694c70533b055a138.html" target="_top">
<polygon fill="#edf0f7" stroke="#404040" stroke-width="2" points="16,-16 16,-216 152,-216 152,-16 16,-16"/>
</a>
</g>
</g>
<!-- dir_0046d781185df00694c70533b055a138 -->
<g id="node1" class="node">
<title>dir_0046d781185df00694c70533b055a138</title>
<text text-anchor="middle" x="91" y="-196" font-family="Helvetica,sans-Serif" font-size="10.00">math</text>
</g>
<!-- dir_eb27c6586e3179d4051f6b025521d9e9 -->
<g id="node2" class="node">
<title>dir_eb27c6586e3179d4051f6b025521d9e9</title>
<g id="a_node2"><a xlink:href="dir_eb27c6586e3179d4051f6b025521d9e9.html" target="_top" xlink:title="concepts">
<polygon fill="#a2b4d6" stroke="#404040" points="84,-43 24,-43 24,-24 84,-24 84,-43"/>
<text text-anchor="middle" x="54" y="-31" font-family="Helvetica,sans-Serif" font-size="10.00">concepts</text>
</a>
</g>
</g>
<!-- dir_0046d781185df00694c70533b055a138&#45;&gt;dir_eb27c6586e3179d4051f6b025521d9e9 -->
<g id="edge2" class="edge">
<title>dir_0046d781185df00694c70533b055a138&#45;&gt;dir_eb27c6586e3179d4051f6b025521d9e9</title>
<g id="a_edge2"><a xlink:href="dir_000023_000004.html" target="_top">
<path fill="none" stroke="#63b8ff" d="M79.07,-188.8C69.17,-180.77 55.81,-167.87 50,-153 37.01,-119.73 43.47,-77.12 48.98,-53.11"/>
<polygon fill="#63b8ff" stroke="#63b8ff" points="52.42,-53.77 51.44,-43.22 45.63,-52.08 52.42,-53.77"/>
</a>
</g>
<g id="a_edge2&#45;headlabel"><a xlink:href="dir_000023_000004.html" target="_top" xlink:title="6">
<text text-anchor="middle" x="54.31" y="-55.45" font-family="Helvetica,sans-Serif" font-size="10.00" fill="#63b8ff">6</text>
</a>
</g>
</g>
<!-- dir_88a1fd8d04254e342955f6c0d5b29283 -->
<g id="node4" class="node">
<title>dir_88a1fd8d04254e342955f6c0d5b29283</title>
<g id="a_node4"><a xlink:href="dir_88a1fd8d04254e342955f6c0d5b29283.html" target="_top" xlink:title="transform">
<polygon fill="#a2b4d6" stroke="#404040" points="123.5,-153 58.5,-153 58.5,-134 123.5,-134 123.5,-153"/>
<text text-anchor="middle" x="91" y="-141" font-family="Helvetica,sans-Serif" font-size="10.00">transform</text>
</a>
</g>
</g>
<!-- dir_0046d781185df00694c70533b055a138&#45;&gt;dir_88a1fd8d04254e342955f6c0d5b29283 -->
<g id="edge1" class="edge">
<title>dir_0046d781185df00694c70533b055a138&#45;&gt;dir_88a1fd8d04254e342955f6c0d5b29283</title>
<g id="a_edge1"><a xlink:href="dir_000023_000036.html" target="_top">
<path fill="none" stroke="#63b8ff" d="M91,-188.75C91,-181.8 91,-171.85 91,-163.13"/>
<polygon fill="#63b8ff" stroke="#63b8ff" points="94.5,-163.09 91,-153.09 87.5,-163.09 94.5,-163.09"/>
</a>
</g>
<g id="a_edge1&#45;headlabel"><a xlink:href="dir_000023_000036.html" target="_top" xlink:title="1">
<text text-anchor="middle" x="97.34" y="-164.18" font-family="Helvetica,sans-Serif" font-size="10.00" fill="#63b8ff">1</text>
</a>
</g>
</g>
<!-- dir_ec1f341d187cb06b8fc5c1e70ce7a6b5 -->
<g id="node5" class="node">
<title>dir_ec1f341d187cb06b8fc5c1e70ce7a6b5</title>
<g id="a_node5"><a xlink:href="dir_ec1f341d187cb06b8fc5c1e70ce7a6b5.html" target="_top" xlink:title="types">
<polygon fill="#a2b4d6" stroke="#404040" points="128,-98 84,-98 84,-79 128,-79 128,-98"/>
<text text-anchor="middle" x="106" y="-86" font-family="Helvetica,sans-Serif" font-size="10.00">types</text>
</a>
</g>
</g>
<!-- dir_0046d781185df00694c70533b055a138&#45;&gt;dir_ec1f341d187cb06b8fc5c1e70ce7a6b5 -->
<g id="edge3" class="edge">
<title>dir_0046d781185df00694c70533b055a138&#45;&gt;dir_ec1f341d187cb06b8fc5c1e70ce7a6b5</title>
<g id="a_edge3"><a xlink:href="dir_000023_000038.html" target="_top">
<path fill="none" stroke="#63b8ff" d="M103.21,-188.86C113.35,-180.88 127.04,-168.01 133,-153 139.4,-136.9 129.95,-118.72 120.52,-105.96"/>
<polygon fill="#63b8ff" stroke="#63b8ff" points="123.18,-103.68 114.19,-98.07 117.72,-108.06 123.18,-103.68"/>
</a>
</g>
<g id="a_edge3&#45;headlabel"><a xlink:href="dir_000023_000038.html" target="_top" xlink:title="3">
<text text-anchor="middle" x="127.64" y="-102.2" font-family="Helvetica,sans-Serif" font-size="10.00" fill="#63b8ff">3</text>
</a>
</g>
</g>
<!-- dir_0f3bb995a0a75ecfd44dd1bf3336549a -->
<g id="node3" class="node">
<title>dir_0f3bb995a0a75ecfd44dd1bf3336549a</title>
<g id="a_node3"><a xlink:href="dir_0f3bb995a0a75ecfd44dd1bf3336549a.html" target="_top" xlink:title="traits">
<polygon fill="#a2b4d6" stroke="#404040" points="144,-43 102,-43 102,-24 144,-24 144,-43"/>
<text text-anchor="middle" x="123" y="-31" font-family="Helvetica,sans-Serif" font-size="10.00">traits</text>
</a>
</g>
</g>
<!-- dir_88a1fd8d04254e342955f6c0d5b29283&#45;&gt;dir_ec1f341d187cb06b8fc5c1e70ce7a6b5 -->
<g id="edge4" class="edge">
<title>dir_88a1fd8d04254e342955f6c0d5b29283&#45;&gt;dir_ec1f341d187cb06b8fc5c1e70ce7a6b5</title>
<g id="a_edge4"><a xlink:href="dir_000036_000038.html" target="_top">
<path fill="none" stroke="#63b8ff" d="M93.48,-133.75C95.46,-126.72 98.32,-116.62 100.81,-107.84"/>
<polygon fill="#63b8ff" stroke="#63b8ff" points="104.21,-108.66 103.57,-98.09 97.48,-106.76 104.21,-108.66"/>
</a>
</g>
<g id="a_edge4&#45;headlabel"><a xlink:href="dir_000036_000038.html" target="_top" xlink:title="2">
<text text-anchor="middle" x="105.97" y="-110.4" font-family="Helvetica,sans-Serif" font-size="10.00" fill="#63b8ff">2</text>
</a>
</g>
</g>
<!-- dir_ec1f341d187cb06b8fc5c1e70ce7a6b5&#45;&gt;dir_eb27c6586e3179d4051f6b025521d9e9 -->
<g id="edge6" class="edge">
<title>dir_ec1f341d187cb06b8fc5c1e70ce7a6b5&#45;&gt;dir_eb27c6586e3179d4051f6b025521d9e9</title>
<g id="a_edge6"><a xlink:href="dir_000038_000004.html" target="_top">
<path fill="none" stroke="#63b8ff" d="M97.41,-78.75C89.84,-71.03 78.62,-59.6 69.49,-50.28"/>
<polygon fill="#63b8ff" stroke="#63b8ff" points="71.93,-47.78 62.43,-43.09 66.93,-52.68 71.93,-47.78"/>
</a>
</g>
<g id="a_edge6&#45;headlabel"><a xlink:href="dir_000038_000004.html" target="_top" xlink:title="5">
<text text-anchor="middle" x="76.47" y="-45.85" font-family="Helvetica,sans-Serif" font-size="10.00" fill="#63b8ff">5</text>
</a>
</g>
</g>
<!-- dir_ec1f341d187cb06b8fc5c1e70ce7a6b5&#45;&gt;dir_0f3bb995a0a75ecfd44dd1bf3336549a -->
<g id="edge5" class="edge">
<title>dir_ec1f341d187cb06b8fc5c1e70ce7a6b5&#45;&gt;dir_0f3bb995a0a75ecfd44dd1bf3336549a</title>
<g id="a_edge5"><a xlink:href="dir_000038_000035.html" target="_top">
<path fill="none" stroke="#63b8ff" d="M108.81,-78.75C111.06,-71.72 114.3,-61.62 117.12,-52.84"/>
<polygon fill="#63b8ff" stroke="#63b8ff" points="120.52,-53.68 120.25,-43.09 113.86,-51.54 120.52,-53.68"/>
</a>
</g>
<g id="a_edge5&#45;headlabel"><a xlink:href="dir_000038_000035.html" target="_top" xlink:title="3">
<text text-anchor="middle" x="122.13" y="-55.47" font-family="Helvetica,sans-Serif" font-size="10.00" fill="#63b8ff">3</text>
</a>
</g>
</g>
</g>
</svg>
