<?xml version="1.0" encoding="UTF-8" standalone="no"?>
<!DOCTYPE svg PUBLIC "-//W3C//DTD SVG 1.1//EN"
 "http://www.w3.org/Graphics/SVG/1.1/DTD/svg11.dtd">
<!-- Generated by graphviz version 2.43.0 (0)
 -->
<!-- Title: include/helios/app Pages: 1 -->
<svg width="288pt" height="196pt"
 viewBox="0.00 0.00 288.00 196.00" xmlns="http://www.w3.org/2000/svg" xmlns:xlink="http://www.w3.org/1999/xlink">
<g id="graph0" class="graph" transform="scale(1 1) rotate(0) translate(4 192)">
<title>include/helios/app</title>
<g id="clust1" class="cluster">
<title>clusterdir_08c09894bd9f0ab4b1e9fdc7a2628766</title>
<g id="a_clust1"><a xlink:href="dir_08c09894bd9f0ab4b1e9fdc7a2628766.html" target="_top" xlink:title="helios">
<polygon fill="#edf0f7" stroke="#7f7f7f" stroke-dasharray="5,2" points="8,-8 8,-180 272,-180 272,-8 8,-8"/>
<text text-anchor="middle" x="140" y="-168" font-family="Helvetica,sans-Serif" font-size="10.00">helios</text>
</a>
</g>
</g>
<g id="clust2" class="cluster">
<title>clusterdir_5426d89496cb30043662afccf5b53207</title>
<g id="a_clust2"><a xlink:href="dir_5426d89496cb30043662afccf5b53207.html" target="_top">
<polygon fill="#edf0f7" stroke="#404040" stroke-width="2" points="114,-63 114,-153 194,-153 194,-63 114,-63"/>
</a>
</g>
</g>
<!-- dir_58a7612d3773fb780b0e5d4a861b7b53 -->
<g id="node1" class="node">
<title>dir_58a7612d3773fb780b0e5d4a861b7b53</title>
<g id="a_node1"><a xlink:href="dir_58a7612d3773fb780b0e5d4a861b7b53.html" target="_top" xlink:title="input">
<polygon fill="#a2b4d6" stroke="red" points="83.5,-90 42.5,-90 42.5,-71 83.5,-71 83.5,-90"/>
<text text-anchor="middle" x="63" y="-78" font-family="Helvetica,sans-Serif" font-size="10.00">input</text>
</a>
</g>
</g>
<!-- dir_7f0768799dd37ef2f2adcdfec91ab1e9 -->
<g id="node2" class="node">
<title>dir_7f0768799dd37ef2f2adcdfec91ab1e9</title>
<g id="a_node2"><a xlink:href="dir_7f0768799dd37ef2f2adcdfec91ab1e9.html" target="_top" xlink:title="util">
<polygon fill="#a2b4d6" stroke="red" points="48,-35 16,-35 16,-16 48,-16 48,-35"/>
<text text-anchor="middle" x="32" y="-23" font-family="Helvetica,sans-Serif" font-size="10.00">util</text>
</a>
</g>
</g>
<!-- dir_9b52b993eaa3e3f802dc9c71987b2802 -->
<g id="node3" class="node">
<title>dir_9b52b993eaa3e3f802dc9c71987b2802</title>
<g id="a_node3"><a xlink:href="dir_9b52b993eaa3e3f802dc9c71987b2802.html" target="_top" xlink:title="event">
<polygon fill="#a2b4d6" stroke="#404040" points="110,-35 66,-35 66,-16 110,-16 110,-35"/>
<text text-anchor="middle" x="88" y="-23" font-family="Helvetica,sans-Serif" font-size="10.00">event</text>
</a>
</g>
</g>
<!-- dir_9ba586a504c756f19720715161f17166 -->
<g id="node4" class="node">
<title>dir_9ba586a504c756f19720715161f17166</title>
<g id="a_node4"><a xlink:href="dir_9ba586a504c756f19720715161f17166.html" target="_top" xlink:title="rendering">
<polygon fill="#a2b4d6" stroke="red" points="191.5,-35 128.5,-35 128.5,-16 191.5,-16 191.5,-35"/>
<text text-anchor="middle" x="160" y="-23" font-family="Helvetica,sans-Serif" font-size="10.00">rendering</text>
</a>
</g>
</g>
<!-- dir_f420875d55816fb78e81b706f36fb7ba -->
<g id="node5" class="node">
<title>dir_f420875d55816fb78e81b706f36fb7ba</title>
<g id="a_node5"><a xlink:href="dir_f420875d55816fb78e81b706f36fb7ba.html" target="_top" xlink:title="window">
<polygon fill="#a2b4d6" stroke="red" points="264,-35 210,-35 210,-16 264,-16 264,-35"/>
<text text-anchor="middle" x="237" y="-23" font-family="Helvetica,sans-Serif" font-size="10.00">window</text>
</a>
</g>
</g>
<!-- dir_5426d89496cb30043662afccf5b53207 -->
<g id="node6" class="node">
<title>dir_5426d89496cb30043662afccf5b53207</title>
<text text-anchor="middle" x="147" y="-133" font-family="Helvetica,sans-Serif" font-size="10.00">app</text>
</g>
<!-- dir_5426d89496cb30043662afccf5b53207&#45;&gt;dir_58a7612d3773fb780b0e5d4a861b7b53 -->
<g id="edge1" class="edge">
<title>dir_5426d89496cb30043662afccf5b53207&#45;&gt;dir_58a7612d3773fb780b0e5d4a861b7b53</title>
<g id="a_edge1"><a xlink:href="dir_000001_000025.html" target="_top">
<path fill="none" stroke="#63b8ff" d="M133.5,-125.98C120.6,-117.84 100.9,-105.41 85.6,-95.76"/>
<polygon fill="#63b8ff" stroke="#63b8ff" points="87.07,-92.55 76.74,-90.17 83.33,-98.47 87.07,-92.55"/>
</a>
</g>
<g id="a_edge1&#45;headlabel"><a xlink:href="dir_000001_000025.html" target="_top" xlink:title="1">
<text text-anchor="middle" x="91.62" y="-89.56" font-family="Helvetica,sans-Serif" font-size="10.00" fill="#63b8ff">1</text>
</a>
</g>
</g>
<!-- dir_5426d89496cb30043662afccf5b53207&#45;&gt;dir_7f0768799dd37ef2f2adcdfec91ab1e9 -->
<g id="edge2" class="edge">
<title>dir_5426d89496cb30043662afccf5b53207&#45;&gt;dir_7f0768799dd37ef2f2adcdfec91ab1e9</title>
<g id="a_edge2"><a xlink:href="dir_000001_000051.html" target="_top">
<path fill="none" stroke="#63b8ff" d="M129.24,-133.31C103.36,-130.53 55.97,-121.2 34,-90 24.97,-77.18 25.35,-59.01 27.48,-45.39"/>
<polygon fill="#63b8ff" stroke="#63b8ff" points="30.98,-45.73 29.51,-35.24 24.12,-44.36 30.98,-45.73"/>
</a>
</g>
<g id="a_edge2&#45;headlabel"><a xlink:href="dir_000001_000051.html" target="_top" xlink:title="4">
<text text-anchor="middle" x="33.06" y="-47.31" font-family="Helvetica,sans-Serif" font-size="10.00" fill="#63b8ff">4</text>
</a>
</g>
</g>
<!-- dir_5426d89496cb30043662afccf5b53207&#45;&gt;dir_9b52b993eaa3e3f802dc9c71987b2802 -->
<g id="edge3" class="edge">
<title>dir_5426d89496cb30043662afccf5b53207&#45;&gt;dir_9b52b993eaa3e3f802dc9c71987b2802</title>
<g id="a_edge3"><a xlink:href="dir_000001_000012.html" target="_top">
<path fill="none" stroke="#63b8ff" d="M139.48,-125.75C132.28,-117.09 121.46,-103.24 114,-90 105.77,-75.41 98.74,-57.69 94.07,-44.68"/>
<polygon fill="#63b8ff" stroke="#63b8ff" points="97.31,-43.33 90.73,-35.03 90.69,-45.62 97.31,-43.33"/>
</a>
</g>
<g id="a_edge3&#45;headlabel"><a xlink:href="dir_000001_000012.html" target="_top" xlink:title="3">
<text text-anchor="middle" x="101.17" y="-43.3" font-family="Helvetica,sans-Serif" font-size="10.00" fill="#63b8ff">3</text>
</a>
</g>
</g>
<!-- dir_5426d89496cb30043662afccf5b53207&#45;&gt;dir_9ba586a504c756f19720715161f17166 -->
<g id="edge4" class="edge">
<title>dir_5426d89496cb30043662afccf5b53207&#45;&gt;dir_9ba586a504c756f19720715161f17166</title>
<g id="a_edge4"><a xlink:href="dir_000001_000037.html" target="_top">
<path fill="none" stroke="#63b8ff" d="M161.37,-125.96C172.87,-118.21 188.18,-105.62 195,-90 199.8,-79 199.48,-74.13 195,-63 191.78,-54.98 185.86,-47.73 179.79,-41.85"/>
<polygon fill="#63b8ff" stroke="#63b8ff" points="182.04,-39.16 172.22,-35.17 177.4,-44.41 182.04,-39.16"/>
</a>
</g>
<g id="a_edge4&#45;headlabel"><a xlink:href="dir_000001_000037.html" target="_top" xlink:title="4">
<text text-anchor="middle" x="186.61" y="-36.91" font-family="Helvetica,sans-Serif" font-size="10.00" fill="#63b8ff">4</text>
</a>
</g>
</g>
<!-- dir_5426d89496cb30043662afccf5b53207&#45;&gt;dir_f420875d55816fb78e81b706f36fb7ba -->
<g id="edge5" class="edge">
<title>dir_5426d89496cb30043662afccf5b53207&#45;&gt;dir_f420875d55816fb78e81b706f36fb7ba</title>
<g id="a_edge5"><a xlink:href="dir_000001_000054.html" target="_top">
<path fill="none" stroke="#63b8ff" d="M160.16,-125.76C171.87,-117.52 188.97,-104.33 201,-90 212.69,-76.08 222.58,-57.82 229.02,-44.46"/>
<polygon fill="#63b8ff" stroke="#63b8ff" points="232.22,-45.89 233.24,-35.35 225.86,-42.95 232.22,-45.89"/>
</a>
</g>
<g id="a_edge5&#45;headlabel"><a xlink:href="dir_000001_000054.html" target="_top" xlink:title="5">
<text text-anchor="middle" x="233.28" y="-47.85" font-family="Helvetica,sans-Serif" font-size="10.00" fill="#63b8ff">5</text>
</a>
</g>
</g>
<!-- dir_faba1e8ac90047e249cc0ce4819a22fa -->
<g id="node7" class="node">
<title>dir_faba1e8ac90047e249cc0ce4819a22fa</title>
<g id="a_node7"><a xlink:href="dir_faba1e8ac90047e249cc0ce4819a22fa.html" target="_top" xlink:title="controller">
<polygon fill="#a2b4d6" stroke="#404040" points="185.5,-90 122.5,-90 122.5,-71 185.5,-71 185.5,-90"/>
<text text-anchor="middle" x="154" y="-78" font-family="Helvetica,sans-Serif" font-size="10.00">controller</text>
</a>
</g>
</g>
<!-- dir_5426d89496cb30043662afccf5b53207&#45;&gt;dir_faba1e8ac90047e249cc0ce4819a22fa -->
<g id="edge6" class="edge">
<title>dir_5426d89496cb30043662afccf5b53207&#45;&gt;dir_faba1e8ac90047e249cc0ce4819a22fa</title>
<g id="a_edge6"><a xlink:href="dir_000001_000008.html" target="_top">
<path fill="none" stroke="#63b8ff" d="M148.16,-125.75C149.07,-118.8 150.39,-108.85 151.54,-100.13"/>
<polygon fill="#63b8ff" stroke="#63b8ff" points="155.03,-100.46 152.87,-90.09 148.09,-99.54 155.03,-100.46"/>
</a>
</g>
<g id="a_edge6&#45;headlabel"><a xlink:href="dir_000001_000008.html" target="_top" xlink:title="2">
<text text-anchor="middle" x="157.37" y="-101.9" font-family="Helvetica,sans-Serif" font-size="10.00" fill="#63b8ff">2</text>
</a>
</g>
</g>
<!-- dir_faba1e8ac90047e249cc0ce4819a22fa&#45;&gt;dir_7f0768799dd37ef2f2adcdfec91ab1e9 -->
<g id="edge7" class="edge">
<title>dir_faba1e8ac90047e249cc0ce4819a22fa&#45;&gt;dir_7f0768799dd37ef2f2adcdfec91ab1e9</title>
<g id="a_edge7"><a xlink:href="dir_000008_000051.html" target="_top">
<path fill="none" stroke="#63b8ff" d="M136.26,-70.96C130.75,-68.35 124.65,-65.51 119,-63 98.49,-53.87 74.99,-44.05 57.6,-36.9"/>
<polygon fill="#63b8ff" stroke="#63b8ff" points="58.7,-33.57 48.12,-33.02 56.05,-40.05 58.7,-33.57"/>
</a>
</g>
<g id="a_edge7&#45;headlabel"><a xlink:href="dir_000008_000051.html" target="_top" xlink:title="2">
<text text-anchor="middle" x="63.11" y="-29.8" font-family="Helvetica,sans-Serif" font-size="10.00" fill="#63b8ff">2</text>
</a>
</g>
</g>
<!-- dir_faba1e8ac90047e249cc0ce4819a22fa&#45;&gt;dir_9b52b993eaa3e3f802dc9c71987b2802 -->
<g id="edge8" class="edge">
<title>dir_faba1e8ac90047e249cc0ce4819a22fa&#45;&gt;dir_9b52b993eaa3e3f802dc9c71987b2802</title>
<g id="a_edge8"><a xlink:href="dir_000008_000012.html" target="_top">
<path fill="none" stroke="#63b8ff" d="M143.4,-70.98C133.54,-63.07 118.65,-51.11 106.78,-41.58"/>
<polygon fill="#63b8ff" stroke="#63b8ff" points="108.79,-38.7 98.8,-35.17 104.4,-44.16 108.79,-38.7"/>
</a>
</g>
<g id="a_edge8&#45;headlabel"><a xlink:href="dir_000008_000012.html" target="_top" xlink:title="2">
<text text-anchor="middle" x="113.37" y="-36.24" font-family="Helvetica,sans-Serif" font-size="10.00" fill="#63b8ff">2</text>
</a>
</g>
</g>
<!-- dir_faba1e8ac90047e249cc0ce4819a22fa&#45;&gt;dir_9ba586a504c756f19720715161f17166 -->
<g id="edge9" class="edge">
<title>dir_faba1e8ac90047e249cc0ce4819a22fa&#45;&gt;dir_9ba586a504c756f19720715161f17166</title>
<g id="a_edge9"><a xlink:href="dir_000008_000037.html" target="_top">
<path fill="none" stroke="#63b8ff" d="M154.99,-70.75C155.78,-63.8 156.9,-53.85 157.89,-45.13"/>
<polygon fill="#63b8ff" stroke="#63b8ff" points="161.38,-45.42 159.03,-35.09 154.42,-44.63 161.38,-45.42"/>
</a>
</g>
<g id="a_edge9&#45;headlabel"><a xlink:href="dir_000008_000037.html" target="_top" xlink:title="2">
<text text-anchor="middle" x="163.8" y="-46.81" font-family="Helvetica,sans-Serif" font-size="10.00" fill="#63b8ff">2</text>
</a>
</g>
</g>
<!-- dir_faba1e8ac90047e249cc0ce4819a22fa&#45;&gt;dir_f420875d55816fb78e81b706f36fb7ba -->
<g id="edge10" class="edge">
<title>dir_faba1e8ac90047e249cc0ce4819a22fa&#45;&gt;dir_f420875d55816fb78e81b706f36fb7ba</title>
<g id="a_edge10"><a xlink:href="dir_000008_000054.html" target="_top">
<path fill="none" stroke="#63b8ff" d="M167.34,-70.98C180.09,-62.84 199.55,-50.41 214.67,-40.76"/>
<polygon fill="#63b8ff" stroke="#63b8ff" points="216.88,-43.5 223.42,-35.17 213.11,-37.6 216.88,-43.5"/>
</a>
</g>
<g id="a_edge10&#45;headlabel"><a xlink:href="dir_000008_000054.html" target="_top" xlink:title="3">
<text text-anchor="middle" x="215.38" y="-45.33" font-family="Helvetica,sans-Serif" font-size="10.00" fill="#63b8ff">3</text>
</a>
</g>
</g>
</g>
</svg>
