<?xml version="1.0" encoding="UTF-8" standalone="no"?>
<!DOCTYPE svg PUBLIC "-//W3C//DTD SVG 1.1//EN"
 "http://www.w3.org/Graphics/SVG/1.1/DTD/svg11.dtd">
<!-- Generated by graphviz version 2.43.0 (0)
 -->
<!-- Title: include/helios/engine/game/components Pages: 1 -->
<!--zoomable 345 -->

<svg id="main" version="1.1" xmlns="http://www.w3.org/2000/svg" xmlns:xlink="http://www.w3.org/1999/xlink" xml:space="preserve" onload="init(evt)">

<style type="text/css"><![CDATA[
.node, .edge {opacity: 0.7;}
.node.selected, .edge.selected {opacity: 1;}
.edge:hover path { stroke: red; }
.edge:hover polygon { stroke: red; fill: red; }
]]></style>

<defs>
  <circle id="rim" cx="0" cy="0" r="7"/>
  <circle id="rim2" cx="0" cy="0" r="3.5"/>
  <g id="zoomPlus">
    <use xlink:href="#rim" fill="#404040"><set attributeName="fill" to="#808080" begin="zoomplus.mouseover" end="zoomplus.mouseout"/></use>
    <path d="M-4,0h8M0,-4v8" fill="none" stroke="white" stroke-width="1.5" pointer-events="none"/>
  </g>
  <g id="zoomMin">
    <use xlink:href="#rim" fill="#404040"><set attributeName="fill" to="#808080" begin="zoomminus.mouseover" end="zoomminus.mouseout"/></use>
    <path d="M-4,0h8" fill="none" stroke="white" stroke-width="1.5" pointer-events="none"/>
  </g>
  <g id="arrowUp" transform="translate(30 24)">
    <use xlink:href="#rim"/>
    <path pointer-events="none" fill="none" stroke="white" stroke-width="1.5" d="M0,-3.0v7 M-2.5,-0.5L0,-3.0L2.5,-0.5"/>
  </g>
  <g id="arrowRight" transform="rotate(90) translate(36 -43)">
    <use xlink:href="#rim"/>
    <path pointer-events="none" fill="none" stroke="white" stroke-width="1.5" d="M0,-3.0v7 M-2.5,-0.5L0,-3.0L2.5,-0.5"/>
  </g>
  <g id="arrowDown" transform="rotate(180) translate(-30 -48)">
    <use xlink:href="#rim"/>
    <path pointer-events="none" fill="none" stroke="white" stroke-width="1.5" d="M0,-3.0v7 M-2.5,-0.5L0,-3.0L2.5,-0.5"/>
  </g>
  <g id="arrowLeft" transform="rotate(270) translate(-36 17)">
    <use xlink:href="#rim"/>
    <path pointer-events="none" fill="none" stroke="white" stroke-width="1.5" d="M0,-3.0v7 M-2.5,-0.5L0,-3.0L2.5,-0.5"/>
  </g>
  <g id="resetDef">
    <use xlink:href="#rim2" fill="#404040"><set attributeName="fill" to="#808080" begin="reset.mouseover" end="reset.mouseout"/></use>
  </g>
</defs>
<script type="application/ecmascript">
var viewWidth = 580;
var viewHeight = 345;
var sectionId = 'dynsection-0';
</script>
<script type="application/ecmascript" xlink:href="svg.min.js"/>
<svg id="graph" class="graph">
<g id="viewport">
<title>include/helios/engine/game/components</title>
<g id="clust1" class="cluster">
<title>clusterdir_46c7b0b04924cca8aa10726746d57f30</title>
<g id="a_clust1"><a xlink:href="dir_46c7b0b04924cca8aa10726746d57f30.html" target="_top" xlink:title="game">
<polygon fill="#edf0f7" stroke="#7f7f7f" stroke-dasharray="5,2" points="8,-39 8,-329 362,-329 362,-39 8,-39"/>
<text text-anchor="middle" x="185" y="-317" font-family="Helvetica,sans-Serif" font-size="10.00">game</text>
</a>
</g>
</g>
<g id="clust2" class="cluster">
<title>clusterdir_f71deafbc833970927ad1dfabdb805be</title>
<g id="a_clust2"><a xlink:href="dir_f71deafbc833970927ad1dfabdb805be.html" target="_top">
<polygon fill="#edf0f7" stroke="#404040" stroke-width="2" points="16,-47 16,-302 198,-302 198,-47 16,-47"/>
</a>
</g>
</g>
<!-- dir_36ea2b7be3cb8c26515d956982029a89 -->
<g id="node1" class="node">
<title>dir_36ea2b7be3cb8c26515d956982029a89</title>
<g id="a_node1"><a xlink:href="dir_36ea2b7be3cb8c26515d956982029a89.html" target="_top" xlink:title="systems">
<polygon fill="#a2b4d6" stroke="red" points="354,-184 296,-184 296,-165 354,-165 354,-184"/>
<text text-anchor="middle" x="325" y="-172" font-family="Helvetica,sans-Serif" font-size="10.00">systems</text>
</a>
</g>
</g>
<!-- dir_e0c1a906bd0da41122364a897b83de07 -->
<g id="node2" class="node">
<title>dir_e0c1a906bd0da41122364a897b83de07</title>
<g id="a_node2"><a xlink:href="dir_e0c1a906bd0da41122364a897b83de07.html" target="_top" xlink:title="commands">
<polygon fill="#a2b4d6" stroke="#404040" points="277.5,-184 206.5,-184 206.5,-165 277.5,-165 277.5,-184"/>
<text text-anchor="middle" x="242" y="-172" font-family="Helvetica,sans-Serif" font-size="10.00">commands</text>
</a>
</g>
</g>
<!-- dir_f71deafbc833970927ad1dfabdb805be -->
<g id="node3" class="node">
<title>dir_f71deafbc833970927ad1dfabdb805be</title>
<text text-anchor="middle" x="95" y="-282" font-family="Helvetica,sans-Serif" font-size="10.00">components</text>
</g>
<!-- dir_69ac198a725b74a6542bd737425bc621 -->
<g id="node4" class="node">
<title>dir_69ac198a725b74a6542bd737425bc621</title>
<g id="a_node4"><a xlink:href="dir_69ac198a725b74a6542bd737425bc621.html" target="_top" xlink:title="gameplay">
<polygon fill="#a2b4d6" stroke="#404040" points="189.5,-239 124.5,-239 124.5,-220 189.5,-220 189.5,-239"/>
<text text-anchor="middle" x="157" y="-227" font-family="Helvetica,sans-Serif" font-size="10.00">gameplay</text>
</a>
</g>
</g>
<!-- dir_f71deafbc833970927ad1dfabdb805be&#45;&gt;dir_69ac198a725b74a6542bd737425bc621 -->
<g id="edge2" class="edge">
<title>dir_f71deafbc833970927ad1dfabdb805be&#45;&gt;dir_69ac198a725b74a6542bd737425bc621</title>
<g id="a_edge2"><a xlink:href="dir_000005_000017.html" target="_top">
<path fill="none" stroke="#63b8ff" d="M104.96,-274.98C114.13,-267.15 127.94,-255.34 139.03,-245.86"/>
<polygon fill="#63b8ff" stroke="#63b8ff" points="141.53,-248.33 146.86,-239.17 136.98,-243.01 141.53,-248.33"/>
</a>
</g>
<g id="a_edge2&#45;headlabel"><a xlink:href="dir_000005_000017.html" target="_top" xlink:title="2">
<text text-anchor="middle" x="140.64" y="-250.32" font-family="Helvetica,sans-Serif" font-size="10.00" fill="#63b8ff">2</text>
</a>
</g>
</g>
<!-- dir_d6084da4fc4b24f9403bfa9461419522 -->
<g id="node5" class="node">
<title>dir_d6084da4fc4b24f9403bfa9461419522</title>
<g id="a_node5"><a xlink:href="dir_d6084da4fc4b24f9403bfa9461419522.html" target="_top" xlink:title="input">
<polygon fill="#a2b4d6" stroke="#404040" points="65.5,-239 24.5,-239 24.5,-220 65.5,-220 65.5,-239"/>
<text text-anchor="middle" x="45" y="-227" font-family="Helvetica,sans-Serif" font-size="10.00">input</text>
</a>
</g>
</g>
<!-- dir_f71deafbc833970927ad1dfabdb805be&#45;&gt;dir_d6084da4fc4b24f9403bfa9461419522 -->
<g id="edge3" class="edge">
<title>dir_f71deafbc833970927ad1dfabdb805be&#45;&gt;dir_d6084da4fc4b24f9403bfa9461419522</title>
<g id="a_edge3"><a xlink:href="dir_000005_000024.html" target="_top">
<path fill="none" stroke="#63b8ff" d="M86.74,-274.75C79.54,-267.11 68.89,-255.82 60.15,-246.56"/>
<polygon fill="#63b8ff" stroke="#63b8ff" points="62.51,-243.96 53.1,-239.09 57.42,-248.76 62.51,-243.96"/>
</a>
</g>
<g id="a_edge3&#45;headlabel"><a xlink:href="dir_000005_000024.html" target="_top" xlink:title="1">
<text text-anchor="middle" x="67.04" y="-242.13" font-family="Helvetica,sans-Serif" font-size="10.00" fill="#63b8ff">1</text>
</a>
</g>
</g>
<!-- dir_df55b9b4d946c8e2a0754190098e7cc2 -->
<g id="node7" class="node">
<title>dir_df55b9b4d946c8e2a0754190098e7cc2</title>
<g id="a_node7"><a xlink:href="dir_df55b9b4d946c8e2a0754190098e7cc2.html" target="_top" xlink:title="physics">
<polygon fill="#a2b4d6" stroke="#404040" points="188.5,-184 135.5,-184 135.5,-165 188.5,-165 188.5,-184"/>
<text text-anchor="middle" x="162" y="-172" font-family="Helvetica,sans-Serif" font-size="10.00">physics</text>
</a>
</g>
</g>
<!-- dir_f71deafbc833970927ad1dfabdb805be&#45;&gt;dir_df55b9b4d946c8e2a0754190098e7cc2 -->
<g id="edge4" class="edge">
<title>dir_f71deafbc833970927ad1dfabdb805be&#45;&gt;dir_df55b9b4d946c8e2a0754190098e7cc2</title>
<g id="a_edge4"><a xlink:href="dir_000005_000033.html" target="_top">
<path fill="none" stroke="#63b8ff" d="M96.51,-274.71C99.02,-261.9 104.89,-237.7 116,-220 122.97,-208.9 133.27,-198.59 142.37,-190.69"/>
<polygon fill="#63b8ff" stroke="#63b8ff" points="144.78,-193.24 150.25,-184.16 140.31,-187.85 144.78,-193.24"/>
</a>
</g>
<g id="a_edge4&#45;headlabel"><a xlink:href="dir_000005_000033.html" target="_top" xlink:title="2">
<text text-anchor="middle" x="143.82" y="-195.22" font-family="Helvetica,sans-Serif" font-size="10.00" fill="#63b8ff">2</text>
</a>
</g>
</g>
<!-- dir_3b4f599e8ce0902467fe2dd47cf1b7f2 -->
<g id="node8" class="node">
<title>dir_3b4f599e8ce0902467fe2dd47cf1b7f2</title>
<g id="a_node8"><a xlink:href="dir_3b4f599e8ce0902467fe2dd47cf1b7f2.html" target="_top" xlink:title="scene">
<polygon fill="#a2b4d6" stroke="#404040" points="186.5,-129 141.5,-129 141.5,-110 186.5,-110 186.5,-129"/>
<text text-anchor="middle" x="164" y="-117" font-family="Helvetica,sans-Serif" font-size="10.00">scene</text>
</a>
</g>
</g>
<!-- dir_f71deafbc833970927ad1dfabdb805be&#45;&gt;dir_3b4f599e8ce0902467fe2dd47cf1b7f2 -->
<g id="edge1" class="edge">
<title>dir_f71deafbc833970927ad1dfabdb805be&#45;&gt;dir_3b4f599e8ce0902467fe2dd47cf1b7f2</title>
<g id="a_edge1"><a xlink:href="dir_000005_000038.html" target="_top">
<path fill="none" stroke="#63b8ff" d="M95.31,-274.72C95.94,-262.32 97.76,-239.07 103,-220 110.07,-194.28 113,-187.7 127,-165 133.18,-154.97 141.47,-144.79 148.63,-136.71"/>
<polygon fill="#63b8ff" stroke="#63b8ff" points="151.39,-138.87 155.55,-129.13 146.22,-134.15 151.39,-138.87"/>
</a>
</g>
<g id="a_edge1&#45;headlabel"><a xlink:href="dir_000005_000038.html" target="_top" xlink:title="2">
<text text-anchor="middle" x="151.06" y="-140.94" font-family="Helvetica,sans-Serif" font-size="10.00" fill="#63b8ff">2</text>
</a>
</g>
</g>
<!-- dir_69ac198a725b74a6542bd737425bc621&#45;&gt;dir_36ea2b7be3cb8c26515d956982029a89 -->
<g id="edge7" class="edge">
<title>dir_69ac198a725b74a6542bd737425bc621&#45;&gt;dir_36ea2b7be3cb8c26515d956982029a89</title>
<g id="a_edge7"><a xlink:href="dir_000017_000044.html" target="_top">
<path fill="none" stroke="#63b8ff" d="M183.99,-219.98C212.2,-211.09 256.64,-197.07 288.08,-187.15"/>
<polygon fill="#63b8ff" stroke="#63b8ff" points="289.31,-190.43 297.8,-184.08 287.21,-183.75 289.31,-190.43"/>
</a>
</g>
<g id="a_edge7&#45;headlabel"><a xlink:href="dir_000017_000044.html" target="_top" xlink:title="1">
<text text-anchor="middle" x="286.74" y="-191.72" font-family="Helvetica,sans-Serif" font-size="10.00" fill="#63b8ff">1</text>
</a>
</g>
</g>
<!-- dir_69ac198a725b74a6542bd737425bc621&#45;&gt;dir_df55b9b4d946c8e2a0754190098e7cc2 -->
<g id="edge11" class="edge">
<title>dir_69ac198a725b74a6542bd737425bc621&#45;&gt;dir_df55b9b4d946c8e2a0754190098e7cc2</title>
<g id="a_edge11"><a xlink:href="dir_000017_000033.html" target="_top">
<path fill="none" stroke="#63b8ff" d="M157.83,-219.75C158.48,-212.8 159.42,-202.85 160.24,-194.13"/>
<polygon fill="#63b8ff" stroke="#63b8ff" points="163.73,-194.37 161.19,-184.09 156.77,-193.72 163.73,-194.37"/>
</a>
</g>
<g id="a_edge11&#45;headlabel"><a xlink:href="dir_000017_000033.html" target="_top" xlink:title="1">
<text text-anchor="middle" x="166.22" y="-195.72" font-family="Helvetica,sans-Serif" font-size="10.00" fill="#63b8ff">1</text>
</a>
</g>
</g>
<!-- dir_0046d781185df00694c70533b055a138 -->
<g id="node9" class="node">
<title>dir_0046d781185df00694c70533b055a138</title>
<g id="a_node9"><a xlink:href="dir_0046d781185df00694c70533b055a138.html" target="_top" xlink:title="math">
<polygon fill="#edf0f7" stroke="red" stroke-dasharray="5,2" points="97,-19 55,-19 55,0 97,0 97,-19"/>
<text text-anchor="middle" x="76" y="-7" font-family="Helvetica,sans-Serif" font-size="10.00">math</text>
</a>
</g>
</g>
<!-- dir_69ac198a725b74a6542bd737425bc621&#45;&gt;dir_0046d781185df00694c70533b055a138 -->
<g id="edge5" class="edge">
<title>dir_69ac198a725b74a6542bd737425bc621&#45;&gt;dir_0046d781185df00694c70533b055a138</title>
<g id="a_edge5"><a xlink:href="dir_000017_000028.html" target="_top">
<path fill="none" stroke="#63b8ff" d="M150.49,-219.72C134.16,-197.06 91.8,-134.2 78,-74 74.64,-59.35 74.29,-42.3 74.7,-29.56"/>
<polygon fill="#63b8ff" stroke="#63b8ff" points="78.21,-29.43 75.22,-19.26 71.22,-29.07 78.21,-29.43"/>
</a>
</g>
<g id="a_edge5&#45;headlabel"><a xlink:href="dir_000017_000028.html" target="_top" xlink:title="4">
<text text-anchor="middle" x="80.86" y="-30.66" font-family="Helvetica,sans-Serif" font-size="10.00" fill="#63b8ff">4</text>
</a>
</g>
</g>
<!-- dir_9ba586a504c756f19720715161f17166 -->
<g id="node10" class="node">
<title>dir_9ba586a504c756f19720715161f17166</title>
<g id="a_node10"><a xlink:href="dir_9ba586a504c756f19720715161f17166.html" target="_top" xlink:title="rendering">
<polygon fill="#edf0f7" stroke="red" stroke-dasharray="5,2" points="521.5,-184 458.5,-184 458.5,-165 521.5,-165 521.5,-184"/>
<text text-anchor="middle" x="490" y="-172" font-family="Helvetica,sans-Serif" font-size="10.00">rendering</text>
</a>
</g>
</g>
<!-- dir_69ac198a725b74a6542bd737425bc621&#45;&gt;dir_9ba586a504c756f19720715161f17166 -->
<g id="edge9" class="edge">
<title>dir_69ac198a725b74a6542bd737425bc621&#45;&gt;dir_9ba586a504c756f19720715161f17166</title>
<g id="a_edge9"><a xlink:href="dir_000017_000037.html" target="_top">
<path fill="none" stroke="#63b8ff" d="M189.76,-223.73C243.11,-215.91 352.04,-199.62 444,-184 445.45,-183.75 446.93,-183.5 448.42,-183.24"/>
<polygon fill="#63b8ff" stroke="#63b8ff" points="449.12,-186.67 458.35,-181.47 447.89,-179.78 449.12,-186.67"/>
</a>
</g>
<g id="a_edge9&#45;headlabel"><a xlink:href="dir_000017_000037.html" target="_top" xlink:title="2">
<text text-anchor="middle" x="446.07" y="-187.6" font-family="Helvetica,sans-Serif" font-size="10.00" fill="#63b8ff">2</text>
</a>
</g>
</g>
<!-- dir_106756a8ee71bdde7f7b779a3a0a52e4 -->
<g id="node11" class="node">
<title>dir_106756a8ee71bdde7f7b779a3a0a52e4</title>
<g id="a_node11"><a xlink:href="dir_106756a8ee71bdde7f7b779a3a0a52e4.html" target="_top" xlink:title="ext">
<polygon fill="#edf0f7" stroke="red" stroke-dasharray="5,2" points="572,-184 540,-184 540,-165 572,-165 572,-184"/>
<text text-anchor="middle" x="556" y="-172" font-family="Helvetica,sans-Serif" font-size="10.00">ext</text>
</a>
</g>
</g>
<!-- dir_69ac198a725b74a6542bd737425bc621&#45;&gt;dir_106756a8ee71bdde7f7b779a3a0a52e4 -->
<g id="edge6" class="edge">
<title>dir_69ac198a725b74a6542bd737425bc621&#45;&gt;dir_106756a8ee71bdde7f7b779a3a0a52e4</title>
<g id="a_edge6"><a xlink:href="dir_000017_000014.html" target="_top">
<path fill="none" stroke="#63b8ff" d="M189.66,-226.92C253.53,-223.32 399.46,-212.71 529.97,-183.78"/>
<polygon fill="#63b8ff" stroke="#63b8ff" points="530.75,-187.19 539.73,-181.58 529.21,-180.37 530.75,-187.19"/>
</a>
</g>
<g id="a_edge6&#45;headlabel"><a xlink:href="dir_000017_000014.html" target="_top" xlink:title="3">
<text text-anchor="middle" x="527.87" y="-188.26" font-family="Helvetica,sans-Serif" font-size="10.00" fill="#63b8ff">3</text>
</a>
</g>
</g>
<!-- dir_b6e017bc8c299f04fc1162fc4677be61 -->
<g id="node12" class="node">
<title>dir_b6e017bc8c299f04fc1162fc4677be61</title>
<g id="a_node12"><a xlink:href="dir_b6e017bc8c299f04fc1162fc4677be61.html" target="_top" xlink:title="scene">
<polygon fill="#edf0f7" stroke="#7f7f7f" points="415.5,-74 370.5,-74 370.5,-55 415.5,-55 415.5,-74"/>
<text text-anchor="middle" x="393" y="-62" font-family="Helvetica,sans-Serif" font-size="10.00">scene</text>
</a>
</g>
</g>
<!-- dir_69ac198a725b74a6542bd737425bc621&#45;&gt;dir_b6e017bc8c299f04fc1162fc4677be61 -->
<g id="edge10" class="edge">
<title>dir_69ac198a725b74a6542bd737425bc621&#45;&gt;dir_b6e017bc8c299f04fc1162fc4677be61</title>
<g id="a_edge10"><a xlink:href="dir_000017_000040.html" target="_top">
<path fill="none" stroke="#63b8ff" d="M189.67,-225.82C245.45,-220.67 355.95,-207.71 386,-184 413.25,-162.5 417.63,-144.08 411,-110 409.21,-100.8 405.52,-91.09 401.94,-83.1"/>
<polygon fill="#63b8ff" stroke="#63b8ff" points="405.09,-81.57 397.62,-74.06 398.77,-84.59 405.09,-81.57"/>
</a>
</g>
<g id="a_edge10&#45;headlabel"><a xlink:href="dir_000017_000040.html" target="_top" xlink:title="1">
<text text-anchor="middle" x="409.2" y="-81.09" font-family="Helvetica,sans-Serif" font-size="10.00" fill="#63b8ff">1</text>
</a>
</g>
</g>
<!-- dir_7f0768799dd37ef2f2adcdfec91ab1e9 -->
<g id="node13" class="node">
<title>dir_7f0768799dd37ef2f2adcdfec91ab1e9</title>
<g id="a_node13"><a xlink:href="dir_7f0768799dd37ef2f2adcdfec91ab1e9.html" target="_top" xlink:title="util">
<polygon fill="#edf0f7" stroke="red" stroke-dasharray="5,2" points="402,-129 370,-129 370,-110 402,-110 402,-129"/>
<text text-anchor="middle" x="386" y="-117" font-family="Helvetica,sans-Serif" font-size="10.00">util</text>
</a>
</g>
</g>
<!-- dir_69ac198a725b74a6542bd737425bc621&#45;&gt;dir_7f0768799dd37ef2f2adcdfec91ab1e9 -->
<g id="edge8" class="edge">
<title>dir_69ac198a725b74a6542bd737425bc621&#45;&gt;dir_7f0768799dd37ef2f2adcdfec91ab1e9</title>
<g id="a_edge8"><a xlink:href="dir_000017_000051.html" target="_top">
<path fill="none" stroke="#63b8ff" d="M189.61,-225.54C241.71,-220.18 340.47,-207.21 366,-184 378.42,-172.71 383.18,-153.8 384.98,-139.55"/>
<polygon fill="#63b8ff" stroke="#63b8ff" points="388.49,-139.62 385.88,-129.35 381.52,-139 388.49,-139.62"/>
</a>
</g>
<g id="a_edge8&#45;headlabel"><a xlink:href="dir_000017_000051.html" target="_top" xlink:title="1">
<text text-anchor="middle" x="391" y="-140.95" font-family="Helvetica,sans-Serif" font-size="10.00" fill="#63b8ff">1</text>
</a>
</g>
</g>
<!-- dir_d6084da4fc4b24f9403bfa9461419522&#45;&gt;dir_e0c1a906bd0da41122364a897b83de07 -->
<g id="edge13" class="edge">
<title>dir_d6084da4fc4b24f9403bfa9461419522&#45;&gt;dir_e0c1a906bd0da41122364a897b83de07</title>
<g id="a_edge13"><a xlink:href="dir_000024_000004.html" target="_top">
<path fill="none" stroke="#63b8ff" d="M65.71,-222.93C97.56,-214.36 159.2,-197.77 200.49,-186.67"/>
<polygon fill="#63b8ff" stroke="#63b8ff" points="201.51,-190.02 210.26,-184.04 199.69,-183.26 201.51,-190.02"/>
</a>
</g>
<g id="a_edge13&#45;headlabel"><a xlink:href="dir_000024_000004.html" target="_top" xlink:title="3">
<text text-anchor="middle" x="198.78" y="-191.19" font-family="Helvetica,sans-Serif" font-size="10.00" fill="#63b8ff">3</text>
</a>
</g>
</g>
<!-- dir_d6084da4fc4b24f9403bfa9461419522&#45;&gt;dir_0046d781185df00694c70533b055a138 -->
<g id="edge12" class="edge">
<title>dir_d6084da4fc4b24f9403bfa9461419522&#45;&gt;dir_0046d781185df00694c70533b055a138</title>
<g id="a_edge12"><a xlink:href="dir_000024_000028.html" target="_top">
<path fill="none" stroke="#63b8ff" d="M39.42,-219.72C34.26,-211.03 26.95,-197.17 24,-184 9.91,-121.12 -8.84,-94.45 24,-39 28.89,-30.74 37.12,-24.71 45.61,-20.39"/>
<polygon fill="#63b8ff" stroke="#63b8ff" points="47.04,-23.59 54.77,-16.35 44.21,-17.18 47.04,-23.59"/>
</a>
</g>
<g id="a_edge12&#45;headlabel"><a xlink:href="dir_000024_000028.html" target="_top" xlink:title="2">
<text text-anchor="middle" x="44.89" y="-25.14" font-family="Helvetica,sans-Serif" font-size="10.00" fill="#63b8ff">2</text>
</a>
</g>
</g>
<!-- dir_0c067f1468e0d048c05884818744eafc -->
<g id="node6" class="node">
<title>dir_0c067f1468e0d048c05884818744eafc</title>
<g id="a_node6"><a xlink:href="dir_0c067f1468e0d048c05884818744eafc.html" target="_top" xlink:title="model">
<polygon fill="#a2b4d6" stroke="#404040" points="189.5,-74 142.5,-74 142.5,-55 189.5,-55 189.5,-74"/>
<text text-anchor="middle" x="166" y="-62" font-family="Helvetica,sans-Serif" font-size="10.00">model</text>
</a>
</g>
</g>
<!-- dir_0c067f1468e0d048c05884818744eafc&#45;&gt;dir_0046d781185df00694c70533b055a138 -->
<g id="edge14" class="edge">
<title>dir_0c067f1468e0d048c05884818744eafc&#45;&gt;dir_0046d781185df00694c70533b055a138</title>
<g id="a_edge14"><a xlink:href="dir_000030_000028.html" target="_top">
<path fill="none" stroke="#63b8ff" d="M153.13,-54.88C145.84,-50.07 136.5,-44.06 128,-39 119.52,-33.95 110.09,-28.68 101.62,-24.07"/>
<polygon fill="#63b8ff" stroke="#63b8ff" points="103.03,-20.85 92.56,-19.19 99.71,-27.01 103.03,-20.85"/>
</a>
</g>
<g id="a_edge14&#45;headlabel"><a xlink:href="dir_000030_000028.html" target="_top" xlink:title="1">
<text text-anchor="middle" x="107.54" y="-17.56" font-family="Helvetica,sans-Serif" font-size="10.00" fill="#63b8ff">1</text>
</a>
</g>
</g>
<!-- dir_6a0662f282a699b80270a7344921b324 -->
<g id="node14" class="node">
<title>dir_6a0662f282a699b80270a7344921b324</title>
<g id="a_node14"><a xlink:href="dir_6a0662f282a699b80270a7344921b324.html" target="_top" xlink:title="core">
<polygon fill="#edf0f7" stroke="#7f7f7f" points="237,-19 199,-19 199,0 237,0 237,-19"/>
<text text-anchor="middle" x="218" y="-7" font-family="Helvetica,sans-Serif" font-size="10.00">core</text>
</a>
</g>
</g>
<!-- dir_0c067f1468e0d048c05884818744eafc&#45;&gt;dir_6a0662f282a699b80270a7344921b324 -->
<g id="edge15" class="edge">
<title>dir_0c067f1468e0d048c05884818744eafc&#45;&gt;dir_6a0662f282a699b80270a7344921b324</title>
<g id="a_edge15"><a xlink:href="dir_000030_000009.html" target="_top">
<path fill="none" stroke="#63b8ff" d="M174.59,-54.75C182.16,-47.03 193.38,-35.6 202.51,-26.28"/>
<polygon fill="#63b8ff" stroke="#63b8ff" points="205.07,-28.68 209.57,-19.09 200.07,-23.78 205.07,-28.68"/>
</a>
</g>
<g id="a_edge15&#45;headlabel"><a xlink:href="dir_000030_000009.html" target="_top" xlink:title="1">
<text text-anchor="middle" x="204.58" y="-30.73" font-family="Helvetica,sans-Serif" font-size="10.00" fill="#63b8ff">1</text>
</a>
</g>
</g>
<!-- dir_df55b9b4d946c8e2a0754190098e7cc2&#45;&gt;dir_3b4f599e8ce0902467fe2dd47cf1b7f2 -->
<g id="edge17" class="edge">
<title>dir_df55b9b4d946c8e2a0754190098e7cc2&#45;&gt;dir_3b4f599e8ce0902467fe2dd47cf1b7f2</title>
<g id="a_edge17"><a xlink:href="dir_000033_000038.html" target="_top">
<path fill="none" stroke="#63b8ff" d="M162.33,-164.75C162.59,-157.8 162.97,-147.85 163.3,-139.13"/>
<polygon fill="#63b8ff" stroke="#63b8ff" points="166.8,-139.21 163.68,-129.09 159.8,-138.95 166.8,-139.21"/>
</a>
</g>
<g id="a_edge17&#45;headlabel"><a xlink:href="dir_000033_000038.html" target="_top" xlink:title="1">
<text text-anchor="middle" x="169.5" y="-140.41" font-family="Helvetica,sans-Serif" font-size="10.00" fill="#63b8ff">1</text>
</a>
</g>
</g>
<!-- dir_df55b9b4d946c8e2a0754190098e7cc2&#45;&gt;dir_0046d781185df00694c70533b055a138 -->
<g id="edge16" class="edge">
<title>dir_df55b9b4d946c8e2a0754190098e7cc2&#45;&gt;dir_0046d781185df00694c70533b055a138</title>
<g id="a_edge16"><a xlink:href="dir_000033_000028.html" target="_top">
<path fill="none" stroke="#63b8ff" d="M154.95,-164.99C141.54,-148.44 112.18,-110.34 95,-74 88.15,-59.52 83.13,-42.01 79.98,-29.05"/>
<polygon fill="#63b8ff" stroke="#63b8ff" points="83.33,-27.99 77.69,-19.02 76.5,-29.54 83.33,-27.99"/>
</a>
</g>
<g id="a_edge16&#45;headlabel"><a xlink:href="dir_000033_000028.html" target="_top" xlink:title="4">
<text text-anchor="middle" x="86.9" y="-28.36" font-family="Helvetica,sans-Serif" font-size="10.00" fill="#63b8ff">4</text>
</a>
</g>
</g>
<!-- dir_df55b9b4d946c8e2a0754190098e7cc2&#45;&gt;dir_b6e017bc8c299f04fc1162fc4677be61 -->
<g id="edge20" class="edge">
<title>dir_df55b9b4d946c8e2a0754190098e7cc2&#45;&gt;dir_b6e017bc8c299f04fc1162fc4677be61</title>
<g id="a_edge20"><a xlink:href="dir_000033_000040.html" target="_top">
<path fill="none" stroke="#63b8ff" d="M184.58,-164.85C206.6,-156.26 240.93,-142.46 270,-129 304.65,-112.95 343.68,-92.36 368.3,-79.05"/>
<polygon fill="#63b8ff" stroke="#63b8ff" points="370.18,-82.01 377.29,-74.16 366.84,-75.86 370.18,-82.01"/>
</a>
</g>
<g id="a_edge20&#45;headlabel"><a xlink:href="dir_000033_000040.html" target="_top" xlink:title="1">
<text text-anchor="middle" x="368.37" y="-83.72" font-family="Helvetica,sans-Serif" font-size="10.00" fill="#63b8ff">1</text>
</a>
</g>
</g>
<!-- dir_df55b9b4d946c8e2a0754190098e7cc2&#45;&gt;dir_7f0768799dd37ef2f2adcdfec91ab1e9 -->
<g id="edge19" class="edge">
<title>dir_df55b9b4d946c8e2a0754190098e7cc2&#45;&gt;dir_7f0768799dd37ef2f2adcdfec91ab1e9</title>
<g id="a_edge19"><a xlink:href="dir_000033_000051.html" target="_top">
<path fill="none" stroke="#63b8ff" d="M188.7,-166.1C190.15,-165.73 191.59,-165.35 193,-165 252.48,-150 322.78,-134.29 359.94,-126.15"/>
<polygon fill="#63b8ff" stroke="#63b8ff" points="360.91,-129.52 369.93,-123.97 359.42,-122.68 360.91,-129.52"/>
</a>
</g>
<g id="a_edge19&#45;headlabel"><a xlink:href="dir_000033_000051.html" target="_top" xlink:title="1">
<text text-anchor="middle" x="358" y="-130.56" font-family="Helvetica,sans-Serif" font-size="10.00" fill="#63b8ff">1</text>
</a>
</g>
</g>
<!-- dir_df55b9b4d946c8e2a0754190098e7cc2&#45;&gt;dir_6a0662f282a699b80270a7344921b324 -->
<g id="edge18" class="edge">
<title>dir_df55b9b4d946c8e2a0754190098e7cc2&#45;&gt;dir_6a0662f282a699b80270a7344921b324</title>
<g id="a_edge18"><a xlink:href="dir_000033_000009.html" target="_top">
<path fill="none" stroke="#63b8ff" d="M169.75,-164.78C177.16,-156.13 188.31,-142.3 196,-129 209.26,-106.06 213.79,-99.98 219,-74 221.96,-59.27 221.48,-42.23 220.39,-29.51"/>
<polygon fill="#63b8ff" stroke="#63b8ff" points="223.84,-28.81 219.3,-19.23 216.88,-29.55 223.84,-28.81"/>
</a>
</g>
<g id="a_edge18&#45;headlabel"><a xlink:href="dir_000033_000009.html" target="_top" xlink:title="5">
<text text-anchor="middle" x="227.04" y="-29.58" font-family="Helvetica,sans-Serif" font-size="10.00" fill="#63b8ff">5</text>
</a>
</g>
</g>
<!-- dir_3b4f599e8ce0902467fe2dd47cf1b7f2&#45;&gt;dir_0c067f1468e0d048c05884818744eafc -->
<g id="edge22" class="edge">
<title>dir_3b4f599e8ce0902467fe2dd47cf1b7f2&#45;&gt;dir_0c067f1468e0d048c05884818744eafc</title>
<g id="a_edge22"><a xlink:href="dir_000038_000030.html" target="_top">
<path fill="none" stroke="#63b8ff" d="M164.33,-109.75C164.59,-102.8 164.97,-92.85 165.3,-84.13"/>
<polygon fill="#63b8ff" stroke="#63b8ff" points="168.8,-84.21 165.68,-74.09 161.8,-83.95 168.8,-84.21"/>
</a>
</g>
<g id="a_edge22&#45;headlabel"><a xlink:href="dir_000038_000030.html" target="_top" xlink:title="1">
<text text-anchor="middle" x="171.5" y="-85.41" font-family="Helvetica,sans-Serif" font-size="10.00" fill="#63b8ff">1</text>
</a>
</g>
</g>
<!-- dir_3b4f599e8ce0902467fe2dd47cf1b7f2&#45;&gt;dir_0046d781185df00694c70533b055a138 -->
<g id="edge21" class="edge">
<title>dir_3b4f599e8ce0902467fe2dd47cf1b7f2&#45;&gt;dir_0046d781185df00694c70533b055a138</title>
<g id="a_edge21"><a xlink:href="dir_000038_000028.html" target="_top">
<path fill="none" stroke="#63b8ff" d="M156.8,-109.66C142.09,-91.61 108.41,-50.28 89.51,-27.08"/>
<polygon fill="#63b8ff" stroke="#63b8ff" points="92.09,-24.7 83.05,-19.16 86.66,-29.12 92.09,-24.7"/>
</a>
</g>
<g id="a_edge21&#45;headlabel"><a xlink:href="dir_000038_000028.html" target="_top" xlink:title="1">
<text text-anchor="middle" x="96.56" y="-23.19" font-family="Helvetica,sans-Serif" font-size="10.00" fill="#63b8ff">1</text>
</a>
</g>
</g>
<!-- dir_3b4f599e8ce0902467fe2dd47cf1b7f2&#45;&gt;dir_b6e017bc8c299f04fc1162fc4677be61 -->
<g id="edge24" class="edge">
<title>dir_3b4f599e8ce0902467fe2dd47cf1b7f2&#45;&gt;dir_b6e017bc8c299f04fc1162fc4677be61</title>
<g id="a_edge24"><a xlink:href="dir_000038_000040.html" target="_top">
<path fill="none" stroke="#63b8ff" d="M186.79,-113.22C227.6,-103.78 313.26,-83.95 360.32,-73.06"/>
<polygon fill="#63b8ff" stroke="#63b8ff" points="361.34,-76.42 370.3,-70.75 359.77,-69.6 361.34,-76.42"/>
</a>
</g>
<g id="a_edge24&#45;headlabel"><a xlink:href="dir_000038_000040.html" target="_top" xlink:title="1">
<text text-anchor="middle" x="358.48" y="-77.5" font-family="Helvetica,sans-Serif" font-size="10.00" fill="#63b8ff">1</text>
</a>
</g>
</g>
<!-- dir_3b4f599e8ce0902467fe2dd47cf1b7f2&#45;&gt;dir_6a0662f282a699b80270a7344921b324 -->
<g id="edge23" class="edge">
<title>dir_3b4f599e8ce0902467fe2dd47cf1b7f2&#45;&gt;dir_6a0662f282a699b80270a7344921b324</title>
<g id="a_edge23"><a xlink:href="dir_000038_000009.html" target="_top">
<path fill="none" stroke="#63b8ff" d="M172.32,-109.99C180.19,-101.51 191.85,-87.78 199,-74 206.38,-59.78 211.35,-42.25 214.35,-29.21"/>
<polygon fill="#63b8ff" stroke="#63b8ff" points="217.84,-29.61 216.49,-19.11 211,-28.16 217.84,-29.61"/>
</a>
</g>
<g id="a_edge23&#45;headlabel"><a xlink:href="dir_000038_000009.html" target="_top" xlink:title="1">
<text text-anchor="middle" x="219.88" y="-31.22" font-family="Helvetica,sans-Serif" font-size="10.00" fill="#63b8ff">1</text>
</a>
</g>
</g>
</g>
</svg>

<g id="navigator" transform="translate(0 0)" fill="#404254">
  <rect fill="#f2f5e9" fill-opacity="0.5" stroke="#606060" stroke-width=".5" x="0" y="0" width="60" height="60"/>
  <use id="zoomplus" xlink:href="#zoomPlus" x="17" y="9" onmousedown="handleZoom(evt,'in')"/>
  <use id="zoomminus" xlink:href="#zoomMin" x="42" y="9" onmousedown="handleZoom(evt,'out')"/>
  <use id="reset" xlink:href="#resetDef" x="30" y="36" onmousedown="handleReset()"/>
   <use id="arrowup" xlink:href="#arrowUp" x="0" y="0" onmousedown="handlePan(0,-1)"/>
  <use id="arrowright" xlink:href="#arrowRight" x="0" y="0" onmousedown="handlePan(1,0)"/>
  <use id="arrowdown" xlink:href="#arrowDown" x="0" y="0" onmousedown="handlePan(0,1)"/>
  <use id="arrowleft" xlink:href="#arrowLeft" x="0" y="0" onmousedown="handlePan(-1,0)"/>
</g>
<svg viewBox="0 0 15 15" width="100%" height="30px" preserveAspectRatio="xMaxYMin meet">
 <g id="arrow_out" transform="scale(0.3 0.3)">
  <a xlink:href="dir_f71deafbc833970927ad1dfabdb805be_dep_org.svg" target="_base">
   <rect id="button" ry="5" rx="5" y="6" x="6" height="38" width="38"
        fill="#f2f5e9" fill-opacity="0.5" stroke="#606060" stroke-width="1.0"/>
   <path id="arrow"
     d="M 11.500037,31.436501 C 11.940474,20.09759 22.043105,11.32322 32.158766,21.979434 L 37.068811,17.246167 C 37.068811,17.246167 37.088388,32 37.088388,32 L 22.160133,31.978069 C 22.160133,31.978069 26.997745,27.140456 26.997745,27.140456 C 18.528582,18.264221 13.291696,25.230495 11.500037,31.436501 z"
     style="fill:#404040;"/>
  </a>
 </g>
</svg>

<style type='text/css'>
<![CDATA[
[data-mouse-over-selected='false'] { opacity: 0.7; }
[data-mouse-over-selected='true']  { opacity: 1.0; }
]]>
</style>
<script type="application/ecmascript"><![CDATA[
document.addEventListener('DOMContentLoaded', (event) => {
  highlightEdges();
  highlightAdjacentNodes();
});
]]></script>
</svg>
