<?xml version="1.0" encoding="UTF-8" standalone="no"?>
<!DOCTYPE svg PUBLIC "-//W3C//DTD SVG 1.1//EN"
 "http://www.w3.org/Graphics/SVG/1.1/DTD/svg11.dtd">
<!-- Generated by graphviz version 2.43.0 (0)
 -->
<!-- Title: include/helios Pages: 1 -->
<svg width="362pt" height="424pt"
 viewBox="0.00 0.00 362.00 424.00" xmlns="http://www.w3.org/2000/svg" xmlns:xlink="http://www.w3.org/1999/xlink">

<svg id="main" version="1.1" xmlns="http://www.w3.org/2000/svg" xmlns:xlink="http://www.w3.org/1999/xlink" xml:space="preserve">

<style type="text/css"><![CDATA[
.node, .edge {opacity: 0.7;}
.node.selected, .edge.selected {opacity: 1;}
.edge:hover path { stroke: red; }
.edge:hover polygon { stroke: red; fill: red; }
]]></style>
<script type="application/ecmascript" xlink:href="svg.min.js"/>
<svg id="graph" class="graph">
<g id="graph0" class="graph" transform="scale(1 1) rotate(0) translate(4 420)">
<title>include/helios</title>
<g id="clust1" class="cluster">
<title>clusterdir_d44c64559bbebec7f509842c48db8b23</title>
<g id="a_clust1"><a xlink:href="dir_d44c64559bbebec7f509842c48db8b23.html" target="_top" xlink:title="include">
<polygon fill="#edf0f7" stroke="#404040" stroke-dasharray="5,2" points="8,-8 8,-408 346,-408 346,-8 8,-8"/>
<text text-anchor="middle" x="177" y="-396" font-family="Helvetica,sans-Serif" font-size="10.00">include</text>
</a>
</g>
</g>
<g id="clust2" class="cluster">
<title>clusterdir_08c09894bd9f0ab4b1e9fdc7a2628766</title>
<g id="a_clust2"><a xlink:href="dir_08c09894bd9f0ab4b1e9fdc7a2628766.html" target="_top">
<polygon fill="#edf0f7" stroke="#404040" stroke-width="2" points="16,-16 16,-381 338,-381 338,-16 16,-16"/>
</a>
</g>
</g>
<!-- dir_08c09894bd9f0ab4b1e9fdc7a2628766 -->
<g id="node1" class="node">
<title>dir_08c09894bd9f0ab4b1e9fdc7a2628766</title>
<text text-anchor="middle" x="307" y="-361" font-family="Helvetica,sans-Serif" font-size="10.00">helios</text>
</g>
<!-- dir_5426d89496cb30043662afccf5b53207 -->
<g id="node2" class="node">
<title>dir_5426d89496cb30043662afccf5b53207</title>
<g id="a_node2"><a xlink:href="dir_5426d89496cb30043662afccf5b53207.html" target="_top" xlink:title="app">
<polygon fill="#a2b4d6" stroke="#404040" points="130.5,-318 95.5,-318 95.5,-299 130.5,-299 130.5,-318"/>
<text text-anchor="middle" x="113" y="-306" font-family="Helvetica,sans-Serif" font-size="10.00">app</text>
</a>
</g>
</g>
<!-- dir_9b52b993eaa3e3f802dc9c71987b2802 -->
<g id="node5" class="node">
<title>dir_9b52b993eaa3e3f802dc9c71987b2802</title>
<g id="a_node5"><a xlink:href="dir_9b52b993eaa3e3f802dc9c71987b2802.html" target="_top" xlink:title="event">
<polygon fill="#a2b4d6" stroke="#404040" points="68,-153 24,-153 24,-134 68,-134 68,-153"/>
<text text-anchor="middle" x="46" y="-141" font-family="Helvetica,sans-Serif" font-size="10.00">event</text>
</a>
</g>
</g>
<!-- dir_5426d89496cb30043662afccf5b53207&#45;&gt;dir_9b52b993eaa3e3f802dc9c71987b2802 -->
<g id="edge3" class="edge">
<title>dir_5426d89496cb30043662afccf5b53207&#45;&gt;dir_9b52b993eaa3e3f802dc9c71987b2802</title>
<g id="a_edge3"><a xlink:href="dir_000001_000010.html" target="_top">
<path fill="none" stroke="#63b8ff" d="M101.33,-298.98C91.15,-290.89 76.81,-277.8 69,-263 51.94,-230.68 47.45,-187.41 46.32,-163.1"/>
<polygon fill="#63b8ff" stroke="#63b8ff" points="49.82,-162.98 46,-153.1 42.82,-163.2 49.82,-162.98"/>
</a>
</g>
<g id="a_edge3&#45;headlabel"><a xlink:href="dir_000001_000010.html" target="_top" xlink:title="3">
<text text-anchor="middle" x="52.77" y="-163.98" font-family="Helvetica,sans-Serif" font-size="10.00" fill="#63b8ff">3</text>
</a>
</g>
</g>
<!-- dir_58a7612d3773fb780b0e5d4a861b7b53 -->
<g id="node6" class="node">
<title>dir_58a7612d3773fb780b0e5d4a861b7b53</title>
<g id="a_node6"><a xlink:href="dir_58a7612d3773fb780b0e5d4a861b7b53.html" target="_top" xlink:title="input">
<polygon fill="#a2b4d6" stroke="#404040" points="173.5,-263 132.5,-263 132.5,-244 173.5,-244 173.5,-263"/>
<text text-anchor="middle" x="153" y="-251" font-family="Helvetica,sans-Serif" font-size="10.00">input</text>
</a>
</g>
</g>
<!-- dir_5426d89496cb30043662afccf5b53207&#45;&gt;dir_58a7612d3773fb780b0e5d4a861b7b53 -->
<g id="edge1" class="edge">
<title>dir_5426d89496cb30043662afccf5b53207&#45;&gt;dir_58a7612d3773fb780b0e5d4a861b7b53</title>
<g id="a_edge1"><a xlink:href="dir_000001_000020.html" target="_top">
<path fill="none" stroke="#63b8ff" d="M119.61,-298.75C125.26,-291.26 133.54,-280.28 140.45,-271.13"/>
<polygon fill="#63b8ff" stroke="#63b8ff" points="143.29,-273.18 146.52,-263.09 137.7,-268.96 143.29,-273.18"/>
</a>
</g>
<g id="a_edge1&#45;headlabel"><a xlink:href="dir_000001_000020.html" target="_top" xlink:title="1">
<text text-anchor="middle" x="143.39" y="-275.26" font-family="Helvetica,sans-Serif" font-size="10.00" fill="#63b8ff">1</text>
</a>
</g>
</g>
<!-- dir_9ba586a504c756f19720715161f17166 -->
<g id="node8" class="node">
<title>dir_9ba586a504c756f19720715161f17166</title>
<g id="a_node8"><a xlink:href="dir_9ba586a504c756f19720715161f17166.html" target="_top" xlink:title="rendering">
<polygon fill="#a2b4d6" stroke="#404040" points="229.5,-153 166.5,-153 166.5,-134 229.5,-134 229.5,-153"/>
<text text-anchor="middle" x="198" y="-141" font-family="Helvetica,sans-Serif" font-size="10.00">rendering</text>
</a>
</g>
</g>
<!-- dir_5426d89496cb30043662afccf5b53207&#45;&gt;dir_9ba586a504c756f19720715161f17166 -->
<g id="edge4" class="edge">
<title>dir_5426d89496cb30043662afccf5b53207&#45;&gt;dir_9ba586a504c756f19720715161f17166</title>
<g id="a_edge4"><a xlink:href="dir_000001_000028.html" target="_top">
<path fill="none" stroke="#63b8ff" d="M130.56,-301.38C147.01,-294.66 170.81,-282.21 183,-263 202.46,-232.31 202.31,-188.11 200.27,-163.27"/>
<polygon fill="#63b8ff" stroke="#63b8ff" points="203.73,-162.66 199.24,-153.06 196.77,-163.37 203.73,-162.66"/>
</a>
</g>
<g id="a_edge4&#45;headlabel"><a xlink:href="dir_000001_000028.html" target="_top" xlink:title="4">
<text text-anchor="middle" x="206.92" y="-163.45" font-family="Helvetica,sans-Serif" font-size="10.00" fill="#63b8ff">4</text>
</a>
</g>
</g>
<!-- dir_7f0768799dd37ef2f2adcdfec91ab1e9 -->
<g id="node11" class="node">
<title>dir_7f0768799dd37ef2f2adcdfec91ab1e9</title>
<g id="a_node11"><a xlink:href="dir_7f0768799dd37ef2f2adcdfec91ab1e9.html" target="_top" xlink:title="util">
<polygon fill="#a2b4d6" stroke="#404040" points="161,-43 129,-43 129,-24 161,-24 161,-43"/>
<text text-anchor="middle" x="145" y="-31" font-family="Helvetica,sans-Serif" font-size="10.00">util</text>
</a>
</g>
</g>
<!-- dir_5426d89496cb30043662afccf5b53207&#45;&gt;dir_7f0768799dd37ef2f2adcdfec91ab1e9 -->
<g id="edge2" class="edge">
<title>dir_5426d89496cb30043662afccf5b53207&#45;&gt;dir_7f0768799dd37ef2f2adcdfec91ab1e9</title>
<g id="a_edge2"><a xlink:href="dir_000001_000039.html" target="_top">
<path fill="none" stroke="#63b8ff" d="M108.55,-298.71C99.19,-279.23 78.76,-230.82 84,-189 90.27,-138.94 90.34,-124.56 112,-79 116.79,-68.92 124.02,-58.84 130.49,-50.82"/>
<polygon fill="#63b8ff" stroke="#63b8ff" points="133.29,-52.94 137.06,-43.04 127.94,-48.42 133.29,-52.94"/>
</a>
</g>
<g id="a_edge2&#45;headlabel"><a xlink:href="dir_000001_000039.html" target="_top" xlink:title="4">
<text text-anchor="middle" x="133.14" y="-55.01" font-family="Helvetica,sans-Serif" font-size="10.00" fill="#63b8ff">4</text>
</a>
</g>
</g>
<!-- dir_f420875d55816fb78e81b706f36fb7ba -->
<g id="node12" class="node">
<title>dir_f420875d55816fb78e81b706f36fb7ba</title>
<g id="a_node12"><a xlink:href="dir_f420875d55816fb78e81b706f36fb7ba.html" target="_top" xlink:title="window">
<polygon fill="#a2b4d6" stroke="#404040" points="147,-208 93,-208 93,-189 147,-189 147,-208"/>
<text text-anchor="middle" x="120" y="-196" font-family="Helvetica,sans-Serif" font-size="10.00">window</text>
</a>
</g>
</g>
<!-- dir_5426d89496cb30043662afccf5b53207&#45;&gt;dir_f420875d55816fb78e81b706f36fb7ba -->
<g id="edge5" class="edge">
<title>dir_5426d89496cb30043662afccf5b53207&#45;&gt;dir_f420875d55816fb78e81b706f36fb7ba</title>
<g id="a_edge5"><a xlink:href="dir_000001_000042.html" target="_top">
<path fill="none" stroke="#63b8ff" d="M113.57,-298.66C114.71,-281.17 117.26,-241.8 118.78,-218.27"/>
<polygon fill="#63b8ff" stroke="#63b8ff" points="122.28,-218.36 119.44,-208.16 115.3,-217.91 122.28,-218.36"/>
</a>
</g>
<g id="a_edge5&#45;headlabel"><a xlink:href="dir_000001_000042.html" target="_top" xlink:title="5">
<text text-anchor="middle" x="124.89" y="-219.63" font-family="Helvetica,sans-Serif" font-size="10.00" fill="#63b8ff">5</text>
</a>
</g>
</g>
<!-- dir_6a0662f282a699b80270a7344921b324 -->
<g id="node3" class="node">
<title>dir_6a0662f282a699b80270a7344921b324</title>
<g id="a_node3"><a xlink:href="dir_6a0662f282a699b80270a7344921b324.html" target="_top" xlink:title="core">
<polygon fill="#a2b4d6" stroke="#404040" points="270,-208 232,-208 232,-189 270,-189 270,-208"/>
<text text-anchor="middle" x="251" y="-196" font-family="Helvetica,sans-Serif" font-size="10.00">core</text>
</a>
</g>
</g>
<!-- dir_6a0662f282a699b80270a7344921b324&#45;&gt;dir_7f0768799dd37ef2f2adcdfec91ab1e9 -->
<g id="edge6" class="edge">
<title>dir_6a0662f282a699b80270a7344921b324&#45;&gt;dir_7f0768799dd37ef2f2adcdfec91ab1e9</title>
<g id="a_edge6"><a xlink:href="dir_000007_000039.html" target="_top">
<path fill="none" stroke="#63b8ff" d="M253.07,-188.82C257.63,-167.38 266.09,-111.33 239,-79 221.56,-58.19 192.17,-46.47 170.89,-40.35"/>
<polygon fill="#63b8ff" stroke="#63b8ff" points="171.74,-36.95 161.18,-37.77 169.95,-43.72 171.74,-36.95"/>
</a>
</g>
<g id="a_edge6&#45;headlabel"><a xlink:href="dir_000007_000039.html" target="_top" xlink:title="2">
<text text-anchor="middle" x="175.95" y="-32.63" font-family="Helvetica,sans-Serif" font-size="10.00" fill="#63b8ff">2</text>
</a>
</g>
</g>
<!-- dir_860c9de2f65c10e8e262a0e7b5bfee5e -->
<g id="node4" class="node">
<title>dir_860c9de2f65c10e8e262a0e7b5bfee5e</title>
<g id="a_node4"><a xlink:href="dir_860c9de2f65c10e8e262a0e7b5bfee5e.html" target="_top" xlink:title="engine">
<polygon fill="#a2b4d6" stroke="#404040" points="271,-318 221,-318 221,-299 271,-299 271,-318"/>
<text text-anchor="middle" x="246" y="-306" font-family="Helvetica,sans-Serif" font-size="10.00">engine</text>
</a>
</g>
</g>
<!-- dir_860c9de2f65c10e8e262a0e7b5bfee5e&#45;&gt;dir_6a0662f282a699b80270a7344921b324 -->
<g id="edge8" class="edge">
<title>dir_860c9de2f65c10e8e262a0e7b5bfee5e&#45;&gt;dir_6a0662f282a699b80270a7344921b324</title>
<g id="a_edge8"><a xlink:href="dir_000009_000007.html" target="_top">
<path fill="none" stroke="#63b8ff" d="M246.41,-298.66C247.22,-281.17 249.04,-241.8 250.13,-218.27"/>
<polygon fill="#63b8ff" stroke="#63b8ff" points="253.63,-218.31 250.6,-208.16 246.64,-217.99 253.63,-218.31"/>
</a>
</g>
<g id="a_edge8&#45;headlabel"><a xlink:href="dir_000009_000007.html" target="_top" xlink:title="1">
<text text-anchor="middle" x="256.3" y="-219.53" font-family="Helvetica,sans-Serif" font-size="10.00" fill="#63b8ff">1</text>
</a>
</g>
</g>
<!-- dir_860c9de2f65c10e8e262a0e7b5bfee5e&#45;&gt;dir_58a7612d3773fb780b0e5d4a861b7b53 -->
<g id="edge11" class="edge">
<title>dir_860c9de2f65c10e8e262a0e7b5bfee5e&#45;&gt;dir_58a7612d3773fb780b0e5d4a861b7b53</title>
<g id="a_edge11"><a xlink:href="dir_000009_000020.html" target="_top">
<path fill="none" stroke="#63b8ff" d="M231.06,-298.98C216.5,-290.69 194.13,-277.94 177.07,-268.22"/>
<polygon fill="#63b8ff" stroke="#63b8ff" points="178.64,-265.08 168.21,-263.17 175.17,-271.16 178.64,-265.08"/>
</a>
</g>
<g id="a_edge11&#45;headlabel"><a xlink:href="dir_000009_000020.html" target="_top" xlink:title="1">
<text text-anchor="middle" x="183.16" y="-261.89" font-family="Helvetica,sans-Serif" font-size="10.00" fill="#63b8ff">1</text>
</a>
</g>
</g>
<!-- dir_0046d781185df00694c70533b055a138 -->
<g id="node7" class="node">
<title>dir_0046d781185df00694c70533b055a138</title>
<g id="a_node7"><a xlink:href="dir_0046d781185df00694c70533b055a138.html" target="_top" xlink:title="math">
<polygon fill="#a2b4d6" stroke="#404040" points="270,-43 228,-43 228,-24 270,-24 270,-43"/>
<text text-anchor="middle" x="249" y="-31" font-family="Helvetica,sans-Serif" font-size="10.00">math</text>
</a>
</g>
</g>
<!-- dir_860c9de2f65c10e8e262a0e7b5bfee5e&#45;&gt;dir_0046d781185df00694c70533b055a138 -->
<g id="edge9" class="edge">
<title>dir_860c9de2f65c10e8e262a0e7b5bfee5e&#45;&gt;dir_0046d781185df00694c70533b055a138</title>
<g id="a_edge9"><a xlink:href="dir_000009_000023.html" target="_top">
<path fill="none" stroke="#63b8ff" d="M266.96,-298.95C282.28,-291.63 302.33,-279.63 314,-263 330.65,-239.26 329,-228.5 329,-199.5 329,-199.5 329,-199.5 329,-142.5 329,-113.5 330.4,-102.91 314,-79 304.97,-65.84 290.67,-55.43 277.78,-48"/>
<polygon fill="#63b8ff" stroke="#63b8ff" points="279.2,-44.79 268.74,-43.12 275.87,-50.95 279.2,-44.79"/>
</a>
</g>
<g id="a_edge9&#45;headlabel"><a xlink:href="dir_000009_000023.html" target="_top" xlink:title="1">
<text text-anchor="middle" x="283.71" y="-41.5" font-family="Helvetica,sans-Serif" font-size="10.00" fill="#63b8ff">1</text>
</a>
</g>
</g>
<!-- dir_b6e017bc8c299f04fc1162fc4677be61 -->
<g id="node9" class="node">
<title>dir_b6e017bc8c299f04fc1162fc4677be61</title>
<g id="a_node9"><a xlink:href="dir_b6e017bc8c299f04fc1162fc4677be61.html" target="_top" xlink:title="scene">
<polygon fill="#a2b4d6" stroke="#404040" points="229.5,-98 184.5,-98 184.5,-79 229.5,-79 229.5,-98"/>
<text text-anchor="middle" x="207" y="-86" font-family="Helvetica,sans-Serif" font-size="10.00">scene</text>
</a>
</g>
</g>
<!-- dir_860c9de2f65c10e8e262a0e7b5bfee5e&#45;&gt;dir_b6e017bc8c299f04fc1162fc4677be61 -->
<g id="edge10" class="edge">
<title>dir_860c9de2f65c10e8e262a0e7b5bfee5e&#45;&gt;dir_b6e017bc8c299f04fc1162fc4677be61</title>
<g id="a_edge10"><a xlink:href="dir_000009_000029.html" target="_top">
<path fill="none" stroke="#63b8ff" d="M243.29,-298.83C238.1,-281.69 226.9,-242.17 223,-208 222.04,-199.61 221.25,-197.26 223,-189 228.28,-164.1 246.81,-158.23 239,-134 235.66,-123.62 228.9,-113.62 222.45,-105.74"/>
<polygon fill="#63b8ff" stroke="#63b8ff" points="224.97,-103.31 215.75,-98.1 219.71,-107.92 224.97,-103.31"/>
</a>
</g>
<g id="a_edge10&#45;headlabel"><a xlink:href="dir_000009_000029.html" target="_top" xlink:title="2">
<text text-anchor="middle" x="229.48" y="-101.64" font-family="Helvetica,sans-Serif" font-size="10.00" fill="#63b8ff">2</text>
</a>
</g>
</g>
<!-- dir_860c9de2f65c10e8e262a0e7b5bfee5e&#45;&gt;dir_7f0768799dd37ef2f2adcdfec91ab1e9 -->
<g id="edge7" class="edge">
<title>dir_860c9de2f65c10e8e262a0e7b5bfee5e&#45;&gt;dir_7f0768799dd37ef2f2adcdfec91ab1e9</title>
<g id="a_edge7"><a xlink:href="dir_000009_000039.html" target="_top">
<path fill="none" stroke="#63b8ff" d="M255.3,-298.97C272.82,-281.92 309,-241.61 309,-199.5 309,-199.5 309,-199.5 309,-142.5 309,-77.19 217.16,-49.15 170.93,-39.17"/>
<polygon fill="#63b8ff" stroke="#63b8ff" points="171.52,-35.72 161.02,-37.16 170.13,-42.58 171.52,-35.72"/>
</a>
</g>
<g id="a_edge7&#45;headlabel"><a xlink:href="dir_000009_000039.html" target="_top" xlink:title="9">
<text text-anchor="middle" x="175.61" y="-31.15" font-family="Helvetica,sans-Serif" font-size="10.00" fill="#63b8ff">9</text>
</a>
</g>
</g>
<!-- dir_9b52b993eaa3e3f802dc9c71987b2802&#45;&gt;dir_7f0768799dd37ef2f2adcdfec91ab1e9 -->
<g id="edge12" class="edge">
<title>dir_9b52b993eaa3e3f802dc9c71987b2802&#45;&gt;dir_7f0768799dd37ef2f2adcdfec91ab1e9</title>
<g id="a_edge12"><a xlink:href="dir_000010_000039.html" target="_top">
<path fill="none" stroke="#63b8ff" d="M49.07,-133.9C54.03,-120.89 64.81,-95.94 80,-79 91.31,-66.38 106.91,-55.55 119.98,-47.74"/>
<polygon fill="#63b8ff" stroke="#63b8ff" points="122.02,-50.6 128.96,-42.6 118.55,-44.53 122.02,-50.6"/>
</a>
</g>
<g id="a_edge12&#45;headlabel"><a xlink:href="dir_000010_000039.html" target="_top" xlink:title="3">
<text text-anchor="middle" x="120.31" y="-52.35" font-family="Helvetica,sans-Serif" font-size="10.00" fill="#63b8ff">3</text>
</a>
</g>
</g>
<!-- dir_58a7612d3773fb780b0e5d4a861b7b53&#45;&gt;dir_0046d781185df00694c70533b055a138 -->
<g id="edge13" class="edge">
<title>dir_58a7612d3773fb780b0e5d4a861b7b53&#45;&gt;dir_0046d781185df00694c70533b055a138</title>
<g id="a_edge13"><a xlink:href="dir_000020_000023.html" target="_top">
<path fill="none" stroke="#63b8ff" d="M173.83,-252.05C202.97,-250.15 255.02,-241.9 279,-208 313.08,-159.83 278.71,-85.66 259.74,-52.08"/>
<polygon fill="#63b8ff" stroke="#63b8ff" points="262.51,-49.9 254.44,-43.04 256.47,-53.44 262.51,-49.9"/>
</a>
</g>
<g id="a_edge13&#45;headlabel"><a xlink:href="dir_000020_000023.html" target="_top" xlink:title="1">
<text text-anchor="middle" x="266.78" y="-49.06" font-family="Helvetica,sans-Serif" font-size="10.00" fill="#63b8ff">1</text>
</a>
</g>
</g>
<!-- dir_58a7612d3773fb780b0e5d4a861b7b53&#45;&gt;dir_7f0768799dd37ef2f2adcdfec91ab1e9 -->
<g id="edge14" class="edge">
<title>dir_58a7612d3773fb780b0e5d4a861b7b53&#45;&gt;dir_7f0768799dd37ef2f2adcdfec91ab1e9</title>
<g id="a_edge14"><a xlink:href="dir_000020_000039.html" target="_top">
<path fill="none" stroke="#63b8ff" d="M153.75,-243.98C154.49,-235.03 155.58,-220.54 156,-208 157.9,-151.58 151.15,-84.99 147.38,-53.21"/>
<polygon fill="#63b8ff" stroke="#63b8ff" points="150.84,-52.66 146.14,-43.16 143.89,-53.51 150.84,-52.66"/>
</a>
</g>
<g id="a_edge14&#45;headlabel"><a xlink:href="dir_000020_000039.html" target="_top" xlink:title="6">
<text text-anchor="middle" x="154.09" y="-53.38" font-family="Helvetica,sans-Serif" font-size="10.00" fill="#63b8ff">6</text>
</a>
</g>
</g>
<!-- dir_58a7612d3773fb780b0e5d4a861b7b53&#45;&gt;dir_f420875d55816fb78e81b706f36fb7ba -->
<g id="edge15" class="edge">
<title>dir_58a7612d3773fb780b0e5d4a861b7b53&#45;&gt;dir_f420875d55816fb78e81b706f36fb7ba</title>
<g id="a_edge15"><a xlink:href="dir_000020_000042.html" target="_top">
<path fill="none" stroke="#63b8ff" d="M147.55,-243.75C142.99,-236.42 136.33,-225.73 130.71,-216.7"/>
<polygon fill="#63b8ff" stroke="#63b8ff" points="133.6,-214.73 125.35,-208.09 127.66,-218.43 133.6,-214.73"/>
</a>
</g>
<g id="a_edge15&#45;headlabel"><a xlink:href="dir_000020_000042.html" target="_top" xlink:title="2">
<text text-anchor="middle" x="137.91" y="-213.78" font-family="Helvetica,sans-Serif" font-size="10.00" fill="#63b8ff">2</text>
</a>
</g>
</g>
<!-- dir_9ba586a504c756f19720715161f17166&#45;&gt;dir_0046d781185df00694c70533b055a138 -->
<g id="edge16" class="edge">
<title>dir_9ba586a504c756f19720715161f17166&#45;&gt;dir_0046d781185df00694c70533b055a138</title>
<g id="a_edge16"><a xlink:href="dir_000028_000023.html" target="_top">
<path fill="none" stroke="#63b8ff" d="M208.99,-133.87C218.55,-125.71 231.96,-112.56 239,-98 245.76,-84.01 248.13,-66.46 248.88,-53.35"/>
<polygon fill="#63b8ff" stroke="#63b8ff" points="252.38,-53.29 249.19,-43.18 245.38,-53.07 252.38,-53.29"/>
</a>
</g>
<g id="a_edge16&#45;headlabel"><a xlink:href="dir_000028_000023.html" target="_top" xlink:title="9">
<text text-anchor="middle" x="255.11" y="-54.47" font-family="Helvetica,sans-Serif" font-size="10.00" fill="#63b8ff">9</text>
</a>
</g>
</g>
<!-- dir_9ba586a504c756f19720715161f17166&#45;&gt;dir_b6e017bc8c299f04fc1162fc4677be61 -->
<g id="edge18" class="edge">
<title>dir_9ba586a504c756f19720715161f17166&#45;&gt;dir_b6e017bc8c299f04fc1162fc4677be61</title>
<g id="a_edge18"><a xlink:href="dir_000028_000029.html" target="_top">
<path fill="none" stroke="#63b8ff" d="M194.32,-133.75C194,-126.72 195.29,-116.62 197.43,-107.84"/>
<polygon fill="#63b8ff" stroke="#63b8ff" points="200.83,-108.68 200.41,-98.09 194.14,-106.63 200.83,-108.68"/>
</a>
</g>
<g id="a_edge18&#45;headlabel"><a xlink:href="dir_000028_000029.html" target="_top" xlink:title="3">
<text text-anchor="middle" x="202.5" y="-110.44" font-family="Helvetica,sans-Serif" font-size="10.00" fill="#63b8ff">3</text>
</a>
</g>
</g>
<!-- dir_9ba586a504c756f19720715161f17166&#45;&gt;dir_7f0768799dd37ef2f2adcdfec91ab1e9 -->
<g id="edge17" class="edge">
<title>dir_9ba586a504c756f19720715161f17166&#45;&gt;dir_7f0768799dd37ef2f2adcdfec91ab1e9</title>
<g id="a_edge17"><a xlink:href="dir_000028_000039.html" target="_top">
<path fill="none" stroke="#63b8ff" d="M193.77,-133.98C189.33,-125.02 182.16,-110.53 176,-98 168.4,-82.53 159.81,-64.93 153.6,-52.18"/>
<polygon fill="#63b8ff" stroke="#63b8ff" points="156.72,-50.59 149.2,-43.13 150.43,-53.66 156.72,-50.59"/>
</a>
</g>
<g id="a_edge17&#45;headlabel"><a xlink:href="dir_000028_000039.html" target="_top" xlink:title="16">
<text text-anchor="middle" x="160.85" y="-50.08" font-family="Helvetica,sans-Serif" font-size="10.00" fill="#63b8ff">16</text>
</a>
</g>
</g>
<!-- dir_b6e017bc8c299f04fc1162fc4677be61&#45;&gt;dir_0046d781185df00694c70533b055a138 -->
<g id="edge19" class="edge">
<title>dir_b6e017bc8c299f04fc1162fc4677be61&#45;&gt;dir_0046d781185df00694c70533b055a138</title>
<g id="a_edge19"><a xlink:href="dir_000029_000023.html" target="_top">
<path fill="none" stroke="#63b8ff" d="M213.94,-78.75C219.87,-71.26 228.57,-60.28 235.82,-51.13"/>
<polygon fill="#63b8ff" stroke="#63b8ff" points="238.73,-53.1 242.19,-43.09 233.24,-48.75 238.73,-53.1"/>
</a>
</g>
<g id="a_edge19&#45;headlabel"><a xlink:href="dir_000029_000023.html" target="_top" xlink:title="11">
<text text-anchor="middle" x="238.72" y="-55.18" font-family="Helvetica,sans-Serif" font-size="10.00" fill="#63b8ff">11</text>
</a>
</g>
</g>
<!-- dir_b6e017bc8c299f04fc1162fc4677be61&#45;&gt;dir_9ba586a504c756f19720715161f17166 -->
<g id="edge21" class="edge">
<title>dir_b6e017bc8c299f04fc1162fc4677be61&#45;&gt;dir_9ba586a504c756f19720715161f17166</title>
<g id="a_edge21"><a xlink:href="dir_000029_000028.html" target="_top">
<path fill="none" stroke="#63b8ff" d="M210.67,-98.09C211.01,-105.06 209.75,-115.15 207.62,-123.95"/>
<polygon fill="#63b8ff" stroke="#63b8ff" points="204.2,-123.16 204.65,-133.75 210.9,-125.19 204.2,-123.16"/>
</a>
</g>
<g id="a_edge21&#45;headlabel"><a xlink:href="dir_000029_000028.html" target="_top" xlink:title="4">
<text text-anchor="middle" x="202.53" y="-116.4" font-family="Helvetica,sans-Serif" font-size="10.00" fill="#63b8ff">4</text>
</a>
</g>
</g>
<!-- dir_b6e017bc8c299f04fc1162fc4677be61&#45;&gt;dir_7f0768799dd37ef2f2adcdfec91ab1e9 -->
<g id="edge20" class="edge">
<title>dir_b6e017bc8c299f04fc1162fc4677be61&#45;&gt;dir_7f0768799dd37ef2f2adcdfec91ab1e9</title>
<g id="a_edge20"><a xlink:href="dir_000029_000039.html" target="_top">
<path fill="none" stroke="#63b8ff" d="M197.04,-78.98C187.87,-71.15 174.06,-59.34 162.97,-49.86"/>
<polygon fill="#63b8ff" stroke="#63b8ff" points="165.02,-47.01 155.14,-43.17 160.47,-52.33 165.02,-47.01"/>
</a>
</g>
<g id="a_edge20&#45;headlabel"><a xlink:href="dir_000029_000039.html" target="_top" xlink:title="3">
<text text-anchor="middle" x="169.6" y="-44.69" font-family="Helvetica,sans-Serif" font-size="10.00" fill="#63b8ff">3</text>
</a>
</g>
</g>
<!-- dir_136b19899be4d20901a1979f99e5abb1 -->
<g id="node10" class="node">
<title>dir_136b19899be4d20901a1979f99e5abb1</title>
<g id="a_node10"><a xlink:href="dir_136b19899be4d20901a1979f99e5abb1.html" target="_top" xlink:title="tooling">
<polygon fill="#a2b4d6" stroke="#404040" points="266,-373 216,-373 216,-354 266,-354 266,-373"/>
<text text-anchor="middle" x="241" y="-361" font-family="Helvetica,sans-Serif" font-size="10.00">tooling</text>
</a>
</g>
</g>
<!-- dir_136b19899be4d20901a1979f99e5abb1&#45;&gt;dir_860c9de2f65c10e8e262a0e7b5bfee5e -->
<g id="edge22" class="edge">
<title>dir_136b19899be4d20901a1979f99e5abb1&#45;&gt;dir_860c9de2f65c10e8e262a0e7b5bfee5e</title>
<g id="a_edge22"><a xlink:href="dir_000034_000009.html" target="_top">
<path fill="none" stroke="#63b8ff" d="M241.83,-353.75C242.48,-346.8 243.42,-336.85 244.24,-328.13"/>
<polygon fill="#63b8ff" stroke="#63b8ff" points="247.73,-328.37 245.19,-318.09 240.77,-327.72 247.73,-328.37"/>
</a>
</g>
<g id="a_edge22&#45;headlabel"><a xlink:href="dir_000034_000009.html" target="_top" xlink:title="1">
<text text-anchor="middle" x="250.22" y="-329.72" font-family="Helvetica,sans-Serif" font-size="10.00" fill="#63b8ff">1</text>
</a>
</g>
</g>
<!-- dir_f420875d55816fb78e81b706f36fb7ba&#45;&gt;dir_9b52b993eaa3e3f802dc9c71987b2802 -->
<g id="edge25" class="edge">
<title>dir_f420875d55816fb78e81b706f36fb7ba&#45;&gt;dir_9b52b993eaa3e3f802dc9c71987b2802</title>
<g id="a_edge25"><a xlink:href="dir_000042_000010.html" target="_top">
<path fill="none" stroke="#63b8ff" d="M108.11,-188.98C96.85,-180.92 79.71,-168.65 66.29,-159.03"/>
<polygon fill="#63b8ff" stroke="#63b8ff" points="68.27,-156.15 58.11,-153.17 64.2,-161.84 68.27,-156.15"/>
</a>
</g>
<g id="a_edge25&#45;headlabel"><a xlink:href="dir_000042_000010.html" target="_top" xlink:title="1">
<text text-anchor="middle" x="72.85" y="-153.43" font-family="Helvetica,sans-Serif" font-size="10.00" fill="#63b8ff">1</text>
</a>
</g>
</g>
<!-- dir_f420875d55816fb78e81b706f36fb7ba&#45;&gt;dir_0046d781185df00694c70533b055a138 -->
<g id="edge23" class="edge">
<title>dir_f420875d55816fb78e81b706f36fb7ba&#45;&gt;dir_0046d781185df00694c70533b055a138</title>
<g id="a_edge23"><a xlink:href="dir_000042_000023.html" target="_top">
<path fill="none" stroke="#63b8ff" d="M122.24,-188.78C128,-167.73 145.11,-113.35 176,-79 187.97,-65.69 204.86,-55.05 219.38,-47.51"/>
<polygon fill="#63b8ff" stroke="#63b8ff" points="221.08,-50.57 228.5,-43.01 217.99,-44.29 221.08,-50.57"/>
</a>
</g>
<g id="a_edge23&#45;headlabel"><a xlink:href="dir_000042_000023.html" target="_top" xlink:title="2">
<text text-anchor="middle" x="219.11" y="-52.21" font-family="Helvetica,sans-Serif" font-size="10.00" fill="#63b8ff">2</text>
</a>
</g>
</g>
<!-- dir_f420875d55816fb78e81b706f36fb7ba&#45;&gt;dir_9ba586a504c756f19720715161f17166 -->
<g id="edge26" class="edge">
<title>dir_f420875d55816fb78e81b706f36fb7ba&#45;&gt;dir_9ba586a504c756f19720715161f17166</title>
<g id="a_edge26"><a xlink:href="dir_000042_000028.html" target="_top">
<path fill="none" stroke="#63b8ff" d="M132.53,-188.98C144.4,-180.92 162.46,-168.65 176.61,-159.03"/>
<polygon fill="#63b8ff" stroke="#63b8ff" points="178.94,-161.69 185.24,-153.17 175,-155.9 178.94,-161.69"/>
</a>
</g>
<g id="a_edge26&#45;headlabel"><a xlink:href="dir_000042_000028.html" target="_top" xlink:title="2">
<text text-anchor="middle" x="177.56" y="-163.55" font-family="Helvetica,sans-Serif" font-size="10.00" fill="#63b8ff">2</text>
</a>
</g>
</g>
<!-- dir_f420875d55816fb78e81b706f36fb7ba&#45;&gt;dir_7f0768799dd37ef2f2adcdfec91ab1e9 -->
<g id="edge24" class="edge">
<title>dir_f420875d55816fb78e81b706f36fb7ba&#45;&gt;dir_7f0768799dd37ef2f2adcdfec91ab1e9</title>
<g id="a_edge24"><a xlink:href="dir_000042_000039.html" target="_top">
<path fill="none" stroke="#63b8ff" d="M118.55,-188.98C115.5,-169.24 109.53,-119 120,-79 122.55,-69.26 127.75,-59.41 132.76,-51.46"/>
<polygon fill="#63b8ff" stroke="#63b8ff" points="135.69,-53.37 138.37,-43.12 129.89,-49.46 135.69,-53.37"/>
</a>
</g>
<g id="a_edge24&#45;headlabel"><a xlink:href="dir_000042_000039.html" target="_top" xlink:title="5">
<text text-anchor="middle" x="136.04" y="-55.43" font-family="Helvetica,sans-Serif" font-size="10.00" fill="#63b8ff">5</text>
</a>
</g>
</g>
</g>
</svg>
</svg>

<style type='text/css'>
<![CDATA[
[data-mouse-over-selected='false'] { opacity: 0.7; }
[data-mouse-over-selected='true']  { opacity: 1.0; }
]]>
</style>
<script type="application/ecmascript"><![CDATA[
document.addEventListener('DOMContentLoaded', (event) => {
  highlightEdges();
  highlightAdjacentNodes();
});
]]></script>
</svg>
