<?xml version="1.0" encoding="UTF-8" standalone="no"?>
<!DOCTYPE svg PUBLIC "-//W3C//DTD SVG 1.1//EN"
 "http://www.w3.org/Graphics/SVG/1.1/DTD/svg11.dtd">
<!-- Generated by graphviz version 2.43.0 (0)
 -->
<!-- Title: include/helios/rendering/asset Pages: 1 -->
<svg width="156pt" height="196pt"
 viewBox="0.00 0.00 156.00 196.00" xmlns="http://www.w3.org/2000/svg" xmlns:xlink="http://www.w3.org/1999/xlink">
<g id="graph0" class="graph" transform="scale(1 1) rotate(0) translate(4 192)">
<title>include/helios/rendering/asset</title>
<g id="clust1" class="cluster">
<title>clusterdir_9ba586a504c756f19720715161f17166</title>
<g id="a_clust1"><a xlink:href="dir_9ba586a504c756f19720715161f17166.html" target="_top" xlink:title="rendering">
<polygon fill="#edf0f7" stroke="#7f7f7f" stroke-dasharray="5,2" points="8,-8 8,-180 98,-180 98,-8 8,-8"/>
<text text-anchor="middle" x="53" y="-168" font-family="Helvetica,sans-Serif" font-size="10.00">rendering</text>
</a>
</g>
</g>
<g id="clust2" class="cluster">
<title>clusterdir_dd4be7afabb700f6b3872556ecdc0008</title>
<g id="a_clust2"><a xlink:href="dir_dd4be7afabb700f6b3872556ecdc0008.html" target="_top">
<polygon fill="#edf0f7" stroke="#404040" stroke-width="2" points="28,-63 28,-153 90,-153 90,-63 28,-63"/>
</a>
</g>
</g>
<!-- dir_93c18e872bfe9baf2066232ace9cc478 -->
<g id="node1" class="node">
<title>dir_93c18e872bfe9baf2066232ace9cc478</title>
<g id="a_node1"><a xlink:href="dir_93c18e872bfe9baf2066232ace9cc478.html" target="_top" xlink:title="model">
<polygon fill="#a2b4d6" stroke="red" points="72.5,-35 25.5,-35 25.5,-16 72.5,-16 72.5,-35"/>
<text text-anchor="middle" x="49" y="-23" font-family="Helvetica,sans-Serif" font-size="10.00">model</text>
</a>
</g>
</g>
<!-- dir_dd4be7afabb700f6b3872556ecdc0008 -->
<g id="node2" class="node">
<title>dir_dd4be7afabb700f6b3872556ecdc0008</title>
<text text-anchor="middle" x="58" y="-133" font-family="Helvetica,sans-Serif" font-size="10.00">asset</text>
</g>
<!-- dir_dd4be7afabb700f6b3872556ecdc0008&#45;&gt;dir_93c18e872bfe9baf2066232ace9cc478 -->
<g id="edge1" class="edge">
<title>dir_dd4be7afabb700f6b3872556ecdc0008&#45;&gt;dir_93c18e872bfe9baf2066232ace9cc478</title>
<g id="a_edge1"><a xlink:href="dir_000002_000025.html" target="_top">
<path fill="none" stroke="#63b8ff" d="M49.52,-125.85C41.95,-117.47 31.4,-104.01 27,-90 23.41,-78.55 23.79,-74.56 27,-63 28.9,-56.17 32.46,-49.34 36.17,-43.47"/>
<polygon fill="#63b8ff" stroke="#63b8ff" points="39.1,-45.38 41.91,-35.16 33.34,-41.4 39.1,-45.38"/>
</a>
</g>
<g id="a_edge1&#45;headlabel"><a xlink:href="dir_000002_000025.html" target="_top" xlink:title="8">
<text text-anchor="middle" x="39.39" y="-47.45" font-family="Helvetica,sans-Serif" font-size="10.00" fill="#63b8ff">8</text>
</a>
</g>
</g>
<!-- dir_cf69e57ff961726aa06cbb74a5cdb230 -->
<g id="node3" class="node">
<title>dir_cf69e57ff961726aa06cbb74a5cdb230</title>
<g id="a_node3"><a xlink:href="dir_cf69e57ff961726aa06cbb74a5cdb230.html" target="_top" xlink:title="shape">
<polygon fill="#a2b4d6" stroke="#404040" points="82,-90 36,-90 36,-71 82,-71 82,-90"/>
<text text-anchor="middle" x="59" y="-78" font-family="Helvetica,sans-Serif" font-size="10.00">shape</text>
</a>
</g>
</g>
<!-- dir_dd4be7afabb700f6b3872556ecdc0008&#45;&gt;dir_cf69e57ff961726aa06cbb74a5cdb230 -->
<g id="edge2" class="edge">
<title>dir_dd4be7afabb700f6b3872556ecdc0008&#45;&gt;dir_cf69e57ff961726aa06cbb74a5cdb230</title>
<g id="a_edge2"><a xlink:href="dir_000002_000032.html" target="_top">
<path fill="none" stroke="#63b8ff" d="M58.17,-125.75C58.3,-118.8 58.48,-108.85 58.65,-100.13"/>
<polygon fill="#63b8ff" stroke="#63b8ff" points="62.15,-100.15 58.84,-90.09 55.15,-100.02 62.15,-100.15"/>
</a>
</g>
<g id="a_edge2&#45;headlabel"><a xlink:href="dir_000002_000032.html" target="_top" xlink:title="2">
<text text-anchor="middle" x="64.92" y="-101.3" font-family="Helvetica,sans-Serif" font-size="10.00" fill="#63b8ff">2</text>
</a>
</g>
</g>
<!-- dir_cf69e57ff961726aa06cbb74a5cdb230&#45;&gt;dir_93c18e872bfe9baf2066232ace9cc478 -->
<g id="edge4" class="edge">
<title>dir_cf69e57ff961726aa06cbb74a5cdb230&#45;&gt;dir_93c18e872bfe9baf2066232ace9cc478</title>
<g id="a_edge4"><a xlink:href="dir_000032_000025.html" target="_top">
<path fill="none" stroke="#63b8ff" d="M57.35,-70.75C56.04,-63.8 54.16,-53.85 52.52,-45.13"/>
<polygon fill="#63b8ff" stroke="#63b8ff" points="55.91,-44.27 50.62,-35.09 49.04,-45.56 55.91,-44.27"/>
</a>
</g>
<g id="a_edge4&#45;headlabel"><a xlink:href="dir_000032_000025.html" target="_top" xlink:title="7">
<text text-anchor="middle" x="59.37" y="-44.77" font-family="Helvetica,sans-Serif" font-size="10.00" fill="#63b8ff">7</text>
</a>
</g>
</g>
<!-- dir_0046d781185df00694c70533b055a138 -->
<g id="node4" class="node">
<title>dir_0046d781185df00694c70533b055a138</title>
<g id="a_node4"><a xlink:href="dir_0046d781185df00694c70533b055a138.html" target="_top" xlink:title="math">
<polygon fill="#edf0f7" stroke="red" stroke-dasharray="5,2" points="148,-35 106,-35 106,-16 148,-16 148,-35"/>
<text text-anchor="middle" x="127" y="-23" font-family="Helvetica,sans-Serif" font-size="10.00">math</text>
</a>
</g>
</g>
<!-- dir_cf69e57ff961726aa06cbb74a5cdb230&#45;&gt;dir_0046d781185df00694c70533b055a138 -->
<g id="edge3" class="edge">
<title>dir_cf69e57ff961726aa06cbb74a5cdb230&#45;&gt;dir_0046d781185df00694c70533b055a138</title>
<g id="a_edge3"><a xlink:href="dir_000032_000023.html" target="_top">
<path fill="none" stroke="#63b8ff" d="M69.93,-70.98C80.08,-63.07 95.42,-51.11 107.65,-41.58"/>
<polygon fill="#63b8ff" stroke="#63b8ff" points="110.14,-44.08 115.88,-35.17 105.84,-38.56 110.14,-44.08"/>
</a>
</g>
<g id="a_edge3&#45;headlabel"><a xlink:href="dir_000032_000023.html" target="_top" xlink:title="2">
<text text-anchor="middle" x="109.05" y="-46.03" font-family="Helvetica,sans-Serif" font-size="10.00" fill="#63b8ff">2</text>
</a>
</g>
</g>
</g>
</svg>
