<?xml version="1.0" encoding="UTF-8" standalone="no"?>
<!DOCTYPE svg PUBLIC "-//W3C//DTD SVG 1.1//EN"
 "http://www.w3.org/Graphics/SVG/1.1/DTD/svg11.dtd">
<!-- Generated by graphviz version 2.43.0 (0)
 -->
<!-- Title: include/helios/app Pages: 1 -->
<svg width="274pt" height="196pt"
 viewBox="0.00 0.00 274.00 196.00" xmlns="http://www.w3.org/2000/svg" xmlns:xlink="http://www.w3.org/1999/xlink">
<g id="graph0" class="graph" transform="scale(1 1) rotate(0) translate(4 192)">
<title>include/helios/app</title>
<g id="clust1" class="cluster">
<title>clusterdir_08c09894bd9f0ab4b1e9fdc7a2628766</title>
<g id="a_clust1"><a xlink:href="dir_08c09894bd9f0ab4b1e9fdc7a2628766.html" target="_top" xlink:title="helios">
<polygon fill="#edf0f7" stroke="#7f7f7f" stroke-dasharray="5,2" points="8,-8 8,-180 258,-180 258,-8 8,-8"/>
<text text-anchor="middle" x="133" y="-168" font-family="Helvetica,sans-Serif" font-size="10.00">helios</text>
</a>
</g>
</g>
<g id="clust2" class="cluster">
<title>clusterdir_5426d89496cb30043662afccf5b53207</title>
<g id="a_clust2"><a xlink:href="dir_5426d89496cb30043662afccf5b53207.html" target="_top">
<polygon fill="#edf0f7" stroke="#404040" stroke-width="2" points="138,-63 138,-153 218,-153 218,-63 138,-63"/>
</a>
</g>
</g>
<!-- dir_58a7612d3773fb780b0e5d4a861b7b53 -->
<g id="node1" class="node">
<title>dir_58a7612d3773fb780b0e5d4a861b7b53</title>
<g id="a_node1"><a xlink:href="dir_58a7612d3773fb780b0e5d4a861b7b53.html" target="_top" xlink:title="input">
<polygon fill="#a2b4d6" stroke="red" points="77.5,-90 36.5,-90 36.5,-71 77.5,-71 77.5,-90"/>
<text text-anchor="middle" x="57" y="-78" font-family="Helvetica,sans-Serif" font-size="10.00">input</text>
</a>
</g>
</g>
<!-- dir_7f0768799dd37ef2f2adcdfec91ab1e9 -->
<g id="node2" class="node">
<title>dir_7f0768799dd37ef2f2adcdfec91ab1e9</title>
<g id="a_node2"><a xlink:href="dir_7f0768799dd37ef2f2adcdfec91ab1e9.html" target="_top" xlink:title="util">
<polygon fill="#a2b4d6" stroke="red" points="128,-90 96,-90 96,-71 128,-71 128,-90"/>
<text text-anchor="middle" x="112" y="-78" font-family="Helvetica,sans-Serif" font-size="10.00">util</text>
</a>
</g>
</g>
<!-- dir_9b52b993eaa3e3f802dc9c71987b2802 -->
<g id="node3" class="node">
<title>dir_9b52b993eaa3e3f802dc9c71987b2802</title>
<g id="a_node3"><a xlink:href="dir_9b52b993eaa3e3f802dc9c71987b2802.html" target="_top" xlink:title="event">
<polygon fill="#a2b4d6" stroke="#404040" points="78,-35 34,-35 34,-16 78,-16 78,-35"/>
<text text-anchor="middle" x="56" y="-23" font-family="Helvetica,sans-Serif" font-size="10.00">event</text>
</a>
</g>
</g>
<!-- dir_9ba586a504c756f19720715161f17166 -->
<g id="node4" class="node">
<title>dir_9ba586a504c756f19720715161f17166</title>
<g id="a_node4"><a xlink:href="dir_9ba586a504c756f19720715161f17166.html" target="_top" xlink:title="rendering">
<polygon fill="#a2b4d6" stroke="red" points="177.5,-35 114.5,-35 114.5,-16 177.5,-16 177.5,-35"/>
<text text-anchor="middle" x="146" y="-23" font-family="Helvetica,sans-Serif" font-size="10.00">rendering</text>
</a>
</g>
</g>
<!-- dir_f420875d55816fb78e81b706f36fb7ba -->
<g id="node5" class="node">
<title>dir_f420875d55816fb78e81b706f36fb7ba</title>
<g id="a_node5"><a xlink:href="dir_f420875d55816fb78e81b706f36fb7ba.html" target="_top" xlink:title="window">
<polygon fill="#a2b4d6" stroke="red" points="250,-35 196,-35 196,-16 250,-16 250,-35"/>
<text text-anchor="middle" x="223" y="-23" font-family="Helvetica,sans-Serif" font-size="10.00">window</text>
</a>
</g>
</g>
<!-- dir_5426d89496cb30043662afccf5b53207 -->
<g id="node6" class="node">
<title>dir_5426d89496cb30043662afccf5b53207</title>
<text text-anchor="middle" x="171" y="-133" font-family="Helvetica,sans-Serif" font-size="10.00">app</text>
</g>
<!-- dir_5426d89496cb30043662afccf5b53207&#45;&gt;dir_58a7612d3773fb780b0e5d4a861b7b53 -->
<g id="edge1" class="edge">
<title>dir_5426d89496cb30043662afccf5b53207&#45;&gt;dir_58a7612d3773fb780b0e5d4a861b7b53</title>
<g id="a_edge1"><a xlink:href="dir_000001_000016.html" target="_top">
<path fill="none" stroke="#63b8ff" d="M153.19,-126.22C134.83,-117.69 105.97,-104.27 84.65,-94.35"/>
<polygon fill="#63b8ff" stroke="#63b8ff" points="85.99,-91.12 75.44,-90.07 83.04,-97.46 85.99,-91.12"/>
</a>
</g>
<g id="a_edge1&#45;headlabel"><a xlink:href="dir_000001_000016.html" target="_top" xlink:title="1">
<text text-anchor="middle" x="90.44" y="-87.56" font-family="Helvetica,sans-Serif" font-size="10.00" fill="#63b8ff">1</text>
</a>
</g>
</g>
<!-- dir_5426d89496cb30043662afccf5b53207&#45;&gt;dir_7f0768799dd37ef2f2adcdfec91ab1e9 -->
<g id="edge2" class="edge">
<title>dir_5426d89496cb30043662afccf5b53207&#45;&gt;dir_7f0768799dd37ef2f2adcdfec91ab1e9</title>
<g id="a_edge2"><a xlink:href="dir_000001_000032.html" target="_top">
<path fill="none" stroke="#63b8ff" d="M161.52,-125.98C152.8,-118.15 139.66,-106.34 129.1,-96.86"/>
<polygon fill="#63b8ff" stroke="#63b8ff" points="131.43,-94.25 121.65,-90.17 126.75,-99.46 131.43,-94.25"/>
</a>
</g>
<g id="a_edge2&#45;headlabel"><a xlink:href="dir_000001_000032.html" target="_top" xlink:title="2">
<text text-anchor="middle" x="136" y="-92.04" font-family="Helvetica,sans-Serif" font-size="10.00" fill="#63b8ff">2</text>
</a>
</g>
</g>
<!-- dir_5426d89496cb30043662afccf5b53207&#45;&gt;dir_9b52b993eaa3e3f802dc9c71987b2802 -->
<g id="edge3" class="edge">
<title>dir_5426d89496cb30043662afccf5b53207&#45;&gt;dir_9b52b993eaa3e3f802dc9c71987b2802</title>
<g id="a_edge3"><a xlink:href="dir_000001_000009.html" target="_top">
<path fill="none" stroke="#63b8ff" d="M153.23,-135.08C121.87,-135.03 57.29,-129.78 28,-90 17.35,-75.54 28.6,-56.39 39.85,-42.91"/>
<polygon fill="#63b8ff" stroke="#63b8ff" points="42.57,-45.12 46.66,-35.35 37.37,-40.44 42.57,-45.12"/>
</a>
</g>
<g id="a_edge3&#45;headlabel"><a xlink:href="dir_000001_000009.html" target="_top" xlink:title="3">
<text text-anchor="middle" x="42.28" y="-47.19" font-family="Helvetica,sans-Serif" font-size="10.00" fill="#63b8ff">3</text>
</a>
</g>
</g>
<!-- dir_5426d89496cb30043662afccf5b53207&#45;&gt;dir_9ba586a504c756f19720715161f17166 -->
<g id="edge4" class="edge">
<title>dir_5426d89496cb30043662afccf5b53207&#45;&gt;dir_9ba586a504c756f19720715161f17166</title>
<g id="a_edge4"><a xlink:href="dir_000001_000024.html" target="_top">
<path fill="none" stroke="#63b8ff" d="M184.3,-125.83C203.01,-112.52 233.31,-86.15 219,-63 211.76,-51.28 199.49,-43.2 187.05,-37.68"/>
<polygon fill="#63b8ff" stroke="#63b8ff" points="188.18,-34.36 177.59,-33.95 185.61,-40.87 188.18,-34.36"/>
</a>
</g>
<g id="a_edge4&#45;headlabel"><a xlink:href="dir_000001_000024.html" target="_top" xlink:title="3">
<text text-anchor="middle" x="192.57" y="-30.54" font-family="Helvetica,sans-Serif" font-size="10.00" fill="#63b8ff">3</text>
</a>
</g>
</g>
<!-- dir_5426d89496cb30043662afccf5b53207&#45;&gt;dir_f420875d55816fb78e81b706f36fb7ba -->
<g id="edge5" class="edge">
<title>dir_5426d89496cb30043662afccf5b53207&#45;&gt;dir_f420875d55816fb78e81b706f36fb7ba</title>
<g id="a_edge5"><a xlink:href="dir_000001_000034.html" target="_top">
<path fill="none" stroke="#63b8ff" d="M187.89,-125.95C200.71,-118.43 217.38,-106.15 225,-90 231.62,-75.97 230.36,-58.19 227.88,-45.02"/>
<polygon fill="#63b8ff" stroke="#63b8ff" points="231.29,-44.2 225.66,-35.22 224.46,-45.75 231.29,-44.2"/>
</a>
</g>
<g id="a_edge5&#45;headlabel"><a xlink:href="dir_000001_000034.html" target="_top" xlink:title="4">
<text text-anchor="middle" x="234.85" y="-44.58" font-family="Helvetica,sans-Serif" font-size="10.00" fill="#63b8ff">4</text>
</a>
</g>
</g>
<!-- dir_faba1e8ac90047e249cc0ce4819a22fa -->
<g id="node7" class="node">
<title>dir_faba1e8ac90047e249cc0ce4819a22fa</title>
<g id="a_node7"><a xlink:href="dir_faba1e8ac90047e249cc0ce4819a22fa.html" target="_top" xlink:title="controller">
<polygon fill="#a2b4d6" stroke="#404040" points="209.5,-90 146.5,-90 146.5,-71 209.5,-71 209.5,-90"/>
<text text-anchor="middle" x="178" y="-78" font-family="Helvetica,sans-Serif" font-size="10.00">controller</text>
</a>
</g>
</g>
<!-- dir_5426d89496cb30043662afccf5b53207&#45;&gt;dir_faba1e8ac90047e249cc0ce4819a22fa -->
<g id="edge6" class="edge">
<title>dir_5426d89496cb30043662afccf5b53207&#45;&gt;dir_faba1e8ac90047e249cc0ce4819a22fa</title>
<g id="a_edge6"><a xlink:href="dir_000001_000006.html" target="_top">
<path fill="none" stroke="#63b8ff" d="M172.16,-125.75C173.07,-118.8 174.39,-108.85 175.54,-100.13"/>
<polygon fill="#63b8ff" stroke="#63b8ff" points="179.03,-100.46 176.87,-90.09 172.09,-99.54 179.03,-100.46"/>
</a>
</g>
<g id="a_edge6&#45;headlabel"><a xlink:href="dir_000001_000006.html" target="_top" xlink:title="2">
<text text-anchor="middle" x="181.37" y="-101.9" font-family="Helvetica,sans-Serif" font-size="10.00" fill="#63b8ff">2</text>
</a>
</g>
</g>
<!-- dir_faba1e8ac90047e249cc0ce4819a22fa&#45;&gt;dir_9b52b993eaa3e3f802dc9c71987b2802 -->
<g id="edge7" class="edge">
<title>dir_faba1e8ac90047e249cc0ce4819a22fa&#45;&gt;dir_9b52b993eaa3e3f802dc9c71987b2802</title>
<g id="a_edge7"><a xlink:href="dir_000006_000009.html" target="_top">
<path fill="none" stroke="#63b8ff" d="M160.26,-70.96C154.75,-68.35 148.65,-65.51 143,-63 124.36,-54.7 103.27,-45.84 86.51,-38.92"/>
<polygon fill="#63b8ff" stroke="#63b8ff" points="87.79,-35.66 77.21,-35.1 85.12,-42.14 87.79,-35.66"/>
</a>
</g>
<g id="a_edge7&#45;headlabel"><a xlink:href="dir_000006_000009.html" target="_top" xlink:title="2">
<text text-anchor="middle" x="92.19" y="-31.9" font-family="Helvetica,sans-Serif" font-size="10.00" fill="#63b8ff">2</text>
</a>
</g>
</g>
<!-- dir_faba1e8ac90047e249cc0ce4819a22fa&#45;&gt;dir_9ba586a504c756f19720715161f17166 -->
<g id="edge8" class="edge">
<title>dir_faba1e8ac90047e249cc0ce4819a22fa&#45;&gt;dir_9ba586a504c756f19720715161f17166</title>
<g id="a_edge8"><a xlink:href="dir_000006_000024.html" target="_top">
<path fill="none" stroke="#63b8ff" d="M172.72,-70.75C168.29,-63.42 161.84,-52.73 156.38,-43.7"/>
<polygon fill="#63b8ff" stroke="#63b8ff" points="159.35,-41.84 151.19,-35.09 153.36,-45.46 159.35,-41.84"/>
</a>
</g>
<g id="a_edge8&#45;headlabel"><a xlink:href="dir_000006_000024.html" target="_top" xlink:title="2">
<text text-anchor="middle" x="163.64" y="-40.95" font-family="Helvetica,sans-Serif" font-size="10.00" fill="#63b8ff">2</text>
</a>
</g>
</g>
<!-- dir_faba1e8ac90047e249cc0ce4819a22fa&#45;&gt;dir_f420875d55816fb78e81b706f36fb7ba -->
<g id="edge9" class="edge">
<title>dir_faba1e8ac90047e249cc0ce4819a22fa&#45;&gt;dir_f420875d55816fb78e81b706f36fb7ba</title>
<g id="a_edge9"><a xlink:href="dir_000006_000034.html" target="_top">
<path fill="none" stroke="#63b8ff" d="M185.43,-70.75C191.85,-63.18 201.31,-52.05 209.12,-42.84"/>
<polygon fill="#63b8ff" stroke="#63b8ff" points="211.9,-44.98 215.71,-35.09 206.57,-40.45 211.9,-44.98"/>
</a>
</g>
<g id="a_edge9&#45;headlabel"><a xlink:href="dir_000006_000034.html" target="_top" xlink:title="2">
<text text-anchor="middle" x="211.74" y="-47.06" font-family="Helvetica,sans-Serif" font-size="10.00" fill="#63b8ff">2</text>
</a>
</g>
</g>
</g>
</svg>
