<?xml version="1.0" encoding="UTF-8" standalone="no"?>
<!DOCTYPE svg PUBLIC "-//W3C//DTD SVG 1.1//EN"
 "http://www.w3.org/Graphics/SVG/1.1/DTD/svg11.dtd">
<!-- Generated by graphviz version 2.43.0 (0)
 -->
<!-- Title: include/helios/engine/game Pages: 1 -->
<svg width="363pt" height="290pt"
 viewBox="0.00 0.00 363.00 290.00" xmlns="http://www.w3.org/2000/svg" xmlns:xlink="http://www.w3.org/1999/xlink">

<svg id="main" version="1.1" xmlns="http://www.w3.org/2000/svg" xmlns:xlink="http://www.w3.org/1999/xlink" xml:space="preserve">

<style type="text/css"><![CDATA[
.node, .edge {opacity: 0.7;}
.node.selected, .edge.selected {opacity: 1;}
.edge:hover path { stroke: red; }
.edge:hover polygon { stroke: red; fill: red; }
]]></style>
<script type="application/ecmascript" xlink:href="svg.min.js"/>
<svg id="graph" class="graph">
<g id="graph0" class="graph" transform="scale(1 1) rotate(0) translate(4 286)">
<title>include/helios/engine/game</title>
<g id="clust1" class="cluster">
<title>clusterdir_860c9de2f65c10e8e262a0e7b5bfee5e</title>
<g id="a_clust1"><a xlink:href="dir_860c9de2f65c10e8e262a0e7b5bfee5e.html" target="_top" xlink:title="engine">
<polygon fill="#edf0f7" stroke="#7f7f7f" stroke-dasharray="5,2" points="114,-39 114,-274 258,-274 258,-39 114,-39"/>
<text text-anchor="middle" x="186" y="-262" font-family="Helvetica,sans-Serif" font-size="10.00">engine</text>
</a>
</g>
</g>
<g id="clust2" class="cluster">
<title>clusterdir_46c7b0b04924cca8aa10726746d57f30</title>
<g id="a_clust2"><a xlink:href="dir_46c7b0b04924cca8aa10726746d57f30.html" target="_top">
<polygon fill="#edf0f7" stroke="#404040" stroke-width="2" points="122,-47 122,-247 250,-247 250,-47 122,-47"/>
</a>
</g>
</g>
<!-- dir_46c7b0b04924cca8aa10726746d57f30 -->
<g id="node1" class="node">
<title>dir_46c7b0b04924cca8aa10726746d57f30</title>
<text text-anchor="middle" x="152" y="-227" font-family="Helvetica,sans-Serif" font-size="10.00">game</text>
</g>
<!-- dir_e0c1a906bd0da41122364a897b83de07 -->
<g id="node2" class="node">
<title>dir_e0c1a906bd0da41122364a897b83de07</title>
<g id="a_node2"><a xlink:href="dir_e0c1a906bd0da41122364a897b83de07.html" target="_top" xlink:title="commands">
<polygon fill="#a2b4d6" stroke="#404040" points="241.5,-184 170.5,-184 170.5,-165 241.5,-165 241.5,-184"/>
<text text-anchor="middle" x="206" y="-172" font-family="Helvetica,sans-Serif" font-size="10.00">commands</text>
</a>
</g>
</g>
<!-- dir_46c7b0b04924cca8aa10726746d57f30&#45;&gt;dir_e0c1a906bd0da41122364a897b83de07 -->
<g id="edge7" class="edge">
<title>dir_46c7b0b04924cca8aa10726746d57f30&#45;&gt;dir_e0c1a906bd0da41122364a897b83de07</title>
<g id="a_edge7"><a xlink:href="dir_000015_000004.html" target="_top">
<path fill="none" stroke="#63b8ff" d="M160.92,-219.75C168.78,-212.03 180.43,-200.6 189.92,-191.28"/>
<polygon fill="#63b8ff" stroke="#63b8ff" points="192.56,-193.59 197.25,-184.09 187.66,-188.6 192.56,-193.59"/>
</a>
</g>
<g id="a_edge7&#45;headlabel"><a xlink:href="dir_000015_000004.html" target="_top" xlink:title="4">
<text text-anchor="middle" x="191.99" y="-195.64" font-family="Helvetica,sans-Serif" font-size="10.00" fill="#63b8ff">4</text>
</a>
</g>
</g>
<!-- dir_f71deafbc833970927ad1dfabdb805be -->
<g id="node3" class="node">
<title>dir_f71deafbc833970927ad1dfabdb805be</title>
<g id="a_node3"><a xlink:href="dir_f71deafbc833970927ad1dfabdb805be.html" target="_top" xlink:title="components">
<polygon fill="#a2b4d6" stroke="#404040" points="227.5,-129 150.5,-129 150.5,-110 227.5,-110 227.5,-129"/>
<text text-anchor="middle" x="189" y="-117" font-family="Helvetica,sans-Serif" font-size="10.00">components</text>
</a>
</g>
</g>
<!-- dir_46c7b0b04924cca8aa10726746d57f30&#45;&gt;dir_f71deafbc833970927ad1dfabdb805be -->
<g id="edge8" class="edge">
<title>dir_46c7b0b04924cca8aa10726746d57f30&#45;&gt;dir_f71deafbc833970927ad1dfabdb805be</title>
<g id="a_edge8"><a xlink:href="dir_000015_000005.html" target="_top">
<path fill="none" stroke="#63b8ff" d="M152.32,-219.6C153.01,-207.07 155.17,-183.66 162,-165 165.53,-155.36 171.24,-145.52 176.5,-137.55"/>
<polygon fill="#63b8ff" stroke="#63b8ff" points="179.49,-139.39 182.32,-129.18 173.74,-135.39 179.49,-139.39"/>
</a>
</g>
<g id="a_edge8&#45;headlabel"><a xlink:href="dir_000015_000005.html" target="_top" xlink:title="38">
<text text-anchor="middle" x="179.77" y="-141.46" font-family="Helvetica,sans-Serif" font-size="10.00" fill="#63b8ff">38</text>
</a>
</g>
</g>
<!-- dir_36ea2b7be3cb8c26515d956982029a89 -->
<g id="node4" class="node">
<title>dir_36ea2b7be3cb8c26515d956982029a89</title>
<g id="a_node4"><a xlink:href="dir_36ea2b7be3cb8c26515d956982029a89.html" target="_top" xlink:title="systems">
<polygon fill="#a2b4d6" stroke="#404040" points="203,-74 145,-74 145,-55 203,-55 203,-74"/>
<text text-anchor="middle" x="174" y="-62" font-family="Helvetica,sans-Serif" font-size="10.00">systems</text>
</a>
</g>
</g>
<!-- dir_46c7b0b04924cca8aa10726746d57f30&#45;&gt;dir_36ea2b7be3cb8c26515d956982029a89 -->
<g id="edge2" class="edge">
<title>dir_46c7b0b04924cca8aa10726746d57f30&#45;&gt;dir_36ea2b7be3cb8c26515d956982029a89</title>
<g id="a_edge2"><a xlink:href="dir_000015_000044.html" target="_top">
<path fill="none" stroke="#63b8ff" d="M149.05,-219.91C142.7,-200.02 129.27,-149.5 142,-110 145.34,-99.62 152.1,-89.62 158.55,-81.74"/>
<polygon fill="#63b8ff" stroke="#63b8ff" points="161.29,-83.92 165.25,-74.1 156.03,-79.31 161.29,-83.92"/>
</a>
</g>
<g id="a_edge2&#45;headlabel"><a xlink:href="dir_000015_000044.html" target="_top" xlink:title="6">
<text text-anchor="middle" x="161.06" y="-86" font-family="Helvetica,sans-Serif" font-size="10.00" fill="#63b8ff">6</text>
</a>
</g>
</g>
<!-- dir_0046d781185df00694c70533b055a138 -->
<g id="node5" class="node">
<title>dir_0046d781185df00694c70533b055a138</title>
<g id="a_node5"><a xlink:href="dir_0046d781185df00694c70533b055a138.html" target="_top" xlink:title="math">
<polygon fill="#edf0f7" stroke="red" stroke-dasharray="5,2" points="355,-19 313,-19 313,0 355,0 355,-19"/>
<text text-anchor="middle" x="334" y="-7" font-family="Helvetica,sans-Serif" font-size="10.00">math</text>
</a>
</g>
</g>
<!-- dir_46c7b0b04924cca8aa10726746d57f30&#45;&gt;dir_0046d781185df00694c70533b055a138 -->
<g id="edge1" class="edge">
<title>dir_46c7b0b04924cca8aa10726746d57f30&#45;&gt;dir_0046d781185df00694c70533b055a138</title>
<g id="a_edge1"><a xlink:href="dir_000015_000028.html" target="_top">
<path fill="none" stroke="#63b8ff" d="M174.12,-225.75C200.35,-221.37 243.78,-210.41 270,-184 313.49,-140.19 327.75,-64.32 332.16,-29.26"/>
<polygon fill="#63b8ff" stroke="#63b8ff" points="335.67,-29.37 333.31,-19.04 328.71,-28.59 335.67,-29.37"/>
</a>
</g>
<g id="a_edge1&#45;headlabel"><a xlink:href="dir_000015_000028.html" target="_top" xlink:title="21">
<text text-anchor="middle" x="338.09" y="-30.76" font-family="Helvetica,sans-Serif" font-size="10.00" fill="#63b8ff">21</text>
</a>
</g>
</g>
<!-- dir_58a7612d3773fb780b0e5d4a861b7b53 -->
<g id="node6" class="node">
<title>dir_58a7612d3773fb780b0e5d4a861b7b53</title>
<g id="a_node6"><a xlink:href="dir_58a7612d3773fb780b0e5d4a861b7b53.html" target="_top" xlink:title="input">
<polygon fill="#edf0f7" stroke="red" stroke-dasharray="5,2" points="105.5,-184 64.5,-184 64.5,-165 105.5,-165 105.5,-184"/>
<text text-anchor="middle" x="85" y="-172" font-family="Helvetica,sans-Serif" font-size="10.00">input</text>
</a>
</g>
</g>
<!-- dir_46c7b0b04924cca8aa10726746d57f30&#45;&gt;dir_58a7612d3773fb780b0e5d4a861b7b53 -->
<g id="edge3" class="edge">
<title>dir_46c7b0b04924cca8aa10726746d57f30&#45;&gt;dir_58a7612d3773fb780b0e5d4a861b7b53</title>
<g id="a_edge3"><a xlink:href="dir_000015_000025.html" target="_top">
<path fill="none" stroke="#63b8ff" d="M141.24,-219.98C131.23,-212.07 116.11,-200.11 104.07,-190.58"/>
<polygon fill="#63b8ff" stroke="#63b8ff" points="105.97,-187.63 95.96,-184.17 101.63,-193.12 105.97,-187.63"/>
</a>
</g>
<g id="a_edge3&#45;headlabel"><a xlink:href="dir_000015_000025.html" target="_top" xlink:title="1">
<text text-anchor="middle" x="110.56" y="-185.13" font-family="Helvetica,sans-Serif" font-size="10.00" fill="#63b8ff">1</text>
</a>
</g>
</g>
<!-- dir_6a0662f282a699b80270a7344921b324 -->
<g id="node7" class="node">
<title>dir_6a0662f282a699b80270a7344921b324</title>
<g id="a_node7"><a xlink:href="dir_6a0662f282a699b80270a7344921b324.html" target="_top" xlink:title="core">
<polygon fill="#edf0f7" stroke="#7f7f7f" points="38,-19 0,-19 0,0 38,0 38,-19"/>
<text text-anchor="middle" x="19" y="-7" font-family="Helvetica,sans-Serif" font-size="10.00">core</text>
</a>
</g>
</g>
<!-- dir_46c7b0b04924cca8aa10726746d57f30&#45;&gt;dir_6a0662f282a699b80270a7344921b324 -->
<g id="edge4" class="edge">
<title>dir_46c7b0b04924cca8aa10726746d57f30&#45;&gt;dir_6a0662f282a699b80270a7344921b324</title>
<g id="a_edge4"><a xlink:href="dir_000015_000009.html" target="_top">
<path fill="none" stroke="#63b8ff" d="M129.68,-225.95C104.42,-221.81 64.06,-211.12 43,-184 7.31,-138.04 11.57,-63.84 15.99,-29.3"/>
<polygon fill="#63b8ff" stroke="#63b8ff" points="19.48,-29.61 17.44,-19.21 12.56,-28.61 19.48,-29.61"/>
</a>
</g>
<g id="a_edge4&#45;headlabel"><a xlink:href="dir_000015_000009.html" target="_top" xlink:title="10">
<text text-anchor="middle" x="21.78" y="-31.07" font-family="Helvetica,sans-Serif" font-size="10.00" fill="#63b8ff">10</text>
</a>
</g>
</g>
<!-- dir_7f0768799dd37ef2f2adcdfec91ab1e9 -->
<g id="node8" class="node">
<title>dir_7f0768799dd37ef2f2adcdfec91ab1e9</title>
<g id="a_node8"><a xlink:href="dir_7f0768799dd37ef2f2adcdfec91ab1e9.html" target="_top" xlink:title="util">
<polygon fill="#edf0f7" stroke="red" stroke-dasharray="5,2" points="285,-19 253,-19 253,0 285,0 285,-19"/>
<text text-anchor="middle" x="269" y="-7" font-family="Helvetica,sans-Serif" font-size="10.00">util</text>
</a>
</g>
</g>
<!-- dir_46c7b0b04924cca8aa10726746d57f30&#45;&gt;dir_7f0768799dd37ef2f2adcdfec91ab1e9 -->
<g id="edge5" class="edge">
<title>dir_46c7b0b04924cca8aa10726746d57f30&#45;&gt;dir_7f0768799dd37ef2f2adcdfec91ab1e9</title>
<g id="a_edge5"><a xlink:href="dir_000015_000051.html" target="_top">
<path fill="none" stroke="#63b8ff" d="M174.15,-225.09C197.36,-220.26 232.9,-209.05 251,-184 284.95,-137.03 278.2,-63.33 272.63,-29.11"/>
<polygon fill="#63b8ff" stroke="#63b8ff" points="276.05,-28.35 270.85,-19.12 269.16,-29.58 276.05,-28.35"/>
</a>
</g>
<g id="a_edge5&#45;headlabel"><a xlink:href="dir_000015_000051.html" target="_top" xlink:title="11">
<text text-anchor="middle" x="279.47" y="-28.89" font-family="Helvetica,sans-Serif" font-size="10.00" fill="#63b8ff">11</text>
</a>
</g>
</g>
<!-- dir_b6e017bc8c299f04fc1162fc4677be61 -->
<g id="node9" class="node">
<title>dir_b6e017bc8c299f04fc1162fc4677be61</title>
<g id="a_node9"><a xlink:href="dir_b6e017bc8c299f04fc1162fc4677be61.html" target="_top" xlink:title="scene">
<polygon fill="#edf0f7" stroke="#7f7f7f" points="101.5,-19 56.5,-19 56.5,0 101.5,0 101.5,-19"/>
<text text-anchor="middle" x="79" y="-7" font-family="Helvetica,sans-Serif" font-size="10.00">scene</text>
</a>
</g>
</g>
<!-- dir_46c7b0b04924cca8aa10726746d57f30&#45;&gt;dir_b6e017bc8c299f04fc1162fc4677be61 -->
<g id="edge6" class="edge">
<title>dir_46c7b0b04924cca8aa10726746d57f30&#45;&gt;dir_b6e017bc8c299f04fc1162fc4677be61</title>
<g id="a_edge6"><a xlink:href="dir_000015_000040.html" target="_top">
<path fill="none" stroke="#63b8ff" d="M129.78,-225.3C106.6,-220.65 71.41,-209.58 55,-184 23.46,-134.83 52.78,-61.74 69.37,-28.33"/>
<polygon fill="#63b8ff" stroke="#63b8ff" points="72.55,-29.8 74.03,-19.31 66.33,-26.58 72.55,-29.8"/>
</a>
</g>
<g id="a_edge6&#45;headlabel"><a xlink:href="dir_000015_000040.html" target="_top" xlink:title="7">
<text text-anchor="middle" x="73.43" y="-31.79" font-family="Helvetica,sans-Serif" font-size="10.00" fill="#63b8ff">7</text>
</a>
</g>
</g>
<!-- dir_e0c1a906bd0da41122364a897b83de07&#45;&gt;dir_f71deafbc833970927ad1dfabdb805be -->
<g id="edge10" class="edge">
<title>dir_e0c1a906bd0da41122364a897b83de07&#45;&gt;dir_f71deafbc833970927ad1dfabdb805be</title>
<g id="a_edge10"><a xlink:href="dir_000004_000005.html" target="_top">
<path fill="none" stroke="#63b8ff" d="M198.03,-164.75C194.31,-157.8 190.67,-147.85 188.5,-139.13"/>
<polygon fill="#63b8ff" stroke="#63b8ff" points="191.9,-138.28 186.62,-129.09 185.02,-139.56 191.9,-138.28"/>
</a>
</g>
<g id="a_edge10&#45;headlabel"><a xlink:href="dir_000004_000005.html" target="_top" xlink:title="4">
<text text-anchor="middle" x="195.35" y="-138.79" font-family="Helvetica,sans-Serif" font-size="10.00" fill="#63b8ff">4</text>
</a>
</g>
</g>
<!-- dir_e0c1a906bd0da41122364a897b83de07&#45;&gt;dir_0046d781185df00694c70533b055a138 -->
<g id="edge9" class="edge">
<title>dir_e0c1a906bd0da41122364a897b83de07&#45;&gt;dir_0046d781185df00694c70533b055a138</title>
<g id="a_edge9"><a xlink:href="dir_000004_000028.html" target="_top">
<path fill="none" stroke="#63b8ff" d="M213.43,-164.86C228.04,-147.78 261.44,-108.36 288,-74 299.93,-58.57 312.91,-40.53 322.03,-27.63"/>
<polygon fill="#63b8ff" stroke="#63b8ff" points="325.03,-29.45 327.92,-19.25 319.3,-25.42 325.03,-29.45"/>
</a>
</g>
<g id="a_edge9&#45;headlabel"><a xlink:href="dir_000004_000028.html" target="_top" xlink:title="3">
<text text-anchor="middle" x="325.28" y="-31.52" font-family="Helvetica,sans-Serif" font-size="10.00" fill="#63b8ff">3</text>
</a>
</g>
</g>
<!-- dir_f71deafbc833970927ad1dfabdb805be&#45;&gt;dir_e0c1a906bd0da41122364a897b83de07 -->
<g id="edge17" class="edge">
<title>dir_f71deafbc833970927ad1dfabdb805be&#45;&gt;dir_e0c1a906bd0da41122364a897b83de07</title>
<g id="a_edge17"><a xlink:href="dir_000005_000004.html" target="_top">
<path fill="none" stroke="#63b8ff" d="M196.89,-129.09C200.61,-135.99 204.25,-145.93 206.45,-154.66"/>
<polygon fill="#63b8ff" stroke="#63b8ff" points="203.06,-155.57 208.36,-164.75 209.94,-154.27 203.06,-155.57"/>
</a>
</g>
<g id="a_edge17&#45;headlabel"><a xlink:href="dir_000005_000004.html" target="_top" xlink:title="3">
<text text-anchor="middle" x="199.6" y="-150.07" font-family="Helvetica,sans-Serif" font-size="10.00" fill="#63b8ff">3</text>
</a>
</g>
</g>
<!-- dir_f71deafbc833970927ad1dfabdb805be&#45;&gt;dir_36ea2b7be3cb8c26515d956982029a89 -->
<g id="edge13" class="edge">
<title>dir_f71deafbc833970927ad1dfabdb805be&#45;&gt;dir_36ea2b7be3cb8c26515d956982029a89</title>
<g id="a_edge13"><a xlink:href="dir_000005_000044.html" target="_top">
<path fill="none" stroke="#63b8ff" d="M181.36,-109.75C177.9,-102.8 174.64,-92.85 172.8,-84.13"/>
<polygon fill="#63b8ff" stroke="#63b8ff" points="176.23,-83.46 171.3,-74.09 169.31,-84.5 176.23,-83.46"/>
</a>
</g>
<g id="a_edge13&#45;headlabel"><a xlink:href="dir_000005_000044.html" target="_top" xlink:title="1">
<text text-anchor="middle" x="179.57" y="-84.1" font-family="Helvetica,sans-Serif" font-size="10.00" fill="#63b8ff">1</text>
</a>
</g>
</g>
<!-- dir_f71deafbc833970927ad1dfabdb805be&#45;&gt;dir_0046d781185df00694c70533b055a138 -->
<g id="edge11" class="edge">
<title>dir_f71deafbc833970927ad1dfabdb805be&#45;&gt;dir_0046d781185df00694c70533b055a138</title>
<g id="a_edge11"><a xlink:href="dir_000005_000028.html" target="_top">
<path fill="none" stroke="#63b8ff" d="M201.67,-109.8C214.47,-100.94 234.78,-86.74 252,-74 273.86,-57.83 298.47,-38.63 314.97,-25.62"/>
<polygon fill="#63b8ff" stroke="#63b8ff" points="317.57,-28.03 323.24,-19.08 313.23,-22.54 317.57,-28.03"/>
</a>
</g>
<g id="a_edge11&#45;headlabel"><a xlink:href="dir_000005_000028.html" target="_top" xlink:title="12">
<text text-anchor="middle" x="316.51" y="-29.98" font-family="Helvetica,sans-Serif" font-size="10.00" fill="#63b8ff">12</text>
</a>
</g>
</g>
<!-- dir_f71deafbc833970927ad1dfabdb805be&#45;&gt;dir_6a0662f282a699b80270a7344921b324 -->
<g id="edge18" class="edge">
<title>dir_f71deafbc833970927ad1dfabdb805be&#45;&gt;dir_6a0662f282a699b80270a7344921b324</title>
<g id="a_edge18"><a xlink:href="dir_000005_000009.html" target="_top">
<path fill="none" stroke="#63b8ff" d="M166.63,-109.99C146.81,-102 117.46,-89.04 94,-74 72.15,-59.99 49.78,-40.2 35.23,-26.45"/>
<polygon fill="#63b8ff" stroke="#63b8ff" points="37.26,-23.55 27.63,-19.15 32.41,-28.6 37.26,-23.55"/>
</a>
</g>
<g id="a_edge18&#45;headlabel"><a xlink:href="dir_000005_000009.html" target="_top" xlink:title="7">
<text text-anchor="middle" x="41.82" y="-21.5" font-family="Helvetica,sans-Serif" font-size="10.00" fill="#63b8ff">7</text>
</a>
</g>
</g>
<!-- dir_f71deafbc833970927ad1dfabdb805be&#45;&gt;dir_7f0768799dd37ef2f2adcdfec91ab1e9 -->
<g id="edge16" class="edge">
<title>dir_f71deafbc833970927ad1dfabdb805be&#45;&gt;dir_7f0768799dd37ef2f2adcdfec91ab1e9</title>
<g id="a_edge16"><a xlink:href="dir_000005_000051.html" target="_top">
<path fill="none" stroke="#63b8ff" d="M196.9,-109.9C204.82,-101.12 217.22,-86.98 227,-74 238.28,-59.02 249.95,-41.15 258.12,-28.19"/>
<polygon fill="#63b8ff" stroke="#63b8ff" points="261.3,-29.7 263.62,-19.36 255.36,-26 261.3,-29.7"/>
</a>
</g>
<g id="a_edge16&#45;headlabel"><a xlink:href="dir_000005_000051.html" target="_top" xlink:title="2">
<text text-anchor="middle" x="261.81" y="-31.75" font-family="Helvetica,sans-Serif" font-size="10.00" fill="#63b8ff">2</text>
</a>
</g>
</g>
<!-- dir_f71deafbc833970927ad1dfabdb805be&#45;&gt;dir_b6e017bc8c299f04fc1162fc4677be61 -->
<g id="edge15" class="edge">
<title>dir_f71deafbc833970927ad1dfabdb805be&#45;&gt;dir_b6e017bc8c299f04fc1162fc4677be61</title>
<g id="a_edge15"><a xlink:href="dir_000005_000040.html" target="_top">
<path fill="none" stroke="#63b8ff" d="M174.25,-109.96C160.8,-101.76 140.84,-88.51 126,-74 111.8,-60.11 98.62,-41.61 89.86,-28.16"/>
<polygon fill="#63b8ff" stroke="#63b8ff" points="92.61,-25.97 84.3,-19.4 86.7,-29.72 92.61,-25.97"/>
</a>
</g>
<g id="a_edge15&#45;headlabel"><a xlink:href="dir_000005_000040.html" target="_top" xlink:title="3">
<text text-anchor="middle" x="96.93" y="-24.99" font-family="Helvetica,sans-Serif" font-size="10.00" fill="#63b8ff">3</text>
</a>
</g>
</g>
<!-- dir_9ba586a504c756f19720715161f17166 -->
<g id="node10" class="node">
<title>dir_9ba586a504c756f19720715161f17166</title>
<g id="a_node10"><a xlink:href="dir_9ba586a504c756f19720715161f17166.html" target="_top" xlink:title="rendering">
<polygon fill="#edf0f7" stroke="red" stroke-dasharray="5,2" points="234.5,-19 171.5,-19 171.5,0 234.5,0 234.5,-19"/>
<text text-anchor="middle" x="203" y="-7" font-family="Helvetica,sans-Serif" font-size="10.00">rendering</text>
</a>
</g>
</g>
<!-- dir_f71deafbc833970927ad1dfabdb805be&#45;&gt;dir_9ba586a504c756f19720715161f17166 -->
<g id="edge12" class="edge">
<title>dir_f71deafbc833970927ad1dfabdb805be&#45;&gt;dir_9ba586a504c756f19720715161f17166</title>
<g id="a_edge12"><a xlink:href="dir_000005_000037.html" target="_top">
<path fill="none" stroke="#63b8ff" d="M195.1,-109.8C200.75,-101.17 208.75,-87.35 212,-74 215.68,-58.88 214.37,-54.37 212,-39 211.49,-35.72 210.68,-32.3 209.74,-29.02"/>
<polygon fill="#63b8ff" stroke="#63b8ff" points="213,-27.72 206.55,-19.32 206.35,-29.91 213,-27.72"/>
</a>
</g>
<g id="a_edge12&#45;headlabel"><a xlink:href="dir_000005_000037.html" target="_top" xlink:title="2">
<text text-anchor="middle" x="216.82" y="-27.75" font-family="Helvetica,sans-Serif" font-size="10.00" fill="#63b8ff">2</text>
</a>
</g>
</g>
<!-- dir_106756a8ee71bdde7f7b779a3a0a52e4 -->
<g id="node11" class="node">
<title>dir_106756a8ee71bdde7f7b779a3a0a52e4</title>
<g id="a_node11"><a xlink:href="dir_106756a8ee71bdde7f7b779a3a0a52e4.html" target="_top" xlink:title="ext">
<polygon fill="#edf0f7" stroke="red" stroke-dasharray="5,2" points="153,-19 121,-19 121,0 153,0 153,-19"/>
<text text-anchor="middle" x="137" y="-7" font-family="Helvetica,sans-Serif" font-size="10.00">ext</text>
</a>
</g>
</g>
<!-- dir_f71deafbc833970927ad1dfabdb805be&#45;&gt;dir_106756a8ee71bdde7f7b779a3a0a52e4 -->
<g id="edge14" class="edge">
<title>dir_f71deafbc833970927ad1dfabdb805be&#45;&gt;dir_106756a8ee71bdde7f7b779a3a0a52e4</title>
<g id="a_edge14"><a xlink:href="dir_000005_000014.html" target="_top">
<path fill="none" stroke="#63b8ff" d="M172.42,-109.87C159.83,-102.3 143.46,-90.01 136,-74 129.52,-60.09 130.38,-42.53 132.52,-29.4"/>
<polygon fill="#63b8ff" stroke="#63b8ff" points="136.03,-29.71 134.57,-19.21 129.16,-28.32 136.03,-29.71"/>
</a>
</g>
<g id="a_edge14&#45;headlabel"><a xlink:href="dir_000005_000014.html" target="_top" xlink:title="3">
<text text-anchor="middle" x="138.1" y="-31.29" font-family="Helvetica,sans-Serif" font-size="10.00" fill="#63b8ff">3</text>
</a>
</g>
</g>
<!-- dir_36ea2b7be3cb8c26515d956982029a89&#45;&gt;dir_f71deafbc833970927ad1dfabdb805be -->
<g id="edge25" class="edge">
<title>dir_36ea2b7be3cb8c26515d956982029a89&#45;&gt;dir_f71deafbc833970927ad1dfabdb805be</title>
<g id="a_edge25"><a xlink:href="dir_000044_000005.html" target="_top">
<path fill="none" stroke="#63b8ff" d="M181.56,-74.09C185.02,-80.99 188.29,-90.93 190.16,-99.66"/>
<polygon fill="#63b8ff" stroke="#63b8ff" points="186.73,-100.39 191.69,-109.75 193.65,-99.34 186.73,-100.39"/>
</a>
</g>
<g id="a_edge25&#45;headlabel"><a xlink:href="dir_000044_000005.html" target="_top" xlink:title="25">
<text text-anchor="middle" x="183.38" y="-94.76" font-family="Helvetica,sans-Serif" font-size="10.00" fill="#63b8ff">25</text>
</a>
</g>
</g>
<!-- dir_36ea2b7be3cb8c26515d956982029a89&#45;&gt;dir_0046d781185df00694c70533b055a138 -->
<g id="edge19" class="edge">
<title>dir_36ea2b7be3cb8c26515d956982029a89&#45;&gt;dir_0046d781185df00694c70533b055a138</title>
<g id="a_edge19"><a xlink:href="dir_000044_000028.html" target="_top">
<path fill="none" stroke="#63b8ff" d="M199.71,-54.98C227.96,-45.63 273.32,-30.6 303.39,-20.64"/>
<polygon fill="#63b8ff" stroke="#63b8ff" points="304.56,-23.94 312.95,-17.47 302.36,-17.29 304.56,-23.94"/>
</a>
</g>
<g id="a_edge19&#45;headlabel"><a xlink:href="dir_000044_000028.html" target="_top" xlink:title="5">
<text text-anchor="middle" x="302.04" y="-25.26" font-family="Helvetica,sans-Serif" font-size="10.00" fill="#63b8ff">5</text>
</a>
</g>
</g>
<!-- dir_36ea2b7be3cb8c26515d956982029a89&#45;&gt;dir_6a0662f282a699b80270a7344921b324 -->
<g id="edge21" class="edge">
<title>dir_36ea2b7be3cb8c26515d956982029a89&#45;&gt;dir_6a0662f282a699b80270a7344921b324</title>
<g id="a_edge21"><a xlink:href="dir_000044_000009.html" target="_top">
<path fill="none" stroke="#63b8ff" d="M149.1,-54.98C121.54,-45.56 77.18,-30.39 48.06,-20.44"/>
<polygon fill="#63b8ff" stroke="#63b8ff" points="49.04,-17.07 38.44,-17.15 46.77,-23.7 49.04,-17.07"/>
</a>
</g>
<g id="a_edge21&#45;headlabel"><a xlink:href="dir_000044_000009.html" target="_top" xlink:title="2">
<text text-anchor="middle" x="53.36" y="-13.05" font-family="Helvetica,sans-Serif" font-size="10.00" fill="#63b8ff">2</text>
</a>
</g>
</g>
<!-- dir_36ea2b7be3cb8c26515d956982029a89&#45;&gt;dir_7f0768799dd37ef2f2adcdfec91ab1e9 -->
<g id="edge22" class="edge">
<title>dir_36ea2b7be3cb8c26515d956982029a89&#45;&gt;dir_7f0768799dd37ef2f2adcdfec91ab1e9</title>
<g id="a_edge22"><a xlink:href="dir_000044_000051.html" target="_top">
<path fill="none" stroke="#63b8ff" d="M189.26,-54.98C204.13,-46.69 226.98,-33.94 244.42,-24.22"/>
<polygon fill="#63b8ff" stroke="#63b8ff" points="246.43,-27.1 253.46,-19.17 243.02,-20.99 246.43,-27.1"/>
</a>
</g>
<g id="a_edge22&#45;headlabel"><a xlink:href="dir_000044_000051.html" target="_top" xlink:title="2">
<text text-anchor="middle" x="244.68" y="-28.83" font-family="Helvetica,sans-Serif" font-size="10.00" fill="#63b8ff">2</text>
</a>
</g>
</g>
<!-- dir_36ea2b7be3cb8c26515d956982029a89&#45;&gt;dir_b6e017bc8c299f04fc1162fc4677be61 -->
<g id="edge24" class="edge">
<title>dir_36ea2b7be3cb8c26515d956982029a89&#45;&gt;dir_b6e017bc8c299f04fc1162fc4677be61</title>
<g id="a_edge24"><a xlink:href="dir_000044_000040.html" target="_top">
<path fill="none" stroke="#63b8ff" d="M158.74,-54.98C143.87,-46.69 121.02,-33.94 103.58,-24.22"/>
<polygon fill="#63b8ff" stroke="#63b8ff" points="104.98,-20.99 94.54,-19.17 101.57,-27.1 104.98,-20.99"/>
</a>
</g>
<g id="a_edge24&#45;headlabel"><a xlink:href="dir_000044_000040.html" target="_top" xlink:title="3">
<text text-anchor="middle" x="109.5" y="-17.76" font-family="Helvetica,sans-Serif" font-size="10.00" fill="#63b8ff">3</text>
</a>
</g>
</g>
<!-- dir_36ea2b7be3cb8c26515d956982029a89&#45;&gt;dir_9ba586a504c756f19720715161f17166 -->
<g id="edge23" class="edge">
<title>dir_36ea2b7be3cb8c26515d956982029a89&#45;&gt;dir_9ba586a504c756f19720715161f17166</title>
<g id="a_edge23"><a xlink:href="dir_000044_000037.html" target="_top">
<path fill="none" stroke="#63b8ff" d="M178.79,-54.75C182.76,-47.49 188.53,-36.95 193.43,-27.98"/>
<polygon fill="#63b8ff" stroke="#63b8ff" points="196.57,-29.54 198.3,-19.09 190.43,-26.18 196.57,-29.54"/>
</a>
</g>
<g id="a_edge23&#45;headlabel"><a xlink:href="dir_000044_000037.html" target="_top" xlink:title="2">
<text text-anchor="middle" x="197.34" y="-31.56" font-family="Helvetica,sans-Serif" font-size="10.00" fill="#63b8ff">2</text>
</a>
</g>
</g>
<!-- dir_36ea2b7be3cb8c26515d956982029a89&#45;&gt;dir_106756a8ee71bdde7f7b779a3a0a52e4 -->
<g id="edge20" class="edge">
<title>dir_36ea2b7be3cb8c26515d956982029a89&#45;&gt;dir_106756a8ee71bdde7f7b779a3a0a52e4</title>
<g id="a_edge20"><a xlink:href="dir_000044_000014.html" target="_top">
<path fill="none" stroke="#63b8ff" d="M167.89,-54.75C162.72,-47.34 155.15,-36.5 148.81,-27.41"/>
<polygon fill="#63b8ff" stroke="#63b8ff" points="151.59,-25.29 143,-19.09 145.85,-29.29 151.59,-25.29"/>
</a>
</g>
<g id="a_edge20&#45;headlabel"><a xlink:href="dir_000044_000014.html" target="_top" xlink:title="3">
<text text-anchor="middle" x="155.98" y="-24.11" font-family="Helvetica,sans-Serif" font-size="10.00" fill="#63b8ff">3</text>
</a>
</g>
</g>
</g>
</svg>
</svg>

<style type='text/css'>
<![CDATA[
[data-mouse-over-selected='false'] { opacity: 0.7; }
[data-mouse-over-selected='true']  { opacity: 1.0; }
]]>
</style>
<script type="application/ecmascript"><![CDATA[
document.addEventListener('DOMContentLoaded', (event) => {
  highlightEdges();
  highlightAdjacentNodes();
});
]]></script>
</svg>
