<?xml version="1.0" encoding="UTF-8" standalone="no"?>
<!DOCTYPE svg PUBLIC "-//W3C//DTD SVG 1.1//EN"
 "http://www.w3.org/Graphics/SVG/1.1/DTD/svg11.dtd">
<!-- Generated by graphviz version 2.43.0 (0)
 -->
<!-- Title: include/helios/math Pages: 1 -->
<svg width="162pt" height="259pt"
 viewBox="0.00 0.00 162.00 259.00" xmlns="http://www.w3.org/2000/svg" xmlns:xlink="http://www.w3.org/1999/xlink">
<g id="graph0" class="graph" transform="scale(1 1) rotate(0) translate(4 255)">
<title>include/helios/math</title>
<g id="clust1" class="cluster">
<title>clusterdir_08c09894bd9f0ab4b1e9fdc7a2628766</title>
<g id="a_clust1"><a xlink:href="dir_08c09894bd9f0ab4b1e9fdc7a2628766.html" target="_top" xlink:title="helios">
<polygon fill="#edf0f7" stroke="#7f7f7f" stroke-dasharray="5,2" points="8,-8 8,-243 146,-243 146,-8 8,-8"/>
<text text-anchor="middle" x="77" y="-231" font-family="Helvetica,sans-Serif" font-size="10.00">helios</text>
</a>
</g>
</g>
<g id="clust2" class="cluster">
<title>clusterdir_0046d781185df00694c70533b055a138</title>
<g id="a_clust2"><a xlink:href="dir_0046d781185df00694c70533b055a138.html" target="_top">
<polygon fill="#edf0f7" stroke="#404040" stroke-width="2" points="16,-16 16,-216 138,-216 138,-16 16,-16"/>
</a>
</g>
</g>
<!-- dir_0046d781185df00694c70533b055a138 -->
<g id="node1" class="node">
<title>dir_0046d781185df00694c70533b055a138</title>
<text text-anchor="middle" x="77" y="-196" font-family="Helvetica,sans-Serif" font-size="10.00">math</text>
</g>
<!-- dir_eb27c6586e3179d4051f6b025521d9e9 -->
<g id="node2" class="node">
<title>dir_eb27c6586e3179d4051f6b025521d9e9</title>
<g id="a_node2"><a xlink:href="dir_eb27c6586e3179d4051f6b025521d9e9.html" target="_top" xlink:title="concepts">
<polygon fill="#a2b4d6" stroke="#404040" points="95,-43 35,-43 35,-24 95,-24 95,-43"/>
<text text-anchor="middle" x="65" y="-31" font-family="Helvetica,sans-Serif" font-size="10.00">concepts</text>
</a>
</g>
</g>
<!-- dir_0046d781185df00694c70533b055a138&#45;&gt;dir_eb27c6586e3179d4051f6b025521d9e9 -->
<g id="edge2" class="edge">
<title>dir_0046d781185df00694c70533b055a138&#45;&gt;dir_eb27c6586e3179d4051f6b025521d9e9</title>
<g id="a_edge2"><a xlink:href="dir_000019_000004.html" target="_top">
<path fill="none" stroke="#63b8ff" d="M64.79,-188.86C54.65,-180.88 40.96,-168.01 35,-153 21.22,-118.31 40.53,-75.36 53.97,-51.87"/>
<polygon fill="#63b8ff" stroke="#63b8ff" points="57.11,-53.44 59.26,-43.07 51.11,-49.84 57.11,-53.44"/>
</a>
</g>
<g id="a_edge2&#45;headlabel"><a xlink:href="dir_000019_000004.html" target="_top" xlink:title="5">
<text text-anchor="middle" x="57.69" y="-55.49" font-family="Helvetica,sans-Serif" font-size="10.00" fill="#63b8ff">5</text>
</a>
</g>
</g>
<!-- dir_88a1fd8d04254e342955f6c0d5b29283 -->
<g id="node3" class="node">
<title>dir_88a1fd8d04254e342955f6c0d5b29283</title>
<g id="a_node3"><a xlink:href="dir_88a1fd8d04254e342955f6c0d5b29283.html" target="_top" xlink:title="transform">
<polygon fill="#a2b4d6" stroke="#404040" points="109.5,-153 44.5,-153 44.5,-134 109.5,-134 109.5,-153"/>
<text text-anchor="middle" x="77" y="-141" font-family="Helvetica,sans-Serif" font-size="10.00">transform</text>
</a>
</g>
</g>
<!-- dir_0046d781185df00694c70533b055a138&#45;&gt;dir_88a1fd8d04254e342955f6c0d5b29283 -->
<g id="edge1" class="edge">
<title>dir_0046d781185df00694c70533b055a138&#45;&gt;dir_88a1fd8d04254e342955f6c0d5b29283</title>
<g id="a_edge1"><a xlink:href="dir_000019_000029.html" target="_top">
<path fill="none" stroke="#63b8ff" d="M77,-188.75C77,-181.8 77,-171.85 77,-163.13"/>
<polygon fill="#63b8ff" stroke="#63b8ff" points="80.5,-163.09 77,-153.09 73.5,-163.09 80.5,-163.09"/>
</a>
</g>
<g id="a_edge1&#45;headlabel"><a xlink:href="dir_000019_000029.html" target="_top" xlink:title="1">
<text text-anchor="middle" x="83.34" y="-164.18" font-family="Helvetica,sans-Serif" font-size="10.00" fill="#63b8ff">1</text>
</a>
</g>
</g>
<!-- dir_ec1f341d187cb06b8fc5c1e70ce7a6b5 -->
<g id="node4" class="node">
<title>dir_ec1f341d187cb06b8fc5c1e70ce7a6b5</title>
<g id="a_node4"><a xlink:href="dir_ec1f341d187cb06b8fc5c1e70ce7a6b5.html" target="_top" xlink:title="types">
<polygon fill="#a2b4d6" stroke="#404040" points="99,-98 55,-98 55,-79 99,-79 99,-98"/>
<text text-anchor="middle" x="77" y="-86" font-family="Helvetica,sans-Serif" font-size="10.00">types</text>
</a>
</g>
</g>
<!-- dir_0046d781185df00694c70533b055a138&#45;&gt;dir_ec1f341d187cb06b8fc5c1e70ce7a6b5 -->
<g id="edge3" class="edge">
<title>dir_0046d781185df00694c70533b055a138&#45;&gt;dir_ec1f341d187cb06b8fc5c1e70ce7a6b5</title>
<g id="a_edge3"><a xlink:href="dir_000019_000031.html" target="_top">
<path fill="none" stroke="#63b8ff" d="M89.21,-188.86C99.35,-180.88 113.04,-168.01 119,-153 126.14,-135.03 111.41,-116.86 97.46,-104.59"/>
<polygon fill="#63b8ff" stroke="#63b8ff" points="99.48,-101.71 89.52,-98.09 95.04,-107.13 99.48,-101.71"/>
</a>
</g>
<g id="a_edge3&#45;headlabel"><a xlink:href="dir_000019_000031.html" target="_top" xlink:title="3">
<text text-anchor="middle" x="104.06" y="-99.29" font-family="Helvetica,sans-Serif" font-size="10.00" fill="#63b8ff">3</text>
</a>
</g>
</g>
<!-- dir_88a1fd8d04254e342955f6c0d5b29283&#45;&gt;dir_ec1f341d187cb06b8fc5c1e70ce7a6b5 -->
<g id="edge4" class="edge">
<title>dir_88a1fd8d04254e342955f6c0d5b29283&#45;&gt;dir_ec1f341d187cb06b8fc5c1e70ce7a6b5</title>
<g id="a_edge4"><a xlink:href="dir_000029_000031.html" target="_top">
<path fill="none" stroke="#63b8ff" d="M77,-133.75C77,-126.8 77,-116.85 77,-108.13"/>
<polygon fill="#63b8ff" stroke="#63b8ff" points="80.5,-108.09 77,-98.09 73.5,-108.09 80.5,-108.09"/>
</a>
</g>
<g id="a_edge4&#45;headlabel"><a xlink:href="dir_000029_000031.html" target="_top" xlink:title="2">
<text text-anchor="middle" x="83.34" y="-109.18" font-family="Helvetica,sans-Serif" font-size="10.00" fill="#63b8ff">2</text>
</a>
</g>
</g>
<!-- dir_ec1f341d187cb06b8fc5c1e70ce7a6b5&#45;&gt;dir_eb27c6586e3179d4051f6b025521d9e9 -->
<g id="edge5" class="edge">
<title>dir_ec1f341d187cb06b8fc5c1e70ce7a6b5&#45;&gt;dir_eb27c6586e3179d4051f6b025521d9e9</title>
<g id="a_edge5"><a xlink:href="dir_000031_000004.html" target="_top">
<path fill="none" stroke="#63b8ff" d="M75.02,-78.75C73.43,-71.72 71.14,-61.62 69.15,-52.84"/>
<polygon fill="#63b8ff" stroke="#63b8ff" points="72.57,-52.07 66.94,-43.09 65.74,-53.62 72.57,-52.07"/>
</a>
</g>
<g id="a_edge5&#45;headlabel"><a xlink:href="dir_000031_000004.html" target="_top" xlink:title="4">
<text text-anchor="middle" x="76.13" y="-52.45" font-family="Helvetica,sans-Serif" font-size="10.00" fill="#63b8ff">4</text>
</a>
</g>
</g>
</g>
</svg>
