<?xml version="1.0" encoding="UTF-8" standalone="no"?>
<!DOCTYPE svg PUBLIC "-//W3C//DTD SVG 1.1//EN"
 "http://www.w3.org/Graphics/SVG/1.1/DTD/svg11.dtd">
<!-- Generated by graphviz version 2.43.0 (0)
 -->
<!-- Title: include/helios/rendering Pages: 1 -->
<svg width="233pt" height="306pt"
 viewBox="0.00 0.00 233.00 306.00" xmlns="http://www.w3.org/2000/svg" xmlns:xlink="http://www.w3.org/1999/xlink">
<g id="graph0" class="graph" transform="scale(1 1) rotate(0) translate(4 302)">
<title>include/helios/rendering</title>
<g id="clust1" class="cluster">
<title>clusterdir_08c09894bd9f0ab4b1e9fdc7a2628766</title>
<g id="a_clust1"><a xlink:href="dir_08c09894bd9f0ab4b1e9fdc7a2628766.html" target="_top" xlink:title="helios">
<polygon fill="#edf0f7" stroke="#7f7f7f" stroke-dasharray="5,2" points="8,-8 8,-290 217,-290 217,-8 8,-8"/>
<text text-anchor="middle" x="112.5" y="-278" font-family="Helvetica,sans-Serif" font-size="10.00">helios</text>
</a>
</g>
</g>
<g id="clust2" class="cluster">
<title>clusterdir_9ba586a504c756f19720715161f17166</title>
<g id="a_clust2"><a xlink:href="dir_9ba586a504c756f19720715161f17166.html" target="_top">
<polygon fill="#edf0f7" stroke="#404040" stroke-width="2" points="33,-63 33,-263 134,-263 134,-63 33,-63"/>
</a>
</g>
</g>
<!-- dir_0046d781185df00694c70533b055a138 -->
<g id="node1" class="node">
<title>dir_0046d781185df00694c70533b055a138</title>
<g id="a_node1"><a xlink:href="dir_0046d781185df00694c70533b055a138.html" target="_top" xlink:title="math">
<polygon fill="#a2b4d6" stroke="red" points="68,-35 26,-35 26,-16 68,-16 68,-35"/>
<text text-anchor="middle" x="47" y="-23" font-family="Helvetica,sans-Serif" font-size="10.00">math</text>
</a>
</g>
</g>
<!-- dir_7f0768799dd37ef2f2adcdfec91ab1e9 -->
<g id="node2" class="node">
<title>dir_7f0768799dd37ef2f2adcdfec91ab1e9</title>
<g id="a_node2"><a xlink:href="dir_7f0768799dd37ef2f2adcdfec91ab1e9.html" target="_top" xlink:title="util">
<polygon fill="#a2b4d6" stroke="red" points="161,-35 129,-35 129,-16 161,-16 161,-35"/>
<text text-anchor="middle" x="145" y="-23" font-family="Helvetica,sans-Serif" font-size="10.00">util</text>
</a>
</g>
</g>
<!-- dir_b6e017bc8c299f04fc1162fc4677be61 -->
<g id="node3" class="node">
<title>dir_b6e017bc8c299f04fc1162fc4677be61</title>
<g id="a_node3"><a xlink:href="dir_b6e017bc8c299f04fc1162fc4677be61.html" target="_top" xlink:title="scene">
<polygon fill="#a2b4d6" stroke="#404040" points="208.5,-200 163.5,-200 163.5,-181 208.5,-181 208.5,-200"/>
<text text-anchor="middle" x="186" y="-188" font-family="Helvetica,sans-Serif" font-size="10.00">scene</text>
</a>
</g>
</g>
<!-- dir_9ba586a504c756f19720715161f17166 -->
<g id="node4" class="node">
<title>dir_9ba586a504c756f19720715161f17166</title>
<text text-anchor="middle" x="94" y="-243" font-family="Helvetica,sans-Serif" font-size="10.00">rendering</text>
</g>
<!-- dir_9ba586a504c756f19720715161f17166&#45;&gt;dir_0046d781185df00694c70533b055a138 -->
<g id="edge1" class="edge">
<title>dir_9ba586a504c756f19720715161f17166&#45;&gt;dir_0046d781185df00694c70533b055a138</title>
<g id="a_edge1"><a xlink:href="dir_000037_000028.html" target="_top">
<path fill="none" stroke="#63b8ff" d="M73.8,-235.91C59.53,-228.64 41.49,-216.71 33,-200 6.92,-148.69 27.4,-77.69 39.59,-44.7"/>
<polygon fill="#63b8ff" stroke="#63b8ff" points="42.98,-45.64 43.33,-35.05 36.45,-43.11 42.98,-45.64"/>
</a>
</g>
<g id="a_edge1&#45;headlabel"><a xlink:href="dir_000037_000028.html" target="_top" xlink:title="10">
<text text-anchor="middle" x="44.33" y="-47.52" font-family="Helvetica,sans-Serif" font-size="10.00" fill="#63b8ff">10</text>
</a>
</g>
</g>
<!-- dir_9ba586a504c756f19720715161f17166&#45;&gt;dir_7f0768799dd37ef2f2adcdfec91ab1e9 -->
<g id="edge2" class="edge">
<title>dir_9ba586a504c756f19720715161f17166&#45;&gt;dir_7f0768799dd37ef2f2adcdfec91ab1e9</title>
<g id="a_edge2"><a xlink:href="dir_000037_000051.html" target="_top">
<path fill="none" stroke="#63b8ff" d="M98.67,-235.84C103.29,-227.01 110.32,-212.84 115,-200 132.31,-152.49 137.11,-140.09 144,-90 146.05,-75.11 146.2,-58.08 145.89,-45.41"/>
<polygon fill="#63b8ff" stroke="#63b8ff" points="149.38,-45.05 145.52,-35.18 142.39,-45.3 149.38,-45.05"/>
</a>
</g>
<g id="a_edge2&#45;headlabel"><a xlink:href="dir_000037_000051.html" target="_top" xlink:title="16">
<text text-anchor="middle" x="152.35" y="-46.03" font-family="Helvetica,sans-Serif" font-size="10.00" fill="#63b8ff">16</text>
</a>
</g>
</g>
<!-- dir_9ba586a504c756f19720715161f17166&#45;&gt;dir_b6e017bc8c299f04fc1162fc4677be61 -->
<g id="edge5" class="edge">
<title>dir_9ba586a504c756f19720715161f17166&#45;&gt;dir_b6e017bc8c299f04fc1162fc4677be61</title>
<g id="a_edge5"><a xlink:href="dir_000037_000040.html" target="_top">
<path fill="none" stroke="#63b8ff" d="M108.78,-235.98C123.18,-227.69 145.31,-214.94 162.19,-205.22"/>
<polygon fill="#63b8ff" stroke="#63b8ff" points="164.03,-208.19 170.95,-200.17 160.54,-202.13 164.03,-208.19"/>
</a>
</g>
<g id="a_edge5&#45;headlabel"><a xlink:href="dir_000037_000040.html" target="_top" xlink:title="3">
<text text-anchor="middle" x="162.33" y="-209.95" font-family="Helvetica,sans-Serif" font-size="10.00" fill="#63b8ff">3</text>
</a>
</g>
</g>
<!-- dir_dd4be7afabb700f6b3872556ecdc0008 -->
<g id="node5" class="node">
<title>dir_dd4be7afabb700f6b3872556ecdc0008</title>
<g id="a_node5"><a xlink:href="dir_dd4be7afabb700f6b3872556ecdc0008.html" target="_top" xlink:title="asset">
<polygon fill="#a2b4d6" stroke="#404040" points="84.5,-200 41.5,-200 41.5,-181 84.5,-181 84.5,-200"/>
<text text-anchor="middle" x="63" y="-188" font-family="Helvetica,sans-Serif" font-size="10.00">asset</text>
</a>
</g>
</g>
<!-- dir_9ba586a504c756f19720715161f17166&#45;&gt;dir_dd4be7afabb700f6b3872556ecdc0008 -->
<g id="edge6" class="edge">
<title>dir_9ba586a504c756f19720715161f17166&#45;&gt;dir_dd4be7afabb700f6b3872556ecdc0008</title>
<g id="a_edge6"><a xlink:href="dir_000037_000002.html" target="_top">
<path fill="none" stroke="#63b8ff" d="M88.88,-235.75C84.64,-228.49 78.47,-217.95 73.22,-208.98"/>
<polygon fill="#63b8ff" stroke="#63b8ff" points="76.09,-206.95 68.02,-200.09 70.05,-210.49 76.09,-206.95"/>
</a>
</g>
<g id="a_edge6&#45;headlabel"><a xlink:href="dir_000037_000002.html" target="_top" xlink:title="4">
<text text-anchor="middle" x="80.36" y="-206.12" font-family="Helvetica,sans-Serif" font-size="10.00" fill="#63b8ff">4</text>
</a>
</g>
</g>
<!-- dir_93c18e872bfe9baf2066232ace9cc478 -->
<g id="node6" class="node">
<title>dir_93c18e872bfe9baf2066232ace9cc478</title>
<g id="a_node6"><a xlink:href="dir_93c18e872bfe9baf2066232ace9cc478.html" target="_top" xlink:title="model">
<polygon fill="#a2b4d6" stroke="#404040" points="104.5,-145 57.5,-145 57.5,-126 104.5,-126 104.5,-145"/>
<text text-anchor="middle" x="81" y="-133" font-family="Helvetica,sans-Serif" font-size="10.00">model</text>
</a>
</g>
</g>
<!-- dir_9ba586a504c756f19720715161f17166&#45;&gt;dir_93c18e872bfe9baf2066232ace9cc478 -->
<g id="edge4" class="edge">
<title>dir_9ba586a504c756f19720715161f17166&#45;&gt;dir_93c18e872bfe9baf2066232ace9cc478</title>
<g id="a_edge4"><a xlink:href="dir_000037_000031.html" target="_top">
<path fill="none" stroke="#63b8ff" d="M94.77,-235.82C95.69,-223.54 96.78,-200.43 94,-181 92.75,-172.24 90.17,-162.79 87.64,-154.86"/>
<polygon fill="#63b8ff" stroke="#63b8ff" points="90.88,-153.54 84.34,-145.2 84.26,-155.8 90.88,-153.54"/>
</a>
</g>
<g id="a_edge4&#45;headlabel"><a xlink:href="dir_000037_000031.html" target="_top" xlink:title="16">
<text text-anchor="middle" x="94.73" y="-153.52" font-family="Helvetica,sans-Serif" font-size="10.00" fill="#63b8ff">16</text>
</a>
</g>
</g>
<!-- dir_869a74fcf9d0260a88bfc70b1dd6928c -->
<g id="node7" class="node">
<title>dir_869a74fcf9d0260a88bfc70b1dd6928c</title>
<g id="a_node7"><a xlink:href="dir_869a74fcf9d0260a88bfc70b1dd6928c.html" target="_top" xlink:title="shader">
<polygon fill="#a2b4d6" stroke="#404040" points="126,-90 76,-90 76,-71 126,-71 126,-90"/>
<text text-anchor="middle" x="101" y="-78" font-family="Helvetica,sans-Serif" font-size="10.00">shader</text>
</a>
</g>
</g>
<!-- dir_9ba586a504c756f19720715161f17166&#45;&gt;dir_869a74fcf9d0260a88bfc70b1dd6928c -->
<g id="edge3" class="edge">
<title>dir_9ba586a504c756f19720715161f17166&#45;&gt;dir_869a74fcf9d0260a88bfc70b1dd6928c</title>
<g id="a_edge3"><a xlink:href="dir_000037_000042.html" target="_top">
<path fill="none" stroke="#63b8ff" d="M97.3,-235.9C104.38,-216.4 119.91,-167.31 114,-126 112.75,-117.24 110.17,-107.79 107.64,-99.86"/>
<polygon fill="#63b8ff" stroke="#63b8ff" points="110.88,-98.54 104.34,-90.2 104.26,-100.8 110.88,-98.54"/>
</a>
</g>
<g id="a_edge3&#45;headlabel"><a xlink:href="dir_000037_000042.html" target="_top" xlink:title="11">
<text text-anchor="middle" x="114.73" y="-98.52" font-family="Helvetica,sans-Serif" font-size="10.00" fill="#63b8ff">11</text>
</a>
</g>
</g>
<!-- dir_dd4be7afabb700f6b3872556ecdc0008&#45;&gt;dir_0046d781185df00694c70533b055a138 -->
<g id="edge8" class="edge">
<title>dir_dd4be7afabb700f6b3872556ecdc0008&#45;&gt;dir_0046d781185df00694c70533b055a138</title>
<g id="a_edge8"><a xlink:href="dir_000002_000028.html" target="_top">
<path fill="none" stroke="#63b8ff" d="M59.45,-180.82C56.03,-171.98 51.08,-157.79 49,-145 43.36,-110.25 44.37,-69.02 45.65,-45.49"/>
<polygon fill="#63b8ff" stroke="#63b8ff" points="49.17,-45.4 46.3,-35.2 42.18,-44.96 49.17,-45.4"/>
</a>
</g>
<g id="a_edge8&#45;headlabel"><a xlink:href="dir_000002_000028.html" target="_top" xlink:title="3">
<text text-anchor="middle" x="51.77" y="-46.66" font-family="Helvetica,sans-Serif" font-size="10.00" fill="#63b8ff">3</text>
</a>
</g>
</g>
<!-- dir_dd4be7afabb700f6b3872556ecdc0008&#45;&gt;dir_93c18e872bfe9baf2066232ace9cc478 -->
<g id="edge7" class="edge">
<title>dir_dd4be7afabb700f6b3872556ecdc0008&#45;&gt;dir_93c18e872bfe9baf2066232ace9cc478</title>
<g id="a_edge7"><a xlink:href="dir_000002_000031.html" target="_top">
<path fill="none" stroke="#63b8ff" d="M60.81,-180.75C61.7,-173.57 64.81,-163.18 68.55,-154.27"/>
<polygon fill="#63b8ff" stroke="#63b8ff" points="71.79,-155.62 72.95,-145.09 65.47,-152.59 71.79,-155.62"/>
</a>
</g>
<g id="a_edge7&#45;headlabel"><a xlink:href="dir_000002_000031.html" target="_top" xlink:title="9">
<text text-anchor="middle" x="72.79" y="-157.59" font-family="Helvetica,sans-Serif" font-size="10.00" fill="#63b8ff">9</text>
</a>
</g>
</g>
<!-- dir_93c18e872bfe9baf2066232ace9cc478&#45;&gt;dir_0046d781185df00694c70533b055a138 -->
<g id="edge9" class="edge">
<title>dir_93c18e872bfe9baf2066232ace9cc478&#45;&gt;dir_0046d781185df00694c70533b055a138</title>
<g id="a_edge9"><a xlink:href="dir_000031_000028.html" target="_top">
<path fill="none" stroke="#63b8ff" d="M78.22,-125.66C72.69,-108.09 60.21,-68.45 52.81,-44.95"/>
<polygon fill="#63b8ff" stroke="#63b8ff" points="56.07,-43.65 49.73,-35.16 49.39,-45.75 56.07,-43.65"/>
</a>
</g>
<g id="a_edge9&#45;headlabel"><a xlink:href="dir_000031_000028.html" target="_top" xlink:title="3">
<text text-anchor="middle" x="59.85" y="-43.72" font-family="Helvetica,sans-Serif" font-size="10.00" fill="#63b8ff">3</text>
</a>
</g>
</g>
<!-- dir_93c18e872bfe9baf2066232ace9cc478&#45;&gt;dir_7f0768799dd37ef2f2adcdfec91ab1e9 -->
<g id="edge10" class="edge">
<title>dir_93c18e872bfe9baf2066232ace9cc478&#45;&gt;dir_7f0768799dd37ef2f2adcdfec91ab1e9</title>
<g id="a_edge10"><a xlink:href="dir_000031_000051.html" target="_top">
<path fill="none" stroke="#63b8ff" d="M96.71,-125.91C109.2,-118.21 126.02,-105.72 135,-90 142.7,-76.51 144.99,-58.91 145.47,-45.66"/>
<polygon fill="#63b8ff" stroke="#63b8ff" points="148.97,-45.37 145.51,-35.35 141.97,-45.34 148.97,-45.37"/>
</a>
</g>
<g id="a_edge10&#45;headlabel"><a xlink:href="dir_000031_000051.html" target="_top" xlink:title="3">
<text text-anchor="middle" x="151.79" y="-46.48" font-family="Helvetica,sans-Serif" font-size="10.00" fill="#63b8ff">3</text>
</a>
</g>
</g>
<!-- dir_93c18e872bfe9baf2066232ace9cc478&#45;&gt;dir_dd4be7afabb700f6b3872556ecdc0008 -->
<g id="edge12" class="edge">
<title>dir_93c18e872bfe9baf2066232ace9cc478&#45;&gt;dir_dd4be7afabb700f6b3872556ecdc0008</title>
<g id="a_edge12"><a xlink:href="dir_000031_000002.html" target="_top">
<path fill="none" stroke="#63b8ff" d="M83.21,-145.09C82.35,-152.22 79.26,-162.6 75.53,-171.53"/>
<polygon fill="#63b8ff" stroke="#63b8ff" points="72.28,-170.22 71.14,-180.75 78.6,-173.23 72.28,-170.22"/>
</a>
</g>
<g id="a_edge12&#45;headlabel"><a xlink:href="dir_000031_000002.html" target="_top" xlink:title="1">
<text text-anchor="middle" x="71.26" y="-163.25" font-family="Helvetica,sans-Serif" font-size="10.00" fill="#63b8ff">1</text>
</a>
</g>
</g>
<!-- dir_93c18e872bfe9baf2066232ace9cc478&#45;&gt;dir_869a74fcf9d0260a88bfc70b1dd6928c -->
<g id="edge11" class="edge">
<title>dir_93c18e872bfe9baf2066232ace9cc478&#45;&gt;dir_869a74fcf9d0260a88bfc70b1dd6928c</title>
<g id="a_edge11"><a xlink:href="dir_000031_000042.html" target="_top">
<path fill="none" stroke="#63b8ff" d="M84.3,-125.75C86.98,-118.65 90.85,-108.4 94.19,-99.56"/>
<polygon fill="#63b8ff" stroke="#63b8ff" points="97.5,-100.68 97.76,-90.09 90.95,-98.21 97.5,-100.68"/>
</a>
</g>
<g id="a_edge11&#45;headlabel"><a xlink:href="dir_000031_000042.html" target="_top" xlink:title="6">
<text text-anchor="middle" x="98.89" y="-102.55" font-family="Helvetica,sans-Serif" font-size="10.00" fill="#63b8ff">6</text>
</a>
</g>
</g>
<!-- dir_869a74fcf9d0260a88bfc70b1dd6928c&#45;&gt;dir_0046d781185df00694c70533b055a138 -->
<g id="edge13" class="edge">
<title>dir_869a74fcf9d0260a88bfc70b1dd6928c&#45;&gt;dir_0046d781185df00694c70533b055a138</title>
<g id="a_edge13"><a xlink:href="dir_000042_000028.html" target="_top">
<path fill="none" stroke="#63b8ff" d="M92.08,-70.75C84.22,-63.03 72.57,-51.6 63.08,-42.28"/>
<polygon fill="#63b8ff" stroke="#63b8ff" points="65.34,-39.6 55.75,-35.09 60.44,-44.59 65.34,-39.6"/>
</a>
</g>
<g id="a_edge13&#45;headlabel"><a xlink:href="dir_000042_000028.html" target="_top" xlink:title="1">
<text text-anchor="middle" x="69.89" y="-37.59" font-family="Helvetica,sans-Serif" font-size="10.00" fill="#63b8ff">1</text>
</a>
</g>
</g>
<!-- dir_869a74fcf9d0260a88bfc70b1dd6928c&#45;&gt;dir_7f0768799dd37ef2f2adcdfec91ab1e9 -->
<g id="edge14" class="edge">
<title>dir_869a74fcf9d0260a88bfc70b1dd6928c&#45;&gt;dir_7f0768799dd37ef2f2adcdfec91ab1e9</title>
<g id="a_edge14"><a xlink:href="dir_000042_000051.html" target="_top">
<path fill="none" stroke="#63b8ff" d="M108.27,-70.75C114.54,-63.18 123.79,-52.05 131.43,-42.84"/>
<polygon fill="#63b8ff" stroke="#63b8ff" points="134.17,-45.02 137.87,-35.09 128.79,-40.55 134.17,-45.02"/>
</a>
</g>
<g id="a_edge14&#45;headlabel"><a xlink:href="dir_000042_000051.html" target="_top" xlink:title="2">
<text text-anchor="middle" x="134.06" y="-47.1" font-family="Helvetica,sans-Serif" font-size="10.00" fill="#63b8ff">2</text>
</a>
</g>
</g>
</g>
</svg>
