<?xml version="1.0" encoding="UTF-8" standalone="no"?>
<!DOCTYPE svg PUBLIC "-//W3C//DTD SVG 1.1//EN"
 "http://www.w3.org/Graphics/SVG/1.1/DTD/svg11.dtd">
<!-- Generated by graphviz version 2.43.0 (0)
 -->
<!-- Title: include/helios/engine/game/systems Pages: 1 -->
<!--zoomable 196 -->

<svg id="main" version="1.1" xmlns="http://www.w3.org/2000/svg" xmlns:xlink="http://www.w3.org/1999/xlink" xml:space="preserve" onload="init(evt)">

<style type="text/css"><![CDATA[
.node, .edge {opacity: 0.7;}
.node.selected, .edge.selected {opacity: 1;}
.edge:hover path { stroke: red; }
.edge:hover polygon { stroke: red; fill: red; }
]]></style>

<defs>
  <circle id="rim" cx="0" cy="0" r="7"/>
  <circle id="rim2" cx="0" cy="0" r="3.5"/>
  <g id="zoomPlus">
    <use xlink:href="#rim" fill="#404040"><set attributeName="fill" to="#808080" begin="zoomplus.mouseover" end="zoomplus.mouseout"/></use>
    <path d="M-4,0h8M0,-4v8" fill="none" stroke="white" stroke-width="1.5" pointer-events="none"/>
  </g>
  <g id="zoomMin">
    <use xlink:href="#rim" fill="#404040"><set attributeName="fill" to="#808080" begin="zoomminus.mouseover" end="zoomminus.mouseout"/></use>
    <path d="M-4,0h8" fill="none" stroke="white" stroke-width="1.5" pointer-events="none"/>
  </g>
  <g id="arrowUp" transform="translate(30 24)">
    <use xlink:href="#rim"/>
    <path pointer-events="none" fill="none" stroke="white" stroke-width="1.5" d="M0,-3.0v7 M-2.5,-0.5L0,-3.0L2.5,-0.5"/>
  </g>
  <g id="arrowRight" transform="rotate(90) translate(36 -43)">
    <use xlink:href="#rim"/>
    <path pointer-events="none" fill="none" stroke="white" stroke-width="1.5" d="M0,-3.0v7 M-2.5,-0.5L0,-3.0L2.5,-0.5"/>
  </g>
  <g id="arrowDown" transform="rotate(180) translate(-30 -48)">
    <use xlink:href="#rim"/>
    <path pointer-events="none" fill="none" stroke="white" stroke-width="1.5" d="M0,-3.0v7 M-2.5,-0.5L0,-3.0L2.5,-0.5"/>
  </g>
  <g id="arrowLeft" transform="rotate(270) translate(-36 17)">
    <use xlink:href="#rim"/>
    <path pointer-events="none" fill="none" stroke="white" stroke-width="1.5" d="M0,-3.0v7 M-2.5,-0.5L0,-3.0L2.5,-0.5"/>
  </g>
  <g id="resetDef">
    <use xlink:href="#rim2" fill="#404040"><set attributeName="fill" to="#808080" begin="reset.mouseover" end="reset.mouseout"/></use>
  </g>
</defs>
<script type="application/ecmascript">
var viewWidth = 656;
var viewHeight = 196;
var sectionId = 'dynsection-0';
</script>
<script type="application/ecmascript" xlink:href="svg.min.js"/>
<svg id="graph" class="graph">
<g id="viewport">
<title>include/helios/engine/game/systems</title>
<g id="clust1" class="cluster">
<title>clusterdir_46c7b0b04924cca8aa10726746d57f30</title>
<g id="a_clust1"><a xlink:href="dir_46c7b0b04924cca8aa10726746d57f30.html" target="_top" xlink:title="game">
<polygon fill="#edf0f7" stroke="#7f7f7f" stroke-dasharray="5,2" points="8,-8 8,-180 296,-180 296,-8 8,-8"/>
<text text-anchor="middle" x="152" y="-168" font-family="Helvetica,sans-Serif" font-size="10.00">game</text>
</a>
</g>
</g>
<g id="clust2" class="cluster">
<title>clusterdir_36ea2b7be3cb8c26515d956982029a89</title>
<g id="a_clust2"><a xlink:href="dir_36ea2b7be3cb8c26515d956982029a89.html" target="_top">
<polygon fill="#edf0f7" stroke="#404040" stroke-width="2" points="16,-63 16,-153 288,-153 288,-63 16,-63"/>
</a>
</g>
</g>
<!-- dir_f71deafbc833970927ad1dfabdb805be -->
<g id="node1" class="node">
<title>dir_f71deafbc833970927ad1dfabdb805be</title>
<g id="a_node1"><a xlink:href="dir_f71deafbc833970927ad1dfabdb805be.html" target="_top" xlink:title="components">
<polygon fill="#a2b4d6" stroke="red" points="177.5,-35 100.5,-35 100.5,-16 177.5,-16 177.5,-35"/>
<text text-anchor="middle" x="139" y="-23" font-family="Helvetica,sans-Serif" font-size="10.00">components</text>
</a>
</g>
</g>
<!-- dir_36ea2b7be3cb8c26515d956982029a89 -->
<g id="node2" class="node">
<title>dir_36ea2b7be3cb8c26515d956982029a89</title>
<text text-anchor="middle" x="139" y="-133" font-family="Helvetica,sans-Serif" font-size="10.00">systems</text>
</g>
<!-- dir_2036ee9c852531d6695ccc0e4c2def2c -->
<g id="node3" class="node">
<title>dir_2036ee9c852531d6695ccc0e4c2def2c</title>
<g id="a_node3"><a xlink:href="dir_2036ee9c852531d6695ccc0e4c2def2c.html" target="_top" xlink:title="gameplay">
<polygon fill="#a2b4d6" stroke="#404040" points="208.5,-90 143.5,-90 143.5,-71 208.5,-71 208.5,-90"/>
<text text-anchor="middle" x="176" y="-78" font-family="Helvetica,sans-Serif" font-size="10.00">gameplay</text>
</a>
</g>
</g>
<!-- dir_36ea2b7be3cb8c26515d956982029a89&#45;&gt;dir_2036ee9c852531d6695ccc0e4c2def2c -->
<g id="edge1" class="edge">
<title>dir_36ea2b7be3cb8c26515d956982029a89&#45;&gt;dir_2036ee9c852531d6695ccc0e4c2def2c</title>
<g id="a_edge1"><a xlink:href="dir_000044_000018.html" target="_top">
<path fill="none" stroke="#63b8ff" d="M145.11,-125.75C150.28,-118.34 157.85,-107.5 164.19,-98.41"/>
<polygon fill="#63b8ff" stroke="#63b8ff" points="167.15,-100.29 170,-90.09 161.41,-96.29 167.15,-100.29"/>
</a>
</g>
<g id="a_edge1&#45;headlabel"><a xlink:href="dir_000044_000018.html" target="_top" xlink:title="1">
<text text-anchor="middle" x="167.42" y="-102.36" font-family="Helvetica,sans-Serif" font-size="10.00" fill="#63b8ff">1</text>
</a>
</g>
</g>
<!-- dir_d8be9b0e446dd8c9e5aa09f48fb49f4f -->
<g id="node4" class="node">
<title>dir_d8be9b0e446dd8c9e5aa09f48fb49f4f</title>
<g id="a_node4"><a xlink:href="dir_d8be9b0e446dd8c9e5aa09f48fb49f4f.html" target="_top" xlink:title="physics">
<polygon fill="#a2b4d6" stroke="#404040" points="279.5,-90 226.5,-90 226.5,-71 279.5,-71 279.5,-90"/>
<text text-anchor="middle" x="253" y="-78" font-family="Helvetica,sans-Serif" font-size="10.00">physics</text>
</a>
</g>
</g>
<!-- dir_36ea2b7be3cb8c26515d956982029a89&#45;&gt;dir_d8be9b0e446dd8c9e5aa09f48fb49f4f -->
<g id="edge3" class="edge">
<title>dir_36ea2b7be3cb8c26515d956982029a89&#45;&gt;dir_d8be9b0e446dd8c9e5aa09f48fb49f4f</title>
<g id="a_edge3"><a xlink:href="dir_000044_000034.html" target="_top">
<path fill="none" stroke="#63b8ff" d="M157.32,-125.98C175.66,-117.46 204.11,-104.23 225.23,-94.41"/>
<polygon fill="#63b8ff" stroke="#63b8ff" points="226.76,-97.56 234.35,-90.17 223.81,-91.21 226.76,-97.56"/>
</a>
</g>
<g id="a_edge3&#45;headlabel"><a xlink:href="dir_000044_000034.html" target="_top" xlink:title="1">
<text text-anchor="middle" x="224.7" y="-99.15" font-family="Helvetica,sans-Serif" font-size="10.00" fill="#63b8ff">1</text>
</a>
</g>
</g>
<!-- dir_d35e9ff41279209263f6c1b8d9281645 -->
<g id="node5" class="node">
<title>dir_d35e9ff41279209263f6c1b8d9281645</title>
<g id="a_node5"><a xlink:href="dir_d35e9ff41279209263f6c1b8d9281645.html" target="_top" xlink:title="post">
<polygon fill="#a2b4d6" stroke="#404040" points="62,-90 24,-90 24,-71 62,-71 62,-90"/>
<text text-anchor="middle" x="43" y="-78" font-family="Helvetica,sans-Serif" font-size="10.00">post</text>
</a>
</g>
</g>
<!-- dir_36ea2b7be3cb8c26515d956982029a89&#45;&gt;dir_d35e9ff41279209263f6c1b8d9281645 -->
<g id="edge2" class="edge">
<title>dir_36ea2b7be3cb8c26515d956982029a89&#45;&gt;dir_d35e9ff41279209263f6c1b8d9281645</title>
<g id="a_edge2"><a xlink:href="dir_000044_000035.html" target="_top">
<path fill="none" stroke="#63b8ff" d="M123.58,-125.98C108.55,-117.69 85.46,-104.94 67.84,-95.22"/>
<polygon fill="#63b8ff" stroke="#63b8ff" points="69.15,-91.94 58.7,-90.17 65.77,-98.07 69.15,-91.94"/>
</a>
</g>
<g id="a_edge2&#45;headlabel"><a xlink:href="dir_000044_000035.html" target="_top" xlink:title="1">
<text text-anchor="middle" x="73.67" y="-88.69" font-family="Helvetica,sans-Serif" font-size="10.00" fill="#63b8ff">1</text>
</a>
</g>
</g>
<!-- dir_e7b893978f127c9e8ada7b9c99db26af -->
<g id="node6" class="node">
<title>dir_e7b893978f127c9e8ada7b9c99db26af</title>
<g id="a_node6"><a xlink:href="dir_e7b893978f127c9e8ada7b9c99db26af.html" target="_top" xlink:title="scene">
<polygon fill="#a2b4d6" stroke="#404040" points="125.5,-90 80.5,-90 80.5,-71 125.5,-71 125.5,-90"/>
<text text-anchor="middle" x="103" y="-78" font-family="Helvetica,sans-Serif" font-size="10.00">scene</text>
</a>
</g>
</g>
<!-- dir_36ea2b7be3cb8c26515d956982029a89&#45;&gt;dir_e7b893978f127c9e8ada7b9c99db26af -->
<g id="edge4" class="edge">
<title>dir_36ea2b7be3cb8c26515d956982029a89&#45;&gt;dir_e7b893978f127c9e8ada7b9c99db26af</title>
<g id="a_edge4"><a xlink:href="dir_000044_000039.html" target="_top">
<path fill="none" stroke="#63b8ff" d="M133.06,-125.75C128.02,-118.34 120.66,-107.5 114.49,-98.41"/>
<polygon fill="#63b8ff" stroke="#63b8ff" points="117.35,-96.39 108.83,-90.09 111.56,-100.33 117.35,-96.39"/>
</a>
</g>
<g id="a_edge4&#45;headlabel"><a xlink:href="dir_000044_000039.html" target="_top" xlink:title="1">
<text text-anchor="middle" x="121.72" y="-95.27" font-family="Helvetica,sans-Serif" font-size="10.00" fill="#63b8ff">1</text>
</a>
</g>
</g>
<!-- dir_2036ee9c852531d6695ccc0e4c2def2c&#45;&gt;dir_f71deafbc833970927ad1dfabdb805be -->
<g id="edge10" class="edge">
<title>dir_2036ee9c852531d6695ccc0e4c2def2c&#45;&gt;dir_f71deafbc833970927ad1dfabdb805be</title>
<g id="a_edge10"><a xlink:href="dir_000018_000005.html" target="_top">
<path fill="none" stroke="#63b8ff" d="M169.89,-70.75C164.72,-63.34 157.15,-52.5 150.81,-43.41"/>
<polygon fill="#63b8ff" stroke="#63b8ff" points="153.59,-41.29 145,-35.09 147.85,-45.29 153.59,-41.29"/>
</a>
</g>
<g id="a_edge10&#45;headlabel"><a xlink:href="dir_000018_000005.html" target="_top" xlink:title="2">
<text text-anchor="middle" x="157.98" y="-40.11" font-family="Helvetica,sans-Serif" font-size="10.00" fill="#63b8ff">2</text>
</a>
</g>
</g>
<!-- dir_0046d781185df00694c70533b055a138 -->
<g id="node7" class="node">
<title>dir_0046d781185df00694c70533b055a138</title>
<g id="a_node7"><a xlink:href="dir_0046d781185df00694c70533b055a138.html" target="_top" xlink:title="math">
<polygon fill="#edf0f7" stroke="red" stroke-dasharray="5,2" points="592,-35 550,-35 550,-16 592,-16 592,-35"/>
<text text-anchor="middle" x="571" y="-23" font-family="Helvetica,sans-Serif" font-size="10.00">math</text>
</a>
</g>
</g>
<!-- dir_2036ee9c852531d6695ccc0e4c2def2c&#45;&gt;dir_0046d781185df00694c70533b055a138 -->
<g id="edge5" class="edge">
<title>dir_2036ee9c852531d6695ccc0e4c2def2c&#45;&gt;dir_0046d781185df00694c70533b055a138</title>
<g id="a_edge5"><a xlink:href="dir_000018_000028.html" target="_top">
<path fill="none" stroke="#63b8ff" d="M194.45,-70.92C201.65,-67.93 210.07,-64.86 218,-63 355.14,-30.83 397.38,-59.62 539.83,-34.84"/>
<polygon fill="#63b8ff" stroke="#63b8ff" points="540.59,-38.26 549.81,-33.04 539.35,-31.37 540.59,-38.26"/>
</a>
</g>
<g id="a_edge5&#45;headlabel"><a xlink:href="dir_000018_000028.html" target="_top" xlink:title="1">
<text text-anchor="middle" x="537.55" y="-39.19" font-family="Helvetica,sans-Serif" font-size="10.00" fill="#63b8ff">1</text>
</a>
</g>
</g>
<!-- dir_106756a8ee71bdde7f7b779a3a0a52e4 -->
<g id="node8" class="node">
<title>dir_106756a8ee71bdde7f7b779a3a0a52e4</title>
<g id="a_node8"><a xlink:href="dir_106756a8ee71bdde7f7b779a3a0a52e4.html" target="_top" xlink:title="ext">
<polygon fill="#edf0f7" stroke="red" stroke-dasharray="5,2" points="468,-35 436,-35 436,-16 468,-16 468,-35"/>
<text text-anchor="middle" x="452" y="-23" font-family="Helvetica,sans-Serif" font-size="10.00">ext</text>
</a>
</g>
</g>
<!-- dir_2036ee9c852531d6695ccc0e4c2def2c&#45;&gt;dir_106756a8ee71bdde7f7b779a3a0a52e4 -->
<g id="edge6" class="edge">
<title>dir_2036ee9c852531d6695ccc0e4c2def2c&#45;&gt;dir_106756a8ee71bdde7f7b779a3a0a52e4</title>
<g id="a_edge6"><a xlink:href="dir_000018_000014.html" target="_top">
<path fill="none" stroke="#63b8ff" d="M194.91,-70.95C202.03,-68.03 210.27,-65.01 218,-63 305.71,-40.25 333.89,-55.33 426.25,-34.71"/>
<polygon fill="#63b8ff" stroke="#63b8ff" points="427.04,-38.12 436,-32.45 425.46,-31.3 427.04,-38.12"/>
</a>
</g>
<g id="a_edge6&#45;headlabel"><a xlink:href="dir_000018_000014.html" target="_top" xlink:title="3">
<text text-anchor="middle" x="424.18" y="-39.19" font-family="Helvetica,sans-Serif" font-size="10.00" fill="#63b8ff">3</text>
</a>
</g>
</g>
<!-- dir_7f0768799dd37ef2f2adcdfec91ab1e9 -->
<g id="node10" class="node">
<title>dir_7f0768799dd37ef2f2adcdfec91ab1e9</title>
<g id="a_node10"><a xlink:href="dir_7f0768799dd37ef2f2adcdfec91ab1e9.html" target="_top" xlink:title="util">
<polygon fill="#edf0f7" stroke="red" stroke-dasharray="5,2" points="336,-35 304,-35 304,-16 336,-16 336,-35"/>
<text text-anchor="middle" x="320" y="-23" font-family="Helvetica,sans-Serif" font-size="10.00">util</text>
</a>
</g>
</g>
<!-- dir_2036ee9c852531d6695ccc0e4c2def2c&#45;&gt;dir_7f0768799dd37ef2f2adcdfec91ab1e9 -->
<g id="edge7" class="edge">
<title>dir_2036ee9c852531d6695ccc0e4c2def2c&#45;&gt;dir_7f0768799dd37ef2f2adcdfec91ab1e9</title>
<g id="a_edge7"><a xlink:href="dir_000018_000051.html" target="_top">
<path fill="none" stroke="#63b8ff" d="M197.3,-70.92C203.91,-68.31 211.23,-65.48 218,-63 251.05,-50.87 262.14,-49.02 294.24,-37.11"/>
<polygon fill="#63b8ff" stroke="#63b8ff" points="295.77,-40.27 303.89,-33.47 293.29,-33.73 295.77,-40.27"/>
</a>
</g>
<g id="a_edge7&#45;headlabel"><a xlink:href="dir_000018_000051.html" target="_top" xlink:title="2">
<text text-anchor="middle" x="293.41" y="-41.7" font-family="Helvetica,sans-Serif" font-size="10.00" fill="#63b8ff">2</text>
</a>
</g>
</g>
<!-- dir_9ba586a504c756f19720715161f17166 -->
<g id="node11" class="node">
<title>dir_9ba586a504c756f19720715161f17166</title>
<g id="a_node11"><a xlink:href="dir_9ba586a504c756f19720715161f17166.html" target="_top" xlink:title="rendering">
<polygon fill="#edf0f7" stroke="red" stroke-dasharray="5,2" points="417.5,-35 354.5,-35 354.5,-16 417.5,-16 417.5,-35"/>
<text text-anchor="middle" x="386" y="-23" font-family="Helvetica,sans-Serif" font-size="10.00">rendering</text>
</a>
</g>
</g>
<!-- dir_2036ee9c852531d6695ccc0e4c2def2c&#45;&gt;dir_9ba586a504c756f19720715161f17166 -->
<g id="edge8" class="edge">
<title>dir_2036ee9c852531d6695ccc0e4c2def2c&#45;&gt;dir_9ba586a504c756f19720715161f17166</title>
<g id="a_edge8"><a xlink:href="dir_000018_000037.html" target="_top">
<path fill="none" stroke="#63b8ff" d="M195.85,-70.95C202.78,-68.17 210.65,-65.23 218,-63 229.98,-59.37 298.44,-44.82 344.19,-35.22"/>
<polygon fill="#63b8ff" stroke="#63b8ff" points="345.08,-38.61 354.15,-33.13 343.64,-31.76 345.08,-38.61"/>
</a>
</g>
<g id="a_edge8&#45;headlabel"><a xlink:href="dir_000018_000037.html" target="_top" xlink:title="2">
<text text-anchor="middle" x="342.14" y="-39.62" font-family="Helvetica,sans-Serif" font-size="10.00" fill="#63b8ff">2</text>
</a>
</g>
</g>
<!-- dir_b6e017bc8c299f04fc1162fc4677be61 -->
<g id="node12" class="node">
<title>dir_b6e017bc8c299f04fc1162fc4677be61</title>
<g id="a_node12"><a xlink:href="dir_b6e017bc8c299f04fc1162fc4677be61.html" target="_top" xlink:title="scene">
<polygon fill="#edf0f7" stroke="#7f7f7f" points="531.5,-35 486.5,-35 486.5,-16 531.5,-16 531.5,-35"/>
<text text-anchor="middle" x="509" y="-23" font-family="Helvetica,sans-Serif" font-size="10.00">scene</text>
</a>
</g>
</g>
<!-- dir_2036ee9c852531d6695ccc0e4c2def2c&#45;&gt;dir_b6e017bc8c299f04fc1162fc4677be61 -->
<g id="edge9" class="edge">
<title>dir_2036ee9c852531d6695ccc0e4c2def2c&#45;&gt;dir_b6e017bc8c299f04fc1162fc4677be61</title>
<g id="a_edge9"><a xlink:href="dir_000018_000040.html" target="_top">
<path fill="none" stroke="#63b8ff" d="M194.89,-70.84C202,-67.91 210.24,-64.91 218,-63 327.36,-36.12 361.32,-55.04 476.46,-34.77"/>
<polygon fill="#63b8ff" stroke="#63b8ff" points="477.16,-38.2 486.37,-32.97 475.91,-31.31 477.16,-38.2"/>
</a>
</g>
<g id="a_edge9&#45;headlabel"><a xlink:href="dir_000018_000040.html" target="_top" xlink:title="1">
<text text-anchor="middle" x="474.13" y="-39.14" font-family="Helvetica,sans-Serif" font-size="10.00" fill="#63b8ff">1</text>
</a>
</g>
</g>
<!-- dir_d8be9b0e446dd8c9e5aa09f48fb49f4f&#45;&gt;dir_f71deafbc833970927ad1dfabdb805be -->
<g id="edge14" class="edge">
<title>dir_d8be9b0e446dd8c9e5aa09f48fb49f4f&#45;&gt;dir_f71deafbc833970927ad1dfabdb805be</title>
<g id="a_edge14"><a xlink:href="dir_000034_000005.html" target="_top">
<path fill="none" stroke="#63b8ff" d="M234.85,-70.91C229.43,-68.36 223.48,-65.56 218,-63 201.04,-55.09 182,-46.28 166.86,-39.31"/>
<polygon fill="#63b8ff" stroke="#63b8ff" points="168.08,-36.02 157.53,-35.01 165.15,-42.38 168.08,-36.02"/>
</a>
</g>
<g id="a_edge14&#45;headlabel"><a xlink:href="dir_000034_000005.html" target="_top" xlink:title="17">
<text text-anchor="middle" x="172.53" y="-32.44" font-family="Helvetica,sans-Serif" font-size="10.00" fill="#63b8ff">17</text>
</a>
</g>
</g>
<!-- dir_d8be9b0e446dd8c9e5aa09f48fb49f4f&#45;&gt;dir_0046d781185df00694c70533b055a138 -->
<g id="edge11" class="edge">
<title>dir_d8be9b0e446dd8c9e5aa09f48fb49f4f&#45;&gt;dir_0046d781185df00694c70533b055a138</title>
<g id="a_edge11"><a xlink:href="dir_000034_000028.html" target="_top">
<path fill="none" stroke="#63b8ff" d="M279.8,-76.47C329.35,-70.64 438.73,-56.66 540,-34.98"/>
<polygon fill="#63b8ff" stroke="#63b8ff" points="540.75,-38.4 549.78,-32.86 539.26,-31.56 540.75,-38.4"/>
</a>
</g>
<g id="a_edge11&#45;headlabel"><a xlink:href="dir_000034_000028.html" target="_top" xlink:title="4">
<text text-anchor="middle" x="537.84" y="-39.44" font-family="Helvetica,sans-Serif" font-size="10.00" fill="#63b8ff">4</text>
</a>
</g>
</g>
<!-- dir_6a0662f282a699b80270a7344921b324 -->
<g id="node9" class="node">
<title>dir_6a0662f282a699b80270a7344921b324</title>
<g id="a_node9"><a xlink:href="dir_6a0662f282a699b80270a7344921b324.html" target="_top" xlink:title="core">
<polygon fill="#edf0f7" stroke="#7f7f7f" points="648,-35 610,-35 610,-16 648,-16 648,-35"/>
<text text-anchor="middle" x="629" y="-23" font-family="Helvetica,sans-Serif" font-size="10.00">core</text>
</a>
</g>
</g>
<!-- dir_d8be9b0e446dd8c9e5aa09f48fb49f4f&#45;&gt;dir_6a0662f282a699b80270a7344921b324 -->
<g id="edge12" class="edge">
<title>dir_d8be9b0e446dd8c9e5aa09f48fb49f4f&#45;&gt;dir_6a0662f282a699b80270a7344921b324</title>
<g id="a_edge12"><a xlink:href="dir_000034_000009.html" target="_top">
<path fill="none" stroke="#63b8ff" d="M279.89,-77.61C337.11,-73.25 475.24,-60.99 599.75,-34.93"/>
<polygon fill="#63b8ff" stroke="#63b8ff" points="600.78,-38.29 609.83,-32.78 599.32,-31.44 600.78,-38.29"/>
</a>
</g>
<g id="a_edge12&#45;headlabel"><a xlink:href="dir_000034_000009.html" target="_top" xlink:title="2">
<text text-anchor="middle" x="597.86" y="-39.31" font-family="Helvetica,sans-Serif" font-size="10.00" fill="#63b8ff">2</text>
</a>
</g>
</g>
<!-- dir_d8be9b0e446dd8c9e5aa09f48fb49f4f&#45;&gt;dir_b6e017bc8c299f04fc1162fc4677be61 -->
<g id="edge13" class="edge">
<title>dir_d8be9b0e446dd8c9e5aa09f48fb49f4f&#45;&gt;dir_b6e017bc8c299f04fc1162fc4677be61</title>
<g id="a_edge13"><a xlink:href="dir_000034_000040.html" target="_top">
<path fill="none" stroke="#63b8ff" d="M279.67,-74.77C320.04,-67.48 399.28,-52.71 476.43,-35"/>
<polygon fill="#63b8ff" stroke="#63b8ff" points="477.37,-38.38 486.32,-32.72 475.79,-31.56 477.37,-38.38"/>
</a>
</g>
<g id="a_edge13&#45;headlabel"><a xlink:href="dir_000034_000040.html" target="_top" xlink:title="1">
<text text-anchor="middle" x="474.5" y="-39.46" font-family="Helvetica,sans-Serif" font-size="10.00" fill="#63b8ff">1</text>
</a>
</g>
</g>
<!-- dir_d35e9ff41279209263f6c1b8d9281645&#45;&gt;dir_f71deafbc833970927ad1dfabdb805be -->
<g id="edge15" class="edge">
<title>dir_d35e9ff41279209263f6c1b8d9281645&#45;&gt;dir_f71deafbc833970927ad1dfabdb805be</title>
<g id="a_edge15"><a xlink:href="dir_000035_000005.html" target="_top">
<path fill="none" stroke="#63b8ff" d="M58.02,-70.88C62.51,-68.33 67.45,-65.54 72,-63 85.83,-55.3 101.36,-46.83 113.97,-39.99"/>
<polygon fill="#63b8ff" stroke="#63b8ff" points="115.85,-42.96 122.98,-35.12 112.52,-36.8 115.85,-42.96"/>
</a>
</g>
<g id="a_edge15&#45;headlabel"><a xlink:href="dir_000035_000005.html" target="_top" xlink:title="4">
<text text-anchor="middle" x="114.04" y="-44.66" font-family="Helvetica,sans-Serif" font-size="10.00" fill="#63b8ff">4</text>
</a>
</g>
</g>
<!-- dir_e7b893978f127c9e8ada7b9c99db26af&#45;&gt;dir_f71deafbc833970927ad1dfabdb805be -->
<g id="edge17" class="edge">
<title>dir_e7b893978f127c9e8ada7b9c99db26af&#45;&gt;dir_f71deafbc833970927ad1dfabdb805be</title>
<g id="a_edge17"><a xlink:href="dir_000039_000005.html" target="_top">
<path fill="none" stroke="#63b8ff" d="M108.94,-70.75C113.98,-63.34 121.34,-52.5 127.51,-43.41"/>
<polygon fill="#63b8ff" stroke="#63b8ff" points="130.44,-45.33 133.17,-35.09 124.65,-41.39 130.44,-45.33"/>
</a>
</g>
<g id="a_edge17&#45;headlabel"><a xlink:href="dir_000039_000005.html" target="_top" xlink:title="2">
<text text-anchor="middle" x="130.77" y="-47.4" font-family="Helvetica,sans-Serif" font-size="10.00" fill="#63b8ff">2</text>
</a>
</g>
</g>
<!-- dir_e7b893978f127c9e8ada7b9c99db26af&#45;&gt;dir_b6e017bc8c299f04fc1162fc4677be61 -->
<g id="edge16" class="edge">
<title>dir_e7b893978f127c9e8ada7b9c99db26af&#45;&gt;dir_b6e017bc8c299f04fc1162fc4677be61</title>
<g id="a_edge16"><a xlink:href="dir_000039_000040.html" target="_top">
<path fill="none" stroke="#63b8ff" d="M116.84,-70.85C122.3,-67.85 128.75,-64.79 135,-63 278.47,-21.92 324.72,-59.22 476.25,-34.74"/>
<polygon fill="#63b8ff" stroke="#63b8ff" points="477.1,-38.15 486.38,-33.04 475.94,-31.25 477.1,-38.15"/>
</a>
</g>
<g id="a_edge16&#45;headlabel"><a xlink:href="dir_000039_000040.html" target="_top" xlink:title="1">
<text text-anchor="middle" x="474.03" y="-39.05" font-family="Helvetica,sans-Serif" font-size="10.00" fill="#63b8ff">1</text>
</a>
</g>
</g>
</g>
</svg>

<g id="navigator" transform="translate(0 0)" fill="#404254">
  <rect fill="#f2f5e9" fill-opacity="0.5" stroke="#606060" stroke-width=".5" x="0" y="0" width="60" height="60"/>
  <use id="zoomplus" xlink:href="#zoomPlus" x="17" y="9" onmousedown="handleZoom(evt,'in')"/>
  <use id="zoomminus" xlink:href="#zoomMin" x="42" y="9" onmousedown="handleZoom(evt,'out')"/>
  <use id="reset" xlink:href="#resetDef" x="30" y="36" onmousedown="handleReset()"/>
   <use id="arrowup" xlink:href="#arrowUp" x="0" y="0" onmousedown="handlePan(0,-1)"/>
  <use id="arrowright" xlink:href="#arrowRight" x="0" y="0" onmousedown="handlePan(1,0)"/>
  <use id="arrowdown" xlink:href="#arrowDown" x="0" y="0" onmousedown="handlePan(0,1)"/>
  <use id="arrowleft" xlink:href="#arrowLeft" x="0" y="0" onmousedown="handlePan(-1,0)"/>
</g>
<svg viewBox="0 0 15 15" width="100%" height="30px" preserveAspectRatio="xMaxYMin meet">
 <g id="arrow_out" transform="scale(0.3 0.3)">
  <a xlink:href="dir_36ea2b7be3cb8c26515d956982029a89_dep_org.svg" target="_base">
   <rect id="button" ry="5" rx="5" y="6" x="6" height="38" width="38"
        fill="#f2f5e9" fill-opacity="0.5" stroke="#606060" stroke-width="1.0"/>
   <path id="arrow"
     d="M 11.500037,31.436501 C 11.940474,20.09759 22.043105,11.32322 32.158766,21.979434 L 37.068811,17.246167 C 37.068811,17.246167 37.088388,32 37.088388,32 L 22.160133,31.978069 C 22.160133,31.978069 26.997745,27.140456 26.997745,27.140456 C 18.528582,18.264221 13.291696,25.230495 11.500037,31.436501 z"
     style="fill:#404040;"/>
  </a>
 </g>
</svg>

<style type='text/css'>
<![CDATA[
[data-mouse-over-selected='false'] { opacity: 0.7; }
[data-mouse-over-selected='true']  { opacity: 1.0; }
]]>
</style>
<script type="application/ecmascript"><![CDATA[
document.addEventListener('DOMContentLoaded', (event) => {
  highlightEdges();
  highlightAdjacentNodes();
});
]]></script>
</svg>
