<?xml version="1.0" encoding="UTF-8" standalone="no"?>
<!DOCTYPE svg PUBLIC "-//W3C//DTD SVG 1.1//EN"
 "http://www.w3.org/Graphics/SVG/1.1/DTD/svg11.dtd">
<!-- Generated by graphviz version 2.43.0 (0)
 -->
<!-- Title: include/helios Pages: 1 -->
<svg width="294pt" height="314pt"
 viewBox="0.00 0.00 294.00 314.00" xmlns="http://www.w3.org/2000/svg" xmlns:xlink="http://www.w3.org/1999/xlink">
<g id="graph0" class="graph" transform="scale(1 1) rotate(0) translate(4 310)">
<title>include/helios</title>
<g id="clust1" class="cluster">
<title>clusterdir_d44c64559bbebec7f509842c48db8b23</title>
<g id="a_clust1"><a xlink:href="dir_d44c64559bbebec7f509842c48db8b23.html" target="_top" xlink:title="include">
<polygon fill="#edf0f7" stroke="#404040" stroke-dasharray="5,2" points="8,-8 8,-298 278,-298 278,-8 8,-8"/>
<text text-anchor="middle" x="143" y="-286" font-family="Helvetica,sans-Serif" font-size="10.00">include</text>
</a>
</g>
</g>
<g id="clust2" class="cluster">
<title>clusterdir_08c09894bd9f0ab4b1e9fdc7a2628766</title>
<g id="a_clust2"><a xlink:href="dir_08c09894bd9f0ab4b1e9fdc7a2628766.html" target="_top">
<polygon fill="#edf0f7" stroke="#404040" stroke-width="2" points="16,-16 16,-271 270,-271 270,-16 16,-16"/>
</a>
</g>
</g>
<!-- dir_08c09894bd9f0ab4b1e9fdc7a2628766 -->
<g id="node1" class="node">
<title>dir_08c09894bd9f0ab4b1e9fdc7a2628766</title>
<text text-anchor="middle" x="239" y="-251" font-family="Helvetica,sans-Serif" font-size="10.00">helios</text>
</g>
<!-- dir_5426d89496cb30043662afccf5b53207 -->
<g id="node2" class="node">
<title>dir_5426d89496cb30043662afccf5b53207</title>
<g id="a_node2"><a xlink:href="dir_5426d89496cb30043662afccf5b53207.html" target="_top" xlink:title="app">
<polygon fill="#a2b4d6" stroke="#404040" points="197.5,-263 162.5,-263 162.5,-244 197.5,-244 197.5,-263"/>
<text text-anchor="middle" x="180" y="-251" font-family="Helvetica,sans-Serif" font-size="10.00">app</text>
</a>
</g>
</g>
<!-- dir_9b52b993eaa3e3f802dc9c71987b2802 -->
<g id="node4" class="node">
<title>dir_9b52b993eaa3e3f802dc9c71987b2802</title>
<g id="a_node4"><a xlink:href="dir_9b52b993eaa3e3f802dc9c71987b2802.html" target="_top" xlink:title="event">
<polygon fill="#a2b4d6" stroke="#404040" points="232,-98 188,-98 188,-79 232,-79 232,-98"/>
<text text-anchor="middle" x="210" y="-86" font-family="Helvetica,sans-Serif" font-size="10.00">event</text>
</a>
</g>
</g>
<!-- dir_5426d89496cb30043662afccf5b53207&#45;&gt;dir_9b52b993eaa3e3f802dc9c71987b2802 -->
<g id="edge3" class="edge">
<title>dir_5426d89496cb30043662afccf5b53207&#45;&gt;dir_9b52b993eaa3e3f802dc9c71987b2802</title>
<g id="a_edge3"><a xlink:href="dir_000001_000009.html" target="_top">
<path fill="none" stroke="#63b8ff" d="M186.33,-243.75C197.94,-227.08 222.26,-189.23 231,-153 234.78,-137.32 228.28,-119.97 221.54,-107.37"/>
<polygon fill="#63b8ff" stroke="#63b8ff" points="224.36,-105.26 216.28,-98.41 218.32,-108.8 224.36,-105.26"/>
</a>
</g>
<g id="a_edge3&#45;headlabel"><a xlink:href="dir_000001_000009.html" target="_top" xlink:title="3">
<text text-anchor="middle" x="228.63" y="-104.42" font-family="Helvetica,sans-Serif" font-size="10.00" fill="#63b8ff">3</text>
</a>
</g>
</g>
<!-- dir_58a7612d3773fb780b0e5d4a861b7b53 -->
<g id="node5" class="node">
<title>dir_58a7612d3773fb780b0e5d4a861b7b53</title>
<g id="a_node5"><a xlink:href="dir_58a7612d3773fb780b0e5d4a861b7b53.html" target="_top" xlink:title="input">
<polygon fill="#a2b4d6" stroke="#404040" points="171.5,-208 130.5,-208 130.5,-189 171.5,-189 171.5,-208"/>
<text text-anchor="middle" x="151" y="-196" font-family="Helvetica,sans-Serif" font-size="10.00">input</text>
</a>
</g>
</g>
<!-- dir_5426d89496cb30043662afccf5b53207&#45;&gt;dir_58a7612d3773fb780b0e5d4a861b7b53 -->
<g id="edge1" class="edge">
<title>dir_5426d89496cb30043662afccf5b53207&#45;&gt;dir_58a7612d3773fb780b0e5d4a861b7b53</title>
<g id="a_edge1"><a xlink:href="dir_000001_000016.html" target="_top">
<path fill="none" stroke="#63b8ff" d="M175.21,-243.75C171.24,-236.49 165.47,-225.95 160.57,-216.98"/>
<polygon fill="#63b8ff" stroke="#63b8ff" points="163.57,-215.18 155.7,-208.09 157.43,-218.54 163.57,-215.18"/>
</a>
</g>
<g id="a_edge1&#45;headlabel"><a xlink:href="dir_000001_000016.html" target="_top" xlink:title="1">
<text text-anchor="middle" x="167.79" y="-214.47" font-family="Helvetica,sans-Serif" font-size="10.00" fill="#63b8ff">1</text>
</a>
</g>
</g>
<!-- dir_9ba586a504c756f19720715161f17166 -->
<g id="node7" class="node">
<title>dir_9ba586a504c756f19720715161f17166</title>
<g id="a_node7"><a xlink:href="dir_9ba586a504c756f19720715161f17166.html" target="_top" xlink:title="rendering">
<polygon fill="#a2b4d6" stroke="#404040" points="98.5,-208 35.5,-208 35.5,-189 98.5,-189 98.5,-208"/>
<text text-anchor="middle" x="67" y="-196" font-family="Helvetica,sans-Serif" font-size="10.00">rendering</text>
</a>
</g>
</g>
<!-- dir_5426d89496cb30043662afccf5b53207&#45;&gt;dir_9ba586a504c756f19720715161f17166 -->
<g id="edge4" class="edge">
<title>dir_5426d89496cb30043662afccf5b53207&#45;&gt;dir_9ba586a504c756f19720715161f17166</title>
<g id="a_edge4"><a xlink:href="dir_000001_000024.html" target="_top">
<path fill="none" stroke="#63b8ff" d="M162.34,-244.22C144.15,-235.69 115.54,-222.27 94.4,-212.35"/>
<polygon fill="#63b8ff" stroke="#63b8ff" points="95.82,-209.15 85.28,-208.07 92.85,-215.49 95.82,-209.15"/>
</a>
</g>
<g id="a_edge4&#45;headlabel"><a xlink:href="dir_000001_000024.html" target="_top" xlink:title="3">
<text text-anchor="middle" x="100.28" y="-205.61" font-family="Helvetica,sans-Serif" font-size="10.00" fill="#63b8ff">3</text>
</a>
</g>
</g>
<!-- dir_7f0768799dd37ef2f2adcdfec91ab1e9 -->
<g id="node9" class="node">
<title>dir_7f0768799dd37ef2f2adcdfec91ab1e9</title>
<g id="a_node9"><a xlink:href="dir_7f0768799dd37ef2f2adcdfec91ab1e9.html" target="_top" xlink:title="util">
<polygon fill="#a2b4d6" stroke="#404040" points="175,-43 143,-43 143,-24 175,-24 175,-43"/>
<text text-anchor="middle" x="159" y="-31" font-family="Helvetica,sans-Serif" font-size="10.00">util</text>
</a>
</g>
</g>
<!-- dir_5426d89496cb30043662afccf5b53207&#45;&gt;dir_7f0768799dd37ef2f2adcdfec91ab1e9 -->
<g id="edge2" class="edge">
<title>dir_5426d89496cb30043662afccf5b53207&#45;&gt;dir_7f0768799dd37ef2f2adcdfec91ab1e9</title>
<g id="a_edge2"><a xlink:href="dir_000001_000032.html" target="_top">
<path fill="none" stroke="#63b8ff" d="M189.31,-243.76C197.83,-235.32 210.24,-221.82 218,-208 246.51,-157.22 270.78,-129.05 241,-79 228.92,-58.71 204.01,-47.09 184.79,-40.86"/>
<polygon fill="#63b8ff" stroke="#63b8ff" points="185.67,-37.47 175.09,-38 183.69,-44.18 185.67,-37.47"/>
</a>
</g>
<g id="a_edge2&#45;headlabel"><a xlink:href="dir_000001_000032.html" target="_top" xlink:title="2">
<text text-anchor="middle" x="189.92" y="-33.26" font-family="Helvetica,sans-Serif" font-size="10.00" fill="#63b8ff">2</text>
</a>
</g>
</g>
<!-- dir_f420875d55816fb78e81b706f36fb7ba -->
<g id="node10" class="node">
<title>dir_f420875d55816fb78e81b706f36fb7ba</title>
<g id="a_node10"><a xlink:href="dir_f420875d55816fb78e81b706f36fb7ba.html" target="_top" xlink:title="window">
<polygon fill="#a2b4d6" stroke="#404040" points="222,-153 168,-153 168,-134 222,-134 222,-153"/>
<text text-anchor="middle" x="195" y="-141" font-family="Helvetica,sans-Serif" font-size="10.00">window</text>
</a>
</g>
</g>
<!-- dir_5426d89496cb30043662afccf5b53207&#45;&gt;dir_f420875d55816fb78e81b706f36fb7ba -->
<g id="edge5" class="edge">
<title>dir_5426d89496cb30043662afccf5b53207&#45;&gt;dir_f420875d55816fb78e81b706f36fb7ba</title>
<g id="a_edge5"><a xlink:href="dir_000001_000034.html" target="_top">
<path fill="none" stroke="#63b8ff" d="M181.23,-243.66C183.66,-226.17 189.12,-186.8 192.39,-163.27"/>
<polygon fill="#63b8ff" stroke="#63b8ff" points="195.89,-163.54 193.8,-153.16 188.95,-162.58 195.89,-163.54"/>
</a>
</g>
<g id="a_edge5&#45;headlabel"><a xlink:href="dir_000001_000034.html" target="_top" xlink:title="4">
<text text-anchor="middle" x="198.21" y="-165" font-family="Helvetica,sans-Serif" font-size="10.00" fill="#63b8ff">4</text>
</a>
</g>
</g>
<!-- dir_860c9de2f65c10e8e262a0e7b5bfee5e -->
<g id="node3" class="node">
<title>dir_860c9de2f65c10e8e262a0e7b5bfee5e</title>
<g id="a_node3"><a xlink:href="dir_860c9de2f65c10e8e262a0e7b5bfee5e.html" target="_top" xlink:title="engine">
<polygon fill="#a2b4d6" stroke="#404040" points="109,-263 59,-263 59,-244 109,-244 109,-263"/>
<text text-anchor="middle" x="84" y="-251" font-family="Helvetica,sans-Serif" font-size="10.00">engine</text>
</a>
</g>
</g>
<!-- dir_9b52b993eaa3e3f802dc9c71987b2802&#45;&gt;dir_7f0768799dd37ef2f2adcdfec91ab1e9 -->
<g id="edge6" class="edge">
<title>dir_9b52b993eaa3e3f802dc9c71987b2802&#45;&gt;dir_7f0768799dd37ef2f2adcdfec91ab1e9</title>
<g id="a_edge6"><a xlink:href="dir_000009_000032.html" target="_top">
<path fill="none" stroke="#63b8ff" d="M201.58,-78.75C194.23,-71.11 183.37,-59.82 174.46,-50.56"/>
<polygon fill="#63b8ff" stroke="#63b8ff" points="176.72,-47.87 167.26,-43.09 171.68,-52.72 176.72,-47.87"/>
</a>
</g>
<g id="a_edge6&#45;headlabel"><a xlink:href="dir_000009_000032.html" target="_top" xlink:title="1">
<text text-anchor="middle" x="181.26" y="-45.99" font-family="Helvetica,sans-Serif" font-size="10.00" fill="#63b8ff">1</text>
</a>
</g>
</g>
<!-- dir_0046d781185df00694c70533b055a138 -->
<g id="node6" class="node">
<title>dir_0046d781185df00694c70533b055a138</title>
<g id="a_node6"><a xlink:href="dir_0046d781185df00694c70533b055a138.html" target="_top" xlink:title="math">
<polygon fill="#a2b4d6" stroke="#404040" points="130,-98 88,-98 88,-79 130,-79 130,-98"/>
<text text-anchor="middle" x="109" y="-86" font-family="Helvetica,sans-Serif" font-size="10.00">math</text>
</a>
</g>
</g>
<!-- dir_58a7612d3773fb780b0e5d4a861b7b53&#45;&gt;dir_0046d781185df00694c70533b055a138 -->
<g id="edge7" class="edge">
<title>dir_58a7612d3773fb780b0e5d4a861b7b53&#45;&gt;dir_0046d781185df00694c70533b055a138</title>
<g id="a_edge7"><a xlink:href="dir_000016_000019.html" target="_top">
<path fill="none" stroke="#63b8ff" d="M147.56,-188.66C140.7,-171.01 125.17,-131.09 116.05,-107.64"/>
<polygon fill="#63b8ff" stroke="#63b8ff" points="119.25,-106.21 112.37,-98.16 112.73,-108.75 119.25,-106.21"/>
</a>
</g>
<g id="a_edge7&#45;headlabel"><a xlink:href="dir_000016_000019.html" target="_top" xlink:title="1">
<text text-anchor="middle" x="123.2" y="-106.03" font-family="Helvetica,sans-Serif" font-size="10.00" fill="#63b8ff">1</text>
</a>
</g>
</g>
<!-- dir_58a7612d3773fb780b0e5d4a861b7b53&#45;&gt;dir_7f0768799dd37ef2f2adcdfec91ab1e9 -->
<g id="edge8" class="edge">
<title>dir_58a7612d3773fb780b0e5d4a861b7b53&#45;&gt;dir_7f0768799dd37ef2f2adcdfec91ab1e9</title>
<g id="a_edge8"><a xlink:href="dir_000016_000032.html" target="_top">
<path fill="none" stroke="#63b8ff" d="M151.43,-188.74C152.68,-163.31 156.32,-89.08 158.06,-53.69"/>
<polygon fill="#63b8ff" stroke="#63b8ff" points="161.57,-53.47 158.57,-43.31 154.58,-53.12 161.57,-53.47"/>
</a>
</g>
<g id="a_edge8&#45;headlabel"><a xlink:href="dir_000016_000032.html" target="_top" xlink:title="6">
<text text-anchor="middle" x="164.23" y="-54.7" font-family="Helvetica,sans-Serif" font-size="10.00" fill="#63b8ff">6</text>
</a>
</g>
</g>
<!-- dir_58a7612d3773fb780b0e5d4a861b7b53&#45;&gt;dir_f420875d55816fb78e81b706f36fb7ba -->
<g id="edge9" class="edge">
<title>dir_58a7612d3773fb780b0e5d4a861b7b53&#45;&gt;dir_f420875d55816fb78e81b706f36fb7ba</title>
<g id="a_edge9"><a xlink:href="dir_000016_000034.html" target="_top">
<path fill="none" stroke="#63b8ff" d="M158.27,-188.75C164.54,-181.18 173.79,-170.05 181.43,-160.84"/>
<polygon fill="#63b8ff" stroke="#63b8ff" points="184.17,-163.02 187.87,-153.09 178.79,-158.55 184.17,-163.02"/>
</a>
</g>
<g id="a_edge9&#45;headlabel"><a xlink:href="dir_000016_000034.html" target="_top" xlink:title="2">
<text text-anchor="middle" x="184.06" y="-165.1" font-family="Helvetica,sans-Serif" font-size="10.00" fill="#63b8ff">2</text>
</a>
</g>
</g>
<!-- dir_9ba586a504c756f19720715161f17166&#45;&gt;dir_0046d781185df00694c70533b055a138 -->
<g id="edge10" class="edge">
<title>dir_9ba586a504c756f19720715161f17166&#45;&gt;dir_0046d781185df00694c70533b055a138</title>
<g id="a_edge10"><a xlink:href="dir_000024_000019.html" target="_top">
<path fill="none" stroke="#63b8ff" d="M74.66,-188.98C81.86,-180.49 92.34,-166.76 98,-153 103.92,-138.59 106.66,-121.08 107.92,-108.09"/>
<polygon fill="#63b8ff" stroke="#63b8ff" points="111.41,-108.28 108.69,-98.04 104.43,-107.74 111.41,-108.28"/>
</a>
</g>
<g id="a_edge10&#45;headlabel"><a xlink:href="dir_000024_000019.html" target="_top" xlink:title="9">
<text text-anchor="middle" x="113.97" y="-109.58" font-family="Helvetica,sans-Serif" font-size="10.00" fill="#63b8ff">9</text>
</a>
</g>
</g>
<!-- dir_b6e017bc8c299f04fc1162fc4677be61 -->
<g id="node8" class="node">
<title>dir_b6e017bc8c299f04fc1162fc4677be61</title>
<g id="a_node8"><a xlink:href="dir_b6e017bc8c299f04fc1162fc4677be61.html" target="_top" xlink:title="scene">
<polygon fill="#a2b4d6" stroke="#404040" points="89.5,-153 44.5,-153 44.5,-134 89.5,-134 89.5,-153"/>
<text text-anchor="middle" x="67" y="-141" font-family="Helvetica,sans-Serif" font-size="10.00">scene</text>
</a>
</g>
</g>
<!-- dir_9ba586a504c756f19720715161f17166&#45;&gt;dir_b6e017bc8c299f04fc1162fc4677be61 -->
<g id="edge12" class="edge">
<title>dir_9ba586a504c756f19720715161f17166&#45;&gt;dir_b6e017bc8c299f04fc1162fc4677be61</title>
<g id="a_edge12"><a xlink:href="dir_000024_000025.html" target="_top">
<path fill="none" stroke="#63b8ff" d="M61.83,-188.75C60.34,-181.8 59.9,-171.85 60.52,-163.13"/>
<polygon fill="#63b8ff" stroke="#63b8ff" points="64.01,-163.47 61.87,-153.09 57.07,-162.53 64.01,-163.47"/>
</a>
</g>
<g id="a_edge12&#45;headlabel"><a xlink:href="dir_000024_000025.html" target="_top" xlink:title="2">
<text text-anchor="middle" x="66.34" y="-164.91" font-family="Helvetica,sans-Serif" font-size="10.00" fill="#63b8ff">2</text>
</a>
</g>
</g>
<!-- dir_9ba586a504c756f19720715161f17166&#45;&gt;dir_7f0768799dd37ef2f2adcdfec91ab1e9 -->
<g id="edge11" class="edge">
<title>dir_9ba586a504c756f19720715161f17166&#45;&gt;dir_7f0768799dd37ef2f2adcdfec91ab1e9</title>
<g id="a_edge11"><a xlink:href="dir_000024_000032.html" target="_top">
<path fill="none" stroke="#63b8ff" d="M58.25,-188.9C50.44,-180.56 39.55,-167.13 35,-153 24.01,-118.89 40.71,-103.35 67,-79 85.95,-61.44 113.11,-49.46 133.01,-42.39"/>
<polygon fill="#63b8ff" stroke="#63b8ff" points="134.31,-45.65 142.67,-39.14 132.07,-39.01 134.31,-45.65"/>
</a>
</g>
<g id="a_edge11&#45;headlabel"><a xlink:href="dir_000024_000032.html" target="_top" xlink:title="16">
<text text-anchor="middle" x="131.81" y="-46.99" font-family="Helvetica,sans-Serif" font-size="10.00" fill="#63b8ff">16</text>
</a>
</g>
</g>
<!-- dir_b6e017bc8c299f04fc1162fc4677be61&#45;&gt;dir_0046d781185df00694c70533b055a138 -->
<g id="edge13" class="edge">
<title>dir_b6e017bc8c299f04fc1162fc4677be61&#45;&gt;dir_0046d781185df00694c70533b055a138</title>
<g id="a_edge13"><a xlink:href="dir_000025_000019.html" target="_top">
<path fill="none" stroke="#63b8ff" d="M73.94,-133.75C79.87,-126.26 88.57,-115.28 95.82,-106.13"/>
<polygon fill="#63b8ff" stroke="#63b8ff" points="98.73,-108.1 102.19,-98.09 93.24,-103.75 98.73,-108.1"/>
</a>
</g>
<g id="a_edge13&#45;headlabel"><a xlink:href="dir_000025_000019.html" target="_top" xlink:title="7">
<text text-anchor="middle" x="98.72" y="-110.18" font-family="Helvetica,sans-Serif" font-size="10.00" fill="#63b8ff">7</text>
</a>
</g>
</g>
<!-- dir_b6e017bc8c299f04fc1162fc4677be61&#45;&gt;dir_9ba586a504c756f19720715161f17166 -->
<g id="edge15" class="edge">
<title>dir_b6e017bc8c299f04fc1162fc4677be61&#45;&gt;dir_9ba586a504c756f19720715161f17166</title>
<g id="a_edge15"><a xlink:href="dir_000025_000024.html" target="_top">
<path fill="none" stroke="#63b8ff" d="M72.13,-153.09C73.64,-159.99 74.09,-169.93 73.49,-178.66"/>
<polygon fill="#63b8ff" stroke="#63b8ff" points="70,-178.38 72.17,-188.75 76.94,-179.29 70,-178.38"/>
</a>
</g>
<g id="a_edge15&#45;headlabel"><a xlink:href="dir_000025_000024.html" target="_top" xlink:title="2">
<text text-anchor="middle" x="67.65" y="-171.94" font-family="Helvetica,sans-Serif" font-size="10.00" fill="#63b8ff">2</text>
</a>
</g>
</g>
<!-- dir_b6e017bc8c299f04fc1162fc4677be61&#45;&gt;dir_7f0768799dd37ef2f2adcdfec91ab1e9 -->
<g id="edge14" class="edge">
<title>dir_b6e017bc8c299f04fc1162fc4677be61&#45;&gt;dir_7f0768799dd37ef2f2adcdfec91ab1e9</title>
<g id="a_edge14"><a xlink:href="dir_000025_000032.html" target="_top">
<path fill="none" stroke="#63b8ff" d="M66.43,-133.8C66.03,-120.67 67.05,-95.56 79,-79 92.12,-60.81 115.08,-49.16 133.05,-42.36"/>
<polygon fill="#63b8ff" stroke="#63b8ff" points="134.4,-45.59 142.68,-38.98 132.08,-38.99 134.4,-45.59"/>
</a>
</g>
<g id="a_edge14&#45;headlabel"><a xlink:href="dir_000025_000032.html" target="_top" xlink:title="3">
<text text-anchor="middle" x="131.94" y="-46.96" font-family="Helvetica,sans-Serif" font-size="10.00" fill="#63b8ff">3</text>
</a>
</g>
</g>
<!-- dir_f420875d55816fb78e81b706f36fb7ba&#45;&gt;dir_9b52b993eaa3e3f802dc9c71987b2802 -->
<g id="edge18" class="edge">
<title>dir_f420875d55816fb78e81b706f36fb7ba&#45;&gt;dir_9b52b993eaa3e3f802dc9c71987b2802</title>
<g id="a_edge18"><a xlink:href="dir_000034_000009.html" target="_top">
<path fill="none" stroke="#63b8ff" d="M197.48,-133.75C199.46,-126.72 202.32,-116.62 204.81,-107.84"/>
<polygon fill="#63b8ff" stroke="#63b8ff" points="208.21,-108.66 207.57,-98.09 201.48,-106.76 208.21,-108.66"/>
</a>
</g>
<g id="a_edge18&#45;headlabel"><a xlink:href="dir_000034_000009.html" target="_top" xlink:title="1">
<text text-anchor="middle" x="209.97" y="-110.4" font-family="Helvetica,sans-Serif" font-size="10.00" fill="#63b8ff">1</text>
</a>
</g>
</g>
<!-- dir_f420875d55816fb78e81b706f36fb7ba&#45;&gt;dir_0046d781185df00694c70533b055a138 -->
<g id="edge16" class="edge">
<title>dir_f420875d55816fb78e81b706f36fb7ba&#45;&gt;dir_0046d781185df00694c70533b055a138</title>
<g id="a_edge16"><a xlink:href="dir_000034_000019.html" target="_top">
<path fill="none" stroke="#63b8ff" d="M181.18,-133.98C167.85,-125.77 147.42,-113.18 131.69,-103.49"/>
<polygon fill="#63b8ff" stroke="#63b8ff" points="133.42,-100.44 123.07,-98.17 129.75,-106.4 133.42,-100.44"/>
</a>
</g>
<g id="a_edge16&#45;headlabel"><a xlink:href="dir_000034_000019.html" target="_top" xlink:title="2">
<text text-anchor="middle" x="137.97" y="-97.41" font-family="Helvetica,sans-Serif" font-size="10.00" fill="#63b8ff">2</text>
</a>
</g>
</g>
<!-- dir_f420875d55816fb78e81b706f36fb7ba&#45;&gt;dir_7f0768799dd37ef2f2adcdfec91ab1e9 -->
<g id="edge17" class="edge">
<title>dir_f420875d55816fb78e81b706f36fb7ba&#45;&gt;dir_7f0768799dd37ef2f2adcdfec91ab1e9</title>
<g id="a_edge17"><a xlink:href="dir_000034_000032.html" target="_top">
<path fill="none" stroke="#63b8ff" d="M191.71,-133.67C188.4,-124.72 183.2,-110.45 179,-98 173.92,-82.92 168.52,-65.7 164.61,-52.99"/>
<polygon fill="#63b8ff" stroke="#63b8ff" points="167.88,-51.7 161.61,-43.16 161.18,-53.75 167.88,-51.7"/>
</a>
</g>
<g id="a_edge17&#45;headlabel"><a xlink:href="dir_000034_000032.html" target="_top" xlink:title="5">
<text text-anchor="middle" x="171.64" y="-51.81" font-family="Helvetica,sans-Serif" font-size="10.00" fill="#63b8ff">5</text>
</a>
</g>
</g>
</g>
</svg>
