<?xml version="1.0" encoding="UTF-8" standalone="no"?>
<!DOCTYPE svg PUBLIC "-//W3C//DTD SVG 1.1//EN"
 "http://www.w3.org/Graphics/SVG/1.1/DTD/svg11.dtd">
<!-- Generated by graphviz version 2.43.0 (0)
 -->
<!-- Title: include/helios Pages: 1 -->
<!--zoomable 479 -->

<svg id="main" version="1.1" xmlns="http://www.w3.org/2000/svg" xmlns:xlink="http://www.w3.org/1999/xlink" xml:space="preserve" onload="init(evt)">

<style type="text/css"><![CDATA[
.node, .edge {opacity: 0.7;}
.node.selected, .edge.selected {opacity: 1;}
.edge:hover path { stroke: red; }
.edge:hover polygon { stroke: red; fill: red; }
]]></style>

<defs>
  <circle id="rim" cx="0" cy="0" r="7"/>
  <circle id="rim2" cx="0" cy="0" r="3.5"/>
  <g id="zoomPlus">
    <use xlink:href="#rim" fill="#404040"><set attributeName="fill" to="#808080" begin="zoomplus.mouseover" end="zoomplus.mouseout"/></use>
    <path d="M-4,0h8M0,-4v8" fill="none" stroke="white" stroke-width="1.5" pointer-events="none"/>
  </g>
  <g id="zoomMin">
    <use xlink:href="#rim" fill="#404040"><set attributeName="fill" to="#808080" begin="zoomminus.mouseover" end="zoomminus.mouseout"/></use>
    <path d="M-4,0h8" fill="none" stroke="white" stroke-width="1.5" pointer-events="none"/>
  </g>
  <g id="arrowUp" transform="translate(30 24)">
    <use xlink:href="#rim"/>
    <path pointer-events="none" fill="none" stroke="white" stroke-width="1.5" d="M0,-3.0v7 M-2.5,-0.5L0,-3.0L2.5,-0.5"/>
  </g>
  <g id="arrowRight" transform="rotate(90) translate(36 -43)">
    <use xlink:href="#rim"/>
    <path pointer-events="none" fill="none" stroke="white" stroke-width="1.5" d="M0,-3.0v7 M-2.5,-0.5L0,-3.0L2.5,-0.5"/>
  </g>
  <g id="arrowDown" transform="rotate(180) translate(-30 -48)">
    <use xlink:href="#rim"/>
    <path pointer-events="none" fill="none" stroke="white" stroke-width="1.5" d="M0,-3.0v7 M-2.5,-0.5L0,-3.0L2.5,-0.5"/>
  </g>
  <g id="arrowLeft" transform="rotate(270) translate(-36 17)">
    <use xlink:href="#rim"/>
    <path pointer-events="none" fill="none" stroke="white" stroke-width="1.5" d="M0,-3.0v7 M-2.5,-0.5L0,-3.0L2.5,-0.5"/>
  </g>
  <g id="resetDef">
    <use xlink:href="#rim2" fill="#404040"><set attributeName="fill" to="#808080" begin="reset.mouseover" end="reset.mouseout"/></use>
  </g>
</defs>
<script type="application/ecmascript">
var viewWidth = 402;
var viewHeight = 479;
var sectionId = 'dynsection-0';
</script>
<script type="application/ecmascript" xlink:href="svg.min.js"/>
<svg id="graph" class="graph">
<g id="viewport">
<title>include/helios</title>
<g id="clust1" class="cluster">
<title>clusterdir_d44c64559bbebec7f509842c48db8b23</title>
<g id="a_clust1"><a xlink:href="dir_d44c64559bbebec7f509842c48db8b23.html" target="_top" xlink:title="include">
<polygon fill="#edf0f7" stroke="#404040" stroke-dasharray="5,2" points="8,-8 8,-463 386,-463 386,-8 8,-8"/>
<text text-anchor="middle" x="197" y="-451" font-family="Helvetica,sans-Serif" font-size="10.00">include</text>
</a>
</g>
</g>
<g id="clust2" class="cluster">
<title>clusterdir_08c09894bd9f0ab4b1e9fdc7a2628766</title>
<g id="a_clust2"><a xlink:href="dir_08c09894bd9f0ab4b1e9fdc7a2628766.html" target="_top">
<polygon fill="#edf0f7" stroke="#404040" stroke-width="2" points="16,-16 16,-436 338,-436 338,-16 16,-16"/>
</a>
</g>
</g>
<!-- dir_106756a8ee71bdde7f7b779a3a0a52e4 -->
<g id="node1" class="node">
<title>dir_106756a8ee71bdde7f7b779a3a0a52e4</title>
<g id="a_node1"><a xlink:href="dir_106756a8ee71bdde7f7b779a3a0a52e4.html" target="_top" xlink:title="ext">
<polygon fill="#a2b4d6" stroke="red" points="378,-318 346,-318 346,-299 378,-299 378,-318"/>
<text text-anchor="middle" x="362" y="-306" font-family="Helvetica,sans-Serif" font-size="10.00">ext</text>
</a>
</g>
</g>
<!-- dir_08c09894bd9f0ab4b1e9fdc7a2628766 -->
<g id="node2" class="node">
<title>dir_08c09894bd9f0ab4b1e9fdc7a2628766</title>
<text text-anchor="middle" x="250" y="-416" font-family="Helvetica,sans-Serif" font-size="10.00">helios</text>
</g>
<!-- dir_5426d89496cb30043662afccf5b53207 -->
<g id="node3" class="node">
<title>dir_5426d89496cb30043662afccf5b53207</title>
<g id="a_node3"><a xlink:href="dir_5426d89496cb30043662afccf5b53207.html" target="_top" xlink:title="app">
<polygon fill="#a2b4d6" stroke="#404040" points="264.5,-373 229.5,-373 229.5,-354 264.5,-354 264.5,-373"/>
<text text-anchor="middle" x="247" y="-361" font-family="Helvetica,sans-Serif" font-size="10.00">app</text>
</a>
</g>
</g>
<!-- dir_9b52b993eaa3e3f802dc9c71987b2802 -->
<g id="node6" class="node">
<title>dir_9b52b993eaa3e3f802dc9c71987b2802</title>
<g id="a_node6"><a xlink:href="dir_9b52b993eaa3e3f802dc9c71987b2802.html" target="_top" xlink:title="event">
<polygon fill="#a2b4d6" stroke="#404040" points="310,-208 266,-208 266,-189 310,-189 310,-208"/>
<text text-anchor="middle" x="288" y="-196" font-family="Helvetica,sans-Serif" font-size="10.00">event</text>
</a>
</g>
</g>
<!-- dir_5426d89496cb30043662afccf5b53207&#45;&gt;dir_9b52b993eaa3e3f802dc9c71987b2802 -->
<g id="edge3" class="edge">
<title>dir_5426d89496cb30043662afccf5b53207&#45;&gt;dir_9b52b993eaa3e3f802dc9c71987b2802</title>
<g id="a_edge3"><a xlink:href="dir_000001_000012.html" target="_top">
<path fill="none" stroke="#63b8ff" d="M254.67,-354C268.75,-337.75 298.25,-300.57 309,-263 313.53,-247.16 306.59,-229.38 299.51,-216.67"/>
<polygon fill="#63b8ff" stroke="#63b8ff" points="302.44,-214.77 294.24,-208.06 296.47,-218.42 302.44,-214.77"/>
</a>
</g>
<g id="a_edge3&#45;headlabel"><a xlink:href="dir_000001_000012.html" target="_top" xlink:title="3">
<text text-anchor="middle" x="306.74" y="-213.86" font-family="Helvetica,sans-Serif" font-size="10.00" fill="#63b8ff">3</text>
</a>
</g>
</g>
<!-- dir_58a7612d3773fb780b0e5d4a861b7b53 -->
<g id="node7" class="node">
<title>dir_58a7612d3773fb780b0e5d4a861b7b53</title>
<g id="a_node7"><a xlink:href="dir_58a7612d3773fb780b0e5d4a861b7b53.html" target="_top" xlink:title="input">
<polygon fill="#a2b4d6" stroke="#404040" points="227.5,-318 186.5,-318 186.5,-299 227.5,-299 227.5,-318"/>
<text text-anchor="middle" x="207" y="-306" font-family="Helvetica,sans-Serif" font-size="10.00">input</text>
</a>
</g>
</g>
<!-- dir_5426d89496cb30043662afccf5b53207&#45;&gt;dir_58a7612d3773fb780b0e5d4a861b7b53 -->
<g id="edge1" class="edge">
<title>dir_5426d89496cb30043662afccf5b53207&#45;&gt;dir_58a7612d3773fb780b0e5d4a861b7b53</title>
<g id="a_edge1"><a xlink:href="dir_000001_000025.html" target="_top">
<path fill="none" stroke="#63b8ff" d="M240.39,-353.75C234.74,-346.26 226.46,-335.28 219.55,-326.13"/>
<polygon fill="#63b8ff" stroke="#63b8ff" points="222.3,-323.96 213.48,-318.09 216.71,-328.18 222.3,-323.96"/>
</a>
</g>
<g id="a_edge1&#45;headlabel"><a xlink:href="dir_000001_000025.html" target="_top" xlink:title="1">
<text text-anchor="middle" x="226.73" y="-322.62" font-family="Helvetica,sans-Serif" font-size="10.00" fill="#63b8ff">1</text>
</a>
</g>
</g>
<!-- dir_9ba586a504c756f19720715161f17166 -->
<g id="node9" class="node">
<title>dir_9ba586a504c756f19720715161f17166</title>
<g id="a_node9"><a xlink:href="dir_9ba586a504c756f19720715161f17166.html" target="_top" xlink:title="rendering">
<polygon fill="#a2b4d6" stroke="#404040" points="167.5,-208 104.5,-208 104.5,-189 167.5,-189 167.5,-208"/>
<text text-anchor="middle" x="136" y="-196" font-family="Helvetica,sans-Serif" font-size="10.00">rendering</text>
</a>
</g>
</g>
<!-- dir_5426d89496cb30043662afccf5b53207&#45;&gt;dir_9ba586a504c756f19720715161f17166 -->
<g id="edge4" class="edge">
<title>dir_5426d89496cb30043662afccf5b53207&#45;&gt;dir_9ba586a504c756f19720715161f17166</title>
<g id="a_edge4"><a xlink:href="dir_000001_000037.html" target="_top">
<path fill="none" stroke="#63b8ff" d="M229.35,-355.14C213.82,-347.82 191.62,-335.22 178,-318 154.16,-287.87 143.25,-243.14 138.76,-218.14"/>
<polygon fill="#63b8ff" stroke="#63b8ff" points="142.19,-217.47 137.12,-208.17 135.28,-218.6 142.19,-217.47"/>
</a>
</g>
<g id="a_edge4&#45;headlabel"><a xlink:href="dir_000001_000037.html" target="_top" xlink:title="4">
<text text-anchor="middle" x="145.58" y="-218.06" font-family="Helvetica,sans-Serif" font-size="10.00" fill="#63b8ff">4</text>
</a>
</g>
</g>
<!-- dir_7f0768799dd37ef2f2adcdfec91ab1e9 -->
<g id="node12" class="node">
<title>dir_7f0768799dd37ef2f2adcdfec91ab1e9</title>
<g id="a_node12"><a xlink:href="dir_7f0768799dd37ef2f2adcdfec91ab1e9.html" target="_top" xlink:title="util">
<polygon fill="#a2b4d6" stroke="#404040" points="215,-98 183,-98 183,-79 215,-79 215,-98"/>
<text text-anchor="middle" x="199" y="-86" font-family="Helvetica,sans-Serif" font-size="10.00">util</text>
</a>
</g>
</g>
<!-- dir_5426d89496cb30043662afccf5b53207&#45;&gt;dir_7f0768799dd37ef2f2adcdfec91ab1e9 -->
<g id="edge2" class="edge">
<title>dir_5426d89496cb30043662afccf5b53207&#45;&gt;dir_7f0768799dd37ef2f2adcdfec91ab1e9</title>
<g id="a_edge2"><a xlink:href="dir_000001_000051.html" target="_top">
<path fill="none" stroke="#63b8ff" d="M245.7,-353.86C243.86,-341.63 240.32,-318.59 237,-299 225.08,-228.62 209.52,-145.22 202.6,-108.48"/>
<polygon fill="#63b8ff" stroke="#63b8ff" points="205.96,-107.45 200.67,-98.27 199.08,-108.74 205.96,-107.45"/>
</a>
</g>
<g id="a_edge2&#45;headlabel"><a xlink:href="dir_000001_000051.html" target="_top" xlink:title="4">
<text text-anchor="middle" x="209.42" y="-107.95" font-family="Helvetica,sans-Serif" font-size="10.00" fill="#63b8ff">4</text>
</a>
</g>
</g>
<!-- dir_f420875d55816fb78e81b706f36fb7ba -->
<g id="node13" class="node">
<title>dir_f420875d55816fb78e81b706f36fb7ba</title>
<g id="a_node13"><a xlink:href="dir_f420875d55816fb78e81b706f36fb7ba.html" target="_top" xlink:title="window">
<polygon fill="#a2b4d6" stroke="#404040" points="300,-263 246,-263 246,-244 300,-244 300,-263"/>
<text text-anchor="middle" x="273" y="-251" font-family="Helvetica,sans-Serif" font-size="10.00">window</text>
</a>
</g>
</g>
<!-- dir_5426d89496cb30043662afccf5b53207&#45;&gt;dir_f420875d55816fb78e81b706f36fb7ba -->
<g id="edge5" class="edge">
<title>dir_5426d89496cb30043662afccf5b53207&#45;&gt;dir_f420875d55816fb78e81b706f36fb7ba</title>
<g id="a_edge5"><a xlink:href="dir_000001_000054.html" target="_top">
<path fill="none" stroke="#63b8ff" d="M249.13,-353.66C253.36,-336.09 262.9,-296.45 268.56,-272.95"/>
<polygon fill="#63b8ff" stroke="#63b8ff" points="271.98,-273.7 270.92,-263.16 265.17,-272.06 271.98,-273.7"/>
</a>
</g>
<g id="a_edge5&#45;headlabel"><a xlink:href="dir_000001_000054.html" target="_top" xlink:title="5">
<text text-anchor="middle" x="273.9" y="-275.36" font-family="Helvetica,sans-Serif" font-size="10.00" fill="#63b8ff">5</text>
</a>
</g>
</g>
<!-- dir_6a0662f282a699b80270a7344921b324 -->
<g id="node4" class="node">
<title>dir_6a0662f282a699b80270a7344921b324</title>
<g id="a_node4"><a xlink:href="dir_6a0662f282a699b80270a7344921b324.html" target="_top" xlink:title="core">
<polygon fill="#a2b4d6" stroke="#404040" points="106,-98 68,-98 68,-79 106,-79 106,-98"/>
<text text-anchor="middle" x="87" y="-86" font-family="Helvetica,sans-Serif" font-size="10.00">core</text>
</a>
</g>
</g>
<!-- dir_0046d781185df00694c70533b055a138 -->
<g id="node8" class="node">
<title>dir_0046d781185df00694c70533b055a138</title>
<g id="a_node8"><a xlink:href="dir_0046d781185df00694c70533b055a138.html" target="_top" xlink:title="math">
<polygon fill="#a2b4d6" stroke="#404040" points="146,-43 104,-43 104,-24 146,-24 146,-43"/>
<text text-anchor="middle" x="125" y="-31" font-family="Helvetica,sans-Serif" font-size="10.00">math</text>
</a>
</g>
</g>
<!-- dir_6a0662f282a699b80270a7344921b324&#45;&gt;dir_0046d781185df00694c70533b055a138 -->
<g id="edge6" class="edge">
<title>dir_6a0662f282a699b80270a7344921b324&#45;&gt;dir_0046d781185df00694c70533b055a138</title>
<g id="a_edge6"><a xlink:href="dir_000009_000028.html" target="_top">
<path fill="none" stroke="#63b8ff" d="M93.27,-78.75C98.59,-71.34 106.36,-60.5 112.88,-51.41"/>
<polygon fill="#63b8ff" stroke="#63b8ff" points="115.86,-53.26 118.84,-43.09 110.17,-49.18 115.86,-53.26"/>
</a>
</g>
<g id="a_edge6&#45;headlabel"><a xlink:href="dir_000009_000028.html" target="_top" xlink:title="3">
<text text-anchor="middle" x="116.07" y="-55.33" font-family="Helvetica,sans-Serif" font-size="10.00" fill="#63b8ff">3</text>
</a>
</g>
</g>
<!-- dir_860c9de2f65c10e8e262a0e7b5bfee5e -->
<g id="node5" class="node">
<title>dir_860c9de2f65c10e8e262a0e7b5bfee5e</title>
<g id="a_node5"><a xlink:href="dir_860c9de2f65c10e8e262a0e7b5bfee5e.html" target="_top" xlink:title="engine">
<polygon fill="#a2b4d6" stroke="#404040" points="152,-373 102,-373 102,-354 152,-354 152,-373"/>
<text text-anchor="middle" x="127" y="-361" font-family="Helvetica,sans-Serif" font-size="10.00">engine</text>
</a>
</g>
</g>
<!-- dir_860c9de2f65c10e8e262a0e7b5bfee5e&#45;&gt;dir_106756a8ee71bdde7f7b779a3a0a52e4 -->
<g id="edge13" class="edge">
<title>dir_860c9de2f65c10e8e262a0e7b5bfee5e&#45;&gt;dir_106756a8ee71bdde7f7b779a3a0a52e4</title>
<g id="a_edge13"><a xlink:href="dir_000011_000014.html" target="_top">
<path fill="none" stroke="#63b8ff" d="M152.24,-358.94C191.01,-353.11 267.59,-340.21 336.31,-319.6"/>
<polygon fill="#63b8ff" stroke="#63b8ff" points="337.41,-322.93 345.95,-316.65 335.36,-316.23 337.41,-322.93"/>
</a>
</g>
<g id="a_edge13&#45;headlabel"><a xlink:href="dir_000011_000014.html" target="_top" xlink:title="6">
<text text-anchor="middle" x="334.81" y="-324.19" font-family="Helvetica,sans-Serif" font-size="10.00" fill="#63b8ff">6</text>
</a>
</g>
</g>
<!-- dir_860c9de2f65c10e8e262a0e7b5bfee5e&#45;&gt;dir_6a0662f282a699b80270a7344921b324 -->
<g id="edge11" class="edge">
<title>dir_860c9de2f65c10e8e262a0e7b5bfee5e&#45;&gt;dir_6a0662f282a699b80270a7344921b324</title>
<g id="a_edge11"><a xlink:href="dir_000011_000009.html" target="_top">
<path fill="none" stroke="#63b8ff" d="M120.9,-353.72C115.16,-345.04 106.75,-331.17 102,-318 93.18,-293.51 77.63,-175.52 76,-153 75.39,-144.58 74.98,-142.38 76,-134 77.06,-125.31 79.24,-115.87 81.38,-107.93"/>
<polygon fill="#63b8ff" stroke="#63b8ff" points="84.77,-108.83 84.17,-98.25 78.04,-106.89 84.77,-108.83"/>
</a>
</g>
<g id="a_edge11&#45;headlabel"><a xlink:href="dir_000011_000009.html" target="_top" xlink:title="10">
<text text-anchor="middle" x="86.5" y="-110.57" font-family="Helvetica,sans-Serif" font-size="10.00" fill="#63b8ff">10</text>
</a>
</g>
</g>
<!-- dir_860c9de2f65c10e8e262a0e7b5bfee5e&#45;&gt;dir_58a7612d3773fb780b0e5d4a861b7b53 -->
<g id="edge9" class="edge">
<title>dir_860c9de2f65c10e8e262a0e7b5bfee5e&#45;&gt;dir_58a7612d3773fb780b0e5d4a861b7b53</title>
<g id="a_edge9"><a xlink:href="dir_000011_000025.html" target="_top">
<path fill="none" stroke="#63b8ff" d="M139.85,-353.98C152.14,-345.84 170.91,-333.41 185.48,-323.76"/>
<polygon fill="#63b8ff" stroke="#63b8ff" points="187.51,-326.61 193.91,-318.17 183.64,-320.78 187.51,-326.61"/>
</a>
</g>
<g id="a_edge9&#45;headlabel"><a xlink:href="dir_000011_000025.html" target="_top" xlink:title="1">
<text text-anchor="middle" x="186.08" y="-328.46" font-family="Helvetica,sans-Serif" font-size="10.00" fill="#63b8ff">1</text>
</a>
</g>
</g>
<!-- dir_860c9de2f65c10e8e262a0e7b5bfee5e&#45;&gt;dir_0046d781185df00694c70533b055a138 -->
<g id="edge7" class="edge">
<title>dir_860c9de2f65c10e8e262a0e7b5bfee5e&#45;&gt;dir_0046d781185df00694c70533b055a138</title>
<g id="a_edge7"><a xlink:href="dir_000011_000028.html" target="_top">
<path fill="none" stroke="#63b8ff" d="M109.23,-353.95C80.01,-338.5 25,-302.99 25,-254.5 25,-254.5 25,-254.5 25,-142.5 25,-112.33 29.54,-102.05 49,-79 61.17,-64.59 79.27,-53.73 94.75,-46.35"/>
<polygon fill="#63b8ff" stroke="#63b8ff" points="96.28,-49.49 103.97,-42.2 93.41,-43.11 96.28,-49.49"/>
</a>
</g>
<g id="a_edge7&#45;headlabel"><a xlink:href="dir_000011_000028.html" target="_top" xlink:title="21">
<text text-anchor="middle" x="94.17" y="-51.06" font-family="Helvetica,sans-Serif" font-size="10.00" fill="#63b8ff">21</text>
</a>
</g>
</g>
<!-- dir_860c9de2f65c10e8e262a0e7b5bfee5e&#45;&gt;dir_9ba586a504c756f19720715161f17166 -->
<g id="edge12" class="edge">
<title>dir_860c9de2f65c10e8e262a0e7b5bfee5e&#45;&gt;dir_9ba586a504c756f19720715161f17166</title>
<g id="a_edge12"><a xlink:href="dir_000011_000037.html" target="_top">
<path fill="none" stroke="#63b8ff" d="M127.48,-353.74C128.89,-328.31 132.99,-254.08 134.94,-218.69"/>
<polygon fill="#63b8ff" stroke="#63b8ff" points="138.46,-218.48 135.51,-208.31 131.47,-218.1 138.46,-218.48"/>
</a>
</g>
<g id="a_edge12&#45;headlabel"><a xlink:href="dir_000011_000037.html" target="_top" xlink:title="4">
<text text-anchor="middle" x="141.09" y="-219.73" font-family="Helvetica,sans-Serif" font-size="10.00" fill="#63b8ff">4</text>
</a>
</g>
</g>
<!-- dir_b6e017bc8c299f04fc1162fc4677be61 -->
<g id="node10" class="node">
<title>dir_b6e017bc8c299f04fc1162fc4677be61</title>
<g id="a_node10"><a xlink:href="dir_b6e017bc8c299f04fc1162fc4677be61.html" target="_top" xlink:title="scene">
<polygon fill="#a2b4d6" stroke="#404040" points="129.5,-153 84.5,-153 84.5,-134 129.5,-134 129.5,-153"/>
<text text-anchor="middle" x="107" y="-141" font-family="Helvetica,sans-Serif" font-size="10.00">scene</text>
</a>
</g>
</g>
<!-- dir_860c9de2f65c10e8e262a0e7b5bfee5e&#45;&gt;dir_b6e017bc8c299f04fc1162fc4677be61 -->
<g id="edge10" class="edge">
<title>dir_860c9de2f65c10e8e262a0e7b5bfee5e&#45;&gt;dir_b6e017bc8c299f04fc1162fc4677be61</title>
<g id="a_edge10"><a xlink:href="dir_000011_000040.html" target="_top">
<path fill="none" stroke="#63b8ff" d="M123.6,-353.89C114.07,-328.67 88.23,-252.79 96,-189 97.06,-180.31 99.24,-170.87 101.38,-162.93"/>
<polygon fill="#63b8ff" stroke="#63b8ff" points="104.77,-163.83 104.17,-153.25 98.04,-161.89 104.77,-163.83"/>
</a>
</g>
<g id="a_edge10&#45;headlabel"><a xlink:href="dir_000011_000040.html" target="_top" xlink:title="7">
<text text-anchor="middle" x="106.5" y="-165.57" font-family="Helvetica,sans-Serif" font-size="10.00" fill="#63b8ff">7</text>
</a>
</g>
</g>
<!-- dir_860c9de2f65c10e8e262a0e7b5bfee5e&#45;&gt;dir_7f0768799dd37ef2f2adcdfec91ab1e9 -->
<g id="edge8" class="edge">
<title>dir_860c9de2f65c10e8e262a0e7b5bfee5e&#45;&gt;dir_7f0768799dd37ef2f2adcdfec91ab1e9</title>
<g id="a_edge8"><a xlink:href="dir_000011_000051.html" target="_top">
<path fill="none" stroke="#63b8ff" d="M130.22,-353.9C138.82,-330.67 162.66,-264.57 177,-208 185.84,-173.14 192.72,-131.67 196.3,-108.19"/>
<polygon fill="#63b8ff" stroke="#63b8ff" points="199.77,-108.61 197.78,-98.21 192.85,-107.58 199.77,-108.61"/>
</a>
</g>
<g id="a_edge8&#45;headlabel"><a xlink:href="dir_000011_000051.html" target="_top" xlink:title="12">
<text text-anchor="middle" x="202.05" y="-110.09" font-family="Helvetica,sans-Serif" font-size="10.00" fill="#63b8ff">12</text>
</a>
</g>
</g>
<!-- dir_9b52b993eaa3e3f802dc9c71987b2802&#45;&gt;dir_7f0768799dd37ef2f2adcdfec91ab1e9 -->
<g id="edge14" class="edge">
<title>dir_9b52b993eaa3e3f802dc9c71987b2802&#45;&gt;dir_7f0768799dd37ef2f2adcdfec91ab1e9</title>
<g id="a_edge14"><a xlink:href="dir_000012_000051.html" target="_top">
<path fill="none" stroke="#63b8ff" d="M284.58,-188.62C279.33,-175.69 268.35,-151.34 254,-134 244.49,-122.5 231.61,-111.89 220.71,-103.92"/>
<polygon fill="#63b8ff" stroke="#63b8ff" points="222.68,-101.03 212.49,-98.12 218.65,-106.75 222.68,-101.03"/>
</a>
</g>
<g id="a_edge14&#45;headlabel"><a xlink:href="dir_000012_000051.html" target="_top" xlink:title="3">
<text text-anchor="middle" x="227.26" y="-98.28" font-family="Helvetica,sans-Serif" font-size="10.00" fill="#63b8ff">3</text>
</a>
</g>
</g>
<!-- dir_58a7612d3773fb780b0e5d4a861b7b53&#45;&gt;dir_0046d781185df00694c70533b055a138 -->
<g id="edge15" class="edge">
<title>dir_58a7612d3773fb780b0e5d4a861b7b53&#45;&gt;dir_0046d781185df00694c70533b055a138</title>
<g id="a_edge15"><a xlink:href="dir_000025_000028.html" target="_top">
<path fill="none" stroke="#63b8ff" d="M193.8,-298.95C170.84,-283.45 123.39,-248.52 96,-208 81.43,-186.45 84.29,-177.65 76,-153 65.25,-121.01 43.15,-108.79 59,-79 66.64,-64.63 81.23,-54.06 94.75,-46.84"/>
<polygon fill="#63b8ff" stroke="#63b8ff" points="96.41,-49.92 103.84,-42.37 93.32,-43.64 96.41,-49.92"/>
</a>
</g>
<g id="a_edge15&#45;headlabel"><a xlink:href="dir_000025_000028.html" target="_top" xlink:title="1">
<text text-anchor="middle" x="94.44" y="-51.55" font-family="Helvetica,sans-Serif" font-size="10.00" fill="#63b8ff">1</text>
</a>
</g>
</g>
<!-- dir_58a7612d3773fb780b0e5d4a861b7b53&#45;&gt;dir_7f0768799dd37ef2f2adcdfec91ab1e9 -->
<g id="edge16" class="edge">
<title>dir_58a7612d3773fb780b0e5d4a861b7b53&#45;&gt;dir_7f0768799dd37ef2f2adcdfec91ab1e9</title>
<g id="a_edge16"><a xlink:href="dir_000025_000051.html" target="_top">
<path fill="none" stroke="#63b8ff" d="M206.69,-298.95C205.51,-266.95 201.36,-153.68 199.69,-108.4"/>
<polygon fill="#63b8ff" stroke="#63b8ff" points="203.18,-108.09 199.32,-98.22 196.19,-108.35 203.18,-108.09"/>
</a>
</g>
<g id="a_edge16&#45;headlabel"><a xlink:href="dir_000025_000051.html" target="_top" xlink:title="6">
<text text-anchor="middle" x="206.15" y="-109.08" font-family="Helvetica,sans-Serif" font-size="10.00" fill="#63b8ff">6</text>
</a>
</g>
</g>
<!-- dir_58a7612d3773fb780b0e5d4a861b7b53&#45;&gt;dir_f420875d55816fb78e81b706f36fb7ba -->
<g id="edge17" class="edge">
<title>dir_58a7612d3773fb780b0e5d4a861b7b53&#45;&gt;dir_f420875d55816fb78e81b706f36fb7ba</title>
<g id="a_edge17"><a xlink:href="dir_000025_000054.html" target="_top">
<path fill="none" stroke="#63b8ff" d="M217.6,-298.98C227.46,-291.07 242.35,-279.11 254.22,-269.58"/>
<polygon fill="#63b8ff" stroke="#63b8ff" points="256.6,-272.16 262.2,-263.17 252.21,-266.7 256.6,-272.16"/>
</a>
</g>
<g id="a_edge17&#45;headlabel"><a xlink:href="dir_000025_000054.html" target="_top" xlink:title="2">
<text text-anchor="middle" x="255.57" y="-274.13" font-family="Helvetica,sans-Serif" font-size="10.00" fill="#63b8ff">2</text>
</a>
</g>
</g>
<!-- dir_9ba586a504c756f19720715161f17166&#45;&gt;dir_0046d781185df00694c70533b055a138 -->
<g id="edge18" class="edge">
<title>dir_9ba586a504c756f19720715161f17166&#45;&gt;dir_0046d781185df00694c70533b055a138</title>
<g id="a_edge18"><a xlink:href="dir_000037_000028.html" target="_top">
<path fill="none" stroke="#63b8ff" d="M136.75,-188.98C137.49,-180.03 138.58,-165.54 139,-153 139.28,-144.56 139.59,-142.42 139,-134 137.02,-105.65 131.89,-73.08 128.42,-53.15"/>
<polygon fill="#63b8ff" stroke="#63b8ff" points="131.85,-52.47 126.65,-43.24 124.96,-53.7 131.85,-52.47"/>
</a>
</g>
<g id="a_edge18&#45;headlabel"><a xlink:href="dir_000037_000028.html" target="_top" xlink:title="10">
<text text-anchor="middle" x="135.28" y="-53.01" font-family="Helvetica,sans-Serif" font-size="10.00" fill="#63b8ff">10</text>
</a>
</g>
</g>
<!-- dir_9ba586a504c756f19720715161f17166&#45;&gt;dir_b6e017bc8c299f04fc1162fc4677be61 -->
<g id="edge20" class="edge">
<title>dir_9ba586a504c756f19720715161f17166&#45;&gt;dir_b6e017bc8c299f04fc1162fc4677be61</title>
<g id="a_edge20"><a xlink:href="dir_000037_000040.html" target="_top">
<path fill="none" stroke="#63b8ff" d="M126.04,-188.75C120.63,-181.65 114.6,-171.4 110.44,-162.56"/>
<polygon fill="#63b8ff" stroke="#63b8ff" points="113.6,-161.02 106.57,-153.09 107.12,-163.67 113.6,-161.02"/>
</a>
</g>
<g id="a_edge20&#45;headlabel"><a xlink:href="dir_000037_000040.html" target="_top" xlink:title="3">
<text text-anchor="middle" x="117.59" y="-160.77" font-family="Helvetica,sans-Serif" font-size="10.00" fill="#63b8ff">3</text>
</a>
</g>
</g>
<!-- dir_9ba586a504c756f19720715161f17166&#45;&gt;dir_7f0768799dd37ef2f2adcdfec91ab1e9 -->
<g id="edge19" class="edge">
<title>dir_9ba586a504c756f19720715161f17166&#45;&gt;dir_7f0768799dd37ef2f2adcdfec91ab1e9</title>
<g id="a_edge19"><a xlink:href="dir_000037_000051.html" target="_top">
<path fill="none" stroke="#63b8ff" d="M141.16,-188.66C151.54,-170.85 175.16,-130.37 188.79,-107.01"/>
<polygon fill="#63b8ff" stroke="#63b8ff" points="191.93,-108.56 193.95,-98.16 185.89,-105.03 191.93,-108.56"/>
</a>
</g>
<g id="a_edge19&#45;headlabel"><a xlink:href="dir_000037_000051.html" target="_top" xlink:title="16">
<text text-anchor="middle" x="192.58" y="-110.6" font-family="Helvetica,sans-Serif" font-size="10.00" fill="#63b8ff">16</text>
</a>
</g>
</g>
<!-- dir_b6e017bc8c299f04fc1162fc4677be61&#45;&gt;dir_6a0662f282a699b80270a7344921b324 -->
<g id="edge22" class="edge">
<title>dir_b6e017bc8c299f04fc1162fc4677be61&#45;&gt;dir_6a0662f282a699b80270a7344921b324</title>
<g id="a_edge22"><a xlink:href="dir_000040_000009.html" target="_top">
<path fill="none" stroke="#63b8ff" d="M103.7,-133.75C101.02,-126.65 97.15,-116.4 93.81,-107.56"/>
<polygon fill="#63b8ff" stroke="#63b8ff" points="97.05,-106.21 90.24,-98.09 90.5,-108.68 97.05,-106.21"/>
</a>
</g>
<g id="a_edge22&#45;headlabel"><a xlink:href="dir_000040_000009.html" target="_top" xlink:title="1">
<text text-anchor="middle" x="100.97" y="-106.07" font-family="Helvetica,sans-Serif" font-size="10.00" fill="#63b8ff">1</text>
</a>
</g>
</g>
<!-- dir_b6e017bc8c299f04fc1162fc4677be61&#45;&gt;dir_0046d781185df00694c70533b055a138 -->
<g id="edge21" class="edge">
<title>dir_b6e017bc8c299f04fc1162fc4677be61&#45;&gt;dir_0046d781185df00694c70533b055a138</title>
<g id="a_edge21"><a xlink:href="dir_000040_000028.html" target="_top">
<path fill="none" stroke="#63b8ff" d="M108.59,-133.98C110.24,-125.03 112.89,-110.54 115,-98 117.53,-83 120.2,-65.98 122.14,-53.33"/>
<polygon fill="#63b8ff" stroke="#63b8ff" points="125.65,-53.55 123.7,-43.14 118.73,-52.49 125.65,-53.55"/>
</a>
</g>
<g id="a_edge21&#45;headlabel"><a xlink:href="dir_000040_000028.html" target="_top" xlink:title="9">
<text text-anchor="middle" x="127.92" y="-55.03" font-family="Helvetica,sans-Serif" font-size="10.00" fill="#63b8ff">9</text>
</a>
</g>
</g>
<!-- dir_b6e017bc8c299f04fc1162fc4677be61&#45;&gt;dir_9ba586a504c756f19720715161f17166 -->
<g id="edge24" class="edge">
<title>dir_b6e017bc8c299f04fc1162fc4677be61&#45;&gt;dir_9ba586a504c756f19720715161f17166</title>
<g id="a_edge24"><a xlink:href="dir_000040_000037.html" target="_top">
<path fill="none" stroke="#63b8ff" d="M116.83,-153.09C122.23,-160.14 128.27,-170.37 132.46,-179.24"/>
<polygon fill="#63b8ff" stroke="#63b8ff" points="129.33,-180.84 136.38,-188.75 135.8,-178.17 129.33,-180.84"/>
</a>
</g>
<g id="a_edge24&#45;headlabel"><a xlink:href="dir_000040_000037.html" target="_top" xlink:title="4">
<text text-anchor="middle" x="125.34" y="-176.09" font-family="Helvetica,sans-Serif" font-size="10.00" fill="#63b8ff">4</text>
</a>
</g>
</g>
<!-- dir_b6e017bc8c299f04fc1162fc4677be61&#45;&gt;dir_7f0768799dd37ef2f2adcdfec91ab1e9 -->
<g id="edge23" class="edge">
<title>dir_b6e017bc8c299f04fc1162fc4677be61&#45;&gt;dir_7f0768799dd37ef2f2adcdfec91ab1e9</title>
<g id="a_edge23"><a xlink:href="dir_000040_000051.html" target="_top">
<path fill="none" stroke="#63b8ff" d="M121.78,-133.98C136.18,-125.69 158.31,-112.94 175.19,-103.22"/>
<polygon fill="#63b8ff" stroke="#63b8ff" points="177.03,-106.19 183.95,-98.17 173.54,-100.13 177.03,-106.19"/>
</a>
</g>
<g id="a_edge23&#45;headlabel"><a xlink:href="dir_000040_000051.html" target="_top" xlink:title="3">
<text text-anchor="middle" x="175.33" y="-107.95" font-family="Helvetica,sans-Serif" font-size="10.00" fill="#63b8ff">3</text>
</a>
</g>
</g>
<!-- dir_136b19899be4d20901a1979f99e5abb1 -->
<g id="node11" class="node">
<title>dir_136b19899be4d20901a1979f99e5abb1</title>
<g id="a_node11"><a xlink:href="dir_136b19899be4d20901a1979f99e5abb1.html" target="_top" xlink:title="tooling">
<polygon fill="#a2b4d6" stroke="#404040" points="152,-428 102,-428 102,-409 152,-409 152,-428"/>
<text text-anchor="middle" x="127" y="-416" font-family="Helvetica,sans-Serif" font-size="10.00">tooling</text>
</a>
</g>
</g>
<!-- dir_136b19899be4d20901a1979f99e5abb1&#45;&gt;dir_860c9de2f65c10e8e262a0e7b5bfee5e -->
<g id="edge25" class="edge">
<title>dir_136b19899be4d20901a1979f99e5abb1&#45;&gt;dir_860c9de2f65c10e8e262a0e7b5bfee5e</title>
<g id="a_edge25"><a xlink:href="dir_000046_000011.html" target="_top">
<path fill="none" stroke="#63b8ff" d="M127,-408.75C127,-401.8 127,-391.85 127,-383.13"/>
<polygon fill="#63b8ff" stroke="#63b8ff" points="130.5,-383.09 127,-373.09 123.5,-383.09 130.5,-383.09"/>
</a>
</g>
<g id="a_edge25&#45;headlabel"><a xlink:href="dir_000046_000011.html" target="_top" xlink:title="1">
<text text-anchor="middle" x="133.34" y="-384.18" font-family="Helvetica,sans-Serif" font-size="10.00" fill="#63b8ff">1</text>
</a>
</g>
</g>
<!-- dir_7f0768799dd37ef2f2adcdfec91ab1e9&#45;&gt;dir_0046d781185df00694c70533b055a138 -->
<g id="edge26" class="edge">
<title>dir_7f0768799dd37ef2f2adcdfec91ab1e9&#45;&gt;dir_0046d781185df00694c70533b055a138</title>
<g id="a_edge26"><a xlink:href="dir_000051_000028.html" target="_top">
<path fill="none" stroke="#63b8ff" d="M187.11,-78.98C175.85,-70.92 158.71,-58.65 145.29,-49.03"/>
<polygon fill="#63b8ff" stroke="#63b8ff" points="147.27,-46.15 137.11,-43.17 143.2,-51.84 147.27,-46.15"/>
</a>
</g>
<g id="a_edge26&#45;headlabel"><a xlink:href="dir_000051_000028.html" target="_top" xlink:title="1">
<text text-anchor="middle" x="151.85" y="-43.43" font-family="Helvetica,sans-Serif" font-size="10.00" fill="#63b8ff">1</text>
</a>
</g>
</g>
<!-- dir_f420875d55816fb78e81b706f36fb7ba&#45;&gt;dir_9b52b993eaa3e3f802dc9c71987b2802 -->
<g id="edge29" class="edge">
<title>dir_f420875d55816fb78e81b706f36fb7ba&#45;&gt;dir_9b52b993eaa3e3f802dc9c71987b2802</title>
<g id="a_edge29"><a xlink:href="dir_000054_000012.html" target="_top">
<path fill="none" stroke="#63b8ff" d="M275.48,-243.75C277.46,-236.72 280.32,-226.62 282.81,-217.84"/>
<polygon fill="#63b8ff" stroke="#63b8ff" points="286.21,-218.66 285.57,-208.09 279.48,-216.76 286.21,-218.66"/>
</a>
</g>
<g id="a_edge29&#45;headlabel"><a xlink:href="dir_000054_000012.html" target="_top" xlink:title="1">
<text text-anchor="middle" x="287.97" y="-220.4" font-family="Helvetica,sans-Serif" font-size="10.00" fill="#63b8ff">1</text>
</a>
</g>
</g>
<!-- dir_f420875d55816fb78e81b706f36fb7ba&#45;&gt;dir_0046d781185df00694c70533b055a138 -->
<g id="edge27" class="edge">
<title>dir_f420875d55816fb78e81b706f36fb7ba&#45;&gt;dir_0046d781185df00694c70533b055a138</title>
<g id="a_edge27"><a xlink:href="dir_000054_000028.html" target="_top">
<path fill="none" stroke="#63b8ff" d="M286.78,-243.82C297.82,-235.99 312.49,-223.35 319,-208 322.3,-200.23 321.94,-196.91 319,-189 296.48,-128.46 275.8,-117.6 224,-79 203.22,-63.52 176.21,-51.83 155.64,-44.33"/>
<polygon fill="#63b8ff" stroke="#63b8ff" points="156.72,-40.99 146.13,-40.98 154.4,-47.6 156.72,-40.99"/>
</a>
</g>
<g id="a_edge27&#45;headlabel"><a xlink:href="dir_000054_000028.html" target="_top" xlink:title="2">
<text text-anchor="middle" x="161.05" y="-37.01" font-family="Helvetica,sans-Serif" font-size="10.00" fill="#63b8ff">2</text>
</a>
</g>
</g>
<!-- dir_f420875d55816fb78e81b706f36fb7ba&#45;&gt;dir_9ba586a504c756f19720715161f17166 -->
<g id="edge30" class="edge">
<title>dir_f420875d55816fb78e81b706f36fb7ba&#45;&gt;dir_9ba586a504c756f19720715161f17166</title>
<g id="a_edge30"><a xlink:href="dir_000054_000037.html" target="_top">
<path fill="none" stroke="#63b8ff" d="M250.99,-243.98C228.55,-235.3 193.52,-221.75 168.01,-211.88"/>
<polygon fill="#63b8ff" stroke="#63b8ff" points="169,-208.51 158.41,-208.17 166.48,-215.04 169,-208.51"/>
</a>
</g>
<g id="a_edge30&#45;headlabel"><a xlink:href="dir_000054_000037.html" target="_top" xlink:title="2">
<text text-anchor="middle" x="173.38" y="-204.66" font-family="Helvetica,sans-Serif" font-size="10.00" fill="#63b8ff">2</text>
</a>
</g>
</g>
<!-- dir_f420875d55816fb78e81b706f36fb7ba&#45;&gt;dir_7f0768799dd37ef2f2adcdfec91ab1e9 -->
<g id="edge28" class="edge">
<title>dir_f420875d55816fb78e81b706f36fb7ba&#45;&gt;dir_7f0768799dd37ef2f2adcdfec91ab1e9</title>
<g id="a_edge28"><a xlink:href="dir_000054_000051.html" target="_top">
<path fill="none" stroke="#63b8ff" d="M269.7,-243.67C266.38,-234.72 261.17,-220.46 257,-208 246.06,-175.34 250.02,-164.49 234,-134 228.64,-123.8 220.84,-113.6 213.97,-105.55"/>
<polygon fill="#63b8ff" stroke="#63b8ff" points="216.54,-103.18 207.28,-98.03 211.31,-107.83 216.54,-103.18"/>
</a>
</g>
<g id="a_edge28&#45;headlabel"><a xlink:href="dir_000054_000051.html" target="_top" xlink:title="5">
<text text-anchor="middle" x="221.05" y="-101.48" font-family="Helvetica,sans-Serif" font-size="10.00" fill="#63b8ff">5</text>
</a>
</g>
</g>
</g>
</svg>

<g id="navigator" transform="translate(0 0)" fill="#404254">
  <rect fill="#f2f5e9" fill-opacity="0.5" stroke="#606060" stroke-width=".5" x="0" y="0" width="60" height="60"/>
  <use id="zoomplus" xlink:href="#zoomPlus" x="17" y="9" onmousedown="handleZoom(evt,'in')"/>
  <use id="zoomminus" xlink:href="#zoomMin" x="42" y="9" onmousedown="handleZoom(evt,'out')"/>
  <use id="reset" xlink:href="#resetDef" x="30" y="36" onmousedown="handleReset()"/>
   <use id="arrowup" xlink:href="#arrowUp" x="0" y="0" onmousedown="handlePan(0,-1)"/>
  <use id="arrowright" xlink:href="#arrowRight" x="0" y="0" onmousedown="handlePan(1,0)"/>
  <use id="arrowdown" xlink:href="#arrowDown" x="0" y="0" onmousedown="handlePan(0,1)"/>
  <use id="arrowleft" xlink:href="#arrowLeft" x="0" y="0" onmousedown="handlePan(-1,0)"/>
</g>
<svg viewBox="0 0 15 15" width="100%" height="30px" preserveAspectRatio="xMaxYMin meet">
 <g id="arrow_out" transform="scale(0.3 0.3)">
  <a xlink:href="dir_08c09894bd9f0ab4b1e9fdc7a2628766_dep_org.svg" target="_base">
   <rect id="button" ry="5" rx="5" y="6" x="6" height="38" width="38"
        fill="#f2f5e9" fill-opacity="0.5" stroke="#606060" stroke-width="1.0"/>
   <path id="arrow"
     d="M 11.500037,31.436501 C 11.940474,20.09759 22.043105,11.32322 32.158766,21.979434 L 37.068811,17.246167 C 37.068811,17.246167 37.088388,32 37.088388,32 L 22.160133,31.978069 C 22.160133,31.978069 26.997745,27.140456 26.997745,27.140456 C 18.528582,18.264221 13.291696,25.230495 11.500037,31.436501 z"
     style="fill:#404040;"/>
  </a>
 </g>
</svg>

<style type='text/css'>
<![CDATA[
[data-mouse-over-selected='false'] { opacity: 0.7; }
[data-mouse-over-selected='true']  { opacity: 1.0; }
]]>
</style>
<script type="application/ecmascript"><![CDATA[
document.addEventListener('DOMContentLoaded', (event) => {
  highlightEdges();
  highlightAdjacentNodes();
});
]]></script>
</svg>
