<?xml version="1.0" encoding="UTF-8" standalone="no"?>
<!DOCTYPE svg PUBLIC "-//W3C//DTD SVG 1.1//EN"
 "http://www.w3.org/Graphics/SVG/1.1/DTD/svg11.dtd">
<!-- Generated by graphviz version 2.43.0 (0)
 -->
<!-- Title: include/helios/event/_module.ixx Pages: 1 -->
<!--zoomable 368 -->

<svg id="main" version="1.1" xmlns="http://www.w3.org/2000/svg" xmlns:xlink="http://www.w3.org/1999/xlink" xml:space="preserve" onload="init(evt)">

<style type="text/css"><![CDATA[
.node, .edge {opacity: 0.7;}
.node.selected, .edge.selected {opacity: 1;}
.edge:hover path { stroke: red; }
.edge:hover polygon { stroke: red; fill: red; }
]]></style>

<defs>
  <circle id="rim" cx="0" cy="0" r="7"/>
  <circle id="rim2" cx="0" cy="0" r="3.5"/>
  <g id="zoomPlus">
    <use xlink:href="#rim" fill="#404040"><set attributeName="fill" to="#808080" begin="zoomplus.mouseover" end="zoomplus.mouseout"/></use>
    <path d="M-4,0h8M0,-4v8" fill="none" stroke="white" stroke-width="1.5" pointer-events="none"/>
  </g>
  <g id="zoomMin">
    <use xlink:href="#rim" fill="#404040"><set attributeName="fill" to="#808080" begin="zoomminus.mouseover" end="zoomminus.mouseout"/></use>
    <path d="M-4,0h8" fill="none" stroke="white" stroke-width="1.5" pointer-events="none"/>
  </g>
  <g id="arrowUp" transform="translate(30 24)">
    <use xlink:href="#rim"/>
    <path pointer-events="none" fill="none" stroke="white" stroke-width="1.5" d="M0,-3.0v7 M-2.5,-0.5L0,-3.0L2.5,-0.5"/>
  </g>
  <g id="arrowRight" transform="rotate(90) translate(36 -43)">
    <use xlink:href="#rim"/>
    <path pointer-events="none" fill="none" stroke="white" stroke-width="1.5" d="M0,-3.0v7 M-2.5,-0.5L0,-3.0L2.5,-0.5"/>
  </g>
  <g id="arrowDown" transform="rotate(180) translate(-30 -48)">
    <use xlink:href="#rim"/>
    <path pointer-events="none" fill="none" stroke="white" stroke-width="1.5" d="M0,-3.0v7 M-2.5,-0.5L0,-3.0L2.5,-0.5"/>
  </g>
  <g id="arrowLeft" transform="rotate(270) translate(-36 17)">
    <use xlink:href="#rim"/>
    <path pointer-events="none" fill="none" stroke="white" stroke-width="1.5" d="M0,-3.0v7 M-2.5,-0.5L0,-3.0L2.5,-0.5"/>
  </g>
  <g id="resetDef">
    <use xlink:href="#rim2" fill="#404040"><set attributeName="fill" to="#808080" begin="reset.mouseover" end="reset.mouseout"/></use>
  </g>
</defs>
<script type="application/ecmascript">
var viewWidth = 719;
var viewHeight = 368;
var sectionId = 'dynsection-0';
</script>
<script type="application/ecmascript" xlink:href="svg.min.js"/>
<svg id="graph" class="graph">
<g id="viewport">
<title>include/helios/event/_module.ixx</title>
<!-- Node1 -->
<g id="Node000001" class="node">
<title>Node1</title>
<g id="a_Node000001"><a xlink:title=" ">
<polygon fill="#999999" stroke="#666666" points="399.5,-360 284.5,-360 284.5,-330 399.5,-330 399.5,-360"/>
<text text-anchor="start" x="292.5" y="-348" font-family="Helvetica,sans-Serif" font-size="10.00">include/helios/event</text>
<text text-anchor="middle" x="342" y="-337" font-family="Helvetica,sans-Serif" font-size="10.00">/_module.ixx</text>
</a>
</g>
</g>
<!-- Node2 -->
<g id="Node000002" class="node">
<title>Node2</title>
<g id="a_Node000002"><a xlink:href="Event_8ixx.html" target="_top" xlink:title=" ">
<polygon fill="white" stroke="#666666" points="112.5,-129 5.5,-129 5.5,-110 112.5,-110 112.5,-129"/>
<text text-anchor="middle" x="59" y="-117" font-family="Helvetica,sans-Serif" font-size="10.00">helios.event.Event</text>
</a>
</g>
</g>
<!-- Node1&#45;&gt;Node2 -->
<g id="edge1_Node000001_Node000002" class="edge">
<title>Node1&#45;&gt;Node2</title>
<g id="a_edge1_Node000001_Node000002"><a xlink:title=" ">
<path fill="none" stroke="#63b8ff" d="M284.47,-341.49C215.6,-335.09 102.52,-313.16 46,-239 23.51,-209.49 38.9,-163.19 50.14,-138.09"/>
<polygon fill="#63b8ff" stroke="#63b8ff" points="53.32,-139.56 54.44,-129.03 46.99,-136.56 53.32,-139.56"/>
</a>
</g>
</g>
<!-- Node7 -->
<g id="Node000007" class="node">
<title>Node7</title>
<g id="a_Node000007"><a xlink:href="Dispatcher_8ixx.html" target="_top" xlink:title=" ">
<polygon fill="white" stroke="#666666" points="685,-184 553,-184 553,-165 685,-165 685,-184"/>
<text text-anchor="middle" x="619" y="-172" font-family="Helvetica,sans-Serif" font-size="10.00">helios.event.Dispatcher</text>
</a>
</g>
</g>
<!-- Node1&#45;&gt;Node7 -->
<g id="edge6_Node000001_Node000007" class="edge">
<title>Node1&#45;&gt;Node7</title>
<g id="a_edge6_Node000001_Node000007"><a xlink:title=" ">
<path fill="none" stroke="#63b8ff" d="M399.56,-341.28C465.76,-334.63 571.21,-312.38 617,-239 625.3,-225.7 625,-207.58 623.09,-194.1"/>
<polygon fill="#63b8ff" stroke="#63b8ff" points="626.5,-193.29 621.26,-184.08 619.61,-194.55 626.5,-193.29"/>
</a>
</g>
</g>
<!-- Node10 -->
<g id="Node000010" class="node">
<title>Node10</title>
<g id="a_Node000010"><a xlink:href="DequeEventQueue_8ixx.html" target="_top" xlink:title=" ">
<polygon fill="white" stroke="#666666" points="240,-239 70,-239 70,-220 240,-220 240,-239"/>
<text text-anchor="middle" x="155" y="-227" font-family="Helvetica,sans-Serif" font-size="10.00">helios.event.DequeEventQueue</text>
</a>
</g>
</g>
<!-- Node1&#45;&gt;Node10 -->
<g id="edge11_Node000001_Node000010" class="edge">
<title>Node1&#45;&gt;Node10</title>
<g id="a_edge11_Node000001_Node000010"><a xlink:title=" ">
<path fill="none" stroke="#63b8ff" d="M318.69,-329.85C282.74,-308.03 214.17,-266.41 178.25,-244.61"/>
<polygon fill="#63b8ff" stroke="#63b8ff" points="179.81,-241.47 169.45,-239.27 176.18,-247.45 179.81,-241.47"/>
</a>
</g>
</g>
<!-- Node12 -->
<g id="Node000012" class="node">
<title>Node12</title>
<g id="a_Node000012"><a xlink:href="EventQueue_8ixx.html" target="_top" xlink:title=" ">
<polygon fill="white" stroke="#666666" points="318.5,-184 179.5,-184 179.5,-165 318.5,-165 318.5,-184"/>
<text text-anchor="middle" x="249" y="-172" font-family="Helvetica,sans-Serif" font-size="10.00">helios.event.EventQueue</text>
</a>
</g>
</g>
<!-- Node1&#45;&gt;Node12 -->
<g id="edge21_Node000001_Node000012" class="edge">
<title>Node1&#45;&gt;Node12</title>
<g id="a_edge21_Node000001_Node000012"><a xlink:title=" ">
<path fill="none" stroke="#63b8ff" d="M328.3,-329.99C319.44,-320.41 308.09,-307.12 300,-294 279.51,-260.77 263.28,-217.85 255.01,-193.85"/>
<polygon fill="#63b8ff" stroke="#63b8ff" points="258.28,-192.62 251.78,-184.25 251.65,-194.85 258.28,-192.62"/>
</a>
</g>
</g>
<!-- Node13 -->
<g id="Node000013" class="node">
<title>Node13</title>
<g id="a_Node000013"><a xlink:href="EventManager_8ixx.html" target="_top" xlink:title=" ">
<polygon fill="white" stroke="#666666" points="588,-239 438,-239 438,-220 588,-220 588,-239"/>
<text text-anchor="middle" x="513" y="-227" font-family="Helvetica,sans-Serif" font-size="10.00">helios.event.EventManager</text>
</a>
</g>
</g>
<!-- Node1&#45;&gt;Node13 -->
<g id="edge22_Node000001_Node000013" class="edge">
<title>Node1&#45;&gt;Node13</title>
<g id="a_edge22_Node000001_Node000013"><a xlink:title=" ">
<path fill="none" stroke="#63b8ff" d="M399.77,-338.04C431.5,-331.88 469.3,-319.38 494,-294 505.65,-282.03 510.2,-263.21 511.95,-249.16"/>
<polygon fill="#63b8ff" stroke="#63b8ff" points="515.44,-249.41 512.84,-239.14 508.47,-248.79 515.44,-249.41"/>
</a>
</g>
</g>
<!-- Node15 -->
<g id="Node000015" class="node">
<title>Node15</title>
<g id="a_Node000015"><a xlink:href="BasicEventManager_8ixx.html" target="_top" xlink:title=" ">
<polygon fill="white" stroke="#666666" points="485,-294 309,-294 309,-275 485,-275 485,-294"/>
<text text-anchor="middle" x="397" y="-282" font-family="Helvetica,sans-Serif" font-size="10.00">helios.event.BasicEventManager</text>
</a>
</g>
</g>
<!-- Node1&#45;&gt;Node15 -->
<g id="edge29_Node000001_Node000015" class="edge">
<title>Node1&#45;&gt;Node15</title>
<g id="a_edge29_Node000001_Node000015"><a xlink:title=" ">
<path fill="none" stroke="#63b8ff" d="M355.31,-329.84C363.3,-321.35 373.48,-310.52 381.78,-301.69"/>
<polygon fill="#63b8ff" stroke="#63b8ff" points="384.46,-303.95 388.76,-294.27 379.36,-299.15 384.46,-303.95"/>
</a>
</g>
</g>
<!-- Node3 -->
<g id="Node000003" class="node">
<title>Node3</title>
<g id="a_Node000003"><a xlink:title=" ">
<polygon fill="#e0e0e0" stroke="#999999" points="421,-74 363,-74 363,-55 421,-55 421,-74"/>
<text text-anchor="middle" x="392" y="-62" font-family="Helvetica,sans-Serif" font-size="10.00">memory</text>
</a>
</g>
</g>
<!-- Node2&#45;&gt;Node3 -->
<g id="edge2_Node000002_Node000003" class="edge">
<title>Node2&#45;&gt;Node3</title>
<g id="a_edge2_Node000002_Node000003"><a xlink:title=" ">
<path fill="none" stroke="#63b8ff" d="M112.5,-109.98C179.62,-99.3 293.13,-81.24 352.75,-71.75"/>
<polygon fill="#63b8ff" stroke="#63b8ff" points="353.55,-75.16 362.88,-70.13 352.45,-68.25 353.55,-75.16"/>
</a>
</g>
</g>
<!-- Node4 -->
<g id="Node000004" class="node">
<title>Node4</title>
<g id="a_Node000004"><a xlink:href="Guid_8ixx.html" target="_top" xlink:title=" ">
<polygon fill="white" stroke="#666666" points="104,-74 14,-74 14,-55 104,-55 104,-74"/>
<text text-anchor="middle" x="59" y="-62" font-family="Helvetica,sans-Serif" font-size="10.00">helios.util.Guid</text>
</a>
</g>
</g>
<!-- Node2&#45;&gt;Node4 -->
<g id="edge3_Node000002_Node000004" class="edge">
<title>Node2&#45;&gt;Node4</title>
<g id="a_edge3_Node000002_Node000004"><a xlink:title=" ">
<path fill="none" stroke="#63b8ff" d="M59,-109.75C59,-102.8 59,-92.85 59,-84.13"/>
<polygon fill="#63b8ff" stroke="#63b8ff" points="62.5,-84.09 59,-74.09 55.5,-84.09 62.5,-84.09"/>
</a>
</g>
</g>
<!-- Node5 -->
<g id="Node000005" class="node">
<title>Node5</title>
<g id="a_Node000005"><a xlink:title=" ">
<polygon fill="#e0e0e0" stroke="#999999" points="50,-19 0,-19 0,0 50,0 50,-19"/>
<text text-anchor="middle" x="25" y="-7" font-family="Helvetica,sans-Serif" font-size="10.00">atomic</text>
</a>
</g>
</g>
<!-- Node4&#45;&gt;Node5 -->
<g id="edge4_Node000004_Node000005" class="edge">
<title>Node4&#45;&gt;Node5</title>
<g id="a_edge4_Node000004_Node000005"><a xlink:title=" ">
<path fill="none" stroke="#63b8ff" d="M53.39,-54.75C48.68,-47.42 41.83,-36.73 36.03,-27.7"/>
<polygon fill="#63b8ff" stroke="#63b8ff" points="38.86,-25.62 30.51,-19.09 32.96,-29.4 38.86,-25.62"/>
</a>
</g>
</g>
<!-- Node6 -->
<g id="Node000006" class="node">
<title>Node6</title>
<g id="a_Node000006"><a xlink:title=" ">
<polygon fill="#e0e0e0" stroke="#999999" points="118,-19 68,-19 68,0 118,0 118,-19"/>
<text text-anchor="middle" x="93" y="-7" font-family="Helvetica,sans-Serif" font-size="10.00">cstdint</text>
</a>
</g>
</g>
<!-- Node4&#45;&gt;Node6 -->
<g id="edge5_Node000004_Node000006" class="edge">
<title>Node4&#45;&gt;Node6</title>
<g id="a_edge5_Node000004_Node000006"><a xlink:title=" ">
<path fill="none" stroke="#63b8ff" d="M64.61,-54.75C69.32,-47.42 76.17,-36.73 81.97,-27.7"/>
<polygon fill="#63b8ff" stroke="#63b8ff" points="85.04,-29.4 87.49,-19.09 79.14,-25.62 85.04,-29.4"/>
</a>
</g>
</g>
<!-- Node7&#45;&gt;Node2 -->
<g id="edge10_Node000007_Node000002" class="edge">
<title>Node7&#45;&gt;Node2</title>
<g id="a_edge10_Node000007_Node000002"><a xlink:title=" ">
<path fill="none" stroke="#63b8ff" d="M552.75,-165.91C549.8,-165.6 546.87,-165.29 544,-165 393,-149.52 215.28,-133.87 122.57,-125.9"/>
<polygon fill="#63b8ff" stroke="#63b8ff" points="122.77,-122.4 112.5,-125.03 122.17,-129.38 122.77,-122.4"/>
</a>
</g>
</g>
<!-- Node7&#45;&gt;Node3 -->
<g id="edge8_Node000007_Node000003" class="edge">
<title>Node7&#45;&gt;Node3</title>
<g id="a_edge8_Node000007_Node000003"><a xlink:title=" ">
<path fill="none" stroke="#63b8ff" d="M600.81,-164.84C561.03,-145.92 466.13,-100.77 419.21,-78.45"/>
<polygon fill="#63b8ff" stroke="#63b8ff" points="420.5,-75.18 409.96,-74.05 417.49,-81.5 420.5,-75.18"/>
</a>
</g>
</g>
<!-- Node8 -->
<g id="Node000008" class="node">
<title>Node8</title>
<g id="a_Node000008"><a xlink:title=" ">
<polygon fill="#e0e0e0" stroke="#999999" points="455.5,-129 390.5,-129 390.5,-110 455.5,-110 455.5,-129"/>
<text text-anchor="middle" x="423" y="-117" font-family="Helvetica,sans-Serif" font-size="10.00">functional</text>
</a>
</g>
</g>
<!-- Node7&#45;&gt;Node8 -->
<g id="edge7_Node000007_Node000008" class="edge">
<title>Node7&#45;&gt;Node8</title>
<g id="a_edge7_Node000007_Node000008"><a xlink:title=" ">
<path fill="none" stroke="#63b8ff" d="M587.51,-164.98C554.18,-155.97 501.4,-141.7 464.65,-131.76"/>
<polygon fill="#63b8ff" stroke="#63b8ff" points="465.3,-128.31 454.74,-129.08 463.48,-135.07 465.3,-128.31"/>
</a>
</g>
</g>
<!-- Node9 -->
<g id="Node000009" class="node">
<title>Node9</title>
<g id="a_Node000009"><a xlink:title=" ">
<polygon fill="#e0e0e0" stroke="#999999" points="651.5,-129 586.5,-129 586.5,-110 651.5,-110 651.5,-129"/>
<text text-anchor="middle" x="619" y="-117" font-family="Helvetica,sans-Serif" font-size="10.00">typeindex</text>
</a>
</g>
</g>
<!-- Node7&#45;&gt;Node9 -->
<g id="edge9_Node000007_Node000009" class="edge">
<title>Node7&#45;&gt;Node9</title>
<g id="a_edge9_Node000007_Node000009"><a xlink:title=" ">
<path fill="none" stroke="#63b8ff" d="M619,-164.75C619,-157.8 619,-147.85 619,-139.13"/>
<polygon fill="#63b8ff" stroke="#63b8ff" points="622.5,-139.09 619,-129.09 615.5,-139.09 622.5,-139.09"/>
</a>
</g>
</g>
<!-- Node10&#45;&gt;Node2 -->
<g id="edge15_Node000010_Node000002" class="edge">
<title>Node10&#45;&gt;Node2</title>
<g id="a_edge15_Node000010_Node000002"><a xlink:title=" ">
<path fill="none" stroke="#63b8ff" d="M141.49,-219.72C129.44,-211.45 111.76,-198.24 99,-184 86.53,-170.08 75.47,-151.83 68.16,-138.46"/>
<polygon fill="#63b8ff" stroke="#63b8ff" points="71.11,-136.55 63.34,-129.35 64.93,-139.82 71.11,-136.55"/>
</a>
</g>
</g>
<!-- Node10&#45;&gt;Node3 -->
<g id="edge14_Node000010_Node000003" class="edge">
<title>Node10&#45;&gt;Node3</title>
<g id="a_edge14_Node000010_Node000003"><a xlink:title=" ">
<path fill="none" stroke="#63b8ff" d="M153.21,-219.8C149.25,-197.82 142.36,-139.68 173,-110 198.13,-85.65 296.57,-73.52 352.54,-68.48"/>
<polygon fill="#63b8ff" stroke="#63b8ff" points="353.14,-71.94 362.8,-67.59 352.53,-64.97 353.14,-71.94"/>
</a>
</g>
</g>
<!-- Node10&#45;&gt;Node8 -->
<g id="edge13_Node000010_Node000008" class="edge">
<title>Node10&#45;&gt;Node8</title>
<g id="a_edge13_Node000010_Node000008"><a xlink:title=" ">
<path fill="none" stroke="#63b8ff" d="M205.78,-219.96C240.83,-212.97 287.97,-201.37 327,-184 356,-171.09 385.97,-149.76 404.54,-135.42"/>
<polygon fill="#63b8ff" stroke="#63b8ff" points="406.76,-138.13 412.46,-129.2 402.44,-132.62 406.76,-138.13"/>
</a>
</g>
</g>
<!-- Node11 -->
<g id="Node000011" class="node">
<title>Node11</title>
<g id="a_Node000011"><a xlink:title=" ">
<polygon fill="#e0e0e0" stroke="#999999" points="229.5,-129 182.5,-129 182.5,-110 229.5,-110 229.5,-129"/>
<text text-anchor="middle" x="206" y="-117" font-family="Helvetica,sans-Serif" font-size="10.00">deque</text>
</a>
</g>
</g>
<!-- Node10&#45;&gt;Node11 -->
<g id="edge12_Node000010_Node000011" class="edge">
<title>Node10&#45;&gt;Node11</title>
<g id="a_edge12_Node000010_Node000011"><a xlink:title=" ">
<path fill="none" stroke="#63b8ff" d="M155.81,-219.87C157.25,-207.26 161.02,-183.31 170,-165 175.07,-154.67 182.91,-144.58 189.99,-136.63"/>
<polygon fill="#63b8ff" stroke="#63b8ff" points="192.67,-138.89 196.94,-129.19 187.55,-134.11 192.67,-138.89"/>
</a>
</g>
</g>
<!-- Node10&#45;&gt;Node12 -->
<g id="edge16_Node000010_Node000012" class="edge">
<title>Node10&#45;&gt;Node12</title>
<g id="a_edge16_Node000010_Node000012"><a xlink:title=" ">
<path fill="none" stroke="#63b8ff" d="M170.1,-219.98C184.82,-211.69 207.42,-198.94 224.67,-189.22"/>
<polygon fill="#63b8ff" stroke="#63b8ff" points="226.63,-192.13 233.62,-184.17 223.19,-186.03 226.63,-192.13"/>
</a>
</g>
</g>
<!-- Node12&#45;&gt;Node2 -->
<g id="edge20_Node000012_Node000002" class="edge">
<title>Node12&#45;&gt;Node2</title>
<g id="a_edge20_Node000012_Node000002"><a xlink:title=" ">
<path fill="none" stroke="#63b8ff" d="M218.47,-164.98C186.3,-156.01 135.44,-141.82 99.83,-131.89"/>
<polygon fill="#63b8ff" stroke="#63b8ff" points="100.34,-128.4 89.77,-129.08 98.46,-135.14 100.34,-128.4"/>
</a>
</g>
</g>
<!-- Node12&#45;&gt;Node3 -->
<g id="edge19_Node000012_Node000003" class="edge">
<title>Node12&#45;&gt;Node3</title>
<g id="a_edge19_Node000012_Node000003"><a xlink:title=" ">
<path fill="none" stroke="#63b8ff" d="M260.7,-164.66C285.23,-146.14 342.25,-103.08 372.44,-80.28"/>
<polygon fill="#63b8ff" stroke="#63b8ff" points="374.67,-82.98 380.54,-74.16 370.45,-77.39 374.67,-82.98"/>
</a>
</g>
</g>
<!-- Node12&#45;&gt;Node8 -->
<g id="edge18_Node000012_Node000008" class="edge">
<title>Node12&#45;&gt;Node8</title>
<g id="a_edge18_Node000012_Node000008"><a xlink:title=" ">
<path fill="none" stroke="#63b8ff" d="M276.96,-164.98C306.3,-156.05 352.6,-141.94 385.19,-132.02"/>
<polygon fill="#63b8ff" stroke="#63b8ff" points="386.28,-135.34 394.82,-129.08 384.24,-128.65 386.28,-135.34"/>
</a>
</g>
</g>
<!-- Node12&#45;&gt;Node11 -->
<g id="edge17_Node000012_Node000011" class="edge">
<title>Node12&#45;&gt;Node11</title>
<g id="a_edge17_Node000012_Node000011"><a xlink:title=" ">
<path fill="none" stroke="#63b8ff" d="M241.9,-164.75C235.83,-157.26 226.91,-146.28 219.49,-137.13"/>
<polygon fill="#63b8ff" stroke="#63b8ff" points="221.99,-134.65 212.97,-129.09 216.55,-139.06 221.99,-134.65"/>
</a>
</g>
</g>
<!-- Node13&#45;&gt;Node2 -->
<g id="edge28_Node000013_Node000002" class="edge">
<title>Node13&#45;&gt;Node2</title>
<g id="a_edge28_Node000013_Node000002"><a xlink:title=" ">
<path fill="none" stroke="#63b8ff" d="M491.58,-219.9C457.33,-206.43 387.88,-180.34 327,-165 258.15,-147.66 177.59,-135.32 122.91,-128.1"/>
<polygon fill="#63b8ff" stroke="#63b8ff" points="123.04,-124.59 112.67,-126.77 122.13,-131.53 123.04,-124.59"/>
</a>
</g>
</g>
<!-- Node13&#45;&gt;Node3 -->
<g id="edge24_Node000013_Node000003" class="edge">
<title>Node13&#45;&gt;Node3</title>
<g id="a_edge24_Node000013_Node000003"><a xlink:title=" ">
<path fill="none" stroke="#63b8ff" d="M584.62,-219.98C629.08,-213.05 680.27,-201.51 694,-184 699.21,-177.35 696.25,-173.14 694,-165 686.39,-137.53 684.57,-126.03 661,-110 624.29,-85.04 496.98,-72.77 431.53,-67.99"/>
<polygon fill="#63b8ff" stroke="#63b8ff" points="431.42,-64.47 421.2,-67.26 430.93,-71.46 431.42,-64.47"/>
</a>
</g>
</g>
<!-- Node13&#45;&gt;Node7 -->
<g id="edge26_Node000013_Node000007" class="edge">
<title>Node13&#45;&gt;Node7</title>
<g id="a_edge26_Node000013_Node000007"><a xlink:title=" ">
<path fill="none" stroke="#63b8ff" d="M530.03,-219.98C546.93,-211.54 573.06,-198.47 592.64,-188.68"/>
<polygon fill="#63b8ff" stroke="#63b8ff" points="594.28,-191.77 601.66,-184.17 591.15,-185.51 594.28,-191.77"/>
</a>
</g>
</g>
<!-- Node13&#45;&gt;Node8 -->
<g id="edge23_Node000013_Node000008" class="edge">
<title>Node13&#45;&gt;Node8</title>
<g id="a_edge23_Node000013_Node000008"><a xlink:title=" ">
<path fill="none" stroke="#63b8ff" d="M505.63,-219.66C490.6,-201.61 456.15,-160.28 436.81,-137.08"/>
<polygon fill="#63b8ff" stroke="#63b8ff" points="439.31,-134.6 430.22,-129.16 433.93,-139.08 439.31,-134.6"/>
</a>
</g>
</g>
<!-- Node13&#45;&gt;Node12 -->
<g id="edge27_Node000013_Node000012" class="edge">
<title>Node13&#45;&gt;Node12</title>
<g id="a_edge27_Node000013_Node000012"><a xlink:title=" ">
<path fill="none" stroke="#63b8ff" d="M470.58,-219.98C424.63,-210.76 351.25,-196.03 301.65,-186.07"/>
<polygon fill="#63b8ff" stroke="#63b8ff" points="302.24,-182.62 291.75,-184.08 300.86,-189.48 302.24,-182.62"/>
</a>
</g>
</g>
<!-- Node14 -->
<g id="Node000014" class="node">
<title>Node14</title>
<g id="a_Node000014"><a xlink:title=" ">
<polygon fill="#e0e0e0" stroke="#999999" points="534.5,-184 489.5,-184 489.5,-165 534.5,-165 534.5,-184"/>
<text text-anchor="middle" x="512" y="-172" font-family="Helvetica,sans-Serif" font-size="10.00">utility</text>
</a>
</g>
</g>
<!-- Node13&#45;&gt;Node14 -->
<g id="edge25_Node000013_Node000014" class="edge">
<title>Node13&#45;&gt;Node14</title>
<g id="a_edge25_Node000013_Node000014"><a xlink:title=" ">
<path fill="none" stroke="#63b8ff" d="M512.83,-219.75C512.7,-212.8 512.52,-202.85 512.35,-194.13"/>
<polygon fill="#63b8ff" stroke="#63b8ff" points="515.85,-194.02 512.16,-184.09 508.85,-194.15 515.85,-194.02"/>
</a>
</g>
</g>
<!-- Node15&#45;&gt;Node2 -->
<g id="edge32_Node000015_Node000002" class="edge">
<title>Node15&#45;&gt;Node2</title>
<g id="a_edge32_Node000015_Node000002"><a xlink:title=" ">
<path fill="none" stroke="#63b8ff" d="M308.91,-277.72C214.94,-270.65 77.32,-257.31 61,-239 36.56,-211.58 45.23,-164.79 52.72,-138.97"/>
<polygon fill="#63b8ff" stroke="#63b8ff" points="56.1,-139.89 55.76,-129.3 49.42,-137.79 56.1,-139.89"/>
</a>
</g>
</g>
<!-- Node15&#45;&gt;Node3 -->
<g id="edge31_Node000015_Node000003" class="edge">
<title>Node15&#45;&gt;Node3</title>
<g id="a_edge31_Node000015_Node000003"><a xlink:title=" ">
<path fill="none" stroke="#63b8ff" d="M470.59,-274.98C514.19,-268.38 569.94,-257.21 617,-239 665.94,-220.06 720.11,-216.29 709,-165 703.32,-138.76 705.41,-126.2 684,-110 645.01,-80.5 502.06,-70.26 431.68,-66.95"/>
<polygon fill="#63b8ff" stroke="#63b8ff" points="431.59,-63.44 421.44,-66.49 431.28,-70.44 431.59,-63.44"/>
</a>
</g>
</g>
<!-- Node15&#45;&gt;Node7 -->
<g id="edge33_Node000015_Node000007" class="edge">
<title>Node15&#45;&gt;Node7</title>
<g id="a_edge33_Node000015_Node000007"><a xlink:title=" ">
<path fill="none" stroke="#63b8ff" d="M468.66,-275C518.05,-267.79 578.05,-255.9 597,-239 609.64,-227.73 615.02,-208.82 617.31,-194.56"/>
<polygon fill="#63b8ff" stroke="#63b8ff" points="620.82,-194.71 618.56,-184.35 613.87,-193.85 620.82,-194.71"/>
</a>
</g>
</g>
<!-- Node15&#45;&gt;Node8 -->
<g id="edge30_Node000015_Node000008" class="edge">
<title>Node15&#45;&gt;Node8</title>
<g id="a_edge30_Node000015_Node000008"><a xlink:title=" ">
<path fill="none" stroke="#63b8ff" d="M398.4,-274.74C402.47,-249.2 414.4,-174.43 420.01,-139.23"/>
<polygon fill="#63b8ff" stroke="#63b8ff" points="423.48,-139.73 421.6,-129.31 416.56,-138.63 423.48,-139.73"/>
</a>
</g>
</g>
<!-- Node15&#45;&gt;Node12 -->
<g id="edge34_Node000015_Node000012" class="edge">
<title>Node15&#45;&gt;Node12</title>
<g id="a_edge34_Node000015_Node000012"><a xlink:title=" ">
<path fill="none" stroke="#63b8ff" d="M385.14,-274.84C359.92,-256.44 300.71,-213.23 269.33,-190.34"/>
<polygon fill="#63b8ff" stroke="#63b8ff" points="271.06,-187.26 260.92,-184.2 266.93,-192.92 271.06,-187.26"/>
</a>
</g>
</g>
<!-- Node15&#45;&gt;Node13 -->
<g id="edge35_Node000015_Node000013" class="edge">
<title>Node15&#45;&gt;Node13</title>
<g id="a_edge35_Node000015_Node000013"><a xlink:title=" ">
<path fill="none" stroke="#63b8ff" d="M415.64,-274.98C434.3,-266.46 463.25,-253.23 484.74,-243.41"/>
<polygon fill="#63b8ff" stroke="#63b8ff" points="486.38,-246.51 494.02,-239.17 483.47,-240.14 486.38,-246.51"/>
</a>
</g>
</g>
</g>
</svg>

<g id="navigator" transform="translate(0 0)" fill="#404254">
  <rect fill="#f2f5e9" fill-opacity="0.5" stroke="#606060" stroke-width=".5" x="0" y="0" width="60" height="60"/>
  <use id="zoomplus" xlink:href="#zoomPlus" x="17" y="9" onmousedown="handleZoom(evt,'in')"/>
  <use id="zoomminus" xlink:href="#zoomMin" x="42" y="9" onmousedown="handleZoom(evt,'out')"/>
  <use id="reset" xlink:href="#resetDef" x="30" y="36" onmousedown="handleReset()"/>
   <use id="arrowup" xlink:href="#arrowUp" x="0" y="0" onmousedown="handlePan(0,-1)"/>
  <use id="arrowright" xlink:href="#arrowRight" x="0" y="0" onmousedown="handlePan(1,0)"/>
  <use id="arrowdown" xlink:href="#arrowDown" x="0" y="0" onmousedown="handlePan(0,1)"/>
  <use id="arrowleft" xlink:href="#arrowLeft" x="0" y="0" onmousedown="handlePan(-1,0)"/>
</g>
<svg viewBox="0 0 15 15" width="100%" height="30px" preserveAspectRatio="xMaxYMin meet">
 <g id="arrow_out" transform="scale(0.3 0.3)">
  <a xlink:href="event_2__module_8ixx__incl_org.svg" target="_base">
   <rect id="button" ry="5" rx="5" y="6" x="6" height="38" width="38"
        fill="#f2f5e9" fill-opacity="0.5" stroke="#606060" stroke-width="1.0"/>
   <path id="arrow"
     d="M 11.500037,31.436501 C 11.940474,20.09759 22.043105,11.32322 32.158766,21.979434 L 37.068811,17.246167 C 37.068811,17.246167 37.088388,32 37.088388,32 L 22.160133,31.978069 C 22.160133,31.978069 26.997745,27.140456 26.997745,27.140456 C 18.528582,18.264221 13.291696,25.230495 11.500037,31.436501 z"
     style="fill:#404040;"/>
  </a>
 </g>
</svg>

<style type='text/css'>
<![CDATA[
[data-mouse-over-selected='false'] { opacity: 0.7; }
[data-mouse-over-selected='true']  { opacity: 1.0; }
]]>
</style>
<script type="application/ecmascript"><![CDATA[
document.addEventListener('DOMContentLoaded', (event) => {
  highlightEdges();
  highlightAdjacentNodes();
});
]]></script>
</svg>
