<?xml version="1.0" encoding="UTF-8" standalone="no"?>
<!DOCTYPE svg PUBLIC "-//W3C//DTD SVG 1.1//EN"
 "http://www.w3.org/Graphics/SVG/1.1/DTD/svg11.dtd">
<!-- Generated by graphviz version 2.43.0 (0)
 -->
<!-- Title: include/helios/event/EventManager.ixx Pages: 1 -->
<svg width="972pt" height="258pt"
 viewBox="0.00 0.00 971.50 258.00" xmlns="http://www.w3.org/2000/svg" xmlns:xlink="http://www.w3.org/1999/xlink">
<g id="graph0" class="graph" transform="scale(1 1) rotate(0) translate(4 254)">
<title>include/helios/event/EventManager.ixx</title>
<!-- Node1 -->
<g id="Node000001" class="node">
<title>Node1</title>
<g id="a_Node000001"><a xlink:title="High&#45;level event manager dispatching events to listeners.">
<polygon fill="#999999" stroke="#666666" points="684,-250 569,-250 569,-220 684,-220 684,-250"/>
<text text-anchor="start" x="577" y="-238" font-family="Helvetica,sans-Serif" font-size="10.00">include/helios/event</text>
<text text-anchor="middle" x="626.5" y="-227" font-family="Helvetica,sans-Serif" font-size="10.00">/EventManager.ixx</text>
</a>
</g>
</g>
<!-- Node2 -->
<g id="Node000002" class="node">
<title>Node2</title>
<g id="a_Node000002"><a xlink:title=" ">
<polygon fill="#e0e0e0" stroke="#999999" points="794,-129 729,-129 729,-110 794,-110 794,-129"/>
<text text-anchor="middle" x="761.5" y="-117" font-family="Helvetica,sans-Serif" font-size="10.00">functional</text>
</a>
</g>
</g>
<!-- Node1&#45;&gt;Node2 -->
<g id="edge1_Node000001_Node000002" class="edge">
<title>Node1&#45;&gt;Node2</title>
<g id="a_edge1_Node000001_Node000002"><a xlink:title=" ">
<path fill="none" stroke="#63b8ff" d="M684.29,-222.78C707.43,-215.46 732.36,-203.48 748.5,-184 758.71,-171.68 761.59,-153.46 762.13,-139.69"/>
<polygon fill="#63b8ff" stroke="#63b8ff" points="765.63,-139.4 762.14,-129.4 758.63,-139.39 765.63,-139.4"/>
</a>
</g>
</g>
<!-- Node3 -->
<g id="Node000003" class="node">
<title>Node3</title>
<g id="a_Node000003"><a xlink:title=" ">
<polygon fill="#e0e0e0" stroke="#999999" points="627.5,-74 569.5,-74 569.5,-55 627.5,-55 627.5,-74"/>
<text text-anchor="middle" x="598.5" y="-62" font-family="Helvetica,sans-Serif" font-size="10.00">memory</text>
</a>
</g>
</g>
<!-- Node1&#45;&gt;Node3 -->
<g id="edge2_Node000001_Node000003" class="edge">
<title>Node1&#45;&gt;Node3</title>
<g id="a_edge2_Node000001_Node000003"><a xlink:title=" ">
<path fill="none" stroke="#63b8ff" d="M616.06,-219.97C609.61,-210.39 601.92,-197.09 598.5,-184 589.53,-149.61 592.66,-107.68 595.65,-84.04"/>
<polygon fill="#63b8ff" stroke="#63b8ff" points="599.14,-84.41 597.05,-74.02 592.2,-83.44 599.14,-84.41"/>
</a>
</g>
</g>
<!-- Node4 -->
<g id="Node000004" class="node">
<title>Node4</title>
<g id="a_Node000004"><a xlink:title=" ">
<polygon fill="#e0e0e0" stroke="#999999" points="551,-184 506,-184 506,-165 551,-165 551,-184"/>
<text text-anchor="middle" x="528.5" y="-172" font-family="Helvetica,sans-Serif" font-size="10.00">utility</text>
</a>
</g>
</g>
<!-- Node1&#45;&gt;Node4 -->
<g id="edge3_Node000001_Node000004" class="edge">
<title>Node1&#45;&gt;Node4</title>
<g id="a_edge3_Node000001_Node000004"><a xlink:title=" ">
<path fill="none" stroke="#63b8ff" d="M602.78,-219.84C587.3,-210.6 567.18,-198.59 551.79,-189.4"/>
<polygon fill="#63b8ff" stroke="#63b8ff" points="553.28,-186.21 542.9,-184.09 549.69,-192.23 553.28,-186.21"/>
</a>
</g>
</g>
<!-- Node5 -->
<g id="Node000005" class="node">
<title>Node5</title>
<g id="a_Node000005"><a xlink:href="Logger_8ixx.html" target="_top" xlink:title="Simple synchronous logger with configurable output sinks.">
<polygon fill="white" stroke="#666666" points="183,-129 64,-129 64,-110 183,-110 183,-129"/>
<text text-anchor="middle" x="123.5" y="-117" font-family="Helvetica,sans-Serif" font-size="10.00">helios.util.log.Logger</text>
</a>
</g>
</g>
<!-- Node1&#45;&gt;Node5 -->
<g id="edge4_Node000001_Node000005" class="edge">
<title>Node1&#45;&gt;Node5</title>
<g id="a_edge4_Node000001_Node000005"><a xlink:title=" ">
<path fill="none" stroke="#63b8ff" d="M568.71,-230.96C469.19,-225.09 269.96,-210.39 205.5,-184 179.11,-173.2 153.98,-151.45 138.66,-136.44"/>
<polygon fill="#63b8ff" stroke="#63b8ff" points="141.11,-133.94 131.59,-129.3 136.14,-138.87 141.11,-133.94"/>
</a>
</g>
</g>
<!-- Node10 -->
<g id="Node000010" class="node">
<title>Node10</title>
<g id="a_Node000010"><a xlink:href="LogManager_8ixx.html" target="_top" xlink:title="Central manager for scoped loggers with configurable sinks.">
<polygon fill="white" stroke="#666666" points="360.5,-184 214.5,-184 214.5,-165 360.5,-165 360.5,-184"/>
<text text-anchor="middle" x="287.5" y="-172" font-family="Helvetica,sans-Serif" font-size="10.00">helios.util.log.LogManager</text>
</a>
</g>
</g>
<!-- Node1&#45;&gt;Node10 -->
<g id="edge11_Node000001_Node000010" class="edge">
<title>Node1&#45;&gt;Node10</title>
<g id="a_edge11_Node000001_Node000010"><a xlink:title=" ">
<path fill="none" stroke="#63b8ff" d="M568.99,-224.08C507.26,-213.42 409.65,-196.58 347.11,-185.79"/>
<polygon fill="#63b8ff" stroke="#63b8ff" points="347.46,-182.29 337.01,-184.04 346.27,-189.19 347.46,-182.29"/>
</a>
</g>
</g>
<!-- Node13 -->
<g id="Node000013" class="node">
<title>Node13</title>
<g id="a_Node000013"><a xlink:href="Dispatcher_8ixx.html" target="_top" xlink:title="Dispatches events to registered callbacks.">
<polygon fill="white" stroke="#666666" points="739.5,-184 607.5,-184 607.5,-165 739.5,-165 739.5,-184"/>
<text text-anchor="middle" x="673.5" y="-172" font-family="Helvetica,sans-Serif" font-size="10.00">helios.event.Dispatcher</text>
</a>
</g>
</g>
<!-- Node1&#45;&gt;Node13 -->
<g id="edge20_Node000001_Node000013" class="edge">
<title>Node1&#45;&gt;Node13</title>
<g id="a_edge20_Node000001_Node000013"><a xlink:title=" ">
<path fill="none" stroke="#63b8ff" d="M637.88,-219.84C644.56,-211.52 653.05,-200.96 660.06,-192.23"/>
<polygon fill="#63b8ff" stroke="#63b8ff" points="662.92,-194.25 666.46,-184.27 657.47,-189.87 662.92,-194.25"/>
</a>
</g>
</g>
<!-- Node15 -->
<g id="Node000015" class="node">
<title>Node15</title>
<g id="a_Node000015"><a xlink:href="Event_8ixx.html" target="_top" xlink:title="Base class for events in the helios framework.">
<polygon fill="white" stroke="#666666" points="958,-129 851,-129 851,-110 958,-110 958,-129"/>
<text text-anchor="middle" x="904.5" y="-117" font-family="Helvetica,sans-Serif" font-size="10.00">helios.event.Event</text>
</a>
</g>
</g>
<!-- Node1&#45;&gt;Node15 -->
<g id="edge34_Node000001_Node000015" class="edge">
<title>Node1&#45;&gt;Node15</title>
<g id="a_edge34_Node000001_Node000015"><a xlink:title=" ">
<path fill="none" stroke="#63b8ff" d="M684.27,-233.53C766.68,-231.49 911.68,-222.39 944.5,-184 957.55,-168.74 940.39,-148.83 924.66,-135.41"/>
<polygon fill="#63b8ff" stroke="#63b8ff" points="926.72,-132.58 916.73,-129.04 922.34,-138.03 926.72,-132.58"/>
</a>
</g>
</g>
<!-- Node19 -->
<g id="Node000019" class="node">
<title>Node19</title>
<g id="a_Node000019"><a xlink:href="EventQueue_8ixx.html" target="_top" xlink:title="Thread&#45;safe queue for Event objects.">
<polygon fill="white" stroke="#666666" points="935,-184 796,-184 796,-165 935,-165 935,-184"/>
<text text-anchor="middle" x="865.5" y="-172" font-family="Helvetica,sans-Serif" font-size="10.00">helios.event.EventQueue</text>
</a>
</g>
</g>
<!-- Node1&#45;&gt;Node19 -->
<g id="edge30_Node000001_Node000019" class="edge">
<title>Node1&#45;&gt;Node19</title>
<g id="a_edge30_Node000001_Node000019"><a xlink:title=" ">
<path fill="none" stroke="#63b8ff" d="M683.75,-219.99C725.71,-209.72 781.88,-195.97 820.61,-186.49"/>
<polygon fill="#63b8ff" stroke="#63b8ff" points="821.67,-189.83 830.55,-184.05 820.01,-183.03 821.67,-189.83"/>
</a>
</g>
</g>
<!-- Node5&#45;&gt;Node3 -->
<g id="edge7_Node000005_Node000003" class="edge">
<title>Node5&#45;&gt;Node3</title>
<g id="a_edge7_Node000005_Node000003"><a xlink:title=" ">
<path fill="none" stroke="#63b8ff" d="M183.18,-111.84C281.86,-100.83 476.4,-79.12 559.44,-69.86"/>
<polygon fill="#63b8ff" stroke="#63b8ff" points="559.91,-73.33 569.46,-68.74 559.14,-66.37 559.91,-73.33"/>
</a>
</g>
</g>
<!-- Node6 -->
<g id="Node000006" class="node">
<title>Node6</title>
<g id="a_Node000006"><a xlink:title=" ">
<polygon fill="#e0e0e0" stroke="#999999" points="298.5,-19 254.5,-19 254.5,0 298.5,0 298.5,-19"/>
<text text-anchor="middle" x="276.5" y="-7" font-family="Helvetica,sans-Serif" font-size="10.00">string</text>
</a>
</g>
</g>
<!-- Node5&#45;&gt;Node6 -->
<g id="edge5_Node000005_Node000006" class="edge">
<title>Node5&#45;&gt;Node6</title>
<g id="a_edge5_Node000005_Node000006"><a xlink:title=" ">
<path fill="none" stroke="#63b8ff" d="M114.22,-110C101.28,-97.13 80.88,-72.35 94.5,-55 112.8,-31.69 197.26,-19.02 244.42,-13.65"/>
<polygon fill="#63b8ff" stroke="#63b8ff" points="244.88,-17.12 254.44,-12.56 244.12,-10.16 244.88,-17.12"/>
</a>
</g>
</g>
<!-- Node7 -->
<g id="Node000007" class="node">
<title>Node7</title>
<g id="a_Node000007"><a xlink:title=" ">
<polygon fill="#e0e0e0" stroke="#999999" points="47,-74 0,-74 0,-55 47,-55 47,-74"/>
<text text-anchor="middle" x="23.5" y="-62" font-family="Helvetica,sans-Serif" font-size="10.00">vector</text>
</a>
</g>
</g>
<!-- Node5&#45;&gt;Node7 -->
<g id="edge6_Node000005_Node000007" class="edge">
<title>Node5&#45;&gt;Node7</title>
<g id="a_edge6_Node000005_Node000007"><a xlink:title=" ">
<path fill="none" stroke="#63b8ff" d="M107.43,-109.98C91.64,-101.61 67.28,-88.7 48.87,-78.95"/>
<polygon fill="#63b8ff" stroke="#63b8ff" points="50.33,-75.76 39.86,-74.17 47.06,-81.95 50.33,-75.76"/>
</a>
</g>
</g>
<!-- Node8 -->
<g id="Node000008" class="node">
<title>Node8</title>
<g id="a_Node000008"><a xlink:title=" ">
<polygon fill="#e0e0e0" stroke="#999999" points="151.5,-74 103.5,-74 103.5,-55 151.5,-55 151.5,-74"/>
<text text-anchor="middle" x="127.5" y="-62" font-family="Helvetica,sans-Serif" font-size="10.00">mutex</text>
</a>
</g>
</g>
<!-- Node5&#45;&gt;Node8 -->
<g id="edge8_Node000005_Node000008" class="edge">
<title>Node5&#45;&gt;Node8</title>
<g id="a_edge8_Node000005_Node000008"><a xlink:title=" ">
<path fill="none" stroke="#63b8ff" d="M124.16,-109.75C124.68,-102.8 125.44,-92.85 126.09,-84.13"/>
<polygon fill="#63b8ff" stroke="#63b8ff" points="129.59,-84.32 126.85,-74.09 122.61,-83.8 129.59,-84.32"/>
</a>
</g>
</g>
<!-- Node9 -->
<g id="Node000009" class="node">
<title>Node9</title>
<g id="a_Node000009"><a xlink:href="LogSink_8ixx.html" target="_top" xlink:title="Abstract interface for log output destinations.">
<polygon fill="white" stroke="#666666" points="293.5,-74 169.5,-74 169.5,-55 293.5,-55 293.5,-74"/>
<text text-anchor="middle" x="231.5" y="-62" font-family="Helvetica,sans-Serif" font-size="10.00">helios.util.log.LogSink</text>
</a>
</g>
</g>
<!-- Node5&#45;&gt;Node9 -->
<g id="edge9_Node000005_Node000009" class="edge">
<title>Node5&#45;&gt;Node9</title>
<g id="a_edge9_Node000005_Node000009"><a xlink:title=" ">
<path fill="none" stroke="#63b8ff" d="M140.85,-109.98C158.07,-101.54 184.7,-88.47 204.65,-78.68"/>
<polygon fill="#63b8ff" stroke="#63b8ff" points="206.4,-81.72 213.83,-74.17 203.31,-75.43 206.4,-81.72"/>
</a>
</g>
</g>
<!-- Node9&#45;&gt;Node6 -->
<g id="edge10_Node000009_Node000006" class="edge">
<title>Node9&#45;&gt;Node6</title>
<g id="a_edge10_Node000009_Node000006"><a xlink:title=" ">
<path fill="none" stroke="#63b8ff" d="M238.93,-54.75C245.35,-47.18 254.81,-36.05 262.62,-26.84"/>
<polygon fill="#63b8ff" stroke="#63b8ff" points="265.4,-28.98 269.21,-19.09 260.07,-24.45 265.4,-28.98"/>
</a>
</g>
</g>
<!-- Node10&#45;&gt;Node3 -->
<g id="edge15_Node000010_Node000003" class="edge">
<title>Node10&#45;&gt;Node3</title>
<g id="a_edge15_Node000010_Node000003"><a xlink:title=" ">
<path fill="none" stroke="#63b8ff" d="M360.61,-169.21C408.54,-164.14 471.54,-153.09 522.5,-129 546.9,-117.47 569.94,-96.21 584.13,-81.49"/>
<polygon fill="#63b8ff" stroke="#63b8ff" points="586.78,-83.78 591.05,-74.08 581.66,-79 586.78,-83.78"/>
</a>
</g>
</g>
<!-- Node10&#45;&gt;Node5 -->
<g id="edge18_Node000010_Node000005" class="edge">
<title>Node10&#45;&gt;Node5</title>
<g id="a_edge18_Node000010_Node000005"><a xlink:title=" ">
<path fill="none" stroke="#63b8ff" d="M261.15,-164.98C233.74,-156.13 190.61,-142.19 159.94,-132.28"/>
<polygon fill="#63b8ff" stroke="#63b8ff" points="160.65,-128.83 150.06,-129.08 158.5,-135.49 160.65,-128.83"/>
</a>
</g>
</g>
<!-- Node10&#45;&gt;Node6 -->
<g id="edge12_Node000010_Node000006" class="edge">
<title>Node10&#45;&gt;Node6</title>
<g id="a_edge12_Node000010_Node000006"><a xlink:title=" ">
<path fill="none" stroke="#63b8ff" d="M290.9,-164.72C298.09,-144.84 313.34,-95.03 302.5,-55 299.84,-45.19 294.43,-35.33 289.22,-27.39"/>
<polygon fill="#63b8ff" stroke="#63b8ff" points="292,-25.25 283.39,-19.07 286.27,-29.27 292,-25.25"/>
</a>
</g>
</g>
<!-- Node10&#45;&gt;Node7 -->
<g id="edge17_Node000010_Node000007" class="edge">
<title>Node10&#45;&gt;Node7</title>
<g id="a_edge17_Node000010_Node000007"><a xlink:title=" ">
<path fill="none" stroke="#63b8ff" d="M214.24,-166.68C155.57,-159.93 79.16,-147.85 54.5,-129 40.05,-117.96 31.94,-98.42 27.68,-83.92"/>
<polygon fill="#63b8ff" stroke="#63b8ff" points="31.01,-82.84 25.12,-74.04 24.24,-84.6 31.01,-82.84"/>
</a>
</g>
</g>
<!-- Node10&#45;&gt;Node8 -->
<g id="edge16_Node000010_Node000008" class="edge">
<title>Node10&#45;&gt;Node8</title>
<g id="a_edge16_Node000010_Node000008"><a xlink:title=" ">
<path fill="none" stroke="#63b8ff" d="M274.68,-164.84C247.29,-146.36 182.85,-102.86 149.05,-80.05"/>
<polygon fill="#63b8ff" stroke="#63b8ff" points="150.63,-76.89 140.38,-74.2 146.71,-82.69 150.63,-76.89"/>
</a>
</g>
</g>
<!-- Node10&#45;&gt;Node9 -->
<g id="edge19_Node000010_Node000009" class="edge">
<title>Node10&#45;&gt;Node9</title>
<g id="a_edge19_Node000010_Node000009"><a xlink:title=" ">
<path fill="none" stroke="#63b8ff" d="M282.92,-164.66C273.72,-146.93 252.88,-106.73 240.74,-83.32"/>
<polygon fill="#63b8ff" stroke="#63b8ff" points="243.7,-81.42 235.99,-74.16 237.49,-84.65 243.7,-81.42"/>
</a>
</g>
</g>
<!-- Node11 -->
<g id="Node000011" class="node">
<title>Node11</title>
<g id="a_Node000011"><a xlink:title=" ">
<polygon fill="#e0e0e0" stroke="#999999" points="409,-129 316,-129 316,-110 409,-110 409,-129"/>
<text text-anchor="middle" x="362.5" y="-117" font-family="Helvetica,sans-Serif" font-size="10.00">unordered_map</text>
</a>
</g>
</g>
<!-- Node10&#45;&gt;Node11 -->
<g id="edge13_Node000010_Node000011" class="edge">
<title>Node10&#45;&gt;Node11</title>
<g id="a_edge13_Node000010_Node000011"><a xlink:title=" ">
<path fill="none" stroke="#63b8ff" d="M299.55,-164.98C310.96,-156.92 328.33,-144.65 341.93,-135.03"/>
<polygon fill="#63b8ff" stroke="#63b8ff" points="344.08,-137.8 350.23,-129.17 340.04,-132.08 344.08,-137.8"/>
</a>
</g>
</g>
<!-- Node12 -->
<g id="Node000012" class="node">
<title>Node12</title>
<g id="a_Node000012"><a xlink:title=" ">
<polygon fill="#e0e0e0" stroke="#999999" points="513.5,-129 427.5,-129 427.5,-110 513.5,-110 513.5,-129"/>
<text text-anchor="middle" x="470.5" y="-117" font-family="Helvetica,sans-Serif" font-size="10.00">unordered_set</text>
</a>
</g>
</g>
<!-- Node10&#45;&gt;Node12 -->
<g id="edge14_Node000010_Node000012" class="edge">
<title>Node10&#45;&gt;Node12</title>
<g id="a_edge14_Node000010_Node000012"><a xlink:title=" ">
<path fill="none" stroke="#63b8ff" d="M316.9,-164.98C347.89,-156.01 396.88,-141.82 431.17,-131.89"/>
<polygon fill="#63b8ff" stroke="#63b8ff" points="432.24,-135.23 440.87,-129.08 430.29,-128.5 432.24,-135.23"/>
</a>
</g>
</g>
<!-- Node13&#45;&gt;Node2 -->
<g id="edge21_Node000013_Node000002" class="edge">
<title>Node13&#45;&gt;Node2</title>
<g id="a_edge21_Node000013_Node000002"><a xlink:title=" ">
<path fill="none" stroke="#63b8ff" d="M687.64,-164.98C701.29,-156.77 722.19,-144.18 738.28,-134.49"/>
<polygon fill="#63b8ff" stroke="#63b8ff" points="740.34,-137.33 747.1,-129.17 736.73,-131.33 740.34,-137.33"/>
</a>
</g>
</g>
<!-- Node13&#45;&gt;Node3 -->
<g id="edge22_Node000013_Node000003" class="edge">
<title>Node13&#45;&gt;Node3</title>
<g id="a_edge22_Node000013_Node000003"><a xlink:title=" ">
<path fill="none" stroke="#63b8ff" d="M665.98,-164.9C658.45,-156.12 646.68,-141.98 637.5,-129 626.9,-114.02 616.08,-96.14 608.53,-83.18"/>
<polygon fill="#63b8ff" stroke="#63b8ff" points="611.47,-81.28 603.45,-74.36 605.4,-84.77 611.47,-81.28"/>
</a>
</g>
</g>
<!-- Node14 -->
<g id="Node000014" class="node">
<title>Node14</title>
<g id="a_Node000014"><a xlink:title=" ">
<polygon fill="#e0e0e0" stroke="#999999" points="711,-129 646,-129 646,-110 711,-110 711,-129"/>
<text text-anchor="middle" x="678.5" y="-117" font-family="Helvetica,sans-Serif" font-size="10.00">typeindex</text>
</a>
</g>
</g>
<!-- Node13&#45;&gt;Node14 -->
<g id="edge23_Node000013_Node000014" class="edge">
<title>Node13&#45;&gt;Node14</title>
<g id="a_edge23_Node000013_Node000014"><a xlink:title=" ">
<path fill="none" stroke="#63b8ff" d="M674.33,-164.75C674.98,-157.8 675.92,-147.85 676.74,-139.13"/>
<polygon fill="#63b8ff" stroke="#63b8ff" points="680.23,-139.37 677.69,-129.09 673.27,-138.72 680.23,-139.37"/>
</a>
</g>
</g>
<!-- Node13&#45;&gt;Node15 -->
<g id="edge24_Node000013_Node000015" class="edge">
<title>Node13&#45;&gt;Node15</title>
<g id="a_edge24_Node000013_Node000015"><a xlink:title=" ">
<path fill="none" stroke="#63b8ff" d="M710.61,-164.98C750.49,-155.84 813.96,-141.27 857.34,-131.32"/>
<polygon fill="#63b8ff" stroke="#63b8ff" points="858.13,-134.73 867.09,-129.08 856.57,-127.91 858.13,-134.73"/>
</a>
</g>
</g>
<!-- Node15&#45;&gt;Node3 -->
<g id="edge25_Node000015_Node000003" class="edge">
<title>Node15&#45;&gt;Node3</title>
<g id="a_edge25_Node000015_Node000003"><a xlink:title=" ">
<path fill="none" stroke="#63b8ff" d="M855.34,-109.98C794.87,-99.51 693.42,-81.94 637.85,-72.31"/>
<polygon fill="#63b8ff" stroke="#63b8ff" points="638.15,-68.81 627.7,-70.56 636.95,-75.71 638.15,-68.81"/>
</a>
</g>
</g>
<!-- Node15&#45;&gt;Node6 -->
<g id="edge26_Node000015_Node000006" class="edge">
<title>Node15&#45;&gt;Node6</title>
<g id="a_edge26_Node000015_Node000006"><a xlink:title=" ">
<path fill="none" stroke="#63b8ff" d="M873.38,-109.95C823.66,-96.56 723.09,-70.56 636.5,-55 516.38,-33.41 371.83,-19.01 308.67,-13.28"/>
<polygon fill="#63b8ff" stroke="#63b8ff" points="308.81,-9.78 298.54,-12.38 308.19,-16.75 308.81,-9.78"/>
</a>
</g>
</g>
<!-- Node16 -->
<g id="Node000016" class="node">
<title>Node16</title>
<g id="a_Node000016"><a xlink:href="Guid_8ixx.html" target="_top" xlink:title="Lightweight GUID (globally unique identifier) implementation.">
<polygon fill="white" stroke="#666666" points="949.5,-74 859.5,-74 859.5,-55 949.5,-55 949.5,-74"/>
<text text-anchor="middle" x="904.5" y="-62" font-family="Helvetica,sans-Serif" font-size="10.00">helios.util.Guid</text>
</a>
</g>
</g>
<!-- Node15&#45;&gt;Node16 -->
<g id="edge27_Node000015_Node000016" class="edge">
<title>Node15&#45;&gt;Node16</title>
<g id="a_edge27_Node000015_Node000016"><a xlink:title=" ">
<path fill="none" stroke="#63b8ff" d="M904.5,-109.75C904.5,-102.8 904.5,-92.85 904.5,-84.13"/>
<polygon fill="#63b8ff" stroke="#63b8ff" points="908,-84.09 904.5,-74.09 901,-84.09 908,-84.09"/>
</a>
</g>
</g>
<!-- Node17 -->
<g id="Node000017" class="node">
<title>Node17</title>
<g id="a_Node000017"><a xlink:title=" ">
<polygon fill="#e0e0e0" stroke="#999999" points="895.5,-19 845.5,-19 845.5,0 895.5,0 895.5,-19"/>
<text text-anchor="middle" x="870.5" y="-7" font-family="Helvetica,sans-Serif" font-size="10.00">atomic</text>
</a>
</g>
</g>
<!-- Node16&#45;&gt;Node17 -->
<g id="edge28_Node000016_Node000017" class="edge">
<title>Node16&#45;&gt;Node17</title>
<g id="a_edge28_Node000016_Node000017"><a xlink:title=" ">
<path fill="none" stroke="#63b8ff" d="M898.89,-54.75C894.18,-47.42 887.33,-36.73 881.53,-27.7"/>
<polygon fill="#63b8ff" stroke="#63b8ff" points="884.36,-25.62 876.01,-19.09 878.46,-29.4 884.36,-25.62"/>
</a>
</g>
</g>
<!-- Node18 -->
<g id="Node000018" class="node">
<title>Node18</title>
<g id="a_Node000018"><a xlink:title=" ">
<polygon fill="#e0e0e0" stroke="#999999" points="963.5,-19 913.5,-19 913.5,0 963.5,0 963.5,-19"/>
<text text-anchor="middle" x="938.5" y="-7" font-family="Helvetica,sans-Serif" font-size="10.00">cstdint</text>
</a>
</g>
</g>
<!-- Node16&#45;&gt;Node18 -->
<g id="edge29_Node000016_Node000018" class="edge">
<title>Node16&#45;&gt;Node18</title>
<g id="a_edge29_Node000016_Node000018"><a xlink:title=" ">
<path fill="none" stroke="#63b8ff" d="M910.11,-54.75C914.82,-47.42 921.67,-36.73 927.47,-27.7"/>
<polygon fill="#63b8ff" stroke="#63b8ff" points="930.54,-29.4 932.99,-19.09 924.64,-25.62 930.54,-29.4"/>
</a>
</g>
</g>
<!-- Node19&#45;&gt;Node2 -->
<g id="edge31_Node000019_Node000002" class="edge">
<title>Node19&#45;&gt;Node2</title>
<g id="a_edge31_Node000019_Node000002"><a xlink:title=" ">
<path fill="none" stroke="#63b8ff" d="M848.79,-164.98C832.29,-156.57 806.8,-143.59 787.62,-133.81"/>
<polygon fill="#63b8ff" stroke="#63b8ff" points="789.01,-130.59 778.51,-129.17 785.83,-136.83 789.01,-130.59"/>
</a>
</g>
</g>
<!-- Node19&#45;&gt;Node3 -->
<g id="edge32_Node000019_Node000003" class="edge">
<title>Node19&#45;&gt;Node3</title>
<g id="a_edge32_Node000019_Node000003"><a xlink:title=" ">
<path fill="none" stroke="#63b8ff" d="M859.75,-164.97C849.94,-151.11 828.57,-123.88 803.5,-110 750.81,-80.83 680.65,-70.78 637.58,-67.32"/>
<polygon fill="#63b8ff" stroke="#63b8ff" points="637.73,-63.82 627.5,-66.59 637.22,-70.8 637.73,-63.82"/>
</a>
</g>
</g>
<!-- Node19&#45;&gt;Node15 -->
<g id="edge33_Node000019_Node000015" class="edge">
<title>Node19&#45;&gt;Node15</title>
<g id="a_edge33_Node000019_Node000015"><a xlink:title=" ">
<path fill="none" stroke="#63b8ff" d="M871.94,-164.75C877.39,-157.34 885.36,-146.5 892.06,-137.41"/>
<polygon fill="#63b8ff" stroke="#63b8ff" points="895.07,-139.22 898.18,-129.09 889.43,-135.07 895.07,-139.22"/>
</a>
</g>
</g>
</g>
</svg>
