<?xml version="1.0" encoding="UTF-8" standalone="no"?>
<!DOCTYPE svg PUBLIC "-//W3C//DTD SVG 1.1//EN"
 "http://www.w3.org/Graphics/SVG/1.1/DTD/svg11.dtd">
<!-- Generated by graphviz version 2.43.0 (0)
 -->
<!-- Title: include/helios/event/EventManager.ixx Pages: 1 -->
<svg width="472pt" height="258pt"
 viewBox="0.00 0.00 472.45 258.00" xmlns="http://www.w3.org/2000/svg" xmlns:xlink="http://www.w3.org/1999/xlink">
<g id="graph0" class="graph" transform="scale(1 1) rotate(0) translate(4 254)">
<title>include/helios/event/EventManager.ixx</title>
<!-- Node1 -->
<g id="Node000001" class="node">
<title>Node1</title>
<g id="a_Node000001"><a xlink:title=" ">
<polygon fill="#999999" stroke="#666666" points="311,-250 196,-250 196,-220 311,-220 311,-250"/>
<text text-anchor="start" x="204" y="-238" font-family="Helvetica,sans-Serif" font-size="10.00">include/helios/event</text>
<text text-anchor="middle" x="253.5" y="-227" font-family="Helvetica,sans-Serif" font-size="10.00">/EventManager.ixx</text>
</a>
</g>
</g>
<!-- Node2 -->
<g id="Node000002" class="node">
<title>Node2</title>
<g id="a_Node000002"><a xlink:title=" ">
<polygon fill="#e0e0e0" stroke="#999999" points="312,-129 247,-129 247,-110 312,-110 312,-129"/>
<text text-anchor="middle" x="279.5" y="-117" font-family="Helvetica,sans-Serif" font-size="10.00">functional</text>
</a>
</g>
</g>
<!-- Node1&#45;&gt;Node2 -->
<g id="edge1_Node000001_Node000002" class="edge">
<title>Node1&#45;&gt;Node2</title>
<g id="a_edge1_Node000001_Node000002"><a xlink:title=" ">
<path fill="none" stroke="#63b8ff" d="M256.79,-219.63C261.47,-199.21 270.04,-161.81 275.21,-139.24"/>
<polygon fill="#63b8ff" stroke="#63b8ff" points="278.68,-139.76 277.5,-129.23 271.86,-138.2 278.68,-139.76"/>
</a>
</g>
</g>
<!-- Node3 -->
<g id="Node000003" class="node">
<title>Node3</title>
<g id="a_Node000003"><a xlink:title=" ">
<polygon fill="#e0e0e0" stroke="#999999" points="345.5,-74 287.5,-74 287.5,-55 345.5,-55 345.5,-74"/>
<text text-anchor="middle" x="316.5" y="-62" font-family="Helvetica,sans-Serif" font-size="10.00">memory</text>
</a>
</g>
</g>
<!-- Node1&#45;&gt;Node3 -->
<g id="edge2_Node000001_Node000003" class="edge">
<title>Node1&#45;&gt;Node3</title>
<g id="a_edge2_Node000001_Node000003"><a xlink:title=" ">
<path fill="none" stroke="#63b8ff" d="M311.15,-227.61C364.39,-220.38 437.83,-206.58 455.5,-184 491.4,-138.14 404.24,-97.09 352.12,-77.55"/>
<polygon fill="#63b8ff" stroke="#63b8ff" points="353.12,-74.19 342.52,-74.05 350.72,-80.76 353.12,-74.19"/>
</a>
</g>
</g>
<!-- Node4 -->
<g id="Node000004" class="node">
<title>Node4</title>
<g id="a_Node000004"><a xlink:title=" ">
<polygon fill="#e0e0e0" stroke="#999999" points="251,-184 206,-184 206,-165 251,-165 251,-184"/>
<text text-anchor="middle" x="228.5" y="-172" font-family="Helvetica,sans-Serif" font-size="10.00">utility</text>
</a>
</g>
</g>
<!-- Node1&#45;&gt;Node4 -->
<g id="edge3_Node000001_Node000004" class="edge">
<title>Node1&#45;&gt;Node4</title>
<g id="a_edge3_Node000001_Node000004"><a xlink:title=" ">
<path fill="none" stroke="#63b8ff" d="M247.45,-219.84C244.08,-211.95 239.85,-202.05 236.24,-193.61"/>
<polygon fill="#63b8ff" stroke="#63b8ff" points="239.39,-192.09 232.25,-184.27 232.96,-194.84 239.39,-192.09"/>
</a>
</g>
</g>
<!-- Node5 -->
<g id="Node000005" class="node">
<title>Node5</title>
<g id="a_Node000005"><a xlink:href="Dispatcher_8ixx.html" target="_top" xlink:title=" ">
<polygon fill="white" stroke="#666666" points="187.5,-184 55.5,-184 55.5,-165 187.5,-165 187.5,-184"/>
<text text-anchor="middle" x="121.5" y="-172" font-family="Helvetica,sans-Serif" font-size="10.00">helios.event.Dispatcher</text>
</a>
</g>
</g>
<!-- Node1&#45;&gt;Node5 -->
<g id="edge4_Node000001_Node000005" class="edge">
<title>Node1&#45;&gt;Node5</title>
<g id="a_edge4_Node000001_Node000005"><a xlink:title=" ">
<path fill="none" stroke="#63b8ff" d="M221.88,-219.99C200.15,-210.36 171.53,-197.67 150.41,-188.31"/>
<polygon fill="#63b8ff" stroke="#63b8ff" points="151.55,-184.99 140.99,-184.14 148.72,-191.39 151.55,-184.99"/>
</a>
</g>
</g>
<!-- Node7 -->
<g id="Node000007" class="node">
<title>Node7</title>
<g id="a_Node000007"><a xlink:href="Event_8ixx.html" target="_top" xlink:title=" ">
<polygon fill="white" stroke="#666666" points="190,-129 83,-129 83,-110 190,-110 190,-129"/>
<text text-anchor="middle" x="136.5" y="-117" font-family="Helvetica,sans-Serif" font-size="10.00">helios.event.Event</text>
</a>
</g>
</g>
<!-- Node1&#45;&gt;Node7 -->
<g id="edge18_Node000001_Node000007" class="edge">
<title>Node1&#45;&gt;Node7</title>
<g id="a_edge18_Node000001_Node000007"><a xlink:title=" ">
<path fill="none" stroke="#63b8ff" d="M195.98,-228.02C141.32,-221 64.82,-207.28 46.5,-184 28.6,-161.26 63.32,-143.21 94.7,-132.26"/>
<polygon fill="#63b8ff" stroke="#63b8ff" points="95.88,-135.56 104.27,-129.09 93.67,-128.91 95.88,-135.56"/>
</a>
</g>
</g>
<!-- Node11 -->
<g id="Node000011" class="node">
<title>Node11</title>
<g id="a_Node000011"><a xlink:href="EventQueue_8ixx.html" target="_top" xlink:title=" ">
<polygon fill="white" stroke="#666666" points="447,-184 308,-184 308,-165 447,-165 447,-184"/>
<text text-anchor="middle" x="377.5" y="-172" font-family="Helvetica,sans-Serif" font-size="10.00">helios.event.EventQueue</text>
</a>
</g>
</g>
<!-- Node1&#45;&gt;Node11 -->
<g id="edge13_Node000001_Node000011" class="edge">
<title>Node1&#45;&gt;Node11</title>
<g id="a_edge13_Node000001_Node000011"><a xlink:title=" ">
<path fill="none" stroke="#63b8ff" d="M283.2,-219.99C303.52,-210.4 330.26,-197.79 350.08,-188.44"/>
<polygon fill="#63b8ff" stroke="#63b8ff" points="351.64,-191.57 359.19,-184.14 348.65,-185.24 351.64,-191.57"/>
</a>
</g>
</g>
<!-- Node5&#45;&gt;Node2 -->
<g id="edge5_Node000005_Node000002" class="edge">
<title>Node5&#45;&gt;Node2</title>
<g id="a_edge5_Node000005_Node000002"><a xlink:title=" ">
<path fill="none" stroke="#63b8ff" d="M146.89,-164.98C173.3,-156.13 214.85,-142.19 244.39,-132.28"/>
<polygon fill="#63b8ff" stroke="#63b8ff" points="245.55,-135.58 253.92,-129.08 243.32,-128.94 245.55,-135.58"/>
</a>
</g>
</g>
<!-- Node5&#45;&gt;Node3 -->
<g id="edge6_Node000005_Node000003" class="edge">
<title>Node5&#45;&gt;Node3</title>
<g id="a_edge6_Node000005_Node000003"><a xlink:title=" ">
<path fill="none" stroke="#63b8ff" d="M137.13,-164.84C171.01,-146.08 251.46,-101.52 292.11,-79.01"/>
<polygon fill="#63b8ff" stroke="#63b8ff" points="294.02,-81.95 301.07,-74.05 290.62,-75.83 294.02,-81.95"/>
</a>
</g>
</g>
<!-- Node6 -->
<g id="Node000006" class="node">
<title>Node6</title>
<g id="a_Node000006"><a xlink:title=" ">
<polygon fill="#e0e0e0" stroke="#999999" points="65,-129 0,-129 0,-110 65,-110 65,-129"/>
<text text-anchor="middle" x="32.5" y="-117" font-family="Helvetica,sans-Serif" font-size="10.00">typeindex</text>
</a>
</g>
</g>
<!-- Node5&#45;&gt;Node6 -->
<g id="edge7_Node000005_Node000006" class="edge">
<title>Node5&#45;&gt;Node6</title>
<g id="a_edge7_Node000005_Node000006"><a xlink:title=" ">
<path fill="none" stroke="#63b8ff" d="M107.2,-164.98C93.4,-156.77 72.26,-144.18 55.99,-134.49"/>
<polygon fill="#63b8ff" stroke="#63b8ff" points="57.44,-131.28 47.06,-129.17 53.86,-137.29 57.44,-131.28"/>
</a>
</g>
</g>
<!-- Node5&#45;&gt;Node7 -->
<g id="edge8_Node000005_Node000007" class="edge">
<title>Node5&#45;&gt;Node7</title>
<g id="a_edge8_Node000005_Node000007"><a xlink:title=" ">
<path fill="none" stroke="#63b8ff" d="M123.98,-164.75C125.96,-157.72 128.82,-147.62 131.31,-138.84"/>
<polygon fill="#63b8ff" stroke="#63b8ff" points="134.71,-139.66 134.07,-129.09 127.98,-137.76 134.71,-139.66"/>
</a>
</g>
</g>
<!-- Node7&#45;&gt;Node3 -->
<g id="edge9_Node000007_Node000003" class="edge">
<title>Node7&#45;&gt;Node3</title>
<g id="a_edge9_Node000007_Node000003"><a xlink:title=" ">
<path fill="none" stroke="#63b8ff" d="M165.42,-109.98C195.77,-101.05 243.67,-86.94 277.38,-77.02"/>
<polygon fill="#63b8ff" stroke="#63b8ff" points="278.75,-80.26 287.35,-74.08 276.77,-73.55 278.75,-80.26"/>
</a>
</g>
</g>
<!-- Node8 -->
<g id="Node000008" class="node">
<title>Node8</title>
<g id="a_Node000008"><a xlink:href="Guid_8ixx.html" target="_top" xlink:title=" ">
<polygon fill="white" stroke="#666666" points="181.5,-74 91.5,-74 91.5,-55 181.5,-55 181.5,-74"/>
<text text-anchor="middle" x="136.5" y="-62" font-family="Helvetica,sans-Serif" font-size="10.00">helios.util.Guid</text>
</a>
</g>
</g>
<!-- Node7&#45;&gt;Node8 -->
<g id="edge10_Node000007_Node000008" class="edge">
<title>Node7&#45;&gt;Node8</title>
<g id="a_edge10_Node000007_Node000008"><a xlink:title=" ">
<path fill="none" stroke="#63b8ff" d="M136.5,-109.75C136.5,-102.8 136.5,-92.85 136.5,-84.13"/>
<polygon fill="#63b8ff" stroke="#63b8ff" points="140,-84.09 136.5,-74.09 133,-84.09 140,-84.09"/>
</a>
</g>
</g>
<!-- Node9 -->
<g id="Node000009" class="node">
<title>Node9</title>
<g id="a_Node000009"><a xlink:title=" ">
<polygon fill="#e0e0e0" stroke="#999999" points="127.5,-19 77.5,-19 77.5,0 127.5,0 127.5,-19"/>
<text text-anchor="middle" x="102.5" y="-7" font-family="Helvetica,sans-Serif" font-size="10.00">atomic</text>
</a>
</g>
</g>
<!-- Node8&#45;&gt;Node9 -->
<g id="edge11_Node000008_Node000009" class="edge">
<title>Node8&#45;&gt;Node9</title>
<g id="a_edge11_Node000008_Node000009"><a xlink:title=" ">
<path fill="none" stroke="#63b8ff" d="M130.89,-54.75C126.18,-47.42 119.33,-36.73 113.53,-27.7"/>
<polygon fill="#63b8ff" stroke="#63b8ff" points="116.36,-25.62 108.01,-19.09 110.46,-29.4 116.36,-25.62"/>
</a>
</g>
</g>
<!-- Node10 -->
<g id="Node000010" class="node">
<title>Node10</title>
<g id="a_Node000010"><a xlink:title=" ">
<polygon fill="#e0e0e0" stroke="#999999" points="195.5,-19 145.5,-19 145.5,0 195.5,0 195.5,-19"/>
<text text-anchor="middle" x="170.5" y="-7" font-family="Helvetica,sans-Serif" font-size="10.00">cstdint</text>
</a>
</g>
</g>
<!-- Node8&#45;&gt;Node10 -->
<g id="edge12_Node000008_Node000010" class="edge">
<title>Node8&#45;&gt;Node10</title>
<g id="a_edge12_Node000008_Node000010"><a xlink:title=" ">
<path fill="none" stroke="#63b8ff" d="M142.11,-54.75C146.82,-47.42 153.67,-36.73 159.47,-27.7"/>
<polygon fill="#63b8ff" stroke="#63b8ff" points="162.54,-29.4 164.99,-19.09 156.64,-25.62 162.54,-29.4"/>
</a>
</g>
</g>
<!-- Node11&#45;&gt;Node2 -->
<g id="edge15_Node000011_Node000002" class="edge">
<title>Node11&#45;&gt;Node2</title>
<g id="a_edge15_Node000011_Node000002"><a xlink:title=" ">
<path fill="none" stroke="#63b8ff" d="M361.75,-164.98C346.27,-156.61 322.41,-143.7 304.36,-133.95"/>
<polygon fill="#63b8ff" stroke="#63b8ff" points="305.99,-130.85 295.53,-129.17 302.66,-137.01 305.99,-130.85"/>
</a>
</g>
</g>
<!-- Node11&#45;&gt;Node3 -->
<g id="edge16_Node000011_Node000003" class="edge">
<title>Node11&#45;&gt;Node3</title>
<g id="a_edge16_Node000011_Node000003"><a xlink:title=" ">
<path fill="none" stroke="#63b8ff" d="M381.73,-164.68C387.23,-151.82 395.07,-127.56 385.5,-110 377.85,-95.97 363.67,-85.69 350.14,-78.57"/>
<polygon fill="#63b8ff" stroke="#63b8ff" points="351.49,-75.34 340.97,-74.14 348.45,-81.64 351.49,-75.34"/>
</a>
</g>
</g>
<!-- Node11&#45;&gt;Node7 -->
<g id="edge17_Node000011_Node000007" class="edge">
<title>Node11&#45;&gt;Node7</title>
<g id="a_edge17_Node000011_Node000007"><a xlink:title=" ">
<path fill="none" stroke="#63b8ff" d="M338.78,-164.98C297.09,-155.82 230.68,-141.21 185.41,-131.26"/>
<polygon fill="#63b8ff" stroke="#63b8ff" points="186.04,-127.81 175.52,-129.08 184.54,-134.65 186.04,-127.81"/>
</a>
</g>
</g>
<!-- Node12 -->
<g id="Node000012" class="node">
<title>Node12</title>
<g id="a_Node000012"><a xlink:title=" ">
<polygon fill="#e0e0e0" stroke="#999999" points="377,-129 330,-129 330,-110 377,-110 377,-129"/>
<text text-anchor="middle" x="353.5" y="-117" font-family="Helvetica,sans-Serif" font-size="10.00">deque</text>
</a>
</g>
</g>
<!-- Node11&#45;&gt;Node12 -->
<g id="edge14_Node000011_Node000012" class="edge">
<title>Node11&#45;&gt;Node12</title>
<g id="a_edge14_Node000011_Node000012"><a xlink:title=" ">
<path fill="none" stroke="#63b8ff" d="M373.54,-164.75C370.29,-157.57 365.58,-147.18 361.55,-138.27"/>
<polygon fill="#63b8ff" stroke="#63b8ff" points="364.7,-136.75 357.39,-129.09 358.33,-139.64 364.7,-136.75"/>
</a>
</g>
</g>
</g>
</svg>
