<?xml version="1.0" encoding="UTF-8" standalone="no"?>
<!DOCTYPE svg PUBLIC "-//W3C//DTD SVG 1.1//EN"
 "http://www.w3.org/Graphics/SVG/1.1/DTD/svg11.dtd">
<!-- Generated by graphviz version 2.43.0 (0)
 -->
<!-- Title: include/ext/imgui/_module.ixx Pages: 1 -->
<!--zoomable 225 -->

<svg id="main" version="1.1" xmlns="http://www.w3.org/2000/svg" xmlns:xlink="http://www.w3.org/1999/xlink" xml:space="preserve" onload="init(evt)">

<style type="text/css"><![CDATA[
.node, .edge {opacity: 0.7;}
.node.selected, .edge.selected {opacity: 1;}
.edge:hover path { stroke: red; }
.edge:hover polygon { stroke: red; fill: red; }
]]></style>

<defs>
  <circle id="rim" cx="0" cy="0" r="7"/>
  <circle id="rim2" cx="0" cy="0" r="3.5"/>
  <g id="zoomPlus">
    <use xlink:href="#rim" fill="#404040"><set attributeName="fill" to="#808080" begin="zoomplus.mouseover" end="zoomplus.mouseout"/></use>
    <path d="M-4,0h8M0,-4v8" fill="none" stroke="white" stroke-width="1.5" pointer-events="none"/>
  </g>
  <g id="zoomMin">
    <use xlink:href="#rim" fill="#404040"><set attributeName="fill" to="#808080" begin="zoomminus.mouseover" end="zoomminus.mouseout"/></use>
    <path d="M-4,0h8" fill="none" stroke="white" stroke-width="1.5" pointer-events="none"/>
  </g>
  <g id="arrowUp" transform="translate(30 24)">
    <use xlink:href="#rim"/>
    <path pointer-events="none" fill="none" stroke="white" stroke-width="1.5" d="M0,-3.0v7 M-2.5,-0.5L0,-3.0L2.5,-0.5"/>
  </g>
  <g id="arrowRight" transform="rotate(90) translate(36 -43)">
    <use xlink:href="#rim"/>
    <path pointer-events="none" fill="none" stroke="white" stroke-width="1.5" d="M0,-3.0v7 M-2.5,-0.5L0,-3.0L2.5,-0.5"/>
  </g>
  <g id="arrowDown" transform="rotate(180) translate(-30 -48)">
    <use xlink:href="#rim"/>
    <path pointer-events="none" fill="none" stroke="white" stroke-width="1.5" d="M0,-3.0v7 M-2.5,-0.5L0,-3.0L2.5,-0.5"/>
  </g>
  <g id="arrowLeft" transform="rotate(270) translate(-36 17)">
    <use xlink:href="#rim"/>
    <path pointer-events="none" fill="none" stroke="white" stroke-width="1.5" d="M0,-3.0v7 M-2.5,-0.5L0,-3.0L2.5,-0.5"/>
  </g>
  <g id="resetDef">
    <use xlink:href="#rim2" fill="#404040"><set attributeName="fill" to="#808080" begin="reset.mouseover" end="reset.mouseout"/></use>
  </g>
</defs>
<script type="application/ecmascript">
var viewWidth = 1151;
var viewHeight = 225;
var sectionId = 'dynsection-0';
</script>
<script type="application/ecmascript" xlink:href="svg.min.js"/>
<svg id="graph" class="graph">
<g id="viewport">
<title>include/ext/imgui/_module.ixx</title>
<!-- Node1 -->
<g id="Node000001" class="node">
<title>Node1</title>
<g id="a_Node000001"><a xlink:title=" ">
<polygon fill="#999999" stroke="#666666" points="385,-217 281,-217 281,-187 385,-187 385,-217"/>
<text text-anchor="start" x="289" y="-205" font-family="Helvetica,sans-Serif" font-size="10.00">include/ext/imgui/</text>
<text text-anchor="middle" x="333" y="-194" font-family="Helvetica,sans-Serif" font-size="10.00">_module.ixx</text>
</a>
</g>
</g>
<!-- Node2 -->
<g id="Node000002" class="node">
<title>Node2</title>
<g id="a_Node000002"><a xlink:href="ImGuiOverlay_8ixx.html" target="_top" xlink:title="Manages a collection of ImGui widgets and renders them using a backend.">
<polygon fill="white" stroke="#666666" points="304,-145.5 138,-145.5 138,-126.5 304,-126.5 304,-145.5"/>
<text text-anchor="middle" x="221" y="-133.5" font-family="Helvetica,sans-Serif" font-size="10.00">helios.ext.imgui.ImGuiOverlay</text>
</a>
</g>
</g>
<!-- Node1&#45;&gt;Node2 -->
<g id="edge1_Node000001_Node000002" class="edge">
<title>Node1&#45;&gt;Node2</title>
<g id="a_edge1_Node000001_Node000002"><a xlink:title=" ">
<path fill="none" stroke="#63b8ff" d="M308.42,-186.95C289.47,-176.13 263.42,-161.24 244.7,-150.54"/>
<polygon fill="#63b8ff" stroke="#63b8ff" points="246.32,-147.44 235.91,-145.52 242.85,-153.52 246.32,-147.44"/>
</a>
</g>
</g>
<!-- Node5 -->
<g id="Node000005" class="node">
<title>Node5</title>
<g id="a_Node000005"><a xlink:href="ImGuiWidget_8ixx.html" target="_top" xlink:title="Base interface for ImGui&#45;based debug and UI widgets.">
<polygon fill="white" stroke="#666666" points="162,-19 0,-19 0,0 162,0 162,-19"/>
<text text-anchor="middle" x="81" y="-7" font-family="Helvetica,sans-Serif" font-size="10.00">helios.ext.imgui.ImGuiWidget</text>
</a>
</g>
</g>
<!-- Node1&#45;&gt;Node5 -->
<g id="edge30_Node000001_Node000005" class="edge">
<title>Node1&#45;&gt;Node5</title>
<g id="a_edge30_Node000001_Node000005"><a xlink:title=" ">
<path fill="none" stroke="#63b8ff" d="M280.96,-194.02C228.11,-185.94 150.99,-171.12 129,-151 93.75,-118.75 84.38,-59.56 81.9,-29.34"/>
<polygon fill="#63b8ff" stroke="#63b8ff" points="85.38,-29.04 81.24,-19.29 78.4,-29.5 85.38,-29.04"/>
</a>
</g>
</g>
<!-- Node6 -->
<g id="Node000006" class="node">
<title>Node6</title>
<g id="a_Node000006"><a xlink:href="ImGuiBackend_8ixx.html" target="_top" xlink:title="Abstract backend interface for ImGui integration with rendering/windowing systems.">
<polygon fill="white" stroke="#666666" points="417.5,-79.5 248.5,-79.5 248.5,-60.5 417.5,-60.5 417.5,-79.5"/>
<text text-anchor="middle" x="333" y="-67.5" font-family="Helvetica,sans-Serif" font-size="10.00">helios.ext.imgui.ImGuiBackend</text>
</a>
</g>
</g>
<!-- Node1&#45;&gt;Node6 -->
<g id="edge31_Node000001_Node000006" class="edge">
<title>Node1&#45;&gt;Node6</title>
<g id="a_edge31_Node000001_Node000006"><a xlink:title=" ">
<path fill="none" stroke="#63b8ff" d="M333,-186.84C333,-163.34 333,-116.26 333,-89.93"/>
<polygon fill="#63b8ff" stroke="#63b8ff" points="336.5,-89.75 333,-79.75 329.5,-89.75 336.5,-89.75"/>
</a>
</g>
</g>
<!-- Node7 -->
<g id="Node000007" class="node">
<title>Node7</title>
<g id="a_Node000007"><a xlink:href="ImGuiLogSink_8ixx.html" target="_top" xlink:title="Log sink that forwards messages to a LogWidget.">
<polygon fill="white" stroke="#666666" points="657,-145.5 491,-145.5 491,-126.5 657,-126.5 657,-145.5"/>
<text text-anchor="middle" x="574" y="-133.5" font-family="Helvetica,sans-Serif" font-size="10.00">helios.ext.imgui.ImGuiLogSink</text>
</a>
</g>
</g>
<!-- Node1&#45;&gt;Node7 -->
<g id="edge7_Node000001_Node000007" class="edge">
<title>Node1&#45;&gt;Node7</title>
<g id="a_edge7_Node000001_Node000007"><a xlink:title=" ">
<path fill="none" stroke="#63b8ff" d="M385.29,-187.11C429.2,-175.45 491.11,-159.01 531.88,-148.19"/>
<polygon fill="#63b8ff" stroke="#63b8ff" points="533,-151.51 541.76,-145.56 531.2,-144.74 533,-151.51"/>
</a>
</g>
</g>
<!-- Node19 -->
<g id="Node000019" class="node">
<title>Node19</title>
<g id="a_Node000019"><a xlink:href="ImGuiGlfwOpenGLBackend_8ixx.html" target="_top" xlink:title="GLFW+OpenGL backend implementation for ImGui rendering.">
<polygon fill="white" stroke="#666666" points="886.5,-151 737.5,-151 737.5,-121 886.5,-121 886.5,-151"/>
<text text-anchor="start" x="745.5" y="-139" font-family="Helvetica,sans-Serif" font-size="10.00">helios.ext.imgui.ImGuiGlfw</text>
<text text-anchor="middle" x="812" y="-128" font-family="Helvetica,sans-Serif" font-size="10.00">OpenGLBackend</text>
</a>
</g>
</g>
<!-- Node1&#45;&gt;Node19 -->
<g id="edge24_Node000001_Node000019" class="edge">
<title>Node1&#45;&gt;Node19</title>
<g id="a_edge24_Node000001_Node000019"><a xlink:title=" ">
<path fill="none" stroke="#63b8ff" d="M385.17,-194.03C467.46,-183.04 628.16,-161.56 727.2,-148.33"/>
<polygon fill="#63b8ff" stroke="#63b8ff" points="727.73,-151.79 737.17,-147 726.8,-144.85 727.73,-151.79"/>
</a>
</g>
</g>
<!-- Node3 -->
<g id="Node000003" class="node">
<title>Node3</title>
<g id="a_Node000003"><a xlink:title=" ">
<polygon fill="#e0e0e0" stroke="#999999" points="227.5,-19 180.5,-19 180.5,0 227.5,0 227.5,-19"/>
<text text-anchor="middle" x="204" y="-7" font-family="Helvetica,sans-Serif" font-size="10.00">vector</text>
</a>
</g>
</g>
<!-- Node2&#45;&gt;Node3 -->
<g id="edge2_Node000002_Node000003" class="edge">
<title>Node2&#45;&gt;Node3</title>
<g id="a_edge2_Node000002_Node000003"><a xlink:title=" ">
<path fill="none" stroke="#63b8ff" d="M217.89,-126.29C214.53,-116.42 209.33,-99.78 207,-85 204.04,-66.25 203.49,-44.54 203.55,-29.41"/>
<polygon fill="#63b8ff" stroke="#63b8ff" points="207.06,-29.33 203.7,-19.28 200.06,-29.23 207.06,-29.33"/>
</a>
</g>
</g>
<!-- Node4 -->
<g id="Node000004" class="node">
<title>Node4</title>
<g id="a_Node000004"><a xlink:title=" ">
<polygon fill="#e0e0e0" stroke="#999999" points="298.5,-19 245.5,-19 245.5,0 298.5,0 298.5,-19"/>
<text text-anchor="middle" x="272" y="-7" font-family="Helvetica,sans-Serif" font-size="10.00">imgui.h</text>
</a>
</g>
</g>
<!-- Node2&#45;&gt;Node4 -->
<g id="edge3_Node000002_Node000004" class="edge">
<title>Node2&#45;&gt;Node4</title>
<g id="a_edge3_Node000002_Node000004"><a xlink:title=" ">
<path fill="none" stroke="#63b8ff" d="M221.78,-126.22C223.37,-111.07 227.85,-79.33 239,-55 243.59,-44.98 250.68,-35.02 257.11,-27.07"/>
<polygon fill="#63b8ff" stroke="#63b8ff" points="259.89,-29.21 263.69,-19.32 254.55,-24.68 259.89,-29.21"/>
</a>
</g>
</g>
<!-- Node2&#45;&gt;Node5 -->
<g id="edge4_Node000002_Node000005" class="edge">
<title>Node2&#45;&gt;Node5</title>
<g id="a_edge4_Node000002_Node000005"><a xlink:title=" ">
<path fill="none" stroke="#63b8ff" d="M211.38,-126.44C188,-105.65 127.96,-52.26 98.22,-25.81"/>
<polygon fill="#63b8ff" stroke="#63b8ff" points="100.49,-23.15 90.69,-19.12 95.84,-28.38 100.49,-23.15"/>
</a>
</g>
</g>
<!-- Node2&#45;&gt;Node6 -->
<g id="edge5_Node000002_Node000006" class="edge">
<title>Node2&#45;&gt;Node6</title>
<g id="a_edge5_Node000002_Node000006"><a xlink:title=" ">
<path fill="none" stroke="#63b8ff" d="M236.1,-126.37C254.81,-115.68 286.9,-97.35 308.99,-84.72"/>
<polygon fill="#63b8ff" stroke="#63b8ff" points="310.83,-87.7 317.78,-79.7 307.36,-81.62 310.83,-87.7"/>
</a>
</g>
</g>
<!-- Node6&#45;&gt;Node4 -->
<g id="edge6_Node000006_Node000004" class="edge">
<title>Node6&#45;&gt;Node4</title>
<g id="a_edge6_Node000006_Node000004"><a xlink:title=" ">
<path fill="none" stroke="#63b8ff" d="M324,-60.37C314.63,-51.38 299.75,-37.11 288.3,-26.14"/>
<polygon fill="#63b8ff" stroke="#63b8ff" points="290.68,-23.56 281.04,-19.17 285.83,-28.62 290.68,-23.56"/>
</a>
</g>
</g>
<!-- Node8 -->
<g id="Node000008" class="node">
<title>Node8</title>
<g id="a_Node000008"><a xlink:title=" ">
<polygon fill="#e0e0e0" stroke="#999999" points="974,-19 930,-19 930,0 974,0 974,-19"/>
<text text-anchor="middle" x="952" y="-7" font-family="Helvetica,sans-Serif" font-size="10.00">string</text>
</a>
</g>
</g>
<!-- Node7&#45;&gt;Node8 -->
<g id="edge8_Node000007_Node000008" class="edge">
<title>Node7&#45;&gt;Node8</title>
<g id="a_edge8_Node000007_Node000008"><a xlink:title=" ">
<path fill="none" stroke="#63b8ff" d="M629.28,-126.47C668.33,-119.03 721.14,-106.05 764,-85 783.63,-75.36 783.53,-64.96 803,-55 813.55,-49.6 879.75,-30.67 920.28,-19.31"/>
<polygon fill="#63b8ff" stroke="#63b8ff" points="921.29,-22.66 929.98,-16.6 919.4,-15.92 921.29,-22.66"/>
</a>
</g>
</g>
<!-- Node9 -->
<g id="Node000009" class="node">
<title>Node9</title>
<g id="a_Node000009"><a xlink:href="LogWidget_8ixx.html" target="_top" xlink:title="ImGui widget for displaying log messages in a scrollable text area.">
<polygon fill="white" stroke="#666666" points="613,-85 473,-85 473,-55 613,-55 613,-85"/>
<text text-anchor="start" x="481" y="-73" font-family="Helvetica,sans-Serif" font-size="10.00">helios.ext.imgui.widgets.</text>
<text text-anchor="middle" x="543" y="-62" font-family="Helvetica,sans-Serif" font-size="10.00">LogWidget</text>
</a>
</g>
</g>
<!-- Node7&#45;&gt;Node9 -->
<g id="edge9_Node000007_Node000009" class="edge">
<title>Node7&#45;&gt;Node9</title>
<g id="a_edge9_Node000007_Node000009"><a xlink:title=" ">
<path fill="none" stroke="#63b8ff" d="M569.82,-126.37C565.88,-118.24 559.8,-105.69 554.43,-94.59"/>
<polygon fill="#63b8ff" stroke="#63b8ff" points="557.47,-92.83 549.96,-85.36 551.17,-95.89 557.47,-92.83"/>
</a>
</g>
</g>
<!-- Node18 -->
<g id="Node000018" class="node">
<title>Node18</title>
<g id="a_Node000018"><a xlink:href="LogSink_8ixx.html" target="_top" xlink:title="Abstract interface for log output destinations.">
<polygon fill="white" stroke="#666666" points="755,-79.5 631,-79.5 631,-60.5 755,-60.5 755,-79.5"/>
<text text-anchor="middle" x="693" y="-67.5" font-family="Helvetica,sans-Serif" font-size="10.00">helios.util.log.LogSink</text>
</a>
</g>
</g>
<!-- Node7&#45;&gt;Node18 -->
<g id="edge22_Node000007_Node000018" class="edge">
<title>Node7&#45;&gt;Node18</title>
<g id="a_edge22_Node000007_Node000018"><a xlink:title=" ">
<path fill="none" stroke="#63b8ff" d="M590.05,-126.37C610.01,-115.63 644.32,-97.18 667.8,-84.55"/>
<polygon fill="#63b8ff" stroke="#63b8ff" points="669.68,-87.52 676.83,-79.7 666.36,-81.35 669.68,-87.52"/>
</a>
</g>
</g>
<!-- Node9&#45;&gt;Node3 -->
<g id="edge11_Node000009_Node000003" class="edge">
<title>Node9&#45;&gt;Node3</title>
<g id="a_edge11_Node000009_Node000003"><a xlink:title=" ">
<path fill="none" stroke="#63b8ff" d="M472.83,-59.57C412.69,-51.04 323.58,-37.3 237.62,-19.19"/>
<polygon fill="#63b8ff" stroke="#63b8ff" points="238.21,-15.73 227.7,-17.07 236.75,-22.58 238.21,-15.73"/>
</a>
</g>
</g>
<!-- Node9&#45;&gt;Node4 -->
<g id="edge20_Node000009_Node000004" class="edge">
<title>Node9&#45;&gt;Node4</title>
<g id="a_edge20_Node000009_Node000004"><a xlink:title=" ">
<path fill="none" stroke="#63b8ff" d="M475.04,-54.96C430.45,-45.65 370.61,-32.97 308.68,-19.11"/>
<polygon fill="#63b8ff" stroke="#63b8ff" points="309.24,-15.65 298.72,-16.88 307.71,-22.48 309.24,-15.65"/>
</a>
</g>
</g>
<!-- Node9&#45;&gt;Node5 -->
<g id="edge21_Node000009_Node000005" class="edge">
<title>Node9&#45;&gt;Node5</title>
<g id="a_edge21_Node000009_Node000005"><a xlink:title=" ">
<path fill="none" stroke="#63b8ff" d="M472.83,-60.12C388.21,-49.4 246.43,-31.45 158.61,-20.33"/>
<polygon fill="#63b8ff" stroke="#63b8ff" points="158.8,-16.82 148.44,-19.04 157.92,-23.77 158.8,-16.82"/>
</a>
</g>
</g>
<!-- Node9&#45;&gt;Node8 -->
<g id="edge10_Node000009_Node000008" class="edge">
<title>Node9&#45;&gt;Node8</title>
<g id="a_edge10_Node000009_Node000008"><a xlink:title=" ">
<path fill="none" stroke="#63b8ff" d="M613.18,-56.35C616.16,-55.88 619.11,-55.43 622,-55 751.16,-35.79 787.88,-44.32 919.67,-18.99"/>
<polygon fill="#63b8ff" stroke="#63b8ff" points="920.6,-22.38 929.74,-17.03 919.26,-15.51 920.6,-22.38"/>
</a>
</g>
</g>
<!-- Node10 -->
<g id="Node000010" class="node">
<title>Node10</title>
<g id="a_Node000010"><a xlink:title=" ">
<polygon fill="#e0e0e0" stroke="#999999" points="911.5,-19 818.5,-19 818.5,0 911.5,0 911.5,-19"/>
<text text-anchor="middle" x="865" y="-7" font-family="Helvetica,sans-Serif" font-size="10.00">unordered_map</text>
</a>
</g>
</g>
<!-- Node9&#45;&gt;Node10 -->
<g id="edge12_Node000009_Node000010" class="edge">
<title>Node9&#45;&gt;Node10</title>
<g id="a_edge12_Node000009_Node000010"><a xlink:title=" ">
<path fill="none" stroke="#63b8ff" d="M613.27,-56.23C671.68,-45.62 753.75,-30.71 808.1,-20.84"/>
<polygon fill="#63b8ff" stroke="#63b8ff" points="809.04,-24.22 818.25,-18.99 807.79,-17.34 809.04,-24.22"/>
</a>
</g>
</g>
<!-- Node11 -->
<g id="Node000011" class="node">
<title>Node11</title>
<g id="a_Node000011"><a xlink:title=" ">
<polygon fill="#e0e0e0" stroke="#999999" points="365,-19 317,-19 317,0 365,0 365,-19"/>
<text text-anchor="middle" x="341" y="-7" font-family="Helvetica,sans-Serif" font-size="10.00">mutex</text>
</a>
</g>
</g>
<!-- Node9&#45;&gt;Node11 -->
<g id="edge13_Node000009_Node000011" class="edge">
<title>Node9&#45;&gt;Node11</title>
<g id="a_edge13_Node000009_Node000011"><a xlink:title=" ">
<path fill="none" stroke="#63b8ff" d="M494.62,-54.99C457.75,-44.31 407.92,-29.88 375.14,-20.39"/>
<polygon fill="#63b8ff" stroke="#63b8ff" points="375.71,-16.91 365.14,-17.49 373.77,-23.63 375.71,-16.91"/>
</a>
</g>
</g>
<!-- Node12 -->
<g id="Node000012" class="node">
<title>Node12</title>
<g id="a_Node000012"><a xlink:title=" ">
<polygon fill="#e0e0e0" stroke="#999999" points="433,-19 383,-19 383,0 433,0 433,-19"/>
<text text-anchor="middle" x="408" y="-7" font-family="Helvetica,sans-Serif" font-size="10.00">cstdint</text>
</a>
</g>
</g>
<!-- Node9&#45;&gt;Node12 -->
<g id="edge14_Node000009_Node000012" class="edge">
<title>Node9&#45;&gt;Node12</title>
<g id="a_edge14_Node000009_Node000012"><a xlink:title=" ">
<path fill="none" stroke="#63b8ff" d="M510.66,-54.99C488.34,-45.31 458.9,-32.56 437.27,-23.18"/>
<polygon fill="#63b8ff" stroke="#63b8ff" points="438.5,-19.9 427.94,-19.14 435.72,-26.33 438.5,-19.9"/>
</a>
</g>
</g>
<!-- Node13 -->
<g id="Node000013" class="node">
<title>Node13</title>
<g id="a_Node000013"><a xlink:title=" ">
<polygon fill="#e0e0e0" stroke="#999999" points="501,-19 451,-19 451,0 501,0 501,-19"/>
<text text-anchor="middle" x="476" y="-7" font-family="Helvetica,sans-Serif" font-size="10.00">chrono</text>
</a>
</g>
</g>
<!-- Node9&#45;&gt;Node13 -->
<g id="edge15_Node000009_Node000013" class="edge">
<title>Node9&#45;&gt;Node13</title>
<g id="a_edge15_Node000009_Node000013"><a xlink:title=" ">
<path fill="none" stroke="#63b8ff" d="M526.78,-54.84C516.76,-46.09 503.89,-34.85 493.62,-25.88"/>
<polygon fill="#63b8ff" stroke="#63b8ff" points="495.87,-23.21 486.04,-19.27 491.27,-28.48 495.87,-23.21"/>
</a>
</g>
</g>
<!-- Node14 -->
<g id="Node000014" class="node">
<title>Node14</title>
<g id="a_Node000014"><a xlink:title=" ">
<polygon fill="#e0e0e0" stroke="#999999" points="575,-19 519,-19 519,0 575,0 575,-19"/>
<text text-anchor="middle" x="547" y="-7" font-family="Helvetica,sans-Serif" font-size="10.00">iomanip</text>
</a>
</g>
</g>
<!-- Node9&#45;&gt;Node14 -->
<g id="edge16_Node000009_Node000014" class="edge">
<title>Node9&#45;&gt;Node14</title>
<g id="a_edge16_Node000009_Node000014"><a xlink:title=" ">
<path fill="none" stroke="#63b8ff" d="M543.97,-54.84C544.49,-47.21 545.14,-37.7 545.7,-29.45"/>
<polygon fill="#63b8ff" stroke="#63b8ff" points="549.21,-29.48 546.4,-19.27 542.23,-29 549.21,-29.48"/>
</a>
</g>
</g>
<!-- Node15 -->
<g id="Node000015" class="node">
<title>Node15</title>
<g id="a_Node000015"><a xlink:title=" ">
<polygon fill="#e0e0e0" stroke="#999999" points="649,-19 593,-19 593,0 649,0 649,-19"/>
<text text-anchor="middle" x="621" y="-7" font-family="Helvetica,sans-Serif" font-size="10.00">sstream</text>
</a>
</g>
</g>
<!-- Node9&#45;&gt;Node15 -->
<g id="edge17_Node000009_Node000015" class="edge">
<title>Node9&#45;&gt;Node15</title>
<g id="a_edge17_Node000009_Node000015"><a xlink:title=" ">
<path fill="none" stroke="#63b8ff" d="M561.88,-54.84C573.78,-45.91 589.12,-34.41 601.2,-25.35"/>
<polygon fill="#63b8ff" stroke="#63b8ff" points="603.41,-28.07 609.31,-19.27 599.21,-22.47 603.41,-28.07"/>
</a>
</g>
</g>
<!-- Node16 -->
<g id="Node000016" class="node">
<title>Node16</title>
<g id="a_Node000016"><a xlink:title=" ">
<polygon fill="#e0e0e0" stroke="#999999" points="717,-19 667,-19 667,0 717,0 717,-19"/>
<text text-anchor="middle" x="692" y="-7" font-family="Helvetica,sans-Serif" font-size="10.00">atomic</text>
</a>
</g>
</g>
<!-- Node9&#45;&gt;Node16 -->
<g id="edge18_Node000009_Node000016" class="edge">
<title>Node9&#45;&gt;Node16</title>
<g id="a_edge18_Node000009_Node000016"><a xlink:title=" ">
<path fill="none" stroke="#63b8ff" d="M578.69,-54.99C603.66,-45.18 636.7,-32.21 660.66,-22.81"/>
<polygon fill="#63b8ff" stroke="#63b8ff" points="661.97,-26.05 670,-19.14 659.41,-19.54 661.97,-26.05"/>
</a>
</g>
</g>
<!-- Node17 -->
<g id="Node000017" class="node">
<title>Node17</title>
<g id="a_Node000017"><a xlink:title=" ">
<polygon fill="#e0e0e0" stroke="#999999" points="800.5,-19 735.5,-19 735.5,0 800.5,0 800.5,-19"/>
<text text-anchor="middle" x="768" y="-7" font-family="Helvetica,sans-Serif" font-size="10.00">functional</text>
</a>
</g>
</g>
<!-- Node9&#45;&gt;Node17 -->
<g id="edge19_Node000009_Node000017" class="edge">
<title>Node9&#45;&gt;Node17</title>
<g id="a_edge19_Node000009_Node000017"><a xlink:title=" ">
<path fill="none" stroke="#63b8ff" d="M596.89,-54.99C636.35,-44.73 689.14,-31 725.6,-21.52"/>
<polygon fill="#63b8ff" stroke="#63b8ff" points="726.63,-24.87 735.43,-18.97 724.87,-18.1 726.63,-24.87"/>
</a>
</g>
</g>
<!-- Node18&#45;&gt;Node8 -->
<g id="edge23_Node000018_Node000008" class="edge">
<title>Node18&#45;&gt;Node8</title>
<g id="a_edge23_Node000018_Node000008"><a xlink:title=" ">
<path fill="none" stroke="#63b8ff" d="M735.17,-60.43C778.99,-51.38 849.76,-36.34 919.81,-19.2"/>
<polygon fill="#63b8ff" stroke="#63b8ff" points="920.81,-22.56 929.69,-16.77 919.14,-15.76 920.81,-22.56"/>
</a>
</g>
</g>
<!-- Node19&#45;&gt;Node4 -->
<g id="edge26_Node000019_Node000004" class="edge">
<title>Node19&#45;&gt;Node4</title>
<g id="a_edge26_Node000019_Node000004"><a xlink:title=" ">
<path fill="none" stroke="#63b8ff" d="M737.3,-126.36C642.59,-115.09 488.57,-95.55 464,-85 444.23,-76.51 445.14,-64.84 426,-55 405.55,-44.49 347.34,-29.01 308.64,-19.35"/>
<polygon fill="#63b8ff" stroke="#63b8ff" points="309.32,-15.91 298.77,-16.91 307.64,-22.71 309.32,-15.91"/>
</a>
</g>
</g>
<!-- Node19&#45;&gt;Node6 -->
<g id="edge29_Node000019_Node000006" class="edge">
<title>Node19&#45;&gt;Node6</title>
<g id="a_edge29_Node000019_Node000006"><a xlink:title=" ">
<path fill="none" stroke="#63b8ff" d="M737.14,-125.43C660.29,-115.55 537.25,-99.56 431,-85 421.59,-83.71 411.67,-82.32 401.9,-80.94"/>
<polygon fill="#63b8ff" stroke="#63b8ff" points="402.19,-77.45 391.8,-79.51 401.21,-84.38 402.19,-77.45"/>
</a>
</g>
</g>
<!-- Node20 -->
<g id="Node000020" class="node">
<title>Node20</title>
<g id="a_Node000020"><a xlink:title=" ">
<polygon fill="#e0e0e0" stroke="#999999" points="876.5,-79.5 811.5,-79.5 811.5,-60.5 876.5,-60.5 876.5,-79.5"/>
<text text-anchor="middle" x="844" y="-67.5" font-family="Helvetica,sans-Serif" font-size="10.00">stdexcept</text>
</a>
</g>
</g>
<!-- Node19&#45;&gt;Node20 -->
<g id="edge25_Node000019_Node000020" class="edge">
<title>Node19&#45;&gt;Node20</title>
<g id="a_edge25_Node000019_Node000020"><a xlink:title=" ">
<path fill="none" stroke="#63b8ff" d="M819.1,-120.8C823.8,-111.41 829.99,-99.02 835.03,-88.95"/>
<polygon fill="#63b8ff" stroke="#63b8ff" points="838.24,-90.35 839.58,-79.84 831.98,-87.22 838.24,-90.35"/>
</a>
</g>
</g>
<!-- Node21 -->
<g id="Node000021" class="node">
<title>Node21</title>
<g id="a_Node000021"><a xlink:title=" ">
<polygon fill="#e0e0e0" stroke="#999999" points="999.5,-79.5 894.5,-79.5 894.5,-60.5 999.5,-60.5 999.5,-79.5"/>
<text text-anchor="middle" x="947" y="-67.5" font-family="Helvetica,sans-Serif" font-size="10.00">imgui_impl_glfw.h</text>
</a>
</g>
</g>
<!-- Node19&#45;&gt;Node21 -->
<g id="edge27_Node000019_Node000021" class="edge">
<title>Node19&#45;&gt;Node21</title>
<g id="a_edge27_Node000019_Node000021"><a xlink:title=" ">
<path fill="none" stroke="#63b8ff" d="M841.63,-120.95C864.99,-109.88 897.3,-94.56 919.97,-83.82"/>
<polygon fill="#63b8ff" stroke="#63b8ff" points="921.5,-86.96 929.03,-79.52 918.5,-80.64 921.5,-86.96"/>
</a>
</g>
</g>
<!-- Node22 -->
<g id="Node000022" class="node">
<title>Node22</title>
<g id="a_Node000022"><a xlink:title=" ">
<polygon fill="#e0e0e0" stroke="#999999" points="1142.5,-79.5 1017.5,-79.5 1017.5,-60.5 1142.5,-60.5 1142.5,-79.5"/>
<text text-anchor="middle" x="1080" y="-67.5" font-family="Helvetica,sans-Serif" font-size="10.00">imgui_impl_opengl3.h</text>
</a>
</g>
</g>
<!-- Node19&#45;&gt;Node22 -->
<g id="edge28_Node000019_Node000022" class="edge">
<title>Node19&#45;&gt;Node22</title>
<g id="a_edge28_Node000019_Node000022"><a xlink:title=" ">
<path fill="none" stroke="#63b8ff" d="M870.81,-120.95C920.09,-109.19 989.43,-92.63 1034.53,-81.86"/>
<polygon fill="#63b8ff" stroke="#63b8ff" points="1035.42,-85.24 1044.33,-79.52 1033.79,-78.44 1035.42,-85.24"/>
</a>
</g>
</g>
</g>
</svg>

<g id="navigator" transform="translate(0 0)" fill="#404254">
  <rect fill="#f2f5e9" fill-opacity="0.5" stroke="#606060" stroke-width=".5" x="0" y="0" width="60" height="60"/>
  <use id="zoomplus" xlink:href="#zoomPlus" x="17" y="9" onmousedown="handleZoom(evt,'in')"/>
  <use id="zoomminus" xlink:href="#zoomMin" x="42" y="9" onmousedown="handleZoom(evt,'out')"/>
  <use id="reset" xlink:href="#resetDef" x="30" y="36" onmousedown="handleReset()"/>
   <use id="arrowup" xlink:href="#arrowUp" x="0" y="0" onmousedown="handlePan(0,-1)"/>
  <use id="arrowright" xlink:href="#arrowRight" x="0" y="0" onmousedown="handlePan(1,0)"/>
  <use id="arrowdown" xlink:href="#arrowDown" x="0" y="0" onmousedown="handlePan(0,1)"/>
  <use id="arrowleft" xlink:href="#arrowLeft" x="0" y="0" onmousedown="handlePan(-1,0)"/>
</g>
<svg viewBox="0 0 15 15" width="100%" height="30px" preserveAspectRatio="xMaxYMin meet">
 <g id="arrow_out" transform="scale(0.3 0.3)">
  <a xlink:href="ext_2imgui_2__module_8ixx__incl_org.svg" target="_base">
   <rect id="button" ry="5" rx="5" y="6" x="6" height="38" width="38"
        fill="#f2f5e9" fill-opacity="0.5" stroke="#606060" stroke-width="1.0"/>
   <path id="arrow"
     d="M 11.500037,31.436501 C 11.940474,20.09759 22.043105,11.32322 32.158766,21.979434 L 37.068811,17.246167 C 37.068811,17.246167 37.088388,32 37.088388,32 L 22.160133,31.978069 C 22.160133,31.978069 26.997745,27.140456 26.997745,27.140456 C 18.528582,18.264221 13.291696,25.230495 11.500037,31.436501 z"
     style="fill:#404040;"/>
  </a>
 </g>
</svg>

<style type='text/css'>
<![CDATA[
[data-mouse-over-selected='false'] { opacity: 0.7; }
[data-mouse-over-selected='true']  { opacity: 1.0; }
]]>
</style>
<script type="application/ecmascript"><![CDATA[
document.addEventListener('DOMContentLoaded', (event) => {
  highlightEdges();
  highlightAdjacentNodes();
});
]]></script>
</svg>
