<?xml version="1.0" encoding="UTF-8" standalone="no"?>
<!DOCTYPE svg PUBLIC "-//W3C//DTD SVG 1.1//EN"
 "http://www.w3.org/Graphics/SVG/1.1/DTD/svg11.dtd">
<!-- Generated by graphviz version 2.43.0 (0)
 -->
<!-- Title: include/helios/tooling/FpsMetrics.ixx Pages: 1 -->
<svg width="214pt" height="93pt"
 viewBox="0.00 0.00 213.50 93.00" xmlns="http://www.w3.org/2000/svg" xmlns:xlink="http://www.w3.org/1999/xlink">
<g id="graph0" class="graph" transform="scale(1 1) rotate(0) translate(4 89)">
<title>include/helios/tooling/FpsMetrics.ixx</title>
<!-- Node1 -->
<g id="Node000001" class="node">
<title>Node1</title>
<g id="a_Node000001"><a xlink:title="Module defining the FpsMetrics class for frame rate analysis and monitoring.">
<polygon fill="#999999" stroke="#666666" points="140,-85 19,-85 19,-55 140,-55 140,-85"/>
<text text-anchor="start" x="27" y="-73" font-family="Helvetica,sans-Serif" font-size="10.00">include/helios/tooling</text>
<text text-anchor="middle" x="79.5" y="-62" font-family="Helvetica,sans-Serif" font-size="10.00">/FpsMetrics.ixx</text>
</a>
</g>
</g>
<!-- Node2 -->
<g id="Node000002" class="node">
<title>Node2</title>
<g id="a_Node000002"><a xlink:title=" ">
<polygon fill="#e0e0e0" stroke="#999999" points="47,-19 0,-19 0,0 47,0 47,-19"/>
<text text-anchor="middle" x="23.5" y="-7" font-family="Helvetica,sans-Serif" font-size="10.00">deque</text>
</a>
</g>
</g>
<!-- Node1&#45;&gt;Node2 -->
<g id="edge1_Node000001_Node000002" class="edge">
<title>Node1&#45;&gt;Node2</title>
<g id="a_edge1_Node000001_Node000002"><a xlink:title=" ">
<path fill="none" stroke="#63b8ff" d="M65.94,-54.84C57.82,-46.35 47.45,-35.52 39,-26.69"/>
<polygon fill="#63b8ff" stroke="#63b8ff" points="41.33,-24.07 31.89,-19.27 36.28,-28.91 41.33,-24.07"/>
</a>
</g>
</g>
<!-- Node3 -->
<g id="Node000003" class="node">
<title>Node3</title>
<g id="a_Node000003"><a xlink:href="FrameStats_8ixx.html" target="_top" xlink:title="Module defining the FrameStats structure for frame timing information.">
<polygon fill="white" stroke="#666666" points="205.5,-19 65.5,-19 65.5,0 205.5,0 205.5,-19"/>
<text text-anchor="middle" x="135.5" y="-7" font-family="Helvetica,sans-Serif" font-size="10.00">helios.engine.FrameStats</text>
</a>
</g>
</g>
<!-- Node1&#45;&gt;Node3 -->
<g id="edge2_Node000001_Node000003" class="edge">
<title>Node1&#45;&gt;Node3</title>
<g id="a_edge2_Node000001_Node000003"><a xlink:title=" ">
<path fill="none" stroke="#63b8ff" d="M93.06,-54.84C101.18,-46.35 111.55,-35.52 120,-26.69"/>
<polygon fill="#63b8ff" stroke="#63b8ff" points="122.72,-28.91 127.11,-19.27 117.67,-24.07 122.72,-28.91"/>
</a>
</g>
</g>
</g>
</svg>
