<?xml version="1.0" encoding="UTF-8" standalone="no"?>
<!DOCTYPE svg PUBLIC "-//W3C//DTD SVG 1.1//EN"
 "http://www.w3.org/Graphics/SVG/1.1/DTD/svg11.dtd">
<!-- Generated by graphviz version 2.43.0 (0)
 -->
<!-- Title: include/ext/imgui/widgets/FpsWidget.ixx Pages: 1 -->
<svg width="726pt" height="203pt"
 viewBox="0.00 0.00 725.50 203.00" xmlns="http://www.w3.org/2000/svg" xmlns:xlink="http://www.w3.org/1999/xlink">
<g id="graph0" class="graph" transform="scale(1 1) rotate(0) translate(4 199)">
<title>include/ext/imgui/widgets/FpsWidget.ixx</title>
<!-- Node1 -->
<g id="Node000001" class="node">
<title>Node1</title>
<g id="a_Node000001"><a xlink:title="ImGui widget for displaying and configuring FPS metrics and frame pacing.">
<polygon fill="#999999" stroke="#666666" points="342,-195 199,-195 199,-165 342,-165 342,-195"/>
<text text-anchor="start" x="207" y="-183" font-family="Helvetica,sans-Serif" font-size="10.00">include/ext/imgui/widgets</text>
<text text-anchor="middle" x="270.5" y="-172" font-family="Helvetica,sans-Serif" font-size="10.00">/FpsWidget.ixx</text>
</a>
</g>
</g>
<!-- Node2 -->
<g id="Node000002" class="node">
<title>Node2</title>
<g id="a_Node000002"><a xlink:title=" ">
<polygon fill="#e0e0e0" stroke="#999999" points="47,-129 0,-129 0,-110 47,-110 47,-129"/>
<text text-anchor="middle" x="23.5" y="-117" font-family="Helvetica,sans-Serif" font-size="10.00">vector</text>
</a>
</g>
</g>
<!-- Node1&#45;&gt;Node2 -->
<g id="edge1_Node000001_Node000002" class="edge">
<title>Node1&#45;&gt;Node2</title>
<g id="a_edge1_Node000001_Node000002"><a xlink:title=" ">
<path fill="none" stroke="#63b8ff" d="M208.6,-164.93C168.16,-155.64 113.95,-143.03 57.16,-129.12"/>
<polygon fill="#63b8ff" stroke="#63b8ff" points="57.82,-125.68 47.28,-126.69 56.15,-132.48 57.82,-125.68"/>
</a>
</g>
</g>
<!-- Node3 -->
<g id="Node000003" class="node">
<title>Node3</title>
<g id="a_Node000003"><a xlink:title=" ">
<polygon fill="#e0e0e0" stroke="#999999" points="109.5,-129 65.5,-129 65.5,-110 109.5,-110 109.5,-129"/>
<text text-anchor="middle" x="87.5" y="-117" font-family="Helvetica,sans-Serif" font-size="10.00">string</text>
</a>
</g>
</g>
<!-- Node1&#45;&gt;Node3 -->
<g id="edge2_Node000001_Node000003" class="edge">
<title>Node1&#45;&gt;Node3</title>
<g id="a_edge2_Node000001_Node000003"><a xlink:title=" ">
<path fill="none" stroke="#63b8ff" d="M226.67,-164.99C193.75,-154.47 149.42,-140.29 119.71,-130.8"/>
<polygon fill="#63b8ff" stroke="#63b8ff" points="120.45,-127.36 109.86,-127.65 118.32,-134.03 120.45,-127.36"/>
</a>
</g>
</g>
<!-- Node4 -->
<g id="Node000004" class="node">
<title>Node4</title>
<g id="a_Node000004"><a xlink:title=" ">
<polygon fill="#e0e0e0" stroke="#999999" points="181,-129 128,-129 128,-110 181,-110 181,-129"/>
<text text-anchor="middle" x="154.5" y="-117" font-family="Helvetica,sans-Serif" font-size="10.00">imgui.h</text>
</a>
</g>
</g>
<!-- Node1&#45;&gt;Node4 -->
<g id="edge3_Node000001_Node000004" class="edge">
<title>Node1&#45;&gt;Node4</title>
<g id="a_edge3_Node000001_Node000004"><a xlink:title=" ">
<path fill="none" stroke="#63b8ff" d="M242.72,-164.99C223.88,-155.49 199.15,-143.02 180.66,-133.69"/>
<polygon fill="#63b8ff" stroke="#63b8ff" points="182.14,-130.52 171.63,-129.14 178.98,-136.77 182.14,-130.52"/>
</a>
</g>
</g>
<!-- Node5 -->
<g id="Node000005" class="node">
<title>Node5</title>
<g id="a_Node000005"><a xlink:href="FrameStats_8ixx.html" target="_top" xlink:title="Module defining the FrameStats structure for frame timing information.">
<polygon fill="white" stroke="#666666" points="469.5,-74 329.5,-74 329.5,-55 469.5,-55 469.5,-74"/>
<text text-anchor="middle" x="399.5" y="-62" font-family="Helvetica,sans-Serif" font-size="10.00">helios.engine.FrameStats</text>
</a>
</g>
</g>
<!-- Node1&#45;&gt;Node5 -->
<g id="edge4_Node000001_Node000005" class="edge">
<title>Node1&#45;&gt;Node5</title>
<g id="a_edge4_Node000001_Node000005"><a xlink:title=" ">
<path fill="none" stroke="#63b8ff" d="M298.09,-164.97C314.34,-155.97 334.72,-143.3 350.5,-129 365.76,-115.17 379.74,-96.13 388.83,-82.52"/>
<polygon fill="#63b8ff" stroke="#63b8ff" points="391.79,-84.38 394.29,-74.08 385.92,-80.57 391.79,-84.38"/>
</a>
</g>
</g>
<!-- Node6 -->
<g id="Node000006" class="node">
<title>Node6</title>
<g id="a_Node000006"><a xlink:href="FramePacer_8ixx.html" target="_top" xlink:title="Module defining the FramePacer class for frame rate control and timing synchronization.">
<polygon fill="white" stroke="#666666" points="341.5,-129 199.5,-129 199.5,-110 341.5,-110 341.5,-129"/>
<text text-anchor="middle" x="270.5" y="-117" font-family="Helvetica,sans-Serif" font-size="10.00">helios.engine.FramePacer</text>
</a>
</g>
</g>
<!-- Node1&#45;&gt;Node6 -->
<g id="edge5_Node000001_Node000006" class="edge">
<title>Node1&#45;&gt;Node6</title>
<g id="a_edge5_Node000001_Node000006"><a xlink:title=" ">
<path fill="none" stroke="#63b8ff" d="M270.5,-164.84C270.5,-157.21 270.5,-147.7 270.5,-139.45"/>
<polygon fill="#63b8ff" stroke="#63b8ff" points="274,-139.27 270.5,-129.27 267,-139.27 274,-139.27"/>
</a>
</g>
</g>
<!-- Node10 -->
<g id="Node000010" class="node">
<title>Node10</title>
<g id="a_Node000010"><a xlink:href="FpsMetrics_8ixx.html" target="_top" xlink:title="Module defining the FpsMetrics class for frame rate analysis and monitoring.">
<polygon fill="white" stroke="#666666" points="537,-129 398,-129 398,-110 537,-110 537,-129"/>
<text text-anchor="middle" x="467.5" y="-117" font-family="Helvetica,sans-Serif" font-size="10.00">helios.tooling.FpsMetrics</text>
</a>
</g>
</g>
<!-- Node1&#45;&gt;Node10 -->
<g id="edge10_Node000001_Node000010" class="edge">
<title>Node1&#45;&gt;Node10</title>
<g id="a_edge10_Node000001_Node000010"><a xlink:title=" ">
<path fill="none" stroke="#63b8ff" d="M317.69,-164.99C351.68,-154.89 397,-141.44 428.86,-131.98"/>
<polygon fill="#63b8ff" stroke="#63b8ff" points="430.11,-135.26 438.7,-129.05 428.11,-128.55 430.11,-135.26"/>
</a>
</g>
</g>
<!-- Node12 -->
<g id="Node000012" class="node">
<title>Node12</title>
<g id="a_Node000012"><a xlink:href="ImGuiWidget_8ixx.html" target="_top" xlink:title="Base interface for ImGui&#45;based debug and UI widgets.">
<polygon fill="white" stroke="#666666" points="717.5,-129 555.5,-129 555.5,-110 717.5,-110 717.5,-129"/>
<text text-anchor="middle" x="636.5" y="-117" font-family="Helvetica,sans-Serif" font-size="10.00">helios.ext.imgui.ImGuiWidget</text>
</a>
</g>
</g>
<!-- Node1&#45;&gt;Node12 -->
<g id="edge13_Node000001_Node000012" class="edge">
<title>Node1&#45;&gt;Node12</title>
<g id="a_edge13_Node000001_Node000012"><a xlink:title=" ">
<path fill="none" stroke="#63b8ff" d="M342.37,-167.51C409.56,-156.77 508.91,-140.89 573.18,-130.62"/>
<polygon fill="#63b8ff" stroke="#63b8ff" points="573.86,-134.06 583.19,-129.02 572.76,-127.14 573.86,-134.06"/>
</a>
</g>
</g>
<!-- Node6&#45;&gt;Node5 -->
<g id="edge7_Node000006_Node000005" class="edge">
<title>Node6&#45;&gt;Node5</title>
<g id="a_edge7_Node000006_Node000005"><a xlink:title=" ">
<path fill="none" stroke="#63b8ff" d="M291.23,-109.98C312.26,-101.34 345.05,-87.87 369.04,-78.02"/>
<polygon fill="#63b8ff" stroke="#63b8ff" points="370.48,-81.21 378.4,-74.17 367.82,-74.73 370.48,-81.21"/>
</a>
</g>
</g>
<!-- Node7 -->
<g id="Node000007" class="node">
<title>Node7</title>
<g id="a_Node000007"><a xlink:title=" ">
<polygon fill="#e0e0e0" stroke="#999999" points="149.5,-74 91.5,-74 91.5,-55 149.5,-55 149.5,-74"/>
<text text-anchor="middle" x="120.5" y="-62" font-family="Helvetica,sans-Serif" font-size="10.00">memory</text>
</a>
</g>
</g>
<!-- Node6&#45;&gt;Node7 -->
<g id="edge6_Node000006_Node000007" class="edge">
<title>Node6&#45;&gt;Node7</title>
<g id="a_edge6_Node000006_Node000007"><a xlink:title=" ">
<path fill="none" stroke="#63b8ff" d="M246.4,-109.98C221.62,-101.23 182.8,-87.51 154.81,-77.62"/>
<polygon fill="#63b8ff" stroke="#63b8ff" points="155.63,-74.2 145.04,-74.17 153.3,-80.8 155.63,-74.2"/>
</a>
</g>
</g>
<!-- Node8 -->
<g id="Node000008" class="node">
<title>Node8</title>
<g id="a_Node000008"><a xlink:href="Stopwatch_8ixx.html" target="_top" xlink:title="A high&#45;resolution timer based on std::chrono::steady_clock.">
<polygon fill="white" stroke="#666666" points="311.5,-74 167.5,-74 167.5,-55 311.5,-55 311.5,-74"/>
<text text-anchor="middle" x="239.5" y="-62" font-family="Helvetica,sans-Serif" font-size="10.00">helios.util.time.Stopwatch</text>
</a>
</g>
</g>
<!-- Node6&#45;&gt;Node8 -->
<g id="edge8_Node000006_Node000008" class="edge">
<title>Node6&#45;&gt;Node8</title>
<g id="a_edge8_Node000006_Node000008"><a xlink:title=" ">
<path fill="none" stroke="#63b8ff" d="M265.38,-109.75C261.14,-102.49 254.97,-91.95 249.72,-82.98"/>
<polygon fill="#63b8ff" stroke="#63b8ff" points="252.59,-80.95 244.52,-74.09 246.55,-84.49 252.59,-80.95"/>
</a>
</g>
</g>
<!-- Node9 -->
<g id="Node000009" class="node">
<title>Node9</title>
<g id="a_Node000009"><a xlink:title=" ">
<polygon fill="#e0e0e0" stroke="#999999" points="264.5,-19 214.5,-19 214.5,0 264.5,0 264.5,-19"/>
<text text-anchor="middle" x="239.5" y="-7" font-family="Helvetica,sans-Serif" font-size="10.00">chrono</text>
</a>
</g>
</g>
<!-- Node8&#45;&gt;Node9 -->
<g id="edge9_Node000008_Node000009" class="edge">
<title>Node8&#45;&gt;Node9</title>
<g id="a_edge9_Node000008_Node000009"><a xlink:title=" ">
<path fill="none" stroke="#63b8ff" d="M239.5,-54.75C239.5,-47.8 239.5,-37.85 239.5,-29.13"/>
<polygon fill="#63b8ff" stroke="#63b8ff" points="243,-29.09 239.5,-19.09 236,-29.09 243,-29.09"/>
</a>
</g>
</g>
<!-- Node10&#45;&gt;Node5 -->
<g id="edge12_Node000010_Node000005" class="edge">
<title>Node10&#45;&gt;Node5</title>
<g id="a_edge12_Node000010_Node000005"><a xlink:title=" ">
<path fill="none" stroke="#63b8ff" d="M456.57,-109.98C446.42,-102.07 431.08,-90.11 418.85,-80.58"/>
<polygon fill="#63b8ff" stroke="#63b8ff" points="420.66,-77.56 410.62,-74.17 416.36,-83.08 420.66,-77.56"/>
</a>
</g>
</g>
<!-- Node11 -->
<g id="Node000011" class="node">
<title>Node11</title>
<g id="a_Node000011"><a xlink:title=" ">
<polygon fill="#e0e0e0" stroke="#999999" points="535,-74 488,-74 488,-55 535,-55 535,-74"/>
<text text-anchor="middle" x="511.5" y="-62" font-family="Helvetica,sans-Serif" font-size="10.00">deque</text>
</a>
</g>
</g>
<!-- Node10&#45;&gt;Node11 -->
<g id="edge11_Node000010_Node000011" class="edge">
<title>Node10&#45;&gt;Node11</title>
<g id="a_edge11_Node000010_Node000011"><a xlink:title=" ">
<path fill="none" stroke="#63b8ff" d="M474.77,-109.75C481.04,-102.18 490.29,-91.05 497.93,-81.84"/>
<polygon fill="#63b8ff" stroke="#63b8ff" points="500.67,-84.02 504.37,-74.09 495.29,-79.55 500.67,-84.02"/>
</a>
</g>
</g>
</g>
</svg>
