<?xml version="1.0" encoding="UTF-8" standalone="no"?>
<!DOCTYPE svg PUBLIC "-//W3C//DTD SVG 1.1//EN"
 "http://www.w3.org/Graphics/SVG/1.1/DTD/svg11.dtd">
<!-- Generated by graphviz version 2.43.0 (0)
 -->
<!-- Title: include/helios/engine/FramePacer.ixx Pages: 1 -->
<svg width="386pt" height="148pt"
 viewBox="0.00 0.00 386.00 148.00" xmlns="http://www.w3.org/2000/svg" xmlns:xlink="http://www.w3.org/1999/xlink">
<g id="graph0" class="graph" transform="scale(1 1) rotate(0) translate(4 144)">
<title>include/helios/engine/FramePacer.ixx</title>
<!-- Node1 -->
<g id="Node000001" class="node">
<title>Node1</title>
<g id="a_Node000001"><a xlink:title="Module defining the FramePacer class for frame rate control and timing synchronization.">
<polygon fill="#999999" stroke="#666666" points="206,-140 86,-140 86,-110 206,-110 206,-140"/>
<text text-anchor="start" x="94" y="-128" font-family="Helvetica,sans-Serif" font-size="10.00">include/helios/engine</text>
<text text-anchor="middle" x="146" y="-117" font-family="Helvetica,sans-Serif" font-size="10.00">/FramePacer.ixx</text>
</a>
</g>
</g>
<!-- Node2 -->
<g id="Node000002" class="node">
<title>Node2</title>
<g id="a_Node000002"><a xlink:title=" ">
<polygon fill="#e0e0e0" stroke="#999999" points="58,-74 0,-74 0,-55 58,-55 58,-74"/>
<text text-anchor="middle" x="29" y="-62" font-family="Helvetica,sans-Serif" font-size="10.00">memory</text>
</a>
</g>
</g>
<!-- Node1&#45;&gt;Node2 -->
<g id="edge1_Node000001_Node000002" class="edge">
<title>Node1&#45;&gt;Node2</title>
<g id="a_edge1_Node000001_Node000002"><a xlink:title=" ">
<path fill="none" stroke="#63b8ff" d="M117.98,-109.99C98.98,-100.49 74.03,-88.02 55.39,-78.69"/>
<polygon fill="#63b8ff" stroke="#63b8ff" points="56.79,-75.48 46.28,-74.14 53.66,-81.74 56.79,-75.48"/>
</a>
</g>
</g>
<!-- Node3 -->
<g id="Node000003" class="node">
<title>Node3</title>
<g id="a_Node000003"><a xlink:href="FrameStats_8ixx.html" target="_top" xlink:title="Module defining the FrameStats structure for frame timing information.">
<polygon fill="white" stroke="#666666" points="216,-74 76,-74 76,-55 216,-55 216,-74"/>
<text text-anchor="middle" x="146" y="-62" font-family="Helvetica,sans-Serif" font-size="10.00">helios.engine.FrameStats</text>
</a>
</g>
</g>
<!-- Node1&#45;&gt;Node3 -->
<g id="edge2_Node000001_Node000003" class="edge">
<title>Node1&#45;&gt;Node3</title>
<g id="a_edge2_Node000001_Node000003"><a xlink:title=" ">
<path fill="none" stroke="#63b8ff" d="M146,-109.84C146,-102.21 146,-92.7 146,-84.45"/>
<polygon fill="#63b8ff" stroke="#63b8ff" points="149.5,-84.27 146,-74.27 142.5,-84.27 149.5,-84.27"/>
</a>
</g>
</g>
<!-- Node4 -->
<g id="Node000004" class="node">
<title>Node4</title>
<g id="a_Node000004"><a xlink:href="Stopwatch_8ixx.html" target="_top" xlink:title="A high&#45;resolution timer based on std::chrono::steady_clock.">
<polygon fill="white" stroke="#666666" points="378,-74 234,-74 234,-55 378,-55 378,-74"/>
<text text-anchor="middle" x="306" y="-62" font-family="Helvetica,sans-Serif" font-size="10.00">helios.util.time.Stopwatch</text>
</a>
</g>
</g>
<!-- Node1&#45;&gt;Node4 -->
<g id="edge3_Node000001_Node000004" class="edge">
<title>Node1&#45;&gt;Node4</title>
<g id="a_edge3_Node000001_Node000004"><a xlink:title=" ">
<path fill="none" stroke="#63b8ff" d="M184.32,-109.99C211.26,-100.14 246.93,-87.1 272.69,-77.68"/>
<polygon fill="#63b8ff" stroke="#63b8ff" points="274.18,-80.86 282.37,-74.14 271.78,-74.29 274.18,-80.86"/>
</a>
</g>
</g>
<!-- Node5 -->
<g id="Node000005" class="node">
<title>Node5</title>
<g id="a_Node000005"><a xlink:title=" ">
<polygon fill="#e0e0e0" stroke="#999999" points="331,-19 281,-19 281,0 331,0 331,-19"/>
<text text-anchor="middle" x="306" y="-7" font-family="Helvetica,sans-Serif" font-size="10.00">chrono</text>
</a>
</g>
</g>
<!-- Node4&#45;&gt;Node5 -->
<g id="edge4_Node000004_Node000005" class="edge">
<title>Node4&#45;&gt;Node5</title>
<g id="a_edge4_Node000004_Node000005"><a xlink:title=" ">
<path fill="none" stroke="#63b8ff" d="M306,-54.75C306,-47.8 306,-37.85 306,-29.13"/>
<polygon fill="#63b8ff" stroke="#63b8ff" points="309.5,-29.09 306,-19.09 302.5,-29.09 309.5,-29.09"/>
</a>
</g>
</g>
</g>
</svg>
