<?xml version="1.0" encoding="UTF-8" standalone="no"?>
<!DOCTYPE svg PUBLIC "-//W3C//DTD SVG 1.1//EN"
 "http://www.w3.org/Graphics/SVG/1.1/DTD/svg11.dtd">
<!-- Generated by graphviz version 2.43.0 (0)
 -->
<!-- Title: include/helios/window/event/FrameBufferResizeEvent.ixx Pages: 1 -->
<svg width="242pt" height="269pt"
 viewBox="0.00 0.00 242.00 269.00" xmlns="http://www.w3.org/2000/svg" xmlns:xlink="http://www.w3.org/1999/xlink">

<svg id="main" version="1.1" xmlns="http://www.w3.org/2000/svg" xmlns:xlink="http://www.w3.org/1999/xlink" xml:space="preserve">

<style type="text/css"><![CDATA[
.node, .edge {opacity: 0.7;}
.node.selected, .edge.selected {opacity: 1;}
.edge:hover path { stroke: red; }
.edge:hover polygon { stroke: red; fill: red; }
]]></style>
<script type="application/ecmascript" xlink:href="svg.min.js"/>
<svg id="graph" class="graph">
<g id="graph0" class="graph" transform="scale(1 1) rotate(0) translate(4 265)">
<title>include/helios/window/event/FrameBufferResizeEvent.ixx</title>
<!-- Node1 -->
<g id="Node000001" class="node">
<title>Node1</title>
<g id="a_Node000001"><a xlink:title=" ">
<polygon fill="#999999" stroke="#666666" points="201,-261 13,-261 13,-231 201,-231 201,-261"/>
<text text-anchor="start" x="21" y="-249" font-family="Helvetica,sans-Serif" font-size="10.00">include/helios/window</text>
<text text-anchor="middle" x="107" y="-238" font-family="Helvetica,sans-Serif" font-size="10.00">/event/FrameBufferResizeEvent.ixx</text>
</a>
</g>
</g>
<!-- Node2 -->
<g id="Node000002" class="node">
<title>Node2</title>
<g id="a_Node000002"><a xlink:title=" ">
<polygon fill="#e0e0e0" stroke="#999999" points="50,-19 0,-19 0,0 50,0 50,-19"/>
<text text-anchor="middle" x="25" y="-7" font-family="Helvetica,sans-Serif" font-size="10.00">cstdint</text>
</a>
</g>
</g>
<!-- Node1&#45;&gt;Node2 -->
<g id="edge1_Node000001_Node000002" class="edge">
<title>Node1&#45;&gt;Node2</title>
<g id="a_edge1_Node000001_Node000002"><a xlink:title=" ">
<path fill="none" stroke="#63b8ff" d="M62.8,-230.85C46.02,-223.08 28.63,-211.55 19,-195 -11.98,-141.76 6.94,-64.47 18.29,-29.25"/>
<polygon fill="#63b8ff" stroke="#63b8ff" points="21.75,-29.97 21.64,-19.37 15.12,-27.72 21.75,-29.97"/>
</a>
</g>
</g>
<!-- Node3 -->
<g id="Node000003" class="node">
<title>Node3</title>
<g id="a_Node000003"><a xlink:href="Guid_8ixx.html" target="_top" xlink:title=" ">
<polygon fill="white" stroke="#666666" points="234,-74 144,-74 144,-55 234,-55 234,-74"/>
<text text-anchor="middle" x="189" y="-62" font-family="Helvetica,sans-Serif" font-size="10.00">helios.util.Guid</text>
</a>
</g>
</g>
<!-- Node1&#45;&gt;Node3 -->
<g id="edge2_Node000001_Node000003" class="edge">
<title>Node1&#45;&gt;Node3</title>
<g id="a_edge2_Node000001_Node000003"><a xlink:title=" ">
<path fill="none" stroke="#63b8ff" d="M151.2,-230.85C167.98,-223.08 185.37,-211.55 195,-195 215.4,-159.95 204.11,-110.09 195.64,-83.63"/>
<polygon fill="#63b8ff" stroke="#63b8ff" points="198.93,-82.45 192.38,-74.12 192.31,-84.72 198.93,-82.45"/>
</a>
</g>
</g>
<!-- Node5 -->
<g id="Node000005" class="node">
<title>Node5</title>
<g id="a_Node000005"><a xlink:href="WindowEvent_8ixx.html" target="_top" xlink:title=" ">
<polygon fill="white" stroke="#666666" points="186,-195 28,-195 28,-165 186,-165 186,-195"/>
<text text-anchor="start" x="36" y="-183" font-family="Helvetica,sans-Serif" font-size="10.00">helios.window.event.Window</text>
<text text-anchor="middle" x="107" y="-172" font-family="Helvetica,sans-Serif" font-size="10.00">Event</text>
</a>
</g>
</g>
<!-- Node1&#45;&gt;Node5 -->
<g id="edge5_Node000001_Node000005" class="edge">
<title>Node1&#45;&gt;Node5</title>
<g id="a_edge5_Node000001_Node000005"><a xlink:title=" ">
<path fill="none" stroke="#63b8ff" d="M107,-230.8C107,-223.34 107,-213.99 107,-205.41"/>
<polygon fill="#63b8ff" stroke="#63b8ff" points="110.5,-205.16 107,-195.16 103.5,-205.16 110.5,-205.16"/>
</a>
</g>
</g>
<!-- Node3&#45;&gt;Node2 -->
<g id="edge4_Node000003_Node000002" class="edge">
<title>Node3&#45;&gt;Node2</title>
<g id="a_edge4_Node000003_Node000002"><a xlink:title=" ">
<path fill="none" stroke="#63b8ff" d="M162.65,-54.98C134.83,-45.99 90.83,-31.77 60.08,-21.84"/>
<polygon fill="#63b8ff" stroke="#63b8ff" points="60.8,-18.39 50.21,-18.65 58.65,-25.05 60.8,-18.39"/>
</a>
</g>
</g>
<!-- Node4 -->
<g id="Node000004" class="node">
<title>Node4</title>
<g id="a_Node000004"><a xlink:title=" ">
<polygon fill="#e0e0e0" stroke="#999999" points="214,-19 164,-19 164,0 214,0 214,-19"/>
<text text-anchor="middle" x="189" y="-7" font-family="Helvetica,sans-Serif" font-size="10.00">atomic</text>
</a>
</g>
</g>
<!-- Node3&#45;&gt;Node4 -->
<g id="edge3_Node000003_Node000004" class="edge">
<title>Node3&#45;&gt;Node4</title>
<g id="a_edge3_Node000003_Node000004"><a xlink:title=" ">
<path fill="none" stroke="#63b8ff" d="M189,-54.75C189,-47.8 189,-37.85 189,-29.13"/>
<polygon fill="#63b8ff" stroke="#63b8ff" points="192.5,-29.09 189,-19.09 185.5,-29.09 192.5,-29.09"/>
</a>
</g>
</g>
<!-- Node5&#45;&gt;Node2 -->
<g id="edge6_Node000005_Node000002" class="edge">
<title>Node5&#45;&gt;Node2</title>
<g id="a_edge6_Node000005_Node000002"><a xlink:title=" ">
<path fill="none" stroke="#63b8ff" d="M81.32,-164.96C68.04,-156.34 52.82,-144.06 44,-129 25.65,-97.64 23.48,-54.02 23.97,-29.39"/>
<polygon fill="#63b8ff" stroke="#63b8ff" points="27.47,-29.37 24.34,-19.24 20.47,-29.11 27.47,-29.37"/>
</a>
</g>
</g>
<!-- Node5&#45;&gt;Node3 -->
<g id="edge10_Node000005_Node000003" class="edge">
<title>Node5&#45;&gt;Node3</title>
<g id="a_edge10_Node000005_Node000003"><a xlink:title=" ">
<path fill="none" stroke="#63b8ff" d="M130.52,-164.97C143.53,-156.12 159.03,-143.62 169,-129 178.16,-115.57 183.29,-97.74 186.06,-84.39"/>
<polygon fill="#63b8ff" stroke="#63b8ff" points="189.52,-84.89 187.86,-74.42 182.63,-83.64 189.52,-84.89"/>
</a>
</g>
</g>
<!-- Node6 -->
<g id="Node000006" class="node">
<title>Node6</title>
<g id="a_Node000006"><a xlink:href="Event_8ixx.html" target="_top" xlink:title=" ">
<polygon fill="white" stroke="#666666" points="160.5,-129 53.5,-129 53.5,-110 160.5,-110 160.5,-129"/>
<text text-anchor="middle" x="107" y="-117" font-family="Helvetica,sans-Serif" font-size="10.00">helios.event.Event</text>
</a>
</g>
</g>
<!-- Node5&#45;&gt;Node6 -->
<g id="edge7_Node000005_Node000006" class="edge">
<title>Node5&#45;&gt;Node6</title>
<g id="a_edge7_Node000005_Node000006"><a xlink:title=" ">
<path fill="none" stroke="#63b8ff" d="M107,-164.84C107,-157.21 107,-147.7 107,-139.45"/>
<polygon fill="#63b8ff" stroke="#63b8ff" points="110.5,-139.27 107,-129.27 103.5,-139.27 110.5,-139.27"/>
</a>
</g>
</g>
<!-- Node6&#45;&gt;Node3 -->
<g id="edge9_Node000006_Node000003" class="edge">
<title>Node6&#45;&gt;Node3</title>
<g id="a_edge9_Node000006_Node000003"><a xlink:title=" ">
<path fill="none" stroke="#63b8ff" d="M120.17,-109.98C132.77,-101.84 152,-89.41 166.94,-79.76"/>
<polygon fill="#63b8ff" stroke="#63b8ff" points="169.09,-82.54 175.59,-74.17 165.29,-76.66 169.09,-82.54"/>
</a>
</g>
</g>
<!-- Node7 -->
<g id="Node000007" class="node">
<title>Node7</title>
<g id="a_Node000007"><a xlink:title=" ">
<polygon fill="#e0e0e0" stroke="#999999" points="126,-74 68,-74 68,-55 126,-55 126,-74"/>
<text text-anchor="middle" x="97" y="-62" font-family="Helvetica,sans-Serif" font-size="10.00">memory</text>
</a>
</g>
</g>
<!-- Node6&#45;&gt;Node7 -->
<g id="edge8_Node000006_Node000007" class="edge">
<title>Node6&#45;&gt;Node7</title>
<g id="a_edge8_Node000006_Node000007"><a xlink:title=" ">
<path fill="none" stroke="#63b8ff" d="M105.35,-109.75C104.04,-102.8 102.16,-92.85 100.52,-84.13"/>
<polygon fill="#63b8ff" stroke="#63b8ff" points="103.91,-83.27 98.62,-74.09 97.04,-84.56 103.91,-83.27"/>
</a>
</g>
</g>
</g>
</svg>
</svg>

<style type='text/css'>
<![CDATA[
[data-mouse-over-selected='false'] { opacity: 0.7; }
[data-mouse-over-selected='true']  { opacity: 1.0; }
]]>
</style>
<script type="application/ecmascript"><![CDATA[
document.addEventListener('DOMContentLoaded', (event) => {
  highlightEdges();
  highlightAdjacentNodes();
});
]]></script>
</svg>
