<?xml version="1.0" encoding="UTF-8" standalone="no"?>
<!DOCTYPE svg PUBLIC "-//W3C//DTD SVG 1.1//EN"
 "http://www.w3.org/Graphics/SVG/1.1/DTD/svg11.dtd">
<!-- Generated by graphviz version 2.43.0 (0)
 -->
<!-- Title: include/helios/window/event/FrameBufferResizeEvent.ixx Pages: 1 -->
<svg width="342pt" height="269pt"
 viewBox="0.00 0.00 342.00 269.00" xmlns="http://www.w3.org/2000/svg" xmlns:xlink="http://www.w3.org/1999/xlink">
<g id="graph0" class="graph" transform="scale(1 1) rotate(0) translate(4 265)">
<title>include/helios/window/event/FrameBufferResizeEvent.ixx</title>
<!-- Node1 -->
<g id="Node000001" class="node">
<title>Node1</title>
<g id="a_Node000001"><a xlink:title="Event representing a change in the framebuffer size.">
<polygon fill="#999999" stroke="#666666" points="188,-261 0,-261 0,-231 188,-231 188,-261"/>
<text text-anchor="start" x="8" y="-249" font-family="Helvetica,sans-Serif" font-size="10.00">include/helios/window</text>
<text text-anchor="middle" x="94" y="-238" font-family="Helvetica,sans-Serif" font-size="10.00">/event/FrameBufferResizeEvent.ixx</text>
</a>
</g>
</g>
<!-- Node2 -->
<g id="Node000002" class="node">
<title>Node2</title>
<g id="a_Node000002"><a xlink:title=" ">
<polygon fill="#e0e0e0" stroke="#999999" points="103,-19 53,-19 53,0 103,0 103,-19"/>
<text text-anchor="middle" x="78" y="-7" font-family="Helvetica,sans-Serif" font-size="10.00">cstdint</text>
</a>
</g>
</g>
<!-- Node1&#45;&gt;Node2 -->
<g id="edge1_Node000001_Node000002" class="edge">
<title>Node1&#45;&gt;Node2</title>
<g id="a_edge1_Node000001_Node000002"><a xlink:title=" ">
<path fill="none" stroke="#63b8ff" d="M77.97,-230.99C68.73,-221.81 57.99,-208.95 53,-195 32.18,-136.78 56.44,-62.55 70.03,-28.74"/>
<polygon fill="#63b8ff" stroke="#63b8ff" points="73.36,-29.84 73.99,-19.26 66.91,-27.13 73.36,-29.84"/>
</a>
</g>
</g>
<!-- Node3 -->
<g id="Node000003" class="node">
<title>Node3</title>
<g id="a_Node000003"><a xlink:title=" ">
<polygon fill="#e0e0e0" stroke="#999999" points="334,-74 290,-74 290,-55 334,-55 334,-74"/>
<text text-anchor="middle" x="312" y="-62" font-family="Helvetica,sans-Serif" font-size="10.00">string</text>
</a>
</g>
</g>
<!-- Node1&#45;&gt;Node3 -->
<g id="edge2_Node000001_Node000003" class="edge">
<title>Node1&#45;&gt;Node3</title>
<g id="a_edge2_Node000001_Node000003"><a xlink:title=" ">
<path fill="none" stroke="#63b8ff" d="M155.71,-230.99C181.96,-223.14 212,-211.52 236,-195 267.69,-173.19 273.41,-162.68 292,-129 299.78,-114.91 305.01,-97.37 308.17,-84.29"/>
<polygon fill="#63b8ff" stroke="#63b8ff" points="311.67,-84.67 310.42,-74.15 304.83,-83.15 311.67,-84.67"/>
</a>
</g>
</g>
<!-- Node4 -->
<g id="Node000004" class="node">
<title>Node4</title>
<g id="a_Node000004"><a xlink:href="Guid_8ixx.html" target="_top" xlink:title="Lightweight GUID (globally unique identifier) implementation.">
<polygon fill="white" stroke="#666666" points="196,-74 106,-74 106,-55 196,-55 196,-74"/>
<text text-anchor="middle" x="151" y="-62" font-family="Helvetica,sans-Serif" font-size="10.00">helios.util.Guid</text>
</a>
</g>
</g>
<!-- Node1&#45;&gt;Node4 -->
<g id="edge3_Node000001_Node000004" class="edge">
<title>Node1&#45;&gt;Node4</title>
<g id="a_edge3_Node000001_Node000004"><a xlink:title=" ">
<path fill="none" stroke="#63b8ff" d="M81.01,-230.92C73.26,-221.51 64.14,-208.44 60,-195 56.08,-182.26 55.17,-177.43 60,-165 74.06,-128.78 108.14,-97.7 130.37,-80.32"/>
<polygon fill="#63b8ff" stroke="#63b8ff" points="132.66,-82.98 138.52,-74.15 128.44,-77.4 132.66,-82.98"/>
</a>
</g>
</g>
<!-- Node6 -->
<g id="Node000006" class="node">
<title>Node6</title>
<g id="a_Node000006"><a xlink:href="WindowEvent_8ixx.html" target="_top" xlink:title="Abstract base class for window&#45;related events.">
<polygon fill="white" stroke="#666666" points="227,-195 69,-195 69,-165 227,-165 227,-195"/>
<text text-anchor="start" x="77" y="-183" font-family="Helvetica,sans-Serif" font-size="10.00">helios.window.event.Window</text>
<text text-anchor="middle" x="148" y="-172" font-family="Helvetica,sans-Serif" font-size="10.00">Event</text>
</a>
</g>
</g>
<!-- Node1&#45;&gt;Node6 -->
<g id="edge6_Node000001_Node000006" class="edge">
<title>Node1&#45;&gt;Node6</title>
<g id="a_edge6_Node000001_Node000006"><a xlink:title=" ">
<path fill="none" stroke="#63b8ff" d="M105.98,-230.8C112.91,-222.59 121.76,-212.1 129.55,-202.87"/>
<polygon fill="#63b8ff" stroke="#63b8ff" points="132.28,-205.06 136.05,-195.16 126.93,-200.55 132.28,-205.06"/>
</a>
</g>
</g>
<!-- Node4&#45;&gt;Node2 -->
<g id="edge5_Node000004_Node000002" class="edge">
<title>Node4&#45;&gt;Node2</title>
<g id="a_edge5_Node000004_Node000002"><a xlink:title=" ">
<path fill="none" stroke="#63b8ff" d="M139.27,-54.98C128.27,-47 111.58,-34.88 98.4,-25.31"/>
<polygon fill="#63b8ff" stroke="#63b8ff" points="100.09,-22.21 89.94,-19.17 95.98,-27.88 100.09,-22.21"/>
</a>
</g>
</g>
<!-- Node5 -->
<g id="Node000005" class="node">
<title>Node5</title>
<g id="a_Node000005"><a xlink:title=" ">
<polygon fill="#e0e0e0" stroke="#999999" points="176,-19 126,-19 126,0 176,0 176,-19"/>
<text text-anchor="middle" x="151" y="-7" font-family="Helvetica,sans-Serif" font-size="10.00">atomic</text>
</a>
</g>
</g>
<!-- Node4&#45;&gt;Node5 -->
<g id="edge4_Node000004_Node000005" class="edge">
<title>Node4&#45;&gt;Node5</title>
<g id="a_edge4_Node000004_Node000005"><a xlink:title=" ">
<path fill="none" stroke="#63b8ff" d="M151,-54.75C151,-47.8 151,-37.85 151,-29.13"/>
<polygon fill="#63b8ff" stroke="#63b8ff" points="154.5,-29.09 151,-19.09 147.5,-29.09 154.5,-29.09"/>
</a>
</g>
</g>
<!-- Node6&#45;&gt;Node2 -->
<g id="edge7_Node000006_Node000002" class="edge">
<title>Node6&#45;&gt;Node2</title>
<g id="a_edge7_Node000006_Node000002"><a xlink:title=" ">
<path fill="none" stroke="#63b8ff" d="M140.15,-164.72C129.42,-144.82 110.02,-107.42 97,-74 91.25,-59.24 86.19,-41.99 82.74,-29.2"/>
<polygon fill="#63b8ff" stroke="#63b8ff" points="86.06,-28.07 80.15,-19.28 79.29,-29.84 86.06,-28.07"/>
</a>
</g>
</g>
<!-- Node6&#45;&gt;Node4 -->
<g id="edge12_Node000006_Node000004" class="edge">
<title>Node6&#45;&gt;Node4</title>
<g id="a_edge12_Node000006_Node000004"><a xlink:title=" ">
<path fill="none" stroke="#63b8ff" d="M148.38,-164.63C148.92,-144.21 149.91,-106.81 150.5,-84.24"/>
<polygon fill="#63b8ff" stroke="#63b8ff" points="154,-84.32 150.77,-74.23 147.01,-84.13 154,-84.32"/>
</a>
</g>
</g>
<!-- Node7 -->
<g id="Node000007" class="node">
<title>Node7</title>
<g id="a_Node000007"><a xlink:href="Event_8ixx.html" target="_top" xlink:title="Base class for events in the helios framework.">
<polygon fill="white" stroke="#666666" points="283.5,-129 176.5,-129 176.5,-110 283.5,-110 283.5,-129"/>
<text text-anchor="middle" x="230" y="-117" font-family="Helvetica,sans-Serif" font-size="10.00">helios.event.Event</text>
</a>
</g>
</g>
<!-- Node6&#45;&gt;Node7 -->
<g id="edge8_Node000006_Node000007" class="edge">
<title>Node6&#45;&gt;Node7</title>
<g id="a_edge8_Node000006_Node000007"><a xlink:title=" ">
<path fill="none" stroke="#63b8ff" d="M167.85,-164.84C180.48,-155.83 196.8,-144.18 209.55,-135.09"/>
<polygon fill="#63b8ff" stroke="#63b8ff" points="211.6,-137.92 217.71,-129.27 207.54,-132.22 211.6,-137.92"/>
</a>
</g>
</g>
<!-- Node7&#45;&gt;Node3 -->
<g id="edge10_Node000007_Node000003" class="edge">
<title>Node7&#45;&gt;Node3</title>
<g id="a_edge10_Node000007_Node000003"><a xlink:title=" ">
<path fill="none" stroke="#63b8ff" d="M243.17,-109.98C255.77,-101.84 275,-89.41 289.94,-79.76"/>
<polygon fill="#63b8ff" stroke="#63b8ff" points="292.09,-82.54 298.59,-74.17 288.29,-76.66 292.09,-82.54"/>
</a>
</g>
</g>
<!-- Node7&#45;&gt;Node4 -->
<g id="edge11_Node000007_Node000004" class="edge">
<title>Node7&#45;&gt;Node4</title>
<g id="a_edge11_Node000007_Node000004"><a xlink:title=" ">
<path fill="none" stroke="#63b8ff" d="M217.31,-109.98C205.17,-101.84 186.64,-89.41 172.25,-79.76"/>
<polygon fill="#63b8ff" stroke="#63b8ff" points="174.18,-76.84 163.92,-74.17 170.28,-82.65 174.18,-76.84"/>
</a>
</g>
</g>
<!-- Node8 -->
<g id="Node000008" class="node">
<title>Node8</title>
<g id="a_Node000008"><a xlink:title=" ">
<polygon fill="#e0e0e0" stroke="#999999" points="272,-74 214,-74 214,-55 272,-55 272,-74"/>
<text text-anchor="middle" x="243" y="-62" font-family="Helvetica,sans-Serif" font-size="10.00">memory</text>
</a>
</g>
</g>
<!-- Node7&#45;&gt;Node8 -->
<g id="edge9_Node000007_Node000008" class="edge">
<title>Node7&#45;&gt;Node8</title>
<g id="a_edge9_Node000007_Node000008"><a xlink:title=" ">
<path fill="none" stroke="#63b8ff" d="M232.15,-109.75C233.87,-102.72 236.35,-92.62 238.5,-83.84"/>
<polygon fill="#63b8ff" stroke="#63b8ff" points="241.91,-84.63 240.89,-74.09 235.11,-82.97 241.91,-84.63"/>
</a>
</g>
</g>
</g>
</svg>
