<?xml version="1.0" encoding="UTF-8" standalone="no"?>
<!DOCTYPE svg PUBLIC "-//W3C//DTD SVG 1.1//EN"
 "http://www.w3.org/Graphics/SVG/1.1/DTD/svg11.dtd">
<!-- Generated by graphviz version 2.43.0 (0)
 -->
<!-- Title: include/helios/input/GamepadState.ixx Pages: 1 -->
<svg width="554pt" height="203pt"
 viewBox="0.00 0.00 554.00 203.00" xmlns="http://www.w3.org/2000/svg" xmlns:xlink="http://www.w3.org/1999/xlink">
<g id="graph0" class="graph" transform="scale(1 1) rotate(0) translate(4 199)">
<title>include/helios/input/GamepadState.ixx</title>
<!-- Node1 -->
<g id="Node000001" class="node">
<title>Node1</title>
<g id="a_Node000001"><a xlink:title=" ">
<polygon fill="#999999" stroke="#666666" points="351,-195 239,-195 239,-165 351,-165 351,-195"/>
<text text-anchor="start" x="247" y="-183" font-family="Helvetica,sans-Serif" font-size="10.00">include/helios/input</text>
<text text-anchor="middle" x="295" y="-172" font-family="Helvetica,sans-Serif" font-size="10.00">/GamepadState.ixx</text>
</a>
</g>
</g>
<!-- Node2 -->
<g id="Node000002" class="node">
<title>Node2</title>
<g id="a_Node000002"><a xlink:title=" ">
<polygon fill="#e0e0e0" stroke="#999999" points="64,-129 0,-129 0,-110 64,-110 64,-129"/>
<text text-anchor="middle" x="32" y="-117" font-family="Helvetica,sans-Serif" font-size="10.00">algorithm</text>
</a>
</g>
</g>
<!-- Node1&#45;&gt;Node2 -->
<g id="edge1_Node000001_Node000002" class="edge">
<title>Node1&#45;&gt;Node2</title>
<g id="a_edge1_Node000001_Node000002"><a xlink:title=" ">
<path fill="none" stroke="#63b8ff" d="M238.9,-166.52C189.5,-155.53 118.65,-139.77 73.99,-129.84"/>
<polygon fill="#63b8ff" stroke="#63b8ff" points="74.58,-126.39 64.06,-127.63 73.06,-133.22 74.58,-126.39"/>
</a>
</g>
</g>
<!-- Node3 -->
<g id="Node000003" class="node">
<title>Node3</title>
<g id="a_Node000003"><a xlink:title=" ">
<polygon fill="#e0e0e0" stroke="#999999" points="204,-129 82,-129 82,-110 204,-110 204,-129"/>
<text text-anchor="middle" x="143" y="-117" font-family="Helvetica,sans-Serif" font-size="10.00">helios/helios_config.h</text>
</a>
</g>
</g>
<!-- Node1&#45;&gt;Node3 -->
<g id="edge2_Node000001_Node000003" class="edge">
<title>Node1&#45;&gt;Node3</title>
<g id="a_edge2_Node000001_Node000003"><a xlink:title=" ">
<path fill="none" stroke="#63b8ff" d="M258.59,-164.99C233.12,-155.18 199.41,-142.21 174.97,-132.81"/>
<polygon fill="#63b8ff" stroke="#63b8ff" points="176.04,-129.46 165.45,-129.14 173.52,-136 176.04,-129.46"/>
</a>
</g>
</g>
<!-- Node4 -->
<g id="Node000004" class="node">
<title>Node4</title>
<g id="a_Node000004"><a xlink:href="LogManager_8ixx.html" target="_top" xlink:title=" ">
<polygon fill="white" stroke="#666666" points="368,-129 222,-129 222,-110 368,-110 368,-129"/>
<text text-anchor="middle" x="295" y="-117" font-family="Helvetica,sans-Serif" font-size="10.00">helios.util.log.LogManager</text>
</a>
</g>
</g>
<!-- Node1&#45;&gt;Node4 -->
<g id="edge3_Node000001_Node000004" class="edge">
<title>Node1&#45;&gt;Node4</title>
<g id="a_edge3_Node000001_Node000004"><a xlink:title=" ">
<path fill="none" stroke="#63b8ff" d="M295,-164.84C295,-157.21 295,-147.7 295,-139.45"/>
<polygon fill="#63b8ff" stroke="#63b8ff" points="298.5,-139.27 295,-129.27 291.5,-139.27 298.5,-139.27"/>
</a>
</g>
</g>
<!-- Node9 -->
<g id="Node000009" class="node">
<title>Node9</title>
<g id="a_Node000009"><a xlink:href="Logger_8ixx.html" target="_top" xlink:title=" ">
<polygon fill="white" stroke="#666666" points="491.5,-74 372.5,-74 372.5,-55 491.5,-55 491.5,-74"/>
<text text-anchor="middle" x="432" y="-62" font-family="Helvetica,sans-Serif" font-size="10.00">helios.util.log.Logger</text>
</a>
</g>
</g>
<!-- Node1&#45;&gt;Node9 -->
<g id="edge11_Node000001_Node000009" class="edge">
<title>Node1&#45;&gt;Node9</title>
<g id="a_edge11_Node000001_Node000009"><a xlink:title=" ">
<path fill="none" stroke="#63b8ff" d="M322.63,-164.97C339.24,-155.87 360.33,-143.11 377,-129 393.62,-114.93 409.56,-95.68 419.96,-82.07"/>
<polygon fill="#63b8ff" stroke="#63b8ff" points="422.77,-84.16 425.95,-74.05 417.16,-79.97 422.77,-84.16"/>
</a>
</g>
</g>
<!-- Node11 -->
<g id="Node000011" class="node">
<title>Node11</title>
<g id="a_Node000011"><a xlink:href="math_2types_2__module_8ixx.html" target="_top" xlink:title=" ">
<polygon fill="white" stroke="#666666" points="528,-129 424,-129 424,-110 528,-110 528,-129"/>
<text text-anchor="middle" x="476" y="-117" font-family="Helvetica,sans-Serif" font-size="10.00">helios.math.types</text>
</a>
</g>
</g>
<!-- Node1&#45;&gt;Node11 -->
<g id="edge12_Node000001_Node000011" class="edge">
<title>Node1&#45;&gt;Node11</title>
<g id="a_edge12_Node000001_Node000011"><a xlink:title=" ">
<path fill="none" stroke="#63b8ff" d="M338.35,-164.99C369.32,-154.98 410.5,-141.67 439.73,-132.22"/>
<polygon fill="#63b8ff" stroke="#63b8ff" points="441.1,-135.46 449.53,-129.05 438.94,-128.8 441.1,-135.46"/>
</a>
</g>
</g>
<!-- Node5 -->
<g id="Node000005" class="node">
<title>Node5</title>
<g id="a_Node000005"><a xlink:title=" ">
<polygon fill="#e0e0e0" stroke="#999999" points="248,-19 204,-19 204,0 248,0 248,-19"/>
<text text-anchor="middle" x="226" y="-7" font-family="Helvetica,sans-Serif" font-size="10.00">string</text>
</a>
</g>
</g>
<!-- Node4&#45;&gt;Node5 -->
<g id="edge4_Node000004_Node000005" class="edge">
<title>Node4&#45;&gt;Node5</title>
<g id="a_edge4_Node000004_Node000005"><a xlink:title=" ">
<path fill="none" stroke="#63b8ff" d="M221.81,-110.19C176.38,-103.35 124.06,-91.84 110,-74 84.6,-41.76 151.23,-23.59 193.76,-15.55"/>
<polygon fill="#63b8ff" stroke="#63b8ff" points="194.49,-18.97 203.72,-13.77 193.26,-12.08 194.49,-18.97"/>
</a>
</g>
</g>
<!-- Node6 -->
<g id="Node000006" class="node">
<title>Node6</title>
<g id="a_Node000006"><a xlink:title=" ">
<polygon fill="#e0e0e0" stroke="#999999" points="211.5,-74 118.5,-74 118.5,-55 211.5,-55 211.5,-74"/>
<text text-anchor="middle" x="165" y="-62" font-family="Helvetica,sans-Serif" font-size="10.00">unordered_map</text>
</a>
</g>
</g>
<!-- Node4&#45;&gt;Node6 -->
<g id="edge5_Node000004_Node000006" class="edge">
<title>Node4&#45;&gt;Node6</title>
<g id="a_edge5_Node000004_Node000006"><a xlink:title=" ">
<path fill="none" stroke="#63b8ff" d="M274.11,-109.98C252.92,-101.34 219.87,-87.87 195.7,-78.02"/>
<polygon fill="#63b8ff" stroke="#63b8ff" points="196.85,-74.7 186.27,-74.17 194.21,-81.19 196.85,-74.7"/>
</a>
</g>
</g>
<!-- Node7 -->
<g id="Node000007" class="node">
<title>Node7</title>
<g id="a_Node000007"><a xlink:title=" ">
<polygon fill="#e0e0e0" stroke="#999999" points="288,-74 230,-74 230,-55 288,-55 288,-74"/>
<text text-anchor="middle" x="259" y="-62" font-family="Helvetica,sans-Serif" font-size="10.00">memory</text>
</a>
</g>
</g>
<!-- Node4&#45;&gt;Node7 -->
<g id="edge6_Node000004_Node000007" class="edge">
<title>Node4&#45;&gt;Node7</title>
<g id="a_edge6_Node000004_Node000007"><a xlink:title=" ">
<path fill="none" stroke="#63b8ff" d="M289.06,-109.75C284.02,-102.34 276.66,-91.5 270.49,-82.41"/>
<polygon fill="#63b8ff" stroke="#63b8ff" points="273.35,-80.39 264.83,-74.09 267.56,-84.33 273.35,-80.39"/>
</a>
</g>
</g>
<!-- Node8 -->
<g id="Node000008" class="node">
<title>Node8</title>
<g id="a_Node000008"><a xlink:title=" ">
<polygon fill="#e0e0e0" stroke="#999999" points="354,-74 306,-74 306,-55 354,-55 354,-74"/>
<text text-anchor="middle" x="330" y="-62" font-family="Helvetica,sans-Serif" font-size="10.00">mutex</text>
</a>
</g>
</g>
<!-- Node4&#45;&gt;Node8 -->
<g id="edge7_Node000004_Node000008" class="edge">
<title>Node4&#45;&gt;Node8</title>
<g id="a_edge7_Node000004_Node000008"><a xlink:title=" ">
<path fill="none" stroke="#63b8ff" d="M300.78,-109.75C305.62,-102.42 312.68,-91.73 318.64,-82.7"/>
<polygon fill="#63b8ff" stroke="#63b8ff" points="321.74,-84.36 324.33,-74.09 315.9,-80.5 321.74,-84.36"/>
</a>
</g>
</g>
<!-- Node4&#45;&gt;Node9 -->
<g id="edge8_Node000004_Node000009" class="edge">
<title>Node4&#45;&gt;Node9</title>
<g id="a_edge8_Node000004_Node000009"><a xlink:title=" ">
<path fill="none" stroke="#63b8ff" d="M317.01,-109.98C339.45,-101.3 374.48,-87.75 399.99,-77.88"/>
<polygon fill="#63b8ff" stroke="#63b8ff" points="401.52,-81.04 409.59,-74.17 399,-74.51 401.52,-81.04"/>
</a>
</g>
</g>
<!-- Node9&#45;&gt;Node5 -->
<g id="edge10_Node000009_Node000005" class="edge">
<title>Node9&#45;&gt;Node5</title>
<g id="a_edge10_Node000009_Node000005"><a xlink:title=" ">
<path fill="none" stroke="#63b8ff" d="M398.9,-54.98C360.23,-45.03 296.66,-28.68 258.33,-18.82"/>
<polygon fill="#63b8ff" stroke="#63b8ff" points="258.78,-15.32 248.22,-16.22 257.04,-22.1 258.78,-15.32"/>
</a>
</g>
</g>
<!-- Node10 -->
<g id="Node000010" class="node">
<title>Node10</title>
<g id="a_Node000010"><a xlink:title=" ">
<polygon fill="#e0e0e0" stroke="#999999" points="462,-19 402,-19 402,0 462,0 462,-19"/>
<text text-anchor="middle" x="432" y="-7" font-family="Helvetica,sans-Serif" font-size="10.00">iostream</text>
</a>
</g>
</g>
<!-- Node9&#45;&gt;Node10 -->
<g id="edge9_Node000009_Node000010" class="edge">
<title>Node9&#45;&gt;Node10</title>
<g id="a_edge9_Node000009_Node000010"><a xlink:title=" ">
<path fill="none" stroke="#63b8ff" d="M432,-54.75C432,-47.8 432,-37.85 432,-29.13"/>
<polygon fill="#63b8ff" stroke="#63b8ff" points="435.5,-29.09 432,-19.09 428.5,-29.09 435.5,-29.09"/>
</a>
</g>
</g>
<!-- Node11&#45;&gt;Node11 -->
<g id="edge13_Node000011_Node000011" class="edge">
<title>Node11&#45;&gt;Node11</title>
<g id="a_edge13_Node000011_Node000011"><a xlink:title=" ">
<path fill="none" stroke="#63b8ff" d="M508.77,-129.03C528,-131.06 546,-127.88 546,-119.5 546,-112.62 533.89,-109.25 518.92,-109.38"/>
<polygon fill="#63b8ff" stroke="#63b8ff" points="518.55,-105.89 508.77,-109.97 518.95,-112.88 518.55,-105.89"/>
</a>
</g>
</g>
</g>
</svg>
