<?xml version="1.0" encoding="UTF-8" standalone="no"?>
<!DOCTYPE svg PUBLIC "-//W3C//DTD SVG 1.1//EN"
 "http://www.w3.org/Graphics/SVG/1.1/DTD/svg11.dtd">
<!-- Generated by graphviz version 2.43.0 (0)
 -->
<!-- Title: include/ext/glfw/window/GLFWWindowConfig.ixx Pages: 1 -->
<svg width="305pt" height="149pt"
 viewBox="0.00 0.00 304.50 148.69" xmlns="http://www.w3.org/2000/svg" xmlns:xlink="http://www.w3.org/1999/xlink">

<svg id="main" version="1.1" xmlns="http://www.w3.org/2000/svg" xmlns:xlink="http://www.w3.org/1999/xlink" xml:space="preserve">

<style type="text/css"><![CDATA[
.node, .edge {opacity: 0.7;}
.node.selected, .edge.selected {opacity: 1;}
.edge:hover path { stroke: red; }
.edge:hover polygon { stroke: red; fill: red; }
]]></style>
<script type="application/ecmascript" xlink:href="svg.min.js"/>
<svg id="graph" class="graph">
<g id="graph0" class="graph" transform="scale(1 1) rotate(0) translate(4 144.69)">
<title>include/ext/glfw/window/GLFWWindowConfig.ixx</title>
<!-- Node1 -->
<g id="Node000001" class="node">
<title>Node1</title>
<g id="a_Node000001"><a xlink:title="GLFW&#45;specific window configuration structures.">
<polygon fill="#999999" stroke="#666666" points="178.5,-140.69 42.5,-140.69 42.5,-110.69 178.5,-110.69 178.5,-140.69"/>
<text text-anchor="start" x="50.5" y="-128.69" font-family="Helvetica,sans-Serif" font-size="10.00">include/ext/glfw/window</text>
<text text-anchor="middle" x="110.5" y="-117.69" font-family="Helvetica,sans-Serif" font-size="10.00">/GLFWWindowConfig.ixx</text>
</a>
</g>
</g>
<!-- Node2 -->
<g id="Node000002" class="node">
<title>Node2</title>
<g id="a_Node000002"><a xlink:title=" ">
<polygon fill="#e0e0e0" stroke="#999999" points="83,-74.69 0,-74.69 0,-55.69 83,-55.69 83,-74.69"/>
<text text-anchor="middle" x="41.5" y="-62.69" font-family="Helvetica,sans-Serif" font-size="10.00">GLFW/glfw3.h</text>
</a>
</g>
</g>
<!-- Node1&#45;&gt;Node2 -->
<g id="edge1_Node000001_Node000002" class="edge">
<title>Node1&#45;&gt;Node2</title>
<g id="a_edge1_Node000001_Node000002"><a xlink:title=" ">
<path fill="none" stroke="#63b8ff" d="M93.8,-110.53C83.47,-101.77 70.22,-90.54 59.64,-81.57"/>
<polygon fill="#63b8ff" stroke="#63b8ff" points="61.73,-78.75 51.84,-74.95 57.2,-84.09 61.73,-78.75"/>
</a>
</g>
</g>
<!-- Node3 -->
<g id="Node000003" class="node">
<title>Node3</title>
<g id="a_Node000003"><a xlink:href="WindowConfig_8ixx.html" target="_top" xlink:title="Window creation and initialization configuration.">
<polygon fill="white" stroke="#666666" points="259.5,-74.69 101.5,-74.69 101.5,-55.69 259.5,-55.69 259.5,-74.69"/>
<text text-anchor="middle" x="180.5" y="-62.69" font-family="Helvetica,sans-Serif" font-size="10.00">helios.window.WindowConfig</text>
</a>
</g>
</g>
<!-- Node1&#45;&gt;Node3 -->
<g id="edge2_Node000001_Node000003" class="edge">
<title>Node1&#45;&gt;Node3</title>
<g id="a_edge2_Node000001_Node000003"><a xlink:title=" ">
<path fill="none" stroke="#63b8ff" d="M127.45,-110.53C137.92,-101.77 151.36,-90.54 162.09,-81.57"/>
<polygon fill="#63b8ff" stroke="#63b8ff" points="164.58,-84.05 170.01,-74.95 160.09,-78.68 164.58,-84.05"/>
</a>
</g>
</g>
<!-- Node4 -->
<g id="Node000004" class="node">
<title>Node4</title>
<g id="a_Node000004"><a xlink:title=" ">
<polygon fill="#e0e0e0" stroke="#999999" points="156.5,-19.69 112.5,-19.69 112.5,-0.69 156.5,-0.69 156.5,-19.69"/>
<text text-anchor="middle" x="134.5" y="-7.69" font-family="Helvetica,sans-Serif" font-size="10.00">string</text>
</a>
</g>
</g>
<!-- Node3&#45;&gt;Node4 -->
<g id="edge3_Node000003_Node000004" class="edge">
<title>Node3&#45;&gt;Node4</title>
<g id="a_edge3_Node000003_Node000004"><a xlink:title=" ">
<path fill="none" stroke="#63b8ff" d="M172.9,-55.43C166.34,-47.87 156.68,-36.74 148.69,-27.53"/>
<polygon fill="#63b8ff" stroke="#63b8ff" points="151.15,-25.03 141.95,-19.78 145.87,-29.62 151.15,-25.03"/>
</a>
</g>
</g>
<!-- Node5 -->
<g id="Node000005" class="node">
<title>Node5</title>
<g id="a_Node000005"><a xlink:href="helios_2math_2types_2__module_8ixx.html" target="_top" xlink:title="Module exports for vector and matrix type definitions.">
<polygon fill="white" stroke="#666666" points="278.5,-19.69 174.5,-19.69 174.5,-0.69 278.5,-0.69 278.5,-19.69"/>
<text text-anchor="middle" x="226.5" y="-7.69" font-family="Helvetica,sans-Serif" font-size="10.00">helios.math.types</text>
</a>
</g>
</g>
<!-- Node3&#45;&gt;Node5 -->
<g id="edge4_Node000003_Node000005" class="edge">
<title>Node3&#45;&gt;Node5</title>
<g id="a_edge4_Node000003_Node000005"><a xlink:title=" ">
<path fill="none" stroke="#63b8ff" d="M188.1,-55.43C194.66,-47.87 204.32,-36.74 212.31,-27.53"/>
<polygon fill="#63b8ff" stroke="#63b8ff" points="215.13,-29.62 219.05,-19.78 209.85,-25.03 215.13,-29.62"/>
</a>
</g>
</g>
<!-- Node5&#45;&gt;Node5 -->
<g id="edge5_Node000005_Node000005" class="edge">
<title>Node5&#45;&gt;Node5</title>
<g id="a_edge5_Node000005_Node000005"><a xlink:title=" ">
<path fill="none" stroke="#63b8ff" d="M259.27,-19.72C278.5,-21.75 296.5,-18.57 296.5,-10.19 296.5,-3.31 284.39,0.07 269.42,-0.07"/>
<polygon fill="#63b8ff" stroke="#63b8ff" points="269.05,3.42 259.27,-0.66 269.45,-3.57 269.05,3.42"/>
</a>
</g>
</g>
</g>
</svg>
</svg>

<style type='text/css'>
<![CDATA[
[data-mouse-over-selected='false'] { opacity: 0.7; }
[data-mouse-over-selected='true']  { opacity: 1.0; }
]]>
</style>
<script type="application/ecmascript"><![CDATA[
document.addEventListener('DOMContentLoaded', (event) => {
  highlightEdges();
  highlightAdjacentNodes();
});
]]></script>
</svg>
