<?xml version="1.0" encoding="UTF-8" standalone="no"?>
<!DOCTYPE svg PUBLIC "-//W3C//DTD SVG 1.1//EN"
 "http://www.w3.org/Graphics/SVG/1.1/DTD/svg11.dtd">
<!-- Generated by graphviz version 2.43.0 (0)
 -->
<!-- Title: include/ext/glfw/input/GLFWGamepadLookup.ixx Pages: 1 -->
<svg width="372pt" height="93pt"
 viewBox="0.00 0.00 371.50 93.00" xmlns="http://www.w3.org/2000/svg" xmlns:xlink="http://www.w3.org/1999/xlink">
<g id="graph0" class="graph" transform="scale(1 1) rotate(0) translate(4 89)">
<title>include/ext/glfw/input/GLFWGamepadLookup.ixx</title>
<!-- Node1 -->
<g id="Node000001" class="node">
<title>Node1</title>
<g id="a_Node000001"><a xlink:title="GLFW gamepad mapping helpers.">
<polygon fill="#999999" stroke="#666666" points="223.5,-85 75.5,-85 75.5,-55 223.5,-55 223.5,-85"/>
<text text-anchor="start" x="83.5" y="-73" font-family="Helvetica,sans-Serif" font-size="10.00">include/ext/glfw/input</text>
<text text-anchor="middle" x="149.5" y="-62" font-family="Helvetica,sans-Serif" font-size="10.00">/GLFWGamepadLookup.ixx</text>
</a>
</g>
</g>
<!-- Node2 -->
<g id="Node000002" class="node">
<title>Node2</title>
<g id="a_Node000002"><a xlink:title=" ">
<polygon fill="#e0e0e0" stroke="#999999" points="83,-19 0,-19 0,0 83,0 83,-19"/>
<text text-anchor="middle" x="41.5" y="-7" font-family="Helvetica,sans-Serif" font-size="10.00">GLFW/glfw3.h</text>
</a>
</g>
</g>
<!-- Node1&#45;&gt;Node2 -->
<g id="edge1_Node000001_Node000002" class="edge">
<title>Node1&#45;&gt;Node2</title>
<g id="a_edge1_Node000001_Node000002"><a xlink:title=" ">
<path fill="none" stroke="#63b8ff" d="M123.63,-54.99C106.26,-45.58 83.49,-33.24 66.33,-23.95"/>
<polygon fill="#63b8ff" stroke="#63b8ff" points="67.91,-20.82 57.45,-19.14 64.58,-26.98 67.91,-20.82"/>
</a>
</g>
</g>
<!-- Node3 -->
<g id="Node000003" class="node">
<title>Node3</title>
<g id="a_Node000003"><a xlink:title=" ">
<polygon fill="#e0e0e0" stroke="#999999" points="143.5,-19 101.5,-19 101.5,0 143.5,0 143.5,-19"/>
<text text-anchor="middle" x="122.5" y="-7" font-family="Helvetica,sans-Serif" font-size="10.00">array</text>
</a>
</g>
</g>
<!-- Node1&#45;&gt;Node3 -->
<g id="edge2_Node000001_Node000003" class="edge">
<title>Node1&#45;&gt;Node3</title>
<g id="a_edge2_Node000001_Node000003"><a xlink:title=" ">
<path fill="none" stroke="#63b8ff" d="M142.96,-54.84C139.32,-46.95 134.76,-37.05 130.86,-28.61"/>
<polygon fill="#63b8ff" stroke="#63b8ff" points="133.91,-26.88 126.55,-19.27 127.56,-29.81 133.91,-26.88"/>
</a>
</g>
</g>
<!-- Node4 -->
<g id="Node000004" class="node">
<title>Node4</title>
<g id="a_Node000004"><a xlink:title=" ">
<polygon fill="#e0e0e0" stroke="#999999" points="191,-19 162,-19 162,0 191,0 191,-19"/>
<text text-anchor="middle" x="176.5" y="-7" font-family="Helvetica,sans-Serif" font-size="10.00">bit</text>
</a>
</g>
</g>
<!-- Node1&#45;&gt;Node4 -->
<g id="edge3_Node000001_Node000004" class="edge">
<title>Node1&#45;&gt;Node4</title>
<g id="a_edge3_Node000001_Node000004"><a xlink:title=" ">
<path fill="none" stroke="#63b8ff" d="M156.04,-54.84C159.68,-46.95 164.24,-37.05 168.14,-28.61"/>
<polygon fill="#63b8ff" stroke="#63b8ff" points="171.44,-29.81 172.45,-19.27 165.09,-26.88 171.44,-29.81"/>
</a>
</g>
</g>
<!-- Node5 -->
<g id="Node000005" class="node">
<title>Node5</title>
<g id="a_Node000005"><a xlink:href="Gamepad_8ixx.html" target="_top" xlink:title="Identifiers for supported gamepads.">
<polygon fill="white" stroke="#666666" points="363.5,-19 209.5,-19 209.5,0 363.5,0 363.5,-19"/>
<text text-anchor="middle" x="286.5" y="-7" font-family="Helvetica,sans-Serif" font-size="10.00">helios.input.types.Gamepad</text>
</a>
</g>
</g>
<!-- Node1&#45;&gt;Node5 -->
<g id="edge4_Node000001_Node000005" class="edge">
<title>Node1&#45;&gt;Node5</title>
<g id="a_edge4_Node000001_Node000005"><a xlink:title=" ">
<path fill="none" stroke="#63b8ff" d="M182.31,-54.99C204.97,-45.31 234.85,-32.56 256.8,-23.18"/>
<polygon fill="#63b8ff" stroke="#63b8ff" points="258.45,-26.29 266.27,-19.14 255.7,-19.85 258.45,-26.29"/>
</a>
</g>
</g>
</g>
</svg>
