<?xml version="1.0" encoding="UTF-8" standalone="no"?>
<!DOCTYPE svg PUBLIC "-//W3C//DTD SVG 1.1//EN"
 "http://www.w3.org/Graphics/SVG/1.1/DTD/svg11.dtd">
<!-- Generated by graphviz version 2.43.0 (0)
 -->
<!-- Title: include/helios/rendering/asset/shape/basic/Grid.ixx Pages: 1 -->
<svg width="513pt" height="227pt"
 viewBox="0.00 0.00 512.50 227.17" xmlns="http://www.w3.org/2000/svg" xmlns:xlink="http://www.w3.org/1999/xlink">
<g id="graph0" class="graph" transform="scale(1 1) rotate(0) translate(4 223.17)">
<title>include/helios/rendering/asset/shape/basic/Grid.ixx</title>
<!-- Node1 -->
<g id="Node000001" class="node">
<title>Node1</title>
<g id="a_Node000001"><a xlink:title="Basic grid shape for rendering.">
<polygon fill="#999999" stroke="#666666" points="286.5,-219.17 138.5,-219.17 138.5,-189.17 286.5,-189.17 286.5,-219.17"/>
<text text-anchor="start" x="146.5" y="-207.17" font-family="Helvetica,sans-Serif" font-size="10.00">include/helios/rendering</text>
<text text-anchor="middle" x="212.5" y="-196.17" font-family="Helvetica,sans-Serif" font-size="10.00">/asset/shape/basic/Grid.ixx</text>
</a>
</g>
</g>
<!-- Node2 -->
<g id="Node000002" class="node">
<title>Node2</title>
<g id="a_Node000002"><a xlink:title=" ">
<polygon fill="#e0e0e0" stroke="#999999" points="92,-147.67 27,-147.67 27,-128.67 92,-128.67 92,-147.67"/>
<text text-anchor="middle" x="59.5" y="-135.67" font-family="Helvetica,sans-Serif" font-size="10.00">stdexcept</text>
</a>
</g>
</g>
<!-- Node1&#45;&gt;Node2 -->
<g id="edge1_Node000001_Node000002" class="edge">
<title>Node1&#45;&gt;Node2</title>
<g id="a_edge1_Node000001_Node000002"><a xlink:title=" ">
<path fill="none" stroke="#63b8ff" d="M178.92,-189.13C152.09,-177.91 114.84,-162.32 89.11,-151.56"/>
<polygon fill="#63b8ff" stroke="#63b8ff" points="90.44,-148.32 79.86,-147.69 87.74,-154.78 90.44,-148.32"/>
</a>
</g>
</g>
<!-- Node3 -->
<g id="Node000003" class="node">
<title>Node3</title>
<g id="a_Node000003"><a xlink:title=" ">
<polygon fill="#e0e0e0" stroke="#999999" points="47,-81.67 0,-81.67 0,-62.67 47,-62.67 47,-81.67"/>
<text text-anchor="middle" x="23.5" y="-69.67" font-family="Helvetica,sans-Serif" font-size="10.00">vector</text>
</a>
</g>
</g>
<!-- Node1&#45;&gt;Node3 -->
<g id="edge2_Node000001_Node000003" class="edge">
<title>Node1&#45;&gt;Node3</title>
<g id="a_edge2_Node000001_Node000003"><a xlink:title=" ">
<path fill="none" stroke="#63b8ff" d="M193.26,-189.04C171.09,-172.84 133.48,-145.64 100.5,-123.17 82.39,-110.84 61.53,-97.33 46.09,-87.47"/>
<polygon fill="#63b8ff" stroke="#63b8ff" points="47.57,-84.26 37.25,-81.84 43.81,-90.17 47.57,-84.26"/>
</a>
</g>
</g>
<!-- Node4 -->
<g id="Node000004" class="node">
<title>Node4</title>
<g id="a_Node000004"><a xlink:href="PrimitiveType_8ixx.html" target="_top" xlink:title="Enum of primitive types for mesh rendering.">
<polygon fill="white" stroke="#666666" points="229.5,-87.17 65.5,-87.17 65.5,-57.17 229.5,-57.17 229.5,-87.17"/>
<text text-anchor="start" x="73.5" y="-75.17" font-family="Helvetica,sans-Serif" font-size="10.00">helios.rendering.model.config.</text>
<text text-anchor="middle" x="147.5" y="-64.17" font-family="Helvetica,sans-Serif" font-size="10.00">PrimitiveType</text>
</a>
</g>
</g>
<!-- Node1&#45;&gt;Node4 -->
<g id="edge3_Node000001_Node000004" class="edge">
<title>Node1&#45;&gt;Node4</title>
<g id="a_edge3_Node000001_Node000004"><a xlink:title=" ">
<path fill="none" stroke="#63b8ff" d="M201.06,-188.92C193.67,-179.24 184.22,-165.92 177.5,-153.17 167.97,-135.09 160.01,-113.29 154.69,-97.02"/>
<polygon fill="#63b8ff" stroke="#63b8ff" points="157.94,-95.69 151.58,-87.22 151.27,-97.81 157.94,-95.69"/>
</a>
</g>
</g>
<!-- Node5 -->
<g id="Node000005" class="node">
<title>Node5</title>
<g id="a_Node000005"><a xlink:href="helios_2math_2types_2__module_8ixx.html" target="_top" xlink:title="Module exports for vector and matrix type definitions.">
<polygon fill="white" stroke="#666666" points="486.5,-21.17 382.5,-21.17 382.5,-2.17 486.5,-2.17 486.5,-21.17"/>
<text text-anchor="middle" x="434.5" y="-9.17" font-family="Helvetica,sans-Serif" font-size="10.00">helios.math.types</text>
</a>
</g>
</g>
<!-- Node1&#45;&gt;Node5 -->
<g id="edge4_Node000001_Node000005" class="edge">
<title>Node1&#45;&gt;Node5</title>
<g id="a_edge4_Node000001_Node000005"><a xlink:title=" ">
<path fill="none" stroke="#63b8ff" d="M286.5,-193.85C348.15,-181.48 430.79,-152.89 462.5,-87.17 471.73,-68.03 459.76,-45 448.74,-29.66"/>
<polygon fill="#63b8ff" stroke="#63b8ff" points="451.4,-27.38 442.52,-21.61 445.86,-31.66 451.4,-27.38"/>
</a>
</g>
</g>
<!-- Node6 -->
<g id="Node000006" class="node">
<title>Node6</title>
<g id="a_Node000006"><a xlink:href="Vertex_8ixx.html" target="_top" xlink:title="Vertex description and utilities for rendering.">
<polygon fill="white" stroke="#666666" points="453.5,-81.67 323.5,-81.67 323.5,-62.67 453.5,-62.67 453.5,-81.67"/>
<text text-anchor="middle" x="388.5" y="-69.67" font-family="Helvetica,sans-Serif" font-size="10.00">helios.rendering.Vertex</text>
</a>
</g>
</g>
<!-- Node1&#45;&gt;Node6 -->
<g id="edge6_Node000001_Node000006" class="edge">
<title>Node1&#45;&gt;Node6</title>
<g id="a_edge6_Node000001_Node000006"><a xlink:title=" ">
<path fill="none" stroke="#63b8ff" d="M286.55,-190.02C310.92,-182.61 336.59,-171.07 355.5,-153.17 372.85,-136.75 381.38,-109.87 385.35,-91.85"/>
<polygon fill="#63b8ff" stroke="#63b8ff" points="388.8,-92.44 387.27,-81.96 381.93,-91.11 388.8,-92.44"/>
</a>
</g>
</g>
<!-- Node7 -->
<g id="Node000007" class="node">
<title>Node7</title>
<g id="a_Node000007"><a xlink:href="Shape_8ixx.html" target="_top" xlink:title="Interface for simple geometric shapes used for testing and debugging.">
<polygon fill="white" stroke="#666666" points="346.5,-153.17 186.5,-153.17 186.5,-123.17 346.5,-123.17 346.5,-153.17"/>
<text text-anchor="start" x="194.5" y="-141.17" font-family="Helvetica,sans-Serif" font-size="10.00">helios.rendering.asset.shape.</text>
<text text-anchor="middle" x="266.5" y="-130.17" font-family="Helvetica,sans-Serif" font-size="10.00">Shape</text>
</a>
</g>
</g>
<!-- Node1&#45;&gt;Node7 -->
<g id="edge8_Node000001_Node000007" class="edge">
<title>Node1&#45;&gt;Node7</title>
<g id="a_edge8_Node000001_Node000007"><a xlink:title=" ">
<path fill="none" stroke="#63b8ff" d="M224.48,-188.97C231.41,-180.77 240.26,-170.28 248.05,-161.04"/>
<polygon fill="#63b8ff" stroke="#63b8ff" points="250.78,-163.24 254.55,-153.34 245.43,-158.72 250.78,-163.24"/>
</a>
</g>
</g>
<!-- Node5&#45;&gt;Node5 -->
<g id="edge5_Node000005_Node000005" class="edge">
<title>Node5&#45;&gt;Node5</title>
<g id="a_edge5_Node000005_Node000005"><a xlink:title=" ">
<path fill="none" stroke="#63b8ff" d="M460.35,-21.21C481.94,-25.28 504.5,-22.1 504.5,-11.67 504.5,-2.87 488.44,0.76 470.45,-0.76"/>
<polygon fill="#63b8ff" stroke="#63b8ff" points="469.78,2.68 460.35,-2.14 470.73,-4.26 469.78,2.68"/>
</a>
</g>
</g>
<!-- Node6&#45;&gt;Node5 -->
<g id="edge7_Node000006_Node000005" class="edge">
<title>Node6&#45;&gt;Node5</title>
<g id="a_edge7_Node000006_Node000005"><a xlink:title=" ">
<path fill="none" stroke="#63b8ff" d="M395.29,-62.54C402.15,-53.82 412.93,-40.11 421.45,-29.27"/>
<polygon fill="#63b8ff" stroke="#63b8ff" points="424.25,-31.37 427.68,-21.34 418.75,-27.04 424.25,-31.37"/>
</a>
</g>
</g>
<!-- Node7&#45;&gt;Node3 -->
<g id="edge10_Node000007_Node000003" class="edge">
<title>Node7&#45;&gt;Node3</title>
<g id="a_edge10_Node000007_Node000003"><a xlink:title=" ">
<path fill="none" stroke="#63b8ff" d="M194.23,-123.1C153.34,-114.36 101.54,-101.97 56.5,-87.17 54.87,-86.64 53.22,-86.06 51.55,-85.45"/>
<polygon fill="#63b8ff" stroke="#63b8ff" points="52.73,-82.15 42.14,-81.72 50.15,-88.66 52.73,-82.15"/>
</a>
</g>
</g>
<!-- Node7&#45;&gt;Node4 -->
<g id="edge11_Node000007_Node000004" class="edge">
<title>Node7&#45;&gt;Node4</title>
<g id="a_edge11_Node000007_Node000004"><a xlink:title=" ">
<path fill="none" stroke="#63b8ff" d="M240.38,-123.13C223.41,-114 201.08,-101.99 182.57,-92.03"/>
<polygon fill="#63b8ff" stroke="#63b8ff" points="184.02,-88.84 173.55,-87.19 180.7,-95.01 184.02,-88.84"/>
</a>
</g>
</g>
<!-- Node7&#45;&gt;Node6 -->
<g id="edge12_Node000007_Node000006" class="edge">
<title>Node7&#45;&gt;Node6</title>
<g id="a_edge12_Node000007_Node000006"><a xlink:title=" ">
<path fill="none" stroke="#63b8ff" d="M293.27,-123.13C314.1,-112.2 342.81,-97.15 363.24,-86.43"/>
<polygon fill="#63b8ff" stroke="#63b8ff" points="365.03,-89.44 372.26,-81.69 361.78,-83.24 365.03,-89.44"/>
</a>
</g>
</g>
<!-- Node8 -->
<g id="Node000008" class="node">
<title>Node8</title>
<g id="a_Node000008"><a xlink:title=" ">
<polygon fill="#e0e0e0" stroke="#999999" points="305.5,-81.67 247.5,-81.67 247.5,-62.67 305.5,-62.67 305.5,-81.67"/>
<text text-anchor="middle" x="276.5" y="-69.67" font-family="Helvetica,sans-Serif" font-size="10.00">memory</text>
</a>
</g>
</g>
<!-- Node7&#45;&gt;Node8 -->
<g id="edge9_Node000007_Node000008" class="edge">
<title>Node7&#45;&gt;Node8</title>
<g id="a_edge9_Node000007_Node000008"><a xlink:title=" ">
<path fill="none" stroke="#63b8ff" d="M268.72,-122.97C270.14,-113.87 272,-101.96 273.55,-92.07"/>
<polygon fill="#63b8ff" stroke="#63b8ff" points="277.03,-92.44 275.12,-82.02 270.12,-91.36 277.03,-92.44"/>
</a>
</g>
</g>
</g>
</svg>
