<?xml version="1.0" encoding="UTF-8" standalone="no"?>
<!DOCTYPE svg PUBLIC "-//W3C//DTD SVG 1.1//EN"
 "http://www.w3.org/Graphics/SVG/1.1/DTD/svg11.dtd">
<!-- Generated by graphviz version 2.43.0 (0)
 -->
<!-- Title: include/helios/util/_module.ixx Pages: 1 -->
<!--zoomable 445 -->

<svg id="main" version="1.1" xmlns="http://www.w3.org/2000/svg" xmlns:xlink="http://www.w3.org/1999/xlink" xml:space="preserve" onload="init(evt)">

<style type="text/css"><![CDATA[
.node, .edge {opacity: 0.7;}
.node.selected, .edge.selected {opacity: 1;}
.edge:hover path { stroke: red; }
.edge:hover polygon { stroke: red; fill: red; }
]]></style>

<defs>
  <circle id="rim" cx="0" cy="0" r="7"/>
  <circle id="rim2" cx="0" cy="0" r="3.5"/>
  <g id="zoomPlus">
    <use xlink:href="#rim" fill="#404040"><set attributeName="fill" to="#808080" begin="zoomplus.mouseover" end="zoomplus.mouseout"/></use>
    <path d="M-4,0h8M0,-4v8" fill="none" stroke="white" stroke-width="1.5" pointer-events="none"/>
  </g>
  <g id="zoomMin">
    <use xlink:href="#rim" fill="#404040"><set attributeName="fill" to="#808080" begin="zoomminus.mouseover" end="zoomminus.mouseout"/></use>
    <path d="M-4,0h8" fill="none" stroke="white" stroke-width="1.5" pointer-events="none"/>
  </g>
  <g id="arrowUp" transform="translate(30 24)">
    <use xlink:href="#rim"/>
    <path pointer-events="none" fill="none" stroke="white" stroke-width="1.5" d="M0,-3.0v7 M-2.5,-0.5L0,-3.0L2.5,-0.5"/>
  </g>
  <g id="arrowRight" transform="rotate(90) translate(36 -43)">
    <use xlink:href="#rim"/>
    <path pointer-events="none" fill="none" stroke="white" stroke-width="1.5" d="M0,-3.0v7 M-2.5,-0.5L0,-3.0L2.5,-0.5"/>
  </g>
  <g id="arrowDown" transform="rotate(180) translate(-30 -48)">
    <use xlink:href="#rim"/>
    <path pointer-events="none" fill="none" stroke="white" stroke-width="1.5" d="M0,-3.0v7 M-2.5,-0.5L0,-3.0L2.5,-0.5"/>
  </g>
  <g id="arrowLeft" transform="rotate(270) translate(-36 17)">
    <use xlink:href="#rim"/>
    <path pointer-events="none" fill="none" stroke="white" stroke-width="1.5" d="M0,-3.0v7 M-2.5,-0.5L0,-3.0L2.5,-0.5"/>
  </g>
  <g id="resetDef">
    <use xlink:href="#rim2" fill="#404040"><set attributeName="fill" to="#808080" begin="reset.mouseover" end="reset.mouseout"/></use>
  </g>
</defs>
<script type="application/ecmascript">
var viewWidth = 930;
var viewHeight = 445;
var sectionId = 'dynsection-0';
</script>
<script type="application/ecmascript" xlink:href="svg.min.js"/>
<svg id="graph" class="graph">
<g id="viewport">
<title>include/helios/util/_module.ixx</title>
<!-- Node1 -->
<g id="Node000001" class="node">
<title>Node1</title>
<g id="a_Node000001"><a xlink:title="Module exports for non&#45;domain&#45;specific utility functions.">
<polygon fill="#999999" stroke="#666666" points="698.5,-437 595.5,-437 595.5,-407 698.5,-407 698.5,-437"/>
<text text-anchor="start" x="603.5" y="-425" font-family="Helvetica,sans-Serif" font-size="10.00">include/helios/util</text>
<text text-anchor="middle" x="647" y="-414" font-family="Helvetica,sans-Serif" font-size="10.00">/_module.ixx</text>
</a>
</g>
</g>
<!-- Node2 -->
<g id="Node000002" class="node">
<title>Node2</title>
<g id="a_Node000002"><a xlink:href="helios_2util_2io_2__module_8ixx.html" target="_top" xlink:title="Module exports for IO utilities.">
<polygon fill="white" stroke="#666666" points="617.5,-371 540.5,-371 540.5,-352 617.5,-352 617.5,-371"/>
<text text-anchor="middle" x="579" y="-359" font-family="Helvetica,sans-Serif" font-size="10.00">helios.util.io</text>
</a>
</g>
</g>
<!-- Node1&#45;&gt;Node2 -->
<g id="edge1_Node000001_Node000002" class="edge">
<title>Node1&#45;&gt;Node2</title>
<g id="a_edge1_Node000001_Node000002"><a xlink:title=" ">
<path fill="none" stroke="#63b8ff" d="M630.54,-406.84C620.37,-398.09 607.31,-386.85 596.88,-377.88"/>
<polygon fill="#63b8ff" stroke="#63b8ff" points="599.05,-375.13 589.19,-371.27 594.49,-380.44 599.05,-375.13"/>
</a>
</g>
</g>
<!-- Node14 -->
<g id="Node000014" class="node">
<title>Node14</title>
<g id="a_Node000014"><a xlink:href="helios_2util_2log_2__module_8ixx.html" target="_top" xlink:title="Module exports for logging.">
<polygon fill="white" stroke="#666666" points="341.5,-244.5 258.5,-244.5 258.5,-225.5 341.5,-225.5 341.5,-244.5"/>
<text text-anchor="middle" x="300" y="-232.5" font-family="Helvetica,sans-Serif" font-size="10.00">helios.util.log</text>
</a>
</g>
</g>
<!-- Node1&#45;&gt;Node14 -->
<g id="edge23_Node000001_Node000014" class="edge">
<title>Node1&#45;&gt;Node14</title>
<g id="a_edge23_Node000001_Node000014"><a xlink:title=" ">
<path fill="none" stroke="#63b8ff" d="M611.46,-407C588.24,-397.53 557.42,-384.35 531,-371 451.96,-331.06 362.53,-275.73 322.02,-250.09"/>
<polygon fill="#63b8ff" stroke="#63b8ff" points="323.79,-247.07 313.47,-244.66 320.04,-252.98 323.79,-247.07"/>
</a>
</g>
</g>
<!-- Node16 -->
<g id="Node000016" class="node">
<title>Node16</title>
<g id="a_Node000016"><a xlink:href="Colors_8ixx.html" target="_top" xlink:title="Standard color constants as vec4f (RGBA).">
<polygon fill="white" stroke="#666666" points="750,-371 652,-371 652,-352 750,-352 750,-371"/>
<text text-anchor="middle" x="701" y="-359" font-family="Helvetica,sans-Serif" font-size="10.00">helios.util.Colors</text>
</a>
</g>
</g>
<!-- Node1&#45;&gt;Node16 -->
<g id="edge30_Node000001_Node000016" class="edge">
<title>Node1&#45;&gt;Node16</title>
<g id="a_edge30_Node000001_Node000016"><a xlink:title=" ">
<path fill="none" stroke="#63b8ff" d="M660.07,-406.84C667.91,-398.35 677.91,-387.52 686.06,-378.69"/>
<polygon fill="#63b8ff" stroke="#63b8ff" points="688.7,-380.99 692.91,-371.27 683.55,-376.24 688.7,-380.99"/>
</a>
</g>
</g>
<!-- Node18 -->
<g id="Node000018" class="node">
<title>Node18</title>
<g id="a_Node000018"><a xlink:href="Guid_8ixx.html" target="_top" xlink:title="Lightweight GUID (globally unique identifier) implementation.">
<polygon fill="white" stroke="#666666" points="874,-371 784,-371 784,-352 874,-352 874,-371"/>
<text text-anchor="middle" x="829" y="-359" font-family="Helvetica,sans-Serif" font-size="10.00">helios.util.Guid</text>
</a>
</g>
</g>
<!-- Node1&#45;&gt;Node18 -->
<g id="edge33_Node000001_Node000018" class="edge">
<title>Node1&#45;&gt;Node18</title>
<g id="a_edge33_Node000001_Node000018"><a xlink:title=" ">
<path fill="none" stroke="#63b8ff" d="M690.59,-406.99C721.73,-396.98 763.14,-383.67 792.53,-374.22"/>
<polygon fill="#63b8ff" stroke="#63b8ff" points="793.94,-377.45 802.39,-371.05 791.8,-370.78 793.94,-377.45"/>
</a>
</g>
</g>
<!-- Node3 -->
<g id="Node000003" class="node">
<title>Node3</title>
<g id="a_Node000003"><a xlink:href="BasicStringFileReader_8ixx.html" target="_top" xlink:title="Basic file&#45;to&#45;string reader implementation.">
<polygon fill="white" stroke="#666666" points="646,-316 512,-316 512,-286 646,-286 646,-316"/>
<text text-anchor="start" x="520" y="-304" font-family="Helvetica,sans-Serif" font-size="10.00">helios.util.io.BasicString</text>
<text text-anchor="middle" x="579" y="-293" font-family="Helvetica,sans-Serif" font-size="10.00">FileReader</text>
</a>
</g>
</g>
<!-- Node2&#45;&gt;Node3 -->
<g id="edge2_Node000002_Node000003" class="edge">
<title>Node2&#45;&gt;Node3</title>
<g id="a_edge2_Node000002_Node000003"><a xlink:title=" ">
<path fill="none" stroke="#63b8ff" d="M579,-351.87C579,-345.11 579,-335.35 579,-326.26"/>
<polygon fill="#63b8ff" stroke="#63b8ff" points="582.5,-326.11 579,-316.11 575.5,-326.11 582.5,-326.11"/>
</a>
</g>
</g>
<!-- Node5 -->
<g id="Node000005" class="node">
<title>Node5</title>
<g id="a_Node000005"><a xlink:href="StringFileReader_8ixx.html" target="_top" xlink:title="Abstract base class for reading file contents into a string.">
<polygon fill="white" stroke="#666666" points="594.5,-250 469.5,-250 469.5,-220 594.5,-220 594.5,-250"/>
<text text-anchor="start" x="477.5" y="-238" font-family="Helvetica,sans-Serif" font-size="10.00">helios.util.io.StringFile</text>
<text text-anchor="middle" x="532" y="-227" font-family="Helvetica,sans-Serif" font-size="10.00">Reader</text>
</a>
</g>
</g>
<!-- Node2&#45;&gt;Node5 -->
<g id="edge22_Node000002_Node000005" class="edge">
<title>Node2&#45;&gt;Node5</title>
<g id="a_edge22_Node000002_Node000005"><a xlink:title=" ">
<path fill="none" stroke="#63b8ff" d="M550.61,-351.92C533.54,-345.13 513.19,-333.77 503,-316 492.58,-297.83 502.59,-275.26 513.6,-258.72"/>
<polygon fill="#63b8ff" stroke="#63b8ff" points="516.71,-260.39 519.7,-250.23 511.03,-256.31 516.71,-260.39"/>
</a>
</g>
</g>
<!-- Node4 -->
<g id="Node000004" class="node">
<title>Node4</title>
<g id="a_Node000004"><a xlink:title=" ">
<polygon fill="#e0e0e0" stroke="#999999" points="615,-19 571,-19 571,0 615,0 615,-19"/>
<text text-anchor="middle" x="593" y="-7" font-family="Helvetica,sans-Serif" font-size="10.00">string</text>
</a>
</g>
</g>
<!-- Node3&#45;&gt;Node4 -->
<g id="edge3_Node000003_Node000004" class="edge">
<title>Node3&#45;&gt;Node4</title>
<g id="a_edge3_Node000003_Node000004"><a xlink:title=" ">
<path fill="none" stroke="#63b8ff" d="M618.75,-285.94C680.64,-262.83 793,-215.37 793,-175.5 793,-175.5 793,-175.5 793,-118.5 793,-43.24 682.01,-20.18 625.39,-13.31"/>
<polygon fill="#63b8ff" stroke="#63b8ff" points="625.49,-9.8 615.17,-12.17 624.72,-16.75 625.49,-9.8"/>
</a>
</g>
</g>
<!-- Node3&#45;&gt;Node5 -->
<g id="edge4_Node000003_Node000005" class="edge">
<title>Node3&#45;&gt;Node5</title>
<g id="a_edge4_Node000003_Node000005"><a xlink:title=" ">
<path fill="none" stroke="#63b8ff" d="M568.57,-285.8C562.67,-277.76 555.15,-267.53 548.47,-258.43"/>
<polygon fill="#63b8ff" stroke="#63b8ff" points="551.14,-256.15 542.4,-250.16 545.5,-260.3 551.14,-256.15"/>
</a>
</g>
</g>
<!-- Node5&#45;&gt;Node4 -->
<g id="edge5_Node000005_Node000004" class="edge">
<title>Node5&#45;&gt;Node4</title>
<g id="a_edge5_Node000005_Node000004"><a xlink:title=" ">
<path fill="none" stroke="#63b8ff" d="M557.47,-219.97C574.04,-210.49 595.85,-197.31 614,-184 664.49,-146.98 688.75,-135.19 702,-74 703.79,-65.75 706.71,-62.01 702,-55 684.97,-29.65 650.69,-18.73 625.09,-14.04"/>
<polygon fill="#63b8ff" stroke="#63b8ff" points="625.51,-10.56 615.08,-12.43 624.4,-17.47 625.51,-10.56"/>
</a>
</g>
</g>
<!-- Node6 -->
<g id="Node000006" class="node">
<title>Node6</title>
<g id="a_Node000006"><a xlink:href="LogManager_8ixx.html" target="_top" xlink:title="Central manager for scoped loggers with configurable sinks.">
<polygon fill="white" stroke="#666666" points="605,-184 459,-184 459,-165 605,-165 605,-184"/>
<text text-anchor="middle" x="532" y="-172" font-family="Helvetica,sans-Serif" font-size="10.00">helios.util.log.LogManager</text>
</a>
</g>
</g>
<!-- Node5&#45;&gt;Node6 -->
<g id="edge6_Node000005_Node000006" class="edge">
<title>Node5&#45;&gt;Node6</title>
<g id="a_edge6_Node000005_Node000006"><a xlink:title=" ">
<path fill="none" stroke="#63b8ff" d="M532,-219.84C532,-212.21 532,-202.7 532,-194.45"/>
<polygon fill="#63b8ff" stroke="#63b8ff" points="535.5,-194.27 532,-184.27 528.5,-194.27 535.5,-194.27"/>
</a>
</g>
</g>
<!-- Node12 -->
<g id="Node000012" class="node">
<title>Node12</title>
<g id="a_Node000012"><a xlink:href="Logger_8ixx.html" target="_top" xlink:title="Simple synchronous logger with configurable output sinks.">
<polygon fill="white" stroke="#666666" points="359.5,-129 240.5,-129 240.5,-110 359.5,-110 359.5,-129"/>
<text text-anchor="middle" x="300" y="-117" font-family="Helvetica,sans-Serif" font-size="10.00">helios.util.log.Logger</text>
</a>
</g>
</g>
<!-- Node5&#45;&gt;Node12 -->
<g id="edge21_Node000005_Node000012" class="edge">
<title>Node5&#45;&gt;Node12</title>
<g id="a_edge21_Node000005_Node000012"><a xlink:title=" ">
<path fill="none" stroke="#63b8ff" d="M503.09,-219.85C457.8,-197.7 370.79,-155.13 326.83,-133.63"/>
<polygon fill="#63b8ff" stroke="#63b8ff" points="328.15,-130.38 317.63,-129.12 325.07,-136.66 328.15,-130.38"/>
</a>
</g>
</g>
<!-- Node6&#45;&gt;Node4 -->
<g id="edge7_Node000006_Node000004" class="edge">
<title>Node6&#45;&gt;Node4</title>
<g id="a_edge7_Node000006_Node000004"><a xlink:title=" ">
<path fill="none" stroke="#63b8ff" d="M575.95,-164.95C600.68,-158.39 630.93,-147.27 653,-129 674.96,-110.82 678.39,-101.47 686,-74 688.25,-65.86 690.5,-62.14 686,-55 672.72,-33.92 646.38,-22.6 625.11,-16.67"/>
<polygon fill="#63b8ff" stroke="#63b8ff" points="625.71,-13.21 615.16,-14.17 624,-20 625.71,-13.21"/>
</a>
</g>
</g>
<!-- Node7 -->
<g id="Node000007" class="node">
<title>Node7</title>
<g id="a_Node000007"><a xlink:title=" ">
<polygon fill="#e0e0e0" stroke="#999999" points="470.5,-129 377.5,-129 377.5,-110 470.5,-110 470.5,-129"/>
<text text-anchor="middle" x="424" y="-117" font-family="Helvetica,sans-Serif" font-size="10.00">unordered_map</text>
</a>
</g>
</g>
<!-- Node6&#45;&gt;Node7 -->
<g id="edge8_Node000006_Node000007" class="edge">
<title>Node6&#45;&gt;Node7</title>
<g id="a_edge8_Node000006_Node000007"><a xlink:title=" ">
<path fill="none" stroke="#63b8ff" d="M514.65,-164.98C497.43,-156.54 470.8,-143.47 450.85,-133.68"/>
<polygon fill="#63b8ff" stroke="#63b8ff" points="452.19,-130.43 441.67,-129.17 449.1,-136.72 452.19,-130.43"/>
</a>
</g>
</g>
<!-- Node8 -->
<g id="Node000008" class="node">
<title>Node8</title>
<g id="a_Node000008"><a xlink:title=" ">
<polygon fill="#e0e0e0" stroke="#999999" points="575,-129 489,-129 489,-110 575,-110 575,-129"/>
<text text-anchor="middle" x="532" y="-117" font-family="Helvetica,sans-Serif" font-size="10.00">unordered_set</text>
</a>
</g>
</g>
<!-- Node6&#45;&gt;Node8 -->
<g id="edge9_Node000006_Node000008" class="edge">
<title>Node6&#45;&gt;Node8</title>
<g id="a_edge9_Node000006_Node000008"><a xlink:title=" ">
<path fill="none" stroke="#63b8ff" d="M532,-164.75C532,-157.8 532,-147.85 532,-139.13"/>
<polygon fill="#63b8ff" stroke="#63b8ff" points="535.5,-139.09 532,-129.09 528.5,-139.09 535.5,-139.09"/>
</a>
</g>
</g>
<!-- Node9 -->
<g id="Node000009" class="node">
<title>Node9</title>
<g id="a_Node000009"><a xlink:title=" ">
<polygon fill="#e0e0e0" stroke="#999999" points="483,-74 425,-74 425,-55 483,-55 483,-74"/>
<text text-anchor="middle" x="454" y="-62" font-family="Helvetica,sans-Serif" font-size="10.00">memory</text>
</a>
</g>
</g>
<!-- Node6&#45;&gt;Node9 -->
<g id="edge10_Node000006_Node000009" class="edge">
<title>Node6&#45;&gt;Node9</title>
<g id="a_edge10_Node000006_Node000009"><a xlink:title=" ">
<path fill="none" stroke="#63b8ff" d="M547.99,-164.95C568.19,-153.02 598.66,-130.52 584,-110 563.59,-81.44 523.69,-71.01 493.45,-67.3"/>
<polygon fill="#63b8ff" stroke="#63b8ff" points="493.51,-63.79 483.21,-66.25 492.8,-70.76 493.51,-63.79"/>
</a>
</g>
</g>
<!-- Node10 -->
<g id="Node000010" class="node">
<title>Node10</title>
<g id="a_Node000010"><a xlink:title=" ">
<polygon fill="#e0e0e0" stroke="#999999" points="591,-74 543,-74 543,-55 591,-55 591,-74"/>
<text text-anchor="middle" x="567" y="-62" font-family="Helvetica,sans-Serif" font-size="10.00">mutex</text>
</a>
</g>
</g>
<!-- Node6&#45;&gt;Node10 -->
<g id="edge11_Node000006_Node000010" class="edge">
<title>Node6&#45;&gt;Node10</title>
<g id="a_edge11_Node000006_Node000010"><a xlink:title=" ">
<path fill="none" stroke="#63b8ff" d="M566.22,-164.93C584.71,-158.37 605.96,-147.24 617,-129 627.99,-110.84 608.54,-91.98 590.78,-79.57"/>
<polygon fill="#63b8ff" stroke="#63b8ff" points="592.62,-76.6 582.34,-74.04 588.78,-82.45 592.62,-76.6"/>
</a>
</g>
</g>
<!-- Node11 -->
<g id="Node000011" class="node">
<title>Node11</title>
<g id="a_Node000011"><a xlink:title=" ">
<polygon fill="#e0e0e0" stroke="#999999" points="677.5,-74 630.5,-74 630.5,-55 677.5,-55 677.5,-74"/>
<text text-anchor="middle" x="654" y="-62" font-family="Helvetica,sans-Serif" font-size="10.00">vector</text>
</a>
</g>
</g>
<!-- Node6&#45;&gt;Node11 -->
<g id="edge12_Node000006_Node000011" class="edge">
<title>Node6&#45;&gt;Node11</title>
<g id="a_edge12_Node000006_Node000011"><a xlink:title=" ">
<path fill="none" stroke="#63b8ff" d="M570.13,-164.86C591.26,-158.28 616.51,-147.15 633,-129 644.21,-116.66 649.46,-98.18 651.9,-84.33"/>
<polygon fill="#63b8ff" stroke="#63b8ff" points="655.36,-84.82 653.31,-74.43 648.43,-83.83 655.36,-84.82"/>
</a>
</g>
</g>
<!-- Node6&#45;&gt;Node12 -->
<g id="edge13_Node000006_Node000012" class="edge">
<title>Node6&#45;&gt;Node12</title>
<g id="a_edge13_Node000006_Node000012"><a xlink:title=" ">
<path fill="none" stroke="#63b8ff" d="M494.73,-164.98C454.68,-155.84 390.93,-141.27 347.36,-131.32"/>
<polygon fill="#63b8ff" stroke="#63b8ff" points="348.1,-127.9 337.57,-129.08 346.54,-134.72 348.1,-127.9"/>
</a>
</g>
</g>
<!-- Node13 -->
<g id="Node000013" class="node">
<title>Node13</title>
<g id="a_Node000013"><a xlink:href="LogSink_8ixx.html" target="_top" xlink:title="Abstract interface for log output destinations.">
<polygon fill="white" stroke="#666666" points="274,-74 150,-74 150,-55 274,-55 274,-74"/>
<text text-anchor="middle" x="212" y="-62" font-family="Helvetica,sans-Serif" font-size="10.00">helios.util.log.LogSink</text>
</a>
</g>
</g>
<!-- Node6&#45;&gt;Node13 -->
<g id="edge20_Node000006_Node000013" class="edge">
<title>Node6&#45;&gt;Node13</title>
<g id="a_edge20_Node000006_Node000013"><a xlink:title=" ">
<path fill="none" stroke="#63b8ff" d="M458.84,-171.51C380.87,-167.89 264.15,-157.69 231,-129 218.23,-117.95 213.86,-98.7 212.45,-84.28"/>
<polygon fill="#63b8ff" stroke="#63b8ff" points="215.93,-83.79 211.85,-74.01 208.94,-84.19 215.93,-83.79"/>
</a>
</g>
</g>
<!-- Node12&#45;&gt;Node4 -->
<g id="edge14_Node000012_Node000004" class="edge">
<title>Node12&#45;&gt;Node4</title>
<g id="a_edge14_Node000012_Node000004"><a xlink:title=" ">
<path fill="none" stroke="#63b8ff" d="M313.03,-109.92C333.95,-96.48 376.67,-70.42 416,-55 465,-35.79 524.93,-22.78 560.98,-16"/>
<polygon fill="#63b8ff" stroke="#63b8ff" points="561.72,-19.43 570.92,-14.18 560.45,-12.54 561.72,-19.43"/>
</a>
</g>
</g>
<!-- Node12&#45;&gt;Node9 -->
<g id="edge16_Node000012_Node000009" class="edge">
<title>Node12&#45;&gt;Node9</title>
<g id="a_edge16_Node000012_Node000009"><a xlink:title=" ">
<path fill="none" stroke="#63b8ff" d="M324.74,-109.98C350.37,-101.16 390.63,-87.31 419.41,-77.41"/>
<polygon fill="#63b8ff" stroke="#63b8ff" points="420.75,-80.65 429.06,-74.08 418.47,-74.03 420.75,-80.65"/>
</a>
</g>
</g>
<!-- Node12&#45;&gt;Node10 -->
<g id="edge17_Node000012_Node000010" class="edge">
<title>Node12&#45;&gt;Node10</title>
<g id="a_edge17_Node000012_Node000010"><a xlink:title=" ">
<path fill="none" stroke="#63b8ff" d="M342.9,-109.98C395.77,-99.49 484.55,-81.87 532.97,-72.25"/>
<polygon fill="#63b8ff" stroke="#63b8ff" points="533.82,-75.65 542.95,-70.27 532.46,-68.79 533.82,-75.65"/>
</a>
</g>
</g>
<!-- Node12&#45;&gt;Node11 -->
<g id="edge15_Node000012_Node000011" class="edge">
<title>Node12&#45;&gt;Node11</title>
<g id="a_edge15_Node000012_Node000011"><a xlink:title=" ">
<path fill="none" stroke="#63b8ff" d="M358.38,-110C418.85,-101.15 516.07,-86.83 600,-74 606.53,-73 613.49,-71.92 620.18,-70.87"/>
<polygon fill="#63b8ff" stroke="#63b8ff" points="621.02,-74.28 630.35,-69.27 619.93,-67.37 621.02,-74.28"/>
</a>
</g>
</g>
<!-- Node12&#45;&gt;Node13 -->
<g id="edge18_Node000012_Node000013" class="edge">
<title>Node12&#45;&gt;Node13</title>
<g id="a_edge18_Node000012_Node000013"><a xlink:title=" ">
<path fill="none" stroke="#63b8ff" d="M285.86,-109.98C272.21,-101.77 251.31,-89.18 235.22,-79.49"/>
<polygon fill="#63b8ff" stroke="#63b8ff" points="236.77,-76.33 226.4,-74.17 233.16,-82.33 236.77,-76.33"/>
</a>
</g>
</g>
<!-- Node13&#45;&gt;Node4 -->
<g id="edge19_Node000013_Node000004" class="edge">
<title>Node13&#45;&gt;Node4</title>
<g id="a_edge19_Node000013_Node000004"><a xlink:title=" ">
<path fill="none" stroke="#63b8ff" d="M273.21,-54.98C354.94,-43.62 496.78,-23.89 560.43,-15.03"/>
<polygon fill="#63b8ff" stroke="#63b8ff" points="561.25,-18.45 570.67,-13.61 560.28,-11.52 561.25,-18.45"/>
</a>
</g>
</g>
<!-- Node14&#45;&gt;Node6 -->
<g id="edge24_Node000014_Node000006" class="edge">
<title>Node14&#45;&gt;Node6</title>
<g id="a_edge24_Node000014_Node000006"><a xlink:title=" ">
<path fill="none" stroke="#63b8ff" d="M333.73,-225.49C374.63,-215.18 443.62,-197.78 488.48,-186.47"/>
<polygon fill="#63b8ff" stroke="#63b8ff" points="489.38,-189.86 498.22,-184.02 487.67,-183.07 489.38,-189.86"/>
</a>
</g>
</g>
<!-- Node14&#45;&gt;Node12 -->
<g id="edge25_Node000014_Node000012" class="edge">
<title>Node14&#45;&gt;Node12</title>
<g id="a_edge25_Node000014_Node000012"><a xlink:title=" ">
<path fill="none" stroke="#63b8ff" d="M300,-225.47C300,-207.23 300,-164.07 300,-139.14"/>
<polygon fill="#63b8ff" stroke="#63b8ff" points="303.5,-139.13 300,-129.13 296.5,-139.13 303.5,-139.13"/>
</a>
</g>
</g>
<!-- Node14&#45;&gt;Node13 -->
<g id="edge29_Node000014_Node000013" class="edge">
<title>Node14&#45;&gt;Node13</title>
<g id="a_edge29_Node000014_Node000013"><a xlink:title=" ">
<path fill="none" stroke="#63b8ff" d="M289.72,-225.48C270.83,-209.1 231.03,-171.08 215,-129 209.53,-114.64 209.12,-97.12 209.89,-84.12"/>
<polygon fill="#63b8ff" stroke="#63b8ff" points="213.39,-84.32 210.77,-74.06 206.41,-83.72 213.39,-84.32"/>
</a>
</g>
</g>
<!-- Node15 -->
<g id="Node000015" class="node">
<title>Node15</title>
<g id="a_Node000015"><a xlink:href="ConsoleSink_8ixx.html" target="_top" xlink:title="Log sink that writes to stdout.">
<polygon fill="white" stroke="#666666" points="146,-129 0,-129 0,-110 146,-110 146,-129"/>
<text text-anchor="middle" x="73" y="-117" font-family="Helvetica,sans-Serif" font-size="10.00">helios.util.log.ConsoleSink</text>
</a>
</g>
</g>
<!-- Node14&#45;&gt;Node15 -->
<g id="edge26_Node000014_Node000015" class="edge">
<title>Node14&#45;&gt;Node15</title>
<g id="a_edge26_Node000014_Node000015"><a xlink:title=" ">
<path fill="none" stroke="#63b8ff" d="M268.05,-225.45C238.94,-217 195.24,-202.65 160,-184 134.24,-170.37 107.61,-149.8 90.71,-135.8"/>
<polygon fill="#63b8ff" stroke="#63b8ff" points="92.71,-132.91 82.81,-129.14 88.2,-138.26 92.71,-132.91"/>
</a>
</g>
</g>
<!-- Node15&#45;&gt;Node4 -->
<g id="edge27_Node000015_Node000004" class="edge">
<title>Node15&#45;&gt;Node4</title>
<g id="a_edge27_Node000015_Node000004"><a xlink:title=" ">
<path fill="none" stroke="#63b8ff" d="M79.33,-109.63C90.13,-95.29 113.62,-67.38 141,-55 216.17,-21.01 470.43,-12.85 560.8,-11.01"/>
<polygon fill="#63b8ff" stroke="#63b8ff" points="561.05,-14.51 570.98,-10.81 560.92,-7.51 561.05,-14.51"/>
</a>
</g>
</g>
<!-- Node15&#45;&gt;Node13 -->
<g id="edge28_Node000015_Node000013" class="edge">
<title>Node15&#45;&gt;Node13</title>
<g id="a_edge28_Node000015_Node000013"><a xlink:title=" ">
<path fill="none" stroke="#63b8ff" d="M95.33,-109.98C118.2,-101.27 153.96,-87.63 179.86,-77.75"/>
<polygon fill="#63b8ff" stroke="#63b8ff" points="181.16,-81 189.26,-74.17 178.67,-74.46 181.16,-81"/>
</a>
</g>
</g>
<!-- Node17 -->
<g id="Node000017" class="node">
<title>Node17</title>
<g id="a_Node000017"><a xlink:href="helios_2math_2types_2__module_8ixx.html" target="_top" xlink:title="Module exports for vector and matrix type definitions.">
<polygon fill="white" stroke="#666666" points="768,-310.5 664,-310.5 664,-291.5 768,-291.5 768,-310.5"/>
<text text-anchor="middle" x="716" y="-298.5" font-family="Helvetica,sans-Serif" font-size="10.00">helios.math.types</text>
</a>
</g>
</g>
<!-- Node16&#45;&gt;Node17 -->
<g id="edge31_Node000016_Node000017" class="edge">
<title>Node16&#45;&gt;Node17</title>
<g id="a_edge31_Node000016_Node000017"><a xlink:title=" ">
<path fill="none" stroke="#63b8ff" d="M703.21,-351.87C705.32,-343.66 708.55,-331.04 711.24,-320.55"/>
<polygon fill="#63b8ff" stroke="#63b8ff" points="714.68,-321.22 713.78,-310.67 707.9,-319.48 714.68,-321.22"/>
</a>
</g>
</g>
<!-- Node17&#45;&gt;Node17 -->
<g id="edge32_Node000017_Node000017" class="edge">
<title>Node17&#45;&gt;Node17</title>
<g id="a_edge32_Node000017_Node000017"><a xlink:title=" ">
<path fill="none" stroke="#63b8ff" d="M741.85,-310.53C763.44,-314.61 786,-311.43 786,-301 786,-292.2 769.94,-288.56 751.95,-290.09"/>
<polygon fill="#63b8ff" stroke="#63b8ff" points="751.28,-286.65 741.85,-291.47 752.23,-293.58 751.28,-286.65"/>
</a>
</g>
</g>
<!-- Node19 -->
<g id="Node000019" class="node">
<title>Node19</title>
<g id="a_Node000019"><a xlink:title=" ">
<polygon fill="#e0e0e0" stroke="#999999" points="854,-310.5 804,-310.5 804,-291.5 854,-291.5 854,-310.5"/>
<text text-anchor="middle" x="829" y="-298.5" font-family="Helvetica,sans-Serif" font-size="10.00">atomic</text>
</a>
</g>
</g>
<!-- Node18&#45;&gt;Node19 -->
<g id="edge34_Node000018_Node000019" class="edge">
<title>Node18&#45;&gt;Node19</title>
<g id="a_edge34_Node000018_Node000019"><a xlink:title=" ">
<path fill="none" stroke="#63b8ff" d="M829,-351.87C829,-343.75 829,-331.31 829,-320.89"/>
<polygon fill="#63b8ff" stroke="#63b8ff" points="832.5,-320.67 829,-310.67 825.5,-320.67 832.5,-320.67"/>
</a>
</g>
</g>
<!-- Node20 -->
<g id="Node000020" class="node">
<title>Node20</title>
<g id="a_Node000020"><a xlink:title=" ">
<polygon fill="#e0e0e0" stroke="#999999" points="922,-310.5 872,-310.5 872,-291.5 922,-291.5 922,-310.5"/>
<text text-anchor="middle" x="897" y="-298.5" font-family="Helvetica,sans-Serif" font-size="10.00">cstdint</text>
</a>
</g>
</g>
<!-- Node18&#45;&gt;Node20 -->
<g id="edge35_Node000018_Node000020" class="edge">
<title>Node18&#45;&gt;Node20</title>
<g id="a_edge35_Node000018_Node000020"><a xlink:title=" ">
<path fill="none" stroke="#63b8ff" d="M839.03,-351.87C849.58,-342.8 866.39,-328.34 879.19,-317.32"/>
<polygon fill="#63b8ff" stroke="#63b8ff" points="881.63,-319.84 886.93,-310.67 877.06,-314.54 881.63,-319.84"/>
</a>
</g>
</g>
</g>
</svg>

<g id="navigator" transform="translate(0 0)" fill="#404254">
  <rect fill="#f2f5e9" fill-opacity="0.5" stroke="#606060" stroke-width=".5" x="0" y="0" width="60" height="60"/>
  <use id="zoomplus" xlink:href="#zoomPlus" x="17" y="9" onmousedown="handleZoom(evt,'in')"/>
  <use id="zoomminus" xlink:href="#zoomMin" x="42" y="9" onmousedown="handleZoom(evt,'out')"/>
  <use id="reset" xlink:href="#resetDef" x="30" y="36" onmousedown="handleReset()"/>
   <use id="arrowup" xlink:href="#arrowUp" x="0" y="0" onmousedown="handlePan(0,-1)"/>
  <use id="arrowright" xlink:href="#arrowRight" x="0" y="0" onmousedown="handlePan(1,0)"/>
  <use id="arrowdown" xlink:href="#arrowDown" x="0" y="0" onmousedown="handlePan(0,1)"/>
  <use id="arrowleft" xlink:href="#arrowLeft" x="0" y="0" onmousedown="handlePan(-1,0)"/>
</g>
<svg viewBox="0 0 15 15" width="100%" height="30px" preserveAspectRatio="xMaxYMin meet">
 <g id="arrow_out" transform="scale(0.3 0.3)">
  <a xlink:href="helios_2util_2__module_8ixx__incl_org.svg" target="_base">
   <rect id="button" ry="5" rx="5" y="6" x="6" height="38" width="38"
        fill="#f2f5e9" fill-opacity="0.5" stroke="#606060" stroke-width="1.0"/>
   <path id="arrow"
     d="M 11.500037,31.436501 C 11.940474,20.09759 22.043105,11.32322 32.158766,21.979434 L 37.068811,17.246167 C 37.068811,17.246167 37.088388,32 37.088388,32 L 22.160133,31.978069 C 22.160133,31.978069 26.997745,27.140456 26.997745,27.140456 C 18.528582,18.264221 13.291696,25.230495 11.500037,31.436501 z"
     style="fill:#404040;"/>
  </a>
 </g>
</svg>

<style type='text/css'>
<![CDATA[
[data-mouse-over-selected='false'] { opacity: 0.7; }
[data-mouse-over-selected='true']  { opacity: 1.0; }
]]>
</style>
<script type="application/ecmascript"><![CDATA[
document.addEventListener('DOMContentLoaded', (event) => {
  highlightEdges();
  highlightAdjacentNodes();
});
]]></script>
</svg>
