<?xml version="1.0" encoding="UTF-8" standalone="no"?>
<!DOCTYPE svg PUBLIC "-//W3C//DTD SVG 1.1//EN"
 "http://www.w3.org/Graphics/SVG/1.1/DTD/svg11.dtd">
<!-- Generated by graphviz version 2.43.0 (0)
 -->
<!-- Title: include/helios/rendering/asset/shape/basic/_module.ixx Pages: 1 -->
<svg width="1089pt" height="293pt"
 viewBox="0.00 0.00 1089.00 293.17" xmlns="http://www.w3.org/2000/svg" xmlns:xlink="http://www.w3.org/1999/xlink">
<g id="graph0" class="graph" transform="scale(1 1) rotate(0) translate(4 289.17)">
<title>include/helios/rendering/asset/shape/basic/_module.ixx</title>
<!-- Node1 -->
<g id="Node000001" class="node">
<title>Node1</title>
<g id="a_Node000001"><a xlink:title="Module exports for basic geometric primitive shapes.">
<polygon fill="#999999" stroke="#666666" points="645.5,-285.17 475.5,-285.17 475.5,-255.17 645.5,-255.17 645.5,-285.17"/>
<text text-anchor="start" x="483.5" y="-273.17" font-family="Helvetica,sans-Serif" font-size="10.00">include/helios/rendering</text>
<text text-anchor="middle" x="560.5" y="-262.17" font-family="Helvetica,sans-Serif" font-size="10.00">/asset/shape/basic/_module.ixx</text>
</a>
</g>
</g>
<!-- Node2 -->
<g id="Node000002" class="node">
<title>Node2</title>
<g id="a_Node000002"><a xlink:href="Grid_8ixx.html" target="_top" xlink:title="Basic grid shape for rendering.">
<polygon fill="white" stroke="#666666" points="209,-213.67 0,-213.67 0,-194.67 209,-194.67 209,-213.67"/>
<text text-anchor="middle" x="104.5" y="-201.67" font-family="Helvetica,sans-Serif" font-size="10.00">helios.rendering.asset.shape.basic.Grid</text>
</a>
</g>
</g>
<!-- Node1&#45;&gt;Node2 -->
<g id="edge1_Node000001_Node000002" class="edge">
<title>Node1&#45;&gt;Node2</title>
<g id="a_edge1_Node000001_Node000002"><a xlink:title=" ">
<path fill="none" stroke="#63b8ff" d="M475.26,-257.21C388.74,-245.07 256.32,-226.48 175.37,-215.12"/>
<polygon fill="#63b8ff" stroke="#63b8ff" points="175.66,-211.63 165.27,-213.7 174.69,-218.56 175.66,-211.63"/>
</a>
</g>
</g>
<!-- Node10 -->
<g id="Node000010" class="node">
<title>Node10</title>
<g id="a_Node000010"><a xlink:href="Circle_8ixx.html" target="_top" xlink:title="Basic circle shape for rendering.">
<polygon fill="white" stroke="#666666" points="1079.5,-219.17 891.5,-219.17 891.5,-189.17 1079.5,-189.17 1079.5,-219.17"/>
<text text-anchor="start" x="899.5" y="-207.17" font-family="Helvetica,sans-Serif" font-size="10.00">helios.rendering.asset.shape.basic.</text>
<text text-anchor="middle" x="985.5" y="-196.17" font-family="Helvetica,sans-Serif" font-size="10.00">Circle</text>
</a>
</g>
</g>
<!-- Node1&#45;&gt;Node10 -->
<g id="edge14_Node000001_Node000010" class="edge">
<title>Node1&#45;&gt;Node10</title>
<g id="a_edge14_Node000001_Node000010"><a xlink:title=" ">
<path fill="none" stroke="#63b8ff" d="M645.74,-256.34C713.9,-246.08 809.7,-231.65 882.22,-220.73"/>
<polygon fill="#63b8ff" stroke="#63b8ff" points="882.92,-224.16 892.29,-219.21 881.88,-217.24 882.92,-224.16"/>
</a>
</g>
</g>
<!-- Node13 -->
<g id="Node000013" class="node">
<title>Node13</title>
<g id="a_Node000013"><a xlink:href="Cube_8ixx.html" target="_top" xlink:title="Basic cube shape for rendering.">
<polygon fill="white" stroke="#666666" points="667,-213.67 454,-213.67 454,-194.67 667,-194.67 667,-213.67"/>
<text text-anchor="middle" x="560.5" y="-201.67" font-family="Helvetica,sans-Serif" font-size="10.00">helios.rendering.asset.shape.basic.Cube</text>
</a>
</g>
</g>
<!-- Node1&#45;&gt;Node13 -->
<g id="edge22_Node000001_Node000013" class="edge">
<title>Node1&#45;&gt;Node13</title>
<g id="a_edge22_Node000001_Node000013"><a xlink:title=" ">
<path fill="none" stroke="#63b8ff" d="M560.5,-254.97C560.5,-245.87 560.5,-233.96 560.5,-224.07"/>
<polygon fill="#63b8ff" stroke="#63b8ff" points="564,-224.02 560.5,-214.02 557,-224.02 564,-224.02"/>
</a>
</g>
</g>
<!-- Node14 -->
<g id="Node000014" class="node">
<title>Node14</title>
<g id="a_Node000014"><a xlink:href="Line_8ixx.html" target="_top" xlink:title="Basic line shape for rendering.">
<polygon fill="white" stroke="#666666" points="436,-213.67 227,-213.67 227,-194.67 436,-194.67 436,-213.67"/>
<text text-anchor="middle" x="331.5" y="-201.67" font-family="Helvetica,sans-Serif" font-size="10.00">helios.rendering.asset.shape.basic.Line</text>
</a>
</g>
</g>
<!-- Node1&#45;&gt;Node14 -->
<g id="edge27_Node000001_Node000014" class="edge">
<title>Node1&#45;&gt;Node14</title>
<g id="a_edge27_Node000001_Node000014"><a xlink:title=" ">
<path fill="none" stroke="#63b8ff" d="M510.24,-255.13C468.67,-243.51 410.38,-227.22 371.82,-216.44"/>
<polygon fill="#63b8ff" stroke="#63b8ff" points="372.55,-213.01 361.98,-213.69 370.66,-219.75 372.55,-213.01"/>
</a>
</g>
</g>
<!-- Node15 -->
<g id="Node000015" class="node">
<title>Node15</title>
<g id="a_Node000015"><a xlink:href="Rectangle_8ixx.html" target="_top" xlink:title="Basic rectangle shape for rendering.">
<polygon fill="white" stroke="#666666" points="873.5,-219.17 685.5,-219.17 685.5,-189.17 873.5,-189.17 873.5,-219.17"/>
<text text-anchor="start" x="693.5" y="-207.17" font-family="Helvetica,sans-Serif" font-size="10.00">helios.rendering.asset.shape.basic.</text>
<text text-anchor="middle" x="779.5" y="-196.17" font-family="Helvetica,sans-Serif" font-size="10.00">Rectangle</text>
</a>
</g>
</g>
<!-- Node1&#45;&gt;Node15 -->
<g id="edge32_Node000001_Node000015" class="edge">
<title>Node1&#45;&gt;Node15</title>
<g id="a_edge32_Node000001_Node000015"><a xlink:title=" ">
<path fill="none" stroke="#63b8ff" d="M608.56,-255.13C641.94,-245.38 686.57,-232.33 721.86,-222.02"/>
<polygon fill="#63b8ff" stroke="#63b8ff" points="722.93,-225.35 731.55,-219.19 720.97,-218.63 722.93,-225.35"/>
</a>
</g>
</g>
<!-- Node3 -->
<g id="Node000003" class="node">
<title>Node3</title>
<g id="a_Node000003"><a xlink:title=" ">
<polygon fill="#e0e0e0" stroke="#999999" points="151,-147.67 86,-147.67 86,-128.67 151,-128.67 151,-147.67"/>
<text text-anchor="middle" x="118.5" y="-135.67" font-family="Helvetica,sans-Serif" font-size="10.00">stdexcept</text>
</a>
</g>
</g>
<!-- Node2&#45;&gt;Node3 -->
<g id="edge2_Node000002_Node000003" class="edge">
<title>Node2&#45;&gt;Node3</title>
<g id="a_edge2_Node000002_Node000003"><a xlink:title=" ">
<path fill="none" stroke="#63b8ff" d="M106.39,-194.54C108.42,-185.24 111.72,-170.15 114.37,-158.07"/>
<polygon fill="#63b8ff" stroke="#63b8ff" points="117.83,-158.6 116.55,-148.08 111,-157.1 117.83,-158.6"/>
</a>
</g>
</g>
<!-- Node4 -->
<g id="Node000004" class="node">
<title>Node4</title>
<g id="a_Node000004"><a xlink:title=" ">
<polygon fill="#e0e0e0" stroke="#999999" points="336,-81.67 289,-81.67 289,-62.67 336,-62.67 336,-81.67"/>
<text text-anchor="middle" x="312.5" y="-69.67" font-family="Helvetica,sans-Serif" font-size="10.00">vector</text>
</a>
</g>
</g>
<!-- Node2&#45;&gt;Node4 -->
<g id="edge3_Node000002_Node000004" class="edge">
<title>Node2&#45;&gt;Node4</title>
<g id="a_edge3_Node000002_Node000004"><a xlink:title=" ">
<path fill="none" stroke="#63b8ff" d="M118.15,-194.65C153.26,-172.7 246.98,-114.12 290.16,-87.14"/>
<polygon fill="#63b8ff" stroke="#63b8ff" points="292.18,-90 298.8,-81.74 288.47,-84.07 292.18,-90"/>
</a>
</g>
</g>
<!-- Node5 -->
<g id="Node000005" class="node">
<title>Node5</title>
<g id="a_Node000005"><a xlink:href="PrimitiveType_8ixx.html" target="_top" xlink:title="Enum of primitive types for mesh rendering.">
<polygon fill="white" stroke="#666666" points="880.5,-87.17 716.5,-87.17 716.5,-57.17 880.5,-57.17 880.5,-87.17"/>
<text text-anchor="start" x="724.5" y="-75.17" font-family="Helvetica,sans-Serif" font-size="10.00">helios.rendering.model.config.</text>
<text text-anchor="middle" x="798.5" y="-64.17" font-family="Helvetica,sans-Serif" font-size="10.00">PrimitiveType</text>
</a>
</g>
</g>
<!-- Node2&#45;&gt;Node5 -->
<g id="edge4_Node000002_Node000005" class="edge">
<title>Node2&#45;&gt;Node5</title>
<g id="a_edge4_Node000002_Node000005"><a xlink:title=" ">
<path fill="none" stroke="#63b8ff" d="M171.4,-194.66C186.55,-192.79 202.57,-190.87 217.5,-189.17 372.44,-171.59 415.46,-191.95 566.5,-153.17 599.68,-144.66 605.33,-134.94 637.5,-123.17 670.74,-111.02 708.5,-99.2 739.09,-90.1"/>
<polygon fill="#63b8ff" stroke="#63b8ff" points="740.15,-93.43 748.75,-87.24 738.17,-86.72 740.15,-93.43"/>
</a>
</g>
</g>
<!-- Node6 -->
<g id="Node000006" class="node">
<title>Node6</title>
<g id="a_Node000006"><a xlink:href="helios_2math_2types_2__module_8ixx.html" target="_top" xlink:title="Module exports for vector and matrix type definitions.">
<polygon fill="white" stroke="#666666" points="670.5,-21.17 566.5,-21.17 566.5,-2.17 670.5,-2.17 670.5,-21.17"/>
<text text-anchor="middle" x="618.5" y="-9.17" font-family="Helvetica,sans-Serif" font-size="10.00">helios.math.types</text>
</a>
</g>
</g>
<!-- Node2&#45;&gt;Node6 -->
<g id="edge5_Node000002_Node000006" class="edge">
<title>Node2&#45;&gt;Node6</title>
<g id="a_edge5_Node000002_Node000006"><a xlink:title=" ">
<path fill="none" stroke="#63b8ff" d="M96.6,-194.47C83.45,-178.91 60.07,-145.8 76.5,-123.17 132.34,-46.3 425.72,-22.24 556.03,-15.29"/>
<polygon fill="#63b8ff" stroke="#63b8ff" points="556.45,-18.77 566.25,-14.76 556.08,-11.78 556.45,-18.77"/>
</a>
</g>
</g>
<!-- Node7 -->
<g id="Node000007" class="node">
<title>Node7</title>
<g id="a_Node000007"><a xlink:href="Vertex_8ixx.html" target="_top" xlink:title="Vertex description and utilities for rendering.">
<polygon fill="white" stroke="#666666" points="683.5,-81.67 553.5,-81.67 553.5,-62.67 683.5,-62.67 683.5,-81.67"/>
<text text-anchor="middle" x="618.5" y="-69.67" font-family="Helvetica,sans-Serif" font-size="10.00">helios.rendering.Vertex</text>
</a>
</g>
</g>
<!-- Node2&#45;&gt;Node7 -->
<g id="edge7_Node000002_Node000007" class="edge">
<title>Node2&#45;&gt;Node7</title>
<g id="a_edge7_Node000002_Node000007"><a xlink:title=" ">
<path fill="none" stroke="#63b8ff" d="M128.2,-194.61C172.55,-178.81 271.29,-144.75 356.5,-123.17 423.03,-106.33 500.33,-92.23 553.64,-83.35"/>
<polygon fill="#63b8ff" stroke="#63b8ff" points="554.34,-86.78 563.64,-81.69 553.2,-79.87 554.34,-86.78"/>
</a>
</g>
</g>
<!-- Node8 -->
<g id="Node000008" class="node">
<title>Node8</title>
<g id="a_Node000008"><a xlink:href="Shape_8ixx.html" target="_top" xlink:title="Interface for simple geometric shapes used for testing and debugging.">
<polygon fill="white" stroke="#666666" points="557.5,-153.17 397.5,-153.17 397.5,-123.17 557.5,-123.17 557.5,-153.17"/>
<text text-anchor="start" x="405.5" y="-141.17" font-family="Helvetica,sans-Serif" font-size="10.00">helios.rendering.asset.shape.</text>
<text text-anchor="middle" x="477.5" y="-130.17" font-family="Helvetica,sans-Serif" font-size="10.00">Shape</text>
</a>
</g>
</g>
<!-- Node2&#45;&gt;Node8 -->
<g id="edge9_Node000002_Node000008" class="edge">
<title>Node2&#45;&gt;Node8</title>
<g id="a_edge9_Node000002_Node000008"><a xlink:title=" ">
<path fill="none" stroke="#63b8ff" d="M154.42,-194.61C213.76,-184.43 313.95,-167.24 387.05,-154.69"/>
<polygon fill="#63b8ff" stroke="#63b8ff" points="387.91,-158.1 397.18,-152.96 386.73,-151.2 387.91,-158.1"/>
</a>
</g>
</g>
<!-- Node6&#45;&gt;Node6 -->
<g id="edge6_Node000006_Node000006" class="edge">
<title>Node6&#45;&gt;Node6</title>
<g id="a_edge6_Node000006_Node000006"><a xlink:title=" ">
<path fill="none" stroke="#63b8ff" d="M644.35,-21.21C665.94,-25.28 688.5,-22.1 688.5,-11.67 688.5,-2.87 672.44,0.76 654.45,-0.76"/>
<polygon fill="#63b8ff" stroke="#63b8ff" points="653.78,2.68 644.35,-2.14 654.73,-4.26 653.78,2.68"/>
</a>
</g>
</g>
<!-- Node7&#45;&gt;Node6 -->
<g id="edge8_Node000007_Node000006" class="edge">
<title>Node7&#45;&gt;Node6</title>
<g id="a_edge8_Node000007_Node000006"><a xlink:title=" ">
<path fill="none" stroke="#63b8ff" d="M618.5,-62.54C618.5,-54.42 618.5,-41.98 618.5,-31.56"/>
<polygon fill="#63b8ff" stroke="#63b8ff" points="622,-31.34 618.5,-21.34 615,-31.34 622,-31.34"/>
</a>
</g>
</g>
<!-- Node8&#45;&gt;Node4 -->
<g id="edge11_Node000008_Node000004" class="edge">
<title>Node8&#45;&gt;Node4</title>
<g id="a_edge11_Node000008_Node000004"><a xlink:title=" ">
<path fill="none" stroke="#63b8ff" d="M441.29,-123.13C412.23,-111.86 371.83,-96.19 344.07,-85.42"/>
<polygon fill="#63b8ff" stroke="#63b8ff" points="345.05,-82.05 334.46,-81.69 342.52,-88.57 345.05,-82.05"/>
</a>
</g>
</g>
<!-- Node8&#45;&gt;Node5 -->
<g id="edge12_Node000008_Node000005" class="edge">
<title>Node8&#45;&gt;Node5</title>
<g id="a_edge12_Node000008_Node000005"><a xlink:title=" ">
<path fill="none" stroke="#63b8ff" d="M547.94,-123.13C598.22,-113.1 665.94,-99.6 718.3,-89.17"/>
<polygon fill="#63b8ff" stroke="#63b8ff" points="719.1,-92.57 728.22,-87.19 717.73,-85.71 719.1,-92.57"/>
</a>
</g>
</g>
<!-- Node8&#45;&gt;Node7 -->
<g id="edge13_Node000008_Node000007" class="edge">
<title>Node8&#45;&gt;Node7</title>
<g id="a_edge13_Node000008_Node000007"><a xlink:title=" ">
<path fill="none" stroke="#63b8ff" d="M508.44,-123.13C532.95,-112 566.89,-96.6 590.58,-85.85"/>
<polygon fill="#63b8ff" stroke="#63b8ff" points="592.08,-89.01 599.74,-81.69 589.18,-82.64 592.08,-89.01"/>
</a>
</g>
</g>
<!-- Node9 -->
<g id="Node000009" class="node">
<title>Node9</title>
<g id="a_Node000009"><a xlink:title=" ">
<polygon fill="#e0e0e0" stroke="#999999" points="506.5,-81.67 448.5,-81.67 448.5,-62.67 506.5,-62.67 506.5,-81.67"/>
<text text-anchor="middle" x="477.5" y="-69.67" font-family="Helvetica,sans-Serif" font-size="10.00">memory</text>
</a>
</g>
</g>
<!-- Node8&#45;&gt;Node9 -->
<g id="edge10_Node000008_Node000009" class="edge">
<title>Node8&#45;&gt;Node9</title>
<g id="a_edge10_Node000008_Node000009"><a xlink:title=" ">
<path fill="none" stroke="#63b8ff" d="M477.5,-122.97C477.5,-113.87 477.5,-101.96 477.5,-92.07"/>
<polygon fill="#63b8ff" stroke="#63b8ff" points="481,-92.02 477.5,-82.02 474,-92.02 481,-92.02"/>
</a>
</g>
</g>
<!-- Node10&#45;&gt;Node4 -->
<g id="edge15_Node000010_Node000004" class="edge">
<title>Node10&#45;&gt;Node4</title>
<g id="a_edge15_Node000010_Node000004"><a xlink:title=" ">
<path fill="none" stroke="#63b8ff" d="M912.84,-189.14C768.42,-161.24 450.23,-99.78 346.17,-79.68"/>
<polygon fill="#63b8ff" stroke="#63b8ff" points="346.7,-76.22 336.22,-77.76 345.37,-83.09 346.7,-76.22"/>
</a>
</g>
</g>
<!-- Node10&#45;&gt;Node5 -->
<g id="edge18_Node000010_Node000005" class="edge">
<title>Node10&#45;&gt;Node5</title>
<g id="a_edge18_Node000010_Node000005"><a xlink:title=" ">
<path fill="none" stroke="#63b8ff" d="M980.27,-189.02C973.03,-171.26 958.33,-140.99 936.5,-123.17 918.44,-108.44 895.67,-97.85 873.86,-90.33"/>
<polygon fill="#63b8ff" stroke="#63b8ff" points="874.85,-86.97 864.26,-87.18 872.68,-93.62 874.85,-86.97"/>
</a>
</g>
</g>
<!-- Node10&#45;&gt;Node6 -->
<g id="edge19_Node000010_Node000006" class="edge">
<title>Node10&#45;&gt;Node6</title>
<g id="a_edge19_Node000010_Node000006"><a xlink:title=" ">
<path fill="none" stroke="#63b8ff" d="M983.82,-188.92C981.31,-172.12 975.43,-143.9 962.5,-123.17 939.35,-86.07 928.91,-76.16 889.5,-57.17 822.98,-25.13 737.77,-15.57 680.83,-13.02"/>
<polygon fill="#63b8ff" stroke="#63b8ff" points="680.66,-9.51 670.53,-12.62 680.39,-16.5 680.66,-9.51"/>
</a>
</g>
</g>
<!-- Node10&#45;&gt;Node7 -->
<g id="edge20_Node000010_Node000007" class="edge">
<title>Node10&#45;&gt;Node7</title>
<g id="a_edge20_Node000010_Node000007"><a xlink:title=" ">
<path fill="none" stroke="#63b8ff" d="M945.88,-189.14C873.42,-163.47 720.75,-109.39 652.6,-85.25"/>
<polygon fill="#63b8ff" stroke="#63b8ff" points="653.39,-81.82 642.8,-81.78 651.06,-88.42 653.39,-81.82"/>
</a>
</g>
</g>
<!-- Node10&#45;&gt;Node8 -->
<g id="edge21_Node000010_Node000008" class="edge">
<title>Node10&#45;&gt;Node8</title>
<g id="a_edge21_Node000010_Node000008"><a xlink:title=" ">
<path fill="none" stroke="#63b8ff" d="M891.49,-190.32C888.46,-189.93 885.45,-189.55 882.5,-189.17 744.44,-171.8 709.44,-171.43 571.5,-153.17 570.23,-153.01 568.96,-152.84 567.68,-152.66"/>
<polygon fill="#63b8ff" stroke="#63b8ff" points="568.11,-149.19 557.73,-151.3 567.16,-156.13 568.11,-149.19"/>
</a>
</g>
</g>
<!-- Node11 -->
<g id="Node000011" class="node">
<title>Node11</title>
<g id="a_Node000011"><a xlink:title=" ">
<polygon fill="#e0e0e0" stroke="#999999" points="927,-147.67 880,-147.67 880,-128.67 927,-128.67 927,-147.67"/>
<text text-anchor="middle" x="903.5" y="-135.67" font-family="Helvetica,sans-Serif" font-size="10.00">cmath</text>
</a>
</g>
</g>
<!-- Node10&#45;&gt;Node11 -->
<g id="edge16_Node000010_Node000011" class="edge">
<title>Node10&#45;&gt;Node11</title>
<g id="a_edge16_Node000010_Node000011"><a xlink:title=" ">
<path fill="none" stroke="#63b8ff" d="M967.3,-188.97C954.14,-178.7 936.39,-164.84 922.95,-154.35"/>
<polygon fill="#63b8ff" stroke="#63b8ff" points="924.87,-151.41 914.83,-148.02 920.56,-156.93 924.87,-151.41"/>
</a>
</g>
</g>
<!-- Node12 -->
<g id="Node000012" class="node">
<title>Node12</title>
<g id="a_Node000012"><a xlink:title=" ">
<polygon fill="#e0e0e0" stroke="#999999" points="1081,-147.67 1022,-147.67 1022,-128.67 1081,-128.67 1081,-147.67"/>
<text text-anchor="middle" x="1051.5" y="-135.67" font-family="Helvetica,sans-Serif" font-size="10.00">numbers</text>
</a>
</g>
</g>
<!-- Node10&#45;&gt;Node12 -->
<g id="edge17_Node000010_Node000012" class="edge">
<title>Node10&#45;&gt;Node12</title>
<g id="a_edge17_Node000010_Node000012"><a xlink:title=" ">
<path fill="none" stroke="#63b8ff" d="M1000.15,-188.97C1010.44,-178.99 1024.22,-165.63 1034.91,-155.26"/>
<polygon fill="#63b8ff" stroke="#63b8ff" points="1037.64,-157.49 1042.38,-148.02 1032.76,-152.47 1037.64,-157.49"/>
</a>
</g>
</g>
<!-- Node13&#45;&gt;Node4 -->
<g id="edge23_Node000013_Node000004" class="edge">
<title>Node13&#45;&gt;Node4</title>
<g id="a_edge23_Node000013_Node000004"><a xlink:title=" ">
<path fill="none" stroke="#63b8ff" d="M503.94,-194.67C451.58,-185.87 378.46,-170.94 355.5,-153.17 335.37,-137.6 323.53,-109.86 317.53,-91.49"/>
<polygon fill="#63b8ff" stroke="#63b8ff" points="320.81,-90.26 314.59,-81.69 314.11,-92.27 320.81,-90.26"/>
</a>
</g>
</g>
<!-- Node13&#45;&gt;Node5 -->
<g id="edge24_Node000013_Node000005" class="edge">
<title>Node13&#45;&gt;Node5</title>
<g id="a_edge24_Node000013_Node000005"><a xlink:title=" ">
<path fill="none" stroke="#63b8ff" d="M576.12,-194.65C613.97,-173.97 711.35,-120.78 763.81,-92.12"/>
<polygon fill="#63b8ff" stroke="#63b8ff" points="765.65,-95.11 772.75,-87.24 762.29,-88.96 765.65,-95.11"/>
</a>
</g>
</g>
<!-- Node13&#45;&gt;Node7 -->
<g id="edge25_Node000013_Node000007" class="edge">
<title>Node13&#45;&gt;Node7</title>
<g id="a_edge25_Node000013_Node000007"><a xlink:title=" ">
<path fill="none" stroke="#63b8ff" d="M564.31,-194.65C573.64,-173.72 597.85,-119.47 610.51,-91.08"/>
<polygon fill="#63b8ff" stroke="#63b8ff" points="613.73,-92.46 614.6,-81.91 607.33,-89.61 613.73,-92.46"/>
</a>
</g>
</g>
<!-- Node13&#45;&gt;Node8 -->
<g id="edge26_Node000013_Node000008" class="edge">
<title>Node13&#45;&gt;Node8</title>
<g id="a_edge26_Node000013_Node000008"><a xlink:title=" ">
<path fill="none" stroke="#63b8ff" d="M549.31,-194.54C537.73,-185.62 519.24,-171.36 503.93,-159.55"/>
<polygon fill="#63b8ff" stroke="#63b8ff" points="505.86,-156.62 495.81,-153.29 501.59,-162.17 505.86,-156.62"/>
</a>
</g>
</g>
<!-- Node14&#45;&gt;Node4 -->
<g id="edge28_Node000014_Node000004" class="edge">
<title>Node14&#45;&gt;Node4</title>
<g id="a_edge28_Node000014_Node000004"><a xlink:title=" ">
<path fill="none" stroke="#63b8ff" d="M299.74,-194.65C279.18,-187.3 254.01,-174.43 241.5,-153.17 234.74,-141.68 235.36,-135.01 241.5,-123.17 250.01,-106.77 266.65,-94.62 281.68,-86.4"/>
<polygon fill="#63b8ff" stroke="#63b8ff" points="283.41,-89.44 290.74,-81.79 280.24,-83.2 283.41,-89.44"/>
</a>
</g>
</g>
<!-- Node14&#45;&gt;Node5 -->
<g id="edge30_Node000014_Node000005" class="edge">
<title>Node14&#45;&gt;Node5</title>
<g id="a_edge30_Node000014_Node000005"><a xlink:title=" ">
<path fill="none" stroke="#63b8ff" d="M394.01,-194.67C476.99,-183.12 615.64,-162.81 637.5,-153.17 657.19,-144.5 656.9,-134 675.5,-123.17 697.54,-110.34 723.5,-99.27 745.88,-90.82"/>
<polygon fill="#63b8ff" stroke="#63b8ff" points="747.38,-94 755.55,-87.25 744.96,-87.43 747.38,-94"/>
</a>
</g>
</g>
<!-- Node14&#45;&gt;Node7 -->
<g id="edge29_Node000014_Node000007" class="edge">
<title>Node14&#45;&gt;Node7</title>
<g id="a_edge29_Node000014_Node000007"><a xlink:title=" ">
<path fill="none" stroke="#63b8ff" d="M335.05,-194.57C342.39,-177.94 360.88,-141.39 388.5,-123.17 413.96,-106.39 487.95,-92.17 545.2,-83.24"/>
<polygon fill="#63b8ff" stroke="#63b8ff" points="545.96,-86.67 555.31,-81.69 544.9,-79.75 545.96,-86.67"/>
</a>
</g>
</g>
<!-- Node14&#45;&gt;Node8 -->
<g id="edge31_Node000014_Node000008" class="edge">
<title>Node14&#45;&gt;Node8</title>
<g id="a_edge31_Node000014_Node000008"><a xlink:title=" ">
<path fill="none" stroke="#63b8ff" d="M351.19,-194.54C372.77,-185.08 408.03,-169.63 435.82,-157.45"/>
<polygon fill="#63b8ff" stroke="#63b8ff" points="437.55,-160.51 445.3,-153.29 434.73,-154.1 437.55,-160.51"/>
</a>
</g>
</g>
<!-- Node15&#45;&gt;Node4 -->
<g id="edge33_Node000015_Node000004" class="edge">
<title>Node15&#45;&gt;Node4</title>
<g id="a_edge33_Node000015_Node000004"><a xlink:title=" ">
<path fill="none" stroke="#63b8ff" d="M685.48,-190.35C682.45,-189.95 679.45,-189.56 676.5,-189.17 548.59,-172.49 503.64,-211.33 388.5,-153.17 380.84,-149.31 346.7,-111.69 326.88,-89.44"/>
<polygon fill="#63b8ff" stroke="#63b8ff" points="329.32,-86.92 320.07,-81.77 324.09,-91.57 329.32,-86.92"/>
</a>
</g>
</g>
<!-- Node15&#45;&gt;Node5 -->
<g id="edge34_Node000015_Node000005" class="edge">
<title>Node15&#45;&gt;Node5</title>
<g id="a_edge34_Node000015_Node000005"><a xlink:title=" ">
<path fill="none" stroke="#63b8ff" d="M799.19,-188.89C809.75,-179.96 821.75,-167.46 827.5,-153.17 835.15,-134.16 825.99,-112.25 815.99,-96.17"/>
<polygon fill="#63b8ff" stroke="#63b8ff" points="818.61,-93.8 810.13,-87.45 812.8,-97.7 818.61,-93.8"/>
</a>
</g>
</g>
<!-- Node15&#45;&gt;Node7 -->
<g id="edge35_Node000015_Node000007" class="edge">
<title>Node15&#45;&gt;Node7</title>
<g id="a_edge35_Node000015_Node000007"><a xlink:title=" ">
<path fill="none" stroke="#63b8ff" d="M761.96,-189.01C731.42,-164.35 668.73,-113.73 637.31,-88.36"/>
<polygon fill="#63b8ff" stroke="#63b8ff" points="639.31,-85.48 629.33,-81.92 634.92,-90.93 639.31,-85.48"/>
</a>
</g>
</g>
<!-- Node15&#45;&gt;Node8 -->
<g id="edge36_Node000015_Node000008" class="edge">
<title>Node15&#45;&gt;Node8</title>
<g id="a_edge36_Node000015_Node000008"><a xlink:title=" ">
<path fill="none" stroke="#63b8ff" d="M713.22,-189.13C666.12,-179.15 602.74,-165.72 553.57,-155.3"/>
<polygon fill="#63b8ff" stroke="#63b8ff" points="554.13,-151.84 543.62,-153.19 552.68,-158.68 554.13,-151.84"/>
</a>
</g>
</g>
</g>
</svg>
