<?xml version="1.0" encoding="UTF-8" standalone="no"?>
<!DOCTYPE svg PUBLIC "-//W3C//DTD SVG 1.1//EN"
 "http://www.w3.org/Graphics/SVG/1.1/DTD/svg11.dtd">
<!-- Generated by graphviz version 2.43.0 (0)
 -->
<!-- Title: include/helios/input/types/_module.ixx Pages: 1 -->
<svg width="306pt" height="93pt"
 viewBox="0.00 0.00 305.50 93.00" xmlns="http://www.w3.org/2000/svg" xmlns:xlink="http://www.w3.org/1999/xlink">
<g id="graph0" class="graph" transform="scale(1 1) rotate(0) translate(4 89)">
<title>include/helios/input/types/_module.ixx</title>
<!-- Node1 -->
<g id="Node000001" class="node">
<title>Node1</title>
<g id="a_Node000001"><a xlink:title="Input type definitions module exports.">
<polygon fill="#999999" stroke="#666666" points="212,-85 100,-85 100,-55 212,-55 212,-85"/>
<text text-anchor="start" x="108" y="-73" font-family="Helvetica,sans-Serif" font-size="10.00">include/helios/input</text>
<text text-anchor="middle" x="156" y="-62" font-family="Helvetica,sans-Serif" font-size="10.00">/types/_module.ixx</text>
</a>
</g>
</g>
<!-- Node2 -->
<g id="Node000002" class="node">
<title>Node2</title>
<g id="a_Node000002"><a xlink:href="Gamepad_8ixx.html" target="_top" xlink:title="Identifiers for supported gamepads.">
<polygon fill="white" stroke="#666666" points="154,-19 0,-19 0,0 154,0 154,-19"/>
<text text-anchor="middle" x="77" y="-7" font-family="Helvetica,sans-Serif" font-size="10.00">helios.input.types.Gamepad</text>
</a>
</g>
</g>
<!-- Node1&#45;&gt;Node2 -->
<g id="edge1_Node000001_Node000002" class="edge">
<title>Node1&#45;&gt;Node2</title>
<g id="a_edge1_Node000001_Node000002"><a xlink:title=" ">
<path fill="none" stroke="#63b8ff" d="M136.88,-54.84C124.82,-45.91 109.29,-34.41 97.06,-25.35"/>
<polygon fill="#63b8ff" stroke="#63b8ff" points="98.96,-22.4 88.84,-19.27 94.79,-28.03 98.96,-22.4"/>
</a>
</g>
</g>
<!-- Node3 -->
<g id="Node000003" class="node">
<title>Node3</title>
<g id="a_Node000003"><a xlink:href="Key_8ixx.html" target="_top" xlink:title="Key code definitions used across input adapters.">
<polygon fill="white" stroke="#666666" points="297.5,-19 172.5,-19 172.5,0 297.5,0 297.5,-19"/>
<text text-anchor="middle" x="235" y="-7" font-family="Helvetica,sans-Serif" font-size="10.00">helios.input.types.Key</text>
</a>
</g>
</g>
<!-- Node1&#45;&gt;Node3 -->
<g id="edge2_Node000001_Node000003" class="edge">
<title>Node1&#45;&gt;Node3</title>
<g id="a_edge2_Node000001_Node000003"><a xlink:title=" ">
<path fill="none" stroke="#63b8ff" d="M175.12,-54.84C187.18,-45.91 202.71,-34.41 214.94,-25.35"/>
<polygon fill="#63b8ff" stroke="#63b8ff" points="217.21,-28.03 223.16,-19.27 213.04,-22.4 217.21,-28.03"/>
</a>
</g>
</g>
</g>
</svg>
