<?xml version="1.0" encoding="UTF-8" standalone="no"?>
<!DOCTYPE svg PUBLIC "-//W3C//DTD SVG 1.1//EN"
 "http://www.w3.org/Graphics/SVG/1.1/DTD/svg11.dtd">
<!-- Generated by graphviz version 2.43.0 (0)
 -->
<!-- Title: include/helios/rendering/model/config/_module.ixx Pages: 1 -->
<svg width="617pt" height="236pt"
 viewBox="0.00 0.00 617.00 236.00" xmlns="http://www.w3.org/2000/svg" xmlns:xlink="http://www.w3.org/1999/xlink">
<g id="graph0" class="graph" transform="scale(1 1) rotate(0) translate(4 232)">
<title>include/helios/rendering/model/config/_module.ixx</title>
<!-- Node1 -->
<g id="Node000001" class="node">
<title>Node1</title>
<g id="a_Node000001"><a xlink:title="Module exports for configuration structures for model/material.">
<polygon fill="#999999" stroke="#666666" points="435,-228 289,-228 289,-198 435,-198 435,-228"/>
<text text-anchor="start" x="297" y="-216" font-family="Helvetica,sans-Serif" font-size="10.00">include/helios/rendering</text>
<text text-anchor="middle" x="362" y="-205" font-family="Helvetica,sans-Serif" font-size="10.00">/model/config/_module.ixx</text>
</a>
</g>
</g>
<!-- Node2 -->
<g id="Node000002" class="node">
<title>Node2</title>
<g id="a_Node000002"><a xlink:href="MaterialPropertiesOverride_8ixx.html" target="_top" xlink:title="Overrides for material properties to customize rendering parameters.">
<polygon fill="white" stroke="#666666" points="207,-162 43,-162 43,-132 207,-132 207,-162"/>
<text text-anchor="start" x="51" y="-150" font-family="Helvetica,sans-Serif" font-size="10.00">helios.rendering.model.config.</text>
<text text-anchor="middle" x="125" y="-139" font-family="Helvetica,sans-Serif" font-size="10.00">MaterialPropertiesOverride</text>
</a>
</g>
</g>
<!-- Node1&#45;&gt;Node2 -->
<g id="edge1_Node000001_Node000002" class="edge">
<title>Node1&#45;&gt;Node2</title>
<g id="a_edge1_Node000001_Node000002"><a xlink:title=" ">
<path fill="none" stroke="#63b8ff" d="M309.99,-197.95C273.72,-188.16 225.15,-175.05 186.89,-164.71"/>
<polygon fill="#63b8ff" stroke="#63b8ff" points="187.46,-161.24 176.89,-162.01 185.63,-168 187.46,-161.24"/>
</a>
</g>
</g>
<!-- Node9 -->
<g id="Node000009" class="node">
<title>Node9</title>
<g id="a_Node000009"><a xlink:href="MaterialProperties_8ixx.html" target="_top" xlink:title="Default material properties used by materials and instances.">
<polygon fill="white" stroke="#666666" points="389,-162 225,-162 225,-132 389,-132 389,-162"/>
<text text-anchor="start" x="233" y="-150" font-family="Helvetica,sans-Serif" font-size="10.00">helios.rendering.model.config.</text>
<text text-anchor="middle" x="307" y="-139" font-family="Helvetica,sans-Serif" font-size="10.00">MaterialProperties</text>
</a>
</g>
</g>
<!-- Node1&#45;&gt;Node9 -->
<g id="edge12_Node000001_Node000009" class="edge">
<title>Node1&#45;&gt;Node9</title>
<g id="a_edge12_Node000001_Node000009"><a xlink:title=" ">
<path fill="none" stroke="#63b8ff" d="M349.79,-197.8C342.74,-189.59 333.73,-179.1 325.79,-169.87"/>
<polygon fill="#63b8ff" stroke="#63b8ff" points="328.34,-167.47 319.17,-162.16 323.04,-172.03 328.34,-167.47"/>
</a>
</g>
</g>
<!-- Node10 -->
<g id="Node000010" class="node">
<title>Node10</title>
<g id="a_Node000010"><a xlink:href="MeshConfig_8ixx.html" target="_top" xlink:title="Mesh configuration including primitive type.">
<polygon fill="white" stroke="#666666" points="609,-162 445,-162 445,-132 609,-132 609,-162"/>
<text text-anchor="start" x="453" y="-150" font-family="Helvetica,sans-Serif" font-size="10.00">helios.rendering.model.config.</text>
<text text-anchor="middle" x="527" y="-139" font-family="Helvetica,sans-Serif" font-size="10.00">MeshConfig</text>
</a>
</g>
</g>
<!-- Node1&#45;&gt;Node10 -->
<g id="edge16_Node000001_Node000010" class="edge">
<title>Node1&#45;&gt;Node10</title>
<g id="a_edge16_Node000001_Node000010"><a xlink:title=" ">
<path fill="none" stroke="#63b8ff" d="M398.21,-197.95C422.71,-188.45 455.27,-175.82 481.52,-165.64"/>
<polygon fill="#63b8ff" stroke="#63b8ff" points="482.82,-168.89 490.87,-162.01 480.29,-162.37 482.82,-168.89"/>
</a>
</g>
</g>
<!-- Node11 -->
<g id="Node000011" class="node">
<title>Node11</title>
<g id="a_Node000011"><a xlink:href="PrimitiveType_8ixx.html" target="_top" xlink:title="Enum of primitive types for mesh rendering.">
<polygon fill="white" stroke="#666666" points="603,-96 439,-96 439,-66 603,-66 603,-96"/>
<text text-anchor="start" x="447" y="-84" font-family="Helvetica,sans-Serif" font-size="10.00">helios.rendering.model.config.</text>
<text text-anchor="middle" x="521" y="-73" font-family="Helvetica,sans-Serif" font-size="10.00">PrimitiveType</text>
</a>
</g>
</g>
<!-- Node1&#45;&gt;Node11 -->
<g id="edge18_Node000001_Node000011" class="edge">
<title>Node1&#45;&gt;Node11</title>
<g id="a_edge18_Node000001_Node000011"><a xlink:title=" ">
<path fill="none" stroke="#63b8ff" d="M372.96,-197.81C386.54,-180.83 410.95,-152.17 436,-132 450.47,-120.35 467.93,-109.59 483.26,-101.07"/>
<polygon fill="#63b8ff" stroke="#63b8ff" points="485.37,-103.91 492.49,-96.06 482.03,-97.76 485.37,-103.91"/>
</a>
</g>
</g>
<!-- Node3 -->
<g id="Node000003" class="node">
<title>Node3</title>
<g id="a_Node000003"><a xlink:title=" ">
<polygon fill="#e0e0e0" stroke="#999999" points="56,-24.5 0,-24.5 0,-5.5 56,-5.5 56,-24.5"/>
<text text-anchor="middle" x="28" y="-12.5" font-family="Helvetica,sans-Serif" font-size="10.00">optional</text>
</a>
</g>
</g>
<!-- Node2&#45;&gt;Node3 -->
<g id="edge2_Node000002_Node000003" class="edge">
<title>Node2&#45;&gt;Node3</title>
<g id="a_edge2_Node000002_Node000003"><a xlink:title=" ">
<path fill="none" stroke="#63b8ff" d="M114.43,-131.84C96.43,-107.71 59.87,-58.71 40.57,-32.85"/>
<polygon fill="#63b8ff" stroke="#63b8ff" points="43.31,-30.67 34.53,-24.75 37.7,-34.86 43.31,-30.67"/>
</a>
</g>
</g>
<!-- Node4 -->
<g id="Node000004" class="node">
<title>Node4</title>
<g id="a_Node000004"><a xlink:href="UniformSemantics_8ixx.html" target="_top" xlink:title="Definitions of uniform semantics used by shaders.">
<polygon fill="white" stroke="#666666" points="208,-30 74,-30 74,0 208,0 208,-30"/>
<text text-anchor="start" x="82" y="-18" font-family="Helvetica,sans-Serif" font-size="10.00">helios.rendering.shader.</text>
<text text-anchor="middle" x="141" y="-7" font-family="Helvetica,sans-Serif" font-size="10.00">UniformSemantics</text>
</a>
</g>
</g>
<!-- Node2&#45;&gt;Node4 -->
<g id="edge3_Node000002_Node000004" class="edge">
<title>Node2&#45;&gt;Node4</title>
<g id="a_edge3_Node000002_Node000004"><a xlink:title=" ">
<path fill="none" stroke="#63b8ff" d="M126.74,-131.84C129.45,-109.86 134.69,-67.27 138.01,-40.3"/>
<polygon fill="#63b8ff" stroke="#63b8ff" points="141.51,-40.49 139.26,-30.14 134.56,-39.64 141.51,-40.49"/>
</a>
</g>
</g>
<!-- Node5 -->
<g id="Node000005" class="node">
<title>Node5</title>
<g id="a_Node000005"><a xlink:href="UniformValueMap_8ixx.html" target="_top" xlink:title="Mapping of uniform names to values used by shader programs.">
<polygon fill="white" stroke="#666666" points="325,-96 191,-96 191,-66 325,-66 325,-96"/>
<text text-anchor="start" x="199" y="-84" font-family="Helvetica,sans-Serif" font-size="10.00">helios.rendering.shader.</text>
<text text-anchor="middle" x="258" y="-73" font-family="Helvetica,sans-Serif" font-size="10.00">UniformValueMap</text>
</a>
</g>
</g>
<!-- Node2&#45;&gt;Node5 -->
<g id="edge4_Node000002_Node000005" class="edge">
<title>Node2&#45;&gt;Node5</title>
<g id="a_edge4_Node000002_Node000005"><a xlink:title=" ">
<path fill="none" stroke="#63b8ff" d="M154.19,-131.95C173.42,-122.7 198.8,-110.49 219.66,-100.45"/>
<polygon fill="#63b8ff" stroke="#63b8ff" points="221.39,-103.5 228.88,-96.01 218.35,-97.19 221.39,-103.5"/>
</a>
</g>
</g>
<!-- Node8 -->
<g id="Node000008" class="node">
<title>Node8</title>
<g id="a_Node000008"><a xlink:href="helios_2math_2types_2__module_8ixx.html" target="_top" xlink:title="Module exports for vector and matrix type definitions.">
<polygon fill="white" stroke="#666666" points="460,-24.5 356,-24.5 356,-5.5 460,-5.5 460,-24.5"/>
<text text-anchor="middle" x="408" y="-12.5" font-family="Helvetica,sans-Serif" font-size="10.00">helios.math.types</text>
</a>
</g>
</g>
<!-- Node2&#45;&gt;Node8 -->
<g id="edge11_Node000002_Node000008" class="edge">
<title>Node2&#45;&gt;Node8</title>
<g id="a_edge11_Node000002_Node000008"><a xlink:title=" ">
<path fill="none" stroke="#63b8ff" d="M204.47,-131.95C253.85,-122.27 311.98,-108.89 334,-96 348.28,-87.64 377.59,-53.36 394.73,-32.48"/>
<polygon fill="#63b8ff" stroke="#63b8ff" points="397.45,-34.68 401.04,-24.72 392.02,-30.26 397.45,-34.68"/>
</a>
</g>
</g>
<!-- Node5&#45;&gt;Node3 -->
<g id="edge6_Node000005_Node000003" class="edge">
<title>Node5&#45;&gt;Node3</title>
<g id="a_edge6_Node000005_Node000003"><a xlink:title=" ">
<path fill="none" stroke="#63b8ff" d="M196.67,-65.91C158.5,-56.7 108.54,-43.83 65,-30 63.09,-29.39 61.13,-28.74 59.16,-28.06"/>
<polygon fill="#63b8ff" stroke="#63b8ff" points="59.98,-24.64 49.38,-24.54 57.6,-31.22 59.98,-24.64"/>
</a>
</g>
</g>
<!-- Node5&#45;&gt;Node4 -->
<g id="edge10_Node000005_Node000004" class="edge">
<title>Node5&#45;&gt;Node4</title>
<g id="a_edge10_Node000005_Node000004"><a xlink:title=" ">
<path fill="none" stroke="#63b8ff" d="M232.32,-65.95C215.71,-56.87 193.88,-44.93 175.73,-35"/>
<polygon fill="#63b8ff" stroke="#63b8ff" points="177.07,-31.74 166.62,-30.01 173.71,-37.88 177.07,-31.74"/>
</a>
</g>
</g>
<!-- Node6 -->
<g id="Node000006" class="node">
<title>Node6</title>
<g id="a_Node000006"><a xlink:title=" ">
<polygon fill="#e0e0e0" stroke="#999999" points="338,-24.5 296,-24.5 296,-5.5 338,-5.5 338,-24.5"/>
<text text-anchor="middle" x="317" y="-12.5" font-family="Helvetica,sans-Serif" font-size="10.00">array</text>
</a>
</g>
</g>
<!-- Node5&#45;&gt;Node6 -->
<g id="edge5_Node000005_Node000006" class="edge">
<title>Node5&#45;&gt;Node6</title>
<g id="a_edge5_Node000005_Node000006"><a xlink:title=" ">
<path fill="none" stroke="#63b8ff" d="M271.09,-65.8C280.2,-55.92 292.37,-42.72 301.89,-32.39"/>
<polygon fill="#63b8ff" stroke="#63b8ff" points="304.64,-34.57 308.85,-24.84 299.5,-29.82 304.64,-34.57"/>
</a>
</g>
</g>
<!-- Node7 -->
<g id="Node000007" class="node">
<title>Node7</title>
<g id="a_Node000007"><a xlink:title=" ">
<polygon fill="#e0e0e0" stroke="#999999" points="277.5,-24.5 226.5,-24.5 226.5,-5.5 277.5,-5.5 277.5,-24.5"/>
<text text-anchor="middle" x="252" y="-12.5" font-family="Helvetica,sans-Serif" font-size="10.00">variant</text>
</a>
</g>
</g>
<!-- Node5&#45;&gt;Node7 -->
<g id="edge7_Node000005_Node000007" class="edge">
<title>Node5&#45;&gt;Node7</title>
<g id="a_edge7_Node000005_Node000007"><a xlink:title=" ">
<path fill="none" stroke="#63b8ff" d="M256.67,-65.8C255.82,-56.7 254.7,-44.79 253.77,-34.9"/>
<polygon fill="#63b8ff" stroke="#63b8ff" points="257.25,-34.47 252.83,-24.84 250.28,-35.13 257.25,-34.47"/>
</a>
</g>
</g>
<!-- Node5&#45;&gt;Node8 -->
<g id="edge8_Node000005_Node000008" class="edge">
<title>Node5&#45;&gt;Node8</title>
<g id="a_edge8_Node000005_Node000008"><a xlink:title=" ">
<path fill="none" stroke="#63b8ff" d="M290.92,-65.95C317.11,-54.78 353.42,-39.29 378.63,-28.53"/>
<polygon fill="#63b8ff" stroke="#63b8ff" points="380.21,-31.66 388.04,-24.52 377.47,-25.22 380.21,-31.66"/>
</a>
</g>
</g>
<!-- Node8&#45;&gt;Node8 -->
<g id="edge9_Node000008_Node000008" class="edge">
<title>Node8&#45;&gt;Node8</title>
<g id="a_edge9_Node000008_Node000008"><a xlink:title=" ">
<path fill="none" stroke="#63b8ff" d="M429.86,-24.56C452.56,-30.37 478,-27.18 478,-15 478,-4.58 459.39,-0.74 439.79,-3.48"/>
<polygon fill="#63b8ff" stroke="#63b8ff" points="439,-0.07 429.86,-5.44 440.35,-6.94 439,-0.07"/>
</a>
</g>
</g>
<!-- Node9&#45;&gt;Node4 -->
<g id="edge13_Node000009_Node000004" class="edge">
<title>Node9&#45;&gt;Node4</title>
<g id="a_edge13_Node000009_Node000004"><a xlink:title=" ">
<path fill="none" stroke="#63b8ff" d="M247.73,-131.91C225.13,-124.23 200.4,-112.76 182,-96 165.32,-80.8 154.4,-57.24 148.06,-39.62"/>
<polygon fill="#63b8ff" stroke="#63b8ff" points="151.34,-38.41 144.84,-30.04 144.7,-40.64 151.34,-38.41"/>
</a>
</g>
</g>
<!-- Node9&#45;&gt;Node5 -->
<g id="edge14_Node000009_Node000005" class="edge">
<title>Node9&#45;&gt;Node5</title>
<g id="a_edge14_Node000009_Node000005"><a xlink:title=" ">
<path fill="none" stroke="#63b8ff" d="M296.13,-131.8C289.91,-123.68 281.98,-113.31 274.96,-104.15"/>
<polygon fill="#63b8ff" stroke="#63b8ff" points="277.7,-101.98 268.84,-96.16 272.14,-106.23 277.7,-101.98"/>
</a>
</g>
</g>
<!-- Node9&#45;&gt;Node8 -->
<g id="edge15_Node000009_Node000008" class="edge">
<title>Node9&#45;&gt;Node8</title>
<g id="a_edge15_Node000009_Node000008"><a xlink:title=" ">
<path fill="none" stroke="#63b8ff" d="M329.55,-131.91C342.63,-122.88 358.7,-110.21 370,-96 384.91,-77.24 395.75,-51.67 401.95,-34.54"/>
<polygon fill="#63b8ff" stroke="#63b8ff" points="405.41,-35.25 405.35,-24.65 398.79,-32.97 405.41,-35.25"/>
</a>
</g>
</g>
<!-- Node10&#45;&gt;Node11 -->
<g id="edge17_Node000010_Node000011" class="edge">
<title>Node10&#45;&gt;Node11</title>
<g id="a_edge17_Node000010_Node000011"><a xlink:title=" ">
<path fill="none" stroke="#63b8ff" d="M525.67,-131.8C524.96,-124.26 524.07,-114.78 523.26,-106.13"/>
<polygon fill="#63b8ff" stroke="#63b8ff" points="526.75,-105.79 522.33,-96.16 519.78,-106.45 526.75,-105.79"/>
</a>
</g>
</g>
</g>
</svg>
