<?xml version="1.0" encoding="UTF-8" standalone="no"?>
<!DOCTYPE svg PUBLIC "-//W3C//DTD SVG 1.1//EN"
 "http://www.w3.org/Graphics/SVG/1.1/DTD/svg11.dtd">
<!-- Generated by graphviz version 2.43.0 (0)
 -->
<!-- Title: include/helios/core/_module.ixx Pages: 1 -->
<svg width="555pt" height="313pt"
 viewBox="0.00 0.00 554.98 313.00" xmlns="http://www.w3.org/2000/svg" xmlns:xlink="http://www.w3.org/1999/xlink">
<g id="graph0" class="graph" transform="scale(1 1) rotate(0) translate(4 309)">
<title>include/helios/core/_module.ixx</title>
<!-- Node1 -->
<g id="Node000001" class="node">
<title>Node1</title>
<g id="a_Node000001"><a xlink:title="Facade module for helios::core.">
<polygon fill="#999999" stroke="#666666" points="172.98,-305 64.98,-305 64.98,-275 172.98,-275 172.98,-305"/>
<text text-anchor="start" x="72.98" y="-293" font-family="Helvetica,sans-Serif" font-size="10.00">include/helios/core</text>
<text text-anchor="middle" x="118.98" y="-282" font-family="Helvetica,sans-Serif" font-size="10.00">/_module.ixx</text>
</a>
</g>
</g>
<!-- Node2 -->
<g id="Node000002" class="node">
<title>Node2</title>
<g id="a_Node000002"><a xlink:href="units_8ixx.html" target="_top" xlink:title="Canonical length units and conversion helpers for helios to keep spatial and temporal data consistent...">
<polygon fill="white" stroke="#666666" points="167.48,-239 70.48,-239 70.48,-220 167.48,-220 167.48,-239"/>
<text text-anchor="middle" x="118.98" y="-227" font-family="Helvetica,sans-Serif" font-size="10.00">helios.core.units</text>
</a>
</g>
</g>
<!-- Node1&#45;&gt;Node2 -->
<g id="edge1_Node000001_Node000002" class="edge">
<title>Node1&#45;&gt;Node2</title>
<g id="a_edge1_Node000001_Node000002"><a xlink:title=" ">
<path fill="none" stroke="#63b8ff" d="M118.98,-274.84C118.98,-267.21 118.98,-257.7 118.98,-249.45"/>
<polygon fill="#63b8ff" stroke="#63b8ff" points="122.48,-249.27 118.98,-239.27 115.48,-249.27 122.48,-249.27"/>
</a>
</g>
</g>
<!-- Node3 -->
<g id="Node000003" class="node">
<title>Node3</title>
<g id="a_Node000003"><a xlink:title=" ">
<polygon fill="#e0e0e0" stroke="#999999" points="196.98,-19 152.98,-19 152.98,0 196.98,0 196.98,-19"/>
<text text-anchor="middle" x="174.98" y="-7" font-family="Helvetica,sans-Serif" font-size="10.00">string</text>
</a>
</g>
</g>
<!-- Node2&#45;&gt;Node3 -->
<g id="edge2_Node000002_Node000003" class="edge">
<title>Node2&#45;&gt;Node3</title>
<g id="a_edge2_Node000002_Node000003"><a xlink:title=" ">
<path fill="none" stroke="#63b8ff" d="M106.28,-219.99C69.22,-194.11 -33.45,-114.49 11.98,-55 27.77,-34.32 99.93,-20.94 142.76,-14.66"/>
<polygon fill="#63b8ff" stroke="#63b8ff" points="143.3,-18.12 152.71,-13.26 142.32,-11.19 143.3,-18.12"/>
</a>
</g>
</g>
<!-- Node4 -->
<g id="Node000004" class="node">
<title>Node4</title>
<g id="a_Node000004"><a xlink:href="LogManager_8ixx.html" target="_top" xlink:title="Central manager for scoped loggers with configurable sinks.">
<polygon fill="white" stroke="#666666" points="317.98,-184 171.98,-184 171.98,-165 317.98,-165 317.98,-184"/>
<text text-anchor="middle" x="244.98" y="-172" font-family="Helvetica,sans-Serif" font-size="10.00">helios.util.log.LogManager</text>
</a>
</g>
</g>
<!-- Node2&#45;&gt;Node4 -->
<g id="edge3_Node000002_Node000004" class="edge">
<title>Node2&#45;&gt;Node4</title>
<g id="a_edge3_Node000002_Node000004"><a xlink:title=" ">
<path fill="none" stroke="#63b8ff" d="M139.22,-219.98C159.67,-211.38 191.51,-197.99 214.91,-188.15"/>
<polygon fill="#63b8ff" stroke="#63b8ff" points="216.5,-191.27 224.36,-184.17 213.79,-184.82 216.5,-191.27"/>
</a>
</g>
</g>
<!-- Node10 -->
<g id="Node000010" class="node">
<title>Node10</title>
<g id="a_Node000010"><a xlink:href="Logger_8ixx.html" target="_top" xlink:title="Simple synchronous logger with configurable output sinks.">
<polygon fill="white" stroke="#666666" points="178.48,-129 59.48,-129 59.48,-110 178.48,-110 178.48,-129"/>
<text text-anchor="middle" x="118.98" y="-117" font-family="Helvetica,sans-Serif" font-size="10.00">helios.util.log.Logger</text>
</a>
</g>
</g>
<!-- Node2&#45;&gt;Node10 -->
<g id="edge18_Node000002_Node000010" class="edge">
<title>Node2&#45;&gt;Node10</title>
<g id="a_edge18_Node000002_Node000010"><a xlink:title=" ">
<path fill="none" stroke="#63b8ff" d="M118.98,-219.66C118.98,-202.17 118.98,-162.8 118.98,-139.27"/>
<polygon fill="#63b8ff" stroke="#63b8ff" points="122.48,-139.16 118.98,-129.16 115.48,-139.16 122.48,-139.16"/>
</a>
</g>
</g>
<!-- Node4&#45;&gt;Node3 -->
<g id="edge4_Node000004_Node000003" class="edge">
<title>Node4&#45;&gt;Node3</title>
<g id="a_edge4_Node000004_Node000003"><a xlink:title=" ">
<path fill="none" stroke="#63b8ff" d="M318.17,-165.72C344.16,-159.53 371.71,-148.52 390.98,-129 414.62,-105.06 428.41,-80.94 406.98,-55 382.01,-24.79 265.03,-14.89 207.33,-11.81"/>
<polygon fill="#63b8ff" stroke="#63b8ff" points="207.44,-8.31 197.28,-11.31 207.1,-15.3 207.44,-8.31"/>
</a>
</g>
</g>
<!-- Node5 -->
<g id="Node000005" class="node">
<title>Node5</title>
<g id="a_Node000005"><a xlink:title=" ">
<polygon fill="#e0e0e0" stroke="#999999" points="366.48,-129 273.48,-129 273.48,-110 366.48,-110 366.48,-129"/>
<text text-anchor="middle" x="319.98" y="-117" font-family="Helvetica,sans-Serif" font-size="10.00">unordered_map</text>
</a>
</g>
</g>
<!-- Node4&#45;&gt;Node5 -->
<g id="edge5_Node000004_Node000005" class="edge">
<title>Node4&#45;&gt;Node5</title>
<g id="a_edge5_Node000004_Node000005"><a xlink:title=" ">
<path fill="none" stroke="#63b8ff" d="M257.03,-164.98C268.44,-156.92 285.81,-144.65 299.41,-135.03"/>
<polygon fill="#63b8ff" stroke="#63b8ff" points="301.56,-137.8 307.71,-129.17 297.52,-132.08 301.56,-137.8"/>
</a>
</g>
</g>
<!-- Node6 -->
<g id="Node000006" class="node">
<title>Node6</title>
<g id="a_Node000006"><a xlink:title=" ">
<polygon fill="#e0e0e0" stroke="#999999" points="546.98,-129 460.98,-129 460.98,-110 546.98,-110 546.98,-129"/>
<text text-anchor="middle" x="503.98" y="-117" font-family="Helvetica,sans-Serif" font-size="10.00">unordered_set</text>
</a>
</g>
</g>
<!-- Node4&#45;&gt;Node6 -->
<g id="edge6_Node000004_Node000006" class="edge">
<title>Node4&#45;&gt;Node6</title>
<g id="a_edge6_Node000004_Node000006"><a xlink:title=" ">
<path fill="none" stroke="#63b8ff" d="M286.59,-164.98C331.58,-155.78 403.36,-141.09 452.02,-131.13"/>
<polygon fill="#63b8ff" stroke="#63b8ff" points="452.94,-134.52 462.04,-129.08 451.54,-127.66 452.94,-134.52"/>
</a>
</g>
</g>
<!-- Node7 -->
<g id="Node000007" class="node">
<title>Node7</title>
<g id="a_Node000007"><a xlink:title=" ">
<polygon fill="#e0e0e0" stroke="#999999" points="397.98,-74 339.98,-74 339.98,-55 397.98,-55 397.98,-74"/>
<text text-anchor="middle" x="368.98" y="-62" font-family="Helvetica,sans-Serif" font-size="10.00">memory</text>
</a>
</g>
</g>
<!-- Node4&#45;&gt;Node7 -->
<g id="edge7_Node000004_Node000007" class="edge">
<title>Node4&#45;&gt;Node7</title>
<g id="a_edge7_Node000004_Node000007"><a xlink:title=" ">
<path fill="none" stroke="#63b8ff" d="M318.24,-164.91C340.05,-158.55 361.66,-147.63 374.98,-129 384.22,-116.06 381.21,-97.66 376.78,-83.99"/>
<polygon fill="#63b8ff" stroke="#63b8ff" points="379.91,-82.38 373.13,-74.24 373.36,-84.83 379.91,-82.38"/>
</a>
</g>
</g>
<!-- Node8 -->
<g id="Node000008" class="node">
<title>Node8</title>
<g id="a_Node000008"><a xlink:title=" ">
<polygon fill="#e0e0e0" stroke="#999999" points="68.98,-74 20.98,-74 20.98,-55 68.98,-55 68.98,-74"/>
<text text-anchor="middle" x="44.98" y="-62" font-family="Helvetica,sans-Serif" font-size="10.00">mutex</text>
</a>
</g>
</g>
<!-- Node4&#45;&gt;Node8 -->
<g id="edge8_Node000004_Node000008" class="edge">
<title>Node4&#45;&gt;Node8</title>
<g id="a_edge8_Node000004_Node000008"><a xlink:title=" ">
<path fill="none" stroke="#63b8ff" d="M171.97,-165.84C123.51,-159.14 65.98,-147.53 49.98,-129 39.48,-116.85 39.28,-98.06 41.08,-84.06"/>
<polygon fill="#63b8ff" stroke="#63b8ff" points="44.55,-84.54 42.78,-74.09 37.65,-83.36 44.55,-84.54"/>
</a>
</g>
</g>
<!-- Node9 -->
<g id="Node000009" class="node">
<title>Node9</title>
<g id="a_Node000009"><a xlink:title=" ">
<polygon fill="#e0e0e0" stroke="#999999" points="172.48,-74 125.48,-74 125.48,-55 172.48,-55 172.48,-74"/>
<text text-anchor="middle" x="148.98" y="-62" font-family="Helvetica,sans-Serif" font-size="10.00">vector</text>
</a>
</g>
</g>
<!-- Node4&#45;&gt;Node9 -->
<g id="edge9_Node000004_Node000009" class="edge">
<title>Node4&#45;&gt;Node9</title>
<g id="a_edge9_Node000004_Node000009"><a xlink:title=" ">
<path fill="none" stroke="#63b8ff" d="M237.12,-164.66C221.01,-146.54 184.01,-104.91 163.44,-81.77"/>
<polygon fill="#63b8ff" stroke="#63b8ff" points="165.93,-79.31 156.67,-74.16 160.7,-83.96 165.93,-79.31"/>
</a>
</g>
</g>
<!-- Node4&#45;&gt;Node10 -->
<g id="edge10_Node000004_Node000010" class="edge">
<title>Node4&#45;&gt;Node10</title>
<g id="a_edge10_Node000004_Node000010"><a xlink:title=" ">
<path fill="none" stroke="#63b8ff" d="M224.73,-164.98C204.28,-156.38 172.45,-142.99 149.04,-133.15"/>
<polygon fill="#63b8ff" stroke="#63b8ff" points="150.16,-129.82 139.59,-129.17 147.45,-136.27 150.16,-129.82"/>
</a>
</g>
</g>
<!-- Node11 -->
<g id="Node000011" class="node">
<title>Node11</title>
<g id="a_Node000011"><a xlink:href="LogSink_8ixx.html" target="_top" xlink:title="Abstract interface for log output destinations.">
<polygon fill="white" stroke="#666666" points="314.98,-74 190.98,-74 190.98,-55 314.98,-55 314.98,-74"/>
<text text-anchor="middle" x="252.98" y="-62" font-family="Helvetica,sans-Serif" font-size="10.00">helios.util.log.LogSink</text>
</a>
</g>
</g>
<!-- Node4&#45;&gt;Node11 -->
<g id="edge17_Node000004_Node000011" class="edge">
<title>Node4&#45;&gt;Node11</title>
<g id="a_edge17_Node000004_Node000011"><a xlink:title=" ">
<path fill="none" stroke="#63b8ff" d="M245.63,-164.66C246.93,-147.17 249.84,-107.8 251.59,-84.27"/>
<polygon fill="#63b8ff" stroke="#63b8ff" points="255.09,-84.39 252.34,-74.16 248.11,-83.87 255.09,-84.39"/>
</a>
</g>
</g>
<!-- Node10&#45;&gt;Node3 -->
<g id="edge11_Node000010_Node000003" class="edge">
<title>Node10&#45;&gt;Node3</title>
<g id="a_edge11_Node000010_Node000003"><a xlink:title=" ">
<path fill="none" stroke="#63b8ff" d="M116,-109.73C112.2,-96.95 107.12,-72.78 115.98,-55 122.54,-41.82 135.08,-31.52 146.91,-24.16"/>
<polygon fill="#63b8ff" stroke="#63b8ff" points="148.78,-27.12 155.71,-19.1 145.3,-21.05 148.78,-27.12"/>
</a>
</g>
</g>
<!-- Node10&#45;&gt;Node7 -->
<g id="edge13_Node000010_Node000007" class="edge">
<title>Node10&#45;&gt;Node7</title>
<g id="a_edge13_Node000010_Node000007"><a xlink:title=" ">
<path fill="none" stroke="#63b8ff" d="M159.14,-109.98C206.11,-100.03 283.33,-83.66 329.84,-73.8"/>
<polygon fill="#63b8ff" stroke="#63b8ff" points="330.79,-77.17 339.84,-71.68 329.34,-70.33 330.79,-77.17"/>
</a>
</g>
</g>
<!-- Node10&#45;&gt;Node8 -->
<g id="edge14_Node000010_Node000008" class="edge">
<title>Node10&#45;&gt;Node8</title>
<g id="a_edge14_Node000010_Node000008"><a xlink:title=" ">
<path fill="none" stroke="#63b8ff" d="M107.09,-109.98C95.83,-101.92 78.69,-89.65 65.27,-80.03"/>
<polygon fill="#63b8ff" stroke="#63b8ff" points="67.25,-77.15 57.08,-74.17 63.18,-82.84 67.25,-77.15"/>
</a>
</g>
</g>
<!-- Node10&#45;&gt;Node9 -->
<g id="edge12_Node000010_Node000009" class="edge">
<title>Node10&#45;&gt;Node9</title>
<g id="a_edge12_Node000010_Node000009"><a xlink:title=" ">
<path fill="none" stroke="#63b8ff" d="M123.93,-109.75C128.04,-102.49 134,-91.95 139.08,-82.98"/>
<polygon fill="#63b8ff" stroke="#63b8ff" points="142.24,-84.52 144.12,-74.09 136.14,-81.07 142.24,-84.52"/>
</a>
</g>
</g>
<!-- Node10&#45;&gt;Node11 -->
<g id="edge15_Node000010_Node000011" class="edge">
<title>Node10&#45;&gt;Node11</title>
<g id="a_edge15_Node000010_Node000011"><a xlink:title=" ">
<path fill="none" stroke="#63b8ff" d="M140.51,-109.98C162.45,-101.3 196.72,-87.75 221.67,-77.88"/>
<polygon fill="#63b8ff" stroke="#63b8ff" points="223.04,-81.1 231.06,-74.17 220.47,-74.59 223.04,-81.1"/>
</a>
</g>
</g>
<!-- Node11&#45;&gt;Node3 -->
<g id="edge16_Node000011_Node000003" class="edge">
<title>Node11&#45;&gt;Node3</title>
<g id="a_edge16_Node000011_Node000003"><a xlink:title=" ">
<path fill="none" stroke="#63b8ff" d="M240.45,-54.98C228.58,-46.92 210.51,-34.65 196.37,-25.03"/>
<polygon fill="#63b8ff" stroke="#63b8ff" points="197.98,-21.9 187.74,-19.17 194.04,-27.69 197.98,-21.9"/>
</a>
</g>
</g>
</g>
</svg>
