<?xml version="1.0" encoding="UTF-8" standalone="no"?>
<!DOCTYPE svg PUBLIC "-//W3C//DTD SVG 1.1//EN"
 "http://www.w3.org/Graphics/SVG/1.1/DTD/svg11.dtd">
<!-- Generated by graphviz version 2.43.0 (0)
 -->
<!-- Title: include/helios/event/_module.ixx Pages: 1 -->
<!--zoomable 368 -->

<svg id="main" version="1.1" xmlns="http://www.w3.org/2000/svg" xmlns:xlink="http://www.w3.org/1999/xlink" xml:space="preserve" onload="init(evt)">

<style type="text/css"><![CDATA[
.node, .edge {opacity: 0.7;}
.node.selected, .edge.selected {opacity: 1;}
.edge:hover path { stroke: red; }
.edge:hover polygon { stroke: red; fill: red; }
]]></style>

<defs>
  <circle id="rim" cx="0" cy="0" r="7"/>
  <circle id="rim2" cx="0" cy="0" r="3.5"/>
  <g id="zoomPlus">
    <use xlink:href="#rim" fill="#404040"><set attributeName="fill" to="#808080" begin="zoomplus.mouseover" end="zoomplus.mouseout"/></use>
    <path d="M-4,0h8M0,-4v8" fill="none" stroke="white" stroke-width="1.5" pointer-events="none"/>
  </g>
  <g id="zoomMin">
    <use xlink:href="#rim" fill="#404040"><set attributeName="fill" to="#808080" begin="zoomminus.mouseover" end="zoomminus.mouseout"/></use>
    <path d="M-4,0h8" fill="none" stroke="white" stroke-width="1.5" pointer-events="none"/>
  </g>
  <g id="arrowUp" transform="translate(30 24)">
    <use xlink:href="#rim"/>
    <path pointer-events="none" fill="none" stroke="white" stroke-width="1.5" d="M0,-3.0v7 M-2.5,-0.5L0,-3.0L2.5,-0.5"/>
  </g>
  <g id="arrowRight" transform="rotate(90) translate(36 -43)">
    <use xlink:href="#rim"/>
    <path pointer-events="none" fill="none" stroke="white" stroke-width="1.5" d="M0,-3.0v7 M-2.5,-0.5L0,-3.0L2.5,-0.5"/>
  </g>
  <g id="arrowDown" transform="rotate(180) translate(-30 -48)">
    <use xlink:href="#rim"/>
    <path pointer-events="none" fill="none" stroke="white" stroke-width="1.5" d="M0,-3.0v7 M-2.5,-0.5L0,-3.0L2.5,-0.5"/>
  </g>
  <g id="arrowLeft" transform="rotate(270) translate(-36 17)">
    <use xlink:href="#rim"/>
    <path pointer-events="none" fill="none" stroke="white" stroke-width="1.5" d="M0,-3.0v7 M-2.5,-0.5L0,-3.0L2.5,-0.5"/>
  </g>
  <g id="resetDef">
    <use xlink:href="#rim2" fill="#404040"><set attributeName="fill" to="#808080" begin="reset.mouseover" end="reset.mouseout"/></use>
  </g>
</defs>
<script type="application/ecmascript">
var viewWidth = 1224;
var viewHeight = 368;
var sectionId = 'dynsection-0';
</script>
<script type="application/ecmascript" xlink:href="svg.min.js"/>
<svg id="graph" class="graph">
<g id="viewport">
<title>include/helios/event/_module.ixx</title>
<!-- Node1 -->
<g id="Node000001" class="node">
<title>Node1</title>
<g id="a_Node000001"><a xlink:title="Event system module exports.">
<polygon fill="#999999" stroke="#666666" points="428.04,-360 313.04,-360 313.04,-330 428.04,-330 428.04,-360"/>
<text text-anchor="start" x="321.04" y="-348" font-family="Helvetica,sans-Serif" font-size="10.00">include/helios/event</text>
<text text-anchor="middle" x="370.54" y="-337" font-family="Helvetica,sans-Serif" font-size="10.00">/_module.ixx</text>
</a>
</g>
</g>
<!-- Node2 -->
<g id="Node000002" class="node">
<title>Node2</title>
<g id="a_Node000002"><a xlink:href="Event_8ixx.html" target="_top" xlink:title="Base class for events in the helios framework.">
<polygon fill="white" stroke="#666666" points="366.04,-129 259.04,-129 259.04,-110 366.04,-110 366.04,-129"/>
<text text-anchor="middle" x="312.54" y="-117" font-family="Helvetica,sans-Serif" font-size="10.00">helios.event.Event</text>
</a>
</g>
</g>
<!-- Node1&#45;&gt;Node2 -->
<g id="edge1_Node000001_Node000002" class="edge">
<title>Node1&#45;&gt;Node2</title>
<g id="a_edge1_Node000001_Node000002"><a xlink:title=" ">
<path fill="none" stroke="#63b8ff" d="M312.72,-335.36C221.59,-320.43 51.22,-286.76 15.54,-239 -4.14,-212.65 -5.92,-189.92 15.54,-165 45.01,-130.78 170.58,-122.5 248.71,-120.72"/>
<polygon fill="#63b8ff" stroke="#63b8ff" points="249,-124.21 258.93,-120.51 248.86,-117.21 249,-124.21"/>
</a>
</g>
</g>
<!-- Node8 -->
<g id="Node000008" class="node">
<title>Node8</title>
<g id="a_Node000008"><a xlink:href="Dispatcher_8ixx.html" target="_top" xlink:title="Dispatches events to registered callbacks.">
<polygon fill="white" stroke="#666666" points="608.54,-184 476.54,-184 476.54,-165 608.54,-165 608.54,-184"/>
<text text-anchor="middle" x="542.54" y="-172" font-family="Helvetica,sans-Serif" font-size="10.00">helios.event.Dispatcher</text>
</a>
</g>
</g>
<!-- Node1&#45;&gt;Node8 -->
<g id="edge7_Node000001_Node000008" class="edge">
<title>Node1&#45;&gt;Node8</title>
<g id="a_edge7_Node000001_Node000008"><a xlink:title=" ">
<path fill="none" stroke="#63b8ff" d="M428.24,-340.13C461.63,-334.74 501.66,-322.32 525.54,-294 549.25,-265.89 548.31,-220.04 545.46,-194.4"/>
<polygon fill="#63b8ff" stroke="#63b8ff" points="548.89,-193.62 544.11,-184.17 541.95,-194.54 548.89,-193.62"/>
</a>
</g>
</g>
<!-- Node11 -->
<g id="Node000011" class="node">
<title>Node11</title>
<g id="a_Node000011"><a xlink:href="DequeEventQueue_8ixx.html" target="_top" xlink:title="Double&#45;ended event queue implementation.">
<polygon fill="white" stroke="#666666" points="194.54,-239 24.54,-239 24.54,-220 194.54,-220 194.54,-239"/>
<text text-anchor="middle" x="109.54" y="-227" font-family="Helvetica,sans-Serif" font-size="10.00">helios.event.DequeEventQueue</text>
</a>
</g>
</g>
<!-- Node1&#45;&gt;Node11 -->
<g id="edge12_Node000001_Node000011" class="edge">
<title>Node1&#45;&gt;Node11</title>
<g id="a_edge12_Node000001_Node000011"><a xlink:title=" ">
<path fill="none" stroke="#63b8ff" d="M338.28,-329.97C287.11,-307.72 188.12,-264.67 138.86,-243.25"/>
<polygon fill="#63b8ff" stroke="#63b8ff" points="139.99,-239.92 129.42,-239.14 137.2,-246.34 139.99,-239.92"/>
</a>
</g>
</g>
<!-- Node13 -->
<g id="Node000013" class="node">
<title>Node13</title>
<g id="a_Node000013"><a xlink:href="EventQueue_8ixx.html" target="_top" xlink:title="Thread&#45;safe queue for Event objects.">
<polygon fill="white" stroke="#666666" points="382.04,-184 243.04,-184 243.04,-165 382.04,-165 382.04,-184"/>
<text text-anchor="middle" x="312.54" y="-172" font-family="Helvetica,sans-Serif" font-size="10.00">helios.event.EventQueue</text>
</a>
</g>
</g>
<!-- Node1&#45;&gt;Node13 -->
<g id="edge21_Node000001_Node000013" class="edge">
<title>Node1&#45;&gt;Node13</title>
<g id="a_edge21_Node000001_Node000013"><a xlink:title=" ">
<path fill="none" stroke="#63b8ff" d="M356.42,-329.97C347.84,-320.59 337.43,-307.53 331.54,-294 317.17,-261 313.54,-218.58 312.7,-194.48"/>
<polygon fill="#63b8ff" stroke="#63b8ff" points="316.2,-194.16 312.48,-184.24 309.2,-194.32 316.2,-194.16"/>
</a>
</g>
</g>
<!-- Node14 -->
<g id="Node000014" class="node">
<title>Node14</title>
<g id="a_Node000014"><a xlink:href="EventManager_8ixx.html" target="_top" xlink:title="High&#45;level event manager dispatching events to listeners.">
<polygon fill="white" stroke="#666666" points="787.54,-239 637.54,-239 637.54,-220 787.54,-220 787.54,-239"/>
<text text-anchor="middle" x="712.54" y="-227" font-family="Helvetica,sans-Serif" font-size="10.00">helios.event.EventManager</text>
</a>
</g>
</g>
<!-- Node1&#45;&gt;Node14 -->
<g id="edge22_Node000001_Node000014" class="edge">
<title>Node1&#45;&gt;Node14</title>
<g id="a_edge22_Node000001_Node000014"><a xlink:title=" ">
<path fill="none" stroke="#63b8ff" d="M428.3,-330.72C465.79,-321.59 515.5,-308.53 558.54,-294 603.54,-278.81 654.18,-256.98 684.71,-243.28"/>
<polygon fill="#63b8ff" stroke="#63b8ff" points="686.21,-246.44 693.88,-239.13 683.32,-240.06 686.21,-246.44"/>
</a>
</g>
</g>
<!-- Node23 -->
<g id="Node000023" class="node">
<title>Node23</title>
<g id="a_Node000023"><a xlink:href="BasicEventManager_8ixx.html" target="_top" xlink:title="Default implementation of an EventManager.">
<polygon fill="white" stroke="#666666" points="516.54,-294 340.54,-294 340.54,-275 516.54,-275 516.54,-294"/>
<text text-anchor="middle" x="428.54" y="-282" font-family="Helvetica,sans-Serif" font-size="10.00">helios.event.BasicEventManager</text>
</a>
</g>
</g>
<!-- Node1&#45;&gt;Node23 -->
<g id="edge45_Node000001_Node000023" class="edge">
<title>Node1&#45;&gt;Node23</title>
<g id="a_edge45_Node000001_Node000023"><a xlink:title=" ">
<path fill="none" stroke="#63b8ff" d="M384.58,-329.84C393.09,-321.26 403.96,-310.3 412.76,-301.42"/>
<polygon fill="#63b8ff" stroke="#63b8ff" points="415.3,-303.83 419.85,-294.27 410.32,-298.9 415.3,-303.83"/>
</a>
</g>
</g>
<!-- Node3 -->
<g id="Node000003" class="node">
<title>Node3</title>
<g id="a_Node000003"><a xlink:title=" ">
<polygon fill="#e0e0e0" stroke="#999999" points="640.54,-74 582.54,-74 582.54,-55 640.54,-55 640.54,-74"/>
<text text-anchor="middle" x="611.54" y="-62" font-family="Helvetica,sans-Serif" font-size="10.00">memory</text>
</a>
</g>
</g>
<!-- Node2&#45;&gt;Node3 -->
<g id="edge2_Node000002_Node000003" class="edge">
<title>Node2&#45;&gt;Node3</title>
<g id="a_edge2_Node000002_Node000003"><a xlink:title=" ">
<path fill="none" stroke="#63b8ff" d="M360.58,-109.98C419.36,-99.57 517.75,-82.13 572.24,-72.47"/>
<polygon fill="#63b8ff" stroke="#63b8ff" points="572.97,-75.89 582.2,-70.7 571.74,-69 572.97,-75.89"/>
</a>
</g>
</g>
<!-- Node4 -->
<g id="Node000004" class="node">
<title>Node4</title>
<g id="a_Node000004"><a xlink:title=" ">
<polygon fill="#e0e0e0" stroke="#999999" points="900.54,-19 856.54,-19 856.54,0 900.54,0 900.54,-19"/>
<text text-anchor="middle" x="878.54" y="-7" font-family="Helvetica,sans-Serif" font-size="10.00">string</text>
</a>
</g>
</g>
<!-- Node2&#45;&gt;Node4 -->
<g id="edge3_Node000002_Node000004" class="edge">
<title>Node2&#45;&gt;Node4</title>
<g id="a_edge3_Node000002_Node000004"><a xlink:title=" ">
<path fill="none" stroke="#63b8ff" d="M343.67,-109.92C392.39,-96.73 489.77,-71.27 573.54,-55 672.24,-35.84 790.36,-20.83 846.22,-14.2"/>
<polygon fill="#63b8ff" stroke="#63b8ff" points="846.7,-17.67 856.22,-13.03 845.88,-10.72 846.7,-17.67"/>
</a>
</g>
</g>
<!-- Node5 -->
<g id="Node000005" class="node">
<title>Node5</title>
<g id="a_Node000005"><a xlink:href="Guid_8ixx.html" target="_top" xlink:title="Lightweight GUID (globally unique identifier) implementation.">
<polygon fill="white" stroke="#666666" points="357.54,-74 267.54,-74 267.54,-55 357.54,-55 357.54,-74"/>
<text text-anchor="middle" x="312.54" y="-62" font-family="Helvetica,sans-Serif" font-size="10.00">helios.util.Guid</text>
</a>
</g>
</g>
<!-- Node2&#45;&gt;Node5 -->
<g id="edge4_Node000002_Node000005" class="edge">
<title>Node2&#45;&gt;Node5</title>
<g id="a_edge4_Node000002_Node000005"><a xlink:title=" ">
<path fill="none" stroke="#63b8ff" d="M312.54,-109.75C312.54,-102.8 312.54,-92.85 312.54,-84.13"/>
<polygon fill="#63b8ff" stroke="#63b8ff" points="316.04,-84.09 312.54,-74.09 309.04,-84.09 316.04,-84.09"/>
</a>
</g>
</g>
<!-- Node6 -->
<g id="Node000006" class="node">
<title>Node6</title>
<g id="a_Node000006"><a xlink:title=" ">
<polygon fill="#e0e0e0" stroke="#999999" points="303.54,-19 253.54,-19 253.54,0 303.54,0 303.54,-19"/>
<text text-anchor="middle" x="278.54" y="-7" font-family="Helvetica,sans-Serif" font-size="10.00">atomic</text>
</a>
</g>
</g>
<!-- Node5&#45;&gt;Node6 -->
<g id="edge5_Node000005_Node000006" class="edge">
<title>Node5&#45;&gt;Node6</title>
<g id="a_edge5_Node000005_Node000006"><a xlink:title=" ">
<path fill="none" stroke="#63b8ff" d="M306.93,-54.75C302.22,-47.42 295.37,-36.73 289.57,-27.7"/>
<polygon fill="#63b8ff" stroke="#63b8ff" points="292.4,-25.62 284.05,-19.09 286.51,-29.4 292.4,-25.62"/>
</a>
</g>
</g>
<!-- Node7 -->
<g id="Node000007" class="node">
<title>Node7</title>
<g id="a_Node000007"><a xlink:title=" ">
<polygon fill="#e0e0e0" stroke="#999999" points="371.54,-19 321.54,-19 321.54,0 371.54,0 371.54,-19"/>
<text text-anchor="middle" x="346.54" y="-7" font-family="Helvetica,sans-Serif" font-size="10.00">cstdint</text>
</a>
</g>
</g>
<!-- Node5&#45;&gt;Node7 -->
<g id="edge6_Node000005_Node000007" class="edge">
<title>Node5&#45;&gt;Node7</title>
<g id="a_edge6_Node000005_Node000007"><a xlink:title=" ">
<path fill="none" stroke="#63b8ff" d="M318.16,-54.75C322.86,-47.42 329.72,-36.73 335.51,-27.7"/>
<polygon fill="#63b8ff" stroke="#63b8ff" points="338.58,-29.4 341.03,-19.09 332.69,-25.62 338.58,-29.4"/>
</a>
</g>
</g>
<!-- Node8&#45;&gt;Node2 -->
<g id="edge11_Node000008_Node000002" class="edge">
<title>Node8&#45;&gt;Node2</title>
<g id="a_edge11_Node000008_Node000002"><a xlink:title=" ">
<path fill="none" stroke="#63b8ff" d="M505.59,-164.98C465.97,-155.86 402.96,-141.33 359.77,-131.38"/>
<polygon fill="#63b8ff" stroke="#63b8ff" points="360.32,-127.92 349.78,-129.08 358.74,-134.74 360.32,-127.92"/>
</a>
</g>
</g>
<!-- Node8&#45;&gt;Node3 -->
<g id="edge9_Node000008_Node000003" class="edge">
<title>Node8&#45;&gt;Node3</title>
<g id="a_edge9_Node000008_Node000003"><a xlink:title=" ">
<path fill="none" stroke="#63b8ff" d="M543.63,-164.65C545.54,-151.77 550.41,-127.47 561.54,-110 568.88,-98.48 580.02,-88.15 589.93,-80.36"/>
<polygon fill="#63b8ff" stroke="#63b8ff" points="592.27,-82.98 598.19,-74.19 588.08,-77.37 592.27,-82.98"/>
</a>
</g>
</g>
<!-- Node9 -->
<g id="Node000009" class="node">
<title>Node9</title>
<g id="a_Node000009"><a xlink:title=" ">
<polygon fill="#e0e0e0" stroke="#999999" points="488.04,-129 423.04,-129 423.04,-110 488.04,-110 488.04,-129"/>
<text text-anchor="middle" x="455.54" y="-117" font-family="Helvetica,sans-Serif" font-size="10.00">functional</text>
</a>
</g>
</g>
<!-- Node8&#45;&gt;Node9 -->
<g id="edge8_Node000008_Node000009" class="edge">
<title>Node8&#45;&gt;Node9</title>
<g id="a_edge8_Node000008_Node000009"><a xlink:title=" ">
<path fill="none" stroke="#63b8ff" d="M528.56,-164.98C515.07,-156.77 494.41,-144.18 478.5,-134.49"/>
<polygon fill="#63b8ff" stroke="#63b8ff" points="480.13,-131.38 469.77,-129.17 476.49,-137.36 480.13,-131.38"/>
</a>
</g>
</g>
<!-- Node10 -->
<g id="Node000010" class="node">
<title>Node10</title>
<g id="a_Node000010"><a xlink:title=" ">
<polygon fill="#e0e0e0" stroke="#999999" points="636.04,-129 571.04,-129 571.04,-110 636.04,-110 636.04,-129"/>
<text text-anchor="middle" x="603.54" y="-117" font-family="Helvetica,sans-Serif" font-size="10.00">typeindex</text>
</a>
</g>
</g>
<!-- Node8&#45;&gt;Node10 -->
<g id="edge10_Node000008_Node000010" class="edge">
<title>Node8&#45;&gt;Node10</title>
<g id="a_edge10_Node000008_Node000010"><a xlink:title=" ">
<path fill="none" stroke="#63b8ff" d="M552.34,-164.98C561.36,-157.15 574.95,-145.34 585.86,-135.86"/>
<polygon fill="#63b8ff" stroke="#63b8ff" points="588.31,-138.37 593.56,-129.17 583.72,-133.09 588.31,-138.37"/>
</a>
</g>
</g>
<!-- Node11&#45;&gt;Node2 -->
<g id="edge16_Node000011_Node000002" class="edge">
<title>Node11&#45;&gt;Node2</title>
<g id="a_edge16_Node000011_Node000002"><a xlink:title=" ">
<path fill="none" stroke="#63b8ff" d="M114.52,-219.7C122.74,-205.97 140.47,-179.52 162.54,-165 188.42,-147.97 221.02,-137.29 249.2,-130.67"/>
<polygon fill="#63b8ff" stroke="#63b8ff" points="249.97,-134.08 258.97,-128.49 248.45,-127.25 249.97,-134.08"/>
</a>
</g>
</g>
<!-- Node11&#45;&gt;Node3 -->
<g id="edge15_Node000011_Node000003" class="edge">
<title>Node11&#45;&gt;Node3</title>
<g id="a_edge15_Node000011_Node000003"><a xlink:title=" ">
<path fill="none" stroke="#63b8ff" d="M111.56,-219.62C115.01,-206.25 123.19,-180.84 138.54,-165 176.85,-125.46 196.8,-125.81 249.54,-110 363.25,-75.92 504.55,-67.89 572.05,-66.03"/>
<polygon fill="#63b8ff" stroke="#63b8ff" points="572.33,-69.53 582.24,-65.79 572.16,-62.53 572.33,-69.53"/>
</a>
</g>
</g>
<!-- Node11&#45;&gt;Node9 -->
<g id="edge14_Node000011_Node000009" class="edge">
<title>Node11&#45;&gt;Node9</title>
<g id="a_edge14_Node000011_Node000009"><a xlink:title=" ">
<path fill="none" stroke="#63b8ff" d="M123.12,-219.96C145.35,-206.33 191.29,-179.73 233.54,-165 293.97,-143.93 367.33,-131.66 412.73,-125.52"/>
<polygon fill="#63b8ff" stroke="#63b8ff" points="413.36,-128.97 422.82,-124.19 412.44,-122.03 413.36,-128.97"/>
</a>
</g>
</g>
<!-- Node12 -->
<g id="Node000012" class="node">
<title>Node12</title>
<g id="a_Node000012"><a xlink:title=" ">
<polygon fill="#e0e0e0" stroke="#999999" points="72.04,-184 25.04,-184 25.04,-165 72.04,-165 72.04,-184"/>
<text text-anchor="middle" x="48.54" y="-172" font-family="Helvetica,sans-Serif" font-size="10.00">deque</text>
</a>
</g>
</g>
<!-- Node11&#45;&gt;Node12 -->
<g id="edge13_Node000011_Node000012" class="edge">
<title>Node11&#45;&gt;Node12</title>
<g id="a_edge13_Node000011_Node000012"><a xlink:title=" ">
<path fill="none" stroke="#63b8ff" d="M99.74,-219.98C90.72,-212.15 77.14,-200.34 66.22,-190.86"/>
<polygon fill="#63b8ff" stroke="#63b8ff" points="68.36,-188.09 58.52,-184.17 63.77,-193.37 68.36,-188.09"/>
</a>
</g>
</g>
<!-- Node11&#45;&gt;Node13 -->
<g id="edge17_Node000011_Node000013" class="edge">
<title>Node11&#45;&gt;Node13</title>
<g id="a_edge17_Node000011_Node000013"><a xlink:title=" ">
<path fill="none" stroke="#63b8ff" d="M142.16,-219.98C176.83,-210.93 231.8,-196.58 269.89,-186.64"/>
<polygon fill="#63b8ff" stroke="#63b8ff" points="270.88,-189.99 279.67,-184.08 269.11,-183.22 270.88,-189.99"/>
</a>
</g>
</g>
<!-- Node13&#45;&gt;Node2 -->
<g id="edge20_Node000013_Node000002" class="edge">
<title>Node13&#45;&gt;Node2</title>
<g id="a_edge20_Node000013_Node000002"><a xlink:title=" ">
<path fill="none" stroke="#63b8ff" d="M312.54,-164.75C312.54,-157.8 312.54,-147.85 312.54,-139.13"/>
<polygon fill="#63b8ff" stroke="#63b8ff" points="316.04,-139.09 312.54,-129.09 309.04,-139.09 316.04,-139.09"/>
</a>
</g>
</g>
<!-- Node13&#45;&gt;Node3 -->
<g id="edge19_Node000013_Node000003" class="edge">
<title>Node13&#45;&gt;Node3</title>
<g id="a_edge19_Node000013_Node000003"><a xlink:title=" ">
<path fill="none" stroke="#63b8ff" d="M323.36,-164.93C341.15,-151.27 378.12,-124.61 413.54,-110 466.28,-88.25 531.5,-76.21 572.33,-70.3"/>
<polygon fill="#63b8ff" stroke="#63b8ff" points="572.99,-73.74 582.41,-68.89 572.03,-66.81 572.99,-73.74"/>
</a>
</g>
</g>
<!-- Node13&#45;&gt;Node9 -->
<g id="edge18_Node000013_Node000009" class="edge">
<title>Node13&#45;&gt;Node9</title>
<g id="a_edge18_Node000013_Node000009"><a xlink:title=" ">
<path fill="none" stroke="#63b8ff" d="M335.52,-164.98C359.04,-156.27 395.83,-142.63 422.48,-132.75"/>
<polygon fill="#63b8ff" stroke="#63b8ff" points="423.99,-135.93 432.15,-129.17 421.56,-129.36 423.99,-135.93"/>
</a>
</g>
</g>
<!-- Node14&#45;&gt;Node2 -->
<g id="edge44_Node000014_Node000002" class="edge">
<title>Node14&#45;&gt;Node2</title>
<g id="a_edge44_Node000014_Node000002"><a xlink:title=" ">
<path fill="none" stroke="#63b8ff" d="M644.06,-219.98C594.43,-212.86 526.05,-201.09 467.54,-184 421.2,-170.46 369.77,-147.77 339.35,-133.5"/>
<polygon fill="#63b8ff" stroke="#63b8ff" points="340.77,-130.3 330.24,-129.18 337.78,-136.63 340.77,-130.3"/>
</a>
</g>
</g>
<!-- Node14&#45;&gt;Node3 -->
<g id="edge24_Node000014_Node000003" class="edge">
<title>Node14&#45;&gt;Node3</title>
<g id="a_edge24_Node000014_Node000003"><a xlink:title=" ">
<path fill="none" stroke="#63b8ff" d="M712.58,-219.84C712.25,-198.91 708.82,-144.78 683.54,-110 673.48,-96.15 657.66,-85.7 643.42,-78.41"/>
<polygon fill="#63b8ff" stroke="#63b8ff" points="644.89,-75.23 634.36,-74.07 641.87,-81.55 644.89,-75.23"/>
</a>
</g>
</g>
<!-- Node14&#45;&gt;Node8 -->
<g id="edge42_Node000014_Node000008" class="edge">
<title>Node14&#45;&gt;Node8</title>
<g id="a_edge42_Node000014_Node000008"><a xlink:title=" ">
<path fill="none" stroke="#63b8ff" d="M685.23,-219.98C656.69,-211.09 611.72,-197.07 579.9,-187.15"/>
<polygon fill="#63b8ff" stroke="#63b8ff" points="580.66,-183.72 570.07,-184.08 578.57,-190.4 580.66,-183.72"/>
</a>
</g>
</g>
<!-- Node14&#45;&gt;Node9 -->
<g id="edge23_Node000014_Node000009" class="edge">
<title>Node14&#45;&gt;Node9</title>
<g id="a_edge23_Node000014_Node000009"><a xlink:title=" ">
<path fill="none" stroke="#63b8ff" d="M702.1,-219.86C685.29,-206.34 650.74,-180.17 617.54,-165 578.84,-147.31 531.63,-135.33 498.18,-128.3"/>
<polygon fill="#63b8ff" stroke="#63b8ff" points="498.76,-124.84 488.27,-126.27 497.36,-131.7 498.76,-124.84"/>
</a>
</g>
</g>
<!-- Node14&#45;&gt;Node13 -->
<g id="edge43_Node000014_Node000013" class="edge">
<title>Node14&#45;&gt;Node13</title>
<g id="a_edge43_Node000014_Node000013"><a xlink:title=" ">
<path fill="none" stroke="#63b8ff" d="M648.27,-219.98C577.09,-210.55 462.47,-195.36 387.31,-185.41"/>
<polygon fill="#63b8ff" stroke="#63b8ff" points="387.35,-181.88 376.98,-184.04 386.43,-188.82 387.35,-181.88"/>
</a>
</g>
</g>
<!-- Node15 -->
<g id="Node000015" class="node">
<title>Node15</title>
<g id="a_Node000015"><a xlink:title=" ">
<polygon fill="#e0e0e0" stroke="#999999" points="1148.04,-184 1103.04,-184 1103.04,-165 1148.04,-165 1148.04,-184"/>
<text text-anchor="middle" x="1125.54" y="-172" font-family="Helvetica,sans-Serif" font-size="10.00">utility</text>
</a>
</g>
</g>
<!-- Node14&#45;&gt;Node15 -->
<g id="edge25_Node000014_Node000015" class="edge">
<title>Node14&#45;&gt;Node15</title>
<g id="a_edge25_Node000014_Node000015"><a xlink:title=" ">
<path fill="none" stroke="#63b8ff" d="M787.85,-222.91C862.79,-216.62 981.19,-204.73 1092.82,-183.86"/>
<polygon fill="#63b8ff" stroke="#63b8ff" points="1093.74,-187.24 1102.91,-181.94 1092.43,-180.37 1093.74,-187.24"/>
</a>
</g>
</g>
<!-- Node16 -->
<g id="Node000016" class="node">
<title>Node16</title>
<g id="a_Node000016"><a xlink:href="Logger_8ixx.html" target="_top" xlink:title="Simple synchronous logger with configurable output sinks.">
<polygon fill="white" stroke="#666666" points="893.04,-129 774.04,-129 774.04,-110 893.04,-110 893.04,-129"/>
<text text-anchor="middle" x="833.54" y="-117" font-family="Helvetica,sans-Serif" font-size="10.00">helios.util.log.Logger</text>
</a>
</g>
</g>
<!-- Node14&#45;&gt;Node16 -->
<g id="edge26_Node000014_Node000016" class="edge">
<title>Node14&#45;&gt;Node16</title>
<g id="a_edge26_Node000014_Node000016"><a xlink:title=" ">
<path fill="none" stroke="#63b8ff" d="M722.44,-219.66C743.02,-201.3 790.62,-158.81 816.33,-135.87"/>
<polygon fill="#63b8ff" stroke="#63b8ff" points="818.71,-138.43 823.84,-129.16 814.05,-133.21 818.71,-138.43"/>
</a>
</g>
</g>
<!-- Node20 -->
<g id="Node000020" class="node">
<title>Node20</title>
<g id="a_Node000020"><a xlink:href="LogManager_8ixx.html" target="_top" xlink:title="Central manager for scoped loggers with configurable sinks.">
<polygon fill="white" stroke="#666666" points="1084.54,-184 938.54,-184 938.54,-165 1084.54,-165 1084.54,-184"/>
<text text-anchor="middle" x="1011.54" y="-172" font-family="Helvetica,sans-Serif" font-size="10.00">helios.util.log.LogManager</text>
</a>
</g>
</g>
<!-- Node14&#45;&gt;Node20 -->
<g id="edge33_Node000014_Node000020" class="edge">
<title>Node14&#45;&gt;Node20</title>
<g id="a_edge33_Node000014_Node000020"><a xlink:title=" ">
<path fill="none" stroke="#63b8ff" d="M760.58,-219.98C812.95,-210.7 896.78,-195.84 952.97,-185.88"/>
<polygon fill="#63b8ff" stroke="#63b8ff" points="953.89,-189.27 963.13,-184.08 952.67,-182.38 953.89,-189.27"/>
</a>
</g>
</g>
<!-- Node16&#45;&gt;Node3 -->
<g id="edge29_Node000016_Node000003" class="edge">
<title>Node16&#45;&gt;Node3</title>
<g id="a_edge29_Node000016_Node000003"><a xlink:title=" ">
<path fill="none" stroke="#63b8ff" d="M797.87,-109.98C757.56,-100.36 692.16,-84.75 650.53,-74.81"/>
<polygon fill="#63b8ff" stroke="#63b8ff" points="651.28,-71.39 640.74,-72.47 649.66,-78.2 651.28,-71.39"/>
</a>
</g>
</g>
<!-- Node16&#45;&gt;Node4 -->
<g id="edge27_Node000016_Node000004" class="edge">
<title>Node16&#45;&gt;Node4</title>
<g id="a_edge27_Node000016_Node000004"><a xlink:title=" ">
<path fill="none" stroke="#63b8ff" d="M835.49,-109.64C838.38,-97.15 844.38,-73.79 852.54,-55 856.64,-45.56 862.3,-35.62 867.3,-27.54"/>
<polygon fill="#63b8ff" stroke="#63b8ff" points="870.29,-29.35 872.72,-19.04 864.39,-25.59 870.29,-29.35"/>
</a>
</g>
</g>
<!-- Node17 -->
<g id="Node000017" class="node">
<title>Node17</title>
<g id="a_Node000017"><a xlink:title=" ">
<polygon fill="#e0e0e0" stroke="#999999" points="1078.04,-74 1031.04,-74 1031.04,-55 1078.04,-55 1078.04,-74"/>
<text text-anchor="middle" x="1054.54" y="-62" font-family="Helvetica,sans-Serif" font-size="10.00">vector</text>
</a>
</g>
</g>
<!-- Node16&#45;&gt;Node17 -->
<g id="edge28_Node000016_Node000017" class="edge">
<title>Node16&#45;&gt;Node17</title>
<g id="a_edge28_Node000016_Node000017"><a xlink:title=" ">
<path fill="none" stroke="#63b8ff" d="M869.05,-109.98C911,-99.92 980.27,-83.31 1021.24,-73.49"/>
<polygon fill="#63b8ff" stroke="#63b8ff" points="1022.11,-76.88 1031.01,-71.14 1020.47,-70.07 1022.11,-76.88"/>
</a>
</g>
</g>
<!-- Node18 -->
<g id="Node000018" class="node">
<title>Node18</title>
<g id="a_Node000018"><a xlink:title=" ">
<polygon fill="#e0e0e0" stroke="#999999" points="1196.54,-74 1148.54,-74 1148.54,-55 1196.54,-55 1196.54,-74"/>
<text text-anchor="middle" x="1172.54" y="-62" font-family="Helvetica,sans-Serif" font-size="10.00">mutex</text>
</a>
</g>
</g>
<!-- Node16&#45;&gt;Node18 -->
<g id="edge30_Node000016_Node000018" class="edge">
<title>Node16&#45;&gt;Node18</title>
<g id="a_edge30_Node000016_Node000018"><a xlink:title=" ">
<path fill="none" stroke="#63b8ff" d="M888.01,-109.98C958.63,-98.94 1079.71,-80.01 1138.51,-70.82"/>
<polygon fill="#63b8ff" stroke="#63b8ff" points="1139.06,-74.28 1148.4,-69.27 1137.98,-67.36 1139.06,-74.28"/>
</a>
</g>
</g>
<!-- Node19 -->
<g id="Node000019" class="node">
<title>Node19</title>
<g id="a_Node000019"><a xlink:href="LogSink_8ixx.html" target="_top" xlink:title="Abstract interface for log output destinations.">
<polygon fill="white" stroke="#666666" points="985.54,-74 861.54,-74 861.54,-55 985.54,-55 985.54,-74"/>
<text text-anchor="middle" x="923.54" y="-62" font-family="Helvetica,sans-Serif" font-size="10.00">helios.util.log.LogSink</text>
</a>
</g>
</g>
<!-- Node16&#45;&gt;Node19 -->
<g id="edge31_Node000016_Node000019" class="edge">
<title>Node16&#45;&gt;Node19</title>
<g id="a_edge31_Node000016_Node000019"><a xlink:title=" ">
<path fill="none" stroke="#63b8ff" d="M848,-109.98C861.96,-101.77 883.34,-89.18 899.79,-79.49"/>
<polygon fill="#63b8ff" stroke="#63b8ff" points="901.98,-82.26 908.82,-74.17 898.43,-76.23 901.98,-82.26"/>
</a>
</g>
</g>
<!-- Node19&#45;&gt;Node4 -->
<g id="edge32_Node000019_Node000004" class="edge">
<title>Node19&#45;&gt;Node4</title>
<g id="a_edge32_Node000019_Node000004"><a xlink:title=" ">
<path fill="none" stroke="#63b8ff" d="M916.11,-54.75C909.69,-47.18 900.24,-36.05 892.42,-26.84"/>
<polygon fill="#63b8ff" stroke="#63b8ff" points="894.97,-24.45 885.83,-19.09 889.64,-28.98 894.97,-24.45"/>
</a>
</g>
</g>
<!-- Node20&#45;&gt;Node3 -->
<g id="edge37_Node000020_Node000003" class="edge">
<title>Node20&#45;&gt;Node3</title>
<g id="a_edge37_Node000020_Node000003"><a xlink:title=" ">
<path fill="none" stroke="#63b8ff" d="M940.01,-164.96C890.37,-157.98 823.09,-146.38 765.54,-129 745.15,-122.84 741.19,-118.22 721.54,-110 695.01,-98.9 664.7,-86.68 642.62,-77.85"/>
<polygon fill="#63b8ff" stroke="#63b8ff" points="643.69,-74.51 633.1,-74.05 641.09,-81.01 643.69,-74.51"/>
</a>
</g>
</g>
<!-- Node20&#45;&gt;Node4 -->
<g id="edge34_Node000020_Node000004" class="edge">
<title>Node20&#45;&gt;Node4</title>
<g id="a_edge34_Node000020_Node000004"><a xlink:title=" ">
<path fill="none" stroke="#63b8ff" d="M1066.6,-164.98C1110.4,-157.19 1167.13,-144.54 1184.54,-129 1210.04,-106.23 1228.03,-80.75 1205.54,-55 1167.47,-11.4 985.78,-8.9 910.9,-9.79"/>
<polygon fill="#63b8ff" stroke="#63b8ff" points="910.61,-6.29 900.66,-9.94 910.71,-13.29 910.61,-6.29"/>
</a>
</g>
</g>
<!-- Node20&#45;&gt;Node16 -->
<g id="edge40_Node000020_Node000016" class="edge">
<title>Node20&#45;&gt;Node16</title>
<g id="a_edge40_Node000020_Node000016"><a xlink:title=" ">
<path fill="none" stroke="#63b8ff" d="M982.94,-164.98C952.93,-156.05 905.56,-141.94 872.23,-132.02"/>
<polygon fill="#63b8ff" stroke="#63b8ff" points="872.95,-128.58 862.36,-129.08 870.95,-135.29 872.95,-128.58"/>
</a>
</g>
</g>
<!-- Node20&#45;&gt;Node17 -->
<g id="edge39_Node000020_Node000017" class="edge">
<title>Node20&#45;&gt;Node17</title>
<g id="a_edge39_Node000020_Node000017"><a xlink:title=" ">
<path fill="none" stroke="#63b8ff" d="M1084.66,-167.4C1109.65,-161.4 1135.16,-150.08 1150.54,-129 1170.27,-101.97 1123.1,-83.13 1088.12,-73.33"/>
<polygon fill="#63b8ff" stroke="#63b8ff" points="1088.76,-69.88 1078.2,-70.7 1086.96,-76.65 1088.76,-69.88"/>
</a>
</g>
</g>
<!-- Node20&#45;&gt;Node18 -->
<g id="edge38_Node000020_Node000018" class="edge">
<title>Node20&#45;&gt;Node18</title>
<g id="a_edge38_Node000020_Node000018"><a xlink:title=" ">
<path fill="none" stroke="#63b8ff" d="M1063.96,-164.93C1103.57,-157.32 1153.31,-144.94 1166.54,-129 1176.81,-116.63 1177.36,-97.87 1175.91,-83.94"/>
<polygon fill="#63b8ff" stroke="#63b8ff" points="1179.37,-83.42 1174.47,-74.02 1172.45,-84.42 1179.37,-83.42"/>
</a>
</g>
</g>
<!-- Node20&#45;&gt;Node19 -->
<g id="edge41_Node000020_Node000019" class="edge">
<title>Node20&#45;&gt;Node19</title>
<g id="a_edge41_Node000020_Node000019"><a xlink:title=" ">
<path fill="none" stroke="#63b8ff" d="M1053.39,-164.92C1091.59,-155.17 1139.06,-137.01 1117.54,-110 1102.32,-90.89 1044.69,-79.31 996.17,-72.78"/>
<polygon fill="#63b8ff" stroke="#63b8ff" points="996.34,-69.27 985.98,-71.46 995.44,-76.21 996.34,-69.27"/>
</a>
</g>
</g>
<!-- Node21 -->
<g id="Node000021" class="node">
<title>Node21</title>
<g id="a_Node000021"><a xlink:title=" ">
<polygon fill="#e0e0e0" stroke="#999999" points="1004.04,-129 911.04,-129 911.04,-110 1004.04,-110 1004.04,-129"/>
<text text-anchor="middle" x="957.54" y="-117" font-family="Helvetica,sans-Serif" font-size="10.00">unordered_map</text>
</a>
</g>
</g>
<!-- Node20&#45;&gt;Node21 -->
<g id="edge35_Node000020_Node000021" class="edge">
<title>Node20&#45;&gt;Node21</title>
<g id="a_edge35_Node000020_Node000021"><a xlink:title=" ">
<path fill="none" stroke="#63b8ff" d="M1002.62,-164.75C994.76,-157.03 983.11,-145.6 973.62,-136.28"/>
<polygon fill="#63b8ff" stroke="#63b8ff" points="975.88,-133.6 966.29,-129.09 970.98,-138.59 975.88,-133.6"/>
</a>
</g>
</g>
<!-- Node22 -->
<g id="Node000022" class="node">
<title>Node22</title>
<g id="a_Node000022"><a xlink:title=" ">
<polygon fill="#e0e0e0" stroke="#999999" points="1108.54,-129 1022.54,-129 1022.54,-110 1108.54,-110 1108.54,-129"/>
<text text-anchor="middle" x="1065.54" y="-117" font-family="Helvetica,sans-Serif" font-size="10.00">unordered_set</text>
</a>
</g>
</g>
<!-- Node20&#45;&gt;Node22 -->
<g id="edge36_Node000020_Node000022" class="edge">
<title>Node20&#45;&gt;Node22</title>
<g id="a_edge36_Node000020_Node000022"><a xlink:title=" ">
<path fill="none" stroke="#63b8ff" d="M1020.46,-164.75C1028.32,-157.03 1039.97,-145.6 1049.46,-136.28"/>
<polygon fill="#63b8ff" stroke="#63b8ff" points="1052.11,-138.59 1056.79,-129.09 1047.2,-133.6 1052.11,-138.59"/>
</a>
</g>
</g>
<!-- Node23&#45;&gt;Node2 -->
<g id="edge48_Node000023_Node000002" class="edge">
<title>Node23&#45;&gt;Node2</title>
<g id="a_edge48_Node000023_Node000002"><a xlink:title=" ">
<path fill="none" stroke="#63b8ff" d="M384.55,-274.99C337.83,-263.35 266.29,-237.48 233.54,-184 219.83,-161.61 248.93,-143.75 275.6,-132.75"/>
<polygon fill="#63b8ff" stroke="#63b8ff" points="277.17,-135.89 285.23,-129.01 274.64,-129.37 277.17,-135.89"/>
</a>
</g>
</g>
<!-- Node23&#45;&gt;Node3 -->
<g id="edge47_Node000023_Node000003" class="edge">
<title>Node23&#45;&gt;Node3</title>
<g id="a_edge47_Node000023_Node000003"><a xlink:title=" ">
<path fill="none" stroke="#63b8ff" d="M456.66,-274.94C496.89,-261.44 571.14,-231.73 617.54,-184 641.95,-158.9 655.52,-143.24 644.54,-110 641.09,-99.54 634.11,-89.53 627.47,-81.66"/>
<polygon fill="#63b8ff" stroke="#63b8ff" points="629.87,-79.1 620.56,-74.04 624.68,-83.8 629.87,-79.1"/>
</a>
</g>
</g>
<!-- Node23&#45;&gt;Node8 -->
<g id="edge49_Node000023_Node000008" class="edge">
<title>Node23&#45;&gt;Node8</title>
<g id="a_edge49_Node000023_Node000008"><a xlink:title=" ">
<path fill="none" stroke="#63b8ff" d="M437.87,-274.66C457.17,-256.38 501.71,-214.18 526.01,-191.17"/>
<polygon fill="#63b8ff" stroke="#63b8ff" points="528.55,-193.58 533.4,-184.16 523.74,-188.5 528.55,-193.58"/>
</a>
</g>
</g>
<!-- Node23&#45;&gt;Node9 -->
<g id="edge46_Node000023_Node000009" class="edge">
<title>Node23&#45;&gt;Node9</title>
<g id="a_edge46_Node000023_Node000009"><a xlink:title=" ">
<path fill="none" stroke="#63b8ff" d="M429.99,-274.74C434.22,-249.2 446.61,-174.43 452.44,-139.23"/>
<polygon fill="#63b8ff" stroke="#63b8ff" points="455.9,-139.74 454.08,-129.31 449,-138.6 455.9,-139.74"/>
</a>
</g>
</g>
<!-- Node23&#45;&gt;Node13 -->
<g id="edge50_Node000023_Node000013" class="edge">
<title>Node23&#45;&gt;Node13</title>
<g id="a_edge50_Node000023_Node000013"><a xlink:title=" ">
<path fill="none" stroke="#63b8ff" d="M419.05,-274.66C399.41,-256.38 354.09,-214.18 329.37,-191.17"/>
<polygon fill="#63b8ff" stroke="#63b8ff" points="331.55,-188.41 321.84,-184.16 326.78,-193.53 331.55,-188.41"/>
</a>
</g>
</g>
<!-- Node23&#45;&gt;Node14 -->
<g id="edge51_Node000023_Node000014" class="edge">
<title>Node23&#45;&gt;Node14</title>
<g id="a_edge51_Node000023_Node000014"><a xlink:title=" ">
<path fill="none" stroke="#63b8ff" d="M474.17,-274.98C523.81,-265.72 603.21,-250.9 656.57,-240.94"/>
<polygon fill="#63b8ff" stroke="#63b8ff" points="657.37,-244.36 666.55,-239.08 656.08,-237.48 657.37,-244.36"/>
</a>
</g>
</g>
</g>
</svg>

<g id="navigator" transform="translate(0 0)" fill="#404254">
  <rect fill="#f2f5e9" fill-opacity="0.5" stroke="#606060" stroke-width=".5" x="0" y="0" width="60" height="60"/>
  <use id="zoomplus" xlink:href="#zoomPlus" x="17" y="9" onmousedown="handleZoom(evt,'in')"/>
  <use id="zoomminus" xlink:href="#zoomMin" x="42" y="9" onmousedown="handleZoom(evt,'out')"/>
  <use id="reset" xlink:href="#resetDef" x="30" y="36" onmousedown="handleReset()"/>
   <use id="arrowup" xlink:href="#arrowUp" x="0" y="0" onmousedown="handlePan(0,-1)"/>
  <use id="arrowright" xlink:href="#arrowRight" x="0" y="0" onmousedown="handlePan(1,0)"/>
  <use id="arrowdown" xlink:href="#arrowDown" x="0" y="0" onmousedown="handlePan(0,1)"/>
  <use id="arrowleft" xlink:href="#arrowLeft" x="0" y="0" onmousedown="handlePan(-1,0)"/>
</g>
<svg viewBox="0 0 15 15" width="100%" height="30px" preserveAspectRatio="xMaxYMin meet">
 <g id="arrow_out" transform="scale(0.3 0.3)">
  <a xlink:href="helios_2event_2__module_8ixx__incl_org.svg" target="_base">
   <rect id="button" ry="5" rx="5" y="6" x="6" height="38" width="38"
        fill="#f2f5e9" fill-opacity="0.5" stroke="#606060" stroke-width="1.0"/>
   <path id="arrow"
     d="M 11.500037,31.436501 C 11.940474,20.09759 22.043105,11.32322 32.158766,21.979434 L 37.068811,17.246167 C 37.068811,17.246167 37.088388,32 37.088388,32 L 22.160133,31.978069 C 22.160133,31.978069 26.997745,27.140456 26.997745,27.140456 C 18.528582,18.264221 13.291696,25.230495 11.500037,31.436501 z"
     style="fill:#404040;"/>
  </a>
 </g>
</svg>

<style type='text/css'>
<![CDATA[
[data-mouse-over-selected='false'] { opacity: 0.7; }
[data-mouse-over-selected='true']  { opacity: 1.0; }
]]>
</style>
<script type="application/ecmascript"><![CDATA[
document.addEventListener('DOMContentLoaded', (event) => {
  highlightEdges();
  highlightAdjacentNodes();
});
]]></script>
</svg>
