<?xml version="1.0" encoding="UTF-8" standalone="no"?>
<!DOCTYPE svg PUBLIC "-//W3C//DTD SVG 1.1//EN"
 "http://www.w3.org/Graphics/SVG/1.1/DTD/svg11.dtd">
<!-- Generated by graphviz version 2.43.0 (0)
 -->
<!-- Title: include/helios/rendering/model/_module.ixx Pages: 1 -->
<svg width="1673pt" height="412pt"
 viewBox="0.00 0.00 1673.42 412.00" xmlns="http://www.w3.org/2000/svg" xmlns:xlink="http://www.w3.org/1999/xlink">
<g id="graph0" class="graph" transform="scale(1 1) rotate(0) translate(4 408)">
<title>include/helios/rendering/model/_module.ixx</title>
<!-- Node1 -->
<g id="Node000001" class="node">
<title>Node1</title>
<g id="a_Node000001"><a xlink:title="Module exports for Model&#45;related rendering constructs.">
<polygon fill="#999999" stroke="#666666" points="884.42,-404 750.42,-404 750.42,-374 884.42,-374 884.42,-404"/>
<text text-anchor="start" x="758.42" y="-392" font-family="Helvetica,sans-Serif" font-size="10.00">include/helios/rendering</text>
<text text-anchor="middle" x="817.42" y="-381" font-family="Helvetica,sans-Serif" font-size="10.00">/model/_module.ixx</text>
</a>
</g>
</g>
<!-- Node2 -->
<g id="Node000002" class="node">
<title>Node2</title>
<g id="a_Node000002"><a xlink:href="helios_2rendering_2model_2config_2__module_8ixx.html" target="_top" xlink:title="Module exports for configuration structures for model/material.">
<polygon fill="white" stroke="#666666" points="358.92,-338 197.92,-338 197.92,-319 358.92,-319 358.92,-338"/>
<text text-anchor="middle" x="278.42" y="-326" font-family="Helvetica,sans-Serif" font-size="10.00">helios.rendering.model.config</text>
</a>
</g>
</g>
<!-- Node1&#45;&gt;Node2 -->
<g id="edge1_Node000001_Node000002" class="edge">
<title>Node1&#45;&gt;Node2</title>
<g id="a_edge1_Node000001_Node000002"><a xlink:title=" ">
<path fill="none" stroke="#63b8ff" d="M750.24,-380.71C653.46,-370.21 474.65,-350.8 367.12,-339.13"/>
<polygon fill="#63b8ff" stroke="#63b8ff" points="367.26,-335.62 356.94,-338.02 366.5,-342.58 367.26,-335.62"/>
</a>
</g>
</g>
<!-- Node13 -->
<g id="Node000013" class="node">
<title>Node13</title>
<g id="a_Node000013"><a xlink:href="Material_8ixx.html" target="_top" xlink:title="Material abstraction: shader + material properties.">
<polygon fill="white" stroke="#666666" points="1018.92,-338 845.92,-338 845.92,-319 1018.92,-319 1018.92,-338"/>
<text text-anchor="middle" x="932.42" y="-326" font-family="Helvetica,sans-Serif" font-size="10.00">helios.rendering.model.Material</text>
</a>
</g>
</g>
<!-- Node1&#45;&gt;Node13 -->
<g id="edge21_Node000001_Node000013" class="edge">
<title>Node1&#45;&gt;Node13</title>
<g id="a_edge21_Node000001_Node000013"><a xlink:title=" ">
<path fill="none" stroke="#63b8ff" d="M844.96,-373.99C863.64,-364.49 888.16,-352.02 906.48,-342.69"/>
<polygon fill="#63b8ff" stroke="#63b8ff" points="908.11,-345.79 915.43,-338.14 904.93,-339.55 908.11,-345.79"/>
</a>
</g>
</g>
<!-- Node27 -->
<g id="Node000027" class="node">
<title>Node27</title>
<g id="a_Node000027"><a xlink:href="Mesh_8ixx.html" target="_top" xlink:title="Mesh abstraction: immutable vertex/index data and configuration.">
<polygon fill="white" stroke="#666666" points="900.42,-277.5 742.42,-277.5 742.42,-258.5 900.42,-258.5 900.42,-277.5"/>
<text text-anchor="middle" x="821.42" y="-265.5" font-family="Helvetica,sans-Serif" font-size="10.00">helios.rendering.model.Mesh</text>
</a>
</g>
</g>
<!-- Node1&#45;&gt;Node27 -->
<g id="edge51_Node000001_Node000027" class="edge">
<title>Node1&#45;&gt;Node27</title>
<g id="a_edge51_Node000001_Node000027"><a xlink:title=" ">
<path fill="none" stroke="#63b8ff" d="M817.89,-373.88C818.61,-352.51 819.98,-311.89 820.78,-287.96"/>
<polygon fill="#63b8ff" stroke="#63b8ff" points="824.29,-287.82 821.12,-277.71 817.29,-287.59 824.29,-287.82"/>
</a>
</g>
</g>
<!-- Node3 -->
<g id="Node000003" class="node">
<title>Node3</title>
<g id="a_Node000003"><a xlink:href="MaterialPropertiesOverride_8ixx.html" target="_top" xlink:title="Overrides for material properties to customize rendering parameters.">
<polygon fill="white" stroke="#666666" points="360.42,-217 196.42,-217 196.42,-187 360.42,-187 360.42,-217"/>
<text text-anchor="start" x="204.42" y="-205" font-family="Helvetica,sans-Serif" font-size="10.00">helios.rendering.model.config.</text>
<text text-anchor="middle" x="278.42" y="-194" font-family="Helvetica,sans-Serif" font-size="10.00">MaterialPropertiesOverride</text>
</a>
</g>
</g>
<!-- Node2&#45;&gt;Node3 -->
<g id="edge2_Node000002_Node000003" class="edge">
<title>Node2&#45;&gt;Node3</title>
<g id="a_edge2_Node000002_Node000003"><a xlink:title=" ">
<path fill="none" stroke="#63b8ff" d="M278.42,-318.94C278.42,-300.32 278.42,-255.53 278.42,-227.39"/>
<polygon fill="#63b8ff" stroke="#63b8ff" points="281.92,-227.16 278.42,-217.16 274.92,-227.16 281.92,-227.16"/>
</a>
</g>
</g>
<!-- Node10 -->
<g id="Node000010" class="node">
<title>Node10</title>
<g id="a_Node000010"><a xlink:href="MaterialProperties_8ixx.html" target="_top" xlink:title="Default material properties used by materials and instances.">
<polygon fill="white" stroke="#666666" points="500.42,-283 336.42,-283 336.42,-253 500.42,-253 500.42,-283"/>
<text text-anchor="start" x="344.42" y="-271" font-family="Helvetica,sans-Serif" font-size="10.00">helios.rendering.model.config.</text>
<text text-anchor="middle" x="418.42" y="-260" font-family="Helvetica,sans-Serif" font-size="10.00">MaterialProperties</text>
</a>
</g>
</g>
<!-- Node2&#45;&gt;Node10 -->
<g id="edge13_Node000002_Node000010" class="edge">
<title>Node2&#45;&gt;Node10</title>
<g id="a_edge13_Node000002_Node000010"><a xlink:title=" ">
<path fill="none" stroke="#63b8ff" d="M298.77,-318.99C318.75,-310.65 349.83,-297.66 375.3,-287.02"/>
<polygon fill="#63b8ff" stroke="#63b8ff" points="376.88,-290.15 384.76,-283.06 374.18,-283.69 376.88,-290.15"/>
</a>
</g>
</g>
<!-- Node11 -->
<g id="Node000011" class="node">
<title>Node11</title>
<g id="a_Node000011"><a xlink:href="MeshConfig_8ixx.html" target="_top" xlink:title="Mesh configuration including primitive type.">
<polygon fill="white" stroke="#666666" points="178.42,-217 14.42,-217 14.42,-187 178.42,-187 178.42,-217"/>
<text text-anchor="start" x="22.42" y="-205" font-family="Helvetica,sans-Serif" font-size="10.00">helios.rendering.model.config.</text>
<text text-anchor="middle" x="96.42" y="-194" font-family="Helvetica,sans-Serif" font-size="10.00">MeshConfig</text>
</a>
</g>
</g>
<!-- Node2&#45;&gt;Node11 -->
<g id="edge18_Node000002_Node000011" class="edge">
<title>Node2&#45;&gt;Node11</title>
<g id="a_edge18_Node000002_Node000011"><a xlink:title=" ">
<path fill="none" stroke="#63b8ff" d="M265.91,-318.94C237.18,-299.29 165.85,-250.49 125.48,-222.88"/>
<polygon fill="#63b8ff" stroke="#63b8ff" points="127.35,-219.92 117.12,-217.16 123.4,-225.7 127.35,-219.92"/>
</a>
</g>
</g>
<!-- Node12 -->
<g id="Node000012" class="node">
<title>Node12</title>
<g id="a_Node000012"><a xlink:href="PrimitiveType_8ixx.html" target="_top" xlink:title="Enum of primitive types for mesh rendering.">
<polygon fill="white" stroke="#666666" points="178.42,-151 14.42,-151 14.42,-121 178.42,-121 178.42,-151"/>
<text text-anchor="start" x="22.42" y="-139" font-family="Helvetica,sans-Serif" font-size="10.00">helios.rendering.model.config.</text>
<text text-anchor="middle" x="96.42" y="-128" font-family="Helvetica,sans-Serif" font-size="10.00">PrimitiveType</text>
</a>
</g>
</g>
<!-- Node2&#45;&gt;Node12 -->
<g id="edge20_Node000002_Node000012" class="edge">
<title>Node2&#45;&gt;Node12</title>
<g id="a_edge20_Node000002_Node000012"><a xlink:title=" ">
<path fill="none" stroke="#63b8ff" d="M198.13,-318.98C134.01,-307.46 48.07,-280.43 5.42,-217 -2.02,-205.94 -1.37,-198.48 5.42,-187 13.55,-173.25 26.95,-163.03 41,-155.55"/>
<polygon fill="#63b8ff" stroke="#63b8ff" points="42.83,-158.55 50.28,-151.01 39.76,-152.26 42.83,-158.55"/>
</a>
</g>
</g>
<!-- Node4 -->
<g id="Node000004" class="node">
<title>Node4</title>
<g id="a_Node000004"><a xlink:title=" ">
<polygon fill="#e0e0e0" stroke="#999999" points="215.42,-79.5 159.42,-79.5 159.42,-60.5 215.42,-60.5 215.42,-79.5"/>
<text text-anchor="middle" x="187.42" y="-67.5" font-family="Helvetica,sans-Serif" font-size="10.00">optional</text>
</a>
</g>
</g>
<!-- Node3&#45;&gt;Node4 -->
<g id="edge3_Node000003_Node000004" class="edge">
<title>Node3&#45;&gt;Node4</title>
<g id="a_edge3_Node000003_Node000004"><a xlink:title=" ">
<path fill="none" stroke="#63b8ff" d="M268.51,-186.84C251.68,-162.81 217.61,-114.13 199.45,-88.19"/>
<polygon fill="#63b8ff" stroke="#63b8ff" points="202.14,-85.93 193.54,-79.75 196.41,-89.95 202.14,-85.93"/>
</a>
</g>
</g>
<!-- Node5 -->
<g id="Node000005" class="node">
<title>Node5</title>
<g id="a_Node000005"><a xlink:href="UniformSemantics_8ixx.html" target="_top" xlink:title="Definitions of uniform semantics used by shaders.">
<polygon fill="white" stroke="#666666" points="367.42,-85 233.42,-85 233.42,-55 367.42,-55 367.42,-85"/>
<text text-anchor="start" x="241.42" y="-73" font-family="Helvetica,sans-Serif" font-size="10.00">helios.rendering.shader.</text>
<text text-anchor="middle" x="300.42" y="-62" font-family="Helvetica,sans-Serif" font-size="10.00">UniformSemantics</text>
</a>
</g>
</g>
<!-- Node3&#45;&gt;Node5 -->
<g id="edge4_Node000003_Node000005" class="edge">
<title>Node3&#45;&gt;Node5</title>
<g id="a_edge4_Node000003_Node000005"><a xlink:title=" ">
<path fill="none" stroke="#63b8ff" d="M280.81,-186.84C284.53,-164.86 291.74,-122.27 296.3,-95.3"/>
<polygon fill="#63b8ff" stroke="#63b8ff" points="299.81,-95.59 298.02,-85.14 292.9,-94.42 299.81,-95.59"/>
</a>
</g>
</g>
<!-- Node6 -->
<g id="Node000006" class="node">
<title>Node6</title>
<g id="a_Node000006"><a xlink:href="UniformValueMap_8ixx.html" target="_top" xlink:title="Mapping of uniform names to values used by shader programs.">
<polygon fill="white" stroke="#666666" points="468.42,-151 334.42,-151 334.42,-121 468.42,-121 468.42,-151"/>
<text text-anchor="start" x="342.42" y="-139" font-family="Helvetica,sans-Serif" font-size="10.00">helios.rendering.shader.</text>
<text text-anchor="middle" x="401.42" y="-128" font-family="Helvetica,sans-Serif" font-size="10.00">UniformValueMap</text>
</a>
</g>
</g>
<!-- Node3&#45;&gt;Node6 -->
<g id="edge5_Node000003_Node000006" class="edge">
<title>Node3&#45;&gt;Node6</title>
<g id="a_edge5_Node000003_Node000006"><a xlink:title=" ">
<path fill="none" stroke="#63b8ff" d="M305.41,-186.95C323.03,-177.78 346.25,-165.71 365.43,-155.72"/>
<polygon fill="#63b8ff" stroke="#63b8ff" points="367.23,-158.73 374.49,-151.01 364,-152.52 367.23,-158.73"/>
</a>
</g>
</g>
<!-- Node9 -->
<g id="Node000009" class="node">
<title>Node9</title>
<g id="a_Node000009"><a xlink:href="helios_2math_2types_2__module_8ixx.html" target="_top" xlink:title="Module exports for vector and matrix type definitions.">
<polygon fill="white" stroke="#666666" points="619.42,-79.5 515.42,-79.5 515.42,-60.5 619.42,-60.5 619.42,-79.5"/>
<text text-anchor="middle" x="567.42" y="-67.5" font-family="Helvetica,sans-Serif" font-size="10.00">helios.math.types</text>
</a>
</g>
</g>
<!-- Node3&#45;&gt;Node9 -->
<g id="edge12_Node000003_Node000009" class="edge">
<title>Node3&#45;&gt;Node9</title>
<g id="a_edge12_Node000003_Node000009"><a xlink:title=" ">
<path fill="none" stroke="#63b8ff" d="M360.55,-189.53C397.75,-182.08 441.36,-170.07 477.42,-151 508.07,-134.79 536.78,-106.01 553.2,-87.74"/>
<polygon fill="#63b8ff" stroke="#63b8ff" points="556.27,-89.55 560.23,-79.72 551.01,-84.94 556.27,-89.55"/>
</a>
</g>
</g>
<!-- Node6&#45;&gt;Node4 -->
<g id="edge7_Node000006_Node000004" class="edge">
<title>Node6&#45;&gt;Node4</title>
<g id="a_edge7_Node000006_Node000004"><a xlink:title=" ">
<path fill="none" stroke="#63b8ff" d="M347.22,-120.99C311.99,-111.57 265.2,-98.45 224.42,-85 222.56,-84.39 220.65,-83.74 218.74,-83.07"/>
<polygon fill="#63b8ff" stroke="#63b8ff" points="219.81,-79.73 209.22,-79.61 217.42,-86.31 219.81,-79.73"/>
</a>
</g>
</g>
<!-- Node6&#45;&gt;Node5 -->
<g id="edge11_Node000006_Node000005" class="edge">
<title>Node6&#45;&gt;Node5</title>
<g id="a_edge11_Node000006_Node000005"><a xlink:title=" ">
<path fill="none" stroke="#63b8ff" d="M379,-120.8C365.01,-111.93 346.8,-100.39 331.44,-90.66"/>
<polygon fill="#63b8ff" stroke="#63b8ff" points="333.09,-87.56 322.77,-85.16 329.34,-93.47 333.09,-87.56"/>
</a>
</g>
</g>
<!-- Node7 -->
<g id="Node000007" class="node">
<title>Node7</title>
<g id="a_Node000007"><a xlink:title=" ">
<polygon fill="#e0e0e0" stroke="#999999" points="427.42,-79.5 385.42,-79.5 385.42,-60.5 427.42,-60.5 427.42,-79.5"/>
<text text-anchor="middle" x="406.42" y="-67.5" font-family="Helvetica,sans-Serif" font-size="10.00">array</text>
</a>
</g>
</g>
<!-- Node6&#45;&gt;Node7 -->
<g id="edge6_Node000006_Node000007" class="edge">
<title>Node6&#45;&gt;Node7</title>
<g id="a_edge6_Node000006_Node000007"><a xlink:title=" ">
<path fill="none" stroke="#63b8ff" d="M402.53,-120.8C403.24,-111.7 404.17,-99.79 404.94,-89.9"/>
<polygon fill="#63b8ff" stroke="#63b8ff" points="408.44,-90.09 405.73,-79.84 401.46,-89.54 408.44,-90.09"/>
</a>
</g>
</g>
<!-- Node8 -->
<g id="Node000008" class="node">
<title>Node8</title>
<g id="a_Node000008"><a xlink:title=" ">
<polygon fill="#e0e0e0" stroke="#999999" points="496.92,-79.5 445.92,-79.5 445.92,-60.5 496.92,-60.5 496.92,-79.5"/>
<text text-anchor="middle" x="471.42" y="-67.5" font-family="Helvetica,sans-Serif" font-size="10.00">variant</text>
</a>
</g>
</g>
<!-- Node6&#45;&gt;Node8 -->
<g id="edge8_Node000006_Node000008" class="edge">
<title>Node6&#45;&gt;Node8</title>
<g id="a_edge8_Node000006_Node000008"><a xlink:title=" ">
<path fill="none" stroke="#63b8ff" d="M416.95,-120.8C427.97,-110.72 442.77,-97.19 454.16,-86.78"/>
<polygon fill="#63b8ff" stroke="#63b8ff" points="456.72,-89.18 461.74,-79.84 452,-84.01 456.72,-89.18"/>
</a>
</g>
</g>
<!-- Node6&#45;&gt;Node9 -->
<g id="edge9_Node000006_Node000009" class="edge">
<title>Node6&#45;&gt;Node9</title>
<g id="a_edge9_Node000006_Node000009"><a xlink:title=" ">
<path fill="none" stroke="#63b8ff" d="M437.85,-120.95C467.09,-109.68 507.73,-94.01 535.66,-83.25"/>
<polygon fill="#63b8ff" stroke="#63b8ff" points="537.25,-86.38 545.33,-79.52 534.74,-79.85 537.25,-86.38"/>
</a>
</g>
</g>
<!-- Node9&#45;&gt;Node9 -->
<g id="edge10_Node000009_Node000009" class="edge">
<title>Node9&#45;&gt;Node9</title>
<g id="a_edge10_Node000009_Node000009"><a xlink:title=" ">
<path fill="none" stroke="#63b8ff" d="M593.26,-79.53C614.86,-83.61 637.42,-80.43 637.42,-70 637.42,-61.2 621.36,-57.56 603.37,-59.09"/>
<polygon fill="#63b8ff" stroke="#63b8ff" points="602.7,-55.65 593.26,-60.47 603.65,-62.58 602.7,-55.65"/>
</a>
</g>
</g>
<!-- Node10&#45;&gt;Node3 -->
<g id="edge17_Node000010_Node000003" class="edge">
<title>Node10&#45;&gt;Node3</title>
<g id="a_edge17_Node000010_Node000003"><a xlink:title=" ">
<path fill="none" stroke="#63b8ff" d="M387.69,-252.95C367.27,-243.62 340.25,-231.27 318.19,-221.18"/>
<polygon fill="#63b8ff" stroke="#63b8ff" points="319.62,-217.99 309.07,-217.01 316.71,-224.35 319.62,-217.99"/>
</a>
</g>
</g>
<!-- Node10&#45;&gt;Node5 -->
<g id="edge14_Node000010_Node000005" class="edge">
<title>Node10&#45;&gt;Node5</title>
<g id="a_edge14_Node000010_Node000005"><a xlink:title=" ">
<path fill="none" stroke="#63b8ff" d="M411.56,-252.75C403.07,-235.96 387.51,-207.74 369.42,-187 352.81,-167.96 339.56,-171.94 325.42,-151 314.06,-134.18 307.66,-111.95 304.18,-95.19"/>
<polygon fill="#63b8ff" stroke="#63b8ff" points="307.57,-94.27 302.3,-85.08 300.69,-95.55 307.57,-94.27"/>
</a>
</g>
</g>
<!-- Node10&#45;&gt;Node6 -->
<g id="edge15_Node000010_Node000006" class="edge">
<title>Node10&#45;&gt;Node6</title>
<g id="a_edge15_Node000010_Node000006"><a xlink:title=" ">
<path fill="none" stroke="#63b8ff" d="M416.57,-252.84C413.69,-230.86 408.12,-188.27 404.6,-161.3"/>
<polygon fill="#63b8ff" stroke="#63b8ff" points="408.03,-160.6 403.27,-151.14 401.09,-161.51 408.03,-160.6"/>
</a>
</g>
</g>
<!-- Node10&#45;&gt;Node9 -->
<g id="edge16_Node000010_Node000009" class="edge">
<title>Node10&#45;&gt;Node9</title>
<g id="a_edge16_Node000010_Node000009"><a xlink:title=" ">
<path fill="none" stroke="#63b8ff" d="M430.36,-253C448.58,-231.48 484.18,-188.79 512.42,-151 528.27,-129.78 545.39,-104.46 556.24,-88.08"/>
<polygon fill="#63b8ff" stroke="#63b8ff" points="559.27,-89.84 561.85,-79.56 553.43,-85.99 559.27,-89.84"/>
</a>
</g>
</g>
<!-- Node11&#45;&gt;Node12 -->
<g id="edge19_Node000011_Node000012" class="edge">
<title>Node11&#45;&gt;Node12</title>
<g id="a_edge19_Node000011_Node000012"><a xlink:title=" ">
<path fill="none" stroke="#63b8ff" d="M96.42,-186.8C96.42,-179.34 96.42,-169.99 96.42,-161.41"/>
<polygon fill="#63b8ff" stroke="#63b8ff" points="99.92,-161.16 96.42,-151.16 92.92,-161.16 99.92,-161.16"/>
</a>
</g>
</g>
<!-- Node13&#45;&gt;Node6 -->
<g id="edge50_Node000013_Node000006" class="edge">
<title>Node13&#45;&gt;Node6</title>
<g id="a_edge50_Node000013_Node000006"><a xlink:title=" ">
<path fill="none" stroke="#63b8ff" d="M881.8,-318.99C841.14,-311.49 782.86,-299.23 733.42,-283 622.4,-246.56 497.88,-186.23 437.77,-155.8"/>
<polygon fill="#63b8ff" stroke="#63b8ff" points="439.18,-152.59 428.68,-151.18 436.01,-158.83 439.18,-152.59"/>
</a>
</g>
</g>
<!-- Node13&#45;&gt;Node10 -->
<g id="edge45_Node000013_Node000010" class="edge">
<title>Node13&#45;&gt;Node10</title>
<g id="a_edge45_Node000013_Node000010"><a xlink:title=" ">
<path fill="none" stroke="#63b8ff" d="M846.72,-318.97C763.33,-310.5 633.06,-296.81 520.42,-283 517.18,-282.6 513.88,-282.19 510.56,-281.77"/>
<polygon fill="#63b8ff" stroke="#63b8ff" points="510.87,-278.28 500.51,-280.48 509.98,-285.22 510.87,-278.28"/>
</a>
</g>
</g>
<!-- Node14 -->
<g id="Node000014" class="node">
<title>Node14</title>
<g id="a_Node000014"><a xlink:title=" ">
<polygon fill="#e0e0e0" stroke="#999999" points="977.42,-79.5 919.42,-79.5 919.42,-60.5 977.42,-60.5 977.42,-79.5"/>
<text text-anchor="middle" x="948.42" y="-67.5" font-family="Helvetica,sans-Serif" font-size="10.00">memory</text>
</a>
</g>
</g>
<!-- Node13&#45;&gt;Node14 -->
<g id="edge22_Node000013_Node000014" class="edge">
<title>Node13&#45;&gt;Node14</title>
<g id="a_edge22_Node000013_Node000014"><a xlink:title=" ">
<path fill="none" stroke="#63b8ff" d="M936.17,-318.84C943.9,-300.49 961.36,-256.18 967.42,-217 974.49,-171.26 962.05,-117.19 954.17,-89.45"/>
<polygon fill="#63b8ff" stroke="#63b8ff" points="957.44,-88.16 951.23,-79.58 950.73,-90.16 957.44,-88.16"/>
</a>
</g>
</g>
<!-- Node15 -->
<g id="Node000015" class="node">
<title>Node15</title>
<g id="a_Node000015"><a xlink:title=" ">
<polygon fill="#e0e0e0" stroke="#999999" points="957.92,-211.5 892.92,-211.5 892.92,-192.5 957.92,-192.5 957.92,-211.5"/>
<text text-anchor="middle" x="925.42" y="-199.5" font-family="Helvetica,sans-Serif" font-size="10.00">stdexcept</text>
</a>
</g>
</g>
<!-- Node13&#45;&gt;Node15 -->
<g id="edge23_Node000013_Node000015" class="edge">
<title>Node13&#45;&gt;Node15</title>
<g id="a_edge23_Node000013_Node000015"><a xlink:title=" ">
<path fill="none" stroke="#63b8ff" d="M931.94,-318.94C930.82,-299.04 928.02,-249.26 926.48,-221.85"/>
<polygon fill="#63b8ff" stroke="#63b8ff" points="929.96,-221.4 925.9,-211.62 922.97,-221.8 929.96,-221.4"/>
</a>
</g>
</g>
<!-- Node16 -->
<g id="Node000016" class="node">
<title>Node16</title>
<g id="a_Node000016"><a xlink:href="helios_2util_2log_2__module_8ixx.html" target="_top" xlink:title="Module exports for logging.">
<polygon fill="white" stroke="#666666" points="1406.92,-277.5 1323.92,-277.5 1323.92,-258.5 1406.92,-258.5 1406.92,-277.5"/>
<text text-anchor="middle" x="1365.42" y="-265.5" font-family="Helvetica,sans-Serif" font-size="10.00">helios.util.log</text>
</a>
</g>
</g>
<!-- Node13&#45;&gt;Node16 -->
<g id="edge24_Node000013_Node000016" class="edge">
<title>Node13&#45;&gt;Node16</title>
<g id="a_edge24_Node000013_Node000016"><a xlink:title=" ">
<path fill="none" stroke="#63b8ff" d="M995.38,-318.99C1081.35,-307.38 1233.88,-286.77 1313.61,-276"/>
<polygon fill="#63b8ff" stroke="#63b8ff" points="1314.45,-279.42 1323.89,-274.61 1313.51,-272.48 1314.45,-279.42"/>
</a>
</g>
</g>
<!-- Node26 -->
<g id="Node000026" class="node">
<title>Node26</title>
<g id="a_Node000026"><a xlink:href="Shader_8ixx.html" target="_top" xlink:title="Abstraction for a compiled shader program.">
<polygon fill="white" stroke="#666666" points="1172.42,-283 1038.42,-283 1038.42,-253 1172.42,-253 1172.42,-283"/>
<text text-anchor="start" x="1046.42" y="-271" font-family="Helvetica,sans-Serif" font-size="10.00">helios.rendering.shader.</text>
<text text-anchor="middle" x="1105.42" y="-260" font-family="Helvetica,sans-Serif" font-size="10.00">Shader</text>
</a>
</g>
</g>
<!-- Node13&#45;&gt;Node26 -->
<g id="edge46_Node000013_Node000026" class="edge">
<title>Node13&#45;&gt;Node26</title>
<g id="a_edge46_Node000013_Node000026"><a xlink:title=" ">
<path fill="none" stroke="#63b8ff" d="M957.57,-318.99C982.8,-310.46 1022.36,-297.09 1054.21,-286.32"/>
<polygon fill="#63b8ff" stroke="#63b8ff" points="1055.47,-289.58 1063.83,-283.06 1053.23,-282.95 1055.47,-289.58"/>
</a>
</g>
</g>
<!-- Node17 -->
<g id="Node000017" class="node">
<title>Node17</title>
<g id="a_Node000017"><a xlink:href="LogManager_8ixx.html" target="_top" xlink:title="Central manager for scoped loggers with configurable sinks.">
<polygon fill="white" stroke="#666666" points="1201.42,-211.5 1055.42,-211.5 1055.42,-192.5 1201.42,-192.5 1201.42,-211.5"/>
<text text-anchor="middle" x="1128.42" y="-199.5" font-family="Helvetica,sans-Serif" font-size="10.00">helios.util.log.LogManager</text>
</a>
</g>
</g>
<!-- Node16&#45;&gt;Node17 -->
<g id="edge25_Node000016_Node000017" class="edge">
<title>Node16&#45;&gt;Node17</title>
<g id="a_edge25_Node000016_Node000017"><a xlink:title=" ">
<path fill="none" stroke="#63b8ff" d="M1333.45,-258.37C1291.2,-246.96 1216.65,-226.83 1170.04,-214.24"/>
<polygon fill="#63b8ff" stroke="#63b8ff" points="1170.82,-210.82 1160.25,-211.6 1168.99,-217.58 1170.82,-210.82"/>
</a>
</g>
</g>
<!-- Node23 -->
<g id="Node000023" class="node">
<title>Node23</title>
<g id="a_Node000023"><a xlink:href="Logger_8ixx.html" target="_top" xlink:title="Simple synchronous logger with configurable output sinks.">
<polygon fill="white" stroke="#666666" points="1424.92,-145.5 1305.92,-145.5 1305.92,-126.5 1424.92,-126.5 1424.92,-145.5"/>
<text text-anchor="middle" x="1365.42" y="-133.5" font-family="Helvetica,sans-Serif" font-size="10.00">helios.util.log.Logger</text>
</a>
</g>
</g>
<!-- Node16&#45;&gt;Node23 -->
<g id="edge40_Node000016_Node000023" class="edge">
<title>Node16&#45;&gt;Node23</title>
<g id="a_edge40_Node000016_Node000023"><a xlink:title=" ">
<path fill="none" stroke="#63b8ff" d="M1365.42,-258.47C1365.42,-237.82 1365.42,-184.72 1365.42,-156.04"/>
<polygon fill="#63b8ff" stroke="#63b8ff" points="1368.92,-155.73 1365.42,-145.73 1361.92,-155.73 1368.92,-155.73"/>
</a>
</g>
</g>
<!-- Node24 -->
<g id="Node000024" class="node">
<title>Node24</title>
<g id="a_Node000024"><a xlink:href="LogSink_8ixx.html" target="_top" xlink:title="Abstract interface for log output destinations.">
<polygon fill="white" stroke="#666666" points="1517.42,-79.5 1393.42,-79.5 1393.42,-60.5 1517.42,-60.5 1517.42,-79.5"/>
<text text-anchor="middle" x="1455.42" y="-67.5" font-family="Helvetica,sans-Serif" font-size="10.00">helios.util.log.LogSink</text>
</a>
</g>
</g>
<!-- Node16&#45;&gt;Node24 -->
<g id="edge44_Node000016_Node000024" class="edge">
<title>Node16&#45;&gt;Node24</title>
<g id="a_edge44_Node000016_Node000024"><a xlink:title=" ">
<path fill="none" stroke="#63b8ff" d="M1375.68,-258.42C1395.85,-240.79 1440.12,-198.18 1456.42,-151 1463.34,-130.95 1461.65,-106.34 1459.15,-89.76"/>
<polygon fill="#63b8ff" stroke="#63b8ff" points="1462.57,-88.96 1457.4,-79.71 1455.67,-90.16 1462.57,-88.96"/>
</a>
</g>
</g>
<!-- Node25 -->
<g id="Node000025" class="node">
<title>Node25</title>
<g id="a_Node000025"><a xlink:href="ConsoleSink_8ixx.html" target="_top" xlink:title="Log sink that writes to stdout.">
<polygon fill="white" stroke="#666666" points="1665.42,-145.5 1519.42,-145.5 1519.42,-126.5 1665.42,-126.5 1665.42,-145.5"/>
<text text-anchor="middle" x="1592.42" y="-133.5" font-family="Helvetica,sans-Serif" font-size="10.00">helios.util.log.ConsoleSink</text>
</a>
</g>
</g>
<!-- Node16&#45;&gt;Node25 -->
<g id="edge41_Node000016_Node000025" class="edge">
<title>Node16&#45;&gt;Node25</title>
<g id="a_edge41_Node000016_Node000025"><a xlink:title=" ">
<path fill="none" stroke="#63b8ff" d="M1401.39,-258.44C1430.75,-250.46 1472.61,-236.81 1505.42,-217 1534.4,-199.5 1562.16,-171.32 1578.24,-153.5"/>
<polygon fill="#63b8ff" stroke="#63b8ff" points="1581.15,-155.49 1585.15,-145.68 1575.9,-150.86 1581.15,-155.49"/>
</a>
</g>
</g>
<!-- Node17&#45;&gt;Node14 -->
<g id="edge29_Node000017_Node000014" class="edge">
<title>Node17&#45;&gt;Node14</title>
<g id="a_edge29_Node000017_Node000014"><a xlink:title=" ">
<path fill="none" stroke="#63b8ff" d="M1124.33,-192.31C1116.32,-176.15 1097.1,-141.31 1071.42,-121 1046.67,-101.44 1013.24,-88.5 987.47,-80.7"/>
<polygon fill="#63b8ff" stroke="#63b8ff" points="988.24,-77.28 977.66,-77.86 986.29,-84 988.24,-77.28"/>
</a>
</g>
</g>
<!-- Node18 -->
<g id="Node000018" class="node">
<title>Node18</title>
<g id="a_Node000018"><a xlink:title=" ">
<polygon fill="#e0e0e0" stroke="#999999" points="1432.42,-19 1388.42,-19 1388.42,0 1432.42,0 1432.42,-19"/>
<text text-anchor="middle" x="1410.42" y="-7" font-family="Helvetica,sans-Serif" font-size="10.00">string</text>
</a>
</g>
</g>
<!-- Node17&#45;&gt;Node18 -->
<g id="edge26_Node000017_Node000018" class="edge">
<title>Node17&#45;&gt;Node18</title>
<g id="a_edge26_Node000017_Node000018"><a xlink:title=" ">
<path fill="none" stroke="#63b8ff" d="M1130.43,-192.39C1137.06,-166.16 1160.95,-87.11 1214.42,-55 1266.04,-24 1337.14,-14.57 1377.99,-11.72"/>
<polygon fill="#63b8ff" stroke="#63b8ff" points="1378.41,-15.2 1388.18,-11.1 1377.99,-8.21 1378.41,-15.2"/>
</a>
</g>
</g>
<!-- Node19 -->
<g id="Node000019" class="node">
<title>Node19</title>
<g id="a_Node000019"><a xlink:title=" ">
<polygon fill="#e0e0e0" stroke="#999999" points="1287.92,-145.5 1194.92,-145.5 1194.92,-126.5 1287.92,-126.5 1287.92,-145.5"/>
<text text-anchor="middle" x="1241.42" y="-133.5" font-family="Helvetica,sans-Serif" font-size="10.00">unordered_map</text>
</a>
</g>
</g>
<!-- Node17&#45;&gt;Node19 -->
<g id="edge27_Node000017_Node000019" class="edge">
<title>Node17&#45;&gt;Node19</title>
<g id="a_edge27_Node000017_Node000019"><a xlink:title=" ">
<path fill="none" stroke="#63b8ff" d="M1143.66,-192.37C1162.53,-181.68 1194.9,-163.35 1217.19,-150.72"/>
<polygon fill="#63b8ff" stroke="#63b8ff" points="1219.08,-153.67 1226.06,-145.7 1215.63,-147.58 1219.08,-153.67"/>
</a>
</g>
</g>
<!-- Node20 -->
<g id="Node000020" class="node">
<title>Node20</title>
<g id="a_Node000020"><a xlink:title=" ">
<polygon fill="#e0e0e0" stroke="#999999" points="1062.42,-145.5 976.42,-145.5 976.42,-126.5 1062.42,-126.5 1062.42,-145.5"/>
<text text-anchor="middle" x="1019.42" y="-133.5" font-family="Helvetica,sans-Serif" font-size="10.00">unordered_set</text>
</a>
</g>
</g>
<!-- Node17&#45;&gt;Node20 -->
<g id="edge28_Node000017_Node000020" class="edge">
<title>Node17&#45;&gt;Node20</title>
<g id="a_edge28_Node000017_Node000020"><a xlink:title=" ">
<path fill="none" stroke="#63b8ff" d="M1113.72,-192.37C1095.6,-181.73 1064.56,-163.51 1043.07,-150.89"/>
<polygon fill="#63b8ff" stroke="#63b8ff" points="1044.63,-147.74 1034.23,-145.7 1041.08,-153.78 1044.63,-147.74"/>
</a>
</g>
</g>
<!-- Node21 -->
<g id="Node000021" class="node">
<title>Node21</title>
<g id="a_Node000021"><a xlink:title=" ">
<polygon fill="#e0e0e0" stroke="#999999" points="1271.42,-79.5 1223.42,-79.5 1223.42,-60.5 1271.42,-60.5 1271.42,-79.5"/>
<text text-anchor="middle" x="1247.42" y="-67.5" font-family="Helvetica,sans-Serif" font-size="10.00">mutex</text>
</a>
</g>
</g>
<!-- Node17&#45;&gt;Node21 -->
<g id="edge30_Node000017_Node000021" class="edge">
<title>Node17&#45;&gt;Node21</title>
<g id="a_edge30_Node000017_Node000021"><a xlink:title=" ">
<path fill="none" stroke="#63b8ff" d="M1133.84,-192.03C1143.39,-176.61 1164.3,-144.47 1186.42,-121 1198.66,-108.01 1214.25,-95.28 1226.61,-85.92"/>
<polygon fill="#63b8ff" stroke="#63b8ff" points="1228.99,-88.51 1234.94,-79.74 1224.82,-82.89 1228.99,-88.51"/>
</a>
</g>
</g>
<!-- Node22 -->
<g id="Node000022" class="node">
<title>Node22</title>
<g id="a_Node000022"><a xlink:title=" ">
<polygon fill="#e0e0e0" stroke="#999999" points="859.92,-79.5 812.92,-79.5 812.92,-60.5 859.92,-60.5 859.92,-79.5"/>
<text text-anchor="middle" x="836.42" y="-67.5" font-family="Helvetica,sans-Serif" font-size="10.00">vector</text>
</a>
</g>
</g>
<!-- Node17&#45;&gt;Node22 -->
<g id="edge31_Node000017_Node000022" class="edge">
<title>Node17&#45;&gt;Node22</title>
<g id="a_edge31_Node000017_Node000022"><a xlink:title=" ">
<path fill="none" stroke="#63b8ff" d="M1091.99,-192.44C1058.73,-183.99 1008.62,-169.63 967.42,-151 925.9,-132.22 881.39,-102.84 856.42,-85.39"/>
<polygon fill="#63b8ff" stroke="#63b8ff" points="858.33,-82.46 848.14,-79.55 854.29,-88.18 858.33,-82.46"/>
</a>
</g>
</g>
<!-- Node17&#45;&gt;Node23 -->
<g id="edge32_Node000017_Node000023" class="edge">
<title>Node17&#45;&gt;Node23</title>
<g id="a_edge32_Node000017_Node000023"><a xlink:title=" ">
<path fill="none" stroke="#63b8ff" d="M1160.38,-192.37C1202.64,-180.96 1277.18,-160.83 1323.8,-148.24"/>
<polygon fill="#63b8ff" stroke="#63b8ff" points="1324.84,-151.58 1333.58,-145.6 1323.02,-144.82 1324.84,-151.58"/>
</a>
</g>
</g>
<!-- Node17&#45;&gt;Node24 -->
<g id="edge39_Node000017_Node000024" class="edge">
<title>Node17&#45;&gt;Node24</title>
<g id="a_edge39_Node000017_Node000024"><a xlink:title=" ">
<path fill="none" stroke="#63b8ff" d="M1201.6,-198.04C1281.08,-193.31 1401.16,-181.24 1434.42,-151 1451.48,-135.48 1455.4,-107.93 1455.95,-89.57"/>
<polygon fill="#63b8ff" stroke="#63b8ff" points="1459.45,-89.5 1455.94,-79.51 1452.45,-89.51 1459.45,-89.5"/>
</a>
</g>
</g>
<!-- Node23&#45;&gt;Node14 -->
<g id="edge35_Node000023_Node000014" class="edge">
<title>Node23&#45;&gt;Node14</title>
<g id="a_edge35_Node000023_Node000014"><a xlink:title=" ">
<path fill="none" stroke="#63b8ff" d="M1325.94,-126.45C1316.61,-124.55 1306.68,-122.62 1297.42,-121 1185.46,-101.47 1052.33,-83.97 987.62,-75.83"/>
<polygon fill="#63b8ff" stroke="#63b8ff" points="987.83,-72.33 977.47,-74.56 986.96,-79.27 987.83,-72.33"/>
</a>
</g>
</g>
<!-- Node23&#45;&gt;Node18 -->
<g id="edge33_Node000023_Node000018" class="edge">
<title>Node23&#45;&gt;Node18</title>
<g id="a_edge33_Node000023_Node000018"><a xlink:title=" ">
<path fill="none" stroke="#63b8ff" d="M1366.61,-126.34C1368.87,-111.38 1374.44,-79.91 1384.42,-55 1388.2,-45.57 1393.74,-35.75 1398.74,-27.74"/>
<polygon fill="#63b8ff" stroke="#63b8ff" points="1401.7,-29.59 1404.21,-19.3 1395.83,-25.78 1401.7,-29.59"/>
</a>
</g>
</g>
<!-- Node23&#45;&gt;Node21 -->
<g id="edge36_Node000023_Node000021" class="edge">
<title>Node23&#45;&gt;Node21</title>
<g id="a_edge36_Node000023_Node000021"><a xlink:title=" ">
<path fill="none" stroke="#63b8ff" d="M1349.5,-126.37C1329.71,-115.63 1295.69,-97.18 1272.4,-84.55"/>
<polygon fill="#63b8ff" stroke="#63b8ff" points="1273.91,-81.39 1263.46,-79.7 1270.58,-87.54 1273.91,-81.39"/>
</a>
</g>
</g>
<!-- Node23&#45;&gt;Node22 -->
<g id="edge34_Node000023_Node000022" class="edge">
<title>Node23&#45;&gt;Node22</title>
<g id="a_edge34_Node000023_Node000022"><a xlink:title=" ">
<path fill="none" stroke="#63b8ff" d="M1327.78,-126.48C1317.94,-124.46 1307.31,-122.47 1297.42,-121 1126.56,-95.54 1081.47,-109.08 910.42,-85 897.17,-83.13 882.68,-80.52 870.07,-78.06"/>
<polygon fill="#63b8ff" stroke="#63b8ff" points="870.48,-74.57 859.98,-76.05 869.11,-81.44 870.48,-74.57"/>
</a>
</g>
</g>
<!-- Node23&#45;&gt;Node24 -->
<g id="edge37_Node000023_Node000024" class="edge">
<title>Node23&#45;&gt;Node24</title>
<g id="a_edge37_Node000023_Node000024"><a xlink:title=" ">
<path fill="none" stroke="#63b8ff" d="M1377.55,-126.37C1392.18,-115.97 1417,-98.32 1434.68,-85.75"/>
<polygon fill="#63b8ff" stroke="#63b8ff" points="1437.06,-88.35 1443.18,-79.7 1433.01,-82.64 1437.06,-88.35"/>
</a>
</g>
</g>
<!-- Node24&#45;&gt;Node18 -->
<g id="edge38_Node000024_Node000018" class="edge">
<title>Node24&#45;&gt;Node18</title>
<g id="a_edge38_Node000024_Node000018"><a xlink:title=" ">
<path fill="none" stroke="#63b8ff" d="M1448.78,-60.37C1442.13,-51.73 1431.73,-38.2 1423.43,-27.42"/>
<polygon fill="#63b8ff" stroke="#63b8ff" points="1425.96,-24.96 1417.08,-19.17 1420.41,-29.23 1425.96,-24.96"/>
</a>
</g>
</g>
<!-- Node25&#45;&gt;Node18 -->
<g id="edge42_Node000025_Node000018" class="edge">
<title>Node25&#45;&gt;Node18</title>
<g id="a_edge42_Node000025_Node000018"><a xlink:title=" ">
<path fill="none" stroke="#63b8ff" d="M1587.37,-126.29C1577.57,-110.09 1554.48,-75.19 1526.42,-55 1500.98,-36.7 1467.07,-24.84 1442.48,-18.01"/>
<polygon fill="#63b8ff" stroke="#63b8ff" points="1443.13,-14.56 1432.57,-15.38 1441.34,-21.32 1443.13,-14.56"/>
</a>
</g>
</g>
<!-- Node25&#45;&gt;Node24 -->
<g id="edge43_Node000025_Node000024" class="edge">
<title>Node25&#45;&gt;Node24</title>
<g id="a_edge43_Node000025_Node000024"><a xlink:title=" ">
<path fill="none" stroke="#63b8ff" d="M1573.94,-126.37C1550.65,-115.49 1510.41,-96.69 1483.35,-84.05"/>
<polygon fill="#63b8ff" stroke="#63b8ff" points="1484.58,-80.76 1474.04,-79.7 1481.62,-87.1 1484.58,-80.76"/>
</a>
</g>
</g>
<!-- Node26&#45;&gt;Node6 -->
<g id="edge47_Node000026_Node000006" class="edge">
<title>Node26&#45;&gt;Node6</title>
<g id="a_edge47_Node000026_Node000006"><a xlink:title=" ">
<path fill="none" stroke="#63b8ff" d="M1087.02,-252.76C1061.68,-234.01 1013.88,-201.72 967.42,-187 944.49,-179.74 628.03,-154.52 478.56,-142.92"/>
<polygon fill="#63b8ff" stroke="#63b8ff" points="478.77,-139.43 468.53,-142.15 478.23,-146.41 478.77,-139.43"/>
</a>
</g>
</g>
<!-- Node26&#45;&gt;Node17 -->
<g id="edge49_Node000026_Node000017" class="edge">
<title>Node26&#45;&gt;Node17</title>
<g id="a_edge49_Node000026_Node000017"><a xlink:title=" ">
<path fill="none" stroke="#63b8ff" d="M1110.52,-252.8C1113.86,-243.5 1118.26,-231.27 1121.85,-221.26"/>
<polygon fill="#63b8ff" stroke="#63b8ff" points="1125.15,-222.44 1125.24,-211.84 1118.56,-220.07 1125.15,-222.44"/>
</a>
</g>
</g>
<!-- Node26&#45;&gt;Node23 -->
<g id="edge48_Node000026_Node000023" class="edge">
<title>Node26&#45;&gt;Node23</title>
<g id="a_edge48_Node000026_Node000023"><a xlink:title=" ">
<path fill="none" stroke="#63b8ff" d="M1163.15,-252.95C1192.59,-244.6 1228.41,-232.58 1258.42,-217 1293,-199.04 1328.27,-170.2 1348.44,-152.49"/>
<polygon fill="#63b8ff" stroke="#63b8ff" points="1350.98,-154.92 1356.11,-145.65 1346.32,-149.7 1350.98,-154.92"/>
</a>
</g>
</g>
<!-- Node27&#45;&gt;Node9 -->
<g id="edge55_Node000027_Node000009" class="edge">
<title>Node27&#45;&gt;Node9</title>
<g id="a_edge55_Node000027_Node000009"><a xlink:title=" ">
<path fill="none" stroke="#63b8ff" d="M742.42,-263.62C701.96,-258.16 654.24,-245.5 620.42,-217 581.67,-184.34 571.25,-120.96 568.45,-89.56"/>
<polygon fill="#63b8ff" stroke="#63b8ff" points="571.94,-89.27 567.72,-79.55 564.95,-89.78 571.94,-89.27"/>
</a>
</g>
</g>
<!-- Node27&#45;&gt;Node11 -->
<g id="edge64_Node000027_Node000011" class="edge">
<title>Node27&#45;&gt;Node11</title>
<g id="a_edge64_Node000027_Node000011"><a xlink:title=" ">
<path fill="none" stroke="#63b8ff" d="M742.16,-262.64C623.9,-255.71 394.03,-240.63 188.78,-217.1"/>
<polygon fill="#63b8ff" stroke="#63b8ff" points="189.06,-213.61 178.72,-215.94 188.25,-220.57 189.06,-213.61"/>
</a>
</g>
</g>
<!-- Node27&#45;&gt;Node14 -->
<g id="edge52_Node000027_Node000014" class="edge">
<title>Node27&#45;&gt;Node14</title>
<g id="a_edge52_Node000027_Node000014"><a xlink:title=" ">
<path fill="none" stroke="#63b8ff" d="M827.04,-258.33C846.5,-228.28 911.27,-128.33 937.37,-88.05"/>
<polygon fill="#63b8ff" stroke="#63b8ff" points="940.36,-89.87 942.86,-79.57 934.49,-86.06 940.36,-89.87"/>
</a>
</g>
</g>
<!-- Node27&#45;&gt;Node15 -->
<g id="edge53_Node000027_Node000015" class="edge">
<title>Node27&#45;&gt;Node15</title>
<g id="a_edge53_Node000027_Node000015"><a xlink:title=" ">
<path fill="none" stroke="#63b8ff" d="M835.44,-258.37C852.66,-247.78 882.07,-229.67 902.57,-217.06"/>
<polygon fill="#63b8ff" stroke="#63b8ff" points="904.6,-219.92 911.28,-211.7 900.93,-213.96 904.6,-219.92"/>
</a>
</g>
</g>
<!-- Node27&#45;&gt;Node17 -->
<g id="edge57_Node000027_Node000017" class="edge">
<title>Node27&#45;&gt;Node17</title>
<g id="a_edge57_Node000027_Node000017"><a xlink:title=" ">
<path fill="none" stroke="#63b8ff" d="M862.5,-258.44C918.1,-246.84 1017.27,-226.17 1077.52,-213.61"/>
<polygon fill="#63b8ff" stroke="#63b8ff" points="1078.5,-216.98 1087.58,-211.51 1077.07,-210.13 1078.5,-216.98"/>
</a>
</g>
</g>
<!-- Node27&#45;&gt;Node22 -->
<g id="edge54_Node000027_Node000022" class="edge">
<title>Node27&#45;&gt;Node22</title>
<g id="a_edge54_Node000027_Node000022"><a xlink:title=" ">
<path fill="none" stroke="#63b8ff" d="M822.08,-258.33C824.35,-228.66 831.84,-130.85 834.99,-89.6"/>
<polygon fill="#63b8ff" stroke="#63b8ff" points="838.49,-89.81 835.76,-79.57 831.51,-89.28 838.49,-89.81"/>
</a>
</g>
</g>
<!-- Node27&#45;&gt;Node23 -->
<g id="edge56_Node000027_Node000023" class="edge">
<title>Node27&#45;&gt;Node23</title>
<g id="a_edge56_Node000027_Node000023"><a xlink:title=" ">
<path fill="none" stroke="#63b8ff" d="M900.5,-260.86C997.26,-252.64 1155.03,-236.79 1210.42,-217 1234.11,-208.53 1236.31,-199.01 1258.42,-187 1284.04,-173.07 1314.22,-159.19 1335.98,-149.6"/>
<polygon fill="#63b8ff" stroke="#63b8ff" points="1337.58,-152.72 1345.34,-145.51 1334.77,-146.31 1337.58,-152.72"/>
</a>
</g>
</g>
<!-- Node28 -->
<g id="Node000028" class="node">
<title>Node28</title>
<g id="a_Node000028"><a xlink:href="Shape_8ixx.html" target="_top" xlink:title="Interface for simple geometric shapes used for testing and debugging.">
<polygon fill="white" stroke="#666666" points="798.42,-217 638.42,-217 638.42,-187 798.42,-187 798.42,-217"/>
<text text-anchor="start" x="646.42" y="-205" font-family="Helvetica,sans-Serif" font-size="10.00">helios.rendering.asset.shape.</text>
<text text-anchor="middle" x="718.42" y="-194" font-family="Helvetica,sans-Serif" font-size="10.00">Shape</text>
</a>
</g>
</g>
<!-- Node27&#45;&gt;Node28 -->
<g id="edge58_Node000027_Node000028" class="edge">
<title>Node27&#45;&gt;Node28</title>
<g id="a_edge58_Node000027_Node000028"><a xlink:title=" ">
<path fill="none" stroke="#63b8ff" d="M807.53,-258.37C792.76,-249.2 768.94,-234.39 749.64,-222.4"/>
<polygon fill="#63b8ff" stroke="#63b8ff" points="751.48,-219.42 741.13,-217.12 747.78,-225.37 751.48,-219.42"/>
</a>
</g>
</g>
<!-- Node29 -->
<g id="Node000029" class="node">
<title>Node29</title>
<g id="a_Node000029"><a xlink:href="Vertex_8ixx.html" target="_top" xlink:title="Vertex description and utilities for rendering.">
<polygon fill="white" stroke="#666666" points="730.42,-145.5 600.42,-145.5 600.42,-126.5 730.42,-126.5 730.42,-145.5"/>
<text text-anchor="middle" x="665.42" y="-133.5" font-family="Helvetica,sans-Serif" font-size="10.00">helios.rendering.Vertex</text>
</a>
</g>
</g>
<!-- Node27&#45;&gt;Node29 -->
<g id="edge65_Node000027_Node000029" class="edge">
<title>Node27&#45;&gt;Node29</title>
<g id="a_edge65_Node000027_Node000029"><a xlink:title=" ">
<path fill="none" stroke="#63b8ff" d="M755.56,-258.5C706.32,-250.64 644.95,-237.1 629.42,-217 614.21,-197.32 633.05,-170.2 648.69,-153.14"/>
<polygon fill="#63b8ff" stroke="#63b8ff" points="651.5,-155.26 655.94,-145.64 646.47,-150.39 651.5,-155.26"/>
</a>
</g>
</g>
<!-- Node28&#45;&gt;Node12 -->
<g id="edge61_Node000028_Node000012" class="edge">
<title>Node28&#45;&gt;Node12</title>
<g id="a_edge61_Node000028_Node000012"><a xlink:title=" ">
<path fill="none" stroke="#63b8ff" d="M638.37,-192.76C523.01,-180.89 310.5,-159.03 188.68,-146.49"/>
<polygon fill="#63b8ff" stroke="#63b8ff" points="188.93,-143 178.62,-145.46 188.21,-149.96 188.93,-143"/>
</a>
</g>
</g>
<!-- Node28&#45;&gt;Node14 -->
<g id="edge59_Node000028_Node000014" class="edge">
<title>Node28&#45;&gt;Node14</title>
<g id="a_edge59_Node000028_Node000014"><a xlink:title=" ">
<path fill="none" stroke="#63b8ff" d="M742.9,-186.89C770.8,-170.84 817.81,-143.88 858.42,-121 880.56,-108.52 905.88,-94.48 924.01,-84.46"/>
<polygon fill="#63b8ff" stroke="#63b8ff" points="925.71,-87.51 932.78,-79.61 922.33,-81.38 925.71,-87.51"/>
</a>
</g>
</g>
<!-- Node28&#45;&gt;Node22 -->
<g id="edge60_Node000028_Node000022" class="edge">
<title>Node28&#45;&gt;Node22</title>
<g id="a_edge60_Node000028_Node000022"><a xlink:title=" ">
<path fill="none" stroke="#63b8ff" d="M728.69,-186.9C740.86,-170.49 762.06,-142.88 782.42,-121 793.79,-108.77 807.62,-96 818.44,-86.42"/>
<polygon fill="#63b8ff" stroke="#63b8ff" points="820.81,-89 826.04,-79.79 816.2,-83.73 820.81,-89"/>
</a>
</g>
</g>
<!-- Node28&#45;&gt;Node29 -->
<g id="edge62_Node000028_Node000029" class="edge">
<title>Node28&#45;&gt;Node29</title>
<g id="a_edge62_Node000028_Node000029"><a xlink:title=" ">
<path fill="none" stroke="#63b8ff" d="M706.65,-186.8C698.55,-177.01 687.76,-163.98 679.25,-153.7"/>
<polygon fill="#63b8ff" stroke="#63b8ff" points="681.82,-151.31 672.74,-145.84 676.42,-155.78 681.82,-151.31"/>
</a>
</g>
</g>
<!-- Node29&#45;&gt;Node9 -->
<g id="edge63_Node000029_Node000009" class="edge">
<title>Node29&#45;&gt;Node9</title>
<g id="a_edge63_Node000029_Node000009"><a xlink:title=" ">
<path fill="none" stroke="#63b8ff" d="M652.2,-126.37C636.05,-115.82 608.51,-97.84 589.21,-85.23"/>
<polygon fill="#63b8ff" stroke="#63b8ff" points="591.02,-82.24 580.74,-79.7 587.2,-88.1 591.02,-82.24"/>
</a>
</g>
</g>
</g>
</svg>
