<?xml version="1.0" encoding="UTF-8" standalone="no"?>
<!DOCTYPE svg PUBLIC "-//W3C//DTD SVG 1.1//EN"
 "http://www.w3.org/Graphics/SVG/1.1/DTD/svg11.dtd">
<!-- Generated by graphviz version 2.43.0 (0)
 -->
<!-- Title: include/helios/rendering/asset/shape/_module.ixx Pages: 1 -->
<!--zoomable 348 -->

<svg id="main" version="1.1" xmlns="http://www.w3.org/2000/svg" xmlns:xlink="http://www.w3.org/1999/xlink" xml:space="preserve" onload="init(evt)">

<style type="text/css"><![CDATA[
.node, .edge {opacity: 0.7;}
.node.selected, .edge.selected {opacity: 1;}
.edge:hover path { stroke: red; }
.edge:hover polygon { stroke: red; fill: red; }
]]></style>

<defs>
  <circle id="rim" cx="0" cy="0" r="7"/>
  <circle id="rim2" cx="0" cy="0" r="3.5"/>
  <g id="zoomPlus">
    <use xlink:href="#rim" fill="#404040"><set attributeName="fill" to="#808080" begin="zoomplus.mouseover" end="zoomplus.mouseout"/></use>
    <path d="M-4,0h8M0,-4v8" fill="none" stroke="white" stroke-width="1.5" pointer-events="none"/>
  </g>
  <g id="zoomMin">
    <use xlink:href="#rim" fill="#404040"><set attributeName="fill" to="#808080" begin="zoomminus.mouseover" end="zoomminus.mouseout"/></use>
    <path d="M-4,0h8" fill="none" stroke="white" stroke-width="1.5" pointer-events="none"/>
  </g>
  <g id="arrowUp" transform="translate(30 24)">
    <use xlink:href="#rim"/>
    <path pointer-events="none" fill="none" stroke="white" stroke-width="1.5" d="M0,-3.0v7 M-2.5,-0.5L0,-3.0L2.5,-0.5"/>
  </g>
  <g id="arrowRight" transform="rotate(90) translate(36 -43)">
    <use xlink:href="#rim"/>
    <path pointer-events="none" fill="none" stroke="white" stroke-width="1.5" d="M0,-3.0v7 M-2.5,-0.5L0,-3.0L2.5,-0.5"/>
  </g>
  <g id="arrowDown" transform="rotate(180) translate(-30 -48)">
    <use xlink:href="#rim"/>
    <path pointer-events="none" fill="none" stroke="white" stroke-width="1.5" d="M0,-3.0v7 M-2.5,-0.5L0,-3.0L2.5,-0.5"/>
  </g>
  <g id="arrowLeft" transform="rotate(270) translate(-36 17)">
    <use xlink:href="#rim"/>
    <path pointer-events="none" fill="none" stroke="white" stroke-width="1.5" d="M0,-3.0v7 M-2.5,-0.5L0,-3.0L2.5,-0.5"/>
  </g>
  <g id="resetDef">
    <use xlink:href="#rim2" fill="#404040"><set attributeName="fill" to="#808080" begin="reset.mouseover" end="reset.mouseout"/></use>
  </g>
</defs>
<script type="application/ecmascript">
var viewWidth = 1332;
var viewHeight = 348;
var sectionId = 'dynsection-0';
</script>
<script type="application/ecmascript" xlink:href="svg.min.js"/>
<svg id="graph" class="graph">
<g id="viewport">
<title>include/helios/rendering/asset/shape/_module.ixx</title>
<!-- Node1 -->
<g id="Node000001" class="node">
<title>Node1</title>
<g id="a_Node000001"><a xlink:title="Module exports for shape definitions for rendering assets.">
<polygon fill="#999999" stroke="#666666" points="468.5,-340.17 327.5,-340.17 327.5,-310.17 468.5,-310.17 468.5,-340.17"/>
<text text-anchor="start" x="335.5" y="-328.17" font-family="Helvetica,sans-Serif" font-size="10.00">include/helios/rendering</text>
<text text-anchor="middle" x="398" y="-317.17" font-family="Helvetica,sans-Serif" font-size="10.00">/asset/shape/_module.ixx</text>
</a>
</g>
</g>
<!-- Node2 -->
<g id="Node000002" class="node">
<title>Node2</title>
<g id="a_Node000002"><a xlink:href="helios_2rendering_2asset_2shape_2basic_2__module_8ixx.html" target="_top" xlink:title="Module exports for basic geometric primitive shapes.">
<polygon fill="white" stroke="#666666" points="672.5,-274.17 487.5,-274.17 487.5,-255.17 672.5,-255.17 672.5,-274.17"/>
<text text-anchor="middle" x="580" y="-262.17" font-family="Helvetica,sans-Serif" font-size="10.00">helios.rendering.asset.shape.basic</text>
</a>
</g>
</g>
<!-- Node1&#45;&gt;Node2 -->
<g id="edge1_Node000001_Node000002" class="edge">
<title>Node1&#45;&gt;Node2</title>
<g id="a_edge1_Node000001_Node000002"><a xlink:title=" ">
<path fill="none" stroke="#63b8ff" d="M441.59,-310.16C472.73,-300.15 514.14,-286.84 543.53,-277.4"/>
<polygon fill="#63b8ff" stroke="#63b8ff" points="544.94,-280.62 553.39,-274.23 542.8,-273.96 544.94,-280.62"/>
</a>
</g>
</g>
<!-- Node9 -->
<g id="Node000009" class="node">
<title>Node9</title>
<g id="a_Node000009"><a xlink:href="Shape_8ixx.html" target="_top" xlink:title="Interface for simple geometric shapes used for testing and debugging.">
<polygon fill="white" stroke="#666666" points="570,-153.17 410,-153.17 410,-123.17 570,-123.17 570,-153.17"/>
<text text-anchor="start" x="418" y="-141.17" font-family="Helvetica,sans-Serif" font-size="10.00">helios.rendering.asset.shape.</text>
<text text-anchor="middle" x="490" y="-130.17" font-family="Helvetica,sans-Serif" font-size="10.00">Shape</text>
</a>
</g>
</g>
<!-- Node1&#45;&gt;Node9 -->
<g id="edge46_Node000001_Node000009" class="edge">
<title>Node1&#45;&gt;Node9</title>
<g id="a_edge46_Node000001_Node000009"><a xlink:title=" ">
<path fill="none" stroke="#63b8ff" d="M355.37,-310.17C293.92,-287.77 192.27,-241.09 235,-189.17 245.71,-176.16 330.77,-161.31 399.75,-151.2"/>
<polygon fill="#63b8ff" stroke="#63b8ff" points="400.41,-154.64 409.8,-149.74 399.4,-147.71 400.41,-154.64"/>
</a>
</g>
</g>
<!-- Node3 -->
<g id="Node000003" class="node">
<title>Node3</title>
<g id="a_Node000003"><a xlink:href="Grid_8ixx.html" target="_top" xlink:title="Basic grid shape for rendering.">
<polygon fill="white" stroke="#666666" points="911.5,-213.67 702.5,-213.67 702.5,-194.67 911.5,-194.67 911.5,-213.67"/>
<text text-anchor="middle" x="807" y="-201.67" font-family="Helvetica,sans-Serif" font-size="10.00">helios.rendering.asset.shape.basic.Grid</text>
</a>
</g>
</g>
<!-- Node2&#45;&gt;Node3 -->
<g id="edge2_Node000002_Node000003" class="edge">
<title>Node2&#45;&gt;Node3</title>
<g id="a_edge2_Node000002_Node000003"><a xlink:title=" ">
<path fill="none" stroke="#63b8ff" d="M613.01,-255.17C652.94,-244.88 720.24,-227.53 764.14,-216.22"/>
<polygon fill="#63b8ff" stroke="#63b8ff" points="765.14,-219.58 773.95,-213.69 763.4,-212.8 765.14,-219.58"/>
</a>
</g>
</g>
<!-- Node11 -->
<g id="Node000011" class="node">
<title>Node11</title>
<g id="a_Node000011"><a xlink:href="Ellipse_8ixx.html" target="_top" xlink:title="Basic ellipse shape for 2D rendering.">
<polygon fill="white" stroke="#666666" points="1324,-219.17 1136,-219.17 1136,-189.17 1324,-189.17 1324,-219.17"/>
<text text-anchor="start" x="1144" y="-207.17" font-family="Helvetica,sans-Serif" font-size="10.00">helios.rendering.asset.shape.basic.</text>
<text text-anchor="middle" x="1230" y="-196.17" font-family="Helvetica,sans-Serif" font-size="10.00">Ellipse</text>
</a>
</g>
</g>
<!-- Node2&#45;&gt;Node11 -->
<g id="edge15_Node000002_Node000011" class="edge">
<title>Node2&#45;&gt;Node11</title>
<g id="a_edge15_Node000002_Node000011"><a xlink:title=" ">
<path fill="none" stroke="#63b8ff" d="M672.57,-257.67C779.24,-250.41 960.03,-237.04 1125.36,-219.31"/>
<polygon fill="#63b8ff" stroke="#63b8ff" points="1126.16,-222.75 1135.73,-218.2 1125.41,-215.79 1126.16,-222.75"/>
</a>
</g>
</g>
<!-- Node14 -->
<g id="Node000014" class="node">
<title>Node14</title>
<g id="a_Node000014"><a xlink:href="Circle_8ixx.html" target="_top" xlink:title="Basic circle shape for rendering.">
<polygon fill="white" stroke="#666666" points="1118,-219.17 930,-219.17 930,-189.17 1118,-189.17 1118,-219.17"/>
<text text-anchor="start" x="938" y="-207.17" font-family="Helvetica,sans-Serif" font-size="10.00">helios.rendering.asset.shape.basic.</text>
<text text-anchor="middle" x="1024" y="-196.17" font-family="Helvetica,sans-Serif" font-size="10.00">Circle</text>
</a>
</g>
</g>
<!-- Node2&#45;&gt;Node14 -->
<g id="edge23_Node000002_Node000014" class="edge">
<title>Node2&#45;&gt;Node14</title>
<g id="a_edge23_Node000002_Node000014"><a xlink:title=" ">
<path fill="none" stroke="#63b8ff" d="M646.02,-255.16C712.51,-246.57 818.33,-232.83 919.85,-219.32"/>
<polygon fill="#63b8ff" stroke="#63b8ff" points="920.53,-222.76 929.98,-217.98 919.6,-215.83 920.53,-222.76"/>
</a>
</g>
</g>
<!-- Node15 -->
<g id="Node000015" class="node">
<title>Node15</title>
<g id="a_Node000015"><a xlink:href="Cube_8ixx.html" target="_top" xlink:title="Basic cube shape for rendering.">
<polygon fill="white" stroke="#666666" points="457.5,-213.67 244.5,-213.67 244.5,-194.67 457.5,-194.67 457.5,-213.67"/>
<text text-anchor="middle" x="351" y="-201.67" font-family="Helvetica,sans-Serif" font-size="10.00">helios.rendering.asset.shape.basic.Cube</text>
</a>
</g>
</g>
<!-- Node2&#45;&gt;Node15 -->
<g id="edge31_Node000002_Node000015" class="edge">
<title>Node2&#45;&gt;Node15</title>
<g id="a_edge31_Node000002_Node000015"><a xlink:title=" ">
<path fill="none" stroke="#63b8ff" d="M546.7,-255.17C506.42,-244.88 438.52,-227.53 394.23,-216.22"/>
<polygon fill="#63b8ff" stroke="#63b8ff" points="394.89,-212.78 384.34,-213.69 393.16,-219.56 394.89,-212.78"/>
</a>
</g>
</g>
<!-- Node16 -->
<g id="Node000016" class="node">
<title>Node16</title>
<g id="a_Node000016"><a xlink:href="Line_8ixx.html" target="_top" xlink:title="Basic line shape for rendering.">
<polygon fill="white" stroke="#666666" points="684.5,-213.67 475.5,-213.67 475.5,-194.67 684.5,-194.67 684.5,-213.67"/>
<text text-anchor="middle" x="580" y="-201.67" font-family="Helvetica,sans-Serif" font-size="10.00">helios.rendering.asset.shape.basic.Line</text>
</a>
</g>
</g>
<!-- Node2&#45;&gt;Node16 -->
<g id="edge36_Node000002_Node000016" class="edge">
<title>Node2&#45;&gt;Node16</title>
<g id="a_edge36_Node000002_Node000016"><a xlink:title=" ">
<path fill="none" stroke="#63b8ff" d="M580,-255.04C580,-246.92 580,-234.48 580,-224.06"/>
<polygon fill="#63b8ff" stroke="#63b8ff" points="583.5,-223.84 580,-213.84 576.5,-223.84 583.5,-223.84"/>
</a>
</g>
</g>
<!-- Node17 -->
<g id="Node000017" class="node">
<title>Node17</title>
<g id="a_Node000017"><a xlink:href="Rectangle_8ixx.html" target="_top" xlink:title="Basic rectangle shape for rendering.">
<polygon fill="white" stroke="#666666" points="188,-219.17 0,-219.17 0,-189.17 188,-189.17 188,-219.17"/>
<text text-anchor="start" x="8" y="-207.17" font-family="Helvetica,sans-Serif" font-size="10.00">helios.rendering.asset.shape.basic.</text>
<text text-anchor="middle" x="94" y="-196.17" font-family="Helvetica,sans-Serif" font-size="10.00">Rectangle</text>
</a>
</g>
</g>
<!-- Node2&#45;&gt;Node17 -->
<g id="edge41_Node000002_Node000017" class="edge">
<title>Node2&#45;&gt;Node17</title>
<g id="a_edge41_Node000002_Node000017"><a xlink:title=" ">
<path fill="none" stroke="#63b8ff" d="M509.33,-255.17C427.54,-245.32 292.08,-229.02 198.21,-217.72"/>
<polygon fill="#63b8ff" stroke="#63b8ff" points="198.46,-214.22 188.12,-216.5 197.63,-221.17 198.46,-214.22"/>
</a>
</g>
</g>
<!-- Node4 -->
<g id="Node000004" class="node">
<title>Node4</title>
<g id="a_Node000004"><a xlink:title=" ">
<polygon fill="#e0e0e0" stroke="#999999" points="805.5,-147.67 740.5,-147.67 740.5,-128.67 805.5,-128.67 805.5,-147.67"/>
<text text-anchor="middle" x="773" y="-135.67" font-family="Helvetica,sans-Serif" font-size="10.00">stdexcept</text>
</a>
</g>
</g>
<!-- Node3&#45;&gt;Node4 -->
<g id="edge3_Node000003_Node000004" class="edge">
<title>Node3&#45;&gt;Node4</title>
<g id="a_edge3_Node000003_Node000004"><a xlink:title=" ">
<path fill="none" stroke="#63b8ff" d="M802.41,-194.54C797.32,-184.96 788.96,-169.22 782.46,-156.97"/>
<polygon fill="#63b8ff" stroke="#63b8ff" points="785.51,-155.27 777.73,-148.08 779.33,-158.55 785.51,-155.27"/>
</a>
</g>
</g>
<!-- Node5 -->
<g id="Node000005" class="node">
<title>Node5</title>
<g id="a_Node000005"><a xlink:title=" ">
<polygon fill="#e0e0e0" stroke="#999999" points="621.5,-81.67 574.5,-81.67 574.5,-62.67 621.5,-62.67 621.5,-81.67"/>
<text text-anchor="middle" x="598" y="-69.67" font-family="Helvetica,sans-Serif" font-size="10.00">vector</text>
</a>
</g>
</g>
<!-- Node3&#45;&gt;Node5 -->
<g id="edge4_Node000003_Node000005" class="edge">
<title>Node3&#45;&gt;Node5</title>
<g id="a_edge4_Node000003_Node000005"><a xlink:title=" ">
<path fill="none" stroke="#63b8ff" d="M793.29,-194.65C758.01,-172.7 663.83,-114.12 620.45,-87.14"/>
<polygon fill="#63b8ff" stroke="#63b8ff" points="622.1,-84.05 611.76,-81.74 618.41,-89.99 622.1,-84.05"/>
</a>
</g>
</g>
<!-- Node6 -->
<g id="Node000006" class="node">
<title>Node6</title>
<g id="a_Node000006"><a xlink:href="PrimitiveType_8ixx.html" target="_top" xlink:title="Enum of primitive types for mesh rendering.">
<polygon fill="white" stroke="#666666" points="453,-87.17 289,-87.17 289,-57.17 453,-57.17 453,-87.17"/>
<text text-anchor="start" x="297" y="-75.17" font-family="Helvetica,sans-Serif" font-size="10.00">helios.rendering.model.config.</text>
<text text-anchor="middle" x="371" y="-64.17" font-family="Helvetica,sans-Serif" font-size="10.00">PrimitiveType</text>
</a>
</g>
</g>
<!-- Node3&#45;&gt;Node6 -->
<g id="edge5_Node000003_Node000006" class="edge">
<title>Node3&#45;&gt;Node6</title>
<g id="a_edge5_Node000003_Node000006"><a xlink:title=" ">
<path fill="none" stroke="#63b8ff" d="M738.28,-194.65C723.66,-192.84 708.32,-190.94 694,-189.17 628.89,-181.14 452.54,-193.76 401,-153.17 383.95,-139.75 376.59,-115.54 373.41,-97.26"/>
<polygon fill="#63b8ff" stroke="#63b8ff" points="376.87,-96.71 371.98,-87.31 369.94,-97.71 376.87,-96.71"/>
</a>
</g>
</g>
<!-- Node7 -->
<g id="Node000007" class="node">
<title>Node7</title>
<g id="a_Node000007"><a xlink:href="helios_2math_2types_2__module_8ixx.html" target="_top" xlink:title="Module exports for vector and matrix type definitions.">
<polygon fill="white" stroke="#666666" points="1038,-21.17 934,-21.17 934,-2.17 1038,-2.17 1038,-21.17"/>
<text text-anchor="middle" x="986" y="-9.17" font-family="Helvetica,sans-Serif" font-size="10.00">helios.math.types</text>
</a>
</g>
</g>
<!-- Node3&#45;&gt;Node7 -->
<g id="edge6_Node000003_Node000007" class="edge">
<title>Node3&#45;&gt;Node7</title>
<g id="a_edge6_Node000003_Node000007"><a xlink:title=" ">
<path fill="none" stroke="#63b8ff" d="M815.16,-194.49C843,-164.87 934.55,-67.43 970.92,-28.73"/>
<polygon fill="#63b8ff" stroke="#63b8ff" points="973.5,-31.09 977.8,-21.41 968.4,-26.3 973.5,-31.09"/>
</a>
</g>
</g>
<!-- Node8 -->
<g id="Node000008" class="node">
<title>Node8</title>
<g id="a_Node000008"><a xlink:href="Vertex_8ixx.html" target="_top" xlink:title="Vertex description and utilities for rendering.">
<polygon fill="white" stroke="#666666" points="849,-81.67 719,-81.67 719,-62.67 849,-62.67 849,-81.67"/>
<text text-anchor="middle" x="784" y="-69.67" font-family="Helvetica,sans-Serif" font-size="10.00">helios.rendering.Vertex</text>
</a>
</g>
</g>
<!-- Node3&#45;&gt;Node8 -->
<g id="edge8_Node000003_Node000008" class="edge">
<title>Node3&#45;&gt;Node8</title>
<g id="a_edge8_Node000003_Node000008"><a xlink:title=" ">
<path fill="none" stroke="#63b8ff" d="M809.92,-194.58C814.5,-179.73 822.19,-148.41 815,-123.17 811.6,-111.24 804.44,-99.37 797.86,-90.19"/>
<polygon fill="#63b8ff" stroke="#63b8ff" points="800.48,-87.85 791.64,-82.01 794.91,-92.09 800.48,-87.85"/>
</a>
</g>
</g>
<!-- Node3&#45;&gt;Node9 -->
<g id="edge10_Node000003_Node000009" class="edge">
<title>Node3&#45;&gt;Node9</title>
<g id="a_edge10_Node000003_Node000009"><a xlink:title=" ">
<path fill="none" stroke="#63b8ff" d="M764.58,-194.61C714.87,-184.58 631.46,-167.74 569.59,-155.24"/>
<polygon fill="#63b8ff" stroke="#63b8ff" points="569.96,-151.75 559.47,-153.2 568.58,-158.61 569.96,-151.75"/>
</a>
</g>
</g>
<!-- Node7&#45;&gt;Node7 -->
<g id="edge7_Node000007_Node000007" class="edge">
<title>Node7&#45;&gt;Node7</title>
<g id="a_edge7_Node000007_Node000007"><a xlink:title=" ">
<path fill="none" stroke="#63b8ff" d="M1011.85,-21.21C1033.44,-25.28 1056,-22.1 1056,-11.67 1056,-2.87 1039.94,0.76 1021.95,-0.76"/>
<polygon fill="#63b8ff" stroke="#63b8ff" points="1021.28,2.68 1011.85,-2.14 1022.23,-4.26 1021.28,2.68"/>
</a>
</g>
</g>
<!-- Node8&#45;&gt;Node7 -->
<g id="edge9_Node000008_Node000007" class="edge">
<title>Node8&#45;&gt;Node7</title>
<g id="a_edge9_Node000008_Node000007"><a xlink:title=" ">
<path fill="none" stroke="#63b8ff" d="M813.37,-62.67C848.6,-52.47 907.79,-35.32 946.87,-24.01"/>
<polygon fill="#63b8ff" stroke="#63b8ff" points="947.96,-27.34 956.59,-21.19 946.01,-20.61 947.96,-27.34"/>
</a>
</g>
</g>
<!-- Node9&#45;&gt;Node5 -->
<g id="edge12_Node000009_Node000005" class="edge">
<title>Node9&#45;&gt;Node5</title>
<g id="a_edge12_Node000009_Node000005"><a xlink:title=" ">
<path fill="none" stroke="#63b8ff" d="M513.7,-123.13C531.89,-112.35 556.86,-97.55 574.9,-86.86"/>
<polygon fill="#63b8ff" stroke="#63b8ff" points="576.81,-89.8 583.63,-81.69 573.24,-83.78 576.81,-89.8"/>
</a>
</g>
</g>
<!-- Node9&#45;&gt;Node6 -->
<g id="edge13_Node000009_Node000006" class="edge">
<title>Node9&#45;&gt;Node6</title>
<g id="a_edge13_Node000009_Node000006"><a xlink:title=" ">
<path fill="none" stroke="#63b8ff" d="M463.88,-123.13C446.91,-114 424.58,-101.99 406.07,-92.03"/>
<polygon fill="#63b8ff" stroke="#63b8ff" points="407.52,-88.84 397.05,-87.19 404.2,-95.01 407.52,-88.84"/>
</a>
</g>
</g>
<!-- Node9&#45;&gt;Node8 -->
<g id="edge14_Node000009_Node000008" class="edge">
<title>Node9&#45;&gt;Node8</title>
<g id="a_edge14_Node000009_Node000008"><a xlink:title=" ">
<path fill="none" stroke="#63b8ff" d="M554.52,-123.13C608.92,-111.29 685.6,-94.6 735.06,-83.83"/>
<polygon fill="#63b8ff" stroke="#63b8ff" points="735.85,-87.24 744.87,-81.69 734.36,-80.4 735.85,-87.24"/>
</a>
</g>
</g>
<!-- Node10 -->
<g id="Node000010" class="node">
<title>Node10</title>
<g id="a_Node000010"><a xlink:title=" ">
<polygon fill="#e0e0e0" stroke="#999999" points="529,-81.67 471,-81.67 471,-62.67 529,-62.67 529,-81.67"/>
<text text-anchor="middle" x="500" y="-69.67" font-family="Helvetica,sans-Serif" font-size="10.00">memory</text>
</a>
</g>
</g>
<!-- Node9&#45;&gt;Node10 -->
<g id="edge11_Node000009_Node000010" class="edge">
<title>Node9&#45;&gt;Node10</title>
<g id="a_edge11_Node000009_Node000010"><a xlink:title=" ">
<path fill="none" stroke="#63b8ff" d="M492.22,-122.97C493.64,-113.87 495.5,-101.96 497.05,-92.07"/>
<polygon fill="#63b8ff" stroke="#63b8ff" points="500.53,-92.44 498.62,-82.02 493.62,-91.36 500.53,-92.44"/>
</a>
</g>
</g>
<!-- Node11&#45;&gt;Node5 -->
<g id="edge16_Node000011_Node000005" class="edge">
<title>Node11&#45;&gt;Node5</title>
<g id="a_edge16_Node000011_Node000005"><a xlink:title=" ">
<path fill="none" stroke="#63b8ff" d="M1232.82,-188.94C1235.49,-170.81 1236.81,-139.85 1219,-123.17 1177.61,-84.43 766.43,-92.69 710,-87.17 683.57,-84.59 653.73,-80.82 631.5,-77.84"/>
<polygon fill="#63b8ff" stroke="#63b8ff" points="631.94,-74.37 621.56,-76.49 631,-81.3 631.94,-74.37"/>
</a>
</g>
</g>
<!-- Node11&#45;&gt;Node6 -->
<g id="edge19_Node000011_Node000006" class="edge">
<title>Node11&#45;&gt;Node6</title>
<g id="a_edge19_Node000011_Node000006"><a xlink:title=" ">
<path fill="none" stroke="#63b8ff" d="M1226.72,-188.95C1221.58,-170.23 1209.65,-137.97 1186,-123.17 1119.91,-81.85 578.7,-94.41 463.36,-87.03"/>
<polygon fill="#63b8ff" stroke="#63b8ff" points="463.54,-83.53 453.29,-86.22 462.98,-90.51 463.54,-83.53"/>
</a>
</g>
</g>
<!-- Node11&#45;&gt;Node7 -->
<g id="edge21_Node000011_Node000007" class="edge">
<title>Node11&#45;&gt;Node7</title>
<g id="a_edge21_Node000011_Node000007"><a xlink:title=" ">
<path fill="none" stroke="#63b8ff" d="M1247.37,-189.09C1265.42,-172.71 1289.08,-145.12 1274,-123.17 1223.43,-49.61 1116.61,-25 1048.23,-16.78"/>
<polygon fill="#63b8ff" stroke="#63b8ff" points="1048.34,-13.27 1038.02,-15.64 1047.57,-20.22 1048.34,-13.27"/>
</a>
</g>
</g>
<!-- Node11&#45;&gt;Node8 -->
<g id="edge20_Node000011_Node000008" class="edge">
<title>Node11&#45;&gt;Node8</title>
<g id="a_edge20_Node000011_Node000008"><a xlink:title=" ">
<path fill="none" stroke="#63b8ff" d="M1242.26,-189.04C1255.88,-171.59 1273.87,-141.92 1257,-123.17 1230.92,-94.19 985.83,-80.76 859.11,-75.71"/>
<polygon fill="#63b8ff" stroke="#63b8ff" points="859.21,-72.21 849.08,-75.31 858.93,-79.2 859.21,-72.21"/>
</a>
</g>
</g>
<!-- Node11&#45;&gt;Node9 -->
<g id="edge22_Node000011_Node000009" class="edge">
<title>Node11&#45;&gt;Node9</title>
<g id="a_edge22_Node000011_Node000009"><a xlink:title=" ">
<path fill="none" stroke="#63b8ff" d="M1135.73,-190.14C1132.79,-189.81 1129.87,-189.48 1127,-189.17 932.55,-168.35 703.83,-152.49 580.25,-144.64"/>
<polygon fill="#63b8ff" stroke="#63b8ff" points="580.28,-141.13 570.08,-144 579.84,-148.12 580.28,-141.13"/>
</a>
</g>
</g>
<!-- Node12 -->
<g id="Node000012" class="node">
<title>Node12</title>
<g id="a_Node000012"><a xlink:title=" ">
<polygon fill="#e0e0e0" stroke="#999999" points="1176.5,-147.67 1129.5,-147.67 1129.5,-128.67 1176.5,-128.67 1176.5,-147.67"/>
<text text-anchor="middle" x="1153" y="-135.67" font-family="Helvetica,sans-Serif" font-size="10.00">cmath</text>
</a>
</g>
</g>
<!-- Node11&#45;&gt;Node12 -->
<g id="edge17_Node000011_Node000012" class="edge">
<title>Node11&#45;&gt;Node12</title>
<g id="a_edge17_Node000011_Node000012"><a xlink:title=" ">
<path fill="none" stroke="#63b8ff" d="M1212.91,-188.97C1200.67,-178.8 1184.2,-165.11 1171.62,-154.65"/>
<polygon fill="#63b8ff" stroke="#63b8ff" points="1173.57,-151.72 1163.64,-148.02 1169.09,-157.1 1173.57,-151.72"/>
</a>
</g>
</g>
<!-- Node13 -->
<g id="Node000013" class="node">
<title>Node13</title>
<g id="a_Node000013"><a xlink:title=" ">
<polygon fill="#e0e0e0" stroke="#999999" points="1111.5,-147.67 1052.5,-147.67 1052.5,-128.67 1111.5,-128.67 1111.5,-147.67"/>
<text text-anchor="middle" x="1082" y="-135.67" font-family="Helvetica,sans-Serif" font-size="10.00">numbers</text>
</a>
</g>
</g>
<!-- Node11&#45;&gt;Node13 -->
<g id="edge18_Node000011_Node000013" class="edge">
<title>Node11&#45;&gt;Node13</title>
<g id="a_edge18_Node000011_Node000013"><a xlink:title=" ">
<path fill="none" stroke="#63b8ff" d="M1197.52,-189.13C1171.68,-177.96 1135.85,-162.46 1110.97,-151.7"/>
<polygon fill="#63b8ff" stroke="#63b8ff" points="1112.26,-148.45 1101.7,-147.69 1109.49,-154.87 1112.26,-148.45"/>
</a>
</g>
</g>
<!-- Node14&#45;&gt;Node5 -->
<g id="edge24_Node000014_Node000005" class="edge">
<title>Node14&#45;&gt;Node5</title>
<g id="a_edge24_Node000014_Node000005"><a xlink:title=" ">
<path fill="none" stroke="#63b8ff" d="M995.32,-189.17C953.34,-168.83 876.99,-132.52 848,-123.17 772.45,-98.81 680.06,-84.04 631.5,-77.38"/>
<polygon fill="#63b8ff" stroke="#63b8ff" points="631.92,-73.91 621.55,-76.05 630.99,-80.85 631.92,-73.91"/>
</a>
</g>
</g>
<!-- Node14&#45;&gt;Node6 -->
<g id="edge27_Node000014_Node000006" class="edge">
<title>Node14&#45;&gt;Node6</title>
<g id="a_edge27_Node000014_Node000006"><a xlink:title=" ">
<path fill="none" stroke="#63b8ff" d="M945.61,-189.07C913.99,-181.34 877.99,-169.84 848,-153.17 830.67,-143.54 833.1,-131.25 815,-123.17 673.94,-60.23 620.62,-105.24 463.33,-87.25"/>
<polygon fill="#63b8ff" stroke="#63b8ff" points="463.66,-83.76 453.31,-86.03 462.82,-90.71 463.66,-83.76"/>
</a>
</g>
</g>
<!-- Node14&#45;&gt;Node7 -->
<g id="edge28_Node000014_Node000007" class="edge">
<title>Node14&#45;&gt;Node7</title>
<g id="a_edge28_Node000014_Node000007"><a xlink:title=" ">
<path fill="none" stroke="#63b8ff" d="M1021.21,-189.17C1014.5,-155.53 997.46,-70.14 989.82,-31.81"/>
<polygon fill="#63b8ff" stroke="#63b8ff" points="993.16,-30.66 987.77,-21.54 986.29,-32.03 993.16,-30.66"/>
</a>
</g>
</g>
<!-- Node14&#45;&gt;Node8 -->
<g id="edge29_Node000014_Node000008" class="edge">
<title>Node14&#45;&gt;Node8</title>
<g id="a_edge29_Node000014_Node000008"><a xlink:title=" ">
<path fill="none" stroke="#63b8ff" d="M1009.55,-189.01C991.06,-171.51 957.4,-141.81 924,-123.17 893.25,-106.02 855.52,-92.95 826.98,-84.48"/>
<polygon fill="#63b8ff" stroke="#63b8ff" points="827.87,-81.1 817.29,-81.68 825.93,-87.82 827.87,-81.1"/>
</a>
</g>
</g>
<!-- Node14&#45;&gt;Node9 -->
<g id="edge30_Node000014_Node000009" class="edge">
<title>Node14&#45;&gt;Node9</title>
<g id="a_edge30_Node000014_Node000009"><a xlink:title=" ">
<path fill="none" stroke="#63b8ff" d="M929.99,-190.32C926.96,-189.93 923.95,-189.55 921,-189.17 803.46,-174.37 667.67,-158.88 580.42,-149.14"/>
<polygon fill="#63b8ff" stroke="#63b8ff" points="580.61,-145.64 570.29,-148.01 579.84,-152.6 580.61,-145.64"/>
</a>
</g>
</g>
<!-- Node14&#45;&gt;Node12 -->
<g id="edge25_Node000014_Node000012" class="edge">
<title>Node14&#45;&gt;Node12</title>
<g id="a_edge25_Node000014_Node000012"><a xlink:title=" ">
<path fill="none" stroke="#63b8ff" d="M1052.31,-189.13C1074.43,-178.15 1104.96,-163.01 1126.58,-152.28"/>
<polygon fill="#63b8ff" stroke="#63b8ff" points="1128.43,-155.27 1135.83,-147.69 1125.32,-149 1128.43,-155.27"/>
</a>
</g>
</g>
<!-- Node14&#45;&gt;Node13 -->
<g id="edge26_Node000014_Node000013" class="edge">
<title>Node14&#45;&gt;Node13</title>
<g id="a_edge26_Node000014_Node000013"><a xlink:title=" ">
<path fill="none" stroke="#63b8ff" d="M1036.87,-188.97C1045.83,-179.09 1057.79,-165.89 1067.14,-155.57"/>
<polygon fill="#63b8ff" stroke="#63b8ff" points="1069.86,-157.78 1073.98,-148.02 1064.68,-153.08 1069.86,-157.78"/>
</a>
</g>
</g>
<!-- Node15&#45;&gt;Node5 -->
<g id="edge32_Node000015_Node000005" class="edge">
<title>Node15&#45;&gt;Node5</title>
<g id="a_edge32_Node000015_Node000005"><a xlink:title=" ">
<path fill="none" stroke="#63b8ff" d="M353.86,-194.67C359.85,-178.19 375.33,-141.9 401,-123.17 407.68,-118.3 510.17,-93.76 564.6,-80.97"/>
<polygon fill="#63b8ff" stroke="#63b8ff" points="565.55,-84.34 574.49,-78.65 563.95,-77.52 565.55,-84.34"/>
</a>
</g>
</g>
<!-- Node15&#45;&gt;Node6 -->
<g id="edge33_Node000015_Node000006" class="edge">
<title>Node15&#45;&gt;Node6</title>
<g id="a_edge33_Node000015_Node000006"><a xlink:title=" ">
<path fill="none" stroke="#63b8ff" d="M305.43,-194.63C256.41,-183.34 188.9,-160.39 216,-123.17 230.99,-102.59 254.61,-90.3 278.94,-83.02"/>
<polygon fill="#63b8ff" stroke="#63b8ff" points="279.91,-86.38 288.64,-80.38 278.07,-79.63 279.91,-86.38"/>
</a>
</g>
</g>
<!-- Node15&#45;&gt;Node8 -->
<g id="edge34_Node000015_Node000008" class="edge">
<title>Node15&#45;&gt;Node8</title>
<g id="a_edge34_Node000015_Node000008"><a xlink:title=" ">
<path fill="none" stroke="#63b8ff" d="M400.49,-194.63C447.07,-186.05 518.49,-171.49 579,-153.17 643.72,-133.58 716.94,-102.84 755.97,-85.73"/>
<polygon fill="#63b8ff" stroke="#63b8ff" points="757.4,-88.93 765.13,-81.69 754.57,-82.52 757.4,-88.93"/>
</a>
</g>
</g>
<!-- Node15&#45;&gt;Node9 -->
<g id="edge35_Node000015_Node000009" class="edge">
<title>Node15&#45;&gt;Node9</title>
<g id="a_edge35_Node000015_Node000009"><a xlink:title=" ">
<path fill="none" stroke="#63b8ff" d="M369.75,-194.54C390.21,-185.12 423.57,-169.76 449.97,-157.61"/>
<polygon fill="#63b8ff" stroke="#63b8ff" points="451.72,-160.65 459.34,-153.29 448.8,-154.29 451.72,-160.65"/>
</a>
</g>
</g>
<!-- Node16&#45;&gt;Node5 -->
<g id="edge37_Node000016_Node000005" class="edge">
<title>Node16&#45;&gt;Node5</title>
<g id="a_edge37_Node000016_Node000005"><a xlink:title=" ">
<path fill="none" stroke="#63b8ff" d="M581.18,-194.65C584.05,-173.9 591.46,-120.42 595.42,-91.84"/>
<polygon fill="#63b8ff" stroke="#63b8ff" points="598.89,-92.29 596.79,-81.91 591.95,-91.33 598.89,-92.29"/>
</a>
</g>
</g>
<!-- Node16&#45;&gt;Node6 -->
<g id="edge39_Node000016_Node000006" class="edge">
<title>Node16&#45;&gt;Node6</title>
<g id="a_edge39_Node000016_Node000006"><a xlink:title=" ">
<path fill="none" stroke="#63b8ff" d="M500.39,-194.66C447.4,-187.17 384.58,-174.12 368,-153.17 355.71,-137.65 358.03,-114.64 362.5,-97.27"/>
<polygon fill="#63b8ff" stroke="#63b8ff" points="365.97,-97.89 365.45,-87.31 359.25,-95.9 365.97,-97.89"/>
</a>
</g>
</g>
<!-- Node16&#45;&gt;Node8 -->
<g id="edge38_Node000016_Node000008" class="edge">
<title>Node16&#45;&gt;Node8</title>
<g id="a_edge38_Node000016_Node000008"><a xlink:title=" ">
<path fill="none" stroke="#63b8ff" d="M602.81,-194.65C625.3,-185.77 660.24,-170.74 688,-153.17 718.37,-133.96 749.62,-106.12 767.91,-88.86"/>
<polygon fill="#63b8ff" stroke="#63b8ff" points="770.54,-91.19 775.35,-81.74 765.7,-86.13 770.54,-91.19"/>
</a>
</g>
</g>
<!-- Node16&#45;&gt;Node9 -->
<g id="edge40_Node000016_Node000009" class="edge">
<title>Node16&#45;&gt;Node9</title>
<g id="a_edge40_Node000016_Node000009"><a xlink:title=" ">
<path fill="none" stroke="#63b8ff" d="M567.86,-194.54C555.2,-185.54 534.89,-171.1 518.19,-159.22"/>
<polygon fill="#63b8ff" stroke="#63b8ff" points="520.03,-156.23 509.85,-153.29 515.97,-161.94 520.03,-156.23"/>
</a>
</g>
</g>
<!-- Node17&#45;&gt;Node5 -->
<g id="edge42_Node000017_Node000005" class="edge">
<title>Node17&#45;&gt;Node5</title>
<g id="a_edge42_Node000017_Node000005"><a xlink:title=" ">
<path fill="none" stroke="#63b8ff" d="M139.5,-189.07C194.34,-172.3 289.45,-143.98 372,-123.17 445.2,-104.73 464.35,-103.75 538,-87.17 546.63,-85.23 555.94,-83.09 564.59,-81.07"/>
<polygon fill="#63b8ff" stroke="#63b8ff" points="565.43,-84.47 574.37,-78.78 563.83,-77.65 565.43,-84.47"/>
</a>
</g>
</g>
<!-- Node17&#45;&gt;Node6 -->
<g id="edge43_Node000017_Node000006" class="edge">
<title>Node17&#45;&gt;Node6</title>
<g id="a_edge43_Node000017_Node000006"><a xlink:title=" ">
<path fill="none" stroke="#63b8ff" d="M109.99,-189.15C130.8,-171.54 168.91,-141.42 206,-123.17 234.83,-108.99 268.51,-97.91 297.88,-89.82"/>
<polygon fill="#63b8ff" stroke="#63b8ff" points="298.92,-93.17 307.67,-87.19 297.1,-86.41 298.92,-93.17"/>
</a>
</g>
</g>
<!-- Node17&#45;&gt;Node8 -->
<g id="edge44_Node000017_Node000008" class="edge">
<title>Node17&#45;&gt;Node8</title>
<g id="a_edge44_Node000017_Node000008"><a xlink:title=" ">
<path fill="none" stroke="#63b8ff" d="M179.39,-189.16C224.68,-180.7 280.95,-168.58 330,-153.17 362.68,-142.91 367.94,-132.14 401,-123.17 457.36,-107.89 614.29,-90.26 708.87,-80.55"/>
<polygon fill="#63b8ff" stroke="#63b8ff" points="709.36,-84.02 718.95,-79.52 708.65,-77.06 709.36,-84.02"/>
</a>
</g>
</g>
<!-- Node17&#45;&gt;Node9 -->
<g id="edge45_Node000017_Node000009" class="edge">
<title>Node17&#45;&gt;Node9</title>
<g id="a_edge45_Node000017_Node000009"><a xlink:title=" ">
<path fill="none" stroke="#63b8ff" d="M180.9,-189.13C245.76,-178.65 334.14,-164.36 399.78,-153.76"/>
<polygon fill="#63b8ff" stroke="#63b8ff" points="400.39,-157.2 409.7,-152.15 399.27,-150.29 400.39,-157.2"/>
</a>
</g>
</g>
</g>
</svg>

<g id="navigator" transform="translate(0 0)" fill="#404254">
  <rect fill="#f2f5e9" fill-opacity="0.5" stroke="#606060" stroke-width=".5" x="0" y="0" width="60" height="60"/>
  <use id="zoomplus" xlink:href="#zoomPlus" x="17" y="9" onmousedown="handleZoom(evt,'in')"/>
  <use id="zoomminus" xlink:href="#zoomMin" x="42" y="9" onmousedown="handleZoom(evt,'out')"/>
  <use id="reset" xlink:href="#resetDef" x="30" y="36" onmousedown="handleReset()"/>
   <use id="arrowup" xlink:href="#arrowUp" x="0" y="0" onmousedown="handlePan(0,-1)"/>
  <use id="arrowright" xlink:href="#arrowRight" x="0" y="0" onmousedown="handlePan(1,0)"/>
  <use id="arrowdown" xlink:href="#arrowDown" x="0" y="0" onmousedown="handlePan(0,1)"/>
  <use id="arrowleft" xlink:href="#arrowLeft" x="0" y="0" onmousedown="handlePan(-1,0)"/>
</g>
<svg viewBox="0 0 15 15" width="100%" height="30px" preserveAspectRatio="xMaxYMin meet">
 <g id="arrow_out" transform="scale(0.3 0.3)">
  <a xlink:href="helios_2rendering_2asset_2shape_2__module_8ixx__incl_org.svg" target="_base">
   <rect id="button" ry="5" rx="5" y="6" x="6" height="38" width="38"
        fill="#f2f5e9" fill-opacity="0.5" stroke="#606060" stroke-width="1.0"/>
   <path id="arrow"
     d="M 11.500037,31.436501 C 11.940474,20.09759 22.043105,11.32322 32.158766,21.979434 L 37.068811,17.246167 C 37.068811,17.246167 37.088388,32 37.088388,32 L 22.160133,31.978069 C 22.160133,31.978069 26.997745,27.140456 26.997745,27.140456 C 18.528582,18.264221 13.291696,25.230495 11.500037,31.436501 z"
     style="fill:#404040;"/>
  </a>
 </g>
</svg>

<style type='text/css'>
<![CDATA[
[data-mouse-over-selected='false'] { opacity: 0.7; }
[data-mouse-over-selected='true']  { opacity: 1.0; }
]]>
</style>
<script type="application/ecmascript"><![CDATA[
document.addEventListener('DOMContentLoaded', (event) => {
  highlightEdges();
  highlightAdjacentNodes();
});
]]></script>
</svg>
