<?xml version="1.0" encoding="UTF-8" standalone="no"?>
<!DOCTYPE svg PUBLIC "-//W3C//DTD SVG 1.1//EN"
 "http://www.w3.org/Graphics/SVG/1.1/DTD/svg11.dtd">
<!-- Generated by graphviz version 2.43.0 (0)
 -->
<!-- Title: include/helios/rendering/model/_module.ixx Pages: 1 -->
<svg width="1437pt" height="401pt"
 viewBox="0.00 0.00 1436.81 401.00" xmlns="http://www.w3.org/2000/svg" xmlns:xlink="http://www.w3.org/1999/xlink">
<g id="graph0" class="graph" transform="scale(1 1) rotate(0) translate(4 397)">
<title>include/helios/rendering/model/_module.ixx</title>
<!-- Node1 -->
<g id="Node000001" class="node">
<title>Node1</title>
<g id="a_Node000001"><a xlink:title="Module exports for Model&#45;related rendering constructs.">
<polygon fill="#999999" stroke="#666666" points="892,-393 758,-393 758,-363 892,-363 892,-393"/>
<text text-anchor="start" x="766" y="-381" font-family="Helvetica,sans-Serif" font-size="10.00">include/helios/rendering</text>
<text text-anchor="middle" x="825" y="-370" font-family="Helvetica,sans-Serif" font-size="10.00">/model/_module.ixx</text>
</a>
</g>
</g>
<!-- Node2 -->
<g id="Node000002" class="node">
<title>Node2</title>
<g id="a_Node000002"><a xlink:href="helios_2rendering_2model_2config_2__module_8ixx.html" target="_top" xlink:title="Module exports for configuration structures for model/material.">
<polygon fill="white" stroke="#666666" points="514.5,-327 353.5,-327 353.5,-308 514.5,-308 514.5,-327"/>
<text text-anchor="middle" x="434" y="-315" font-family="Helvetica,sans-Serif" font-size="10.00">helios.rendering.model.config</text>
</a>
</g>
</g>
<!-- Node1&#45;&gt;Node2 -->
<g id="edge1_Node000001_Node000002" class="edge">
<title>Node1&#45;&gt;Node2</title>
<g id="a_edge1_Node000001_Node000002"><a xlink:title=" ">
<path fill="none" stroke="#63b8ff" d="M757.78,-366.94C685.99,-356.2 572.86,-339.28 501.1,-328.54"/>
<polygon fill="#63b8ff" stroke="#63b8ff" points="501.23,-325.02 490.83,-327 500.2,-331.94 501.23,-325.02"/>
</a>
</g>
</g>
<!-- Node13 -->
<g id="Node000013" class="node">
<title>Node13</title>
<g id="a_Node000013"><a xlink:href="Material_8ixx.html" target="_top" xlink:title="Material abstraction: shader + material properties.">
<polygon fill="white" stroke="#666666" points="911.5,-327 738.5,-327 738.5,-308 911.5,-308 911.5,-327"/>
<text text-anchor="middle" x="825" y="-315" font-family="Helvetica,sans-Serif" font-size="10.00">helios.rendering.model.Material</text>
</a>
</g>
</g>
<!-- Node1&#45;&gt;Node13 -->
<g id="edge20_Node000001_Node000013" class="edge">
<title>Node1&#45;&gt;Node13</title>
<g id="a_edge20_Node000001_Node000013"><a xlink:title=" ">
<path fill="none" stroke="#63b8ff" d="M825,-362.84C825,-355.21 825,-345.7 825,-337.45"/>
<polygon fill="#63b8ff" stroke="#63b8ff" points="828.5,-337.27 825,-327.27 821.5,-337.27 828.5,-337.27"/>
</a>
</g>
</g>
<!-- Node27 -->
<g id="Node000027" class="node">
<title>Node27</title>
<g id="a_Node000027"><a xlink:href="Mesh_8ixx.html" target="_top" xlink:title="Mesh abstraction: immutable vertex/index data and configuration.">
<polygon fill="white" stroke="#666666" points="1151,-327 993,-327 993,-308 1151,-308 1151,-327"/>
<text text-anchor="middle" x="1072" y="-315" font-family="Helvetica,sans-Serif" font-size="10.00">helios.rendering.model.Mesh</text>
</a>
</g>
</g>
<!-- Node1&#45;&gt;Node27 -->
<g id="edge50_Node000001_Node000027" class="edge">
<title>Node1&#45;&gt;Node27</title>
<g id="a_edge50_Node000001_Node000027"><a xlink:title=" ">
<path fill="none" stroke="#63b8ff" d="M884.16,-362.99C927.71,-352.67 986.07,-338.85 1026.12,-329.37"/>
<polygon fill="#63b8ff" stroke="#63b8ff" points="1026.96,-332.76 1035.88,-327.05 1025.35,-325.95 1026.96,-332.76"/>
</a>
</g>
</g>
<!-- Node3 -->
<g id="Node000003" class="node">
<title>Node3</title>
<g id="a_Node000003"><a xlink:href="MaterialPropertiesOverride_8ixx.html" target="_top" xlink:title="Overrides for material properties to customize rendering parameters.">
<polygon fill="white" stroke="#666666" points="186,-272 22,-272 22,-242 186,-242 186,-272"/>
<text text-anchor="start" x="30" y="-260" font-family="Helvetica,sans-Serif" font-size="10.00">helios.rendering.model.config.</text>
<text text-anchor="middle" x="104" y="-249" font-family="Helvetica,sans-Serif" font-size="10.00">MaterialPropertiesOverride</text>
</a>
</g>
</g>
<!-- Node2&#45;&gt;Node3 -->
<g id="edge2_Node000002_Node000003" class="edge">
<title>Node2&#45;&gt;Node3</title>
<g id="a_edge2_Node000002_Node000003"><a xlink:title=" ">
<path fill="none" stroke="#63b8ff" d="M386.02,-307.99C335.64,-299.06 255.28,-284.82 193.21,-273.81"/>
<polygon fill="#63b8ff" stroke="#63b8ff" points="193.48,-270.31 183.02,-272.01 192.25,-277.2 193.48,-270.31"/>
</a>
</g>
</g>
<!-- Node10 -->
<g id="Node000010" class="node">
<title>Node10</title>
<g id="a_Node000010"><a xlink:href="MaterialProperties_8ixx.html" target="_top" xlink:title="Default material properties used by materials and instances.">
<polygon fill="white" stroke="#666666" points="368,-272 204,-272 204,-242 368,-242 368,-272"/>
<text text-anchor="start" x="212" y="-260" font-family="Helvetica,sans-Serif" font-size="10.00">helios.rendering.model.config.</text>
<text text-anchor="middle" x="286" y="-249" font-family="Helvetica,sans-Serif" font-size="10.00">MaterialProperties</text>
</a>
</g>
</g>
<!-- Node2&#45;&gt;Node10 -->
<g id="edge13_Node000002_Node000010" class="edge">
<title>Node2&#45;&gt;Node10</title>
<g id="a_edge13_Node000002_Node000010"><a xlink:title=" ">
<path fill="none" stroke="#63b8ff" d="M412.48,-307.99C391.27,-299.61 358.22,-286.55 331.22,-275.87"/>
<polygon fill="#63b8ff" stroke="#63b8ff" points="332.17,-272.49 321.58,-272.06 329.59,-279 332.17,-272.49"/>
</a>
</g>
</g>
<!-- Node11 -->
<g id="Node000011" class="node">
<title>Node11</title>
<g id="a_Node000011"><a xlink:href="MeshConfig_8ixx.html" target="_top" xlink:title="Mesh configuration including primitive type.">
<polygon fill="white" stroke="#666666" points="626,-272 462,-272 462,-242 626,-242 626,-272"/>
<text text-anchor="start" x="470" y="-260" font-family="Helvetica,sans-Serif" font-size="10.00">helios.rendering.model.config.</text>
<text text-anchor="middle" x="544" y="-249" font-family="Helvetica,sans-Serif" font-size="10.00">MeshConfig</text>
</a>
</g>
</g>
<!-- Node2&#45;&gt;Node11 -->
<g id="edge17_Node000002_Node000011" class="edge">
<title>Node2&#45;&gt;Node11</title>
<g id="a_edge17_Node000002_Node000011"><a xlink:title=" ">
<path fill="none" stroke="#63b8ff" d="M450.23,-307.87C465.5,-299.75 488.89,-287.31 508.48,-276.89"/>
<polygon fill="#63b8ff" stroke="#63b8ff" points="510.27,-279.9 517.46,-272.11 506.99,-273.72 510.27,-279.9"/>
</a>
</g>
</g>
<!-- Node12 -->
<g id="Node000012" class="node">
<title>Node12</title>
<g id="a_Node000012"><a xlink:href="PrimitiveType_8ixx.html" target="_top" xlink:title="Enum of primitive types for mesh rendering.">
<polygon fill="white" stroke="#666666" points="570,-206 406,-206 406,-176 570,-176 570,-206"/>
<text text-anchor="start" x="414" y="-194" font-family="Helvetica,sans-Serif" font-size="10.00">helios.rendering.model.config.</text>
<text text-anchor="middle" x="488" y="-183" font-family="Helvetica,sans-Serif" font-size="10.00">PrimitiveType</text>
</a>
</g>
</g>
<!-- Node2&#45;&gt;Node12 -->
<g id="edge19_Node000002_Node000012" class="edge">
<title>Node2&#45;&gt;Node12</title>
<g id="a_edge19_Node000002_Node000012"><a xlink:title=" ">
<path fill="none" stroke="#63b8ff" d="M435.16,-307.9C437.31,-293.67 442.65,-264.56 453,-242 457.46,-232.28 463.84,-222.45 469.94,-214.11"/>
<polygon fill="#63b8ff" stroke="#63b8ff" points="472.83,-216.1 476.1,-206.03 467.26,-211.86 472.83,-216.1"/>
</a>
</g>
</g>
<!-- Node4 -->
<g id="Node000004" class="node">
<title>Node4</title>
<g id="a_Node000004"><a xlink:title=" ">
<polygon fill="#e0e0e0" stroke="#999999" points="56,-134.5 0,-134.5 0,-115.5 56,-115.5 56,-134.5"/>
<text text-anchor="middle" x="28" y="-122.5" font-family="Helvetica,sans-Serif" font-size="10.00">optional</text>
</a>
</g>
</g>
<!-- Node3&#45;&gt;Node4 -->
<g id="edge3_Node000003_Node000004" class="edge">
<title>Node3&#45;&gt;Node4</title>
<g id="a_edge3_Node000003_Node000004"><a xlink:title=" ">
<path fill="none" stroke="#63b8ff" d="M95.72,-241.84C81.74,-217.92 53.47,-169.56 38.25,-143.53"/>
<polygon fill="#63b8ff" stroke="#63b8ff" points="41.18,-141.61 33.11,-134.75 35.14,-145.15 41.18,-141.61"/>
</a>
</g>
</g>
<!-- Node5 -->
<g id="Node000005" class="node">
<title>Node5</title>
<g id="a_Node000005"><a xlink:href="UniformSemantics_8ixx.html" target="_top" xlink:title="Definitions of uniform semantics used by shaders.">
<polygon fill="white" stroke="#666666" points="208,-140 74,-140 74,-110 208,-110 208,-140"/>
<text text-anchor="start" x="82" y="-128" font-family="Helvetica,sans-Serif" font-size="10.00">helios.rendering.shader.</text>
<text text-anchor="middle" x="141" y="-117" font-family="Helvetica,sans-Serif" font-size="10.00">UniformSemantics</text>
</a>
</g>
</g>
<!-- Node3&#45;&gt;Node5 -->
<g id="edge4_Node000003_Node000005" class="edge">
<title>Node3&#45;&gt;Node5</title>
<g id="a_edge4_Node000003_Node000005"><a xlink:title=" ">
<path fill="none" stroke="#63b8ff" d="M108.03,-241.84C114.31,-219.76 126.52,-176.89 134.19,-149.94"/>
<polygon fill="#63b8ff" stroke="#63b8ff" points="137.6,-150.72 136.97,-140.14 130.87,-148.8 137.6,-150.72"/>
</a>
</g>
</g>
<!-- Node6 -->
<g id="Node000006" class="node">
<title>Node6</title>
<g id="a_Node000006"><a xlink:href="UniformValueMap_8ixx.html" target="_top" xlink:title="Mapping of uniform names to values used by shader programs.">
<polygon fill="white" stroke="#666666" points="312,-206 178,-206 178,-176 312,-176 312,-206"/>
<text text-anchor="start" x="186" y="-194" font-family="Helvetica,sans-Serif" font-size="10.00">helios.rendering.shader.</text>
<text text-anchor="middle" x="245" y="-183" font-family="Helvetica,sans-Serif" font-size="10.00">UniformValueMap</text>
</a>
</g>
</g>
<!-- Node3&#45;&gt;Node6 -->
<g id="edge5_Node000003_Node000006" class="edge">
<title>Node3&#45;&gt;Node6</title>
<g id="a_edge5_Node000003_Node000006"><a xlink:title=" ">
<path fill="none" stroke="#63b8ff" d="M134.94,-241.95C155.51,-232.62 182.73,-220.27 204.95,-210.18"/>
<polygon fill="#63b8ff" stroke="#63b8ff" points="206.47,-213.33 214.13,-206.01 203.58,-206.96 206.47,-213.33"/>
</a>
</g>
</g>
<!-- Node9 -->
<g id="Node000009" class="node">
<title>Node9</title>
<g id="a_Node000009"><a xlink:href="helios_2math_2types_2__module_8ixx.html" target="_top" xlink:title="Module exports for vector and matrix type definitions.">
<polygon fill="white" stroke="#666666" points="460,-134.5 356,-134.5 356,-115.5 460,-115.5 460,-134.5"/>
<text text-anchor="middle" x="408" y="-122.5" font-family="Helvetica,sans-Serif" font-size="10.00">helios.math.types</text>
</a>
</g>
</g>
<!-- Node3&#45;&gt;Node9 -->
<g id="edge12_Node000003_Node000009" class="edge">
<title>Node3&#45;&gt;Node9</title>
<g id="a_edge12_Node000003_Node000009"><a xlink:title=" ">
<path fill="none" stroke="#63b8ff" d="M184.21,-241.96C235.74,-232.09 297.31,-218.48 321,-206 322.04,-205.45 366.13,-164.73 391.14,-141.61"/>
<polygon fill="#63b8ff" stroke="#63b8ff" points="393.54,-144.15 398.51,-134.79 388.79,-139.01 393.54,-144.15"/>
</a>
</g>
</g>
<!-- Node6&#45;&gt;Node4 -->
<g id="edge7_Node000006_Node000004" class="edge">
<title>Node6&#45;&gt;Node4</title>
<g id="a_edge7_Node000006_Node000004"><a xlink:title=" ">
<path fill="none" stroke="#63b8ff" d="M189.47,-175.97C153.69,-166.59 106.3,-153.52 65,-140 63.14,-139.39 61.24,-138.74 59.32,-138.08"/>
<polygon fill="#63b8ff" stroke="#63b8ff" points="60.39,-134.74 49.8,-134.62 58,-141.32 60.39,-134.74"/>
</a>
</g>
</g>
<!-- Node6&#45;&gt;Node5 -->
<g id="edge11_Node000006_Node000005" class="edge">
<title>Node6&#45;&gt;Node5</title>
<g id="a_edge11_Node000006_Node000005"><a xlink:title=" ">
<path fill="none" stroke="#63b8ff" d="M222.18,-175.95C207.55,-166.95 188.36,-155.14 172.31,-145.27"/>
<polygon fill="#63b8ff" stroke="#63b8ff" points="174.12,-142.27 163.77,-140.01 170.45,-148.23 174.12,-142.27"/>
</a>
</g>
</g>
<!-- Node7 -->
<g id="Node000007" class="node">
<title>Node7</title>
<g id="a_Node000007"><a xlink:title=" ">
<polygon fill="#e0e0e0" stroke="#999999" points="338,-134.5 296,-134.5 296,-115.5 338,-115.5 338,-134.5"/>
<text text-anchor="middle" x="317" y="-122.5" font-family="Helvetica,sans-Serif" font-size="10.00">array</text>
</a>
</g>
</g>
<!-- Node6&#45;&gt;Node7 -->
<g id="edge6_Node000006_Node000007" class="edge">
<title>Node6&#45;&gt;Node7</title>
<g id="a_edge6_Node000006_Node000007"><a xlink:title=" ">
<path fill="none" stroke="#63b8ff" d="M260.98,-175.8C272.31,-165.72 287.53,-152.19 299.25,-141.78"/>
<polygon fill="#63b8ff" stroke="#63b8ff" points="301.9,-144.1 307.05,-134.84 297.25,-138.87 301.9,-144.1"/>
</a>
</g>
</g>
<!-- Node8 -->
<g id="Node000008" class="node">
<title>Node8</title>
<g id="a_Node000008"><a xlink:title=" ">
<polygon fill="#e0e0e0" stroke="#999999" points="277.5,-134.5 226.5,-134.5 226.5,-115.5 277.5,-115.5 277.5,-134.5"/>
<text text-anchor="middle" x="252" y="-122.5" font-family="Helvetica,sans-Serif" font-size="10.00">variant</text>
</a>
</g>
</g>
<!-- Node6&#45;&gt;Node8 -->
<g id="edge8_Node000006_Node000008" class="edge">
<title>Node6&#45;&gt;Node8</title>
<g id="a_edge8_Node000006_Node000008"><a xlink:title=" ">
<path fill="none" stroke="#63b8ff" d="M246.55,-175.8C247.55,-166.7 248.85,-154.79 249.93,-144.9"/>
<polygon fill="#63b8ff" stroke="#63b8ff" points="253.42,-145.17 251.03,-134.84 246.47,-144.4 253.42,-145.17"/>
</a>
</g>
</g>
<!-- Node6&#45;&gt;Node9 -->
<g id="edge9_Node000006_Node000009" class="edge">
<title>Node6&#45;&gt;Node9</title>
<g id="a_edge9_Node000006_Node000009"><a xlink:title=" ">
<path fill="none" stroke="#63b8ff" d="M280.77,-175.95C309.48,-164.68 349.39,-149.01 376.81,-138.25"/>
<polygon fill="#63b8ff" stroke="#63b8ff" points="378.28,-141.43 386.31,-134.52 375.72,-134.91 378.28,-141.43"/>
</a>
</g>
</g>
<!-- Node9&#45;&gt;Node9 -->
<g id="edge10_Node000009_Node000009" class="edge">
<title>Node9&#45;&gt;Node9</title>
<g id="a_edge10_Node000009_Node000009"><a xlink:title=" ">
<path fill="none" stroke="#63b8ff" d="M433.85,-134.53C455.44,-138.61 478,-135.43 478,-125 478,-116.2 461.94,-112.56 443.95,-114.09"/>
<polygon fill="#63b8ff" stroke="#63b8ff" points="443.28,-110.65 433.85,-115.47 444.23,-117.58 443.28,-110.65"/>
</a>
</g>
</g>
<!-- Node10&#45;&gt;Node5 -->
<g id="edge14_Node000010_Node000005" class="edge">
<title>Node10&#45;&gt;Node5</title>
<g id="a_edge14_Node000010_Node000005"><a xlink:title=" ">
<path fill="none" stroke="#63b8ff" d="M228.13,-241.91C207.16,-234.29 184.77,-222.86 169,-206 154.69,-190.69 147.63,-167.65 144.19,-150.22"/>
<polygon fill="#63b8ff" stroke="#63b8ff" points="147.62,-149.48 142.48,-140.22 140.72,-150.66 147.62,-149.48"/>
</a>
</g>
</g>
<!-- Node10&#45;&gt;Node6 -->
<g id="edge15_Node000010_Node000006" class="edge">
<title>Node10&#45;&gt;Node6</title>
<g id="a_edge15_Node000010_Node000006"><a xlink:title=" ">
<path fill="none" stroke="#63b8ff" d="M276.9,-241.8C271.8,-233.84 265.33,-223.74 259.55,-214.71"/>
<polygon fill="#63b8ff" stroke="#63b8ff" points="262.42,-212.7 254.07,-206.16 256.52,-216.47 262.42,-212.7"/>
</a>
</g>
</g>
<!-- Node10&#45;&gt;Node9 -->
<g id="edge16_Node000010_Node000009" class="edge">
<title>Node10&#45;&gt;Node9</title>
<g id="a_edge16_Node000010_Node000009"><a xlink:title=" ">
<path fill="none" stroke="#63b8ff" d="M308.98,-241.99C322.94,-232.81 340.6,-219.95 354,-206 372.44,-186.81 388.78,-160.63 398.53,-143.53"/>
<polygon fill="#63b8ff" stroke="#63b8ff" points="401.68,-145.07 403.48,-134.63 395.56,-141.67 401.68,-145.07"/>
</a>
</g>
</g>
<!-- Node11&#45;&gt;Node12 -->
<g id="edge18_Node000011_Node000012" class="edge">
<title>Node11&#45;&gt;Node12</title>
<g id="a_edge18_Node000011_Node000012"><a xlink:title=" ">
<path fill="none" stroke="#63b8ff" d="M531.57,-241.8C524.39,-233.59 515.21,-223.1 507.13,-213.87"/>
<polygon fill="#63b8ff" stroke="#63b8ff" points="509.61,-211.38 500.39,-206.16 504.34,-215.99 509.61,-211.38"/>
</a>
</g>
</g>
<!-- Node13&#45;&gt;Node6 -->
<g id="edge49_Node000013_Node000006" class="edge">
<title>Node13&#45;&gt;Node6</title>
<g id="a_edge49_Node000013_Node000006"><a xlink:title=" ">
<path fill="none" stroke="#63b8ff" d="M738.16,-312.43C662.03,-307.37 548.85,-296.22 453,-272 417.79,-263.1 410.87,-255.1 377,-242 348.95,-231.15 317.47,-219.22 292.28,-209.73"/>
<polygon fill="#63b8ff" stroke="#63b8ff" points="293.2,-206.33 282.61,-206.09 290.73,-212.88 293.2,-206.33"/>
</a>
</g>
</g>
<!-- Node13&#45;&gt;Node10 -->
<g id="edge44_Node000013_Node000010" class="edge">
<title>Node13&#45;&gt;Node10</title>
<g id="a_edge44_Node000013_Node000010"><a xlink:title=" ">
<path fill="none" stroke="#63b8ff" d="M738.29,-308.94C648.89,-300.88 505.52,-287.2 382,-272 380.73,-271.84 379.45,-271.68 378.17,-271.52"/>
<polygon fill="#63b8ff" stroke="#63b8ff" points="378.55,-268.04 368.19,-270.23 377.66,-274.99 378.55,-268.04"/>
</a>
</g>
</g>
<!-- Node14 -->
<g id="Node000014" class="node">
<title>Node14</title>
<g id="a_Node000014"><a xlink:title=" ">
<polygon fill="#e0e0e0" stroke="#999999" points="1351,-74 1293,-74 1293,-55 1351,-55 1351,-74"/>
<text text-anchor="middle" x="1322" y="-62" font-family="Helvetica,sans-Serif" font-size="10.00">memory</text>
</a>
</g>
</g>
<!-- Node13&#45;&gt;Node14 -->
<g id="edge21_Node000013_Node000014" class="edge">
<title>Node13&#45;&gt;Node14</title>
<g id="a_edge21_Node000013_Node000014"><a xlink:title=" ">
<path fill="none" stroke="#63b8ff" d="M911.72,-311.25C1022.11,-303.9 1201.62,-289.46 1227,-272 1292.08,-227.22 1313.47,-126.21 1319.7,-84.29"/>
<polygon fill="#63b8ff" stroke="#63b8ff" points="1323.2,-84.5 1321.08,-74.12 1316.27,-83.56 1323.2,-84.5"/>
</a>
</g>
</g>
<!-- Node15 -->
<g id="Node000015" class="node">
<title>Node15</title>
<g id="a_Node000015"><a xlink:title=" ">
<polygon fill="#e0e0e0" stroke="#999999" points="1039.5,-266.5 974.5,-266.5 974.5,-247.5 1039.5,-247.5 1039.5,-266.5"/>
<text text-anchor="middle" x="1007" y="-254.5" font-family="Helvetica,sans-Serif" font-size="10.00">stdexcept</text>
</a>
</g>
</g>
<!-- Node13&#45;&gt;Node15 -->
<g id="edge22_Node000013_Node000015" class="edge">
<title>Node13&#45;&gt;Node15</title>
<g id="a_edge22_Node000013_Node000015"><a xlink:title=" ">
<path fill="none" stroke="#63b8ff" d="M852.14,-308C880.37,-299.12 925.83,-284.75 965,-272 967.14,-271.3 969.34,-270.58 971.55,-269.86"/>
<polygon fill="#63b8ff" stroke="#63b8ff" points="972.86,-273.11 981.25,-266.65 970.66,-266.46 972.86,-273.11"/>
</a>
</g>
</g>
<!-- Node16 -->
<g id="Node000016" class="node">
<title>Node16</title>
<g id="a_Node000016"><a xlink:href="helios_2util_2log_2__module_8ixx.html" target="_top" xlink:title="Module exports for logging.">
<polygon fill="white" stroke="#666666" points="803.5,-266.5 720.5,-266.5 720.5,-247.5 803.5,-247.5 803.5,-266.5"/>
<text text-anchor="middle" x="762" y="-254.5" font-family="Helvetica,sans-Serif" font-size="10.00">helios.util.log</text>
</a>
</g>
</g>
<!-- Node13&#45;&gt;Node16 -->
<g id="edge23_Node000013_Node000016" class="edge">
<title>Node13&#45;&gt;Node16</title>
<g id="a_edge23_Node000013_Node000016"><a xlink:title=" ">
<path fill="none" stroke="#63b8ff" d="M815.7,-307.87C806.03,-298.88 790.66,-284.61 778.84,-273.64"/>
<polygon fill="#63b8ff" stroke="#63b8ff" points="781.04,-270.91 771.33,-266.67 776.28,-276.04 781.04,-270.91"/>
</a>
</g>
</g>
<!-- Node26 -->
<g id="Node000026" class="node">
<title>Node26</title>
<g id="a_Node000026"><a xlink:href="Shader_8ixx.html" target="_top" xlink:title="Abstraction for a compiled shader program.">
<polygon fill="white" stroke="#666666" points="956,-272 822,-272 822,-242 956,-242 956,-272"/>
<text text-anchor="start" x="830" y="-260" font-family="Helvetica,sans-Serif" font-size="10.00">helios.rendering.shader.</text>
<text text-anchor="middle" x="889" y="-249" font-family="Helvetica,sans-Serif" font-size="10.00">Shader</text>
</a>
</g>
</g>
<!-- Node13&#45;&gt;Node26 -->
<g id="edge45_Node000013_Node000026" class="edge">
<title>Node13&#45;&gt;Node26</title>
<g id="a_edge45_Node000013_Node000026"><a xlink:title=" ">
<path fill="none" stroke="#63b8ff" d="M834.44,-307.87C842.73,-300.3 855.11,-288.98 865.99,-279.04"/>
<polygon fill="#63b8ff" stroke="#63b8ff" points="868.54,-281.44 873.56,-272.11 863.82,-276.28 868.54,-281.44"/>
</a>
</g>
</g>
<!-- Node17 -->
<g id="Node000017" class="node">
<title>Node17</title>
<g id="a_Node000017"><a xlink:href="LogManager_8ixx.html" target="_top" xlink:title="Central manager for scoped loggers with configurable sinks.">
<polygon fill="white" stroke="#666666" points="996,-200.5 850,-200.5 850,-181.5 996,-181.5 996,-200.5"/>
<text text-anchor="middle" x="923" y="-188.5" font-family="Helvetica,sans-Serif" font-size="10.00">helios.util.log.LogManager</text>
</a>
</g>
</g>
<!-- Node16&#45;&gt;Node17 -->
<g id="edge24_Node000016_Node000017" class="edge">
<title>Node16&#45;&gt;Node17</title>
<g id="a_edge24_Node000016_Node000017"><a xlink:title=" ">
<path fill="none" stroke="#63b8ff" d="M783.71,-247.37C811.52,-236.32 859.9,-217.08 891.68,-204.45"/>
<polygon fill="#63b8ff" stroke="#63b8ff" points="893.37,-207.54 901.37,-200.6 890.79,-201.04 893.37,-207.54"/>
</a>
</g>
</g>
<!-- Node23 -->
<g id="Node000023" class="node">
<title>Node23</title>
<g id="a_Node000023"><a xlink:href="Logger_8ixx.html" target="_top" xlink:title="Simple synchronous logger with configurable output sinks.">
<polygon fill="white" stroke="#666666" points="1217.5,-134.5 1098.5,-134.5 1098.5,-115.5 1217.5,-115.5 1217.5,-134.5"/>
<text text-anchor="middle" x="1158" y="-122.5" font-family="Helvetica,sans-Serif" font-size="10.00">helios.util.log.Logger</text>
</a>
</g>
</g>
<!-- Node16&#45;&gt;Node23 -->
<g id="edge39_Node000016_Node000023" class="edge">
<title>Node16&#45;&gt;Node23</title>
<g id="a_edge39_Node000016_Node000023"><a xlink:title=" ">
<path fill="none" stroke="#63b8ff" d="M791.56,-247.44C798.56,-245.54 806.02,-243.61 813,-242 897.6,-222.49 922.97,-234.43 1005,-206 1008.35,-204.84 1090.31,-161.7 1132.86,-139.26"/>
<polygon fill="#63b8ff" stroke="#63b8ff" points="1134.58,-142.32 1141.79,-134.56 1131.31,-136.13 1134.58,-142.32"/>
</a>
</g>
</g>
<!-- Node24 -->
<g id="Node000024" class="node">
<title>Node24</title>
<g id="a_Node000024"><a xlink:href="LogSink_8ixx.html" target="_top" xlink:title="Abstract interface for log output destinations.">
<polygon fill="white" stroke="#666666" points="752,-74 628,-74 628,-55 752,-55 752,-74"/>
<text text-anchor="middle" x="690" y="-62" font-family="Helvetica,sans-Serif" font-size="10.00">helios.util.log.LogSink</text>
</a>
</g>
</g>
<!-- Node16&#45;&gt;Node24 -->
<g id="edge43_Node000016_Node000024" class="edge">
<title>Node16&#45;&gt;Node24</title>
<g id="a_edge43_Node000016_Node000024"><a xlink:title=" ">
<path fill="none" stroke="#63b8ff" d="M768.45,-247.05C778.69,-231.65 796.21,-199.54 783,-176 767.96,-149.21 744.38,-162.98 724,-140 709.59,-123.75 700.27,-100.37 695.1,-84.15"/>
<polygon fill="#63b8ff" stroke="#63b8ff" points="698.36,-82.84 692.17,-74.24 691.65,-84.83 698.36,-82.84"/>
</a>
</g>
</g>
<!-- Node25 -->
<g id="Node000025" class="node">
<title>Node25</title>
<g id="a_Node000025"><a xlink:href="ConsoleSink_8ixx.html" target="_top" xlink:title="Log sink that writes to stdout.">
<polygon fill="white" stroke="#666666" points="674,-134.5 528,-134.5 528,-115.5 674,-115.5 674,-134.5"/>
<text text-anchor="middle" x="601" y="-122.5" font-family="Helvetica,sans-Serif" font-size="10.00">helios.util.log.ConsoleSink</text>
</a>
</g>
</g>
<!-- Node16&#45;&gt;Node25 -->
<g id="edge40_Node000016_Node000025" class="edge">
<title>Node16&#45;&gt;Node25</title>
<g id="a_edge40_Node000016_Node000025"><a xlink:title=" ">
<path fill="none" stroke="#63b8ff" d="M765.54,-247.27C771.35,-231.37 780.8,-197.33 765,-176 752.32,-158.87 702.51,-145.26 661.08,-136.59"/>
<polygon fill="#63b8ff" stroke="#63b8ff" points="661.53,-133.11 651.03,-134.55 660.13,-139.97 661.53,-133.11"/>
</a>
</g>
</g>
<!-- Node17&#45;&gt;Node14 -->
<g id="edge28_Node000017_Node000014" class="edge">
<title>Node17&#45;&gt;Node14</title>
<g id="a_edge28_Node000017_Node000014"><a xlink:title=" ">
<path fill="none" stroke="#63b8ff" d="M996.21,-188.12C1059.66,-184.16 1152.69,-172.65 1227,-140 1258.95,-125.96 1289.53,-98.67 1307,-81.3"/>
<polygon fill="#63b8ff" stroke="#63b8ff" points="1309.56,-83.69 1314.06,-74.11 1304.56,-78.79 1309.56,-83.69"/>
</a>
</g>
</g>
<!-- Node18 -->
<g id="Node000018" class="node">
<title>Node18</title>
<g id="a_Node000018"><a xlink:title=" ">
<polygon fill="#e0e0e0" stroke="#999999" points="757,-19 713,-19 713,0 757,0 757,-19"/>
<text text-anchor="middle" x="735" y="-7" font-family="Helvetica,sans-Serif" font-size="10.00">string</text>
</a>
</g>
</g>
<!-- Node17&#45;&gt;Node18 -->
<g id="edge25_Node000017_Node000018" class="edge">
<title>Node17&#45;&gt;Node18</title>
<g id="a_edge25_Node000017_Node000018"><a xlink:title=" ">
<path fill="none" stroke="#63b8ff" d="M899.41,-181.4C878.74,-173.06 848.68,-158.89 827,-140 807.12,-122.68 765.61,-58.98 745.87,-27.85"/>
<polygon fill="#63b8ff" stroke="#63b8ff" points="748.79,-25.92 740.5,-19.33 742.87,-29.65 748.79,-25.92"/>
</a>
</g>
</g>
<!-- Node19 -->
<g id="Node000019" class="node">
<title>Node19</title>
<g id="a_Node000019"><a xlink:title=" ">
<polygon fill="#e0e0e0" stroke="#999999" points="937.5,-134.5 844.5,-134.5 844.5,-115.5 937.5,-115.5 937.5,-134.5"/>
<text text-anchor="middle" x="891" y="-122.5" font-family="Helvetica,sans-Serif" font-size="10.00">unordered_map</text>
</a>
</g>
</g>
<!-- Node17&#45;&gt;Node19 -->
<g id="edge26_Node000017_Node000019" class="edge">
<title>Node17&#45;&gt;Node19</title>
<g id="a_edge26_Node000017_Node000019"><a xlink:title=" ">
<path fill="none" stroke="#63b8ff" d="M918.68,-181.37C913.94,-171.88 906.18,-156.36 900.08,-144.16"/>
<polygon fill="#63b8ff" stroke="#63b8ff" points="903.06,-142.28 895.45,-134.91 896.79,-145.41 903.06,-142.28"/>
</a>
</g>
</g>
<!-- Node20 -->
<g id="Node000020" class="node">
<title>Node20</title>
<g id="a_Node000020"><a xlink:title=" ">
<polygon fill="#e0e0e0" stroke="#999999" points="1042,-134.5 956,-134.5 956,-115.5 1042,-115.5 1042,-134.5"/>
<text text-anchor="middle" x="999" y="-122.5" font-family="Helvetica,sans-Serif" font-size="10.00">unordered_set</text>
</a>
</g>
</g>
<!-- Node17&#45;&gt;Node20 -->
<g id="edge27_Node000017_Node000020" class="edge">
<title>Node17&#45;&gt;Node20</title>
<g id="a_edge27_Node000017_Node000020"><a xlink:title=" ">
<path fill="none" stroke="#63b8ff" d="M933.25,-181.37C945.31,-171.21 965.56,-154.16 980.41,-141.65"/>
<polygon fill="#63b8ff" stroke="#63b8ff" points="983.03,-144.02 988.43,-134.91 978.52,-138.67 983.03,-144.02"/>
</a>
</g>
</g>
<!-- Node21 -->
<g id="Node000021" class="node">
<title>Node21</title>
<g id="a_Node000021"><a xlink:title=" ">
<polygon fill="#e0e0e0" stroke="#999999" points="926,-74 878,-74 878,-55 926,-55 926,-74"/>
<text text-anchor="middle" x="902" y="-62" font-family="Helvetica,sans-Serif" font-size="10.00">mutex</text>
</a>
</g>
</g>
<!-- Node17&#45;&gt;Node21 -->
<g id="edge29_Node000017_Node000021" class="edge">
<title>Node17&#45;&gt;Node21</title>
<g id="a_edge29_Node000017_Node000021"><a xlink:title=" ">
<path fill="none" stroke="#63b8ff" d="M892.69,-181.35C872.73,-173.9 848.13,-160.96 836,-140 829.32,-128.46 829.74,-121.77 836,-110 843.31,-96.25 856.97,-85.99 869.97,-78.8"/>
<polygon fill="#63b8ff" stroke="#63b8ff" points="871.89,-81.75 879.22,-74.11 868.72,-75.51 871.89,-81.75"/>
</a>
</g>
</g>
<!-- Node22 -->
<g id="Node000022" class="node">
<title>Node22</title>
<g id="a_Node000022"><a xlink:title=" ">
<polygon fill="#e0e0e0" stroke="#999999" points="1254.5,-74 1207.5,-74 1207.5,-55 1254.5,-55 1254.5,-74"/>
<text text-anchor="middle" x="1231" y="-62" font-family="Helvetica,sans-Serif" font-size="10.00">vector</text>
</a>
</g>
</g>
<!-- Node17&#45;&gt;Node22 -->
<g id="edge30_Node000017_Node000022" class="edge">
<title>Node17&#45;&gt;Node22</title>
<g id="a_edge30_Node000017_Node000022"><a xlink:title=" ">
<path fill="none" stroke="#63b8ff" d="M951.5,-181.45C978.15,-172.86 1018.59,-158.3 1051,-140 1070.04,-129.25 1070.61,-120.11 1090,-110 1124.71,-91.9 1168.11,-79.57 1197.52,-72.56"/>
<polygon fill="#63b8ff" stroke="#63b8ff" points="1198.35,-75.96 1207.31,-70.3 1196.78,-69.14 1198.35,-75.96"/>
</a>
</g>
</g>
<!-- Node17&#45;&gt;Node23 -->
<g id="edge31_Node000017_Node000023" class="edge">
<title>Node17&#45;&gt;Node23</title>
<g id="a_edge31_Node000017_Node000023"><a xlink:title=" ">
<path fill="none" stroke="#63b8ff" d="M954.69,-181.37C996.6,-169.96 1070.51,-149.83 1116.73,-137.24"/>
<polygon fill="#63b8ff" stroke="#63b8ff" points="1117.71,-140.6 1126.43,-134.6 1115.87,-133.85 1117.71,-140.6"/>
</a>
</g>
</g>
<!-- Node17&#45;&gt;Node24 -->
<g id="edge38_Node000017_Node000024" class="edge">
<title>Node17&#45;&gt;Node24</title>
<g id="a_edge38_Node000017_Node000024"><a xlink:title=" ">
<path fill="none" stroke="#63b8ff" d="M875.96,-181.48C842.91,-174.04 798.61,-161.06 764,-140 739.03,-124.81 716.32,-99.43 702.82,-82.58"/>
<polygon fill="#63b8ff" stroke="#63b8ff" points="705.22,-79.96 696.32,-74.21 699.69,-84.25 705.22,-79.96"/>
</a>
</g>
</g>
<!-- Node23&#45;&gt;Node14 -->
<g id="edge34_Node000023_Node000014" class="edge">
<title>Node23&#45;&gt;Node14</title>
<g id="a_edge34_Node000023_Node000014"><a xlink:title=" ">
<path fill="none" stroke="#63b8ff" d="M1181.85,-115.49C1209.9,-105.49 1256.67,-88.8 1288.4,-77.49"/>
<polygon fill="#63b8ff" stroke="#63b8ff" points="1289.88,-80.67 1298.12,-74.02 1287.53,-74.08 1289.88,-80.67"/>
</a>
</g>
</g>
<!-- Node23&#45;&gt;Node18 -->
<g id="edge32_Node000023_Node000018" class="edge">
<title>Node23&#45;&gt;Node18</title>
<g id="a_edge32_Node000023_Node000018"><a xlink:title=" ">
<path fill="none" stroke="#63b8ff" d="M1132.78,-115.46C1091.65,-101.71 1007.46,-74.24 935,-55 876.14,-39.37 806.56,-24.75 766.92,-16.77"/>
<polygon fill="#63b8ff" stroke="#63b8ff" points="767.53,-13.32 757.04,-14.79 766.16,-20.19 767.53,-13.32"/>
</a>
</g>
</g>
<!-- Node23&#45;&gt;Node21 -->
<g id="edge35_Node000023_Node000021" class="edge">
<title>Node23&#45;&gt;Node21</title>
<g id="a_edge35_Node000023_Node000021"><a xlink:title=" ">
<path fill="none" stroke="#63b8ff" d="M1120.78,-115.49C1071.16,-104.16 984.07,-84.25 936.1,-73.29"/>
<polygon fill="#63b8ff" stroke="#63b8ff" points="936.73,-69.85 926.2,-71.03 935.17,-76.67 936.73,-69.85"/>
</a>
</g>
</g>
<!-- Node23&#45;&gt;Node22 -->
<g id="edge33_Node000023_Node000022" class="edge">
<title>Node23&#45;&gt;Node22</title>
<g id="a_edge33_Node000023_Node000022"><a xlink:title=" ">
<path fill="none" stroke="#63b8ff" d="M1168.77,-115.37C1180.2,-106.21 1198.48,-91.56 1212.28,-80.51"/>
<polygon fill="#63b8ff" stroke="#63b8ff" points="1214.57,-83.15 1220.18,-74.17 1210.19,-77.69 1214.57,-83.15"/>
</a>
</g>
</g>
<!-- Node23&#45;&gt;Node24 -->
<g id="edge36_Node000023_Node000024" class="edge">
<title>Node23&#45;&gt;Node24</title>
<g id="a_edge36_Node000023_Node000024"><a xlink:title=" ">
<path fill="none" stroke="#63b8ff" d="M1098.3,-116.11C1082.9,-114.09 1066.33,-111.95 1051,-110 950.93,-97.29 835.19,-83.11 762.3,-74.25"/>
<polygon fill="#63b8ff" stroke="#63b8ff" points="762.65,-70.77 752.3,-73.04 761.81,-77.72 762.65,-70.77"/>
</a>
</g>
</g>
<!-- Node24&#45;&gt;Node18 -->
<g id="edge37_Node000024_Node000018" class="edge">
<title>Node24&#45;&gt;Node18</title>
<g id="a_edge37_Node000024_Node000018"><a xlink:title=" ">
<path fill="none" stroke="#63b8ff" d="M697.43,-54.75C703.85,-47.18 713.31,-36.05 721.12,-26.84"/>
<polygon fill="#63b8ff" stroke="#63b8ff" points="723.9,-28.98 727.71,-19.09 718.57,-24.45 723.9,-28.98"/>
</a>
</g>
</g>
<!-- Node25&#45;&gt;Node18 -->
<g id="edge41_Node000025_Node000018" class="edge">
<title>Node25&#45;&gt;Node18</title>
<g id="a_edge41_Node000025_Node000018"><a xlink:title=" ">
<path fill="none" stroke="#63b8ff" d="M600.86,-115.19C601.1,-100.81 603.65,-72.16 619,-55 640.58,-30.87 676.73,-19.74 702.94,-14.66"/>
<polygon fill="#63b8ff" stroke="#63b8ff" points="703.55,-18.11 712.8,-12.94 702.35,-11.21 703.55,-18.11"/>
</a>
</g>
</g>
<!-- Node25&#45;&gt;Node24 -->
<g id="edge42_Node000025_Node000024" class="edge">
<title>Node25&#45;&gt;Node24</title>
<g id="a_edge42_Node000025_Node000024"><a xlink:title=" ">
<path fill="none" stroke="#63b8ff" d="M614.13,-115.37C628.33,-106.04 651.2,-91.01 668.12,-79.88"/>
<polygon fill="#63b8ff" stroke="#63b8ff" points="670.38,-82.58 676.81,-74.17 666.53,-76.74 670.38,-82.58"/>
</a>
</g>
</g>
<!-- Node26&#45;&gt;Node6 -->
<g id="edge46_Node000026_Node000006" class="edge">
<title>Node26&#45;&gt;Node6</title>
<g id="a_edge46_Node000026_Node000006"><a xlink:title=" ">
<path fill="none" stroke="#63b8ff" d="M821.92,-243.28C818.91,-242.83 815.93,-242.4 813,-242 629.09,-217.16 581.84,-222.51 397,-206 372.75,-203.83 346.33,-201.42 322.42,-199.21"/>
<polygon fill="#63b8ff" stroke="#63b8ff" points="322.62,-195.72 312.34,-198.28 321.97,-202.69 322.62,-195.72"/>
</a>
</g>
</g>
<!-- Node26&#45;&gt;Node17 -->
<g id="edge48_Node000026_Node000017" class="edge">
<title>Node26&#45;&gt;Node17</title>
<g id="a_edge48_Node000026_Node000017"><a xlink:title=" ">
<path fill="none" stroke="#63b8ff" d="M896.55,-241.8C901.53,-232.41 908.12,-220.02 913.47,-209.95"/>
<polygon fill="#63b8ff" stroke="#63b8ff" points="916.7,-211.32 918.3,-200.84 910.52,-208.03 916.7,-211.32"/>
</a>
</g>
</g>
<!-- Node26&#45;&gt;Node23 -->
<g id="edge47_Node000026_Node000023" class="edge">
<title>Node26&#45;&gt;Node23</title>
<g id="a_edge47_Node000026_Node000023"><a xlink:title=" ">
<path fill="none" stroke="#63b8ff" d="M956.39,-243.59C989.74,-235.74 1029.86,-223.67 1063,-206 1094.68,-189.11 1125.34,-160.35 1142.9,-142.3"/>
<polygon fill="#63b8ff" stroke="#63b8ff" points="1145.64,-144.5 1150.01,-134.85 1140.57,-139.67 1145.64,-144.5"/>
</a>
</g>
</g>
<!-- Node27&#45;&gt;Node9 -->
<g id="edge54_Node000027_Node000009" class="edge">
<title>Node27&#45;&gt;Node9</title>
<g id="a_edge54_Node000027_Node000009"><a xlink:title=" ">
<path fill="none" stroke="#63b8ff" d="M992.81,-312.69C897.42,-307.15 743.47,-294.96 691,-272 660.97,-258.86 607.82,-191.62 579,-176 543.98,-157.02 500.91,-144.49 466.77,-136.71"/>
<polygon fill="#63b8ff" stroke="#63b8ff" points="467.45,-133.28 456.93,-134.55 465.94,-140.11 467.45,-133.28"/>
</a>
</g>
</g>
<!-- Node27&#45;&gt;Node11 -->
<g id="edge63_Node000027_Node000011" class="edge">
<title>Node27&#45;&gt;Node11</title>
<g id="a_edge63_Node000027_Node000011"><a xlink:title=" ">
<path fill="none" stroke="#63b8ff" d="M992.66,-309.34C905.92,-301.27 762.89,-287.28 640,-272 638.73,-271.84 637.45,-271.68 636.17,-271.52"/>
<polygon fill="#63b8ff" stroke="#63b8ff" points="636.56,-268.04 626.19,-270.22 635.65,-274.98 636.56,-268.04"/>
</a>
</g>
</g>
<!-- Node27&#45;&gt;Node14 -->
<g id="edge51_Node000027_Node000014" class="edge">
<title>Node27&#45;&gt;Node14</title>
<g id="a_edge51_Node000027_Node000014"><a xlink:title=" ">
<path fill="none" stroke="#63b8ff" d="M1133.2,-308C1175.96,-301 1233.95,-289.37 1283,-272 1343.71,-250.5 1378.4,-260.94 1412,-206 1434.26,-169.6 1434.51,-146.24 1412,-110 1400.72,-91.84 1379.6,-80.87 1360.65,-74.37"/>
<polygon fill="#63b8ff" stroke="#63b8ff" points="1361.59,-70.99 1351,-71.36 1359.51,-77.68 1361.59,-70.99"/>
</a>
</g>
</g>
<!-- Node27&#45;&gt;Node15 -->
<g id="edge52_Node000027_Node000015" class="edge">
<title>Node27&#45;&gt;Node15</title>
<g id="a_edge52_Node000027_Node000015"><a xlink:title=" ">
<path fill="none" stroke="#63b8ff" d="M1062.41,-307.87C1052.42,-298.88 1036.57,-284.61 1024.37,-273.64"/>
<polygon fill="#63b8ff" stroke="#63b8ff" points="1026.4,-270.76 1016.63,-266.67 1021.72,-275.96 1026.4,-270.76"/>
</a>
</g>
</g>
<!-- Node27&#45;&gt;Node17 -->
<g id="edge56_Node000027_Node000017" class="edge">
<title>Node27&#45;&gt;Node17</title>
<g id="a_edge56_Node000027_Node000017"><a xlink:title=" ">
<path fill="none" stroke="#63b8ff" d="M1135.91,-307.96C1191.12,-297.97 1257.58,-278.02 1227,-242 1199.16,-209.2 1086.26,-197.88 1006.2,-194"/>
<polygon fill="#63b8ff" stroke="#63b8ff" points="1006.27,-190.49 996.12,-193.54 1005.95,-197.49 1006.27,-190.49"/>
</a>
</g>
</g>
<!-- Node27&#45;&gt;Node22 -->
<g id="edge53_Node000027_Node000022" class="edge">
<title>Node27&#45;&gt;Node22</title>
<g id="a_edge53_Node000027_Node000022"><a xlink:title=" ">
<path fill="none" stroke="#63b8ff" d="M1150.46,-307.97C1196.31,-301.19 1247.87,-289.82 1262,-272 1306.86,-215.41 1263.14,-121.86 1241.53,-83.13"/>
<polygon fill="#63b8ff" stroke="#63b8ff" points="1244.37,-81.04 1236.34,-74.13 1238.3,-84.54 1244.37,-81.04"/>
</a>
</g>
</g>
<!-- Node27&#45;&gt;Node23 -->
<g id="edge55_Node000027_Node000023" class="edge">
<title>Node27&#45;&gt;Node23</title>
<g id="a_edge55_Node000027_Node000023"><a xlink:title=" ">
<path fill="none" stroke="#63b8ff" d="M1137.34,-307.96C1180.22,-300.86 1230.74,-289.13 1244,-272 1278.37,-227.61 1213.71,-168.27 1178.56,-140.94"/>
<polygon fill="#63b8ff" stroke="#63b8ff" points="1180.43,-137.96 1170.34,-134.71 1176.2,-143.54 1180.43,-137.96"/>
</a>
</g>
</g>
<!-- Node28 -->
<g id="Node000028" class="node">
<title>Node28</title>
<g id="a_Node000028"><a xlink:href="Shape_8ixx.html" target="_top" xlink:title="Interface for simple geometric shapes used for testing and debugging.">
<polygon fill="white" stroke="#666666" points="1218,-272 1058,-272 1058,-242 1218,-242 1218,-272"/>
<text text-anchor="start" x="1066" y="-260" font-family="Helvetica,sans-Serif" font-size="10.00">helios.rendering.asset.shape.</text>
<text text-anchor="middle" x="1138" y="-249" font-family="Helvetica,sans-Serif" font-size="10.00">Shape</text>
</a>
</g>
</g>
<!-- Node27&#45;&gt;Node28 -->
<g id="edge57_Node000027_Node000028" class="edge">
<title>Node27&#45;&gt;Node28</title>
<g id="a_edge57_Node000027_Node000028"><a xlink:title=" ">
<path fill="none" stroke="#63b8ff" d="M1081.74,-307.87C1090.36,-300.22 1103.3,-288.76 1114.59,-278.75"/>
<polygon fill="#63b8ff" stroke="#63b8ff" points="1116.91,-281.37 1122.08,-272.11 1112.27,-276.13 1116.91,-281.37"/>
</a>
</g>
</g>
<!-- Node29 -->
<g id="Node000029" class="node">
<title>Node29</title>
<g id="a_Node000029"><a xlink:href="Vertex_8ixx.html" target="_top" xlink:title="Vertex description and utilities for rendering.">
<polygon fill="white" stroke="#666666" points="756,-200.5 626,-200.5 626,-181.5 756,-181.5 756,-200.5"/>
<text text-anchor="middle" x="691" y="-188.5" font-family="Helvetica,sans-Serif" font-size="10.00">helios.rendering.Vertex</text>
</a>
</g>
</g>
<!-- Node27&#45;&gt;Node29 -->
<g id="edge64_Node000027_Node000029" class="edge">
<title>Node27&#45;&gt;Node29</title>
<g id="a_edge64_Node000027_Node000029"><a xlink:title=" ">
<path fill="none" stroke="#63b8ff" d="M992.91,-311.4C893.35,-304.27 732.74,-290.14 712,-272 694.63,-256.81 690.79,-229.18 690.34,-210.71"/>
<polygon fill="#63b8ff" stroke="#63b8ff" points="693.84,-210.6 690.41,-200.58 686.84,-210.55 693.84,-210.6"/>
</a>
</g>
</g>
<!-- Node28&#45;&gt;Node12 -->
<g id="edge60_Node000028_Node000012" class="edge">
<title>Node28&#45;&gt;Node12</title>
<g id="a_edge60_Node000028_Node000012"><a xlink:title=" ">
<path fill="none" stroke="#63b8ff" d="M1057.98,-243.13C1054.95,-242.73 1051.95,-242.35 1049,-242 857.71,-219.02 808.79,-224.4 617,-206 605.17,-204.87 592.75,-203.6 580.47,-202.32"/>
<polygon fill="#63b8ff" stroke="#63b8ff" points="580.52,-198.8 570.2,-201.23 579.78,-205.76 580.52,-198.8"/>
</a>
</g>
</g>
<!-- Node28&#45;&gt;Node14 -->
<g id="edge58_Node000028_Node000014" class="edge">
<title>Node28&#45;&gt;Node14</title>
<g id="a_edge58_Node000028_Node000014"><a xlink:title=" ">
<path fill="none" stroke="#63b8ff" d="M1162.36,-241.91C1177.24,-232.7 1196.18,-219.84 1211,-206 1253.06,-166.71 1292.35,-110.75 1310.87,-82.79"/>
<polygon fill="#63b8ff" stroke="#63b8ff" points="1313.98,-84.43 1316.53,-74.14 1308.12,-80.6 1313.98,-84.43"/>
</a>
</g>
</g>
<!-- Node28&#45;&gt;Node22 -->
<g id="edge59_Node000028_Node000022" class="edge">
<title>Node28&#45;&gt;Node22</title>
<g id="a_edge59_Node000028_Node000022"><a xlink:title=" ">
<path fill="none" stroke="#63b8ff" d="M1153.75,-241.72C1174.84,-221.46 1211.42,-182.14 1227,-140 1233.66,-121.99 1233.95,-99.86 1233.01,-84.42"/>
<polygon fill="#63b8ff" stroke="#63b8ff" points="1236.47,-83.77 1232.14,-74.1 1229.49,-84.35 1236.47,-83.77"/>
</a>
</g>
</g>
<!-- Node28&#45;&gt;Node29 -->
<g id="edge61_Node000028_Node000029" class="edge">
<title>Node28&#45;&gt;Node29</title>
<g id="a_edge61_Node000028_Node000029"><a xlink:title=" ">
<path fill="none" stroke="#63b8ff" d="M1057.96,-243.34C1054.93,-242.89 1051.94,-242.44 1049,-242 950.58,-227.39 836.76,-211.7 764.36,-201.87"/>
<polygon fill="#63b8ff" stroke="#63b8ff" points="764.8,-198.4 754.42,-200.52 763.86,-205.33 764.8,-198.4"/>
</a>
</g>
</g>
<!-- Node29&#45;&gt;Node9 -->
<g id="edge62_Node000029_Node000009" class="edge">
<title>Node29&#45;&gt;Node9</title>
<g id="a_edge62_Node000029_Node000009"><a xlink:title=" ">
<path fill="none" stroke="#63b8ff" d="M653.13,-181.44C602.08,-169.89 511.21,-149.34 455.6,-136.77"/>
<polygon fill="#63b8ff" stroke="#63b8ff" points="456.17,-133.31 445.65,-134.51 454.63,-140.13 456.17,-133.31"/>
</a>
</g>
</g>
</g>
</svg>
