<?xml version="1.0" encoding="UTF-8" standalone="no"?>
<!DOCTYPE svg PUBLIC "-//W3C//DTD SVG 1.1//EN"
 "http://www.w3.org/Graphics/SVG/1.1/DTD/svg11.dtd">
<!-- Generated by graphviz version 2.43.0 (0)
 -->
<!-- Title: include/helios/core/_module.ixx Pages: 1 -->
<svg width="354pt" height="149pt"
 viewBox="0.00 0.00 353.50 148.77" xmlns="http://www.w3.org/2000/svg" xmlns:xlink="http://www.w3.org/1999/xlink">

<svg id="main" version="1.1" xmlns="http://www.w3.org/2000/svg" xmlns:xlink="http://www.w3.org/1999/xlink" xml:space="preserve">

<style type="text/css"><![CDATA[
.node, .edge {opacity: 0.7;}
.node.selected, .edge.selected {opacity: 1;}
.edge:hover path { stroke: red; }
.edge:hover polygon { stroke: red; fill: red; }
]]></style>
<script type="application/ecmascript" xlink:href="svg.min.js"/>
<svg id="graph" class="graph">
<g id="graph0" class="graph" transform="scale(1 1) rotate(0) translate(4 144.77)">
<title>include/helios/core/_module.ixx</title>
<!-- Node1 -->
<g id="Node000001" class="node">
<title>Node1</title>
<g id="a_Node000001"><a xlink:title="Facade module for helios::core.">
<polygon fill="#999999" stroke="#666666" points="258.5,-140.77 150.5,-140.77 150.5,-110.77 258.5,-110.77 258.5,-140.77"/>
<text text-anchor="start" x="158.5" y="-128.77" font-family="Helvetica,sans-Serif" font-size="10.00">include/helios/core</text>
<text text-anchor="middle" x="204.5" y="-117.77" font-family="Helvetica,sans-Serif" font-size="10.00">/_module.ixx</text>
</a>
</g>
</g>
<!-- Node2 -->
<g id="Node000002" class="node">
<title>Node2</title>
<g id="a_Node000002"><a xlink:href="Transform_8ixx.html" target="_top" xlink:title="Represents a 3D transformation consisting of translation, rotation and scale.">
<polygon fill="white" stroke="#666666" points="201.5,-74.77 79.5,-74.77 79.5,-55.77 201.5,-55.77 201.5,-74.77"/>
<text text-anchor="middle" x="140.5" y="-62.77" font-family="Helvetica,sans-Serif" font-size="10.00">helios.core.Transform</text>
</a>
</g>
</g>
<!-- Node1&#45;&gt;Node2 -->
<g id="edge1_Node000001_Node000002" class="edge">
<title>Node1&#45;&gt;Node2</title>
<g id="a_edge1_Node000001_Node000002"><a xlink:title=" ">
<path fill="none" stroke="#63b8ff" d="M189.01,-110.61C179.53,-101.95 167.39,-90.85 157.62,-81.92"/>
<polygon fill="#63b8ff" stroke="#63b8ff" points="159.83,-79.2 150.09,-75.04 155.11,-84.37 159.83,-79.2"/>
</a>
</g>
</g>
<!-- Node5 -->
<g id="Node000005" class="node">
<title>Node5</title>
<g id="a_Node000005"><a xlink:href="units_8ixx.html" target="_top" xlink:title="Canonical length units and conversion helpers for helios to keep spatial and temporal data consistent...">
<polygon fill="white" stroke="#666666" points="317,-74.77 220,-74.77 220,-55.77 317,-55.77 317,-74.77"/>
<text text-anchor="middle" x="268.5" y="-62.77" font-family="Helvetica,sans-Serif" font-size="10.00">helios.core.units</text>
</a>
</g>
</g>
<!-- Node1&#45;&gt;Node5 -->
<g id="edge6_Node000001_Node000005" class="edge">
<title>Node1&#45;&gt;Node5</title>
<g id="a_edge6_Node000001_Node000005"><a xlink:title=" ">
<path fill="none" stroke="#63b8ff" d="M219.99,-110.61C229.47,-101.95 241.61,-90.85 251.38,-81.92"/>
<polygon fill="#63b8ff" stroke="#63b8ff" points="253.89,-84.37 258.91,-75.04 249.17,-79.2 253.89,-84.37"/>
</a>
</g>
</g>
<!-- Node3 -->
<g id="Node000003" class="node">
<title>Node3</title>
<g id="a_Node000003"><a xlink:href="helios_2math_2transform_2__module_8ixx.html" target="_top" xlink:title="Module exports for transformation utilities.">
<polygon fill="white" stroke="#666666" points="125,-19.77 0,-19.77 0,-0.77 125,-0.77 125,-19.77"/>
<text text-anchor="middle" x="62.5" y="-7.77" font-family="Helvetica,sans-Serif" font-size="10.00">helios.math.transform</text>
</a>
</g>
</g>
<!-- Node2&#45;&gt;Node3 -->
<g id="edge2_Node000002_Node000003" class="edge">
<title>Node2&#45;&gt;Node3</title>
<g id="a_edge2_Node000002_Node000003"><a xlink:title=" ">
<path fill="none" stroke="#63b8ff" d="M127.97,-55.76C116.1,-47.69 98.04,-35.42 83.89,-25.8"/>
<polygon fill="#63b8ff" stroke="#63b8ff" points="85.5,-22.67 75.26,-19.94 81.56,-28.46 85.5,-22.67"/>
</a>
</g>
</g>
<!-- Node4 -->
<g id="Node000004" class="node">
<title>Node4</title>
<g id="a_Node000004"><a xlink:href="helios_2math_2types_2__module_8ixx.html" target="_top" xlink:title="Module exports for vector and matrix type definitions.">
<polygon fill="white" stroke="#666666" points="265.5,-19.77 161.5,-19.77 161.5,-0.77 265.5,-0.77 265.5,-19.77"/>
<text text-anchor="middle" x="213.5" y="-7.77" font-family="Helvetica,sans-Serif" font-size="10.00">helios.math.types</text>
</a>
</g>
</g>
<!-- Node2&#45;&gt;Node4 -->
<g id="edge4_Node000002_Node000004" class="edge">
<title>Node2&#45;&gt;Node4</title>
<g id="a_edge4_Node000002_Node000004"><a xlink:title=" ">
<path fill="none" stroke="#63b8ff" d="M152.23,-55.76C163.23,-47.77 179.92,-35.65 193.1,-26.08"/>
<polygon fill="#63b8ff" stroke="#63b8ff" points="195.52,-28.65 201.56,-19.94 191.41,-22.98 195.52,-28.65"/>
</a>
</g>
</g>
<!-- Node3&#45;&gt;Node3 -->
<g id="edge3_Node000003_Node000003" class="edge">
<title>Node3&#45;&gt;Node3</title>
<g id="a_edge3_Node000003_Node000003"><a xlink:title=" ">
<path fill="none" stroke="#63b8ff" d="M100.18,-19.8C122.3,-21.83 143,-18.66 143,-10.27 143,-3.2 128.26,0.17 110.37,-0.17"/>
<polygon fill="#63b8ff" stroke="#63b8ff" points="109.97,3.31 100.18,-0.74 110.36,-3.68 109.97,3.31"/>
</a>
</g>
</g>
<!-- Node4&#45;&gt;Node4 -->
<g id="edge5_Node000004_Node000004" class="edge">
<title>Node4&#45;&gt;Node4</title>
<g id="a_edge5_Node000004_Node000004"><a xlink:title=" ">
<path fill="none" stroke="#63b8ff" d="M246.27,-19.8C265.5,-21.83 283.5,-18.66 283.5,-10.27 283.5,-3.39 271.39,-0.02 256.42,-0.15"/>
<polygon fill="#63b8ff" stroke="#63b8ff" points="256.05,3.33 246.27,-0.74 256.45,-3.65 256.05,3.33"/>
</a>
</g>
</g>
<!-- Node5&#45;&gt;Node4 -->
<g id="edge8_Node000005_Node000004" class="edge">
<title>Node5&#45;&gt;Node4</title>
<g id="a_edge8_Node000005_Node000004"><a xlink:title=" ">
<path fill="none" stroke="#63b8ff" d="M259.42,-55.52C251.41,-47.8 239.54,-36.37 229.88,-27.06"/>
<polygon fill="#63b8ff" stroke="#63b8ff" points="232.04,-24.28 222.41,-19.86 227.19,-29.32 232.04,-24.28"/>
</a>
</g>
</g>
<!-- Node6 -->
<g id="Node000006" class="node">
<title>Node6</title>
<g id="a_Node000006"><a xlink:title=" ">
<polygon fill="#e0e0e0" stroke="#999999" points="345.5,-19.77 301.5,-19.77 301.5,-0.77 345.5,-0.77 345.5,-19.77"/>
<text text-anchor="middle" x="323.5" y="-7.77" font-family="Helvetica,sans-Serif" font-size="10.00">string</text>
</a>
</g>
</g>
<!-- Node5&#45;&gt;Node6 -->
<g id="edge7_Node000005_Node000006" class="edge">
<title>Node5&#45;&gt;Node6</title>
<g id="a_edge7_Node000005_Node000006"><a xlink:title=" ">
<path fill="none" stroke="#63b8ff" d="M277.58,-55.52C285.59,-47.8 297.46,-36.37 307.12,-27.06"/>
<polygon fill="#63b8ff" stroke="#63b8ff" points="309.81,-29.32 314.59,-19.86 304.96,-24.28 309.81,-29.32"/>
</a>
</g>
</g>
</g>
</svg>
</svg>

<style type='text/css'>
<![CDATA[
[data-mouse-over-selected='false'] { opacity: 0.7; }
[data-mouse-over-selected='true']  { opacity: 1.0; }
]]>
</style>
<script type="application/ecmascript"><![CDATA[
document.addEventListener('DOMContentLoaded', (event) => {
  highlightEdges();
  highlightAdjacentNodes();
});
]]></script>
</svg>
