<?xml version="1.0" encoding="UTF-8" standalone="no"?>
<!DOCTYPE svg PUBLIC "-//W3C//DTD SVG 1.1//EN"
 "http://www.w3.org/Graphics/SVG/1.1/DTD/svg11.dtd">
<!-- Generated by graphviz version 2.43.0 (0)
 -->
<!-- Title: include/helios/rendering/asset/shape/basic/_module.ixx Pages: 1 -->
<svg width="1294pt" height="293pt"
 viewBox="0.00 0.00 1293.50 293.17" xmlns="http://www.w3.org/2000/svg" xmlns:xlink="http://www.w3.org/1999/xlink">
<g id="graph0" class="graph" transform="scale(1 1) rotate(0) translate(4 289.17)">
<title>include/helios/rendering/asset/shape/basic/_module.ixx</title>
<!-- Node1 -->
<g id="Node000001" class="node">
<title>Node1</title>
<g id="a_Node000001"><a xlink:title="Module exports for basic geometric primitive shapes.">
<polygon fill="#999999" stroke="#666666" points="754.5,-285.17 584.5,-285.17 584.5,-255.17 754.5,-255.17 754.5,-285.17"/>
<text text-anchor="start" x="592.5" y="-273.17" font-family="Helvetica,sans-Serif" font-size="10.00">include/helios/rendering</text>
<text text-anchor="middle" x="669.5" y="-262.17" font-family="Helvetica,sans-Serif" font-size="10.00">/asset/shape/basic/_module.ixx</text>
</a>
</g>
</g>
<!-- Node2 -->
<g id="Node000002" class="node">
<title>Node2</title>
<g id="a_Node000002"><a xlink:href="Grid_8ixx.html" target="_top" xlink:title="Basic grid shape for rendering.">
<polygon fill="white" stroke="#666666" points="209,-213.67 0,-213.67 0,-194.67 209,-194.67 209,-213.67"/>
<text text-anchor="middle" x="104.5" y="-201.67" font-family="Helvetica,sans-Serif" font-size="10.00">helios.rendering.asset.shape.basic.Grid</text>
</a>
</g>
</g>
<!-- Node1&#45;&gt;Node2 -->
<g id="edge1_Node000001_Node000002" class="edge">
<title>Node1&#45;&gt;Node2</title>
<g id="a_edge1_Node000001_Node000002"><a xlink:title=" ">
<path fill="none" stroke="#63b8ff" d="M584.49,-260.11C493.61,-250.33 345.31,-234.16 217.5,-219.17 206,-217.83 193.84,-216.36 181.93,-214.9"/>
<polygon fill="#63b8ff" stroke="#63b8ff" points="182.36,-211.43 172,-213.68 181.5,-218.38 182.36,-211.43"/>
</a>
</g>
</g>
<!-- Node10 -->
<g id="Node000010" class="node">
<title>Node10</title>
<g id="a_Node000010"><a xlink:href="Ellipse_8ixx.html" target="_top" xlink:title="Basic ellipse shape for 2D rendering.">
<polygon fill="white" stroke="#666666" points="1285.5,-219.17 1097.5,-219.17 1097.5,-189.17 1285.5,-189.17 1285.5,-219.17"/>
<text text-anchor="start" x="1105.5" y="-207.17" font-family="Helvetica,sans-Serif" font-size="10.00">helios.rendering.asset.shape.basic.</text>
<text text-anchor="middle" x="1191.5" y="-196.17" font-family="Helvetica,sans-Serif" font-size="10.00">Ellipse</text>
</a>
</g>
</g>
<!-- Node1&#45;&gt;Node10 -->
<g id="edge14_Node000001_Node000010" class="edge">
<title>Node1&#45;&gt;Node10</title>
<g id="a_edge14_Node000001_Node000010"><a xlink:title=" ">
<path fill="none" stroke="#63b8ff" d="M754.61,-259.43C836.99,-249.9 965.68,-234.78 1087.25,-219.32"/>
<polygon fill="#63b8ff" stroke="#63b8ff" points="1088.01,-222.75 1097.48,-218.02 1087.12,-215.81 1088.01,-222.75"/>
</a>
</g>
</g>
<!-- Node13 -->
<g id="Node000013" class="node">
<title>Node13</title>
<g id="a_Node000013"><a xlink:href="Circle_8ixx.html" target="_top" xlink:title="Basic circle shape for rendering.">
<polygon fill="white" stroke="#666666" points="1079.5,-219.17 891.5,-219.17 891.5,-189.17 1079.5,-189.17 1079.5,-219.17"/>
<text text-anchor="start" x="899.5" y="-207.17" font-family="Helvetica,sans-Serif" font-size="10.00">helios.rendering.asset.shape.basic.</text>
<text text-anchor="middle" x="985.5" y="-196.17" font-family="Helvetica,sans-Serif" font-size="10.00">Circle</text>
</a>
</g>
</g>
<!-- Node1&#45;&gt;Node13 -->
<g id="edge22_Node000001_Node000013" class="edge">
<title>Node1&#45;&gt;Node13</title>
<g id="a_edge22_Node000001_Node000013"><a xlink:title=" ">
<path fill="none" stroke="#63b8ff" d="M738.85,-255.13C788.24,-245.13 854.73,-231.66 906.22,-221.23"/>
<polygon fill="#63b8ff" stroke="#63b8ff" points="907.21,-224.6 916.31,-219.19 905.82,-217.74 907.21,-224.6"/>
</a>
</g>
</g>
<!-- Node14 -->
<g id="Node000014" class="node">
<title>Node14</title>
<g id="a_Node000014"><a xlink:href="Cube_8ixx.html" target="_top" xlink:title="Basic cube shape for rendering.">
<polygon fill="white" stroke="#666666" points="667,-213.67 454,-213.67 454,-194.67 667,-194.67 667,-213.67"/>
<text text-anchor="middle" x="560.5" y="-201.67" font-family="Helvetica,sans-Serif" font-size="10.00">helios.rendering.asset.shape.basic.Cube</text>
</a>
</g>
</g>
<!-- Node1&#45;&gt;Node14 -->
<g id="edge30_Node000001_Node000014" class="edge">
<title>Node1&#45;&gt;Node14</title>
<g id="a_edge30_Node000001_Node000014"><a xlink:title=" ">
<path fill="none" stroke="#63b8ff" d="M645.58,-255.13C627.22,-244.35 602.02,-229.55 583.81,-218.86"/>
<polygon fill="#63b8ff" stroke="#63b8ff" points="585.4,-215.74 575.01,-213.69 581.86,-221.77 585.4,-215.74"/>
</a>
</g>
</g>
<!-- Node15 -->
<g id="Node000015" class="node">
<title>Node15</title>
<g id="a_Node000015"><a xlink:href="Line_8ixx.html" target="_top" xlink:title="Basic line shape for rendering.">
<polygon fill="white" stroke="#666666" points="436,-213.67 227,-213.67 227,-194.67 436,-194.67 436,-213.67"/>
<text text-anchor="middle" x="331.5" y="-201.67" font-family="Helvetica,sans-Serif" font-size="10.00">helios.rendering.asset.shape.basic.Line</text>
</a>
</g>
</g>
<!-- Node1&#45;&gt;Node15 -->
<g id="edge35_Node000001_Node000015" class="edge">
<title>Node1&#45;&gt;Node15</title>
<g id="a_edge35_Node000001_Node000015"><a xlink:title=" ">
<path fill="none" stroke="#63b8ff" d="M595.32,-255.13C532.26,-243.19 443.15,-226.32 386.35,-215.56"/>
<polygon fill="#63b8ff" stroke="#63b8ff" points="386.96,-212.11 376.48,-213.69 385.66,-218.99 386.96,-212.11"/>
</a>
</g>
</g>
<!-- Node16 -->
<g id="Node000016" class="node">
<title>Node16</title>
<g id="a_Node000016"><a xlink:href="Rectangle_8ixx.html" target="_top" xlink:title="Basic rectangle shape for rendering.">
<polygon fill="white" stroke="#666666" points="873.5,-219.17 685.5,-219.17 685.5,-189.17 873.5,-189.17 873.5,-219.17"/>
<text text-anchor="start" x="693.5" y="-207.17" font-family="Helvetica,sans-Serif" font-size="10.00">helios.rendering.asset.shape.basic.</text>
<text text-anchor="middle" x="779.5" y="-196.17" font-family="Helvetica,sans-Serif" font-size="10.00">Rectangle</text>
</a>
</g>
</g>
<!-- Node1&#45;&gt;Node16 -->
<g id="edge40_Node000001_Node000016" class="edge">
<title>Node1&#45;&gt;Node16</title>
<g id="a_edge40_Node000001_Node000016"><a xlink:title=" ">
<path fill="none" stroke="#63b8ff" d="M693.64,-255.13C709.11,-246.13 729.41,-234.32 746.38,-224.44"/>
<polygon fill="#63b8ff" stroke="#63b8ff" points="748.53,-227.24 755.42,-219.19 745.01,-221.19 748.53,-227.24"/>
</a>
</g>
</g>
<!-- Node3 -->
<g id="Node000003" class="node">
<title>Node3</title>
<g id="a_Node000003"><a xlink:title=" ">
<polygon fill="#e0e0e0" stroke="#999999" points="197,-147.67 132,-147.67 132,-128.67 197,-128.67 197,-147.67"/>
<text text-anchor="middle" x="164.5" y="-135.67" font-family="Helvetica,sans-Serif" font-size="10.00">stdexcept</text>
</a>
</g>
</g>
<!-- Node2&#45;&gt;Node3 -->
<g id="edge2_Node000002_Node000003" class="edge">
<title>Node2&#45;&gt;Node3</title>
<g id="a_edge2_Node000002_Node000003"><a xlink:title=" ">
<path fill="none" stroke="#63b8ff" d="M112.59,-194.54C121.93,-184.58 137.51,-167.97 149.16,-155.54"/>
<polygon fill="#63b8ff" stroke="#63b8ff" points="151.87,-157.77 156.15,-148.08 146.76,-152.98 151.87,-157.77"/>
</a>
</g>
</g>
<!-- Node4 -->
<g id="Node000004" class="node">
<title>Node4</title>
<g id="a_Node000004"><a xlink:title=" ">
<polygon fill="#e0e0e0" stroke="#999999" points="363,-81.67 316,-81.67 316,-62.67 363,-62.67 363,-81.67"/>
<text text-anchor="middle" x="339.5" y="-69.67" font-family="Helvetica,sans-Serif" font-size="10.00">vector</text>
</a>
</g>
</g>
<!-- Node2&#45;&gt;Node4 -->
<g id="edge3_Node000002_Node000004" class="edge">
<title>Node2&#45;&gt;Node4</title>
<g id="a_edge3_Node000002_Node000004"><a xlink:title=" ">
<path fill="none" stroke="#63b8ff" d="M122.97,-194.57C143.39,-184.93 177.15,-168.62 205.5,-153.17 245.55,-131.35 290.86,-103.64 317.21,-87.22"/>
<polygon fill="#63b8ff" stroke="#63b8ff" points="319.39,-89.98 326.01,-81.71 315.67,-84.05 319.39,-89.98"/>
</a>
</g>
</g>
<!-- Node5 -->
<g id="Node000005" class="node">
<title>Node5</title>
<g id="a_Node000005"><a xlink:href="PrimitiveType_8ixx.html" target="_top" xlink:title="Enum of primitive types for mesh rendering.">
<polygon fill="white" stroke="#666666" points="728.5,-87.17 564.5,-87.17 564.5,-57.17 728.5,-57.17 728.5,-87.17"/>
<text text-anchor="start" x="572.5" y="-75.17" font-family="Helvetica,sans-Serif" font-size="10.00">helios.rendering.model.config.</text>
<text text-anchor="middle" x="646.5" y="-64.17" font-family="Helvetica,sans-Serif" font-size="10.00">PrimitiveType</text>
</a>
</g>
</g>
<!-- Node2&#45;&gt;Node5 -->
<g id="edge4_Node000002_Node000005" class="edge">
<title>Node2&#45;&gt;Node5</title>
<g id="a_edge4_Node000002_Node000005"><a xlink:title=" ">
<path fill="none" stroke="#63b8ff" d="M140.06,-194.65C228.85,-173.35 461.48,-117.55 577.97,-89.61"/>
<polygon fill="#63b8ff" stroke="#63b8ff" points="578.94,-92.98 587.85,-87.24 577.31,-86.17 578.94,-92.98"/>
</a>
</g>
</g>
<!-- Node6 -->
<g id="Node000006" class="node">
<title>Node6</title>
<g id="a_Node000006"><a xlink:href="helios_2math_2types_2__module_8ixx.html" target="_top" xlink:title="Module exports for vector and matrix type definitions.">
<polygon fill="white" stroke="#666666" points="978.5,-21.17 874.5,-21.17 874.5,-2.17 978.5,-2.17 978.5,-21.17"/>
<text text-anchor="middle" x="926.5" y="-9.17" font-family="Helvetica,sans-Serif" font-size="10.00">helios.math.types</text>
</a>
</g>
</g>
<!-- Node2&#45;&gt;Node6 -->
<g id="edge5_Node000002_Node000006" class="edge">
<title>Node2&#45;&gt;Node6</title>
<g id="a_edge5_Node000002_Node000006"><a xlink:title=" ">
<path fill="none" stroke="#63b8ff" d="M103.92,-194.51C103.32,-178.41 104.4,-143.65 122.5,-123.17 180.04,-58.08 221.49,-75.12 306.5,-57.17 411.72,-34.96 728.91,-20.36 864.23,-14.99"/>
<polygon fill="#63b8ff" stroke="#63b8ff" points="864.57,-18.48 874.43,-14.59 864.3,-11.48 864.57,-18.48"/>
</a>
</g>
</g>
<!-- Node7 -->
<g id="Node000007" class="node">
<title>Node7</title>
<g id="a_Node000007"><a xlink:href="Vertex_8ixx.html" target="_top" xlink:title="Vertex description and utilities for rendering.">
<polygon fill="white" stroke="#666666" points="915.5,-81.67 785.5,-81.67 785.5,-62.67 915.5,-62.67 915.5,-81.67"/>
<text text-anchor="middle" x="850.5" y="-69.67" font-family="Helvetica,sans-Serif" font-size="10.00">helios.rendering.Vertex</text>
</a>
</g>
</g>
<!-- Node2&#45;&gt;Node7 -->
<g id="edge7_Node000002_Node000007" class="edge">
<title>Node2&#45;&gt;Node7</title>
<g id="a_edge7_Node000002_Node000007"><a xlink:title=" ">
<path fill="none" stroke="#63b8ff" d="M154.65,-194.63C211.79,-184.85 307.94,-168.23 390.5,-153.17 460.82,-140.35 478.13,-135.68 548.5,-123.17 630.65,-108.58 725.64,-93.08 786.81,-83.27"/>
<polygon fill="#63b8ff" stroke="#63b8ff" points="787.38,-86.73 796.7,-81.69 786.27,-79.81 787.38,-86.73"/>
</a>
</g>
</g>
<!-- Node8 -->
<g id="Node000008" class="node">
<title>Node8</title>
<g id="a_Node000008"><a xlink:href="Shape_8ixx.html" target="_top" xlink:title="Interface for simple geometric shapes used for testing and debugging.">
<polygon fill="white" stroke="#666666" points="717.5,-153.17 557.5,-153.17 557.5,-123.17 717.5,-123.17 717.5,-153.17"/>
<text text-anchor="start" x="565.5" y="-141.17" font-family="Helvetica,sans-Serif" font-size="10.00">helios.rendering.asset.shape.</text>
<text text-anchor="middle" x="637.5" y="-130.17" font-family="Helvetica,sans-Serif" font-size="10.00">Shape</text>
</a>
</g>
</g>
<!-- Node2&#45;&gt;Node8 -->
<g id="edge9_Node000002_Node000008" class="edge">
<title>Node2&#45;&gt;Node8</title>
<g id="a_edge9_Node000002_Node000008"><a xlink:title=" ">
<path fill="none" stroke="#63b8ff" d="M172.91,-194.65C187.62,-192.83 203.08,-190.93 217.5,-189.17 331.15,-175.37 462.16,-159.83 547.22,-149.8"/>
<polygon fill="#63b8ff" stroke="#63b8ff" points="547.84,-153.25 557.36,-148.6 547.02,-146.3 547.84,-153.25"/>
</a>
</g>
</g>
<!-- Node6&#45;&gt;Node6 -->
<g id="edge6_Node000006_Node000006" class="edge">
<title>Node6&#45;&gt;Node6</title>
<g id="a_edge6_Node000006_Node000006"><a xlink:title=" ">
<path fill="none" stroke="#63b8ff" d="M952.35,-21.21C973.94,-25.28 996.5,-22.1 996.5,-11.67 996.5,-2.87 980.44,0.76 962.45,-0.76"/>
<polygon fill="#63b8ff" stroke="#63b8ff" points="961.78,2.68 952.35,-2.14 962.73,-4.26 961.78,2.68"/>
</a>
</g>
</g>
<!-- Node7&#45;&gt;Node6 -->
<g id="edge8_Node000007_Node000006" class="edge">
<title>Node7&#45;&gt;Node6</title>
<g id="a_edge8_Node000007_Node000006"><a xlink:title=" ">
<path fill="none" stroke="#63b8ff" d="M861.71,-62.54C873.61,-53.38 892.64,-38.74 907.01,-27.68"/>
<polygon fill="#63b8ff" stroke="#63b8ff" points="909.45,-30.22 915.24,-21.34 905.18,-24.67 909.45,-30.22"/>
</a>
</g>
</g>
<!-- Node8&#45;&gt;Node4 -->
<g id="edge11_Node000008_Node000004" class="edge">
<title>Node8&#45;&gt;Node4</title>
<g id="a_edge11_Node000008_Node000004"><a xlink:title=" ">
<path fill="none" stroke="#63b8ff" d="M572.1,-123.13C510.65,-109.93 421.14,-90.71 373.05,-80.38"/>
<polygon fill="#63b8ff" stroke="#63b8ff" points="373.67,-76.93 363.16,-78.26 372.2,-83.78 373.67,-76.93"/>
</a>
</g>
</g>
<!-- Node8&#45;&gt;Node5 -->
<g id="edge12_Node000008_Node000005" class="edge">
<title>Node8&#45;&gt;Node5</title>
<g id="a_edge12_Node000008_Node000005"><a xlink:title=" ">
<path fill="none" stroke="#63b8ff" d="M639.5,-122.97C640.56,-115.43 641.89,-105.96 643.11,-97.3"/>
<polygon fill="#63b8ff" stroke="#63b8ff" points="646.58,-97.73 644.51,-87.34 639.65,-96.75 646.58,-97.73"/>
</a>
</g>
</g>
<!-- Node8&#45;&gt;Node7 -->
<g id="edge13_Node000008_Node000007" class="edge">
<title>Node8&#45;&gt;Node7</title>
<g id="a_edge13_Node000008_Node000007"><a xlink:title=" ">
<path fill="none" stroke="#63b8ff" d="M684.24,-123.13C722.75,-111.56 776.67,-95.36 812.54,-84.58"/>
<polygon fill="#63b8ff" stroke="#63b8ff" points="813.58,-87.92 822.15,-81.69 811.57,-81.22 813.58,-87.92"/>
</a>
</g>
</g>
<!-- Node9 -->
<g id="Node000009" class="node">
<title>Node9</title>
<g id="a_Node000009"><a xlink:title=" ">
<polygon fill="#e0e0e0" stroke="#999999" points="546.5,-81.67 488.5,-81.67 488.5,-62.67 546.5,-62.67 546.5,-81.67"/>
<text text-anchor="middle" x="517.5" y="-69.67" font-family="Helvetica,sans-Serif" font-size="10.00">memory</text>
</a>
</g>
</g>
<!-- Node8&#45;&gt;Node9 -->
<g id="edge10_Node000008_Node000009" class="edge">
<title>Node8&#45;&gt;Node9</title>
<g id="a_edge10_Node000008_Node000009"><a xlink:title=" ">
<path fill="none" stroke="#63b8ff" d="M611.17,-123.13C590.68,-112.2 562.44,-97.15 542.34,-86.43"/>
<polygon fill="#63b8ff" stroke="#63b8ff" points="543.94,-83.31 533.47,-81.69 540.65,-89.49 543.94,-83.31"/>
</a>
</g>
</g>
<!-- Node10&#45;&gt;Node4 -->
<g id="edge15_Node000010_Node000004" class="edge">
<title>Node10&#45;&gt;Node4</title>
<g id="a_edge15_Node000010_Node000004"><a xlink:title=" ">
<path fill="none" stroke="#63b8ff" d="M1186.15,-188.87C1178.27,-170.05 1161.58,-137.67 1135.5,-123.17 1071.7,-87.7 552.28,-92.81 479.5,-87.17 443.22,-84.37 401.76,-80.09 373.43,-77"/>
<polygon fill="#63b8ff" stroke="#63b8ff" points="373.57,-73.49 363.25,-75.88 372.81,-80.45 373.57,-73.49"/>
</a>
</g>
</g>
<!-- Node10&#45;&gt;Node5 -->
<g id="edge18_Node000010_Node000005" class="edge">
<title>Node10&#45;&gt;Node5</title>
<g id="a_edge18_Node000010_Node000005"><a xlink:title=" ">
<path fill="none" stroke="#63b8ff" d="M1191.9,-189.06C1191.58,-170.76 1187.99,-139.3 1168.5,-123.17 1101.1,-67.41 863.55,-95.86 776.5,-87.17 764.29,-85.96 751.44,-84.63 738.77,-83.29"/>
<polygon fill="#63b8ff" stroke="#63b8ff" points="738.97,-79.79 728.66,-82.22 738.23,-86.75 738.97,-79.79"/>
</a>
</g>
</g>
<!-- Node10&#45;&gt;Node6 -->
<g id="edge20_Node000010_Node000006" class="edge">
<title>Node10&#45;&gt;Node6</title>
<g id="a_edge20_Node000010_Node000006"><a xlink:title=" ">
<path fill="none" stroke="#63b8ff" d="M1205.07,-188.93C1219.36,-172.15 1237.93,-143.93 1223.5,-123.17 1170.69,-47.17 1059.03,-23.34 988.67,-15.93"/>
<polygon fill="#63b8ff" stroke="#63b8ff" points="988.9,-12.44 978.61,-14.96 988.22,-19.41 988.9,-12.44"/>
</a>
</g>
</g>
<!-- Node10&#45;&gt;Node7 -->
<g id="edge19_Node000010_Node000007" class="edge">
<title>Node10&#45;&gt;Node7</title>
<g id="a_edge19_Node000010_Node000007"><a xlink:title=" ">
<path fill="none" stroke="#63b8ff" d="M1200.44,-188.91C1210.19,-171.33 1222.45,-141.52 1206.5,-123.17 1170.93,-82.26 1019.67,-73.85 926.14,-72.67"/>
<polygon fill="#63b8ff" stroke="#63b8ff" points="925.9,-69.17 915.87,-72.57 925.83,-76.17 925.9,-69.17"/>
</a>
</g>
</g>
<!-- Node10&#45;&gt;Node8 -->
<g id="edge21_Node000010_Node000008" class="edge">
<title>Node10&#45;&gt;Node8</title>
<g id="a_edge21_Node000010_Node000008"><a xlink:title=" ">
<path fill="none" stroke="#63b8ff" d="M1097.49,-190.3C1094.46,-189.92 1091.46,-189.54 1088.5,-189.17 963.59,-173.76 818.94,-158.11 727.83,-148.53"/>
<polygon fill="#63b8ff" stroke="#63b8ff" points="728.13,-145.04 717.82,-147.47 727.4,-152 728.13,-145.04"/>
</a>
</g>
</g>
<!-- Node11 -->
<g id="Node000011" class="node">
<title>Node11</title>
<g id="a_Node000011"><a xlink:title=" ">
<polygon fill="#e0e0e0" stroke="#999999" points="1126,-147.67 1079,-147.67 1079,-128.67 1126,-128.67 1126,-147.67"/>
<text text-anchor="middle" x="1102.5" y="-135.67" font-family="Helvetica,sans-Serif" font-size="10.00">cmath</text>
</a>
</g>
</g>
<!-- Node10&#45;&gt;Node11 -->
<g id="edge16_Node000010_Node000011" class="edge">
<title>Node10&#45;&gt;Node11</title>
<g id="a_edge16_Node000010_Node000011"><a xlink:title=" ">
<path fill="none" stroke="#63b8ff" d="M1171.75,-188.97C1157.24,-178.54 1137.6,-164.41 1122.94,-153.87"/>
<polygon fill="#63b8ff" stroke="#63b8ff" points="1124.7,-150.83 1114.54,-147.83 1120.62,-156.51 1124.7,-150.83"/>
</a>
</g>
</g>
<!-- Node12 -->
<g id="Node000012" class="node">
<title>Node12</title>
<g id="a_Node000012"><a xlink:title=" ">
<polygon fill="#e0e0e0" stroke="#999999" points="1061,-147.67 1002,-147.67 1002,-128.67 1061,-128.67 1061,-147.67"/>
<text text-anchor="middle" x="1031.5" y="-135.67" font-family="Helvetica,sans-Serif" font-size="10.00">numbers</text>
</a>
</g>
</g>
<!-- Node10&#45;&gt;Node12 -->
<g id="edge17_Node000010_Node000012" class="edge">
<title>Node10&#45;&gt;Node12</title>
<g id="a_edge17_Node000010_Node000012"><a xlink:title=" ">
<path fill="none" stroke="#63b8ff" d="M1156.39,-189.13C1128.2,-177.86 1089.03,-162.19 1062.11,-151.42"/>
<polygon fill="#63b8ff" stroke="#63b8ff" points="1063.38,-148.16 1052.79,-147.69 1060.78,-154.66 1063.38,-148.16"/>
</a>
</g>
</g>
<!-- Node13&#45;&gt;Node4 -->
<g id="edge23_Node000013_Node000004" class="edge">
<title>Node13&#45;&gt;Node4</title>
<g id="a_edge23_Node000013_Node000004"><a xlink:title=" ">
<path fill="none" stroke="#63b8ff" d="M891.49,-190.29C888.46,-189.91 885.46,-189.53 882.5,-189.17 734.29,-171.12 693.65,-188.15 548.5,-153.17 480.78,-136.85 405.39,-104.15 366.3,-86.02"/>
<polygon fill="#63b8ff" stroke="#63b8ff" points="367.71,-82.81 357.17,-81.74 364.74,-89.15 367.71,-82.81"/>
</a>
</g>
</g>
<!-- Node13&#45;&gt;Node5 -->
<g id="edge26_Node000013_Node000005" class="edge">
<title>Node13&#45;&gt;Node5</title>
<g id="a_edge26_Node000013_Node000005"><a xlink:title=" ">
<path fill="none" stroke="#63b8ff" d="M948.9,-189.14C886.81,-165.33 760.96,-117.07 692.82,-90.94"/>
<polygon fill="#63b8ff" stroke="#63b8ff" points="693.79,-87.56 683.2,-87.25 691.29,-94.1 693.79,-87.56"/>
</a>
</g>
</g>
<!-- Node13&#45;&gt;Node6 -->
<g id="edge27_Node000013_Node000006" class="edge">
<title>Node13&#45;&gt;Node6</title>
<g id="a_edge27_Node000013_Node000006"><a xlink:title=" ">
<path fill="none" stroke="#63b8ff" d="M981.16,-189.17C970.7,-155.38 944.07,-69.4 932.27,-31.32"/>
<polygon fill="#63b8ff" stroke="#63b8ff" points="935.55,-30.05 929.24,-21.54 928.86,-32.12 935.55,-30.05"/>
</a>
</g>
</g>
<!-- Node13&#45;&gt;Node7 -->
<g id="edge28_Node000013_Node000007" class="edge">
<title>Node13&#45;&gt;Node7</title>
<g id="a_edge28_Node000013_Node000007"><a xlink:title=" ">
<path fill="none" stroke="#63b8ff" d="M970.8,-189.01C945.4,-164.56 893.51,-114.59 866.96,-89.02"/>
<polygon fill="#63b8ff" stroke="#63b8ff" points="869.22,-86.34 859.58,-81.92 864.36,-91.38 869.22,-86.34"/>
</a>
</g>
</g>
<!-- Node13&#45;&gt;Node8 -->
<g id="edge29_Node000013_Node000008" class="edge">
<title>Node13&#45;&gt;Node8</title>
<g id="a_edge29_Node000013_Node000008"><a xlink:title=" ">
<path fill="none" stroke="#63b8ff" d="M909.13,-189.13C854.39,-179.06 780.6,-165.49 723.74,-155.04"/>
<polygon fill="#63b8ff" stroke="#63b8ff" points="724.16,-151.55 713.69,-153.19 722.89,-158.44 724.16,-151.55"/>
</a>
</g>
</g>
<!-- Node13&#45;&gt;Node11 -->
<g id="edge24_Node000013_Node000011" class="edge">
<title>Node13&#45;&gt;Node11</title>
<g id="a_edge24_Node000013_Node000011"><a xlink:title=" ">
<path fill="none" stroke="#63b8ff" d="M1011.18,-189.13C1031.06,-178.25 1058.43,-163.28 1078.01,-152.57"/>
<polygon fill="#63b8ff" stroke="#63b8ff" points="1079.84,-155.56 1086.93,-147.69 1076.48,-149.42 1079.84,-155.56"/>
</a>
</g>
</g>
<!-- Node13&#45;&gt;Node12 -->
<g id="edge25_Node000013_Node000012" class="edge">
<title>Node13&#45;&gt;Node12</title>
<g id="a_edge25_Node000013_Node000012"><a xlink:title=" ">
<path fill="none" stroke="#63b8ff" d="M995.71,-188.97C1002.67,-179.29 1011.92,-166.41 1019.27,-156.18"/>
<polygon fill="#63b8ff" stroke="#63b8ff" points="1022.15,-158.18 1025.14,-148.02 1016.46,-154.1 1022.15,-158.18"/>
</a>
</g>
</g>
<!-- Node14&#45;&gt;Node4 -->
<g id="edge31_Node000014_Node000004" class="edge">
<title>Node14&#45;&gt;Node4</title>
<g id="a_edge31_Node000014_Node000004"><a xlink:title=" ">
<path fill="none" stroke="#63b8ff" d="M502.24,-194.66C436.33,-184.43 336.64,-166.93 325.5,-153.17 311.26,-135.59 320.38,-108.61 329.16,-90.92"/>
<polygon fill="#63b8ff" stroke="#63b8ff" points="332.46,-92.19 334.12,-81.73 326.29,-88.87 332.46,-92.19"/>
</a>
</g>
</g>
<!-- Node14&#45;&gt;Node5 -->
<g id="edge32_Node000014_Node000005" class="edge">
<title>Node14&#45;&gt;Node5</title>
<g id="a_edge32_Node000014_Node000005"><a xlink:title=" ">
<path fill="none" stroke="#63b8ff" d="M555.74,-194.5C547.92,-178.98 534.56,-145.93 548.5,-123.17 557.09,-109.15 570.99,-98.9 585.66,-91.47"/>
<polygon fill="#63b8ff" stroke="#63b8ff" points="587.26,-94.59 594.85,-87.21 584.31,-88.24 587.26,-94.59"/>
</a>
</g>
</g>
<!-- Node14&#45;&gt;Node7 -->
<g id="edge33_Node000014_Node000007" class="edge">
<title>Node14&#45;&gt;Node7</title>
<g id="a_edge33_Node000014_Node000007"><a xlink:title=" ">
<path fill="none" stroke="#63b8ff" d="M628.61,-194.64C688.56,-186.1 770.41,-171.58 797.5,-153.17 819.95,-137.92 835.29,-109.68 843.48,-91.16"/>
<polygon fill="#63b8ff" stroke="#63b8ff" points="846.77,-92.36 847.38,-81.78 840.31,-89.67 846.77,-92.36"/>
</a>
</g>
</g>
<!-- Node14&#45;&gt;Node8 -->
<g id="edge34_Node000014_Node000008" class="edge">
<title>Node14&#45;&gt;Node8</title>
<g id="a_edge34_Node000014_Node000008"><a xlink:title=" ">
<path fill="none" stroke="#63b8ff" d="M570.88,-194.54C581.52,-185.7 598.46,-171.63 612.59,-159.88"/>
<polygon fill="#63b8ff" stroke="#63b8ff" points="615.06,-162.37 620.52,-153.29 610.59,-156.99 615.06,-162.37"/>
</a>
</g>
</g>
<!-- Node15&#45;&gt;Node4 -->
<g id="edge36_Node000015_Node000004" class="edge">
<title>Node15&#45;&gt;Node4</title>
<g id="a_edge36_Node000015_Node000004"><a xlink:title=" ">
<path fill="none" stroke="#63b8ff" d="M320.33,-194.66C309.59,-185.69 294.03,-170.48 287.5,-153.17 282.79,-140.7 282.28,-135.44 287.5,-123.17 293.6,-108.85 306.04,-96.65 317.22,-87.88"/>
<polygon fill="#63b8ff" stroke="#63b8ff" points="319.41,-90.61 325.4,-81.87 315.27,-84.97 319.41,-90.61"/>
</a>
</g>
</g>
<!-- Node15&#45;&gt;Node5 -->
<g id="edge38_Node000015_Node000005" class="edge">
<title>Node15&#45;&gt;Node5</title>
<g id="a_edge38_Node000015_Node000005"><a xlink:title=" ">
<path fill="none" stroke="#63b8ff" d="M352.17,-194.65C402.89,-173.71 534.37,-119.45 603.14,-91.07"/>
<polygon fill="#63b8ff" stroke="#63b8ff" points="604.51,-94.29 612.42,-87.24 601.84,-87.82 604.51,-94.29"/>
</a>
</g>
</g>
<!-- Node15&#45;&gt;Node7 -->
<g id="edge37_Node000015_Node000007" class="edge">
<title>Node15&#45;&gt;Node7</title>
<g id="a_edge37_Node000015_Node000007"><a xlink:title=" ">
<path fill="none" stroke="#63b8ff" d="M400.39,-194.65C512.57,-180.74 722.69,-154.56 726.5,-153.17 768.12,-138.01 810.09,-106.83 832.94,-88.19"/>
<polygon fill="#63b8ff" stroke="#63b8ff" points="835.28,-90.81 840.73,-81.72 830.8,-85.42 835.28,-90.81"/>
</a>
</g>
</g>
<!-- Node15&#45;&gt;Node8 -->
<g id="edge39_Node000015_Node000008" class="edge">
<title>Node15&#45;&gt;Node8</title>
<g id="a_edge39_Node000015_Node000008"><a xlink:title=" ">
<path fill="none" stroke="#63b8ff" d="M372.45,-194.61C420.33,-184.6 500.61,-167.8 560.3,-155.32"/>
<polygon fill="#63b8ff" stroke="#63b8ff" points="561.37,-158.67 570.44,-153.2 559.94,-151.82 561.37,-158.67"/>
</a>
</g>
</g>
<!-- Node16&#45;&gt;Node4 -->
<g id="edge41_Node000016_Node000004" class="edge">
<title>Node16&#45;&gt;Node4</title>
<g id="a_edge41_Node000016_Node000004"><a xlink:title=" ">
<path fill="none" stroke="#63b8ff" d="M685.49,-190.31C682.46,-189.93 679.45,-189.55 676.5,-189.17 607.03,-180.46 417.19,-198.11 363.5,-153.17 345.64,-138.22 340.74,-110.53 339.57,-91.98"/>
<polygon fill="#63b8ff" stroke="#63b8ff" points="343.07,-91.68 339.25,-81.8 336.07,-91.91 343.07,-91.68"/>
</a>
</g>
</g>
<!-- Node16&#45;&gt;Node5 -->
<g id="edge42_Node000016_Node000005" class="edge">
<title>Node16&#45;&gt;Node5</title>
<g id="a_edge42_Node000016_Node000005"><a xlink:title=" ">
<path fill="none" stroke="#63b8ff" d="M772.6,-189.15C763.7,-172.07 746.91,-143.05 726.5,-123.17 714.18,-111.18 698.51,-100.61 684.31,-92.32"/>
<polygon fill="#63b8ff" stroke="#63b8ff" points="685.67,-89.07 675.24,-87.2 682.23,-95.16 685.67,-89.07"/>
</a>
</g>
</g>
<!-- Node16&#45;&gt;Node7 -->
<g id="edge43_Node000016_Node000007" class="edge">
<title>Node16&#45;&gt;Node7</title>
<g id="a_edge43_Node000016_Node000007"><a xlink:title=" ">
<path fill="none" stroke="#63b8ff" d="M801.35,-189.07C813.3,-180.2 827.3,-167.7 835.5,-153.17 846.22,-134.18 849.46,-109 850.35,-92"/>
<polygon fill="#63b8ff" stroke="#63b8ff" points="853.86,-91.82 850.65,-81.72 846.86,-91.62 853.86,-91.82"/>
</a>
</g>
</g>
<!-- Node16&#45;&gt;Node8 -->
<g id="edge44_Node000016_Node000008" class="edge">
<title>Node16&#45;&gt;Node8</title>
<g id="a_edge44_Node000016_Node000008"><a xlink:title=" ">
<path fill="none" stroke="#63b8ff" d="M748.34,-189.13C727.62,-179.79 700.21,-167.44 677.84,-157.36"/>
<polygon fill="#63b8ff" stroke="#63b8ff" points="679.14,-154.11 668.59,-153.19 676.27,-160.49 679.14,-154.11"/>
</a>
</g>
</g>
</g>
</svg>
