<?xml version="1.0" encoding="UTF-8" standalone="no"?>
<!DOCTYPE svg PUBLIC "-//W3C//DTD SVG 1.1//EN"
 "http://www.w3.org/Graphics/SVG/1.1/DTD/svg11.dtd">
<!-- Generated by graphviz version 2.43.0 (0)
 -->
<!-- Title: include/helios/util/io/_module.ixx Pages: 1 -->
<!--zoomable 390 -->

<svg id="main" version="1.1" xmlns="http://www.w3.org/2000/svg" xmlns:xlink="http://www.w3.org/1999/xlink" xml:space="preserve" onload="init(evt)">

<style type="text/css"><![CDATA[
.node, .edge {opacity: 0.7;}
.node.selected, .edge.selected {opacity: 1;}
.edge:hover path { stroke: red; }
.edge:hover polygon { stroke: red; fill: red; }
]]></style>

<defs>
  <circle id="rim" cx="0" cy="0" r="7"/>
  <circle id="rim2" cx="0" cy="0" r="3.5"/>
  <g id="zoomPlus">
    <use xlink:href="#rim" fill="#404040"><set attributeName="fill" to="#808080" begin="zoomplus.mouseover" end="zoomplus.mouseout"/></use>
    <path d="M-4,0h8M0,-4v8" fill="none" stroke="white" stroke-width="1.5" pointer-events="none"/>
  </g>
  <g id="zoomMin">
    <use xlink:href="#rim" fill="#404040"><set attributeName="fill" to="#808080" begin="zoomminus.mouseover" end="zoomminus.mouseout"/></use>
    <path d="M-4,0h8" fill="none" stroke="white" stroke-width="1.5" pointer-events="none"/>
  </g>
  <g id="arrowUp" transform="translate(30 24)">
    <use xlink:href="#rim"/>
    <path pointer-events="none" fill="none" stroke="white" stroke-width="1.5" d="M0,-3.0v7 M-2.5,-0.5L0,-3.0L2.5,-0.5"/>
  </g>
  <g id="arrowRight" transform="rotate(90) translate(36 -43)">
    <use xlink:href="#rim"/>
    <path pointer-events="none" fill="none" stroke="white" stroke-width="1.5" d="M0,-3.0v7 M-2.5,-0.5L0,-3.0L2.5,-0.5"/>
  </g>
  <g id="arrowDown" transform="rotate(180) translate(-30 -48)">
    <use xlink:href="#rim"/>
    <path pointer-events="none" fill="none" stroke="white" stroke-width="1.5" d="M0,-3.0v7 M-2.5,-0.5L0,-3.0L2.5,-0.5"/>
  </g>
  <g id="arrowLeft" transform="rotate(270) translate(-36 17)">
    <use xlink:href="#rim"/>
    <path pointer-events="none" fill="none" stroke="white" stroke-width="1.5" d="M0,-3.0v7 M-2.5,-0.5L0,-3.0L2.5,-0.5"/>
  </g>
  <g id="resetDef">
    <use xlink:href="#rim2" fill="#404040"><set attributeName="fill" to="#808080" begin="reset.mouseover" end="reset.mouseout"/></use>
  </g>
</defs>
<script type="application/ecmascript">
var viewWidth = 581;
var viewHeight = 390;
var sectionId = 'dynsection-0';
</script>
<script type="application/ecmascript" xlink:href="svg.min.js"/>
<svg id="graph" class="graph">
<g id="viewport">
<title>include/helios/util/io/_module.ixx</title>
<!-- Node1 -->
<g id="Node000001" class="node">
<title>Node1</title>
<g id="a_Node000001"><a xlink:title="Module exports for IO utilities.">
<polygon fill="#999999" stroke="#666666" points="509.06,-382 406.06,-382 406.06,-352 509.06,-352 509.06,-382"/>
<text text-anchor="start" x="414.06" y="-370" font-family="Helvetica,sans-Serif" font-size="10.00">include/helios/util</text>
<text text-anchor="middle" x="457.56" y="-359" font-family="Helvetica,sans-Serif" font-size="10.00">/io/_module.ixx</text>
</a>
</g>
</g>
<!-- Node2 -->
<g id="Node000002" class="node">
<title>Node2</title>
<g id="a_Node000002"><a xlink:href="BasicStringFileReader_8ixx.html" target="_top" xlink:title="Basic file&#45;to&#45;string reader implementation.">
<polygon fill="white" stroke="#666666" points="572.56,-316 438.56,-316 438.56,-286 572.56,-286 572.56,-316"/>
<text text-anchor="start" x="446.56" y="-304" font-family="Helvetica,sans-Serif" font-size="10.00">helios.util.io.BasicString</text>
<text text-anchor="middle" x="505.56" y="-293" font-family="Helvetica,sans-Serif" font-size="10.00">FileReader</text>
</a>
</g>
</g>
<!-- Node1&#45;&gt;Node2 -->
<g id="edge1_Node000001_Node000002" class="edge">
<title>Node1&#45;&gt;Node2</title>
<g id="a_edge1_Node000001_Node000002"><a xlink:title=" ">
<path fill="none" stroke="#63b8ff" d="M468.22,-351.8C474.25,-343.76 481.92,-333.53 488.74,-324.43"/>
<polygon fill="#63b8ff" stroke="#63b8ff" points="491.74,-326.26 494.94,-316.16 486.14,-322.06 491.74,-326.26"/>
</a>
</g>
</g>
<!-- Node4 -->
<g id="Node000004" class="node">
<title>Node4</title>
<g id="a_Node000004"><a xlink:href="StringFileReader_8ixx.html" target="_top" xlink:title="Abstract base class for reading file contents into a string.">
<polygon fill="white" stroke="#666666" points="473.06,-250 348.06,-250 348.06,-220 473.06,-220 473.06,-250"/>
<text text-anchor="start" x="356.06" y="-238" font-family="Helvetica,sans-Serif" font-size="10.00">helios.util.io.StringFile</text>
<text text-anchor="middle" x="410.56" y="-227" font-family="Helvetica,sans-Serif" font-size="10.00">Reader</text>
</a>
</g>
</g>
<!-- Node1&#45;&gt;Node4 -->
<g id="edge21_Node000001_Node000004" class="edge">
<title>Node1&#45;&gt;Node4</title>
<g id="a_edge21_Node000001_Node000004"><a xlink:title=" ">
<path fill="none" stroke="#63b8ff" d="M448.12,-351.65C442.08,-341.93 434.48,-328.61 429.56,-316 422.53,-297.95 417.61,-276.56 414.55,-260.44"/>
<polygon fill="#63b8ff" stroke="#63b8ff" points="417.93,-259.46 412.72,-250.23 411.04,-260.69 417.93,-259.46"/>
</a>
</g>
</g>
<!-- Node3 -->
<g id="Node000003" class="node">
<title>Node3</title>
<g id="a_Node000003"><a xlink:title=" ">
<polygon fill="#e0e0e0" stroke="#999999" points="401.56,-19 357.56,-19 357.56,0 401.56,0 401.56,-19"/>
<text text-anchor="middle" x="379.56" y="-7" font-family="Helvetica,sans-Serif" font-size="10.00">string</text>
</a>
</g>
</g>
<!-- Node2&#45;&gt;Node3 -->
<g id="edge2_Node000002_Node000003" class="edge">
<title>Node2&#45;&gt;Node3</title>
<g id="a_edge2_Node000002_Node000003"><a xlink:title=" ">
<path fill="none" stroke="#63b8ff" d="M512.12,-285.78C522,-263.01 539.56,-216.73 539.56,-175.5 539.56,-175.5 539.56,-175.5 539.56,-118.5 539.56,-57.43 458.5,-28.58 411.77,-17.02"/>
<polygon fill="#63b8ff" stroke="#63b8ff" points="412.35,-13.56 401.81,-14.69 410.75,-20.38 412.35,-13.56"/>
</a>
</g>
</g>
<!-- Node2&#45;&gt;Node4 -->
<g id="edge3_Node000002_Node000004" class="edge">
<title>Node2&#45;&gt;Node4</title>
<g id="a_edge3_Node000002_Node000004"><a xlink:title=" ">
<path fill="none" stroke="#63b8ff" d="M484.48,-285.8C471.44,-277.01 454.51,-265.61 440.15,-255.93"/>
<polygon fill="#63b8ff" stroke="#63b8ff" points="441.84,-252.85 431.59,-250.16 437.93,-258.65 441.84,-252.85"/>
</a>
</g>
</g>
<!-- Node4&#45;&gt;Node3 -->
<g id="edge4_Node000004_Node000003" class="edge">
<title>Node4&#45;&gt;Node3</title>
<g id="a_edge4_Node000004_Node000003"><a xlink:title=" ">
<path fill="none" stroke="#63b8ff" d="M424.37,-219.59C453,-187.88 513.32,-110.51 477.56,-55 463.09,-32.52 434.18,-21.27 411.49,-15.72"/>
<polygon fill="#63b8ff" stroke="#63b8ff" points="412.1,-12.27 401.58,-13.55 410.6,-19.1 412.1,-12.27"/>
</a>
</g>
</g>
<!-- Node5 -->
<g id="Node000005" class="node">
<title>Node5</title>
<g id="a_Node000005"><a xlink:href="LogManager_8ixx.html" target="_top" xlink:title="Central manager for scoped loggers with configurable sinks.">
<polygon fill="white" stroke="#666666" points="289.56,-184 143.56,-184 143.56,-165 289.56,-165 289.56,-184"/>
<text text-anchor="middle" x="216.56" y="-172" font-family="Helvetica,sans-Serif" font-size="10.00">helios.util.log.LogManager</text>
</a>
</g>
</g>
<!-- Node4&#45;&gt;Node5 -->
<g id="edge5_Node000004_Node000005" class="edge">
<title>Node4&#45;&gt;Node5</title>
<g id="a_edge5_Node000004_Node000005"><a xlink:title=" ">
<path fill="none" stroke="#63b8ff" d="M364.1,-219.99C330.62,-209.89 285.99,-196.44 254.62,-186.98"/>
<polygon fill="#63b8ff" stroke="#63b8ff" points="255.52,-183.59 244.93,-184.05 253.49,-190.29 255.52,-183.59"/>
</a>
</g>
</g>
<!-- Node11 -->
<g id="Node000011" class="node">
<title>Node11</title>
<g id="a_Node000011"><a xlink:href="Logger_8ixx.html" target="_top" xlink:title="Simple synchronous logger with configurable output sinks.">
<polygon fill="white" stroke="#666666" points="435.06,-129 316.06,-129 316.06,-110 435.06,-110 435.06,-129"/>
<text text-anchor="middle" x="375.56" y="-117" font-family="Helvetica,sans-Serif" font-size="10.00">helios.util.log.Logger</text>
</a>
</g>
</g>
<!-- Node4&#45;&gt;Node11 -->
<g id="edge20_Node000004_Node000011" class="edge">
<title>Node4&#45;&gt;Node11</title>
<g id="a_edge20_Node000004_Node000011"><a xlink:title=" ">
<path fill="none" stroke="#63b8ff" d="M406.13,-219.63C399.81,-199.12 388.2,-161.47 381.25,-138.93"/>
<polygon fill="#63b8ff" stroke="#63b8ff" points="384.55,-137.75 378.26,-129.23 377.86,-139.82 384.55,-137.75"/>
</a>
</g>
</g>
<!-- Node5&#45;&gt;Node3 -->
<g id="edge6_Node000005_Node000003" class="edge">
<title>Node5&#45;&gt;Node3</title>
<g id="a_edge6_Node000005_Node000003"><a xlink:title=" ">
<path fill="none" stroke="#63b8ff" d="M143.33,-167.65C89.81,-161.68 23.72,-150.17 6.56,-129 -10.94,-107.39 10.64,-69.93 30.56,-55 80.17,-17.83 270.47,-11.63 347.21,-10.65"/>
<polygon fill="#63b8ff" stroke="#63b8ff" points="347.29,-14.15 357.26,-10.55 347.22,-7.15 347.29,-14.15"/>
</a>
</g>
</g>
<!-- Node6 -->
<g id="Node000006" class="node">
<title>Node6</title>
<g id="a_Node000006"><a xlink:title=" ">
<polygon fill="#e0e0e0" stroke="#999999" points="117.06,-129 24.06,-129 24.06,-110 117.06,-110 117.06,-129"/>
<text text-anchor="middle" x="70.56" y="-117" font-family="Helvetica,sans-Serif" font-size="10.00">unordered_map</text>
</a>
</g>
</g>
<!-- Node5&#45;&gt;Node6 -->
<g id="edge7_Node000005_Node000006" class="edge">
<title>Node5&#45;&gt;Node6</title>
<g id="a_edge7_Node000005_Node000006"><a xlink:title=" ">
<path fill="none" stroke="#63b8ff" d="M193.11,-164.98C168.99,-156.23 131.2,-142.51 103.96,-132.62"/>
<polygon fill="#63b8ff" stroke="#63b8ff" points="105.04,-129.29 94.45,-129.17 102.65,-135.87 105.04,-129.29"/>
</a>
</g>
</g>
<!-- Node7 -->
<g id="Node000007" class="node">
<title>Node7</title>
<g id="a_Node000007"><a xlink:title=" ">
<polygon fill="#e0e0e0" stroke="#999999" points="259.56,-129 173.56,-129 173.56,-110 259.56,-110 259.56,-129"/>
<text text-anchor="middle" x="216.56" y="-117" font-family="Helvetica,sans-Serif" font-size="10.00">unordered_set</text>
</a>
</g>
</g>
<!-- Node5&#45;&gt;Node7 -->
<g id="edge8_Node000005_Node000007" class="edge">
<title>Node5&#45;&gt;Node7</title>
<g id="a_edge8_Node000005_Node000007"><a xlink:title=" ">
<path fill="none" stroke="#63b8ff" d="M216.56,-164.75C216.56,-157.8 216.56,-147.85 216.56,-139.13"/>
<polygon fill="#63b8ff" stroke="#63b8ff" points="220.07,-139.09 216.56,-129.09 213.07,-139.09 220.07,-139.09"/>
</a>
</g>
</g>
<!-- Node8 -->
<g id="Node000008" class="node">
<title>Node8</title>
<g id="a_Node000008"><a xlink:title=" ">
<polygon fill="#e0e0e0" stroke="#999999" points="468.56,-74 410.56,-74 410.56,-55 468.56,-55 468.56,-74"/>
<text text-anchor="middle" x="439.56" y="-62" font-family="Helvetica,sans-Serif" font-size="10.00">memory</text>
</a>
</g>
</g>
<!-- Node5&#45;&gt;Node8 -->
<g id="edge9_Node000005_Node000008" class="edge">
<title>Node5&#45;&gt;Node8</title>
<g id="a_edge9_Node000005_Node000008"><a xlink:title=" ">
<path fill="none" stroke="#63b8ff" d="M289.79,-169.02C348.53,-163.72 424.27,-152.45 443.56,-129 453.86,-116.49 451.05,-97.48 446.77,-83.52"/>
<polygon fill="#63b8ff" stroke="#63b8ff" points="450.04,-82.28 443.4,-74.02 443.44,-84.61 450.04,-82.28"/>
</a>
</g>
</g>
<!-- Node9 -->
<g id="Node000009" class="node">
<title>Node9</title>
<g id="a_Node000009"><a xlink:title=" ">
<polygon fill="#e0e0e0" stroke="#999999" points="87.56,-74 39.56,-74 39.56,-55 87.56,-55 87.56,-74"/>
<text text-anchor="middle" x="63.56" y="-62" font-family="Helvetica,sans-Serif" font-size="10.00">mutex</text>
</a>
</g>
</g>
<!-- Node5&#45;&gt;Node9 -->
<g id="edge10_Node000005_Node000009" class="edge">
<title>Node5&#45;&gt;Node9</title>
<g id="a_edge10_Node000005_Node000009"><a xlink:title=" ">
<path fill="none" stroke="#63b8ff" d="M143.44,-166.94C92.44,-160.67 30.73,-149.12 14.56,-129 1.09,-112.23 21.73,-92.57 40.22,-79.62"/>
<polygon fill="#63b8ff" stroke="#63b8ff" points="42.29,-82.44 48.69,-74.01 38.42,-76.61 42.29,-82.44"/>
</a>
</g>
</g>
<!-- Node10 -->
<g id="Node000010" class="node">
<title>Node10</title>
<g id="a_Node000010"><a xlink:title=" ">
<polygon fill="#e0e0e0" stroke="#999999" points="188.06,-74 141.06,-74 141.06,-55 188.06,-55 188.06,-74"/>
<text text-anchor="middle" x="164.56" y="-62" font-family="Helvetica,sans-Serif" font-size="10.00">vector</text>
</a>
</g>
</g>
<!-- Node5&#45;&gt;Node10 -->
<g id="edge11_Node000005_Node000010" class="edge">
<title>Node5&#45;&gt;Node10</title>
<g id="a_edge11_Node000005_Node000010"><a xlink:title=" ">
<path fill="none" stroke="#63b8ff" d="M200.54,-164.95C188.15,-157.35 171.92,-144.97 164.56,-129 158.15,-115.06 158.71,-97.5 160.56,-84.38"/>
<polygon fill="#63b8ff" stroke="#63b8ff" points="164.06,-84.66 162.37,-74.2 157.17,-83.43 164.06,-84.66"/>
</a>
</g>
</g>
<!-- Node5&#45;&gt;Node11 -->
<g id="edge12_Node000005_Node000011" class="edge">
<title>Node5&#45;&gt;Node11</title>
<g id="a_edge12_Node000005_Node000011"><a xlink:title=" ">
<path fill="none" stroke="#63b8ff" d="M242.11,-164.98C268.69,-156.13 310.5,-142.19 340.24,-132.28"/>
<polygon fill="#63b8ff" stroke="#63b8ff" points="341.44,-135.56 349.82,-129.08 339.22,-128.92 341.44,-135.56"/>
</a>
</g>
</g>
<!-- Node12 -->
<g id="Node000012" class="node">
<title>Node12</title>
<g id="a_Node000012"><a xlink:href="LogSink_8ixx.html" target="_top" xlink:title="Abstract interface for log output destinations.">
<polygon fill="white" stroke="#666666" points="351.56,-74 227.56,-74 227.56,-55 351.56,-55 351.56,-74"/>
<text text-anchor="middle" x="289.56" y="-62" font-family="Helvetica,sans-Serif" font-size="10.00">helios.util.log.LogSink</text>
</a>
</g>
</g>
<!-- Node5&#45;&gt;Node12 -->
<g id="edge19_Node000005_Node000012" class="edge">
<title>Node5&#45;&gt;Node12</title>
<g id="a_edge19_Node000005_Node000012"><a xlink:title=" ">
<path fill="none" stroke="#63b8ff" d="M230.35,-164.86C242.05,-156.87 258.5,-144 268.56,-129 277.67,-115.44 283.1,-97.62 286.16,-84.31"/>
<polygon fill="#63b8ff" stroke="#63b8ff" points="289.61,-84.88 288.19,-74.38 282.76,-83.47 289.61,-84.88"/>
</a>
</g>
</g>
<!-- Node11&#45;&gt;Node3 -->
<g id="edge13_Node000011_Node000003" class="edge">
<title>Node11&#45;&gt;Node3</title>
<g id="a_edge13_Node000011_Node000003"><a xlink:title=" ">
<path fill="none" stroke="#63b8ff" d="M375.89,-109.66C376.54,-92.17 378,-52.8 378.87,-29.27"/>
<polygon fill="#63b8ff" stroke="#63b8ff" points="382.37,-29.28 379.24,-19.16 375.38,-29.02 382.37,-29.28"/>
</a>
</g>
</g>
<!-- Node11&#45;&gt;Node8 -->
<g id="edge15_Node000011_Node000008" class="edge">
<title>Node11&#45;&gt;Node8</title>
<g id="a_edge15_Node000011_Node000008"><a xlink:title=" ">
<path fill="none" stroke="#63b8ff" d="M385.85,-109.98C395.4,-102.07 409.84,-90.11 421.35,-80.58"/>
<polygon fill="#63b8ff" stroke="#63b8ff" points="423.63,-83.24 429.1,-74.17 419.16,-77.85 423.63,-83.24"/>
</a>
</g>
</g>
<!-- Node11&#45;&gt;Node9 -->
<g id="edge16_Node000011_Node000009" class="edge">
<title>Node11&#45;&gt;Node9</title>
<g id="a_edge16_Node000011_Node000009"><a xlink:title=" ">
<path fill="none" stroke="#63b8ff" d="M325.44,-109.98C261.52,-99.13 152.69,-80.64 97.63,-71.29"/>
<polygon fill="#63b8ff" stroke="#63b8ff" points="98.13,-67.82 87.68,-69.6 96.95,-74.72 98.13,-67.82"/>
</a>
</g>
</g>
<!-- Node11&#45;&gt;Node10 -->
<g id="edge14_Node000011_Node000010" class="edge">
<title>Node11&#45;&gt;Node10</title>
<g id="a_edge14_Node000011_Node000010"><a xlink:title=" ">
<path fill="none" stroke="#63b8ff" d="M341.66,-109.98C302.2,-100.07 237.44,-83.81 198.13,-73.93"/>
<polygon fill="#63b8ff" stroke="#63b8ff" points="198.78,-70.49 188.23,-71.45 197.08,-77.28 198.78,-70.49"/>
</a>
</g>
</g>
<!-- Node11&#45;&gt;Node12 -->
<g id="edge17_Node000011_Node000012" class="edge">
<title>Node11&#45;&gt;Node12</title>
<g id="a_edge17_Node000011_Node000012"><a xlink:title=" ">
<path fill="none" stroke="#63b8ff" d="M361.75,-109.98C348.41,-101.77 327.98,-89.18 312.26,-79.49"/>
<polygon fill="#63b8ff" stroke="#63b8ff" points="313.98,-76.44 303.63,-74.17 310.31,-82.4 313.98,-76.44"/>
</a>
</g>
</g>
<!-- Node12&#45;&gt;Node3 -->
<g id="edge18_Node000012_Node000003" class="edge">
<title>Node12&#45;&gt;Node3</title>
<g id="a_edge18_Node000012_Node000003"><a xlink:title=" ">
<path fill="none" stroke="#63b8ff" d="M304.03,-54.98C317.98,-46.77 339.36,-34.18 355.81,-24.49"/>
<polygon fill="#63b8ff" stroke="#63b8ff" points="358,-27.26 364.84,-19.17 354.45,-21.23 358,-27.26"/>
</a>
</g>
</g>
</g>
</svg>

<g id="navigator" transform="translate(0 0)" fill="#404254">
  <rect fill="#f2f5e9" fill-opacity="0.5" stroke="#606060" stroke-width=".5" x="0" y="0" width="60" height="60"/>
  <use id="zoomplus" xlink:href="#zoomPlus" x="17" y="9" onmousedown="handleZoom(evt,'in')"/>
  <use id="zoomminus" xlink:href="#zoomMin" x="42" y="9" onmousedown="handleZoom(evt,'out')"/>
  <use id="reset" xlink:href="#resetDef" x="30" y="36" onmousedown="handleReset()"/>
   <use id="arrowup" xlink:href="#arrowUp" x="0" y="0" onmousedown="handlePan(0,-1)"/>
  <use id="arrowright" xlink:href="#arrowRight" x="0" y="0" onmousedown="handlePan(1,0)"/>
  <use id="arrowdown" xlink:href="#arrowDown" x="0" y="0" onmousedown="handlePan(0,1)"/>
  <use id="arrowleft" xlink:href="#arrowLeft" x="0" y="0" onmousedown="handlePan(-1,0)"/>
</g>
<svg viewBox="0 0 15 15" width="100%" height="30px" preserveAspectRatio="xMaxYMin meet">
 <g id="arrow_out" transform="scale(0.3 0.3)">
  <a xlink:href="helios_2util_2io_2__module_8ixx__incl_org.svg" target="_base">
   <rect id="button" ry="5" rx="5" y="6" x="6" height="38" width="38"
        fill="#f2f5e9" fill-opacity="0.5" stroke="#606060" stroke-width="1.0"/>
   <path id="arrow"
     d="M 11.500037,31.436501 C 11.940474,20.09759 22.043105,11.32322 32.158766,21.979434 L 37.068811,17.246167 C 37.068811,17.246167 37.088388,32 37.088388,32 L 22.160133,31.978069 C 22.160133,31.978069 26.997745,27.140456 26.997745,27.140456 C 18.528582,18.264221 13.291696,25.230495 11.500037,31.436501 z"
     style="fill:#404040;"/>
  </a>
 </g>
</svg>

<style type='text/css'>
<![CDATA[
[data-mouse-over-selected='false'] { opacity: 0.7; }
[data-mouse-over-selected='true']  { opacity: 1.0; }
]]>
</style>
<script type="application/ecmascript"><![CDATA[
document.addEventListener('DOMContentLoaded', (event) => {
  highlightEdges();
  highlightAdjacentNodes();
});
]]></script>
</svg>
