<?xml version="1.0" encoding="UTF-8" standalone="no"?>
<!DOCTYPE svg PUBLIC "-//W3C//DTD SVG 1.1//EN"
 "http://www.w3.org/Graphics/SVG/1.1/DTD/svg11.dtd">
<!-- Generated by graphviz version 2.43.0 (0)
 -->
<!-- Title: include/helios/rendering/model/config/_module.ixx Pages: 1 -->
<svg width="592pt" height="302pt"
 viewBox="0.00 0.00 592.00 302.00" xmlns="http://www.w3.org/2000/svg" xmlns:xlink="http://www.w3.org/1999/xlink">
<g id="graph0" class="graph" transform="scale(1 1) rotate(0) translate(4 298)">
<title>include/helios/rendering/model/config/_module.ixx</title>
<!-- Node1 -->
<g id="Node000001" class="node">
<title>Node1</title>
<g id="a_Node000001"><a xlink:title="Module exports for configuration structures for model/material.">
<polygon fill="#999999" stroke="#666666" points="410,-294 264,-294 264,-264 410,-264 410,-294"/>
<text text-anchor="start" x="272" y="-282" font-family="Helvetica,sans-Serif" font-size="10.00">include/helios/rendering</text>
<text text-anchor="middle" x="337" y="-271" font-family="Helvetica,sans-Serif" font-size="10.00">/model/config/_module.ixx</text>
</a>
</g>
</g>
<!-- Node2 -->
<g id="Node000002" class="node">
<title>Node2</title>
<g id="a_Node000002"><a xlink:href="MaterialPropertiesOverride_8ixx.html" target="_top" xlink:title="Overrides for material properties to customize rendering parameters.">
<polygon fill="white" stroke="#666666" points="254,-162 90,-162 90,-132 254,-132 254,-162"/>
<text text-anchor="start" x="98" y="-150" font-family="Helvetica,sans-Serif" font-size="10.00">helios.rendering.model.config.</text>
<text text-anchor="middle" x="172" y="-139" font-family="Helvetica,sans-Serif" font-size="10.00">MaterialPropertiesOverride</text>
</a>
</g>
</g>
<!-- Node1&#45;&gt;Node2 -->
<g id="edge1_Node000001_Node000002" class="edge">
<title>Node1&#45;&gt;Node2</title>
<g id="a_edge1_Node000001_Node000002"><a xlink:title=" ">
<path fill="none" stroke="#63b8ff" d="M263.89,-267.98C237.6,-260.87 209.82,-248.73 191,-228 177.25,-212.86 172.94,-189.61 171.81,-172.07"/>
<polygon fill="#63b8ff" stroke="#63b8ff" points="175.31,-171.88 171.46,-162.01 168.31,-172.12 175.31,-171.88"/>
</a>
</g>
</g>
<!-- Node9 -->
<g id="Node000009" class="node">
<title>Node9</title>
<g id="a_Node000009"><a xlink:href="MaterialProperties_8ixx.html" target="_top" xlink:title="Default material properties used by materials and instances.">
<polygon fill="white" stroke="#666666" points="364,-228 200,-228 200,-198 364,-198 364,-228"/>
<text text-anchor="start" x="208" y="-216" font-family="Helvetica,sans-Serif" font-size="10.00">helios.rendering.model.config.</text>
<text text-anchor="middle" x="282" y="-205" font-family="Helvetica,sans-Serif" font-size="10.00">MaterialProperties</text>
</a>
</g>
</g>
<!-- Node1&#45;&gt;Node9 -->
<g id="edge12_Node000001_Node000009" class="edge">
<title>Node1&#45;&gt;Node9</title>
<g id="a_edge12_Node000001_Node000009"><a xlink:title=" ">
<path fill="none" stroke="#63b8ff" d="M324.79,-263.8C317.74,-255.59 308.73,-245.1 300.79,-235.87"/>
<polygon fill="#63b8ff" stroke="#63b8ff" points="303.34,-233.47 294.17,-228.16 298.04,-238.03 303.34,-233.47"/>
</a>
</g>
</g>
<!-- Node10 -->
<g id="Node000010" class="node">
<title>Node10</title>
<g id="a_Node000010"><a xlink:href="MeshConfig_8ixx.html" target="_top" xlink:title="Mesh configuration including primitive type.">
<polygon fill="white" stroke="#666666" points="584,-228 420,-228 420,-198 584,-198 584,-228"/>
<text text-anchor="start" x="428" y="-216" font-family="Helvetica,sans-Serif" font-size="10.00">helios.rendering.model.config.</text>
<text text-anchor="middle" x="502" y="-205" font-family="Helvetica,sans-Serif" font-size="10.00">MeshConfig</text>
</a>
</g>
</g>
<!-- Node1&#45;&gt;Node10 -->
<g id="edge17_Node000001_Node000010" class="edge">
<title>Node1&#45;&gt;Node10</title>
<g id="a_edge17_Node000001_Node000010"><a xlink:title=" ">
<path fill="none" stroke="#63b8ff" d="M373.21,-263.95C397.71,-254.45 430.27,-241.82 456.52,-231.64"/>
<polygon fill="#63b8ff" stroke="#63b8ff" points="457.82,-234.89 465.87,-228.01 455.29,-228.37 457.82,-234.89"/>
</a>
</g>
</g>
<!-- Node11 -->
<g id="Node000011" class="node">
<title>Node11</title>
<g id="a_Node000011"><a xlink:href="PrimitiveType_8ixx.html" target="_top" xlink:title="Enum of primitive types for mesh rendering.">
<polygon fill="white" stroke="#666666" points="584,-162 420,-162 420,-132 584,-132 584,-162"/>
<text text-anchor="start" x="428" y="-150" font-family="Helvetica,sans-Serif" font-size="10.00">helios.rendering.model.config.</text>
<text text-anchor="middle" x="502" y="-139" font-family="Helvetica,sans-Serif" font-size="10.00">PrimitiveType</text>
</a>
</g>
</g>
<!-- Node1&#45;&gt;Node11 -->
<g id="edge19_Node000001_Node000011" class="edge">
<title>Node1&#45;&gt;Node11</title>
<g id="a_edge19_Node000001_Node000011"><a xlink:title=" ">
<path fill="none" stroke="#63b8ff" d="M347.63,-263.99C361.05,-246.92 385.51,-217.92 411,-198 426.32,-186.03 444.88,-175.27 461.23,-166.83"/>
<polygon fill="#63b8ff" stroke="#63b8ff" points="463.2,-169.76 470.56,-162.13 460.05,-163.5 463.2,-169.76"/>
</a>
</g>
</g>
<!-- Node3 -->
<g id="Node000003" class="node">
<title>Node3</title>
<g id="a_Node000003"><a xlink:title=" ">
<polygon fill="#e0e0e0" stroke="#999999" points="196,-24.5 140,-24.5 140,-5.5 196,-5.5 196,-24.5"/>
<text text-anchor="middle" x="168" y="-12.5" font-family="Helvetica,sans-Serif" font-size="10.00">optional</text>
</a>
</g>
</g>
<!-- Node2&#45;&gt;Node3 -->
<g id="edge2_Node000002_Node000003" class="edge">
<title>Node2&#45;&gt;Node3</title>
<g id="a_edge2_Node000002_Node000003"><a xlink:title=" ">
<path fill="none" stroke="#63b8ff" d="M171.56,-131.84C170.84,-108.34 169.39,-61.26 168.58,-34.93"/>
<polygon fill="#63b8ff" stroke="#63b8ff" points="172.08,-34.64 168.27,-24.75 165.08,-34.85 172.08,-34.64"/>
</a>
</g>
</g>
<!-- Node4 -->
<g id="Node000004" class="node">
<title>Node4</title>
<g id="a_Node000004"><a xlink:href="UniformSemantics_8ixx.html" target="_top" xlink:title="Definitions of uniform semantics used by shaders.">
<polygon fill="white" stroke="#666666" points="478,-30 344,-30 344,0 478,0 478,-30"/>
<text text-anchor="start" x="352" y="-18" font-family="Helvetica,sans-Serif" font-size="10.00">helios.rendering.shader.</text>
<text text-anchor="middle" x="411" y="-7" font-family="Helvetica,sans-Serif" font-size="10.00">UniformSemantics</text>
</a>
</g>
</g>
<!-- Node2&#45;&gt;Node4 -->
<g id="edge3_Node000002_Node000004" class="edge">
<title>Node2&#45;&gt;Node4</title>
<g id="a_edge3_Node000002_Node000004"><a xlink:title=" ">
<path fill="none" stroke="#63b8ff" d="M245.6,-131.95C274.87,-124.25 307.94,-112.75 335,-96 359.22,-81.01 380.94,-56.45 394.89,-38.49"/>
<polygon fill="#63b8ff" stroke="#63b8ff" points="397.87,-40.36 401.1,-30.27 392.28,-36.14 397.87,-40.36"/>
</a>
</g>
</g>
<!-- Node5 -->
<g id="Node000005" class="node">
<title>Node5</title>
<g id="a_Node000005"><a xlink:href="UniformValueMap_8ixx.html" target="_top" xlink:title="Mapping of uniform names to values used by shader programs.">
<polygon fill="white" stroke="#666666" points="326,-96 192,-96 192,-66 326,-66 326,-96"/>
<text text-anchor="start" x="200" y="-84" font-family="Helvetica,sans-Serif" font-size="10.00">helios.rendering.shader.</text>
<text text-anchor="middle" x="259" y="-73" font-family="Helvetica,sans-Serif" font-size="10.00">UniformValueMap</text>
</a>
</g>
</g>
<!-- Node2&#45;&gt;Node5 -->
<g id="edge4_Node000002_Node000005" class="edge">
<title>Node2&#45;&gt;Node5</title>
<g id="a_edge4_Node000002_Node000005"><a xlink:title=" ">
<path fill="none" stroke="#63b8ff" d="M191.31,-131.8C203.13,-123.1 218.46,-111.82 231.54,-102.2"/>
<polygon fill="#63b8ff" stroke="#63b8ff" points="233.76,-104.91 239.75,-96.16 229.62,-99.27 233.76,-104.91"/>
</a>
</g>
</g>
<!-- Node8 -->
<g id="Node000008" class="node">
<title>Node8</title>
<g id="a_Node000008"><a xlink:href="helios_2math_2types_2__module_8ixx.html" target="_top" xlink:title="Module exports for vector and matrix type definitions.">
<polygon fill="white" stroke="#666666" points="104,-24.5 0,-24.5 0,-5.5 104,-5.5 104,-24.5"/>
<text text-anchor="middle" x="52" y="-12.5" font-family="Helvetica,sans-Serif" font-size="10.00">helios.math.types</text>
</a>
</g>
</g>
<!-- Node2&#45;&gt;Node8 -->
<g id="edge11_Node000002_Node000008" class="edge">
<title>Node2&#45;&gt;Node8</title>
<g id="a_edge11_Node000002_Node000008"><a xlink:title=" ">
<path fill="none" stroke="#63b8ff" d="M158.93,-131.84C136.46,-107.49 90.63,-57.85 66.93,-32.18"/>
<polygon fill="#63b8ff" stroke="#63b8ff" points="69.43,-29.72 60.08,-24.75 64.29,-34.47 69.43,-29.72"/>
</a>
</g>
</g>
<!-- Node5&#45;&gt;Node3 -->
<g id="edge6_Node000005_Node000003" class="edge">
<title>Node5&#45;&gt;Node3</title>
<g id="a_edge6_Node000005_Node000003"><a xlink:title=" ">
<path fill="none" stroke="#63b8ff" d="M238.8,-65.8C223.97,-55.37 203.89,-41.24 188.89,-30.69"/>
<polygon fill="#63b8ff" stroke="#63b8ff" points="190.5,-27.55 180.31,-24.66 186.48,-33.27 190.5,-27.55"/>
</a>
</g>
</g>
<!-- Node5&#45;&gt;Node4 -->
<g id="edge10_Node000005_Node000004" class="edge">
<title>Node5&#45;&gt;Node4</title>
<g id="a_edge10_Node000005_Node000004"><a xlink:title=" ">
<path fill="none" stroke="#63b8ff" d="M292.36,-65.95C314.73,-56.53 344.39,-44.04 368.46,-33.91"/>
<polygon fill="#63b8ff" stroke="#63b8ff" points="369.86,-37.12 377.72,-30.01 367.15,-30.67 369.86,-37.12"/>
</a>
</g>
</g>
<!-- Node6 -->
<g id="Node000006" class="node">
<title>Node6</title>
<g id="a_Node000006"><a xlink:title=" ">
<polygon fill="#e0e0e0" stroke="#999999" points="326,-24.5 284,-24.5 284,-5.5 326,-5.5 326,-24.5"/>
<text text-anchor="middle" x="305" y="-12.5" font-family="Helvetica,sans-Serif" font-size="10.00">array</text>
</a>
</g>
</g>
<!-- Node5&#45;&gt;Node6 -->
<g id="edge5_Node000005_Node000006" class="edge">
<title>Node5&#45;&gt;Node6</title>
<g id="a_edge5_Node000005_Node000006"><a xlink:title=" ">
<path fill="none" stroke="#63b8ff" d="M269.21,-65.8C276.17,-56.11 285.42,-43.24 292.77,-33.01"/>
<polygon fill="#63b8ff" stroke="#63b8ff" points="295.65,-35.01 298.64,-24.84 289.96,-30.92 295.65,-35.01"/>
</a>
</g>
</g>
<!-- Node7 -->
<g id="Node000007" class="node">
<title>Node7</title>
<g id="a_Node000007"><a xlink:title=" ">
<polygon fill="#e0e0e0" stroke="#999999" points="265.5,-24.5 214.5,-24.5 214.5,-5.5 265.5,-5.5 265.5,-24.5"/>
<text text-anchor="middle" x="240" y="-12.5" font-family="Helvetica,sans-Serif" font-size="10.00">variant</text>
</a>
</g>
</g>
<!-- Node5&#45;&gt;Node7 -->
<g id="edge7_Node000005_Node000007" class="edge">
<title>Node5&#45;&gt;Node7</title>
<g id="a_edge7_Node000005_Node000007"><a xlink:title=" ">
<path fill="none" stroke="#63b8ff" d="M254.78,-65.8C252.05,-56.6 248.47,-44.53 245.52,-34.58"/>
<polygon fill="#63b8ff" stroke="#63b8ff" points="248.83,-33.43 242.63,-24.84 242.12,-35.43 248.83,-33.43"/>
</a>
</g>
</g>
<!-- Node5&#45;&gt;Node8 -->
<g id="edge8_Node000005_Node000008" class="edge">
<title>Node5&#45;&gt;Node8</title>
<g id="a_edge8_Node000005_Node000008"><a xlink:title=" ">
<path fill="none" stroke="#63b8ff" d="M213.57,-65.95C176.31,-54.43 124.2,-38.32 89.34,-27.54"/>
<polygon fill="#63b8ff" stroke="#63b8ff" points="90.14,-24.13 79.55,-24.52 88.07,-30.82 90.14,-24.13"/>
</a>
</g>
</g>
<!-- Node8&#45;&gt;Node8 -->
<g id="edge9_Node000008_Node000008" class="edge">
<title>Node8&#45;&gt;Node8</title>
<g id="a_edge9_Node000008_Node000008"><a xlink:title=" ">
<path fill="none" stroke="#63b8ff" d="M73.86,-24.56C96.56,-30.37 122,-27.18 122,-15 122,-4.58 103.39,-0.74 83.79,-3.48"/>
<polygon fill="#63b8ff" stroke="#63b8ff" points="83,-0.07 73.86,-5.44 84.35,-6.94 83,-0.07"/>
</a>
</g>
</g>
<!-- Node9&#45;&gt;Node2 -->
<g id="edge16_Node000009_Node000002" class="edge">
<title>Node9&#45;&gt;Node2</title>
<g id="a_edge16_Node000009_Node000002"><a xlink:title=" ">
<path fill="none" stroke="#63b8ff" d="M257.86,-197.95C242.39,-188.95 222.09,-177.14 205.12,-167.27"/>
<polygon fill="#63b8ff" stroke="#63b8ff" points="206.49,-164.02 196.08,-162.01 202.97,-170.07 206.49,-164.02"/>
</a>
</g>
</g>
<!-- Node9&#45;&gt;Node4 -->
<g id="edge13_Node000009_Node000004" class="edge">
<title>Node9&#45;&gt;Node4</title>
<g id="a_edge13_Node000009_Node000004"><a xlink:title=" ">
<path fill="none" stroke="#63b8ff" d="M293.36,-197.78C310.27,-176.31 342.71,-134.1 367,-96 378.79,-77.52 390.68,-55.66 399.12,-39.46"/>
<polygon fill="#63b8ff" stroke="#63b8ff" points="402.43,-40.68 403.9,-30.19 396.21,-37.47 402.43,-40.68"/>
</a>
</g>
</g>
<!-- Node9&#45;&gt;Node5 -->
<g id="edge14_Node000009_Node000005" class="edge">
<title>Node9&#45;&gt;Node5</title>
<g id="a_edge14_Node000009_Node000005"><a xlink:title=" ">
<path fill="none" stroke="#63b8ff" d="M279.49,-197.84C275.61,-175.86 268.07,-133.27 263.3,-106.3"/>
<polygon fill="#63b8ff" stroke="#63b8ff" points="266.69,-105.38 261.5,-96.14 259.8,-106.6 266.69,-105.38"/>
</a>
</g>
</g>
<!-- Node9&#45;&gt;Node8 -->
<g id="edge15_Node000009_Node000008" class="edge">
<title>Node9&#45;&gt;Node8</title>
<g id="a_edge15_Node000009_Node000008"><a xlink:title=" ">
<path fill="none" stroke="#63b8ff" d="M199.89,-200.64C151.92,-192.32 97.62,-179.44 81,-162 47.79,-127.17 47.55,-65.76 49.89,-34.87"/>
<polygon fill="#63b8ff" stroke="#63b8ff" points="53.4,-34.93 50.85,-24.64 46.43,-34.27 53.4,-34.93"/>
</a>
</g>
</g>
<!-- Node10&#45;&gt;Node11 -->
<g id="edge18_Node000010_Node000011" class="edge">
<title>Node10&#45;&gt;Node11</title>
<g id="a_edge18_Node000010_Node000011"><a xlink:title=" ">
<path fill="none" stroke="#63b8ff" d="M502,-197.8C502,-190.34 502,-180.99 502,-172.41"/>
<polygon fill="#63b8ff" stroke="#63b8ff" points="505.5,-172.16 502,-162.16 498.5,-172.16 505.5,-172.16"/>
</a>
</g>
</g>
</g>
</svg>
