<?xml version="1.0" encoding="UTF-8" standalone="no"?>
<!DOCTYPE svg PUBLIC "-//W3C//DTD SVG 1.1//EN"
 "http://www.w3.org/Graphics/SVG/1.1/DTD/svg11.dtd">
<!-- Generated by graphviz version 2.43.0 (0)
 -->
<!-- Title: include/helios/engine/game/components/model/_module.ixx Pages: 1 -->
<svg width="422pt" height="226pt"
 viewBox="0.00 0.00 421.50 225.77" xmlns="http://www.w3.org/2000/svg" xmlns:xlink="http://www.w3.org/1999/xlink">
<g id="graph0" class="graph" transform="scale(1 1) rotate(0) translate(4 221.77)">
<title>include/helios/engine/game/components/model/_module.ixx</title>
<!-- Node1 -->
<g id="Node000001" class="node">
<title>Node1</title>
<g id="a_Node000001"><a xlink:title="Aggregate module for helios::engine::game::components::model namespace.">
<polygon fill="#999999" stroke="#666666" points="285.5,-217.77 141.5,-217.77 141.5,-176.77 285.5,-176.77 285.5,-217.77"/>
<text text-anchor="start" x="149.5" y="-205.77" font-family="Helvetica,sans-Serif" font-size="10.00">include/helios/engine</text>
<text text-anchor="start" x="149.5" y="-194.77" font-family="Helvetica,sans-Serif" font-size="10.00">/game/components/model</text>
<text text-anchor="middle" x="213.5" y="-183.77" font-family="Helvetica,sans-Serif" font-size="10.00">/_module.ixx</text>
</a>
</g>
</g>
<!-- Node2 -->
<g id="Node000002" class="node">
<title>Node2</title>
<g id="a_Node000002"><a xlink:href="ModelAabbComponent_8ixx.html" target="_top" xlink:title=" ">
<polygon fill="white" stroke="#666666" points="319.5,-140.77 107.5,-140.77 107.5,-110.77 319.5,-110.77 319.5,-140.77"/>
<text text-anchor="start" x="115.5" y="-128.77" font-family="Helvetica,sans-Serif" font-size="10.00">helios.engine.game.components.model.</text>
<text text-anchor="middle" x="213.5" y="-117.77" font-family="Helvetica,sans-Serif" font-size="10.00">ModelAabbComponent</text>
</a>
</g>
</g>
<!-- Node1&#45;&gt;Node2 -->
<g id="edge1_Node000001_Node000002" class="edge">
<title>Node1&#45;&gt;Node2</title>
<g id="a_edge1_Node000001_Node000002"><a xlink:title=" ">
<path fill="none" stroke="#63b8ff" d="M213.5,-176.54C213.5,-168.62 213.5,-159.4 213.5,-151.07"/>
<polygon fill="#63b8ff" stroke="#63b8ff" points="217,-150.81 213.5,-140.81 210,-150.81 217,-150.81"/>
</a>
</g>
</g>
<!-- Node3 -->
<g id="Node000003" class="node">
<title>Node3</title>
<g id="a_Node000003"><a xlink:href="Transform_8ixx.html" target="_top" xlink:title="Represents a 3D transformation consisting of translation, rotation and scale.">
<polygon fill="white" stroke="#666666" points="185.5,-74.77 63.5,-74.77 63.5,-55.77 185.5,-55.77 185.5,-74.77"/>
<text text-anchor="middle" x="124.5" y="-62.77" font-family="Helvetica,sans-Serif" font-size="10.00">helios.core.Transform</text>
</a>
</g>
</g>
<!-- Node2&#45;&gt;Node3 -->
<g id="edge2_Node000002_Node000003" class="edge">
<title>Node2&#45;&gt;Node3</title>
<g id="a_edge2_Node000002_Node000003"><a xlink:title=" ">
<path fill="none" stroke="#63b8ff" d="M191.96,-110.61C178.03,-101.46 159.97,-89.59 146.05,-80.43"/>
<polygon fill="#63b8ff" stroke="#63b8ff" points="147.85,-77.43 137.58,-74.87 144.01,-83.28 147.85,-77.43"/>
</a>
</g>
</g>
<!-- Node5 -->
<g id="Node000005" class="node">
<title>Node5</title>
<g id="a_Node000005"><a xlink:href="helios_2math_2types_2__module_8ixx.html" target="_top" xlink:title="Module exports for vector and matrix type definitions.">
<polygon fill="white" stroke="#666666" points="265.5,-19.77 161.5,-19.77 161.5,-0.77 265.5,-0.77 265.5,-19.77"/>
<text text-anchor="middle" x="213.5" y="-7.77" font-family="Helvetica,sans-Serif" font-size="10.00">helios.math.types</text>
</a>
</g>
</g>
<!-- Node2&#45;&gt;Node5 -->
<g id="edge8_Node000002_Node000005" class="edge">
<title>Node2&#45;&gt;Node5</title>
<g id="a_edge8_Node000002_Node000005"><a xlink:title=" ">
<path fill="none" stroke="#63b8ff" d="M213.5,-110.4C213.5,-89.99 213.5,-52.58 213.5,-30.01"/>
<polygon fill="#63b8ff" stroke="#63b8ff" points="217,-30 213.5,-20 210,-30 217,-30"/>
</a>
</g>
</g>
<!-- Node6 -->
<g id="Node000006" class="node">
<title>Node6</title>
<g id="a_Node000006"><a xlink:href="Component_8ixx.html" target="_top" xlink:title="Base class for components attached to GameObjects.">
<polygon fill="white" stroke="#666666" points="413.5,-74.77 241.5,-74.77 241.5,-55.77 413.5,-55.77 413.5,-74.77"/>
<text text-anchor="middle" x="327.5" y="-62.77" font-family="Helvetica,sans-Serif" font-size="10.00">helios.engine.game.Component</text>
</a>
</g>
</g>
<!-- Node2&#45;&gt;Node6 -->
<g id="edge7_Node000002_Node000006" class="edge">
<title>Node2&#45;&gt;Node6</title>
<g id="a_edge7_Node000002_Node000006"><a xlink:title=" ">
<path fill="none" stroke="#63b8ff" d="M240.81,-110.76C259.15,-101.35 283.18,-89.02 301.29,-79.72"/>
<polygon fill="#63b8ff" stroke="#63b8ff" points="303.37,-82.59 310.66,-74.91 300.17,-76.36 303.37,-82.59"/>
</a>
</g>
</g>
<!-- Node4 -->
<g id="Node000004" class="node">
<title>Node4</title>
<g id="a_Node000004"><a xlink:href="helios_2math_2transform_2__module_8ixx.html" target="_top" xlink:title="Module exports for transformation utilities.">
<polygon fill="white" stroke="#666666" points="125,-19.77 0,-19.77 0,-0.77 125,-0.77 125,-19.77"/>
<text text-anchor="middle" x="62.5" y="-7.77" font-family="Helvetica,sans-Serif" font-size="10.00">helios.math.transform</text>
</a>
</g>
</g>
<!-- Node3&#45;&gt;Node4 -->
<g id="edge3_Node000003_Node000004" class="edge">
<title>Node3&#45;&gt;Node4</title>
<g id="a_edge3_Node000003_Node000004"><a xlink:title=" ">
<path fill="none" stroke="#63b8ff" d="M114.54,-55.76C105.37,-47.92 91.56,-36.12 80.47,-26.63"/>
<polygon fill="#63b8ff" stroke="#63b8ff" points="82.52,-23.78 72.64,-19.94 77.97,-29.1 82.52,-23.78"/>
</a>
</g>
</g>
<!-- Node3&#45;&gt;Node5 -->
<g id="edge5_Node000003_Node000005" class="edge">
<title>Node3&#45;&gt;Node5</title>
<g id="a_edge5_Node000003_Node000005"><a xlink:title=" ">
<path fill="none" stroke="#63b8ff" d="M138.8,-55.76C152.6,-47.54 173.74,-34.95 190.01,-25.26"/>
<polygon fill="#63b8ff" stroke="#63b8ff" points="192.14,-28.07 198.94,-19.94 188.56,-22.05 192.14,-28.07"/>
</a>
</g>
</g>
<!-- Node4&#45;&gt;Node4 -->
<g id="edge4_Node000004_Node000004" class="edge">
<title>Node4&#45;&gt;Node4</title>
<g id="a_edge4_Node000004_Node000004"><a xlink:title=" ">
<path fill="none" stroke="#63b8ff" d="M100.18,-19.8C122.3,-21.83 143,-18.66 143,-10.27 143,-3.2 128.26,0.17 110.37,-0.17"/>
<polygon fill="#63b8ff" stroke="#63b8ff" points="109.97,3.31 100.18,-0.74 110.36,-3.68 109.97,3.31"/>
</a>
</g>
</g>
<!-- Node5&#45;&gt;Node5 -->
<g id="edge6_Node000005_Node000005" class="edge">
<title>Node5&#45;&gt;Node5</title>
<g id="a_edge6_Node000005_Node000005"><a xlink:title=" ">
<path fill="none" stroke="#63b8ff" d="M246.27,-19.8C265.5,-21.83 283.5,-18.66 283.5,-10.27 283.5,-3.39 271.39,-0.02 256.42,-0.15"/>
<polygon fill="#63b8ff" stroke="#63b8ff" points="256.05,3.33 246.27,-0.74 256.45,-3.65 256.05,3.33"/>
</a>
</g>
</g>
</g>
</svg>
