<?xml version="1.0" encoding="UTF-8" standalone="no"?>
<!DOCTYPE svg PUBLIC "-//W3C//DTD SVG 1.1//EN"
 "http://www.w3.org/Graphics/SVG/1.1/DTD/svg11.dtd">
<!-- Generated by graphviz version 2.43.0 (0)
 -->
<!-- Title: include/helios/rendering/asset/shape/_module.ixx Pages: 1 -->
<svg width="1127pt" height="348pt"
 viewBox="0.00 0.00 1126.50 348.17" xmlns="http://www.w3.org/2000/svg" xmlns:xlink="http://www.w3.org/1999/xlink">
<g id="graph0" class="graph" transform="scale(1 1) rotate(0) translate(4 344.17)">
<title>include/helios/rendering/asset/shape/_module.ixx</title>
<!-- Node1 -->
<g id="Node000001" class="node">
<title>Node1</title>
<g id="a_Node000001"><a xlink:title="Module exports for shape definitions for rendering assets.">
<polygon fill="#999999" stroke="#666666" points="352.5,-340.17 211.5,-340.17 211.5,-310.17 352.5,-310.17 352.5,-340.17"/>
<text text-anchor="start" x="219.5" y="-328.17" font-family="Helvetica,sans-Serif" font-size="10.00">include/helios/rendering</text>
<text text-anchor="middle" x="282" y="-317.17" font-family="Helvetica,sans-Serif" font-size="10.00">/asset/shape/_module.ixx</text>
</a>
</g>
</g>
<!-- Node2 -->
<g id="Node000002" class="node">
<title>Node2</title>
<g id="a_Node000002"><a xlink:href="helios_2rendering_2asset_2shape_2basic_2__module_8ixx.html" target="_top" xlink:title="Module exports for basic geometric primitive shapes.">
<polygon fill="white" stroke="#666666" points="555.5,-274.17 370.5,-274.17 370.5,-255.17 555.5,-255.17 555.5,-274.17"/>
<text text-anchor="middle" x="463" y="-262.17" font-family="Helvetica,sans-Serif" font-size="10.00">helios.rendering.asset.shape.basic</text>
</a>
</g>
</g>
<!-- Node1&#45;&gt;Node2 -->
<g id="edge1_Node000001_Node000002" class="edge">
<title>Node1&#45;&gt;Node2</title>
<g id="a_edge1_Node000001_Node000002"><a xlink:title=" ">
<path fill="none" stroke="#63b8ff" d="M325.35,-310.16C356.32,-300.15 397.5,-286.84 426.73,-277.4"/>
<polygon fill="#63b8ff" stroke="#63b8ff" points="428.1,-280.63 436.53,-274.23 425.94,-273.97 428.1,-280.63"/>
</a>
</g>
</g>
<!-- Node9 -->
<g id="Node000009" class="node">
<title>Node9</title>
<g id="a_Node000009"><a xlink:href="Shape_8ixx.html" target="_top" xlink:title="Interface for simple geometric shapes used for testing and debugging.">
<polygon fill="white" stroke="#666666" points="503,-153.17 343,-153.17 343,-123.17 503,-123.17 503,-153.17"/>
<text text-anchor="start" x="351" y="-141.17" font-family="Helvetica,sans-Serif" font-size="10.00">helios.rendering.asset.shape.</text>
<text text-anchor="middle" x="423" y="-130.17" font-family="Helvetica,sans-Serif" font-size="10.00">Shape</text>
</a>
</g>
</g>
<!-- Node1&#45;&gt;Node9 -->
<g id="edge38_Node000001_Node000009" class="edge">
<title>Node1&#45;&gt;Node9</title>
<g id="a_edge38_Node000001_Node000009"><a xlink:title=" ">
<path fill="none" stroke="#63b8ff" d="M269.21,-310.16C246.92,-284 205.96,-226.95 235,-189.17 247.58,-172.81 290.99,-160.68 332.93,-152.47"/>
<polygon fill="#63b8ff" stroke="#63b8ff" points="333.79,-155.86 342.97,-150.56 332.49,-148.99 333.79,-155.86"/>
</a>
</g>
</g>
<!-- Node3 -->
<g id="Node000003" class="node">
<title>Node3</title>
<g id="a_Node000003"><a xlink:href="Grid_8ixx.html" target="_top" xlink:title="Basic grid shape for rendering.">
<polygon fill="white" stroke="#666666" points="1118.5,-213.67 909.5,-213.67 909.5,-194.67 1118.5,-194.67 1118.5,-213.67"/>
<text text-anchor="middle" x="1014" y="-201.67" font-family="Helvetica,sans-Serif" font-size="10.00">helios.rendering.asset.shape.basic.Grid</text>
</a>
</g>
</g>
<!-- Node2&#45;&gt;Node3 -->
<g id="edge2_Node000002_Node000003" class="edge">
<title>Node2&#45;&gt;Node3</title>
<g id="a_edge2_Node000002_Node000003"><a xlink:title=" ">
<path fill="none" stroke="#63b8ff" d="M552.19,-255.14C640.55,-246.55 779.69,-232.69 900,-219.17 911.77,-217.85 924.21,-216.39 936.38,-214.93"/>
<polygon fill="#63b8ff" stroke="#63b8ff" points="937.01,-218.38 946.51,-213.7 936.16,-211.43 937.01,-218.38"/>
</a>
</g>
</g>
<!-- Node11 -->
<g id="Node000011" class="node">
<title>Node11</title>
<g id="a_Node000011"><a xlink:href="Circle_8ixx.html" target="_top" xlink:title="Basic circle shape for rendering.">
<polygon fill="white" stroke="#666666" points="188,-219.17 0,-219.17 0,-189.17 188,-189.17 188,-219.17"/>
<text text-anchor="start" x="8" y="-207.17" font-family="Helvetica,sans-Serif" font-size="10.00">helios.rendering.asset.shape.basic.</text>
<text text-anchor="middle" x="94" y="-196.17" font-family="Helvetica,sans-Serif" font-size="10.00">Circle</text>
</a>
</g>
</g>
<!-- Node2&#45;&gt;Node11 -->
<g id="edge15_Node000002_Node000011" class="edge">
<title>Node2&#45;&gt;Node11</title>
<g id="a_edge15_Node000002_Node000011"><a xlink:title=" ">
<path fill="none" stroke="#63b8ff" d="M409.34,-255.17C352.67,-246.18 262.05,-231.82 192.46,-220.78"/>
<polygon fill="#63b8ff" stroke="#63b8ff" points="192.78,-217.29 182.36,-219.18 191.68,-224.21 192.78,-217.29"/>
</a>
</g>
</g>
<!-- Node14 -->
<g id="Node000014" class="node">
<title>Node14</title>
<g id="a_Node000014"><a xlink:href="Cube_8ixx.html" target="_top" xlink:title="Basic cube shape for rendering.">
<polygon fill="white" stroke="#666666" points="684.5,-213.67 471.5,-213.67 471.5,-194.67 684.5,-194.67 684.5,-213.67"/>
<text text-anchor="middle" x="578" y="-201.67" font-family="Helvetica,sans-Serif" font-size="10.00">helios.rendering.asset.shape.basic.Cube</text>
</a>
</g>
</g>
<!-- Node2&#45;&gt;Node14 -->
<g id="edge23_Node000002_Node000014" class="edge">
<title>Node2&#45;&gt;Node14</title>
<g id="a_edge23_Node000002_Node000014"><a xlink:title=" ">
<path fill="none" stroke="#63b8ff" d="M479.97,-255.04C498.91,-245.41 529.79,-229.7 551.83,-218.49"/>
<polygon fill="#63b8ff" stroke="#63b8ff" points="553.64,-221.5 560.96,-213.84 550.46,-215.26 553.64,-221.5"/>
</a>
</g>
</g>
<!-- Node15 -->
<g id="Node000015" class="node">
<title>Node15</title>
<g id="a_Node000015"><a xlink:href="Line_8ixx.html" target="_top" xlink:title="Basic line shape for rendering.">
<polygon fill="white" stroke="#666666" points="453.5,-213.67 244.5,-213.67 244.5,-194.67 453.5,-194.67 453.5,-213.67"/>
<text text-anchor="middle" x="349" y="-201.67" font-family="Helvetica,sans-Serif" font-size="10.00">helios.rendering.asset.shape.basic.Line</text>
</a>
</g>
</g>
<!-- Node2&#45;&gt;Node15 -->
<g id="edge28_Node000002_Node000015" class="edge">
<title>Node2&#45;&gt;Node15</title>
<g id="a_edge28_Node000002_Node000015"><a xlink:title=" ">
<path fill="none" stroke="#63b8ff" d="M446.18,-255.04C427.4,-245.41 396.8,-229.7 374.95,-218.49"/>
<polygon fill="#63b8ff" stroke="#63b8ff" points="376.39,-215.29 365.89,-213.84 373.19,-221.52 376.39,-215.29"/>
</a>
</g>
</g>
<!-- Node16 -->
<g id="Node000016" class="node">
<title>Node16</title>
<g id="a_Node000016"><a xlink:href="Rectangle_8ixx.html" target="_top" xlink:title="Basic rectangle shape for rendering.">
<polygon fill="white" stroke="#666666" points="891,-219.17 703,-219.17 703,-189.17 891,-189.17 891,-219.17"/>
<text text-anchor="start" x="711" y="-207.17" font-family="Helvetica,sans-Serif" font-size="10.00">helios.rendering.asset.shape.basic.</text>
<text text-anchor="middle" x="797" y="-196.17" font-family="Helvetica,sans-Serif" font-size="10.00">Rectangle</text>
</a>
</g>
</g>
<!-- Node2&#45;&gt;Node16 -->
<g id="edge33_Node000002_Node000016" class="edge">
<title>Node2&#45;&gt;Node16</title>
<g id="a_edge33_Node000002_Node000016"><a xlink:title=" ">
<path fill="none" stroke="#63b8ff" d="M511.57,-255.17C562.66,-246.22 644.22,-231.93 707.1,-220.92"/>
<polygon fill="#63b8ff" stroke="#63b8ff" points="707.78,-224.36 717.02,-219.18 706.57,-217.46 707.78,-224.36"/>
</a>
</g>
</g>
<!-- Node4 -->
<g id="Node000004" class="node">
<title>Node4</title>
<g id="a_Node000004"><a xlink:title=" ">
<polygon fill="#e0e0e0" stroke="#999999" points="1046.5,-147.67 981.5,-147.67 981.5,-128.67 1046.5,-128.67 1046.5,-147.67"/>
<text text-anchor="middle" x="1014" y="-135.67" font-family="Helvetica,sans-Serif" font-size="10.00">stdexcept</text>
</a>
</g>
</g>
<!-- Node3&#45;&gt;Node4 -->
<g id="edge3_Node000003_Node000004" class="edge">
<title>Node3&#45;&gt;Node4</title>
<g id="a_edge3_Node000003_Node000004"><a xlink:title=" ">
<path fill="none" stroke="#63b8ff" d="M1014,-194.54C1014,-185.34 1014,-170.46 1014,-158.45"/>
<polygon fill="#63b8ff" stroke="#63b8ff" points="1017.5,-158.08 1014,-148.08 1010.5,-158.08 1017.5,-158.08"/>
</a>
</g>
</g>
<!-- Node5 -->
<g id="Node000005" class="node">
<title>Node5</title>
<g id="a_Node000005"><a xlink:title=" ">
<polygon fill="#e0e0e0" stroke="#999999" points="744.5,-81.67 697.5,-81.67 697.5,-62.67 744.5,-62.67 744.5,-81.67"/>
<text text-anchor="middle" x="721" y="-69.67" font-family="Helvetica,sans-Serif" font-size="10.00">vector</text>
</a>
</g>
</g>
<!-- Node3&#45;&gt;Node5 -->
<g id="edge4_Node000003_Node000005" class="edge">
<title>Node3&#45;&gt;Node5</title>
<g id="a_edge4_Node000003_Node000005"><a xlink:title=" ">
<path fill="none" stroke="#63b8ff" d="M1001.53,-194.64C974.58,-176.28 911.45,-133.88 888,-123.17 843.71,-102.95 789.15,-88.4 754.7,-80.38"/>
<polygon fill="#63b8ff" stroke="#63b8ff" points="755.22,-76.91 744.69,-78.1 753.67,-83.73 755.22,-76.91"/>
</a>
</g>
</g>
<!-- Node6 -->
<g id="Node000006" class="node">
<title>Node6</title>
<g id="a_Node000006"><a xlink:href="PrimitiveType_8ixx.html" target="_top" xlink:title="Enum of primitive types for mesh rendering.">
<polygon fill="white" stroke="#666666" points="531,-87.17 367,-87.17 367,-57.17 531,-57.17 531,-87.17"/>
<text text-anchor="start" x="375" y="-75.17" font-family="Helvetica,sans-Serif" font-size="10.00">helios.rendering.model.config.</text>
<text text-anchor="middle" x="449" y="-64.17" font-family="Helvetica,sans-Serif" font-size="10.00">PrimitiveType</text>
</a>
</g>
</g>
<!-- Node3&#45;&gt;Node6 -->
<g id="edge5_Node000003_Node000006" class="edge">
<title>Node3&#45;&gt;Node6</title>
<g id="a_edge5_Node000003_Node000006"><a xlink:title=" ">
<path fill="none" stroke="#63b8ff" d="M970.54,-194.61C922.39,-185.01 842.48,-168.73 774,-153.17 683.18,-132.54 578.69,-106.39 513.25,-89.71"/>
<polygon fill="#63b8ff" stroke="#63b8ff" points="514.04,-86.3 503.49,-87.22 512.31,-93.09 514.04,-86.3"/>
</a>
</g>
</g>
<!-- Node7 -->
<g id="Node000007" class="node">
<title>Node7</title>
<g id="a_Node000007"><a xlink:href="helios_2math_2types_2__module_8ixx.html" target="_top" xlink:title="Module exports for vector and matrix type definitions.">
<polygon fill="white" stroke="#666666" points="666,-21.17 562,-21.17 562,-2.17 666,-2.17 666,-21.17"/>
<text text-anchor="middle" x="614" y="-9.17" font-family="Helvetica,sans-Serif" font-size="10.00">helios.math.types</text>
</a>
</g>
</g>
<!-- Node3&#45;&gt;Node7 -->
<g id="edge6_Node000003_Node000007" class="edge">
<title>Node3&#45;&gt;Node7</title>
<g id="a_edge6_Node000003_Node000007"><a xlink:title=" ">
<path fill="none" stroke="#63b8ff" d="M1006.69,-194.56C992.69,-178.54 960.5,-143.9 927,-123.17 842.33,-70.8 729.4,-38.79 664.9,-23.51"/>
<polygon fill="#63b8ff" stroke="#63b8ff" points="665.51,-20.06 654.98,-21.2 663.93,-26.88 665.51,-20.06"/>
</a>
</g>
</g>
<!-- Node8 -->
<g id="Node000008" class="node">
<title>Node8</title>
<g id="a_Node000008"><a xlink:href="Vertex_8ixx.html" target="_top" xlink:title="Vertex description and utilities for rendering.">
<polygon fill="white" stroke="#666666" points="679,-81.67 549,-81.67 549,-62.67 679,-62.67 679,-81.67"/>
<text text-anchor="middle" x="614" y="-69.67" font-family="Helvetica,sans-Serif" font-size="10.00">helios.rendering.Vertex</text>
</a>
</g>
</g>
<!-- Node3&#45;&gt;Node8 -->
<g id="edge8_Node000003_Node000008" class="edge">
<title>Node3&#45;&gt;Node8</title>
<g id="a_edge8_Node000003_Node000008"><a xlink:title=" ">
<path fill="none" stroke="#63b8ff" d="M987.75,-194.65C918.25,-172.06 729.31,-110.65 649.91,-84.85"/>
<polygon fill="#63b8ff" stroke="#63b8ff" points="650.93,-81.5 640.34,-81.74 648.77,-88.16 650.93,-81.5"/>
</a>
</g>
</g>
<!-- Node3&#45;&gt;Node9 -->
<g id="edge10_Node000003_Node000009" class="edge">
<title>Node3&#45;&gt;Node9</title>
<g id="a_edge10_Node000003_Node000009"><a xlink:title=" ">
<path fill="none" stroke="#63b8ff" d="M946.21,-194.65C931.01,-192.79 914.96,-190.88 900,-189.17 765.36,-173.85 609.14,-157.8 513.18,-148.15"/>
<polygon fill="#63b8ff" stroke="#63b8ff" points="513.53,-144.66 503.23,-147.15 512.83,-151.63 513.53,-144.66"/>
</a>
</g>
</g>
<!-- Node7&#45;&gt;Node7 -->
<g id="edge7_Node000007_Node000007" class="edge">
<title>Node7&#45;&gt;Node7</title>
<g id="a_edge7_Node000007_Node000007"><a xlink:title=" ">
<path fill="none" stroke="#63b8ff" d="M639.85,-21.21C661.44,-25.28 684,-22.1 684,-11.67 684,-2.87 667.94,0.76 649.95,-0.76"/>
<polygon fill="#63b8ff" stroke="#63b8ff" points="649.28,2.68 639.85,-2.14 650.23,-4.26 649.28,2.68"/>
</a>
</g>
</g>
<!-- Node8&#45;&gt;Node7 -->
<g id="edge9_Node000008_Node000007" class="edge">
<title>Node8&#45;&gt;Node7</title>
<g id="a_edge9_Node000008_Node000007"><a xlink:title=" ">
<path fill="none" stroke="#63b8ff" d="M614,-62.54C614,-54.42 614,-41.98 614,-31.56"/>
<polygon fill="#63b8ff" stroke="#63b8ff" points="617.5,-31.34 614,-21.34 610.5,-31.34 617.5,-31.34"/>
</a>
</g>
</g>
<!-- Node9&#45;&gt;Node5 -->
<g id="edge12_Node000009_Node000005" class="edge">
<title>Node9&#45;&gt;Node5</title>
<g id="a_edge12_Node000009_Node000005"><a xlink:title=" ">
<path fill="none" stroke="#63b8ff" d="M503.21,-126.63C556.34,-118.53 627.17,-105.58 688,-87.17 689.68,-86.67 691.39,-86.1 693.1,-85.5"/>
<polygon fill="#63b8ff" stroke="#63b8ff" points="694.71,-88.63 702.76,-81.74 692.17,-82.1 694.71,-88.63"/>
</a>
</g>
</g>
<!-- Node9&#45;&gt;Node6 -->
<g id="edge13_Node000009_Node000006" class="edge">
<title>Node9&#45;&gt;Node6</title>
<g id="a_edge13_Node000009_Node000006"><a xlink:title=" ">
<path fill="none" stroke="#63b8ff" d="M428.77,-122.97C431.9,-115.27 435.85,-105.54 439.43,-96.73"/>
<polygon fill="#63b8ff" stroke="#63b8ff" points="442.72,-97.92 443.25,-87.34 436.24,-95.29 442.72,-97.92"/>
</a>
</g>
</g>
<!-- Node9&#45;&gt;Node8 -->
<g id="edge14_Node000009_Node000008" class="edge">
<title>Node9&#45;&gt;Node8</title>
<g id="a_edge14_Node000009_Node000008"><a xlink:title=" ">
<path fill="none" stroke="#63b8ff" d="M464.92,-123.13C499,-111.71 546.55,-95.77 578.72,-85"/>
<polygon fill="#63b8ff" stroke="#63b8ff" points="580.21,-88.19 588.58,-81.69 577.99,-81.55 580.21,-88.19"/>
</a>
</g>
</g>
<!-- Node10 -->
<g id="Node000010" class="node">
<title>Node10</title>
<g id="a_Node000010"><a xlink:title=" ">
<polygon fill="#e0e0e0" stroke="#999999" points="349,-81.67 291,-81.67 291,-62.67 349,-62.67 349,-81.67"/>
<text text-anchor="middle" x="320" y="-69.67" font-family="Helvetica,sans-Serif" font-size="10.00">memory</text>
</a>
</g>
</g>
<!-- Node9&#45;&gt;Node10 -->
<g id="edge11_Node000009_Node000010" class="edge">
<title>Node9&#45;&gt;Node10</title>
<g id="a_edge11_Node000009_Node000010"><a xlink:title=" ">
<path fill="none" stroke="#63b8ff" d="M400.4,-123.13C383.21,-112.45 359.67,-97.82 342.51,-87.16"/>
<polygon fill="#63b8ff" stroke="#63b8ff" points="344.05,-84 333.71,-81.69 340.35,-89.94 344.05,-84"/>
</a>
</g>
</g>
<!-- Node11&#45;&gt;Node5 -->
<g id="edge16_Node000011_Node000005" class="edge">
<title>Node11&#45;&gt;Node5</title>
<g id="a_edge16_Node000011_Node000005"><a xlink:title=" ">
<path fill="none" stroke="#63b8ff" d="M185.36,-189.14C221.07,-181.49 261.61,-170.02 296,-153.17 315.32,-143.71 314.06,-131.25 334,-123.17 480.58,-63.81 534.82,-126.5 688,-87.17 689.94,-86.68 691.92,-86.08 693.89,-85.42"/>
<polygon fill="#63b8ff" stroke="#63b8ff" points="695.44,-88.58 703.53,-81.74 692.94,-82.04 695.44,-88.58"/>
</a>
</g>
</g>
<!-- Node11&#45;&gt;Node6 -->
<g id="edge19_Node000011_Node000006" class="edge">
<title>Node11&#45;&gt;Node6</title>
<g id="a_edge19_Node000011_Node000006"><a xlink:title=" ">
<path fill="none" stroke="#63b8ff" d="M132.33,-189.14C197.48,-165.28 329.68,-116.87 400.93,-90.78"/>
<polygon fill="#63b8ff" stroke="#63b8ff" points="402.38,-93.98 410.56,-87.25 399.97,-87.4 402.38,-93.98"/>
</a>
</g>
</g>
<!-- Node11&#45;&gt;Node7 -->
<g id="edge20_Node000011_Node000007" class="edge">
<title>Node11&#45;&gt;Node7</title>
<g id="a_edge20_Node000011_Node000007"><a xlink:title=" ">
<path fill="none" stroke="#63b8ff" d="M72.48,-189C50.52,-172.77 21.9,-145.53 39,-123.17 100.61,-42.6 415.55,-20.5 551.44,-14.67"/>
<polygon fill="#63b8ff" stroke="#63b8ff" points="551.85,-18.16 561.69,-14.25 551.56,-11.16 551.85,-18.16"/>
</a>
</g>
</g>
<!-- Node11&#45;&gt;Node8 -->
<g id="edge21_Node000011_Node000008" class="edge">
<title>Node11&#45;&gt;Node8</title>
<g id="a_edge21_Node000011_Node000008"><a xlink:title=" ">
<path fill="none" stroke="#63b8ff" d="M162.89,-189.11C194.48,-181.09 231.76,-169.36 263,-153.17 282.11,-143.28 281.26,-131.73 301,-123.17 399.56,-80.46 434.1,-105.16 540,-87.17 546.58,-86.06 553.48,-84.83 560.31,-83.58"/>
<polygon fill="#63b8ff" stroke="#63b8ff" points="561.03,-87 570.22,-81.74 559.75,-80.12 561.03,-87"/>
</a>
</g>
</g>
<!-- Node11&#45;&gt;Node9 -->
<g id="edge22_Node000011_Node000009" class="edge">
<title>Node11&#45;&gt;Node9</title>
<g id="a_edge22_Node000011_Node000009"><a xlink:title=" ">
<path fill="none" stroke="#63b8ff" d="M166.2,-189.13C217.84,-179.08 287.42,-165.55 341.13,-155.1"/>
<polygon fill="#63b8ff" stroke="#63b8ff" points="341.82,-158.53 350.97,-153.19 340.48,-151.66 341.82,-158.53"/>
</a>
</g>
</g>
<!-- Node12 -->
<g id="Node000012" class="node">
<title>Node12</title>
<g id="a_Node000012"><a xlink:title=" ">
<polygon fill="#e0e0e0" stroke="#999999" points="95.5,-147.67 48.5,-147.67 48.5,-128.67 95.5,-128.67 95.5,-147.67"/>
<text text-anchor="middle" x="72" y="-135.67" font-family="Helvetica,sans-Serif" font-size="10.00">cmath</text>
</a>
</g>
</g>
<!-- Node11&#45;&gt;Node12 -->
<g id="edge17_Node000011_Node000012" class="edge">
<title>Node11&#45;&gt;Node12</title>
<g id="a_edge17_Node000011_Node000012"><a xlink:title=" ">
<path fill="none" stroke="#63b8ff" d="M89.12,-188.97C85.96,-179.78 81.81,-167.71 78.39,-157.75"/>
<polygon fill="#63b8ff" stroke="#63b8ff" points="81.6,-156.34 75.04,-148.02 74.98,-158.61 81.6,-156.34"/>
</a>
</g>
</g>
<!-- Node13 -->
<g id="Node000013" class="node">
<title>Node13</title>
<g id="a_Node000013"><a xlink:title=" ">
<polygon fill="#e0e0e0" stroke="#999999" points="172.5,-147.67 113.5,-147.67 113.5,-128.67 172.5,-128.67 172.5,-147.67"/>
<text text-anchor="middle" x="143" y="-135.67" font-family="Helvetica,sans-Serif" font-size="10.00">numbers</text>
</a>
</g>
</g>
<!-- Node11&#45;&gt;Node13 -->
<g id="edge18_Node000011_Node000013" class="edge">
<title>Node11&#45;&gt;Node13</title>
<g id="a_edge18_Node000011_Node000013"><a xlink:title=" ">
<path fill="none" stroke="#63b8ff" d="M104.87,-188.97C112.29,-179.29 122.14,-166.41 129.98,-156.18"/>
<polygon fill="#63b8ff" stroke="#63b8ff" points="132.93,-158.09 136.23,-148.02 127.37,-153.83 132.93,-158.09"/>
</a>
</g>
</g>
<!-- Node14&#45;&gt;Node5 -->
<g id="edge24_Node000014_Node000005" class="edge">
<title>Node14&#45;&gt;Node5</title>
<g id="a_edge24_Node000014_Node000005"><a xlink:title=" ">
<path fill="none" stroke="#63b8ff" d="M587.38,-194.65C611.01,-173.17 673.24,-116.59 703.7,-88.9"/>
<polygon fill="#63b8ff" stroke="#63b8ff" points="706.35,-91.22 711.4,-81.91 701.64,-86.04 706.35,-91.22"/>
</a>
</g>
</g>
<!-- Node14&#45;&gt;Node6 -->
<g id="edge25_Node000014_Node000006" class="edge">
<title>Node14&#45;&gt;Node6</title>
<g id="a_edge25_Node000014_Node000006"><a xlink:title=" ">
<path fill="none" stroke="#63b8ff" d="M571.62,-194.26C560.43,-178.91 536.16,-146.88 512,-123.17 501.28,-112.65 488.44,-102.15 477.16,-93.5"/>
<polygon fill="#63b8ff" stroke="#63b8ff" points="478.99,-90.5 468.9,-87.28 474.78,-96.09 478.99,-90.5"/>
</a>
</g>
</g>
<!-- Node14&#45;&gt;Node8 -->
<g id="edge26_Node000014_Node000008" class="edge">
<title>Node14&#45;&gt;Node8</title>
<g id="a_edge26_Node000014_Node000008"><a xlink:title=" ">
<path fill="none" stroke="#63b8ff" d="M580.36,-194.65C586.11,-173.9 600.92,-120.42 608.83,-91.84"/>
<polygon fill="#63b8ff" stroke="#63b8ff" points="612.29,-92.48 611.58,-81.91 605.54,-90.61 612.29,-92.48"/>
</a>
</g>
</g>
<!-- Node14&#45;&gt;Node9 -->
<g id="edge27_Node000014_Node000009" class="edge">
<title>Node14&#45;&gt;Node9</title>
<g id="a_edge27_Node000014_Node000009"><a xlink:title=" ">
<path fill="none" stroke="#63b8ff" d="M557.1,-194.54C533.98,-185 496.1,-169.36 466.48,-157.13"/>
<polygon fill="#63b8ff" stroke="#63b8ff" points="467.77,-153.87 457.19,-153.29 465.09,-160.34 467.77,-153.87"/>
</a>
</g>
</g>
<!-- Node15&#45;&gt;Node5 -->
<g id="edge29_Node000015_Node000005" class="edge">
<title>Node15&#45;&gt;Node5</title>
<g id="a_edge29_Node000015_Node000005"><a xlink:title=" ">
<path fill="none" stroke="#63b8ff" d="M392.78,-194.64C433.57,-186.11 495.77,-171.63 548,-153.17 602.52,-133.91 663.22,-103.67 696.26,-86.41"/>
<polygon fill="#63b8ff" stroke="#63b8ff" points="697.98,-89.46 705.2,-81.71 694.72,-83.27 697.98,-89.46"/>
</a>
</g>
</g>
<!-- Node15&#45;&gt;Node6 -->
<g id="edge31_Node000015_Node000006" class="edge">
<title>Node15&#45;&gt;Node6</title>
<g id="a_edge31_Node000015_Node000006"><a xlink:title=" ">
<path fill="none" stroke="#63b8ff" d="M343.59,-194.44C334.67,-178.82 319.28,-145.63 334,-123.17 343.43,-108.79 357.99,-98.53 373.62,-91.2"/>
<polygon fill="#63b8ff" stroke="#63b8ff" points="375.1,-94.38 382.91,-87.22 372.34,-87.94 375.1,-94.38"/>
</a>
</g>
</g>
<!-- Node15&#45;&gt;Node8 -->
<g id="edge30_Node000015_Node000008" class="edge">
<title>Node15&#45;&gt;Node8</title>
<g id="a_edge30_Node000015_Node000008"><a xlink:title=" ">
<path fill="none" stroke="#63b8ff" d="M391.51,-194.66C425.41,-186.82 473.43,-173.32 512,-153.17 545.51,-135.67 578.97,-106.69 598.01,-88.83"/>
<polygon fill="#63b8ff" stroke="#63b8ff" points="600.43,-91.36 605.24,-81.92 595.59,-86.3 600.43,-91.36"/>
</a>
</g>
</g>
<!-- Node15&#45;&gt;Node9 -->
<g id="edge32_Node000015_Node000009" class="edge">
<title>Node15&#45;&gt;Node9</title>
<g id="a_edge32_Node000015_Node000009"><a xlink:title=" ">
<path fill="none" stroke="#63b8ff" d="M358.98,-194.54C369.2,-185.7 385.48,-171.63 399.06,-159.88"/>
<polygon fill="#63b8ff" stroke="#63b8ff" points="401.4,-162.48 406.68,-153.29 396.83,-157.18 401.4,-162.48"/>
</a>
</g>
</g>
<!-- Node16&#45;&gt;Node5 -->
<g id="edge34_Node000016_Node000005" class="edge">
<title>Node16&#45;&gt;Node5</title>
<g id="a_edge34_Node000016_Node000005"><a xlink:title=" ">
<path fill="none" stroke="#63b8ff" d="M804.79,-189.15C812.99,-172.33 823.16,-143.83 811,-123.17 798.77,-102.39 774.43,-89.62 754.15,-82.2"/>
<polygon fill="#63b8ff" stroke="#63b8ff" points="755.18,-78.85 744.58,-78.97 752.94,-85.49 755.18,-78.85"/>
</a>
</g>
</g>
<!-- Node16&#45;&gt;Node6 -->
<g id="edge35_Node000016_Node000006" class="edge">
<title>Node16&#45;&gt;Node6</title>
<g id="a_edge35_Node000016_Node000006"><a xlink:title=" ">
<path fill="none" stroke="#63b8ff" d="M759.43,-189.14C695.56,-165.28 565.97,-116.87 496.12,-90.78"/>
<polygon fill="#63b8ff" stroke="#63b8ff" points="497.27,-87.47 486.68,-87.25 494.82,-94.03 497.27,-87.47"/>
</a>
</g>
</g>
<!-- Node16&#45;&gt;Node8 -->
<g id="edge36_Node000016_Node000008" class="edge">
<title>Node16&#45;&gt;Node8</title>
<g id="a_edge36_Node000016_Node000008"><a xlink:title=" ">
<path fill="none" stroke="#63b8ff" d="M777.07,-189.01C742.05,-164.14 669.87,-112.86 634.48,-87.72"/>
<polygon fill="#63b8ff" stroke="#63b8ff" points="636.49,-84.86 626.31,-81.92 632.44,-90.57 636.49,-84.86"/>
</a>
</g>
</g>
<!-- Node16&#45;&gt;Node9 -->
<g id="edge37_Node000016_Node000009" class="edge">
<title>Node16&#45;&gt;Node9</title>
<g id="a_edge37_Node000016_Node000009"><a xlink:title=" ">
<path fill="none" stroke="#63b8ff" d="M714.92,-189.13C655.35,-178.93 574.76,-165.14 513.35,-154.64"/>
<polygon fill="#63b8ff" stroke="#63b8ff" points="513.73,-151.15 503.28,-152.91 512.54,-158.05 513.73,-151.15"/>
</a>
</g>
</g>
</g>
</svg>
