<?xml version="1.0" encoding="UTF-8" standalone="no"?>
<!DOCTYPE svg PUBLIC "-//W3C//DTD SVG 1.1//EN"
 "http://www.w3.org/Graphics/SVG/1.1/DTD/svg11.dtd">
<!-- Generated by graphviz version 2.43.0 (0)
 -->
<!-- Title: include/helios/window/event/_module.ixx Pages: 1 -->
<svg width="358pt" height="335pt"
 viewBox="0.00 0.00 358.00 335.00" xmlns="http://www.w3.org/2000/svg" xmlns:xlink="http://www.w3.org/1999/xlink">
<g id="graph0" class="graph" transform="scale(1 1) rotate(0) translate(4 331)">
<title>include/helios/window/event/_module.ixx</title>
<!-- Node1 -->
<g id="Node000001" class="node">
<title>Node1</title>
<g id="a_Node000001"><a xlink:title="Module exports for window event types and handlers.">
<polygon fill="#999999" stroke="#666666" points="188.5,-327 63.5,-327 63.5,-297 188.5,-297 188.5,-327"/>
<text text-anchor="start" x="71.5" y="-315" font-family="Helvetica,sans-Serif" font-size="10.00">include/helios/window</text>
<text text-anchor="middle" x="126" y="-304" font-family="Helvetica,sans-Serif" font-size="10.00">/event/_module.ixx</text>
</a>
</g>
</g>
<!-- Node2 -->
<g id="Node000002" class="node">
<title>Node2</title>
<g id="a_Node000002"><a xlink:href="FrameBufferResizeEvent_8ixx.html" target="_top" xlink:title="Event representing a change in the framebuffer size.">
<polygon fill="white" stroke="#666666" points="150,-261 0,-261 0,-231 150,-231 150,-261"/>
<text text-anchor="start" x="8" y="-249" font-family="Helvetica,sans-Serif" font-size="10.00">helios.window.event.Frame</text>
<text text-anchor="middle" x="75" y="-238" font-family="Helvetica,sans-Serif" font-size="10.00">BufferResizeEvent</text>
</a>
</g>
</g>
<!-- Node1&#45;&gt;Node2 -->
<g id="edge1_Node000001_Node000002" class="edge">
<title>Node1&#45;&gt;Node2</title>
<g id="a_edge1_Node000001_Node000002"><a xlink:title=" ">
<path fill="none" stroke="#63b8ff" d="M114.68,-296.8C108.21,-288.68 99.95,-278.31 92.65,-269.15"/>
<polygon fill="#63b8ff" stroke="#63b8ff" points="95.26,-266.8 86.29,-261.16 89.78,-271.17 95.26,-266.8"/>
</a>
</g>
</g>
<!-- Node7 -->
<g id="Node000007" class="node">
<title>Node7</title>
<g id="a_Node000007"><a xlink:href="WindowEvent_8ixx.html" target="_top" xlink:title="Abstract base class for window&#45;related events.">
<polygon fill="white" stroke="#666666" points="257,-195 99,-195 99,-165 257,-165 257,-195"/>
<text text-anchor="start" x="107" y="-183" font-family="Helvetica,sans-Serif" font-size="10.00">helios.window.event.Window</text>
<text text-anchor="middle" x="178" y="-172" font-family="Helvetica,sans-Serif" font-size="10.00">Event</text>
</a>
</g>
</g>
<!-- Node1&#45;&gt;Node7 -->
<g id="edge14_Node000001_Node000007" class="edge">
<title>Node1&#45;&gt;Node7</title>
<g id="a_edge14_Node000001_Node000007"><a xlink:title=" ">
<path fill="none" stroke="#63b8ff" d="M137.25,-296.9C144.42,-287.28 153.38,-273.98 159,-261 166.74,-243.12 171.62,-221.56 174.5,-205.33"/>
<polygon fill="#63b8ff" stroke="#63b8ff" points="178.02,-205.49 176.18,-195.06 171.11,-204.36 178.02,-205.49"/>
</a>
</g>
</g>
<!-- Node3 -->
<g id="Node000003" class="node">
<title>Node3</title>
<g id="a_Node000003"><a xlink:title=" ">
<polygon fill="#e0e0e0" stroke="#999999" points="119,-19 69,-19 69,0 119,0 119,-19"/>
<text text-anchor="middle" x="94" y="-7" font-family="Helvetica,sans-Serif" font-size="10.00">cstdint</text>
</a>
</g>
</g>
<!-- Node2&#45;&gt;Node3 -->
<g id="edge2_Node000002_Node000003" class="edge">
<title>Node2&#45;&gt;Node3</title>
<g id="a_edge2_Node000002_Node000003"><a xlink:title=" ">
<path fill="none" stroke="#63b8ff" d="M75.51,-230.83C76.13,-214.83 77.31,-188.02 79,-165 82.61,-115.89 88.71,-58.16 91.9,-29.15"/>
<polygon fill="#63b8ff" stroke="#63b8ff" points="95.38,-29.52 93.01,-19.2 88.43,-28.75 95.38,-29.52"/>
</a>
</g>
</g>
<!-- Node4 -->
<g id="Node000004" class="node">
<title>Node4</title>
<g id="a_Node000004"><a xlink:title=" ">
<polygon fill="#e0e0e0" stroke="#999999" points="166,-74 122,-74 122,-55 166,-55 166,-74"/>
<text text-anchor="middle" x="144" y="-62" font-family="Helvetica,sans-Serif" font-size="10.00">string</text>
</a>
</g>
</g>
<!-- Node2&#45;&gt;Node4 -->
<g id="edge3_Node000002_Node000004" class="edge">
<title>Node2&#45;&gt;Node4</title>
<g id="a_edge3_Node000002_Node000004"><a xlink:title=" ">
<path fill="none" stroke="#63b8ff" d="M76.31,-230.78C78.12,-214.51 82.1,-187.24 90,-165 100.86,-134.42 120.17,-101.9 132.52,-82.66"/>
<polygon fill="#63b8ff" stroke="#63b8ff" points="135.56,-84.4 138.11,-74.12 129.7,-80.57 135.56,-84.4"/>
</a>
</g>
</g>
<!-- Node5 -->
<g id="Node000005" class="node">
<title>Node5</title>
<g id="a_Node000005"><a xlink:href="Guid_8ixx.html" target="_top" xlink:title="Lightweight GUID (globally unique identifier) implementation.">
<polygon fill="white" stroke="#666666" points="350,-74 260,-74 260,-55 350,-55 350,-74"/>
<text text-anchor="middle" x="305" y="-62" font-family="Helvetica,sans-Serif" font-size="10.00">helios.util.Guid</text>
</a>
</g>
</g>
<!-- Node2&#45;&gt;Node5 -->
<g id="edge4_Node000002_Node000005" class="edge">
<title>Node2&#45;&gt;Node5</title>
<g id="a_edge4_Node000002_Node000005"><a xlink:title=" ">
<path fill="none" stroke="#63b8ff" d="M150.1,-242.42C189.26,-237.26 235.28,-224.62 266,-195 296.75,-165.35 303.49,-112.44 304.82,-84.3"/>
<polygon fill="#63b8ff" stroke="#63b8ff" points="308.32,-84.31 305.11,-74.21 301.32,-84.11 308.32,-84.31"/>
</a>
</g>
</g>
<!-- Node2&#45;&gt;Node7 -->
<g id="edge7_Node000002_Node000007" class="edge">
<title>Node2&#45;&gt;Node7</title>
<g id="a_edge7_Node000002_Node000007"><a xlink:title=" ">
<path fill="none" stroke="#63b8ff" d="M97.6,-230.95C111.96,-222.03 130.74,-210.36 146.55,-200.54"/>
<polygon fill="#63b8ff" stroke="#63b8ff" points="148.8,-203.26 155.45,-195.01 145.11,-197.32 148.8,-203.26"/>
</a>
</g>
</g>
<!-- Node5&#45;&gt;Node3 -->
<g id="edge6_Node000005_Node000003" class="edge">
<title>Node5&#45;&gt;Node3</title>
<g id="a_edge6_Node000005_Node000003"><a xlink:title=" ">
<path fill="none" stroke="#63b8ff" d="M271.1,-54.98C232.09,-45.19 168.36,-29.18 128.92,-19.27"/>
<polygon fill="#63b8ff" stroke="#63b8ff" points="129.76,-15.87 119.21,-16.83 128.06,-22.66 129.76,-15.87"/>
</a>
</g>
</g>
<!-- Node6 -->
<g id="Node000006" class="node">
<title>Node6</title>
<g id="a_Node000006"><a xlink:title=" ">
<polygon fill="#e0e0e0" stroke="#999999" points="330,-19 280,-19 280,0 330,0 330,-19"/>
<text text-anchor="middle" x="305" y="-7" font-family="Helvetica,sans-Serif" font-size="10.00">atomic</text>
</a>
</g>
</g>
<!-- Node5&#45;&gt;Node6 -->
<g id="edge5_Node000005_Node000006" class="edge">
<title>Node5&#45;&gt;Node6</title>
<g id="a_edge5_Node000005_Node000006"><a xlink:title=" ">
<path fill="none" stroke="#63b8ff" d="M305,-54.75C305,-47.8 305,-37.85 305,-29.13"/>
<polygon fill="#63b8ff" stroke="#63b8ff" points="308.5,-29.09 305,-19.09 301.5,-29.09 308.5,-29.09"/>
</a>
</g>
</g>
<!-- Node7&#45;&gt;Node3 -->
<g id="edge8_Node000007_Node000003" class="edge">
<title>Node7&#45;&gt;Node3</title>
<g id="a_edge8_Node000007_Node000003"><a xlink:title=" ">
<path fill="none" stroke="#63b8ff" d="M157.1,-164.86C145.41,-155.89 131.51,-143.31 123,-129 104.12,-97.25 97.51,-53.77 95.21,-29.27"/>
<polygon fill="#63b8ff" stroke="#63b8ff" points="98.69,-28.88 94.41,-19.18 91.71,-29.43 98.69,-28.88"/>
</a>
</g>
</g>
<!-- Node7&#45;&gt;Node5 -->
<g id="edge13_Node000007_Node000005" class="edge">
<title>Node7&#45;&gt;Node5</title>
<g id="a_edge13_Node000007_Node000005"><a xlink:title=" ">
<path fill="none" stroke="#63b8ff" d="M200.38,-164.85C214.6,-155.42 233.08,-142.34 248,-129 264.3,-114.42 280.76,-95.53 291.77,-82.16"/>
<polygon fill="#63b8ff" stroke="#63b8ff" points="294.59,-84.24 298.17,-74.27 289.15,-79.83 294.59,-84.24"/>
</a>
</g>
</g>
<!-- Node8 -->
<g id="Node000008" class="node">
<title>Node8</title>
<g id="a_Node000008"><a xlink:href="Event_8ixx.html" target="_top" xlink:title="Base class for events in the helios framework.">
<polygon fill="white" stroke="#666666" points="238.5,-129 131.5,-129 131.5,-110 238.5,-110 238.5,-129"/>
<text text-anchor="middle" x="185" y="-117" font-family="Helvetica,sans-Serif" font-size="10.00">helios.event.Event</text>
</a>
</g>
</g>
<!-- Node7&#45;&gt;Node8 -->
<g id="edge9_Node000007_Node000008" class="edge">
<title>Node7&#45;&gt;Node8</title>
<g id="a_edge9_Node000007_Node000008"><a xlink:title=" ">
<path fill="none" stroke="#63b8ff" d="M179.69,-164.84C180.61,-157.21 181.74,-147.7 182.73,-139.45"/>
<polygon fill="#63b8ff" stroke="#63b8ff" points="186.24,-139.61 183.95,-129.27 179.29,-138.78 186.24,-139.61"/>
</a>
</g>
</g>
<!-- Node8&#45;&gt;Node4 -->
<g id="edge11_Node000008_Node000004" class="edge">
<title>Node8&#45;&gt;Node4</title>
<g id="a_edge11_Node000008_Node000004"><a xlink:title=" ">
<path fill="none" stroke="#63b8ff" d="M178.23,-109.75C172.44,-102.26 163.94,-91.28 156.86,-82.13"/>
<polygon fill="#63b8ff" stroke="#63b8ff" points="159.53,-79.86 150.64,-74.09 153.99,-84.14 159.53,-79.86"/>
</a>
</g>
</g>
<!-- Node8&#45;&gt;Node5 -->
<g id="edge12_Node000008_Node000005" class="edge">
<title>Node8&#45;&gt;Node5</title>
<g id="a_edge12_Node000008_Node000005"><a xlink:title=" ">
<path fill="none" stroke="#63b8ff" d="M204.28,-109.98C223.67,-101.42 253.81,-88.11 276.07,-78.28"/>
<polygon fill="#63b8ff" stroke="#63b8ff" points="277.64,-81.41 285.37,-74.17 274.81,-75.01 277.64,-81.41"/>
</a>
</g>
</g>
<!-- Node9 -->
<g id="Node000009" class="node">
<title>Node9</title>
<g id="a_Node000009"><a xlink:title=" ">
<polygon fill="#e0e0e0" stroke="#999999" points="242,-74 184,-74 184,-55 242,-55 242,-74"/>
<text text-anchor="middle" x="213" y="-62" font-family="Helvetica,sans-Serif" font-size="10.00">memory</text>
</a>
</g>
</g>
<!-- Node8&#45;&gt;Node9 -->
<g id="edge10_Node000008_Node000009" class="edge">
<title>Node8&#45;&gt;Node9</title>
<g id="a_edge10_Node000008_Node000009"><a xlink:title=" ">
<path fill="none" stroke="#63b8ff" d="M189.62,-109.75C193.46,-102.49 199.02,-91.95 203.76,-82.98"/>
<polygon fill="#63b8ff" stroke="#63b8ff" points="206.89,-84.57 208.46,-74.09 200.7,-81.3 206.89,-84.57"/>
</a>
</g>
</g>
</g>
</svg>
