<?xml version="1.0" encoding="UTF-8" standalone="no"?>
<!DOCTYPE svg PUBLIC "-//W3C//DTD SVG 1.1//EN"
 "http://www.w3.org/Graphics/SVG/1.1/DTD/svg11.dtd">
<!-- Generated by graphviz version 2.43.0 (0)
 -->
<!-- Title: include/ext/imgui/ImGuiGlfwOpenGLBackend.ixx Pages: 1 -->
<svg width="565pt" height="148pt"
 viewBox="0.00 0.00 565.00 148.00" xmlns="http://www.w3.org/2000/svg" xmlns:xlink="http://www.w3.org/1999/xlink">
<g id="graph0" class="graph" transform="scale(1 1) rotate(0) translate(4 144)">
<title>include/ext/imgui/ImGuiGlfwOpenGLBackend.ixx</title>
<!-- Node1 -->
<g id="Node000001" class="node">
<title>Node1</title>
<g id="a_Node000001"><a xlink:title="GLFW+OpenGL backend implementation for ImGui rendering.">
<polygon fill="#999999" stroke="#666666" points="252,-140 97,-140 97,-110 252,-110 252,-140"/>
<text text-anchor="start" x="105" y="-128" font-family="Helvetica,sans-Serif" font-size="10.00">include/ext/imgui/ImGuiGlfw</text>
<text text-anchor="middle" x="174.5" y="-117" font-family="Helvetica,sans-Serif" font-size="10.00">OpenGLBackend.ixx</text>
</a>
</g>
</g>
<!-- Node2 -->
<g id="Node000002" class="node">
<title>Node2</title>
<g id="a_Node000002"><a xlink:title=" ">
<polygon fill="#e0e0e0" stroke="#999999" points="65,-74 0,-74 0,-55 65,-55 65,-74"/>
<text text-anchor="middle" x="32.5" y="-62" font-family="Helvetica,sans-Serif" font-size="10.00">stdexcept</text>
</a>
</g>
</g>
<!-- Node1&#45;&gt;Node2 -->
<g id="edge1_Node000001_Node000002" class="edge">
<title>Node1&#45;&gt;Node2</title>
<g id="a_edge1_Node000001_Node000002"><a xlink:title=" ">
<path fill="none" stroke="#63b8ff" d="M140.49,-109.99C116.9,-100.27 85.76,-87.44 62.98,-78.06"/>
<polygon fill="#63b8ff" stroke="#63b8ff" points="64.05,-74.71 53.47,-74.14 61.38,-81.18 64.05,-74.71"/>
</a>
</g>
</g>
<!-- Node3 -->
<g id="Node000003" class="node">
<title>Node3</title>
<g id="a_Node000003"><a xlink:title=" ">
<polygon fill="#e0e0e0" stroke="#999999" points="309,-19 256,-19 256,0 309,0 309,-19"/>
<text text-anchor="middle" x="282.5" y="-7" font-family="Helvetica,sans-Serif" font-size="10.00">imgui.h</text>
</a>
</g>
</g>
<!-- Node1&#45;&gt;Node3 -->
<g id="edge2_Node000001_Node000003" class="edge">
<title>Node1&#45;&gt;Node3</title>
<g id="a_edge2_Node000001_Node000003"><a xlink:title=" ">
<path fill="none" stroke="#63b8ff" d="M146.48,-109.74C123.53,-96.16 97.15,-74.89 112.5,-55 128.67,-34.05 201,-21.06 245.94,-14.86"/>
<polygon fill="#63b8ff" stroke="#63b8ff" points="246.46,-18.32 255.91,-13.53 245.53,-11.38 246.46,-18.32"/>
</a>
</g>
</g>
<!-- Node4 -->
<g id="Node000004" class="node">
<title>Node4</title>
<g id="a_Node000004"><a xlink:title=" ">
<polygon fill="#e0e0e0" stroke="#999999" points="227,-74 122,-74 122,-55 227,-55 227,-74"/>
<text text-anchor="middle" x="174.5" y="-62" font-family="Helvetica,sans-Serif" font-size="10.00">imgui_impl_glfw.h</text>
</a>
</g>
</g>
<!-- Node1&#45;&gt;Node4 -->
<g id="edge3_Node000001_Node000004" class="edge">
<title>Node1&#45;&gt;Node4</title>
<g id="a_edge3_Node000001_Node000004"><a xlink:title=" ">
<path fill="none" stroke="#63b8ff" d="M174.5,-109.84C174.5,-102.21 174.5,-92.7 174.5,-84.45"/>
<polygon fill="#63b8ff" stroke="#63b8ff" points="178,-84.27 174.5,-74.27 171,-84.27 178,-84.27"/>
</a>
</g>
</g>
<!-- Node5 -->
<g id="Node000005" class="node">
<title>Node5</title>
<g id="a_Node000005"><a xlink:title=" ">
<polygon fill="#e0e0e0" stroke="#999999" points="370,-74 245,-74 245,-55 370,-55 370,-74"/>
<text text-anchor="middle" x="307.5" y="-62" font-family="Helvetica,sans-Serif" font-size="10.00">imgui_impl_opengl3.h</text>
</a>
</g>
</g>
<!-- Node1&#45;&gt;Node5 -->
<g id="edge4_Node000001_Node000005" class="edge">
<title>Node1&#45;&gt;Node5</title>
<g id="a_edge4_Node000001_Node000005"><a xlink:title=" ">
<path fill="none" stroke="#63b8ff" d="M206.36,-109.99C228.35,-100.31 257.35,-87.56 278.66,-78.18"/>
<polygon fill="#63b8ff" stroke="#63b8ff" points="280.11,-81.37 287.86,-74.14 277.3,-74.96 280.11,-81.37"/>
</a>
</g>
</g>
<!-- Node6 -->
<g id="Node000006" class="node">
<title>Node6</title>
<g id="a_Node000006"><a xlink:href="ImGuiBackend_8ixx.html" target="_top" xlink:title="Abstract backend interface for ImGui integration with rendering/windowing systems.">
<polygon fill="white" stroke="#666666" points="557,-74 388,-74 388,-55 557,-55 557,-74"/>
<text text-anchor="middle" x="472.5" y="-62" font-family="Helvetica,sans-Serif" font-size="10.00">helios.ext.imgui.ImGuiBackend</text>
</a>
</g>
</g>
<!-- Node1&#45;&gt;Node6 -->
<g id="edge5_Node000001_Node000006" class="edge">
<title>Node1&#45;&gt;Node6</title>
<g id="a_edge5_Node000001_Node000006"><a xlink:title=" ">
<path fill="none" stroke="#63b8ff" d="M245.88,-109.99C299.09,-99.54 370.62,-85.5 418.98,-76.01"/>
<polygon fill="#63b8ff" stroke="#63b8ff" points="419.79,-79.41 428.93,-74.05 418.44,-72.55 419.79,-79.41"/>
</a>
</g>
</g>
<!-- Node6&#45;&gt;Node3 -->
<g id="edge6_Node000006_Node000003" class="edge">
<title>Node6&#45;&gt;Node3</title>
<g id="a_edge6_Node000006_Node000003"><a xlink:title=" ">
<path fill="none" stroke="#63b8ff" d="M441.97,-54.98C408.56,-45.66 354.99,-30.72 319.28,-20.76"/>
<polygon fill="#63b8ff" stroke="#63b8ff" points="319.84,-17.28 309.27,-17.97 317.96,-24.02 319.84,-17.28"/>
</a>
</g>
</g>
</g>
</svg>
