<?xml version="1.0" encoding="UTF-8" standalone="no"?>
<!DOCTYPE svg PUBLIC "-//W3C//DTD SVG 1.1//EN"
 "http://www.w3.org/Graphics/SVG/1.1/DTD/svg11.dtd">
<!-- Generated by graphviz version 2.43.0 (0)
 -->
<!-- Title: Graphical Class Hierarchy Pages: 1 -->
<svg width="574pt" height="830pt"
 viewBox="0.00 0.00 574.00 830.00" xmlns="http://www.w3.org/2000/svg" xmlns:xlink="http://www.w3.org/1999/xlink">
<g id="graph0" class="graph" transform="scale(1 1) rotate(0) translate(4 826)">
<title>Graphical Class Hierarchy</title>
<!-- Node0 -->
<g id="Node000000" class="node">
<title>Node0</title>
<g id="a_Node000000"><a xlink:href="classhelios_1_1engine_1_1game_1_1Component.html" target="_top" xlink:title="Abstract base class for components attached to GameObjects.">
<polygon fill="white" stroke="#666666" points="119,-301.5 0,-301.5 0,-271.5 119,-271.5 119,-301.5"/>
<text text-anchor="start" x="8" y="-289.5" font-family="Helvetica,sans-Serif" font-size="10.00">helios::engine::game</text>
<text text-anchor="middle" x="59.5" y="-278.5" font-family="Helvetica,sans-Serif" font-size="10.00">::Component</text>
</a>
</g>
</g>
<!-- Node1 -->
<g id="Node000001" class="node">
<title>Node1</title>
<g id="a_Node000001"><a xlink:href="classhelios_1_1engine_1_1game_1_1components_1_1gameplay_1_1Aim2DComponent.html" target="_top" xlink:title="Component for handling 2D aiming direction and fire frequency.">
<polygon fill="white" stroke="#666666" points="316,-395 179,-395 179,-354 316,-354 316,-395"/>
<text text-anchor="start" x="187" y="-383" font-family="Helvetica,sans-Serif" font-size="10.00">helios::engine::game</text>
<text text-anchor="start" x="187" y="-372" font-family="Helvetica,sans-Serif" font-size="10.00">::components::gameplay</text>
<text text-anchor="middle" x="247.5" y="-361" font-family="Helvetica,sans-Serif" font-size="10.00">::Aim2DComponent</text>
</a>
</g>
</g>
<!-- Node0&#45;&gt;Node1 -->
<g id="edge7_Node000000_Node000001" class="edge">
<title>Node0&#45;&gt;Node1</title>
<g id="a_edge7_Node000000_Node000001"><a xlink:title=" ">
<path fill="none" stroke="#63b8ff" d="M90.24,-307.24C108.36,-319.25 132.33,-334 155,-344.5 162.59,-348.01 170.7,-351.3 178.84,-354.31"/>
<polygon fill="#63b8ff" stroke="#63b8ff" points="92.09,-304.27 81.84,-301.6 88.19,-310.08 92.09,-304.27"/>
</a>
</g>
</g>
<!-- Node2 -->
<g id="Node000002" class="node">
<title>Node2</title>
<g id="a_Node000002"><a xlink:href="classhelios_1_1engine_1_1game_1_1components_1_1gameplay_1_1ShootComponent.html" target="_top" xlink:title="Component for handling projectile shooting with rate limiting.">
<polygon fill="white" stroke="#666666" points="316,-513 179,-513 179,-472 316,-472 316,-513"/>
<text text-anchor="start" x="187" y="-501" font-family="Helvetica,sans-Serif" font-size="10.00">helios::engine::game</text>
<text text-anchor="start" x="187" y="-490" font-family="Helvetica,sans-Serif" font-size="10.00">::components::gameplay</text>
<text text-anchor="middle" x="247.5" y="-479" font-family="Helvetica,sans-Serif" font-size="10.00">::ShootComponent</text>
</a>
</g>
</g>
<!-- Node0&#45;&gt;Node2 -->
<g id="edge8_Node000000_Node000002" class="edge">
<title>Node0&#45;&gt;Node2</title>
<g id="a_edge8_Node000000_Node000002"><a xlink:title=" ">
<path fill="none" stroke="#63b8ff" d="M67.34,-311.45C79.02,-349.47 106.4,-421.78 155,-462.5 162.05,-468.41 170.29,-473.16 178.89,-476.98"/>
<polygon fill="#63b8ff" stroke="#63b8ff" points="70.65,-310.28 64.46,-301.69 63.93,-312.27 70.65,-310.28"/>
</a>
</g>
</g>
<!-- Node13 -->
<g id="Node000013" class="node">
<title>Node13</title>
<g id="a_Node000013"><a xlink:href="classhelios_1_1engine_1_1game_1_1components_1_1input_1_1TwinStickInputComponent.html" target="_top" xlink:title="Input component for twin&#45;stick gamepad control schemes.">
<polygon fill="white" stroke="#666666" points="319,-572 176,-572 176,-531 319,-531 319,-572"/>
<text text-anchor="start" x="184" y="-560" font-family="Helvetica,sans-Serif" font-size="10.00">helios::engine::game</text>
<text text-anchor="start" x="184" y="-549" font-family="Helvetica,sans-Serif" font-size="10.00">::components::input::</text>
<text text-anchor="middle" x="247.5" y="-538" font-family="Helvetica,sans-Serif" font-size="10.00">TwinStickInputComponent</text>
</a>
</g>
</g>
<!-- Node0&#45;&gt;Node13 -->
<g id="edge9_Node000000_Node000013" class="edge">
<title>Node0&#45;&gt;Node13</title>
<g id="a_edge9_Node000000_Node000013"><a xlink:title=" ">
<path fill="none" stroke="#63b8ff" d="M63.52,-311.84C70.57,-359.87 92.59,-464.55 155,-522.5 161.11,-528.17 168.32,-532.73 175.97,-536.4"/>
<polygon fill="#63b8ff" stroke="#63b8ff" points="66.95,-311.12 62.13,-301.69 60.02,-312.07 66.95,-311.12"/>
</a>
</g>
</g>
<!-- Node14 -->
<g id="Node000014" class="node">
<title>Node14</title>
<g id="a_Node000014"><a xlink:href="classhelios_1_1engine_1_1game_1_1components_1_1model_1_1ModelAabbComponent.html" target="_top" xlink:title="Component that stores the canonical Axis&#45;Aligned Bounding Box (AABB) of a model.">
<polygon fill="white" stroke="#666666" points="311.5,-336 183.5,-336 183.5,-295 311.5,-295 311.5,-336"/>
<text text-anchor="start" x="191.5" y="-324" font-family="Helvetica,sans-Serif" font-size="10.00">helios::engine::game</text>
<text text-anchor="start" x="191.5" y="-313" font-family="Helvetica,sans-Serif" font-size="10.00">::components::model::</text>
<text text-anchor="middle" x="247.5" y="-302" font-family="Helvetica,sans-Serif" font-size="10.00">ModelAabbComponent</text>
</a>
</g>
</g>
<!-- Node0&#45;&gt;Node14 -->
<g id="edge10_Node000000_Node000014" class="edge">
<title>Node0&#45;&gt;Node14</title>
<g id="a_edge10_Node000000_Node000014"><a xlink:title=" ">
<path fill="none" stroke="#63b8ff" d="M129.35,-297.23C147.04,-299.99 165.98,-302.95 183.37,-305.66"/>
<polygon fill="#63b8ff" stroke="#63b8ff" points="129.52,-293.72 119.1,-295.64 128.44,-300.63 129.52,-293.72"/>
</a>
</g>
</g>
<!-- Node15 -->
<g id="Node000015" class="node">
<title>Node15</title>
<g id="a_Node000015"><a xlink:href="classhelios_1_1engine_1_1game_1_1components_1_1physics_1_1AabbColliderComponent.html" target="_top" xlink:title="Component that defines an Axis&#45;Aligned Bounding Box (AABB) for physics interactions.">
<polygon fill="white" stroke="#666666" points="318,-277 177,-277 177,-236 318,-236 318,-277"/>
<text text-anchor="start" x="185" y="-265" font-family="Helvetica,sans-Serif" font-size="10.00">helios::engine::game</text>
<text text-anchor="start" x="185" y="-254" font-family="Helvetica,sans-Serif" font-size="10.00">::components::physics</text>
<text text-anchor="middle" x="247.5" y="-243" font-family="Helvetica,sans-Serif" font-size="10.00">::AabbColliderComponent</text>
</a>
</g>
</g>
<!-- Node0&#45;&gt;Node15 -->
<g id="edge11_Node000000_Node000015" class="edge">
<title>Node0&#45;&gt;Node15</title>
<g id="a_edge11_Node000000_Node000015"><a xlink:title=" ">
<path fill="none" stroke="#63b8ff" d="M129.15,-275.43C144.69,-272.92 161.21,-270.26 176.8,-267.74"/>
<polygon fill="#63b8ff" stroke="#63b8ff" points="128.41,-272 119.1,-277.05 129.53,-278.91 128.41,-272"/>
</a>
</g>
</g>
<!-- Node16 -->
<g id="Node000016" class="node">
<title>Node16</title>
<g id="a_Node000016"><a xlink:href="classhelios_1_1engine_1_1game_1_1components_1_1physics_1_1LevelBoundsBehaviorComponent.html" target="_top" xlink:title="Component that defines how an entity reacts to level boundaries.">
<polygon fill="white" stroke="#666666" points="340,-218 155,-218 155,-177 340,-177 340,-218"/>
<text text-anchor="start" x="163" y="-206" font-family="Helvetica,sans-Serif" font-size="10.00">helios::engine::game</text>
<text text-anchor="start" x="163" y="-195" font-family="Helvetica,sans-Serif" font-size="10.00">::components::physics</text>
<text text-anchor="middle" x="247.5" y="-184" font-family="Helvetica,sans-Serif" font-size="10.00">::LevelBoundsBehaviorComponent</text>
</a>
</g>
</g>
<!-- Node0&#45;&gt;Node16 -->
<g id="edge12_Node000000_Node000016" class="edge">
<title>Node0&#45;&gt;Node16</title>
<g id="a_edge12_Node000000_Node000016"><a xlink:title=" ">
<path fill="none" stroke="#63b8ff" d="M89.38,-265.39C107.54,-252.83 131.84,-237.3 155,-226.5 161.49,-223.47 168.39,-220.64 175.36,-218.03"/>
<polygon fill="#63b8ff" stroke="#63b8ff" points="87.17,-262.67 81,-271.28 91.19,-268.4 87.17,-262.67"/>
</a>
</g>
</g>
<!-- Node17 -->
<g id="Node000017" class="node">
<title>Node17</title>
<g id="a_Node000017"><a xlink:href="classhelios_1_1engine_1_1game_1_1components_1_1physics_1_1Move2DComponent.html" target="_top" xlink:title="Component for 2D physics&#45;based movement with rotation.">
<polygon fill="white" stroke="#666666" points="310,-159 185,-159 185,-118 310,-118 310,-159"/>
<text text-anchor="start" x="193" y="-147" font-family="Helvetica,sans-Serif" font-size="10.00">helios::engine::game</text>
<text text-anchor="start" x="193" y="-136" font-family="Helvetica,sans-Serif" font-size="10.00">::components::physics</text>
<text text-anchor="middle" x="247.5" y="-125" font-family="Helvetica,sans-Serif" font-size="10.00">::Move2DComponent</text>
</a>
</g>
</g>
<!-- Node0&#45;&gt;Node17 -->
<g id="edge13_Node000000_Node000017" class="edge">
<title>Node0&#45;&gt;Node17</title>
<g id="a_edge13_Node000000_Node000017"><a xlink:title=" ">
<path fill="none" stroke="#63b8ff" d="M73.59,-262.55C89.46,-235.66 118.66,-192.54 155,-167.5 163.92,-161.35 174.21,-156.46 184.6,-152.58"/>
<polygon fill="#63b8ff" stroke="#63b8ff" points="70.49,-260.91 68.54,-271.33 76.56,-264.4 70.49,-260.91"/>
</a>
</g>
</g>
<!-- Node18 -->
<g id="Node000018" class="node">
<title>Node18</title>
<g id="a_Node000018"><a xlink:href="classhelios_1_1engine_1_1game_1_1components_1_1physics_1_1ScaleComponent.html" target="_top" xlink:title="Component that defines the physical dimensions (scale) of an entity.">
<polygon fill="white" stroke="#666666" points="310,-100 185,-100 185,-59 310,-59 310,-100"/>
<text text-anchor="start" x="193" y="-88" font-family="Helvetica,sans-Serif" font-size="10.00">helios::engine::game</text>
<text text-anchor="start" x="193" y="-77" font-family="Helvetica,sans-Serif" font-size="10.00">::components::physics</text>
<text text-anchor="middle" x="247.5" y="-66" font-family="Helvetica,sans-Serif" font-size="10.00">::ScaleComponent</text>
</a>
</g>
</g>
<!-- Node0&#45;&gt;Node18 -->
<g id="edge14_Node000000_Node000018" class="edge">
<title>Node0&#45;&gt;Node18</title>
<g id="a_edge14_Node000000_Node000018"><a xlink:title=" ">
<path fill="none" stroke="#63b8ff" d="M67.12,-261.5C78.58,-223.05 105.74,-149.55 155,-108.5 163.58,-101.35 173.93,-95.96 184.55,-91.89"/>
<polygon fill="#63b8ff" stroke="#63b8ff" points="63.69,-260.79 64.3,-271.36 70.42,-262.71 63.69,-260.79"/>
</a>
</g>
</g>
<!-- Node19 -->
<g id="Node000019" class="node">
<title>Node19</title>
<g id="a_Node000019"><a xlink:href="classhelios_1_1engine_1_1game_1_1components_1_1physics_1_1TransformComponent.html" target="_top" xlink:title="Component that holds transformation data (position, rotation, scale).">
<polygon fill="white" stroke="#666666" points="311.5,-41 183.5,-41 183.5,0 311.5,0 311.5,-41"/>
<text text-anchor="start" x="191.5" y="-29" font-family="Helvetica,sans-Serif" font-size="10.00">helios::engine::game</text>
<text text-anchor="start" x="191.5" y="-18" font-family="Helvetica,sans-Serif" font-size="10.00">::components::physics</text>
<text text-anchor="middle" x="247.5" y="-7" font-family="Helvetica,sans-Serif" font-size="10.00">::TransformComponent</text>
</a>
</g>
</g>
<!-- Node0&#45;&gt;Node19 -->
<g id="edge15_Node000000_Node000019" class="edge">
<title>Node0&#45;&gt;Node19</title>
<g id="a_edge15_Node000000_Node000019"><a xlink:title=" ">
<path fill="none" stroke="#63b8ff" d="M63.48,-261.06C70.48,-212.83 92.41,-107.71 155,-49.5 163.05,-42.01 173.04,-36.45 183.42,-32.33"/>
<polygon fill="#63b8ff" stroke="#63b8ff" points="59.98,-260.87 62.11,-271.25 66.91,-261.81 59.98,-260.87"/>
</a>
</g>
</g>
<!-- Node20 -->
<g id="Node000020" class="node">
<title>Node20</title>
<g id="a_Node000020"><a xlink:href="classhelios_1_1engine_1_1game_1_1components_1_1scene_1_1SceneNodeComponent.html" target="_top" xlink:title="Component that links a GameObject to a SceneNode in the scene graph.">
<polygon fill="white" stroke="#666666" points="311.5,-454 183.5,-454 183.5,-413 311.5,-413 311.5,-454"/>
<text text-anchor="start" x="191.5" y="-442" font-family="Helvetica,sans-Serif" font-size="10.00">helios::engine::game</text>
<text text-anchor="start" x="191.5" y="-431" font-family="Helvetica,sans-Serif" font-size="10.00">::components::scene::</text>
<text text-anchor="middle" x="247.5" y="-420" font-family="Helvetica,sans-Serif" font-size="10.00">SceneNodeComponent</text>
</a>
</g>
</g>
<!-- Node0&#45;&gt;Node20 -->
<g id="edge16_Node000000_Node000020" class="edge">
<title>Node0&#45;&gt;Node20</title>
<g id="a_edge16_Node000000_Node000020"><a xlink:title=" ">
<path fill="none" stroke="#63b8ff" d="M73.99,-310.4C90.05,-336.8 119.25,-378.82 155,-403.5 163.53,-409.39 173.3,-414.18 183.2,-418.07"/>
<polygon fill="#63b8ff" stroke="#63b8ff" points="76.98,-308.59 68.87,-301.77 70.96,-312.16 76.98,-308.59"/>
</a>
</g>
</g>
<!-- Node3 -->
<g id="Node000003" class="node">
<title>Node3</title>
<g id="a_Node000003"><a xlink:href="classhelios_1_1engine_1_1game_1_1Updatable.html" target="_top" xlink:title="Interface for components that require per&#45;frame updates.">
<polygon fill="white" stroke="#666666" points="119,-566.5 0,-566.5 0,-536.5 119,-536.5 119,-566.5"/>
<text text-anchor="start" x="8" y="-554.5" font-family="Helvetica,sans-Serif" font-size="10.00">helios::engine::game</text>
<text text-anchor="middle" x="59.5" y="-543.5" font-family="Helvetica,sans-Serif" font-size="10.00">::Updatable</text>
</a>
</g>
</g>
<!-- Node3&#45;&gt;Node2 -->
<g id="edge26_Node000003_Node000002" class="edge">
<title>Node3&#45;&gt;Node2</title>
<g id="a_edge26_Node000003_Node000002"><a xlink:title=" ">
<path fill="none" stroke="#63b8ff" d="M117.62,-533.38C137.86,-526.96 160.78,-519.69 181.63,-513.08"/>
<polygon fill="#63b8ff" stroke="#63b8ff" points="116.39,-530.1 107.92,-536.46 118.51,-536.77 116.39,-530.1"/>
</a>
</g>
</g>
<!-- Node3&#45;&gt;Node13 -->
<g id="edge27_Node000003_Node000013" class="edge">
<title>Node3&#45;&gt;Node13</title>
<g id="a_edge27_Node000003_Node000013"><a xlink:title=" ">
<path fill="none" stroke="#63b8ff" d="M129.41,-551.5C144.55,-551.5 160.6,-551.5 175.8,-551.5"/>
<polygon fill="#63b8ff" stroke="#63b8ff" points="129.1,-548 119.1,-551.5 129.1,-555 129.1,-548"/>
</a>
</g>
</g>
<!-- Node4 -->
<g id="Node000004" class="node">
<title>Node4</title>
<g id="a_Node000004"><a xlink:href="classhelios_1_1engine_1_1game_1_1System.html" target="_top" xlink:title="Abstract base class for game systems.">
<polygon fill="white" stroke="#666666" points="307,-620.5 188,-620.5 188,-590.5 307,-590.5 307,-620.5"/>
<text text-anchor="start" x="196" y="-608.5" font-family="Helvetica,sans-Serif" font-size="10.00">helios::engine::game</text>
<text text-anchor="middle" x="247.5" y="-597.5" font-family="Helvetica,sans-Serif" font-size="10.00">::System</text>
</a>
</g>
</g>
<!-- Node3&#45;&gt;Node4 -->
<g id="edge17_Node000003_Node000004" class="edge">
<title>Node3&#45;&gt;Node4</title>
<g id="a_edge17_Node000003_Node000004"><a xlink:title=" ">
<path fill="none" stroke="#63b8ff" d="M116.07,-569.66C128.82,-573.68 142.35,-577.84 155,-581.5 165.57,-584.56 176.87,-587.66 187.8,-590.58"/>
<polygon fill="#63b8ff" stroke="#63b8ff" points="117.09,-566.31 106.5,-566.62 114.97,-572.98 117.09,-566.31"/>
</a>
</g>
</g>
<!-- Node5 -->
<g id="Node000005" class="node">
<title>Node5</title>
<g id="a_Node000005"><a xlink:href="classhelios_1_1engine_1_1game_1_1systems_1_1gameplay_1_1ProjectilePoolSystem.html" target="_top" xlink:title="Object pool system for efficient projectile spawning and lifecycle management.">
<polygon fill="white" stroke="#666666" points="533,-822 409,-822 409,-781 533,-781 533,-822"/>
<text text-anchor="start" x="417" y="-810" font-family="Helvetica,sans-Serif" font-size="10.00">helios::engine::game</text>
<text text-anchor="start" x="417" y="-799" font-family="Helvetica,sans-Serif" font-size="10.00">::systems::gameplay::</text>
<text text-anchor="middle" x="471" y="-788" font-family="Helvetica,sans-Serif" font-size="10.00">ProjectilePoolSystem</text>
</a>
</g>
</g>
<!-- Node4&#45;&gt;Node5 -->
<g id="edge18_Node000004_Node000005" class="edge">
<title>Node4&#45;&gt;Node5</title>
<g id="a_edge18_Node000004_Node000005"><a xlink:title=" ">
<path fill="none" stroke="#63b8ff" d="M260.73,-629.92C280.19,-666.32 321.62,-734.57 376,-772.5 385.81,-779.34 397.28,-784.61 408.77,-788.65"/>
<polygon fill="#63b8ff" stroke="#63b8ff" points="263.78,-628.21 256.05,-620.97 257.58,-631.45 263.78,-628.21"/>
</a>
</g>
</g>
<!-- Node6 -->
<g id="Node000006" class="node">
<title>Node6</title>
<g id="a_Node000006"><a xlink:href="classhelios_1_1engine_1_1game_1_1systems_1_1physics_1_1BoundsUpdateSystem.html" target="_top" xlink:title="System that updates AABB colliders based on entity world transforms.">
<polygon fill="white" stroke="#666666" points="563,-763 379,-763 379,-722 563,-722 563,-763"/>
<text text-anchor="start" x="387" y="-751" font-family="Helvetica,sans-Serif" font-size="10.00">helios::engine::game</text>
<text text-anchor="start" x="387" y="-740" font-family="Helvetica,sans-Serif" font-size="10.00">::systems::physics::BoundsUpdate</text>
<text text-anchor="middle" x="471" y="-729" font-family="Helvetica,sans-Serif" font-size="10.00">System</text>
</a>
</g>
</g>
<!-- Node4&#45;&gt;Node6 -->
<g id="edge19_Node000004_Node000006" class="edge">
<title>Node4&#45;&gt;Node6</title>
<g id="a_edge19_Node000004_Node000006"><a xlink:title=" ">
<path fill="none" stroke="#63b8ff" d="M269.41,-627.97C293.12,-652.23 333.98,-690.49 376,-713.5 381.54,-716.54 387.45,-719.3 393.49,-721.81"/>
<polygon fill="#63b8ff" stroke="#63b8ff" points="271.79,-625.39 262.33,-620.62 266.75,-630.25 271.79,-625.39"/>
</a>
</g>
</g>
<!-- Node7 -->
<g id="Node000007" class="node">
<title>Node7</title>
<g id="a_Node000007"><a xlink:href="classhelios_1_1engine_1_1game_1_1systems_1_1physics_1_1LevelBoundsBehaviorSystem.html" target="_top" xlink:title="System that handles entity behavior when colliding with level boundaries.">
<polygon fill="white" stroke="#666666" points="558.5,-704 383.5,-704 383.5,-663 558.5,-663 558.5,-704"/>
<text text-anchor="start" x="391.5" y="-692" font-family="Helvetica,sans-Serif" font-size="10.00">helios::engine::game</text>
<text text-anchor="start" x="391.5" y="-681" font-family="Helvetica,sans-Serif" font-size="10.00">::systems::physics::LevelBounds</text>
<text text-anchor="middle" x="471" y="-670" font-family="Helvetica,sans-Serif" font-size="10.00">BehaviorSystem</text>
</a>
</g>
</g>
<!-- Node4&#45;&gt;Node7 -->
<g id="edge20_Node000004_Node000007" class="edge">
<title>Node4&#45;&gt;Node7</title>
<g id="a_edge20_Node000004_Node000007"><a xlink:title=" ">
<path fill="none" stroke="#63b8ff" d="M296.33,-624.17C320.17,-633.3 349.49,-644.29 376,-653.5 385.06,-656.65 394.66,-659.86 404.12,-662.95"/>
<polygon fill="#63b8ff" stroke="#63b8ff" points="297.4,-620.83 286.81,-620.51 294.89,-627.36 297.4,-620.83"/>
</a>
</g>
</g>
<!-- Node8 -->
<g id="Node000008" class="node">
<title>Node8</title>
<g id="a_Node000008"><a xlink:href="classhelios_1_1engine_1_1game_1_1systems_1_1physics_1_1Move2DSystem.html" target="_top" xlink:title="System that processes 2D movement and rotation for entities.">
<polygon fill="white" stroke="#666666" points="566,-644.5 376,-644.5 376,-614.5 566,-614.5 566,-644.5"/>
<text text-anchor="start" x="384" y="-632.5" font-family="Helvetica,sans-Serif" font-size="10.00">helios::engine::game</text>
<text text-anchor="middle" x="471" y="-621.5" font-family="Helvetica,sans-Serif" font-size="10.00">::systems::physics::Move2DSystem</text>
</a>
</g>
</g>
<!-- Node4&#45;&gt;Node8 -->
<g id="edge21_Node000004_Node000008" class="edge">
<title>Node4&#45;&gt;Node8</title>
<g id="a_edge21_Node000004_Node000008"><a xlink:title=" ">
<path fill="none" stroke="#63b8ff" d="M317.35,-612.96C335.85,-614.96 356.18,-617.17 375.8,-619.29"/>
<polygon fill="#63b8ff" stroke="#63b8ff" points="317.6,-609.47 307.28,-611.87 316.84,-616.43 317.6,-609.47"/>
</a>
</g>
</g>
<!-- Node9 -->
<g id="Node000009" class="node">
<title>Node9</title>
<g id="a_Node000009"><a xlink:href="classhelios_1_1engine_1_1game_1_1systems_1_1physics_1_1ScaleSystem.html" target="_top" xlink:title="System that applies scaling to entities based on their ScaleComponent.">
<polygon fill="white" stroke="#666666" points="559,-596.5 383,-596.5 383,-566.5 559,-566.5 559,-596.5"/>
<text text-anchor="start" x="391" y="-584.5" font-family="Helvetica,sans-Serif" font-size="10.00">helios::engine::game</text>
<text text-anchor="middle" x="471" y="-573.5" font-family="Helvetica,sans-Serif" font-size="10.00">::systems::physics::ScaleSystem</text>
</a>
</g>
</g>
<!-- Node4&#45;&gt;Node9 -->
<g id="edge22_Node000004_Node000009" class="edge">
<title>Node4&#45;&gt;Node9</title>
<g id="a_edge22_Node000004_Node000009"><a xlink:title=" ">
<path fill="none" stroke="#63b8ff" d="M317.28,-598.05C338.07,-595.79 361.18,-593.29 382.99,-590.93"/>
<polygon fill="#63b8ff" stroke="#63b8ff" points="316.84,-594.57 307.28,-599.13 317.6,-601.53 316.84,-594.57"/>
</a>
</g>
</g>
<!-- Node10 -->
<g id="Node000010" class="node">
<title>Node10</title>
<g id="a_Node000010"><a xlink:href="classhelios_1_1engine_1_1game_1_1systems_1_1post_1_1ScaleClearSystem.html" target="_top" xlink:title="System that clears the dirty state of ScaleComponents at the end of a frame.">
<polygon fill="white" stroke="#666666" points="545.5,-548 396.5,-548 396.5,-507 545.5,-507 545.5,-548"/>
<text text-anchor="start" x="404.5" y="-536" font-family="Helvetica,sans-Serif" font-size="10.00">helios::engine::game</text>
<text text-anchor="start" x="404.5" y="-525" font-family="Helvetica,sans-Serif" font-size="10.00">::systems::post::ScaleClear</text>
<text text-anchor="middle" x="471" y="-514" font-family="Helvetica,sans-Serif" font-size="10.00">System</text>
</a>
</g>
</g>
<!-- Node4&#45;&gt;Node10 -->
<g id="edge23_Node000004_Node000010" class="edge">
<title>Node4&#45;&gt;Node10</title>
<g id="a_edge23_Node000004_Node000010"><a xlink:title=" ">
<path fill="none" stroke="#63b8ff" d="M316.8,-590.28C324.76,-587.72 332.65,-584.8 340,-581.5 357.54,-573.62 358.67,-565.84 376,-557.5 383.1,-554.08 390.68,-550.93 398.35,-548.04"/>
<polygon fill="#63b8ff" stroke="#63b8ff" points="315.65,-586.97 307.1,-593.22 317.68,-593.67 315.65,-586.97"/>
</a>
</g>
</g>
<!-- Node11 -->
<g id="Node000011" class="node">
<title>Node11</title>
<g id="a_Node000011"><a xlink:href="classhelios_1_1engine_1_1game_1_1systems_1_1post_1_1TransformClearSystem.html" target="_top" xlink:title="System that clears the dirty state of TransformComponents at the end of a frame.">
<polygon fill="white" stroke="#666666" points="556.5,-489 385.5,-489 385.5,-448 556.5,-448 556.5,-489"/>
<text text-anchor="start" x="393.5" y="-477" font-family="Helvetica,sans-Serif" font-size="10.00">helios::engine::game</text>
<text text-anchor="start" x="393.5" y="-466" font-family="Helvetica,sans-Serif" font-size="10.00">::systems::post::TransformClear</text>
<text text-anchor="middle" x="471" y="-455" font-family="Helvetica,sans-Serif" font-size="10.00">System</text>
</a>
</g>
</g>
<!-- Node4&#45;&gt;Node11 -->
<g id="edge24_Node000004_Node000011" class="edge">
<title>Node4&#45;&gt;Node11</title>
<g id="a_edge24_Node000004_Node000011"><a xlink:title=" ">
<path fill="none" stroke="#63b8ff" d="M316.7,-595.13C325.16,-591.76 333.21,-587.33 340,-581.5 370.52,-555.32 346.18,-525.47 376,-498.5 379.94,-494.94 384.3,-491.8 388.93,-489.03"/>
<polygon fill="#63b8ff" stroke="#63b8ff" points="315.31,-591.91 307.02,-598.5 317.62,-598.52 315.31,-591.91"/>
</a>
</g>
</g>
<!-- Node12 -->
<g id="Node000012" class="node">
<title>Node12</title>
<g id="a_Node000012"><a xlink:href="classhelios_1_1engine_1_1game_1_1systems_1_1scene_1_1SceneSyncSystem.html" target="_top" xlink:title="System that synchronizes TransformComponents with SceneNodes.">
<polygon fill="white" stroke="#666666" points="549.5,-430 392.5,-430 392.5,-389 549.5,-389 549.5,-430"/>
<text text-anchor="start" x="400.5" y="-418" font-family="Helvetica,sans-Serif" font-size="10.00">helios::engine::game</text>
<text text-anchor="start" x="400.5" y="-407" font-family="Helvetica,sans-Serif" font-size="10.00">::systems::scene::SceneSync</text>
<text text-anchor="middle" x="471" y="-396" font-family="Helvetica,sans-Serif" font-size="10.00">System</text>
</a>
</g>
</g>
<!-- Node4&#45;&gt;Node12 -->
<g id="edge25_Node000004_Node000012" class="edge">
<title>Node4&#45;&gt;Node12</title>
<g id="a_edge25_Node000004_Node000012"><a xlink:title=" ">
<path fill="none" stroke="#63b8ff" d="M316.68,-596.51C325.35,-592.95 333.47,-588.1 340,-581.5 386.11,-534.93 330.89,-486.05 376,-438.5 380.7,-433.54 386.23,-429.43 392.21,-426.01"/>
<polygon fill="#63b8ff" stroke="#63b8ff" points="315.37,-593.26 307.1,-599.89 317.69,-599.87 315.37,-593.26"/>
</a>
</g>
</g>
</g>
</svg>
