<?xml version="1.0" encoding="UTF-8" standalone="no"?>
<!DOCTYPE svg PUBLIC "-//W3C//DTD SVG 1.1//EN"
 "http://www.w3.org/Graphics/SVG/1.1/DTD/svg11.dtd">
<!-- Generated by graphviz version 2.43.0 (0)
 -->
<!-- Title: Graphical Class Hierarchy Pages: 1 -->
<svg width="458pt" height="38pt"
 viewBox="0.00 0.00 458.00 38.00" xmlns="http://www.w3.org/2000/svg" xmlns:xlink="http://www.w3.org/1999/xlink">
<g id="graph0" class="graph" transform="scale(1 1) rotate(0) translate(4 34)">
<title>Graphical Class Hierarchy</title>
<!-- Node0 -->
<g id="Node000000" class="node">
<title>Node0</title>
<g id="a_Node000000"><a xlink:href="classhelios_1_1event_1_1Event.html" target="_top" xlink:title="Base class for events in the helios framework.">
<polygon fill="white" stroke="#666666" points="113,-24.5 0,-24.5 0,-5.5 113,-5.5 113,-24.5"/>
<text text-anchor="middle" x="56.5" y="-12.5" font-family="Helvetica,sans-Serif" font-size="10.00">helios::event::Event</text>
</a>
</g>
</g>
<!-- Node1 -->
<g id="Node000001" class="node">
<title>Node1</title>
<g id="a_Node000001"><a xlink:href="classhelios_1_1window_1_1event_1_1WindowEvent.html" target="_top" xlink:title="Abstract base class for Window related events.">
<polygon fill="white" stroke="#666666" points="271,-30 149,-30 149,0 271,0 271,-30"/>
<text text-anchor="start" x="157" y="-18" font-family="Helvetica,sans-Serif" font-size="10.00">helios::window::event</text>
<text text-anchor="middle" x="210" y="-7" font-family="Helvetica,sans-Serif" font-size="10.00">::WindowEvent</text>
</a>
</g>
</g>
<!-- Node0&#45;&gt;Node1 -->
<g id="edge28_Node000000_Node000001" class="edge">
<title>Node0&#45;&gt;Node1</title>
<g id="a_edge28_Node000000_Node000001"><a xlink:title=" ">
<path fill="none" stroke="#63b8ff" d="M123.3,-15C131.8,-15 140.46,-15 148.86,-15"/>
<polygon fill="#63b8ff" stroke="#63b8ff" points="123.05,-11.5 113.05,-15 123.05,-18.5 123.05,-11.5"/>
</a>
</g>
</g>
<!-- Node2 -->
<g id="Node000002" class="node">
<title>Node2</title>
<g id="a_Node000002"><a xlink:href="classhelios_1_1window_1_1event_1_1FrameBufferResizeEvent.html" target="_top" xlink:title="Event representing a change in the framebuffer&#39;s size.">
<polygon fill="white" stroke="#666666" points="450,-30 307,-30 307,0 450,0 450,-30"/>
<text text-anchor="start" x="315" y="-18" font-family="Helvetica,sans-Serif" font-size="10.00">helios::window::event</text>
<text text-anchor="middle" x="378.5" y="-7" font-family="Helvetica,sans-Serif" font-size="10.00">::FrameBufferResizeEvent</text>
</a>
</g>
</g>
<!-- Node1&#45;&gt;Node2 -->
<g id="edge29_Node000001_Node000002" class="edge">
<title>Node1&#45;&gt;Node2</title>
<g id="a_edge29_Node000001_Node000002"><a xlink:title=" ">
<path fill="none" stroke="#63b8ff" d="M281.35,-15C289.83,-15 298.51,-15 306.99,-15"/>
<polygon fill="#63b8ff" stroke="#63b8ff" points="281.11,-11.5 271.11,-15 281.11,-18.5 281.11,-11.5"/>
</a>
</g>
</g>
</g>
</svg>
