<?xml version="1.0" encoding="UTF-8" standalone="no"?>
<!DOCTYPE svg PUBLIC "-//W3C//DTD SVG 1.1//EN"
 "http://www.w3.org/Graphics/SVG/1.1/DTD/svg11.dtd">
<!-- Generated by graphviz version 2.43.0 (0)
 -->
<!-- Title: Graphical Class Hierarchy Pages: 1 -->
<svg width="240pt" height="86pt"
 viewBox="0.00 0.00 240.00 86.00" xmlns="http://www.w3.org/2000/svg" xmlns:xlink="http://www.w3.org/1999/xlink">
<g id="graph0" class="graph" transform="scale(1 1) rotate(0) translate(4 82)">
<title>Graphical Class Hierarchy</title>
<!-- Node0 -->
<g id="Node000000" class="node">
<title>Node0</title>
<g id="a_Node000000"><a xlink:href="classhelios_1_1util_1_1log_1_1LogSink.html" target="_top" xlink:title="Abstract sink interface for log message output.">
<polygon fill="white" stroke="#666666" points="95,-54 0,-54 0,-24 95,-24 95,-54"/>
<text text-anchor="start" x="8" y="-42" font-family="Helvetica,sans-Serif" font-size="10.00">helios::util::log::</text>
<text text-anchor="middle" x="47.5" y="-31" font-family="Helvetica,sans-Serif" font-size="10.00">LogSink</text>
</a>
</g>
</g>
<!-- Node1 -->
<g id="Node000001" class="node">
<title>Node1</title>
<g id="a_Node000001"><a xlink:href="classhelios_1_1ext_1_1imgui_1_1ImGuiLogSink.html" target="_top" xlink:title="LogSink implementation that forwards messages to a LogWidget.">
<polygon fill="white" stroke="#666666" points="232,-78 131,-78 131,-48 232,-48 232,-78"/>
<text text-anchor="start" x="139" y="-66" font-family="Helvetica,sans-Serif" font-size="10.00">helios::ext::imgui</text>
<text text-anchor="middle" x="181.5" y="-55" font-family="Helvetica,sans-Serif" font-size="10.00">::ImGuiLogSink</text>
</a>
</g>
</g>
<!-- Node0&#45;&gt;Node1 -->
<g id="edge54_Node000000_Node000001" class="edge">
<title>Node0&#45;&gt;Node1</title>
<g id="a_edge54_Node000000_Node000001"><a xlink:title=" ">
<path fill="none" stroke="#63b8ff" d="M104.98,-49.27C113.57,-50.83 122.37,-52.43 130.8,-53.96"/>
<polygon fill="#63b8ff" stroke="#63b8ff" points="105.5,-45.81 95.04,-47.46 104.25,-52.69 105.5,-45.81"/>
</a>
</g>
</g>
<!-- Node2 -->
<g id="Node000002" class="node">
<title>Node2</title>
<g id="a_Node000002"><a xlink:href="classhelios_1_1util_1_1log_1_1ConsoleSink.html" target="_top" xlink:title="LogSink implementation that writes to standard output.">
<polygon fill="white" stroke="#666666" points="229,-30 134,-30 134,0 229,0 229,-30"/>
<text text-anchor="start" x="142" y="-18" font-family="Helvetica,sans-Serif" font-size="10.00">helios::util::log::</text>
<text text-anchor="middle" x="181.5" y="-7" font-family="Helvetica,sans-Serif" font-size="10.00">ConsoleSink</text>
</a>
</g>
</g>
<!-- Node0&#45;&gt;Node2 -->
<g id="edge55_Node000000_Node000002" class="edge">
<title>Node0&#45;&gt;Node2</title>
<g id="a_edge55_Node000000_Node000002"><a xlink:title=" ">
<path fill="none" stroke="#63b8ff" d="M104.97,-28.73C114.63,-26.98 124.57,-25.17 133.94,-23.47"/>
<polygon fill="#63b8ff" stroke="#63b8ff" points="104.25,-25.31 95.04,-30.54 105.5,-32.19 104.25,-25.31"/>
</a>
</g>
</g>
</g>
</svg>
