<?xml version="1.0" encoding="UTF-8" standalone="no"?>
<!DOCTYPE svg PUBLIC "-//W3C//DTD SVG 1.1//EN"
 "http://www.w3.org/Graphics/SVG/1.1/DTD/svg11.dtd">
<!-- Generated by graphviz version 2.43.0 (0)
 -->
<!-- Title: include/helios/input/InputManager.ixx Pages: 1 -->
<!--zoomable 313 -->

<svg id="main" version="1.1" xmlns="http://www.w3.org/2000/svg" xmlns:xlink="http://www.w3.org/1999/xlink" xml:space="preserve" onload="init(evt)">

<style type="text/css"><![CDATA[
.node, .edge {opacity: 0.7;}
.node.selected, .edge.selected {opacity: 1;}
.edge:hover path { stroke: red; }
.edge:hover polygon { stroke: red; fill: red; }
]]></style>

<defs>
  <circle id="rim" cx="0" cy="0" r="7"/>
  <circle id="rim2" cx="0" cy="0" r="3.5"/>
  <g id="zoomPlus">
    <use xlink:href="#rim" fill="#404040"><set attributeName="fill" to="#808080" begin="zoomplus.mouseover" end="zoomplus.mouseout"/></use>
    <path d="M-4,0h8M0,-4v8" fill="none" stroke="white" stroke-width="1.5" pointer-events="none"/>
  </g>
  <g id="zoomMin">
    <use xlink:href="#rim" fill="#404040"><set attributeName="fill" to="#808080" begin="zoomminus.mouseover" end="zoomminus.mouseout"/></use>
    <path d="M-4,0h8" fill="none" stroke="white" stroke-width="1.5" pointer-events="none"/>
  </g>
  <g id="arrowUp" transform="translate(30 24)">
    <use xlink:href="#rim"/>
    <path pointer-events="none" fill="none" stroke="white" stroke-width="1.5" d="M0,-3.0v7 M-2.5,-0.5L0,-3.0L2.5,-0.5"/>
  </g>
  <g id="arrowRight" transform="rotate(90) translate(36 -43)">
    <use xlink:href="#rim"/>
    <path pointer-events="none" fill="none" stroke="white" stroke-width="1.5" d="M0,-3.0v7 M-2.5,-0.5L0,-3.0L2.5,-0.5"/>
  </g>
  <g id="arrowDown" transform="rotate(180) translate(-30 -48)">
    <use xlink:href="#rim"/>
    <path pointer-events="none" fill="none" stroke="white" stroke-width="1.5" d="M0,-3.0v7 M-2.5,-0.5L0,-3.0L2.5,-0.5"/>
  </g>
  <g id="arrowLeft" transform="rotate(270) translate(-36 17)">
    <use xlink:href="#rim"/>
    <path pointer-events="none" fill="none" stroke="white" stroke-width="1.5" d="M0,-3.0v7 M-2.5,-0.5L0,-3.0L2.5,-0.5"/>
  </g>
  <g id="resetDef">
    <use xlink:href="#rim2" fill="#404040"><set attributeName="fill" to="#808080" begin="reset.mouseover" end="reset.mouseout"/></use>
  </g>
</defs>
<script type="application/ecmascript">
var viewWidth = 1045;
var viewHeight = 313;
var sectionId = 'dynsection-0';
</script>
<script type="application/ecmascript" xlink:href="svg.min.js"/>
<svg id="graph" class="graph">
<g id="viewport">
<title>include/helios/input/InputManager.ixx</title>
<!-- Node1 -->
<g id="Node000001" class="node">
<title>Node1</title>
<g id="a_Node000001"><a xlink:title=" ">
<polygon fill="#999999" stroke="#666666" points="589,-305 477,-305 477,-275 589,-275 589,-305"/>
<text text-anchor="start" x="485" y="-293" font-family="Helvetica,sans-Serif" font-size="10.00">include/helios/input</text>
<text text-anchor="middle" x="533" y="-282" font-family="Helvetica,sans-Serif" font-size="10.00">/InputManager.ixx</text>
</a>
</g>
</g>
<!-- Node2 -->
<g id="Node000002" class="node">
<title>Node2</title>
<g id="a_Node000002"><a xlink:title=" ">
<polygon fill="#e0e0e0" stroke="#999999" points="437,-74 379,-74 379,-55 437,-55 437,-74"/>
<text text-anchor="middle" x="408" y="-62" font-family="Helvetica,sans-Serif" font-size="10.00">memory</text>
</a>
</g>
</g>
<!-- Node1&#45;&gt;Node2 -->
<g id="edge1_Node000001_Node000002" class="edge">
<title>Node1&#45;&gt;Node2</title>
<g id="a_edge1_Node000001_Node000002"><a xlink:title=" ">
<path fill="none" stroke="#63b8ff" d="M505.82,-274.88C491.57,-266.24 474.86,-253.96 464,-239 428.74,-190.43 414.99,-118.61 410.23,-84.64"/>
<polygon fill="#63b8ff" stroke="#63b8ff" points="413.65,-83.77 408.9,-74.3 406.7,-84.67 413.65,-83.77"/>
</a>
</g>
</g>
<!-- Node3 -->
<g id="Node000003" class="node">
<title>Node3</title>
<g id="a_Node000003"><a xlink:title=" ">
<polygon fill="#e0e0e0" stroke="#999999" points="379.5,-239 314.5,-239 314.5,-220 379.5,-220 379.5,-239"/>
<text text-anchor="middle" x="347" y="-227" font-family="Helvetica,sans-Serif" font-size="10.00">stdexcept</text>
</a>
</g>
</g>
<!-- Node1&#45;&gt;Node3 -->
<g id="edge2_Node000001_Node000003" class="edge">
<title>Node1&#45;&gt;Node3</title>
<g id="a_edge2_Node000001_Node000003"><a xlink:title=" ">
<path fill="none" stroke="#63b8ff" d="M488.45,-274.99C456.49,-264.94 413.94,-251.55 383.88,-242.1"/>
<polygon fill="#63b8ff" stroke="#63b8ff" points="384.79,-238.72 374.2,-239.05 382.69,-245.39 384.79,-238.72"/>
</a>
</g>
</g>
<!-- Node4 -->
<g id="Node000004" class="node">
<title>Node4</title>
<g id="a_Node000004"><a xlink:href="LogManager_8ixx.html" target="_top" xlink:title=" ">
<polygon fill="white" stroke="#666666" points="620,-129 474,-129 474,-110 620,-110 620,-129"/>
<text text-anchor="middle" x="547" y="-117" font-family="Helvetica,sans-Serif" font-size="10.00">helios.util.log.LogManager</text>
</a>
</g>
</g>
<!-- Node1&#45;&gt;Node4 -->
<g id="edge3_Node000001_Node000004" class="edge">
<title>Node1&#45;&gt;Node4</title>
<g id="a_edge3_Node000001_Node000004"><a xlink:title=" ">
<path fill="none" stroke="#63b8ff" d="M515.08,-274.67C488.2,-251.37 442.95,-203.96 466,-165 474.86,-150.02 490.76,-139.74 506.14,-132.88"/>
<polygon fill="#63b8ff" stroke="#63b8ff" points="507.64,-136.04 515.58,-129.03 505,-129.56 507.64,-136.04"/>
</a>
</g>
</g>
<!-- Node8 -->
<g id="Node000008" class="node">
<title>Node8</title>
<g id="a_Node000008"><a xlink:href="Logger_8ixx.html" target="_top" xlink:title=" ">
<polygon fill="white" stroke="#666666" points="790.5,-74 671.5,-74 671.5,-55 790.5,-55 790.5,-74"/>
<text text-anchor="middle" x="731" y="-62" font-family="Helvetica,sans-Serif" font-size="10.00">helios.util.log.Logger</text>
</a>
</g>
</g>
<!-- Node1&#45;&gt;Node8 -->
<g id="edge11_Node000001_Node000008" class="edge">
<title>Node1&#45;&gt;Node8</title>
<g id="a_edge11_Node000001_Node000008"><a xlink:title=" ">
<path fill="none" stroke="#63b8ff" d="M589.32,-285.61C706.5,-277.26 970.11,-251.27 1024,-184 1087.41,-104.84 906.49,-78.22 801.02,-69.53"/>
<polygon fill="#63b8ff" stroke="#63b8ff" points="800.99,-66.02 790.75,-68.72 800.44,-72.99 800.99,-66.02"/>
</a>
</g>
</g>
<!-- Node10 -->
<g id="Node000010" class="node">
<title>Node10</title>
<g id="a_Node000010"><a xlink:href="Window_8ixx.html" target="_top" xlink:title=" ">
<polygon fill="white" stroke="#666666" points="365,-184 237,-184 237,-165 365,-165 365,-184"/>
<text text-anchor="middle" x="301" y="-172" font-family="Helvetica,sans-Serif" font-size="10.00">helios.window.Window</text>
</a>
</g>
</g>
<!-- Node1&#45;&gt;Node10 -->
<g id="edge12_Node000001_Node000010" class="edge">
<title>Node1&#45;&gt;Node10</title>
<g id="a_edge12_Node000001_Node000010"><a xlink:title=" ">
<path fill="none" stroke="#63b8ff" d="M476.94,-284.33C416.8,-278.06 326.96,-264.61 305,-239 294.56,-226.83 294.67,-208.04 296.73,-194.05"/>
<polygon fill="#63b8ff" stroke="#63b8ff" points="300.2,-194.56 298.63,-184.08 293.32,-193.25 300.2,-194.56"/>
</a>
</g>
</g>
<!-- Node16 -->
<g id="Node000016" class="node">
<title>Node16</title>
<g id="a_Node000016"><a xlink:href="Key_8ixx.html" target="_top" xlink:title=" ">
<polygon fill="white" stroke="#666666" points="599.5,-184 474.5,-184 474.5,-165 599.5,-165 599.5,-184"/>
<text text-anchor="middle" x="537" y="-172" font-family="Helvetica,sans-Serif" font-size="10.00">helios.input.types.Key</text>
</a>
</g>
</g>
<!-- Node1&#45;&gt;Node16 -->
<g id="edge24_Node000001_Node000016" class="edge">
<title>Node1&#45;&gt;Node16</title>
<g id="a_edge24_Node000001_Node000016"><a xlink:title=" ">
<path fill="none" stroke="#63b8ff" d="M533.51,-274.63C534.23,-254.21 535.54,-216.81 536.34,-194.24"/>
<polygon fill="#63b8ff" stroke="#63b8ff" points="539.84,-194.35 536.69,-184.23 532.84,-194.1 539.84,-194.35"/>
</a>
</g>
</g>
<!-- Node17 -->
<g id="Node000017" class="node">
<title>Node17</title>
<g id="a_Node000017"><a xlink:href="InputAdapter_8ixx.html" target="_top" xlink:title=" ">
<polygon fill="white" stroke="#666666" points="701,-239 561,-239 561,-220 701,-220 701,-239"/>
<text text-anchor="middle" x="631" y="-227" font-family="Helvetica,sans-Serif" font-size="10.00">helios.input.InputAdapter</text>
</a>
</g>
</g>
<!-- Node1&#45;&gt;Node17 -->
<g id="edge25_Node000001_Node000017" class="edge">
<title>Node1&#45;&gt;Node17</title>
<g id="a_edge25_Node000001_Node000017"><a xlink:title=" ">
<path fill="none" stroke="#63b8ff" d="M556.72,-274.84C572.2,-265.6 592.32,-253.59 607.71,-244.4"/>
<polygon fill="#63b8ff" stroke="#63b8ff" points="609.81,-247.23 616.6,-239.09 606.22,-241.21 609.81,-247.23"/>
</a>
</g>
</g>
<!-- Node18 -->
<g id="Node000018" class="node">
<title>Node18</title>
<g id="a_Node000018"><a xlink:href="GamepadState_8ixx.html" target="_top" xlink:title=" ">
<polygon fill="white" stroke="#666666" points="842.5,-184 693.5,-184 693.5,-165 842.5,-165 842.5,-184"/>
<text text-anchor="middle" x="768" y="-172" font-family="Helvetica,sans-Serif" font-size="10.00">helios.input.GamepadState</text>
</a>
</g>
</g>
<!-- Node1&#45;&gt;Node18 -->
<g id="edge37_Node000001_Node000018" class="edge">
<title>Node1&#45;&gt;Node18</title>
<g id="a_edge37_Node000001_Node000018"><a xlink:title=" ">
<path fill="none" stroke="#63b8ff" d="M589.26,-281.3C625.75,-274.4 673.18,-261.72 710,-239 729.18,-227.16 745.9,-207.21 756.4,-192.83"/>
<polygon fill="#63b8ff" stroke="#63b8ff" points="759.49,-194.52 762.36,-184.32 753.76,-190.5 759.49,-194.52"/>
</a>
</g>
</g>
<!-- Node21 -->
<g id="Node000021" class="node">
<title>Node21</title>
<g id="a_Node000021"><a xlink:href="Gamepad_8ixx.html" target="_top" xlink:title=" ">
<polygon fill="white" stroke="#666666" points="1015,-184 861,-184 861,-165 1015,-165 1015,-184"/>
<text text-anchor="middle" x="938" y="-172" font-family="Helvetica,sans-Serif" font-size="10.00">helios.input.types.Gamepad</text>
</a>
</g>
</g>
<!-- Node1&#45;&gt;Node21 -->
<g id="edge38_Node000001_Node000021" class="edge">
<title>Node1&#45;&gt;Node21</title>
<g id="a_edge38_Node000001_Node000021"><a xlink:title=" ">
<path fill="none" stroke="#63b8ff" d="M589.11,-275.96C629.55,-266.34 685.35,-252.61 734,-239 793.44,-222.37 861.8,-200.53 902.37,-187.28"/>
<polygon fill="#63b8ff" stroke="#63b8ff" points="903.65,-190.54 912.06,-184.1 901.47,-183.89 903.65,-190.54"/>
</a>
</g>
</g>
<!-- Node4&#45;&gt;Node2 -->
<g id="edge6_Node000004_Node000002" class="edge">
<title>Node4&#45;&gt;Node2</title>
<g id="a_edge6_Node000004_Node000002"><a xlink:title=" ">
<path fill="none" stroke="#63b8ff" d="M524.67,-109.98C501.8,-101.27 466.04,-87.63 440.14,-77.75"/>
<polygon fill="#63b8ff" stroke="#63b8ff" points="441.33,-74.46 430.74,-74.17 438.84,-81 441.33,-74.46"/>
</a>
</g>
</g>
<!-- Node5 -->
<g id="Node000005" class="node">
<title>Node5</title>
<g id="a_Node000005"><a xlink:title=" ">
<polygon fill="#e0e0e0" stroke="#999999" points="360,-19 316,-19 316,0 360,0 360,-19"/>
<text text-anchor="middle" x="338" y="-7" font-family="Helvetica,sans-Serif" font-size="10.00">string</text>
</a>
</g>
</g>
<!-- Node4&#45;&gt;Node5 -->
<g id="edge4_Node000004_Node000005" class="edge">
<title>Node4&#45;&gt;Node5</title>
<g id="a_edge4_Node000004_Node000005"><a xlink:title=" ">
<path fill="none" stroke="#63b8ff" d="M534.96,-109.98C516.42,-97.08 479.51,-72.28 446,-55 420.99,-42.11 391.37,-30.12 369.47,-21.84"/>
<polygon fill="#63b8ff" stroke="#63b8ff" points="370.6,-18.52 360.01,-18.31 368.15,-25.08 370.6,-18.52"/>
</a>
</g>
</g>
<!-- Node6 -->
<g id="Node000006" class="node">
<title>Node6</title>
<g id="a_Node000006"><a xlink:title=" ">
<polygon fill="#e0e0e0" stroke="#999999" points="586.5,-74 493.5,-74 493.5,-55 586.5,-55 586.5,-74"/>
<text text-anchor="middle" x="540" y="-62" font-family="Helvetica,sans-Serif" font-size="10.00">unordered_map</text>
</a>
</g>
</g>
<!-- Node4&#45;&gt;Node6 -->
<g id="edge5_Node000004_Node000006" class="edge">
<title>Node4&#45;&gt;Node6</title>
<g id="a_edge5_Node000004_Node000006"><a xlink:title=" ">
<path fill="none" stroke="#63b8ff" d="M545.84,-109.75C544.93,-102.8 543.61,-92.85 542.46,-84.13"/>
<polygon fill="#63b8ff" stroke="#63b8ff" points="545.91,-83.54 541.13,-74.09 538.97,-84.46 545.91,-83.54"/>
</a>
</g>
</g>
<!-- Node7 -->
<g id="Node000007" class="node">
<title>Node7</title>
<g id="a_Node000007"><a xlink:title=" ">
<polygon fill="#e0e0e0" stroke="#999999" points="653,-74 605,-74 605,-55 653,-55 653,-74"/>
<text text-anchor="middle" x="629" y="-62" font-family="Helvetica,sans-Serif" font-size="10.00">mutex</text>
</a>
</g>
</g>
<!-- Node4&#45;&gt;Node7 -->
<g id="edge7_Node000004_Node000007" class="edge">
<title>Node4&#45;&gt;Node7</title>
<g id="a_edge7_Node000004_Node000007"><a xlink:title=" ">
<path fill="none" stroke="#63b8ff" d="M560.17,-109.98C572.77,-101.84 592,-89.41 606.94,-79.76"/>
<polygon fill="#63b8ff" stroke="#63b8ff" points="609.09,-82.54 615.59,-74.17 605.29,-76.66 609.09,-82.54"/>
</a>
</g>
</g>
<!-- Node4&#45;&gt;Node8 -->
<g id="edge8_Node000004_Node000008" class="edge">
<title>Node4&#45;&gt;Node8</title>
<g id="a_edge8_Node000004_Node000008"><a xlink:title=" ">
<path fill="none" stroke="#63b8ff" d="M576.56,-109.98C607.72,-101.01 656.97,-86.82 691.46,-76.89"/>
<polygon fill="#63b8ff" stroke="#63b8ff" points="692.57,-80.21 701.21,-74.08 690.63,-73.49 692.57,-80.21"/>
</a>
</g>
</g>
<!-- Node8&#45;&gt;Node5 -->
<g id="edge10_Node000008_Node000005" class="edge">
<title>Node8&#45;&gt;Node5</title>
<g id="a_edge10_Node000008_Node000005"><a xlink:title=" ">
<path fill="none" stroke="#63b8ff" d="M671.31,-55.45C587.1,-44.09 436.35,-23.76 370.39,-14.87"/>
<polygon fill="#63b8ff" stroke="#63b8ff" points="370.57,-11.36 360.19,-13.49 369.63,-18.3 370.57,-11.36"/>
</a>
</g>
</g>
<!-- Node9 -->
<g id="Node000009" class="node">
<title>Node9</title>
<g id="a_Node000009"><a xlink:title=" ">
<polygon fill="#e0e0e0" stroke="#999999" points="761,-19 701,-19 701,0 761,0 761,-19"/>
<text text-anchor="middle" x="731" y="-7" font-family="Helvetica,sans-Serif" font-size="10.00">iostream</text>
</a>
</g>
</g>
<!-- Node8&#45;&gt;Node9 -->
<g id="edge9_Node000008_Node000009" class="edge">
<title>Node8&#45;&gt;Node9</title>
<g id="a_edge9_Node000008_Node000009"><a xlink:title=" ">
<path fill="none" stroke="#63b8ff" d="M731,-54.75C731,-47.8 731,-37.85 731,-29.13"/>
<polygon fill="#63b8ff" stroke="#63b8ff" points="734.5,-29.09 731,-19.09 727.5,-29.09 734.5,-29.09"/>
</a>
</g>
</g>
<!-- Node10&#45;&gt;Node4 -->
<g id="edge14_Node000010_Node000004" class="edge">
<title>Node10&#45;&gt;Node4</title>
<g id="a_edge14_Node000010_Node000004"><a xlink:title=" ">
<path fill="none" stroke="#63b8ff" d="M340.52,-164.98C383.17,-155.8 451.15,-141.15 497.36,-131.19"/>
<polygon fill="#63b8ff" stroke="#63b8ff" points="498.13,-134.61 507.17,-129.08 496.65,-127.77 498.13,-134.61"/>
</a>
</g>
</g>
<!-- Node10&#45;&gt;Node5 -->
<g id="edge13_Node000010_Node000005" class="edge">
<title>Node10&#45;&gt;Node5</title>
<g id="a_edge13_Node000010_Node000005"><a xlink:title=" ">
<path fill="none" stroke="#63b8ff" d="M237,-165.46C200.13,-157.4 163.22,-141.42 175,-110 195.44,-55.48 264.55,-28.94 305.93,-17.64"/>
<polygon fill="#63b8ff" stroke="#63b8ff" points="307,-20.98 315.8,-15.09 305.25,-14.21 307,-20.98"/>
</a>
</g>
</g>
<!-- Node10&#45;&gt;Node8 -->
<g id="edge15_Node000010_Node000008" class="edge">
<title>Node10&#45;&gt;Node8</title>
<g id="a_edge15_Node000010_Node000008"><a xlink:title=" ">
<path fill="none" stroke="#63b8ff" d="M365.14,-172.7C432.67,-170.05 541.15,-160.66 629,-129 660.65,-117.59 692.91,-95.35 712.45,-80.46"/>
<polygon fill="#63b8ff" stroke="#63b8ff" points="714.74,-83.11 720.48,-74.2 710.44,-77.58 714.74,-83.11"/>
</a>
</g>
</g>
<!-- Node11 -->
<g id="Node000011" class="node">
<title>Node11</title>
<g id="a_Node000011"><a xlink:href="math_2types_2__module_8ixx.html" target="_top" xlink:title=" ">
<polygon fill="white" stroke="#666666" points="343,-74 239,-74 239,-55 343,-55 343,-74"/>
<text text-anchor="middle" x="291" y="-62" font-family="Helvetica,sans-Serif" font-size="10.00">helios.math.types</text>
</a>
</g>
</g>
<!-- Node10&#45;&gt;Node11 -->
<g id="edge16_Node000010_Node000011" class="edge">
<title>Node10&#45;&gt;Node11</title>
<g id="a_edge16_Node000010_Node000011"><a xlink:title=" ">
<path fill="none" stroke="#63b8ff" d="M316.48,-164.84C334.93,-153.31 361.98,-131.81 351,-110 344.31,-96.71 331.56,-86.39 319.53,-79.05"/>
<polygon fill="#63b8ff" stroke="#63b8ff" points="321.01,-75.87 310.58,-74.02 317.58,-81.97 321.01,-75.87"/>
</a>
</g>
</g>
<!-- Node12 -->
<g id="Node000012" class="node">
<title>Node12</title>
<g id="a_Node000012"><a xlink:href="WindowConfig_8ixx.html" target="_top" xlink:title=" ">
<polygon fill="white" stroke="#666666" points="342,-129 184,-129 184,-110 342,-110 342,-129"/>
<text text-anchor="middle" x="263" y="-117" font-family="Helvetica,sans-Serif" font-size="10.00">helios.window.WindowConfig</text>
</a>
</g>
</g>
<!-- Node10&#45;&gt;Node12 -->
<g id="edge18_Node000010_Node000012" class="edge">
<title>Node10&#45;&gt;Node12</title>
<g id="a_edge18_Node000010_Node000012"><a xlink:title=" ">
<path fill="none" stroke="#63b8ff" d="M294.73,-164.75C289.41,-157.34 281.64,-146.5 275.12,-137.41"/>
<polygon fill="#63b8ff" stroke="#63b8ff" points="277.83,-135.18 269.16,-129.09 272.14,-139.26 277.83,-135.18"/>
</a>
</g>
</g>
<!-- Node13 -->
<g id="Node000013" class="node">
<title>Node13</title>
<g id="a_Node000013"><a xlink:href="Guid_8ixx.html" target="_top" xlink:title=" ">
<polygon fill="white" stroke="#666666" points="128,-129 38,-129 38,-110 128,-110 128,-129"/>
<text text-anchor="middle" x="83" y="-117" font-family="Helvetica,sans-Serif" font-size="10.00">helios.util.Guid</text>
</a>
</g>
</g>
<!-- Node10&#45;&gt;Node13 -->
<g id="edge21_Node000010_Node000013" class="edge">
<title>Node10&#45;&gt;Node13</title>
<g id="a_edge21_Node000010_Node000013"><a xlink:title=" ">
<path fill="none" stroke="#63b8ff" d="M265.97,-164.98C228.5,-155.87 168.95,-141.4 128.02,-131.45"/>
<polygon fill="#63b8ff" stroke="#63b8ff" points="128.84,-128.04 118.3,-129.08 127.19,-134.85 128.84,-128.04"/>
</a>
</g>
</g>
<!-- Node11&#45;&gt;Node11 -->
<g id="edge17_Node000011_Node000011" class="edge">
<title>Node11&#45;&gt;Node11</title>
<g id="a_edge17_Node000011_Node000011"><a xlink:title=" ">
<path fill="none" stroke="#63b8ff" d="M323.77,-74.03C343,-76.06 361,-72.88 361,-64.5 361,-57.62 348.89,-54.25 333.92,-54.38"/>
<polygon fill="#63b8ff" stroke="#63b8ff" points="333.55,-50.89 323.77,-54.97 333.95,-57.88 333.55,-50.89"/>
</a>
</g>
</g>
<!-- Node12&#45;&gt;Node5 -->
<g id="edge19_Node000012_Node000005" class="edge">
<title>Node12&#45;&gt;Node5</title>
<g id="a_edge19_Node000012_Node000005"><a xlink:title=" ">
<path fill="none" stroke="#63b8ff" d="M252.71,-109.95C238.93,-97.43 217.56,-73.58 230,-55 246.76,-29.97 280.43,-19 305.74,-14.21"/>
<polygon fill="#63b8ff" stroke="#63b8ff" points="306.37,-17.65 315.66,-12.56 305.23,-10.75 306.37,-17.65"/>
</a>
</g>
</g>
<!-- Node12&#45;&gt;Node11 -->
<g id="edge20_Node000012_Node000011" class="edge">
<title>Node12&#45;&gt;Node11</title>
<g id="a_edge20_Node000012_Node000011"><a xlink:title=" ">
<path fill="none" stroke="#63b8ff" d="M267.62,-109.75C271.46,-102.49 277.02,-91.95 281.76,-82.98"/>
<polygon fill="#63b8ff" stroke="#63b8ff" points="284.89,-84.57 286.46,-74.09 278.7,-81.3 284.89,-84.57"/>
</a>
</g>
</g>
<!-- Node14 -->
<g id="Node000014" class="node">
<title>Node14</title>
<g id="a_Node000014"><a xlink:title=" ">
<polygon fill="#e0e0e0" stroke="#999999" points="50,-74 0,-74 0,-55 50,-55 50,-74"/>
<text text-anchor="middle" x="25" y="-62" font-family="Helvetica,sans-Serif" font-size="10.00">atomic</text>
</a>
</g>
</g>
<!-- Node13&#45;&gt;Node14 -->
<g id="edge22_Node000013_Node000014" class="edge">
<title>Node13&#45;&gt;Node14</title>
<g id="a_edge22_Node000013_Node000014"><a xlink:title=" ">
<path fill="none" stroke="#63b8ff" d="M73.68,-109.98C65.19,-102.23 52.44,-90.58 42.12,-81.14"/>
<polygon fill="#63b8ff" stroke="#63b8ff" points="44.23,-78.33 34.49,-74.17 39.51,-83.5 44.23,-78.33"/>
</a>
</g>
</g>
<!-- Node15 -->
<g id="Node000015" class="node">
<title>Node15</title>
<g id="a_Node000015"><a xlink:title=" ">
<polygon fill="#e0e0e0" stroke="#999999" points="118,-74 68,-74 68,-55 118,-55 118,-74"/>
<text text-anchor="middle" x="93" y="-62" font-family="Helvetica,sans-Serif" font-size="10.00">cstdint</text>
</a>
</g>
</g>
<!-- Node13&#45;&gt;Node15 -->
<g id="edge23_Node000013_Node000015" class="edge">
<title>Node13&#45;&gt;Node15</title>
<g id="a_edge23_Node000013_Node000015"><a xlink:title=" ">
<path fill="none" stroke="#63b8ff" d="M84.65,-109.75C85.96,-102.8 87.84,-92.85 89.48,-84.13"/>
<polygon fill="#63b8ff" stroke="#63b8ff" points="92.96,-84.56 91.38,-74.09 86.09,-83.27 92.96,-84.56"/>
</a>
</g>
</g>
<!-- Node17&#45;&gt;Node4 -->
<g id="edge27_Node000017_Node000004" class="edge">
<title>Node17&#45;&gt;Node4</title>
<g id="a_edge27_Node000017_Node000004"><a xlink:title=" ">
<path fill="none" stroke="#63b8ff" d="M629.73,-219.92C627.46,-206.94 621.7,-182.02 609,-165 599.59,-152.39 585.58,-141.9 573.25,-134.29"/>
<polygon fill="#63b8ff" stroke="#63b8ff" points="574.65,-131.05 564.25,-129.03 571.12,-137.1 574.65,-131.05"/>
</a>
</g>
</g>
<!-- Node17&#45;&gt;Node8 -->
<g id="edge35_Node000017_Node000008" class="edge">
<title>Node17&#45;&gt;Node8</title>
<g id="a_edge35_Node000017_Node000008"><a xlink:title=" ">
<path fill="none" stroke="#63b8ff" d="M636.38,-219.74C652.25,-193.87 699.11,-117.48 720.34,-82.88"/>
<polygon fill="#63b8ff" stroke="#63b8ff" points="723.35,-84.66 725.6,-74.31 717.38,-81 723.35,-84.66"/>
</a>
</g>
</g>
<!-- Node17&#45;&gt;Node10 -->
<g id="edge28_Node000017_Node000010" class="edge">
<title>Node17&#45;&gt;Node10</title>
<g id="a_edge28_Node000017_Node000010"><a xlink:title=" ">
<path fill="none" stroke="#63b8ff" d="M577.98,-219.98C519.73,-210.63 426.23,-195.61 364.22,-185.65"/>
<polygon fill="#63b8ff" stroke="#63b8ff" points="364.59,-182.17 354.16,-184.04 363.48,-189.08 364.59,-182.17"/>
</a>
</g>
</g>
<!-- Node17&#45;&gt;Node16 -->
<g id="edge26_Node000017_Node000016" class="edge">
<title>Node17&#45;&gt;Node16</title>
<g id="a_edge26_Node000017_Node000016"><a xlink:title=" ">
<path fill="none" stroke="#63b8ff" d="M615.9,-219.98C601.18,-211.69 578.58,-198.94 561.33,-189.22"/>
<polygon fill="#63b8ff" stroke="#63b8ff" points="562.81,-186.03 552.38,-184.17 559.37,-192.13 562.81,-186.03"/>
</a>
</g>
</g>
<!-- Node17&#45;&gt;Node18 -->
<g id="edge29_Node000017_Node000018" class="edge">
<title>Node17&#45;&gt;Node18</title>
<g id="a_edge29_Node000017_Node000018"><a xlink:title=" ">
<path fill="none" stroke="#63b8ff" d="M653.01,-219.98C675.45,-211.3 710.48,-197.75 735.99,-187.88"/>
<polygon fill="#63b8ff" stroke="#63b8ff" points="737.52,-191.04 745.59,-184.17 735,-184.51 737.52,-191.04"/>
</a>
</g>
</g>
<!-- Node17&#45;&gt;Node21 -->
<g id="edge36_Node000017_Node000021" class="edge">
<title>Node17&#45;&gt;Node21</title>
<g id="a_edge36_Node000017_Node000021"><a xlink:title=" ">
<path fill="none" stroke="#63b8ff" d="M680.32,-219.98C734.29,-210.67 820.78,-195.74 878.48,-185.78"/>
<polygon fill="#63b8ff" stroke="#63b8ff" points="879.28,-189.19 888.54,-184.04 878.09,-182.29 879.28,-189.19"/>
</a>
</g>
</g>
<!-- Node18&#45;&gt;Node4 -->
<g id="edge32_Node000018_Node000004" class="edge">
<title>Node18&#45;&gt;Node4</title>
<g id="a_edge32_Node000018_Node000004"><a xlink:title=" ">
<path fill="none" stroke="#63b8ff" d="M732.49,-164.98C694.51,-155.87 634.13,-141.4 592.64,-131.45"/>
<polygon fill="#63b8ff" stroke="#63b8ff" points="593.33,-128.01 582.79,-129.08 591.69,-134.82 593.33,-128.01"/>
</a>
</g>
</g>
<!-- Node18&#45;&gt;Node8 -->
<g id="edge33_Node000018_Node000008" class="edge">
<title>Node18&#45;&gt;Node8</title>
<g id="a_edge33_Node000018_Node000008"><a xlink:title=" ">
<path fill="none" stroke="#63b8ff" d="M763.3,-164.85C758.66,-156.03 751.61,-141.87 747,-129 741.72,-114.26 737.49,-97.01 734.71,-84.21"/>
<polygon fill="#63b8ff" stroke="#63b8ff" points="738.11,-83.37 732.65,-74.29 731.26,-84.79 738.11,-83.37"/>
</a>
</g>
</g>
<!-- Node18&#45;&gt;Node11 -->
<g id="edge34_Node000018_Node000011" class="edge">
<title>Node18&#45;&gt;Node11</title>
<g id="a_edge34_Node000018_Node000011"><a xlink:title=" ">
<path fill="none" stroke="#63b8ff" d="M693.39,-166.83C631.54,-160.28 541.67,-148.4 465,-129 412.51,-115.72 353.79,-92.44 319.75,-78.06"/>
<polygon fill="#63b8ff" stroke="#63b8ff" points="320.99,-74.78 310.42,-74.08 318.24,-81.22 320.99,-74.78"/>
</a>
</g>
</g>
<!-- Node19 -->
<g id="Node000019" class="node">
<title>Node19</title>
<g id="a_Node000019"><a xlink:title=" ">
<polygon fill="#e0e0e0" stroke="#999999" points="820,-129 756,-129 756,-110 820,-110 820,-129"/>
<text text-anchor="middle" x="788" y="-117" font-family="Helvetica,sans-Serif" font-size="10.00">algorithm</text>
</a>
</g>
</g>
<!-- Node18&#45;&gt;Node19 -->
<g id="edge30_Node000018_Node000019" class="edge">
<title>Node18&#45;&gt;Node19</title>
<g id="a_edge30_Node000018_Node000019"><a xlink:title=" ">
<path fill="none" stroke="#63b8ff" d="M771.3,-164.75C773.98,-157.65 777.85,-147.4 781.19,-138.56"/>
<polygon fill="#63b8ff" stroke="#63b8ff" points="784.5,-139.68 784.76,-129.09 777.95,-137.21 784.5,-139.68"/>
</a>
</g>
</g>
<!-- Node20 -->
<g id="Node000020" class="node">
<title>Node20</title>
<g id="a_Node000020"><a xlink:title=" ">
<polygon fill="#e0e0e0" stroke="#999999" points="960,-129 838,-129 838,-110 960,-110 960,-129"/>
<text text-anchor="middle" x="899" y="-117" font-family="Helvetica,sans-Serif" font-size="10.00">helios/helios_config.h</text>
</a>
</g>
</g>
<!-- Node18&#45;&gt;Node20 -->
<g id="edge31_Node000018_Node000020" class="edge">
<title>Node18&#45;&gt;Node20</title>
<g id="a_edge31_Node000018_Node000020"><a xlink:title=" ">
<path fill="none" stroke="#63b8ff" d="M789.05,-164.98C810.41,-156.34 843.7,-142.87 868.06,-133.02"/>
<polygon fill="#63b8ff" stroke="#63b8ff" points="869.61,-136.17 877.57,-129.17 866.99,-129.68 869.61,-136.17"/>
</a>
</g>
</g>
</g>
</svg>

<g id="navigator" transform="translate(0 0)" fill="#404254">
  <rect fill="#f2f5e9" fill-opacity="0.5" stroke="#606060" stroke-width=".5" x="0" y="0" width="60" height="60"/>
  <use id="zoomplus" xlink:href="#zoomPlus" x="17" y="9" onmousedown="handleZoom(evt,'in')"/>
  <use id="zoomminus" xlink:href="#zoomMin" x="42" y="9" onmousedown="handleZoom(evt,'out')"/>
  <use id="reset" xlink:href="#resetDef" x="30" y="36" onmousedown="handleReset()"/>
   <use id="arrowup" xlink:href="#arrowUp" x="0" y="0" onmousedown="handlePan(0,-1)"/>
  <use id="arrowright" xlink:href="#arrowRight" x="0" y="0" onmousedown="handlePan(1,0)"/>
  <use id="arrowdown" xlink:href="#arrowDown" x="0" y="0" onmousedown="handlePan(0,1)"/>
  <use id="arrowleft" xlink:href="#arrowLeft" x="0" y="0" onmousedown="handlePan(-1,0)"/>
</g>
<svg viewBox="0 0 15 15" width="100%" height="30px" preserveAspectRatio="xMaxYMin meet">
 <g id="arrow_out" transform="scale(0.3 0.3)">
  <a xlink:href="InputManager_8ixx__incl_org.svg" target="_base">
   <rect id="button" ry="5" rx="5" y="6" x="6" height="38" width="38"
        fill="#f2f5e9" fill-opacity="0.5" stroke="#606060" stroke-width="1.0"/>
   <path id="arrow"
     d="M 11.500037,31.436501 C 11.940474,20.09759 22.043105,11.32322 32.158766,21.979434 L 37.068811,17.246167 C 37.068811,17.246167 37.088388,32 37.088388,32 L 22.160133,31.978069 C 22.160133,31.978069 26.997745,27.140456 26.997745,27.140456 C 18.528582,18.264221 13.291696,25.230495 11.500037,31.436501 z"
     style="fill:#404040;"/>
  </a>
 </g>
</svg>

<style type='text/css'>
<![CDATA[
[data-mouse-over-selected='false'] { opacity: 0.7; }
[data-mouse-over-selected='true']  { opacity: 1.0; }
]]>
</style>
<script type="application/ecmascript"><![CDATA[
document.addEventListener('DOMContentLoaded', (event) => {
  highlightEdges();
  highlightAdjacentNodes();
});
]]></script>
</svg>
