<?xml version="1.0" encoding="UTF-8" standalone="no"?>
<!DOCTYPE svg PUBLIC "-//W3C//DTD SVG 1.1//EN"
 "http://www.w3.org/Graphics/SVG/1.1/DTD/svg11.dtd">
<!-- Generated by graphviz version 2.43.0 (0)
 -->
<!-- Title: include/helios/input/_module.ixx Pages: 1 -->
<svg width="1003pt" height="368pt"
 viewBox="0.00 0.00 1002.67 368.00" xmlns="http://www.w3.org/2000/svg" xmlns:xlink="http://www.w3.org/1999/xlink">
<g id="graph0" class="graph" transform="scale(1 1) rotate(0) translate(4 364)">
<title>include/helios/input/_module.ixx</title>
<!-- Node1 -->
<g id="Node000001" class="node">
<title>Node1</title>
<g id="a_Node000001"><a xlink:title=" ">
<polygon fill="#999999" stroke="#666666" points="619.17,-360 507.17,-360 507.17,-330 619.17,-330 619.17,-360"/>
<text text-anchor="start" x="515.17" y="-348" font-family="Helvetica,sans-Serif" font-size="10.00">include/helios/input</text>
<text text-anchor="middle" x="563.17" y="-337" font-family="Helvetica,sans-Serif" font-size="10.00">/_module.ixx</text>
</a>
</g>
</g>
<!-- Node2 -->
<g id="Node000002" class="node">
<title>Node2</title>
<g id="a_Node000002"><a xlink:href="GamepadState_8ixx.html" target="_top" xlink:title=" ">
<polygon fill="white" stroke="#666666" points="381.67,-184 232.67,-184 232.67,-165 381.67,-165 381.67,-184"/>
<text text-anchor="middle" x="307.17" y="-172" font-family="Helvetica,sans-Serif" font-size="10.00">helios.input.GamepadState</text>
</a>
</g>
</g>
<!-- Node1&#45;&gt;Node2 -->
<g id="edge1_Node000001_Node000002" class="edge">
<title>Node1&#45;&gt;Node2</title>
<g id="a_edge1_Node000001_Node000002"><a xlink:title=" ">
<path fill="none" stroke="#63b8ff" d="M516.52,-329.93C490.81,-321.27 458.81,-308.96 432.17,-294 397.37,-274.45 390.03,-266.57 361.17,-239 345.87,-224.38 330.43,-205.74 320,-192.44"/>
<polygon fill="#63b8ff" stroke="#63b8ff" points="322.52,-189.99 313.64,-184.21 316.98,-194.26 322.52,-189.99"/>
</a>
</g>
</g>
<!-- Node13 -->
<g id="Node000013" class="node">
<title>Node13</title>
<g id="a_Node000013"><a xlink:href="InputManager_8ixx.html" target="_top" xlink:title=" ">
<polygon fill="white" stroke="#666666" points="585.17,-294 441.17,-294 441.17,-275 585.17,-275 585.17,-294"/>
<text text-anchor="middle" x="513.17" y="-282" font-family="Helvetica,sans-Serif" font-size="10.00">helios.input.InputManager</text>
</a>
</g>
</g>
<!-- Node1&#45;&gt;Node13 -->
<g id="edge15_Node000001_Node000013" class="edge">
<title>Node1&#45;&gt;Node13</title>
<g id="a_edge15_Node000001_Node000013"><a xlink:title=" ">
<path fill="none" stroke="#63b8ff" d="M551.07,-329.84C543.88,-321.43 534.74,-310.74 527.24,-301.96"/>
<polygon fill="#63b8ff" stroke="#63b8ff" points="529.82,-299.59 520.66,-294.27 524.5,-304.14 529.82,-299.59"/>
</a>
</g>
</g>
<!-- Node21 -->
<g id="Node000021" class="node">
<title>Node21</title>
<g id="a_Node000021"><a xlink:href="InputAdapter_8ixx.html" target="_top" xlink:title=" ">
<polygon fill="white" stroke="#666666" points="699.17,-239 559.17,-239 559.17,-220 699.17,-220 699.17,-239"/>
<text text-anchor="middle" x="629.17" y="-227" font-family="Helvetica,sans-Serif" font-size="10.00">helios.input.InputAdapter</text>
</a>
</g>
</g>
<!-- Node1&#45;&gt;Node21 -->
<g id="edge41_Node000001_Node000021" class="edge">
<title>Node1&#45;&gt;Node21</title>
<g id="a_edge41_Node000001_Node000021"><a xlink:title=" ">
<path fill="none" stroke="#63b8ff" d="M572.32,-329.68C578.6,-319.74 587.05,-306.17 594.17,-294 603.1,-278.74 612.77,-261.11 619.67,-248.3"/>
<polygon fill="#63b8ff" stroke="#63b8ff" points="622.91,-249.67 624.55,-239.21 616.74,-246.36 622.91,-249.67"/>
</a>
</g>
</g>
<!-- Node23 -->
<g id="Node000023" class="node">
<title>Node23</title>
<g id="a_Node000023"><a xlink:href="input_2types_2__module_8ixx.html" target="_top" xlink:title=" ">
<polygon fill="white" stroke="#666666" points="935.17,-239 831.17,-239 831.17,-220 935.17,-220 935.17,-239"/>
<text text-anchor="middle" x="883.17" y="-227" font-family="Helvetica,sans-Serif" font-size="10.00">helios.input.types</text>
</a>
</g>
</g>
<!-- Node1&#45;&gt;Node23 -->
<g id="edge42_Node000001_Node000023" class="edge">
<title>Node1&#45;&gt;Node23</title>
<g id="a_edge42_Node000001_Node000023"><a xlink:title=" ">
<path fill="none" stroke="#63b8ff" d="M602.73,-329.97C666.12,-307.49 789.37,-263.77 849.09,-242.59"/>
<polygon fill="#63b8ff" stroke="#63b8ff" points="850.54,-245.79 858.8,-239.14 848.2,-239.19 850.54,-245.79"/>
</a>
</g>
</g>
<!-- Node3 -->
<g id="Node000003" class="node">
<title>Node3</title>
<g id="a_Node000003"><a xlink:title=" ">
<polygon fill="#e0e0e0" stroke="#999999" points="217.17,-129 153.17,-129 153.17,-110 217.17,-110 217.17,-129"/>
<text text-anchor="middle" x="185.17" y="-117" font-family="Helvetica,sans-Serif" font-size="10.00">algorithm</text>
</a>
</g>
</g>
<!-- Node2&#45;&gt;Node3 -->
<g id="edge2_Node000002_Node000003" class="edge">
<title>Node2&#45;&gt;Node3</title>
<g id="a_edge2_Node000002_Node000003"><a xlink:title=" ">
<path fill="none" stroke="#63b8ff" d="M287.57,-164.98C267.86,-156.42 237.22,-143.11 214.59,-133.28"/>
<polygon fill="#63b8ff" stroke="#63b8ff" points="215.7,-129.94 205.13,-129.17 212.91,-136.37 215.7,-129.94"/>
</a>
</g>
</g>
<!-- Node4 -->
<g id="Node000004" class="node">
<title>Node4</title>
<g id="a_Node000004"><a xlink:title=" ">
<polygon fill="#e0e0e0" stroke="#999999" points="135.17,-129 13.17,-129 13.17,-110 135.17,-110 135.17,-129"/>
<text text-anchor="middle" x="74.17" y="-117" font-family="Helvetica,sans-Serif" font-size="10.00">helios/helios_config.h</text>
</a>
</g>
</g>
<!-- Node2&#45;&gt;Node4 -->
<g id="edge3_Node000002_Node000004" class="edge">
<title>Node2&#45;&gt;Node4</title>
<g id="a_edge3_Node000002_Node000004"><a xlink:title=" ">
<path fill="none" stroke="#63b8ff" d="M269.74,-164.98C229.52,-155.84 165.49,-141.27 121.74,-131.32"/>
<polygon fill="#63b8ff" stroke="#63b8ff" points="122.43,-127.89 111.9,-129.08 120.87,-134.71 122.43,-127.89"/>
</a>
</g>
</g>
<!-- Node5 -->
<g id="Node000005" class="node">
<title>Node5</title>
<g id="a_Node000005"><a xlink:href="LogManager_8ixx.html" target="_top" xlink:title=" ">
<polygon fill="white" stroke="#666666" points="381.17,-129 235.17,-129 235.17,-110 381.17,-110 381.17,-129"/>
<text text-anchor="middle" x="308.17" y="-117" font-family="Helvetica,sans-Serif" font-size="10.00">helios.util.log.LogManager</text>
</a>
</g>
</g>
<!-- Node2&#45;&gt;Node5 -->
<g id="edge4_Node000002_Node000005" class="edge">
<title>Node2&#45;&gt;Node5</title>
<g id="a_edge4_Node000002_Node000005"><a xlink:title=" ">
<path fill="none" stroke="#63b8ff" d="M307.34,-164.75C307.47,-157.8 307.66,-147.85 307.82,-139.13"/>
<polygon fill="#63b8ff" stroke="#63b8ff" points="311.32,-139.15 308.01,-129.09 304.32,-139.02 311.32,-139.15"/>
</a>
</g>
</g>
<!-- Node10 -->
<g id="Node000010" class="node">
<title>Node10</title>
<g id="a_Node000010"><a xlink:href="Logger_8ixx.html" target="_top" xlink:title=" ">
<polygon fill="white" stroke="#666666" points="537.67,-74 418.67,-74 418.67,-55 537.67,-55 537.67,-74"/>
<text text-anchor="middle" x="478.17" y="-62" font-family="Helvetica,sans-Serif" font-size="10.00">helios.util.log.Logger</text>
</a>
</g>
</g>
<!-- Node2&#45;&gt;Node10 -->
<g id="edge12_Node000002_Node000010" class="edge">
<title>Node2&#45;&gt;Node10</title>
<g id="a_edge12_Node000002_Node000010"><a xlink:title=" ">
<path fill="none" stroke="#63b8ff" d="M324.72,-164.95C341.78,-156.43 368.26,-142.69 390.17,-129 414.8,-113.61 441.67,-93.73 459.16,-80.35"/>
<polygon fill="#63b8ff" stroke="#63b8ff" points="461.6,-82.88 467.38,-74 457.33,-77.34 461.6,-82.88"/>
</a>
</g>
</g>
<!-- Node12 -->
<g id="Node000012" class="node">
<title>Node12</title>
<g id="a_Node000012"><a xlink:href="math_2types_2__module_8ixx.html" target="_top" xlink:title=" ">
<polygon fill="white" stroke="#666666" points="660.17,-74 556.17,-74 556.17,-55 660.17,-55 660.17,-74"/>
<text text-anchor="middle" x="608.17" y="-62" font-family="Helvetica,sans-Serif" font-size="10.00">helios.math.types</text>
</a>
</g>
</g>
<!-- Node2&#45;&gt;Node12 -->
<g id="edge13_Node000002_Node000012" class="edge">
<title>Node2&#45;&gt;Node12</title>
<g id="a_edge13_Node000002_Node000012"><a xlink:title=" ">
<path fill="none" stroke="#63b8ff" d="M331.04,-164.94C384.39,-145.79 513.38,-99.51 574.71,-77.51"/>
<polygon fill="#63b8ff" stroke="#63b8ff" points="576.07,-80.74 584.3,-74.07 573.7,-74.15 576.07,-80.74"/>
</a>
</g>
</g>
<!-- Node6 -->
<g id="Node000006" class="node">
<title>Node6</title>
<g id="a_Node000006"><a xlink:title=" ">
<polygon fill="#e0e0e0" stroke="#999999" points="649.17,-19 605.17,-19 605.17,0 649.17,0 649.17,-19"/>
<text text-anchor="middle" x="627.17" y="-7" font-family="Helvetica,sans-Serif" font-size="10.00">string</text>
</a>
</g>
</g>
<!-- Node5&#45;&gt;Node6 -->
<g id="edge5_Node000005_Node000006" class="edge">
<title>Node5&#45;&gt;Node6</title>
<g id="a_edge5_Node000005_Node000006"><a xlink:title=" ">
<path fill="none" stroke="#63b8ff" d="M318.96,-109.85C336.7,-96.07 373.61,-69.26 409.17,-55 472.27,-29.7 551.64,-18.16 595.09,-13.41"/>
<polygon fill="#63b8ff" stroke="#63b8ff" points="595.49,-16.89 605.07,-12.37 594.77,-9.92 595.49,-16.89"/>
</a>
</g>
</g>
<!-- Node7 -->
<g id="Node000007" class="node">
<title>Node7</title>
<g id="a_Node000007"><a xlink:title=" ">
<polygon fill="#e0e0e0" stroke="#999999" points="272.67,-74 179.67,-74 179.67,-55 272.67,-55 272.67,-74"/>
<text text-anchor="middle" x="226.17" y="-62" font-family="Helvetica,sans-Serif" font-size="10.00">unordered_map</text>
</a>
</g>
</g>
<!-- Node5&#45;&gt;Node7 -->
<g id="edge6_Node000005_Node000007" class="edge">
<title>Node5&#45;&gt;Node7</title>
<g id="a_edge6_Node000005_Node000007"><a xlink:title=" ">
<path fill="none" stroke="#63b8ff" d="M295,-109.98C282.4,-101.84 263.17,-89.41 248.23,-79.76"/>
<polygon fill="#63b8ff" stroke="#63b8ff" points="249.88,-76.66 239.59,-74.17 246.08,-82.54 249.88,-76.66"/>
</a>
</g>
</g>
<!-- Node8 -->
<g id="Node000008" class="node">
<title>Node8</title>
<g id="a_Node000008"><a xlink:title=" ">
<polygon fill="#e0e0e0" stroke="#999999" points="91.17,-74 33.17,-74 33.17,-55 91.17,-55 91.17,-74"/>
<text text-anchor="middle" x="62.17" y="-62" font-family="Helvetica,sans-Serif" font-size="10.00">memory</text>
</a>
</g>
</g>
<!-- Node5&#45;&gt;Node8 -->
<g id="edge7_Node000005_Node000008" class="edge">
<title>Node5&#45;&gt;Node8</title>
<g id="a_edge7_Node000005_Node000008"><a xlink:title=" ">
<path fill="none" stroke="#63b8ff" d="M268.65,-109.98C222.56,-100.06 146.87,-83.75 101.05,-73.88"/>
<polygon fill="#63b8ff" stroke="#63b8ff" points="101.71,-70.44 91.2,-71.75 100.24,-77.28 101.71,-70.44"/>
</a>
</g>
</g>
<!-- Node9 -->
<g id="Node000009" class="node">
<title>Node9</title>
<g id="a_Node000009"><a xlink:title=" ">
<polygon fill="#e0e0e0" stroke="#999999" points="339.17,-74 291.17,-74 291.17,-55 339.17,-55 339.17,-74"/>
<text text-anchor="middle" x="315.17" y="-62" font-family="Helvetica,sans-Serif" font-size="10.00">mutex</text>
</a>
</g>
</g>
<!-- Node5&#45;&gt;Node9 -->
<g id="edge8_Node000005_Node000009" class="edge">
<title>Node5&#45;&gt;Node9</title>
<g id="a_edge8_Node000005_Node000009"><a xlink:title=" ">
<path fill="none" stroke="#63b8ff" d="M309.33,-109.75C310.24,-102.8 311.56,-92.85 312.71,-84.13"/>
<polygon fill="#63b8ff" stroke="#63b8ff" points="316.2,-84.46 314.04,-74.09 309.26,-83.54 316.2,-84.46"/>
</a>
</g>
</g>
<!-- Node5&#45;&gt;Node10 -->
<g id="edge9_Node000005_Node000010" class="edge">
<title>Node5&#45;&gt;Node10</title>
<g id="a_edge9_Node000005_Node000010"><a xlink:title=" ">
<path fill="none" stroke="#63b8ff" d="M335.48,-109.98C364.03,-101.09 409,-87.07 440.81,-77.15"/>
<polygon fill="#63b8ff" stroke="#63b8ff" points="442.14,-80.4 450.64,-74.08 440.06,-73.72 442.14,-80.4"/>
</a>
</g>
</g>
<!-- Node10&#45;&gt;Node6 -->
<g id="edge11_Node000010_Node000006" class="edge">
<title>Node10&#45;&gt;Node6</title>
<g id="a_edge11_Node000010_Node000006"><a xlink:title=" ">
<path fill="none" stroke="#63b8ff" d="M502.11,-54.98C527.31,-46.02 567.13,-31.86 595.05,-21.92"/>
<polygon fill="#63b8ff" stroke="#63b8ff" points="596.5,-25.12 604.75,-18.47 594.16,-18.53 596.5,-25.12"/>
</a>
</g>
</g>
<!-- Node11 -->
<g id="Node000011" class="node">
<title>Node11</title>
<g id="a_Node000011"><a xlink:title=" ">
<polygon fill="#e0e0e0" stroke="#999999" points="508.17,-19 448.17,-19 448.17,0 508.17,0 508.17,-19"/>
<text text-anchor="middle" x="478.17" y="-7" font-family="Helvetica,sans-Serif" font-size="10.00">iostream</text>
</a>
</g>
</g>
<!-- Node10&#45;&gt;Node11 -->
<g id="edge10_Node000010_Node000011" class="edge">
<title>Node10&#45;&gt;Node11</title>
<g id="a_edge10_Node000010_Node000011"><a xlink:title=" ">
<path fill="none" stroke="#63b8ff" d="M478.17,-54.75C478.17,-47.8 478.17,-37.85 478.17,-29.13"/>
<polygon fill="#63b8ff" stroke="#63b8ff" points="481.67,-29.09 478.17,-19.09 474.67,-29.09 481.67,-29.09"/>
</a>
</g>
</g>
<!-- Node12&#45;&gt;Node12 -->
<g id="edge14_Node000012_Node000012" class="edge">
<title>Node12&#45;&gt;Node12</title>
<g id="a_edge14_Node000012_Node000012"><a xlink:title=" ">
<path fill="none" stroke="#63b8ff" d="M640.94,-74.03C660.17,-76.06 678.17,-72.88 678.17,-64.5 678.17,-57.62 666.06,-54.25 651.09,-54.38"/>
<polygon fill="#63b8ff" stroke="#63b8ff" points="650.72,-50.89 640.94,-54.97 651.12,-57.88 650.72,-50.89"/>
</a>
</g>
</g>
<!-- Node13&#45;&gt;Node2 -->
<g id="edge39_Node000013_Node000002" class="edge">
<title>Node13&#45;&gt;Node2</title>
<g id="a_edge39_Node000013_Node000002"><a xlink:title=" ">
<path fill="none" stroke="#63b8ff" d="M484.11,-274.92C459.64,-267.15 424.1,-254.54 395.17,-239 369.31,-225.11 342.32,-204.6 325.17,-190.68"/>
<polygon fill="#63b8ff" stroke="#63b8ff" points="327.09,-187.73 317.15,-184.07 322.64,-193.13 327.09,-187.73"/>
</a>
</g>
</g>
<!-- Node13&#45;&gt;Node5 -->
<g id="edge18_Node000013_Node000005" class="edge">
<title>Node13&#45;&gt;Node5</title>
<g id="a_edge18_Node000013_Node000005"><a xlink:title=" ">
<path fill="none" stroke="#63b8ff" d="M490.73,-274.91C473.42,-267.44 449.73,-255.25 433.17,-239 406.02,-212.36 417.46,-191.5 390.17,-165 376.09,-151.32 356.96,-140.62 340.72,-133.14"/>
<polygon fill="#63b8ff" stroke="#63b8ff" points="342.11,-129.93 331.55,-129.11 339.3,-136.34 342.11,-129.93"/>
</a>
</g>
</g>
<!-- Node13&#45;&gt;Node8 -->
<g id="edge16_Node000013_Node000008" class="edge">
<title>Node13&#45;&gt;Node8</title>
<g id="a_edge16_Node000013_Node000008"><a xlink:title=" ">
<path fill="none" stroke="#63b8ff" d="M456.82,-274.93C336.04,-255.28 58.75,-202.92 4.17,-129 -9.49,-110.5 14.28,-91.28 35.38,-78.9"/>
<polygon fill="#63b8ff" stroke="#63b8ff" points="37.1,-81.95 44.15,-74.03 33.7,-75.83 37.1,-81.95"/>
</a>
</g>
</g>
<!-- Node13&#45;&gt;Node10 -->
<g id="edge19_Node000013_Node000010" class="edge">
<title>Node13&#45;&gt;Node10</title>
<g id="a_edge19_Node000013_Node000010"><a xlink:title=" ">
<path fill="none" stroke="#63b8ff" d="M499.1,-274.89C487.82,-267.1 472.83,-254.48 466.17,-239 443.55,-186.42 461.01,-116.57 471.6,-83.86"/>
<polygon fill="#63b8ff" stroke="#63b8ff" points="474.95,-84.87 474.85,-74.27 468.32,-82.62 474.95,-84.87"/>
</a>
</g>
</g>
<!-- Node14 -->
<g id="Node000014" class="node">
<title>Node14</title>
<g id="a_Node000014"><a xlink:title=" ">
<polygon fill="#e0e0e0" stroke="#999999" points="540.67,-239 475.67,-239 475.67,-220 540.67,-220 540.67,-239"/>
<text text-anchor="middle" x="508.17" y="-227" font-family="Helvetica,sans-Serif" font-size="10.00">stdexcept</text>
</a>
</g>
</g>
<!-- Node13&#45;&gt;Node14 -->
<g id="edge17_Node000013_Node000014" class="edge">
<title>Node13&#45;&gt;Node14</title>
<g id="a_edge17_Node000013_Node000014"><a xlink:title=" ">
<path fill="none" stroke="#63b8ff" d="M512.35,-274.75C511.69,-267.8 510.75,-257.85 509.93,-249.13"/>
<polygon fill="#63b8ff" stroke="#63b8ff" points="513.41,-248.72 508.98,-239.09 506.44,-249.37 513.41,-248.72"/>
</a>
</g>
</g>
<!-- Node15 -->
<g id="Node000015" class="node">
<title>Node15</title>
<g id="a_Node000015"><a xlink:href="Window_8ixx.html" target="_top" xlink:title=" ">
<polygon fill="white" stroke="#666666" points="679.17,-184 551.17,-184 551.17,-165 679.17,-165 679.17,-184"/>
<text text-anchor="middle" x="615.17" y="-172" font-family="Helvetica,sans-Serif" font-size="10.00">helios.window.Window</text>
</a>
</g>
</g>
<!-- Node13&#45;&gt;Node15 -->
<g id="edge20_Node000013_Node000015" class="edge">
<title>Node13&#45;&gt;Node15</title>
<g id="a_edge20_Node000013_Node000015"><a xlink:title=" ">
<path fill="none" stroke="#63b8ff" d="M585.34,-276.39C634.28,-269.9 692.77,-258.31 708.17,-239 726.56,-215.94 690.97,-198 658.63,-187.16"/>
<polygon fill="#63b8ff" stroke="#63b8ff" points="659.36,-183.72 648.77,-184.03 657.24,-190.39 659.36,-183.72"/>
</a>
</g>
</g>
<!-- Node20 -->
<g id="Node000020" class="node">
<title>Node20</title>
<g id="a_Node000020"><a xlink:href="Key_8ixx.html" target="_top" xlink:title=" ">
<polygon fill="white" stroke="#666666" points="994.67,-184 869.67,-184 869.67,-165 994.67,-165 994.67,-184"/>
<text text-anchor="middle" x="932.17" y="-172" font-family="Helvetica,sans-Serif" font-size="10.00">helios.input.types.Key</text>
</a>
</g>
</g>
<!-- Node13&#45;&gt;Node20 -->
<g id="edge31_Node000013_Node000020" class="edge">
<title>Node13&#45;&gt;Node20</title>
<g id="a_edge31_Node000013_Node000020"><a xlink:title=" ">
<path fill="none" stroke="#63b8ff" d="M571.16,-274.93C619.05,-267.27 688.58,-254.84 748.17,-239 802.95,-224.44 864.94,-201.7 901.17,-187.75"/>
<polygon fill="#63b8ff" stroke="#63b8ff" points="902.62,-190.94 910.68,-184.06 900.09,-184.42 902.62,-190.94"/>
</a>
</g>
</g>
<!-- Node13&#45;&gt;Node21 -->
<g id="edge32_Node000013_Node000021" class="edge">
<title>Node13&#45;&gt;Node21</title>
<g id="a_edge32_Node000013_Node000021"><a xlink:title=" ">
<path fill="none" stroke="#63b8ff" d="M531.81,-274.98C550.47,-266.46 579.42,-253.23 600.91,-243.41"/>
<polygon fill="#63b8ff" stroke="#63b8ff" points="602.55,-246.51 610.19,-239.17 599.64,-240.14 602.55,-246.51"/>
</a>
</g>
</g>
<!-- Node22 -->
<g id="Node000022" class="node">
<title>Node22</title>
<g id="a_Node000022"><a xlink:href="Gamepad_8ixx.html" target="_top" xlink:title=" ">
<polygon fill="white" stroke="#666666" points="851.17,-184 697.17,-184 697.17,-165 851.17,-165 851.17,-184"/>
<text text-anchor="middle" x="774.17" y="-172" font-family="Helvetica,sans-Serif" font-size="10.00">helios.input.types.Gamepad</text>
</a>
</g>
</g>
<!-- Node13&#45;&gt;Node22 -->
<g id="edge40_Node000013_Node000022" class="edge">
<title>Node13&#45;&gt;Node22</title>
<g id="a_edge40_Node000013_Node000022"><a xlink:title=" ">
<path fill="none" stroke="#63b8ff" d="M585.66,-280.49C628.65,-275.84 682.67,-264.78 724.17,-239 742.18,-227.81 756.35,-207.7 764.94,-193.11"/>
<polygon fill="#63b8ff" stroke="#63b8ff" points="768.17,-194.5 769.97,-184.06 762.05,-191.1 768.17,-194.5"/>
</a>
</g>
</g>
<!-- Node15&#45;&gt;Node5 -->
<g id="edge22_Node000015_Node000005" class="edge">
<title>Node15&#45;&gt;Node5</title>
<g id="a_edge22_Node000015_Node000005"><a xlink:title=" ">
<path fill="none" stroke="#63b8ff" d="M565.85,-164.98C511.88,-155.67 425.39,-140.74 367.7,-130.78"/>
<polygon fill="#63b8ff" stroke="#63b8ff" points="368.08,-127.29 357.63,-129.04 366.89,-134.19 368.08,-127.29"/>
</a>
</g>
</g>
<!-- Node15&#45;&gt;Node6 -->
<g id="edge21_Node000015_Node000006" class="edge">
<title>Node15&#45;&gt;Node6</title>
<g id="a_edge21_Node000015_Node000006"><a xlink:title=" ">
<path fill="none" stroke="#63b8ff" d="M679.35,-165.9C724.73,-159.06 779.92,-147.23 794.17,-129 836.71,-74.59 718.52,-34.52 659.05,-18.36"/>
<polygon fill="#63b8ff" stroke="#63b8ff" points="659.92,-14.97 649.36,-15.8 658.13,-21.74 659.92,-14.97"/>
</a>
</g>
</g>
<!-- Node15&#45;&gt;Node10 -->
<g id="edge23_Node000015_Node000010" class="edge">
<title>Node15&#45;&gt;Node10</title>
<g id="a_edge23_Node000015_Node000010"><a xlink:title=" ">
<path fill="none" stroke="#63b8ff" d="M604.67,-164.75C589.79,-152.38 561.63,-129.17 537.17,-110 524.3,-99.91 509.61,-88.83 498.11,-80.25"/>
<polygon fill="#63b8ff" stroke="#63b8ff" points="500.14,-77.4 490.02,-74.24 495.96,-83.01 500.14,-77.4"/>
</a>
</g>
</g>
<!-- Node15&#45;&gt;Node12 -->
<g id="edge24_Node000015_Node000012" class="edge">
<title>Node15&#45;&gt;Node12</title>
<g id="a_edge24_Node000015_Node000012"><a xlink:title=" ">
<path fill="none" stroke="#63b8ff" d="M614.6,-164.66C613.46,-147.17 610.91,-107.8 609.39,-84.27"/>
<polygon fill="#63b8ff" stroke="#63b8ff" points="612.87,-83.91 608.73,-74.16 605.89,-84.36 612.87,-83.91"/>
</a>
</g>
</g>
<!-- Node16 -->
<g id="Node000016" class="node">
<title>Node16</title>
<g id="a_Node000016"><a xlink:href="WindowConfig_8ixx.html" target="_top" xlink:title=" ">
<polygon fill="white" stroke="#666666" points="785.17,-129 627.17,-129 627.17,-110 785.17,-110 785.17,-129"/>
<text text-anchor="middle" x="706.17" y="-117" font-family="Helvetica,sans-Serif" font-size="10.00">helios.window.WindowConfig</text>
</a>
</g>
</g>
<!-- Node15&#45;&gt;Node16 -->
<g id="edge25_Node000015_Node000016" class="edge">
<title>Node15&#45;&gt;Node16</title>
<g id="a_edge25_Node000015_Node000016"><a xlink:title=" ">
<path fill="none" stroke="#63b8ff" d="M629.79,-164.98C644.04,-156.69 665.92,-143.94 682.62,-134.22"/>
<polygon fill="#63b8ff" stroke="#63b8ff" points="684.4,-137.23 691.28,-129.17 680.88,-131.18 684.4,-137.23"/>
</a>
</g>
</g>
<!-- Node17 -->
<g id="Node000017" class="node">
<title>Node17</title>
<g id="a_Node000017"><a xlink:href="Guid_8ixx.html" target="_top" xlink:title=" ">
<polygon fill="white" stroke="#666666" points="931.17,-129 841.17,-129 841.17,-110 931.17,-110 931.17,-129"/>
<text text-anchor="middle" x="886.17" y="-117" font-family="Helvetica,sans-Serif" font-size="10.00">helios.util.Guid</text>
</a>
</g>
</g>
<!-- Node15&#45;&gt;Node17 -->
<g id="edge28_Node000015_Node000017" class="edge">
<title>Node15&#45;&gt;Node17</title>
<g id="a_edge28_Node000015_Node000017"><a xlink:title=" ">
<path fill="none" stroke="#63b8ff" d="M658.71,-164.98C705.98,-155.74 781.52,-140.97 832.45,-131.01"/>
<polygon fill="#63b8ff" stroke="#63b8ff" points="833.15,-134.44 842.29,-129.08 831.8,-127.57 833.15,-134.44"/>
</a>
</g>
</g>
<!-- Node16&#45;&gt;Node6 -->
<g id="edge26_Node000016_Node000006" class="edge">
<title>Node16&#45;&gt;Node6</title>
<g id="a_edge26_Node000016_Node000006"><a xlink:title=" ">
<path fill="none" stroke="#63b8ff" d="M705.34,-109.95C703.73,-97.01 699.2,-72.15 687.17,-55 678.33,-42.39 664.78,-31.91 652.8,-24.29"/>
<polygon fill="#63b8ff" stroke="#63b8ff" points="654.41,-21.18 644.04,-19.03 650.81,-27.18 654.41,-21.18"/>
</a>
</g>
</g>
<!-- Node16&#45;&gt;Node12 -->
<g id="edge27_Node000016_Node000012" class="edge">
<title>Node16&#45;&gt;Node12</title>
<g id="a_edge27_Node000016_Node000012"><a xlink:title=" ">
<path fill="none" stroke="#63b8ff" d="M690.43,-109.98C674.94,-101.61 651.08,-88.7 633.03,-78.95"/>
<polygon fill="#63b8ff" stroke="#63b8ff" points="634.66,-75.85 624.2,-74.17 631.33,-82.01 634.66,-75.85"/>
</a>
</g>
</g>
<!-- Node18 -->
<g id="Node000018" class="node">
<title>Node18</title>
<g id="a_Node000018"><a xlink:title=" ">
<polygon fill="#e0e0e0" stroke="#999999" points="969.17,-74 919.17,-74 919.17,-55 969.17,-55 969.17,-74"/>
<text text-anchor="middle" x="944.17" y="-62" font-family="Helvetica,sans-Serif" font-size="10.00">atomic</text>
</a>
</g>
</g>
<!-- Node17&#45;&gt;Node18 -->
<g id="edge29_Node000017_Node000018" class="edge">
<title>Node17&#45;&gt;Node18</title>
<g id="a_edge29_Node000017_Node000018"><a xlink:title=" ">
<path fill="none" stroke="#63b8ff" d="M895.49,-109.98C903.98,-102.23 916.73,-90.58 927.05,-81.14"/>
<polygon fill="#63b8ff" stroke="#63b8ff" points="929.66,-83.5 934.68,-74.17 924.94,-78.33 929.66,-83.5"/>
</a>
</g>
</g>
<!-- Node19 -->
<g id="Node000019" class="node">
<title>Node19</title>
<g id="a_Node000019"><a xlink:title=" ">
<polygon fill="#e0e0e0" stroke="#999999" points="901.17,-74 851.17,-74 851.17,-55 901.17,-55 901.17,-74"/>
<text text-anchor="middle" x="876.17" y="-62" font-family="Helvetica,sans-Serif" font-size="10.00">cstdint</text>
</a>
</g>
</g>
<!-- Node17&#45;&gt;Node19 -->
<g id="edge30_Node000017_Node000019" class="edge">
<title>Node17&#45;&gt;Node19</title>
<g id="a_edge30_Node000017_Node000019"><a xlink:title=" ">
<path fill="none" stroke="#63b8ff" d="M884.52,-109.75C883.21,-102.8 881.33,-92.85 879.69,-84.13"/>
<polygon fill="#63b8ff" stroke="#63b8ff" points="883.09,-83.27 877.79,-74.09 876.21,-84.56 883.09,-83.27"/>
</a>
</g>
</g>
<!-- Node21&#45;&gt;Node2 -->
<g id="edge36_Node000021_Node000002" class="edge">
<title>Node21&#45;&gt;Node2</title>
<g id="a_edge36_Node000021_Node000002"><a xlink:title=" ">
<path fill="none" stroke="#63b8ff" d="M577.44,-219.98C520.72,-210.65 429.74,-195.67 369.23,-185.71"/>
<polygon fill="#63b8ff" stroke="#63b8ff" points="369.48,-182.21 359.04,-184.04 368.34,-189.12 369.48,-182.21"/>
</a>
</g>
</g>
<!-- Node21&#45;&gt;Node5 -->
<g id="edge34_Node000021_Node000005" class="edge">
<title>Node21&#45;&gt;Node5</title>
<g id="a_edge34_Node000021_Node000005"><a xlink:title=" ">
<path fill="none" stroke="#63b8ff" d="M603.71,-219.94C546.71,-200.76 408.69,-154.32 343.45,-132.37"/>
<polygon fill="#63b8ff" stroke="#63b8ff" points="344.22,-128.94 333.63,-129.07 341.99,-135.57 344.22,-128.94"/>
</a>
</g>
</g>
<!-- Node21&#45;&gt;Node10 -->
<g id="edge37_Node000021_Node000010" class="edge">
<title>Node21&#45;&gt;Node10</title>
<g id="a_edge37_Node000021_Node000010"><a xlink:title=" ">
<path fill="none" stroke="#63b8ff" d="M603.03,-219.91C584.28,-212.69 559.4,-200.84 542.17,-184 534.21,-176.22 502.67,-114.42 487.04,-83.29"/>
<polygon fill="#63b8ff" stroke="#63b8ff" points="490.01,-81.41 482.41,-74.03 483.75,-84.54 490.01,-81.41"/>
</a>
</g>
</g>
<!-- Node21&#45;&gt;Node15 -->
<g id="edge35_Node000021_Node000015" class="edge">
<title>Node21&#45;&gt;Node15</title>
<g id="a_edge35_Node000021_Node000015"><a xlink:title=" ">
<path fill="none" stroke="#63b8ff" d="M626.86,-219.75C625,-212.72 622.34,-202.62 620.02,-193.84"/>
<polygon fill="#63b8ff" stroke="#63b8ff" points="623.38,-192.86 617.44,-184.09 616.61,-194.65 623.38,-192.86"/>
</a>
</g>
</g>
<!-- Node21&#45;&gt;Node20 -->
<g id="edge33_Node000021_Node000020" class="edge">
<title>Node21&#45;&gt;Node20</title>
<g id="a_edge33_Node000021_Node000020"><a xlink:title=" ">
<path fill="none" stroke="#63b8ff" d="M677.85,-219.98C731.11,-210.67 816.48,-195.74 873.42,-185.78"/>
<polygon fill="#63b8ff" stroke="#63b8ff" points="874.11,-189.21 883.36,-184.04 872.91,-182.31 874.11,-189.21"/>
</a>
</g>
</g>
<!-- Node21&#45;&gt;Node22 -->
<g id="edge38_Node000021_Node000022" class="edge">
<title>Node21&#45;&gt;Node22</title>
<g id="a_edge38_Node000021_Node000022"><a xlink:title=" ">
<path fill="none" stroke="#63b8ff" d="M652.47,-219.98C676.42,-211.23 713.95,-197.51 741,-187.62"/>
<polygon fill="#63b8ff" stroke="#63b8ff" points="742.26,-190.89 750.45,-184.17 739.86,-184.32 742.26,-190.89"/>
</a>
</g>
</g>
<!-- Node23&#45;&gt;Node20 -->
<g id="edge44_Node000023_Node000020" class="edge">
<title>Node23&#45;&gt;Node20</title>
<g id="a_edge44_Node000023_Node000020"><a xlink:title=" ">
<path fill="none" stroke="#63b8ff" d="M891.26,-219.75C898.33,-212.11 908.76,-200.82 917.32,-191.56"/>
<polygon fill="#63b8ff" stroke="#63b8ff" points="920.01,-193.81 924.23,-184.09 914.87,-189.06 920.01,-193.81"/>
</a>
</g>
</g>
<!-- Node23&#45;&gt;Node22 -->
<g id="edge43_Node000023_Node000022" class="edge">
<title>Node23&#45;&gt;Node22</title>
<g id="a_edge43_Node000023_Node000022"><a xlink:title=" ">
<path fill="none" stroke="#63b8ff" d="M865.66,-219.98C848.2,-211.5 821.16,-198.35 801,-188.54"/>
<polygon fill="#63b8ff" stroke="#63b8ff" points="802.53,-185.4 792,-184.17 799.47,-191.69 802.53,-185.4"/>
</a>
</g>
</g>
</g>
</svg>
