<?xml version="1.0" encoding="UTF-8" standalone="no"?>
<!DOCTYPE svg PUBLIC "-//W3C//DTD SVG 1.1//EN"
 "http://www.w3.org/Graphics/SVG/1.1/DTD/svg11.dtd">
<!-- Generated by graphviz version 2.43.0 (0)
 -->
<!-- Title: include/helios/input/InputAdapter.ixx Pages: 1 -->
<svg width="1040pt" height="258pt"
 viewBox="0.00 0.00 1040.14 258.00" xmlns="http://www.w3.org/2000/svg" xmlns:xlink="http://www.w3.org/1999/xlink">
<g id="graph0" class="graph" transform="scale(1 1) rotate(0) translate(4 254)">
<title>include/helios/input/InputAdapter.ixx</title>
<!-- Node1 -->
<g id="Node000001" class="node">
<title>Node1</title>
<g id="a_Node000001"><a xlink:title=" ">
<polygon fill="#999999" stroke="#666666" points="588.14,-250 476.14,-250 476.14,-220 588.14,-220 588.14,-250"/>
<text text-anchor="start" x="484.14" y="-238" font-family="Helvetica,sans-Serif" font-size="10.00">include/helios/input</text>
<text text-anchor="middle" x="532.14" y="-227" font-family="Helvetica,sans-Serif" font-size="10.00">/InputAdapter.ixx</text>
</a>
</g>
</g>
<!-- Node2 -->
<g id="Node000002" class="node">
<title>Node2</title>
<g id="a_Node000002"><a xlink:href="Key_8ixx.html" target="_top" xlink:title=" ">
<polygon fill="white" stroke="#666666" points="268.64,-184 143.64,-184 143.64,-165 268.64,-165 268.64,-184"/>
<text text-anchor="middle" x="206.14" y="-172" font-family="Helvetica,sans-Serif" font-size="10.00">helios.input.types.Key</text>
</a>
</g>
</g>
<!-- Node1&#45;&gt;Node2 -->
<g id="edge1_Node000001_Node000002" class="edge">
<title>Node1&#45;&gt;Node2</title>
<g id="a_edge1_Node000001_Node000002"><a xlink:title=" ">
<path fill="none" stroke="#63b8ff" d="M476.1,-223.94C416.73,-213.29 323.46,-196.55 263.57,-185.81"/>
<polygon fill="#63b8ff" stroke="#63b8ff" points="263.98,-182.32 253.52,-184 262.75,-189.21 263.98,-182.32"/>
</a>
</g>
</g>
<!-- Node3 -->
<g id="Node000003" class="node">
<title>Node3</title>
<g id="a_Node000003"><a xlink:href="LogManager_8ixx.html" target="_top" xlink:title=" ">
<polygon fill="white" stroke="#666666" points="524.14,-129 378.14,-129 378.14,-110 524.14,-110 524.14,-129"/>
<text text-anchor="middle" x="451.14" y="-117" font-family="Helvetica,sans-Serif" font-size="10.00">helios.util.log.LogManager</text>
</a>
</g>
</g>
<!-- Node1&#45;&gt;Node3 -->
<g id="edge2_Node000001_Node000003" class="edge">
<title>Node1&#45;&gt;Node3</title>
<g id="a_edge2_Node000001_Node000003"><a xlink:title=" ">
<path fill="none" stroke="#63b8ff" d="M521.88,-219.63C506.92,-198.65 479.15,-159.75 463.22,-137.42"/>
<polygon fill="#63b8ff" stroke="#63b8ff" points="466.03,-135.34 457.37,-129.23 460.33,-139.4 466.03,-135.34"/>
</a>
</g>
</g>
<!-- Node8 -->
<g id="Node000008" class="node">
<title>Node8</title>
<g id="a_Node000008"><a xlink:href="Logger_8ixx.html" target="_top" xlink:title=" ">
<polygon fill="white" stroke="#666666" points="784.64,-74 665.64,-74 665.64,-55 784.64,-55 784.64,-74"/>
<text text-anchor="middle" x="725.14" y="-62" font-family="Helvetica,sans-Serif" font-size="10.00">helios.util.log.Logger</text>
</a>
</g>
</g>
<!-- Node1&#45;&gt;Node8 -->
<g id="edge28_Node000001_Node000008" class="edge">
<title>Node1&#45;&gt;Node8</title>
<g id="a_edge28_Node000001_Node000008"><a xlink:title=" ">
<path fill="none" stroke="#63b8ff" d="M588.19,-230.83C653.79,-223.76 759.73,-201.13 809.14,-129 824.64,-106.37 793.12,-88.46 764.37,-77.5"/>
<polygon fill="#63b8ff" stroke="#63b8ff" points="765.39,-74.15 754.8,-74.06 763.02,-80.74 765.39,-74.15"/>
</a>
</g>
</g>
<!-- Node10 -->
<g id="Node000010" class="node">
<title>Node10</title>
<g id="a_Node000010"><a xlink:href="Window_8ixx.html" target="_top" xlink:title=" ">
<polygon fill="white" stroke="#666666" points="415.14,-184 287.14,-184 287.14,-165 415.14,-165 415.14,-184"/>
<text text-anchor="middle" x="351.14" y="-172" font-family="Helvetica,sans-Serif" font-size="10.00">helios.window.Window</text>
</a>
</g>
</g>
<!-- Node1&#45;&gt;Node10 -->
<g id="edge10_Node000001_Node000010" class="edge">
<title>Node1&#45;&gt;Node10</title>
<g id="a_edge10_Node000001_Node000010"><a xlink:title=" ">
<path fill="none" stroke="#63b8ff" d="M488.79,-219.99C457.82,-209.98 416.64,-196.67 387.41,-187.22"/>
<polygon fill="#63b8ff" stroke="#63b8ff" points="388.2,-183.8 377.61,-184.05 386.04,-190.46 388.2,-183.8"/>
</a>
</g>
</g>
<!-- Node16 -->
<g id="Node000016" class="node">
<title>Node16</title>
<g id="a_Node000016"><a xlink:href="GamepadState_8ixx.html" target="_top" xlink:title=" ">
<polygon fill="white" stroke="#666666" points="657.64,-184 508.64,-184 508.64,-165 657.64,-165 657.64,-184"/>
<text text-anchor="middle" x="583.14" y="-172" font-family="Helvetica,sans-Serif" font-size="10.00">helios.input.GamepadState</text>
</a>
</g>
</g>
<!-- Node1&#45;&gt;Node16 -->
<g id="edge22_Node000001_Node000016" class="edge">
<title>Node1&#45;&gt;Node16</title>
<g id="a_edge22_Node000001_Node000016"><a xlink:title=" ">
<path fill="none" stroke="#63b8ff" d="M544.49,-219.84C551.81,-211.43 561.14,-200.74 568.79,-191.96"/>
<polygon fill="#63b8ff" stroke="#63b8ff" points="571.57,-194.1 575.5,-184.27 566.29,-189.5 571.57,-194.1"/>
</a>
</g>
</g>
<!-- Node19 -->
<g id="Node000019" class="node">
<title>Node19</title>
<g id="a_Node000019"><a xlink:href="Gamepad_8ixx.html" target="_top" xlink:title=" ">
<polygon fill="white" stroke="#666666" points="1032.14,-184 878.14,-184 878.14,-165 1032.14,-165 1032.14,-184"/>
<text text-anchor="middle" x="955.14" y="-172" font-family="Helvetica,sans-Serif" font-size="10.00">helios.input.types.Gamepad</text>
</a>
</g>
</g>
<!-- Node1&#45;&gt;Node19 -->
<g id="edge29_Node000001_Node000019" class="edge">
<title>Node1&#45;&gt;Node19</title>
<g id="a_edge29_Node000001_Node000019"><a xlink:title=" ">
<path fill="none" stroke="#63b8ff" d="M588.31,-226.23C664.36,-215.71 800.12,-196.94 883.44,-185.42"/>
<polygon fill="#63b8ff" stroke="#63b8ff" points="884.16,-188.85 893.59,-184.01 883.2,-181.92 884.16,-188.85"/>
</a>
</g>
</g>
<!-- Node4 -->
<g id="Node000004" class="node">
<title>Node4</title>
<g id="a_Node000004"><a xlink:title=" ">
<polygon fill="#e0e0e0" stroke="#999999" points="316.14,-19 272.14,-19 272.14,0 316.14,0 316.14,-19"/>
<text text-anchor="middle" x="294.14" y="-7" font-family="Helvetica,sans-Serif" font-size="10.00">string</text>
</a>
</g>
</g>
<!-- Node3&#45;&gt;Node4 -->
<g id="edge3_Node000003_Node000004" class="edge">
<title>Node3&#45;&gt;Node4</title>
<g id="a_edge3_Node000003_Node000004"><a xlink:title=" ">
<path fill="none" stroke="#63b8ff" d="M439.77,-109.84C423.31,-97.39 391.8,-73.86 364.14,-55 348.67,-44.45 330.86,-33.14 317.08,-24.56"/>
<polygon fill="#63b8ff" stroke="#63b8ff" points="318.6,-21.39 308.26,-19.1 314.92,-27.34 318.6,-21.39"/>
</a>
</g>
</g>
<!-- Node5 -->
<g id="Node000005" class="node">
<title>Node5</title>
<g id="a_Node000005"><a xlink:title=" ">
<polygon fill="#e0e0e0" stroke="#999999" points="570.64,-74 477.64,-74 477.64,-55 570.64,-55 570.64,-74"/>
<text text-anchor="middle" x="524.14" y="-62" font-family="Helvetica,sans-Serif" font-size="10.00">unordered_map</text>
</a>
</g>
</g>
<!-- Node3&#45;&gt;Node5 -->
<g id="edge4_Node000003_Node000005" class="edge">
<title>Node3&#45;&gt;Node5</title>
<g id="a_edge4_Node000003_Node000005"><a xlink:title=" ">
<path fill="none" stroke="#63b8ff" d="M462.87,-109.98C473.87,-102 490.56,-89.88 503.74,-80.31"/>
<polygon fill="#63b8ff" stroke="#63b8ff" points="506.16,-82.88 512.2,-74.17 502.05,-77.21 506.16,-82.88"/>
</a>
</g>
</g>
<!-- Node6 -->
<g id="Node000006" class="node">
<title>Node6</title>
<g id="a_Node000006"><a xlink:title=" ">
<polygon fill="#e0e0e0" stroke="#999999" points="647.14,-74 589.14,-74 589.14,-55 647.14,-55 647.14,-74"/>
<text text-anchor="middle" x="618.14" y="-62" font-family="Helvetica,sans-Serif" font-size="10.00">memory</text>
</a>
</g>
</g>
<!-- Node3&#45;&gt;Node6 -->
<g id="edge5_Node000003_Node000006" class="edge">
<title>Node3&#45;&gt;Node6</title>
<g id="a_edge5_Node000003_Node000006"><a xlink:title=" ">
<path fill="none" stroke="#63b8ff" d="M477.97,-109.98C506.01,-101.09 550.19,-87.07 581.44,-77.15"/>
<polygon fill="#63b8ff" stroke="#63b8ff" points="582.63,-80.44 591.1,-74.08 580.51,-73.77 582.63,-80.44"/>
</a>
</g>
</g>
<!-- Node7 -->
<g id="Node000007" class="node">
<title>Node7</title>
<g id="a_Node000007"><a xlink:title=" ">
<polygon fill="#e0e0e0" stroke="#999999" points="459.14,-74 411.14,-74 411.14,-55 459.14,-55 459.14,-74"/>
<text text-anchor="middle" x="435.14" y="-62" font-family="Helvetica,sans-Serif" font-size="10.00">mutex</text>
</a>
</g>
</g>
<!-- Node3&#45;&gt;Node7 -->
<g id="edge6_Node000003_Node000007" class="edge">
<title>Node3&#45;&gt;Node7</title>
<g id="a_edge6_Node000003_Node000007"><a xlink:title=" ">
<path fill="none" stroke="#63b8ff" d="M448.5,-109.75C446.38,-102.72 443.33,-92.62 440.68,-83.84"/>
<polygon fill="#63b8ff" stroke="#63b8ff" points="443.97,-82.65 437.73,-74.09 437.27,-84.67 443.97,-82.65"/>
</a>
</g>
</g>
<!-- Node3&#45;&gt;Node8 -->
<g id="edge7_Node000003_Node000008" class="edge">
<title>Node3&#45;&gt;Node8</title>
<g id="a_edge7_Node000003_Node000008"><a xlink:title=" ">
<path fill="none" stroke="#63b8ff" d="M495.16,-109.98C542.96,-100.74 619.34,-85.97 670.82,-76.01"/>
<polygon fill="#63b8ff" stroke="#63b8ff" points="671.62,-79.42 680.77,-74.08 670.29,-72.54 671.62,-79.42"/>
</a>
</g>
</g>
<!-- Node8&#45;&gt;Node4 -->
<g id="edge9_Node000008_Node000004" class="edge">
<title>Node8&#45;&gt;Node4</title>
<g id="a_edge9_Node000008_Node000004"><a xlink:title=" ">
<path fill="none" stroke="#63b8ff" d="M665.3,-56.13C662.2,-55.75 659.14,-55.37 656.14,-55 534.35,-40.01 389.51,-22.22 326.31,-14.45"/>
<polygon fill="#63b8ff" stroke="#63b8ff" points="326.53,-10.95 316.18,-13.21 325.68,-17.9 326.53,-10.95"/>
</a>
</g>
</g>
<!-- Node9 -->
<g id="Node000009" class="node">
<title>Node9</title>
<g id="a_Node000009"><a xlink:title=" ">
<polygon fill="#e0e0e0" stroke="#999999" points="755.14,-19 695.14,-19 695.14,0 755.14,0 755.14,-19"/>
<text text-anchor="middle" x="725.14" y="-7" font-family="Helvetica,sans-Serif" font-size="10.00">iostream</text>
</a>
</g>
</g>
<!-- Node8&#45;&gt;Node9 -->
<g id="edge8_Node000008_Node000009" class="edge">
<title>Node8&#45;&gt;Node9</title>
<g id="a_edge8_Node000008_Node000009"><a xlink:title=" ">
<path fill="none" stroke="#63b8ff" d="M725.14,-54.75C725.14,-47.8 725.14,-37.85 725.14,-29.13"/>
<polygon fill="#63b8ff" stroke="#63b8ff" points="728.64,-29.09 725.14,-19.09 721.64,-29.09 728.64,-29.09"/>
</a>
</g>
</g>
<!-- Node10&#45;&gt;Node3 -->
<g id="edge12_Node000010_Node000003" class="edge">
<title>Node10&#45;&gt;Node3</title>
<g id="a_edge12_Node000010_Node000003"><a xlink:title=" ">
<path fill="none" stroke="#63b8ff" d="M367.21,-164.98C383,-156.61 407.36,-143.7 425.77,-133.95"/>
<polygon fill="#63b8ff" stroke="#63b8ff" points="427.58,-136.95 434.78,-129.17 424.31,-130.76 427.58,-136.95"/>
</a>
</g>
</g>
<!-- Node10&#45;&gt;Node4 -->
<g id="edge11_Node000010_Node000004" class="edge">
<title>Node10&#45;&gt;Node4</title>
<g id="a_edge11_Node000010_Node000004"><a xlink:title=" ">
<path fill="none" stroke="#63b8ff" d="M286.94,-165.68C188.53,-153.62 11.42,-131.6 9.14,-129 -3.78,-114.29 -4.02,-77.72 19.14,-55 53.08,-21.72 197.02,-13.31 262.03,-11.2"/>
<polygon fill="#63b8ff" stroke="#63b8ff" points="262.23,-14.7 272.13,-10.9 262.03,-7.7 262.23,-14.7"/>
</a>
</g>
</g>
<!-- Node10&#45;&gt;Node8 -->
<g id="edge13_Node000010_Node000008" class="edge">
<title>Node10&#45;&gt;Node8</title>
<g id="a_edge13_Node000010_Node000008"><a xlink:title=" ">
<path fill="none" stroke="#63b8ff" d="M398.38,-164.97C435.63,-157.53 488.56,-145.36 533.14,-129 550.87,-122.49 553.55,-116.87 571.14,-110 606.42,-96.21 647.72,-84.51 678.67,-76.57"/>
<polygon fill="#63b8ff" stroke="#63b8ff" points="679.9,-79.87 688.74,-74.02 678.19,-73.08 679.9,-79.87"/>
</a>
</g>
</g>
<!-- Node11 -->
<g id="Node000011" class="node">
<title>Node11</title>
<g id="a_Node000011"><a xlink:href="math_2types_2__module_8ixx.html" target="_top" xlink:title=" ">
<polygon fill="white" stroke="#666666" points="337.14,-74 233.14,-74 233.14,-55 337.14,-55 337.14,-74"/>
<text text-anchor="middle" x="285.14" y="-62" font-family="Helvetica,sans-Serif" font-size="10.00">helios.math.types</text>
</a>
</g>
</g>
<!-- Node10&#45;&gt;Node11 -->
<g id="edge14_Node000010_Node000011" class="edge">
<title>Node10&#45;&gt;Node11</title>
<g id="a_edge14_Node000010_Node000011"><a xlink:title=" ">
<path fill="none" stroke="#63b8ff" d="M345.74,-164.66C334.81,-146.77 309.89,-106 295.65,-82.69"/>
<polygon fill="#63b8ff" stroke="#63b8ff" points="298.63,-80.87 290.43,-74.16 292.66,-84.52 298.63,-80.87"/>
</a>
</g>
</g>
<!-- Node12 -->
<g id="Node000012" class="node">
<title>Node12</title>
<g id="a_Node000012"><a xlink:href="WindowConfig_8ixx.html" target="_top" xlink:title=" ">
<polygon fill="white" stroke="#666666" points="284.14,-129 126.14,-129 126.14,-110 284.14,-110 284.14,-129"/>
<text text-anchor="middle" x="205.14" y="-117" font-family="Helvetica,sans-Serif" font-size="10.00">helios.window.WindowConfig</text>
</a>
</g>
</g>
<!-- Node10&#45;&gt;Node12 -->
<g id="edge16_Node000010_Node000012" class="edge">
<title>Node10&#45;&gt;Node12</title>
<g id="a_edge16_Node000010_Node000012"><a xlink:title=" ">
<path fill="none" stroke="#63b8ff" d="M327.68,-164.98C303.56,-156.23 265.78,-142.51 238.54,-132.62"/>
<polygon fill="#63b8ff" stroke="#63b8ff" points="239.62,-129.29 229.02,-129.17 237.23,-135.87 239.62,-129.29"/>
</a>
</g>
</g>
<!-- Node13 -->
<g id="Node000013" class="node">
<title>Node13</title>
<g id="a_Node000013"><a xlink:href="Guid_8ixx.html" target="_top" xlink:title=" ">
<polygon fill="white" stroke="#666666" points="108.14,-129 18.14,-129 18.14,-110 108.14,-110 108.14,-129"/>
<text text-anchor="middle" x="63.14" y="-117" font-family="Helvetica,sans-Serif" font-size="10.00">helios.util.Guid</text>
</a>
</g>
</g>
<!-- Node10&#45;&gt;Node13 -->
<g id="edge19_Node000010_Node000013" class="edge">
<title>Node10&#45;&gt;Node13</title>
<g id="a_edge19_Node000010_Node000013"><a xlink:title=" ">
<path fill="none" stroke="#63b8ff" d="M304.87,-164.98C254.08,-155.64 172.58,-140.64 118.46,-130.68"/>
<polygon fill="#63b8ff" stroke="#63b8ff" points="118.82,-127.19 108.35,-128.82 117.55,-134.07 118.82,-127.19"/>
</a>
</g>
</g>
<!-- Node11&#45;&gt;Node11 -->
<g id="edge15_Node000011_Node000011" class="edge">
<title>Node11&#45;&gt;Node11</title>
<g id="a_edge15_Node000011_Node000011"><a xlink:title=" ">
<path fill="none" stroke="#63b8ff" d="M317.91,-74.03C337.14,-76.06 355.14,-72.88 355.14,-64.5 355.14,-57.62 343.03,-54.25 328.06,-54.38"/>
<polygon fill="#63b8ff" stroke="#63b8ff" points="327.69,-50.89 317.91,-54.97 328.09,-57.88 327.69,-50.89"/>
</a>
</g>
</g>
<!-- Node12&#45;&gt;Node4 -->
<g id="edge17_Node000012_Node000004" class="edge">
<title>Node12&#45;&gt;Node4</title>
<g id="a_edge17_Node000012_Node000004"><a xlink:title=" ">
<path fill="none" stroke="#63b8ff" d="M205.82,-109.84C207.23,-96.75 211.51,-71.7 224.14,-55 234.31,-41.56 249.8,-31.11 263.63,-23.73"/>
<polygon fill="#63b8ff" stroke="#63b8ff" points="265.48,-26.71 272.85,-19.1 262.34,-20.46 265.48,-26.71"/>
</a>
</g>
</g>
<!-- Node12&#45;&gt;Node11 -->
<g id="edge18_Node000012_Node000011" class="edge">
<title>Node12&#45;&gt;Node11</title>
<g id="a_edge18_Node000012_Node000011"><a xlink:title=" ">
<path fill="none" stroke="#63b8ff" d="M217.99,-109.98C230.28,-101.84 249.05,-89.41 263.62,-79.76"/>
<polygon fill="#63b8ff" stroke="#63b8ff" points="265.65,-82.61 272.05,-74.17 261.78,-76.78 265.65,-82.61"/>
</a>
</g>
</g>
<!-- Node14 -->
<g id="Node000014" class="node">
<title>Node14</title>
<g id="a_Node000014"><a xlink:title=" ">
<polygon fill="#e0e0e0" stroke="#999999" points="146.14,-74 96.14,-74 96.14,-55 146.14,-55 146.14,-74"/>
<text text-anchor="middle" x="121.14" y="-62" font-family="Helvetica,sans-Serif" font-size="10.00">atomic</text>
</a>
</g>
</g>
<!-- Node13&#45;&gt;Node14 -->
<g id="edge20_Node000013_Node000014" class="edge">
<title>Node13&#45;&gt;Node14</title>
<g id="a_edge20_Node000013_Node000014"><a xlink:title=" ">
<path fill="none" stroke="#63b8ff" d="M72.46,-109.98C80.95,-102.23 93.7,-90.58 104.02,-81.14"/>
<polygon fill="#63b8ff" stroke="#63b8ff" points="106.63,-83.5 111.65,-74.17 101.91,-78.33 106.63,-83.5"/>
</a>
</g>
</g>
<!-- Node15 -->
<g id="Node000015" class="node">
<title>Node15</title>
<g id="a_Node000015"><a xlink:title=" ">
<polygon fill="#e0e0e0" stroke="#999999" points="78.14,-74 28.14,-74 28.14,-55 78.14,-55 78.14,-74"/>
<text text-anchor="middle" x="53.14" y="-62" font-family="Helvetica,sans-Serif" font-size="10.00">cstdint</text>
</a>
</g>
</g>
<!-- Node13&#45;&gt;Node15 -->
<g id="edge21_Node000013_Node000015" class="edge">
<title>Node13&#45;&gt;Node15</title>
<g id="a_edge21_Node000013_Node000015"><a xlink:title=" ">
<path fill="none" stroke="#63b8ff" d="M61.49,-109.75C60.18,-102.8 58.3,-92.85 56.66,-84.13"/>
<polygon fill="#63b8ff" stroke="#63b8ff" points="60.05,-83.27 54.76,-74.09 53.18,-84.56 60.05,-83.27"/>
</a>
</g>
</g>
<!-- Node16&#45;&gt;Node3 -->
<g id="edge25_Node000016_Node000003" class="edge">
<title>Node16&#45;&gt;Node3</title>
<g id="a_edge25_Node000016_Node000003"><a xlink:title=" ">
<path fill="none" stroke="#63b8ff" d="M561.93,-164.98C540.41,-156.34 506.86,-142.87 482.31,-133.02"/>
<polygon fill="#63b8ff" stroke="#63b8ff" points="483.32,-129.65 472.73,-129.17 480.71,-136.14 483.32,-129.65"/>
</a>
</g>
</g>
<!-- Node16&#45;&gt;Node8 -->
<g id="edge26_Node000016_Node000008" class="edge">
<title>Node16&#45;&gt;Node8</title>
<g id="a_edge26_Node000016_Node000008"><a xlink:title=" ">
<path fill="none" stroke="#63b8ff" d="M657.75,-167.5C711.02,-161.48 776.13,-149.99 793.14,-129 808.83,-109.64 780.91,-90.55 756.24,-78.44"/>
<polygon fill="#63b8ff" stroke="#63b8ff" points="757.59,-75.2 747.05,-74.15 754.63,-81.55 757.59,-75.2"/>
</a>
</g>
</g>
<!-- Node16&#45;&gt;Node11 -->
<g id="edge27_Node000016_Node000011" class="edge">
<title>Node16&#45;&gt;Node11</title>
<g id="a_edge27_Node000016_Node000011"><a xlink:title=" ">
<path fill="none" stroke="#63b8ff" d="M508.32,-166.17C466.03,-160.03 413.02,-148.92 369.14,-129 343.06,-117.16 317.44,-96.02 301.48,-81.41"/>
<polygon fill="#63b8ff" stroke="#63b8ff" points="303.75,-78.74 294.07,-74.44 298.96,-83.84 303.75,-78.74"/>
</a>
</g>
</g>
<!-- Node17 -->
<g id="Node000017" class="node">
<title>Node17</title>
<g id="a_Node000017"><a xlink:title=" ">
<polygon fill="#e0e0e0" stroke="#999999" points="644.14,-129 580.14,-129 580.14,-110 644.14,-110 644.14,-129"/>
<text text-anchor="middle" x="612.14" y="-117" font-family="Helvetica,sans-Serif" font-size="10.00">algorithm</text>
</a>
</g>
</g>
<!-- Node16&#45;&gt;Node17 -->
<g id="edge23_Node000016_Node000017" class="edge">
<title>Node16&#45;&gt;Node17</title>
<g id="a_edge23_Node000016_Node000017"><a xlink:title=" ">
<path fill="none" stroke="#63b8ff" d="M587.93,-164.75C591.9,-157.49 597.67,-146.95 602.58,-137.98"/>
<polygon fill="#63b8ff" stroke="#63b8ff" points="605.71,-139.54 607.44,-129.09 599.57,-136.18 605.71,-139.54"/>
</a>
</g>
</g>
<!-- Node18 -->
<g id="Node000018" class="node">
<title>Node18</title>
<g id="a_Node000018"><a xlink:title=" ">
<polygon fill="#e0e0e0" stroke="#999999" points="784.14,-129 662.14,-129 662.14,-110 784.14,-110 784.14,-129"/>
<text text-anchor="middle" x="723.14" y="-117" font-family="Helvetica,sans-Serif" font-size="10.00">helios/helios_config.h</text>
</a>
</g>
</g>
<!-- Node16&#45;&gt;Node18 -->
<g id="edge24_Node000016_Node000018" class="edge">
<title>Node16&#45;&gt;Node18</title>
<g id="a_edge24_Node000016_Node000018"><a xlink:title=" ">
<path fill="none" stroke="#63b8ff" d="M605.63,-164.98C628.66,-156.27 664.68,-142.63 690.77,-132.75"/>
<polygon fill="#63b8ff" stroke="#63b8ff" points="692.12,-135.98 700.24,-129.17 689.65,-129.44 692.12,-135.98"/>
</a>
</g>
</g>
</g>
</svg>
