<?xml version="1.0" encoding="UTF-8" standalone="no"?>
<!DOCTYPE svg PUBLIC "-//W3C//DTD SVG 1.1//EN"
 "http://www.w3.org/Graphics/SVG/1.1/DTD/svg11.dtd">
<!-- Generated by graphviz version 2.43.0 (0)
 -->
<!-- Title: include/helios/engine/game/InputSnapshot.ixx Pages: 1 -->
<svg width="476pt" height="324pt"
 viewBox="0.00 0.00 475.98 324.00" xmlns="http://www.w3.org/2000/svg" xmlns:xlink="http://www.w3.org/1999/xlink">

<svg id="main" version="1.1" xmlns="http://www.w3.org/2000/svg" xmlns:xlink="http://www.w3.org/1999/xlink" xml:space="preserve">

<style type="text/css"><![CDATA[
.node, .edge {opacity: 0.7;}
.node.selected, .edge.selected {opacity: 1;}
.edge:hover path { stroke: red; }
.edge:hover polygon { stroke: red; fill: red; }
]]></style>
<script type="application/ecmascript" xlink:href="svg.min.js"/>
<svg id="graph" class="graph">
<g id="graph0" class="graph" transform="scale(1 1) rotate(0) translate(4 320)">
<title>include/helios/engine/game/InputSnapshot.ixx</title>
<!-- Node1 -->
<g id="Node000001" class="node">
<title>Node1</title>
<g id="a_Node000001"><a xlink:title="Immutable snapshot of input state at a specific point in time.">
<polygon fill="#999999" stroke="#666666" points="317,-316 179,-316 179,-286 317,-286 317,-316"/>
<text text-anchor="start" x="187" y="-304" font-family="Helvetica,sans-Serif" font-size="10.00">include/helios/engine</text>
<text text-anchor="middle" x="248" y="-293" font-family="Helvetica,sans-Serif" font-size="10.00">/game/InputSnapshot.ixx</text>
</a>
</g>
</g>
<!-- Node2 -->
<g id="Node000002" class="node">
<title>Node2</title>
<g id="a_Node000002"><a xlink:href="GamepadState_8ixx.html" target="_top" xlink:title="Representation of current gamepad input state.">
<polygon fill="white" stroke="#666666" points="334.5,-250 161.5,-250 161.5,-220 334.5,-220 334.5,-250"/>
<text text-anchor="start" x="169.5" y="-238" font-family="Helvetica,sans-Serif" font-size="10.00">helios.input.gamepad.Gamepad</text>
<text text-anchor="middle" x="248" y="-227" font-family="Helvetica,sans-Serif" font-size="10.00">State</text>
</a>
</g>
</g>
<!-- Node1&#45;&gt;Node2 -->
<g id="edge1_Node000001_Node000002" class="edge">
<title>Node1&#45;&gt;Node2</title>
<g id="a_edge1_Node000001_Node000002"><a xlink:title=" ">
<path fill="none" stroke="#63b8ff" d="M248,-285.8C248,-278.34 248,-268.99 248,-260.41"/>
<polygon fill="#63b8ff" stroke="#63b8ff" points="251.5,-260.16 248,-250.16 244.5,-260.16 251.5,-260.16"/>
</a>
</g>
</g>
<!-- Node3 -->
<g id="Node000003" class="node">
<title>Node3</title>
<g id="a_Node000003"><a xlink:href="LogManager_8ixx.html" target="_top" xlink:title="Central manager for scoped loggers with configurable sinks.">
<polygon fill="white" stroke="#666666" points="321,-184 175,-184 175,-165 321,-165 321,-184"/>
<text text-anchor="middle" x="248" y="-172" font-family="Helvetica,sans-Serif" font-size="10.00">helios.util.log.LogManager</text>
</a>
</g>
</g>
<!-- Node2&#45;&gt;Node3 -->
<g id="edge2_Node000002_Node000003" class="edge">
<title>Node2&#45;&gt;Node3</title>
<g id="a_edge2_Node000002_Node000003"><a xlink:title=" ">
<path fill="none" stroke="#63b8ff" d="M248,-219.84C248,-212.21 248,-202.7 248,-194.45"/>
<polygon fill="#63b8ff" stroke="#63b8ff" points="251.5,-194.27 248,-184.27 244.5,-194.27 251.5,-194.27"/>
</a>
</g>
</g>
<!-- Node10 -->
<g id="Node000010" class="node">
<title>Node10</title>
<g id="a_Node000010"><a xlink:href="Logger_8ixx.html" target="_top" xlink:title="Simple synchronous logger with configurable output sinks.">
<polygon fill="white" stroke="#666666" points="144.5,-129 25.5,-129 25.5,-110 144.5,-110 144.5,-129"/>
<text text-anchor="middle" x="85" y="-117" font-family="Helvetica,sans-Serif" font-size="10.00">helios.util.log.Logger</text>
</a>
</g>
</g>
<!-- Node2&#45;&gt;Node10 -->
<g id="edge17_Node000002_Node000010" class="edge">
<title>Node2&#45;&gt;Node10</title>
<g id="a_edge17_Node000002_Node000010"><a xlink:title=" ">
<path fill="none" stroke="#63b8ff" d="M223.12,-219.86C206.61,-210.22 184.64,-196.92 166,-184 143.7,-168.54 119.35,-149.07 103.23,-135.8"/>
<polygon fill="#63b8ff" stroke="#63b8ff" points="105.12,-132.81 95.19,-129.12 100.65,-138.2 105.12,-132.81"/>
</a>
</g>
</g>
<!-- Node12 -->
<g id="Node000012" class="node">
<title>Node12</title>
<g id="a_Node000012"><a xlink:href="helios_2math_2types_2__module_8ixx.html" target="_top" xlink:title="Module exports for vector and matrix type definitions.">
<polygon fill="white" stroke="#666666" points="443,-184 339,-184 339,-165 443,-165 443,-184"/>
<text text-anchor="middle" x="391" y="-172" font-family="Helvetica,sans-Serif" font-size="10.00">helios.math.types</text>
</a>
</g>
</g>
<!-- Node2&#45;&gt;Node12 -->
<g id="edge18_Node000002_Node000012" class="edge">
<title>Node2&#45;&gt;Node12</title>
<g id="a_edge18_Node000002_Node000012"><a xlink:title=" ">
<path fill="none" stroke="#63b8ff" d="M282.25,-219.99C306.11,-210.23 337.65,-197.33 360.61,-187.93"/>
<polygon fill="#63b8ff" stroke="#63b8ff" points="361.95,-191.17 369.88,-184.14 359.3,-184.69 361.95,-191.17"/>
</a>
</g>
</g>
<!-- Node4 -->
<g id="Node000004" class="node">
<title>Node4</title>
<g id="a_Node000004"><a xlink:title=" ">
<polygon fill="#e0e0e0" stroke="#999999" points="329,-19 285,-19 285,0 329,0 329,-19"/>
<text text-anchor="middle" x="307" y="-7" font-family="Helvetica,sans-Serif" font-size="10.00">string</text>
</a>
</g>
</g>
<!-- Node3&#45;&gt;Node4 -->
<g id="edge3_Node000003_Node000004" class="edge">
<title>Node3&#45;&gt;Node4</title>
<g id="a_edge3_Node000003_Node000004"><a xlink:title=" ">
<path fill="none" stroke="#63b8ff" d="M312.6,-164.95C360.8,-157.42 421.56,-145.15 441,-129 461.52,-111.96 459.55,-100.11 465,-74 466.73,-65.73 470.1,-61.73 465,-55 449.85,-35 380.8,-21.46 339.15,-14.96"/>
<polygon fill="#63b8ff" stroke="#63b8ff" points="339.62,-11.49 329.21,-13.45 338.57,-18.41 339.62,-11.49"/>
</a>
</g>
</g>
<!-- Node5 -->
<g id="Node000005" class="node">
<title>Node5</title>
<g id="a_Node000005"><a xlink:title=" ">
<polygon fill="#e0e0e0" stroke="#999999" points="294.5,-129 201.5,-129 201.5,-110 294.5,-110 294.5,-129"/>
<text text-anchor="middle" x="248" y="-117" font-family="Helvetica,sans-Serif" font-size="10.00">unordered_map</text>
</a>
</g>
</g>
<!-- Node3&#45;&gt;Node5 -->
<g id="edge4_Node000003_Node000005" class="edge">
<title>Node3&#45;&gt;Node5</title>
<g id="a_edge4_Node000003_Node000005"><a xlink:title=" ">
<path fill="none" stroke="#63b8ff" d="M248,-164.75C248,-157.8 248,-147.85 248,-139.13"/>
<polygon fill="#63b8ff" stroke="#63b8ff" points="251.5,-139.09 248,-129.09 244.5,-139.09 251.5,-139.09"/>
</a>
</g>
</g>
<!-- Node6 -->
<g id="Node000006" class="node">
<title>Node6</title>
<g id="a_Node000006"><a xlink:title=" ">
<polygon fill="#e0e0e0" stroke="#999999" points="399,-129 313,-129 313,-110 399,-110 399,-129"/>
<text text-anchor="middle" x="356" y="-117" font-family="Helvetica,sans-Serif" font-size="10.00">unordered_set</text>
</a>
</g>
</g>
<!-- Node3&#45;&gt;Node6 -->
<g id="edge5_Node000003_Node000006" class="edge">
<title>Node3&#45;&gt;Node6</title>
<g id="a_edge5_Node000003_Node000006"><a xlink:title=" ">
<path fill="none" stroke="#63b8ff" d="M265.35,-164.98C282.57,-156.54 309.2,-143.47 329.15,-133.68"/>
<polygon fill="#63b8ff" stroke="#63b8ff" points="330.9,-136.72 338.33,-129.17 327.81,-130.43 330.9,-136.72"/>
</a>
</g>
</g>
<!-- Node7 -->
<g id="Node000007" class="node">
<title>Node7</title>
<g id="a_Node000007"><a xlink:title=" ">
<polygon fill="#e0e0e0" stroke="#999999" points="456,-74 398,-74 398,-55 456,-55 456,-74"/>
<text text-anchor="middle" x="427" y="-62" font-family="Helvetica,sans-Serif" font-size="10.00">memory</text>
</a>
</g>
</g>
<!-- Node3&#45;&gt;Node7 -->
<g id="edge6_Node000003_Node000007" class="edge">
<title>Node3&#45;&gt;Node7</title>
<g id="a_edge6_Node000003_Node000007"><a xlink:title=" ">
<path fill="none" stroke="#63b8ff" d="M314.59,-164.97C358.34,-157.87 409.99,-146.14 424,-129 434.14,-116.59 433.74,-97.83 431.5,-83.92"/>
<polygon fill="#63b8ff" stroke="#63b8ff" points="434.91,-83.11 429.47,-74.01 428.05,-84.51 434.91,-83.11"/>
</a>
</g>
</g>
<!-- Node8 -->
<g id="Node000008" class="node">
<title>Node8</title>
<g id="a_Node000008"><a xlink:title=" ">
<polygon fill="#e0e0e0" stroke="#999999" points="48,-74 0,-74 0,-55 48,-55 48,-74"/>
<text text-anchor="middle" x="24" y="-62" font-family="Helvetica,sans-Serif" font-size="10.00">mutex</text>
</a>
</g>
</g>
<!-- Node3&#45;&gt;Node8 -->
<g id="edge7_Node000003_Node000008" class="edge">
<title>Node3&#45;&gt;Node8</title>
<g id="a_edge7_Node000003_Node000008"><a xlink:title=" ">
<path fill="none" stroke="#63b8ff" d="M174.96,-169.41C114.69,-164.32 35.95,-153.14 16,-129 5.62,-116.44 9.76,-97.44 15.18,-83.49"/>
<polygon fill="#63b8ff" stroke="#63b8ff" points="18.53,-84.57 19.37,-74 12.13,-81.74 18.53,-84.57"/>
</a>
</g>
</g>
<!-- Node9 -->
<g id="Node000009" class="node">
<title>Node9</title>
<g id="a_Node000009"><a xlink:title=" ">
<polygon fill="#e0e0e0" stroke="#999999" points="187.5,-74 140.5,-74 140.5,-55 187.5,-55 187.5,-74"/>
<text text-anchor="middle" x="164" y="-62" font-family="Helvetica,sans-Serif" font-size="10.00">vector</text>
</a>
</g>
</g>
<!-- Node3&#45;&gt;Node9 -->
<g id="edge8_Node000003_Node000009" class="edge">
<title>Node3&#45;&gt;Node9</title>
<g id="a_edge8_Node000003_Node000009"><a xlink:title=" ">
<path fill="none" stroke="#63b8ff" d="M233.81,-164.74C221.68,-156.68 204.44,-143.75 193,-129 182.45,-115.4 174.68,-97.34 169.85,-83.96"/>
<polygon fill="#63b8ff" stroke="#63b8ff" points="173.14,-82.76 166.62,-74.41 166.51,-85 173.14,-82.76"/>
</a>
</g>
</g>
<!-- Node3&#45;&gt;Node10 -->
<g id="edge9_Node000003_Node000010" class="edge">
<title>Node3&#45;&gt;Node10</title>
<g id="a_edge9_Node000003_Node000010"><a xlink:title=" ">
<path fill="none" stroke="#63b8ff" d="M221.81,-164.98C194.56,-156.13 151.7,-142.19 121.22,-132.28"/>
<polygon fill="#63b8ff" stroke="#63b8ff" points="121.99,-128.85 111.39,-129.08 119.82,-135.5 121.99,-128.85"/>
</a>
</g>
</g>
<!-- Node11 -->
<g id="Node000011" class="node">
<title>Node11</title>
<g id="a_Node000011"><a xlink:href="LogSink_8ixx.html" target="_top" xlink:title="Abstract interface for log output destinations.">
<polygon fill="white" stroke="#666666" points="369,-74 245,-74 245,-55 369,-55 369,-74"/>
<text text-anchor="middle" x="307" y="-62" font-family="Helvetica,sans-Serif" font-size="10.00">helios.util.log.LogSink</text>
</a>
</g>
</g>
<!-- Node3&#45;&gt;Node11 -->
<g id="edge16_Node000003_Node000011" class="edge">
<title>Node3&#45;&gt;Node11</title>
<g id="a_edge16_Node000003_Node000011"><a xlink:title=" ">
<path fill="none" stroke="#63b8ff" d="M305.44,-164.97C346.04,-157.63 395.4,-145.59 408,-129 426.48,-104.68 390.16,-87.31 356.05,-76.95"/>
<polygon fill="#63b8ff" stroke="#63b8ff" points="356.64,-73.48 346.06,-74.09 354.71,-80.21 356.64,-73.48"/>
</a>
</g>
</g>
<!-- Node10&#45;&gt;Node4 -->
<g id="edge10_Node000010_Node000004" class="edge">
<title>Node10&#45;&gt;Node4</title>
<g id="a_edge10_Node000010_Node000004"><a xlink:title=" ">
<path fill="none" stroke="#63b8ff" d="M88.95,-109.59C95.57,-95.71 110.27,-69.06 131,-55 174.81,-25.3 236.87,-15.42 274.39,-12.13"/>
<polygon fill="#63b8ff" stroke="#63b8ff" points="275.04,-15.59 284.75,-11.34 274.51,-8.61 275.04,-15.59"/>
</a>
</g>
</g>
<!-- Node10&#45;&gt;Node7 -->
<g id="edge12_Node000010_Node000007" class="edge">
<title>Node10&#45;&gt;Node7</title>
<g id="a_edge12_Node000010_Node000007"><a xlink:title=" ">
<path fill="none" stroke="#63b8ff" d="M143.43,-110C202.61,-101.3 296.75,-87.22 378,-74 381.24,-73.47 384.59,-72.92 387.96,-72.35"/>
<polygon fill="#63b8ff" stroke="#63b8ff" points="388.73,-75.77 398,-70.63 387.55,-68.87 388.73,-75.77"/>
</a>
</g>
</g>
<!-- Node10&#45;&gt;Node8 -->
<g id="edge13_Node000010_Node000008" class="edge">
<title>Node10&#45;&gt;Node8</title>
<g id="a_edge13_Node000010_Node000008"><a xlink:title=" ">
<path fill="none" stroke="#63b8ff" d="M75.2,-109.98C66.18,-102.15 52.59,-90.34 41.68,-80.86"/>
<polygon fill="#63b8ff" stroke="#63b8ff" points="43.82,-78.09 33.98,-74.17 39.23,-83.37 43.82,-78.09"/>
</a>
</g>
</g>
<!-- Node10&#45;&gt;Node9 -->
<g id="edge11_Node000010_Node000009" class="edge">
<title>Node10&#45;&gt;Node9</title>
<g id="a_edge11_Node000010_Node000009"><a xlink:title=" ">
<path fill="none" stroke="#63b8ff" d="M97.69,-109.98C109.83,-101.84 128.36,-89.41 142.75,-79.76"/>
<polygon fill="#63b8ff" stroke="#63b8ff" points="144.72,-82.65 151.08,-74.17 140.82,-76.84 144.72,-82.65"/>
</a>
</g>
</g>
<!-- Node10&#45;&gt;Node11 -->
<g id="edge14_Node000010_Node000011" class="edge">
<title>Node10&#45;&gt;Node11</title>
<g id="a_edge14_Node000010_Node000011"><a xlink:title=" ">
<path fill="none" stroke="#63b8ff" d="M120.67,-109.98C158.83,-100.87 219.47,-86.4 261.15,-76.45"/>
<polygon fill="#63b8ff" stroke="#63b8ff" points="262.14,-79.81 271.05,-74.08 260.51,-73 262.14,-79.81"/>
</a>
</g>
</g>
<!-- Node11&#45;&gt;Node4 -->
<g id="edge15_Node000011_Node000004" class="edge">
<title>Node11&#45;&gt;Node4</title>
<g id="a_edge15_Node000011_Node000004"><a xlink:title=" ">
<path fill="none" stroke="#63b8ff" d="M307,-54.75C307,-47.8 307,-37.85 307,-29.13"/>
<polygon fill="#63b8ff" stroke="#63b8ff" points="310.5,-29.09 307,-19.09 303.5,-29.09 310.5,-29.09"/>
</a>
</g>
</g>
<!-- Node12&#45;&gt;Node12 -->
<g id="edge19_Node000012_Node000012" class="edge">
<title>Node12&#45;&gt;Node12</title>
<g id="a_edge19_Node000012_Node000012"><a xlink:title=" ">
<path fill="none" stroke="#63b8ff" d="M423.77,-184.03C443,-186.06 461,-182.88 461,-174.5 461,-167.62 448.89,-164.25 433.92,-164.38"/>
<polygon fill="#63b8ff" stroke="#63b8ff" points="433.55,-160.89 423.77,-164.97 433.95,-167.88 433.55,-160.89"/>
</a>
</g>
</g>
</g>
</svg>
</svg>

<style type='text/css'>
<![CDATA[
[data-mouse-over-selected='false'] { opacity: 0.7; }
[data-mouse-over-selected='true']  { opacity: 1.0; }
]]>
</style>
<script type="application/ecmascript"><![CDATA[
document.addEventListener('DOMContentLoaded', (event) => {
  highlightEdges();
  highlightAdjacentNodes();
});
]]></script>
</svg>
