<?xml version="1.0" encoding="UTF-8" standalone="no"?>
<!DOCTYPE svg PUBLIC "-//W3C//DTD SVG 1.1//EN"
 "http://www.w3.org/Graphics/SVG/1.1/DTD/svg11.dtd">
<!-- Generated by graphviz version 2.43.0 (0)
 -->
<!-- Title: include/helios/rendering/asset/shape/basic/Line.ixx Pages: 1 -->
<svg width="462pt" height="227pt"
 viewBox="0.00 0.00 461.50 227.17" xmlns="http://www.w3.org/2000/svg" xmlns:xlink="http://www.w3.org/1999/xlink">

<svg id="main" version="1.1" xmlns="http://www.w3.org/2000/svg" xmlns:xlink="http://www.w3.org/1999/xlink" xml:space="preserve">

<style type="text/css"><![CDATA[
.node, .edge {opacity: 0.7;}
.node.selected, .edge.selected {opacity: 1;}
.edge:hover path { stroke: red; }
.edge:hover polygon { stroke: red; fill: red; }
]]></style>
<script type="application/ecmascript" xlink:href="svg.min.js"/>
<svg id="graph" class="graph">
<g id="graph0" class="graph" transform="scale(1 1) rotate(0) translate(4 223.17)">
<title>include/helios/rendering/asset/shape/basic/Line.ixx</title>
<!-- Node1 -->
<g id="Node000001" class="node">
<title>Node1</title>
<g id="a_Node000001"><a xlink:title="Basic line shape for rendering.">
<polygon fill="#999999" stroke="#666666" points="258.5,-219.17 110.5,-219.17 110.5,-189.17 258.5,-189.17 258.5,-219.17"/>
<text text-anchor="start" x="118.5" y="-207.17" font-family="Helvetica,sans-Serif" font-size="10.00">include/helios/rendering</text>
<text text-anchor="middle" x="184.5" y="-196.17" font-family="Helvetica,sans-Serif" font-size="10.00">/asset/shape/basic/Line.ixx</text>
</a>
</g>
</g>
<!-- Node2 -->
<g id="Node000002" class="node">
<title>Node2</title>
<g id="a_Node000002"><a xlink:title=" ">
<polygon fill="#e0e0e0" stroke="#999999" points="47,-81.67 0,-81.67 0,-62.67 47,-62.67 47,-81.67"/>
<text text-anchor="middle" x="23.5" y="-69.67" font-family="Helvetica,sans-Serif" font-size="10.00">vector</text>
</a>
</g>
</g>
<!-- Node1&#45;&gt;Node2 -->
<g id="edge1_Node000001_Node000002" class="edge">
<title>Node1&#45;&gt;Node2</title>
<g id="a_edge1_Node000001_Node000002"><a xlink:title=" ">
<path fill="none" stroke="#63b8ff" d="M166.96,-189.01C136.42,-164.35 73.73,-113.73 42.31,-88.36"/>
<polygon fill="#63b8ff" stroke="#63b8ff" points="44.31,-85.48 34.33,-81.92 39.92,-90.93 44.31,-85.48"/>
</a>
</g>
</g>
<!-- Node3 -->
<g id="Node000003" class="node">
<title>Node3</title>
<g id="a_Node000003"><a xlink:href="Vertex_8ixx.html" target="_top" xlink:title="Vertex description and utilities for rendering.">
<polygon fill="white" stroke="#666666" points="195.5,-81.67 65.5,-81.67 65.5,-62.67 195.5,-62.67 195.5,-81.67"/>
<text text-anchor="middle" x="130.5" y="-69.67" font-family="Helvetica,sans-Serif" font-size="10.00">helios.rendering.Vertex</text>
</a>
</g>
</g>
<!-- Node1&#45;&gt;Node3 -->
<g id="edge2_Node000001_Node000003" class="edge">
<title>Node1&#45;&gt;Node3</title>
<g id="a_edge2_Node000001_Node000003"><a xlink:title=" ">
<path fill="none" stroke="#63b8ff" d="M172.19,-188.76C164.63,-179.22 155.31,-166.13 149.5,-153.17 140.57,-133.28 135.53,-108.65 132.92,-92.01"/>
<polygon fill="#63b8ff" stroke="#63b8ff" points="136.36,-91.33 131.48,-81.93 129.43,-92.32 136.36,-91.33"/>
</a>
</g>
</g>
<!-- Node5 -->
<g id="Node000005" class="node">
<title>Node5</title>
<g id="a_Node000005"><a xlink:href="PrimitiveType_8ixx.html" target="_top" xlink:title="Enum of primitive types for mesh rendering.">
<polygon fill="white" stroke="#666666" points="453.5,-87.17 289.5,-87.17 289.5,-57.17 453.5,-57.17 453.5,-87.17"/>
<text text-anchor="start" x="297.5" y="-75.17" font-family="Helvetica,sans-Serif" font-size="10.00">helios.rendering.model.config.</text>
<text text-anchor="middle" x="371.5" y="-64.17" font-family="Helvetica,sans-Serif" font-size="10.00">PrimitiveType</text>
</a>
</g>
</g>
<!-- Node1&#45;&gt;Node5 -->
<g id="edge5_Node000001_Node000005" class="edge">
<title>Node1&#45;&gt;Node5</title>
<g id="a_edge5_Node000001_Node000005"><a xlink:title=" ">
<path fill="none" stroke="#63b8ff" d="M256.35,-189.14C280.95,-181.62 307.32,-170.25 327.5,-153.17 345,-138.37 356.77,-114.76 363.7,-97.02"/>
<polygon fill="#63b8ff" stroke="#63b8ff" points="367.08,-97.96 367.23,-87.36 360.51,-95.56 367.08,-97.96"/>
</a>
</g>
</g>
<!-- Node6 -->
<g id="Node000006" class="node">
<title>Node6</title>
<g id="a_Node000006"><a xlink:href="Shape_8ixx.html" target="_top" xlink:title="Interface for simple geometric shapes used for testing and debugging.">
<polygon fill="white" stroke="#666666" points="318.5,-153.17 158.5,-153.17 158.5,-123.17 318.5,-123.17 318.5,-153.17"/>
<text text-anchor="start" x="166.5" y="-141.17" font-family="Helvetica,sans-Serif" font-size="10.00">helios.rendering.asset.shape.</text>
<text text-anchor="middle" x="238.5" y="-130.17" font-family="Helvetica,sans-Serif" font-size="10.00">Shape</text>
</a>
</g>
</g>
<!-- Node1&#45;&gt;Node6 -->
<g id="edge6_Node000001_Node000006" class="edge">
<title>Node1&#45;&gt;Node6</title>
<g id="a_edge6_Node000001_Node000006"><a xlink:title=" ">
<path fill="none" stroke="#63b8ff" d="M196.48,-188.97C203.41,-180.77 212.26,-170.28 220.05,-161.04"/>
<polygon fill="#63b8ff" stroke="#63b8ff" points="222.78,-163.24 226.55,-153.34 217.43,-158.72 222.78,-163.24"/>
</a>
</g>
</g>
<!-- Node4 -->
<g id="Node000004" class="node">
<title>Node4</title>
<g id="a_Node000004"><a xlink:href="helios_2math_2types_2__module_8ixx.html" target="_top" xlink:title="Module exports for vector and matrix type definitions.">
<polygon fill="white" stroke="#666666" points="182.5,-21.17 78.5,-21.17 78.5,-2.17 182.5,-2.17 182.5,-21.17"/>
<text text-anchor="middle" x="130.5" y="-9.17" font-family="Helvetica,sans-Serif" font-size="10.00">helios.math.types</text>
</a>
</g>
</g>
<!-- Node3&#45;&gt;Node4 -->
<g id="edge3_Node000003_Node000004" class="edge">
<title>Node3&#45;&gt;Node4</title>
<g id="a_edge3_Node000003_Node000004"><a xlink:title=" ">
<path fill="none" stroke="#63b8ff" d="M130.5,-62.54C130.5,-54.42 130.5,-41.98 130.5,-31.56"/>
<polygon fill="#63b8ff" stroke="#63b8ff" points="134,-31.34 130.5,-21.34 127,-31.34 134,-31.34"/>
</a>
</g>
</g>
<!-- Node4&#45;&gt;Node4 -->
<g id="edge4_Node000004_Node000004" class="edge">
<title>Node4&#45;&gt;Node4</title>
<g id="a_edge4_Node000004_Node000004"><a xlink:title=" ">
<path fill="none" stroke="#63b8ff" d="M156.35,-21.21C177.94,-25.28 200.5,-22.1 200.5,-11.67 200.5,-2.87 184.44,0.76 166.45,-0.76"/>
<polygon fill="#63b8ff" stroke="#63b8ff" points="165.78,2.68 156.35,-2.14 166.73,-4.26 165.78,2.68"/>
</a>
</g>
</g>
<!-- Node6&#45;&gt;Node2 -->
<g id="edge8_Node000006_Node000002" class="edge">
<title>Node6&#45;&gt;Node2</title>
<g id="a_edge8_Node000006_Node000002"><a xlink:title=" ">
<path fill="none" stroke="#63b8ff" d="M179.7,-123.14C143.75,-114.04 97.04,-101.27 56.5,-87.17 55.07,-86.68 53.61,-86.15 52.14,-85.59"/>
<polygon fill="#63b8ff" stroke="#63b8ff" points="53.11,-82.21 42.53,-81.76 50.52,-88.71 53.11,-82.21"/>
</a>
</g>
</g>
<!-- Node6&#45;&gt;Node3 -->
<g id="edge10_Node000006_Node000003" class="edge">
<title>Node6&#45;&gt;Node3</title>
<g id="a_edge10_Node000006_Node000003"><a xlink:title=" ">
<path fill="none" stroke="#63b8ff" d="M214.8,-123.13C196.61,-112.35 171.64,-97.55 153.6,-86.86"/>
<polygon fill="#63b8ff" stroke="#63b8ff" points="155.26,-83.78 144.87,-81.69 151.69,-89.8 155.26,-83.78"/>
</a>
</g>
</g>
<!-- Node6&#45;&gt;Node5 -->
<g id="edge9_Node000006_Node000005" class="edge">
<title>Node6&#45;&gt;Node5</title>
<g id="a_edge9_Node000006_Node000005"><a xlink:title=" ">
<path fill="none" stroke="#63b8ff" d="M267.69,-123.13C286.92,-113.88 312.3,-101.66 333.16,-91.63"/>
<polygon fill="#63b8ff" stroke="#63b8ff" points="334.89,-94.68 342.38,-87.19 331.85,-88.37 334.89,-94.68"/>
</a>
</g>
</g>
<!-- Node7 -->
<g id="Node000007" class="node">
<title>Node7</title>
<g id="a_Node000007"><a xlink:title=" ">
<polygon fill="#e0e0e0" stroke="#999999" points="271.5,-81.67 213.5,-81.67 213.5,-62.67 271.5,-62.67 271.5,-81.67"/>
<text text-anchor="middle" x="242.5" y="-69.67" font-family="Helvetica,sans-Serif" font-size="10.00">memory</text>
</a>
</g>
</g>
<!-- Node6&#45;&gt;Node7 -->
<g id="edge7_Node000006_Node000007" class="edge">
<title>Node6&#45;&gt;Node7</title>
<g id="a_edge7_Node000006_Node000007"><a xlink:title=" ">
<path fill="none" stroke="#63b8ff" d="M239.39,-122.97C239.96,-113.87 240.7,-101.96 241.32,-92.07"/>
<polygon fill="#63b8ff" stroke="#63b8ff" points="244.82,-92.22 241.95,-82.02 237.83,-91.78 244.82,-92.22"/>
</a>
</g>
</g>
</g>
</svg>
</svg>

<style type='text/css'>
<![CDATA[
[data-mouse-over-selected='false'] { opacity: 0.7; }
[data-mouse-over-selected='true']  { opacity: 1.0; }
]]>
</style>
<script type="application/ecmascript"><![CDATA[
document.addEventListener('DOMContentLoaded', (event) => {
  highlightEdges();
  highlightAdjacentNodes();
});
]]></script>
</svg>
