<?xml version="1.0" encoding="UTF-8" standalone="no"?>
<!DOCTYPE svg PUBLIC "-//W3C//DTD SVG 1.1//EN"
 "http://www.w3.org/Graphics/SVG/1.1/DTD/svg11.dtd">
<!-- Generated by graphviz version 2.43.0 (0)
 -->
<!-- Title: include/helios/util/log/Logger.ixx Pages: 1 -->
<svg width="354pt" height="148pt"
 viewBox="0.00 0.00 354.13 148.00" xmlns="http://www.w3.org/2000/svg" xmlns:xlink="http://www.w3.org/1999/xlink">
<g id="graph0" class="graph" transform="scale(1 1) rotate(0) translate(4 144)">
<title>include/helios/util/log/Logger.ixx</title>
<!-- Node1 -->
<g id="Node000001" class="node">
<title>Node1</title>
<g id="a_Node000001"><a xlink:title="Simple synchronous logger with configurable output sinks.">
<polygon fill="#999999" stroke="#666666" points="160.63,-140 57.63,-140 57.63,-110 160.63,-110 160.63,-140"/>
<text text-anchor="start" x="65.63" y="-128" font-family="Helvetica,sans-Serif" font-size="10.00">include/helios/util</text>
<text text-anchor="middle" x="109.13" y="-117" font-family="Helvetica,sans-Serif" font-size="10.00">/log/Logger.ixx</text>
</a>
</g>
</g>
<!-- Node2 -->
<g id="Node000002" class="node">
<title>Node2</title>
<g id="a_Node000002"><a xlink:title=" ">
<polygon fill="#e0e0e0" stroke="#999999" points="157.13,-19 113.13,-19 113.13,0 157.13,0 157.13,-19"/>
<text text-anchor="middle" x="135.13" y="-7" font-family="Helvetica,sans-Serif" font-size="10.00">string</text>
</a>
</g>
</g>
<!-- Node1&#45;&gt;Node2 -->
<g id="edge1_Node000001_Node000002" class="edge">
<title>Node1&#45;&gt;Node2</title>
<g id="a_edge1_Node000001_Node000002"><a xlink:title=" ">
<path fill="none" stroke="#63b8ff" d="M57.48,-110.87C22.9,-99.43 -13.2,-80.65 5.13,-55 27.15,-24.18 71.87,-14.48 102.65,-11.55"/>
<polygon fill="#63b8ff" stroke="#63b8ff" points="103.2,-15.01 112.9,-10.77 102.67,-8.03 103.2,-15.01"/>
</a>
</g>
</g>
<!-- Node3 -->
<g id="Node000003" class="node">
<title>Node3</title>
<g id="a_Node000003"><a xlink:title=" ">
<polygon fill="#e0e0e0" stroke="#999999" points="61.63,-74 14.63,-74 14.63,-55 61.63,-55 61.63,-74"/>
<text text-anchor="middle" x="38.13" y="-62" font-family="Helvetica,sans-Serif" font-size="10.00">vector</text>
</a>
</g>
</g>
<!-- Node1&#45;&gt;Node3 -->
<g id="edge2_Node000001_Node000003" class="edge">
<title>Node1&#45;&gt;Node3</title>
<g id="a_edge2_Node000001_Node000003"><a xlink:title=" ">
<path fill="none" stroke="#63b8ff" d="M91.94,-109.84C81.32,-101.09 67.69,-89.85 56.8,-80.88"/>
<polygon fill="#63b8ff" stroke="#63b8ff" points="58.71,-77.92 48.77,-74.27 54.26,-83.33 58.71,-77.92"/>
</a>
</g>
</g>
<!-- Node4 -->
<g id="Node000004" class="node">
<title>Node4</title>
<g id="a_Node000004"><a xlink:title=" ">
<polygon fill="#e0e0e0" stroke="#999999" points="138.13,-74 80.13,-74 80.13,-55 138.13,-55 138.13,-74"/>
<text text-anchor="middle" x="109.13" y="-62" font-family="Helvetica,sans-Serif" font-size="10.00">memory</text>
</a>
</g>
</g>
<!-- Node1&#45;&gt;Node4 -->
<g id="edge3_Node000001_Node000004" class="edge">
<title>Node1&#45;&gt;Node4</title>
<g id="a_edge3_Node000001_Node000004"><a xlink:title=" ">
<path fill="none" stroke="#63b8ff" d="M109.13,-109.84C109.13,-102.21 109.13,-92.7 109.13,-84.45"/>
<polygon fill="#63b8ff" stroke="#63b8ff" points="112.63,-84.27 109.13,-74.27 105.63,-84.27 112.63,-84.27"/>
</a>
</g>
</g>
<!-- Node5 -->
<g id="Node000005" class="node">
<title>Node5</title>
<g id="a_Node000005"><a xlink:title=" ">
<polygon fill="#e0e0e0" stroke="#999999" points="204.13,-74 156.13,-74 156.13,-55 204.13,-55 204.13,-74"/>
<text text-anchor="middle" x="180.13" y="-62" font-family="Helvetica,sans-Serif" font-size="10.00">mutex</text>
</a>
</g>
</g>
<!-- Node1&#45;&gt;Node5 -->
<g id="edge4_Node000001_Node000005" class="edge">
<title>Node1&#45;&gt;Node5</title>
<g id="a_edge4_Node000001_Node000005"><a xlink:title=" ">
<path fill="none" stroke="#63b8ff" d="M126.32,-109.84C136.94,-101.09 150.57,-89.85 161.46,-80.88"/>
<polygon fill="#63b8ff" stroke="#63b8ff" points="164,-83.33 169.49,-74.27 159.55,-77.92 164,-83.33"/>
</a>
</g>
</g>
<!-- Node6 -->
<g id="Node000006" class="node">
<title>Node6</title>
<g id="a_Node000006"><a xlink:href="LogSink_8ixx.html" target="_top" xlink:title="Abstract interface for log output destinations.">
<polygon fill="white" stroke="#666666" points="346.13,-74 222.13,-74 222.13,-55 346.13,-55 346.13,-74"/>
<text text-anchor="middle" x="284.13" y="-62" font-family="Helvetica,sans-Serif" font-size="10.00">helios.util.log.LogSink</text>
</a>
</g>
</g>
<!-- Node1&#45;&gt;Node6 -->
<g id="edge5_Node000001_Node000006" class="edge">
<title>Node1&#45;&gt;Node6</title>
<g id="a_edge5_Node000001_Node000006"><a xlink:title=" ">
<path fill="none" stroke="#63b8ff" d="M151.05,-109.99C180.86,-100.02 220.46,-86.78 248.69,-77.35"/>
<polygon fill="#63b8ff" stroke="#63b8ff" points="250.17,-80.54 258.54,-74.05 247.95,-73.9 250.17,-80.54"/>
</a>
</g>
</g>
<!-- Node6&#45;&gt;Node2 -->
<g id="edge6_Node000006_Node000002" class="edge">
<title>Node6&#45;&gt;Node2</title>
<g id="a_edge6_Node000006_Node000002"><a xlink:title=" ">
<path fill="none" stroke="#63b8ff" d="M260.19,-54.98C234.99,-46.02 195.17,-31.86 167.25,-21.92"/>
<polygon fill="#63b8ff" stroke="#63b8ff" points="168.14,-18.53 157.55,-18.47 165.8,-25.12 168.14,-18.53"/>
</a>
</g>
</g>
</g>
</svg>
