<?xml version="1.0" encoding="UTF-8" standalone="no"?>
<!DOCTYPE svg PUBLIC "-//W3C//DTD SVG 1.1//EN"
 "http://www.w3.org/Graphics/SVG/1.1/DTD/svg11.dtd">
<!-- Generated by graphviz version 2.43.0 (0)
 -->
<!-- Title: include/helios/util/log/LogManager.ixx Pages: 1 -->
<svg width="579pt" height="203pt"
 viewBox="0.00 0.00 578.60 203.00" xmlns="http://www.w3.org/2000/svg" xmlns:xlink="http://www.w3.org/1999/xlink">
<g id="graph0" class="graph" transform="scale(1 1) rotate(0) translate(4 199)">
<title>include/helios/util/log/LogManager.ixx</title>
<!-- Node1 -->
<g id="Node000001" class="node">
<title>Node1</title>
<g id="a_Node000001"><a xlink:title="Central manager for scoped loggers with configurable sinks.">
<polygon fill="#999999" stroke="#666666" points="320.1,-195 205.1,-195 205.1,-165 320.1,-165 320.1,-195"/>
<text text-anchor="start" x="213.1" y="-183" font-family="Helvetica,sans-Serif" font-size="10.00">include/helios/util</text>
<text text-anchor="middle" x="262.6" y="-172" font-family="Helvetica,sans-Serif" font-size="10.00">/log/LogManager.ixx</text>
</a>
</g>
</g>
<!-- Node2 -->
<g id="Node000002" class="node">
<title>Node2</title>
<g id="a_Node000002"><a xlink:title=" ">
<polygon fill="#e0e0e0" stroke="#999999" points="96.6,-19 52.6,-19 52.6,0 96.6,0 96.6,-19"/>
<text text-anchor="middle" x="74.6" y="-7" font-family="Helvetica,sans-Serif" font-size="10.00">string</text>
</a>
</g>
</g>
<!-- Node1&#45;&gt;Node2 -->
<g id="edge1_Node000001_Node000002" class="edge">
<title>Node1&#45;&gt;Node2</title>
<g id="a_edge1_Node000001_Node000002"><a xlink:title=" ">
<path fill="none" stroke="#63b8ff" d="M205.06,-174.63C142.57,-166.39 46.01,-142.62 3.6,-74 -9.73,-52.42 18.41,-33.9 43.11,-22.52"/>
<polygon fill="#63b8ff" stroke="#63b8ff" points="44.54,-25.72 52.31,-18.52 41.74,-19.3 44.54,-25.72"/>
</a>
</g>
</g>
<!-- Node3 -->
<g id="Node000003" class="node">
<title>Node3</title>
<g id="a_Node000003"><a xlink:title=" ">
<polygon fill="#e0e0e0" stroke="#999999" points="466.1,-129 373.1,-129 373.1,-110 466.1,-110 466.1,-129"/>
<text text-anchor="middle" x="419.6" y="-117" font-family="Helvetica,sans-Serif" font-size="10.00">unordered_map</text>
</a>
</g>
</g>
<!-- Node1&#45;&gt;Node3 -->
<g id="edge2_Node000001_Node000003" class="edge">
<title>Node1&#45;&gt;Node3</title>
<g id="a_edge2_Node000001_Node000003"><a xlink:title=" ">
<path fill="none" stroke="#63b8ff" d="M300.21,-164.99C326.64,-155.14 361.65,-142.1 386.91,-132.68"/>
<polygon fill="#63b8ff" stroke="#63b8ff" points="388.27,-135.91 396.42,-129.14 385.83,-129.35 388.27,-135.91"/>
</a>
</g>
</g>
<!-- Node4 -->
<g id="Node000004" class="node">
<title>Node4</title>
<g id="a_Node000004"><a xlink:title=" ">
<polygon fill="#e0e0e0" stroke="#999999" points="570.6,-129 484.6,-129 484.6,-110 570.6,-110 570.6,-129"/>
<text text-anchor="middle" x="527.6" y="-117" font-family="Helvetica,sans-Serif" font-size="10.00">unordered_set</text>
</a>
</g>
</g>
<!-- Node1&#45;&gt;Node4 -->
<g id="edge3_Node000001_Node000004" class="edge">
<title>Node1&#45;&gt;Node4</title>
<g id="a_edge3_Node000001_Node000004"><a xlink:title=" ">
<path fill="none" stroke="#63b8ff" d="M320.1,-166.31C367.66,-155.81 434.42,-141.07 479.26,-131.17"/>
<polygon fill="#63b8ff" stroke="#63b8ff" points="480.02,-134.59 489.03,-129.01 478.52,-127.75 480.02,-134.59"/>
</a>
</g>
</g>
<!-- Node5 -->
<g id="Node000005" class="node">
<title>Node5</title>
<g id="a_Node000005"><a xlink:title=" ">
<polygon fill="#e0e0e0" stroke="#999999" points="212.6,-74 154.6,-74 154.6,-55 212.6,-55 212.6,-74"/>
<text text-anchor="middle" x="183.6" y="-62" font-family="Helvetica,sans-Serif" font-size="10.00">memory</text>
</a>
</g>
</g>
<!-- Node1&#45;&gt;Node5 -->
<g id="edge4_Node000001_Node000005" class="edge">
<title>Node1&#45;&gt;Node5</title>
<g id="a_edge4_Node000001_Node000005"><a xlink:title=" ">
<path fill="none" stroke="#63b8ff" d="M204.96,-167.12C184.2,-159.76 162.89,-147.94 150.6,-129 140.43,-113.32 153.62,-94.13 166.22,-80.98"/>
<polygon fill="#63b8ff" stroke="#63b8ff" points="168.66,-83.49 173.39,-74.01 163.78,-78.47 168.66,-83.49"/>
</a>
</g>
</g>
<!-- Node6 -->
<g id="Node000006" class="node">
<title>Node6</title>
<g id="a_Node000006"><a xlink:title=" ">
<polygon fill="#e0e0e0" stroke="#999999" points="316.6,-74 268.6,-74 268.6,-55 316.6,-55 316.6,-74"/>
<text text-anchor="middle" x="292.6" y="-62" font-family="Helvetica,sans-Serif" font-size="10.00">mutex</text>
</a>
</g>
</g>
<!-- Node1&#45;&gt;Node6 -->
<g id="edge5_Node000001_Node000006" class="edge">
<title>Node1&#45;&gt;Node6</title>
<g id="a_edge5_Node000001_Node000006"><a xlink:title=" ">
<path fill="none" stroke="#63b8ff" d="M271.6,-164.72C277.23,-155.03 284.07,-141.72 287.6,-129 291.64,-114.48 292.8,-97.42 292.99,-84.65"/>
<polygon fill="#63b8ff" stroke="#63b8ff" points="296.49,-84.3 292.96,-74.31 289.49,-84.32 296.49,-84.3"/>
</a>
</g>
</g>
<!-- Node7 -->
<g id="Node000007" class="node">
<title>Node7</title>
<g id="a_Node000007"><a xlink:title=" ">
<polygon fill="#e0e0e0" stroke="#999999" points="382.1,-74 335.1,-74 335.1,-55 382.1,-55 382.1,-74"/>
<text text-anchor="middle" x="358.6" y="-62" font-family="Helvetica,sans-Serif" font-size="10.00">vector</text>
</a>
</g>
</g>
<!-- Node1&#45;&gt;Node7 -->
<g id="edge6_Node000001_Node000007" class="edge">
<title>Node1&#45;&gt;Node7</title>
<g id="a_edge6_Node000001_Node000007"><a xlink:title=" ">
<path fill="none" stroke="#63b8ff" d="M274.76,-164.63C292.58,-143.56 325.7,-104.4 344.54,-82.13"/>
<polygon fill="#63b8ff" stroke="#63b8ff" points="347.43,-84.12 351.22,-74.23 342.09,-79.6 347.43,-84.12"/>
</a>
</g>
</g>
<!-- Node8 -->
<g id="Node000008" class="node">
<title>Node8</title>
<g id="a_Node000008"><a xlink:href="Logger_8ixx.html" target="_top" xlink:title="Simple synchronous logger with configurable output sinks.">
<polygon fill="white" stroke="#666666" points="278.1,-129 159.1,-129 159.1,-110 278.1,-110 278.1,-129"/>
<text text-anchor="middle" x="218.6" y="-117" font-family="Helvetica,sans-Serif" font-size="10.00">helios.util.log.Logger</text>
</a>
</g>
</g>
<!-- Node1&#45;&gt;Node8 -->
<g id="edge7_Node000001_Node000008" class="edge">
<title>Node1&#45;&gt;Node8</title>
<g id="a_edge7_Node000001_Node000008"><a xlink:title=" ">
<path fill="none" stroke="#63b8ff" d="M251.95,-164.84C245.76,-156.61 237.92,-146.18 231.39,-137.51"/>
<polygon fill="#63b8ff" stroke="#63b8ff" points="234,-135.15 225.2,-129.27 228.41,-139.36 234,-135.15"/>
</a>
</g>
</g>
<!-- Node9 -->
<g id="Node000009" class="node">
<title>Node9</title>
<g id="a_Node000009"><a xlink:href="LogSink_8ixx.html" target="_top" xlink:title="Abstract interface for log output destinations.">
<polygon fill="white" stroke="#666666" points="136.6,-74 12.6,-74 12.6,-55 136.6,-55 136.6,-74"/>
<text text-anchor="middle" x="74.6" y="-62" font-family="Helvetica,sans-Serif" font-size="10.00">helios.util.log.LogSink</text>
</a>
</g>
</g>
<!-- Node1&#45;&gt;Node9 -->
<g id="edge14_Node000001_Node000009" class="edge">
<title>Node1&#45;&gt;Node9</title>
<g id="a_edge14_Node000001_Node000009"><a xlink:title=" ">
<path fill="none" stroke="#63b8ff" d="M218.55,-164.93C195.01,-156.38 166.12,-144.17 142.6,-129 121.95,-115.68 101.83,-95.76 88.9,-81.8"/>
<polygon fill="#63b8ff" stroke="#63b8ff" points="91.48,-79.42 82.17,-74.35 86.28,-84.12 91.48,-79.42"/>
</a>
</g>
</g>
<!-- Node8&#45;&gt;Node2 -->
<g id="edge8_Node000008_Node000002" class="edge">
<title>Node8&#45;&gt;Node2</title>
<g id="a_edge8_Node000008_Node000002"><a xlink:title=" ">
<path fill="none" stroke="#63b8ff" d="M222.21,-109.69C227.01,-96.42 233.57,-71.13 221.6,-55 195.32,-19.59 141.64,-11.36 106.94,-9.97"/>
<polygon fill="#63b8ff" stroke="#63b8ff" points="106.9,-6.47 96.83,-9.73 106.74,-13.46 106.9,-6.47"/>
</a>
</g>
</g>
<!-- Node8&#45;&gt;Node5 -->
<g id="edge10_Node000008_Node000005" class="edge">
<title>Node8&#45;&gt;Node5</title>
<g id="a_edge10_Node000008_Node000005"><a xlink:title=" ">
<path fill="none" stroke="#63b8ff" d="M212.82,-109.75C207.98,-102.42 200.92,-91.73 194.96,-82.7"/>
<polygon fill="#63b8ff" stroke="#63b8ff" points="197.71,-80.5 189.28,-74.09 191.87,-84.36 197.71,-80.5"/>
</a>
</g>
</g>
<!-- Node8&#45;&gt;Node6 -->
<g id="edge11_Node000008_Node000006" class="edge">
<title>Node8&#45;&gt;Node6</title>
<g id="a_edge11_Node000008_Node000006"><a xlink:title=" ">
<path fill="none" stroke="#63b8ff" d="M230.49,-109.98C241.75,-101.92 258.89,-89.65 272.31,-80.03"/>
<polygon fill="#63b8ff" stroke="#63b8ff" points="274.41,-82.84 280.5,-74.17 270.33,-77.15 274.41,-82.84"/>
</a>
</g>
</g>
<!-- Node8&#45;&gt;Node7 -->
<g id="edge9_Node000008_Node000007" class="edge">
<title>Node8&#45;&gt;Node7</title>
<g id="a_edge9_Node000008_Node000007"><a xlink:title=" ">
<path fill="none" stroke="#63b8ff" d="M241.1,-109.98C264.13,-101.27 300.14,-87.63 326.23,-77.75"/>
<polygon fill="#63b8ff" stroke="#63b8ff" points="327.59,-80.98 335.7,-74.17 325.11,-74.44 327.59,-80.98"/>
</a>
</g>
</g>
<!-- Node8&#45;&gt;Node9 -->
<g id="edge12_Node000008_Node000009" class="edge">
<title>Node8&#45;&gt;Node9</title>
<g id="a_edge12_Node000008_Node000009"><a xlink:title=" ">
<path fill="none" stroke="#63b8ff" d="M195.47,-109.98C171.78,-101.27 134.73,-87.63 107.9,-77.75"/>
<polygon fill="#63b8ff" stroke="#63b8ff" points="108.75,-74.34 98.16,-74.17 106.34,-80.91 108.75,-74.34"/>
</a>
</g>
</g>
<!-- Node9&#45;&gt;Node2 -->
<g id="edge13_Node000009_Node000002" class="edge">
<title>Node9&#45;&gt;Node2</title>
<g id="a_edge13_Node000009_Node000002"><a xlink:title=" ">
<path fill="none" stroke="#63b8ff" d="M74.6,-54.75C74.6,-47.8 74.6,-37.85 74.6,-29.13"/>
<polygon fill="#63b8ff" stroke="#63b8ff" points="78.1,-29.09 74.6,-19.09 71.1,-29.09 78.1,-29.09"/>
</a>
</g>
</g>
</g>
</svg>
