<?xml version="1.0" encoding="UTF-8" standalone="no"?>
<!DOCTYPE svg PUBLIC "-//W3C//DTD SVG 1.1//EN"
 "http://www.w3.org/Graphics/SVG/1.1/DTD/svg11.dtd">
<!-- Generated by graphviz version 2.43.0 (0)
 -->
<!-- Title: include/helios/util/log/LogManager.ixx Pages: 1 -->
<svg width="396pt" height="148pt"
 viewBox="0.00 0.00 395.93 148.00" xmlns="http://www.w3.org/2000/svg" xmlns:xlink="http://www.w3.org/1999/xlink">
<g id="graph0" class="graph" transform="scale(1 1) rotate(0) translate(4 144)">
<title>include/helios/util/log/LogManager.ixx</title>
<!-- Node1 -->
<g id="Node000001" class="node">
<title>Node1</title>
<g id="a_Node000001"><a xlink:title=" ">
<polygon fill="#999999" stroke="#666666" points="212.93,-140 97.93,-140 97.93,-110 212.93,-110 212.93,-140"/>
<text text-anchor="start" x="105.93" y="-128" font-family="Helvetica,sans-Serif" font-size="10.00">include/helios/util</text>
<text text-anchor="middle" x="155.43" y="-117" font-family="Helvetica,sans-Serif" font-size="10.00">/log/LogManager.ixx</text>
</a>
</g>
</g>
<!-- Node2 -->
<g id="Node000002" class="node">
<title>Node2</title>
<g id="a_Node000002"><a xlink:title=" ">
<polygon fill="#e0e0e0" stroke="#999999" points="144.43,-19 100.43,-19 100.43,0 144.43,0 144.43,-19"/>
<text text-anchor="middle" x="122.43" y="-7" font-family="Helvetica,sans-Serif" font-size="10.00">string</text>
</a>
</g>
</g>
<!-- Node1&#45;&gt;Node2 -->
<g id="edge1_Node000001_Node000002" class="edge">
<title>Node1&#45;&gt;Node2</title>
<g id="a_edge1_Node000001_Node000002"><a xlink:title=" ">
<path fill="none" stroke="#63b8ff" d="M97.73,-120.68C64.95,-115.49 26.38,-103.06 5.43,-74 -18.72,-40.48 47.91,-22.81 90.31,-15.2"/>
<polygon fill="#63b8ff" stroke="#63b8ff" points="90.97,-18.64 100.24,-13.52 89.8,-11.74 90.97,-18.64"/>
</a>
</g>
</g>
<!-- Node3 -->
<g id="Node000003" class="node">
<title>Node3</title>
<g id="a_Node000003"><a xlink:title=" ">
<polygon fill="#e0e0e0" stroke="#999999" points="107.93,-74 14.93,-74 14.93,-55 107.93,-55 107.93,-74"/>
<text text-anchor="middle" x="61.43" y="-62" font-family="Helvetica,sans-Serif" font-size="10.00">unordered_map</text>
</a>
</g>
</g>
<!-- Node1&#45;&gt;Node3 -->
<g id="edge2_Node000001_Node000003" class="edge">
<title>Node1&#45;&gt;Node3</title>
<g id="a_edge2_Node000001_Node000003"><a xlink:title=" ">
<path fill="none" stroke="#63b8ff" d="M132.68,-109.84C117.83,-100.6 98.54,-88.59 83.77,-79.4"/>
<polygon fill="#63b8ff" stroke="#63b8ff" points="85.58,-76.41 75.25,-74.09 81.89,-82.35 85.58,-76.41"/>
</a>
</g>
</g>
<!-- Node4 -->
<g id="Node000004" class="node">
<title>Node4</title>
<g id="a_Node000004"><a xlink:title=" ">
<polygon fill="#e0e0e0" stroke="#999999" points="184.43,-74 126.43,-74 126.43,-55 184.43,-55 184.43,-74"/>
<text text-anchor="middle" x="155.43" y="-62" font-family="Helvetica,sans-Serif" font-size="10.00">memory</text>
</a>
</g>
</g>
<!-- Node1&#45;&gt;Node4 -->
<g id="edge3_Node000001_Node000004" class="edge">
<title>Node1&#45;&gt;Node4</title>
<g id="a_edge3_Node000001_Node000004"><a xlink:title=" ">
<path fill="none" stroke="#63b8ff" d="M155.43,-109.84C155.43,-102.21 155.43,-92.7 155.43,-84.45"/>
<polygon fill="#63b8ff" stroke="#63b8ff" points="158.94,-84.27 155.43,-74.27 151.94,-84.27 158.94,-84.27"/>
</a>
</g>
</g>
<!-- Node5 -->
<g id="Node000005" class="node">
<title>Node5</title>
<g id="a_Node000005"><a xlink:title=" ">
<polygon fill="#e0e0e0" stroke="#999999" points="250.43,-74 202.43,-74 202.43,-55 250.43,-55 250.43,-74"/>
<text text-anchor="middle" x="226.43" y="-62" font-family="Helvetica,sans-Serif" font-size="10.00">mutex</text>
</a>
</g>
</g>
<!-- Node1&#45;&gt;Node5 -->
<g id="edge4_Node000001_Node000005" class="edge">
<title>Node1&#45;&gt;Node5</title>
<g id="a_edge4_Node000001_Node000005"><a xlink:title=" ">
<path fill="none" stroke="#63b8ff" d="M172.62,-109.84C183.24,-101.09 196.88,-89.85 207.76,-80.88"/>
<polygon fill="#63b8ff" stroke="#63b8ff" points="210.3,-83.33 215.8,-74.27 205.85,-77.92 210.3,-83.33"/>
</a>
</g>
</g>
<!-- Node6 -->
<g id="Node000006" class="node">
<title>Node6</title>
<g id="a_Node000006"><a xlink:href="Logger_8ixx.html" target="_top" xlink:title=" ">
<polygon fill="white" stroke="#666666" points="387.93,-74 268.93,-74 268.93,-55 387.93,-55 387.93,-74"/>
<text text-anchor="middle" x="328.43" y="-62" font-family="Helvetica,sans-Serif" font-size="10.00">helios.util.log.Logger</text>
</a>
</g>
</g>
<!-- Node1&#45;&gt;Node6 -->
<g id="edge5_Node000001_Node000006" class="edge">
<title>Node1&#45;&gt;Node6</title>
<g id="a_edge5_Node000001_Node000006"><a xlink:title=" ">
<path fill="none" stroke="#63b8ff" d="M196.87,-109.99C226.34,-100.02 265.49,-86.78 293.4,-77.35"/>
<polygon fill="#63b8ff" stroke="#63b8ff" points="294.79,-80.57 303.14,-74.05 292.55,-73.94 294.79,-80.57"/>
</a>
</g>
</g>
<!-- Node6&#45;&gt;Node2 -->
<g id="edge7_Node000006_Node000002" class="edge">
<title>Node6&#45;&gt;Node2</title>
<g id="a_edge7_Node000006_Node000002"><a xlink:title=" ">
<path fill="none" stroke="#63b8ff" d="M295.34,-54.98C256.66,-45.03 193.1,-28.68 154.76,-18.82"/>
<polygon fill="#63b8ff" stroke="#63b8ff" points="155.21,-15.32 144.66,-16.22 153.47,-22.1 155.21,-15.32"/>
</a>
</g>
</g>
<!-- Node7 -->
<g id="Node000007" class="node">
<title>Node7</title>
<g id="a_Node000007"><a xlink:title=" ">
<polygon fill="#e0e0e0" stroke="#999999" points="358.43,-19 298.43,-19 298.43,0 358.43,0 358.43,-19"/>
<text text-anchor="middle" x="328.43" y="-7" font-family="Helvetica,sans-Serif" font-size="10.00">iostream</text>
</a>
</g>
</g>
<!-- Node6&#45;&gt;Node7 -->
<g id="edge6_Node000006_Node000007" class="edge">
<title>Node6&#45;&gt;Node7</title>
<g id="a_edge6_Node000006_Node000007"><a xlink:title=" ">
<path fill="none" stroke="#63b8ff" d="M328.43,-54.75C328.43,-47.8 328.43,-37.85 328.43,-29.13"/>
<polygon fill="#63b8ff" stroke="#63b8ff" points="331.94,-29.09 328.43,-19.09 324.94,-29.09 331.94,-29.09"/>
</a>
</g>
</g>
</g>
</svg>
