<?xml version="1.0" encoding="UTF-8" standalone="no"?>
<!DOCTYPE svg PUBLIC "-//W3C//DTD SVG 1.1//EN"
 "http://www.w3.org/Graphics/SVG/1.1/DTD/svg11.dtd">
<!-- Generated by graphviz version 2.43.0 (0)
 -->
<!-- Title: include/helios/math/types/mat4.ixx Pages: 1 -->
<svg width="531pt" height="95pt"
 viewBox="0.00 0.00 530.50 95.21" xmlns="http://www.w3.org/2000/svg" xmlns:xlink="http://www.w3.org/1999/xlink">
<g id="graph0" class="graph" transform="scale(1 1) rotate(0) translate(4 91.21)">
<title>include/helios/math/types/mat4.ixx</title>
<!-- Node1 -->
<g id="Node000001" class="node">
<title>Node1</title>
<g id="a_Node000001"><a xlink:title=" ">
<polygon fill="#999999" stroke="#666666" points="232.5,-87.21 119.5,-87.21 119.5,-57.21 232.5,-57.21 232.5,-87.21"/>
<text text-anchor="start" x="127.5" y="-75.21" font-family="Helvetica,sans-Serif" font-size="10.00">include/helios/math</text>
<text text-anchor="middle" x="176" y="-64.21" font-family="Helvetica,sans-Serif" font-size="10.00">/types/mat4.ixx</text>
</a>
</g>
</g>
<!-- Node2 -->
<g id="Node000002" class="node">
<title>Node2</title>
<g id="a_Node000002"><a xlink:title=" ">
<polygon fill="#e0e0e0" stroke="#999999" points="52,-21.21 0,-21.21 0,-2.21 52,-2.21 52,-21.21"/>
<text text-anchor="middle" x="26" y="-9.21" font-family="Helvetica,sans-Serif" font-size="10.00">cassert</text>
</a>
</g>
</g>
<!-- Node1&#45;&gt;Node2 -->
<g id="edge1_Node000001_Node000002" class="edge">
<title>Node1&#45;&gt;Node2</title>
<g id="a_edge1_Node000001_Node000002"><a xlink:title=" ">
<path fill="none" stroke="#63b8ff" d="M140.07,-57.2C114.93,-47.39 81.67,-34.42 57.55,-25.01"/>
<polygon fill="#63b8ff" stroke="#63b8ff" points="58.74,-21.72 48.15,-21.35 56.2,-28.24 58.74,-21.72"/>
</a>
</g>
</g>
<!-- Node3 -->
<g id="Node000003" class="node">
<title>Node3</title>
<g id="a_Node000003"><a xlink:title=" ">
<polygon fill="#e0e0e0" stroke="#999999" points="135.5,-21.21 70.5,-21.21 70.5,-2.21 135.5,-2.21 135.5,-21.21"/>
<text text-anchor="middle" x="103" y="-9.21" font-family="Helvetica,sans-Serif" font-size="10.00">functional</text>
</a>
</g>
</g>
<!-- Node1&#45;&gt;Node3 -->
<g id="edge2_Node000001_Node000003" class="edge">
<title>Node1&#45;&gt;Node3</title>
<g id="a_edge2_Node000001_Node000003"><a xlink:title=" ">
<path fill="none" stroke="#63b8ff" d="M158.33,-57.05C147.3,-48.21 133.11,-36.84 121.87,-27.83"/>
<polygon fill="#63b8ff" stroke="#63b8ff" points="123.93,-25 113.94,-21.47 119.55,-30.46 123.93,-25"/>
</a>
</g>
</g>
<!-- Node4 -->
<g id="Node000004" class="node">
<title>Node4</title>
<g id="a_Node000004"><a xlink:title=" ">
<polygon fill="#e0e0e0" stroke="#999999" points="198.5,-21.21 153.5,-21.21 153.5,-2.21 198.5,-2.21 198.5,-21.21"/>
<text text-anchor="middle" x="176" y="-9.21" font-family="Helvetica,sans-Serif" font-size="10.00">utility</text>
</a>
</g>
</g>
<!-- Node1&#45;&gt;Node4 -->
<g id="edge3_Node000001_Node000004" class="edge">
<title>Node1&#45;&gt;Node4</title>
<g id="a_edge3_Node000001_Node000004"><a xlink:title=" ">
<path fill="none" stroke="#63b8ff" d="M176,-57.05C176,-49.42 176,-39.91 176,-31.66"/>
<polygon fill="#63b8ff" stroke="#63b8ff" points="179.5,-31.47 176,-21.47 172.5,-31.47 179.5,-31.47"/>
</a>
</g>
</g>
<!-- Node5 -->
<g id="Node000005" class="node">
<title>Node5</title>
<g id="a_Node000005"><a xlink:href="math_2concepts_2__module_8ixx.html" target="_top" xlink:title=" ">
<polygon fill="white" stroke="#666666" points="337.5,-21.21 216.5,-21.21 216.5,-2.21 337.5,-2.21 337.5,-21.21"/>
<text text-anchor="middle" x="277" y="-9.21" font-family="Helvetica,sans-Serif" font-size="10.00">helios.math.concepts</text>
</a>
</g>
</g>
<!-- Node1&#45;&gt;Node5 -->
<g id="edge4_Node000001_Node000005" class="edge">
<title>Node1&#45;&gt;Node5</title>
<g id="a_edge4_Node000001_Node000005"><a xlink:title=" ">
<path fill="none" stroke="#63b8ff" d="M200.19,-57.2C216.29,-47.87 237.34,-35.68 253.33,-26.42"/>
<polygon fill="#63b8ff" stroke="#63b8ff" points="255.19,-29.39 262.08,-21.35 251.68,-23.33 255.19,-29.39"/>
</a>
</g>
</g>
<!-- Node6 -->
<g id="Node000006" class="node">
<title>Node6</title>
<g id="a_Node000006"><a xlink:href="math_2types_2__module_8ixx.html" target="_top" xlink:title=" ">
<polygon fill="white" stroke="#666666" points="504.5,-21.21 373.5,-21.21 373.5,-2.21 504.5,-2.21 504.5,-21.21"/>
<text text-anchor="middle" x="439" y="-9.21" font-family="Helvetica,sans-Serif" font-size="10.00">helios.math.types:vec3</text>
</a>
</g>
</g>
<!-- Node1&#45;&gt;Node6 -->
<g id="edge6_Node000001_Node000006" class="edge">
<title>Node1&#45;&gt;Node6</title>
<g id="a_edge6_Node000001_Node000006"><a xlink:title=" ">
<path fill="none" stroke="#63b8ff" d="M232.74,-58.59C279.81,-48.12 346.02,-33.39 390.62,-23.47"/>
<polygon fill="#63b8ff" stroke="#63b8ff" points="391.62,-26.83 400.63,-21.24 390.1,-20 391.62,-26.83"/>
</a>
</g>
</g>
<!-- Node5&#45;&gt;Node5 -->
<g id="edge5_Node000005_Node000005" class="edge">
<title>Node5&#45;&gt;Node5</title>
<g id="a_edge5_Node000005_Node000005"><a xlink:title=" ">
<path fill="none" stroke="#63b8ff" d="M305.99,-21.24C330.2,-25.32 355.5,-22.14 355.5,-11.71 355.5,-2.7 336.64,0.9 315.91,-0.91"/>
<polygon fill="#63b8ff" stroke="#63b8ff" points="315.46,2.56 305.99,-2.17 316.35,-4.38 315.46,2.56"/>
</a>
</g>
</g>
<!-- Node6&#45;&gt;Node6 -->
<g id="edge7_Node000006_Node000006" class="edge">
<title>Node6&#45;&gt;Node6</title>
<g id="a_edge7_Node000006_Node000006"><a xlink:title=" ">
<path fill="none" stroke="#63b8ff" d="M469.83,-21.24C495.59,-25.32 522.5,-22.14 522.5,-11.71 522.5,-2.62 502.08,0.96 479.79,-0.96"/>
<polygon fill="#63b8ff" stroke="#63b8ff" points="479.33,2.51 469.83,-2.17 480.18,-4.44 479.33,2.51"/>
</a>
</g>
</g>
</g>
</svg>
