<?xml version="1.0" encoding="UTF-8" standalone="no"?>
<!DOCTYPE svg PUBLIC "-//W3C//DTD SVG 1.1//EN"
 "http://www.w3.org/Graphics/SVG/1.1/DTD/svg11.dtd">
<!-- Generated by graphviz version 2.43.0 (0)
 -->
<!-- Title: include/helios/math/types/mat4.ixx Pages: 1 -->
<svg width="635pt" height="148pt"
 viewBox="0.00 0.00 634.50 148.00" xmlns="http://www.w3.org/2000/svg" xmlns:xlink="http://www.w3.org/1999/xlink">
<g id="graph0" class="graph" transform="scale(1 1) rotate(0) translate(4 144)">
<title>include/helios/math/types/mat4.ixx</title>
<!-- Node1 -->
<g id="Node000001" class="node">
<title>Node1</title>
<g id="a_Node000001"><a xlink:title="4x4 matrix type and utilities.">
<polygon fill="#999999" stroke="#666666" points="270.5,-140 157.5,-140 157.5,-110 270.5,-110 270.5,-140"/>
<text text-anchor="start" x="165.5" y="-128" font-family="Helvetica,sans-Serif" font-size="10.00">include/helios/math</text>
<text text-anchor="middle" x="214" y="-117" font-family="Helvetica,sans-Serif" font-size="10.00">/types/mat4.ixx</text>
</a>
</g>
</g>
<!-- Node2 -->
<g id="Node000002" class="node">
<title>Node2</title>
<g id="a_Node000002"><a xlink:title=" ">
<polygon fill="#e0e0e0" stroke="#999999" points="52,-74 0,-74 0,-55 52,-55 52,-74"/>
<text text-anchor="middle" x="26" y="-62" font-family="Helvetica,sans-Serif" font-size="10.00">cassert</text>
</a>
</g>
</g>
<!-- Node1&#45;&gt;Node2 -->
<g id="edge1_Node000001_Node000002" class="edge">
<title>Node1&#45;&gt;Node2</title>
<g id="a_edge1_Node000001_Node000002"><a xlink:title=" ">
<path fill="none" stroke="#63b8ff" d="M168.97,-109.99C136.18,-99.78 92.35,-86.15 61.91,-76.67"/>
<polygon fill="#63b8ff" stroke="#63b8ff" points="62.72,-73.26 52.13,-73.63 60.64,-79.94 62.72,-73.26"/>
</a>
</g>
</g>
<!-- Node3 -->
<g id="Node000003" class="node">
<title>Node3</title>
<g id="a_Node000003"><a xlink:title=" ">
<polygon fill="#e0e0e0" stroke="#999999" points="135.5,-74 70.5,-74 70.5,-55 135.5,-55 135.5,-74"/>
<text text-anchor="middle" x="103" y="-62" font-family="Helvetica,sans-Serif" font-size="10.00">functional</text>
</a>
</g>
</g>
<!-- Node1&#45;&gt;Node3 -->
<g id="edge2_Node000001_Node000003" class="edge">
<title>Node1&#45;&gt;Node3</title>
<g id="a_edge2_Node000001_Node000003"><a xlink:title=" ">
<path fill="none" stroke="#63b8ff" d="M187.41,-109.99C169.55,-100.58 146.16,-88.24 128.52,-78.95"/>
<polygon fill="#63b8ff" stroke="#63b8ff" points="129.87,-75.71 119.39,-74.14 126.61,-81.9 129.87,-75.71"/>
</a>
</g>
</g>
<!-- Node4 -->
<g id="Node000004" class="node">
<title>Node4</title>
<g id="a_Node000004"><a xlink:href="helios_2math_2concepts_2__module_8ixx.html" target="_top" xlink:title="Math concepts module exports.">
<polygon fill="white" stroke="#666666" points="274.5,-74 153.5,-74 153.5,-55 274.5,-55 274.5,-74"/>
<text text-anchor="middle" x="214" y="-62" font-family="Helvetica,sans-Serif" font-size="10.00">helios.math.concepts</text>
</a>
</g>
</g>
<!-- Node1&#45;&gt;Node4 -->
<g id="edge3_Node000001_Node000004" class="edge">
<title>Node1&#45;&gt;Node4</title>
<g id="a_edge3_Node000001_Node000004"><a xlink:title=" ">
<path fill="none" stroke="#63b8ff" d="M214,-109.84C214,-102.21 214,-92.7 214,-84.45"/>
<polygon fill="#63b8ff" stroke="#63b8ff" points="217.5,-84.27 214,-74.27 210.5,-84.27 217.5,-84.27"/>
</a>
</g>
</g>
<!-- Node5 -->
<g id="Node000005" class="node">
<title>Node5</title>
<g id="a_Node000005"><a xlink:href="helios_2math_2types_2__module_8ixx.html" target="_top" xlink:title="Module exports for vector and matrix type definitions.">
<polygon fill="white" stroke="#666666" points="441.5,-74 310.5,-74 310.5,-55 441.5,-55 441.5,-74"/>
<text text-anchor="middle" x="376" y="-62" font-family="Helvetica,sans-Serif" font-size="10.00">helios.math.types:vec4</text>
</a>
</g>
</g>
<!-- Node1&#45;&gt;Node5 -->
<g id="edge5_Node000001_Node000005" class="edge">
<title>Node1&#45;&gt;Node5</title>
<g id="a_edge5_Node000001_Node000005"><a xlink:title=" ">
<path fill="none" stroke="#63b8ff" d="M252.8,-109.99C280.19,-100.1 316.52,-86.98 342.61,-77.56"/>
<polygon fill="#63b8ff" stroke="#63b8ff" points="343.86,-80.83 352.08,-74.14 341.48,-74.24 343.86,-80.83"/>
</a>
</g>
</g>
<!-- Node6 -->
<g id="Node000006" class="node">
<title>Node6</title>
<g id="a_Node000006"><a xlink:href="TransformType_8ixx.html" target="_top" xlink:title="Defines transform inheritance flags for scene graph hierarchies.">
<polygon fill="white" stroke="#666666" points="626.5,-74 477.5,-74 477.5,-55 626.5,-55 626.5,-74"/>
<text text-anchor="middle" x="552" y="-62" font-family="Helvetica,sans-Serif" font-size="10.00">helios.math.TransformType</text>
</a>
</g>
</g>
<!-- Node1&#45;&gt;Node6 -->
<g id="edge7_Node000001_Node000006" class="edge">
<title>Node1&#45;&gt;Node6</title>
<g id="a_edge7_Node000001_Node000006"><a xlink:title=" ">
<path fill="none" stroke="#63b8ff" d="M270.57,-114.21C332.08,-103.56 429.95,-86.62 492.56,-75.79"/>
<polygon fill="#63b8ff" stroke="#63b8ff" points="493.42,-79.19 502.67,-74.04 492.22,-72.29 493.42,-79.19"/>
</a>
</g>
</g>
<!-- Node4&#45;&gt;Node4 -->
<g id="edge4_Node000004_Node000004" class="edge">
<title>Node4&#45;&gt;Node4</title>
<g id="a_edge4_Node000004_Node000004"><a xlink:title=" ">
<path fill="none" stroke="#63b8ff" d="M250.74,-74.03C272.31,-76.06 292.5,-72.88 292.5,-64.5 292.5,-57.49 278.39,-54.12 261.17,-54.39"/>
<polygon fill="#63b8ff" stroke="#63b8ff" points="260.53,-50.92 250.74,-54.97 260.92,-57.91 260.53,-50.92"/>
</a>
</g>
</g>
<!-- Node5&#45;&gt;Node5 -->
<g id="edge6_Node000005_Node000005" class="edge">
<title>Node5&#45;&gt;Node5</title>
<g id="a_edge6_Node000005_Node000005"><a xlink:title=" ">
<path fill="none" stroke="#63b8ff" d="M415.08,-74.03C438.03,-76.06 459.5,-72.88 459.5,-64.5 459.5,-57.36 443.93,-54 425.14,-54.41"/>
<polygon fill="#63b8ff" stroke="#63b8ff" points="424.87,-50.92 415.08,-54.97 425.26,-57.91 424.87,-50.92"/>
</a>
</g>
</g>
<!-- Node7 -->
<g id="Node000007" class="node">
<title>Node7</title>
<g id="a_Node000007"><a xlink:title=" ">
<polygon fill="#e0e0e0" stroke="#999999" points="577,-19 527,-19 527,0 577,0 577,-19"/>
<text text-anchor="middle" x="552" y="-7" font-family="Helvetica,sans-Serif" font-size="10.00">cstdint</text>
</a>
</g>
</g>
<!-- Node6&#45;&gt;Node7 -->
<g id="edge8_Node000006_Node000007" class="edge">
<title>Node6&#45;&gt;Node7</title>
<g id="a_edge8_Node000006_Node000007"><a xlink:title=" ">
<path fill="none" stroke="#63b8ff" d="M552,-54.75C552,-47.8 552,-37.85 552,-29.13"/>
<polygon fill="#63b8ff" stroke="#63b8ff" points="555.5,-29.09 552,-19.09 548.5,-29.09 555.5,-29.09"/>
</a>
</g>
</g>
</g>
</svg>
