<?xml version="1.0" encoding="UTF-8" standalone="no"?>
<!DOCTYPE svg PUBLIC "-//W3C//DTD SVG 1.1//EN"
 "http://www.w3.org/Graphics/SVG/1.1/DTD/svg11.dtd">
<!-- Generated by graphviz version 2.43.0 (0)
 -->
<!-- Title: include/helios/rendering/model/config/MaterialProperties.ixx Pages: 1 -->
<svg width="486pt" height="170pt"
 viewBox="0.00 0.00 486.00 170.00" xmlns="http://www.w3.org/2000/svg" xmlns:xlink="http://www.w3.org/1999/xlink">

<svg id="main" version="1.1" xmlns="http://www.w3.org/2000/svg" xmlns:xlink="http://www.w3.org/1999/xlink" xml:space="preserve">

<style type="text/css"><![CDATA[
.node, .edge {opacity: 0.7;}
.node.selected, .edge.selected {opacity: 1;}
.edge:hover path { stroke: red; }
.edge:hover polygon { stroke: red; fill: red; }
]]></style>
<script type="application/ecmascript" xlink:href="svg.min.js"/>
<svg id="graph" class="graph">
<g id="graph0" class="graph" transform="scale(1 1) rotate(0) translate(4 166)">
<title>include/helios/rendering/model/config/MaterialProperties.ixx</title>
<!-- Node1 -->
<g id="Node000001" class="node">
<title>Node1</title>
<g id="a_Node000001"><a xlink:title="Default material properties used by materials and instances.">
<polygon fill="#999999" stroke="#666666" points="337,-162 143,-162 143,-132 337,-132 337,-162"/>
<text text-anchor="start" x="151" y="-150" font-family="Helvetica,sans-Serif" font-size="10.00">include/helios/rendering</text>
<text text-anchor="middle" x="240" y="-139" font-family="Helvetica,sans-Serif" font-size="10.00">/model/config/MaterialProperties.ixx</text>
</a>
</g>
</g>
<!-- Node2 -->
<g id="Node000002" class="node">
<title>Node2</title>
<g id="a_Node000002"><a xlink:href="UniformSemantics_8ixx.html" target="_top" xlink:title="Definitions of uniform semantics used by shaders.">
<polygon fill="white" stroke="#666666" points="134,-30 0,-30 0,0 134,0 134,-30"/>
<text text-anchor="start" x="8" y="-18" font-family="Helvetica,sans-Serif" font-size="10.00">helios.rendering.shader.</text>
<text text-anchor="middle" x="67" y="-7" font-family="Helvetica,sans-Serif" font-size="10.00">UniformSemantics</text>
</a>
</g>
</g>
<!-- Node1&#45;&gt;Node2 -->
<g id="edge1_Node000001_Node000002" class="edge">
<title>Node1&#45;&gt;Node2</title>
<g id="a_edge1_Node000001_Node000002"><a xlink:title=" ">
<path fill="none" stroke="#63b8ff" d="M217.29,-131.96C201.95,-122.26 181.41,-108.85 164,-96 138.18,-76.95 110.03,-53.4 90.74,-36.8"/>
<polygon fill="#63b8ff" stroke="#63b8ff" points="92.9,-34.04 83.05,-30.14 88.32,-39.33 92.9,-34.04"/>
</a>
</g>
</g>
<!-- Node3 -->
<g id="Node000003" class="node">
<title>Node3</title>
<g id="a_Node000003"><a xlink:href="UniformValueMap_8ixx.html" target="_top" xlink:title="Mapping of uniform names to values used by shader programs.">
<polygon fill="white" stroke="#666666" points="307,-96 173,-96 173,-66 307,-66 307,-96"/>
<text text-anchor="start" x="181" y="-84" font-family="Helvetica,sans-Serif" font-size="10.00">helios.rendering.shader.</text>
<text text-anchor="middle" x="240" y="-73" font-family="Helvetica,sans-Serif" font-size="10.00">UniformValueMap</text>
</a>
</g>
</g>
<!-- Node1&#45;&gt;Node3 -->
<g id="edge2_Node000001_Node000003" class="edge">
<title>Node1&#45;&gt;Node3</title>
<g id="a_edge2_Node000001_Node000003"><a xlink:title=" ">
<path fill="none" stroke="#63b8ff" d="M240,-131.8C240,-124.34 240,-114.99 240,-106.41"/>
<polygon fill="#63b8ff" stroke="#63b8ff" points="243.5,-106.16 240,-96.16 236.5,-106.16 243.5,-106.16"/>
</a>
</g>
</g>
<!-- Node7 -->
<g id="Node000007" class="node">
<title>Node7</title>
<g id="a_Node000007"><a xlink:href="helios_2math_2types_2__module_8ixx.html" target="_top" xlink:title="Module exports for vector and matrix type definitions.">
<polygon fill="white" stroke="#666666" points="460,-24.5 356,-24.5 356,-5.5 460,-5.5 460,-24.5"/>
<text text-anchor="middle" x="408" y="-12.5" font-family="Helvetica,sans-Serif" font-size="10.00">helios.math.types</text>
</a>
</g>
</g>
<!-- Node1&#45;&gt;Node7 -->
<g id="edge9_Node000001_Node000007" class="edge">
<title>Node1&#45;&gt;Node7</title>
<g id="a_edge9_Node000001_Node000007"><a xlink:title=" ">
<path fill="none" stroke="#63b8ff" d="M263.16,-131.9C278.51,-122.28 298.89,-108.98 316,-96 343.64,-75.04 373.6,-48.13 391.58,-31.47"/>
<polygon fill="#63b8ff" stroke="#63b8ff" points="394.02,-33.98 398.94,-24.6 389.24,-28.87 394.02,-33.98"/>
</a>
</g>
</g>
<!-- Node3&#45;&gt;Node2 -->
<g id="edge8_Node000003_Node000002" class="edge">
<title>Node3&#45;&gt;Node2</title>
<g id="a_edge8_Node000003_Node000002"><a xlink:title=" ">
<path fill="none" stroke="#63b8ff" d="M202.03,-65.95C176.23,-56.41 141.91,-43.71 114.33,-33.51"/>
<polygon fill="#63b8ff" stroke="#63b8ff" points="115.47,-30.2 104.88,-30.01 113.04,-36.76 115.47,-30.2"/>
</a>
</g>
</g>
<!-- Node4 -->
<g id="Node000004" class="node">
<title>Node4</title>
<g id="a_Node000004"><a xlink:title=" ">
<polygon fill="#e0e0e0" stroke="#999999" points="194,-24.5 152,-24.5 152,-5.5 194,-5.5 194,-24.5"/>
<text text-anchor="middle" x="173" y="-12.5" font-family="Helvetica,sans-Serif" font-size="10.00">array</text>
</a>
</g>
</g>
<!-- Node3&#45;&gt;Node4 -->
<g id="edge3_Node000003_Node000004" class="edge">
<title>Node3&#45;&gt;Node4</title>
<g id="a_edge3_Node000003_Node000004"><a xlink:title=" ">
<path fill="none" stroke="#63b8ff" d="M225.13,-65.8C214.58,-55.72 200.42,-42.19 189.52,-31.78"/>
<polygon fill="#63b8ff" stroke="#63b8ff" points="191.91,-29.22 182.26,-24.84 187.07,-34.28 191.91,-29.22"/>
</a>
</g>
</g>
<!-- Node5 -->
<g id="Node000005" class="node">
<title>Node5</title>
<g id="a_Node000005"><a xlink:title=" ">
<polygon fill="#e0e0e0" stroke="#999999" points="268,-24.5 212,-24.5 212,-5.5 268,-5.5 268,-24.5"/>
<text text-anchor="middle" x="240" y="-12.5" font-family="Helvetica,sans-Serif" font-size="10.00">optional</text>
</a>
</g>
</g>
<!-- Node3&#45;&gt;Node5 -->
<g id="edge4_Node000003_Node000005" class="edge">
<title>Node3&#45;&gt;Node5</title>
<g id="a_edge4_Node000003_Node000005"><a xlink:title=" ">
<path fill="none" stroke="#63b8ff" d="M240,-65.8C240,-56.7 240,-44.79 240,-34.9"/>
<polygon fill="#63b8ff" stroke="#63b8ff" points="243.5,-34.84 240,-24.84 236.5,-34.84 243.5,-34.84"/>
</a>
</g>
</g>
<!-- Node6 -->
<g id="Node000006" class="node">
<title>Node6</title>
<g id="a_Node000006"><a xlink:title=" ">
<polygon fill="#e0e0e0" stroke="#999999" points="337.5,-24.5 286.5,-24.5 286.5,-5.5 337.5,-5.5 337.5,-24.5"/>
<text text-anchor="middle" x="312" y="-12.5" font-family="Helvetica,sans-Serif" font-size="10.00">variant</text>
</a>
</g>
</g>
<!-- Node3&#45;&gt;Node6 -->
<g id="edge5_Node000003_Node000006" class="edge">
<title>Node3&#45;&gt;Node6</title>
<g id="a_edge5_Node000003_Node000006"><a xlink:title=" ">
<path fill="none" stroke="#63b8ff" d="M255.98,-65.8C267.31,-55.72 282.53,-42.19 294.25,-31.78"/>
<polygon fill="#63b8ff" stroke="#63b8ff" points="296.9,-34.1 302.05,-24.84 292.25,-28.87 296.9,-34.1"/>
</a>
</g>
</g>
<!-- Node3&#45;&gt;Node7 -->
<g id="edge6_Node000003_Node000007" class="edge">
<title>Node3&#45;&gt;Node7</title>
<g id="a_edge6_Node000003_Node000007"><a xlink:title=" ">
<path fill="none" stroke="#63b8ff" d="M276.87,-65.95C306.59,-54.63 347.95,-38.88 376.23,-28.1"/>
<polygon fill="#63b8ff" stroke="#63b8ff" points="377.54,-31.35 385.64,-24.52 375.05,-24.81 377.54,-31.35"/>
</a>
</g>
</g>
<!-- Node7&#45;&gt;Node7 -->
<g id="edge7_Node000007_Node000007" class="edge">
<title>Node7&#45;&gt;Node7</title>
<g id="a_edge7_Node000007_Node000007"><a xlink:title=" ">
<path fill="none" stroke="#63b8ff" d="M429.86,-24.56C452.56,-30.37 478,-27.18 478,-15 478,-4.58 459.39,-0.74 439.79,-3.48"/>
<polygon fill="#63b8ff" stroke="#63b8ff" points="439,-0.07 429.86,-5.44 440.35,-6.94 439,-0.07"/>
</a>
</g>
</g>
</g>
</svg>
</svg>

<style type='text/css'>
<![CDATA[
[data-mouse-over-selected='false'] { opacity: 0.7; }
[data-mouse-over-selected='true']  { opacity: 1.0; }
]]>
</style>
<script type="application/ecmascript"><![CDATA[
document.addEventListener('DOMContentLoaded', (event) => {
  highlightEdges();
  highlightAdjacentNodes();
});
]]></script>
</svg>
