<?xml version="1.0" encoding="UTF-8" standalone="no"?>
<!DOCTYPE svg PUBLIC "-//W3C//DTD SVG 1.1//EN"
 "http://www.w3.org/Graphics/SVG/1.1/DTD/svg11.dtd">
<!-- Generated by graphviz version 2.43.0 (0)
 -->
<!-- Title: include/helios/rendering/model/Material.ixx Pages: 1 -->
<!--zoomable 291 -->

<svg id="main" version="1.1" xmlns="http://www.w3.org/2000/svg" xmlns:xlink="http://www.w3.org/1999/xlink" xml:space="preserve" onload="init(evt)">

<style type="text/css"><![CDATA[
.node, .edge {opacity: 0.7;}
.node.selected, .edge.selected {opacity: 1;}
.edge:hover path { stroke: red; }
.edge:hover polygon { stroke: red; fill: red; }
]]></style>

<defs>
  <circle id="rim" cx="0" cy="0" r="7"/>
  <circle id="rim2" cx="0" cy="0" r="3.5"/>
  <g id="zoomPlus">
    <use xlink:href="#rim" fill="#404040"><set attributeName="fill" to="#808080" begin="zoomplus.mouseover" end="zoomplus.mouseout"/></use>
    <path d="M-4,0h8M0,-4v8" fill="none" stroke="white" stroke-width="1.5" pointer-events="none"/>
  </g>
  <g id="zoomMin">
    <use xlink:href="#rim" fill="#404040"><set attributeName="fill" to="#808080" begin="zoomminus.mouseover" end="zoomminus.mouseout"/></use>
    <path d="M-4,0h8" fill="none" stroke="white" stroke-width="1.5" pointer-events="none"/>
  </g>
  <g id="arrowUp" transform="translate(30 24)">
    <use xlink:href="#rim"/>
    <path pointer-events="none" fill="none" stroke="white" stroke-width="1.5" d="M0,-3.0v7 M-2.5,-0.5L0,-3.0L2.5,-0.5"/>
  </g>
  <g id="arrowRight" transform="rotate(90) translate(36 -43)">
    <use xlink:href="#rim"/>
    <path pointer-events="none" fill="none" stroke="white" stroke-width="1.5" d="M0,-3.0v7 M-2.5,-0.5L0,-3.0L2.5,-0.5"/>
  </g>
  <g id="arrowDown" transform="rotate(180) translate(-30 -48)">
    <use xlink:href="#rim"/>
    <path pointer-events="none" fill="none" stroke="white" stroke-width="1.5" d="M0,-3.0v7 M-2.5,-0.5L0,-3.0L2.5,-0.5"/>
  </g>
  <g id="arrowLeft" transform="rotate(270) translate(-36 17)">
    <use xlink:href="#rim"/>
    <path pointer-events="none" fill="none" stroke="white" stroke-width="1.5" d="M0,-3.0v7 M-2.5,-0.5L0,-3.0L2.5,-0.5"/>
  </g>
  <g id="resetDef">
    <use xlink:href="#rim2" fill="#404040"><set attributeName="fill" to="#808080" begin="reset.mouseover" end="reset.mouseout"/></use>
  </g>
</defs>
<script type="application/ecmascript">
var viewWidth = 916;
var viewHeight = 291;
var sectionId = 'dynsection-0';
</script>
<script type="application/ecmascript" xlink:href="svg.min.js"/>
<svg id="graph" class="graph">
<g id="viewport">
<title>include/helios/rendering/model/Material.ixx</title>
<!-- Node1 -->
<g id="Node000001" class="node">
<title>Node1</title>
<g id="a_Node000001"><a xlink:title=" ">
<polygon fill="#999999" stroke="#666666" points="541,-283 407,-283 407,-253 541,-253 541,-283"/>
<text text-anchor="start" x="415" y="-271" font-family="Helvetica,sans-Serif" font-size="10.00">include/helios/rendering</text>
<text text-anchor="middle" x="474" y="-260" font-family="Helvetica,sans-Serif" font-size="10.00">/model/Material.ixx</text>
</a>
</g>
</g>
<!-- Node2 -->
<g id="Node000002" class="node">
<title>Node2</title>
<g id="a_Node000002"><a xlink:title=" ">
<polygon fill="#e0e0e0" stroke="#999999" points="58,-79.5 0,-79.5 0,-60.5 58,-60.5 58,-79.5"/>
<text text-anchor="middle" x="29" y="-67.5" font-family="Helvetica,sans-Serif" font-size="10.00">memory</text>
</a>
</g>
</g>
<!-- Node1&#45;&gt;Node2 -->
<g id="edge1_Node000001_Node000002" class="edge">
<title>Node1&#45;&gt;Node2</title>
<g id="a_edge1_Node000001_Node000002"><a xlink:title=" ">
<path fill="none" stroke="#63b8ff" d="M406.76,-258.72C328.19,-246.31 197.2,-216.88 105,-151 79.65,-132.89 55.83,-105.5 41.83,-87.93"/>
<polygon fill="#63b8ff" stroke="#63b8ff" points="44.36,-85.48 35.45,-79.74 38.84,-89.78 44.36,-85.48"/>
</a>
</g>
</g>
<!-- Node3 -->
<g id="Node000003" class="node">
<title>Node3</title>
<g id="a_Node000003"><a xlink:title=" ">
<polygon fill="#e0e0e0" stroke="#999999" points="797.5,-211.5 732.5,-211.5 732.5,-192.5 797.5,-192.5 797.5,-211.5"/>
<text text-anchor="middle" x="765" y="-199.5" font-family="Helvetica,sans-Serif" font-size="10.00">stdexcept</text>
</a>
</g>
</g>
<!-- Node1&#45;&gt;Node3 -->
<g id="edge2_Node000001_Node000003" class="edge">
<title>Node1&#45;&gt;Node3</title>
<g id="a_edge2_Node000001_Node000003"><a xlink:title=" ">
<path fill="none" stroke="#63b8ff" d="M541.1,-255.85C591.51,-246.91 662.07,-233.21 723,-217 725.79,-216.26 728.66,-215.43 731.53,-214.57"/>
<polygon fill="#63b8ff" stroke="#63b8ff" points="732.69,-217.87 741.17,-211.51 730.58,-211.2 732.69,-217.87"/>
</a>
</g>
</g>
<!-- Node4 -->
<g id="Node000004" class="node">
<title>Node4</title>
<g id="a_Node000004"><a xlink:href="util_2log_2__module_8ixx.html" target="_top" xlink:title=" ">
<polygon fill="white" stroke="#666666" points="341.5,-211.5 258.5,-211.5 258.5,-192.5 341.5,-192.5 341.5,-211.5"/>
<text text-anchor="middle" x="300" y="-199.5" font-family="Helvetica,sans-Serif" font-size="10.00">helios.util.log</text>
</a>
</g>
</g>
<!-- Node1&#45;&gt;Node4 -->
<g id="edge3_Node000001_Node000004" class="edge">
<title>Node1&#45;&gt;Node4</title>
<g id="a_edge3_Node000001_Node000004"><a xlink:title=" ">
<path fill="none" stroke="#63b8ff" d="M435.81,-252.95C405.03,-241.63 362.19,-225.88 332.91,-215.1"/>
<polygon fill="#63b8ff" stroke="#63b8ff" points="333.75,-211.68 323.16,-211.52 331.33,-218.25 333.75,-211.68"/>
</a>
</g>
</g>
<!-- Node11 -->
<g id="Node000011" class="node">
<title>Node11</title>
<g id="a_Node000011"><a xlink:href="Shader_8ixx.html" target="_top" xlink:title=" ">
<polygon fill="white" stroke="#666666" points="494,-217 360,-217 360,-187 494,-187 494,-217"/>
<text text-anchor="start" x="368" y="-205" font-family="Helvetica,sans-Serif" font-size="10.00">helios.rendering.shader.</text>
<text text-anchor="middle" x="427" y="-194" font-family="Helvetica,sans-Serif" font-size="10.00">Shader</text>
</a>
</g>
</g>
<!-- Node1&#45;&gt;Node11 -->
<g id="edge13_Node000001_Node000011" class="edge">
<title>Node1&#45;&gt;Node11</title>
<g id="a_edge13_Node000001_Node000011"><a xlink:title=" ">
<path fill="none" stroke="#63b8ff" d="M463.57,-252.8C457.67,-244.76 450.15,-234.53 443.47,-225.43"/>
<polygon fill="#63b8ff" stroke="#63b8ff" points="446.14,-223.15 437.4,-217.16 440.5,-227.3 446.14,-223.15"/>
</a>
</g>
</g>
<!-- Node13 -->
<g id="Node000013" class="node">
<title>Node13</title>
<g id="a_Node000013"><a xlink:href="UniformValueMap_8ixx.html" target="_top" xlink:title=" ">
<polygon fill="white" stroke="#666666" points="635,-151 501,-151 501,-121 635,-121 635,-151"/>
<text text-anchor="start" x="509" y="-139" font-family="Helvetica,sans-Serif" font-size="10.00">helios.rendering.shader.</text>
<text text-anchor="middle" x="568" y="-128" font-family="Helvetica,sans-Serif" font-size="10.00">UniformValueMap</text>
</a>
</g>
</g>
<!-- Node1&#45;&gt;Node13 -->
<g id="edge30_Node000001_Node000013" class="edge">
<title>Node1&#45;&gt;Node13</title>
<g id="a_edge30_Node000001_Node000013"><a xlink:title=" ">
<path fill="none" stroke="#63b8ff" d="M484.24,-252.84C500.48,-230.37 532.31,-186.36 551.71,-159.53"/>
<polygon fill="#63b8ff" stroke="#63b8ff" points="554.75,-161.3 557.77,-151.14 549.08,-157.19 554.75,-161.3"/>
</a>
</g>
</g>
<!-- Node19 -->
<g id="Node000019" class="node">
<title>Node19</title>
<g id="a_Node000019"><a xlink:href="MaterialProperties_8ixx.html" target="_top" xlink:title=" ">
<polygon fill="white" stroke="#666666" points="714,-217 550,-217 550,-187 714,-187 714,-217"/>
<text text-anchor="start" x="558" y="-205" font-family="Helvetica,sans-Serif" font-size="10.00">helios.rendering.model.config.</text>
<text text-anchor="middle" x="632" y="-194" font-family="Helvetica,sans-Serif" font-size="10.00">MaterialProperties</text>
</a>
</g>
</g>
<!-- Node1&#45;&gt;Node19 -->
<g id="edge26_Node000001_Node000019" class="edge">
<title>Node1&#45;&gt;Node19</title>
<g id="a_edge26_Node000001_Node000019"><a xlink:title=" ">
<path fill="none" stroke="#63b8ff" d="M508.67,-252.95C532.03,-243.49 563.04,-230.93 588.11,-220.78"/>
<polygon fill="#63b8ff" stroke="#63b8ff" points="589.45,-224.01 597.41,-217.01 586.82,-217.52 589.45,-224.01"/>
</a>
</g>
</g>
<!-- Node5 -->
<g id="Node000005" class="node">
<title>Node5</title>
<g id="a_Node000005"><a xlink:href="LogManager_8ixx.html" target="_top" xlink:title=" ">
<polygon fill="white" stroke="#666666" points="323,-145.5 177,-145.5 177,-126.5 323,-126.5 323,-145.5"/>
<text text-anchor="middle" x="250" y="-133.5" font-family="Helvetica,sans-Serif" font-size="10.00">helios.util.log.LogManager</text>
</a>
</g>
</g>
<!-- Node4&#45;&gt;Node5 -->
<g id="edge4_Node000004_Node000005" class="edge">
<title>Node4&#45;&gt;Node5</title>
<g id="a_edge4_Node000004_Node000005"><a xlink:title=" ">
<path fill="none" stroke="#63b8ff" d="M293.26,-192.37C285.62,-182.59 272.99,-166.42 263.34,-154.08"/>
<polygon fill="#63b8ff" stroke="#63b8ff" points="265.87,-151.63 256.96,-145.91 260.36,-155.94 265.87,-151.63"/>
</a>
</g>
</g>
<!-- Node9 -->
<g id="Node000009" class="node">
<title>Node9</title>
<g id="a_Node000009"><a xlink:href="Logger_8ixx.html" target="_top" xlink:title=" ">
<polygon fill="white" stroke="#666666" points="411.5,-79.5 292.5,-79.5 292.5,-60.5 411.5,-60.5 411.5,-79.5"/>
<text text-anchor="middle" x="352" y="-67.5" font-family="Helvetica,sans-Serif" font-size="10.00">helios.util.log.Logger</text>
</a>
</g>
</g>
<!-- Node4&#45;&gt;Node9 -->
<g id="edge12_Node000004_Node000009" class="edge">
<title>Node4&#45;&gt;Node9</title>
<g id="a_edge12_Node000004_Node000009"><a xlink:title=" ">
<path fill="none" stroke="#63b8ff" d="M306.83,-192.28C314.06,-182.68 325.31,-166.52 332,-151 340.66,-130.92 346.11,-106.32 349.09,-89.74"/>
<polygon fill="#63b8ff" stroke="#63b8ff" points="352.57,-90.14 350.77,-79.7 345.67,-88.99 352.57,-90.14"/>
</a>
</g>
</g>
<!-- Node5&#45;&gt;Node2 -->
<g id="edge7_Node000005_Node000002" class="edge">
<title>Node5&#45;&gt;Node2</title>
<g id="a_edge7_Node000005_Node000002"><a xlink:title=" ">
<path fill="none" stroke="#63b8ff" d="M218.05,-126.45C182.34,-116.79 122.84,-100.41 72,-85 69.57,-84.26 67.06,-83.49 64.54,-82.7"/>
<polygon fill="#63b8ff" stroke="#63b8ff" points="65.46,-79.32 54.87,-79.61 63.33,-85.98 65.46,-79.32"/>
</a>
</g>
</g>
<!-- Node6 -->
<g id="Node000006" class="node">
<title>Node6</title>
<g id="a_Node000006"><a xlink:title=" ">
<polygon fill="#e0e0e0" stroke="#999999" points="206,-19 162,-19 162,0 206,0 206,-19"/>
<text text-anchor="middle" x="184" y="-7" font-family="Helvetica,sans-Serif" font-size="10.00">string</text>
</a>
</g>
</g>
<!-- Node5&#45;&gt;Node6 -->
<g id="edge5_Node000005_Node000006" class="edge">
<title>Node5&#45;&gt;Node6</title>
<g id="a_edge5_Node000005_Node000006"><a xlink:title=" ">
<path fill="none" stroke="#63b8ff" d="M176.63,-127.48C149.59,-120.74 121.54,-108.2 105,-85 97.26,-74.14 98.27,-66.51 105,-55 115.16,-37.62 134.89,-26.5 152.08,-19.72"/>
<polygon fill="#63b8ff" stroke="#63b8ff" points="153.6,-22.89 161.83,-16.22 151.23,-16.31 153.6,-22.89"/>
</a>
</g>
</g>
<!-- Node7 -->
<g id="Node000007" class="node">
<title>Node7</title>
<g id="a_Node000007"><a xlink:title=" ">
<polygon fill="#e0e0e0" stroke="#999999" points="207.5,-79.5 114.5,-79.5 114.5,-60.5 207.5,-60.5 207.5,-79.5"/>
<text text-anchor="middle" x="161" y="-67.5" font-family="Helvetica,sans-Serif" font-size="10.00">unordered_map</text>
</a>
</g>
</g>
<!-- Node5&#45;&gt;Node7 -->
<g id="edge6_Node000005_Node000007" class="edge">
<title>Node5&#45;&gt;Node7</title>
<g id="a_edge6_Node000005_Node000007"><a xlink:title=" ">
<path fill="none" stroke="#63b8ff" d="M238,-126.37C223.53,-115.97 198.99,-98.32 181.51,-85.75"/>
<polygon fill="#63b8ff" stroke="#63b8ff" points="183.26,-82.7 173.1,-79.7 179.17,-88.38 183.26,-82.7"/>
</a>
</g>
</g>
<!-- Node8 -->
<g id="Node000008" class="node">
<title>Node8</title>
<g id="a_Node000008"><a xlink:title=" ">
<polygon fill="#e0e0e0" stroke="#999999" points="274,-79.5 226,-79.5 226,-60.5 274,-60.5 274,-79.5"/>
<text text-anchor="middle" x="250" y="-67.5" font-family="Helvetica,sans-Serif" font-size="10.00">mutex</text>
</a>
</g>
</g>
<!-- Node5&#45;&gt;Node8 -->
<g id="edge8_Node000005_Node000008" class="edge">
<title>Node5&#45;&gt;Node8</title>
<g id="a_edge8_Node000005_Node000008"><a xlink:title=" ">
<path fill="none" stroke="#63b8ff" d="M250,-126.37C250,-117.16 250,-102.29 250,-90.27"/>
<polygon fill="#63b8ff" stroke="#63b8ff" points="253.5,-89.91 250,-79.91 246.5,-89.91 253.5,-89.91"/>
</a>
</g>
</g>
<!-- Node5&#45;&gt;Node9 -->
<g id="edge9_Node000005_Node000009" class="edge">
<title>Node5&#45;&gt;Node9</title>
<g id="a_edge9_Node000005_Node000009"><a xlink:title=" ">
<path fill="none" stroke="#63b8ff" d="M263.76,-126.37C280.64,-115.78 309.49,-97.67 329.59,-85.06"/>
<polygon fill="#63b8ff" stroke="#63b8ff" points="331.53,-87.98 338.14,-79.7 327.81,-82.05 331.53,-87.98"/>
</a>
</g>
</g>
<!-- Node9&#45;&gt;Node6 -->
<g id="edge11_Node000009_Node000006" class="edge">
<title>Node9&#45;&gt;Node6</title>
<g id="a_edge11_Node000009_Node000006"><a xlink:title=" ">
<path fill="none" stroke="#63b8ff" d="M327.57,-60.49C297.96,-50.18 248.01,-32.79 215.53,-21.48"/>
<polygon fill="#63b8ff" stroke="#63b8ff" points="216.64,-18.16 206.05,-18.18 214.34,-24.77 216.64,-18.16"/>
</a>
</g>
</g>
<!-- Node10 -->
<g id="Node000010" class="node">
<title>Node10</title>
<g id="a_Node000010"><a xlink:title=" ">
<polygon fill="#e0e0e0" stroke="#999999" points="382,-19 322,-19 322,0 382,0 382,-19"/>
<text text-anchor="middle" x="352" y="-7" font-family="Helvetica,sans-Serif" font-size="10.00">iostream</text>
</a>
</g>
</g>
<!-- Node9&#45;&gt;Node10 -->
<g id="edge10_Node000009_Node000010" class="edge">
<title>Node9&#45;&gt;Node10</title>
<g id="a_edge10_Node000009_Node000010"><a xlink:title=" ">
<path fill="none" stroke="#63b8ff" d="M352,-60.37C352,-52.25 352,-39.81 352,-29.39"/>
<polygon fill="#63b8ff" stroke="#63b8ff" points="355.5,-29.17 352,-19.17 348.5,-29.17 355.5,-29.17"/>
</a>
</g>
</g>
<!-- Node11&#45;&gt;Node2 -->
<g id="edge14_Node000011_Node000002" class="edge">
<title>Node11&#45;&gt;Node2</title>
<g id="a_edge14_Node000011_Node000002"><a xlink:title=" ">
<path fill="none" stroke="#63b8ff" d="M359.75,-188.59C286.06,-174.9 177.03,-154.36 168,-151 122.95,-134.22 75.45,-103.69 49.29,-85.59"/>
<polygon fill="#63b8ff" stroke="#63b8ff" points="51.16,-82.62 40.96,-79.74 47.14,-88.35 51.16,-82.62"/>
</a>
</g>
</g>
<!-- Node11&#45;&gt;Node5 -->
<g id="edge25_Node000011_Node000005" class="edge">
<title>Node11&#45;&gt;Node5</title>
<g id="a_edge25_Node000011_Node000005"><a xlink:title=" ">
<path fill="none" stroke="#63b8ff" d="M388.16,-186.95C356.71,-175.58 312.88,-159.74 283.09,-148.96"/>
<polygon fill="#63b8ff" stroke="#63b8ff" points="284.15,-145.63 273.56,-145.52 281.77,-152.21 284.15,-145.63"/>
</a>
</g>
</g>
<!-- Node11&#45;&gt;Node9 -->
<g id="edge24_Node000011_Node000009" class="edge">
<title>Node11&#45;&gt;Node9</title>
<g id="a_edge24_Node000011_Node000009"><a xlink:title=" ">
<path fill="none" stroke="#63b8ff" d="M418.83,-186.84C405.03,-162.92 377.13,-114.56 362.12,-88.53"/>
<polygon fill="#63b8ff" stroke="#63b8ff" points="365.08,-86.66 357.05,-79.75 359.01,-90.16 365.08,-86.66"/>
</a>
</g>
</g>
<!-- Node12 -->
<g id="Node000012" class="node">
<title>Node12</title>
<g id="a_Node000012"><a xlink:title=" ">
<polygon fill="#e0e0e0" stroke="#999999" points="486,-79.5 430,-79.5 430,-60.5 486,-60.5 486,-79.5"/>
<text text-anchor="middle" x="458" y="-67.5" font-family="Helvetica,sans-Serif" font-size="10.00">optional</text>
</a>
</g>
</g>
<!-- Node11&#45;&gt;Node12 -->
<g id="edge15_Node000011_Node000012" class="edge">
<title>Node11&#45;&gt;Node12</title>
<g id="a_edge15_Node000011_Node000012"><a xlink:title=" ">
<path fill="none" stroke="#63b8ff" d="M430.38,-186.84C436.01,-163.23 447.31,-115.83 453.57,-89.58"/>
<polygon fill="#63b8ff" stroke="#63b8ff" points="457,-90.29 455.91,-79.75 450.19,-88.66 457,-90.29"/>
</a>
</g>
</g>
<!-- Node11&#45;&gt;Node13 -->
<g id="edge16_Node000011_Node000013" class="edge">
<title>Node11&#45;&gt;Node13</title>
<g id="a_edge16_Node000011_Node000013"><a xlink:title=" ">
<path fill="none" stroke="#63b8ff" d="M457.94,-186.95C478.51,-177.62 505.73,-165.27 527.95,-155.18"/>
<polygon fill="#63b8ff" stroke="#63b8ff" points="529.47,-158.33 537.13,-151.01 526.58,-151.96 529.47,-158.33"/>
</a>
</g>
</g>
<!-- Node13&#45;&gt;Node12 -->
<g id="edge18_Node000013_Node000012" class="edge">
<title>Node13&#45;&gt;Node12</title>
<g id="a_edge18_Node000013_Node000012"><a xlink:title=" ">
<path fill="none" stroke="#63b8ff" d="M543.86,-120.95C525.33,-110.18 499.9,-95.38 481.53,-84.69"/>
<polygon fill="#63b8ff" stroke="#63b8ff" points="483.04,-81.52 472.64,-79.52 479.52,-87.57 483.04,-81.52"/>
</a>
</g>
</g>
<!-- Node14 -->
<g id="Node000014" class="node">
<title>Node14</title>
<g id="a_Node000014"><a xlink:title=" ">
<polygon fill="#e0e0e0" stroke="#999999" points="546,-79.5 504,-79.5 504,-60.5 546,-60.5 546,-79.5"/>
<text text-anchor="middle" x="525" y="-67.5" font-family="Helvetica,sans-Serif" font-size="10.00">array</text>
</a>
</g>
</g>
<!-- Node13&#45;&gt;Node14 -->
<g id="edge17_Node000013_Node000014" class="edge">
<title>Node13&#45;&gt;Node14</title>
<g id="a_edge17_Node000013_Node000014"><a xlink:title=" ">
<path fill="none" stroke="#63b8ff" d="M558.46,-120.8C552.02,-111.21 543.48,-98.5 536.64,-88.32"/>
<polygon fill="#63b8ff" stroke="#63b8ff" points="539.42,-86.19 530.94,-79.84 533.61,-90.1 539.42,-86.19"/>
</a>
</g>
</g>
<!-- Node15 -->
<g id="Node000015" class="node">
<title>Node15</title>
<g id="a_Node000015"><a xlink:title=" ">
<polygon fill="#e0e0e0" stroke="#999999" points="615.5,-79.5 564.5,-79.5 564.5,-60.5 615.5,-60.5 615.5,-79.5"/>
<text text-anchor="middle" x="590" y="-67.5" font-family="Helvetica,sans-Serif" font-size="10.00">variant</text>
</a>
</g>
</g>
<!-- Node13&#45;&gt;Node15 -->
<g id="edge19_Node000013_Node000015" class="edge">
<title>Node13&#45;&gt;Node15</title>
<g id="a_edge19_Node000013_Node000015"><a xlink:title=" ">
<path fill="none" stroke="#63b8ff" d="M572.88,-120.8C576.04,-111.6 580.19,-99.53 583.61,-89.58"/>
<polygon fill="#63b8ff" stroke="#63b8ff" points="587.02,-90.44 586.96,-79.84 580.4,-88.16 587.02,-90.44"/>
</a>
</g>
</g>
<!-- Node16 -->
<g id="Node000016" class="node">
<title>Node16</title>
<g id="a_Node000016"><a xlink:href="math_2types_2__module_8ixx.html" target="_top" xlink:title=" ">
<polygon fill="white" stroke="#666666" points="738,-79.5 634,-79.5 634,-60.5 738,-60.5 738,-79.5"/>
<text text-anchor="middle" x="686" y="-67.5" font-family="Helvetica,sans-Serif" font-size="10.00">helios.math.types</text>
</a>
</g>
</g>
<!-- Node13&#45;&gt;Node16 -->
<g id="edge20_Node000013_Node000016" class="edge">
<title>Node13&#45;&gt;Node16</title>
<g id="a_edge20_Node000013_Node000016"><a xlink:title=" ">
<path fill="none" stroke="#63b8ff" d="M593.9,-120.95C613.95,-110.08 641.55,-95.11 661.3,-84.4"/>
<polygon fill="#63b8ff" stroke="#63b8ff" points="663.17,-87.36 670.3,-79.52 659.84,-81.21 663.17,-87.36"/>
</a>
</g>
</g>
<!-- Node17 -->
<g id="Node000017" class="node">
<title>Node17</title>
<g id="a_Node000017"><a xlink:href="UniformSemantics_8ixx.html" target="_top" xlink:title=" ">
<polygon fill="white" stroke="#666666" points="908,-85 774,-85 774,-55 908,-55 908,-85"/>
<text text-anchor="start" x="782" y="-73" font-family="Helvetica,sans-Serif" font-size="10.00">helios.rendering.shader.</text>
<text text-anchor="middle" x="841" y="-62" font-family="Helvetica,sans-Serif" font-size="10.00">UniformSemantics</text>
</a>
</g>
</g>
<!-- Node13&#45;&gt;Node17 -->
<g id="edge22_Node000013_Node000017" class="edge">
<title>Node13&#45;&gt;Node17</title>
<g id="a_edge22_Node000013_Node000017"><a xlink:title=" ">
<path fill="none" stroke="#63b8ff" d="M627.91,-120.95C670.23,-111.03 727.07,-97.71 771.4,-87.32"/>
<polygon fill="#63b8ff" stroke="#63b8ff" points="772.29,-90.7 781.23,-85.01 770.69,-83.89 772.29,-90.7"/>
</a>
</g>
</g>
<!-- Node16&#45;&gt;Node16 -->
<g id="edge21_Node000016_Node000016" class="edge">
<title>Node16&#45;&gt;Node16</title>
<g id="a_edge21_Node000016_Node000016"><a xlink:title=" ">
<path fill="none" stroke="#63b8ff" d="M711.85,-79.53C733.44,-83.61 756,-80.43 756,-70 756,-61.2 739.94,-57.56 721.95,-59.09"/>
<polygon fill="#63b8ff" stroke="#63b8ff" points="721.28,-55.65 711.85,-60.47 722.23,-62.58 721.28,-55.65"/>
</a>
</g>
</g>
<!-- Node18 -->
<g id="Node000018" class="node">
<title>Node18</title>
<g id="a_Node000018"><a xlink:title=" ">
<polygon fill="#e0e0e0" stroke="#999999" points="866.5,-19 815.5,-19 815.5,0 866.5,0 866.5,-19"/>
<text text-anchor="middle" x="841" y="-7" font-family="Helvetica,sans-Serif" font-size="10.00">cwchar</text>
</a>
</g>
</g>
<!-- Node17&#45;&gt;Node18 -->
<g id="edge23_Node000017_Node000018" class="edge">
<title>Node17&#45;&gt;Node18</title>
<g id="a_edge23_Node000017_Node000018"><a xlink:title=" ">
<path fill="none" stroke="#63b8ff" d="M841,-54.84C841,-47.21 841,-37.7 841,-29.45"/>
<polygon fill="#63b8ff" stroke="#63b8ff" points="844.5,-29.27 841,-19.27 837.5,-29.27 844.5,-29.27"/>
</a>
</g>
</g>
<!-- Node19&#45;&gt;Node13 -->
<g id="edge28_Node000019_Node000013" class="edge">
<title>Node19&#45;&gt;Node13</title>
<g id="a_edge28_Node000019_Node000013"><a xlink:title=" ">
<path fill="none" stroke="#63b8ff" d="M617.8,-186.8C609.43,-178.43 598.68,-167.68 589.31,-158.31"/>
<polygon fill="#63b8ff" stroke="#63b8ff" points="591.71,-155.76 582.16,-151.16 586.76,-160.71 591.71,-155.76"/>
</a>
</g>
</g>
<!-- Node19&#45;&gt;Node16 -->
<g id="edge29_Node000019_Node000016" class="edge">
<title>Node19&#45;&gt;Node16</title>
<g id="a_edge29_Node000019_Node000016"><a xlink:title=" ">
<path fill="none" stroke="#63b8ff" d="M637.88,-186.84C647.73,-163.13 667.55,-115.41 678.43,-89.23"/>
<polygon fill="#63b8ff" stroke="#63b8ff" points="681.76,-90.33 682.37,-79.75 675.3,-87.64 681.76,-90.33"/>
</a>
</g>
</g>
<!-- Node19&#45;&gt;Node17 -->
<g id="edge27_Node000019_Node000017" class="edge">
<title>Node19&#45;&gt;Node17</title>
<g id="a_edge27_Node000019_Node000017"><a xlink:title=" ">
<path fill="none" stroke="#63b8ff" d="M654.76,-186.84C692.3,-163.49 767.23,-116.88 809.72,-90.46"/>
<polygon fill="#63b8ff" stroke="#63b8ff" points="811.62,-93.4 818.26,-85.14 807.92,-87.45 811.62,-93.4"/>
</a>
</g>
</g>
</g>
</svg>

<g id="navigator" transform="translate(0 0)" fill="#404254">
  <rect fill="#f2f5e9" fill-opacity="0.5" stroke="#606060" stroke-width=".5" x="0" y="0" width="60" height="60"/>
  <use id="zoomplus" xlink:href="#zoomPlus" x="17" y="9" onmousedown="handleZoom(evt,'in')"/>
  <use id="zoomminus" xlink:href="#zoomMin" x="42" y="9" onmousedown="handleZoom(evt,'out')"/>
  <use id="reset" xlink:href="#resetDef" x="30" y="36" onmousedown="handleReset()"/>
   <use id="arrowup" xlink:href="#arrowUp" x="0" y="0" onmousedown="handlePan(0,-1)"/>
  <use id="arrowright" xlink:href="#arrowRight" x="0" y="0" onmousedown="handlePan(1,0)"/>
  <use id="arrowdown" xlink:href="#arrowDown" x="0" y="0" onmousedown="handlePan(0,1)"/>
  <use id="arrowleft" xlink:href="#arrowLeft" x="0" y="0" onmousedown="handlePan(-1,0)"/>
</g>
<svg viewBox="0 0 15 15" width="100%" height="30px" preserveAspectRatio="xMaxYMin meet">
 <g id="arrow_out" transform="scale(0.3 0.3)">
  <a xlink:href="Material_8ixx__incl_org.svg" target="_base">
   <rect id="button" ry="5" rx="5" y="6" x="6" height="38" width="38"
        fill="#f2f5e9" fill-opacity="0.5" stroke="#606060" stroke-width="1.0"/>
   <path id="arrow"
     d="M 11.500037,31.436501 C 11.940474,20.09759 22.043105,11.32322 32.158766,21.979434 L 37.068811,17.246167 C 37.068811,17.246167 37.088388,32 37.088388,32 L 22.160133,31.978069 C 22.160133,31.978069 26.997745,27.140456 26.997745,27.140456 C 18.528582,18.264221 13.291696,25.230495 11.500037,31.436501 z"
     style="fill:#404040;"/>
  </a>
 </g>
</svg>

<style type='text/css'>
<![CDATA[
[data-mouse-over-selected='false'] { opacity: 0.7; }
[data-mouse-over-selected='true']  { opacity: 1.0; }
]]>
</style>
<script type="application/ecmascript"><![CDATA[
document.addEventListener('DOMContentLoaded', (event) => {
  highlightEdges();
  highlightAdjacentNodes();
});
]]></script>
</svg>
