<?xml version="1.0" encoding="UTF-8" standalone="no"?>
<!DOCTYPE svg PUBLIC "-//W3C//DTD SVG 1.1//EN"
 "http://www.w3.org/Graphics/SVG/1.1/DTD/svg11.dtd">
<!-- Generated by graphviz version 2.43.0 (0)
 -->
<!-- Title: include/helios/rendering/model/Material.ixx Pages: 1 -->
<svg width="1270pt" height="346pt"
 viewBox="0.00 0.00 1270.00 346.00" xmlns="http://www.w3.org/2000/svg" xmlns:xlink="http://www.w3.org/1999/xlink">
<g id="graph0" class="graph" transform="scale(1 1) rotate(0) translate(4 342)">
<title>include/helios/rendering/model/Material.ixx</title>
<!-- Node1 -->
<g id="Node000001" class="node">
<title>Node1</title>
<g id="a_Node000001"><a xlink:title="Material abstraction: shader + material properties.">
<polygon fill="#999999" stroke="#666666" points="775,-338 641,-338 641,-308 775,-308 775,-338"/>
<text text-anchor="start" x="649" y="-326" font-family="Helvetica,sans-Serif" font-size="10.00">include/helios/rendering</text>
<text text-anchor="middle" x="708" y="-315" font-family="Helvetica,sans-Serif" font-size="10.00">/model/Material.ixx</text>
</a>
</g>
</g>
<!-- Node2 -->
<g id="Node000002" class="node">
<title>Node2</title>
<g id="a_Node000002"><a xlink:title=" ">
<polygon fill="#e0e0e0" stroke="#999999" points="747,-74 689,-74 689,-55 747,-55 747,-74"/>
<text text-anchor="middle" x="718" y="-62" font-family="Helvetica,sans-Serif" font-size="10.00">memory</text>
</a>
</g>
</g>
<!-- Node1&#45;&gt;Node2 -->
<g id="edge1_Node000001_Node000002" class="edge">
<title>Node1&#45;&gt;Node2</title>
<g id="a_edge1_Node000001_Node000002"><a xlink:title=" ">
<path fill="none" stroke="#63b8ff" d="M719.1,-307.6C725.72,-298.08 733.51,-284.99 737,-272 755.14,-204.58 734.89,-120.8 724.01,-84.14"/>
<polygon fill="#63b8ff" stroke="#63b8ff" points="727.28,-82.87 720.98,-74.34 720.59,-84.93 727.28,-82.87"/>
</a>
</g>
</g>
<!-- Node3 -->
<g id="Node000003" class="node">
<title>Node3</title>
<g id="a_Node000003"><a xlink:title=" ">
<polygon fill="#e0e0e0" stroke="#999999" points="575.5,-266.5 510.5,-266.5 510.5,-247.5 575.5,-247.5 575.5,-266.5"/>
<text text-anchor="middle" x="543" y="-254.5" font-family="Helvetica,sans-Serif" font-size="10.00">stdexcept</text>
</a>
</g>
</g>
<!-- Node1&#45;&gt;Node3 -->
<g id="edge2_Node000001_Node000003" class="edge">
<title>Node1&#45;&gt;Node3</title>
<g id="a_edge2_Node000001_Node000003"><a xlink:title=" ">
<path fill="none" stroke="#63b8ff" d="M671.79,-307.95C642.73,-296.68 602.33,-281.01 574.57,-270.25"/>
<polygon fill="#63b8ff" stroke="#63b8ff" points="575.55,-266.87 564.96,-266.52 573.02,-273.4 575.55,-266.87"/>
</a>
</g>
</g>
<!-- Node4 -->
<g id="Node000004" class="node">
<title>Node4</title>
<g id="a_Node000004"><a xlink:href="helios_2util_2log_2__module_8ixx.html" target="_top" xlink:title="Module exports for logging.">
<polygon fill="white" stroke="#666666" points="492.5,-266.5 409.5,-266.5 409.5,-247.5 492.5,-247.5 492.5,-266.5"/>
<text text-anchor="middle" x="451" y="-254.5" font-family="Helvetica,sans-Serif" font-size="10.00">helios.util.log</text>
</a>
</g>
</g>
<!-- Node1&#45;&gt;Node4 -->
<g id="edge3_Node000001_Node000004" class="edge">
<title>Node1&#45;&gt;Node4</title>
<g id="a_edge3_Node000001_Node000004"><a xlink:title=" ">
<path fill="none" stroke="#63b8ff" d="M647.17,-307.91C605.85,-298.2 550.01,-284.78 501,-272 497.63,-271.12 494.13,-270.19 490.63,-269.24"/>
<polygon fill="#63b8ff" stroke="#63b8ff" points="491.4,-265.82 480.83,-266.54 489.54,-272.57 491.4,-265.82"/>
</a>
</g>
</g>
<!-- Node14 -->
<g id="Node000014" class="node">
<title>Node14</title>
<g id="a_Node000014"><a xlink:href="MaterialProperties_8ixx.html" target="_top" xlink:title="Default material properties used by materials and instances.">
<polygon fill="white" stroke="#666666" points="955,-272 791,-272 791,-242 955,-242 955,-272"/>
<text text-anchor="start" x="799" y="-260" font-family="Helvetica,sans-Serif" font-size="10.00">helios.rendering.model.config.</text>
<text text-anchor="middle" x="873" y="-249" font-family="Helvetica,sans-Serif" font-size="10.00">MaterialProperties</text>
</a>
</g>
</g>
<!-- Node1&#45;&gt;Node14 -->
<g id="edge24_Node000001_Node000014" class="edge">
<title>Node1&#45;&gt;Node14</title>
<g id="a_edge24_Node000001_Node000014"><a xlink:title=" ">
<path fill="none" stroke="#63b8ff" d="M744.21,-307.95C768.71,-298.45 801.27,-285.82 827.52,-275.64"/>
<polygon fill="#63b8ff" stroke="#63b8ff" points="828.82,-278.89 836.87,-272.01 826.29,-272.37 828.82,-278.89"/>
</a>
</g>
</g>
<!-- Node16 -->
<g id="Node000016" class="node">
<title>Node16</title>
<g id="a_Node000016"><a xlink:href="UniformValueMap_8ixx.html" target="_top" xlink:title="Mapping of uniform names to values used by shader programs.">
<polygon fill="white" stroke="#666666" points="1056,-206 922,-206 922,-176 1056,-176 1056,-206"/>
<text text-anchor="start" x="930" y="-194" font-family="Helvetica,sans-Serif" font-size="10.00">helios.rendering.shader.</text>
<text text-anchor="middle" x="989" y="-183" font-family="Helvetica,sans-Serif" font-size="10.00">UniformValueMap</text>
</a>
</g>
</g>
<!-- Node1&#45;&gt;Node16 -->
<g id="edge38_Node000001_Node000016" class="edge">
<title>Node1&#45;&gt;Node16</title>
<g id="a_edge38_Node000001_Node000016"><a xlink:title=" ">
<path fill="none" stroke="#63b8ff" d="M775.15,-316.63C841.42,-309.99 936.68,-296.47 964,-272 979.69,-257.95 985.63,-234.2 987.83,-216.22"/>
<polygon fill="#63b8ff" stroke="#63b8ff" points="991.32,-216.44 988.75,-206.17 984.35,-215.8 991.32,-216.44"/>
</a>
</g>
</g>
<!-- Node21 -->
<g id="Node000021" class="node">
<title>Node21</title>
<g id="a_Node000021"><a xlink:href="Shader_8ixx.html" target="_top" xlink:title="Abstraction for a compiled shader program.">
<polygon fill="white" stroke="#666666" points="728,-272 594,-272 594,-242 728,-242 728,-272"/>
<text text-anchor="start" x="602" y="-260" font-family="Helvetica,sans-Serif" font-size="10.00">helios.rendering.shader.</text>
<text text-anchor="middle" x="661" y="-249" font-family="Helvetica,sans-Serif" font-size="10.00">Shader</text>
</a>
</g>
</g>
<!-- Node1&#45;&gt;Node21 -->
<g id="edge34_Node000001_Node000021" class="edge">
<title>Node1&#45;&gt;Node21</title>
<g id="a_edge34_Node000001_Node000021"><a xlink:title=" ">
<path fill="none" stroke="#63b8ff" d="M697.57,-307.8C691.67,-299.76 684.15,-289.53 677.47,-280.43"/>
<polygon fill="#63b8ff" stroke="#63b8ff" points="680.14,-278.15 671.4,-272.16 674.5,-282.3 680.14,-278.15"/>
</a>
</g>
</g>
<!-- Node5 -->
<g id="Node000005" class="node">
<title>Node5</title>
<g id="a_Node000005"><a xlink:href="LogManager_8ixx.html" target="_top" xlink:title="Central manager for scoped loggers with configurable sinks.">
<polygon fill="white" stroke="#666666" points="534,-200.5 388,-200.5 388,-181.5 534,-181.5 534,-200.5"/>
<text text-anchor="middle" x="461" y="-188.5" font-family="Helvetica,sans-Serif" font-size="10.00">helios.util.log.LogManager</text>
</a>
</g>
</g>
<!-- Node4&#45;&gt;Node5 -->
<g id="edge4_Node000004_Node000005" class="edge">
<title>Node4&#45;&gt;Node5</title>
<g id="a_edge4_Node000004_Node000005"><a xlink:title=" ">
<path fill="none" stroke="#63b8ff" d="M452.35,-247.37C453.8,-238.07 456.16,-222.98 458.05,-210.9"/>
<polygon fill="#63b8ff" stroke="#63b8ff" points="461.52,-211.33 459.61,-200.91 454.61,-210.25 461.52,-211.33"/>
</a>
</g>
</g>
<!-- Node11 -->
<g id="Node000011" class="node">
<title>Node11</title>
<g id="a_Node000011"><a xlink:href="Logger_8ixx.html" target="_top" xlink:title="Simple synchronous logger with configurable output sinks.">
<polygon fill="white" stroke="#666666" points="689.5,-134.5 570.5,-134.5 570.5,-115.5 689.5,-115.5 689.5,-134.5"/>
<text text-anchor="middle" x="630" y="-122.5" font-family="Helvetica,sans-Serif" font-size="10.00">helios.util.log.Logger</text>
</a>
</g>
</g>
<!-- Node4&#45;&gt;Node11 -->
<g id="edge19_Node000004_Node000011" class="edge">
<title>Node4&#45;&gt;Node11</title>
<g id="a_edge19_Node000004_Node000011"><a xlink:title=" ">
<path fill="none" stroke="#63b8ff" d="M469.77,-247.49C488.94,-238.41 519.19,-223.02 543,-206 570.26,-186.51 598.14,-159.34 614.76,-142.21"/>
<polygon fill="#63b8ff" stroke="#63b8ff" points="617.57,-144.33 621.96,-134.69 612.51,-139.49 617.57,-144.33"/>
</a>
</g>
</g>
<!-- Node12 -->
<g id="Node000012" class="node">
<title>Node12</title>
<g id="a_Node000012"><a xlink:href="LogSink_8ixx.html" target="_top" xlink:title="Abstract interface for log output destinations.">
<polygon fill="white" stroke="#666666" points="224,-74 100,-74 100,-55 224,-55 224,-74"/>
<text text-anchor="middle" x="162" y="-62" font-family="Helvetica,sans-Serif" font-size="10.00">helios.util.log.LogSink</text>
</a>
</g>
</g>
<!-- Node4&#45;&gt;Node12 -->
<g id="edge23_Node000004_Node000012" class="edge">
<title>Node4&#45;&gt;Node12</title>
<g id="a_edge23_Node000004_Node000012"><a xlink:title=" ">
<path fill="none" stroke="#63b8ff" d="M410.5,-247.46C354.89,-233.79 254.88,-202 194,-140 178.94,-124.66 170.46,-101.1 166.07,-84.59"/>
<polygon fill="#63b8ff" stroke="#63b8ff" points="169.38,-83.39 163.65,-74.48 162.57,-85.02 169.38,-83.39"/>
</a>
</g>
</g>
<!-- Node13 -->
<g id="Node000013" class="node">
<title>Node13</title>
<g id="a_Node000013"><a xlink:href="ConsoleSink_8ixx.html" target="_top" xlink:title="Log sink that writes to stdout.">
<polygon fill="white" stroke="#666666" points="146,-134.5 0,-134.5 0,-115.5 146,-115.5 146,-134.5"/>
<text text-anchor="middle" x="73" y="-122.5" font-family="Helvetica,sans-Serif" font-size="10.00">helios.util.log.ConsoleSink</text>
</a>
</g>
</g>
<!-- Node4&#45;&gt;Node13 -->
<g id="edge20_Node000004_Node000013" class="edge">
<title>Node4&#45;&gt;Node13</title>
<g id="a_edge20_Node000004_Node000013"><a xlink:title=" ">
<path fill="none" stroke="#63b8ff" d="M409.22,-256.11C350.59,-254.7 241.89,-246.25 160,-206 129.16,-190.84 101.44,-161.28 85.95,-142.64"/>
<polygon fill="#63b8ff" stroke="#63b8ff" points="88.55,-140.3 79.55,-134.71 83.11,-144.69 88.55,-140.3"/>
</a>
</g>
</g>
<!-- Node5&#45;&gt;Node2 -->
<g id="edge8_Node000005_Node000002" class="edge">
<title>Node5&#45;&gt;Node2</title>
<g id="a_edge8_Node000005_Node000002"><a xlink:title=" ">
<path fill="none" stroke="#63b8ff" d="M534.18,-182.94C594.81,-175.62 674.68,-162.08 698,-140 713.01,-125.78 717.19,-101.62 718.14,-84.68"/>
<polygon fill="#63b8ff" stroke="#63b8ff" points="721.65,-84.39 718.38,-74.31 714.65,-84.23 721.65,-84.39"/>
</a>
</g>
</g>
<!-- Node6 -->
<g id="Node000006" class="node">
<title>Node6</title>
<g id="a_Node000006"><a xlink:title=" ">
<polygon fill="#e0e0e0" stroke="#999999" points="229,-19 185,-19 185,0 229,0 229,-19"/>
<text text-anchor="middle" x="207" y="-7" font-family="Helvetica,sans-Serif" font-size="10.00">string</text>
</a>
</g>
</g>
<!-- Node5&#45;&gt;Node6 -->
<g id="edge5_Node000005_Node000006" class="edge">
<title>Node5&#45;&gt;Node6</title>
<g id="a_edge5_Node000005_Node000006"><a xlink:title=" ">
<path fill="none" stroke="#63b8ff" d="M401.33,-181.45C368.46,-174.46 328.3,-162 298,-140 276.64,-124.49 236.09,-59.32 217.18,-27.77"/>
<polygon fill="#63b8ff" stroke="#63b8ff" points="220.17,-25.95 212.05,-19.15 214.16,-29.53 220.17,-25.95"/>
</a>
</g>
</g>
<!-- Node7 -->
<g id="Node000007" class="node">
<title>Node7</title>
<g id="a_Node000007"><a xlink:title=" ">
<polygon fill="#e0e0e0" stroke="#999999" points="409.5,-134.5 316.5,-134.5 316.5,-115.5 409.5,-115.5 409.5,-134.5"/>
<text text-anchor="middle" x="363" y="-122.5" font-family="Helvetica,sans-Serif" font-size="10.00">unordered_map</text>
</a>
</g>
</g>
<!-- Node5&#45;&gt;Node7 -->
<g id="edge6_Node000005_Node000007" class="edge">
<title>Node5&#45;&gt;Node7</title>
<g id="a_edge6_Node000005_Node000007"><a xlink:title=" ">
<path fill="none" stroke="#63b8ff" d="M447.78,-181.37C431.64,-170.82 404.09,-152.84 384.79,-140.23"/>
<polygon fill="#63b8ff" stroke="#63b8ff" points="386.61,-137.24 376.32,-134.7 382.78,-143.1 386.61,-137.24"/>
</a>
</g>
</g>
<!-- Node8 -->
<g id="Node000008" class="node">
<title>Node8</title>
<g id="a_Node000008"><a xlink:title=" ">
<polygon fill="#e0e0e0" stroke="#999999" points="514,-134.5 428,-134.5 428,-115.5 514,-115.5 514,-134.5"/>
<text text-anchor="middle" x="471" y="-122.5" font-family="Helvetica,sans-Serif" font-size="10.00">unordered_set</text>
</a>
</g>
</g>
<!-- Node5&#45;&gt;Node8 -->
<g id="edge7_Node000005_Node000008" class="edge">
<title>Node5&#45;&gt;Node8</title>
<g id="a_edge7_Node000005_Node000008"><a xlink:title=" ">
<path fill="none" stroke="#63b8ff" d="M462.35,-181.37C463.8,-172.07 466.16,-156.98 468.05,-144.9"/>
<polygon fill="#63b8ff" stroke="#63b8ff" points="471.52,-145.33 469.61,-134.91 464.61,-144.25 471.52,-145.33"/>
</a>
</g>
</g>
<!-- Node9 -->
<g id="Node000009" class="node">
<title>Node9</title>
<g id="a_Node000009"><a xlink:title=" ">
<polygon fill="#e0e0e0" stroke="#999999" points="423,-74 375,-74 375,-55 423,-55 423,-74"/>
<text text-anchor="middle" x="399" y="-62" font-family="Helvetica,sans-Serif" font-size="10.00">mutex</text>
</a>
</g>
</g>
<!-- Node5&#45;&gt;Node9 -->
<g id="edge9_Node000005_Node000009" class="edge">
<title>Node5&#45;&gt;Node9</title>
<g id="a_edge9_Node000005_Node000009"><a xlink:title=" ">
<path fill="none" stroke="#63b8ff" d="M387.61,-184.6C357.58,-178.34 325.59,-165.58 307,-140 299.16,-129.21 299.92,-121.3 307,-110 319.64,-89.85 344.27,-78.6 364.87,-72.45"/>
<polygon fill="#63b8ff" stroke="#63b8ff" points="365.84,-75.82 374.58,-69.83 364.02,-69.06 365.84,-75.82"/>
</a>
</g>
</g>
<!-- Node10 -->
<g id="Node000010" class="node">
<title>Node10</title>
<g id="a_Node000010"><a xlink:title=" ">
<polygon fill="#e0e0e0" stroke="#999999" points="574.5,-74 527.5,-74 527.5,-55 574.5,-55 574.5,-74"/>
<text text-anchor="middle" x="551" y="-62" font-family="Helvetica,sans-Serif" font-size="10.00">vector</text>
</a>
</g>
</g>
<!-- Node5&#45;&gt;Node10 -->
<g id="edge10_Node000005_Node000010" class="edge">
<title>Node5&#45;&gt;Node10</title>
<g id="a_edge10_Node000005_Node000010"><a xlink:title=" ">
<path fill="none" stroke="#63b8ff" d="M475.67,-181.41C489.58,-172.6 510.2,-157.71 523,-140 535.24,-123.06 542.8,-100.12 546.92,-84.19"/>
<polygon fill="#63b8ff" stroke="#63b8ff" points="550.43,-84.56 549.34,-74.02 543.62,-82.94 550.43,-84.56"/>
</a>
</g>
</g>
<!-- Node5&#45;&gt;Node11 -->
<g id="edge11_Node000005_Node000011" class="edge">
<title>Node5&#45;&gt;Node11</title>
<g id="a_edge11_Node000005_Node000011"><a xlink:title=" ">
<path fill="none" stroke="#63b8ff" d="M483.79,-181.37C513.1,-170.27 564.2,-150.92 597.56,-138.28"/>
<polygon fill="#63b8ff" stroke="#63b8ff" points="599.19,-141.41 607.3,-134.6 596.71,-134.86 599.19,-141.41"/>
</a>
</g>
</g>
<!-- Node5&#45;&gt;Node12 -->
<g id="edge18_Node000005_Node000012" class="edge">
<title>Node5&#45;&gt;Node12</title>
<g id="a_edge18_Node000005_Node000012"><a xlink:title=" ">
<path fill="none" stroke="#63b8ff" d="M387.88,-184.32C341.96,-178.27 282.79,-165.79 236,-140 210.03,-125.69 187.19,-99.49 173.98,-82.29"/>
<polygon fill="#63b8ff" stroke="#63b8ff" points="176.76,-80.16 167.99,-74.22 171.15,-84.33 176.76,-80.16"/>
</a>
</g>
</g>
<!-- Node11&#45;&gt;Node2 -->
<g id="edge14_Node000011_Node000002" class="edge">
<title>Node11&#45;&gt;Node2</title>
<g id="a_edge14_Node000011_Node000002"><a xlink:title=" ">
<path fill="none" stroke="#63b8ff" d="M642.98,-115.37C657.02,-106.04 679.63,-91.01 696.36,-79.88"/>
<polygon fill="#63b8ff" stroke="#63b8ff" points="698.57,-82.62 704.96,-74.17 694.7,-76.79 698.57,-82.62"/>
</a>
</g>
</g>
<!-- Node11&#45;&gt;Node6 -->
<g id="edge12_Node000011_Node000006" class="edge">
<title>Node11&#45;&gt;Node6</title>
<g id="a_edge12_Node000011_Node000006"><a xlink:title=" ">
<path fill="none" stroke="#63b8ff" d="M626.93,-115.45C621.03,-100.37 606.54,-69.28 583,-55 525.45,-20.09 319.33,-12.55 239.19,-10.94"/>
<polygon fill="#63b8ff" stroke="#63b8ff" points="239.25,-7.44 229.19,-10.75 239.12,-14.44 239.25,-7.44"/>
</a>
</g>
</g>
<!-- Node11&#45;&gt;Node9 -->
<g id="edge15_Node000011_Node000009" class="edge">
<title>Node11&#45;&gt;Node9</title>
<g id="a_edge15_Node000011_Node000009"><a xlink:title=" ">
<path fill="none" stroke="#63b8ff" d="M596.41,-115.49C552.74,-104.43 476.87,-85.22 433,-74.11"/>
<polygon fill="#63b8ff" stroke="#63b8ff" points="433.65,-70.66 423.1,-71.6 431.93,-77.45 433.65,-70.66"/>
</a>
</g>
</g>
<!-- Node11&#45;&gt;Node10 -->
<g id="edge13_Node000011_Node000010" class="edge">
<title>Node11&#45;&gt;Node10</title>
<g id="a_edge13_Node000011_Node000010"><a xlink:title=" ">
<path fill="none" stroke="#63b8ff" d="M618.34,-115.37C605.86,-106.12 585.82,-91.28 570.84,-80.19"/>
<polygon fill="#63b8ff" stroke="#63b8ff" points="572.82,-77.31 562.7,-74.17 568.66,-82.93 572.82,-77.31"/>
</a>
</g>
</g>
<!-- Node11&#45;&gt;Node12 -->
<g id="edge16_Node000011_Node000012" class="edge">
<title>Node11&#45;&gt;Node12</title>
<g id="a_edge16_Node000011_Node000012"><a xlink:title=" ">
<path fill="none" stroke="#63b8ff" d="M570.3,-116.11C554.9,-114.09 538.33,-111.95 523,-110 422.93,-97.29 307.19,-83.11 234.3,-74.25"/>
<polygon fill="#63b8ff" stroke="#63b8ff" points="234.65,-70.77 224.3,-73.04 233.81,-77.72 234.65,-70.77"/>
</a>
</g>
</g>
<!-- Node12&#45;&gt;Node6 -->
<g id="edge17_Node000012_Node000006" class="edge">
<title>Node12&#45;&gt;Node6</title>
<g id="a_edge17_Node000012_Node000006"><a xlink:title=" ">
<path fill="none" stroke="#63b8ff" d="M169.43,-54.75C175.85,-47.18 185.31,-36.05 193.12,-26.84"/>
<polygon fill="#63b8ff" stroke="#63b8ff" points="195.9,-28.98 199.71,-19.09 190.57,-24.45 195.9,-28.98"/>
</a>
</g>
</g>
<!-- Node13&#45;&gt;Node6 -->
<g id="edge21_Node000013_Node000006" class="edge">
<title>Node13&#45;&gt;Node6</title>
<g id="a_edge21_Node000013_Node000006"><a xlink:title=" ">
<path fill="none" stroke="#63b8ff" d="M72.86,-115.19C73.1,-100.81 75.65,-72.16 91,-55 112.58,-30.87 148.73,-19.74 174.94,-14.66"/>
<polygon fill="#63b8ff" stroke="#63b8ff" points="175.55,-18.11 184.8,-12.94 174.35,-11.21 175.55,-18.11"/>
</a>
</g>
</g>
<!-- Node13&#45;&gt;Node12 -->
<g id="edge22_Node000013_Node000012" class="edge">
<title>Node13&#45;&gt;Node12</title>
<g id="a_edge22_Node000013_Node000012"><a xlink:title=" ">
<path fill="none" stroke="#63b8ff" d="M86.13,-115.37C100.33,-106.04 123.2,-91.01 140.12,-79.88"/>
<polygon fill="#63b8ff" stroke="#63b8ff" points="142.38,-82.58 148.81,-74.17 138.53,-76.74 142.38,-82.58"/>
</a>
</g>
</g>
<!-- Node15 -->
<g id="Node000015" class="node">
<title>Node15</title>
<g id="a_Node000015"><a xlink:href="UniformSemantics_8ixx.html" target="_top" xlink:title="Definitions of uniform semantics used by shaders.">
<polygon fill="white" stroke="#666666" points="1058,-140 924,-140 924,-110 1058,-110 1058,-140"/>
<text text-anchor="start" x="932" y="-128" font-family="Helvetica,sans-Serif" font-size="10.00">helios.rendering.shader.</text>
<text text-anchor="middle" x="991" y="-117" font-family="Helvetica,sans-Serif" font-size="10.00">UniformSemantics</text>
</a>
</g>
</g>
<!-- Node14&#45;&gt;Node15 -->
<g id="edge25_Node000014_Node000015" class="edge">
<title>Node14&#45;&gt;Node15</title>
<g id="a_edge25_Node000014_Node000015"><a xlink:title=" ">
<path fill="none" stroke="#63b8ff" d="M877.43,-241.93C883.36,-224.81 895.25,-195.75 913,-176 924.03,-163.73 938.73,-153.27 952.4,-145.14"/>
<polygon fill="#63b8ff" stroke="#63b8ff" points="954.23,-148.12 961.19,-140.13 950.77,-142.04 954.23,-148.12"/>
</a>
</g>
</g>
<!-- Node14&#45;&gt;Node16 -->
<g id="edge26_Node000014_Node000016" class="edge">
<title>Node14&#45;&gt;Node16</title>
<g id="a_edge26_Node000014_Node000016"><a xlink:title=" ">
<path fill="none" stroke="#63b8ff" d="M898.46,-241.95C914.93,-232.87 936.57,-220.93 954.57,-211"/>
<polygon fill="#63b8ff" stroke="#63b8ff" points="956.54,-213.91 963.6,-206.01 953.16,-207.78 956.54,-213.91"/>
</a>
</g>
</g>
<!-- Node20 -->
<g id="Node000020" class="node">
<title>Node20</title>
<g id="a_Node000020"><a xlink:href="helios_2math_2types_2__module_8ixx.html" target="_top" xlink:title="Module exports for vector and matrix type definitions.">
<polygon fill="white" stroke="#666666" points="888,-134.5 784,-134.5 784,-115.5 888,-115.5 888,-134.5"/>
<text text-anchor="middle" x="836" y="-122.5" font-family="Helvetica,sans-Serif" font-size="10.00">helios.math.types</text>
</a>
</g>
</g>
<!-- Node14&#45;&gt;Node20 -->
<g id="edge33_Node000014_Node000020" class="edge">
<title>Node14&#45;&gt;Node20</title>
<g id="a_edge33_Node000014_Node000020"><a xlink:title=" ">
<path fill="none" stroke="#63b8ff" d="M868.97,-241.84C862.25,-218.23 848.76,-170.83 841.29,-144.58"/>
<polygon fill="#63b8ff" stroke="#63b8ff" points="844.59,-143.41 838.49,-134.75 837.86,-145.32 844.59,-143.41"/>
</a>
</g>
</g>
<!-- Node16&#45;&gt;Node15 -->
<g id="edge32_Node000016_Node000015" class="edge">
<title>Node16&#45;&gt;Node15</title>
<g id="a_edge32_Node000016_Node000015"><a xlink:title=" ">
<path fill="none" stroke="#63b8ff" d="M989.44,-175.8C989.68,-168.34 989.97,-158.99 990.24,-150.41"/>
<polygon fill="#63b8ff" stroke="#63b8ff" points="993.74,-150.27 990.56,-140.16 986.75,-150.05 993.74,-150.27"/>
</a>
</g>
</g>
<!-- Node17 -->
<g id="Node000017" class="node">
<title>Node17</title>
<g id="a_Node000017"><a xlink:title=" ">
<polygon fill="#e0e0e0" stroke="#999999" points="1188,-134.5 1146,-134.5 1146,-115.5 1188,-115.5 1188,-134.5"/>
<text text-anchor="middle" x="1167" y="-122.5" font-family="Helvetica,sans-Serif" font-size="10.00">array</text>
</a>
</g>
</g>
<!-- Node16&#45;&gt;Node17 -->
<g id="edge27_Node000016_Node000017" class="edge">
<title>Node16&#45;&gt;Node17</title>
<g id="a_edge27_Node000016_Node000017"><a xlink:title=" ">
<path fill="none" stroke="#63b8ff" d="M1034.82,-175.97C1064.3,-166.59 1103.27,-153.52 1137,-140 1138.01,-139.59 1139.04,-139.17 1140.08,-138.74"/>
<polygon fill="#63b8ff" stroke="#63b8ff" points="1141.65,-141.87 1149.38,-134.62 1138.81,-135.47 1141.65,-141.87"/>
</a>
</g>
</g>
<!-- Node18 -->
<g id="Node000018" class="node">
<title>Node18</title>
<g id="a_Node000018"><a xlink:title=" ">
<polygon fill="#e0e0e0" stroke="#999999" points="1262,-134.5 1206,-134.5 1206,-115.5 1262,-115.5 1262,-134.5"/>
<text text-anchor="middle" x="1234" y="-122.5" font-family="Helvetica,sans-Serif" font-size="10.00">optional</text>
</a>
</g>
</g>
<!-- Node16&#45;&gt;Node18 -->
<g id="edge28_Node000016_Node000018" class="edge">
<title>Node16&#45;&gt;Node18</title>
<g id="a_edge28_Node000016_Node000018"><a xlink:title=" ">
<path fill="none" stroke="#63b8ff" d="M1056.09,-176.12C1097.13,-167.08 1150.5,-154.32 1197,-140 1198.92,-139.41 1200.88,-138.77 1202.86,-138.1"/>
<polygon fill="#63b8ff" stroke="#63b8ff" points="1204.4,-141.27 1212.64,-134.61 1202.04,-134.68 1204.4,-141.27"/>
</a>
</g>
</g>
<!-- Node19 -->
<g id="Node000019" class="node">
<title>Node19</title>
<g id="a_Node000019"><a xlink:title=" ">
<polygon fill="#e0e0e0" stroke="#999999" points="1127.5,-134.5 1076.5,-134.5 1076.5,-115.5 1127.5,-115.5 1127.5,-134.5"/>
<text text-anchor="middle" x="1102" y="-122.5" font-family="Helvetica,sans-Serif" font-size="10.00">variant</text>
</a>
</g>
</g>
<!-- Node16&#45;&gt;Node19 -->
<g id="edge29_Node000016_Node000019" class="edge">
<title>Node16&#45;&gt;Node19</title>
<g id="a_edge29_Node000016_Node000019"><a xlink:title=" ">
<path fill="none" stroke="#63b8ff" d="M1013.8,-175.95C1032.92,-165.13 1059.2,-150.24 1078.09,-139.54"/>
<polygon fill="#63b8ff" stroke="#63b8ff" points="1079.99,-142.49 1086.96,-134.52 1076.54,-136.4 1079.99,-142.49"/>
</a>
</g>
</g>
<!-- Node16&#45;&gt;Node20 -->
<g id="edge30_Node000016_Node000020" class="edge">
<title>Node16&#45;&gt;Node20</title>
<g id="a_edge30_Node000016_Node000020"><a xlink:title=" ">
<path fill="none" stroke="#63b8ff" d="M955.42,-175.95C928.59,-164.73 891.34,-149.15 865.61,-138.39"/>
<polygon fill="#63b8ff" stroke="#63b8ff" points="866.94,-135.15 856.36,-134.52 864.24,-141.61 866.94,-135.15"/>
</a>
</g>
</g>
<!-- Node20&#45;&gt;Node20 -->
<g id="edge31_Node000020_Node000020" class="edge">
<title>Node20&#45;&gt;Node20</title>
<g id="a_edge31_Node000020_Node000020"><a xlink:title=" ">
<path fill="none" stroke="#63b8ff" d="M861.85,-134.53C883.44,-138.61 906,-135.43 906,-125 906,-116.2 889.94,-112.56 871.95,-114.09"/>
<polygon fill="#63b8ff" stroke="#63b8ff" points="871.28,-110.65 861.85,-115.47 872.23,-117.58 871.28,-110.65"/>
</a>
</g>
</g>
<!-- Node21&#45;&gt;Node5 -->
<g id="edge37_Node000021_Node000005" class="edge">
<title>Node21&#45;&gt;Node5</title>
<g id="a_edge37_Node000021_Node000005"><a xlink:title=" ">
<path fill="none" stroke="#63b8ff" d="M617.11,-241.95C581.26,-230.48 531.19,-214.46 497.51,-203.68"/>
<polygon fill="#63b8ff" stroke="#63b8ff" points="498.21,-200.23 487.62,-200.52 496.07,-206.9 498.21,-200.23"/>
</a>
</g>
</g>
<!-- Node21&#45;&gt;Node11 -->
<g id="edge36_Node000021_Node000011" class="edge">
<title>Node21&#45;&gt;Node11</title>
<g id="a_edge36_Node000021_Node000011"><a xlink:title=" ">
<path fill="none" stroke="#63b8ff" d="M657.62,-241.84C651.99,-218.23 640.69,-170.83 634.43,-144.58"/>
<polygon fill="#63b8ff" stroke="#63b8ff" points="637.81,-143.66 632.09,-134.75 631,-145.29 637.81,-143.66"/>
</a>
</g>
</g>
<!-- Node21&#45;&gt;Node16 -->
<g id="edge35_Node000021_Node000016" class="edge">
<title>Node21&#45;&gt;Node16</title>
<g id="a_edge35_Node000021_Node000016"><a xlink:title=" ">
<path fill="none" stroke="#63b8ff" d="M728.17,-242.89C781.56,-232.48 856.3,-217.89 912.09,-207.01"/>
<polygon fill="#63b8ff" stroke="#63b8ff" points="912.78,-210.44 921.92,-205.09 911.44,-203.57 912.78,-210.44"/>
</a>
</g>
</g>
</g>
</svg>
