<?xml version="1.0" encoding="UTF-8" standalone="no"?>
<!DOCTYPE svg PUBLIC "-//W3C//DTD SVG 1.1//EN"
 "http://www.w3.org/Graphics/SVG/1.1/DTD/svg11.dtd">
<!-- Generated by graphviz version 2.43.0 (0)
 -->
<!-- Title: include/helios/rendering/model/config/MaterialPropertiesOverride.ixx Pages: 1 -->
<svg width="486pt" height="181pt"
 viewBox="0.00 0.00 486.00 181.00" xmlns="http://www.w3.org/2000/svg" xmlns:xlink="http://www.w3.org/1999/xlink">

<svg id="main" version="1.1" xmlns="http://www.w3.org/2000/svg" xmlns:xlink="http://www.w3.org/1999/xlink" xml:space="preserve">

<style type="text/css"><![CDATA[
.node, .edge {opacity: 0.7;}
.node.selected, .edge.selected {opacity: 1;}
.edge:hover path { stroke: red; }
.edge:hover polygon { stroke: red; fill: red; }
]]></style>
<script type="application/ecmascript" xlink:href="svg.min.js"/>
<svg id="graph" class="graph">
<g id="graph0" class="graph" transform="scale(1 1) rotate(0) translate(4 177)">
<title>include/helios/rendering/model/config/MaterialPropertiesOverride.ixx</title>
<!-- Node1 -->
<g id="Node000001" class="node">
<title>Node1</title>
<g id="a_Node000001"><a xlink:title="Overrides for material properties to customize rendering parameters.">
<polygon fill="#999999" stroke="#666666" points="280,-173 104,-173 104,-132 280,-132 280,-173"/>
<text text-anchor="start" x="112" y="-161" font-family="Helvetica,sans-Serif" font-size="10.00">include/helios/rendering</text>
<text text-anchor="start" x="112" y="-150" font-family="Helvetica,sans-Serif" font-size="10.00">/model/config/MaterialProperties</text>
<text text-anchor="middle" x="192" y="-139" font-family="Helvetica,sans-Serif" font-size="10.00">Override.ixx</text>
</a>
</g>
</g>
<!-- Node2 -->
<g id="Node000002" class="node">
<title>Node2</title>
<g id="a_Node000002"><a xlink:title=" ">
<polygon fill="#e0e0e0" stroke="#999999" points="56,-24.5 0,-24.5 0,-5.5 56,-5.5 56,-24.5"/>
<text text-anchor="middle" x="28" y="-12.5" font-family="Helvetica,sans-Serif" font-size="10.00">optional</text>
</a>
</g>
</g>
<!-- Node1&#45;&gt;Node2 -->
<g id="edge1_Node000001_Node000002" class="edge">
<title>Node1&#45;&gt;Node2</title>
<g id="a_edge1_Node000001_Node000002"><a xlink:title=" ">
<path fill="none" stroke="#63b8ff" d="M168.15,-131.8C135.16,-104.54 76.3,-55.91 46.45,-31.24"/>
<polygon fill="#63b8ff" stroke="#63b8ff" points="48.45,-28.36 38.51,-24.69 43.99,-33.75 48.45,-28.36"/>
</a>
</g>
</g>
<!-- Node3 -->
<g id="Node000003" class="node">
<title>Node3</title>
<g id="a_Node000003"><a xlink:href="UniformSemantics_8ixx.html" target="_top" xlink:title="Definitions of uniform semantics used by shaders.">
<polygon fill="white" stroke="#666666" points="208,-30 74,-30 74,0 208,0 208,-30"/>
<text text-anchor="start" x="82" y="-18" font-family="Helvetica,sans-Serif" font-size="10.00">helios.rendering.shader.</text>
<text text-anchor="middle" x="141" y="-7" font-family="Helvetica,sans-Serif" font-size="10.00">UniformSemantics</text>
</a>
</g>
</g>
<!-- Node1&#45;&gt;Node3 -->
<g id="edge2_Node000001_Node000003" class="edge">
<title>Node1&#45;&gt;Node3</title>
<g id="a_edge2_Node000001_Node000003"><a xlink:title=" ">
<path fill="none" stroke="#63b8ff" d="M184.58,-131.8C175.41,-107.43 159.82,-65.99 149.98,-39.85"/>
<polygon fill="#63b8ff" stroke="#63b8ff" points="153.19,-38.45 146.39,-30.33 146.64,-40.92 153.19,-38.45"/>
</a>
</g>
</g>
<!-- Node4 -->
<g id="Node000004" class="node">
<title>Node4</title>
<g id="a_Node000004"><a xlink:href="UniformValueMap_8ixx.html" target="_top" xlink:title="Mapping of uniform names to values used by shader programs.">
<polygon fill="white" stroke="#666666" points="315,-96 181,-96 181,-66 315,-66 315,-96"/>
<text text-anchor="start" x="189" y="-84" font-family="Helvetica,sans-Serif" font-size="10.00">helios.rendering.shader.</text>
<text text-anchor="middle" x="248" y="-73" font-family="Helvetica,sans-Serif" font-size="10.00">UniformValueMap</text>
</a>
</g>
</g>
<!-- Node1&#45;&gt;Node4 -->
<g id="edge3_Node000001_Node000004" class="edge">
<title>Node1&#45;&gt;Node4</title>
<g id="a_edge3_Node000001_Node000004"><a xlink:title=" ">
<path fill="none" stroke="#63b8ff" d="M207.9,-131.77C214.86,-123.13 223.05,-112.96 230.21,-104.08"/>
<polygon fill="#63b8ff" stroke="#63b8ff" points="233.14,-106.02 236.69,-96.04 227.69,-101.63 233.14,-106.02"/>
</a>
</g>
</g>
<!-- Node7 -->
<g id="Node000007" class="node">
<title>Node7</title>
<g id="a_Node000007"><a xlink:href="helios_2math_2types_2__module_8ixx.html" target="_top" xlink:title="Module exports for vector and matrix type definitions.">
<polygon fill="white" stroke="#666666" points="460,-24.5 356,-24.5 356,-5.5 460,-5.5 460,-24.5"/>
<text text-anchor="middle" x="408" y="-12.5" font-family="Helvetica,sans-Serif" font-size="10.00">helios.math.types</text>
</a>
</g>
</g>
<!-- Node1&#45;&gt;Node7 -->
<g id="edge10_Node000001_Node000007" class="edge">
<title>Node1&#45;&gt;Node7</title>
<g id="a_edge10_Node000001_Node000007"><a xlink:title=" ">
<path fill="none" stroke="#63b8ff" d="M251.15,-131.91C274.78,-122.77 301.64,-110.63 324,-96 351.8,-77.8 378.66,-49.83 394.24,-32.24"/>
<polygon fill="#63b8ff" stroke="#63b8ff" points="397.03,-34.37 400.94,-24.53 391.74,-29.78 397.03,-34.37"/>
</a>
</g>
</g>
<!-- Node4&#45;&gt;Node2 -->
<g id="edge5_Node000004_Node000002" class="edge">
<title>Node4&#45;&gt;Node2</title>
<g id="a_edge5_Node000004_Node000002"><a xlink:title=" ">
<path fill="none" stroke="#63b8ff" d="M191.12,-65.95C154.79,-56.6 106.82,-43.59 65,-30 63.14,-29.4 61.23,-28.75 59.32,-28.08"/>
<polygon fill="#63b8ff" stroke="#63b8ff" points="60.38,-24.75 49.79,-24.64 58,-31.33 60.38,-24.75"/>
</a>
</g>
</g>
<!-- Node4&#45;&gt;Node3 -->
<g id="edge9_Node000004_Node000003" class="edge">
<title>Node4&#45;&gt;Node3</title>
<g id="a_edge9_Node000004_Node000003"><a xlink:title=" ">
<path fill="none" stroke="#63b8ff" d="M224.52,-65.95C209.47,-56.95 189.73,-45.14 173.22,-35.27"/>
<polygon fill="#63b8ff" stroke="#63b8ff" points="174.81,-32.14 164.43,-30.01 171.21,-38.15 174.81,-32.14"/>
</a>
</g>
</g>
<!-- Node5 -->
<g id="Node000005" class="node">
<title>Node5</title>
<g id="a_Node000005"><a xlink:title=" ">
<polygon fill="#e0e0e0" stroke="#999999" points="338,-24.5 296,-24.5 296,-5.5 338,-5.5 338,-24.5"/>
<text text-anchor="middle" x="317" y="-12.5" font-family="Helvetica,sans-Serif" font-size="10.00">array</text>
</a>
</g>
</g>
<!-- Node4&#45;&gt;Node5 -->
<g id="edge4_Node000004_Node000005" class="edge">
<title>Node4&#45;&gt;Node5</title>
<g id="a_edge4_Node000004_Node000005"><a xlink:title=" ">
<path fill="none" stroke="#63b8ff" d="M263.31,-65.8C274.18,-55.72 288.76,-42.19 299.99,-31.78"/>
<polygon fill="#63b8ff" stroke="#63b8ff" points="302.51,-34.21 307.46,-24.84 297.75,-29.08 302.51,-34.21"/>
</a>
</g>
</g>
<!-- Node6 -->
<g id="Node000006" class="node">
<title>Node6</title>
<g id="a_Node000006"><a xlink:title=" ">
<polygon fill="#e0e0e0" stroke="#999999" points="277.5,-24.5 226.5,-24.5 226.5,-5.5 277.5,-5.5 277.5,-24.5"/>
<text text-anchor="middle" x="252" y="-12.5" font-family="Helvetica,sans-Serif" font-size="10.00">variant</text>
</a>
</g>
</g>
<!-- Node4&#45;&gt;Node6 -->
<g id="edge6_Node000004_Node000006" class="edge">
<title>Node4&#45;&gt;Node6</title>
<g id="a_edge6_Node000004_Node000006"><a xlink:title=" ">
<path fill="none" stroke="#63b8ff" d="M248.89,-65.8C249.46,-56.7 250.2,-44.79 250.82,-34.9"/>
<polygon fill="#63b8ff" stroke="#63b8ff" points="254.32,-35.04 251.45,-24.84 247.33,-34.61 254.32,-35.04"/>
</a>
</g>
</g>
<!-- Node4&#45;&gt;Node7 -->
<g id="edge7_Node000004_Node000007" class="edge">
<title>Node4&#45;&gt;Node7</title>
<g id="a_edge7_Node000004_Node000007"><a xlink:title=" ">
<path fill="none" stroke="#63b8ff" d="M283.11,-65.95C311.3,-54.68 350.47,-39.01 377.39,-28.25"/>
<polygon fill="#63b8ff" stroke="#63b8ff" points="378.72,-31.48 386.71,-24.52 376.12,-24.98 378.72,-31.48"/>
</a>
</g>
</g>
<!-- Node7&#45;&gt;Node7 -->
<g id="edge8_Node000007_Node000007" class="edge">
<title>Node7&#45;&gt;Node7</title>
<g id="a_edge8_Node000007_Node000007"><a xlink:title=" ">
<path fill="none" stroke="#63b8ff" d="M429.86,-24.56C452.56,-30.37 478,-27.18 478,-15 478,-4.58 459.39,-0.74 439.79,-3.48"/>
<polygon fill="#63b8ff" stroke="#63b8ff" points="439,-0.07 429.86,-5.44 440.35,-6.94 439,-0.07"/>
</a>
</g>
</g>
</g>
</svg>
</svg>

<style type='text/css'>
<![CDATA[
[data-mouse-over-selected='false'] { opacity: 0.7; }
[data-mouse-over-selected='true']  { opacity: 1.0; }
]]>
</style>
<script type="application/ecmascript"><![CDATA[
document.addEventListener('DOMContentLoaded', (event) => {
  highlightEdges();
  highlightAdjacentNodes();
});
]]></script>
</svg>
