<?xml version="1.0" encoding="UTF-8" standalone="no"?>
<!DOCTYPE svg PUBLIC "-//W3C//DTD SVG 1.1//EN"
 "http://www.w3.org/Graphics/SVG/1.1/DTD/svg11.dtd">
<!-- Generated by graphviz version 2.43.0 (0)
 -->
<!-- Title: include/helios/rendering/model/MaterialInstance.ixx Pages: 1 -->
<!--zoomable 346 -->

<svg id="main" version="1.1" xmlns="http://www.w3.org/2000/svg" xmlns:xlink="http://www.w3.org/1999/xlink" xml:space="preserve" onload="init(evt)">

<style type="text/css"><![CDATA[
.node, .edge {opacity: 0.7;}
.node.selected, .edge.selected {opacity: 1;}
.edge:hover path { stroke: red; }
.edge:hover polygon { stroke: red; fill: red; }
]]></style>

<defs>
  <circle id="rim" cx="0" cy="0" r="7"/>
  <circle id="rim2" cx="0" cy="0" r="3.5"/>
  <g id="zoomPlus">
    <use xlink:href="#rim" fill="#404040"><set attributeName="fill" to="#808080" begin="zoomplus.mouseover" end="zoomplus.mouseout"/></use>
    <path d="M-4,0h8M0,-4v8" fill="none" stroke="white" stroke-width="1.5" pointer-events="none"/>
  </g>
  <g id="zoomMin">
    <use xlink:href="#rim" fill="#404040"><set attributeName="fill" to="#808080" begin="zoomminus.mouseover" end="zoomminus.mouseout"/></use>
    <path d="M-4,0h8" fill="none" stroke="white" stroke-width="1.5" pointer-events="none"/>
  </g>
  <g id="arrowUp" transform="translate(30 24)">
    <use xlink:href="#rim"/>
    <path pointer-events="none" fill="none" stroke="white" stroke-width="1.5" d="M0,-3.0v7 M-2.5,-0.5L0,-3.0L2.5,-0.5"/>
  </g>
  <g id="arrowRight" transform="rotate(90) translate(36 -43)">
    <use xlink:href="#rim"/>
    <path pointer-events="none" fill="none" stroke="white" stroke-width="1.5" d="M0,-3.0v7 M-2.5,-0.5L0,-3.0L2.5,-0.5"/>
  </g>
  <g id="arrowDown" transform="rotate(180) translate(-30 -48)">
    <use xlink:href="#rim"/>
    <path pointer-events="none" fill="none" stroke="white" stroke-width="1.5" d="M0,-3.0v7 M-2.5,-0.5L0,-3.0L2.5,-0.5"/>
  </g>
  <g id="arrowLeft" transform="rotate(270) translate(-36 17)">
    <use xlink:href="#rim"/>
    <path pointer-events="none" fill="none" stroke="white" stroke-width="1.5" d="M0,-3.0v7 M-2.5,-0.5L0,-3.0L2.5,-0.5"/>
  </g>
  <g id="resetDef">
    <use xlink:href="#rim2" fill="#404040"><set attributeName="fill" to="#808080" begin="reset.mouseover" end="reset.mouseout"/></use>
  </g>
</defs>
<script type="application/ecmascript">
var viewWidth = 948;
var viewHeight = 346;
var sectionId = 'dynsection-0';
</script>
<script type="application/ecmascript" xlink:href="svg.min.js"/>
<svg id="graph" class="graph">
<g id="viewport">
<title>include/helios/rendering/model/MaterialInstance.ixx</title>
<!-- Node1 -->
<g id="Node000001" class="node">
<title>Node1</title>
<g id="a_Node000001"><a xlink:title=" ">
<polygon fill="#999999" stroke="#666666" points="431.5,-338 278.5,-338 278.5,-308 431.5,-308 431.5,-338"/>
<text text-anchor="start" x="286.5" y="-326" font-family="Helvetica,sans-Serif" font-size="10.00">include/helios/rendering</text>
<text text-anchor="middle" x="355" y="-315" font-family="Helvetica,sans-Serif" font-size="10.00">/model/MaterialInstance.ixx</text>
</a>
</g>
</g>
<!-- Node2 -->
<g id="Node000002" class="node">
<title>Node2</title>
<g id="a_Node000002"><a xlink:title=" ">
<polygon fill="#e0e0e0" stroke="#999999" points="58,-79.5 0,-79.5 0,-60.5 58,-60.5 58,-79.5"/>
<text text-anchor="middle" x="29" y="-67.5" font-family="Helvetica,sans-Serif" font-size="10.00">memory</text>
</a>
</g>
</g>
<!-- Node1&#45;&gt;Node2 -->
<g id="edge1_Node000001_Node000002" class="edge">
<title>Node1&#45;&gt;Node2</title>
<g id="a_edge1_Node000001_Node000002"><a xlink:title=" ">
<path fill="none" stroke="#63b8ff" d="M278.23,-318.44C202.93,-313.29 95.27,-300.96 66,-272 16.07,-222.61 21.23,-129.44 26.14,-89.71"/>
<polygon fill="#63b8ff" stroke="#63b8ff" points="29.61,-90.19 27.5,-79.8 22.67,-89.23 29.61,-90.19"/>
</a>
</g>
</g>
<!-- Node3 -->
<g id="Node000003" class="node">
<title>Node3</title>
<g id="a_Node000003"><a xlink:href="math_2types_2__module_8ixx.html" target="_top" xlink:title=" ">
<polygon fill="white" stroke="#666666" points="890,-79.5 786,-79.5 786,-60.5 890,-60.5 890,-79.5"/>
<text text-anchor="middle" x="838" y="-67.5" font-family="Helvetica,sans-Serif" font-size="10.00">helios.math.types</text>
</a>
</g>
</g>
<!-- Node1&#45;&gt;Node3 -->
<g id="edge2_Node000001_Node000003" class="edge">
<title>Node1&#45;&gt;Node3</title>
<g id="a_edge2_Node000001_Node000003"><a xlink:title=" ">
<path fill="none" stroke="#63b8ff" d="M431.63,-319.66C573.09,-313.55 866.52,-291.94 929,-217 965.65,-173.04 896.44,-113.08 859.31,-85.71"/>
<polygon fill="#63b8ff" stroke="#63b8ff" points="861.24,-82.78 851.08,-79.78 857.15,-88.46 861.24,-82.78"/>
</a>
</g>
</g>
<!-- Node4 -->
<g id="Node000004" class="node">
<title>Node4</title>
<g id="a_Node000004"><a xlink:href="Logger_8ixx.html" target="_top" xlink:title=" ">
<polygon fill="white" stroke="#666666" points="411.5,-79.5 292.5,-79.5 292.5,-60.5 411.5,-60.5 411.5,-79.5"/>
<text text-anchor="middle" x="352" y="-67.5" font-family="Helvetica,sans-Serif" font-size="10.00">helios.util.log.Logger</text>
</a>
</g>
</g>
<!-- Node1&#45;&gt;Node4 -->
<g id="edge4_Node000001_Node000004" class="edge">
<title>Node1&#45;&gt;Node4</title>
<g id="a_edge4_Node000001_Node000004"><a xlink:title=" ">
<path fill="none" stroke="#63b8ff" d="M278.38,-308.2C229.63,-294.6 172.03,-268.07 152,-217 147.13,-204.59 143.92,-197.6 152,-187 188.6,-138.98 231.96,-183.26 283,-151 296.5,-142.47 323.56,-108.53 339.48,-87.7"/>
<polygon fill="#63b8ff" stroke="#63b8ff" points="342.31,-89.77 345.56,-79.68 336.73,-85.54 342.31,-89.77"/>
</a>
</g>
</g>
<!-- Node7 -->
<g id="Node000007" class="node">
<title>Node7</title>
<g id="a_Node000007"><a xlink:href="UniformValueMap_8ixx.html" target="_top" xlink:title=" ">
<polygon fill="white" stroke="#666666" points="634,-151 500,-151 500,-121 634,-121 634,-151"/>
<text text-anchor="start" x="508" y="-139" font-family="Helvetica,sans-Serif" font-size="10.00">helios.rendering.shader.</text>
<text text-anchor="middle" x="567" y="-128" font-family="Helvetica,sans-Serif" font-size="10.00">UniformValueMap</text>
</a>
</g>
</g>
<!-- Node1&#45;&gt;Node7 -->
<g id="edge7_Node000001_Node000007" class="edge">
<title>Node1&#45;&gt;Node7</title>
<g id="a_edge7_Node000001_Node000007"><a xlink:title=" ">
<path fill="none" stroke="#63b8ff" d="M386.04,-307.86C421.71,-290.44 480.39,-258.05 520,-217 535.99,-200.43 548.78,-177.42 556.95,-160.33"/>
<polygon fill="#63b8ff" stroke="#63b8ff" points="560.22,-161.59 561.22,-151.05 553.86,-158.67 560.22,-161.59"/>
</a>
</g>
</g>
<!-- Node13 -->
<g id="Node000013" class="node">
<title>Node13</title>
<g id="a_Node000013"><a xlink:href="Shader_8ixx.html" target="_top" xlink:title=" ">
<polygon fill="white" stroke="#666666" points="480,-217 346,-217 346,-187 480,-187 480,-217"/>
<text text-anchor="start" x="354" y="-205" font-family="Helvetica,sans-Serif" font-size="10.00">helios.rendering.shader.</text>
<text text-anchor="middle" x="413" y="-194" font-family="Helvetica,sans-Serif" font-size="10.00">Shader</text>
</a>
</g>
</g>
<!-- Node1&#45;&gt;Node13 -->
<g id="edge14_Node000001_Node000013" class="edge">
<title>Node1&#45;&gt;Node13</title>
<g id="a_edge14_Node000001_Node000013"><a xlink:title=" ">
<path fill="none" stroke="#63b8ff" d="M368.62,-307.74C377,-298.26 387.38,-285.18 394,-272 401.09,-257.9 405.82,-240.8 408.79,-227.15"/>
<polygon fill="#63b8ff" stroke="#63b8ff" points="412.27,-227.56 410.8,-217.07 405.41,-226.19 412.27,-227.56"/>
</a>
</g>
</g>
<!-- Node14 -->
<g id="Node000014" class="node">
<title>Node14</title>
<g id="a_Node000014"><a xlink:href="LogManager_8ixx.html" target="_top" xlink:title=" ">
<polygon fill="white" stroke="#666666" points="274,-145.5 128,-145.5 128,-126.5 274,-126.5 274,-145.5"/>
<text text-anchor="middle" x="201" y="-133.5" font-family="Helvetica,sans-Serif" font-size="10.00">helios.util.log.LogManager</text>
</a>
</g>
</g>
<!-- Node1&#45;&gt;Node14 -->
<g id="edge25_Node000001_Node000014" class="edge">
<title>Node1&#45;&gt;Node14</title>
<g id="a_edge25_Node000001_Node000014"><a xlink:title=" ">
<path fill="none" stroke="#63b8ff" d="M278.42,-318.69C206.3,-313.77 105.74,-301.66 81,-272 56.8,-242.99 60.04,-218.43 81,-187 93.92,-167.62 115.93,-155.73 137.6,-148.46"/>
<polygon fill="#63b8ff" stroke="#63b8ff" points="138.64,-151.8 147.17,-145.52 136.59,-145.11 138.64,-151.8"/>
</a>
</g>
</g>
<!-- Node17 -->
<g id="Node000017" class="node">
<title>Node17</title>
<g id="a_Node000017"><a xlink:href="MaterialPropertiesOverride_8ixx.html" target="_top" xlink:title=" ">
<polygon fill="white" stroke="#666666" points="738,-217 574,-217 574,-187 738,-187 738,-217"/>
<text text-anchor="start" x="582" y="-205" font-family="Helvetica,sans-Serif" font-size="10.00">helios.rendering.model.config.</text>
<text text-anchor="middle" x="656" y="-194" font-family="Helvetica,sans-Serif" font-size="10.00">MaterialPropertiesOverride</text>
</a>
</g>
</g>
<!-- Node1&#45;&gt;Node17 -->
<g id="edge26_Node000001_Node000017" class="edge">
<title>Node1&#45;&gt;Node17</title>
<g id="a_edge26_Node000001_Node000017"><a xlink:title=" ">
<path fill="none" stroke="#63b8ff" d="M431.82,-310.5C471.33,-302.81 519.56,-290.6 560,-272 587,-259.58 614.18,-239.13 632.69,-223.71"/>
<polygon fill="#63b8ff" stroke="#63b8ff" points="635.2,-226.17 640.55,-217.03 630.66,-220.83 635.2,-226.17"/>
</a>
</g>
</g>
<!-- Node18 -->
<g id="Node000018" class="node">
<title>Node18</title>
<g id="a_Node000018"><a xlink:href="Material_8ixx.html" target="_top" xlink:title=" ">
<polygon fill="white" stroke="#666666" points="384.5,-272 211.5,-272 211.5,-253 384.5,-253 384.5,-272"/>
<text text-anchor="middle" x="298" y="-260" font-family="Helvetica,sans-Serif" font-size="10.00">helios.rendering.model.Material</text>
</a>
</g>
</g>
<!-- Node1&#45;&gt;Node18 -->
<g id="edge31_Node000001_Node000018" class="edge">
<title>Node1&#45;&gt;Node18</title>
<g id="a_edge31_Node000001_Node000018"><a xlink:title=" ">
<path fill="none" stroke="#63b8ff" d="M341.2,-307.84C332.93,-299.35 322.38,-288.52 313.77,-279.69"/>
<polygon fill="#63b8ff" stroke="#63b8ff" points="316.03,-276.99 306.54,-272.27 311.01,-281.87 316.03,-276.99"/>
</a>
</g>
</g>
<!-- Node3&#45;&gt;Node3 -->
<g id="edge3_Node000003_Node000003" class="edge">
<title>Node3&#45;&gt;Node3</title>
<g id="a_edge3_Node000003_Node000003"><a xlink:title=" ">
<path fill="none" stroke="#63b8ff" d="M863.85,-79.53C885.44,-83.61 908,-80.43 908,-70 908,-61.2 891.94,-57.56 873.95,-59.09"/>
<polygon fill="#63b8ff" stroke="#63b8ff" points="873.28,-55.65 863.85,-60.47 874.23,-62.58 873.28,-55.65"/>
</a>
</g>
</g>
<!-- Node5 -->
<g id="Node000005" class="node">
<title>Node5</title>
<g id="a_Node000005"><a xlink:title=" ">
<polygon fill="#e0e0e0" stroke="#999999" points="382,-19 322,-19 322,0 382,0 382,-19"/>
<text text-anchor="middle" x="352" y="-7" font-family="Helvetica,sans-Serif" font-size="10.00">iostream</text>
</a>
</g>
</g>
<!-- Node4&#45;&gt;Node5 -->
<g id="edge5_Node000004_Node000005" class="edge">
<title>Node4&#45;&gt;Node5</title>
<g id="a_edge5_Node000004_Node000005"><a xlink:title=" ">
<path fill="none" stroke="#63b8ff" d="M352,-60.37C352,-52.25 352,-39.81 352,-29.39"/>
<polygon fill="#63b8ff" stroke="#63b8ff" points="355.5,-29.17 352,-19.17 348.5,-29.17 355.5,-29.17"/>
</a>
</g>
</g>
<!-- Node6 -->
<g id="Node000006" class="node">
<title>Node6</title>
<g id="a_Node000006"><a xlink:title=" ">
<polygon fill="#e0e0e0" stroke="#999999" points="206,-19 162,-19 162,0 206,0 206,-19"/>
<text text-anchor="middle" x="184" y="-7" font-family="Helvetica,sans-Serif" font-size="10.00">string</text>
</a>
</g>
</g>
<!-- Node4&#45;&gt;Node6 -->
<g id="edge6_Node000004_Node000006" class="edge">
<title>Node4&#45;&gt;Node6</title>
<g id="a_edge6_Node000004_Node000006"><a xlink:title=" ">
<path fill="none" stroke="#63b8ff" d="M327.57,-60.49C297.96,-50.18 248.01,-32.79 215.53,-21.48"/>
<polygon fill="#63b8ff" stroke="#63b8ff" points="216.64,-18.16 206.05,-18.18 214.34,-24.77 216.64,-18.16"/>
</a>
</g>
</g>
<!-- Node7&#45;&gt;Node3 -->
<g id="edge11_Node000007_Node000003" class="edge">
<title>Node7&#45;&gt;Node3</title>
<g id="a_edge11_Node000007_Node000003"><a xlink:title=" ">
<path fill="none" stroke="#63b8ff" d="M626.47,-120.95C676.3,-109.19 746.41,-92.63 792.03,-81.86"/>
<polygon fill="#63b8ff" stroke="#63b8ff" points="793.01,-85.22 801.93,-79.52 791.4,-78.41 793.01,-85.22"/>
</a>
</g>
</g>
<!-- Node8 -->
<g id="Node000008" class="node">
<title>Node8</title>
<g id="a_Node000008"><a xlink:title=" ">
<polygon fill="#e0e0e0" stroke="#999999" points="616,-79.5 574,-79.5 574,-60.5 616,-60.5 616,-79.5"/>
<text text-anchor="middle" x="595" y="-67.5" font-family="Helvetica,sans-Serif" font-size="10.00">array</text>
</a>
</g>
</g>
<!-- Node7&#45;&gt;Node8 -->
<g id="edge8_Node000007_Node000008" class="edge">
<title>Node7&#45;&gt;Node8</title>
<g id="a_edge8_Node000007_Node000008"><a xlink:title=" ">
<path fill="none" stroke="#63b8ff" d="M573.21,-120.8C577.28,-111.5 582.63,-99.27 587.01,-89.26"/>
<polygon fill="#63b8ff" stroke="#63b8ff" points="590.33,-90.41 591.13,-79.84 583.92,-87.6 590.33,-90.41"/>
</a>
</g>
</g>
<!-- Node9 -->
<g id="Node000009" class="node">
<title>Node9</title>
<g id="a_Node000009"><a xlink:title=" ">
<polygon fill="#e0e0e0" stroke="#999999" points="486,-79.5 430,-79.5 430,-60.5 486,-60.5 486,-79.5"/>
<text text-anchor="middle" x="458" y="-67.5" font-family="Helvetica,sans-Serif" font-size="10.00">optional</text>
</a>
</g>
</g>
<!-- Node7&#45;&gt;Node9 -->
<g id="edge9_Node000007_Node000009" class="edge">
<title>Node7&#45;&gt;Node9</title>
<g id="a_edge9_Node000007_Node000009"><a xlink:title=" ">
<path fill="none" stroke="#63b8ff" d="M543.08,-120.95C524.72,-110.18 499.52,-95.38 481.31,-84.69"/>
<polygon fill="#63b8ff" stroke="#63b8ff" points="482.9,-81.56 472.51,-79.52 479.36,-87.6 482.9,-81.56"/>
</a>
</g>
</g>
<!-- Node10 -->
<g id="Node000010" class="node">
<title>Node10</title>
<g id="a_Node000010"><a xlink:title=" ">
<polygon fill="#e0e0e0" stroke="#999999" points="555.5,-79.5 504.5,-79.5 504.5,-60.5 555.5,-60.5 555.5,-79.5"/>
<text text-anchor="middle" x="530" y="-67.5" font-family="Helvetica,sans-Serif" font-size="10.00">variant</text>
</a>
</g>
</g>
<!-- Node7&#45;&gt;Node10 -->
<g id="edge10_Node000007_Node000010" class="edge">
<title>Node7&#45;&gt;Node10</title>
<g id="a_edge10_Node000007_Node000010"><a xlink:title=" ">
<path fill="none" stroke="#63b8ff" d="M558.79,-120.8C553.3,-111.31 546.05,-98.76 540.19,-88.63"/>
<polygon fill="#63b8ff" stroke="#63b8ff" points="543.15,-86.75 535.11,-79.84 537.09,-90.25 543.15,-86.75"/>
</a>
</g>
</g>
<!-- Node11 -->
<g id="Node000011" class="node">
<title>Node11</title>
<g id="a_Node000011"><a xlink:href="UniformSemantics_8ixx.html" target="_top" xlink:title=" ">
<polygon fill="white" stroke="#666666" points="768,-85 634,-85 634,-55 768,-55 768,-85"/>
<text text-anchor="start" x="642" y="-73" font-family="Helvetica,sans-Serif" font-size="10.00">helios.rendering.shader.</text>
<text text-anchor="middle" x="701" y="-62" font-family="Helvetica,sans-Serif" font-size="10.00">UniformSemantics</text>
</a>
</g>
</g>
<!-- Node7&#45;&gt;Node11 -->
<g id="edge12_Node000007_Node000011" class="edge">
<title>Node7&#45;&gt;Node11</title>
<g id="a_edge12_Node000007_Node000011"><a xlink:title=" ">
<path fill="none" stroke="#63b8ff" d="M596.41,-120.95C615.78,-111.7 641.36,-99.49 662.37,-89.45"/>
<polygon fill="#63b8ff" stroke="#63b8ff" points="664.15,-92.48 671.66,-85.01 661.13,-86.16 664.15,-92.48"/>
</a>
</g>
</g>
<!-- Node12 -->
<g id="Node000012" class="node">
<title>Node12</title>
<g id="a_Node000012"><a xlink:title=" ">
<polygon fill="#e0e0e0" stroke="#999999" points="726.5,-19 675.5,-19 675.5,0 726.5,0 726.5,-19"/>
<text text-anchor="middle" x="701" y="-7" font-family="Helvetica,sans-Serif" font-size="10.00">cwchar</text>
</a>
</g>
</g>
<!-- Node11&#45;&gt;Node12 -->
<g id="edge13_Node000011_Node000012" class="edge">
<title>Node11&#45;&gt;Node12</title>
<g id="a_edge13_Node000011_Node000012"><a xlink:title=" ">
<path fill="none" stroke="#63b8ff" d="M701,-54.84C701,-47.21 701,-37.7 701,-29.45"/>
<polygon fill="#63b8ff" stroke="#63b8ff" points="704.5,-29.27 701,-19.27 697.5,-29.27 704.5,-29.27"/>
</a>
</g>
</g>
<!-- Node13&#45;&gt;Node2 -->
<g id="edge15_Node000013_Node000002" class="edge">
<title>Node13&#45;&gt;Node2</title>
<g id="a_edge15_Node000013_Node000002"><a xlink:title=" ">
<path fill="none" stroke="#63b8ff" d="M345.88,-188.57C342.88,-188.03 339.91,-187.51 337,-187 240.26,-170.1 207.63,-193.28 119,-151 102.27,-143.02 65.53,-107.7 44.53,-86.76"/>
<polygon fill="#63b8ff" stroke="#63b8ff" points="46.86,-84.14 37.33,-79.52 41.9,-89.07 46.86,-84.14"/>
</a>
</g>
</g>
<!-- Node13&#45;&gt;Node4 -->
<g id="edge18_Node000013_Node000004" class="edge">
<title>Node13&#45;&gt;Node4</title>
<g id="a_edge18_Node000013_Node000004"><a xlink:title=" ">
<path fill="none" stroke="#63b8ff" d="M406.36,-186.84C395.18,-163.02 372.64,-114.99 360.39,-88.88"/>
<polygon fill="#63b8ff" stroke="#63b8ff" points="363.52,-87.31 356.1,-79.75 357.18,-90.29 363.52,-87.31"/>
</a>
</g>
</g>
<!-- Node13&#45;&gt;Node7 -->
<g id="edge17_Node000013_Node000007" class="edge">
<title>Node13&#45;&gt;Node7</title>
<g id="a_edge17_Node000013_Node000007"><a xlink:title=" ">
<path fill="none" stroke="#63b8ff" d="M446.8,-186.95C469.46,-177.53 499.52,-165.04 523.9,-154.91"/>
<polygon fill="#63b8ff" stroke="#63b8ff" points="525.39,-158.08 533.28,-151.01 522.71,-151.62 525.39,-158.08"/>
</a>
</g>
</g>
<!-- Node13&#45;&gt;Node9 -->
<g id="edge16_Node000013_Node000009" class="edge">
<title>Node13&#45;&gt;Node9</title>
<g id="a_edge16_Node000013_Node000009"><a xlink:title=" ">
<path fill="none" stroke="#63b8ff" d="M417.9,-186.84C426.11,-163.13 442.63,-115.41 451.69,-89.23"/>
<polygon fill="#63b8ff" stroke="#63b8ff" points="455.01,-90.34 454.97,-79.75 448.39,-88.05 455.01,-90.34"/>
</a>
</g>
</g>
<!-- Node13&#45;&gt;Node14 -->
<g id="edge19_Node000013_Node000014" class="edge">
<title>Node13&#45;&gt;Node14</title>
<g id="a_edge19_Node000013_Node000014"><a xlink:title=" ">
<path fill="none" stroke="#63b8ff" d="M366.48,-186.95C328.31,-175.43 274.95,-159.32 239.24,-148.54"/>
<polygon fill="#63b8ff" stroke="#63b8ff" points="239.8,-145.06 229.21,-145.52 237.78,-151.76 239.8,-145.06"/>
</a>
</g>
</g>
<!-- Node14&#45;&gt;Node2 -->
<g id="edge22_Node000014_Node000002" class="edge">
<title>Node14&#45;&gt;Node2</title>
<g id="a_edge22_Node000014_Node000002"><a xlink:title=" ">
<path fill="none" stroke="#63b8ff" d="M177.8,-126.37C147.84,-115.22 95.52,-95.75 61.58,-83.12"/>
<polygon fill="#63b8ff" stroke="#63b8ff" points="62.7,-79.8 52.1,-79.6 60.25,-86.36 62.7,-79.8"/>
</a>
</g>
</g>
<!-- Node14&#45;&gt;Node4 -->
<g id="edge24_Node000014_Node000004" class="edge">
<title>Node14&#45;&gt;Node4</title>
<g id="a_edge24_Node000014_Node000004"><a xlink:title=" ">
<path fill="none" stroke="#63b8ff" d="M221.36,-126.37C247.26,-115.39 292.17,-96.36 321.99,-83.72"/>
<polygon fill="#63b8ff" stroke="#63b8ff" points="323.63,-86.82 331.48,-79.7 320.9,-80.38 323.63,-86.82"/>
</a>
</g>
</g>
<!-- Node14&#45;&gt;Node6 -->
<g id="edge20_Node000014_Node000006" class="edge">
<title>Node14&#45;&gt;Node6</title>
<g id="a_edge20_Node000014_Node000006"><a xlink:title=" ">
<path fill="none" stroke="#63b8ff" d="M165.27,-126.42C143.75,-119.22 118.06,-106.53 105,-85 98.08,-73.6 98.27,-66.51 105,-55 115.16,-37.62 134.89,-26.5 152.08,-19.72"/>
<polygon fill="#63b8ff" stroke="#63b8ff" points="153.6,-22.89 161.83,-16.22 151.23,-16.31 153.6,-22.89"/>
</a>
</g>
</g>
<!-- Node15 -->
<g id="Node000015" class="node">
<title>Node15</title>
<g id="a_Node000015"><a xlink:title=" ">
<polygon fill="#e0e0e0" stroke="#999999" points="207.5,-79.5 114.5,-79.5 114.5,-60.5 207.5,-60.5 207.5,-79.5"/>
<text text-anchor="middle" x="161" y="-67.5" font-family="Helvetica,sans-Serif" font-size="10.00">unordered_map</text>
</a>
</g>
</g>
<!-- Node14&#45;&gt;Node15 -->
<g id="edge21_Node000014_Node000015" class="edge">
<title>Node14&#45;&gt;Node15</title>
<g id="a_edge21_Node000014_Node000015"><a xlink:title=" ">
<path fill="none" stroke="#63b8ff" d="M195.61,-126.37C189.56,-116.69 179.59,-100.74 171.9,-88.44"/>
<polygon fill="#63b8ff" stroke="#63b8ff" points="174.83,-86.53 166.57,-79.91 168.9,-90.24 174.83,-86.53"/>
</a>
</g>
</g>
<!-- Node16 -->
<g id="Node000016" class="node">
<title>Node16</title>
<g id="a_Node000016"><a xlink:title=" ">
<polygon fill="#e0e0e0" stroke="#999999" points="274,-79.5 226,-79.5 226,-60.5 274,-60.5 274,-79.5"/>
<text text-anchor="middle" x="250" y="-67.5" font-family="Helvetica,sans-Serif" font-size="10.00">mutex</text>
</a>
</g>
</g>
<!-- Node14&#45;&gt;Node16 -->
<g id="edge23_Node000014_Node000016" class="edge">
<title>Node14&#45;&gt;Node16</title>
<g id="a_edge23_Node000014_Node000016"><a xlink:title=" ">
<path fill="none" stroke="#63b8ff" d="M207.61,-126.37C215.09,-116.59 227.47,-100.42 236.93,-88.08"/>
<polygon fill="#63b8ff" stroke="#63b8ff" points="239.88,-89.97 243.18,-79.91 234.32,-85.72 239.88,-89.97"/>
</a>
</g>
</g>
<!-- Node17&#45;&gt;Node3 -->
<g id="edge30_Node000017_Node000003" class="edge">
<title>Node17&#45;&gt;Node3</title>
<g id="a_edge30_Node000017_Node000003"><a xlink:title=" ">
<path fill="none" stroke="#63b8ff" d="M675.82,-186.84C710.5,-162.07 781.83,-111.12 817.19,-85.87"/>
<polygon fill="#63b8ff" stroke="#63b8ff" points="819.65,-88.41 825.75,-79.75 815.58,-82.71 819.65,-88.41"/>
</a>
</g>
</g>
<!-- Node17&#45;&gt;Node7 -->
<g id="edge29_Node000017_Node000007" class="edge">
<title>Node17&#45;&gt;Node7</title>
<g id="a_edge29_Node000017_Node000007"><a xlink:title=" ">
<path fill="none" stroke="#63b8ff" d="M636.25,-186.8C624.15,-178.1 608.47,-166.82 595.09,-157.2"/>
<polygon fill="#63b8ff" stroke="#63b8ff" points="596.86,-154.16 586.7,-151.16 592.77,-159.84 596.86,-154.16"/>
</a>
</g>
</g>
<!-- Node17&#45;&gt;Node9 -->
<g id="edge27_Node000017_Node000009" class="edge">
<title>Node17&#45;&gt;Node9</title>
<g id="a_edge27_Node000017_Node000009"><a xlink:title=" ">
<path fill="none" stroke="#63b8ff" d="M573.68,-190.87C544.7,-183.74 513.72,-171.62 491,-151 473.31,-134.95 464.86,-107.97 461,-89.84"/>
<polygon fill="#63b8ff" stroke="#63b8ff" points="464.42,-89.06 459.15,-79.87 457.54,-90.34 464.42,-89.06"/>
</a>
</g>
</g>
<!-- Node17&#45;&gt;Node11 -->
<g id="edge28_Node000017_Node000011" class="edge">
<title>Node17&#45;&gt;Node11</title>
<g id="a_edge28_Node000017_Node000011"><a xlink:title=" ">
<path fill="none" stroke="#63b8ff" d="M660.9,-186.84C668.54,-164.76 683.39,-121.89 692.71,-94.94"/>
<polygon fill="#63b8ff" stroke="#63b8ff" points="696.14,-95.74 696.1,-85.14 689.53,-93.45 696.14,-95.74"/>
</a>
</g>
</g>
<!-- Node18&#45;&gt;Node2 -->
<g id="edge32_Node000018_Node000002" class="edge">
<title>Node18&#45;&gt;Node2</title>
<g id="a_edge32_Node000018_Node000002"><a xlink:title=" ">
<path fill="none" stroke="#63b8ff" d="M252.54,-252.97C222.66,-246.11 183.42,-234.66 152,-217 113.58,-195.41 106.26,-184.82 78,-151 61.74,-131.54 47.14,-106.16 38.19,-89.26"/>
<polygon fill="#63b8ff" stroke="#63b8ff" points="41.08,-87.24 33.38,-79.96 34.86,-90.45 41.08,-87.24"/>
</a>
</g>
</g>
<!-- Node18&#45;&gt;Node7 -->
<g id="edge42_Node000018_Node000007" class="edge">
<title>Node18&#45;&gt;Node7</title>
<g id="a_edge42_Node000018_Node000007"><a xlink:title=" ">
<path fill="none" stroke="#63b8ff" d="M379.31,-252.96C414.71,-246.69 455.64,-235.82 489,-217 514.27,-202.75 536.63,-177.85 550.86,-159.61"/>
<polygon fill="#63b8ff" stroke="#63b8ff" points="553.93,-161.35 557.17,-151.26 548.35,-157.13 553.93,-161.35"/>
</a>
</g>
</g>
<!-- Node18&#45;&gt;Node13 -->
<g id="edge37_Node000018_Node000013" class="edge">
<title>Node18&#45;&gt;Node13</title>
<g id="a_edge37_Node000018_Node000013"><a xlink:title=" ">
<path fill="none" stroke="#63b8ff" d="M314.97,-252.87C331.01,-244.71 355.6,-232.2 376.15,-221.75"/>
<polygon fill="#63b8ff" stroke="#63b8ff" points="377.93,-224.77 385.25,-217.11 374.75,-218.53 377.93,-224.77"/>
</a>
</g>
</g>
<!-- Node19 -->
<g id="Node000019" class="node">
<title>Node19</title>
<g id="a_Node000019"><a xlink:title=" ">
<polygon fill="#e0e0e0" stroke="#999999" points="226.5,-211.5 161.5,-211.5 161.5,-192.5 226.5,-192.5 226.5,-211.5"/>
<text text-anchor="middle" x="194" y="-199.5" font-family="Helvetica,sans-Serif" font-size="10.00">stdexcept</text>
</a>
</g>
</g>
<!-- Node18&#45;&gt;Node19 -->
<g id="edge33_Node000018_Node000019" class="edge">
<title>Node18&#45;&gt;Node19</title>
<g id="a_edge33_Node000018_Node000019"><a xlink:title=" ">
<path fill="none" stroke="#63b8ff" d="M282.65,-252.87C265.68,-243.32 238.1,-227.81 218.21,-216.62"/>
<polygon fill="#63b8ff" stroke="#63b8ff" points="219.84,-213.52 209.41,-211.67 216.41,-219.62 219.84,-213.52"/>
</a>
</g>
</g>
<!-- Node20 -->
<g id="Node000020" class="node">
<title>Node20</title>
<g id="a_Node000020"><a xlink:href="util_2log_2__module_8ixx.html" target="_top" xlink:title=" ">
<polygon fill="white" stroke="#666666" points="327.5,-211.5 244.5,-211.5 244.5,-192.5 327.5,-192.5 327.5,-211.5"/>
<text text-anchor="middle" x="286" y="-199.5" font-family="Helvetica,sans-Serif" font-size="10.00">helios.util.log</text>
</a>
</g>
</g>
<!-- Node18&#45;&gt;Node20 -->
<g id="edge34_Node000018_Node000020" class="edge">
<title>Node18&#45;&gt;Node20</title>
<g id="a_edge34_Node000018_Node000020"><a xlink:title=" ">
<path fill="none" stroke="#63b8ff" d="M296.23,-252.87C294.55,-244.66 291.96,-232.04 289.81,-221.55"/>
<polygon fill="#63b8ff" stroke="#63b8ff" points="293.22,-220.76 287.78,-211.67 286.36,-222.17 293.22,-220.76"/>
</a>
</g>
</g>
<!-- Node21 -->
<g id="Node000021" class="node">
<title>Node21</title>
<g id="a_Node000021"><a xlink:href="MaterialProperties_8ixx.html" target="_top" xlink:title=" ">
<polygon fill="white" stroke="#666666" points="920,-217 756,-217 756,-187 920,-187 920,-217"/>
<text text-anchor="start" x="764" y="-205" font-family="Helvetica,sans-Serif" font-size="10.00">helios.rendering.model.config.</text>
<text text-anchor="middle" x="838" y="-194" font-family="Helvetica,sans-Serif" font-size="10.00">MaterialProperties</text>
</a>
</g>
</g>
<!-- Node18&#45;&gt;Node21 -->
<g id="edge38_Node000018_Node000021" class="edge">
<title>Node18&#45;&gt;Node21</title>
<g id="a_edge38_Node000018_Node000021"><a xlink:title=" ">
<path fill="none" stroke="#63b8ff" d="M384.65,-254.31C472.89,-246.66 613.91,-233.57 745.43,-217.16"/>
<polygon fill="#63b8ff" stroke="#63b8ff" points="746.2,-220.59 755.69,-215.87 745.33,-213.64 746.2,-220.59"/>
</a>
</g>
</g>
<!-- Node20&#45;&gt;Node4 -->
<g id="edge36_Node000020_Node000004" class="edge">
<title>Node20&#45;&gt;Node4</title>
<g id="a_edge36_Node000020_Node000004"><a xlink:title=" ">
<path fill="none" stroke="#63b8ff" d="M291.63,-192.33C297.91,-182.5 308.22,-165.89 316,-151 326.88,-130.18 337.72,-105.42 344.61,-89.01"/>
<polygon fill="#63b8ff" stroke="#63b8ff" points="347.93,-90.14 348.54,-79.56 341.47,-87.46 347.93,-90.14"/>
</a>
</g>
</g>
<!-- Node20&#45;&gt;Node14 -->
<g id="edge35_Node000020_Node000014" class="edge">
<title>Node20&#45;&gt;Node14</title>
<g id="a_edge35_Node000020_Node000014"><a xlink:title=" ">
<path fill="none" stroke="#63b8ff" d="M274.54,-192.37C260.72,-181.97 237.29,-164.32 220.59,-151.75"/>
<polygon fill="#63b8ff" stroke="#63b8ff" points="222.65,-148.92 212.55,-145.7 218.44,-154.51 222.65,-148.92"/>
</a>
</g>
</g>
<!-- Node21&#45;&gt;Node3 -->
<g id="edge41_Node000021_Node000003" class="edge">
<title>Node21&#45;&gt;Node3</title>
<g id="a_edge41_Node000021_Node000003"><a xlink:title=" ">
<path fill="none" stroke="#63b8ff" d="M838,-186.84C838,-163.34 838,-116.26 838,-89.93"/>
<polygon fill="#63b8ff" stroke="#63b8ff" points="841.5,-89.75 838,-79.75 834.5,-89.75 841.5,-89.75"/>
</a>
</g>
</g>
<!-- Node21&#45;&gt;Node7 -->
<g id="edge40_Node000021_Node000007" class="edge">
<title>Node21&#45;&gt;Node7</title>
<g id="a_edge40_Node000021_Node000007"><a xlink:title=" ">
<path fill="none" stroke="#63b8ff" d="M778.53,-186.95C736.52,-177.03 680.1,-163.71 636.09,-153.32"/>
<polygon fill="#63b8ff" stroke="#63b8ff" points="636.87,-149.9 626.33,-151.01 635.26,-156.72 636.87,-149.9"/>
</a>
</g>
</g>
<!-- Node21&#45;&gt;Node11 -->
<g id="edge39_Node000021_Node000011" class="edge">
<title>Node21&#45;&gt;Node11</title>
<g id="a_edge39_Node000021_Node000011"><a xlink:title=" ">
<path fill="none" stroke="#63b8ff" d="M823.08,-186.84C798.99,-163.98 751.4,-118.82 723.28,-92.14"/>
<polygon fill="#63b8ff" stroke="#63b8ff" points="725.57,-89.49 715.9,-85.14 720.75,-94.56 725.57,-89.49"/>
</a>
</g>
</g>
</g>
</svg>

<g id="navigator" transform="translate(0 0)" fill="#404254">
  <rect fill="#f2f5e9" fill-opacity="0.5" stroke="#606060" stroke-width=".5" x="0" y="0" width="60" height="60"/>
  <use id="zoomplus" xlink:href="#zoomPlus" x="17" y="9" onmousedown="handleZoom(evt,'in')"/>
  <use id="zoomminus" xlink:href="#zoomMin" x="42" y="9" onmousedown="handleZoom(evt,'out')"/>
  <use id="reset" xlink:href="#resetDef" x="30" y="36" onmousedown="handleReset()"/>
   <use id="arrowup" xlink:href="#arrowUp" x="0" y="0" onmousedown="handlePan(0,-1)"/>
  <use id="arrowright" xlink:href="#arrowRight" x="0" y="0" onmousedown="handlePan(1,0)"/>
  <use id="arrowdown" xlink:href="#arrowDown" x="0" y="0" onmousedown="handlePan(0,1)"/>
  <use id="arrowleft" xlink:href="#arrowLeft" x="0" y="0" onmousedown="handlePan(-1,0)"/>
</g>
<svg viewBox="0 0 15 15" width="100%" height="30px" preserveAspectRatio="xMaxYMin meet">
 <g id="arrow_out" transform="scale(0.3 0.3)">
  <a xlink:href="MaterialInstance_8ixx__incl_org.svg" target="_base">
   <rect id="button" ry="5" rx="5" y="6" x="6" height="38" width="38"
        fill="#f2f5e9" fill-opacity="0.5" stroke="#606060" stroke-width="1.0"/>
   <path id="arrow"
     d="M 11.500037,31.436501 C 11.940474,20.09759 22.043105,11.32322 32.158766,21.979434 L 37.068811,17.246167 C 37.068811,17.246167 37.088388,32 37.088388,32 L 22.160133,31.978069 C 22.160133,31.978069 26.997745,27.140456 26.997745,27.140456 C 18.528582,18.264221 13.291696,25.230495 11.500037,31.436501 z"
     style="fill:#404040;"/>
  </a>
 </g>
</svg>

<style type='text/css'>
<![CDATA[
[data-mouse-over-selected='false'] { opacity: 0.7; }
[data-mouse-over-selected='true']  { opacity: 1.0; }
]]>
</style>
<script type="application/ecmascript"><![CDATA[
document.addEventListener('DOMContentLoaded', (event) => {
  highlightEdges();
  highlightAdjacentNodes();
});
]]></script>
</svg>
