<?xml version="1.0" encoding="UTF-8" standalone="no"?>
<!DOCTYPE svg PUBLIC "-//W3C//DTD SVG 1.1//EN"
 "http://www.w3.org/Graphics/SVG/1.1/DTD/svg11.dtd">
<!-- Generated by graphviz version 2.43.0 (0)
 -->
<!-- Title: include/helios/rendering/model/Material.ixx Pages: 1 -->
<svg width="1213pt" height="357pt"
 viewBox="0.00 0.00 1213.00 357.00" xmlns="http://www.w3.org/2000/svg" xmlns:xlink="http://www.w3.org/1999/xlink">
<g id="graph0" class="graph" transform="scale(1 1) rotate(0) translate(4 353)">
<title>include/helios/rendering/model/Material.ixx</title>
<!-- Node1 -->
<g id="Node000001" class="node">
<title>Node1</title>
<g id="a_Node000001"><a xlink:title="Material abstraction: shader + material properties.">
<polygon fill="#999999" stroke="#666666" points="707,-349 573,-349 573,-319 707,-319 707,-349"/>
<text text-anchor="start" x="581" y="-337" font-family="Helvetica,sans-Serif" font-size="10.00">include/helios/rendering</text>
<text text-anchor="middle" x="640" y="-326" font-family="Helvetica,sans-Serif" font-size="10.00">/model/Material.ixx</text>
</a>
</g>
</g>
<!-- Node2 -->
<g id="Node000002" class="node">
<title>Node2</title>
<g id="a_Node000002"><a xlink:title=" ">
<polygon fill="#e0e0e0" stroke="#999999" points="403,-79.5 345,-79.5 345,-60.5 403,-60.5 403,-79.5"/>
<text text-anchor="middle" x="374" y="-67.5" font-family="Helvetica,sans-Serif" font-size="10.00">memory</text>
</a>
</g>
</g>
<!-- Node1&#45;&gt;Node2 -->
<g id="edge1_Node000001_Node000002" class="edge">
<title>Node1&#45;&gt;Node2</title>
<g id="a_edge1_Node000001_Node000002"><a xlink:title=" ">
<path fill="none" stroke="#63b8ff" d="M572.86,-332.79C481.77,-331 325.91,-322.11 287,-283 235.91,-231.64 230.32,-182.25 269,-121 283.43,-98.14 311.48,-85.52 334.96,-78.68"/>
<polygon fill="#63b8ff" stroke="#63b8ff" points="335.93,-82.04 344.69,-76.08 334.13,-75.28 335.93,-82.04"/>
</a>
</g>
</g>
<!-- Node3 -->
<g id="Node000003" class="node">
<title>Node3</title>
<g id="a_Node000003"><a xlink:title=" ">
<polygon fill="#e0e0e0" stroke="#999999" points="978.5,-277.5 913.5,-277.5 913.5,-258.5 978.5,-258.5 978.5,-277.5"/>
<text text-anchor="middle" x="946" y="-265.5" font-family="Helvetica,sans-Serif" font-size="10.00">stdexcept</text>
</a>
</g>
</g>
<!-- Node1&#45;&gt;Node3 -->
<g id="edge2_Node000001_Node000003" class="edge">
<title>Node1&#45;&gt;Node3</title>
<g id="a_edge2_Node000001_Node000003"><a xlink:title=" ">
<path fill="none" stroke="#63b8ff" d="M707.01,-322.87C760.7,-314.14 837.75,-300.23 904,-283 906.79,-282.27 909.66,-281.46 912.54,-280.6"/>
<polygon fill="#63b8ff" stroke="#63b8ff" points="913.7,-283.91 922.18,-277.56 911.59,-277.23 913.7,-283.91"/>
</a>
</g>
</g>
<!-- Node4 -->
<g id="Node000004" class="node">
<title>Node4</title>
<g id="a_Node000004"><a xlink:href="helios_2util_2log_2__module_8ixx.html" target="_top" xlink:title="Module exports for logging.">
<polygon fill="white" stroke="#666666" points="379.5,-277.5 296.5,-277.5 296.5,-258.5 379.5,-258.5 379.5,-277.5"/>
<text text-anchor="middle" x="338" y="-265.5" font-family="Helvetica,sans-Serif" font-size="10.00">helios.util.log</text>
</a>
</g>
</g>
<!-- Node1&#45;&gt;Node4 -->
<g id="edge3_Node000001_Node000004" class="edge">
<title>Node1&#45;&gt;Node4</title>
<g id="a_edge3_Node000001_Node000004"><a xlink:title=" ">
<path fill="none" stroke="#63b8ff" d="M573.72,-318.95C517.85,-307.11 439.08,-290.42 388.28,-279.65"/>
<polygon fill="#63b8ff" stroke="#63b8ff" points="388.7,-276.17 378.19,-277.52 387.25,-283.01 388.7,-276.17"/>
</a>
</g>
</g>
<!-- Node14 -->
<g id="Node000014" class="node">
<title>Node14</title>
<g id="a_Node000014"><a xlink:href="MaterialProperties_8ixx.html" target="_top" xlink:title="Default material properties used by materials and instances.">
<polygon fill="white" stroke="#666666" points="895,-283 731,-283 731,-253 895,-253 895,-283"/>
<text text-anchor="start" x="739" y="-271" font-family="Helvetica,sans-Serif" font-size="10.00">helios.rendering.model.config.</text>
<text text-anchor="middle" x="813" y="-260" font-family="Helvetica,sans-Serif" font-size="10.00">MaterialProperties</text>
</a>
</g>
</g>
<!-- Node1&#45;&gt;Node14 -->
<g id="edge24_Node000001_Node000014" class="edge">
<title>Node1&#45;&gt;Node14</title>
<g id="a_edge24_Node000001_Node000014"><a xlink:title=" ">
<path fill="none" stroke="#63b8ff" d="M677.97,-318.95C703.77,-309.41 738.09,-296.71 765.67,-286.51"/>
<polygon fill="#63b8ff" stroke="#63b8ff" points="766.96,-289.76 775.12,-283.01 764.53,-283.2 766.96,-289.76"/>
</a>
</g>
</g>
<!-- Node16 -->
<g id="Node000016" class="node">
<title>Node16</title>
<g id="a_Node000016"><a xlink:href="UniformValueMap_8ixx.html" target="_top" xlink:title="Mapping of uniform names to values used by shader programs.">
<polygon fill="white" stroke="#666666" points="994,-151 860,-151 860,-121 994,-121 994,-151"/>
<text text-anchor="start" x="868" y="-139" font-family="Helvetica,sans-Serif" font-size="10.00">helios.rendering.shader.</text>
<text text-anchor="middle" x="927" y="-128" font-family="Helvetica,sans-Serif" font-size="10.00">UniformValueMap</text>
</a>
</g>
</g>
<!-- Node1&#45;&gt;Node16 -->
<g id="edge43_Node000001_Node000016" class="edge">
<title>Node1&#45;&gt;Node16</title>
<g id="a_edge43_Node000001_Node000016"><a xlink:title=" ">
<path fill="none" stroke="#63b8ff" d="M652.81,-318.75C668.29,-301.96 695.55,-273.74 722,-253 774.5,-211.83 843.36,-176.02 886.39,-155.46"/>
<polygon fill="#63b8ff" stroke="#63b8ff" points="888.15,-158.5 895.69,-151.06 885.15,-152.17 888.15,-158.5"/>
</a>
</g>
</g>
<!-- Node22 -->
<g id="Node000022" class="node">
<title>Node22</title>
<g id="a_Node000022"><a xlink:href="Shader_8ixx.html" target="_top" xlink:title="Abstraction for a compiled shader program.">
<polygon fill="white" stroke="#666666" points="621,-283 487,-283 487,-253 621,-253 621,-283"/>
<text text-anchor="start" x="495" y="-271" font-family="Helvetica,sans-Serif" font-size="10.00">helios.rendering.shader.</text>
<text text-anchor="middle" x="554" y="-260" font-family="Helvetica,sans-Serif" font-size="10.00">Shader</text>
</a>
</g>
</g>
<!-- Node1&#45;&gt;Node22 -->
<g id="edge39_Node000001_Node000022" class="edge">
<title>Node1&#45;&gt;Node22</title>
<g id="a_edge39_Node000001_Node000022"><a xlink:title=" ">
<path fill="none" stroke="#63b8ff" d="M620.91,-318.8C609.22,-310.1 594.07,-298.82 581.15,-289.2"/>
<polygon fill="#63b8ff" stroke="#63b8ff" points="583.14,-286.33 573.03,-283.16 578.97,-291.94 583.14,-286.33"/>
</a>
</g>
</g>
<!-- Node5 -->
<g id="Node000005" class="node">
<title>Node5</title>
<g id="a_Node000005"><a xlink:href="LogManager_8ixx.html" target="_top" xlink:title="Central manager for scoped loggers with configurable sinks.">
<polygon fill="white" stroke="#666666" points="589,-211.5 443,-211.5 443,-192.5 589,-192.5 589,-211.5"/>
<text text-anchor="middle" x="516" y="-199.5" font-family="Helvetica,sans-Serif" font-size="10.00">helios.util.log.LogManager</text>
</a>
</g>
</g>
<!-- Node4&#45;&gt;Node5 -->
<g id="edge4_Node000004_Node000005" class="edge">
<title>Node4&#45;&gt;Node5</title>
<g id="a_edge4_Node000004_Node000005"><a xlink:title=" ">
<path fill="none" stroke="#63b8ff" d="M362.01,-258.37C393.01,-247.22 447.16,-227.75 482.29,-215.12"/>
<polygon fill="#63b8ff" stroke="#63b8ff" points="483.86,-218.27 492.09,-211.6 481.5,-211.69 483.86,-218.27"/>
</a>
</g>
</g>
<!-- Node11 -->
<g id="Node000011" class="node">
<title>Node11</title>
<g id="a_Node000011"><a xlink:href="Logger_8ixx.html" target="_top" xlink:title="Simple synchronous logger with configurable output sinks.">
<polygon fill="white" stroke="#666666" points="397.5,-145.5 278.5,-145.5 278.5,-126.5 397.5,-126.5 397.5,-145.5"/>
<text text-anchor="middle" x="338" y="-133.5" font-family="Helvetica,sans-Serif" font-size="10.00">helios.util.log.Logger</text>
</a>
</g>
</g>
<!-- Node4&#45;&gt;Node11 -->
<g id="edge19_Node000004_Node000011" class="edge">
<title>Node4&#45;&gt;Node11</title>
<g id="a_edge19_Node000004_Node000011"><a xlink:title=" ">
<path fill="none" stroke="#63b8ff" d="M338,-258.47C338,-237.82 338,-184.72 338,-156.04"/>
<polygon fill="#63b8ff" stroke="#63b8ff" points="341.5,-155.73 338,-145.73 334.5,-155.73 341.5,-155.73"/>
</a>
</g>
</g>
<!-- Node12 -->
<g id="Node000012" class="node">
<title>Node12</title>
<g id="a_Node000012"><a xlink:href="LogSink_8ixx.html" target="_top" xlink:title="Abstract interface for log output destinations.">
<polygon fill="white" stroke="#666666" points="289,-79.5 165,-79.5 165,-60.5 289,-60.5 289,-79.5"/>
<text text-anchor="middle" x="227" y="-67.5" font-family="Helvetica,sans-Serif" font-size="10.00">helios.util.log.LogSink</text>
</a>
</g>
</g>
<!-- Node4&#45;&gt;Node12 -->
<g id="edge23_Node000004_Node000012" class="edge">
<title>Node4&#45;&gt;Node12</title>
<g id="a_edge23_Node000004_Node000012"><a xlink:title=" ">
<path fill="none" stroke="#63b8ff" d="M327.93,-258.24C308.01,-240.3 263.64,-197.16 242,-151 232.84,-131.46 229.27,-106.75 227.88,-90.01"/>
<polygon fill="#63b8ff" stroke="#63b8ff" points="231.36,-89.6 227.23,-79.84 224.38,-90.05 231.36,-89.6"/>
</a>
</g>
</g>
<!-- Node13 -->
<g id="Node000013" class="node">
<title>Node13</title>
<g id="a_Node000013"><a xlink:href="ConsoleSink_8ixx.html" target="_top" xlink:title="Log sink that writes to stdout.">
<polygon fill="white" stroke="#666666" points="146,-145.5 0,-145.5 0,-126.5 146,-126.5 146,-145.5"/>
<text text-anchor="middle" x="73" y="-133.5" font-family="Helvetica,sans-Serif" font-size="10.00">helios.util.log.ConsoleSink</text>
</a>
</g>
</g>
<!-- Node4&#45;&gt;Node13 -->
<g id="edge20_Node000004_Node000013" class="edge">
<title>Node4&#45;&gt;Node13</title>
<g id="a_edge20_Node000004_Node000013"><a xlink:title=" ">
<path fill="none" stroke="#63b8ff" d="M320.31,-258.33C299.97,-248.36 265.57,-231.5 236,-217 188.04,-193.47 132.14,-166.04 99.84,-150.18"/>
<polygon fill="#63b8ff" stroke="#63b8ff" points="101.13,-146.91 90.61,-145.64 98.04,-153.19 101.13,-146.91"/>
</a>
</g>
</g>
<!-- Node5&#45;&gt;Node2 -->
<g id="edge8_Node000005_Node000002" class="edge">
<title>Node5&#45;&gt;Node2</title>
<g id="a_edge8_Node000005_Node000002"><a xlink:title=" ">
<path fill="none" stroke="#63b8ff" d="M501.95,-192.48C487.1,-183.17 463.32,-167.37 445,-151 422.6,-130.98 400.15,-104.31 386.67,-87.39"/>
<polygon fill="#63b8ff" stroke="#63b8ff" points="389.41,-85.22 380.48,-79.52 383.91,-89.55 389.41,-85.22"/>
</a>
</g>
</g>
<!-- Node6 -->
<g id="Node000006" class="node">
<title>Node6</title>
<g id="a_Node000006"><a xlink:title=" ">
<polygon fill="#e0e0e0" stroke="#999999" points="294,-19 250,-19 250,0 294,0 294,-19"/>
<text text-anchor="middle" x="272" y="-7" font-family="Helvetica,sans-Serif" font-size="10.00">string</text>
</a>
</g>
</g>
<!-- Node5&#45;&gt;Node6 -->
<g id="edge5_Node000005_Node000006" class="edge">
<title>Node5&#45;&gt;Node6</title>
<g id="a_edge5_Node000005_Node000006"><a xlink:title=" ">
<path fill="none" stroke="#63b8ff" d="M574.99,-192.42C621.62,-184.3 681.23,-170.43 696,-151 724.34,-113.71 657.04,-59.22 650,-55 591.95,-20.23 384.85,-12.61 304.34,-10.96"/>
<polygon fill="#63b8ff" stroke="#63b8ff" points="304.35,-7.46 294.29,-10.77 304.22,-14.45 304.35,-7.46"/>
</a>
</g>
</g>
<!-- Node7 -->
<g id="Node000007" class="node">
<title>Node7</title>
<g id="a_Node000007"><a xlink:title=" ">
<polygon fill="#e0e0e0" stroke="#999999" points="547.5,-145.5 454.5,-145.5 454.5,-126.5 547.5,-126.5 547.5,-145.5"/>
<text text-anchor="middle" x="501" y="-133.5" font-family="Helvetica,sans-Serif" font-size="10.00">unordered_map</text>
</a>
</g>
</g>
<!-- Node5&#45;&gt;Node7 -->
<g id="edge6_Node000005_Node000007" class="edge">
<title>Node5&#45;&gt;Node7</title>
<g id="a_edge6_Node000005_Node000007"><a xlink:title=" ">
<path fill="none" stroke="#63b8ff" d="M513.98,-192.37C511.8,-183.07 508.26,-167.98 505.43,-155.9"/>
<polygon fill="#63b8ff" stroke="#63b8ff" points="508.78,-154.84 503.09,-145.91 501.96,-156.44 508.78,-154.84"/>
</a>
</g>
</g>
<!-- Node8 -->
<g id="Node000008" class="node">
<title>Node8</title>
<g id="a_Node000008"><a xlink:title=" ">
<polygon fill="#e0e0e0" stroke="#999999" points="652,-145.5 566,-145.5 566,-126.5 652,-126.5 652,-145.5"/>
<text text-anchor="middle" x="609" y="-133.5" font-family="Helvetica,sans-Serif" font-size="10.00">unordered_set</text>
</a>
</g>
</g>
<!-- Node5&#45;&gt;Node8 -->
<g id="edge7_Node000005_Node000008" class="edge">
<title>Node5&#45;&gt;Node8</title>
<g id="a_edge7_Node000005_Node000008"><a xlink:title=" ">
<path fill="none" stroke="#63b8ff" d="M528.54,-192.37C543.8,-181.87 569.77,-164 588.07,-151.4"/>
<polygon fill="#63b8ff" stroke="#63b8ff" points="590.11,-154.25 596.36,-145.7 586.14,-148.48 590.11,-154.25"/>
</a>
</g>
</g>
<!-- Node9 -->
<g id="Node000009" class="node">
<title>Node9</title>
<g id="a_Node000009"><a xlink:title=" ">
<polygon fill="#e0e0e0" stroke="#999999" points="519,-79.5 471,-79.5 471,-60.5 519,-60.5 519,-79.5"/>
<text text-anchor="middle" x="495" y="-67.5" font-family="Helvetica,sans-Serif" font-size="10.00">mutex</text>
</a>
</g>
</g>
<!-- Node5&#45;&gt;Node9 -->
<g id="edge9_Node000005_Node000009" class="edge">
<title>Node5&#45;&gt;Node9</title>
<g id="a_edge9_Node000005_Node000009"><a xlink:title=" ">
<path fill="none" stroke="#63b8ff" d="M567.72,-192.49C620.05,-181.57 689.47,-159.31 661,-121 645.21,-99.75 572.75,-84.1 528.95,-76.38"/>
<polygon fill="#63b8ff" stroke="#63b8ff" points="529.46,-72.92 519.01,-74.68 528.28,-79.82 529.46,-72.92"/>
</a>
</g>
</g>
<!-- Node10 -->
<g id="Node000010" class="node">
<title>Node10</title>
<g id="a_Node000010"><a xlink:title=" ">
<polygon fill="#e0e0e0" stroke="#999999" points="641.5,-79.5 594.5,-79.5 594.5,-60.5 641.5,-60.5 641.5,-79.5"/>
<text text-anchor="middle" x="618" y="-67.5" font-family="Helvetica,sans-Serif" font-size="10.00">vector</text>
</a>
</g>
</g>
<!-- Node5&#45;&gt;Node10 -->
<g id="edge10_Node000005_Node000010" class="edge">
<title>Node5&#45;&gt;Node10</title>
<g id="a_edge10_Node000005_Node000010"><a xlink:title=" ">
<path fill="none" stroke="#63b8ff" d="M565.31,-192.49C608.12,-183.98 665.32,-169.51 679,-151 696.22,-127.71 665.54,-101.03 641.79,-85.12"/>
<polygon fill="#63b8ff" stroke="#63b8ff" points="643.45,-82.03 633.14,-79.58 639.67,-87.92 643.45,-82.03"/>
</a>
</g>
</g>
<!-- Node5&#45;&gt;Node11 -->
<g id="edge11_Node000005_Node000011" class="edge">
<title>Node5&#45;&gt;Node11</title>
<g id="a_edge11_Node000005_Node000011"><a xlink:title=" ">
<path fill="none" stroke="#63b8ff" d="M491.99,-192.37C460.99,-181.22 406.84,-161.75 371.71,-149.12"/>
<polygon fill="#63b8ff" stroke="#63b8ff" points="372.5,-145.69 361.91,-145.6 370.14,-152.27 372.5,-145.69"/>
</a>
</g>
</g>
<!-- Node5&#45;&gt;Node12 -->
<g id="edge18_Node000005_Node000012" class="edge">
<title>Node5&#45;&gt;Node12</title>
<g id="a_edge18_Node000005_Node000012"><a xlink:title=" ">
<path fill="none" stroke="#63b8ff" d="M442.75,-193.18C380.13,-185.25 295.99,-171.25 269,-151 248.74,-135.81 237.33,-107.97 231.67,-89.47"/>
<polygon fill="#63b8ff" stroke="#63b8ff" points="234.97,-88.28 228.91,-79.59 228.23,-90.16 234.97,-88.28"/>
</a>
</g>
</g>
<!-- Node11&#45;&gt;Node2 -->
<g id="edge14_Node000011_Node000002" class="edge">
<title>Node11&#45;&gt;Node2</title>
<g id="a_edge14_Node000011_Node000002"><a xlink:title=" ">
<path fill="none" stroke="#63b8ff" d="M342.86,-126.37C348.25,-116.78 357.1,-101.05 363.99,-88.8"/>
<polygon fill="#63b8ff" stroke="#63b8ff" points="367.14,-90.34 368.99,-79.91 361.04,-86.91 367.14,-90.34"/>
</a>
</g>
</g>
<!-- Node11&#45;&gt;Node6 -->
<g id="edge12_Node000011_Node000006" class="edge">
<title>Node11&#45;&gt;Node6</title>
<g id="a_edge12_Node000011_Node000006"><a xlink:title=" ">
<path fill="none" stroke="#63b8ff" d="M333.97,-126.5C326.96,-111.78 311.9,-80.67 298,-55 293.1,-45.95 287.36,-36.05 282.52,-27.89"/>
<polygon fill="#63b8ff" stroke="#63b8ff" points="285.49,-26.05 277.35,-19.27 279.49,-29.65 285.49,-26.05"/>
</a>
</g>
</g>
<!-- Node11&#45;&gt;Node9 -->
<g id="edge15_Node000011_Node000009" class="edge">
<title>Node11&#45;&gt;Node9</title>
<g id="a_edge15_Node000011_Node000009"><a xlink:title=" ">
<path fill="none" stroke="#63b8ff" d="M359.17,-126.37C386.29,-115.32 433.46,-96.08 464.46,-83.45"/>
<polygon fill="#63b8ff" stroke="#63b8ff" points="465.97,-86.61 473.91,-79.6 463.33,-80.13 465.97,-86.61"/>
</a>
</g>
</g>
<!-- Node11&#45;&gt;Node10 -->
<g id="edge13_Node000011_Node000010" class="edge">
<title>Node11&#45;&gt;Node10</title>
<g id="a_edge13_Node000011_Node000010"><a xlink:title=" ">
<path fill="none" stroke="#63b8ff" d="M375.47,-126.44C430.38,-113.89 531.85,-90.69 584.44,-78.67"/>
<polygon fill="#63b8ff" stroke="#63b8ff" points="585.31,-82.06 594.28,-76.42 583.75,-75.24 585.31,-82.06"/>
</a>
</g>
</g>
<!-- Node11&#45;&gt;Node12 -->
<g id="edge16_Node000011_Node000012" class="edge">
<title>Node11&#45;&gt;Node12</title>
<g id="a_edge16_Node000011_Node000012"><a xlink:title=" ">
<path fill="none" stroke="#63b8ff" d="M323.03,-126.37C304.49,-115.68 272.69,-97.35 250.8,-84.72"/>
<polygon fill="#63b8ff" stroke="#63b8ff" points="252.5,-81.66 242.09,-79.7 249,-87.73 252.5,-81.66"/>
</a>
</g>
</g>
<!-- Node12&#45;&gt;Node6 -->
<g id="edge17_Node000012_Node000006" class="edge">
<title>Node12&#45;&gt;Node6</title>
<g id="a_edge17_Node000012_Node000006"><a xlink:title=" ">
<path fill="none" stroke="#63b8ff" d="M233.64,-60.37C240.29,-51.73 250.69,-38.2 258.99,-27.42"/>
<polygon fill="#63b8ff" stroke="#63b8ff" points="262.01,-29.23 265.33,-19.17 256.46,-24.96 262.01,-29.23"/>
</a>
</g>
</g>
<!-- Node13&#45;&gt;Node6 -->
<g id="edge21_Node000013_Node000006" class="edge">
<title>Node13&#45;&gt;Node6</title>
<g id="a_edge21_Node000013_Node000006"><a xlink:title=" ">
<path fill="none" stroke="#63b8ff" d="M79.89,-126.37C93.1,-110.31 123.58,-75.63 156,-55 182.27,-38.28 215.81,-26.27 240.06,-18.97"/>
<polygon fill="#63b8ff" stroke="#63b8ff" points="241.2,-22.28 249.83,-16.13 239.25,-15.56 241.2,-22.28"/>
</a>
</g>
</g>
<!-- Node13&#45;&gt;Node12 -->
<g id="edge22_Node000013_Node000012" class="edge">
<title>Node13&#45;&gt;Node12</title>
<g id="a_edge22_Node000013_Node000012"><a xlink:title=" ">
<path fill="none" stroke="#63b8ff" d="M93.77,-126.37C120.29,-115.35 166.38,-96.19 196.79,-83.55"/>
<polygon fill="#63b8ff" stroke="#63b8ff" points="198.18,-86.77 206.07,-79.7 195.49,-80.3 198.18,-86.77"/>
</a>
</g>
</g>
<!-- Node15 -->
<g id="Node000015" class="node">
<title>Node15</title>
<g id="a_Node000015"><a xlink:href="UniformSemantics_8ixx.html" target="_top" xlink:title="Definitions of uniform semantics used by shaders.">
<polygon fill="white" stroke="#666666" points="861,-85 727,-85 727,-55 861,-55 861,-85"/>
<text text-anchor="start" x="735" y="-73" font-family="Helvetica,sans-Serif" font-size="10.00">helios.rendering.shader.</text>
<text text-anchor="middle" x="794" y="-62" font-family="Helvetica,sans-Serif" font-size="10.00">UniformSemantics</text>
</a>
</g>
</g>
<!-- Node14&#45;&gt;Node15 -->
<g id="edge25_Node000014_Node000015" class="edge">
<title>Node14&#45;&gt;Node15</title>
<g id="a_edge25_Node000014_Node000015"><a xlink:title=" ">
<path fill="none" stroke="#63b8ff" d="M811.63,-252.9C808.42,-219.79 800.37,-136.7 796.35,-95.27"/>
<polygon fill="#63b8ff" stroke="#63b8ff" points="799.83,-94.85 795.38,-85.23 792.86,-95.52 799.83,-94.85"/>
</a>
</g>
</g>
<!-- Node14&#45;&gt;Node16 -->
<g id="edge26_Node000014_Node000016" class="edge">
<title>Node14&#45;&gt;Node16</title>
<g id="a_edge26_Node000014_Node000016"><a xlink:title=" ">
<path fill="none" stroke="#63b8ff" d="M817.08,-252.96C822.58,-235.87 833.74,-206.83 851,-187 861.53,-174.9 875.67,-164.53 888.89,-156.42"/>
<polygon fill="#63b8ff" stroke="#63b8ff" points="890.99,-159.25 897.85,-151.18 887.45,-153.21 890.99,-159.25"/>
</a>
</g>
</g>
<!-- Node20 -->
<g id="Node000020" class="node">
<title>Node20</title>
<g id="a_Node000020"><a xlink:href="helios_2math_2types_2__module_8ixx.html" target="_top" xlink:title="Module exports for vector and matrix type definitions.">
<polygon fill="white" stroke="#666666" points="1187,-79.5 1083,-79.5 1083,-60.5 1187,-60.5 1187,-79.5"/>
<text text-anchor="middle" x="1135" y="-67.5" font-family="Helvetica,sans-Serif" font-size="10.00">helios.math.types</text>
</a>
</g>
</g>
<!-- Node14&#45;&gt;Node20 -->
<g id="edge33_Node000014_Node000020" class="edge">
<title>Node14&#45;&gt;Node20</title>
<g id="a_edge33_Node000014_Node000020"><a xlink:title=" ">
<path fill="none" stroke="#63b8ff" d="M895.27,-254.64C947.95,-245.53 1010.5,-232.14 1033,-217 1081.42,-184.42 1113.89,-120.52 1127.61,-89.19"/>
<polygon fill="#63b8ff" stroke="#63b8ff" points="1131,-90.15 1131.67,-79.57 1124.55,-87.42 1131,-90.15"/>
</a>
</g>
</g>
<!-- Node21 -->
<g id="Node000021" class="node">
<title>Node21</title>
<g id="a_Node000021"><a xlink:href="MaterialPropertiesOverride_8ixx.html" target="_top" xlink:title="Overrides for material properties to customize rendering parameters.">
<polygon fill="white" stroke="#666666" points="1024,-217 860,-217 860,-187 1024,-187 1024,-217"/>
<text text-anchor="start" x="868" y="-205" font-family="Helvetica,sans-Serif" font-size="10.00">helios.rendering.model.config.</text>
<text text-anchor="middle" x="942" y="-194" font-family="Helvetica,sans-Serif" font-size="10.00">MaterialPropertiesOverride</text>
</a>
</g>
</g>
<!-- Node14&#45;&gt;Node21 -->
<g id="edge34_Node000014_Node000021" class="edge">
<title>Node14&#45;&gt;Node21</title>
<g id="a_edge34_Node000014_Node000021"><a xlink:title=" ">
<path fill="none" stroke="#63b8ff" d="M841.31,-252.95C859.88,-243.74 884.36,-231.6 904.54,-221.59"/>
<polygon fill="#63b8ff" stroke="#63b8ff" points="906.35,-224.59 913.76,-217.01 903.24,-218.32 906.35,-224.59"/>
</a>
</g>
</g>
<!-- Node16&#45;&gt;Node15 -->
<g id="edge32_Node000016_Node000015" class="edge">
<title>Node16&#45;&gt;Node15</title>
<g id="a_edge32_Node000016_Node000015"><a xlink:title=" ">
<path fill="none" stroke="#63b8ff" d="M897.81,-120.95C878.58,-111.7 853.2,-99.49 832.34,-89.45"/>
<polygon fill="#63b8ff" stroke="#63b8ff" points="833.65,-86.19 823.12,-85.01 830.61,-92.5 833.65,-86.19"/>
</a>
</g>
</g>
<!-- Node17 -->
<g id="Node000017" class="node">
<title>Node17</title>
<g id="a_Node000017"><a xlink:title=" ">
<polygon fill="#e0e0e0" stroke="#999999" points="921,-79.5 879,-79.5 879,-60.5 921,-60.5 921,-79.5"/>
<text text-anchor="middle" x="900" y="-67.5" font-family="Helvetica,sans-Serif" font-size="10.00">array</text>
</a>
</g>
</g>
<!-- Node16&#45;&gt;Node17 -->
<g id="edge27_Node000016_Node000017" class="edge">
<title>Node16&#45;&gt;Node17</title>
<g id="a_edge27_Node000016_Node000017"><a xlink:title=" ">
<path fill="none" stroke="#63b8ff" d="M921.01,-120.8C917.09,-111.5 911.93,-99.27 907.7,-89.26"/>
<polygon fill="#63b8ff" stroke="#63b8ff" points="910.84,-87.7 903.73,-79.84 904.39,-90.42 910.84,-87.7"/>
</a>
</g>
</g>
<!-- Node18 -->
<g id="Node000018" class="node">
<title>Node18</title>
<g id="a_Node000018"><a xlink:title=" ">
<polygon fill="#e0e0e0" stroke="#999999" points="1065,-79.5 1009,-79.5 1009,-60.5 1065,-60.5 1065,-79.5"/>
<text text-anchor="middle" x="1037" y="-67.5" font-family="Helvetica,sans-Serif" font-size="10.00">optional</text>
</a>
</g>
</g>
<!-- Node16&#45;&gt;Node18 -->
<g id="edge28_Node000016_Node000018" class="edge">
<title>Node16&#45;&gt;Node18</title>
<g id="a_edge28_Node000016_Node000018"><a xlink:title=" ">
<path fill="none" stroke="#63b8ff" d="M951.14,-120.95C969.67,-110.18 995.1,-95.38 1013.47,-84.69"/>
<polygon fill="#63b8ff" stroke="#63b8ff" points="1015.48,-87.57 1022.36,-79.52 1011.96,-81.52 1015.48,-87.57"/>
</a>
</g>
</g>
<!-- Node19 -->
<g id="Node000019" class="node">
<title>Node19</title>
<g id="a_Node000019"><a xlink:title=" ">
<polygon fill="#e0e0e0" stroke="#999999" points="990.5,-79.5 939.5,-79.5 939.5,-60.5 990.5,-60.5 990.5,-79.5"/>
<text text-anchor="middle" x="965" y="-67.5" font-family="Helvetica,sans-Serif" font-size="10.00">variant</text>
</a>
</g>
</g>
<!-- Node16&#45;&gt;Node19 -->
<g id="edge29_Node000016_Node000019" class="edge">
<title>Node16&#45;&gt;Node19</title>
<g id="a_edge29_Node000016_Node000019"><a xlink:title=" ">
<path fill="none" stroke="#63b8ff" d="M935.43,-120.8C941.07,-111.31 948.52,-98.76 954.53,-88.63"/>
<polygon fill="#63b8ff" stroke="#63b8ff" points="957.65,-90.23 959.75,-79.84 951.63,-86.66 957.65,-90.23"/>
</a>
</g>
</g>
<!-- Node16&#45;&gt;Node20 -->
<g id="edge30_Node000016_Node000020" class="edge">
<title>Node16&#45;&gt;Node20</title>
<g id="a_edge30_Node000016_Node000020"><a xlink:title=" ">
<path fill="none" stroke="#63b8ff" d="M972.65,-120.95C1010.09,-109.43 1062.45,-93.32 1097.48,-82.54"/>
<polygon fill="#63b8ff" stroke="#63b8ff" points="1098.79,-85.8 1107.32,-79.52 1096.73,-79.11 1098.79,-85.8"/>
</a>
</g>
</g>
<!-- Node20&#45;&gt;Node20 -->
<g id="edge31_Node000020_Node000020" class="edge">
<title>Node20&#45;&gt;Node20</title>
<g id="a_edge31_Node000020_Node000020"><a xlink:title=" ">
<path fill="none" stroke="#63b8ff" d="M1160.85,-79.53C1182.44,-83.61 1205,-80.43 1205,-70 1205,-61.2 1188.94,-57.56 1170.95,-59.09"/>
<polygon fill="#63b8ff" stroke="#63b8ff" points="1170.28,-55.65 1160.85,-60.47 1171.23,-62.58 1170.28,-55.65"/>
</a>
</g>
</g>
<!-- Node21&#45;&gt;Node15 -->
<g id="edge36_Node000021_Node000015" class="edge">
<title>Node21&#45;&gt;Node15</title>
<g id="a_edge36_Node000021_Node000015"><a xlink:title=" ">
<path fill="none" stroke="#63b8ff" d="M908.13,-186.89C889.93,-178.25 867.83,-165.98 851,-151 832.62,-134.65 816.85,-111.31 806.59,-94.07"/>
<polygon fill="#63b8ff" stroke="#63b8ff" points="809.5,-92.11 801.47,-85.19 803.44,-95.6 809.5,-92.11"/>
</a>
</g>
</g>
<!-- Node21&#45;&gt;Node16 -->
<g id="edge37_Node000021_Node000016" class="edge">
<title>Node21&#45;&gt;Node16</title>
<g id="a_edge37_Node000021_Node000016"><a xlink:title=" ">
<path fill="none" stroke="#63b8ff" d="M938.67,-186.8C936.9,-179.26 934.68,-169.78 932.66,-161.13"/>
<polygon fill="#63b8ff" stroke="#63b8ff" points="936.01,-160.1 930.32,-151.16 929.19,-161.7 936.01,-160.1"/>
</a>
</g>
</g>
<!-- Node21&#45;&gt;Node18 -->
<g id="edge35_Node000021_Node000018" class="edge">
<title>Node21&#45;&gt;Node18</title>
<g id="a_edge35_Node000021_Node000018"><a xlink:title=" ">
<path fill="none" stroke="#63b8ff" d="M964.03,-186.94C976.76,-177.92 992.33,-165.25 1003,-151 1017.1,-132.18 1026.64,-106.62 1031.94,-89.51"/>
<polygon fill="#63b8ff" stroke="#63b8ff" points="1035.38,-90.21 1034.81,-79.63 1028.66,-88.26 1035.38,-90.21"/>
</a>
</g>
</g>
<!-- Node21&#45;&gt;Node20 -->
<g id="edge38_Node000021_Node000020" class="edge">
<title>Node21&#45;&gt;Node20</title>
<g id="a_edge38_Node000021_Node000020"><a xlink:title=" ">
<path fill="none" stroke="#63b8ff" d="M966.68,-186.89C983.37,-177.16 1005.79,-163.74 1025,-151 1057.69,-129.32 1094.27,-102.09 1115.93,-85.65"/>
<polygon fill="#63b8ff" stroke="#63b8ff" points="1118.16,-88.35 1123.98,-79.5 1113.91,-82.78 1118.16,-88.35"/>
</a>
</g>
</g>
<!-- Node22&#45;&gt;Node5 -->
<g id="edge42_Node000022_Node000005" class="edge">
<title>Node22&#45;&gt;Node5</title>
<g id="a_edge42_Node000022_Node000005"><a xlink:title=" ">
<path fill="none" stroke="#63b8ff" d="M545.57,-252.8C539.93,-243.31 532.48,-230.76 526.47,-220.63"/>
<polygon fill="#63b8ff" stroke="#63b8ff" points="529.37,-218.66 521.25,-211.84 523.35,-222.23 529.37,-218.66"/>
</a>
</g>
</g>
<!-- Node22&#45;&gt;Node11 -->
<g id="edge41_Node000022_Node000011" class="edge">
<title>Node22&#45;&gt;Node11</title>
<g id="a_edge41_Node000022_Node000011"><a xlink:title=" ">
<path fill="none" stroke="#63b8ff" d="M511.69,-252.92C488,-244.18 458.42,-231.8 434,-217 403.27,-198.38 372.12,-170.36 353.95,-152.91"/>
<polygon fill="#63b8ff" stroke="#63b8ff" points="356.17,-150.18 346.57,-145.7 351.28,-155.19 356.17,-150.18"/>
</a>
</g>
</g>
<!-- Node22&#45;&gt;Node16 -->
<g id="edge40_Node000022_Node000016" class="edge">
<title>Node22&#45;&gt;Node16</title>
<g id="a_edge40_Node000022_Node000016"><a xlink:title=" ">
<path fill="none" stroke="#63b8ff" d="M570.65,-252.75C592.77,-234.61 633.73,-203.63 674,-187 730.45,-163.69 798.57,-151.03 849.9,-144.28"/>
<polygon fill="#63b8ff" stroke="#63b8ff" points="850.46,-147.74 859.94,-143.01 849.58,-140.79 850.46,-147.74"/>
</a>
</g>
</g>
</g>
</svg>
