<?xml version="1.0" encoding="UTF-8" standalone="no"?>
<!DOCTYPE svg PUBLIC "-//W3C//DTD SVG 1.1//EN"
 "http://www.w3.org/Graphics/SVG/1.1/DTD/svg11.dtd">
<!-- Generated by graphviz version 2.43.0 (0)
 -->
<!-- Title: include/helios/rendering/model/config/MaterialPropertiesOverride.ixx Pages: 1 -->
<svg width="486pt" height="236pt"
 viewBox="0.00 0.00 486.00 236.00" xmlns="http://www.w3.org/2000/svg" xmlns:xlink="http://www.w3.org/1999/xlink">
<g id="graph0" class="graph" transform="scale(1 1) rotate(0) translate(4 232)">
<title>include/helios/rendering/model/config/MaterialPropertiesOverride.ixx</title>
<!-- Node1 -->
<g id="Node000001" class="node">
<title>Node1</title>
<g id="a_Node000001"><a xlink:title=" ">
<polygon fill="#999999" stroke="#666666" points="280,-228 104,-228 104,-187 280,-187 280,-228"/>
<text text-anchor="start" x="112" y="-216" font-family="Helvetica,sans-Serif" font-size="10.00">include/helios/rendering</text>
<text text-anchor="start" x="112" y="-205" font-family="Helvetica,sans-Serif" font-size="10.00">/model/config/MaterialProperties</text>
<text text-anchor="middle" x="192" y="-194" font-family="Helvetica,sans-Serif" font-size="10.00">Override.ixx</text>
</a>
</g>
</g>
<!-- Node2 -->
<g id="Node000002" class="node">
<title>Node2</title>
<g id="a_Node000002"><a xlink:title=" ">
<polygon fill="#e0e0e0" stroke="#999999" points="56,-79.5 0,-79.5 0,-60.5 56,-60.5 56,-79.5"/>
<text text-anchor="middle" x="28" y="-67.5" font-family="Helvetica,sans-Serif" font-size="10.00">optional</text>
</a>
</g>
</g>
<!-- Node1&#45;&gt;Node2 -->
<g id="edge1_Node000001_Node000002" class="edge">
<title>Node1&#45;&gt;Node2</title>
<g id="a_edge1_Node000001_Node000002"><a xlink:title=" ">
<path fill="none" stroke="#63b8ff" d="M168.15,-186.8C135.16,-159.54 76.3,-110.91 46.45,-86.24"/>
<polygon fill="#63b8ff" stroke="#63b8ff" points="48.45,-83.36 38.51,-79.69 43.99,-88.75 48.45,-83.36"/>
</a>
</g>
</g>
<!-- Node3 -->
<g id="Node000003" class="node">
<title>Node3</title>
<g id="a_Node000003"><a xlink:href="UniformSemantics_8ixx.html" target="_top" xlink:title=" ">
<polygon fill="white" stroke="#666666" points="208,-85 74,-85 74,-55 208,-55 208,-85"/>
<text text-anchor="start" x="82" y="-73" font-family="Helvetica,sans-Serif" font-size="10.00">helios.rendering.shader.</text>
<text text-anchor="middle" x="141" y="-62" font-family="Helvetica,sans-Serif" font-size="10.00">UniformSemantics</text>
</a>
</g>
</g>
<!-- Node1&#45;&gt;Node3 -->
<g id="edge2_Node000001_Node000003" class="edge">
<title>Node1&#45;&gt;Node3</title>
<g id="a_edge2_Node000001_Node000003"><a xlink:title=" ">
<path fill="none" stroke="#63b8ff" d="M184.58,-186.8C175.41,-162.43 159.82,-120.99 149.98,-94.85"/>
<polygon fill="#63b8ff" stroke="#63b8ff" points="153.19,-93.45 146.39,-85.33 146.64,-95.92 153.19,-93.45"/>
</a>
</g>
</g>
<!-- Node5 -->
<g id="Node000005" class="node">
<title>Node5</title>
<g id="a_Node000005"><a xlink:href="UniformValueMap_8ixx.html" target="_top" xlink:title=" ">
<polygon fill="white" stroke="#666666" points="315,-151 181,-151 181,-121 315,-121 315,-151"/>
<text text-anchor="start" x="189" y="-139" font-family="Helvetica,sans-Serif" font-size="10.00">helios.rendering.shader.</text>
<text text-anchor="middle" x="248" y="-128" font-family="Helvetica,sans-Serif" font-size="10.00">UniformValueMap</text>
</a>
</g>
</g>
<!-- Node1&#45;&gt;Node5 -->
<g id="edge4_Node000001_Node000005" class="edge">
<title>Node1&#45;&gt;Node5</title>
<g id="a_edge4_Node000001_Node000005"><a xlink:title=" ">
<path fill="none" stroke="#63b8ff" d="M207.9,-186.77C214.86,-178.13 223.05,-167.96 230.21,-159.08"/>
<polygon fill="#63b8ff" stroke="#63b8ff" points="233.14,-161.02 236.69,-151.04 227.69,-156.63 233.14,-161.02"/>
</a>
</g>
</g>
<!-- Node8 -->
<g id="Node000008" class="node">
<title>Node8</title>
<g id="a_Node000008"><a xlink:href="math_2types_2__module_8ixx.html" target="_top" xlink:title=" ">
<polygon fill="white" stroke="#666666" points="460,-79.5 356,-79.5 356,-60.5 460,-60.5 460,-79.5"/>
<text text-anchor="middle" x="408" y="-67.5" font-family="Helvetica,sans-Serif" font-size="10.00">helios.math.types</text>
</a>
</g>
</g>
<!-- Node1&#45;&gt;Node8 -->
<g id="edge11_Node000001_Node000008" class="edge">
<title>Node1&#45;&gt;Node8</title>
<g id="a_edge11_Node000001_Node000008"><a xlink:title=" ">
<path fill="none" stroke="#63b8ff" d="M251.15,-186.91C274.78,-177.77 301.64,-165.63 324,-151 351.8,-132.8 378.66,-104.83 394.24,-87.24"/>
<polygon fill="#63b8ff" stroke="#63b8ff" points="397.03,-89.37 400.94,-79.53 391.74,-84.78 397.03,-89.37"/>
</a>
</g>
</g>
<!-- Node4 -->
<g id="Node000004" class="node">
<title>Node4</title>
<g id="a_Node000004"><a xlink:title=" ">
<polygon fill="#e0e0e0" stroke="#999999" points="166.5,-19 115.5,-19 115.5,0 166.5,0 166.5,-19"/>
<text text-anchor="middle" x="141" y="-7" font-family="Helvetica,sans-Serif" font-size="10.00">cwchar</text>
</a>
</g>
</g>
<!-- Node3&#45;&gt;Node4 -->
<g id="edge3_Node000003_Node000004" class="edge">
<title>Node3&#45;&gt;Node4</title>
<g id="a_edge3_Node000003_Node000004"><a xlink:title=" ">
<path fill="none" stroke="#63b8ff" d="M141,-54.84C141,-47.21 141,-37.7 141,-29.45"/>
<polygon fill="#63b8ff" stroke="#63b8ff" points="144.5,-29.27 141,-19.27 137.5,-29.27 144.5,-29.27"/>
</a>
</g>
</g>
<!-- Node5&#45;&gt;Node2 -->
<g id="edge6_Node000005_Node000002" class="edge">
<title>Node5&#45;&gt;Node2</title>
<g id="a_edge6_Node000005_Node000002"><a xlink:title=" ">
<path fill="none" stroke="#63b8ff" d="M191.12,-120.95C154.79,-111.6 106.82,-98.59 65,-85 63.14,-84.4 61.23,-83.75 59.32,-83.08"/>
<polygon fill="#63b8ff" stroke="#63b8ff" points="60.38,-79.75 49.79,-79.64 58,-86.33 60.38,-79.75"/>
</a>
</g>
</g>
<!-- Node5&#45;&gt;Node3 -->
<g id="edge10_Node000005_Node000003" class="edge">
<title>Node5&#45;&gt;Node3</title>
<g id="a_edge10_Node000005_Node000003"><a xlink:title=" ">
<path fill="none" stroke="#63b8ff" d="M224.52,-120.95C209.47,-111.95 189.73,-100.14 173.22,-90.27"/>
<polygon fill="#63b8ff" stroke="#63b8ff" points="174.81,-87.14 164.43,-85.01 171.21,-93.15 174.81,-87.14"/>
</a>
</g>
</g>
<!-- Node6 -->
<g id="Node000006" class="node">
<title>Node6</title>
<g id="a_Node000006"><a xlink:title=" ">
<polygon fill="#e0e0e0" stroke="#999999" points="338,-79.5 296,-79.5 296,-60.5 338,-60.5 338,-79.5"/>
<text text-anchor="middle" x="317" y="-67.5" font-family="Helvetica,sans-Serif" font-size="10.00">array</text>
</a>
</g>
</g>
<!-- Node5&#45;&gt;Node6 -->
<g id="edge5_Node000005_Node000006" class="edge">
<title>Node5&#45;&gt;Node6</title>
<g id="a_edge5_Node000005_Node000006"><a xlink:title=" ">
<path fill="none" stroke="#63b8ff" d="M263.31,-120.8C274.18,-110.72 288.76,-97.19 299.99,-86.78"/>
<polygon fill="#63b8ff" stroke="#63b8ff" points="302.51,-89.21 307.46,-79.84 297.75,-84.08 302.51,-89.21"/>
</a>
</g>
</g>
<!-- Node7 -->
<g id="Node000007" class="node">
<title>Node7</title>
<g id="a_Node000007"><a xlink:title=" ">
<polygon fill="#e0e0e0" stroke="#999999" points="277.5,-79.5 226.5,-79.5 226.5,-60.5 277.5,-60.5 277.5,-79.5"/>
<text text-anchor="middle" x="252" y="-67.5" font-family="Helvetica,sans-Serif" font-size="10.00">variant</text>
</a>
</g>
</g>
<!-- Node5&#45;&gt;Node7 -->
<g id="edge7_Node000005_Node000007" class="edge">
<title>Node5&#45;&gt;Node7</title>
<g id="a_edge7_Node000005_Node000007"><a xlink:title=" ">
<path fill="none" stroke="#63b8ff" d="M248.89,-120.8C249.46,-111.7 250.2,-99.79 250.82,-89.9"/>
<polygon fill="#63b8ff" stroke="#63b8ff" points="254.32,-90.04 251.45,-79.84 247.33,-89.61 254.32,-90.04"/>
</a>
</g>
</g>
<!-- Node5&#45;&gt;Node8 -->
<g id="edge8_Node000005_Node000008" class="edge">
<title>Node5&#45;&gt;Node8</title>
<g id="a_edge8_Node000005_Node000008"><a xlink:title=" ">
<path fill="none" stroke="#63b8ff" d="M283.11,-120.95C311.3,-109.68 350.47,-94.01 377.39,-83.25"/>
<polygon fill="#63b8ff" stroke="#63b8ff" points="378.72,-86.48 386.71,-79.52 376.12,-79.98 378.72,-86.48"/>
</a>
</g>
</g>
<!-- Node8&#45;&gt;Node8 -->
<g id="edge9_Node000008_Node000008" class="edge">
<title>Node8&#45;&gt;Node8</title>
<g id="a_edge9_Node000008_Node000008"><a xlink:title=" ">
<path fill="none" stroke="#63b8ff" d="M433.85,-79.53C455.44,-83.61 478,-80.43 478,-70 478,-61.2 461.94,-57.56 443.95,-59.09"/>
<polygon fill="#63b8ff" stroke="#63b8ff" points="443.28,-55.65 433.85,-60.47 444.23,-62.58 443.28,-55.65"/>
</a>
</g>
</g>
</g>
</svg>
