<?xml version="1.0" encoding="UTF-8" standalone="no"?>
<!DOCTYPE svg PUBLIC "-//W3C//DTD SVG 1.1//EN"
 "http://www.w3.org/Graphics/SVG/1.1/DTD/svg11.dtd">
<!-- Generated by graphviz version 2.43.0 (0)
 -->
<!-- Title: include/helios/rendering/model/Mesh.ixx Pages: 1 -->
<!--zoomable 280 -->

<svg id="main" version="1.1" xmlns="http://www.w3.org/2000/svg" xmlns:xlink="http://www.w3.org/1999/xlink" xml:space="preserve" onload="init(evt)">

<style type="text/css"><![CDATA[
.node, .edge {opacity: 0.7;}
.node.selected, .edge.selected {opacity: 1;}
.edge:hover path { stroke: red; }
.edge:hover polygon { stroke: red; fill: red; }
]]></style>

<defs>
  <circle id="rim" cx="0" cy="0" r="7"/>
  <circle id="rim2" cx="0" cy="0" r="3.5"/>
  <g id="zoomPlus">
    <use xlink:href="#rim" fill="#404040"><set attributeName="fill" to="#808080" begin="zoomplus.mouseover" end="zoomplus.mouseout"/></use>
    <path d="M-4,0h8M0,-4v8" fill="none" stroke="white" stroke-width="1.5" pointer-events="none"/>
  </g>
  <g id="zoomMin">
    <use xlink:href="#rim" fill="#404040"><set attributeName="fill" to="#808080" begin="zoomminus.mouseover" end="zoomminus.mouseout"/></use>
    <path d="M-4,0h8" fill="none" stroke="white" stroke-width="1.5" pointer-events="none"/>
  </g>
  <g id="arrowUp" transform="translate(30 24)">
    <use xlink:href="#rim"/>
    <path pointer-events="none" fill="none" stroke="white" stroke-width="1.5" d="M0,-3.0v7 M-2.5,-0.5L0,-3.0L2.5,-0.5"/>
  </g>
  <g id="arrowRight" transform="rotate(90) translate(36 -43)">
    <use xlink:href="#rim"/>
    <path pointer-events="none" fill="none" stroke="white" stroke-width="1.5" d="M0,-3.0v7 M-2.5,-0.5L0,-3.0L2.5,-0.5"/>
  </g>
  <g id="arrowDown" transform="rotate(180) translate(-30 -48)">
    <use xlink:href="#rim"/>
    <path pointer-events="none" fill="none" stroke="white" stroke-width="1.5" d="M0,-3.0v7 M-2.5,-0.5L0,-3.0L2.5,-0.5"/>
  </g>
  <g id="arrowLeft" transform="rotate(270) translate(-36 17)">
    <use xlink:href="#rim"/>
    <path pointer-events="none" fill="none" stroke="white" stroke-width="1.5" d="M0,-3.0v7 M-2.5,-0.5L0,-3.0L2.5,-0.5"/>
  </g>
  <g id="resetDef">
    <use xlink:href="#rim2" fill="#404040"><set attributeName="fill" to="#808080" begin="reset.mouseover" end="reset.mouseout"/></use>
  </g>
</defs>
<script type="application/ecmascript">
var viewWidth = 1084;
var viewHeight = 280;
var sectionId = 'dynsection-0';
</script>
<script type="application/ecmascript" xlink:href="svg.min.js"/>
<svg id="graph" class="graph">
<g id="viewport">
<title>include/helios/rendering/model/Mesh.ixx</title>
<!-- Node1 -->
<g id="Node000001" class="node">
<title>Node1</title>
<g id="a_Node000001"><a xlink:title="Mesh abstraction: immutable vertex/index data and configuration.">
<polygon fill="#999999" stroke="#666666" points="721.5,-272 587.5,-272 587.5,-242 721.5,-242 721.5,-272"/>
<text text-anchor="start" x="595.5" y="-260" font-family="Helvetica,sans-Serif" font-size="10.00">include/helios/rendering</text>
<text text-anchor="middle" x="654.5" y="-249" font-family="Helvetica,sans-Serif" font-size="10.00">/model/Mesh.ixx</text>
</a>
</g>
</g>
<!-- Node2 -->
<g id="Node000002" class="node">
<title>Node2</title>
<g id="a_Node000002"><a xlink:title=" ">
<polygon fill="#e0e0e0" stroke="#999999" points="185.5,-74 127.5,-74 127.5,-55 185.5,-55 185.5,-74"/>
<text text-anchor="middle" x="156.5" y="-62" font-family="Helvetica,sans-Serif" font-size="10.00">memory</text>
</a>
</g>
</g>
<!-- Node1&#45;&gt;Node2 -->
<g id="edge1_Node000001_Node000002" class="edge">
<title>Node1&#45;&gt;Node2</title>
<g id="a_edge1_Node000001_Node000002"><a xlink:title=" ">
<path fill="none" stroke="#63b8ff" d="M587.3,-255.05C436.55,-251.26 79.41,-232.51 13.5,-140 -15.51,-99.28 65.55,-79.12 117.23,-70.65"/>
<polygon fill="#63b8ff" stroke="#63b8ff" points="117.78,-74.1 127.13,-69.11 116.71,-67.19 117.78,-74.1"/>
</a>
</g>
</g>
<!-- Node3 -->
<g id="Node000003" class="node">
<title>Node3</title>
<g id="a_Node000003"><a xlink:title=" ">
<polygon fill="#e0e0e0" stroke="#999999" points="1076,-200.5 1011,-200.5 1011,-181.5 1076,-181.5 1076,-200.5"/>
<text text-anchor="middle" x="1043.5" y="-188.5" font-family="Helvetica,sans-Serif" font-size="10.00">stdexcept</text>
</a>
</g>
</g>
<!-- Node1&#45;&gt;Node3 -->
<g id="edge2_Node000001_Node000003" class="edge">
<title>Node1&#45;&gt;Node3</title>
<g id="a_edge2_Node000001_Node000003"><a xlink:title=" ">
<path fill="none" stroke="#63b8ff" d="M721.54,-249.1C790.87,-241.28 902.01,-226.86 996.5,-206 1000.12,-205.2 1003.87,-204.27 1007.6,-203.27"/>
<polygon fill="#63b8ff" stroke="#63b8ff" points="1008.65,-206.61 1017.32,-200.52 1006.75,-199.87 1008.65,-206.61"/>
</a>
</g>
</g>
<!-- Node4 -->
<g id="Node000004" class="node">
<title>Node4</title>
<g id="a_Node000004"><a xlink:title=" ">
<polygon fill="#e0e0e0" stroke="#999999" points="581,-74 534,-74 534,-55 581,-55 581,-74"/>
<text text-anchor="middle" x="557.5" y="-62" font-family="Helvetica,sans-Serif" font-size="10.00">vector</text>
</a>
</g>
</g>
<!-- Node1&#45;&gt;Node4 -->
<g id="edge3_Node000001_Node000004" class="edge">
<title>Node1&#45;&gt;Node4</title>
<g id="a_edge3_Node000001_Node000004"><a xlink:title=" ">
<path fill="none" stroke="#63b8ff" d="M610.74,-241.9C593.7,-234.1 575.82,-222.54 565.5,-206 541.86,-168.12 547.89,-112.73 553.28,-84.13"/>
<polygon fill="#63b8ff" stroke="#63b8ff" points="556.72,-84.76 555.32,-74.26 549.87,-83.34 556.72,-84.76"/>
</a>
</g>
</g>
<!-- Node5 -->
<g id="Node000005" class="node">
<title>Node5</title>
<g id="a_Node000005"><a xlink:href="helios_2math_2types_2__module_8ixx.html" target="_top" xlink:title="Module exports for vector and matrix type definitions.">
<polygon fill="white" stroke="#666666" points="987.5,-74 883.5,-74 883.5,-55 987.5,-55 987.5,-74"/>
<text text-anchor="middle" x="935.5" y="-62" font-family="Helvetica,sans-Serif" font-size="10.00">helios.math.types</text>
</a>
</g>
</g>
<!-- Node1&#45;&gt;Node5 -->
<g id="edge4_Node000001_Node000005" class="edge">
<title>Node1&#45;&gt;Node5</title>
<g id="a_edge4_Node000001_Node000005"><a xlink:title=" ">
<path fill="none" stroke="#63b8ff" d="M721.51,-252.16C795.76,-246.59 909.3,-233.72 941.5,-206 974.67,-177.44 975.63,-152.06 963.5,-110 960.63,-100.06 954.81,-90.2 949.22,-82.29"/>
<polygon fill="#63b8ff" stroke="#63b8ff" points="952,-80.16 943.17,-74.3 946.42,-84.39 952,-80.16"/>
</a>
</g>
</g>
<!-- Node6 -->
<g id="Node000006" class="node">
<title>Node6</title>
<g id="a_Node000006"><a xlink:href="Logger_8ixx.html" target="_top" xlink:title="Simple synchronous logger with configurable output sinks.">
<polygon fill="white" stroke="#666666" points="510,-134.5 391,-134.5 391,-115.5 510,-115.5 510,-134.5"/>
<text text-anchor="middle" x="450.5" y="-122.5" font-family="Helvetica,sans-Serif" font-size="10.00">helios.util.log.Logger</text>
</a>
</g>
</g>
<!-- Node1&#45;&gt;Node6 -->
<g id="edge6_Node000001_Node000006" class="edge">
<title>Node1&#45;&gt;Node6</title>
<g id="a_edge6_Node000001_Node000006"><a xlink:title=" ">
<path fill="none" stroke="#63b8ff" d="M608.69,-241.95C584.88,-233.5 555.94,-221.39 532.5,-206 505.07,-187.99 478.93,-159.96 463.82,-142.31"/>
<polygon fill="#63b8ff" stroke="#63b8ff" points="466.43,-139.98 457.32,-134.57 461.07,-144.48 466.43,-139.98"/>
</a>
</g>
</g>
<!-- Node10 -->
<g id="Node000010" class="node">
<title>Node10</title>
<g id="a_Node000010"><a xlink:href="LogManager_8ixx.html" target="_top" xlink:title="Central manager for scoped loggers with configurable sinks.">
<polygon fill="white" stroke="#666666" points="359.5,-200.5 213.5,-200.5 213.5,-181.5 359.5,-181.5 359.5,-200.5"/>
<text text-anchor="middle" x="286.5" y="-188.5" font-family="Helvetica,sans-Serif" font-size="10.00">helios.util.log.LogManager</text>
</a>
</g>
</g>
<!-- Node1&#45;&gt;Node10 -->
<g id="edge13_Node000001_Node000010" class="edge">
<title>Node1&#45;&gt;Node10</title>
<g id="a_edge13_Node000001_Node000010"><a xlink:title=" ">
<path fill="none" stroke="#63b8ff" d="M587.43,-244.34C518.36,-232.32 411.75,-213.78 345.71,-202.3"/>
<polygon fill="#63b8ff" stroke="#63b8ff" points="345.92,-198.78 335.47,-200.52 344.72,-205.68 345.92,-198.78"/>
</a>
</g>
</g>
<!-- Node13 -->
<g id="Node000013" class="node">
<title>Node13</title>
<g id="a_Node000013"><a xlink:href="Shape_8ixx.html" target="_top" xlink:title="Interface for simple geometric shapes used for testing and debugging.">
<polygon fill="white" stroke="#666666" points="734.5,-206 574.5,-206 574.5,-176 734.5,-176 734.5,-206"/>
<text text-anchor="start" x="582.5" y="-194" font-family="Helvetica,sans-Serif" font-size="10.00">helios.rendering.asset.shape.</text>
<text text-anchor="middle" x="654.5" y="-183" font-family="Helvetica,sans-Serif" font-size="10.00">Shape</text>
</a>
</g>
</g>
<!-- Node1&#45;&gt;Node13 -->
<g id="edge22_Node000001_Node000013" class="edge">
<title>Node1&#45;&gt;Node13</title>
<g id="a_edge22_Node000001_Node000013"><a xlink:title=" ">
<path fill="none" stroke="#63b8ff" d="M654.5,-241.8C654.5,-234.34 654.5,-224.99 654.5,-216.41"/>
<polygon fill="#63b8ff" stroke="#63b8ff" points="658,-216.16 654.5,-206.16 651,-216.16 658,-216.16"/>
</a>
</g>
</g>
<!-- Node15 -->
<g id="Node000015" class="node">
<title>Node15</title>
<g id="a_Node000015"><a xlink:href="Vertex_8ixx.html" target="_top" xlink:title="Vertex description and utilities for rendering.">
<polygon fill="white" stroke="#666666" points="954.5,-134.5 824.5,-134.5 824.5,-115.5 954.5,-115.5 954.5,-134.5"/>
<text text-anchor="middle" x="889.5" y="-122.5" font-family="Helvetica,sans-Serif" font-size="10.00">helios.rendering.Vertex</text>
</a>
</g>
</g>
<!-- Node1&#45;&gt;Node15 -->
<g id="edge30_Node000001_Node000015" class="edge">
<title>Node1&#45;&gt;Node15</title>
<g id="a_edge30_Node000001_Node000015"><a xlink:title=" ">
<path fill="none" stroke="#63b8ff" d="M721.69,-253.14C793.37,-248.52 900.06,-236.57 925.5,-206 941.49,-186.79 922.18,-159.32 906.25,-142.09"/>
<polygon fill="#63b8ff" stroke="#63b8ff" points="908.37,-139.24 898.88,-134.53 903.36,-144.13 908.37,-139.24"/>
</a>
</g>
</g>
<!-- Node16 -->
<g id="Node000016" class="node">
<title>Node16</title>
<g id="a_Node000016"><a xlink:href="MeshConfig_8ixx.html" target="_top" xlink:title="Mesh configuration including primitive type.">
<polygon fill="white" stroke="#666666" points="916.5,-206 752.5,-206 752.5,-176 916.5,-176 916.5,-206"/>
<text text-anchor="start" x="760.5" y="-194" font-family="Helvetica,sans-Serif" font-size="10.00">helios.rendering.model.config.</text>
<text text-anchor="middle" x="834.5" y="-183" font-family="Helvetica,sans-Serif" font-size="10.00">MeshConfig</text>
</a>
</g>
</g>
<!-- Node1&#45;&gt;Node16 -->
<g id="edge28_Node000001_Node000016" class="edge">
<title>Node1&#45;&gt;Node16</title>
<g id="a_edge28_Node000001_Node000016"><a xlink:title=" ">
<path fill="none" stroke="#63b8ff" d="M694,-241.95C720.96,-232.37 756.87,-219.6 785.63,-209.37"/>
<polygon fill="#63b8ff" stroke="#63b8ff" points="786.84,-212.66 795.09,-206.01 784.49,-206.06 786.84,-212.66"/>
</a>
</g>
</g>
<!-- Node5&#45;&gt;Node5 -->
<g id="edge5_Node000005_Node000005" class="edge">
<title>Node5&#45;&gt;Node5</title>
<g id="a_edge5_Node000005_Node000005"><a xlink:title=" ">
<path fill="none" stroke="#63b8ff" d="M968.26,-74.03C987.5,-76.06 1005.5,-72.88 1005.5,-64.5 1005.5,-57.62 993.38,-54.25 978.41,-54.38"/>
<polygon fill="#63b8ff" stroke="#63b8ff" points="978.04,-50.89 968.26,-54.97 978.45,-57.88 978.04,-50.89"/>
</a>
</g>
</g>
<!-- Node6&#45;&gt;Node2 -->
<g id="edge9_Node000006_Node000002" class="edge">
<title>Node6&#45;&gt;Node2</title>
<g id="a_edge9_Node000006_Node000002"><a xlink:title=" ">
<path fill="none" stroke="#63b8ff" d="M407.75,-115.49C350.74,-104.15 250.65,-84.23 195.57,-73.28"/>
<polygon fill="#63b8ff" stroke="#63b8ff" points="196,-69.79 185.51,-71.27 194.63,-76.66 196,-69.79"/>
</a>
</g>
</g>
<!-- Node6&#45;&gt;Node4 -->
<g id="edge8_Node000006_Node000004" class="edge">
<title>Node6&#45;&gt;Node4</title>
<g id="a_edge8_Node000006_Node000004"><a xlink:title=" ">
<path fill="none" stroke="#63b8ff" d="M466.29,-115.37C483.83,-105.78 512.38,-90.17 532.87,-78.97"/>
<polygon fill="#63b8ff" stroke="#63b8ff" points="534.55,-82.04 541.64,-74.17 531.19,-75.89 534.55,-82.04"/>
</a>
</g>
</g>
<!-- Node7 -->
<g id="Node000007" class="node">
<title>Node7</title>
<g id="a_Node000007"><a xlink:title=" ">
<polygon fill="#e0e0e0" stroke="#999999" points="309.5,-19 265.5,-19 265.5,0 309.5,0 309.5,-19"/>
<text text-anchor="middle" x="287.5" y="-7" font-family="Helvetica,sans-Serif" font-size="10.00">string</text>
</a>
</g>
</g>
<!-- Node6&#45;&gt;Node7 -->
<g id="edge7_Node000006_Node000007" class="edge">
<title>Node6&#45;&gt;Node7</title>
<g id="a_edge7_Node000006_Node000007"><a xlink:title=" ">
<path fill="none" stroke="#63b8ff" d="M449.74,-115.04C448.02,-100.42 442.55,-71.46 425.5,-55 396.82,-27.32 350.82,-16.86 319.91,-12.9"/>
<polygon fill="#63b8ff" stroke="#63b8ff" points="319.98,-9.39 309.65,-11.76 319.2,-16.35 319.98,-9.39"/>
</a>
</g>
</g>
<!-- Node8 -->
<g id="Node000008" class="node">
<title>Node8</title>
<g id="a_Node000008"><a xlink:title=" ">
<polygon fill="#e0e0e0" stroke="#999999" points="416.5,-74 368.5,-74 368.5,-55 416.5,-55 416.5,-74"/>
<text text-anchor="middle" x="392.5" y="-62" font-family="Helvetica,sans-Serif" font-size="10.00">mutex</text>
</a>
</g>
</g>
<!-- Node6&#45;&gt;Node8 -->
<g id="edge10_Node000006_Node000008" class="edge">
<title>Node6&#45;&gt;Node8</title>
<g id="a_edge10_Node000006_Node000008"><a xlink:title=" ">
<path fill="none" stroke="#63b8ff" d="M441.94,-115.37C433.12,-106.47 419.15,-92.39 408.31,-81.45"/>
<polygon fill="#63b8ff" stroke="#63b8ff" points="410.62,-78.8 401.09,-74.17 405.65,-83.73 410.62,-78.8"/>
</a>
</g>
</g>
<!-- Node9 -->
<g id="Node000009" class="node">
<title>Node9</title>
<g id="a_Node000009"><a xlink:href="LogSink_8ixx.html" target="_top" xlink:title="Abstract interface for log output destinations.">
<polygon fill="white" stroke="#666666" points="349.5,-74 225.5,-74 225.5,-55 349.5,-55 349.5,-74"/>
<text text-anchor="middle" x="287.5" y="-62" font-family="Helvetica,sans-Serif" font-size="10.00">helios.util.log.LogSink</text>
</a>
</g>
</g>
<!-- Node6&#45;&gt;Node9 -->
<g id="edge11_Node000006_Node000009" class="edge">
<title>Node6&#45;&gt;Node9</title>
<g id="a_edge11_Node000006_Node000009"><a xlink:title=" ">
<path fill="none" stroke="#63b8ff" d="M426.8,-115.49C398.91,-105.49 352.43,-88.8 320.9,-77.49"/>
<polygon fill="#63b8ff" stroke="#63b8ff" points="321.82,-74.1 311.23,-74.02 319.46,-80.69 321.82,-74.1"/>
</a>
</g>
</g>
<!-- Node9&#45;&gt;Node7 -->
<g id="edge12_Node000009_Node000007" class="edge">
<title>Node9&#45;&gt;Node7</title>
<g id="a_edge12_Node000009_Node000007"><a xlink:title=" ">
<path fill="none" stroke="#63b8ff" d="M287.5,-54.75C287.5,-47.8 287.5,-37.85 287.5,-29.13"/>
<polygon fill="#63b8ff" stroke="#63b8ff" points="291,-29.09 287.5,-19.09 284,-29.09 291,-29.09"/>
</a>
</g>
</g>
<!-- Node10&#45;&gt;Node2 -->
<g id="edge17_Node000010_Node000002" class="edge">
<title>Node10&#45;&gt;Node2</title>
<g id="a_edge17_Node000010_Node000002"><a xlink:title=" ">
<path fill="none" stroke="#63b8ff" d="M222.78,-181.47C197.49,-174.61 170.82,-162.25 155.5,-140 144.29,-123.73 146.81,-100.35 150.67,-84.14"/>
<polygon fill="#63b8ff" stroke="#63b8ff" points="154.12,-84.81 153.4,-74.24 147.37,-82.95 154.12,-84.81"/>
</a>
</g>
</g>
<!-- Node10&#45;&gt;Node4 -->
<g id="edge19_Node000010_Node000004" class="edge">
<title>Node10&#45;&gt;Node4</title>
<g id="a_edge19_Node000010_Node000004"><a xlink:title=" ">
<path fill="none" stroke="#63b8ff" d="M356.76,-181.5C415.44,-173.22 493.41,-159.09 518.5,-140 536.7,-126.15 547.23,-101.35 552.66,-84.19"/>
<polygon fill="#63b8ff" stroke="#63b8ff" points="556.13,-84.78 555.52,-74.2 549.4,-82.85 556.13,-84.78"/>
</a>
</g>
</g>
<!-- Node10&#45;&gt;Node6 -->
<g id="edge20_Node000010_Node000006" class="edge">
<title>Node10&#45;&gt;Node6</title>
<g id="a_edge20_Node000010_Node000006"><a xlink:title=" ">
<path fill="none" stroke="#63b8ff" d="M308.62,-181.37C337.06,-170.27 386.64,-150.92 419.02,-138.28"/>
<polygon fill="#63b8ff" stroke="#63b8ff" points="420.43,-141.49 428.47,-134.6 417.88,-134.97 420.43,-141.49"/>
</a>
</g>
</g>
<!-- Node10&#45;&gt;Node7 -->
<g id="edge14_Node000010_Node000007" class="edge">
<title>Node10&#45;&gt;Node7</title>
<g id="a_edge14_Node000010_Node000007"><a xlink:title=" ">
<path fill="none" stroke="#63b8ff" d="M213.21,-186.85C141.17,-182.04 38.49,-169.98 13.5,-140 -56.68,-55.81 168.78,-22.89 255.21,-13.54"/>
<polygon fill="#63b8ff" stroke="#63b8ff" points="255.68,-17.01 265.27,-12.49 254.96,-10.05 255.68,-17.01"/>
</a>
</g>
</g>
<!-- Node10&#45;&gt;Node8 -->
<g id="edge18_Node000010_Node000008" class="edge">
<title>Node10&#45;&gt;Node8</title>
<g id="a_edge18_Node000010_Node000008"><a xlink:title=" ">
<path fill="none" stroke="#63b8ff" d="M293.78,-181.44C311.26,-160.92 355.78,-108.62 378.58,-81.84"/>
<polygon fill="#63b8ff" stroke="#63b8ff" points="381.34,-84 385.16,-74.12 376.01,-79.46 381.34,-84"/>
</a>
</g>
</g>
<!-- Node10&#45;&gt;Node9 -->
<g id="edge21_Node000010_Node000009" class="edge">
<title>Node10&#45;&gt;Node9</title>
<g id="a_edge21_Node000010_Node000009"><a xlink:title=" ">
<path fill="none" stroke="#63b8ff" d="M286.57,-181.44C286.73,-161.54 287.13,-111.76 287.35,-84.35"/>
<polygon fill="#63b8ff" stroke="#63b8ff" points="290.85,-84.15 287.43,-74.12 283.85,-84.09 290.85,-84.15"/>
</a>
</g>
</g>
<!-- Node11 -->
<g id="Node000011" class="node">
<title>Node11</title>
<g id="a_Node000011"><a xlink:title=" ">
<polygon fill="#e0e0e0" stroke="#999999" points="258,-134.5 165,-134.5 165,-115.5 258,-115.5 258,-134.5"/>
<text text-anchor="middle" x="211.5" y="-122.5" font-family="Helvetica,sans-Serif" font-size="10.00">unordered_map</text>
</a>
</g>
</g>
<!-- Node10&#45;&gt;Node11 -->
<g id="edge15_Node000010_Node000011" class="edge">
<title>Node10&#45;&gt;Node11</title>
<g id="a_edge15_Node000010_Node000011"><a xlink:title=" ">
<path fill="none" stroke="#63b8ff" d="M276.38,-181.37C264.48,-171.21 244.5,-154.16 229.84,-141.65"/>
<polygon fill="#63b8ff" stroke="#63b8ff" points="231.81,-138.73 221.93,-134.91 227.27,-144.06 231.81,-138.73"/>
</a>
</g>
</g>
<!-- Node12 -->
<g id="Node000012" class="node">
<title>Node12</title>
<g id="a_Node000012"><a xlink:title=" ">
<polygon fill="#e0e0e0" stroke="#999999" points="108.5,-134.5 22.5,-134.5 22.5,-115.5 108.5,-115.5 108.5,-134.5"/>
<text text-anchor="middle" x="65.5" y="-122.5" font-family="Helvetica,sans-Serif" font-size="10.00">unordered_set</text>
</a>
</g>
</g>
<!-- Node10&#45;&gt;Node12 -->
<g id="edge16_Node000010_Node000012" class="edge">
<title>Node10&#45;&gt;Node12</title>
<g id="a_edge16_Node000010_Node000012"><a xlink:title=" ">
<path fill="none" stroke="#63b8ff" d="M256.69,-181.37C217.45,-170 148.36,-150 104.86,-137.4"/>
<polygon fill="#63b8ff" stroke="#63b8ff" points="105.76,-134.02 95.18,-134.6 103.81,-140.74 105.76,-134.02"/>
</a>
</g>
</g>
<!-- Node13&#45;&gt;Node2 -->
<g id="edge23_Node000013_Node000002" class="edge">
<title>Node13&#45;&gt;Node2</title>
<g id="a_edge23_Node000013_Node000002"><a xlink:title=" ">
<path fill="none" stroke="#63b8ff" d="M574.43,-178.33C519.68,-169.63 445.68,-156.42 381.5,-140 311.41,-122.07 231.48,-93.63 188.27,-77.57"/>
<polygon fill="#63b8ff" stroke="#63b8ff" points="189.46,-74.28 178.86,-74.06 187.01,-80.84 189.46,-74.28"/>
</a>
</g>
</g>
<!-- Node13&#45;&gt;Node4 -->
<g id="edge24_Node000013_Node000004" class="edge">
<title>Node13&#45;&gt;Node4</title>
<g id="a_edge24_Node000013_Node000004"><a xlink:title=" ">
<path fill="none" stroke="#63b8ff" d="M643.37,-175.72C625.29,-152.51 589.62,-106.73 570.43,-82.1"/>
<polygon fill="#63b8ff" stroke="#63b8ff" points="573.08,-79.81 564.17,-74.07 567.56,-84.11 573.08,-79.81"/>
</a>
</g>
</g>
<!-- Node14 -->
<g id="Node000014" class="node">
<title>Node14</title>
<g id="a_Node000014"><a xlink:href="PrimitiveType_8ixx.html" target="_top" xlink:title="Enum of primitive types for mesh rendering.">
<polygon fill="white" stroke="#666666" points="806.5,-140 642.5,-140 642.5,-110 806.5,-110 806.5,-140"/>
<text text-anchor="start" x="650.5" y="-128" font-family="Helvetica,sans-Serif" font-size="10.00">helios.rendering.model.config.</text>
<text text-anchor="middle" x="724.5" y="-117" font-family="Helvetica,sans-Serif" font-size="10.00">PrimitiveType</text>
</a>
</g>
</g>
<!-- Node13&#45;&gt;Node14 -->
<g id="edge25_Node000013_Node000014" class="edge">
<title>Node13&#45;&gt;Node14</title>
<g id="a_edge25_Node000013_Node000014"><a xlink:title=" ">
<path fill="none" stroke="#63b8ff" d="M670.03,-175.8C679.28,-167.34 691.18,-156.46 701.49,-147.03"/>
<polygon fill="#63b8ff" stroke="#63b8ff" points="703.99,-149.49 709.01,-140.16 699.26,-144.33 703.99,-149.49"/>
</a>
</g>
</g>
<!-- Node13&#45;&gt;Node15 -->
<g id="edge26_Node000013_Node000015" class="edge">
<title>Node13&#45;&gt;Node15</title>
<g id="a_edge26_Node000013_Node000015"><a xlink:title=" ">
<path fill="none" stroke="#63b8ff" d="M706.07,-175.95C748.83,-164.31 808.8,-147.98 848.38,-137.2"/>
<polygon fill="#63b8ff" stroke="#63b8ff" points="849.49,-140.52 858.22,-134.52 847.65,-133.77 849.49,-140.52"/>
</a>
</g>
</g>
<!-- Node15&#45;&gt;Node5 -->
<g id="edge27_Node000015_Node000005" class="edge">
<title>Node15&#45;&gt;Node5</title>
<g id="a_edge27_Node000015_Node000005"><a xlink:title=" ">
<path fill="none" stroke="#63b8ff" d="M896.28,-115.37C903.15,-106.64 913.93,-92.93 922.45,-82.09"/>
<polygon fill="#63b8ff" stroke="#63b8ff" points="925.25,-84.19 928.68,-74.17 919.75,-79.86 925.25,-84.19"/>
</a>
</g>
</g>
<!-- Node16&#45;&gt;Node14 -->
<g id="edge29_Node000016_Node000014" class="edge">
<title>Node16&#45;&gt;Node14</title>
<g id="a_edge29_Node000016_Node000014"><a xlink:title=" ">
<path fill="none" stroke="#63b8ff" d="M810.36,-175.95C794.88,-166.95 774.59,-155.14 757.62,-145.27"/>
<polygon fill="#63b8ff" stroke="#63b8ff" points="758.98,-142.02 748.58,-140.01 755.46,-148.07 758.98,-142.02"/>
</a>
</g>
</g>
</g>
</svg>

<g id="navigator" transform="translate(0 0)" fill="#404254">
  <rect fill="#f2f5e9" fill-opacity="0.5" stroke="#606060" stroke-width=".5" x="0" y="0" width="60" height="60"/>
  <use id="zoomplus" xlink:href="#zoomPlus" x="17" y="9" onmousedown="handleZoom(evt,'in')"/>
  <use id="zoomminus" xlink:href="#zoomMin" x="42" y="9" onmousedown="handleZoom(evt,'out')"/>
  <use id="reset" xlink:href="#resetDef" x="30" y="36" onmousedown="handleReset()"/>
   <use id="arrowup" xlink:href="#arrowUp" x="0" y="0" onmousedown="handlePan(0,-1)"/>
  <use id="arrowright" xlink:href="#arrowRight" x="0" y="0" onmousedown="handlePan(1,0)"/>
  <use id="arrowdown" xlink:href="#arrowDown" x="0" y="0" onmousedown="handlePan(0,1)"/>
  <use id="arrowleft" xlink:href="#arrowLeft" x="0" y="0" onmousedown="handlePan(-1,0)"/>
</g>
<svg viewBox="0 0 15 15" width="100%" height="30px" preserveAspectRatio="xMaxYMin meet">
 <g id="arrow_out" transform="scale(0.3 0.3)">
  <a xlink:href="Mesh_8ixx__incl_org.svg" target="_base">
   <rect id="button" ry="5" rx="5" y="6" x="6" height="38" width="38"
        fill="#f2f5e9" fill-opacity="0.5" stroke="#606060" stroke-width="1.0"/>
   <path id="arrow"
     d="M 11.500037,31.436501 C 11.940474,20.09759 22.043105,11.32322 32.158766,21.979434 L 37.068811,17.246167 C 37.068811,17.246167 37.088388,32 37.088388,32 L 22.160133,31.978069 C 22.160133,31.978069 26.997745,27.140456 26.997745,27.140456 C 18.528582,18.264221 13.291696,25.230495 11.500037,31.436501 z"
     style="fill:#404040;"/>
  </a>
 </g>
</svg>

<style type='text/css'>
<![CDATA[
[data-mouse-over-selected='false'] { opacity: 0.7; }
[data-mouse-over-selected='true']  { opacity: 1.0; }
]]>
</style>
<script type="application/ecmascript"><![CDATA[
document.addEventListener('DOMContentLoaded', (event) => {
  highlightEdges();
  highlightAdjacentNodes();
});
]]></script>
</svg>
