<?xml version="1.0" encoding="UTF-8" standalone="no"?>
<!DOCTYPE svg PUBLIC "-//W3C//DTD SVG 1.1//EN"
 "http://www.w3.org/Graphics/SVG/1.1/DTD/svg11.dtd">
<!-- Generated by graphviz version 2.43.0 (0)
 -->
<!-- Title: include/helios/rendering/model/Mesh.ixx Pages: 1 -->
<!--zoomable 227 -->

<svg id="main" version="1.1" xmlns="http://www.w3.org/2000/svg" xmlns:xlink="http://www.w3.org/1999/xlink" xml:space="preserve" onload="init(evt)">

<style type="text/css"><![CDATA[
.node, .edge {opacity: 0.7;}
.node.selected, .edge.selected {opacity: 1;}
.edge:hover path { stroke: red; }
.edge:hover polygon { stroke: red; fill: red; }
]]></style>

<defs>
  <circle id="rim" cx="0" cy="0" r="7"/>
  <circle id="rim2" cx="0" cy="0" r="3.5"/>
  <g id="zoomPlus">
    <use xlink:href="#rim" fill="#404040"><set attributeName="fill" to="#808080" begin="zoomplus.mouseover" end="zoomplus.mouseout"/></use>
    <path d="M-4,0h8M0,-4v8" fill="none" stroke="white" stroke-width="1.5" pointer-events="none"/>
  </g>
  <g id="zoomMin">
    <use xlink:href="#rim" fill="#404040"><set attributeName="fill" to="#808080" begin="zoomminus.mouseover" end="zoomminus.mouseout"/></use>
    <path d="M-4,0h8" fill="none" stroke="white" stroke-width="1.5" pointer-events="none"/>
  </g>
  <g id="arrowUp" transform="translate(30 24)">
    <use xlink:href="#rim"/>
    <path pointer-events="none" fill="none" stroke="white" stroke-width="1.5" d="M0,-3.0v7 M-2.5,-0.5L0,-3.0L2.5,-0.5"/>
  </g>
  <g id="arrowRight" transform="rotate(90) translate(36 -43)">
    <use xlink:href="#rim"/>
    <path pointer-events="none" fill="none" stroke="white" stroke-width="1.5" d="M0,-3.0v7 M-2.5,-0.5L0,-3.0L2.5,-0.5"/>
  </g>
  <g id="arrowDown" transform="rotate(180) translate(-30 -48)">
    <use xlink:href="#rim"/>
    <path pointer-events="none" fill="none" stroke="white" stroke-width="1.5" d="M0,-3.0v7 M-2.5,-0.5L0,-3.0L2.5,-0.5"/>
  </g>
  <g id="arrowLeft" transform="rotate(270) translate(-36 17)">
    <use xlink:href="#rim"/>
    <path pointer-events="none" fill="none" stroke="white" stroke-width="1.5" d="M0,-3.0v7 M-2.5,-0.5L0,-3.0L2.5,-0.5"/>
  </g>
  <g id="resetDef">
    <use xlink:href="#rim2" fill="#404040"><set attributeName="fill" to="#808080" begin="reset.mouseover" end="reset.mouseout"/></use>
  </g>
</defs>
<script type="application/ecmascript">
var viewWidth = 937;
var viewHeight = 227;
var sectionId = 'dynsection-0';
</script>
<script type="application/ecmascript" xlink:href="svg.min.js"/>
<svg id="graph" class="graph">
<g id="viewport">
<title>include/helios/rendering/model/Mesh.ixx</title>
<!-- Node1 -->
<g id="Node000001" class="node">
<title>Node1</title>
<g id="a_Node000001"><a xlink:title=" ">
<polygon fill="#999999" stroke="#666666" points="574.5,-219.17 440.5,-219.17 440.5,-189.17 574.5,-189.17 574.5,-219.17"/>
<text text-anchor="start" x="448.5" y="-207.17" font-family="Helvetica,sans-Serif" font-size="10.00">include/helios/rendering</text>
<text text-anchor="middle" x="507.5" y="-196.17" font-family="Helvetica,sans-Serif" font-size="10.00">/model/Mesh.ixx</text>
</a>
</g>
</g>
<!-- Node2 -->
<g id="Node000002" class="node">
<title>Node2</title>
<g id="a_Node000002"><a xlink:title=" ">
<polygon fill="#e0e0e0" stroke="#999999" points="411.5,-81.67 353.5,-81.67 353.5,-62.67 411.5,-62.67 411.5,-81.67"/>
<text text-anchor="middle" x="382.5" y="-69.67" font-family="Helvetica,sans-Serif" font-size="10.00">memory</text>
</a>
</g>
</g>
<!-- Node1&#45;&gt;Node2 -->
<g id="edge1_Node000001_Node000002" class="edge">
<title>Node1&#45;&gt;Node2</title>
<g id="a_edge1_Node000001_Node000002"><a xlink:title=" ">
<path fill="none" stroke="#63b8ff" d="M463.13,-189.09C444.35,-181.17 423.61,-169.51 409.5,-153.17 394.41,-135.7 387.67,-109.45 384.71,-91.83"/>
<polygon fill="#63b8ff" stroke="#63b8ff" points="388.14,-91.09 383.27,-81.68 381.21,-92.07 388.14,-91.09"/>
</a>
</g>
</g>
<!-- Node3 -->
<g id="Node000003" class="node">
<title>Node3</title>
<g id="a_Node000003"><a xlink:title=" ">
<polygon fill="#e0e0e0" stroke="#999999" points="929,-147.67 864,-147.67 864,-128.67 929,-128.67 929,-147.67"/>
<text text-anchor="middle" x="896.5" y="-135.67" font-family="Helvetica,sans-Serif" font-size="10.00">stdexcept</text>
</a>
</g>
</g>
<!-- Node1&#45;&gt;Node3 -->
<g id="edge2_Node000001_Node000003" class="edge">
<title>Node1&#45;&gt;Node3</title>
<g id="a_edge2_Node000001_Node000003"><a xlink:title=" ">
<path fill="none" stroke="#63b8ff" d="M574.54,-196.27C643.87,-188.46 755.02,-174.04 849.5,-153.17 853.12,-152.37 856.87,-151.44 860.6,-150.44"/>
<polygon fill="#63b8ff" stroke="#63b8ff" points="861.65,-153.78 870.33,-147.7 859.75,-147.05 861.65,-153.78"/>
</a>
</g>
</g>
<!-- Node4 -->
<g id="Node000004" class="node">
<title>Node4</title>
<g id="a_Node000004"><a xlink:title=" ">
<polygon fill="#e0e0e0" stroke="#999999" points="625,-81.67 578,-81.67 578,-62.67 625,-62.67 625,-81.67"/>
<text text-anchor="middle" x="601.5" y="-69.67" font-family="Helvetica,sans-Serif" font-size="10.00">vector</text>
</a>
</g>
</g>
<!-- Node1&#45;&gt;Node4 -->
<g id="edge3_Node000001_Node000004" class="edge">
<title>Node1&#45;&gt;Node4</title>
<g id="a_edge3_Node000001_Node000004"><a xlink:title=" ">
<path fill="none" stroke="#63b8ff" d="M551.21,-189.05C568.24,-181.24 586.13,-169.68 596.5,-153.17 608.03,-134.81 607.38,-109.15 605.1,-91.89"/>
<polygon fill="#63b8ff" stroke="#63b8ff" points="608.54,-91.23 603.48,-81.92 601.63,-92.35 608.54,-91.23"/>
</a>
</g>
</g>
<!-- Node5 -->
<g id="Node000005" class="node">
<title>Node5</title>
<g id="a_Node000005"><a xlink:href="Logger_8ixx.html" target="_top" xlink:title=" ">
<polygon fill="white" stroke="#666666" points="119,-81.67 0,-81.67 0,-62.67 119,-62.67 119,-81.67"/>
<text text-anchor="middle" x="59.5" y="-69.67" font-family="Helvetica,sans-Serif" font-size="10.00">helios.util.log.Logger</text>
</a>
</g>
</g>
<!-- Node1&#45;&gt;Node5 -->
<g id="edge4_Node000001_Node000005" class="edge">
<title>Node1&#45;&gt;Node5</title>
<g id="a_edge4_Node000001_Node000005"><a xlink:title=" ">
<path fill="none" stroke="#63b8ff" d="M440.23,-203.85C367.98,-202.26 251.22,-192.9 159.5,-153.17 124.84,-138.17 92.15,-107.85 74.08,-89.15"/>
<polygon fill="#63b8ff" stroke="#63b8ff" points="76.46,-86.58 67.05,-81.7 71.36,-91.38 76.46,-86.58"/>
</a>
</g>
</g>
<!-- Node8 -->
<g id="Node000008" class="node">
<title>Node8</title>
<g id="a_Node000008"><a xlink:href="LogManager_8ixx.html" target="_top" xlink:title=" ">
<polygon fill="white" stroke="#666666" points="314.5,-147.67 168.5,-147.67 168.5,-128.67 314.5,-128.67 314.5,-147.67"/>
<text text-anchor="middle" x="241.5" y="-135.67" font-family="Helvetica,sans-Serif" font-size="10.00">helios.util.log.LogManager</text>
</a>
</g>
</g>
<!-- Node1&#45;&gt;Node8 -->
<g id="edge7_Node000001_Node000008" class="edge">
<title>Node1&#45;&gt;Node8</title>
<g id="a_edge7_Node000001_Node000008"><a xlink:title=" ">
<path fill="none" stroke="#63b8ff" d="M449.13,-189.13C400.22,-177.36 331.4,-160.8 286.63,-150.03"/>
<polygon fill="#63b8ff" stroke="#63b8ff" points="287.44,-146.63 276.9,-147.69 285.8,-153.43 287.44,-146.63"/>
</a>
</g>
</g>
<!-- Node11 -->
<g id="Node000011" class="node">
<title>Node11</title>
<g id="a_Node000011"><a xlink:href="Vertex_8ixx.html" target="_top" xlink:title=" ">
<polygon fill="white" stroke="#666666" points="559.5,-81.67 429.5,-81.67 429.5,-62.67 559.5,-62.67 559.5,-81.67"/>
<text text-anchor="middle" x="494.5" y="-69.67" font-family="Helvetica,sans-Serif" font-size="10.00">helios.rendering.Vertex</text>
</a>
</g>
</g>
<!-- Node1&#45;&gt;Node11 -->
<g id="edge13_Node000001_Node000011" class="edge">
<title>Node1&#45;&gt;Node11</title>
<g id="a_edge13_Node000001_Node000011"><a xlink:title=" ">
<path fill="none" stroke="#63b8ff" d="M462.82,-189.14C445.84,-181.39 428.26,-169.85 418.5,-153.17 411.77,-141.67 412.17,-134.91 418.5,-123.17 427.65,-106.21 445.35,-94.05 461.36,-85.98"/>
<polygon fill="#63b8ff" stroke="#63b8ff" points="462.95,-89.1 470.52,-81.69 459.98,-82.76 462.95,-89.1"/>
</a>
</g>
</g>
<!-- Node12 -->
<g id="Node000012" class="node">
<title>Node12</title>
<g id="a_Node000012"><a xlink:href="math_2types_2__module_8ixx.html" target="_top" xlink:title=" ">
<polygon fill="white" stroke="#666666" points="716.5,-21.17 612.5,-21.17 612.5,-2.17 716.5,-2.17 716.5,-21.17"/>
<text text-anchor="middle" x="664.5" y="-9.17" font-family="Helvetica,sans-Serif" font-size="10.00">helios.math.types</text>
</a>
</g>
</g>
<!-- Node1&#45;&gt;Node12 -->
<g id="edge23_Node000001_Node000012" class="edge">
<title>Node1&#45;&gt;Node12</title>
<g id="a_edge23_Node000001_Node000012"><a xlink:title=" ">
<path fill="none" stroke="#63b8ff" d="M574.63,-202.09C656.01,-199.19 786.08,-188.92 816.5,-153.17 844.16,-120.68 842.08,-91.32 816.5,-57.17 805.39,-42.34 763.82,-30.79 726.96,-23.18"/>
<polygon fill="#63b8ff" stroke="#63b8ff" points="727.21,-19.66 716.71,-21.13 725.84,-26.52 727.21,-19.66"/>
</a>
</g>
</g>
<!-- Node13 -->
<g id="Node000013" class="node">
<title>Node13</title>
<g id="a_Node000013"><a xlink:href="Shape_8ixx.html" target="_top" xlink:title=" ">
<polygon fill="white" stroke="#666666" points="587.5,-153.17 427.5,-153.17 427.5,-123.17 587.5,-123.17 587.5,-153.17"/>
<text text-anchor="start" x="435.5" y="-141.17" font-family="Helvetica,sans-Serif" font-size="10.00">helios.rendering.asset.shape.</text>
<text text-anchor="middle" x="507.5" y="-130.17" font-family="Helvetica,sans-Serif" font-size="10.00">Shape</text>
</a>
</g>
</g>
<!-- Node1&#45;&gt;Node13 -->
<g id="edge16_Node000001_Node000013" class="edge">
<title>Node1&#45;&gt;Node13</title>
<g id="a_edge16_Node000001_Node000013"><a xlink:title=" ">
<path fill="none" stroke="#63b8ff" d="M507.5,-188.97C507.5,-181.51 507.5,-172.17 507.5,-163.59"/>
<polygon fill="#63b8ff" stroke="#63b8ff" points="511,-163.34 507.5,-153.34 504,-163.34 511,-163.34"/>
</a>
</g>
</g>
<!-- Node15 -->
<g id="Node000015" class="node">
<title>Node15</title>
<g id="a_Node000015"><a xlink:href="MeshConfig_8ixx.html" target="_top" xlink:title=" ">
<polygon fill="white" stroke="#666666" points="807.5,-153.17 643.5,-153.17 643.5,-123.17 807.5,-123.17 807.5,-153.17"/>
<text text-anchor="start" x="651.5" y="-141.17" font-family="Helvetica,sans-Serif" font-size="10.00">helios.rendering.model.config.</text>
<text text-anchor="middle" x="725.5" y="-130.17" font-family="Helvetica,sans-Serif" font-size="10.00">MeshConfig</text>
</a>
</g>
</g>
<!-- Node1&#45;&gt;Node15 -->
<g id="edge21_Node000001_Node000015" class="edge">
<title>Node1&#45;&gt;Node15</title>
<g id="a_edge21_Node000001_Node000015"><a xlink:title=" ">
<path fill="none" stroke="#63b8ff" d="M555.34,-189.13C588.56,-179.38 633,-166.33 668.13,-156.02"/>
<polygon fill="#63b8ff" stroke="#63b8ff" points="669.16,-159.36 677.77,-153.19 667.19,-152.65 669.16,-159.36"/>
</a>
</g>
</g>
<!-- Node6 -->
<g id="Node000006" class="node">
<title>Node6</title>
<g id="a_Node000006"><a xlink:title=" ">
<polygon fill="#e0e0e0" stroke="#999999" points="89.5,-21.17 29.5,-21.17 29.5,-2.17 89.5,-2.17 89.5,-21.17"/>
<text text-anchor="middle" x="59.5" y="-9.17" font-family="Helvetica,sans-Serif" font-size="10.00">iostream</text>
</a>
</g>
</g>
<!-- Node5&#45;&gt;Node6 -->
<g id="edge5_Node000005_Node000006" class="edge">
<title>Node5&#45;&gt;Node6</title>
<g id="a_edge5_Node000005_Node000006"><a xlink:title=" ">
<path fill="none" stroke="#63b8ff" d="M59.5,-62.54C59.5,-54.42 59.5,-41.98 59.5,-31.56"/>
<polygon fill="#63b8ff" stroke="#63b8ff" points="63,-31.34 59.5,-21.34 56,-31.34 63,-31.34"/>
</a>
</g>
</g>
<!-- Node7 -->
<g id="Node000007" class="node">
<title>Node7</title>
<g id="a_Node000007"><a xlink:title=" ">
<polygon fill="#e0e0e0" stroke="#999999" points="160.5,-21.17 116.5,-21.17 116.5,-2.17 160.5,-2.17 160.5,-21.17"/>
<text text-anchor="middle" x="138.5" y="-9.17" font-family="Helvetica,sans-Serif" font-size="10.00">string</text>
</a>
</g>
</g>
<!-- Node5&#45;&gt;Node7 -->
<g id="edge6_Node000005_Node000007" class="edge">
<title>Node5&#45;&gt;Node7</title>
<g id="a_edge6_Node000005_Node000007"><a xlink:title=" ">
<path fill="none" stroke="#63b8ff" d="M71.16,-62.54C83.64,-53.3 103.68,-38.46 118.66,-27.37"/>
<polygon fill="#63b8ff" stroke="#63b8ff" points="120.84,-30.11 126.8,-21.34 116.68,-24.48 120.84,-30.11"/>
</a>
</g>
</g>
<!-- Node8&#45;&gt;Node2 -->
<g id="edge10_Node000008_Node000002" class="edge">
<title>Node8&#45;&gt;Node2</title>
<g id="a_edge10_Node000008_Node000002"><a xlink:title=" ">
<path fill="none" stroke="#63b8ff" d="M260.52,-128.54C284.59,-117.62 326.27,-98.7 354.11,-86.06"/>
<polygon fill="#63b8ff" stroke="#63b8ff" points="355.68,-89.19 363.34,-81.87 352.78,-82.82 355.68,-89.19"/>
</a>
</g>
</g>
<!-- Node8&#45;&gt;Node5 -->
<g id="edge12_Node000008_Node000005" class="edge">
<title>Node8&#45;&gt;Node5</title>
<g id="a_edge12_Node000008_Node000005"><a xlink:title=" ">
<path fill="none" stroke="#63b8ff" d="M216.95,-128.54C185.12,-117.35 129.41,-97.76 93.51,-85.13"/>
<polygon fill="#63b8ff" stroke="#63b8ff" points="94.54,-81.79 83.95,-81.77 92.22,-88.39 94.54,-81.79"/>
</a>
</g>
</g>
<!-- Node8&#45;&gt;Node7 -->
<g id="edge8_Node000008_Node000007" class="edge">
<title>Node8&#45;&gt;Node7</title>
<g id="a_edge8_Node000008_Node000007"><a xlink:title=" ">
<path fill="none" stroke="#63b8ff" d="M222.08,-128.51C205.27,-120.12 181.39,-105.92 166.5,-87.17 153.37,-70.65 145.94,-47.32 142.08,-31.19"/>
<polygon fill="#63b8ff" stroke="#63b8ff" points="145.49,-30.38 139.96,-21.35 138.65,-31.86 145.49,-30.38"/>
</a>
</g>
</g>
<!-- Node9 -->
<g id="Node000009" class="node">
<title>Node9</title>
<g id="a_Node000009"><a xlink:title=" ">
<polygon fill="#e0e0e0" stroke="#999999" points="269,-81.67 176,-81.67 176,-62.67 269,-62.67 269,-81.67"/>
<text text-anchor="middle" x="222.5" y="-69.67" font-family="Helvetica,sans-Serif" font-size="10.00">unordered_map</text>
</a>
</g>
</g>
<!-- Node8&#45;&gt;Node9 -->
<g id="edge9_Node000008_Node000009" class="edge">
<title>Node8&#45;&gt;Node9</title>
<g id="a_edge9_Node000008_Node000009"><a xlink:title=" ">
<path fill="none" stroke="#63b8ff" d="M238.94,-128.54C236.15,-119.15 231.61,-103.85 228,-91.71"/>
<polygon fill="#63b8ff" stroke="#63b8ff" points="231.35,-90.67 225.14,-82.08 224.63,-92.66 231.35,-90.67"/>
</a>
</g>
</g>
<!-- Node10 -->
<g id="Node000010" class="node">
<title>Node10</title>
<g id="a_Node000010"><a xlink:title=" ">
<polygon fill="#e0e0e0" stroke="#999999" points="335.5,-81.67 287.5,-81.67 287.5,-62.67 335.5,-62.67 335.5,-81.67"/>
<text text-anchor="middle" x="311.5" y="-69.67" font-family="Helvetica,sans-Serif" font-size="10.00">mutex</text>
</a>
</g>
</g>
<!-- Node8&#45;&gt;Node10 -->
<g id="edge11_Node000008_Node000010" class="edge">
<title>Node8&#45;&gt;Node10</title>
<g id="a_edge11_Node000008_Node000010"><a xlink:title=" ">
<path fill="none" stroke="#63b8ff" d="M250.94,-128.54C262.05,-118.39 280.7,-101.33 294.38,-88.83"/>
<polygon fill="#63b8ff" stroke="#63b8ff" points="296.74,-91.41 301.76,-82.08 292.02,-86.24 296.74,-91.41"/>
</a>
</g>
</g>
<!-- Node11&#45;&gt;Node12 -->
<g id="edge14_Node000011_Node000012" class="edge">
<title>Node11&#45;&gt;Node12</title>
<g id="a_edge14_Node000011_Node000012"><a xlink:title=" ">
<path fill="none" stroke="#63b8ff" d="M519.22,-62.67C548.43,-52.62 597.2,-35.83 630.09,-24.51"/>
<polygon fill="#63b8ff" stroke="#63b8ff" points="631.43,-27.75 639.75,-21.19 629.16,-21.14 631.43,-27.75"/>
</a>
</g>
</g>
<!-- Node12&#45;&gt;Node12 -->
<g id="edge15_Node000012_Node000012" class="edge">
<title>Node12&#45;&gt;Node12</title>
<g id="a_edge15_Node000012_Node000012"><a xlink:title=" ">
<path fill="none" stroke="#63b8ff" d="M690.35,-21.21C711.94,-25.28 734.5,-22.1 734.5,-11.67 734.5,-2.87 718.44,0.76 700.45,-0.76"/>
<polygon fill="#63b8ff" stroke="#63b8ff" points="699.78,2.68 690.35,-2.14 700.73,-4.26 699.78,2.68"/>
</a>
</g>
</g>
<!-- Node13&#45;&gt;Node2 -->
<g id="edge17_Node000013_Node000002" class="edge">
<title>Node13&#45;&gt;Node2</title>
<g id="a_edge17_Node000013_Node000002"><a xlink:title=" ">
<path fill="none" stroke="#63b8ff" d="M480.07,-123.13C458.63,-112.15 429.05,-97.01 408.1,-86.28"/>
<polygon fill="#63b8ff" stroke="#63b8ff" points="409.63,-83.13 399.14,-81.69 406.44,-89.36 409.63,-83.13"/>
</a>
</g>
</g>
<!-- Node13&#45;&gt;Node4 -->
<g id="edge18_Node000013_Node000004" class="edge">
<title>Node13&#45;&gt;Node4</title>
<g id="a_edge18_Node000013_Node000004"><a xlink:title=" ">
<path fill="none" stroke="#63b8ff" d="M528.36,-122.97C543.82,-112.44 564.82,-98.15 580.35,-87.57"/>
<polygon fill="#63b8ff" stroke="#63b8ff" points="582.49,-90.35 588.78,-81.83 578.55,-84.57 582.49,-90.35"/>
</a>
</g>
</g>
<!-- Node13&#45;&gt;Node11 -->
<g id="edge20_Node000013_Node000011" class="edge">
<title>Node13&#45;&gt;Node11</title>
<g id="a_edge20_Node000013_Node000011"><a xlink:title=" ">
<path fill="none" stroke="#63b8ff" d="M504.61,-122.97C502.77,-113.87 500.35,-101.96 498.34,-92.07"/>
<polygon fill="#63b8ff" stroke="#63b8ff" points="501.72,-91.12 496.3,-82.02 494.86,-92.52 501.72,-91.12"/>
</a>
</g>
</g>
<!-- Node14 -->
<g id="Node000014" class="node">
<title>Node14</title>
<g id="a_Node000014"><a xlink:href="PrimitiveType_8ixx.html" target="_top" xlink:title=" ">
<polygon fill="white" stroke="#666666" points="807.5,-87.17 643.5,-87.17 643.5,-57.17 807.5,-57.17 807.5,-87.17"/>
<text text-anchor="start" x="651.5" y="-75.17" font-family="Helvetica,sans-Serif" font-size="10.00">helios.rendering.model.config.</text>
<text text-anchor="middle" x="725.5" y="-64.17" font-family="Helvetica,sans-Serif" font-size="10.00">PrimitiveType</text>
</a>
</g>
</g>
<!-- Node13&#45;&gt;Node14 -->
<g id="edge19_Node000013_Node000014" class="edge">
<title>Node13&#45;&gt;Node14</title>
<g id="a_edge19_Node000013_Node000014"><a xlink:title=" ">
<path fill="none" stroke="#63b8ff" d="M555.34,-123.13C588.56,-113.38 633,-100.33 668.13,-90.02"/>
<polygon fill="#63b8ff" stroke="#63b8ff" points="669.16,-93.36 677.77,-87.19 667.19,-86.65 669.16,-93.36"/>
</a>
</g>
</g>
<!-- Node15&#45;&gt;Node14 -->
<g id="edge22_Node000015_Node000014" class="edge">
<title>Node15&#45;&gt;Node14</title>
<g id="a_edge22_Node000015_Node000014"><a xlink:title=" ">
<path fill="none" stroke="#63b8ff" d="M725.5,-122.97C725.5,-115.51 725.5,-106.17 725.5,-97.59"/>
<polygon fill="#63b8ff" stroke="#63b8ff" points="729,-97.34 725.5,-87.34 722,-97.34 729,-97.34"/>
</a>
</g>
</g>
</g>
</svg>

<g id="navigator" transform="translate(0 0)" fill="#404254">
  <rect fill="#f2f5e9" fill-opacity="0.5" stroke="#606060" stroke-width=".5" x="0" y="0" width="60" height="60"/>
  <use id="zoomplus" xlink:href="#zoomPlus" x="17" y="9" onmousedown="handleZoom(evt,'in')"/>
  <use id="zoomminus" xlink:href="#zoomMin" x="42" y="9" onmousedown="handleZoom(evt,'out')"/>
  <use id="reset" xlink:href="#resetDef" x="30" y="36" onmousedown="handleReset()"/>
   <use id="arrowup" xlink:href="#arrowUp" x="0" y="0" onmousedown="handlePan(0,-1)"/>
  <use id="arrowright" xlink:href="#arrowRight" x="0" y="0" onmousedown="handlePan(1,0)"/>
  <use id="arrowdown" xlink:href="#arrowDown" x="0" y="0" onmousedown="handlePan(0,1)"/>
  <use id="arrowleft" xlink:href="#arrowLeft" x="0" y="0" onmousedown="handlePan(-1,0)"/>
</g>
<svg viewBox="0 0 15 15" width="100%" height="30px" preserveAspectRatio="xMaxYMin meet">
 <g id="arrow_out" transform="scale(0.3 0.3)">
  <a xlink:href="Mesh_8ixx__incl_org.svg" target="_base">
   <rect id="button" ry="5" rx="5" y="6" x="6" height="38" width="38"
        fill="#f2f5e9" fill-opacity="0.5" stroke="#606060" stroke-width="1.0"/>
   <path id="arrow"
     d="M 11.500037,31.436501 C 11.940474,20.09759 22.043105,11.32322 32.158766,21.979434 L 37.068811,17.246167 C 37.068811,17.246167 37.088388,32 37.088388,32 L 22.160133,31.978069 C 22.160133,31.978069 26.997745,27.140456 26.997745,27.140456 C 18.528582,18.264221 13.291696,25.230495 11.500037,31.436501 z"
     style="fill:#404040;"/>
  </a>
 </g>
</svg>

<style type='text/css'>
<![CDATA[
[data-mouse-over-selected='false'] { opacity: 0.7; }
[data-mouse-over-selected='true']  { opacity: 1.0; }
]]>
</style>
<script type="application/ecmascript"><![CDATA[
document.addEventListener('DOMContentLoaded', (event) => {
  highlightEdges();
  highlightAdjacentNodes();
});
]]></script>
</svg>
