<?xml version="1.0" encoding="UTF-8" standalone="no"?>
<!DOCTYPE svg PUBLIC "-//W3C//DTD SVG 1.1//EN"
 "http://www.w3.org/Graphics/SVG/1.1/DTD/svg11.dtd">
<!-- Generated by graphviz version 2.43.0 (0)
 -->
<!-- Title: helios::math::radians Pages: 1 -->
<svg width="522pt" height="124pt"
 viewBox="0.00 0.00 522.00 124.00" xmlns="http://www.w3.org/2000/svg" xmlns:xlink="http://www.w3.org/1999/xlink">
<g id="graph0" class="graph" transform="scale(1 1) rotate(0) translate(4 120)">
<title>helios::math::radians</title>
<!-- Node1 -->
<g id="Node000001" class="node">
<title>Node1</title>
<g id="a_Node000001"><a xlink:title="Converts an angle from degrees to radians.">
<polygon fill="#999999" stroke="#666666" points="514,-62 395,-62 395,-43 514,-43 514,-62"/>
<text text-anchor="middle" x="454.5" y="-50" font-family="Helvetica,sans-Serif" font-size="10.00">helios::math::radians</text>
</a>
</g>
</g>
<!-- Node2 -->
<g id="Node000002" class="node">
<title>Node2</title>
<g id="a_Node000002"><a xlink:href="namespacehelios_1_1math.html#a73c58ac1ac41973b9927ab6893662104" target="_top" xlink:title="Converts an angle from radians to degrees.">
<polygon fill="white" stroke="#666666" points="335,-105 213,-105 213,-86 335,-86 335,-105"/>
<text text-anchor="middle" x="274" y="-93" font-family="Helvetica,sans-Serif" font-size="10.00">helios::math::degrees</text>
</a>
</g>
</g>
<!-- Node1&#45;&gt;Node2 -->
<g id="edge1_Node000001_Node000002" class="edge">
<title>Node1&#45;&gt;Node2</title>
<g id="a_edge1_Node000001_Node000002"><a xlink:title=" ">
<path fill="none" stroke="#63b8ff" d="M407.01,-64.57C391.74,-68.46 374.66,-72.74 359,-76.5 345.77,-79.68 331.33,-82.99 318.22,-85.95"/>
<polygon fill="#63b8ff" stroke="#63b8ff" points="407.94,-67.94 416.76,-62.07 406.2,-61.16 407.94,-67.94"/>
</a>
</g>
</g>
<!-- Node4 -->
<g id="Node000004" class="node">
<title>Node4</title>
<g id="a_Node000004"><a xlink:href="classhelios_1_1ext_1_1imgui_1_1widgets_1_1CameraWidget.html#a07fc0fbbf52e97d447e2f3177980dd00" target="_top" xlink:title="Renders the widget using ImGui immediate&#45;mode API.">
<polygon fill="white" stroke="#666666" points="359,-67.5 189,-67.5 189,-37.5 359,-37.5 359,-67.5"/>
<text text-anchor="start" x="197" y="-55.5" font-family="Helvetica,sans-Serif" font-size="10.00">helios::ext::imgui</text>
<text text-anchor="middle" x="274" y="-44.5" font-family="Helvetica,sans-Serif" font-size="10.00">::widgets::CameraWidget::draw</text>
</a>
</g>
</g>
<!-- Node1&#45;&gt;Node4 -->
<g id="edge3_Node000001_Node000004" class="edge">
<title>Node1&#45;&gt;Node4</title>
<g id="a_edge3_Node000001_Node000004"><a xlink:title=" ">
<path fill="none" stroke="#63b8ff" d="M384.53,-52.5C376.19,-52.5 367.6,-52.5 359.07,-52.5"/>
<polygon fill="#63b8ff" stroke="#63b8ff" points="384.56,-56 394.56,-52.5 384.56,-49 384.56,-56"/>
</a>
</g>
</g>
<!-- Node5 -->
<g id="Node000005" class="node">
<title>Node5</title>
<g id="a_Node000005"><a xlink:href="namespacehelios_1_1math.html#a643691235959c2f53d144a4ee9a0e251" target="_top" xlink:title="Creates an affine rotation matrix R&#39; = M * R by &quot;baking&quot; the rotation part into the model matrix....">
<polygon fill="white" stroke="#666666" points="330.5,-19 217.5,-19 217.5,0 330.5,0 330.5,-19"/>
<text text-anchor="middle" x="274" y="-7" font-family="Helvetica,sans-Serif" font-size="10.00">helios::math::rotate</text>
</a>
</g>
</g>
<!-- Node1&#45;&gt;Node5 -->
<g id="edge4_Node000001_Node000005" class="edge">
<title>Node1&#45;&gt;Node5</title>
<g id="a_edge4_Node000001_Node000005"><a xlink:title=" ">
<path fill="none" stroke="#63b8ff" d="M407.01,-40.43C391.74,-36.54 374.66,-32.26 359,-28.5 345.77,-25.32 331.33,-22.01 318.22,-19.05"/>
<polygon fill="#63b8ff" stroke="#63b8ff" points="406.2,-43.84 416.76,-42.93 407.94,-37.06 406.2,-43.84"/>
</a>
</g>
</g>
<!-- Node3 -->
<g id="Node000003" class="node">
<title>Node3</title>
<g id="a_Node000003"><a xlink:href="classhelios_1_1engine_1_1game_1_1components_1_1physics_1_1Move2DComponent.html#aca8a4ccdd4bdedc05bb52c2b931cfc7a" target="_top" xlink:title="Sets the movement direction and throttle.">
<polygon fill="white" stroke="#666666" points="153,-116 0,-116 0,-75 153,-75 153,-116"/>
<text text-anchor="start" x="8" y="-104" font-family="Helvetica,sans-Serif" font-size="10.00">helios::engine::game</text>
<text text-anchor="start" x="8" y="-93" font-family="Helvetica,sans-Serif" font-size="10.00">::components::physics</text>
<text text-anchor="middle" x="76.5" y="-82" font-family="Helvetica,sans-Serif" font-size="10.00">::Move2DComponent::move</text>
</a>
</g>
</g>
<!-- Node2&#45;&gt;Node3 -->
<g id="edge2_Node000002_Node000003" class="edge">
<title>Node2&#45;&gt;Node3</title>
<g id="a_edge2_Node000002_Node000003"><a xlink:title=" ">
<path fill="none" stroke="#63b8ff" d="M202.4,-95.5C186.38,-95.5 169.31,-95.5 153.09,-95.5"/>
<polygon fill="#63b8ff" stroke="#63b8ff" points="202.75,-99 212.75,-95.5 202.75,-92 202.75,-99"/>
</a>
</g>
</g>
</g>
</svg>
