<?xml version="1.0" encoding="UTF-8" standalone="no"?>
<!DOCTYPE svg PUBLIC "-//W3C//DTD SVG 1.1//EN"
 "http://www.w3.org/Graphics/SVG/1.1/DTD/svg11.dtd">
<!-- Generated by graphviz version 2.43.0 (0)
 -->
<!-- Title: helios::math::value_ptr Pages: 1 -->
<svg width="298pt" height="86pt"
 viewBox="0.00 0.00 298.00 86.00" xmlns="http://www.w3.org/2000/svg" xmlns:xlink="http://www.w3.org/1999/xlink">
<g id="graph0" class="graph" transform="scale(1 1) rotate(0) translate(4 82)">
<title>helios::math::value_ptr</title>
<!-- Node1 -->
<g id="Node000001" class="node">
<title>Node1</title>
<g id="a_Node000001"><a xlink:title="Returns a const pointer to the first element of the matrix&#39;s components.">
<polygon fill="#999999" stroke="#666666" points="290,-48.5 161,-48.5 161,-29.5 290,-29.5 290,-48.5"/>
<text text-anchor="middle" x="225.5" y="-36.5" font-family="Helvetica,sans-Serif" font-size="10.00">helios::math::value_ptr</text>
</a>
</g>
</g>
<!-- Node2 -->
<g id="Node000002" class="node">
<title>Node2</title>
<g id="a_Node000002"><a xlink:href="structhelios_1_1math_1_1mat4.html#a33c47f9920f5e88b98caca96a889d0aa" target="_top" xlink:title=" ">
<polygon fill="white" stroke="#666666" points="125,-78 0,-78 0,-48 125,-48 125,-78"/>
<text text-anchor="start" x="8" y="-66" font-family="Helvetica,sans-Serif" font-size="10.00">helios::math::mat4</text>
<text text-anchor="middle" x="62.5" y="-55" font-family="Helvetica,sans-Serif" font-size="10.00">&lt; float &gt;::operator==</text>
</a>
</g>
</g>
<!-- Node1&#45;&gt;Node2 -->
<g id="edge1_Node000001_Node000002" class="edge">
<title>Node1&#45;&gt;Node2</title>
<g id="a_edge1_Node000001_Node000002"><a xlink:title=" ">
<path fill="none" stroke="#63b8ff" d="M150.84,-49.98C142.23,-51.26 133.51,-52.56 125.09,-53.82"/>
<polygon fill="#63b8ff" stroke="#63b8ff" points="151.49,-53.42 160.87,-48.49 150.46,-46.5 151.49,-53.42"/>
</a>
</g>
</g>
<!-- Node3 -->
<g id="Node000003" class="node">
<title>Node3</title>
<g id="a_Node000003"><a xlink:href="structhelios_1_1math_1_1mat4.html#a11484773381edf083309360d6c940d3f" target="_top" xlink:title=" ">
<polygon fill="white" stroke="#666666" points="117,-30 8,-30 8,0 117,0 117,-30"/>
<text text-anchor="start" x="16" y="-18" font-family="Helvetica,sans-Serif" font-size="10.00">helios::math::mat4</text>
<text text-anchor="middle" x="62.5" y="-7" font-family="Helvetica,sans-Serif" font-size="10.00">&lt; float &gt;::same</text>
</a>
</g>
</g>
<!-- Node1&#45;&gt;Node3 -->
<g id="edge2_Node000001_Node000003" class="edge">
<title>Node1&#45;&gt;Node3</title>
<g id="a_edge2_Node000001_Node000003"><a xlink:title=" ">
<path fill="none" stroke="#63b8ff" d="M150.92,-28.03C139.51,-26.33 127.92,-24.6 117.07,-22.98"/>
<polygon fill="#63b8ff" stroke="#63b8ff" points="150.46,-31.5 160.87,-29.51 151.49,-24.58 150.46,-31.5"/>
</a>
</g>
</g>
</g>
</svg>
