<?xml version="1.0" encoding="UTF-8" standalone="no"?>
<!DOCTYPE svg PUBLIC "-//W3C//DTD SVG 1.1//EN"
 "http://www.w3.org/Graphics/SVG/1.1/DTD/svg11.dtd">
<!-- Generated by graphviz version 2.43.0 (0)
 -->
<!-- Title: helios::core::units::from Pages: 1 -->
<svg width="250pt" height="182pt"
 viewBox="0.00 0.00 250.00 182.00" xmlns="http://www.w3.org/2000/svg" xmlns:xlink="http://www.w3.org/1999/xlink">

<svg id="main" version="1.1" xmlns="http://www.w3.org/2000/svg" xmlns:xlink="http://www.w3.org/1999/xlink" xml:space="preserve">

<style type="text/css"><![CDATA[
.node, .edge {opacity: 0.7;}
.node.selected, .edge.selected {opacity: 1;}
.edge:hover path { stroke: red; }
.edge:hover polygon { stroke: red; fill: red; }
]]></style>
<script type="application/ecmascript" xlink:href="svg.min.js"/>
<svg id="graph" class="graph">
<g id="graph0" class="graph" transform="scale(1 1) rotate(0) translate(4 178)">
<title>helios::core::units::from</title>
<!-- Node1 -->
<g id="Node000001" class="node">
<title>Node1</title>
<g id="a_Node000001"><a xlink:title="Converts a value from a given unit to helios units.">
<polygon fill="#999999" stroke="#666666" points="103,-102 0,-102 0,-72 103,-72 103,-102"/>
<text text-anchor="start" x="8" y="-90" font-family="Helvetica,sans-Serif" font-size="10.00">helios::core::units</text>
<text text-anchor="middle" x="51.5" y="-79" font-family="Helvetica,sans-Serif" font-size="10.00">::from</text>
</a>
</g>
</g>
<!-- Node2 -->
<g id="Node000002" class="node">
<title>Node2</title>
<g id="a_Node000002"><a xlink:href="namespacehelios_1_1core_1_1units.html#a44a24afd27dff622a0f8fb7d5009122c" target="_top" xlink:title="Converts centimeters to meters.">
<polygon fill="white" stroke="#666666" points="242,-174 139,-174 139,-144 242,-144 242,-174"/>
<text text-anchor="start" x="147" y="-162" font-family="Helvetica,sans-Serif" font-size="10.00">helios::core::units</text>
<text text-anchor="middle" x="190.5" y="-151" font-family="Helvetica,sans-Serif" font-size="10.00">::fromCm</text>
</a>
</g>
</g>
<!-- Node1&#45;&gt;Node2 -->
<g id="edge1_Node000001_Node000002" class="edge">
<title>Node1&#45;&gt;Node2</title>
<g id="a_edge1_Node000001_Node000002"><a xlink:title=" ">
<path fill="none" stroke="#63b8ff" d="M78.77,-102.14C95.79,-111.81 118.54,-124.47 139,-135 141.89,-136.49 144.89,-138 147.92,-139.5"/>
<polygon fill="#63b8ff" stroke="#63b8ff" points="146.5,-142.7 157.02,-143.94 149.57,-136.41 146.5,-142.7"/>
</a>
</g>
</g>
<!-- Node3 -->
<g id="Node000003" class="node">
<title>Node3</title>
<g id="a_Node000003"><a xlink:href="namespacehelios_1_1core_1_1units.html#a3e0dff14fa37b52f552758069814ae54" target="_top" xlink:title="Pass&#45;through helper for meter values.">
<polygon fill="white" stroke="#666666" points="242,-126 139,-126 139,-96 242,-96 242,-126"/>
<text text-anchor="start" x="147" y="-114" font-family="Helvetica,sans-Serif" font-size="10.00">helios::core::units</text>
<text text-anchor="middle" x="190.5" y="-103" font-family="Helvetica,sans-Serif" font-size="10.00">::fromM</text>
</a>
</g>
</g>
<!-- Node1&#45;&gt;Node3 -->
<g id="edge2_Node000001_Node000003" class="edge">
<title>Node1&#45;&gt;Node3</title>
<g id="a_edge2_Node000001_Node000003"><a xlink:title=" ">
<path fill="none" stroke="#63b8ff" d="M103.12,-95.87C111.45,-97.33 120.16,-98.85 128.7,-100.35"/>
<polygon fill="#63b8ff" stroke="#63b8ff" points="128.17,-103.81 138.63,-102.09 129.38,-96.91 128.17,-103.81"/>
</a>
</g>
</g>
<!-- Node4 -->
<g id="Node000004" class="node">
<title>Node4</title>
<g id="a_Node000004"><a xlink:href="namespacehelios_1_1core_1_1units.html#a08f92aa18e9437370fe364675a387c8f" target="_top" xlink:title="Converts milliseconds to seconds.">
<polygon fill="white" stroke="#666666" points="242,-78 139,-78 139,-48 242,-48 242,-78"/>
<text text-anchor="start" x="147" y="-66" font-family="Helvetica,sans-Serif" font-size="10.00">helios::core::units</text>
<text text-anchor="middle" x="190.5" y="-55" font-family="Helvetica,sans-Serif" font-size="10.00">::fromMs</text>
</a>
</g>
</g>
<!-- Node1&#45;&gt;Node4 -->
<g id="edge3_Node000001_Node000004" class="edge">
<title>Node1&#45;&gt;Node4</title>
<g id="a_edge3_Node000001_Node000004"><a xlink:title=" ">
<path fill="none" stroke="#63b8ff" d="M103.12,-78.13C111.45,-76.67 120.16,-75.15 128.7,-73.65"/>
<polygon fill="#63b8ff" stroke="#63b8ff" points="129.38,-77.09 138.63,-71.91 128.17,-70.19 129.38,-77.09"/>
</a>
</g>
</g>
<!-- Node5 -->
<g id="Node000005" class="node">
<title>Node5</title>
<g id="a_Node000005"><a xlink:href="namespacehelios_1_1core_1_1units.html#ae56929b63f135d167f9f10c1a1cef5d3" target="_top" xlink:title="Converts seconds to seconds (identity helper).">
<polygon fill="white" stroke="#666666" points="242,-30 139,-30 139,0 242,0 242,-30"/>
<text text-anchor="start" x="147" y="-18" font-family="Helvetica,sans-Serif" font-size="10.00">helios::core::units</text>
<text text-anchor="middle" x="190.5" y="-7" font-family="Helvetica,sans-Serif" font-size="10.00">::fromS</text>
</a>
</g>
</g>
<!-- Node1&#45;&gt;Node5 -->
<g id="edge4_Node000001_Node000005" class="edge">
<title>Node1&#45;&gt;Node5</title>
<g id="a_edge4_Node000001_Node000005"><a xlink:title=" ">
<path fill="none" stroke="#63b8ff" d="M78.77,-71.86C95.79,-62.19 118.54,-49.53 139,-39 141.89,-37.51 144.89,-36 147.92,-34.5"/>
<polygon fill="#63b8ff" stroke="#63b8ff" points="149.57,-37.59 157.02,-30.06 146.5,-31.3 149.57,-37.59"/>
</a>
</g>
</g>
</g>
</svg>
</svg>

<style type='text/css'>
<![CDATA[
[data-mouse-over-selected='false'] { opacity: 0.7; }
[data-mouse-over-selected='true']  { opacity: 1.0; }
]]>
</style>
<script type="application/ecmascript"><![CDATA[
document.addEventListener('DOMContentLoaded', (event) => {
  highlightEdges();
  highlightAdjacentNodes();
});
]]></script>
</svg>
