<?xml version="1.0" encoding="UTF-8" standalone="no"?>
<!DOCTYPE svg PUBLIC "-//W3C//DTD SVG 1.1//EN"
 "http://www.w3.org/Graphics/SVG/1.1/DTD/svg11.dtd">
<!-- Generated by graphviz version 2.43.0 (0)
 -->
<!-- Title: helios::math::radians Pages: 1 -->
<svg width="333pt" height="113pt"
 viewBox="0.00 0.00 333.00 113.00" xmlns="http://www.w3.org/2000/svg" xmlns:xlink="http://www.w3.org/1999/xlink">
<g id="graph0" class="graph" transform="scale(1 1) rotate(0) translate(4 109)">
<title>helios::math::radians</title>
<!-- Node1 -->
<g id="Node000001" class="node">
<title>Node1</title>
<g id="a_Node000001"><a xlink:title="Converts an angle from degrees to radians.">
<polygon fill="#999999" stroke="#666666" points="325,-62 206,-62 206,-43 325,-43 325,-62"/>
<text text-anchor="middle" x="265.5" y="-50" font-family="Helvetica,sans-Serif" font-size="10.00">helios::math::radians</text>
</a>
</g>
</g>
<!-- Node2 -->
<g id="Node000002" class="node">
<title>Node2</title>
<g id="a_Node000002"><a xlink:href="namespacehelios_1_1math.html#a73c58ac1ac41973b9927ab6893662104" target="_top" xlink:title="Converts an angle from radians to degrees.">
<polygon fill="white" stroke="#666666" points="146,-105 24,-105 24,-86 146,-86 146,-105"/>
<text text-anchor="middle" x="85" y="-93" font-family="Helvetica,sans-Serif" font-size="10.00">helios::math::degrees</text>
</a>
</g>
</g>
<!-- Node1&#45;&gt;Node2 -->
<g id="edge1_Node000001_Node000002" class="edge">
<title>Node1&#45;&gt;Node2</title>
<g id="a_edge1_Node000001_Node000002"><a xlink:title=" ">
<path fill="none" stroke="#63b8ff" d="M218.01,-64.57C202.74,-68.46 185.66,-72.74 170,-76.5 156.77,-79.68 142.33,-82.99 129.22,-85.95"/>
<polygon fill="#63b8ff" stroke="#63b8ff" points="218.94,-67.94 227.76,-62.07 217.2,-61.16 218.94,-67.94"/>
</a>
</g>
</g>
<!-- Node3 -->
<g id="Node000003" class="node">
<title>Node3</title>
<g id="a_Node000003"><a xlink:href="classhelios_1_1ext_1_1imgui_1_1widgets_1_1CameraWidget.html#a07fc0fbbf52e97d447e2f3177980dd00" target="_top" xlink:title="Renders the widget using ImGui immediate&#45;mode API.">
<polygon fill="white" stroke="#666666" points="170,-67.5 0,-67.5 0,-37.5 170,-37.5 170,-67.5"/>
<text text-anchor="start" x="8" y="-55.5" font-family="Helvetica,sans-Serif" font-size="10.00">helios::ext::imgui</text>
<text text-anchor="middle" x="85" y="-44.5" font-family="Helvetica,sans-Serif" font-size="10.00">::widgets::CameraWidget::draw</text>
</a>
</g>
</g>
<!-- Node1&#45;&gt;Node3 -->
<g id="edge2_Node000001_Node000003" class="edge">
<title>Node1&#45;&gt;Node3</title>
<g id="a_edge2_Node000001_Node000003"><a xlink:title=" ">
<path fill="none" stroke="#63b8ff" d="M195.53,-52.5C187.19,-52.5 178.6,-52.5 170.07,-52.5"/>
<polygon fill="#63b8ff" stroke="#63b8ff" points="195.56,-56 205.56,-52.5 195.56,-49 195.56,-56"/>
</a>
</g>
</g>
<!-- Node4 -->
<g id="Node000004" class="node">
<title>Node4</title>
<g id="a_Node000004"><a xlink:href="namespacehelios_1_1math.html#a643691235959c2f53d144a4ee9a0e251" target="_top" xlink:title="Creates an affine rotation matrix R&#39; = M * R by &quot;baking&quot; the rotation part into the model matrix....">
<polygon fill="white" stroke="#666666" points="141.5,-19 28.5,-19 28.5,0 141.5,0 141.5,-19"/>
<text text-anchor="middle" x="85" y="-7" font-family="Helvetica,sans-Serif" font-size="10.00">helios::math::rotate</text>
</a>
</g>
</g>
<!-- Node1&#45;&gt;Node4 -->
<g id="edge3_Node000001_Node000004" class="edge">
<title>Node1&#45;&gt;Node4</title>
<g id="a_edge3_Node000001_Node000004"><a xlink:title=" ">
<path fill="none" stroke="#63b8ff" d="M218.01,-40.43C202.74,-36.54 185.66,-32.26 170,-28.5 156.77,-25.32 142.33,-22.01 129.22,-19.05"/>
<polygon fill="#63b8ff" stroke="#63b8ff" points="217.2,-43.84 227.76,-42.93 218.94,-37.06 217.2,-43.84"/>
</a>
</g>
</g>
</g>
</svg>
