<?xml version="1.0" encoding="UTF-8" standalone="no"?>
<!DOCTYPE svg PUBLIC "-//W3C//DTD SVG 1.1//EN"
 "http://www.w3.org/Graphics/SVG/1.1/DTD/svg11.dtd">
<!-- Generated by graphviz version 2.43.0 (0)
 -->
<!-- Title: helios::core::units::fromM Pages: 1 -->
<svg width="462pt" height="113pt"
 viewBox="0.00 0.00 462.00 113.00" xmlns="http://www.w3.org/2000/svg" xmlns:xlink="http://www.w3.org/1999/xlink">
<g id="graph0" class="graph" transform="scale(1 1) rotate(0) translate(4 109)">
<title>helios::core::units::fromM</title>
<!-- Node1 -->
<g id="Node000001" class="node">
<title>Node1</title>
<g id="a_Node000001"><a xlink:title="Pass&#45;through helper for meter values.">
<polygon fill="#999999" stroke="#666666" points="454,-54 351,-54 351,-24 454,-24 454,-54"/>
<text text-anchor="start" x="359" y="-42" font-family="Helvetica,sans-Serif" font-size="10.00">helios::core::units</text>
<text text-anchor="middle" x="402.5" y="-31" font-family="Helvetica,sans-Serif" font-size="10.00">::fromM</text>
</a>
</g>
</g>
<!-- Node2 -->
<g id="Node000002" class="node">
<title>Node2</title>
<g id="a_Node000002"><a xlink:href="namespacehelios_1_1core_1_1units.html#a9c75f83e0476f8560ef6b20129582381" target="_top" xlink:title="Converts a value from a given unit to helios units.">
<polygon fill="white" stroke="#666666" points="315,-78 212,-78 212,-48 315,-48 315,-78"/>
<text text-anchor="start" x="220" y="-66" font-family="Helvetica,sans-Serif" font-size="10.00">helios::core::units</text>
<text text-anchor="middle" x="263.5" y="-55" font-family="Helvetica,sans-Serif" font-size="10.00">::from</text>
</a>
</g>
</g>
<!-- Node1&#45;&gt;Node2 -->
<g id="edge1_Node000001_Node000002" class="edge">
<title>Node1&#45;&gt;Node2</title>
<g id="a_edge1_Node000001_Node000002"><a xlink:title=" ">
<path fill="none" stroke="#63b8ff" d="M340.96,-49.61C332.42,-51.1 323.71,-52.63 315.37,-54.09"/>
<polygon fill="#63b8ff" stroke="#63b8ff" points="341.63,-53.04 350.88,-47.87 340.42,-46.15 341.63,-53.04"/>
</a>
</g>
</g>
<!-- Node5 -->
<g id="Node000005" class="node">
<title>Node5</title>
<g id="a_Node000005"><a xlink:href="namespacehelios_1_1core_1_1units.html#aecd415b12f170019aa22cf947662c2f4" target="_top" xlink:title="Converts an AABB from a given unit to helios units.">
<polygon fill="white" stroke="#666666" points="315,-30 212,-30 212,0 315,0 315,-30"/>
<text text-anchor="start" x="220" y="-18" font-family="Helvetica,sans-Serif" font-size="10.00">helios::core::units</text>
<text text-anchor="middle" x="263.5" y="-7" font-family="Helvetica,sans-Serif" font-size="10.00">::from</text>
</a>
</g>
</g>
<!-- Node1&#45;&gt;Node5 -->
<g id="edge4_Node000001_Node000005" class="edge">
<title>Node1&#45;&gt;Node5</title>
<g id="a_edge4_Node000001_Node000005"><a xlink:title=" ">
<path fill="none" stroke="#63b8ff" d="M340.96,-28.39C332.42,-26.9 323.71,-25.37 315.37,-23.91"/>
<polygon fill="#63b8ff" stroke="#63b8ff" points="340.42,-31.85 350.88,-30.13 341.63,-24.96 340.42,-31.85"/>
</a>
</g>
</g>
<!-- Node3 -->
<g id="Node000003" class="node">
<title>Node3</title>
<g id="a_Node000003"><a xlink:href="classhelios_1_1engine_1_1game_1_1Level.html#a884afabf62c77c8daa874bae386a0a42" target="_top" xlink:title="Sets the spatial boundaries of the level.">
<polygon fill="white" stroke="#666666" points="147.5,-105 28.5,-105 28.5,-75 147.5,-75 147.5,-105"/>
<text text-anchor="start" x="36.5" y="-93" font-family="Helvetica,sans-Serif" font-size="10.00">helios::engine::game</text>
<text text-anchor="middle" x="88" y="-82" font-family="Helvetica,sans-Serif" font-size="10.00">::Level::setBounds</text>
</a>
</g>
</g>
<!-- Node2&#45;&gt;Node3 -->
<g id="edge2_Node000002_Node000003" class="edge">
<title>Node2&#45;&gt;Node3</title>
<g id="a_edge2_Node000002_Node000003"><a xlink:title=" ">
<path fill="none" stroke="#63b8ff" d="M201.73,-72.46C184.18,-75.19 165.08,-78.16 147.66,-80.87"/>
<polygon fill="#63b8ff" stroke="#63b8ff" points="202.51,-75.88 211.85,-70.88 201.43,-68.96 202.51,-75.88"/>
</a>
</g>
</g>
<!-- Node4 -->
<g id="Node000004" class="node">
<title>Node4</title>
<g id="a_Node000004"><a xlink:href="classhelios_1_1engine_1_1game_1_1systems_1_1physics_1_1ScaleSystem.html#a4edab0f66d98332c9142a13881aa6639" target="_top" xlink:title="Updates scale for all entities with dirty ScaleComponents.">
<polygon fill="white" stroke="#666666" points="176,-56.5 0,-56.5 0,-15.5 176,-15.5 176,-56.5"/>
<text text-anchor="start" x="8" y="-44.5" font-family="Helvetica,sans-Serif" font-size="10.00">helios::engine::game</text>
<text text-anchor="start" x="8" y="-33.5" font-family="Helvetica,sans-Serif" font-size="10.00">::systems::physics::ScaleSystem</text>
<text text-anchor="middle" x="88" y="-22.5" font-family="Helvetica,sans-Serif" font-size="10.00">::update</text>
</a>
</g>
</g>
<!-- Node2&#45;&gt;Node4 -->
<g id="edge3_Node000002_Node000004" class="edge">
<title>Node2&#45;&gt;Node4</title>
<g id="a_edge3_Node000002_Node000004"><a xlink:title=" ">
<path fill="none" stroke="#63b8ff" d="M201.91,-53.57C193.61,-52.28 184.94,-50.93 176.27,-49.58"/>
<polygon fill="#63b8ff" stroke="#63b8ff" points="201.43,-57.04 211.85,-55.12 202.51,-50.12 201.43,-57.04"/>
</a>
</g>
</g>
</g>
</svg>
