<?xml version="1.0" encoding="UTF-8" standalone="no"?>
<!DOCTYPE svg PUBLIC "-//W3C//DTD SVG 1.1//EN"
 "http://www.w3.org/Graphics/SVG/1.1/DTD/svg11.dtd">
<!-- Generated by graphviz version 2.43.0 (0)
 -->
<!-- Title: include/ext/opengl/rendering/shader/OpenGLUniformLocationMap.ixx Pages: 1 -->
<svg width="490pt" height="280pt"
 viewBox="0.00 0.00 490.00 280.00" xmlns="http://www.w3.org/2000/svg" xmlns:xlink="http://www.w3.org/1999/xlink">

<svg id="main" version="1.1" xmlns="http://www.w3.org/2000/svg" xmlns:xlink="http://www.w3.org/1999/xlink" xml:space="preserve">

<style type="text/css"><![CDATA[
.node, .edge {opacity: 0.7;}
.node.selected, .edge.selected {opacity: 1;}
.edge:hover path { stroke: red; }
.edge:hover polygon { stroke: red; fill: red; }
]]></style>
<script type="application/ecmascript" xlink:href="svg.min.js"/>
<svg id="graph" class="graph">
<g id="graph0" class="graph" transform="scale(1 1) rotate(0) translate(4 276)">
<title>include/ext/opengl/rendering/shader/OpenGLUniformLocationMap.ixx</title>
<!-- Node1 -->
<g id="Node000001" class="node">
<title>Node1</title>
<g id="a_Node000001"><a xlink:title="Maps shader uniform semantics to OpenGL uniform locations.">
<polygon fill="#999999" stroke="#666666" points="247.5,-272 64.5,-272 64.5,-231 247.5,-231 247.5,-272"/>
<text text-anchor="start" x="72.5" y="-260" font-family="Helvetica,sans-Serif" font-size="10.00">include/ext/opengl</text>
<text text-anchor="start" x="72.5" y="-249" font-family="Helvetica,sans-Serif" font-size="10.00">/rendering/shader/OpenGLUniform</text>
<text text-anchor="middle" x="156" y="-238" font-family="Helvetica,sans-Serif" font-size="10.00">LocationMap.ixx</text>
</a>
</g>
</g>
<!-- Node2 -->
<g id="Node000002" class="node">
<title>Node2</title>
<g id="a_Node000002"><a xlink:title=" ">
<polygon fill="#e0e0e0" stroke="#999999" points="54,-189.5 12,-189.5 12,-170.5 54,-170.5 54,-189.5"/>
<text text-anchor="middle" x="33" y="-177.5" font-family="Helvetica,sans-Serif" font-size="10.00">array</text>
</a>
</g>
</g>
<!-- Node1&#45;&gt;Node2 -->
<g id="edge1_Node000001_Node000002" class="edge">
<title>Node1&#45;&gt;Node2</title>
<g id="a_edge1_Node000001_Node000002"><a xlink:title=" ">
<path fill="none" stroke="#63b8ff" d="M121.41,-230.96C100.84,-219.33 75.26,-204.88 56.92,-194.51"/>
<polygon fill="#63b8ff" stroke="#63b8ff" points="58.48,-191.38 48.05,-189.5 55.03,-197.47 58.48,-191.38"/>
</a>
</g>
</g>
<!-- Node3 -->
<g id="Node000003" class="node">
<title>Node3</title>
<g id="a_Node000003"><a xlink:title=" ">
<polygon fill="#e0e0e0" stroke="#999999" points="128,-189.5 72,-189.5 72,-170.5 128,-170.5 128,-189.5"/>
<text text-anchor="middle" x="100" y="-177.5" font-family="Helvetica,sans-Serif" font-size="10.00">optional</text>
</a>
</g>
</g>
<!-- Node1&#45;&gt;Node3 -->
<g id="edge2_Node000001_Node000003" class="edge">
<title>Node1&#45;&gt;Node3</title>
<g id="a_edge2_Node000001_Node000003"><a xlink:title=" ">
<path fill="none" stroke="#63b8ff" d="M140.1,-230.77C131.7,-220.34 121.49,-207.68 113.48,-197.73"/>
<polygon fill="#63b8ff" stroke="#63b8ff" points="116.11,-195.41 107.11,-189.82 110.66,-199.8 116.11,-195.41"/>
</a>
</g>
</g>
<!-- Node4 -->
<g id="Node000004" class="node">
<title>Node4</title>
<g id="a_Node000004"><a xlink:href="Logger_8ixx.html" target="_top" xlink:title="Simple synchronous logger with configurable output sinks.">
<polygon fill="white" stroke="#666666" points="153.5,-129 34.5,-129 34.5,-110 153.5,-110 153.5,-129"/>
<text text-anchor="middle" x="94" y="-117" font-family="Helvetica,sans-Serif" font-size="10.00">helios.util.log.Logger</text>
</a>
</g>
</g>
<!-- Node1&#45;&gt;Node4 -->
<g id="edge3_Node000001_Node000004" class="edge">
<title>Node1&#45;&gt;Node4</title>
<g id="a_edge3_Node000001_Node000004"><a xlink:title=" ">
<path fill="none" stroke="#63b8ff" d="M154.67,-230.77C152.77,-212.72 148.16,-185.76 137,-165 131.06,-153.96 121.6,-143.74 113.06,-135.88"/>
<polygon fill="#63b8ff" stroke="#63b8ff" points="115.15,-133.05 105.31,-129.12 110.55,-138.33 115.15,-133.05"/>
</a>
</g>
</g>
<!-- Node10 -->
<g id="Node000010" class="node">
<title>Node10</title>
<g id="a_Node000010"><a xlink:href="LogManager_8ixx.html" target="_top" xlink:title="Central manager for scoped loggers with configurable sinks.">
<polygon fill="white" stroke="#666666" points="330,-189.5 184,-189.5 184,-170.5 330,-170.5 330,-189.5"/>
<text text-anchor="middle" x="257" y="-177.5" font-family="Helvetica,sans-Serif" font-size="10.00">helios.util.log.LogManager</text>
</a>
</g>
</g>
<!-- Node1&#45;&gt;Node10 -->
<g id="edge10_Node000001_Node000010" class="edge">
<title>Node1&#45;&gt;Node10</title>
<g id="a_edge10_Node000001_Node000010"><a xlink:title=" ">
<path fill="none" stroke="#63b8ff" d="M184.4,-230.96C200.83,-219.65 221.15,-205.67 236.1,-195.38"/>
<polygon fill="#63b8ff" stroke="#63b8ff" points="238.39,-198.06 244.64,-189.5 234.42,-192.29 238.39,-198.06"/>
</a>
</g>
</g>
<!-- Node13 -->
<g id="Node000013" class="node">
<title>Node13</title>
<g id="a_Node000013"><a xlink:href="UniformSemantics_8ixx.html" target="_top" xlink:title="Definitions of uniform semantics used by shaders.">
<polygon fill="white" stroke="#666666" points="482,-195 348,-195 348,-165 482,-165 482,-195"/>
<text text-anchor="start" x="356" y="-183" font-family="Helvetica,sans-Serif" font-size="10.00">helios.rendering.shader.</text>
<text text-anchor="middle" x="415" y="-172" font-family="Helvetica,sans-Serif" font-size="10.00">UniformSemantics</text>
</a>
</g>
</g>
<!-- Node1&#45;&gt;Node13 -->
<g id="edge19_Node000001_Node000013" class="edge">
<title>Node1&#45;&gt;Node13</title>
<g id="a_edge19_Node000001_Node000013"><a xlink:title=" ">
<path fill="none" stroke="#63b8ff" d="M228.84,-230.96C267.98,-220.45 315.73,-207.64 353.07,-197.62"/>
<polygon fill="#63b8ff" stroke="#63b8ff" points="354.06,-200.98 362.81,-195 352.25,-194.22 354.06,-200.98"/>
</a>
</g>
</g>
<!-- Node5 -->
<g id="Node000005" class="node">
<title>Node5</title>
<g id="a_Node000005"><a xlink:title=" ">
<polygon fill="#e0e0e0" stroke="#999999" points="205,-19 161,-19 161,0 205,0 205,-19"/>
<text text-anchor="middle" x="183" y="-7" font-family="Helvetica,sans-Serif" font-size="10.00">string</text>
</a>
</g>
</g>
<!-- Node4&#45;&gt;Node5 -->
<g id="edge4_Node000004_Node000005" class="edge">
<title>Node4&#45;&gt;Node5</title>
<g id="a_edge4_Node000004_Node000005"><a xlink:title=" ">
<path fill="none" stroke="#63b8ff" d="M94.51,-109.83C95.67,-96.74 99.49,-71.68 112,-55 122.14,-41.48 137.7,-31.06 151.68,-23.72"/>
<polygon fill="#63b8ff" stroke="#63b8ff" points="153.58,-26.69 161.01,-19.13 150.49,-20.4 153.58,-26.69"/>
</a>
</g>
</g>
<!-- Node6 -->
<g id="Node000006" class="node">
<title>Node6</title>
<g id="a_Node000006"><a xlink:title=" ">
<polygon fill="#e0e0e0" stroke="#999999" points="334.5,-74 287.5,-74 287.5,-55 334.5,-55 334.5,-74"/>
<text text-anchor="middle" x="311" y="-62" font-family="Helvetica,sans-Serif" font-size="10.00">vector</text>
</a>
</g>
</g>
<!-- Node4&#45;&gt;Node6 -->
<g id="edge5_Node000004_Node000006" class="edge">
<title>Node4&#45;&gt;Node6</title>
<g id="a_edge5_Node000004_Node000006"><a xlink:title=" ">
<path fill="none" stroke="#63b8ff" d="M128.86,-109.98C169.75,-100 237.06,-83.56 277.4,-73.71"/>
<polygon fill="#63b8ff" stroke="#63b8ff" points="278.4,-77.07 287.28,-71.29 276.74,-70.27 278.4,-77.07"/>
</a>
</g>
</g>
<!-- Node7 -->
<g id="Node000007" class="node">
<title>Node7</title>
<g id="a_Node000007"><a xlink:title=" ">
<polygon fill="#e0e0e0" stroke="#999999" points="460,-74 402,-74 402,-55 460,-55 460,-74"/>
<text text-anchor="middle" x="431" y="-62" font-family="Helvetica,sans-Serif" font-size="10.00">memory</text>
</a>
</g>
</g>
<!-- Node4&#45;&gt;Node7 -->
<g id="edge6_Node000004_Node000007" class="edge">
<title>Node4&#45;&gt;Node7</title>
<g id="a_edge6_Node000004_Node000007"><a xlink:title=" ">
<path fill="none" stroke="#63b8ff" d="M148.14,-109.98C216.25,-99.27 331.54,-81.14 391.74,-71.67"/>
<polygon fill="#63b8ff" stroke="#63b8ff" points="392.63,-75.08 401.97,-70.07 391.54,-68.16 392.63,-75.08"/>
</a>
</g>
</g>
<!-- Node8 -->
<g id="Node000008" class="node">
<title>Node8</title>
<g id="a_Node000008"><a xlink:title=" ">
<polygon fill="#e0e0e0" stroke="#999999" points="48,-74 0,-74 0,-55 48,-55 48,-74"/>
<text text-anchor="middle" x="24" y="-62" font-family="Helvetica,sans-Serif" font-size="10.00">mutex</text>
</a>
</g>
</g>
<!-- Node4&#45;&gt;Node8 -->
<g id="edge7_Node000004_Node000008" class="edge">
<title>Node4&#45;&gt;Node8</title>
<g id="a_edge7_Node000004_Node000008"><a xlink:title=" ">
<path fill="none" stroke="#63b8ff" d="M82.75,-109.98C72.2,-102 56.2,-89.88 43.56,-80.31"/>
<polygon fill="#63b8ff" stroke="#63b8ff" points="45.54,-77.42 35.45,-74.17 41.31,-83 45.54,-77.42"/>
</a>
</g>
</g>
<!-- Node9 -->
<g id="Node000009" class="node">
<title>Node9</title>
<g id="a_Node000009"><a xlink:href="LogSink_8ixx.html" target="_top" xlink:title="Abstract interface for log output destinations.">
<polygon fill="white" stroke="#666666" points="245,-74 121,-74 121,-55 245,-55 245,-74"/>
<text text-anchor="middle" x="183" y="-62" font-family="Helvetica,sans-Serif" font-size="10.00">helios.util.log.LogSink</text>
</a>
</g>
</g>
<!-- Node4&#45;&gt;Node9 -->
<g id="edge8_Node000004_Node000009" class="edge">
<title>Node4&#45;&gt;Node9</title>
<g id="a_edge8_Node000004_Node000009"><a xlink:title=" ">
<path fill="none" stroke="#63b8ff" d="M108.3,-109.98C122.1,-101.77 143.24,-89.18 159.51,-79.49"/>
<polygon fill="#63b8ff" stroke="#63b8ff" points="161.64,-82.29 168.44,-74.17 158.06,-76.28 161.64,-82.29"/>
</a>
</g>
</g>
<!-- Node9&#45;&gt;Node5 -->
<g id="edge9_Node000009_Node000005" class="edge">
<title>Node9&#45;&gt;Node5</title>
<g id="a_edge9_Node000009_Node000005"><a xlink:title=" ">
<path fill="none" stroke="#63b8ff" d="M183,-54.75C183,-47.8 183,-37.85 183,-29.13"/>
<polygon fill="#63b8ff" stroke="#63b8ff" points="186.5,-29.09 183,-19.09 179.5,-29.09 186.5,-29.09"/>
</a>
</g>
</g>
<!-- Node10&#45;&gt;Node4 -->
<g id="edge17_Node000010_Node000004" class="edge">
<title>Node10&#45;&gt;Node4</title>
<g id="a_edge17_Node000010_Node000004"><a xlink:title=" ">
<path fill="none" stroke="#63b8ff" d="M233.3,-170.49C205.41,-160.49 158.93,-143.8 127.4,-132.49"/>
<polygon fill="#63b8ff" stroke="#63b8ff" points="128.32,-129.1 117.73,-129.02 125.96,-135.69 128.32,-129.1"/>
</a>
</g>
</g>
<!-- Node10&#45;&gt;Node5 -->
<g id="edge11_Node000010_Node000005" class="edge">
<title>Node10&#45;&gt;Node5</title>
<g id="a_edge11_Node000010_Node000005"><a xlink:title=" ">
<path fill="none" stroke="#63b8ff" d="M298.49,-170.43C351.79,-159.09 438.81,-139.33 450,-129 474.94,-105.96 491.09,-80.79 469,-55 436.65,-17.23 283.39,-11.26 215.5,-10.5"/>
<polygon fill="#63b8ff" stroke="#63b8ff" points="215.39,-7 205.37,-10.42 215.34,-14 215.39,-7"/>
</a>
</g>
</g>
<!-- Node10&#45;&gt;Node6 -->
<g id="edge16_Node000010_Node000006" class="edge">
<title>Node10&#45;&gt;Node6</title>
<g id="a_edge16_Node000010_Node000006"><a xlink:title=" ">
<path fill="none" stroke="#63b8ff" d="M305.01,-170.44C347.08,-161.86 403.55,-147.29 417,-129 438.93,-99.17 383.12,-80.7 344.42,-71.83"/>
<polygon fill="#63b8ff" stroke="#63b8ff" points="345.04,-68.38 334.52,-69.68 343.55,-75.23 345.04,-68.38"/>
</a>
</g>
</g>
<!-- Node10&#45;&gt;Node7 -->
<g id="edge14_Node000010_Node000007" class="edge">
<title>Node10&#45;&gt;Node7</title>
<g id="a_edge14_Node000010_Node000007"><a xlink:title=" ">
<path fill="none" stroke="#63b8ff" d="M296.19,-170.48C345.45,-159.38 424.62,-140.09 433,-129 442.55,-116.36 440.75,-97.92 437.34,-84.16"/>
<polygon fill="#63b8ff" stroke="#63b8ff" points="440.63,-82.94 434.44,-74.34 433.91,-84.92 440.63,-82.94"/>
</a>
</g>
</g>
<!-- Node10&#45;&gt;Node8 -->
<g id="edge15_Node000010_Node000008" class="edge">
<title>Node10&#45;&gt;Node8</title>
<g id="a_edge15_Node000010_Node000008"><a xlink:title=" ">
<path fill="none" stroke="#63b8ff" d="M200.09,-170.49C135.06,-160.2 36.12,-142.56 25,-129 14.85,-116.62 15.89,-97.86 18.69,-83.94"/>
<polygon fill="#63b8ff" stroke="#63b8ff" points="22.14,-84.57 21.14,-74.02 15.35,-82.89 22.14,-84.57"/>
</a>
</g>
</g>
<!-- Node10&#45;&gt;Node9 -->
<g id="edge18_Node000010_Node000009" class="edge">
<title>Node10&#45;&gt;Node9</title>
<g id="a_edge18_Node000010_Node000009"><a xlink:title=" ">
<path fill="none" stroke="#63b8ff" d="M243.47,-170.3C230.69,-161.41 211.92,-146.46 201,-129 192.45,-115.34 187.86,-97.53 185.46,-84.24"/>
<polygon fill="#63b8ff" stroke="#63b8ff" points="188.92,-83.69 183.92,-74.34 182,-84.76 188.92,-83.69"/>
</a>
</g>
</g>
<!-- Node11 -->
<g id="Node000011" class="node">
<title>Node11</title>
<g id="a_Node000011"><a xlink:title=" ">
<polygon fill="#e0e0e0" stroke="#999999" points="303.5,-129 210.5,-129 210.5,-110 303.5,-110 303.5,-129"/>
<text text-anchor="middle" x="257" y="-117" font-family="Helvetica,sans-Serif" font-size="10.00">unordered_map</text>
</a>
</g>
</g>
<!-- Node10&#45;&gt;Node11 -->
<g id="edge12_Node000010_Node000011" class="edge">
<title>Node10&#45;&gt;Node11</title>
<g id="a_edge12_Node000010_Node000011"><a xlink:title=" ">
<path fill="none" stroke="#63b8ff" d="M257,-170.37C257,-162.25 257,-149.81 257,-139.39"/>
<polygon fill="#63b8ff" stroke="#63b8ff" points="260.5,-139.17 257,-129.17 253.5,-139.17 260.5,-139.17"/>
</a>
</g>
</g>
<!-- Node12 -->
<g id="Node000012" class="node">
<title>Node12</title>
<g id="a_Node000012"><a xlink:title=" ">
<polygon fill="#e0e0e0" stroke="#999999" points="408,-129 322,-129 322,-110 408,-110 408,-129"/>
<text text-anchor="middle" x="365" y="-117" font-family="Helvetica,sans-Serif" font-size="10.00">unordered_set</text>
</a>
</g>
</g>
<!-- Node10&#45;&gt;Node12 -->
<g id="edge13_Node000010_Node000012" class="edge">
<title>Node10&#45;&gt;Node12</title>
<g id="a_edge13_Node000010_Node000012"><a xlink:title=" ">
<path fill="none" stroke="#63b8ff" d="M272.94,-170.37C290.64,-160.78 319.46,-145.17 340.14,-133.97"/>
<polygon fill="#63b8ff" stroke="#63b8ff" points="341.87,-137.01 349,-129.17 338.54,-130.85 341.87,-137.01"/>
</a>
</g>
</g>
</g>
</svg>
</svg>

<style type='text/css'>
<![CDATA[
[data-mouse-over-selected='false'] { opacity: 0.7; }
[data-mouse-over-selected='true']  { opacity: 1.0; }
]]>
</style>
<script type="application/ecmascript"><![CDATA[
document.addEventListener('DOMContentLoaded', (event) => {
  highlightEdges();
  highlightAdjacentNodes();
});
]]></script>
</svg>
