<?xml version="1.0" encoding="UTF-8" standalone="no"?>
<!DOCTYPE svg PUBLIC "-//W3C//DTD SVG 1.1//EN"
 "http://www.w3.org/Graphics/SVG/1.1/DTD/svg11.dtd">
<!-- Generated by graphviz version 2.43.0 (0)
 -->
<!-- Title: include/ext/opengl/rendering/model/OpenGLMesh.ixx Pages: 1 -->
<svg width="1161pt" height="335pt"
 viewBox="0.00 0.00 1160.52 335.00" xmlns="http://www.w3.org/2000/svg" xmlns:xlink="http://www.w3.org/1999/xlink">
<g id="graph0" class="graph" transform="scale(1 1) rotate(0) translate(4 331)">
<title>include/ext/opengl/rendering/model/OpenGLMesh.ixx</title>
<!-- Node1 -->
<g id="Node000001" class="node">
<title>Node1</title>
<g id="a_Node000001"><a xlink:title="OpenGL&#45;specific Mesh implementation and buffer management.">
<polygon fill="#999999" stroke="#666666" points="361.02,-327 176.02,-327 176.02,-297 361.02,-297 361.02,-327"/>
<text text-anchor="start" x="184.02" y="-315" font-family="Helvetica,sans-Serif" font-size="10.00">include/ext/opengl</text>
<text text-anchor="middle" x="268.52" y="-304" font-family="Helvetica,sans-Serif" font-size="10.00">/rendering/model/OpenGLMesh.ixx</text>
</a>
</g>
</g>
<!-- Node2 -->
<g id="Node000002" class="node">
<title>Node2</title>
<g id="a_Node000002"><a xlink:title=" ">
<polygon fill="#e0e0e0" stroke="#999999" points="403.52,-74 345.52,-74 345.52,-55 403.52,-55 403.52,-74"/>
<text text-anchor="middle" x="374.52" y="-62" font-family="Helvetica,sans-Serif" font-size="10.00">memory</text>
</a>
</g>
</g>
<!-- Node1&#45;&gt;Node2 -->
<g id="edge1_Node000001_Node000002" class="edge">
<title>Node1&#45;&gt;Node2</title>
<g id="a_edge1_Node000001_Node000002"><a xlink:title=" ">
<path fill="none" stroke="#63b8ff" d="M175.91,-303.23C117.87,-296.23 50.71,-283.45 32.52,-261 -9.74,-208.86 -11.77,-160.42 32.52,-110 52.26,-87.52 249.73,-73.01 335.3,-67.73"/>
<polygon fill="#63b8ff" stroke="#63b8ff" points="335.64,-71.22 345.41,-67.12 335.21,-64.23 335.64,-71.22"/>
</a>
</g>
</g>
<!-- Node3 -->
<g id="Node000003" class="node">
<title>Node3</title>
<g id="a_Node000003"><a xlink:title=" ">
<polygon fill="#e0e0e0" stroke="#999999" points="474.02,-74 427.02,-74 427.02,-55 474.02,-55 474.02,-74"/>
<text text-anchor="middle" x="450.52" y="-62" font-family="Helvetica,sans-Serif" font-size="10.00">vector</text>
</a>
</g>
</g>
<!-- Node1&#45;&gt;Node3 -->
<g id="edge2_Node000001_Node000003" class="edge">
<title>Node1&#45;&gt;Node3</title>
<g id="a_edge2_Node000001_Node000003"><a xlink:title=" ">
<path fill="none" stroke="#63b8ff" d="M204.97,-296.91C157.43,-282.68 95.63,-255.49 65.52,-206 51.6,-183.14 74.49,-116.17 81.52,-110 137.11,-61.18 339.52,-86.09 412.52,-74 413.97,-73.76 415.46,-73.5 416.96,-73.22"/>
<polygon fill="#63b8ff" stroke="#63b8ff" points="417.77,-76.63 426.88,-71.22 416.38,-69.76 417.77,-76.63"/>
</a>
</g>
</g>
<!-- Node4 -->
<g id="Node000004" class="node">
<title>Node4</title>
<g id="a_Node000004"><a xlink:href="Vertex_8ixx.html" target="_top" xlink:title="Vertex description and utilities for rendering.">
<polygon fill="white" stroke="#666666" points="1152.52,-134.5 1022.52,-134.5 1022.52,-115.5 1152.52,-115.5 1152.52,-134.5"/>
<text text-anchor="middle" x="1087.52" y="-122.5" font-family="Helvetica,sans-Serif" font-size="10.00">helios.rendering.Vertex</text>
</a>
</g>
</g>
<!-- Node1&#45;&gt;Node4 -->
<g id="edge3_Node000001_Node000004" class="edge">
<title>Node1&#45;&gt;Node4</title>
<g id="a_edge3_Node000001_Node000004"><a xlink:title=" ">
<path fill="none" stroke="#63b8ff" d="M361.02,-306.13C567.78,-294.29 1053.1,-260.9 1101.52,-206 1116.62,-188.87 1107,-161.38 1097.9,-143.51"/>
<polygon fill="#63b8ff" stroke="#63b8ff" points="1100.94,-141.77 1093.06,-134.69 1094.81,-145.14 1100.94,-141.77"/>
</a>
</g>
</g>
<!-- Node6 -->
<g id="Node000006" class="node">
<title>Node6</title>
<g id="a_Node000006"><a xlink:href="Shape_8ixx.html" target="_top" xlink:title="Interface for simple geometric shapes used for testing and debugging.">
<polygon fill="white" stroke="#666666" points="416.52,-206 256.52,-206 256.52,-176 416.52,-176 416.52,-206"/>
<text text-anchor="start" x="264.52" y="-194" font-family="Helvetica,sans-Serif" font-size="10.00">helios.rendering.asset.shape.</text>
<text text-anchor="middle" x="336.52" y="-183" font-family="Helvetica,sans-Serif" font-size="10.00">Shape</text>
</a>
</g>
</g>
<!-- Node1&#45;&gt;Node6 -->
<g id="edge6_Node000001_Node000006" class="edge">
<title>Node1&#45;&gt;Node6</title>
<g id="a_edge6_Node000001_Node000006"><a xlink:title=" ">
<path fill="none" stroke="#63b8ff" d="M276.58,-296.88C288.14,-276.66 309.53,-239.23 323.38,-214.99"/>
<polygon fill="#63b8ff" stroke="#63b8ff" points="326.54,-216.52 328.46,-206.1 320.46,-213.05 326.54,-216.52"/>
</a>
</g>
</g>
<!-- Node8 -->
<g id="Node000008" class="node">
<title>Node8</title>
<g id="a_Node000008"><a xlink:href="MeshConfig_8ixx.html" target="_top" xlink:title="Mesh configuration including primitive type.">
<polygon fill="white" stroke="#666666" points="238.52,-206 74.52,-206 74.52,-176 238.52,-176 238.52,-206"/>
<text text-anchor="start" x="82.52" y="-194" font-family="Helvetica,sans-Serif" font-size="10.00">helios.rendering.model.config.</text>
<text text-anchor="middle" x="156.52" y="-183" font-family="Helvetica,sans-Serif" font-size="10.00">MeshConfig</text>
</a>
</g>
</g>
<!-- Node1&#45;&gt;Node8 -->
<g id="edge11_Node000001_Node000008" class="edge">
<title>Node1&#45;&gt;Node8</title>
<g id="a_edge11_Node000001_Node000008"><a xlink:title=" ">
<path fill="none" stroke="#63b8ff" d="M255.23,-296.88C235.78,-276.22 199.4,-237.57 176.65,-213.4"/>
<polygon fill="#63b8ff" stroke="#63b8ff" points="179.19,-210.98 169.79,-206.1 174.09,-215.78 179.19,-210.98"/>
</a>
</g>
</g>
<!-- Node9 -->
<g id="Node000009" class="node">
<title>Node9</title>
<g id="a_Node000009"><a xlink:href="Mesh_8ixx.html" target="_top" xlink:title="Mesh abstraction: immutable vertex/index data and configuration.">
<polygon fill="white" stroke="#666666" points="591.52,-261 433.52,-261 433.52,-242 591.52,-242 591.52,-261"/>
<text text-anchor="middle" x="512.52" y="-249" font-family="Helvetica,sans-Serif" font-size="10.00">helios.rendering.model.Mesh</text>
</a>
</g>
</g>
<!-- Node1&#45;&gt;Node9 -->
<g id="edge13_Node000001_Node000009" class="edge">
<title>Node1&#45;&gt;Node9</title>
<g id="a_edge13_Node000001_Node000009"><a xlink:title=" ">
<path fill="none" stroke="#63b8ff" d="M326.96,-296.99C369.89,-286.7 427.39,-272.91 466.94,-263.43"/>
<polygon fill="#63b8ff" stroke="#63b8ff" points="467.93,-266.79 476.84,-261.05 466.3,-259.98 467.93,-266.79"/>
</a>
</g>
</g>
<!-- Node5 -->
<g id="Node000005" class="node">
<title>Node5</title>
<g id="a_Node000005"><a xlink:href="helios_2math_2types_2__module_8ixx.html" target="_top" xlink:title="Module exports for vector and matrix type definitions.">
<polygon fill="white" stroke="#666666" points="1113.52,-74 1009.52,-74 1009.52,-55 1113.52,-55 1113.52,-74"/>
<text text-anchor="middle" x="1061.52" y="-62" font-family="Helvetica,sans-Serif" font-size="10.00">helios.math.types</text>
</a>
</g>
</g>
<!-- Node4&#45;&gt;Node5 -->
<g id="edge4_Node000004_Node000005" class="edge">
<title>Node4&#45;&gt;Node5</title>
<g id="a_edge4_Node000004_Node000005"><a xlink:title=" ">
<path fill="none" stroke="#63b8ff" d="M1083.68,-115.37C1079.95,-106.99 1074.19,-94.01 1069.47,-83.39"/>
<polygon fill="#63b8ff" stroke="#63b8ff" points="1072.63,-81.88 1065.37,-74.17 1066.23,-84.73 1072.63,-81.88"/>
</a>
</g>
</g>
<!-- Node5&#45;&gt;Node5 -->
<g id="edge5_Node000005_Node000005" class="edge">
<title>Node5&#45;&gt;Node5</title>
<g id="a_edge5_Node000005_Node000005"><a xlink:title=" ">
<path fill="none" stroke="#63b8ff" d="M1094.28,-74.03C1113.51,-76.06 1131.52,-72.88 1131.52,-64.5 1131.52,-57.62 1119.4,-54.25 1104.43,-54.38"/>
<polygon fill="#63b8ff" stroke="#63b8ff" points="1104.06,-50.89 1094.28,-54.97 1104.47,-57.88 1104.06,-50.89"/>
</a>
</g>
</g>
<!-- Node6&#45;&gt;Node2 -->
<g id="edge7_Node000006_Node000002" class="edge">
<title>Node6&#45;&gt;Node2</title>
<g id="a_edge7_Node000006_Node000002"><a xlink:title=" ">
<path fill="none" stroke="#63b8ff" d="M329.18,-175.77C321.73,-159.25 312.61,-131.52 322.52,-110 328.26,-97.52 339.42,-87.24 349.94,-79.71"/>
<polygon fill="#63b8ff" stroke="#63b8ff" points="352.08,-82.49 358.49,-74.05 348.22,-76.65 352.08,-82.49"/>
</a>
</g>
</g>
<!-- Node6&#45;&gt;Node3 -->
<g id="edge8_Node000006_Node000003" class="edge">
<title>Node6&#45;&gt;Node3</title>
<g id="a_edge8_Node000006_Node000003"><a xlink:title=" ">
<path fill="none" stroke="#63b8ff" d="M349.59,-175.72C371.03,-152.31 413.5,-105.92 435.9,-81.46"/>
<polygon fill="#63b8ff" stroke="#63b8ff" points="438.5,-83.81 442.67,-74.07 433.33,-79.08 438.5,-83.81"/>
</a>
</g>
</g>
<!-- Node6&#45;&gt;Node4 -->
<g id="edge10_Node000006_Node000004" class="edge">
<title>Node6&#45;&gt;Node4</title>
<g id="a_edge10_Node000006_Node000004"><a xlink:title=" ">
<path fill="none" stroke="#63b8ff" d="M416.74,-183.58C531.99,-174.31 751.09,-156.45 937.52,-140 961.79,-137.86 988.27,-135.42 1012.13,-133.19"/>
<polygon fill="#63b8ff" stroke="#63b8ff" points="1012.56,-136.66 1022.19,-132.24 1011.9,-129.69 1012.56,-136.66"/>
</a>
</g>
</g>
<!-- Node7 -->
<g id="Node000007" class="node">
<title>Node7</title>
<g id="a_Node000007"><a xlink:href="PrimitiveType_8ixx.html" target="_top" xlink:title="Enum of primitive types for mesh rendering.">
<polygon fill="white" stroke="#666666" points="254.52,-140 90.52,-140 90.52,-110 254.52,-110 254.52,-140"/>
<text text-anchor="start" x="98.52" y="-128" font-family="Helvetica,sans-Serif" font-size="10.00">helios.rendering.model.config.</text>
<text text-anchor="middle" x="172.52" y="-117" font-family="Helvetica,sans-Serif" font-size="10.00">PrimitiveType</text>
</a>
</g>
</g>
<!-- Node6&#45;&gt;Node7 -->
<g id="edge9_Node000006_Node000007" class="edge">
<title>Node6&#45;&gt;Node7</title>
<g id="a_edge9_Node000006_Node000007"><a xlink:title=" ">
<path fill="none" stroke="#63b8ff" d="M300.53,-175.95C276.28,-166.49 244.1,-153.93 218.07,-143.78"/>
<polygon fill="#63b8ff" stroke="#63b8ff" points="219.01,-140.39 208.42,-140.01 216.47,-146.91 219.01,-140.39"/>
</a>
</g>
</g>
<!-- Node8&#45;&gt;Node7 -->
<g id="edge12_Node000008_Node000007" class="edge">
<title>Node8&#45;&gt;Node7</title>
<g id="a_edge12_Node000008_Node000007"><a xlink:title=" ">
<path fill="none" stroke="#63b8ff" d="M160.07,-175.8C161.95,-168.26 164.32,-158.78 166.48,-150.13"/>
<polygon fill="#63b8ff" stroke="#63b8ff" points="169.94,-150.71 168.97,-140.16 163.15,-149.02 169.94,-150.71"/>
</a>
</g>
</g>
<!-- Node9&#45;&gt;Node2 -->
<g id="edge14_Node000009_Node000002" class="edge">
<title>Node9&#45;&gt;Node2</title>
<g id="a_edge14_Node000009_Node000002"><a xlink:title=" ">
<path fill="none" stroke="#63b8ff" d="M505.32,-241.77C490.16,-223.3 453.99,-178.76 425.52,-140 411.37,-120.75 396,-98.02 385.87,-82.78"/>
<polygon fill="#63b8ff" stroke="#63b8ff" points="388.73,-80.76 380.3,-74.35 382.89,-84.62 388.73,-80.76"/>
</a>
</g>
</g>
<!-- Node9&#45;&gt;Node3 -->
<g id="edge16_Node000009_Node000003" class="edge">
<title>Node9&#45;&gt;Node3</title>
<g id="a_edge16_Node000009_Node000003"><a xlink:title=" ">
<path fill="none" stroke="#63b8ff" d="M509.53,-241.58C499.93,-212.94 469.78,-122.98 456.69,-83.91"/>
<polygon fill="#63b8ff" stroke="#63b8ff" points="459.97,-82.7 453.48,-74.33 453.34,-84.93 459.97,-82.7"/>
</a>
</g>
</g>
<!-- Node9&#45;&gt;Node4 -->
<g id="edge36_Node000009_Node000004" class="edge">
<title>Node9&#45;&gt;Node4</title>
<g id="a_edge36_Node000009_Node000004"><a xlink:title=" ">
<path fill="none" stroke="#63b8ff" d="M591.58,-247.79C704.63,-243.07 906.35,-231.35 974.52,-206 979.72,-204.07 1036.27,-163.25 1067.34,-140.69"/>
<polygon fill="#63b8ff" stroke="#63b8ff" points="1069.7,-143.3 1075.73,-134.59 1065.58,-137.64 1069.7,-143.3"/>
</a>
</g>
</g>
<!-- Node9&#45;&gt;Node5 -->
<g id="edge17_Node000009_Node000005" class="edge">
<title>Node9&#45;&gt;Node5</title>
<g id="a_edge17_Node000009_Node000005"><a xlink:title=" ">
<path fill="none" stroke="#63b8ff" d="M585.03,-241.98C675.36,-229.25 832.65,-200.03 954.52,-140 988.27,-123.37 1023.31,-96.92 1043.73,-80.42"/>
<polygon fill="#63b8ff" stroke="#63b8ff" points="1046.03,-83.06 1051.54,-74.01 1041.59,-77.65 1046.03,-83.06"/>
</a>
</g>
</g>
<!-- Node9&#45;&gt;Node6 -->
<g id="edge34_Node000009_Node000006" class="edge">
<title>Node9&#45;&gt;Node6</title>
<g id="a_edge34_Node000009_Node000006"><a xlink:title=" ">
<path fill="none" stroke="#63b8ff" d="M486.92,-241.99C461.26,-233.46 421.02,-220.09 388.61,-209.32"/>
<polygon fill="#63b8ff" stroke="#63b8ff" points="389.42,-205.9 378.83,-206.06 387.21,-212.54 389.42,-205.9"/>
</a>
</g>
</g>
<!-- Node9&#45;&gt;Node8 -->
<g id="edge35_Node000009_Node000008" class="edge">
<title>Node9&#45;&gt;Node8</title>
<g id="a_edge35_Node000009_Node000008"><a xlink:title=" ">
<path fill="none" stroke="#63b8ff" d="M460.75,-241.99C405.36,-232.89 316.35,-218.27 248.89,-207.18"/>
<polygon fill="#63b8ff" stroke="#63b8ff" points="249.12,-203.67 238.68,-205.5 247.98,-210.58 249.12,-203.67"/>
</a>
</g>
</g>
<!-- Node10 -->
<g id="Node000010" class="node">
<title>Node10</title>
<g id="a_Node000010"><a xlink:title=" ">
<polygon fill="#e0e0e0" stroke="#999999" points="1092.02,-200.5 1027.02,-200.5 1027.02,-181.5 1092.02,-181.5 1092.02,-200.5"/>
<text text-anchor="middle" x="1059.52" y="-188.5" font-family="Helvetica,sans-Serif" font-size="10.00">stdexcept</text>
</a>
</g>
</g>
<!-- Node9&#45;&gt;Node10 -->
<g id="edge15_Node000009_Node000010" class="edge">
<title>Node9&#45;&gt;Node10</title>
<g id="a_edge15_Node000009_Node000010"><a xlink:title=" ">
<path fill="none" stroke="#63b8ff" d="M591.57,-248.36C690.7,-244.55 865.51,-234.14 1012.52,-206 1016.45,-205.25 1020.52,-204.3 1024.55,-203.25"/>
<polygon fill="#63b8ff" stroke="#63b8ff" points="1025.69,-206.57 1034.38,-200.5 1023.81,-199.83 1025.69,-206.57"/>
</a>
</g>
</g>
<!-- Node11 -->
<g id="Node000011" class="node">
<title>Node11</title>
<g id="a_Node000011"><a xlink:href="Logger_8ixx.html" target="_top" xlink:title="Simple synchronous logger with configurable output sinks.">
<polygon fill="white" stroke="#666666" points="636.02,-134.5 517.02,-134.5 517.02,-115.5 636.02,-115.5 636.02,-134.5"/>
<text text-anchor="middle" x="576.52" y="-122.5" font-family="Helvetica,sans-Serif" font-size="10.00">helios.util.log.Logger</text>
</a>
</g>
</g>
<!-- Node9&#45;&gt;Node11 -->
<g id="edge18_Node000009_Node000011" class="edge">
<title>Node9&#45;&gt;Node11</title>
<g id="a_edge18_Node000009_Node000011"><a xlink:title=" ">
<path fill="none" stroke="#63b8ff" d="M516.91,-241.94C527.28,-221.77 553.42,-170.92 567.39,-143.76"/>
<polygon fill="#63b8ff" stroke="#63b8ff" points="570.63,-145.11 572.09,-134.62 564.4,-141.91 570.63,-145.11"/>
</a>
</g>
</g>
<!-- Node15 -->
<g id="Node000015" class="node">
<title>Node15</title>
<g id="a_Node000015"><a xlink:href="LogManager_8ixx.html" target="_top" xlink:title="Central manager for scoped loggers with configurable sinks.">
<polygon fill="white" stroke="#666666" points="737.52,-200.5 591.52,-200.5 591.52,-181.5 737.52,-181.5 737.52,-200.5"/>
<text text-anchor="middle" x="664.52" y="-188.5" font-family="Helvetica,sans-Serif" font-size="10.00">helios.util.log.LogManager</text>
</a>
</g>
</g>
<!-- Node9&#45;&gt;Node15 -->
<g id="edge25_Node000009_Node000015" class="edge">
<title>Node9&#45;&gt;Node15</title>
<g id="a_edge25_Node000009_Node000015"><a xlink:title=" ">
<path fill="none" stroke="#63b8ff" d="M534.62,-241.99C560.51,-232.03 603.59,-215.45 632.99,-204.13"/>
<polygon fill="#63b8ff" stroke="#63b8ff" points="634.31,-207.38 642.39,-200.52 631.8,-200.84 634.31,-207.38"/>
</a>
</g>
</g>
<!-- Node11&#45;&gt;Node2 -->
<g id="edge21_Node000011_Node000002" class="edge">
<title>Node11&#45;&gt;Node2</title>
<g id="a_edge21_Node000011_Node000002"><a xlink:title=" ">
<path fill="none" stroke="#63b8ff" d="M547.14,-115.49C511.89,-105.28 452.64,-88.12 413.56,-76.81"/>
<polygon fill="#63b8ff" stroke="#63b8ff" points="414.18,-73.34 403.6,-73.92 412.23,-80.07 414.18,-73.34"/>
</a>
</g>
</g>
<!-- Node11&#45;&gt;Node3 -->
<g id="edge20_Node000011_Node000003" class="edge">
<title>Node11&#45;&gt;Node3</title>
<g id="a_edge20_Node000011_Node000003"><a xlink:title=" ">
<path fill="none" stroke="#63b8ff" d="M558.19,-115.49C537.11,-105.7 502.25,-89.52 477.93,-78.23"/>
<polygon fill="#63b8ff" stroke="#63b8ff" points="479.4,-75.05 468.86,-74.02 476.46,-81.4 479.4,-75.05"/>
</a>
</g>
</g>
<!-- Node12 -->
<g id="Node000012" class="node">
<title>Node12</title>
<g id="a_Node000012"><a xlink:title=" ">
<polygon fill="#e0e0e0" stroke="#999999" points="653.52,-19 609.52,-19 609.52,0 653.52,0 653.52,-19"/>
<text text-anchor="middle" x="631.52" y="-7" font-family="Helvetica,sans-Serif" font-size="10.00">string</text>
</a>
</g>
</g>
<!-- Node11&#45;&gt;Node12 -->
<g id="edge19_Node000011_Node000012" class="edge">
<title>Node11&#45;&gt;Node12</title>
<g id="a_edge19_Node000011_Node000012"><a xlink:title=" ">
<path fill="none" stroke="#63b8ff" d="M570.83,-115.39C562.62,-101.78 549.56,-74.8 560.52,-55 569.01,-39.65 585.26,-28.89 600.06,-21.8"/>
<polygon fill="#63b8ff" stroke="#63b8ff" points="601.75,-24.88 609.49,-17.66 598.93,-18.47 601.75,-24.88"/>
</a>
</g>
</g>
<!-- Node13 -->
<g id="Node000013" class="node">
<title>Node13</title>
<g id="a_Node000013"><a xlink:title=" ">
<polygon fill="#e0e0e0" stroke="#999999" points="759.52,-74 711.52,-74 711.52,-55 759.52,-55 759.52,-74"/>
<text text-anchor="middle" x="735.52" y="-62" font-family="Helvetica,sans-Serif" font-size="10.00">mutex</text>
</a>
</g>
</g>
<!-- Node11&#45;&gt;Node13 -->
<g id="edge22_Node000011_Node000013" class="edge">
<title>Node11&#45;&gt;Node13</title>
<g id="a_edge22_Node000011_Node000013"><a xlink:title=" ">
<path fill="none" stroke="#63b8ff" d="M599.64,-115.49C626.84,-105.49 672.18,-88.8 702.94,-77.49"/>
<polygon fill="#63b8ff" stroke="#63b8ff" points="704.19,-80.75 712.37,-74.02 701.77,-74.18 704.19,-80.75"/>
</a>
</g>
</g>
<!-- Node14 -->
<g id="Node000014" class="node">
<title>Node14</title>
<g id="a_Node000014"><a xlink:href="LogSink_8ixx.html" target="_top" xlink:title="Abstract interface for log output destinations.">
<polygon fill="white" stroke="#666666" points="693.52,-74 569.52,-74 569.52,-55 693.52,-55 693.52,-74"/>
<text text-anchor="middle" x="631.52" y="-62" font-family="Helvetica,sans-Serif" font-size="10.00">helios.util.log.LogSink</text>
</a>
</g>
</g>
<!-- Node11&#45;&gt;Node14 -->
<g id="edge23_Node000011_Node000014" class="edge">
<title>Node11&#45;&gt;Node14</title>
<g id="a_edge23_Node000011_Node000014"><a xlink:title=" ">
<path fill="none" stroke="#63b8ff" d="M584.63,-115.37C592.92,-106.55 605.98,-92.66 616.22,-81.77"/>
<polygon fill="#63b8ff" stroke="#63b8ff" points="619.07,-83.85 623.37,-74.17 613.97,-79.06 619.07,-83.85"/>
</a>
</g>
</g>
<!-- Node14&#45;&gt;Node12 -->
<g id="edge24_Node000014_Node000012" class="edge">
<title>Node14&#45;&gt;Node12</title>
<g id="a_edge24_Node000014_Node000012"><a xlink:title=" ">
<path fill="none" stroke="#63b8ff" d="M631.52,-54.75C631.52,-47.8 631.52,-37.85 631.52,-29.13"/>
<polygon fill="#63b8ff" stroke="#63b8ff" points="635.02,-29.09 631.52,-19.09 628.02,-29.09 635.02,-29.09"/>
</a>
</g>
</g>
<!-- Node15&#45;&gt;Node2 -->
<g id="edge29_Node000015_Node000002" class="edge">
<title>Node15&#45;&gt;Node2</title>
<g id="a_edge29_Node000015_Node000002"><a xlink:title=" ">
<path fill="none" stroke="#63b8ff" d="M611.31,-181.48C572.37,-173.94 518.98,-160.84 475.52,-140 443,-124.41 410.31,-97.84 391.26,-81"/>
<polygon fill="#63b8ff" stroke="#63b8ff" points="393.52,-78.33 383.75,-74.23 388.84,-83.53 393.52,-78.33"/>
</a>
</g>
</g>
<!-- Node15&#45;&gt;Node3 -->
<g id="edge31_Node000015_Node000003" class="edge">
<title>Node15&#45;&gt;Node3</title>
<g id="a_edge31_Node000015_Node000003"><a xlink:title=" ">
<path fill="none" stroke="#63b8ff" d="M612.56,-181.47C580.42,-174.31 539.53,-161.66 508.52,-140 487.17,-125.09 469.99,-100.01 460.02,-83.11"/>
<polygon fill="#63b8ff" stroke="#63b8ff" points="462.97,-81.23 455,-74.25 456.88,-84.67 462.97,-81.23"/>
</a>
</g>
</g>
<!-- Node15&#45;&gt;Node11 -->
<g id="edge32_Node000015_Node000011" class="edge">
<title>Node15&#45;&gt;Node11</title>
<g id="a_edge32_Node000015_Node000011"><a xlink:title=" ">
<path fill="none" stroke="#63b8ff" d="M652.65,-181.37C638.35,-170.97 614.08,-153.32 596.79,-140.75"/>
<polygon fill="#63b8ff" stroke="#63b8ff" points="598.62,-137.75 588.48,-134.7 594.51,-143.41 598.62,-137.75"/>
</a>
</g>
</g>
<!-- Node15&#45;&gt;Node12 -->
<g id="edge26_Node000015_Node000012" class="edge">
<title>Node15&#45;&gt;Node12</title>
<g id="a_edge26_Node000015_Node000012"><a xlink:title=" ">
<path fill="none" stroke="#63b8ff" d="M737.8,-186.85C809.84,-182.04 912.53,-169.98 937.52,-140 946.05,-129.76 945.35,-120.79 937.52,-110 873.31,-21.58 728.56,-10.19 663.85,-9.74"/>
<polygon fill="#63b8ff" stroke="#63b8ff" points="663.81,-6.24 653.81,-9.75 663.82,-13.24 663.81,-6.24"/>
</a>
</g>
</g>
<!-- Node15&#45;&gt;Node13 -->
<g id="edge30_Node000015_Node000013" class="edge">
<title>Node15&#45;&gt;Node13</title>
<g id="a_edge30_Node000015_Node000013"><a xlink:title=" ">
<path fill="none" stroke="#63b8ff" d="M669.4,-181.44C680.95,-161.19 710.15,-109.97 725.59,-82.9"/>
<polygon fill="#63b8ff" stroke="#63b8ff" points="728.69,-84.54 730.6,-74.12 722.61,-81.07 728.69,-84.54"/>
</a>
</g>
</g>
<!-- Node15&#45;&gt;Node14 -->
<g id="edge33_Node000015_Node000014" class="edge">
<title>Node15&#45;&gt;Node14</title>
<g id="a_edge33_Node000015_Node000014"><a xlink:title=" ">
<path fill="none" stroke="#63b8ff" d="M662.61,-181.07C659.4,-166.23 652.57,-135.6 645.52,-110 643.15,-101.41 640.23,-91.99 637.67,-84.03"/>
<polygon fill="#63b8ff" stroke="#63b8ff" points="640.93,-82.73 634.49,-74.31 634.27,-84.9 640.93,-82.73"/>
</a>
</g>
</g>
<!-- Node16 -->
<g id="Node000016" class="node">
<title>Node16</title>
<g id="a_Node000016"><a xlink:title=" ">
<polygon fill="#e0e0e0" stroke="#999999" points="824.02,-134.5 731.02,-134.5 731.02,-115.5 824.02,-115.5 824.02,-134.5"/>
<text text-anchor="middle" x="777.52" y="-122.5" font-family="Helvetica,sans-Serif" font-size="10.00">unordered_map</text>
</a>
</g>
</g>
<!-- Node15&#45;&gt;Node16 -->
<g id="edge27_Node000015_Node000016" class="edge">
<title>Node15&#45;&gt;Node16</title>
<g id="a_edge27_Node000015_Node000016"><a xlink:title=" ">
<path fill="none" stroke="#63b8ff" d="M679.76,-181.37C698.63,-170.68 731,-152.35 753.29,-139.72"/>
<polygon fill="#63b8ff" stroke="#63b8ff" points="755.18,-142.67 762.16,-134.7 751.73,-136.58 755.18,-142.67"/>
</a>
</g>
</g>
<!-- Node17 -->
<g id="Node000017" class="node">
<title>Node17</title>
<g id="a_Node000017"><a xlink:title=" ">
<polygon fill="#e0e0e0" stroke="#999999" points="928.52,-134.5 842.52,-134.5 842.52,-115.5 928.52,-115.5 928.52,-134.5"/>
<text text-anchor="middle" x="885.52" y="-122.5" font-family="Helvetica,sans-Serif" font-size="10.00">unordered_set</text>
</a>
</g>
</g>
<!-- Node15&#45;&gt;Node17 -->
<g id="edge28_Node000015_Node000017" class="edge">
<title>Node15&#45;&gt;Node17</title>
<g id="a_edge28_Node000015_Node000017"><a xlink:title=" ">
<path fill="none" stroke="#63b8ff" d="M694.32,-181.37C733.56,-170 802.65,-150 846.16,-137.4"/>
<polygon fill="#63b8ff" stroke="#63b8ff" points="847.2,-140.74 855.83,-134.6 845.25,-134.02 847.2,-140.74"/>
</a>
</g>
</g>
</g>
</svg>
