<?xml version="1.0" encoding="UTF-8" standalone="no"?>
<!DOCTYPE svg PUBLIC "-//W3C//DTD SVG 1.1//EN"
 "http://www.w3.org/Graphics/SVG/1.1/DTD/svg11.dtd">
<!-- Generated by graphviz version 2.43.0 (0)
 -->
<!-- Title: include/ext/opengl/rendering/shader/OpenGLUniformLocationMap.ixx Pages: 1 -->
<svg width="516pt" height="225pt"
 viewBox="0.00 0.00 516.00 225.00" xmlns="http://www.w3.org/2000/svg" xmlns:xlink="http://www.w3.org/1999/xlink">
<g id="graph0" class="graph" transform="scale(1 1) rotate(0) translate(4 221)">
<title>include/ext/opengl/rendering/shader/OpenGLUniformLocationMap.ixx</title>
<!-- Node1 -->
<g id="Node000001" class="node">
<title>Node1</title>
<g id="a_Node000001"><a xlink:title=" ">
<polygon fill="#999999" stroke="#666666" points="235.5,-217 52.5,-217 52.5,-176 235.5,-176 235.5,-217"/>
<text text-anchor="start" x="60.5" y="-205" font-family="Helvetica,sans-Serif" font-size="10.00">include/ext/opengl</text>
<text text-anchor="start" x="60.5" y="-194" font-family="Helvetica,sans-Serif" font-size="10.00">/rendering/shader/OpenGLUniform</text>
<text text-anchor="middle" x="144" y="-183" font-family="Helvetica,sans-Serif" font-size="10.00">LocationMap.ixx</text>
</a>
</g>
</g>
<!-- Node2 -->
<g id="Node000002" class="node">
<title>Node2</title>
<g id="a_Node000002"><a xlink:title=" ">
<polygon fill="#e0e0e0" stroke="#999999" points="42,-134.5 0,-134.5 0,-115.5 42,-115.5 42,-134.5"/>
<text text-anchor="middle" x="21" y="-122.5" font-family="Helvetica,sans-Serif" font-size="10.00">array</text>
</a>
</g>
</g>
<!-- Node1&#45;&gt;Node2 -->
<g id="edge1_Node000001_Node000002" class="edge">
<title>Node1&#45;&gt;Node2</title>
<g id="a_edge1_Node000001_Node000002"><a xlink:title=" ">
<path fill="none" stroke="#63b8ff" d="M109.41,-175.96C88.84,-164.33 63.26,-149.88 44.92,-139.51"/>
<polygon fill="#63b8ff" stroke="#63b8ff" points="46.48,-136.38 36.05,-134.5 43.03,-142.47 46.48,-136.38"/>
</a>
</g>
</g>
<!-- Node3 -->
<g id="Node000003" class="node">
<title>Node3</title>
<g id="a_Node000003"><a xlink:title=" ">
<polygon fill="#e0e0e0" stroke="#999999" points="116,-134.5 60,-134.5 60,-115.5 116,-115.5 116,-134.5"/>
<text text-anchor="middle" x="88" y="-122.5" font-family="Helvetica,sans-Serif" font-size="10.00">optional</text>
</a>
</g>
</g>
<!-- Node1&#45;&gt;Node3 -->
<g id="edge2_Node000001_Node000003" class="edge">
<title>Node1&#45;&gt;Node3</title>
<g id="a_edge2_Node000001_Node000003"><a xlink:title=" ">
<path fill="none" stroke="#63b8ff" d="M128.1,-175.77C119.7,-165.34 109.49,-152.68 101.48,-142.73"/>
<polygon fill="#63b8ff" stroke="#63b8ff" points="104.11,-140.41 95.11,-134.82 98.66,-144.8 104.11,-140.41"/>
</a>
</g>
</g>
<!-- Node4 -->
<g id="Node000004" class="node">
<title>Node4</title>
<g id="a_Node000004"><a xlink:href="Logger_8ixx.html" target="_top" xlink:title=" ">
<polygon fill="white" stroke="#666666" points="141.5,-74 22.5,-74 22.5,-55 141.5,-55 141.5,-74"/>
<text text-anchor="middle" x="82" y="-62" font-family="Helvetica,sans-Serif" font-size="10.00">helios.util.log.Logger</text>
</a>
</g>
</g>
<!-- Node1&#45;&gt;Node4 -->
<g id="edge3_Node000001_Node000004" class="edge">
<title>Node1&#45;&gt;Node4</title>
<g id="a_edge3_Node000001_Node000004"><a xlink:title=" ">
<path fill="none" stroke="#63b8ff" d="M142.67,-175.77C140.77,-157.72 136.16,-130.76 125,-110 119.06,-98.96 109.6,-88.74 101.06,-80.88"/>
<polygon fill="#63b8ff" stroke="#63b8ff" points="103.15,-78.05 93.31,-74.12 98.55,-83.33 103.15,-78.05"/>
</a>
</g>
</g>
<!-- Node7 -->
<g id="Node000007" class="node">
<title>Node7</title>
<g id="a_Node000007"><a xlink:href="LogManager_8ixx.html" target="_top" xlink:title=" ">
<polygon fill="white" stroke="#666666" points="318,-134.5 172,-134.5 172,-115.5 318,-115.5 318,-134.5"/>
<text text-anchor="middle" x="245" y="-122.5" font-family="Helvetica,sans-Serif" font-size="10.00">helios.util.log.LogManager</text>
</a>
</g>
</g>
<!-- Node1&#45;&gt;Node7 -->
<g id="edge6_Node000001_Node000007" class="edge">
<title>Node1&#45;&gt;Node7</title>
<g id="a_edge6_Node000001_Node000007"><a xlink:title=" ">
<path fill="none" stroke="#63b8ff" d="M172.4,-175.96C188.83,-164.65 209.15,-150.67 224.1,-140.38"/>
<polygon fill="#63b8ff" stroke="#63b8ff" points="226.39,-143.06 232.64,-134.5 222.42,-137.29 226.39,-143.06"/>
</a>
</g>
</g>
<!-- Node11 -->
<g id="Node000011" class="node">
<title>Node11</title>
<g id="a_Node000011"><a xlink:href="UniformSemantics_8ixx.html" target="_top" xlink:title=" ">
<polygon fill="white" stroke="#666666" points="508,-140 374,-140 374,-110 508,-110 508,-140"/>
<text text-anchor="start" x="382" y="-128" font-family="Helvetica,sans-Serif" font-size="10.00">helios.rendering.shader.</text>
<text text-anchor="middle" x="441" y="-117" font-family="Helvetica,sans-Serif" font-size="10.00">UniformSemantics</text>
</a>
</g>
</g>
<!-- Node1&#45;&gt;Node11 -->
<g id="edge12_Node000001_Node000011" class="edge">
<title>Node1&#45;&gt;Node11</title>
<g id="a_edge12_Node000001_Node000011"><a xlink:title=" ">
<path fill="none" stroke="#63b8ff" d="M227.52,-175.96C272.89,-165.34 328.33,-152.37 371.34,-142.3"/>
<polygon fill="#63b8ff" stroke="#63b8ff" points="372.22,-145.69 381.16,-140 370.62,-138.87 372.22,-145.69"/>
</a>
</g>
</g>
<!-- Node5 -->
<g id="Node000005" class="node">
<title>Node5</title>
<g id="a_Node000005"><a xlink:title=" ">
<polygon fill="#e0e0e0" stroke="#999999" points="112,-19 52,-19 52,0 112,0 112,-19"/>
<text text-anchor="middle" x="82" y="-7" font-family="Helvetica,sans-Serif" font-size="10.00">iostream</text>
</a>
</g>
</g>
<!-- Node4&#45;&gt;Node5 -->
<g id="edge4_Node000004_Node000005" class="edge">
<title>Node4&#45;&gt;Node5</title>
<g id="a_edge4_Node000004_Node000005"><a xlink:title=" ">
<path fill="none" stroke="#63b8ff" d="M82,-54.75C82,-47.8 82,-37.85 82,-29.13"/>
<polygon fill="#63b8ff" stroke="#63b8ff" points="85.5,-29.09 82,-19.09 78.5,-29.09 85.5,-29.09"/>
</a>
</g>
</g>
<!-- Node6 -->
<g id="Node000006" class="node">
<title>Node6</title>
<g id="a_Node000006"><a xlink:title=" ">
<polygon fill="#e0e0e0" stroke="#999999" points="183,-19 139,-19 139,0 183,0 183,-19"/>
<text text-anchor="middle" x="161" y="-7" font-family="Helvetica,sans-Serif" font-size="10.00">string</text>
</a>
</g>
</g>
<!-- Node4&#45;&gt;Node6 -->
<g id="edge5_Node000004_Node000006" class="edge">
<title>Node4&#45;&gt;Node6</title>
<g id="a_edge5_Node000004_Node000006"><a xlink:title=" ">
<path fill="none" stroke="#63b8ff" d="M94.69,-54.98C106.83,-46.84 125.36,-34.41 139.75,-24.76"/>
<polygon fill="#63b8ff" stroke="#63b8ff" points="141.72,-27.65 148.08,-19.17 137.82,-21.84 141.72,-27.65"/>
</a>
</g>
</g>
<!-- Node7&#45;&gt;Node4 -->
<g id="edge11_Node000007_Node000004" class="edge">
<title>Node7&#45;&gt;Node4</title>
<g id="a_edge11_Node000007_Node000004"><a xlink:title=" ">
<path fill="none" stroke="#63b8ff" d="M221.3,-115.49C193.41,-105.49 146.93,-88.8 115.4,-77.49"/>
<polygon fill="#63b8ff" stroke="#63b8ff" points="116.32,-74.1 105.73,-74.02 113.96,-80.69 116.32,-74.1"/>
</a>
</g>
</g>
<!-- Node7&#45;&gt;Node6 -->
<g id="edge7_Node000007_Node000006" class="edge">
<title>Node7&#45;&gt;Node6</title>
<g id="a_edge7_Node000007_Node000006"><a xlink:title=" ">
<path fill="none" stroke="#63b8ff" d="M232.45,-115.3C220.07,-106.18 201.26,-90.87 189,-74 178.94,-60.16 171.42,-42.13 166.72,-28.82"/>
<polygon fill="#63b8ff" stroke="#63b8ff" points="170.04,-27.71 163.57,-19.33 163.4,-29.92 170.04,-27.71"/>
</a>
</g>
</g>
<!-- Node8 -->
<g id="Node000008" class="node">
<title>Node8</title>
<g id="a_Node000008"><a xlink:title=" ">
<polygon fill="#e0e0e0" stroke="#999999" points="291.5,-74 198.5,-74 198.5,-55 291.5,-55 291.5,-74"/>
<text text-anchor="middle" x="245" y="-62" font-family="Helvetica,sans-Serif" font-size="10.00">unordered_map</text>
</a>
</g>
</g>
<!-- Node7&#45;&gt;Node8 -->
<g id="edge8_Node000007_Node000008" class="edge">
<title>Node7&#45;&gt;Node8</title>
<g id="a_edge8_Node000007_Node000008"><a xlink:title=" ">
<path fill="none" stroke="#63b8ff" d="M245,-115.37C245,-107.25 245,-94.81 245,-84.39"/>
<polygon fill="#63b8ff" stroke="#63b8ff" points="248.5,-84.17 245,-74.17 241.5,-84.17 248.5,-84.17"/>
</a>
</g>
</g>
<!-- Node9 -->
<g id="Node000009" class="node">
<title>Node9</title>
<g id="a_Node000009"><a xlink:title=" ">
<polygon fill="#e0e0e0" stroke="#999999" points="368,-74 310,-74 310,-55 368,-55 368,-74"/>
<text text-anchor="middle" x="339" y="-62" font-family="Helvetica,sans-Serif" font-size="10.00">memory</text>
</a>
</g>
</g>
<!-- Node7&#45;&gt;Node9 -->
<g id="edge9_Node000007_Node000009" class="edge">
<title>Node7&#45;&gt;Node9</title>
<g id="a_edge9_Node000007_Node000009"><a xlink:title=" ">
<path fill="none" stroke="#63b8ff" d="M258.87,-115.37C274,-105.95 298.46,-90.73 316.38,-79.58"/>
<polygon fill="#63b8ff" stroke="#63b8ff" points="318.43,-82.42 325.07,-74.17 314.73,-76.48 318.43,-82.42"/>
</a>
</g>
</g>
<!-- Node10 -->
<g id="Node000010" class="node">
<title>Node10</title>
<g id="a_Node000010"><a xlink:title=" ">
<polygon fill="#e0e0e0" stroke="#999999" points="434,-74 386,-74 386,-55 434,-55 434,-74"/>
<text text-anchor="middle" x="410" y="-62" font-family="Helvetica,sans-Serif" font-size="10.00">mutex</text>
</a>
</g>
</g>
<!-- Node7&#45;&gt;Node10 -->
<g id="edge10_Node000007_Node000010" class="edge">
<title>Node7&#45;&gt;Node10</title>
<g id="a_edge10_Node000007_Node000010"><a xlink:title=" ">
<path fill="none" stroke="#63b8ff" d="M268.99,-115.49C297.22,-105.49 344.28,-88.8 376.19,-77.49"/>
<polygon fill="#63b8ff" stroke="#63b8ff" points="377.72,-80.66 385.98,-74.02 375.38,-74.06 377.72,-80.66"/>
</a>
</g>
</g>
<!-- Node12 -->
<g id="Node000012" class="node">
<title>Node12</title>
<g id="a_Node000012"><a xlink:title=" ">
<polygon fill="#e0e0e0" stroke="#999999" points="503.5,-74 452.5,-74 452.5,-55 503.5,-55 503.5,-74"/>
<text text-anchor="middle" x="478" y="-62" font-family="Helvetica,sans-Serif" font-size="10.00">cwchar</text>
</a>
</g>
</g>
<!-- Node11&#45;&gt;Node12 -->
<g id="edge13_Node000011_Node000012" class="edge">
<title>Node11&#45;&gt;Node12</title>
<g id="a_edge13_Node000011_Node000012"><a xlink:title=" ">
<path fill="none" stroke="#63b8ff" d="M449.96,-109.84C455.11,-101.69 461.62,-91.4 467.07,-82.78"/>
<polygon fill="#63b8ff" stroke="#63b8ff" points="470.07,-84.59 472.46,-74.27 464.15,-80.85 470.07,-84.59"/>
</a>
</g>
</g>
</g>
</svg>
