<?xml version="1.0" encoding="UTF-8" standalone="no"?>
<!DOCTYPE svg PUBLIC "-//W3C//DTD SVG 1.1//EN"
 "http://www.w3.org/Graphics/SVG/1.1/DTD/svg11.dtd">
<!-- Generated by graphviz version 2.43.0 (0)
 -->
<!-- Title: include/ext/opengl/rendering/shader/OpenGLShader.ixx Pages: 1 -->
<svg width="968pt" height="291pt"
 viewBox="0.00 0.00 968.00 291.00" xmlns="http://www.w3.org/2000/svg" xmlns:xlink="http://www.w3.org/1999/xlink">
<g id="graph0" class="graph" transform="scale(1 1) rotate(0) translate(4 287)">
<title>include/ext/opengl/rendering/shader/OpenGLShader.ixx</title>
<!-- Node1 -->
<g id="Node000001" class="node">
<title>Node1</title>
<g id="a_Node000001"><a xlink:title=" ">
<polygon fill="#999999" stroke="#666666" points="517,-283 323,-283 323,-253 517,-253 517,-283"/>
<text text-anchor="start" x="331" y="-271" font-family="Helvetica,sans-Serif" font-size="10.00">include/ext/opengl</text>
<text text-anchor="middle" x="420" y="-260" font-family="Helvetica,sans-Serif" font-size="10.00">/rendering/shader/OpenGLShader.ixx</text>
</a>
</g>
</g>
<!-- Node2 -->
<g id="Node000002" class="node">
<title>Node2</title>
<g id="a_Node000002"><a xlink:title=" ">
<polygon fill="#e0e0e0" stroke="#999999" points="60,-19 0,-19 0,0 60,0 60,-19"/>
<text text-anchor="middle" x="30" y="-7" font-family="Helvetica,sans-Serif" font-size="10.00">iostream</text>
</a>
</g>
</g>
<!-- Node1&#45;&gt;Node2 -->
<g id="edge1_Node000001_Node000002" class="edge">
<title>Node1&#45;&gt;Node2</title>
<g id="a_edge1_Node000001_Node000002"><a xlink:title=" ">
<path fill="none" stroke="#63b8ff" d="M322.9,-260.06C242.74,-252.85 136.47,-239.41 100,-217 38.42,-179.16 27.18,-153.79 5,-85 0.91,-72.31 1.62,-67.9 5,-55 7.55,-45.26 12.75,-35.41 17.76,-27.46"/>
<polygon fill="#63b8ff" stroke="#63b8ff" points="20.69,-29.37 23.37,-19.12 14.89,-25.46 20.69,-29.37"/>
</a>
</g>
</g>
<!-- Node3 -->
<g id="Node000003" class="node">
<title>Node3</title>
<g id="a_Node000003"><a xlink:href="OpenGLUniformLocationMap_8ixx.html" target="_top" xlink:title=" ">
<polygon fill="white" stroke="#666666" points="604,-217 416,-217 416,-187 604,-187 604,-217"/>
<text text-anchor="start" x="424" y="-205" font-family="Helvetica,sans-Serif" font-size="10.00">helios.ext.opengl.rendering.shader.</text>
<text text-anchor="middle" x="510" y="-194" font-family="Helvetica,sans-Serif" font-size="10.00">OpenGLUniformLocationMap</text>
</a>
</g>
</g>
<!-- Node1&#45;&gt;Node3 -->
<g id="edge2_Node000001_Node000003" class="edge">
<title>Node1&#45;&gt;Node3</title>
<g id="a_edge2_Node000001_Node000003"><a xlink:title=" ">
<path fill="none" stroke="#63b8ff" d="M439.97,-252.8C452.21,-244.1 468.06,-232.82 481.59,-223.2"/>
<polygon fill="#63b8ff" stroke="#63b8ff" points="483.96,-225.81 490.08,-217.16 479.9,-220.11 483.96,-225.81"/>
</a>
</g>
</g>
<!-- Node12 -->
<g id="Node000012" class="node">
<title>Node12</title>
<g id="a_Node000012"><a xlink:href="UniformSemantics_8ixx.html" target="_top" xlink:title=" ">
<polygon fill="white" stroke="#666666" points="960,-85 826,-85 826,-55 960,-55 960,-85"/>
<text text-anchor="start" x="834" y="-73" font-family="Helvetica,sans-Serif" font-size="10.00">helios.rendering.shader.</text>
<text text-anchor="middle" x="893" y="-62" font-family="Helvetica,sans-Serif" font-size="10.00">UniformSemantics</text>
</a>
</g>
</g>
<!-- Node1&#45;&gt;Node12 -->
<g id="edge23_Node000001_Node000012" class="edge">
<title>Node1&#45;&gt;Node12</title>
<g id="a_edge23_Node000001_Node000012"><a xlink:title=" ">
<path fill="none" stroke="#63b8ff" d="M494.7,-253C536.22,-244.35 588.54,-232.04 634,-217 703.92,-193.86 722.3,-187.97 786,-151 816.28,-133.43 848.06,-108.76 869.04,-91.48"/>
<polygon fill="#63b8ff" stroke="#63b8ff" points="871.35,-94.11 876.79,-85.02 866.87,-88.73 871.35,-94.11"/>
</a>
</g>
</g>
<!-- Node14 -->
<g id="Node000014" class="node">
<title>Node14</title>
<g id="a_Node000014"><a xlink:href="UniformValueMap_8ixx.html" target="_top" xlink:title=" ">
<polygon fill="white" stroke="#666666" points="699,-151 565,-151 565,-121 699,-121 699,-151"/>
<text text-anchor="start" x="573" y="-139" font-family="Helvetica,sans-Serif" font-size="10.00">helios.rendering.shader.</text>
<text text-anchor="middle" x="632" y="-128" font-family="Helvetica,sans-Serif" font-size="10.00">UniformValueMap</text>
</a>
</g>
</g>
<!-- Node1&#45;&gt;Node14 -->
<g id="edge16_Node000001_Node000014" class="edge">
<title>Node1&#45;&gt;Node14</title>
<g id="a_edge16_Node000001_Node000014"><a xlink:title=" ">
<path fill="none" stroke="#63b8ff" d="M509.56,-252.95C552.6,-244.44 598.04,-232.27 613,-217 627.31,-202.39 631.56,-179.08 632.52,-161.38"/>
<polygon fill="#63b8ff" stroke="#63b8ff" points="636.02,-161.29 632.75,-151.21 629.02,-161.13 636.02,-161.29"/>
</a>
</g>
</g>
<!-- Node17 -->
<g id="Node000017" class="node">
<title>Node17</title>
<g id="a_Node000017"><a xlink:href="StringFileReader_8ixx.html" target="_top" xlink:title=" ">
<polygon fill="white" stroke="#666666" points="234.5,-217 109.5,-217 109.5,-187 234.5,-187 234.5,-217"/>
<text text-anchor="start" x="117.5" y="-205" font-family="Helvetica,sans-Serif" font-size="10.00">helios.util.io.StringFile</text>
<text text-anchor="middle" x="172" y="-194" font-family="Helvetica,sans-Serif" font-size="10.00">Reader</text>
</a>
</g>
</g>
<!-- Node1&#45;&gt;Node17 -->
<g id="edge24_Node000001_Node000017" class="edge">
<title>Node1&#45;&gt;Node17</title>
<g id="a_edge24_Node000001_Node000017"><a xlink:title=" ">
<path fill="none" stroke="#63b8ff" d="M365.58,-252.95C327.38,-243.1 276.15,-229.88 235.99,-219.51"/>
<polygon fill="#63b8ff" stroke="#63b8ff" points="236.86,-216.12 226.3,-217.01 235.11,-222.9 236.86,-216.12"/>
</a>
</g>
</g>
<!-- Node18 -->
<g id="Node000018" class="node">
<title>Node18</title>
<g id="a_Node000018"><a xlink:href="Shader_8ixx.html" target="_top" xlink:title=" ">
<polygon fill="white" stroke="#666666" points="398,-217 264,-217 264,-187 398,-187 398,-217"/>
<text text-anchor="start" x="272" y="-205" font-family="Helvetica,sans-Serif" font-size="10.00">helios.rendering.shader.</text>
<text text-anchor="middle" x="331" y="-194" font-family="Helvetica,sans-Serif" font-size="10.00">Shader</text>
</a>
</g>
</g>
<!-- Node1&#45;&gt;Node18 -->
<g id="edge28_Node000001_Node000018" class="edge">
<title>Node1&#45;&gt;Node18</title>
<g id="a_edge28_Node000001_Node000018"><a xlink:title=" ">
<path fill="none" stroke="#63b8ff" d="M400.25,-252.8C388.15,-244.1 372.47,-232.82 359.09,-223.2"/>
<polygon fill="#63b8ff" stroke="#63b8ff" points="360.86,-220.16 350.7,-217.16 356.77,-225.84 360.86,-220.16"/>
</a>
</g>
</g>
<!-- Node4 -->
<g id="Node000004" class="node">
<title>Node4</title>
<g id="a_Node000004"><a xlink:title=" ">
<polygon fill="#e0e0e0" stroke="#999999" points="808,-79.5 766,-79.5 766,-60.5 808,-60.5 808,-79.5"/>
<text text-anchor="middle" x="787" y="-67.5" font-family="Helvetica,sans-Serif" font-size="10.00">array</text>
</a>
</g>
</g>
<!-- Node3&#45;&gt;Node4 -->
<g id="edge3_Node000003_Node000004" class="edge">
<title>Node3&#45;&gt;Node4</title>
<g id="a_edge3_Node000003_Node000004"><a xlink:title=" ">
<path fill="none" stroke="#63b8ff" d="M604.17,-188.09C638.43,-180.65 676.45,-169.04 708,-151 736.1,-134.93 760.95,-106.1 774.97,-87.79"/>
<polygon fill="#63b8ff" stroke="#63b8ff" points="777.79,-89.87 780.94,-79.75 772.17,-85.69 777.79,-89.87"/>
</a>
</g>
</g>
<!-- Node5 -->
<g id="Node000005" class="node">
<title>Node5</title>
<g id="a_Node000005"><a xlink:title=" ">
<polygon fill="#e0e0e0" stroke="#999999" points="538,-79.5 482,-79.5 482,-60.5 538,-60.5 538,-79.5"/>
<text text-anchor="middle" x="510" y="-67.5" font-family="Helvetica,sans-Serif" font-size="10.00">optional</text>
</a>
</g>
</g>
<!-- Node3&#45;&gt;Node5 -->
<g id="edge4_Node000003_Node000005" class="edge">
<title>Node3&#45;&gt;Node5</title>
<g id="a_edge4_Node000003_Node000005"><a xlink:title=" ">
<path fill="none" stroke="#63b8ff" d="M510,-186.84C510,-163.34 510,-116.26 510,-89.93"/>
<polygon fill="#63b8ff" stroke="#63b8ff" points="513.5,-89.75 510,-79.75 506.5,-89.75 513.5,-89.75"/>
</a>
</g>
</g>
<!-- Node6 -->
<g id="Node000006" class="node">
<title>Node6</title>
<g id="a_Node000006"><a xlink:href="Logger_8ixx.html" target="_top" xlink:title=" ">
<polygon fill="white" stroke="#666666" points="133.5,-79.5 14.5,-79.5 14.5,-60.5 133.5,-60.5 133.5,-79.5"/>
<text text-anchor="middle" x="74" y="-67.5" font-family="Helvetica,sans-Serif" font-size="10.00">helios.util.log.Logger</text>
</a>
</g>
</g>
<!-- Node3&#45;&gt;Node6 -->
<g id="edge5_Node000003_Node000006" class="edge">
<title>Node3&#45;&gt;Node6</title>
<g id="a_edge5_Node000003_Node000006"><a xlink:title=" ">
<path fill="none" stroke="#63b8ff" d="M418.81,-186.98C354.4,-176.51 274.08,-162.15 242,-151 214.96,-141.6 210.73,-133.55 185,-121 157.7,-107.68 126.06,-93.56 103.57,-83.73"/>
<polygon fill="#63b8ff" stroke="#63b8ff" points="104.79,-80.45 94.22,-79.67 102,-86.86 104.79,-80.45"/>
</a>
</g>
</g>
<!-- Node8 -->
<g id="Node000008" class="node">
<title>Node8</title>
<g id="a_Node000008"><a xlink:href="LogManager_8ixx.html" target="_top" xlink:title=" ">
<polygon fill="white" stroke="#666666" points="397,-145.5 251,-145.5 251,-126.5 397,-126.5 397,-145.5"/>
<text text-anchor="middle" x="324" y="-133.5" font-family="Helvetica,sans-Serif" font-size="10.00">helios.util.log.LogManager</text>
</a>
</g>
</g>
<!-- Node3&#45;&gt;Node8 -->
<g id="edge8_Node000003_Node000008" class="edge">
<title>Node3&#45;&gt;Node8</title>
<g id="a_edge8_Node000003_Node000008"><a xlink:title=" ">
<path fill="none" stroke="#63b8ff" d="M469.18,-186.95C435.99,-175.53 389.68,-159.6 358.36,-148.82"/>
<polygon fill="#63b8ff" stroke="#63b8ff" points="359.35,-145.46 348.75,-145.52 357.07,-152.08 359.35,-145.46"/>
</a>
</g>
</g>
<!-- Node3&#45;&gt;Node12 -->
<g id="edge14_Node000003_Node000012" class="edge">
<title>Node3&#45;&gt;Node12</title>
<g id="a_edge14_Node000003_Node000012"><a xlink:title=" ">
<path fill="none" stroke="#63b8ff" d="M601.14,-186.99C644.04,-178.94 695.44,-167.16 740,-151 784.31,-134.93 831.9,-108.42 862.04,-90.36"/>
<polygon fill="#63b8ff" stroke="#63b8ff" points="864.07,-93.22 870.8,-85.05 860.44,-87.24 864.07,-93.22"/>
</a>
</g>
</g>
<!-- Node6&#45;&gt;Node2 -->
<g id="edge6_Node000006_Node000002" class="edge">
<title>Node6&#45;&gt;Node2</title>
<g id="a_edge6_Node000006_Node000002"><a xlink:title=" ">
<path fill="none" stroke="#63b8ff" d="M67.51,-60.37C61.01,-51.73 50.84,-38.2 42.72,-27.42"/>
<polygon fill="#63b8ff" stroke="#63b8ff" points="45.33,-25.06 36.52,-19.17 39.73,-29.26 45.33,-25.06"/>
</a>
</g>
</g>
<!-- Node7 -->
<g id="Node000007" class="node">
<title>Node7</title>
<g id="a_Node000007"><a xlink:title=" ">
<polygon fill="#e0e0e0" stroke="#999999" points="184,-19 140,-19 140,0 184,0 184,-19"/>
<text text-anchor="middle" x="162" y="-7" font-family="Helvetica,sans-Serif" font-size="10.00">string</text>
</a>
</g>
</g>
<!-- Node6&#45;&gt;Node7 -->
<g id="edge7_Node000006_Node000007" class="edge">
<title>Node6&#45;&gt;Node7</title>
<g id="a_edge7_Node000006_Node000007"><a xlink:title=" ">
<path fill="none" stroke="#63b8ff" d="M86.98,-60.37C101.02,-51.04 123.63,-36.01 140.36,-24.88"/>
<polygon fill="#63b8ff" stroke="#63b8ff" points="142.57,-27.62 148.96,-19.17 138.7,-21.79 142.57,-27.62"/>
</a>
</g>
</g>
<!-- Node8&#45;&gt;Node6 -->
<g id="edge13_Node000008_Node000006" class="edge">
<title>Node8&#45;&gt;Node6</title>
<g id="a_edge13_Node000008_Node000006"><a xlink:title=" ">
<path fill="none" stroke="#63b8ff" d="M290.54,-126.44C245.73,-114.96 166.17,-94.6 116.97,-82"/>
<polygon fill="#63b8ff" stroke="#63b8ff" points="117.81,-78.6 107.26,-79.51 116.08,-85.38 117.81,-78.6"/>
</a>
</g>
</g>
<!-- Node8&#45;&gt;Node7 -->
<g id="edge9_Node000008_Node000007" class="edge">
<title>Node8&#45;&gt;Node7</title>
<g id="a_edge9_Node000008_Node000007"><a xlink:title=" ">
<path fill="none" stroke="#63b8ff" d="M298.19,-126.41C275.92,-118.16 243.7,-104.12 220,-85 199.95,-68.83 182.66,-44.44 172.3,-28.01"/>
<polygon fill="#63b8ff" stroke="#63b8ff" points="175.22,-26.09 167.03,-19.38 169.25,-29.74 175.22,-26.09"/>
</a>
</g>
</g>
<!-- Node9 -->
<g id="Node000009" class="node">
<title>Node9</title>
<g id="a_Node000009"><a xlink:title=" ">
<polygon fill="#e0e0e0" stroke="#999999" points="321.5,-79.5 228.5,-79.5 228.5,-60.5 321.5,-60.5 321.5,-79.5"/>
<text text-anchor="middle" x="275" y="-67.5" font-family="Helvetica,sans-Serif" font-size="10.00">unordered_map</text>
</a>
</g>
</g>
<!-- Node8&#45;&gt;Node9 -->
<g id="edge10_Node000008_Node000009" class="edge">
<title>Node8&#45;&gt;Node9</title>
<g id="a_edge10_Node000008_Node000009"><a xlink:title=" ">
<path fill="none" stroke="#63b8ff" d="M317.39,-126.37C309.91,-116.59 297.53,-100.42 288.07,-88.08"/>
<polygon fill="#63b8ff" stroke="#63b8ff" points="290.68,-85.72 281.82,-79.91 285.12,-89.97 290.68,-85.72"/>
</a>
</g>
</g>
<!-- Node10 -->
<g id="Node000010" class="node">
<title>Node10</title>
<g id="a_Node000010"><a xlink:title=" ">
<polygon fill="#e0e0e0" stroke="#999999" points="464,-79.5 406,-79.5 406,-60.5 464,-60.5 464,-79.5"/>
<text text-anchor="middle" x="435" y="-67.5" font-family="Helvetica,sans-Serif" font-size="10.00">memory</text>
</a>
</g>
</g>
<!-- Node8&#45;&gt;Node10 -->
<g id="edge11_Node000008_Node000010" class="edge">
<title>Node8&#45;&gt;Node10</title>
<g id="a_edge11_Node000008_Node000010"><a xlink:title=" ">
<path fill="none" stroke="#63b8ff" d="M338.97,-126.37C357.51,-115.68 389.31,-97.35 411.2,-84.72"/>
<polygon fill="#63b8ff" stroke="#63b8ff" points="413,-87.73 419.91,-79.7 409.5,-81.66 413,-87.73"/>
</a>
</g>
</g>
<!-- Node11 -->
<g id="Node000011" class="node">
<title>Node11</title>
<g id="a_Node000011"><a xlink:title=" ">
<polygon fill="#e0e0e0" stroke="#999999" points="388,-79.5 340,-79.5 340,-60.5 388,-60.5 388,-79.5"/>
<text text-anchor="middle" x="364" y="-67.5" font-family="Helvetica,sans-Serif" font-size="10.00">mutex</text>
</a>
</g>
</g>
<!-- Node8&#45;&gt;Node11 -->
<g id="edge12_Node000008_Node000011" class="edge">
<title>Node8&#45;&gt;Node11</title>
<g id="a_edge12_Node000008_Node000011"><a xlink:title=" ">
<path fill="none" stroke="#63b8ff" d="M329.39,-126.37C335.44,-116.69 345.41,-100.74 353.1,-88.44"/>
<polygon fill="#63b8ff" stroke="#63b8ff" points="356.1,-90.24 358.43,-79.91 350.17,-86.53 356.1,-90.24"/>
</a>
</g>
</g>
<!-- Node13 -->
<g id="Node000013" class="node">
<title>Node13</title>
<g id="a_Node000013"><a xlink:title=" ">
<polygon fill="#e0e0e0" stroke="#999999" points="918.5,-19 867.5,-19 867.5,0 918.5,0 918.5,-19"/>
<text text-anchor="middle" x="893" y="-7" font-family="Helvetica,sans-Serif" font-size="10.00">cwchar</text>
</a>
</g>
</g>
<!-- Node12&#45;&gt;Node13 -->
<g id="edge15_Node000012_Node000013" class="edge">
<title>Node12&#45;&gt;Node13</title>
<g id="a_edge15_Node000012_Node000013"><a xlink:title=" ">
<path fill="none" stroke="#63b8ff" d="M893,-54.84C893,-47.21 893,-37.7 893,-29.45"/>
<polygon fill="#63b8ff" stroke="#63b8ff" points="896.5,-29.27 893,-19.27 889.5,-29.27 896.5,-29.27"/>
</a>
</g>
</g>
<!-- Node14&#45;&gt;Node4 -->
<g id="edge17_Node000014_Node000004" class="edge">
<title>Node14&#45;&gt;Node4</title>
<g id="a_edge17_Node000014_Node000004"><a xlink:title=" ">
<path fill="none" stroke="#63b8ff" d="M668.6,-120.99C693.64,-111.24 727.51,-97.77 757,-85 757.85,-84.63 758.72,-84.25 759.59,-83.87"/>
<polygon fill="#63b8ff" stroke="#63b8ff" points="761.33,-86.92 768.99,-79.6 758.44,-80.55 761.33,-86.92"/>
</a>
</g>
</g>
<!-- Node14&#45;&gt;Node5 -->
<g id="edge18_Node000014_Node000005" class="edge">
<title>Node14&#45;&gt;Node5</title>
<g id="a_edge18_Node000014_Node000005"><a xlink:title=" ">
<path fill="none" stroke="#63b8ff" d="M605.23,-120.95C584.4,-110.03 555.69,-94.97 535.26,-84.25"/>
<polygon fill="#63b8ff" stroke="#63b8ff" points="536.72,-81.06 526.24,-79.52 533.47,-87.26 536.72,-81.06"/>
</a>
</g>
</g>
<!-- Node14&#45;&gt;Node12 -->
<g id="edge22_Node000014_Node000012" class="edge">
<title>Node14&#45;&gt;Node12</title>
<g id="a_edge22_Node000014_Node000012"><a xlink:title=" ">
<path fill="none" stroke="#63b8ff" d="M689.28,-120.95C729.56,-111.08 783.62,-97.82 825.92,-87.45"/>
<polygon fill="#63b8ff" stroke="#63b8ff" points="826.98,-90.79 835.86,-85.01 825.31,-83.99 826.98,-90.79"/>
</a>
</g>
</g>
<!-- Node15 -->
<g id="Node000015" class="node">
<title>Node15</title>
<g id="a_Node000015"><a xlink:title=" ">
<polygon fill="#e0e0e0" stroke="#999999" points="607.5,-79.5 556.5,-79.5 556.5,-60.5 607.5,-60.5 607.5,-79.5"/>
<text text-anchor="middle" x="582" y="-67.5" font-family="Helvetica,sans-Serif" font-size="10.00">variant</text>
</a>
</g>
</g>
<!-- Node14&#45;&gt;Node15 -->
<g id="edge19_Node000014_Node000015" class="edge">
<title>Node14&#45;&gt;Node15</title>
<g id="a_edge19_Node000014_Node000015"><a xlink:title=" ">
<path fill="none" stroke="#63b8ff" d="M620.9,-120.8C613.34,-111.11 603.28,-98.24 595.29,-88.01"/>
<polygon fill="#63b8ff" stroke="#63b8ff" points="597.82,-85.57 588.91,-79.84 592.31,-89.88 597.82,-85.57"/>
</a>
</g>
</g>
<!-- Node16 -->
<g id="Node000016" class="node">
<title>Node16</title>
<g id="a_Node000016"><a xlink:href="math_2types_2__module_8ixx.html" target="_top" xlink:title=" ">
<polygon fill="white" stroke="#666666" points="730,-79.5 626,-79.5 626,-60.5 730,-60.5 730,-79.5"/>
<text text-anchor="middle" x="678" y="-67.5" font-family="Helvetica,sans-Serif" font-size="10.00">helios.math.types</text>
</a>
</g>
</g>
<!-- Node14&#45;&gt;Node16 -->
<g id="edge20_Node000014_Node000016" class="edge">
<title>Node14&#45;&gt;Node16</title>
<g id="a_edge20_Node000014_Node000016"><a xlink:title=" ">
<path fill="none" stroke="#63b8ff" d="M642.21,-120.8C649.17,-111.11 658.42,-98.24 665.77,-88.01"/>
<polygon fill="#63b8ff" stroke="#63b8ff" points="668.65,-90.01 671.64,-79.84 662.96,-85.92 668.65,-90.01"/>
</a>
</g>
</g>
<!-- Node16&#45;&gt;Node16 -->
<g id="edge21_Node000016_Node000016" class="edge">
<title>Node16&#45;&gt;Node16</title>
<g id="a_edge21_Node000016_Node000016"><a xlink:title=" ">
<path fill="none" stroke="#63b8ff" d="M703.85,-79.53C725.44,-83.61 748,-80.43 748,-70 748,-61.2 731.94,-57.56 713.95,-59.09"/>
<polygon fill="#63b8ff" stroke="#63b8ff" points="713.28,-55.65 703.85,-60.47 714.23,-62.58 713.28,-55.65"/>
</a>
</g>
</g>
<!-- Node17&#45;&gt;Node6 -->
<g id="edge27_Node000017_Node000006" class="edge">
<title>Node17&#45;&gt;Node6</title>
<g id="a_edge27_Node000017_Node000006"><a xlink:title=" ">
<path fill="none" stroke="#63b8ff" d="M147.81,-186.85C134.32,-177.97 118.07,-165.47 107,-151 92.77,-132.4 83.63,-106.8 78.67,-89.61"/>
<polygon fill="#63b8ff" stroke="#63b8ff" points="81.97,-88.43 75.99,-79.69 75.21,-90.26 81.97,-88.43"/>
</a>
</g>
</g>
<!-- Node17&#45;&gt;Node7 -->
<g id="edge25_Node000017_Node000007" class="edge">
<title>Node17&#45;&gt;Node7</title>
<g id="a_edge25_Node000017_Node000007"><a xlink:title=" ">
<path fill="none" stroke="#63b8ff" d="M171.26,-186.99C169.5,-153.35 165.02,-67.97 163,-29.64"/>
<polygon fill="#63b8ff" stroke="#63b8ff" points="166.48,-29.16 162.47,-19.36 159.49,-29.53 166.48,-29.16"/>
</a>
</g>
</g>
<!-- Node17&#45;&gt;Node8 -->
<g id="edge26_Node000017_Node000008" class="edge">
<title>Node17&#45;&gt;Node8</title>
<g id="a_edge26_Node000017_Node000008"><a xlink:title=" ">
<path fill="none" stroke="#63b8ff" d="M205.36,-186.95C231.9,-175.78 268.69,-160.29 294.24,-149.53"/>
<polygon fill="#63b8ff" stroke="#63b8ff" points="295.91,-152.62 303.77,-145.52 293.2,-146.17 295.91,-152.62"/>
</a>
</g>
</g>
<!-- Node18&#45;&gt;Node5 -->
<g id="edge30_Node000018_Node000005" class="edge">
<title>Node18&#45;&gt;Node5</title>
<g id="a_edge30_Node000018_Node000005"><a xlink:title=" ">
<path fill="none" stroke="#63b8ff" d="M363.46,-186.95C382.72,-177.94 407.17,-165.27 427,-151 453.67,-131.82 480.26,-104.34 495.91,-87.1"/>
<polygon fill="#63b8ff" stroke="#63b8ff" points="498.61,-89.33 502.67,-79.54 493.39,-84.66 498.61,-89.33"/>
</a>
</g>
</g>
<!-- Node18&#45;&gt;Node6 -->
<g id="edge32_Node000018_Node000006" class="edge">
<title>Node18&#45;&gt;Node6</title>
<g id="a_edge32_Node000018_Node000006"><a xlink:title=" ">
<path fill="none" stroke="#63b8ff" d="M284.18,-186.99C257.16,-178.15 222.91,-165.65 194,-151 156.34,-131.92 116.23,-103.27 93.24,-85.93"/>
<polygon fill="#63b8ff" stroke="#63b8ff" points="95.1,-82.95 85.03,-79.67 90.86,-88.52 95.1,-82.95"/>
</a>
</g>
</g>
<!-- Node18&#45;&gt;Node8 -->
<g id="edge33_Node000018_Node000008" class="edge">
<title>Node18&#45;&gt;Node8</title>
<g id="a_edge33_Node000018_Node000008"><a xlink:title=" ">
<path fill="none" stroke="#63b8ff" d="M329.45,-186.8C328.45,-177.7 327.15,-165.79 326.07,-155.9"/>
<polygon fill="#63b8ff" stroke="#63b8ff" points="329.53,-155.4 324.97,-145.84 322.58,-156.17 329.53,-155.4"/>
</a>
</g>
</g>
<!-- Node18&#45;&gt;Node10 -->
<g id="edge29_Node000018_Node000010" class="edge">
<title>Node18&#45;&gt;Node10</title>
<g id="a_edge29_Node000018_Node000010"><a xlink:title=" ">
<path fill="none" stroke="#63b8ff" d="M361.08,-186.8C376.34,-178.28 394.12,-166.14 406,-151 420.29,-132.79 427.95,-106.9 431.74,-89.56"/>
<polygon fill="#63b8ff" stroke="#63b8ff" points="435.21,-90.05 433.71,-79.56 428.35,-88.7 435.21,-90.05"/>
</a>
</g>
</g>
<!-- Node18&#45;&gt;Node14 -->
<g id="edge31_Node000018_Node000014" class="edge">
<title>Node18&#45;&gt;Node14</title>
<g id="a_edge31_Node000018_Node000014"><a xlink:title=" ">
<path fill="none" stroke="#63b8ff" d="M397.06,-186.95C444.01,-176.97 507.17,-163.54 556.18,-153.12"/>
<polygon fill="#63b8ff" stroke="#63b8ff" points="557.04,-156.52 566.1,-151.01 555.59,-149.67 557.04,-156.52"/>
</a>
</g>
</g>
</g>
</svg>
