<?xml version="1.0" encoding="UTF-8" standalone="no"?>
<!DOCTYPE svg PUBLIC "-//W3C//DTD SVG 1.1//EN"
 "http://www.w3.org/Graphics/SVG/1.1/DTD/svg11.dtd">
<!-- Generated by graphviz version 2.43.0 (0)
 -->
<!-- Title: include/ext/opengl/rendering/model/OpenGLMesh.ixx Pages: 1 -->
<!--zoomable 282 -->

<svg id="main" version="1.1" xmlns="http://www.w3.org/2000/svg" xmlns:xlink="http://www.w3.org/1999/xlink" xml:space="preserve" onload="init(evt)">

<style type="text/css"><![CDATA[
.node, .edge {opacity: 0.7;}
.node.selected, .edge.selected {opacity: 1;}
.edge:hover path { stroke: red; }
.edge:hover polygon { stroke: red; fill: red; }
]]></style>

<defs>
  <circle id="rim" cx="0" cy="0" r="7"/>
  <circle id="rim2" cx="0" cy="0" r="3.5"/>
  <g id="zoomPlus">
    <use xlink:href="#rim" fill="#404040"><set attributeName="fill" to="#808080" begin="zoomplus.mouseover" end="zoomplus.mouseout"/></use>
    <path d="M-4,0h8M0,-4v8" fill="none" stroke="white" stroke-width="1.5" pointer-events="none"/>
  </g>
  <g id="zoomMin">
    <use xlink:href="#rim" fill="#404040"><set attributeName="fill" to="#808080" begin="zoomminus.mouseover" end="zoomminus.mouseout"/></use>
    <path d="M-4,0h8" fill="none" stroke="white" stroke-width="1.5" pointer-events="none"/>
  </g>
  <g id="arrowUp" transform="translate(30 24)">
    <use xlink:href="#rim"/>
    <path pointer-events="none" fill="none" stroke="white" stroke-width="1.5" d="M0,-3.0v7 M-2.5,-0.5L0,-3.0L2.5,-0.5"/>
  </g>
  <g id="arrowRight" transform="rotate(90) translate(36 -43)">
    <use xlink:href="#rim"/>
    <path pointer-events="none" fill="none" stroke="white" stroke-width="1.5" d="M0,-3.0v7 M-2.5,-0.5L0,-3.0L2.5,-0.5"/>
  </g>
  <g id="arrowDown" transform="rotate(180) translate(-30 -48)">
    <use xlink:href="#rim"/>
    <path pointer-events="none" fill="none" stroke="white" stroke-width="1.5" d="M0,-3.0v7 M-2.5,-0.5L0,-3.0L2.5,-0.5"/>
  </g>
  <g id="arrowLeft" transform="rotate(270) translate(-36 17)">
    <use xlink:href="#rim"/>
    <path pointer-events="none" fill="none" stroke="white" stroke-width="1.5" d="M0,-3.0v7 M-2.5,-0.5L0,-3.0L2.5,-0.5"/>
  </g>
  <g id="resetDef">
    <use xlink:href="#rim2" fill="#404040"><set attributeName="fill" to="#808080" begin="reset.mouseover" end="reset.mouseout"/></use>
  </g>
</defs>
<script type="application/ecmascript">
var viewWidth = 947;
var viewHeight = 282;
var sectionId = 'dynsection-0';
</script>
<script type="application/ecmascript" xlink:href="svg.min.js"/>
<svg id="graph" class="graph">
<g id="viewport">
<title>include/ext/opengl/rendering/model/OpenGLMesh.ixx</title>
<!-- Node1 -->
<g id="Node000001" class="node">
<title>Node1</title>
<g id="a_Node000001"><a xlink:title=" ">
<polygon fill="#999999" stroke="#666666" points="488.81,-274.17 303.81,-274.17 303.81,-244.17 488.81,-244.17 488.81,-274.17"/>
<text text-anchor="start" x="311.81" y="-262.17" font-family="Helvetica,sans-Serif" font-size="10.00">include/ext/opengl</text>
<text text-anchor="middle" x="396.31" y="-251.17" font-family="Helvetica,sans-Serif" font-size="10.00">/rendering/model/OpenGLMesh.ixx</text>
</a>
</g>
</g>
<!-- Node2 -->
<g id="Node000002" class="node">
<title>Node2</title>
<g id="a_Node000002"><a xlink:title=" ">
<polygon fill="#e0e0e0" stroke="#999999" points="585.31,-81.67 527.31,-81.67 527.31,-62.67 585.31,-62.67 585.31,-81.67"/>
<text text-anchor="middle" x="556.31" y="-69.67" font-family="Helvetica,sans-Serif" font-size="10.00">memory</text>
</a>
</g>
</g>
<!-- Node1&#45;&gt;Node2 -->
<g id="edge1_Node000001_Node000002" class="edge">
<title>Node1&#45;&gt;Node2</title>
<g id="a_edge1_Node000001_Node000002"><a xlink:title=" ">
<path fill="none" stroke="#63b8ff" d="M488.82,-246.27C540.63,-237.91 598.67,-225.18 618.31,-208.17 647.72,-182.7 658.45,-157.05 639.31,-123.17 633.11,-112.2 605.73,-96.95 584.09,-86.18"/>
<polygon fill="#63b8ff" stroke="#63b8ff" points="585.47,-82.96 574.95,-81.72 582.41,-89.25 585.47,-82.96"/>
</a>
</g>
</g>
<!-- Node3 -->
<g id="Node000003" class="node">
<title>Node3</title>
<g id="a_Node000003"><a xlink:title=" ">
<polygon fill="#e0e0e0" stroke="#999999" points="140.81,-81.67 93.81,-81.67 93.81,-62.67 140.81,-62.67 140.81,-81.67"/>
<text text-anchor="middle" x="117.31" y="-69.67" font-family="Helvetica,sans-Serif" font-size="10.00">vector</text>
</a>
</g>
</g>
<!-- Node1&#45;&gt;Node3 -->
<g id="edge2_Node000001_Node000003" class="edge">
<title>Node1&#45;&gt;Node3</title>
<g id="a_edge2_Node000001_Node000003"><a xlink:title=" ">
<path fill="none" stroke="#63b8ff" d="M303.36,-246.19C199.83,-230.72 42.24,-200.06 6.31,-153.17 -19.06,-120.08 42.54,-94.76 83.78,-82.11"/>
<polygon fill="#63b8ff" stroke="#63b8ff" points="84.9,-85.43 93.5,-79.24 82.92,-78.71 84.9,-85.43"/>
</a>
</g>
</g>
<!-- Node4 -->
<g id="Node000004" class="node">
<title>Node4</title>
<g id="a_Node000004"><a xlink:href="Vertex_8ixx.html" target="_top" xlink:title=" ">
<polygon fill="white" stroke="#666666" points="471.31,-81.67 341.31,-81.67 341.31,-62.67 471.31,-62.67 471.31,-81.67"/>
<text text-anchor="middle" x="406.31" y="-69.67" font-family="Helvetica,sans-Serif" font-size="10.00">helios.rendering.Vertex</text>
</a>
</g>
</g>
<!-- Node1&#45;&gt;Node4 -->
<g id="edge3_Node000001_Node000004" class="edge">
<title>Node1&#45;&gt;Node4</title>
<g id="a_edge3_Node000001_Node000004"><a xlink:title=" ">
<path fill="none" stroke="#63b8ff" d="M397.62,-243.92C399.44,-223.74 402.66,-185.68 404.31,-153.17 405.36,-132.41 405.86,-108.58 406.1,-92.37"/>
<polygon fill="#63b8ff" stroke="#63b8ff" points="409.61,-92.1 406.23,-82.06 402.61,-92.01 409.61,-92.1"/>
</a>
</g>
</g>
<!-- Node6 -->
<g id="Node000006" class="node">
<title>Node6</title>
<g id="a_Node000006"><a xlink:href="Shape_8ixx.html" target="_top" xlink:title=" ">
<polygon fill="white" stroke="#666666" points="395.31,-153.17 235.31,-153.17 235.31,-123.17 395.31,-123.17 395.31,-153.17"/>
<text text-anchor="start" x="243.31" y="-141.17" font-family="Helvetica,sans-Serif" font-size="10.00">helios.rendering.asset.shape.</text>
<text text-anchor="middle" x="315.31" y="-130.17" font-family="Helvetica,sans-Serif" font-size="10.00">Shape</text>
</a>
</g>
</g>
<!-- Node1&#45;&gt;Node6 -->
<g id="edge6_Node000001_Node000006" class="edge">
<title>Node1&#45;&gt;Node6</title>
<g id="a_edge6_Node000001_Node000006"><a xlink:title=" ">
<path fill="none" stroke="#63b8ff" d="M386.7,-244.06C372.87,-223.75 347.23,-186.07 330.73,-161.84"/>
<polygon fill="#63b8ff" stroke="#63b8ff" points="333.42,-159.57 324.9,-153.27 327.64,-163.51 333.42,-159.57"/>
</a>
</g>
</g>
<!-- Node8 -->
<g id="Node000008" class="node">
<title>Node8</title>
<g id="a_Node000008"><a xlink:href="MeshConfig_8ixx.html" target="_top" xlink:title=" ">
<polygon fill="white" stroke="#666666" points="179.31,-153.17 15.31,-153.17 15.31,-123.17 179.31,-123.17 179.31,-153.17"/>
<text text-anchor="start" x="23.31" y="-141.17" font-family="Helvetica,sans-Serif" font-size="10.00">helios.rendering.model.config.</text>
<text text-anchor="middle" x="97.31" y="-130.17" font-family="Helvetica,sans-Serif" font-size="10.00">MeshConfig</text>
</a>
</g>
</g>
<!-- Node1&#45;&gt;Node8 -->
<g id="edge11_Node000001_Node000008" class="edge">
<title>Node1&#45;&gt;Node8</title>
<g id="a_edge11_Node000001_Node000008"><a xlink:title=" ">
<path fill="none" stroke="#63b8ff" d="M361.13,-244.17C306.73,-222.52 202.24,-180.94 142.38,-157.11"/>
<polygon fill="#63b8ff" stroke="#63b8ff" points="143.4,-153.75 132.81,-153.31 140.81,-160.26 143.4,-153.75"/>
</a>
</g>
</g>
<!-- Node9 -->
<g id="Node000009" class="node">
<title>Node9</title>
<g id="a_Node000009"><a xlink:href="Mesh_8ixx.html" target="_top" xlink:title=" ">
<polygon fill="white" stroke="#666666" points="609.31,-208.17 451.31,-208.17 451.31,-189.17 609.31,-189.17 609.31,-208.17"/>
<text text-anchor="middle" x="530.31" y="-196.17" font-family="Helvetica,sans-Serif" font-size="10.00">helios.rendering.model.Mesh</text>
</a>
</g>
</g>
<!-- Node1&#45;&gt;Node9 -->
<g id="edge13_Node000001_Node000009" class="edge">
<title>Node1&#45;&gt;Node9</title>
<g id="a_edge13_Node000001_Node000009"><a xlink:title=" ">
<path fill="none" stroke="#63b8ff" d="M428.4,-244.16C450.56,-234.49 479.78,-221.73 501.25,-212.36"/>
<polygon fill="#63b8ff" stroke="#63b8ff" points="502.75,-215.52 510.52,-208.31 499.95,-209.11 502.75,-215.52"/>
</a>
</g>
</g>
<!-- Node5 -->
<g id="Node000005" class="node">
<title>Node5</title>
<g id="a_Node000005"><a xlink:href="math_2types_2__module_8ixx.html" target="_top" xlink:title=" ">
<polygon fill="white" stroke="#666666" points="505.31,-21.17 401.31,-21.17 401.31,-2.17 505.31,-2.17 505.31,-21.17"/>
<text text-anchor="middle" x="453.31" y="-9.17" font-family="Helvetica,sans-Serif" font-size="10.00">helios.math.types</text>
</a>
</g>
</g>
<!-- Node4&#45;&gt;Node5 -->
<g id="edge4_Node000004_Node000005" class="edge">
<title>Node4&#45;&gt;Node5</title>
<g id="a_edge4_Node000004_Node000005"><a xlink:title=" ">
<path fill="none" stroke="#63b8ff" d="M413.24,-62.54C420.25,-53.82 431.27,-40.11 439.98,-29.27"/>
<polygon fill="#63b8ff" stroke="#63b8ff" points="442.81,-31.33 446.34,-21.34 437.35,-26.95 442.81,-31.33"/>
</a>
</g>
</g>
<!-- Node5&#45;&gt;Node5 -->
<g id="edge5_Node000005_Node000005" class="edge">
<title>Node5&#45;&gt;Node5</title>
<g id="a_edge5_Node000005_Node000005"><a xlink:title=" ">
<path fill="none" stroke="#63b8ff" d="M479.15,-21.21C500.75,-25.28 523.31,-22.1 523.31,-11.67 523.31,-2.87 507.24,0.76 489.26,-0.76"/>
<polygon fill="#63b8ff" stroke="#63b8ff" points="488.59,2.68 479.15,-2.14 489.53,-4.26 488.59,2.68"/>
</a>
</g>
</g>
<!-- Node6&#45;&gt;Node2 -->
<g id="edge7_Node000006_Node000002" class="edge">
<title>Node6&#45;&gt;Node2</title>
<g id="a_edge7_Node000006_Node000002"><a xlink:title=" ">
<path fill="none" stroke="#63b8ff" d="M368.2,-123.13C413.29,-111.16 477.05,-94.22 517.54,-83.47"/>
<polygon fill="#63b8ff" stroke="#63b8ff" points="518.53,-86.83 527.3,-80.88 516.74,-80.06 518.53,-86.83"/>
</a>
</g>
</g>
<!-- Node6&#45;&gt;Node3 -->
<g id="edge8_Node000006_Node000003" class="edge">
<title>Node6&#45;&gt;Node3</title>
<g id="a_edge8_Node000006_Node000003"><a xlink:title=" ">
<path fill="none" stroke="#63b8ff" d="M263.93,-123.14C231.13,-113.8 187.87,-100.79 150.31,-87.17 148.92,-86.67 147.5,-86.14 146.08,-85.59"/>
<polygon fill="#63b8ff" stroke="#63b8ff" points="147.3,-82.31 136.71,-81.82 144.68,-88.8 147.3,-82.31"/>
</a>
</g>
</g>
<!-- Node6&#45;&gt;Node4 -->
<g id="edge10_Node000006_Node000004" class="edge">
<title>Node6&#45;&gt;Node4</title>
<g id="a_edge10_Node000006_Node000004"><a xlink:title=" ">
<path fill="none" stroke="#63b8ff" d="M335.5,-122.97C350.33,-112.54 370.42,-98.41 385.41,-87.87"/>
<polygon fill="#63b8ff" stroke="#63b8ff" points="387.83,-90.45 394,-81.83 383.8,-84.72 387.83,-90.45"/>
</a>
</g>
</g>
<!-- Node7 -->
<g id="Node000007" class="node">
<title>Node7</title>
<g id="a_Node000007"><a xlink:href="PrimitiveType_8ixx.html" target="_top" xlink:title=" ">
<polygon fill="white" stroke="#666666" points="323.31,-87.17 159.31,-87.17 159.31,-57.17 323.31,-57.17 323.31,-87.17"/>
<text text-anchor="start" x="167.31" y="-75.17" font-family="Helvetica,sans-Serif" font-size="10.00">helios.rendering.model.config.</text>
<text text-anchor="middle" x="241.31" y="-64.17" font-family="Helvetica,sans-Serif" font-size="10.00">PrimitiveType</text>
</a>
</g>
</g>
<!-- Node6&#45;&gt;Node7 -->
<g id="edge9_Node000006_Node000007" class="edge">
<title>Node6&#45;&gt;Node7</title>
<g id="a_edge9_Node000006_Node000007"><a xlink:title=" ">
<path fill="none" stroke="#63b8ff" d="M298.88,-122.97C289.02,-114.44 276.28,-103.43 265.3,-93.93"/>
<polygon fill="#63b8ff" stroke="#63b8ff" points="267.54,-91.23 257.68,-87.34 262.96,-96.53 267.54,-91.23"/>
</a>
</g>
</g>
<!-- Node8&#45;&gt;Node7 -->
<g id="edge12_Node000008_Node000007" class="edge">
<title>Node8&#45;&gt;Node7</title>
<g id="a_edge12_Node000008_Node000007"><a xlink:title=" ">
<path fill="none" stroke="#63b8ff" d="M128.91,-123.13C149.92,-113.79 177.71,-101.44 200.4,-91.36"/>
<polygon fill="#63b8ff" stroke="#63b8ff" points="202.06,-94.45 209.78,-87.19 199.22,-88.05 202.06,-94.45"/>
</a>
</g>
</g>
<!-- Node9&#45;&gt;Node2 -->
<g id="edge14_Node000009_Node000002" class="edge">
<title>Node9&#45;&gt;Node2</title>
<g id="a_edge14_Node000009_Node000002"><a xlink:title=" ">
<path fill="none" stroke="#63b8ff" d="M532.09,-189.12C536.27,-169.13 546.74,-118.99 552.45,-91.65"/>
<polygon fill="#63b8ff" stroke="#63b8ff" points="555.89,-92.3 554.51,-81.79 549.04,-90.87 555.89,-92.3"/>
</a>
</g>
</g>
<!-- Node9&#45;&gt;Node3 -->
<g id="edge16_Node000009_Node000003" class="edge">
<title>Node9&#45;&gt;Node3</title>
<g id="a_edge16_Node000009_Node000003"><a xlink:title=" ">
<path fill="none" stroke="#63b8ff" d="M451.07,-197.22C387.87,-194.27 298.32,-184.2 226.31,-153.17 206.55,-144.66 205.55,-136.04 188.31,-123.17 171.85,-110.9 152.81,-97.54 138.6,-87.72"/>
<polygon fill="#63b8ff" stroke="#63b8ff" points="140.25,-84.6 130.02,-81.82 136.28,-90.37 140.25,-84.6"/>
</a>
</g>
</g>
<!-- Node9&#45;&gt;Node4 -->
<g id="edge26_Node000009_Node000004" class="edge">
<title>Node9&#45;&gt;Node4</title>
<g id="a_edge26_Node000009_Node000004"><a xlink:title=" ">
<path fill="none" stroke="#63b8ff" d="M521.65,-189.17C512.57,-180.24 497.89,-165.77 485.31,-153.17 463.45,-131.31 438.4,-105.87 422.47,-89.66"/>
<polygon fill="#63b8ff" stroke="#63b8ff" points="424.54,-86.77 415.04,-82.09 419.55,-91.68 424.54,-86.77"/>
</a>
</g>
</g>
<!-- Node9&#45;&gt;Node5 -->
<g id="edge29_Node000009_Node000005" class="edge">
<title>Node9&#45;&gt;Node5</title>
<g id="a_edge29_Node000009_Node000005"><a xlink:title=" ">
<path fill="none" stroke="#63b8ff" d="M527.86,-188.88C521.45,-166.37 503.09,-105.11 480.31,-57.17 475.85,-47.79 469.94,-37.86 464.8,-29.76"/>
<polygon fill="#63b8ff" stroke="#63b8ff" points="467.63,-27.7 459.23,-21.25 461.77,-31.53 467.63,-27.7"/>
</a>
</g>
</g>
<!-- Node9&#45;&gt;Node6 -->
<g id="edge27_Node000009_Node000006" class="edge">
<title>Node9&#45;&gt;Node6</title>
<g id="a_edge27_Node000009_Node000006"><a xlink:title=" ">
<path fill="none" stroke="#63b8ff" d="M499.04,-189.17C467.09,-180.47 416.62,-166.74 376.65,-155.87"/>
<polygon fill="#63b8ff" stroke="#63b8ff" points="377.56,-152.49 367,-153.24 375.73,-159.24 377.56,-152.49"/>
</a>
</g>
</g>
<!-- Node9&#45;&gt;Node8 -->
<g id="edge28_Node000009_Node000008" class="edge">
<title>Node9&#45;&gt;Node8</title>
<g id="a_edge28_Node000009_Node000008"><a xlink:title=" ">
<path fill="none" stroke="#63b8ff" d="M463.77,-189.16C395.77,-180.39 287.12,-166.21 193.31,-153.17 192.04,-153 190.76,-152.82 189.48,-152.64"/>
<polygon fill="#63b8ff" stroke="#63b8ff" points="189.91,-149.17 179.52,-151.24 188.93,-156.1 189.91,-149.17"/>
</a>
</g>
</g>
<!-- Node10 -->
<g id="Node000010" class="node">
<title>Node10</title>
<g id="a_Node000010"><a xlink:title=" ">
<polygon fill="#e0e0e0" stroke="#999999" points="630.81,-147.67 565.81,-147.67 565.81,-128.67 630.81,-128.67 630.81,-147.67"/>
<text text-anchor="middle" x="598.31" y="-135.67" font-family="Helvetica,sans-Serif" font-size="10.00">stdexcept</text>
</a>
</g>
</g>
<!-- Node9&#45;&gt;Node10 -->
<g id="edge15_Node000009_Node000010" class="edge">
<title>Node9&#45;&gt;Node10</title>
<g id="a_edge15_Node000009_Node000010"><a xlink:title=" ">
<path fill="none" stroke="#63b8ff" d="M540.34,-189.04C550.89,-179.97 567.69,-165.51 580.5,-154.49"/>
<polygon fill="#63b8ff" stroke="#63b8ff" points="582.93,-157.02 588.23,-147.84 578.37,-151.71 582.93,-157.02"/>
</a>
</g>
</g>
<!-- Node11 -->
<g id="Node000011" class="node">
<title>Node11</title>
<g id="a_Node000011"><a xlink:href="Logger_8ixx.html" target="_top" xlink:title=" ">
<polygon fill="white" stroke="#666666" points="938.81,-81.67 819.81,-81.67 819.81,-62.67 938.81,-62.67 938.81,-81.67"/>
<text text-anchor="middle" x="879.31" y="-69.67" font-family="Helvetica,sans-Serif" font-size="10.00">helios.util.log.Logger</text>
</a>
</g>
</g>
<!-- Node9&#45;&gt;Node11 -->
<g id="edge17_Node000009_Node000011" class="edge">
<title>Node9&#45;&gt;Node11</title>
<g id="a_edge17_Node000009_Node000011"><a xlink:title=" ">
<path fill="none" stroke="#63b8ff" d="M609.38,-194.88C689.47,-190.59 806.47,-179.83 842.31,-153.17 862.12,-138.43 871.66,-110.48 876,-91.83"/>
<polygon fill="#63b8ff" stroke="#63b8ff" points="879.47,-92.36 878.04,-81.86 872.61,-90.96 879.47,-92.36"/>
</a>
</g>
</g>
<!-- Node14 -->
<g id="Node000014" class="node">
<title>Node14</title>
<g id="a_Node000014"><a xlink:href="LogManager_8ixx.html" target="_top" xlink:title=" ">
<polygon fill="white" stroke="#666666" points="833.31,-147.67 687.31,-147.67 687.31,-128.67 833.31,-128.67 833.31,-147.67"/>
<text text-anchor="middle" x="760.31" y="-135.67" font-family="Helvetica,sans-Serif" font-size="10.00">helios.util.log.LogManager</text>
</a>
</g>
</g>
<!-- Node9&#45;&gt;Node14 -->
<g id="edge20_Node000009_Node000014" class="edge">
<title>Node9&#45;&gt;Node14</title>
<g id="a_edge20_Node000009_Node000014"><a xlink:title=" ">
<path fill="none" stroke="#63b8ff" d="M563.75,-189.17C604.21,-178.88 672.4,-161.53 716.88,-150.22"/>
<polygon fill="#63b8ff" stroke="#63b8ff" points="717.99,-153.55 726.82,-147.69 716.27,-146.76 717.99,-153.55"/>
</a>
</g>
</g>
<!-- Node12 -->
<g id="Node000012" class="node">
<title>Node12</title>
<g id="a_Node000012"><a xlink:title=" ">
<polygon fill="#e0e0e0" stroke="#999999" points="909.31,-21.17 849.31,-21.17 849.31,-2.17 909.31,-2.17 909.31,-21.17"/>
<text text-anchor="middle" x="879.31" y="-9.17" font-family="Helvetica,sans-Serif" font-size="10.00">iostream</text>
</a>
</g>
</g>
<!-- Node11&#45;&gt;Node12 -->
<g id="edge18_Node000011_Node000012" class="edge">
<title>Node11&#45;&gt;Node12</title>
<g id="a_edge18_Node000011_Node000012"><a xlink:title=" ">
<path fill="none" stroke="#63b8ff" d="M879.31,-62.54C879.31,-54.42 879.31,-41.98 879.31,-31.56"/>
<polygon fill="#63b8ff" stroke="#63b8ff" points="882.81,-31.34 879.31,-21.34 875.81,-31.34 882.81,-31.34"/>
</a>
</g>
</g>
<!-- Node13 -->
<g id="Node000013" class="node">
<title>Node13</title>
<g id="a_Node000013"><a xlink:title=" ">
<polygon fill="#e0e0e0" stroke="#999999" points="822.31,-21.17 778.31,-21.17 778.31,-2.17 822.31,-2.17 822.31,-21.17"/>
<text text-anchor="middle" x="800.31" y="-9.17" font-family="Helvetica,sans-Serif" font-size="10.00">string</text>
</a>
</g>
</g>
<!-- Node11&#45;&gt;Node13 -->
<g id="edge19_Node000011_Node000013" class="edge">
<title>Node11&#45;&gt;Node13</title>
<g id="a_edge19_Node000011_Node000013"><a xlink:title=" ">
<path fill="none" stroke="#63b8ff" d="M867.65,-62.54C855.16,-53.3 835.13,-38.46 820.15,-27.37"/>
<polygon fill="#63b8ff" stroke="#63b8ff" points="822.13,-24.48 812.01,-21.34 817.96,-30.11 822.13,-24.48"/>
</a>
</g>
</g>
<!-- Node14&#45;&gt;Node2 -->
<g id="edge23_Node000014_Node000002" class="edge">
<title>Node14&#45;&gt;Node2</title>
<g id="a_edge23_Node000014_Node000002"><a xlink:title=" ">
<path fill="none" stroke="#63b8ff" d="M729.84,-128.6C696.41,-119.05 641.26,-102.88 594.31,-87.17 592.41,-86.54 590.46,-85.87 588.5,-85.19"/>
<polygon fill="#63b8ff" stroke="#63b8ff" points="589.33,-81.77 578.73,-81.69 586.97,-88.36 589.33,-81.77"/>
</a>
</g>
</g>
<!-- Node14&#45;&gt;Node11 -->
<g id="edge25_Node000014_Node000011" class="edge">
<title>Node14&#45;&gt;Node11</title>
<g id="a_edge25_Node000014_Node000011"><a xlink:title=" ">
<path fill="none" stroke="#63b8ff" d="M776.36,-128.54C796.32,-117.81 830.63,-99.36 854.11,-86.73"/>
<polygon fill="#63b8ff" stroke="#63b8ff" points="855.98,-89.69 863.13,-81.87 852.67,-83.53 855.98,-89.69"/>
</a>
</g>
</g>
<!-- Node14&#45;&gt;Node13 -->
<g id="edge21_Node000014_Node000013" class="edge">
<title>Node14&#45;&gt;Node13</title>
<g id="a_edge21_Node000014_Node000013"><a xlink:title=" ">
<path fill="none" stroke="#63b8ff" d="M763.06,-128.62C769.48,-108.63 785.59,-58.49 794.37,-31.15"/>
<polygon fill="#63b8ff" stroke="#63b8ff" points="797.81,-31.88 797.54,-21.29 791.15,-29.74 797.81,-31.88"/>
</a>
</g>
</g>
<!-- Node15 -->
<g id="Node000015" class="node">
<title>Node15</title>
<g id="a_Node000015"><a xlink:title=" ">
<polygon fill="#e0e0e0" stroke="#999999" points="762.81,-81.67 669.81,-81.67 669.81,-62.67 762.81,-62.67 762.81,-81.67"/>
<text text-anchor="middle" x="716.31" y="-69.67" font-family="Helvetica,sans-Serif" font-size="10.00">unordered_map</text>
</a>
</g>
</g>
<!-- Node14&#45;&gt;Node15 -->
<g id="edge22_Node000014_Node000015" class="edge">
<title>Node14&#45;&gt;Node15</title>
<g id="a_edge22_Node000014_Node000015"><a xlink:title=" ">
<path fill="none" stroke="#63b8ff" d="M754.37,-128.54C747.72,-118.86 736.75,-102.91 728.29,-90.61"/>
<polygon fill="#63b8ff" stroke="#63b8ff" points="730.98,-88.34 722.43,-82.08 725.21,-92.3 730.98,-88.34"/>
</a>
</g>
</g>
<!-- Node16 -->
<g id="Node000016" class="node">
<title>Node16</title>
<g id="a_Node000016"><a xlink:title=" ">
<polygon fill="#e0e0e0" stroke="#999999" points="651.31,-81.67 603.31,-81.67 603.31,-62.67 651.31,-62.67 651.31,-81.67"/>
<text text-anchor="middle" x="627.31" y="-69.67" font-family="Helvetica,sans-Serif" font-size="10.00">mutex</text>
</a>
</g>
</g>
<!-- Node14&#45;&gt;Node16 -->
<g id="edge24_Node000014_Node000016" class="edge">
<title>Node14&#45;&gt;Node16</title>
<g id="a_edge24_Node000014_Node000016"><a xlink:title=" ">
<path fill="none" stroke="#63b8ff" d="M742.37,-128.54C719.76,-117.66 680.69,-98.86 654.43,-86.22"/>
<polygon fill="#63b8ff" stroke="#63b8ff" points="655.91,-83.06 645.38,-81.87 652.88,-89.36 655.91,-83.06"/>
</a>
</g>
</g>
</g>
</svg>

<g id="navigator" transform="translate(0 0)" fill="#404254">
  <rect fill="#f2f5e9" fill-opacity="0.5" stroke="#606060" stroke-width=".5" x="0" y="0" width="60" height="60"/>
  <use id="zoomplus" xlink:href="#zoomPlus" x="17" y="9" onmousedown="handleZoom(evt,'in')"/>
  <use id="zoomminus" xlink:href="#zoomMin" x="42" y="9" onmousedown="handleZoom(evt,'out')"/>
  <use id="reset" xlink:href="#resetDef" x="30" y="36" onmousedown="handleReset()"/>
   <use id="arrowup" xlink:href="#arrowUp" x="0" y="0" onmousedown="handlePan(0,-1)"/>
  <use id="arrowright" xlink:href="#arrowRight" x="0" y="0" onmousedown="handlePan(1,0)"/>
  <use id="arrowdown" xlink:href="#arrowDown" x="0" y="0" onmousedown="handlePan(0,1)"/>
  <use id="arrowleft" xlink:href="#arrowLeft" x="0" y="0" onmousedown="handlePan(-1,0)"/>
</g>
<svg viewBox="0 0 15 15" width="100%" height="30px" preserveAspectRatio="xMaxYMin meet">
 <g id="arrow_out" transform="scale(0.3 0.3)">
  <a xlink:href="OpenGLMesh_8ixx__incl_org.svg" target="_base">
   <rect id="button" ry="5" rx="5" y="6" x="6" height="38" width="38"
        fill="#f2f5e9" fill-opacity="0.5" stroke="#606060" stroke-width="1.0"/>
   <path id="arrow"
     d="M 11.500037,31.436501 C 11.940474,20.09759 22.043105,11.32322 32.158766,21.979434 L 37.068811,17.246167 C 37.068811,17.246167 37.088388,32 37.088388,32 L 22.160133,31.978069 C 22.160133,31.978069 26.997745,27.140456 26.997745,27.140456 C 18.528582,18.264221 13.291696,25.230495 11.500037,31.436501 z"
     style="fill:#404040;"/>
  </a>
 </g>
</svg>

<style type='text/css'>
<![CDATA[
[data-mouse-over-selected='false'] { opacity: 0.7; }
[data-mouse-over-selected='true']  { opacity: 1.0; }
]]>
</style>
<script type="application/ecmascript"><![CDATA[
document.addEventListener('DOMContentLoaded', (event) => {
  highlightEdges();
  highlightAdjacentNodes();
});
]]></script>
</svg>
