<?xml version="1.0" encoding="UTF-8" standalone="no"?>
<!DOCTYPE svg PUBLIC "-//W3C//DTD SVG 1.1//EN"
 "http://www.w3.org/Graphics/SVG/1.1/DTD/svg11.dtd">
<!-- Generated by graphviz version 2.43.0 (0)
 -->
<!-- Title: include/ext/opengl/rendering/shader/OpenGLShader.ixx Pages: 1 -->
<svg width="1109pt" height="346pt"
 viewBox="0.00 0.00 1109.21 346.00" xmlns="http://www.w3.org/2000/svg" xmlns:xlink="http://www.w3.org/1999/xlink">
<g id="graph0" class="graph" transform="scale(1 1) rotate(0) translate(4 342)">
<title>include/ext/opengl/rendering/shader/OpenGLShader.ixx</title>
<!-- Node1 -->
<g id="Node000001" class="node">
<title>Node1</title>
<g id="a_Node000001"><a xlink:title="OpenGL implementation of shader program management.">
<polygon fill="#999999" stroke="#666666" points="569,-338 375,-338 375,-308 569,-308 569,-338"/>
<text text-anchor="start" x="383" y="-326" font-family="Helvetica,sans-Serif" font-size="10.00">include/ext/opengl</text>
<text text-anchor="middle" x="472" y="-315" font-family="Helvetica,sans-Serif" font-size="10.00">/rendering/shader/OpenGLShader.ixx</text>
</a>
</g>
</g>
<!-- Node2 -->
<g id="Node000002" class="node">
<title>Node2</title>
<g id="a_Node000002"><a xlink:title=" ">
<polygon fill="#e0e0e0" stroke="#999999" points="261,-266.5 211,-266.5 211,-247.5 261,-247.5 261,-266.5"/>
<text text-anchor="middle" x="236" y="-254.5" font-family="Helvetica,sans-Serif" font-size="10.00">format</text>
</a>
</g>
</g>
<!-- Node1&#45;&gt;Node2 -->
<g id="edge1_Node000001_Node000002" class="edge">
<title>Node1&#45;&gt;Node2</title>
<g id="a_edge1_Node000001_Node000002"><a xlink:title=" ">
<path fill="none" stroke="#63b8ff" d="M410.35,-307.96C371.3,-298.68 319.88,-285.72 275,-272 272.74,-271.31 270.41,-270.56 268.07,-269.79"/>
<polygon fill="#63b8ff" stroke="#63b8ff" points="269.16,-266.46 258.56,-266.51 266.88,-273.08 269.16,-266.46"/>
</a>
</g>
</g>
<!-- Node3 -->
<g id="Node000003" class="node">
<title>Node3</title>
<g id="a_Node000003"><a xlink:href="OpenGLUniformLocationMap_8ixx.html" target="_top" xlink:title="Maps shader uniform semantics to OpenGL uniform locations.">
<polygon fill="white" stroke="#666666" points="505,-272 317,-272 317,-242 505,-242 505,-272"/>
<text text-anchor="start" x="325" y="-260" font-family="Helvetica,sans-Serif" font-size="10.00">helios.ext.opengl.rendering.shader.</text>
<text text-anchor="middle" x="411" y="-249" font-family="Helvetica,sans-Serif" font-size="10.00">OpenGLUniformLocationMap</text>
</a>
</g>
</g>
<!-- Node1&#45;&gt;Node3 -->
<g id="edge2_Node000001_Node000003" class="edge">
<title>Node1&#45;&gt;Node3</title>
<g id="a_edge2_Node000001_Node000003"><a xlink:title=" ">
<path fill="none" stroke="#63b8ff" d="M458.46,-307.8C450.56,-299.51 440.44,-288.89 431.58,-279.59"/>
<polygon fill="#63b8ff" stroke="#63b8ff" points="433.93,-276.99 424.5,-272.16 428.87,-281.82 433.93,-276.99"/>
</a>
</g>
</g>
<!-- Node15 -->
<g id="Node000015" class="node">
<title>Node15</title>
<g id="a_Node000015"><a xlink:href="UniformSemantics_8ixx.html" target="_top" xlink:title="Definitions of uniform semantics used by shaders.">
<polygon fill="white" stroke="#666666" points="478,-140 344,-140 344,-110 478,-110 478,-140"/>
<text text-anchor="start" x="352" y="-128" font-family="Helvetica,sans-Serif" font-size="10.00">helios.rendering.shader.</text>
<text text-anchor="middle" x="411" y="-117" font-family="Helvetica,sans-Serif" font-size="10.00">UniformSemantics</text>
</a>
</g>
</g>
<!-- Node1&#45;&gt;Node15 -->
<g id="edge29_Node000001_Node000015" class="edge">
<title>Node1&#45;&gt;Node15</title>
<g id="a_edge29_Node000001_Node000015"><a xlink:title=" ">
<path fill="none" stroke="#63b8ff" d="M488.84,-307.65C498.2,-298.52 508.96,-285.85 514,-272 518.56,-259.47 518.74,-254.46 514,-242 498.96,-202.42 463.54,-167.7 438.45,-146.8"/>
<polygon fill="#63b8ff" stroke="#63b8ff" points="440.35,-143.84 430.38,-140.26 435.94,-149.28 440.35,-143.84"/>
</a>
</g>
</g>
<!-- Node16 -->
<g id="Node000016" class="node">
<title>Node16</title>
<g id="a_Node000016"><a xlink:href="UniformValueMap_8ixx.html" target="_top" xlink:title="Mapping of uniform names to values used by shader programs.">
<polygon fill="white" stroke="#666666" points="323,-206 189,-206 189,-176 323,-176 323,-206"/>
<text text-anchor="start" x="197" y="-194" font-family="Helvetica,sans-Serif" font-size="10.00">helios.rendering.shader.</text>
<text text-anchor="middle" x="256" y="-183" font-family="Helvetica,sans-Serif" font-size="10.00">UniformValueMap</text>
</a>
</g>
</g>
<!-- Node1&#45;&gt;Node16 -->
<g id="edge22_Node000001_Node000016" class="edge">
<title>Node1&#45;&gt;Node16</title>
<g id="a_edge22_Node000001_Node000016"><a xlink:title=" ">
<path fill="none" stroke="#63b8ff" d="M386.65,-307.96C359.6,-300.51 330.83,-289.18 308,-272 288.57,-257.38 274.32,-233.21 265.7,-215.26"/>
<polygon fill="#63b8ff" stroke="#63b8ff" points="268.83,-213.68 261.5,-206.03 262.46,-216.58 268.83,-213.68"/>
</a>
</g>
</g>
<!-- Node19 -->
<g id="Node000019" class="node">
<title>Node19</title>
<g id="a_Node000019"><a xlink:href="StringFileReader_8ixx.html" target="_top" xlink:title="Abstract base class for reading file contents into a string.">
<polygon fill="white" stroke="#666666" points="958.5,-272 833.5,-272 833.5,-242 958.5,-242 958.5,-272"/>
<text text-anchor="start" x="841.5" y="-260" font-family="Helvetica,sans-Serif" font-size="10.00">helios.util.io.StringFile</text>
<text text-anchor="middle" x="896" y="-249" font-family="Helvetica,sans-Serif" font-size="10.00">Reader</text>
</a>
</g>
</g>
<!-- Node1&#45;&gt;Node19 -->
<g id="edge30_Node000001_Node000019" class="edge">
<title>Node1&#45;&gt;Node19</title>
<g id="a_edge30_Node000001_Node000019"><a xlink:title=" ">
<path fill="none" stroke="#63b8ff" d="M564.79,-307.99C642.37,-296.28 751.52,-279.81 822.99,-269.02"/>
<polygon fill="#63b8ff" stroke="#63b8ff" points="823.89,-272.42 833.25,-267.47 822.84,-265.5 823.89,-272.42"/>
</a>
</g>
</g>
<!-- Node20 -->
<g id="Node000020" class="node">
<title>Node20</title>
<g id="a_Node000020"><a xlink:href="Shader_8ixx.html" target="_top" xlink:title="Abstraction for a compiled shader program.">
<polygon fill="white" stroke="#666666" points="761,-272 627,-272 627,-242 761,-242 761,-272"/>
<text text-anchor="start" x="635" y="-260" font-family="Helvetica,sans-Serif" font-size="10.00">helios.rendering.shader.</text>
<text text-anchor="middle" x="694" y="-249" font-family="Helvetica,sans-Serif" font-size="10.00">Shader</text>
</a>
</g>
</g>
<!-- Node1&#45;&gt;Node20 -->
<g id="edge34_Node000001_Node000020" class="edge">
<title>Node1&#45;&gt;Node20</title>
<g id="a_edge34_Node000001_Node000020"><a xlink:title=" ">
<path fill="none" stroke="#63b8ff" d="M520.72,-307.95C554.55,-298.2 599.8,-285.16 635.57,-274.84"/>
<polygon fill="#63b8ff" stroke="#63b8ff" points="636.76,-278.15 645.39,-272.01 634.82,-271.42 636.76,-278.15"/>
</a>
</g>
</g>
<!-- Node4 -->
<g id="Node000004" class="node">
<title>Node4</title>
<g id="a_Node000004"><a xlink:title=" ">
<polygon fill="#e0e0e0" stroke="#999999" points="42,-134.5 0,-134.5 0,-115.5 42,-115.5 42,-134.5"/>
<text text-anchor="middle" x="21" y="-122.5" font-family="Helvetica,sans-Serif" font-size="10.00">array</text>
</a>
</g>
</g>
<!-- Node3&#45;&gt;Node4 -->
<g id="edge3_Node000003_Node000004" class="edge">
<title>Node3&#45;&gt;Node4</title>
<g id="a_edge3_Node000003_Node000004"><a xlink:title=" ">
<path fill="none" stroke="#63b8ff" d="M316.97,-243.37C250.35,-233.59 167.3,-219.49 135,-206 96.96,-190.11 59.02,-159.9 37.92,-141.49"/>
<polygon fill="#63b8ff" stroke="#63b8ff" points="40,-138.66 30.2,-134.62 35.35,-143.89 40,-138.66"/>
</a>
</g>
</g>
<!-- Node5 -->
<g id="Node000005" class="node">
<title>Node5</title>
<g id="a_Node000005"><a xlink:title=" ">
<polygon fill="#e0e0e0" stroke="#999999" points="116,-134.5 60,-134.5 60,-115.5 116,-115.5 116,-134.5"/>
<text text-anchor="middle" x="88" y="-122.5" font-family="Helvetica,sans-Serif" font-size="10.00">optional</text>
</a>
</g>
</g>
<!-- Node3&#45;&gt;Node5 -->
<g id="edge4_Node000003_Node000005" class="edge">
<title>Node3&#45;&gt;Node5</title>
<g id="a_edge4_Node000003_Node000005"><a xlink:title=" ">
<path fill="none" stroke="#63b8ff" d="M316.92,-246.53C273.53,-239.48 222.37,-227.23 180,-206 148.16,-190.05 118.44,-160.51 101.8,-142.14"/>
<polygon fill="#63b8ff" stroke="#63b8ff" points="104.36,-139.75 95.11,-134.57 99.11,-144.38 104.36,-139.75"/>
</a>
</g>
</g>
<!-- Node6 -->
<g id="Node000006" class="node">
<title>Node6</title>
<g id="a_Node000006"><a xlink:href="Logger_8ixx.html" target="_top" xlink:title="Simple synchronous logger with configurable output sinks.">
<polygon fill="white" stroke="#666666" points="1021.5,-134.5 902.5,-134.5 902.5,-115.5 1021.5,-115.5 1021.5,-134.5"/>
<text text-anchor="middle" x="962" y="-122.5" font-family="Helvetica,sans-Serif" font-size="10.00">helios.util.log.Logger</text>
</a>
</g>
</g>
<!-- Node3&#45;&gt;Node6 -->
<g id="edge5_Node000003_Node000006" class="edge">
<title>Node3&#45;&gt;Node6</title>
<g id="a_edge5_Node000003_Node000006"><a xlink:title=" ">
<path fill="none" stroke="#63b8ff" d="M505.03,-247.9C622.46,-237.35 811.71,-218.75 842,-206 861.51,-197.79 861.67,-188.16 879,-176 897.88,-162.76 920.34,-149.36 937.13,-139.77"/>
<polygon fill="#63b8ff" stroke="#63b8ff" points="939.31,-142.56 946.3,-134.59 935.87,-136.46 939.31,-142.56"/>
</a>
</g>
</g>
<!-- Node12 -->
<g id="Node000012" class="node">
<title>Node12</title>
<g id="a_Node000012"><a xlink:href="LogManager_8ixx.html" target="_top" xlink:title="Central manager for scoped loggers with configurable sinks.">
<polygon fill="white" stroke="#666666" points="833,-200.5 687,-200.5 687,-181.5 833,-181.5 833,-200.5"/>
<text text-anchor="middle" x="760" y="-188.5" font-family="Helvetica,sans-Serif" font-size="10.00">helios.util.log.LogManager</text>
</a>
</g>
</g>
<!-- Node3&#45;&gt;Node12 -->
<g id="edge12_Node000003_Node000012" class="edge">
<title>Node3&#45;&gt;Node12</title>
<g id="a_edge12_Node000003_Node000012"><a xlink:title=" ">
<path fill="none" stroke="#63b8ff" d="M487.59,-241.95C552.7,-230.01 644.71,-213.14 703.36,-202.39"/>
<polygon fill="#63b8ff" stroke="#63b8ff" points="704.35,-205.76 713.55,-200.52 703.09,-198.88 704.35,-205.76"/>
</a>
</g>
</g>
<!-- Node3&#45;&gt;Node15 -->
<g id="edge21_Node000003_Node000015" class="edge">
<title>Node3&#45;&gt;Node15</title>
<g id="a_edge21_Node000003_Node000015"><a xlink:title=" ">
<path fill="none" stroke="#63b8ff" d="M411,-241.84C411,-219.86 411,-177.27 411,-150.3"/>
<polygon fill="#63b8ff" stroke="#63b8ff" points="414.5,-150.14 411,-140.14 407.5,-150.14 414.5,-150.14"/>
</a>
</g>
</g>
<!-- Node7 -->
<g id="Node000007" class="node">
<title>Node7</title>
<g id="a_Node000007"><a xlink:title=" ">
<polygon fill="#e0e0e0" stroke="#999999" points="1047,-19 1003,-19 1003,0 1047,0 1047,-19"/>
<text text-anchor="middle" x="1025" y="-7" font-family="Helvetica,sans-Serif" font-size="10.00">string</text>
</a>
</g>
</g>
<!-- Node6&#45;&gt;Node7 -->
<g id="edge6_Node000006_Node000007" class="edge">
<title>Node6&#45;&gt;Node7</title>
<g id="a_edge6_Node000006_Node000007"><a xlink:title=" ">
<path fill="none" stroke="#63b8ff" d="M1017.65,-115.46C1042.31,-108.6 1069.08,-96.24 1084,-74 1096.71,-55.06 1073.69,-36.29 1052.79,-24.12"/>
<polygon fill="#63b8ff" stroke="#63b8ff" points="1054.22,-20.92 1043.77,-19.18 1050.86,-27.06 1054.22,-20.92"/>
</a>
</g>
</g>
<!-- Node8 -->
<g id="Node000008" class="node">
<title>Node8</title>
<g id="a_Node000008"><a xlink:title=" ">
<polygon fill="#e0e0e0" stroke="#999999" points="790.5,-74 743.5,-74 743.5,-55 790.5,-55 790.5,-74"/>
<text text-anchor="middle" x="767" y="-62" font-family="Helvetica,sans-Serif" font-size="10.00">vector</text>
</a>
</g>
</g>
<!-- Node6&#45;&gt;Node8 -->
<g id="edge7_Node000006_Node000008" class="edge">
<title>Node6&#45;&gt;Node8</title>
<g id="a_edge7_Node000006_Node000008"><a xlink:title=" ">
<path fill="none" stroke="#63b8ff" d="M933.65,-115.49C898.4,-104.92 838.33,-86.9 800.75,-75.63"/>
<polygon fill="#63b8ff" stroke="#63b8ff" points="801.37,-72.16 790.79,-72.64 799.36,-78.86 801.37,-72.16"/>
</a>
</g>
</g>
<!-- Node9 -->
<g id="Node000009" class="node">
<title>Node9</title>
<g id="a_Node000009"><a xlink:title=" ">
<polygon fill="#e0e0e0" stroke="#999999" points="867,-74 809,-74 809,-55 867,-55 867,-74"/>
<text text-anchor="middle" x="838" y="-62" font-family="Helvetica,sans-Serif" font-size="10.00">memory</text>
</a>
</g>
</g>
<!-- Node6&#45;&gt;Node9 -->
<g id="edge8_Node000006_Node000009" class="edge">
<title>Node6&#45;&gt;Node9</title>
<g id="a_edge8_Node000006_Node000009"><a xlink:title=" ">
<path fill="none" stroke="#63b8ff" d="M943.97,-115.49C923.31,-105.75 889.22,-89.66 865.3,-78.38"/>
<polygon fill="#63b8ff" stroke="#63b8ff" points="866.59,-75.12 856.05,-74.02 863.6,-81.45 866.59,-75.12"/>
</a>
</g>
</g>
<!-- Node10 -->
<g id="Node000010" class="node">
<title>Node10</title>
<g id="a_Node000010"><a xlink:title=" ">
<polygon fill="#e0e0e0" stroke="#999999" points="1075,-74 1027,-74 1027,-55 1075,-55 1075,-74"/>
<text text-anchor="middle" x="1051" y="-62" font-family="Helvetica,sans-Serif" font-size="10.00">mutex</text>
</a>
</g>
</g>
<!-- Node6&#45;&gt;Node10 -->
<g id="edge9_Node000006_Node000010" class="edge">
<title>Node6&#45;&gt;Node10</title>
<g id="a_edge9_Node000006_Node000010"><a xlink:title=" ">
<path fill="none" stroke="#63b8ff" d="M975.13,-115.37C989.33,-106.04 1012.2,-91.01 1029.12,-79.88"/>
<polygon fill="#63b8ff" stroke="#63b8ff" points="1031.38,-82.58 1037.81,-74.17 1027.53,-76.74 1031.38,-82.58"/>
</a>
</g>
</g>
<!-- Node11 -->
<g id="Node000011" class="node">
<title>Node11</title>
<g id="a_Node000011"><a xlink:href="LogSink_8ixx.html" target="_top" xlink:title="Abstract interface for log output destinations.">
<polygon fill="white" stroke="#666666" points="1009,-74 885,-74 885,-55 1009,-55 1009,-74"/>
<text text-anchor="middle" x="947" y="-62" font-family="Helvetica,sans-Serif" font-size="10.00">helios.util.log.LogSink</text>
</a>
</g>
</g>
<!-- Node6&#45;&gt;Node11 -->
<g id="edge10_Node000006_Node000011" class="edge">
<title>Node6&#45;&gt;Node11</title>
<g id="a_edge10_Node000006_Node000011"><a xlink:title=" ">
<path fill="none" stroke="#63b8ff" d="M959.79,-115.37C957.68,-107.16 954.45,-94.54 951.76,-84.05"/>
<polygon fill="#63b8ff" stroke="#63b8ff" points="955.1,-82.98 949.22,-74.17 948.32,-84.72 955.1,-82.98"/>
</a>
</g>
</g>
<!-- Node11&#45;&gt;Node7 -->
<g id="edge11_Node000011_Node000007" class="edge">
<title>Node11&#45;&gt;Node7</title>
<g id="a_edge11_Node000011_Node000007"><a xlink:title=" ">
<path fill="none" stroke="#63b8ff" d="M959.53,-54.98C971.4,-46.92 989.46,-34.65 1003.61,-25.03"/>
<polygon fill="#63b8ff" stroke="#63b8ff" points="1005.94,-27.69 1012.24,-19.17 1002,-21.9 1005.94,-27.69"/>
</a>
</g>
</g>
<!-- Node12&#45;&gt;Node6 -->
<g id="edge19_Node000012_Node000006" class="edge">
<title>Node12&#45;&gt;Node6</title>
<g id="a_edge19_Node000012_Node000006"><a xlink:title=" ">
<path fill="none" stroke="#63b8ff" d="M787.24,-181.37C822.88,-170.08 885.47,-150.25 925.27,-137.64"/>
<polygon fill="#63b8ff" stroke="#63b8ff" points="926.39,-140.95 934.87,-134.6 924.28,-134.28 926.39,-140.95"/>
</a>
</g>
</g>
<!-- Node12&#45;&gt;Node7 -->
<g id="edge13_Node000012_Node000007" class="edge">
<title>Node12&#45;&gt;Node7</title>
<g id="a_edge13_Node000012_Node000007"><a xlink:title=" ">
<path fill="none" stroke="#63b8ff" d="M753.97,-181.18C738.68,-157.62 701.81,-92.48 734,-55 767.03,-16.54 923.62,-10.96 992.44,-10.4"/>
<polygon fill="#63b8ff" stroke="#63b8ff" points="992.71,-13.9 1002.69,-10.35 992.68,-6.9 992.71,-13.9"/>
</a>
</g>
</g>
<!-- Node12&#45;&gt;Node8 -->
<g id="edge18_Node000012_Node000008" class="edge">
<title>Node12&#45;&gt;Node8</title>
<g id="a_edge18_Node000012_Node000008"><a xlink:title=" ">
<path fill="none" stroke="#63b8ff" d="M760.48,-181.44C761.6,-161.54 764.4,-111.76 765.94,-84.35"/>
<polygon fill="#63b8ff" stroke="#63b8ff" points="769.45,-84.3 766.52,-74.12 762.46,-83.9 769.45,-84.3"/>
</a>
</g>
</g>
<!-- Node12&#45;&gt;Node9 -->
<g id="edge16_Node000012_Node000009" class="edge">
<title>Node12&#45;&gt;Node9</title>
<g id="a_edge16_Node000012_Node000009"><a xlink:title=" ">
<path fill="none" stroke="#63b8ff" d="M765.36,-181.44C778.05,-161.19 810.14,-109.97 827.1,-82.9"/>
<polygon fill="#63b8ff" stroke="#63b8ff" points="830.26,-84.45 832.6,-74.12 824.33,-80.73 830.26,-84.45"/>
</a>
</g>
</g>
<!-- Node12&#45;&gt;Node10 -->
<g id="edge17_Node000012_Node000010" class="edge">
<title>Node12&#45;&gt;Node10</title>
<g id="a_edge17_Node000012_Node000010"><a xlink:title=" ">
<path fill="none" stroke="#63b8ff" d="M778.78,-181.38C798.37,-172.11 829.68,-156.46 855,-140 873.04,-128.27 873.83,-119.77 893,-110 904.14,-104.32 974.21,-85.53 1017.21,-74.26"/>
<polygon fill="#63b8ff" stroke="#63b8ff" points="1018.2,-77.62 1026.99,-71.71 1016.43,-70.85 1018.2,-77.62"/>
</a>
</g>
</g>
<!-- Node12&#45;&gt;Node11 -->
<g id="edge20_Node000012_Node000011" class="edge">
<title>Node12&#45;&gt;Node11</title>
<g id="a_edge20_Node000012_Node000011"><a xlink:title=" ">
<path fill="none" stroke="#63b8ff" d="M769.44,-181.36C786.62,-165.89 824.52,-132.93 860,-110 878.63,-97.96 900.93,-86.6 918.29,-78.38"/>
<polygon fill="#63b8ff" stroke="#63b8ff" points="919.79,-81.55 927.37,-74.15 916.83,-75.2 919.79,-81.55"/>
</a>
</g>
</g>
<!-- Node13 -->
<g id="Node000013" class="node">
<title>Node13</title>
<g id="a_Node000013"><a xlink:title=" ">
<polygon fill="#e0e0e0" stroke="#999999" points="589.5,-134.5 496.5,-134.5 496.5,-115.5 589.5,-115.5 589.5,-134.5"/>
<text text-anchor="middle" x="543" y="-122.5" font-family="Helvetica,sans-Serif" font-size="10.00">unordered_map</text>
</a>
</g>
</g>
<!-- Node12&#45;&gt;Node13 -->
<g id="edge14_Node000012_Node000013" class="edge">
<title>Node12&#45;&gt;Node13</title>
<g id="a_edge14_Node000012_Node000013"><a xlink:title=" ">
<path fill="none" stroke="#63b8ff" d="M730.73,-181.37C692.29,-170.03 624.65,-150.08 581.92,-137.48"/>
<polygon fill="#63b8ff" stroke="#63b8ff" points="582.73,-134.07 572.15,-134.6 580.75,-140.78 582.73,-134.07"/>
</a>
</g>
</g>
<!-- Node14 -->
<g id="Node000014" class="node">
<title>Node14</title>
<g id="a_Node000014"><a xlink:title=" ">
<polygon fill="#e0e0e0" stroke="#999999" points="694,-134.5 608,-134.5 608,-115.5 694,-115.5 694,-134.5"/>
<text text-anchor="middle" x="651" y="-122.5" font-family="Helvetica,sans-Serif" font-size="10.00">unordered_set</text>
</a>
</g>
</g>
<!-- Node12&#45;&gt;Node14 -->
<g id="edge15_Node000012_Node000014" class="edge">
<title>Node12&#45;&gt;Node14</title>
<g id="a_edge15_Node000012_Node000014"><a xlink:title=" ">
<path fill="none" stroke="#63b8ff" d="M745.3,-181.37C727.18,-170.73 696.15,-152.51 674.66,-139.89"/>
<polygon fill="#63b8ff" stroke="#63b8ff" points="676.21,-136.74 665.82,-134.7 672.67,-142.78 676.21,-136.74"/>
</a>
</g>
</g>
<!-- Node16&#45;&gt;Node4 -->
<g id="edge23_Node000016_Node000004" class="edge">
<title>Node16&#45;&gt;Node4</title>
<g id="a_edge23_Node000016_Node000004"><a xlink:title=" ">
<path fill="none" stroke="#63b8ff" d="M188.55,-177.06C148.09,-168.44 95.93,-155.79 51,-140 49.78,-139.57 48.54,-139.11 47.3,-138.62"/>
<polygon fill="#63b8ff" stroke="#63b8ff" points="48.46,-135.31 37.89,-134.59 45.7,-141.75 48.46,-135.31"/>
</a>
</g>
</g>
<!-- Node16&#45;&gt;Node5 -->
<g id="edge24_Node000016_Node000005" class="edge">
<title>Node16&#45;&gt;Node5</title>
<g id="a_edge24_Node000016_Node000005"><a xlink:title=" ">
<path fill="none" stroke="#63b8ff" d="M219.13,-175.95C189.41,-164.63 148.05,-148.88 119.77,-138.1"/>
<polygon fill="#63b8ff" stroke="#63b8ff" points="120.95,-134.81 110.36,-134.52 118.46,-141.35 120.95,-134.81"/>
</a>
</g>
</g>
<!-- Node16&#45;&gt;Node15 -->
<g id="edge28_Node000016_Node000015" class="edge">
<title>Node16&#45;&gt;Node15</title>
<g id="a_edge28_Node000016_Node000015"><a xlink:title=" ">
<path fill="none" stroke="#63b8ff" d="M290.02,-175.95C312.83,-166.53 343.08,-154.04 367.62,-143.91"/>
<polygon fill="#63b8ff" stroke="#63b8ff" points="369.16,-147.06 377.06,-140.01 366.49,-140.59 369.16,-147.06"/>
</a>
</g>
</g>
<!-- Node17 -->
<g id="Node000017" class="node">
<title>Node17</title>
<g id="a_Node000017"><a xlink:title=" ">
<polygon fill="#e0e0e0" stroke="#999999" points="185.5,-134.5 134.5,-134.5 134.5,-115.5 185.5,-115.5 185.5,-134.5"/>
<text text-anchor="middle" x="160" y="-122.5" font-family="Helvetica,sans-Serif" font-size="10.00">variant</text>
</a>
</g>
</g>
<!-- Node16&#45;&gt;Node17 -->
<g id="edge25_Node000016_Node000017" class="edge">
<title>Node16&#45;&gt;Node17</title>
<g id="a_edge25_Node000016_Node000017"><a xlink:title=" ">
<path fill="none" stroke="#63b8ff" d="M234.69,-175.8C218.9,-165.27 197.46,-150.97 181.6,-140.4"/>
<polygon fill="#63b8ff" stroke="#63b8ff" points="183.25,-137.29 172.99,-134.66 179.37,-143.12 183.25,-137.29"/>
</a>
</g>
</g>
<!-- Node18 -->
<g id="Node000018" class="node">
<title>Node18</title>
<g id="a_Node000018"><a xlink:href="helios_2math_2types_2__module_8ixx.html" target="_top" xlink:title="Module exports for vector and matrix type definitions.">
<polygon fill="white" stroke="#666666" points="308,-134.5 204,-134.5 204,-115.5 308,-115.5 308,-134.5"/>
<text text-anchor="middle" x="256" y="-122.5" font-family="Helvetica,sans-Serif" font-size="10.00">helios.math.types</text>
</a>
</g>
</g>
<!-- Node16&#45;&gt;Node18 -->
<g id="edge26_Node000016_Node000018" class="edge">
<title>Node16&#45;&gt;Node18</title>
<g id="a_edge26_Node000016_Node000018"><a xlink:title=" ">
<path fill="none" stroke="#63b8ff" d="M256,-175.8C256,-166.7 256,-154.79 256,-144.9"/>
<polygon fill="#63b8ff" stroke="#63b8ff" points="259.5,-144.84 256,-134.84 252.5,-144.84 259.5,-144.84"/>
</a>
</g>
</g>
<!-- Node18&#45;&gt;Node18 -->
<g id="edge27_Node000018_Node000018" class="edge">
<title>Node18&#45;&gt;Node18</title>
<g id="a_edge27_Node000018_Node000018"><a xlink:title=" ">
<path fill="none" stroke="#63b8ff" d="M281.85,-134.53C303.44,-138.61 326,-135.43 326,-125 326,-116.2 309.94,-112.56 291.95,-114.09"/>
<polygon fill="#63b8ff" stroke="#63b8ff" points="291.28,-110.65 281.85,-115.47 292.23,-117.58 291.28,-110.65"/>
</a>
</g>
</g>
<!-- Node19&#45;&gt;Node6 -->
<g id="edge33_Node000019_Node000006" class="edge">
<title>Node19&#45;&gt;Node6</title>
<g id="a_edge33_Node000019_Node000006"><a xlink:title=" ">
<path fill="none" stroke="#63b8ff" d="M903.96,-241.64C909.42,-231.69 916.78,-218.11 923,-206 933.77,-185.03 945.55,-160.64 953.32,-144.35"/>
<polygon fill="#63b8ff" stroke="#63b8ff" points="956.66,-145.47 957.79,-134.94 950.34,-142.47 956.66,-145.47"/>
</a>
</g>
</g>
<!-- Node19&#45;&gt;Node7 -->
<g id="edge31_Node000019_Node000007" class="edge">
<title>Node19&#45;&gt;Node7</title>
<g id="a_edge31_Node000019_Node000007"><a xlink:title=" ">
<path fill="none" stroke="#63b8ff" d="M923.65,-241.85C970.61,-216.01 1064.24,-156.17 1099,-74 1109.01,-50.33 1081.11,-32.4 1056.75,-21.72"/>
<polygon fill="#63b8ff" stroke="#63b8ff" points="1057.92,-18.42 1047.34,-17.86 1055.26,-24.89 1057.92,-18.42"/>
</a>
</g>
</g>
<!-- Node19&#45;&gt;Node12 -->
<g id="edge32_Node000019_Node000012" class="edge">
<title>Node19&#45;&gt;Node12</title>
<g id="a_edge32_Node000019_Node000012"><a xlink:title=" ">
<path fill="none" stroke="#63b8ff" d="M866.15,-241.95C842.62,-230.88 810.07,-215.56 787.23,-204.82"/>
<polygon fill="#63b8ff" stroke="#63b8ff" points="788.64,-201.61 778.1,-200.52 785.66,-207.94 788.64,-201.61"/>
</a>
</g>
</g>
<!-- Node20&#45;&gt;Node6 -->
<g id="edge36_Node000020_Node000006" class="edge">
<title>Node20&#45;&gt;Node6</title>
<g id="a_edge36_Node000020_Node000006"><a xlink:title=" ">
<path fill="none" stroke="#63b8ff" d="M761.33,-246.23C797.86,-238.9 842.82,-226.5 879,-206 907.73,-189.72 933.91,-161.19 948.88,-142.97"/>
<polygon fill="#63b8ff" stroke="#63b8ff" points="951.79,-144.94 955.3,-134.95 946.32,-140.57 951.79,-144.94"/>
</a>
</g>
</g>
<!-- Node20&#45;&gt;Node12 -->
<g id="edge37_Node000020_Node000012" class="edge">
<title>Node20&#45;&gt;Node12</title>
<g id="a_edge37_Node000020_Node000012"><a xlink:title=" ">
<path fill="none" stroke="#63b8ff" d="M708.65,-241.8C718.94,-231.82 732.72,-218.46 743.41,-208.09"/>
<polygon fill="#63b8ff" stroke="#63b8ff" points="746.14,-210.32 750.88,-200.84 741.26,-205.29 746.14,-210.32"/>
</a>
</g>
</g>
<!-- Node20&#45;&gt;Node16 -->
<g id="edge35_Node000020_Node000016" class="edge">
<title>Node20&#45;&gt;Node16</title>
<g id="a_edge35_Node000020_Node000016"><a xlink:title=" ">
<path fill="none" stroke="#63b8ff" d="M626.52,-246.14C547.31,-234.57 416.24,-215.41 333.09,-203.26"/>
<polygon fill="#63b8ff" stroke="#63b8ff" points="333.6,-199.8 323.19,-201.82 332.58,-206.73 333.6,-199.8"/>
</a>
</g>
</g>
</g>
</svg>
