<?xml version="1.0" encoding="UTF-8" standalone="no"?>
<!DOCTYPE svg PUBLIC "-//W3C//DTD SVG 1.1//EN"
 "http://www.w3.org/Graphics/SVG/1.1/DTD/svg11.dtd">
<!-- Generated by graphviz version 2.43.0 (0)
 -->
<!-- Title: include/helios/rendering/RenderQueue.ixx Pages: 1 -->
<svg width="1842pt" height="522pt"
 viewBox="0.00 0.00 1842.00 522.00" xmlns="http://www.w3.org/2000/svg" xmlns:xlink="http://www.w3.org/1999/xlink">
<g id="graph0" class="graph" transform="scale(1 1) rotate(0) translate(4 518)">
<title>include/helios/rendering/RenderQueue.ixx</title>
<!-- Node1 -->
<g id="Node000001" class="node">
<title>Node1</title>
<g id="a_Node000001"><a xlink:title="Container for enqueued render commands and renderables.">
<polygon fill="#999999" stroke="#666666" points="1276,-514 1142,-514 1142,-484 1276,-484 1276,-514"/>
<text text-anchor="start" x="1150" y="-502" font-family="Helvetica,sans-Serif" font-size="10.00">include/helios/rendering</text>
<text text-anchor="middle" x="1209" y="-491" font-family="Helvetica,sans-Serif" font-size="10.00">/RenderQueue.ixx</text>
</a>
</g>
</g>
<!-- Node2 -->
<g id="Node000002" class="node">
<title>Node2</title>
<g id="a_Node000002"><a xlink:title=" ">
<polygon fill="#e0e0e0" stroke="#999999" points="678,-448 628,-448 628,-429 678,-429 678,-448"/>
<text text-anchor="middle" x="653" y="-436" font-family="Helvetica,sans-Serif" font-size="10.00">format</text>
</a>
</g>
</g>
<!-- Node1&#45;&gt;Node2 -->
<g id="edge1_Node000001_Node000002" class="edge">
<title>Node1&#45;&gt;Node2</title>
<g id="a_edge1_Node000001_Node000002"><a xlink:title=" ">
<path fill="none" stroke="#63b8ff" d="M1141.76,-494.04C1042.81,-487.65 852.36,-473.14 692,-448 690.73,-447.8 689.44,-447.59 688.13,-447.36"/>
<polygon fill="#63b8ff" stroke="#63b8ff" points="688.57,-443.88 678.09,-445.43 687.25,-450.75 688.57,-443.88"/>
</a>
</g>
</g>
<!-- Node3 -->
<g id="Node000003" class="node">
<title>Node3</title>
<g id="a_Node000003"><a xlink:title=" ">
<polygon fill="#e0e0e0" stroke="#999999" points="1418,-79.5 1360,-79.5 1360,-60.5 1418,-60.5 1418,-79.5"/>
<text text-anchor="middle" x="1389" y="-67.5" font-family="Helvetica,sans-Serif" font-size="10.00">memory</text>
</a>
</g>
</g>
<!-- Node1&#45;&gt;Node3 -->
<g id="edge2_Node000001_Node000003" class="edge">
<title>Node1&#45;&gt;Node3</title>
<g id="a_edge2_Node000001_Node000003"><a xlink:title=" ">
<path fill="none" stroke="#63b8ff" d="M1276.05,-498.97C1430.07,-499.41 1796,-489.4 1796,-384.5 1796,-384.5 1796,-384.5 1796,-201 1796,-149.12 1757.91,-143.16 1711,-121 1597.15,-67.23 1552.64,-113.49 1430,-85 1427.02,-84.31 1423.95,-83.48 1420.9,-82.58"/>
<polygon fill="#63b8ff" stroke="#63b8ff" points="1421.91,-79.23 1411.32,-79.53 1419.79,-85.9 1421.91,-79.23"/>
</a>
</g>
</g>
<!-- Node4 -->
<g id="Node000004" class="node">
<title>Node4</title>
<g id="a_Node000004"><a xlink:title=" ">
<polygon fill="#e0e0e0" stroke="#999999" points="1485.5,-79.5 1438.5,-79.5 1438.5,-60.5 1485.5,-60.5 1485.5,-79.5"/>
<text text-anchor="middle" x="1462" y="-67.5" font-family="Helvetica,sans-Serif" font-size="10.00">vector</text>
</a>
</g>
</g>
<!-- Node1&#45;&gt;Node4 -->
<g id="edge3_Node000001_Node000004" class="edge">
<title>Node1&#45;&gt;Node4</title>
<g id="a_edge3_Node000001_Node000004"><a xlink:title=" ">
<path fill="none" stroke="#63b8ff" d="M1276.12,-497.18C1403.94,-494.77 1677.19,-485.28 1763,-448 1801.83,-431.13 1834,-426.83 1834,-384.5 1834,-384.5 1834,-384.5 1834,-201 1834,-151.03 1799.31,-144.09 1755,-121 1669.44,-76.42 1552.59,-70.29 1495.78,-70.22"/>
<polygon fill="#63b8ff" stroke="#63b8ff" points="1495.55,-66.72 1485.56,-70.28 1495.58,-73.72 1495.55,-66.72"/>
</a>
</g>
</g>
<!-- Node5 -->
<g id="Node000005" class="node">
<title>Node5</title>
<g id="a_Node000005"><a xlink:href="LogManager_8ixx.html" target="_top" xlink:title="Central manager for scoped loggers with configurable sinks.">
<polygon fill="white" stroke="#666666" points="978,-211.5 832,-211.5 832,-192.5 978,-192.5 978,-211.5"/>
<text text-anchor="middle" x="905" y="-199.5" font-family="Helvetica,sans-Serif" font-size="10.00">helios.util.log.LogManager</text>
</a>
</g>
</g>
<!-- Node1&#45;&gt;Node5 -->
<g id="edge4_Node000001_Node000005" class="edge">
<title>Node1&#45;&gt;Node5</title>
<g id="a_edge4_Node000001_Node000005"><a xlink:title=" ">
<path fill="none" stroke="#63b8ff" d="M1221.23,-483.79C1228.54,-474.33 1237.12,-461.25 1241,-448 1250.57,-415.3 1243.25,-399.8 1221,-374 1145.04,-285.94 1012.13,-235.45 945.5,-214.51"/>
<polygon fill="#63b8ff" stroke="#63b8ff" points="946.37,-211.12 935.78,-211.52 944.31,-217.81 946.37,-211.12"/>
</a>
</g>
</g>
<!-- Node10 -->
<g id="Node000010" class="node">
<title>Node10</title>
<g id="a_Node000010"><a xlink:href="Logger_8ixx.html" target="_top" xlink:title="Simple synchronous logger with configurable output sinks.">
<polygon fill="white" stroke="#666666" points="765.5,-145.5 646.5,-145.5 646.5,-126.5 765.5,-126.5 765.5,-145.5"/>
<text text-anchor="middle" x="706" y="-133.5" font-family="Helvetica,sans-Serif" font-size="10.00">helios.util.log.Logger</text>
</a>
</g>
</g>
<!-- Node1&#45;&gt;Node10 -->
<g id="edge19_Node000001_Node000010" class="edge">
<title>Node1&#45;&gt;Node10</title>
<g id="a_edge19_Node000001_Node000010"><a xlink:title=" ">
<path fill="none" stroke="#63b8ff" d="M1141.95,-496.77C1005,-492.43 706,-472.85 706,-384.5 706,-384.5 706,-384.5 706,-267 706,-227.45 706,-181.13 706,-155.84"/>
<polygon fill="#63b8ff" stroke="#63b8ff" points="709.5,-155.52 706,-145.52 702.5,-155.52 709.5,-155.52"/>
</a>
</g>
</g>
<!-- Node12 -->
<g id="Node000012" class="node">
<title>Node12</title>
<g id="a_Node000012"><a xlink:href="RenderCommand_8ixx.html" target="_top" xlink:title="Representation of a low&#45;level render command.">
<polygon fill="white" stroke="#666666" points="1231.5,-448 1048.5,-448 1048.5,-429 1231.5,-429 1231.5,-448"/>
<text text-anchor="middle" x="1140" y="-436" font-family="Helvetica,sans-Serif" font-size="10.00">helios.rendering.RenderCommand</text>
</a>
</g>
</g>
<!-- Node1&#45;&gt;Node12 -->
<g id="edge20_Node000001_Node000012" class="edge">
<title>Node1&#45;&gt;Node12</title>
<g id="a_edge20_Node000001_Node000012"><a xlink:title=" ">
<path fill="none" stroke="#63b8ff" d="M1192.3,-483.84C1181.97,-475.09 1168.72,-463.85 1158.14,-454.88"/>
<polygon fill="#63b8ff" stroke="#63b8ff" points="1160.23,-452.06 1150.34,-448.27 1155.7,-457.4 1160.23,-452.06"/>
</a>
</g>
</g>
<!-- Node5&#45;&gt;Node3 -->
<g id="edge8_Node000005_Node000003" class="edge">
<title>Node5&#45;&gt;Node3</title>
<g id="a_edge8_Node000005_Node000003"><a xlink:title=" ">
<path fill="none" stroke="#63b8ff" d="M891.81,-192.48C869.69,-177.2 829.55,-144.53 851,-121 884.5,-84.24 1231.79,-74.07 1349.92,-71.66"/>
<polygon fill="#63b8ff" stroke="#63b8ff" points="1350.04,-75.16 1359.97,-71.47 1349.9,-68.16 1350.04,-75.16"/>
</a>
</g>
</g>
<!-- Node5&#45;&gt;Node4 -->
<g id="edge10_Node000005_Node000004" class="edge">
<title>Node5&#45;&gt;Node4</title>
<g id="a_edge10_Node000005_Node000004"><a xlink:title=" ">
<path fill="none" stroke="#63b8ff" d="M938.3,-192.44C1016.24,-172.42 1205.06,-123.98 1219,-121 1310.75,-101.4 1336.73,-110.56 1427,-85 1428.94,-84.45 1430.91,-83.83 1432.89,-83.17"/>
<polygon fill="#63b8ff" stroke="#63b8ff" points="1434.45,-86.32 1442.63,-79.58 1432.04,-79.75 1434.45,-86.32"/>
</a>
</g>
</g>
<!-- Node6 -->
<g id="Node000006" class="node">
<title>Node6</title>
<g id="a_Node000006"><a xlink:title=" ">
<polygon fill="#e0e0e0" stroke="#999999" points="683,-19 639,-19 639,0 683,0 683,-19"/>
<text text-anchor="middle" x="661" y="-7" font-family="Helvetica,sans-Serif" font-size="10.00">string</text>
</a>
</g>
</g>
<!-- Node5&#45;&gt;Node6 -->
<g id="edge5_Node000005_Node000006" class="edge">
<title>Node5&#45;&gt;Node6</title>
<g id="a_edge5_Node000005_Node000006"><a xlink:title=" ">
<path fill="none" stroke="#63b8ff" d="M969.38,-192.46C1026.8,-182.09 1097.43,-160.81 1067,-121 1020.8,-60.55 780.96,-25.31 693.21,-14.28"/>
<polygon fill="#63b8ff" stroke="#63b8ff" points="693.4,-10.78 683.05,-13.03 692.54,-17.73 693.4,-10.78"/>
</a>
</g>
</g>
<!-- Node7 -->
<g id="Node000007" class="node">
<title>Node7</title>
<g id="a_Node000007"><a xlink:title=" ">
<polygon fill="#e0e0e0" stroke="#999999" points="953.5,-145.5 860.5,-145.5 860.5,-126.5 953.5,-126.5 953.5,-145.5"/>
<text text-anchor="middle" x="907" y="-133.5" font-family="Helvetica,sans-Serif" font-size="10.00">unordered_map</text>
</a>
</g>
</g>
<!-- Node5&#45;&gt;Node7 -->
<g id="edge6_Node000005_Node000007" class="edge">
<title>Node5&#45;&gt;Node7</title>
<g id="a_edge6_Node000005_Node000007"><a xlink:title=" ">
<path fill="none" stroke="#63b8ff" d="M905.27,-192.37C905.56,-183.16 906.02,-168.29 906.4,-156.27"/>
<polygon fill="#63b8ff" stroke="#63b8ff" points="909.91,-156.01 906.72,-145.91 902.91,-155.79 909.91,-156.01"/>
</a>
</g>
</g>
<!-- Node8 -->
<g id="Node000008" class="node">
<title>Node8</title>
<g id="a_Node000008"><a xlink:title=" ">
<polygon fill="#e0e0e0" stroke="#999999" points="1058,-145.5 972,-145.5 972,-126.5 1058,-126.5 1058,-145.5"/>
<text text-anchor="middle" x="1015" y="-133.5" font-family="Helvetica,sans-Serif" font-size="10.00">unordered_set</text>
</a>
</g>
</g>
<!-- Node5&#45;&gt;Node8 -->
<g id="edge7_Node000005_Node000008" class="edge">
<title>Node5&#45;&gt;Node8</title>
<g id="a_edge7_Node000005_Node000008"><a xlink:title=" ">
<path fill="none" stroke="#63b8ff" d="M919.84,-192.37C938.12,-181.73 969.44,-163.51 991.13,-150.89"/>
<polygon fill="#63b8ff" stroke="#63b8ff" points="993.17,-153.75 1000.05,-145.7 989.64,-147.7 993.17,-153.75"/>
</a>
</g>
</g>
<!-- Node9 -->
<g id="Node000009" class="node">
<title>Node9</title>
<g id="a_Node000009"><a xlink:title=" ">
<polygon fill="#e0e0e0" stroke="#999999" points="800,-79.5 752,-79.5 752,-60.5 800,-60.5 800,-79.5"/>
<text text-anchor="middle" x="776" y="-67.5" font-family="Helvetica,sans-Serif" font-size="10.00">mutex</text>
</a>
</g>
</g>
<!-- Node5&#45;&gt;Node9 -->
<g id="edge9_Node000005_Node000009" class="edge">
<title>Node5&#45;&gt;Node9</title>
<g id="a_edge9_Node000005_Node000009"><a xlink:title=" ">
<path fill="none" stroke="#63b8ff" d="M882.68,-192.39C863.59,-184.13 836.36,-170.08 818,-151 800.79,-133.12 788.82,-106.8 782.17,-89.29"/>
<polygon fill="#63b8ff" stroke="#63b8ff" points="785.4,-87.91 778.73,-79.68 778.81,-90.27 785.4,-87.91"/>
</a>
</g>
</g>
<!-- Node5&#45;&gt;Node10 -->
<g id="edge11_Node000005_Node000010" class="edge">
<title>Node5&#45;&gt;Node10</title>
<g id="a_edge11_Node000005_Node000010"><a xlink:title=" ">
<path fill="none" stroke="#63b8ff" d="M878.16,-192.37C843.13,-181.1 781.66,-161.33 742.44,-148.72"/>
<polygon fill="#63b8ff" stroke="#63b8ff" points="743.32,-145.33 732.73,-145.6 741.18,-151.99 743.32,-145.33"/>
</a>
</g>
</g>
<!-- Node11 -->
<g id="Node000011" class="node">
<title>Node11</title>
<g id="a_Node000011"><a xlink:href="LogSink_8ixx.html" target="_top" xlink:title="Abstract interface for log output destinations.">
<polygon fill="white" stroke="#666666" points="678,-79.5 554,-79.5 554,-60.5 678,-60.5 678,-79.5"/>
<text text-anchor="middle" x="616" y="-67.5" font-family="Helvetica,sans-Serif" font-size="10.00">helios.util.log.LogSink</text>
</a>
</g>
</g>
<!-- Node5&#45;&gt;Node11 -->
<g id="edge18_Node000005_Node000011" class="edge">
<title>Node5&#45;&gt;Node11</title>
<g id="a_edge18_Node000005_Node000011"><a xlink:title=" ">
<path fill="none" stroke="#63b8ff" d="M831.9,-196.06C762.48,-189.87 664.72,-176.79 637,-151 620.2,-135.37 616.19,-108.07 615.55,-89.77"/>
<polygon fill="#63b8ff" stroke="#63b8ff" points="619.05,-89.7 615.5,-79.72 612.05,-89.74 619.05,-89.7"/>
</a>
</g>
</g>
<!-- Node10&#45;&gt;Node3 -->
<g id="edge14_Node000010_Node000003" class="edge">
<title>Node10&#45;&gt;Node3</title>
<g id="a_edge14_Node000010_Node000003"><a xlink:title=" ">
<path fill="none" stroke="#63b8ff" d="M765.53,-127.14C782.47,-125.02 800.95,-122.81 818,-121 1017.62,-99.79 1257.19,-80.96 1349.8,-73.93"/>
<polygon fill="#63b8ff" stroke="#63b8ff" points="1350.14,-77.41 1359.85,-73.17 1349.61,-70.43 1350.14,-77.41"/>
</a>
</g>
</g>
<!-- Node10&#45;&gt;Node4 -->
<g id="edge13_Node000010_Node000004" class="edge">
<title>Node10&#45;&gt;Node4</title>
<g id="a_edge13_Node000010_Node000004"><a xlink:title=" ">
<path fill="none" stroke="#63b8ff" d="M765.57,-128.79C791.76,-126.18 822.89,-123.23 851,-121 1106.69,-100.67 1176.76,-141.34 1427,-85 1429.37,-84.47 1431.79,-83.79 1434.19,-83.03"/>
<polygon fill="#63b8ff" stroke="#63b8ff" points="1435.61,-86.24 1443.82,-79.54 1433.23,-79.66 1435.61,-86.24"/>
</a>
</g>
</g>
<!-- Node10&#45;&gt;Node6 -->
<g id="edge12_Node000010_Node000006" class="edge">
<title>Node10&#45;&gt;Node6</title>
<g id="a_edge12_Node000010_Node000006"><a xlink:title=" ">
<path fill="none" stroke="#63b8ff" d="M704.8,-126.34C702.55,-111.38 696.98,-79.91 687,-55 683.22,-45.57 677.68,-35.75 672.68,-27.74"/>
<polygon fill="#63b8ff" stroke="#63b8ff" points="675.58,-25.78 667.2,-19.3 669.71,-29.59 675.58,-25.78"/>
</a>
</g>
</g>
<!-- Node10&#45;&gt;Node9 -->
<g id="edge15_Node000010_Node000009" class="edge">
<title>Node10&#45;&gt;Node9</title>
<g id="a_edge15_Node000010_Node000009"><a xlink:title=" ">
<path fill="none" stroke="#63b8ff" d="M715.44,-126.37C726.55,-116.21 745.2,-99.16 758.88,-86.65"/>
<polygon fill="#63b8ff" stroke="#63b8ff" points="761.24,-89.24 766.26,-79.91 756.52,-84.07 761.24,-89.24"/>
</a>
</g>
</g>
<!-- Node10&#45;&gt;Node11 -->
<g id="edge16_Node000010_Node000011" class="edge">
<title>Node10&#45;&gt;Node11</title>
<g id="a_edge16_Node000010_Node000011"><a xlink:title=" ">
<path fill="none" stroke="#63b8ff" d="M693.86,-126.37C679.23,-115.97 654.42,-98.32 636.74,-85.75"/>
<polygon fill="#63b8ff" stroke="#63b8ff" points="638.41,-82.64 628.23,-79.7 634.35,-88.35 638.41,-82.64"/>
</a>
</g>
</g>
<!-- Node11&#45;&gt;Node6 -->
<g id="edge17_Node000011_Node000006" class="edge">
<title>Node11&#45;&gt;Node6</title>
<g id="a_edge17_Node000011_Node000006"><a xlink:title=" ">
<path fill="none" stroke="#63b8ff" d="M622.64,-60.37C629.29,-51.73 639.69,-38.2 647.99,-27.42"/>
<polygon fill="#63b8ff" stroke="#63b8ff" points="651.01,-29.23 654.33,-19.17 645.46,-24.96 651.01,-29.23"/>
</a>
</g>
</g>
<!-- Node12&#45;&gt;Node3 -->
<g id="edge21_Node000012_Node000003" class="edge">
<title>Node12&#45;&gt;Node3</title>
<g id="a_edge21_Node000012_Node000003"><a xlink:title=" ">
<path fill="none" stroke="#63b8ff" d="M1207.03,-428.97C1341.13,-410.37 1634.65,-361.43 1693,-283 1736.02,-225.18 1737.23,-171.69 1686,-121 1645.16,-80.59 1485.88,-98.34 1430,-85 1427.19,-84.33 1424.3,-83.54 1421.41,-82.69"/>
<polygon fill="#63b8ff" stroke="#63b8ff" points="1422.35,-79.32 1411.76,-79.63 1420.23,-85.99 1422.35,-79.32"/>
</a>
</g>
</g>
<!-- Node13 -->
<g id="Node000013" class="node">
<title>Node13</title>
<g id="a_Node000013"><a xlink:href="UniformValueMap_8ixx.html" target="_top" xlink:title="Mapping of uniform names to values used by shader programs.">
<polygon fill="white" stroke="#666666" points="274,-151 140,-151 140,-121 274,-121 274,-151"/>
<text text-anchor="start" x="148" y="-139" font-family="Helvetica,sans-Serif" font-size="10.00">helios.rendering.shader.</text>
<text text-anchor="middle" x="207" y="-128" font-family="Helvetica,sans-Serif" font-size="10.00">UniformValueMap</text>
</a>
</g>
</g>
<!-- Node12&#45;&gt;Node13 -->
<g id="edge22_Node000012_Node000013" class="edge">
<title>Node12&#45;&gt;Node13</title>
<g id="a_edge22_Node000012_Node000013"><a xlink:title=" ">
<path fill="none" stroke="#63b8ff" d="M1048.44,-433.25C785.03,-420.4 44,-379.81 44,-329.5 44,-329.5 44,-329.5 44,-267 44,-210.28 105.08,-174.29 152.46,-154.9"/>
<polygon fill="#63b8ff" stroke="#63b8ff" points="154.01,-158.05 162.03,-151.13 151.44,-151.54 154.01,-158.05"/>
</a>
</g>
</g>
<!-- Node19 -->
<g id="Node000019" class="node">
<title>Node19</title>
<g id="a_Node000019"><a xlink:href="RenderPrototype_8ixx.html" target="_top" xlink:title="An immutable, shared prototype of a renderable object.">
<polygon fill="white" stroke="#666666" points="1212,-393 1032,-393 1032,-374 1212,-374 1212,-393"/>
<text text-anchor="middle" x="1122" y="-381" font-family="Helvetica,sans-Serif" font-size="10.00">helios.rendering.RenderPrototype</text>
</a>
</g>
</g>
<!-- Node12&#45;&gt;Node19 -->
<g id="edge29_Node000012_Node000019" class="edge">
<title>Node12&#45;&gt;Node19</title>
<g id="a_edge29_Node000012_Node000019"><a xlink:title=" ">
<path fill="none" stroke="#63b8ff" d="M1137.03,-428.75C1134.64,-421.72 1131.21,-411.62 1128.23,-402.84"/>
<polygon fill="#63b8ff" stroke="#63b8ff" points="1131.45,-401.43 1124.92,-393.09 1124.82,-403.68 1131.45,-401.43"/>
</a>
</g>
</g>
<!-- Node14 -->
<g id="Node000014" class="node">
<title>Node14</title>
<g id="a_Node000014"><a xlink:title=" ">
<polygon fill="#e0e0e0" stroke="#999999" points="264,-79.5 222,-79.5 222,-60.5 264,-60.5 264,-79.5"/>
<text text-anchor="middle" x="243" y="-67.5" font-family="Helvetica,sans-Serif" font-size="10.00">array</text>
</a>
</g>
</g>
<!-- Node13&#45;&gt;Node14 -->
<g id="edge23_Node000013_Node000014" class="edge">
<title>Node13&#45;&gt;Node14</title>
<g id="a_edge23_Node000013_Node000014"><a xlink:title=" ">
<path fill="none" stroke="#63b8ff" d="M214.99,-120.8C220.33,-111.31 227.39,-98.76 233.08,-88.63"/>
<polygon fill="#63b8ff" stroke="#63b8ff" points="236.17,-90.28 238.03,-79.84 230.07,-86.84 236.17,-90.28"/>
</a>
</g>
</g>
<!-- Node15 -->
<g id="Node000015" class="node">
<title>Node15</title>
<g id="a_Node000015"><a xlink:title=" ">
<polygon fill="#e0e0e0" stroke="#999999" points="338,-79.5 282,-79.5 282,-60.5 338,-60.5 338,-79.5"/>
<text text-anchor="middle" x="310" y="-67.5" font-family="Helvetica,sans-Serif" font-size="10.00">optional</text>
</a>
</g>
</g>
<!-- Node13&#45;&gt;Node15 -->
<g id="edge24_Node000013_Node000015" class="edge">
<title>Node13&#45;&gt;Node15</title>
<g id="a_edge24_Node000013_Node000015"><a xlink:title=" ">
<path fill="none" stroke="#63b8ff" d="M229.6,-120.95C246.79,-110.27 270.33,-95.65 287.49,-84.98"/>
<polygon fill="#63b8ff" stroke="#63b8ff" points="289.65,-87.77 296.29,-79.52 285.95,-81.82 289.65,-87.77"/>
</a>
</g>
</g>
<!-- Node16 -->
<g id="Node000016" class="node">
<title>Node16</title>
<g id="a_Node000016"><a xlink:title=" ">
<polygon fill="#e0e0e0" stroke="#999999" points="203.5,-79.5 152.5,-79.5 152.5,-60.5 203.5,-60.5 203.5,-79.5"/>
<text text-anchor="middle" x="178" y="-67.5" font-family="Helvetica,sans-Serif" font-size="10.00">variant</text>
</a>
</g>
</g>
<!-- Node13&#45;&gt;Node16 -->
<g id="edge25_Node000013_Node000016" class="edge">
<title>Node13&#45;&gt;Node16</title>
<g id="a_edge25_Node000013_Node000016"><a xlink:title=" ">
<path fill="none" stroke="#63b8ff" d="M200.56,-120.8C196.35,-111.5 190.81,-99.27 186.27,-89.26"/>
<polygon fill="#63b8ff" stroke="#63b8ff" points="189.32,-87.51 182.01,-79.84 182.95,-90.4 189.32,-87.51"/>
</a>
</g>
</g>
<!-- Node17 -->
<g id="Node000017" class="node">
<title>Node17</title>
<g id="a_Node000017"><a xlink:href="helios_2math_2types_2__module_8ixx.html" target="_top" xlink:title="Module exports for vector and matrix type definitions.">
<polygon fill="white" stroke="#666666" points="460,-79.5 356,-79.5 356,-60.5 460,-60.5 460,-79.5"/>
<text text-anchor="middle" x="408" y="-67.5" font-family="Helvetica,sans-Serif" font-size="10.00">helios.math.types</text>
</a>
</g>
</g>
<!-- Node13&#45;&gt;Node17 -->
<g id="edge26_Node000013_Node000017" class="edge">
<title>Node13&#45;&gt;Node17</title>
<g id="a_edge26_Node000013_Node000017"><a xlink:title=" ">
<path fill="none" stroke="#63b8ff" d="M251.11,-120.95C287.14,-109.48 337.46,-93.46 371.31,-82.68"/>
<polygon fill="#63b8ff" stroke="#63b8ff" points="372.78,-85.89 381.25,-79.52 370.66,-79.22 372.78,-85.89"/>
</a>
</g>
</g>
<!-- Node18 -->
<g id="Node000018" class="node">
<title>Node18</title>
<g id="a_Node000018"><a xlink:href="UniformSemantics_8ixx.html" target="_top" xlink:title="Definitions of uniform semantics used by shaders.">
<polygon fill="white" stroke="#666666" points="134,-85 0,-85 0,-55 134,-55 134,-85"/>
<text text-anchor="start" x="8" y="-73" font-family="Helvetica,sans-Serif" font-size="10.00">helios.rendering.shader.</text>
<text text-anchor="middle" x="67" y="-62" font-family="Helvetica,sans-Serif" font-size="10.00">UniformSemantics</text>
</a>
</g>
</g>
<!-- Node13&#45;&gt;Node18 -->
<g id="edge28_Node000013_Node000018" class="edge">
<title>Node13&#45;&gt;Node18</title>
<g id="a_edge28_Node000013_Node000018"><a xlink:title=" ">
<path fill="none" stroke="#63b8ff" d="M176.28,-120.95C155.85,-111.62 128.83,-99.27 106.77,-89.18"/>
<polygon fill="#63b8ff" stroke="#63b8ff" points="108.2,-85.99 97.65,-85.01 105.29,-92.35 108.2,-85.99"/>
</a>
</g>
</g>
<!-- Node17&#45;&gt;Node17 -->
<g id="edge27_Node000017_Node000017" class="edge">
<title>Node17&#45;&gt;Node17</title>
<g id="a_edge27_Node000017_Node000017"><a xlink:title=" ">
<path fill="none" stroke="#63b8ff" d="M433.85,-79.53C455.44,-83.61 478,-80.43 478,-70 478,-61.2 461.94,-57.56 443.95,-59.09"/>
<polygon fill="#63b8ff" stroke="#63b8ff" points="443.28,-55.65 433.85,-60.47 444.23,-62.58 443.28,-55.65"/>
</a>
</g>
</g>
<!-- Node19&#45;&gt;Node3 -->
<g id="edge30_Node000019_Node000003" class="edge">
<title>Node19&#45;&gt;Node3</title>
<g id="a_edge30_Node000019_Node000003"><a xlink:title=" ">
<path fill="none" stroke="#63b8ff" d="M1206.75,-373.99C1363.3,-357.12 1682,-316.89 1682,-269 1682,-269 1682,-269 1682,-201 1682,-164.46 1689.85,-145.79 1663,-121 1624.5,-85.46 1480.88,-97.51 1430,-85 1427.19,-84.31 1424.3,-83.51 1421.42,-82.65"/>
<polygon fill="#63b8ff" stroke="#63b8ff" points="1422.37,-79.28 1411.77,-79.57 1420.23,-85.95 1422.37,-79.28"/>
</a>
</g>
</g>
<!-- Node20 -->
<g id="Node000020" class="node">
<title>Node20</title>
<g id="a_Node000020"><a xlink:href="Mesh_8ixx.html" target="_top" xlink:title="Mesh abstraction: immutable vertex/index data and configuration.">
<polygon fill="white" stroke="#666666" points="1325,-277.5 1167,-277.5 1167,-258.5 1325,-258.5 1325,-277.5"/>
<text text-anchor="middle" x="1246" y="-265.5" font-family="Helvetica,sans-Serif" font-size="10.00">helios.rendering.model.Mesh</text>
</a>
</g>
</g>
<!-- Node19&#45;&gt;Node20 -->
<g id="edge31_Node000019_Node000020" class="edge">
<title>Node19&#45;&gt;Node20</title>
<g id="a_edge31_Node000019_Node000020"><a xlink:title=" ">
<path fill="none" stroke="#63b8ff" d="M1131.32,-373.97C1152.15,-354.91 1202.7,-308.63 1229.18,-284.39"/>
<polygon fill="#63b8ff" stroke="#63b8ff" points="1231.56,-286.96 1236.57,-277.63 1226.83,-281.8 1231.56,-286.96"/>
</a>
</g>
</g>
<!-- Node26 -->
<g id="Node000026" class="node">
<title>Node26</title>
<g id="a_Node000026"><a xlink:href="Material_8ixx.html" target="_top" xlink:title="Material abstraction: shader + material properties.">
<polygon fill="white" stroke="#666666" points="989.5,-338 816.5,-338 816.5,-319 989.5,-319 989.5,-338"/>
<text text-anchor="middle" x="903" y="-326" font-family="Helvetica,sans-Serif" font-size="10.00">helios.rendering.model.Material</text>
</a>
</g>
</g>
<!-- Node19&#45;&gt;Node26 -->
<g id="edge47_Node000019_Node000026" class="edge">
<title>Node19&#45;&gt;Node26</title>
<g id="a_edge47_Node000019_Node000026"><a xlink:title=" ">
<path fill="none" stroke="#63b8ff" d="M1086.81,-373.98C1049.17,-364.87 989.34,-350.4 948.23,-340.45"/>
<polygon fill="#63b8ff" stroke="#63b8ff" points="949,-337.03 938.46,-338.08 947.36,-343.84 949,-337.03"/>
</a>
</g>
</g>
<!-- Node20&#45;&gt;Node3 -->
<g id="edge32_Node000020_Node000003" class="edge">
<title>Node20&#45;&gt;Node3</title>
<g id="a_edge32_Node000020_Node000003"><a xlink:title=" ">
<path fill="none" stroke="#63b8ff" d="M1250.47,-258.36C1258.97,-242.59 1278.77,-208.77 1303,-187 1327.27,-165.19 1346.9,-176.71 1367,-151 1380.9,-133.22 1386.02,-107.24 1387.91,-89.75"/>
<polygon fill="#63b8ff" stroke="#63b8ff" points="1391.41,-89.91 1388.74,-79.66 1384.43,-89.34 1391.41,-89.91"/>
</a>
</g>
</g>
<!-- Node20&#45;&gt;Node4 -->
<g id="edge34_Node000020_Node000004" class="edge">
<title>Node20&#45;&gt;Node4</title>
<g id="a_edge34_Node000020_Node000004"><a xlink:title=" ">
<path fill="none" stroke="#63b8ff" d="M1325.34,-263.08C1440.06,-256.58 1641.01,-241.78 1663,-217 1691.32,-185.08 1689.28,-154.61 1663,-121 1642.59,-94.89 1547.39,-80.46 1495.66,-74.43"/>
<polygon fill="#63b8ff" stroke="#63b8ff" points="1495.96,-70.94 1485.63,-73.3 1495.18,-77.89 1495.96,-70.94"/>
</a>
</g>
</g>
<!-- Node20&#45;&gt;Node5 -->
<g id="edge37_Node000020_Node000005" class="edge">
<title>Node20&#45;&gt;Node5</title>
<g id="a_edge37_Node000020_Node000005"><a xlink:title=" ">
<path fill="none" stroke="#63b8ff" d="M1200.37,-258.44C1138.22,-246.77 1027.09,-225.91 960.29,-213.38"/>
<polygon fill="#63b8ff" stroke="#63b8ff" points="960.84,-209.92 950.36,-211.51 959.55,-216.8 960.84,-209.92"/>
</a>
</g>
</g>
<!-- Node20&#45;&gt;Node10 -->
<g id="edge36_Node000020_Node000010" class="edge">
<title>Node20&#45;&gt;Node10</title>
<g id="a_edge36_Node000020_Node000010"><a xlink:title=" ">
<path fill="none" stroke="#63b8ff" d="M1237.09,-258.41C1217.32,-239.55 1169.95,-195.52 1150,-187 1133.06,-179.77 896.78,-155.74 776.01,-143.82"/>
<polygon fill="#63b8ff" stroke="#63b8ff" points="776.05,-140.31 765.75,-142.81 775.36,-147.27 776.05,-140.31"/>
</a>
</g>
</g>
<!-- Node20&#45;&gt;Node17 -->
<g id="edge35_Node000020_Node000017" class="edge">
<title>Node20&#45;&gt;Node17</title>
<g id="a_edge35_Node000020_Node000017"><a xlink:title=" ">
<path fill="none" stroke="#63b8ff" d="M1240.95,-258.39C1231.41,-242.67 1209.4,-208.94 1184,-187 1138.82,-147.97 1124.19,-138.14 1067,-121 844.24,-54.23 776.7,-104.82 545,-85 520.51,-82.91 493.6,-80.24 470.16,-77.79"/>
<polygon fill="#63b8ff" stroke="#63b8ff" points="470.32,-74.29 460.01,-76.72 469.59,-81.25 470.32,-74.29"/>
</a>
</g>
</g>
<!-- Node21 -->
<g id="Node000021" class="node">
<title>Node21</title>
<g id="a_Node000021"><a xlink:title=" ">
<polygon fill="#e0e0e0" stroke="#999999" points="1141.5,-211.5 1076.5,-211.5 1076.5,-192.5 1141.5,-192.5 1141.5,-211.5"/>
<text text-anchor="middle" x="1109" y="-199.5" font-family="Helvetica,sans-Serif" font-size="10.00">stdexcept</text>
</a>
</g>
</g>
<!-- Node20&#45;&gt;Node21 -->
<g id="edge33_Node000020_Node000021" class="edge">
<title>Node20&#45;&gt;Node21</title>
<g id="a_edge33_Node000020_Node000021"><a xlink:title=" ">
<path fill="none" stroke="#63b8ff" d="M1227.52,-258.37C1204.24,-247.49 1163.99,-228.69 1136.94,-216.05"/>
<polygon fill="#63b8ff" stroke="#63b8ff" points="1138.16,-212.76 1127.62,-211.7 1135.2,-219.1 1138.16,-212.76"/>
</a>
</g>
</g>
<!-- Node22 -->
<g id="Node000022" class="node">
<title>Node22</title>
<g id="a_Node000022"><a xlink:href="Shape_8ixx.html" target="_top" xlink:title="Interface for simple geometric shapes used for testing and debugging.">
<polygon fill="white" stroke="#666666" points="1472,-217 1312,-217 1312,-187 1472,-187 1472,-217"/>
<text text-anchor="start" x="1320" y="-205" font-family="Helvetica,sans-Serif" font-size="10.00">helios.rendering.asset.shape.</text>
<text text-anchor="middle" x="1392" y="-194" font-family="Helvetica,sans-Serif" font-size="10.00">Shape</text>
</a>
</g>
</g>
<!-- Node20&#45;&gt;Node22 -->
<g id="edge38_Node000020_Node000022" class="edge">
<title>Node20&#45;&gt;Node22</title>
<g id="a_edge38_Node000020_Node000022"><a xlink:title=" ">
<path fill="none" stroke="#63b8ff" d="M1265.69,-258.37C1287.27,-248.91 1322.53,-233.45 1350.32,-221.27"/>
<polygon fill="#63b8ff" stroke="#63b8ff" points="1352.05,-224.34 1359.8,-217.12 1349.23,-217.92 1352.05,-224.34"/>
</a>
</g>
</g>
<!-- Node24 -->
<g id="Node000024" class="node">
<title>Node24</title>
<g id="a_Node000024"><a xlink:href="Vertex_8ixx.html" target="_top" xlink:title="Vertex description and utilities for rendering.">
<polygon fill="white" stroke="#666666" points="1358,-145.5 1228,-145.5 1228,-126.5 1358,-126.5 1358,-145.5"/>
<text text-anchor="middle" x="1293" y="-133.5" font-family="Helvetica,sans-Serif" font-size="10.00">helios.rendering.Vertex</text>
</a>
</g>
</g>
<!-- Node20&#45;&gt;Node24 -->
<g id="edge46_Node000020_Node000024" class="edge">
<title>Node20&#45;&gt;Node24</title>
<g id="a_edge46_Node000020_Node000024"><a xlink:title=" ">
<path fill="none" stroke="#63b8ff" d="M1248.14,-258.46C1251.94,-243.69 1260.36,-212.5 1270,-187 1274.12,-176.1 1279.53,-164.25 1284.07,-154.82"/>
<polygon fill="#63b8ff" stroke="#63b8ff" points="1287.28,-156.21 1288.55,-145.69 1281,-153.13 1287.28,-156.21"/>
</a>
</g>
</g>
<!-- Node25 -->
<g id="Node000025" class="node">
<title>Node25</title>
<g id="a_Node000025"><a xlink:href="MeshConfig_8ixx.html" target="_top" xlink:title="Mesh configuration including primitive type.">
<polygon fill="white" stroke="#666666" points="1654,-217 1490,-217 1490,-187 1654,-187 1654,-217"/>
<text text-anchor="start" x="1498" y="-205" font-family="Helvetica,sans-Serif" font-size="10.00">helios.rendering.model.config.</text>
<text text-anchor="middle" x="1572" y="-194" font-family="Helvetica,sans-Serif" font-size="10.00">MeshConfig</text>
</a>
</g>
</g>
<!-- Node20&#45;&gt;Node25 -->
<g id="edge44_Node000020_Node000025" class="edge">
<title>Node20&#45;&gt;Node25</title>
<g id="a_edge44_Node000020_Node000025"><a xlink:title=" ">
<path fill="none" stroke="#63b8ff" d="M1289.63,-258.44C1340.85,-248.38 1426.87,-231.49 1490.54,-218.99"/>
<polygon fill="#63b8ff" stroke="#63b8ff" points="1491.42,-222.39 1500.56,-217.02 1490.07,-215.52 1491.42,-222.39"/>
</a>
</g>
</g>
<!-- Node22&#45;&gt;Node3 -->
<g id="edge39_Node000022_Node000003" class="edge">
<title>Node22&#45;&gt;Node3</title>
<g id="a_edge39_Node000022_Node000003"><a xlink:title=" ">
<path fill="none" stroke="#63b8ff" d="M1395.2,-186.83C1398.4,-170.83 1402.5,-144.03 1400,-121 1398.85,-110.46 1396.39,-98.88 1394.08,-89.52"/>
<polygon fill="#63b8ff" stroke="#63b8ff" points="1397.44,-88.55 1391.53,-79.76 1390.67,-90.32 1397.44,-88.55"/>
</a>
</g>
</g>
<!-- Node22&#45;&gt;Node4 -->
<g id="edge40_Node000022_Node000004" class="edge">
<title>Node22&#45;&gt;Node4</title>
<g id="a_edge40_Node000022_Node000004"><a xlink:title=" ">
<path fill="none" stroke="#63b8ff" d="M1399.62,-186.84C1412.45,-163.02 1438.31,-114.99 1452.37,-88.88"/>
<polygon fill="#63b8ff" stroke="#63b8ff" points="1455.63,-90.21 1457.29,-79.75 1449.47,-86.89 1455.63,-90.21"/>
</a>
</g>
</g>
<!-- Node23 -->
<g id="Node000023" class="node">
<title>Node23</title>
<g id="a_Node000023"><a xlink:href="PrimitiveType_8ixx.html" target="_top" xlink:title="Enum of primitive types for mesh rendering.">
<polygon fill="white" stroke="#666666" points="1654,-151 1490,-151 1490,-121 1654,-121 1654,-151"/>
<text text-anchor="start" x="1498" y="-139" font-family="Helvetica,sans-Serif" font-size="10.00">helios.rendering.model.config.</text>
<text text-anchor="middle" x="1572" y="-128" font-family="Helvetica,sans-Serif" font-size="10.00">PrimitiveType</text>
</a>
</g>
</g>
<!-- Node22&#45;&gt;Node23 -->
<g id="edge41_Node000022_Node000023" class="edge">
<title>Node22&#45;&gt;Node23</title>
<g id="a_edge41_Node000022_Node000023"><a xlink:title=" ">
<path fill="none" stroke="#63b8ff" d="M1431.5,-186.95C1458.47,-177.37 1494.37,-164.6 1523.13,-154.37"/>
<polygon fill="#63b8ff" stroke="#63b8ff" points="1524.34,-157.66 1532.59,-151.01 1522,-151.06 1524.34,-157.66"/>
</a>
</g>
</g>
<!-- Node22&#45;&gt;Node24 -->
<g id="edge42_Node000022_Node000024" class="edge">
<title>Node22&#45;&gt;Node24</title>
<g id="a_edge42_Node000022_Node000024"><a xlink:title=" ">
<path fill="none" stroke="#63b8ff" d="M1370.03,-186.8C1353.59,-176.17 1331.21,-161.7 1314.81,-151.1"/>
<polygon fill="#63b8ff" stroke="#63b8ff" points="1316.69,-148.15 1306.39,-145.66 1312.89,-154.03 1316.69,-148.15"/>
</a>
</g>
</g>
<!-- Node24&#45;&gt;Node17 -->
<g id="edge43_Node000024_Node000017" class="edge">
<title>Node24&#45;&gt;Node17</title>
<g id="a_edge43_Node000024_Node000017"><a xlink:title=" ">
<path fill="none" stroke="#63b8ff" d="M1250.5,-126.49C1238.72,-124.4 1225.9,-122.37 1214,-121 918.19,-86.96 841.86,-108.14 545,-85 520.6,-83.1 493.81,-80.48 470.45,-78.02"/>
<polygon fill="#63b8ff" stroke="#63b8ff" points="470.63,-74.52 460.32,-76.94 469.89,-81.48 470.63,-74.52"/>
</a>
</g>
</g>
<!-- Node25&#45;&gt;Node23 -->
<g id="edge45_Node000025_Node000023" class="edge">
<title>Node25&#45;&gt;Node23</title>
<g id="a_edge45_Node000025_Node000023"><a xlink:title=" ">
<path fill="none" stroke="#63b8ff" d="M1572,-186.8C1572,-179.34 1572,-169.99 1572,-161.41"/>
<polygon fill="#63b8ff" stroke="#63b8ff" points="1575.5,-161.16 1572,-151.16 1568.5,-161.16 1575.5,-161.16"/>
</a>
</g>
</g>
<!-- Node26&#45;&gt;Node3 -->
<g id="edge48_Node000026_Node000003" class="edge">
<title>Node26&#45;&gt;Node3</title>
<g id="a_edge48_Node000026_Node000003"><a xlink:title=" ">
<path fill="none" stroke="#63b8ff" d="M920.86,-318.98C936.9,-310.89 960.68,-297.79 979,-283 1024.03,-246.64 1019.87,-220.6 1067,-187 1126.97,-144.25 1149.76,-146.11 1219,-121 1263.22,-104.97 1315.27,-90.25 1350.01,-80.99"/>
<polygon fill="#63b8ff" stroke="#63b8ff" points="1351,-84.35 1359.77,-78.42 1349.21,-77.59 1351,-84.35"/>
</a>
</g>
</g>
<!-- Node26&#45;&gt;Node13 -->
<g id="edge70_Node000026_Node000013" class="edge">
<title>Node26&#45;&gt;Node13</title>
<g id="a_edge70_Node000026_Node000013"><a xlink:title=" ">
<path fill="none" stroke="#63b8ff" d="M816.48,-328.28C633.98,-329.06 222.61,-325.98 177,-283 145.84,-253.64 155.33,-227.57 169,-187 172.45,-176.77 178.91,-166.98 185.54,-158.81"/>
<polygon fill="#63b8ff" stroke="#63b8ff" points="188.21,-161.07 192.12,-151.23 182.92,-156.48 188.21,-161.07"/>
</a>
</g>
</g>
<!-- Node26&#45;&gt;Node21 -->
<g id="edge49_Node000026_Node000021" class="edge">
<title>Node26&#45;&gt;Node21</title>
<g id="a_edge49_Node000026_Node000021"><a xlink:title=" ">
<path fill="none" stroke="#63b8ff" d="M976.79,-318.93C1005.64,-312.66 1037.59,-301.8 1062,-283 1082.59,-267.14 1095.9,-239.5 1102.92,-221.22"/>
<polygon fill="#63b8ff" stroke="#63b8ff" points="1106.25,-222.3 1106.34,-211.7 1099.66,-219.93 1106.25,-222.3"/>
</a>
</g>
</g>
<!-- Node27 -->
<g id="Node000027" class="node">
<title>Node27</title>
<g id="a_Node000027"><a xlink:href="helios_2util_2log_2__module_8ixx.html" target="_top" xlink:title="Module exports for logging.">
<polygon fill="white" stroke="#666666" points="817.5,-277.5 734.5,-277.5 734.5,-258.5 817.5,-258.5 817.5,-277.5"/>
<text text-anchor="middle" x="776" y="-265.5" font-family="Helvetica,sans-Serif" font-size="10.00">helios.util.log</text>
</a>
</g>
</g>
<!-- Node26&#45;&gt;Node27 -->
<g id="edge50_Node000026_Node000027" class="edge">
<title>Node26&#45;&gt;Node27</title>
<g id="a_edge50_Node000026_Node000027"><a xlink:title=" ">
<path fill="none" stroke="#63b8ff" d="M884.53,-318.99C863.28,-309.2 828.15,-293.02 803.63,-281.73"/>
<polygon fill="#63b8ff" stroke="#63b8ff" points="805.04,-278.52 794.49,-277.52 802.11,-284.88 805.04,-278.52"/>
</a>
</g>
</g>
<!-- Node29 -->
<g id="Node000029" class="node">
<title>Node29</title>
<g id="a_Node000029"><a xlink:href="MaterialProperties_8ixx.html" target="_top" xlink:title="Default material properties used by materials and instances.">
<polygon fill="white" stroke="#666666" points="350,-283 186,-283 186,-253 350,-253 350,-283"/>
<text text-anchor="start" x="194" y="-271" font-family="Helvetica,sans-Serif" font-size="10.00">helios.rendering.model.config.</text>
<text text-anchor="middle" x="268" y="-260" font-family="Helvetica,sans-Serif" font-size="10.00">MaterialProperties</text>
</a>
</g>
</g>
<!-- Node26&#45;&gt;Node29 -->
<g id="edge57_Node000026_Node000029" class="edge">
<title>Node26&#45;&gt;Node29</title>
<g id="a_edge57_Node000026_Node000029"><a xlink:title=" ">
<path fill="none" stroke="#63b8ff" d="M816.37,-319.52C696.95,-308.52 482.69,-288.78 360.33,-277.51"/>
<polygon fill="#63b8ff" stroke="#63b8ff" points="360.52,-274.01 350.24,-276.58 359.87,-280.98 360.52,-274.01"/>
</a>
</g>
</g>
<!-- Node31 -->
<g id="Node000031" class="node">
<title>Node31</title>
<g id="a_Node000031"><a xlink:href="Shader_8ixx.html" target="_top" xlink:title="Abstraction for a compiled shader program.">
<polygon fill="white" stroke="#666666" points="970,-283 836,-283 836,-253 970,-253 970,-283"/>
<text text-anchor="start" x="844" y="-271" font-family="Helvetica,sans-Serif" font-size="10.00">helios.rendering.shader.</text>
<text text-anchor="middle" x="903" y="-260" font-family="Helvetica,sans-Serif" font-size="10.00">Shader</text>
</a>
</g>
</g>
<!-- Node26&#45;&gt;Node31 -->
<g id="edge66_Node000026_Node000031" class="edge">
<title>Node26&#45;&gt;Node31</title>
<g id="a_edge66_Node000026_Node000031"><a xlink:title=" ">
<path fill="none" stroke="#63b8ff" d="M903,-318.87C903,-312.11 903,-302.35 903,-293.26"/>
<polygon fill="#63b8ff" stroke="#63b8ff" points="906.5,-293.11 903,-283.11 899.5,-293.11 906.5,-293.11"/>
</a>
</g>
</g>
<!-- Node27&#45;&gt;Node5 -->
<g id="edge51_Node000027_Node000005" class="edge">
<title>Node27&#45;&gt;Node5</title>
<g id="a_edge51_Node000027_Node000005"><a xlink:title=" ">
<path fill="none" stroke="#63b8ff" d="M793.4,-258.37C815.23,-247.54 852.89,-228.85 878.36,-216.22"/>
<polygon fill="#63b8ff" stroke="#63b8ff" points="880.06,-219.28 887.47,-211.7 876.95,-213.01 880.06,-219.28"/>
</a>
</g>
</g>
<!-- Node27&#45;&gt;Node10 -->
<g id="edge52_Node000027_Node000010" class="edge">
<title>Node27&#45;&gt;Node10</title>
<g id="a_edge52_Node000027_Node000010"><a xlink:title=" ">
<path fill="none" stroke="#63b8ff" d="M771.41,-258.47C760.09,-237.45 730.67,-182.82 715.44,-154.54"/>
<polygon fill="#63b8ff" stroke="#63b8ff" points="718.52,-152.88 710.7,-145.73 712.36,-156.2 718.52,-152.88"/>
</a>
</g>
</g>
<!-- Node27&#45;&gt;Node11 -->
<g id="edge56_Node000027_Node000011" class="edge">
<title>Node27&#45;&gt;Node11</title>
<g id="a_edge56_Node000027_Node000011"><a xlink:title=" ">
<path fill="none" stroke="#63b8ff" d="M753.38,-258.39C716.88,-243.12 646.15,-207.48 617,-151 607.16,-131.95 608.83,-106.78 611.7,-89.8"/>
<polygon fill="#63b8ff" stroke="#63b8ff" points="615.22,-90.03 613.75,-79.53 608.36,-88.65 615.22,-90.03"/>
</a>
</g>
</g>
<!-- Node28 -->
<g id="Node000028" class="node">
<title>Node28</title>
<g id="a_Node000028"><a xlink:href="ConsoleSink_8ixx.html" target="_top" xlink:title="Log sink that writes to stdout.">
<polygon fill="white" stroke="#666666" points="552,-145.5 406,-145.5 406,-126.5 552,-126.5 552,-145.5"/>
<text text-anchor="middle" x="479" y="-133.5" font-family="Helvetica,sans-Serif" font-size="10.00">helios.util.log.ConsoleSink</text>
</a>
</g>
</g>
<!-- Node27&#45;&gt;Node28 -->
<g id="edge53_Node000027_Node000028" class="edge">
<title>Node27&#45;&gt;Node28</title>
<g id="a_edge53_Node000027_Node000028"><a xlink:title=" ">
<path fill="none" stroke="#63b8ff" d="M734.35,-263.35C690.33,-258.11 619.94,-245.68 566,-217 535.79,-200.94 508.03,-171.87 492.34,-153.54"/>
<polygon fill="#63b8ff" stroke="#63b8ff" points="494.74,-150.96 485.65,-145.52 489.37,-155.44 494.74,-150.96"/>
</a>
</g>
</g>
<!-- Node28&#45;&gt;Node6 -->
<g id="edge54_Node000028_Node000006" class="edge">
<title>Node28&#45;&gt;Node6</title>
<g id="a_edge54_Node000028_Node000006"><a xlink:title=" ">
<path fill="none" stroke="#63b8ff" d="M484.05,-126.29C493.84,-110.09 516.94,-75.19 545,-55 570.43,-36.7 604.35,-24.84 628.93,-18.01"/>
<polygon fill="#63b8ff" stroke="#63b8ff" points="630.08,-21.32 638.85,-15.38 628.28,-14.56 630.08,-21.32"/>
</a>
</g>
</g>
<!-- Node28&#45;&gt;Node11 -->
<g id="edge55_Node000028_Node000011" class="edge">
<title>Node28&#45;&gt;Node11</title>
<g id="a_edge55_Node000028_Node000011"><a xlink:title=" ">
<path fill="none" stroke="#63b8ff" d="M497.48,-126.37C520.76,-115.49 561.01,-96.69 588.06,-84.05"/>
<polygon fill="#63b8ff" stroke="#63b8ff" points="589.8,-87.1 597.38,-79.7 586.84,-80.76 589.8,-87.1"/>
</a>
</g>
</g>
<!-- Node29&#45;&gt;Node13 -->
<g id="edge59_Node000029_Node000013" class="edge">
<title>Node29&#45;&gt;Node13</title>
<g id="a_edge59_Node000029_Node000013"><a xlink:title=" ">
<path fill="none" stroke="#63b8ff" d="M221.86,-252.99C204.66,-245.27 186.91,-233.76 177,-217 166.2,-198.74 176.84,-175.9 188.33,-159.31"/>
<polygon fill="#63b8ff" stroke="#63b8ff" points="191.15,-161.37 194.3,-151.26 185.53,-157.2 191.15,-161.37"/>
</a>
</g>
</g>
<!-- Node29&#45;&gt;Node17 -->
<g id="edge60_Node000029_Node000017" class="edge">
<title>Node29&#45;&gt;Node17</title>
<g id="a_edge60_Node000029_Node000017"><a xlink:title=" ">
<path fill="none" stroke="#63b8ff" d="M307.85,-252.89C325.65,-244.82 345.59,-233.05 359,-217 375.55,-197.19 395.01,-124.2 403.58,-89.52"/>
<polygon fill="#63b8ff" stroke="#63b8ff" points="407,-90.27 405.96,-79.73 400.2,-88.62 407,-90.27"/>
</a>
</g>
</g>
<!-- Node29&#45;&gt;Node18 -->
<g id="edge58_Node000029_Node000018" class="edge">
<title>Node29&#45;&gt;Node18</title>
<g id="a_edge58_Node000029_Node000018"><a xlink:title=" ">
<path fill="none" stroke="#63b8ff" d="M232.87,-252.85C193.45,-235.09 130.62,-200.8 97,-151 85.49,-133.96 77.65,-111.91 72.88,-95.28"/>
<polygon fill="#63b8ff" stroke="#63b8ff" points="76.16,-93.99 70.18,-85.24 69.4,-95.81 76.16,-93.99"/>
</a>
</g>
</g>
<!-- Node30 -->
<g id="Node000030" class="node">
<title>Node30</title>
<g id="a_Node000030"><a xlink:href="MaterialPropertiesOverride_8ixx.html" target="_top" xlink:title="Overrides for material properties to customize rendering parameters.">
<polygon fill="white" stroke="#666666" points="350,-217 186,-217 186,-187 350,-187 350,-217"/>
<text text-anchor="start" x="194" y="-205" font-family="Helvetica,sans-Serif" font-size="10.00">helios.rendering.model.config.</text>
<text text-anchor="middle" x="268" y="-194" font-family="Helvetica,sans-Serif" font-size="10.00">MaterialPropertiesOverride</text>
</a>
</g>
</g>
<!-- Node29&#45;&gt;Node30 -->
<g id="edge61_Node000029_Node000030" class="edge">
<title>Node29&#45;&gt;Node30</title>
<g id="a_edge61_Node000029_Node000030"><a xlink:title=" ">
<path fill="none" stroke="#63b8ff" d="M268,-252.8C268,-245.34 268,-235.99 268,-227.41"/>
<polygon fill="#63b8ff" stroke="#63b8ff" points="271.5,-227.16 268,-217.16 264.5,-227.16 271.5,-227.16"/>
</a>
</g>
</g>
<!-- Node30&#45;&gt;Node13 -->
<g id="edge64_Node000030_Node000013" class="edge">
<title>Node30&#45;&gt;Node13</title>
<g id="a_edge64_Node000030_Node000013"><a xlink:title=" ">
<path fill="none" stroke="#63b8ff" d="M254.46,-186.8C246.56,-178.51 236.44,-167.89 227.58,-158.59"/>
<polygon fill="#63b8ff" stroke="#63b8ff" points="229.93,-155.99 220.5,-151.16 224.87,-160.82 229.93,-155.99"/>
</a>
</g>
</g>
<!-- Node30&#45;&gt;Node15 -->
<g id="edge62_Node000030_Node000015" class="edge">
<title>Node30&#45;&gt;Node15</title>
<g id="a_edge62_Node000030_Node000015"><a xlink:title=" ">
<path fill="none" stroke="#63b8ff" d="M272.57,-186.84C280.2,-163.23 295.51,-115.83 304,-89.58"/>
<polygon fill="#63b8ff" stroke="#63b8ff" points="307.43,-90.34 307.17,-79.75 300.77,-88.19 307.43,-90.34"/>
</a>
</g>
</g>
<!-- Node30&#45;&gt;Node17 -->
<g id="edge65_Node000030_Node000017" class="edge">
<title>Node30&#45;&gt;Node17</title>
<g id="a_edge65_Node000030_Node000017"><a xlink:title=" ">
<path fill="none" stroke="#63b8ff" d="M283.25,-186.84C309.58,-162.39 363.39,-112.42 390.93,-86.85"/>
<polygon fill="#63b8ff" stroke="#63b8ff" points="393.63,-89.12 398.58,-79.75 388.87,-83.99 393.63,-89.12"/>
</a>
</g>
</g>
<!-- Node30&#45;&gt;Node18 -->
<g id="edge63_Node000030_Node000018" class="edge">
<title>Node30&#45;&gt;Node18</title>
<g id="a_edge63_Node000030_Node000018"><a xlink:title=" ">
<path fill="none" stroke="#63b8ff" d="M208.24,-186.94C182.87,-179.08 153.93,-167.47 131,-151 109.72,-135.71 91.74,-111.53 80.3,-93.75"/>
<polygon fill="#63b8ff" stroke="#63b8ff" points="83.19,-91.76 74.94,-85.11 77.25,-95.45 83.19,-91.76"/>
</a>
</g>
</g>
<!-- Node31&#45;&gt;Node5 -->
<g id="edge69_Node000031_Node000005" class="edge">
<title>Node31&#45;&gt;Node5</title>
<g id="a_edge69_Node000031_Node000005"><a xlink:title=" ">
<path fill="none" stroke="#63b8ff" d="M903.44,-252.8C903.73,-243.7 904.1,-231.79 904.41,-221.9"/>
<polygon fill="#63b8ff" stroke="#63b8ff" points="907.91,-221.95 904.72,-211.84 900.91,-221.73 907.91,-221.95"/>
</a>
</g>
</g>
<!-- Node31&#45;&gt;Node10 -->
<g id="edge68_Node000031_Node000010" class="edge">
<title>Node31&#45;&gt;Node10</title>
<g id="a_edge68_Node000031_Node000010"><a xlink:title=" ">
<path fill="none" stroke="#63b8ff" d="M879.73,-252.81C863.69,-242.93 841.92,-229.37 823,-217 788.82,-194.65 749.78,-167.65 726.55,-151.43"/>
<polygon fill="#63b8ff" stroke="#63b8ff" points="728.38,-148.44 718.18,-145.58 724.37,-154.18 728.38,-148.44"/>
</a>
</g>
</g>
<!-- Node31&#45;&gt;Node13 -->
<g id="edge67_Node000031_Node000013" class="edge">
<title>Node31&#45;&gt;Node13</title>
<g id="a_edge67_Node000031_Node000013"><a xlink:title=" ">
<path fill="none" stroke="#63b8ff" d="M835.95,-254.48C706.24,-230.25 421.66,-177.1 284.26,-151.43"/>
<polygon fill="#63b8ff" stroke="#63b8ff" points="284.7,-147.95 274.22,-149.56 283.41,-154.83 284.7,-147.95"/>
</a>
</g>
</g>
</g>
</svg>
