<?xml version="1.0" encoding="UTF-8" standalone="no"?>
<!DOCTYPE svg PUBLIC "-//W3C//DTD SVG 1.1//EN"
 "http://www.w3.org/Graphics/SVG/1.1/DTD/svg11.dtd">
<!-- Generated by graphviz version 2.43.0 (0)
 -->
<!-- Title: include/helios/rendering/RenderPass.ixx Pages: 1 -->
<svg width="1274pt" height="403pt"
 viewBox="0.00 0.00 1273.55 403.17" xmlns="http://www.w3.org/2000/svg" xmlns:xlink="http://www.w3.org/1999/xlink">
<g id="graph0" class="graph" transform="scale(1 1) rotate(0) translate(4 399.17)">
<title>include/helios/rendering/RenderPass.ixx</title>
<!-- Node1 -->
<g id="Node000001" class="node">
<title>Node1</title>
<g id="a_Node000001"><a xlink:title=" ">
<polygon fill="#999999" stroke="#666666" points="427.03,-395.17 293.03,-395.17 293.03,-365.17 427.03,-365.17 427.03,-395.17"/>
<text text-anchor="start" x="301.03" y="-383.17" font-family="Helvetica,sans-Serif" font-size="10.00">include/helios/rendering</text>
<text text-anchor="middle" x="360.03" y="-372.17" font-family="Helvetica,sans-Serif" font-size="10.00">/RenderPass.ixx</text>
</a>
</g>
</g>
<!-- Node2 -->
<g id="Node000002" class="node">
<title>Node2</title>
<g id="a_Node000002"><a xlink:title=" ">
<polygon fill="#e0e0e0" stroke="#999999" points="818.03,-81.67 760.03,-81.67 760.03,-62.67 818.03,-62.67 818.03,-81.67"/>
<text text-anchor="middle" x="789.03" y="-69.67" font-family="Helvetica,sans-Serif" font-size="10.00">memory</text>
</a>
</g>
</g>
<!-- Node1&#45;&gt;Node2 -->
<g id="edge1_Node000001_Node000002" class="edge">
<title>Node1&#45;&gt;Node2</title>
<g id="a_edge1_Node000001_Node000002"><a xlink:title=" ">
<path fill="none" stroke="#63b8ff" d="M427.25,-369.01C520.31,-353.02 677.03,-318.29 677.03,-265.67 677.03,-265.67 677.03,-265.67 677.03,-203.17 677.03,-166.52 674.59,-152.15 697.03,-123.17 705.44,-112.31 736,-96.84 759.61,-86"/>
<polygon fill="#63b8ff" stroke="#63b8ff" points="761.23,-89.11 768.9,-81.8 758.35,-82.73 761.23,-89.11"/>
</a>
</g>
</g>
<!-- Node3 -->
<g id="Node000003" class="node">
<title>Node3</title>
<g id="a_Node000003"><a xlink:href="LogManager_8ixx.html" target="_top" xlink:title=" ">
<polygon fill="white" stroke="#666666" points="345.03,-147.67 199.03,-147.67 199.03,-128.67 345.03,-128.67 345.03,-147.67"/>
<text text-anchor="middle" x="272.03" y="-135.67" font-family="Helvetica,sans-Serif" font-size="10.00">helios.util.log.LogManager</text>
</a>
</g>
</g>
<!-- Node1&#45;&gt;Node3 -->
<g id="edge2_Node000001_Node000003" class="edge">
<title>Node1&#45;&gt;Node3</title>
<g id="a_edge2_Node000001_Node000003"><a xlink:title=" ">
<path fill="none" stroke="#63b8ff" d="M313.89,-365.16C296.68,-357.45 278.94,-345.93 269.03,-329.17 236.45,-274.11 254.95,-193.43 265.84,-157.55"/>
<polygon fill="#63b8ff" stroke="#63b8ff" points="269.2,-158.52 268.91,-147.93 262.53,-156.4 269.2,-158.52"/>
</a>
</g>
</g>
<!-- Node7 -->
<g id="Node000007" class="node">
<title>Node7</title>
<g id="a_Node000007"><a xlink:href="Logger_8ixx.html" target="_top" xlink:title=" ">
<polygon fill="white" stroke="#666666" points="131.53,-81.67 12.53,-81.67 12.53,-62.67 131.53,-62.67 131.53,-81.67"/>
<text text-anchor="middle" x="72.03" y="-69.67" font-family="Helvetica,sans-Serif" font-size="10.00">helios.util.log.Logger</text>
</a>
</g>
</g>
<!-- Node1&#45;&gt;Node7 -->
<g id="edge10_Node000001_Node000007" class="edge">
<title>Node1&#45;&gt;Node7</title>
<g id="a_edge10_Node000001_Node000007"><a xlink:title=" ">
<path fill="none" stroke="#63b8ff" d="M292.84,-370.51C194.27,-355.88 22.03,-322.24 22.03,-265.67 22.03,-265.67 22.03,-265.67 22.03,-203.17 22.03,-160.46 45.84,-114.79 60.6,-90.59"/>
<polygon fill="#63b8ff" stroke="#63b8ff" points="63.72,-92.19 66.09,-81.87 57.8,-88.46 63.72,-92.19"/>
</a>
</g>
</g>
<!-- Node9 -->
<g id="Node000009" class="node">
<title>Node9</title>
<g id="a_Node000009"><a xlink:href="UniformValueMap_8ixx.html" target="_top" xlink:title=" ">
<polygon fill="white" stroke="#666666" points="535.03,-153.17 401.03,-153.17 401.03,-123.17 535.03,-123.17 535.03,-153.17"/>
<text text-anchor="start" x="409.03" y="-141.17" font-family="Helvetica,sans-Serif" font-size="10.00">helios.rendering.shader.</text>
<text text-anchor="middle" x="468.03" y="-130.17" font-family="Helvetica,sans-Serif" font-size="10.00">UniformValueMap</text>
</a>
</g>
</g>
<!-- Node1&#45;&gt;Node9 -->
<g id="edge11_Node000001_Node000009" class="edge">
<title>Node1&#45;&gt;Node9</title>
<g id="a_edge11_Node000001_Node000009"><a xlink:title=" ">
<path fill="none" stroke="#63b8ff" d="M413.17,-365.17C457.05,-350.46 516.42,-322.58 544.03,-274.17 567.02,-233.86 524.48,-186.55 494.3,-159.99"/>
<polygon fill="#63b8ff" stroke="#63b8ff" points="496.45,-157.22 486.57,-153.39 491.9,-162.55 496.45,-157.22"/>
</a>
</g>
</g>
<!-- Node16 -->
<g id="Node000016" class="node">
<title>Node16</title>
<g id="a_Node000016"><a xlink:href="RenderQueue_8ixx.html" target="_top" xlink:title=" ">
<polygon fill="white" stroke="#666666" points="442.03,-329.17 278.03,-329.17 278.03,-310.17 442.03,-310.17 442.03,-329.17"/>
<text text-anchor="middle" x="360.03" y="-317.17" font-family="Helvetica,sans-Serif" font-size="10.00">helios.rendering.RenderQueue</text>
</a>
</g>
</g>
<!-- Node1&#45;&gt;Node16 -->
<g id="edge19_Node000001_Node000016" class="edge">
<title>Node1&#45;&gt;Node16</title>
<g id="a_edge19_Node000001_Node000016"><a xlink:title=" ">
<path fill="none" stroke="#63b8ff" d="M360.03,-365.01C360.03,-357.39 360.03,-347.88 360.03,-339.62"/>
<polygon fill="#63b8ff" stroke="#63b8ff" points="363.53,-339.44 360.03,-329.44 356.53,-339.44 363.53,-339.44"/>
</a>
</g>
</g>
<!-- Node3&#45;&gt;Node2 -->
<g id="edge5_Node000003_Node000002" class="edge">
<title>Node3&#45;&gt;Node2</title>
<g id="a_edge5_Node000003_Node000002"><a xlink:title=" ">
<path fill="none" stroke="#63b8ff" d="M343.39,-128.66C359.39,-126.8 376.28,-124.88 392.03,-123.17 551.45,-105.88 594.77,-123.18 751.03,-87.17 753.7,-86.56 756.43,-85.81 759.16,-84.97"/>
<polygon fill="#63b8ff" stroke="#63b8ff" points="760.46,-88.23 768.81,-81.7 758.21,-81.6 760.46,-88.23"/>
</a>
</g>
</g>
<!-- Node4 -->
<g id="Node000004" class="node">
<title>Node4</title>
<g id="a_Node000004"><a xlink:title=" ">
<polygon fill="#e0e0e0" stroke="#999999" points="133.03,-21.17 89.03,-21.17 89.03,-2.17 133.03,-2.17 133.03,-21.17"/>
<text text-anchor="middle" x="111.03" y="-9.17" font-family="Helvetica,sans-Serif" font-size="10.00">string</text>
</a>
</g>
</g>
<!-- Node3&#45;&gt;Node4 -->
<g id="edge3_Node000003_Node000004" class="edge">
<title>Node3&#45;&gt;Node4</title>
<g id="a_edge3_Node000003_Node000004"><a xlink:title=" ">
<path fill="none" stroke="#63b8ff" d="M283.93,-128.47C303.43,-113.17 338.17,-80.85 319.03,-57.17 297.3,-30.31 196.22,-18.94 143.39,-14.77"/>
<polygon fill="#63b8ff" stroke="#63b8ff" points="143.43,-11.27 133.2,-14.01 142.91,-18.25 143.43,-11.27"/>
</a>
</g>
</g>
<!-- Node5 -->
<g id="Node000005" class="node">
<title>Node5</title>
<g id="a_Node000005"><a xlink:title=" ">
<polygon fill="#e0e0e0" stroke="#999999" points="309.53,-81.67 216.53,-81.67 216.53,-62.67 309.53,-62.67 309.53,-81.67"/>
<text text-anchor="middle" x="263.03" y="-69.67" font-family="Helvetica,sans-Serif" font-size="10.00">unordered_map</text>
</a>
</g>
</g>
<!-- Node3&#45;&gt;Node5 -->
<g id="edge4_Node000003_Node000005" class="edge">
<title>Node3&#45;&gt;Node5</title>
<g id="a_edge4_Node000003_Node000005"><a xlink:title=" ">
<path fill="none" stroke="#63b8ff" d="M270.81,-128.54C269.51,-119.24 267.38,-104.15 265.68,-92.07"/>
<polygon fill="#63b8ff" stroke="#63b8ff" points="269.14,-91.5 264.28,-82.08 262.21,-92.47 269.14,-91.5"/>
</a>
</g>
</g>
<!-- Node6 -->
<g id="Node000006" class="node">
<title>Node6</title>
<g id="a_Node000006"><a xlink:title=" ">
<polygon fill="#e0e0e0" stroke="#999999" points="198.03,-81.67 150.03,-81.67 150.03,-62.67 198.03,-62.67 198.03,-81.67"/>
<text text-anchor="middle" x="174.03" y="-69.67" font-family="Helvetica,sans-Serif" font-size="10.00">mutex</text>
</a>
</g>
</g>
<!-- Node3&#45;&gt;Node6 -->
<g id="edge6_Node000003_Node000006" class="edge">
<title>Node3&#45;&gt;Node6</title>
<g id="a_edge6_Node000003_Node000006"><a xlink:title=" ">
<path fill="none" stroke="#63b8ff" d="M258.81,-128.54C242.66,-118 215.12,-100.01 195.82,-87.41"/>
<polygon fill="#63b8ff" stroke="#63b8ff" points="197.63,-84.41 187.35,-81.87 193.81,-90.27 197.63,-84.41"/>
</a>
</g>
</g>
<!-- Node3&#45;&gt;Node7 -->
<g id="edge7_Node000003_Node000007" class="edge">
<title>Node3&#45;&gt;Node7</title>
<g id="a_edge7_Node000003_Node000007"><a xlink:title=" ">
<path fill="none" stroke="#63b8ff" d="M245.05,-128.54C209.84,-117.28 148.07,-97.51 108.64,-84.89"/>
<polygon fill="#63b8ff" stroke="#63b8ff" points="109.48,-81.49 98.89,-81.77 107.35,-88.15 109.48,-81.49"/>
</a>
</g>
</g>
<!-- Node7&#45;&gt;Node4 -->
<g id="edge9_Node000007_Node000004" class="edge">
<title>Node7&#45;&gt;Node4</title>
<g id="a_edge9_Node000007_Node000004"><a xlink:title=" ">
<path fill="none" stroke="#63b8ff" d="M77.78,-62.54C83.48,-53.99 92.38,-40.65 99.53,-29.91"/>
<polygon fill="#63b8ff" stroke="#63b8ff" points="102.61,-31.6 105.25,-21.34 96.79,-27.72 102.61,-31.6"/>
</a>
</g>
</g>
<!-- Node8 -->
<g id="Node000008" class="node">
<title>Node8</title>
<g id="a_Node000008"><a xlink:title=" ">
<polygon fill="#e0e0e0" stroke="#999999" points="62.03,-21.17 2.03,-21.17 2.03,-2.17 62.03,-2.17 62.03,-21.17"/>
<text text-anchor="middle" x="32.03" y="-9.17" font-family="Helvetica,sans-Serif" font-size="10.00">iostream</text>
</a>
</g>
</g>
<!-- Node7&#45;&gt;Node8 -->
<g id="edge8_Node000007_Node000008" class="edge">
<title>Node7&#45;&gt;Node8</title>
<g id="a_edge8_Node000007_Node000008"><a xlink:title=" ">
<path fill="none" stroke="#63b8ff" d="M66.12,-62.54C60.28,-53.99 51.15,-40.65 43.81,-29.91"/>
<polygon fill="#63b8ff" stroke="#63b8ff" points="46.49,-27.62 37.95,-21.34 40.71,-31.57 46.49,-27.62"/>
</a>
</g>
</g>
<!-- Node10 -->
<g id="Node000010" class="node">
<title>Node10</title>
<g id="a_Node000010"><a xlink:title=" ">
<polygon fill="#e0e0e0" stroke="#999999" points="672.03,-81.67 630.03,-81.67 630.03,-62.67 672.03,-62.67 672.03,-81.67"/>
<text text-anchor="middle" x="651.03" y="-69.67" font-family="Helvetica,sans-Serif" font-size="10.00">array</text>
</a>
</g>
</g>
<!-- Node9&#45;&gt;Node10 -->
<g id="edge12_Node000009_Node000010" class="edge">
<title>Node9&#45;&gt;Node10</title>
<g id="a_edge12_Node000009_Node000010"><a xlink:title=" ">
<path fill="none" stroke="#63b8ff" d="M511.64,-123.14C541.23,-113.44 581.16,-100.03 616.03,-87.17 617.45,-86.65 618.9,-86.11 620.36,-85.55"/>
<polygon fill="#63b8ff" stroke="#63b8ff" points="621.95,-88.69 630,-81.8 619.41,-82.17 621.95,-88.69"/>
</a>
</g>
</g>
<!-- Node11 -->
<g id="Node000011" class="node">
<title>Node11</title>
<g id="a_Node000011"><a xlink:title=" ">
<polygon fill="#e0e0e0" stroke="#999999" points="422.03,-81.67 366.03,-81.67 366.03,-62.67 422.03,-62.67 422.03,-81.67"/>
<text text-anchor="middle" x="394.03" y="-69.67" font-family="Helvetica,sans-Serif" font-size="10.00">optional</text>
</a>
</g>
</g>
<!-- Node9&#45;&gt;Node11 -->
<g id="edge13_Node000009_Node000011" class="edge">
<title>Node9&#45;&gt;Node11</title>
<g id="a_edge13_Node000009_Node000011"><a xlink:title=" ">
<path fill="none" stroke="#63b8ff" d="M451.6,-122.97C439.84,-112.8 424.01,-99.11 411.92,-88.65"/>
<polygon fill="#63b8ff" stroke="#63b8ff" points="414.11,-85.91 404.25,-82.02 409.53,-91.21 414.11,-85.91"/>
</a>
</g>
</g>
<!-- Node12 -->
<g id="Node000012" class="node">
<title>Node12</title>
<g id="a_Node000012"><a xlink:title=" ">
<polygon fill="#e0e0e0" stroke="#999999" points="741.53,-81.67 690.53,-81.67 690.53,-62.67 741.53,-62.67 741.53,-81.67"/>
<text text-anchor="middle" x="716.03" y="-69.67" font-family="Helvetica,sans-Serif" font-size="10.00">variant</text>
</a>
</g>
</g>
<!-- Node9&#45;&gt;Node12 -->
<g id="edge14_Node000009_Node000012" class="edge">
<title>Node9&#45;&gt;Node12</title>
<g id="a_edge14_Node000009_Node000012"><a xlink:title=" ">
<path fill="none" stroke="#63b8ff" d="M535.4,-124.06C577.66,-115.18 633.03,-102.31 681.03,-87.17 682.9,-86.58 684.81,-85.94 686.73,-85.26"/>
<polygon fill="#63b8ff" stroke="#63b8ff" points="688.1,-88.49 696.22,-81.69 685.63,-81.94 688.1,-88.49"/>
</a>
</g>
</g>
<!-- Node13 -->
<g id="Node000013" class="node">
<title>Node13</title>
<g id="a_Node000013"><a xlink:href="math_2types_2__module_8ixx.html" target="_top" xlink:title=" ">
<polygon fill="white" stroke="#666666" points="1151.03,-21.17 1047.03,-21.17 1047.03,-2.17 1151.03,-2.17 1151.03,-21.17"/>
<text text-anchor="middle" x="1099.03" y="-9.17" font-family="Helvetica,sans-Serif" font-size="10.00">helios.math.types</text>
</a>
</g>
</g>
<!-- Node9&#45;&gt;Node13 -->
<g id="edge15_Node000009_Node000013" class="edge">
<title>Node9&#45;&gt;Node13</title>
<g id="a_edge15_Node000009_Node000013"><a xlink:title=" ">
<path fill="none" stroke="#63b8ff" d="M507.06,-123.11C529.91,-114.18 558.93,-101.59 583.03,-87.17 601.49,-76.13 601.05,-65.17 621.03,-57.17 694.94,-27.6 924.72,-17.39 1036.58,-14.1"/>
<polygon fill="#63b8ff" stroke="#63b8ff" points="1036.81,-17.6 1046.71,-13.82 1036.61,-10.6 1036.81,-17.6"/>
</a>
</g>
</g>
<!-- Node14 -->
<g id="Node000014" class="node">
<title>Node14</title>
<g id="a_Node000014"><a xlink:href="UniformSemantics_8ixx.html" target="_top" xlink:title=" ">
<polygon fill="white" stroke="#666666" points="574.03,-87.17 440.03,-87.17 440.03,-57.17 574.03,-57.17 574.03,-87.17"/>
<text text-anchor="start" x="448.03" y="-75.17" font-family="Helvetica,sans-Serif" font-size="10.00">helios.rendering.shader.</text>
<text text-anchor="middle" x="507.03" y="-64.17" font-family="Helvetica,sans-Serif" font-size="10.00">UniformSemantics</text>
</a>
</g>
</g>
<!-- Node9&#45;&gt;Node14 -->
<g id="edge17_Node000009_Node000014" class="edge">
<title>Node9&#45;&gt;Node14</title>
<g id="a_edge17_Node000009_Node000014"><a xlink:title=" ">
<path fill="none" stroke="#63b8ff" d="M476.68,-122.97C481.53,-115.02 487.69,-104.91 493.19,-95.89"/>
<polygon fill="#63b8ff" stroke="#63b8ff" points="496.18,-97.7 498.4,-87.34 490.2,-94.06 496.18,-97.7"/>
</a>
</g>
</g>
<!-- Node13&#45;&gt;Node13 -->
<g id="edge16_Node000013_Node000013" class="edge">
<title>Node13&#45;&gt;Node13</title>
<g id="a_edge16_Node000013_Node000013"><a xlink:title=" ">
<path fill="none" stroke="#63b8ff" d="M1124.87,-21.21C1146.47,-25.28 1169.03,-22.1 1169.03,-11.67 1169.03,-2.87 1152.96,0.76 1134.98,-0.76"/>
<polygon fill="#63b8ff" stroke="#63b8ff" points="1134.31,2.68 1124.87,-2.14 1135.25,-4.26 1134.31,2.68"/>
</a>
</g>
</g>
<!-- Node15 -->
<g id="Node000015" class="node">
<title>Node15</title>
<g id="a_Node000015"><a xlink:title=" ">
<polygon fill="#e0e0e0" stroke="#999999" points="532.53,-21.17 481.53,-21.17 481.53,-2.17 532.53,-2.17 532.53,-21.17"/>
<text text-anchor="middle" x="507.03" y="-9.17" font-family="Helvetica,sans-Serif" font-size="10.00">cwchar</text>
</a>
</g>
</g>
<!-- Node14&#45;&gt;Node15 -->
<g id="edge18_Node000014_Node000015" class="edge">
<title>Node14&#45;&gt;Node15</title>
<g id="a_edge18_Node000014_Node000015"><a xlink:title=" ">
<path fill="none" stroke="#63b8ff" d="M507.03,-57.01C507.03,-49.39 507.03,-39.88 507.03,-31.62"/>
<polygon fill="#63b8ff" stroke="#63b8ff" points="510.53,-31.44 507.03,-21.44 503.53,-31.44 510.53,-31.44"/>
</a>
</g>
</g>
<!-- Node16&#45;&gt;Node2 -->
<g id="edge21_Node000016_Node000002" class="edge">
<title>Node16&#45;&gt;Node2</title>
<g id="a_edge21_Node000016_Node000002"><a xlink:title=" ">
<path fill="none" stroke="#63b8ff" d="M442.07,-310.72C475.69,-304.55 513.74,-293.6 544.03,-274.17 615.95,-228.04 594.52,-174.24 663.03,-123.17 667.03,-120.19 721,-99.23 757,-85.41"/>
<polygon fill="#63b8ff" stroke="#63b8ff" points="758.53,-88.57 766.62,-81.72 756.03,-82.03 758.53,-88.57"/>
</a>
</g>
</g>
<!-- Node16&#45;&gt;Node3 -->
<g id="edge23_Node000016_Node000003" class="edge">
<title>Node16&#45;&gt;Node3</title>
<g id="a_edge23_Node000016_Node000003"><a xlink:title=" ">
<path fill="none" stroke="#63b8ff" d="M353.47,-310.07C341,-293.35 313.61,-254.98 297.03,-219.17 287.69,-199.01 280.59,-174.42 276.39,-157.87"/>
<polygon fill="#63b8ff" stroke="#63b8ff" points="279.72,-156.74 273.95,-147.86 272.91,-158.4 279.72,-156.74"/>
</a>
</g>
</g>
<!-- Node16&#45;&gt;Node7 -->
<g id="edge24_Node000016_Node000007" class="edge">
<title>Node16&#45;&gt;Node7</title>
<g id="a_edge24_Node000016_Node000007"><a xlink:title=" ">
<path fill="none" stroke="#63b8ff" d="M341.53,-310.11C297.46,-288.96 184.73,-230.29 115.03,-153.17 98.3,-134.67 85.83,-108.49 78.74,-91.19"/>
<polygon fill="#63b8ff" stroke="#63b8ff" points="81.93,-89.74 75.03,-81.71 75.41,-92.29 81.93,-89.74"/>
</a>
</g>
</g>
<!-- Node16&#45;&gt;Node8 -->
<g id="edge20_Node000016_Node000008" class="edge">
<title>Node16&#45;&gt;Node8</title>
<g id="a_edge20_Node000016_Node000008"><a xlink:title=" ">
<path fill="none" stroke="#63b8ff" d="M331.74,-310.17C306.58,-302.18 269.06,-289.23 238.03,-274.17 196.19,-253.88 186.2,-247.1 149.03,-219.17 79.09,-166.63 38.53,-167.13 3.03,-87.17 -5.64,-67.66 6.58,-44.7 17.71,-29.48"/>
<polygon fill="#63b8ff" stroke="#63b8ff" points="20.56,-31.53 23.98,-21.5 15.05,-27.21 20.56,-31.53"/>
</a>
</g>
</g>
<!-- Node17 -->
<g id="Node000017" class="node">
<title>Node17</title>
<g id="a_Node000017"><a xlink:title=" ">
<polygon fill="#e0e0e0" stroke="#999999" points="1244.53,-81.67 1197.53,-81.67 1197.53,-62.67 1244.53,-62.67 1244.53,-81.67"/>
<text text-anchor="middle" x="1221.03" y="-69.67" font-family="Helvetica,sans-Serif" font-size="10.00">vector</text>
</a>
</g>
</g>
<!-- Node16&#45;&gt;Node17 -->
<g id="edge22_Node000016_Node000017" class="edge">
<title>Node16&#45;&gt;Node17</title>
<g id="a_edge22_Node000016_Node000017"><a xlink:title=" ">
<path fill="none" stroke="#63b8ff" d="M442.39,-315.55C637.48,-306.25 1118.81,-271.54 1217.03,-153.17 1231.15,-136.16 1229.27,-109.42 1225.82,-91.6"/>
<polygon fill="#63b8ff" stroke="#63b8ff" points="1229.23,-90.8 1223.6,-81.82 1222.4,-92.35 1229.23,-90.8"/>
</a>
</g>
</g>
<!-- Node18 -->
<g id="Node000018" class="node">
<title>Node18</title>
<g id="a_Node000018"><a xlink:href="RenderCommand_8ixx.html" target="_top" xlink:title=" ">
<polygon fill="white" stroke="#666666" points="534.53,-274.17 351.53,-274.17 351.53,-255.17 534.53,-255.17 534.53,-274.17"/>
<text text-anchor="middle" x="443.03" y="-262.17" font-family="Helvetica,sans-Serif" font-size="10.00">helios.rendering.RenderCommand</text>
</a>
</g>
</g>
<!-- Node16&#45;&gt;Node18 -->
<g id="edge25_Node000016_Node000018" class="edge">
<title>Node16&#45;&gt;Node18</title>
<g id="a_edge25_Node000016_Node000018"><a xlink:title=" ">
<path fill="none" stroke="#63b8ff" d="M373.36,-310.16C386.11,-302.02 405.58,-289.59 420.7,-279.93"/>
<polygon fill="#63b8ff" stroke="#63b8ff" points="422.9,-282.68 429.45,-274.34 419.14,-276.78 422.9,-282.68"/>
</a>
</g>
</g>
<!-- Node18&#45;&gt;Node2 -->
<g id="edge26_Node000018_Node000002" class="edge">
<title>Node18&#45;&gt;Node2</title>
<g id="a_edge26_Node000018_Node000002"><a xlink:title=" ">
<path fill="none" stroke="#63b8ff" d="M453.04,-255.13C485.34,-227.68 586.91,-142.44 625.03,-123.17 677.01,-96.91 695.66,-105.25 751.03,-87.17 752.93,-86.55 754.88,-85.9 756.85,-85.22"/>
<polygon fill="#63b8ff" stroke="#63b8ff" points="758.37,-88.39 766.62,-81.75 756.02,-81.8 758.37,-88.39"/>
</a>
</g>
</g>
<!-- Node18&#45;&gt;Node9 -->
<g id="edge27_Node000018_Node000009" class="edge">
<title>Node18&#45;&gt;Node9</title>
<g id="a_edge27_Node000018_Node000009"><a xlink:title=" ">
<path fill="none" stroke="#63b8ff" d="M444.75,-255.12C448.5,-236.41 457.56,-191.31 463.2,-163.19"/>
<polygon fill="#63b8ff" stroke="#63b8ff" points="466.65,-163.83 465.18,-153.34 459.78,-162.45 466.65,-163.83"/>
</a>
</g>
</g>
<!-- Node19 -->
<g id="Node000019" class="node">
<title>Node19</title>
<g id="a_Node000019"><a xlink:href="Shader_8ixx.html" target="_top" xlink:title=" ">
<polygon fill="white" stroke="#666666" points="440.03,-219.17 306.03,-219.17 306.03,-189.17 440.03,-189.17 440.03,-219.17"/>
<text text-anchor="start" x="314.03" y="-207.17" font-family="Helvetica,sans-Serif" font-size="10.00">helios.rendering.shader.</text>
<text text-anchor="middle" x="373.03" y="-196.17" font-family="Helvetica,sans-Serif" font-size="10.00">Shader</text>
</a>
</g>
</g>
<!-- Node18&#45;&gt;Node19 -->
<g id="edge28_Node000018_Node000019" class="edge">
<title>Node18&#45;&gt;Node19</title>
<g id="a_edge28_Node000018_Node000019"><a xlink:title=" ">
<path fill="none" stroke="#63b8ff" d="M432.7,-255.04C423.55,-247.4 409.83,-235.93 397.85,-225.92"/>
<polygon fill="#63b8ff" stroke="#63b8ff" points="399.83,-223.02 389.92,-219.29 395.34,-228.39 399.83,-223.02"/>
</a>
</g>
</g>
<!-- Node20 -->
<g id="Node000020" class="node">
<title>Node20</title>
<g id="a_Node000020"><a xlink:href="Mesh_8ixx.html" target="_top" xlink:title=" ">
<polygon fill="white" stroke="#666666" points="933.03,-213.67 775.03,-213.67 775.03,-194.67 933.03,-194.67 933.03,-213.67"/>
<text text-anchor="middle" x="854.03" y="-201.67" font-family="Helvetica,sans-Serif" font-size="10.00">helios.rendering.model.Mesh</text>
</a>
</g>
</g>
<!-- Node18&#45;&gt;Node20 -->
<g id="edge34_Node000018_Node000020" class="edge">
<title>Node18&#45;&gt;Node20</title>
<g id="a_edge34_Node000018_Node000020"><a xlink:title=" ">
<path fill="none" stroke="#63b8ff" d="M502.79,-255.17C577.36,-244.55 704.69,-226.43 783.83,-215.17"/>
<polygon fill="#63b8ff" stroke="#63b8ff" points="784.78,-218.57 794.19,-213.69 783.8,-211.64 784.78,-218.57"/>
</a>
</g>
</g>
<!-- Node19&#45;&gt;Node2 -->
<g id="edge29_Node000019_Node000002" class="edge">
<title>Node19&#45;&gt;Node2</title>
<g id="a_edge29_Node000019_Node000002"><a xlink:title=" ">
<path fill="none" stroke="#63b8ff" d="M439.42,-189.1C471.88,-180.9 510.97,-169.01 544.03,-153.17 565.04,-143.11 565.68,-132.52 587.03,-123.17 655.39,-93.25 679.4,-108.12 751.03,-87.17 753.3,-86.51 755.64,-85.77 757.98,-85"/>
<polygon fill="#63b8ff" stroke="#63b8ff" points="759.2,-88.28 767.49,-81.69 756.9,-81.67 759.2,-88.28"/>
</a>
</g>
</g>
<!-- Node19&#45;&gt;Node3 -->
<g id="edge33_Node000019_Node000003" class="edge">
<title>Node19&#45;&gt;Node3</title>
<g id="a_edge33_Node000019_Node000003"><a xlink:title=" ">
<path fill="none" stroke="#63b8ff" d="M350.61,-188.97C333.84,-178.34 311.01,-163.88 294.28,-153.28"/>
<polygon fill="#63b8ff" stroke="#63b8ff" points="296.01,-150.23 285.69,-147.83 292.26,-156.14 296.01,-150.23"/>
</a>
</g>
</g>
<!-- Node19&#45;&gt;Node7 -->
<g id="edge32_Node000019_Node000007" class="edge">
<title>Node19&#45;&gt;Node7</title>
<g id="a_edge32_Node000019_Node000007"><a xlink:title=" ">
<path fill="none" stroke="#63b8ff" d="M305.56,-196.79C261.26,-190.44 203.18,-177.87 157.03,-153.17 127.24,-137.24 100.2,-108.13 84.96,-89.76"/>
<polygon fill="#63b8ff" stroke="#63b8ff" points="87.47,-87.3 78.47,-81.72 82.02,-91.7 87.47,-87.3"/>
</a>
</g>
</g>
<!-- Node19&#45;&gt;Node9 -->
<g id="edge31_Node000019_Node000009" class="edge">
<title>Node19&#45;&gt;Node9</title>
<g id="a_edge31_Node000019_Node000009"><a xlink:title=" ">
<path fill="none" stroke="#63b8ff" d="M394.11,-188.97C407.15,-180.19 424.08,-168.78 438.45,-159.1"/>
<polygon fill="#63b8ff" stroke="#63b8ff" points="440.66,-161.83 447,-153.34 436.75,-156.02 440.66,-161.83"/>
</a>
</g>
</g>
<!-- Node19&#45;&gt;Node11 -->
<g id="edge30_Node000019_Node000011" class="edge">
<title>Node19&#45;&gt;Node11</title>
<g id="a_edge30_Node000019_Node000011"><a xlink:title=" ">
<path fill="none" stroke="#63b8ff" d="M375.31,-189.01C379.11,-165.51 386.72,-118.43 390.97,-92.1"/>
<polygon fill="#63b8ff" stroke="#63b8ff" points="394.47,-92.35 392.61,-81.92 387.56,-91.24 394.47,-92.35"/>
</a>
</g>
</g>
<!-- Node20&#45;&gt;Node2 -->
<g id="edge35_Node000020_Node000002" class="edge">
<title>Node20&#45;&gt;Node2</title>
<g id="a_edge35_Node000020_Node000002"><a xlink:title=" ">
<path fill="none" stroke="#63b8ff" d="M846.59,-194.45C838.69,-184.84 826.22,-168.69 818.03,-153.17 807.49,-133.22 799.2,-108.6 794.23,-91.98"/>
<polygon fill="#63b8ff" stroke="#63b8ff" points="797.46,-90.55 791.33,-81.91 790.74,-92.49 797.46,-90.55"/>
</a>
</g>
</g>
<!-- Node20&#45;&gt;Node3 -->
<g id="edge39_Node000020_Node000003" class="edge">
<title>Node20&#45;&gt;Node3</title>
<g id="a_edge39_Node000020_Node000003"><a xlink:title=" ">
<path fill="none" stroke="#63b8ff" d="M774.71,-194.79C682.66,-185.02 526.31,-168.27 392.03,-153.17 379.77,-151.8 366.82,-150.31 354.13,-148.85"/>
<polygon fill="#63b8ff" stroke="#63b8ff" points="354.37,-145.35 344.04,-147.67 353.57,-152.3 354.37,-145.35"/>
</a>
</g>
</g>
<!-- Node20&#45;&gt;Node7 -->
<g id="edge38_Node000020_Node000007" class="edge">
<title>Node20&#45;&gt;Node7</title>
<g id="a_edge38_Node000020_Node000007"><a xlink:title=" ">
<path fill="none" stroke="#63b8ff" d="M774.83,-199.76C610.52,-192.3 243.4,-173.6 190.03,-153.17 169.6,-145.36 168.95,-135.7 151.03,-123.17 132.68,-110.35 111.17,-96.83 95.23,-87.09"/>
<polygon fill="#63b8ff" stroke="#63b8ff" points="96.92,-84.02 86.56,-81.82 93.29,-90 96.92,-84.02"/>
</a>
</g>
</g>
<!-- Node20&#45;&gt;Node13 -->
<g id="edge49_Node000020_Node000013" class="edge">
<title>Node20&#45;&gt;Node13</title>
<g id="a_edge49_Node000020_Node000013"><a xlink:title=" ">
<path fill="none" stroke="#63b8ff" d="M933.05,-200.41C1025.65,-195.79 1172.15,-183.77 1217.03,-153.17 1254.81,-127.42 1281.54,-93.7 1254.03,-57.17 1242.51,-41.88 1199.05,-30.23 1161.07,-22.69"/>
<polygon fill="#63b8ff" stroke="#63b8ff" points="1161.53,-19.21 1151.05,-20.77 1160.21,-26.09 1161.53,-19.21"/>
</a>
</g>
</g>
<!-- Node20&#45;&gt;Node17 -->
<g id="edge37_Node000020_Node000017" class="edge">
<title>Node20&#45;&gt;Node17</title>
<g id="a_edge37_Node000020_Node000017"><a xlink:title=" ">
<path fill="none" stroke="#63b8ff" d="M933.3,-200.9C1021.15,-196.79 1155.56,-185.29 1194.03,-153.17 1212.1,-138.08 1218.13,-110.43 1220.1,-91.92"/>
<polygon fill="#63b8ff" stroke="#63b8ff" points="1223.61,-92.01 1220.88,-81.77 1216.63,-91.47 1223.61,-92.01"/>
</a>
</g>
</g>
<!-- Node21 -->
<g id="Node000021" class="node">
<title>Node21</title>
<g id="a_Node000021"><a xlink:title=" ">
<polygon fill="#e0e0e0" stroke="#999999" points="770.53,-147.67 705.53,-147.67 705.53,-128.67 770.53,-128.67 770.53,-147.67"/>
<text text-anchor="middle" x="738.03" y="-135.67" font-family="Helvetica,sans-Serif" font-size="10.00">stdexcept</text>
</a>
</g>
</g>
<!-- Node20&#45;&gt;Node21 -->
<g id="edge36_Node000020_Node000021" class="edge">
<title>Node20&#45;&gt;Node21</title>
<g id="a_edge36_Node000020_Node000021"><a xlink:title=" ">
<path fill="none" stroke="#63b8ff" d="M838.38,-194.54C818.92,-183.81 785.48,-165.36 762.59,-152.73"/>
<polygon fill="#63b8ff" stroke="#63b8ff" points="764.24,-149.64 753.79,-147.87 760.86,-155.77 764.24,-149.64"/>
</a>
</g>
</g>
<!-- Node22 -->
<g id="Node000022" class="node">
<title>Node22</title>
<g id="a_Node000022"><a xlink:href="Vertex_8ixx.html" target="_top" xlink:title=" ">
<polygon fill="white" stroke="#666666" points="1164.03,-81.67 1034.03,-81.67 1034.03,-62.67 1164.03,-62.67 1164.03,-81.67"/>
<text text-anchor="middle" x="1099.03" y="-69.67" font-family="Helvetica,sans-Serif" font-size="10.00">helios.rendering.Vertex</text>
</a>
</g>
</g>
<!-- Node20&#45;&gt;Node22 -->
<g id="edge40_Node000020_Node000022" class="edge">
<title>Node20&#45;&gt;Node22</title>
<g id="a_edge40_Node000020_Node000022"><a xlink:title=" ">
<path fill="none" stroke="#63b8ff" d="M933.06,-202.33C1018.64,-199.54 1147.09,-189.25 1178.03,-153.17 1199.33,-128.33 1158.85,-101.72 1128.37,-86.31"/>
<polygon fill="#63b8ff" stroke="#63b8ff" points="1129.83,-83.13 1119.31,-81.9 1126.77,-89.42 1129.83,-83.13"/>
</a>
</g>
</g>
<!-- Node23 -->
<g id="Node000023" class="node">
<title>Node23</title>
<g id="a_Node000023"><a xlink:href="Shape_8ixx.html" target="_top" xlink:title=" ">
<polygon fill="white" stroke="#666666" points="1169.03,-153.17 1009.03,-153.17 1009.03,-123.17 1169.03,-123.17 1169.03,-153.17"/>
<text text-anchor="start" x="1017.03" y="-141.17" font-family="Helvetica,sans-Serif" font-size="10.00">helios.rendering.asset.shape.</text>
<text text-anchor="middle" x="1089.03" y="-130.17" font-family="Helvetica,sans-Serif" font-size="10.00">Shape</text>
</a>
</g>
</g>
<!-- Node20&#45;&gt;Node23 -->
<g id="edge42_Node000020_Node000023" class="edge">
<title>Node20&#45;&gt;Node23</title>
<g id="a_edge42_Node000020_Node000023"><a xlink:title=" ">
<path fill="none" stroke="#63b8ff" d="M885.72,-194.54C921.9,-184.69 981.95,-168.33 1027.44,-155.95"/>
<polygon fill="#63b8ff" stroke="#63b8ff" points="1028.47,-159.3 1037.2,-153.29 1026.63,-152.54 1028.47,-159.3"/>
</a>
</g>
</g>
<!-- Node25 -->
<g id="Node000025" class="node">
<title>Node25</title>
<g id="a_Node000025"><a xlink:href="MeshConfig_8ixx.html" target="_top" xlink:title=" ">
<polygon fill="white" stroke="#666666" points="991.03,-153.17 827.03,-153.17 827.03,-123.17 991.03,-123.17 991.03,-153.17"/>
<text text-anchor="start" x="835.03" y="-141.17" font-family="Helvetica,sans-Serif" font-size="10.00">helios.rendering.model.config.</text>
<text text-anchor="middle" x="909.03" y="-130.17" font-family="Helvetica,sans-Serif" font-size="10.00">MeshConfig</text>
</a>
</g>
</g>
<!-- Node20&#45;&gt;Node25 -->
<g id="edge47_Node000020_Node000025" class="edge">
<title>Node20&#45;&gt;Node25</title>
<g id="a_edge47_Node000020_Node000025"><a xlink:title=" ">
<path fill="none" stroke="#63b8ff" d="M861.44,-194.54C868.71,-186.09 880.09,-172.84 889.9,-161.43"/>
<polygon fill="#63b8ff" stroke="#63b8ff" points="892.82,-163.4 896.69,-153.54 887.51,-158.84 892.82,-163.4"/>
</a>
</g>
</g>
<!-- Node22&#45;&gt;Node13 -->
<g id="edge41_Node000022_Node000013" class="edge">
<title>Node22&#45;&gt;Node13</title>
<g id="a_edge41_Node000022_Node000013"><a xlink:title=" ">
<path fill="none" stroke="#63b8ff" d="M1099.03,-62.54C1099.03,-54.42 1099.03,-41.98 1099.03,-31.56"/>
<polygon fill="#63b8ff" stroke="#63b8ff" points="1102.53,-31.34 1099.03,-21.34 1095.53,-31.34 1102.53,-31.34"/>
</a>
</g>
</g>
<!-- Node23&#45;&gt;Node2 -->
<g id="edge43_Node000023_Node000002" class="edge">
<title>Node23&#45;&gt;Node2</title>
<g id="a_edge43_Node000023_Node000002"><a xlink:title=" ">
<path fill="none" stroke="#63b8ff" d="M1010.09,-123.16C960.48,-113.93 895.25,-101.02 838.03,-87.17 834.46,-86.31 830.77,-85.36 827.08,-84.38"/>
<polygon fill="#63b8ff" stroke="#63b8ff" points="827.99,-81 817.42,-81.71 826.13,-87.74 827.99,-81"/>
</a>
</g>
</g>
<!-- Node23&#45;&gt;Node17 -->
<g id="edge44_Node000023_Node000017" class="edge">
<title>Node23&#45;&gt;Node17</title>
<g id="a_edge44_Node000023_Node000017"><a xlink:title=" ">
<path fill="none" stroke="#63b8ff" d="M1117.99,-123.13C1140.74,-112.1 1172.15,-96.87 1194.3,-86.14"/>
<polygon fill="#63b8ff" stroke="#63b8ff" points="1195.99,-89.2 1203.46,-81.69 1192.93,-82.91 1195.99,-89.2"/>
</a>
</g>
</g>
<!-- Node23&#45;&gt;Node22 -->
<g id="edge46_Node000023_Node000022" class="edge">
<title>Node23&#45;&gt;Node22</title>
<g id="a_edge46_Node000023_Node000022"><a xlink:title=" ">
<path fill="none" stroke="#63b8ff" d="M1091.25,-122.97C1092.67,-113.87 1094.53,-101.96 1096.07,-92.07"/>
<polygon fill="#63b8ff" stroke="#63b8ff" points="1099.56,-92.44 1097.64,-82.02 1092.64,-91.36 1099.56,-92.44"/>
</a>
</g>
</g>
<!-- Node24 -->
<g id="Node000024" class="node">
<title>Node24</title>
<g id="a_Node000024"><a xlink:href="PrimitiveType_8ixx.html" target="_top" xlink:title=" ">
<polygon fill="white" stroke="#666666" points="1011.03,-87.17 847.03,-87.17 847.03,-57.17 1011.03,-57.17 1011.03,-87.17"/>
<text text-anchor="start" x="855.03" y="-75.17" font-family="Helvetica,sans-Serif" font-size="10.00">helios.rendering.model.config.</text>
<text text-anchor="middle" x="929.03" y="-64.17" font-family="Helvetica,sans-Serif" font-size="10.00">PrimitiveType</text>
</a>
</g>
</g>
<!-- Node23&#45;&gt;Node24 -->
<g id="edge45_Node000023_Node000024" class="edge">
<title>Node23&#45;&gt;Node24</title>
<g id="a_edge45_Node000023_Node000024"><a xlink:title=" ">
<path fill="none" stroke="#63b8ff" d="M1053.91,-123.13C1030.26,-113.67 998.86,-101.11 973.47,-90.95"/>
<polygon fill="#63b8ff" stroke="#63b8ff" points="974.64,-87.65 964.06,-87.19 972.04,-94.15 974.64,-87.65"/>
</a>
</g>
</g>
<!-- Node25&#45;&gt;Node24 -->
<g id="edge48_Node000025_Node000024" class="edge">
<title>Node25&#45;&gt;Node24</title>
<g id="a_edge48_Node000025_Node000024"><a xlink:title=" ">
<path fill="none" stroke="#63b8ff" d="M913.47,-122.97C915.85,-115.35 918.85,-105.75 921.58,-97.02"/>
<polygon fill="#63b8ff" stroke="#63b8ff" points="924.96,-97.93 924.6,-87.34 918.28,-95.84 924.96,-97.93"/>
</a>
</g>
</g>
</g>
</svg>
