<?xml version="1.0" encoding="UTF-8" standalone="no"?>
<!DOCTYPE svg PUBLIC "-//W3C//DTD SVG 1.1//EN"
 "http://www.w3.org/Graphics/SVG/1.1/DTD/svg11.dtd">
<!-- Generated by graphviz version 2.43.0 (0)
 -->
<!-- Title: include/helios/rendering/asset/shape/_module.ixx Pages: 1 -->
<svg width="643pt" height="348pt"
 viewBox="0.00 0.00 642.50 348.17" xmlns="http://www.w3.org/2000/svg" xmlns:xlink="http://www.w3.org/1999/xlink">
<g id="graph0" class="graph" transform="scale(1 1) rotate(0) translate(4 344.17)">
<title>include/helios/rendering/asset/shape/_module.ixx</title>
<!-- Node1 -->
<g id="Node000001" class="node">
<title>Node1</title>
<g id="a_Node000001"><a xlink:title=" ">
<polygon fill="#999999" stroke="#666666" points="246.5,-340.17 105.5,-340.17 105.5,-310.17 246.5,-310.17 246.5,-340.17"/>
<text text-anchor="start" x="113.5" y="-328.17" font-family="Helvetica,sans-Serif" font-size="10.00">include/helios/rendering</text>
<text text-anchor="middle" x="176" y="-317.17" font-family="Helvetica,sans-Serif" font-size="10.00">/asset/shape/_module.ixx</text>
</a>
</g>
</g>
<!-- Node2 -->
<g id="Node000002" class="node">
<title>Node2</title>
<g id="a_Node000002"><a xlink:href="rendering_2asset_2shape_2basic_2__module_8ixx.html" target="_top" xlink:title=" ">
<polygon fill="white" stroke="#666666" points="336.5,-274.17 151.5,-274.17 151.5,-255.17 336.5,-255.17 336.5,-274.17"/>
<text text-anchor="middle" x="244" y="-262.17" font-family="Helvetica,sans-Serif" font-size="10.00">helios.rendering.asset.shape.basic</text>
</a>
</g>
</g>
<!-- Node1&#45;&gt;Node2 -->
<g id="edge1_Node000001_Node000002" class="edge">
<title>Node1&#45;&gt;Node2</title>
<g id="a_edge1_Node000001_Node000002"><a xlink:title=" ">
<path fill="none" stroke="#63b8ff" d="M192.46,-310.01C202.63,-301.26 215.69,-290.03 226.12,-281.06"/>
<polygon fill="#63b8ff" stroke="#63b8ff" points="228.51,-283.62 233.81,-274.44 223.95,-278.31 228.51,-283.62"/>
</a>
</g>
</g>
<!-- Node10 -->
<g id="Node000010" class="node">
<title>Node10</title>
<g id="a_Node000010"><a xlink:href="Shape_8ixx.html" target="_top" xlink:title=" ">
<polygon fill="white" stroke="#666666" points="302,-153.17 142,-153.17 142,-123.17 302,-123.17 302,-153.17"/>
<text text-anchor="start" x="150" y="-141.17" font-family="Helvetica,sans-Serif" font-size="10.00">helios.rendering.asset.shape.</text>
<text text-anchor="middle" x="222" y="-130.17" font-family="Helvetica,sans-Serif" font-size="10.00">Shape</text>
</a>
</g>
</g>
<!-- Node1&#45;&gt;Node10 -->
<g id="edge21_Node000001_Node000010" class="edge">
<title>Node1&#45;&gt;Node10</title>
<g id="a_edge21_Node000001_Node000010"><a xlink:title=" ">
<path fill="none" stroke="#63b8ff" d="M163.22,-309.96C141.89,-284.43 103.66,-229.69 128,-189.17 136.28,-175.4 149.78,-165.21 163.99,-157.76"/>
<polygon fill="#63b8ff" stroke="#63b8ff" points="165.89,-160.74 173.39,-153.26 162.86,-154.43 165.89,-160.74"/>
</a>
</g>
</g>
<!-- Node3 -->
<g id="Node000003" class="node">
<title>Node3</title>
<g id="a_Node000003"><a xlink:href="Circle_8ixx.html" target="_top" xlink:title=" ">
<polygon fill="white" stroke="#666666" points="557,-219.17 369,-219.17 369,-189.17 557,-189.17 557,-219.17"/>
<text text-anchor="start" x="377" y="-207.17" font-family="Helvetica,sans-Serif" font-size="10.00">helios.rendering.asset.shape.basic.</text>
<text text-anchor="middle" x="463" y="-196.17" font-family="Helvetica,sans-Serif" font-size="10.00">Circle</text>
</a>
</g>
</g>
<!-- Node2&#45;&gt;Node3 -->
<g id="edge2_Node000002_Node000003" class="edge">
<title>Node2&#45;&gt;Node3</title>
<g id="a_edge2_Node000002_Node000003"><a xlink:title=" ">
<path fill="none" stroke="#63b8ff" d="M275.84,-255.17C308.39,-246.47 359.81,-232.74 400.51,-221.87"/>
<polygon fill="#63b8ff" stroke="#63b8ff" points="401.59,-225.2 410.35,-219.24 399.78,-218.44 401.59,-225.2"/>
</a>
</g>
</g>
<!-- Node12 -->
<g id="Node000012" class="node">
<title>Node12</title>
<g id="a_Node000012"><a xlink:href="Cube_8ixx.html" target="_top" xlink:title=" ">
<polygon fill="white" stroke="#666666" points="350.5,-213.67 137.5,-213.67 137.5,-194.67 350.5,-194.67 350.5,-213.67"/>
<text text-anchor="middle" x="244" y="-201.67" font-family="Helvetica,sans-Serif" font-size="10.00">helios.rendering.asset.shape.basic.Cube</text>
</a>
</g>
</g>
<!-- Node2&#45;&gt;Node12 -->
<g id="edge16_Node000002_Node000012" class="edge">
<title>Node2&#45;&gt;Node12</title>
<g id="a_edge16_Node000002_Node000012"><a xlink:title=" ">
<path fill="none" stroke="#63b8ff" d="M244,-255.04C244,-246.92 244,-234.48 244,-224.06"/>
<polygon fill="#63b8ff" stroke="#63b8ff" points="247.5,-223.84 244,-213.84 240.5,-223.84 247.5,-223.84"/>
</a>
</g>
</g>
<!-- Node4 -->
<g id="Node000004" class="node">
<title>Node4</title>
<g id="a_Node000004"><a xlink:title=" ">
<polygon fill="#e0e0e0" stroke="#999999" points="305.5,-81.67 258.5,-81.67 258.5,-62.67 305.5,-62.67 305.5,-81.67"/>
<text text-anchor="middle" x="282" y="-69.67" font-family="Helvetica,sans-Serif" font-size="10.00">vector</text>
</a>
</g>
</g>
<!-- Node3&#45;&gt;Node4 -->
<g id="edge3_Node000003_Node000004" class="edge">
<title>Node3&#45;&gt;Node4</title>
<g id="a_edge3_Node000003_Node000004"><a xlink:title=" ">
<path fill="none" stroke="#63b8ff" d="M443.29,-189.01C408.8,-164.25 337.86,-113.3 302.7,-88.04"/>
<polygon fill="#63b8ff" stroke="#63b8ff" points="304.34,-84.91 294.18,-81.92 300.26,-90.6 304.34,-84.91"/>
</a>
</g>
</g>
<!-- Node5 -->
<g id="Node000005" class="node">
<title>Node5</title>
<g id="a_Node000005"><a xlink:title=" ">
<polygon fill="#e0e0e0" stroke="#999999" points="557.5,-147.67 510.5,-147.67 510.5,-128.67 557.5,-128.67 557.5,-147.67"/>
<text text-anchor="middle" x="534" y="-135.67" font-family="Helvetica,sans-Serif" font-size="10.00">cmath</text>
</a>
</g>
</g>
<!-- Node3&#45;&gt;Node5 -->
<g id="edge4_Node000003_Node000005" class="edge">
<title>Node3&#45;&gt;Node5</title>
<g id="a_edge4_Node000003_Node000005"><a xlink:title=" ">
<path fill="none" stroke="#63b8ff" d="M478.76,-188.97C489.93,-178.9 504.94,-165.37 516.49,-154.96"/>
<polygon fill="#63b8ff" stroke="#63b8ff" points="519.1,-157.31 524.19,-148.02 514.42,-152.11 519.1,-157.31"/>
</a>
</g>
</g>
<!-- Node6 -->
<g id="Node000006" class="node">
<title>Node6</title>
<g id="a_Node000006"><a xlink:title=" ">
<polygon fill="#e0e0e0" stroke="#999999" points="634.5,-147.67 575.5,-147.67 575.5,-128.67 634.5,-128.67 634.5,-147.67"/>
<text text-anchor="middle" x="605" y="-135.67" font-family="Helvetica,sans-Serif" font-size="10.00">numbers</text>
</a>
</g>
</g>
<!-- Node3&#45;&gt;Node6 -->
<g id="edge5_Node000003_Node000006" class="edge">
<title>Node3&#45;&gt;Node6</title>
<g id="a_edge5_Node000003_Node000006"><a xlink:title=" ">
<path fill="none" stroke="#63b8ff" d="M494.16,-189.13C518.85,-178 553.03,-162.6 576.88,-151.85"/>
<polygon fill="#63b8ff" stroke="#63b8ff" points="578.42,-154.99 586.1,-147.69 575.55,-148.61 578.42,-154.99"/>
</a>
</g>
</g>
<!-- Node7 -->
<g id="Node000007" class="node">
<title>Node7</title>
<g id="a_Node000007"><a xlink:href="PrimitiveType_8ixx.html" target="_top" xlink:title=" ">
<polygon fill="white" stroke="#666666" points="164,-87.17 0,-87.17 0,-57.17 164,-57.17 164,-87.17"/>
<text text-anchor="start" x="8" y="-75.17" font-family="Helvetica,sans-Serif" font-size="10.00">helios.rendering.model.config.</text>
<text text-anchor="middle" x="82" y="-64.17" font-family="Helvetica,sans-Serif" font-size="10.00">PrimitiveType</text>
</a>
</g>
</g>
<!-- Node3&#45;&gt;Node7 -->
<g id="edge6_Node000003_Node000007" class="edge">
<title>Node3&#45;&gt;Node7</title>
<g id="a_edge6_Node000003_Node000007"><a xlink:title=" ">
<path fill="none" stroke="#63b8ff" d="M368.58,-189.82C272.83,-176.14 137.99,-156.42 133,-153.17 112.61,-139.91 98.78,-115.33 90.72,-96.91"/>
<polygon fill="#63b8ff" stroke="#63b8ff" points="93.86,-95.34 86.83,-87.41 87.38,-97.99 93.86,-95.34"/>
</a>
</g>
</g>
<!-- Node8 -->
<g id="Node000008" class="node">
<title>Node8</title>
<g id="a_Node000008"><a xlink:href="math_2types_2__module_8ixx.html" target="_top" xlink:title=" ">
<polygon fill="white" stroke="#666666" points="487,-21.17 383,-21.17 383,-2.17 487,-2.17 487,-21.17"/>
<text text-anchor="middle" x="435" y="-9.17" font-family="Helvetica,sans-Serif" font-size="10.00">helios.math.types</text>
</a>
</g>
</g>
<!-- Node3&#45;&gt;Node8 -->
<g id="edge7_Node000003_Node000008" class="edge">
<title>Node3&#45;&gt;Node8</title>
<g id="a_edge7_Node000003_Node000008"><a xlink:title=" ">
<path fill="none" stroke="#63b8ff" d="M465.53,-189.13C469.74,-162.68 476.49,-103.94 463,-57.17 460.13,-47.23 454.32,-37.37 448.72,-29.47"/>
<polygon fill="#63b8ff" stroke="#63b8ff" points="451.5,-27.34 442.67,-21.48 445.92,-31.56 451.5,-27.34"/>
</a>
</g>
</g>
<!-- Node9 -->
<g id="Node000009" class="node">
<title>Node9</title>
<g id="a_Node000009"><a xlink:href="Vertex_8ixx.html" target="_top" xlink:title=" ">
<polygon fill="white" stroke="#666666" points="454,-81.67 324,-81.67 324,-62.67 454,-62.67 454,-81.67"/>
<text text-anchor="middle" x="389" y="-69.67" font-family="Helvetica,sans-Serif" font-size="10.00">helios.rendering.Vertex</text>
</a>
</g>
</g>
<!-- Node3&#45;&gt;Node9 -->
<g id="edge9_Node000003_Node000009" class="edge">
<title>Node3&#45;&gt;Node9</title>
<g id="a_edge9_Node000003_Node000009"><a xlink:title=" ">
<path fill="none" stroke="#63b8ff" d="M455.8,-189.16C447.46,-173.07 433.18,-145.97 420,-123.17 413.64,-112.17 406.13,-100.04 400.1,-90.49"/>
<polygon fill="#63b8ff" stroke="#63b8ff" points="402.97,-88.49 394.65,-81.93 397.07,-92.24 402.97,-88.49"/>
</a>
</g>
</g>
<!-- Node3&#45;&gt;Node10 -->
<g id="edge11_Node000003_Node000010" class="edge">
<title>Node3&#45;&gt;Node10</title>
<g id="a_edge11_Node000003_Node000010"><a xlink:title=" ">
<path fill="none" stroke="#63b8ff" d="M410.11,-189.13C373.07,-179.29 323.42,-166.11 284.43,-155.75"/>
<polygon fill="#63b8ff" stroke="#63b8ff" points="285.33,-152.37 274.77,-153.19 283.53,-159.14 285.33,-152.37"/>
</a>
</g>
</g>
<!-- Node8&#45;&gt;Node8 -->
<g id="edge8_Node000008_Node000008" class="edge">
<title>Node8&#45;&gt;Node8</title>
<g id="a_edge8_Node000008_Node000008"><a xlink:title=" ">
<path fill="none" stroke="#63b8ff" d="M460.85,-21.21C482.44,-25.28 505,-22.1 505,-11.67 505,-2.87 488.94,0.76 470.95,-0.76"/>
<polygon fill="#63b8ff" stroke="#63b8ff" points="470.28,2.68 460.85,-2.14 471.23,-4.26 470.28,2.68"/>
</a>
</g>
</g>
<!-- Node9&#45;&gt;Node8 -->
<g id="edge10_Node000009_Node000008" class="edge">
<title>Node9&#45;&gt;Node8</title>
<g id="a_edge10_Node000009_Node000008"><a xlink:title=" ">
<path fill="none" stroke="#63b8ff" d="M395.79,-62.54C402.65,-53.82 413.43,-40.11 421.95,-29.27"/>
<polygon fill="#63b8ff" stroke="#63b8ff" points="424.75,-31.37 428.18,-21.34 419.25,-27.04 424.75,-31.37"/>
</a>
</g>
</g>
<!-- Node10&#45;&gt;Node4 -->
<g id="edge13_Node000010_Node000004" class="edge">
<title>Node10&#45;&gt;Node4</title>
<g id="a_edge13_Node000010_Node000004"><a xlink:title=" ">
<path fill="none" stroke="#63b8ff" d="M235.32,-122.97C244.58,-113.09 256.95,-99.89 266.63,-89.57"/>
<polygon fill="#63b8ff" stroke="#63b8ff" points="269.42,-91.71 273.71,-82.02 264.32,-86.92 269.42,-91.71"/>
</a>
</g>
</g>
<!-- Node10&#45;&gt;Node7 -->
<g id="edge14_Node000010_Node000007" class="edge">
<title>Node10&#45;&gt;Node7</title>
<g id="a_edge14_Node000010_Node000007"><a xlink:title=" ">
<path fill="none" stroke="#63b8ff" d="M191.28,-123.13C170.85,-113.79 143.83,-101.44 121.77,-91.36"/>
<polygon fill="#63b8ff" stroke="#63b8ff" points="123.2,-88.16 112.65,-87.19 120.29,-94.53 123.2,-88.16"/>
</a>
</g>
</g>
<!-- Node10&#45;&gt;Node9 -->
<g id="edge15_Node000010_Node000009" class="edge">
<title>Node10&#45;&gt;Node9</title>
<g id="a_edge15_Node000010_Node000009"><a xlink:title=" ">
<path fill="none" stroke="#63b8ff" d="M258.65,-123.13C288.19,-111.81 329.31,-96.05 357.42,-85.28"/>
<polygon fill="#63b8ff" stroke="#63b8ff" points="358.69,-88.54 366.78,-81.69 356.18,-82 358.69,-88.54"/>
</a>
</g>
</g>
<!-- Node11 -->
<g id="Node000011" class="node">
<title>Node11</title>
<g id="a_Node000011"><a xlink:title=" ">
<polygon fill="#e0e0e0" stroke="#999999" points="240,-81.67 182,-81.67 182,-62.67 240,-62.67 240,-81.67"/>
<text text-anchor="middle" x="211" y="-69.67" font-family="Helvetica,sans-Serif" font-size="10.00">memory</text>
</a>
</g>
</g>
<!-- Node10&#45;&gt;Node11 -->
<g id="edge12_Node000010_Node000011" class="edge">
<title>Node10&#45;&gt;Node11</title>
<g id="a_edge12_Node000010_Node000011"><a xlink:title=" ">
<path fill="none" stroke="#63b8ff" d="M219.56,-122.97C218,-113.87 215.95,-101.96 214.25,-92.07"/>
<polygon fill="#63b8ff" stroke="#63b8ff" points="217.66,-91.28 212.52,-82.02 210.76,-92.47 217.66,-91.28"/>
</a>
</g>
</g>
<!-- Node12&#45;&gt;Node4 -->
<g id="edge17_Node000012_Node000004" class="edge">
<title>Node12&#45;&gt;Node4</title>
<g id="a_edge17_Node000012_Node000004"><a xlink:title=" ">
<path fill="none" stroke="#63b8ff" d="M263.93,-194.57C279.92,-186.46 301.24,-172.64 311,-153.17 321.51,-132.23 307.86,-106.52 295.96,-90"/>
<polygon fill="#63b8ff" stroke="#63b8ff" points="298.56,-87.65 289.69,-81.85 293.01,-91.91 298.56,-87.65"/>
</a>
</g>
</g>
<!-- Node12&#45;&gt;Node7 -->
<g id="edge18_Node000012_Node000007" class="edge">
<title>Node12&#45;&gt;Node7</title>
<g id="a_edge18_Node000012_Node000007"><a xlink:title=" ">
<path fill="none" stroke="#63b8ff" d="M177.68,-194.59C150.04,-187.73 119.83,-175.38 100,-153.17 86.49,-138.05 82.44,-114.99 81.51,-97.51"/>
<polygon fill="#63b8ff" stroke="#63b8ff" points="85.01,-97.38 81.27,-87.46 78.01,-97.54 85.01,-97.38"/>
</a>
</g>
</g>
<!-- Node12&#45;&gt;Node9 -->
<g id="edge19_Node000012_Node000009" class="edge">
<title>Node12&#45;&gt;Node9</title>
<g id="a_edge19_Node000012_Node000009"><a xlink:title=" ">
<path fill="none" stroke="#63b8ff" d="M262.45,-194.57C280.18,-185.74 307.14,-170.84 327,-153.17 348.16,-134.36 367.25,-107.53 378.49,-90.23"/>
<polygon fill="#63b8ff" stroke="#63b8ff" points="381.49,-92.03 383.89,-81.71 375.58,-88.29 381.49,-92.03"/>
</a>
</g>
</g>
<!-- Node12&#45;&gt;Node10 -->
<g id="edge20_Node000012_Node000010" class="edge">
<title>Node12&#45;&gt;Node10</title>
<g id="a_edge20_Node000012_Node000010"><a xlink:title=" ">
<path fill="none" stroke="#63b8ff" d="M241.03,-194.54C238.27,-186.5 234.01,-174.12 230.23,-163.1"/>
<polygon fill="#63b8ff" stroke="#63b8ff" points="233.5,-161.85 226.94,-153.54 226.88,-164.13 233.5,-161.85"/>
</a>
</g>
</g>
</g>
</svg>
