<?xml version="1.0" encoding="UTF-8" standalone="no"?>
<!DOCTYPE svg PUBLIC "-//W3C//DTD SVG 1.1//EN"
 "http://www.w3.org/Graphics/SVG/1.1/DTD/svg11.dtd">
<!-- Generated by graphviz version 2.43.0 (0)
 -->
<!-- Title: include/helios/rendering/RenderPrototype.ixx Pages: 1 -->
<!--zoomable 412 -->

<svg id="main" version="1.1" xmlns="http://www.w3.org/2000/svg" xmlns:xlink="http://www.w3.org/1999/xlink" xml:space="preserve" onload="init(evt)">

<style type="text/css"><![CDATA[
.node, .edge {opacity: 0.7;}
.node.selected, .edge.selected {opacity: 1;}
.edge:hover path { stroke: red; }
.edge:hover polygon { stroke: red; fill: red; }
]]></style>

<defs>
  <circle id="rim" cx="0" cy="0" r="7"/>
  <circle id="rim2" cx="0" cy="0" r="3.5"/>
  <g id="zoomPlus">
    <use xlink:href="#rim" fill="#404040"><set attributeName="fill" to="#808080" begin="zoomplus.mouseover" end="zoomplus.mouseout"/></use>
    <path d="M-4,0h8M0,-4v8" fill="none" stroke="white" stroke-width="1.5" pointer-events="none"/>
  </g>
  <g id="zoomMin">
    <use xlink:href="#rim" fill="#404040"><set attributeName="fill" to="#808080" begin="zoomminus.mouseover" end="zoomminus.mouseout"/></use>
    <path d="M-4,0h8" fill="none" stroke="white" stroke-width="1.5" pointer-events="none"/>
  </g>
  <g id="arrowUp" transform="translate(30 24)">
    <use xlink:href="#rim"/>
    <path pointer-events="none" fill="none" stroke="white" stroke-width="1.5" d="M0,-3.0v7 M-2.5,-0.5L0,-3.0L2.5,-0.5"/>
  </g>
  <g id="arrowRight" transform="rotate(90) translate(36 -43)">
    <use xlink:href="#rim"/>
    <path pointer-events="none" fill="none" stroke="white" stroke-width="1.5" d="M0,-3.0v7 M-2.5,-0.5L0,-3.0L2.5,-0.5"/>
  </g>
  <g id="arrowDown" transform="rotate(180) translate(-30 -48)">
    <use xlink:href="#rim"/>
    <path pointer-events="none" fill="none" stroke="white" stroke-width="1.5" d="M0,-3.0v7 M-2.5,-0.5L0,-3.0L2.5,-0.5"/>
  </g>
  <g id="arrowLeft" transform="rotate(270) translate(-36 17)">
    <use xlink:href="#rim"/>
    <path pointer-events="none" fill="none" stroke="white" stroke-width="1.5" d="M0,-3.0v7 M-2.5,-0.5L0,-3.0L2.5,-0.5"/>
  </g>
  <g id="resetDef">
    <use xlink:href="#rim2" fill="#404040"><set attributeName="fill" to="#808080" begin="reset.mouseover" end="reset.mouseout"/></use>
  </g>
</defs>
<script type="application/ecmascript">
var viewWidth = 1738;
var viewHeight = 412;
var sectionId = 'dynsection-0';
</script>
<script type="application/ecmascript" xlink:href="svg.min.js"/>
<svg id="graph" class="graph">
<g id="viewport">
<title>include/helios/rendering/RenderPrototype.ixx</title>
<!-- Node1 -->
<g id="Node000001" class="node">
<title>Node1</title>
<g id="a_Node000001"><a xlink:title="An immutable, shared prototype of a renderable object.">
<polygon fill="#999999" stroke="#666666" points="579,-404 445,-404 445,-374 579,-374 579,-404"/>
<text text-anchor="start" x="453" y="-392" font-family="Helvetica,sans-Serif" font-size="10.00">include/helios/rendering</text>
<text text-anchor="middle" x="512" y="-381" font-family="Helvetica,sans-Serif" font-size="10.00">/RenderPrototype.ixx</text>
</a>
</g>
</g>
<!-- Node2 -->
<g id="Node000002" class="node">
<title>Node2</title>
<g id="a_Node000002"><a xlink:title=" ">
<polygon fill="#e0e0e0" stroke="#999999" points="215,-79.5 157,-79.5 157,-60.5 215,-60.5 215,-79.5"/>
<text text-anchor="middle" x="186" y="-67.5" font-family="Helvetica,sans-Serif" font-size="10.00">memory</text>
</a>
</g>
</g>
<!-- Node1&#45;&gt;Node2 -->
<g id="edge1_Node000001_Node000002" class="edge">
<title>Node1&#45;&gt;Node2</title>
<g id="a_edge1_Node000001_Node000002"><a xlink:title=" ">
<path fill="none" stroke="#63b8ff" d="M444.8,-386.35C305.89,-381.1 0,-359.29 0,-269 0,-269 0,-269 0,-201 0,-129.79 92.72,-94.33 147.23,-79.64"/>
<polygon fill="#63b8ff" stroke="#63b8ff" points="148.13,-83.02 156.94,-77.13 146.38,-76.24 148.13,-83.02"/>
</a>
</g>
</g>
<!-- Node3 -->
<g id="Node000003" class="node">
<title>Node3</title>
<g id="a_Node000003"><a xlink:href="Mesh_8ixx.html" target="_top" xlink:title="Mesh abstraction: immutable vertex/index data and configuration.">
<polygon fill="white" stroke="#666666" points="591,-277.5 433,-277.5 433,-258.5 591,-258.5 591,-277.5"/>
<text text-anchor="middle" x="512" y="-265.5" font-family="Helvetica,sans-Serif" font-size="10.00">helios.rendering.model.Mesh</text>
</a>
</g>
</g>
<!-- Node1&#45;&gt;Node3 -->
<g id="edge2_Node000001_Node000003" class="edge">
<title>Node1&#45;&gt;Node3</title>
<g id="a_edge2_Node000001_Node000003"><a xlink:title=" ">
<path fill="none" stroke="#63b8ff" d="M512,-373.88C512,-352.51 512,-311.89 512,-287.96"/>
<polygon fill="#63b8ff" stroke="#63b8ff" points="515.5,-287.71 512,-277.71 508.5,-287.71 515.5,-287.71"/>
</a>
</g>
</g>
<!-- Node18 -->
<g id="Node000018" class="node">
<title>Node18</title>
<g id="a_Node000018"><a xlink:href="Material_8ixx.html" target="_top" xlink:title="Material abstraction: shader + material properties.">
<polygon fill="white" stroke="#666666" points="1042.5,-338 869.5,-338 869.5,-319 1042.5,-319 1042.5,-338"/>
<text text-anchor="middle" x="956" y="-326" font-family="Helvetica,sans-Serif" font-size="10.00">helios.rendering.model.Material</text>
</a>
</g>
</g>
<!-- Node1&#45;&gt;Node18 -->
<g id="edge33_Node000001_Node000018" class="edge">
<title>Node1&#45;&gt;Node18</title>
<g id="a_edge33_Node000001_Node000018"><a xlink:title=" ">
<path fill="none" stroke="#63b8ff" d="M579.43,-379.12C660.68,-368.41 796.74,-350.48 881.16,-339.36"/>
<polygon fill="#63b8ff" stroke="#63b8ff" points="881.73,-342.82 891.19,-338.04 880.82,-335.88 881.73,-342.82"/>
</a>
</g>
</g>
<!-- Node3&#45;&gt;Node2 -->
<g id="edge3_Node000003_Node000002" class="edge">
<title>Node3&#45;&gt;Node2</title>
<g id="a_edge3_Node000003_Node000002"><a xlink:title=" ">
<path fill="none" stroke="#63b8ff" d="M432.66,-263.08C317.94,-256.58 116.99,-241.78 95,-217 66.68,-185.08 73.28,-157.72 95,-121 106.31,-101.89 127.8,-89.59 147.06,-81.98"/>
<polygon fill="#63b8ff" stroke="#63b8ff" points="148.38,-85.22 156.58,-78.51 145.98,-78.65 148.38,-85.22"/>
</a>
</g>
</g>
<!-- Node4 -->
<g id="Node000004" class="node">
<title>Node4</title>
<g id="a_Node000004"><a xlink:title=" ">
<polygon fill="#e0e0e0" stroke="#999999" points="649.5,-211.5 584.5,-211.5 584.5,-192.5 649.5,-192.5 649.5,-211.5"/>
<text text-anchor="middle" x="617" y="-199.5" font-family="Helvetica,sans-Serif" font-size="10.00">stdexcept</text>
</a>
</g>
</g>
<!-- Node3&#45;&gt;Node4 -->
<g id="edge4_Node000003_Node000004" class="edge">
<title>Node3&#45;&gt;Node4</title>
<g id="a_edge4_Node000003_Node000004"><a xlink:title=" ">
<path fill="none" stroke="#63b8ff" d="M526.16,-258.37C543.54,-247.78 573.24,-229.67 593.93,-217.06"/>
<polygon fill="#63b8ff" stroke="#63b8ff" points="596.01,-219.89 602.73,-211.7 592.37,-213.92 596.01,-219.89"/>
</a>
</g>
</g>
<!-- Node5 -->
<g id="Node000005" class="node">
<title>Node5</title>
<g id="a_Node000005"><a xlink:title=" ">
<polygon fill="#e0e0e0" stroke="#999999" points="519.5,-79.5 472.5,-79.5 472.5,-60.5 519.5,-60.5 519.5,-79.5"/>
<text text-anchor="middle" x="496" y="-67.5" font-family="Helvetica,sans-Serif" font-size="10.00">vector</text>
</a>
</g>
</g>
<!-- Node3&#45;&gt;Node5 -->
<g id="edge5_Node000003_Node000005" class="edge">
<title>Node3&#45;&gt;Node5</title>
<g id="a_edge5_Node000003_Node000005"><a xlink:title=" ">
<path fill="none" stroke="#63b8ff" d="M505.69,-258.11C495.2,-243.33 473.49,-212.77 455,-187 443.5,-170.96 435.07,-169.78 429,-151 424.9,-138.31 423.02,-132.92 429,-121 437.01,-105.04 452.79,-92.87 467.03,-84.53"/>
<polygon fill="#63b8ff" stroke="#63b8ff" points="468.97,-87.47 476.07,-79.61 465.62,-81.32 468.97,-87.47"/>
</a>
</g>
</g>
<!-- Node6 -->
<g id="Node000006" class="node">
<title>Node6</title>
<g id="a_Node000006"><a xlink:href="helios_2math_2types_2__module_8ixx.html" target="_top" xlink:title="Module exports for vector and matrix type definitions.">
<polygon fill="white" stroke="#666666" points="1356,-79.5 1252,-79.5 1252,-60.5 1356,-60.5 1356,-79.5"/>
<text text-anchor="middle" x="1304" y="-67.5" font-family="Helvetica,sans-Serif" font-size="10.00">helios.math.types</text>
</a>
</g>
</g>
<!-- Node3&#45;&gt;Node6 -->
<g id="edge6_Node000003_Node000006" class="edge">
<title>Node3&#45;&gt;Node6</title>
<g id="a_edge6_Node000003_Node000006"><a xlink:title=" ">
<path fill="none" stroke="#63b8ff" d="M583.28,-258.49C769.7,-235.94 1259.15,-174.76 1285,-151 1301.89,-135.48 1305.06,-107.93 1305.08,-89.57"/>
<polygon fill="#63b8ff" stroke="#63b8ff" points="1308.58,-89.4 1304.78,-79.51 1301.58,-89.61 1308.58,-89.4"/>
</a>
</g>
</g>
<!-- Node7 -->
<g id="Node000007" class="node">
<title>Node7</title>
<g id="a_Node000007"><a xlink:href="Logger_8ixx.html" target="_top" xlink:title="Simple synchronous logger with configurable output sinks.">
<polygon fill="white" stroke="#666666" points="1035.5,-145.5 916.5,-145.5 916.5,-126.5 1035.5,-126.5 1035.5,-145.5"/>
<text text-anchor="middle" x="976" y="-133.5" font-family="Helvetica,sans-Serif" font-size="10.00">helios.util.log.Logger</text>
</a>
</g>
</g>
<!-- Node3&#45;&gt;Node7 -->
<g id="edge8_Node000003_Node000007" class="edge">
<title>Node3&#45;&gt;Node7</title>
<g id="a_edge8_Node000003_Node000007"><a xlink:title=" ">
<path fill="none" stroke="#63b8ff" d="M515.89,-258.38C524.08,-241.38 544.84,-203.7 575,-187 639.92,-151.04 833.67,-162.39 907,-151 913.42,-150 920.15,-148.82 926.78,-147.56"/>
<polygon fill="#63b8ff" stroke="#63b8ff" points="927.92,-150.9 937.07,-145.55 926.58,-144.03 927.92,-150.9"/>
</a>
</g>
</g>
<!-- Node11 -->
<g id="Node000011" class="node">
<title>Node11</title>
<g id="a_Node000011"><a xlink:href="LogManager_8ixx.html" target="_top" xlink:title="Central manager for scoped loggers with configurable sinks.">
<polygon fill="white" stroke="#666666" points="820,-211.5 674,-211.5 674,-192.5 820,-192.5 820,-211.5"/>
<text text-anchor="middle" x="747" y="-199.5" font-family="Helvetica,sans-Serif" font-size="10.00">helios.util.log.LogManager</text>
</a>
</g>
</g>
<!-- Node3&#45;&gt;Node11 -->
<g id="edge15_Node000003_Node000011" class="edge">
<title>Node3&#45;&gt;Node11</title>
<g id="a_edge15_Node000003_Node000011"><a xlink:title=" ">
<path fill="none" stroke="#63b8ff" d="M543.69,-258.37C585.6,-246.96 659.51,-226.83 705.73,-214.24"/>
<polygon fill="#63b8ff" stroke="#63b8ff" points="706.71,-217.6 715.43,-211.6 704.87,-210.85 706.71,-217.6"/>
</a>
</g>
</g>
<!-- Node14 -->
<g id="Node000014" class="node">
<title>Node14</title>
<g id="a_Node000014"><a xlink:href="Shape_8ixx.html" target="_top" xlink:title="Interface for simple geometric shapes used for testing and debugging.">
<polygon fill="white" stroke="#666666" points="446,-217 286,-217 286,-187 446,-187 446,-217"/>
<text text-anchor="start" x="294" y="-205" font-family="Helvetica,sans-Serif" font-size="10.00">helios.rendering.asset.shape.</text>
<text text-anchor="middle" x="366" y="-194" font-family="Helvetica,sans-Serif" font-size="10.00">Shape</text>
</a>
</g>
</g>
<!-- Node3&#45;&gt;Node14 -->
<g id="edge24_Node000003_Node000014" class="edge">
<title>Node3&#45;&gt;Node14</title>
<g id="a_edge24_Node000003_Node000014"><a xlink:title=" ">
<path fill="none" stroke="#63b8ff" d="M492.31,-258.37C470.73,-248.91 435.47,-233.45 407.68,-221.27"/>
<polygon fill="#63b8ff" stroke="#63b8ff" points="408.77,-217.92 398.2,-217.12 405.95,-224.34 408.77,-217.92"/>
</a>
</g>
</g>
<!-- Node16 -->
<g id="Node000016" class="node">
<title>Node16</title>
<g id="a_Node000016"><a xlink:href="Vertex_8ixx.html" target="_top" xlink:title="Vertex description and utilities for rendering.">
<polygon fill="white" stroke="#666666" points="568,-145.5 438,-145.5 438,-126.5 568,-126.5 568,-145.5"/>
<text text-anchor="middle" x="503" y="-133.5" font-family="Helvetica,sans-Serif" font-size="10.00">helios.rendering.Vertex</text>
</a>
</g>
</g>
<!-- Node3&#45;&gt;Node16 -->
<g id="edge32_Node000003_Node000016" class="edge">
<title>Node3&#45;&gt;Node16</title>
<g id="a_edge32_Node000003_Node000016"><a xlink:title=" ">
<path fill="none" stroke="#63b8ff" d="M511.41,-258.47C509.98,-237.82 506.3,-184.72 504.32,-156.04"/>
<polygon fill="#63b8ff" stroke="#63b8ff" points="507.79,-155.47 503.6,-145.73 500.8,-155.95 507.79,-155.47"/>
</a>
</g>
</g>
<!-- Node17 -->
<g id="Node000017" class="node">
<title>Node17</title>
<g id="a_Node000017"><a xlink:href="MeshConfig_8ixx.html" target="_top" xlink:title="Mesh configuration including primitive type.">
<polygon fill="white" stroke="#666666" points="268,-217 104,-217 104,-187 268,-187 268,-217"/>
<text text-anchor="start" x="112" y="-205" font-family="Helvetica,sans-Serif" font-size="10.00">helios.rendering.model.config.</text>
<text text-anchor="middle" x="186" y="-194" font-family="Helvetica,sans-Serif" font-size="10.00">MeshConfig</text>
</a>
</g>
</g>
<!-- Node3&#45;&gt;Node17 -->
<g id="edge30_Node000003_Node000017" class="edge">
<title>Node3&#45;&gt;Node17</title>
<g id="a_edge30_Node000003_Node000017"><a xlink:title=" ">
<path fill="none" stroke="#63b8ff" d="M468.37,-258.44C417.15,-248.38 331.13,-231.49 267.46,-218.99"/>
<polygon fill="#63b8ff" stroke="#63b8ff" points="267.93,-215.52 257.44,-217.02 266.58,-222.39 267.93,-215.52"/>
</a>
</g>
</g>
<!-- Node6&#45;&gt;Node6 -->
<g id="edge7_Node000006_Node000006" class="edge">
<title>Node6&#45;&gt;Node6</title>
<g id="a_edge7_Node000006_Node000006"><a xlink:title=" ">
<path fill="none" stroke="#63b8ff" d="M1329.85,-79.53C1351.44,-83.61 1374,-80.43 1374,-70 1374,-61.2 1357.94,-57.56 1339.95,-59.09"/>
<polygon fill="#63b8ff" stroke="#63b8ff" points="1339.28,-55.65 1329.85,-60.47 1340.23,-62.58 1339.28,-55.65"/>
</a>
</g>
</g>
<!-- Node7&#45;&gt;Node2 -->
<g id="edge11_Node000007_Node000002" class="edge">
<title>Node7&#45;&gt;Node2</title>
<g id="a_edge11_Node000007_Node000002"><a xlink:title=" ">
<path fill="none" stroke="#63b8ff" d="M938.55,-126.47C928.36,-124.41 917.3,-122.4 907,-121 773.36,-102.89 355.8,-79.94 225.35,-73.05"/>
<polygon fill="#63b8ff" stroke="#63b8ff" points="225.21,-69.53 215.04,-72.5 224.84,-76.53 225.21,-69.53"/>
</a>
</g>
</g>
<!-- Node7&#45;&gt;Node5 -->
<g id="edge10_Node000007_Node000005" class="edge">
<title>Node7&#45;&gt;Node5</title>
<g id="a_edge10_Node000007_Node000005"><a xlink:title=" ">
<path fill="none" stroke="#63b8ff" d="M936.69,-126.46C927.01,-124.52 916.65,-122.56 907,-121 767.63,-98.42 600.18,-81.06 529.78,-74.2"/>
<polygon fill="#63b8ff" stroke="#63b8ff" points="530.01,-70.7 519.72,-73.22 529.34,-77.67 530.01,-70.7"/>
</a>
</g>
</g>
<!-- Node8 -->
<g id="Node000008" class="node">
<title>Node8</title>
<g id="a_Node000008"><a xlink:title=" ">
<polygon fill="#e0e0e0" stroke="#999999" points="1043,-19 999,-19 999,0 1043,0 1043,-19"/>
<text text-anchor="middle" x="1021" y="-7" font-family="Helvetica,sans-Serif" font-size="10.00">string</text>
</a>
</g>
</g>
<!-- Node7&#45;&gt;Node8 -->
<g id="edge9_Node000007_Node000008" class="edge">
<title>Node7&#45;&gt;Node8</title>
<g id="a_edge9_Node000007_Node000008"><a xlink:title=" ">
<path fill="none" stroke="#63b8ff" d="M977.2,-126.34C979.45,-111.38 985.02,-79.91 995,-55 998.78,-45.57 1004.32,-35.75 1009.32,-27.74"/>
<polygon fill="#63b8ff" stroke="#63b8ff" points="1012.29,-29.59 1014.8,-19.3 1006.42,-25.78 1012.29,-29.59"/>
</a>
</g>
</g>
<!-- Node9 -->
<g id="Node000009" class="node">
<title>Node9</title>
<g id="a_Node000009"><a xlink:title=" ">
<polygon fill="#e0e0e0" stroke="#999999" points="829,-79.5 781,-79.5 781,-60.5 829,-60.5 829,-79.5"/>
<text text-anchor="middle" x="805" y="-67.5" font-family="Helvetica,sans-Serif" font-size="10.00">mutex</text>
</a>
</g>
</g>
<!-- Node7&#45;&gt;Node9 -->
<g id="edge12_Node000007_Node000009" class="edge">
<title>Node7&#45;&gt;Node9</title>
<g id="a_edge12_Node000007_Node000009"><a xlink:title=" ">
<path fill="none" stroke="#63b8ff" d="M952.94,-126.37C923.15,-115.22 871.13,-95.75 837.39,-83.12"/>
<polygon fill="#63b8ff" stroke="#63b8ff" points="838.56,-79.82 827.97,-79.6 836.11,-86.38 838.56,-79.82"/>
</a>
</g>
</g>
<!-- Node10 -->
<g id="Node000010" class="node">
<title>Node10</title>
<g id="a_Node000010"><a xlink:href="LogSink_8ixx.html" target="_top" xlink:title="Abstract interface for log output destinations.">
<polygon fill="white" stroke="#666666" points="1128,-79.5 1004,-79.5 1004,-60.5 1128,-60.5 1128,-79.5"/>
<text text-anchor="middle" x="1066" y="-67.5" font-family="Helvetica,sans-Serif" font-size="10.00">helios.util.log.LogSink</text>
</a>
</g>
</g>
<!-- Node7&#45;&gt;Node10 -->
<g id="edge13_Node000007_Node000010" class="edge">
<title>Node7&#45;&gt;Node10</title>
<g id="a_edge13_Node000007_Node000010"><a xlink:title=" ">
<path fill="none" stroke="#63b8ff" d="M988.14,-126.37C1002.77,-115.97 1027.58,-98.32 1045.26,-85.75"/>
<polygon fill="#63b8ff" stroke="#63b8ff" points="1047.65,-88.35 1053.77,-79.7 1043.59,-82.64 1047.65,-88.35"/>
</a>
</g>
</g>
<!-- Node10&#45;&gt;Node8 -->
<g id="edge14_Node000010_Node000008" class="edge">
<title>Node10&#45;&gt;Node8</title>
<g id="a_edge14_Node000010_Node000008"><a xlink:title=" ">
<path fill="none" stroke="#63b8ff" d="M1059.36,-60.37C1052.71,-51.73 1042.31,-38.2 1034.01,-27.42"/>
<polygon fill="#63b8ff" stroke="#63b8ff" points="1036.54,-24.96 1027.67,-19.17 1030.99,-29.23 1036.54,-24.96"/>
</a>
</g>
</g>
<!-- Node11&#45;&gt;Node2 -->
<g id="edge19_Node000011_Node000002" class="edge">
<title>Node11&#45;&gt;Node2</title>
<g id="a_edge19_Node000011_Node000002"><a xlink:title=" ">
<path fill="none" stroke="#63b8ff" d="M692.88,-192.49C681.36,-190.67 669.28,-188.77 658,-187 556.22,-171 529.15,-175.19 429,-151 351.57,-132.3 263.37,-100.54 217.49,-83.19"/>
<polygon fill="#63b8ff" stroke="#63b8ff" points="218.69,-79.9 208.1,-79.62 216.2,-86.45 218.69,-79.9"/>
</a>
</g>
</g>
<!-- Node11&#45;&gt;Node5 -->
<g id="edge21_Node000011_Node000005" class="edge">
<title>Node11&#45;&gt;Node5</title>
<g id="a_edge21_Node000011_Node000005"><a xlink:title=" ">
<path fill="none" stroke="#63b8ff" d="M719.92,-192.41C693.64,-183.59 653,-168.69 620,-151 599.46,-139.99 596.48,-133.79 577,-121 557.83,-108.41 535.64,-94.78 519.34,-84.93"/>
<polygon fill="#63b8ff" stroke="#63b8ff" points="520.87,-81.77 510.49,-79.61 517.26,-87.76 520.87,-81.77"/>
</a>
</g>
</g>
<!-- Node11&#45;&gt;Node7 -->
<g id="edge22_Node000011_Node000007" class="edge">
<title>Node11&#45;&gt;Node7</title>
<g id="a_edge22_Node000011_Node000007"><a xlink:title=" ">
<path fill="none" stroke="#63b8ff" d="M777.88,-192.37C818.63,-180.98 890.44,-160.91 935.5,-148.32"/>
<polygon fill="#63b8ff" stroke="#63b8ff" points="936.55,-151.66 945.24,-145.6 934.67,-144.92 936.55,-151.66"/>
</a>
</g>
</g>
<!-- Node11&#45;&gt;Node8 -->
<g id="edge16_Node000011_Node000008" class="edge">
<title>Node11&#45;&gt;Node8</title>
<g id="a_edge16_Node000011_Node000008"><a xlink:title=" ">
<path fill="none" stroke="#63b8ff" d="M728.55,-192.49C713.2,-184.28 692.4,-170.26 683,-151 677.15,-139.02 677,-132.91 683,-121 705.14,-77.01 726.79,-74.52 772,-55 845.09,-23.45 939.53,-14.27 988.43,-11.6"/>
<polygon fill="#63b8ff" stroke="#63b8ff" points="988.9,-15.08 998.72,-11.1 988.56,-8.09 988.9,-15.08"/>
</a>
</g>
</g>
<!-- Node11&#45;&gt;Node9 -->
<g id="edge20_Node000011_Node000009" class="edge">
<title>Node11&#45;&gt;Node9</title>
<g id="a_edge20_Node000011_Node000009"><a xlink:title=" ">
<path fill="none" stroke="#63b8ff" d="M733.21,-192.48C711.53,-177.99 673.66,-147.54 691,-121 708.53,-94.17 744.01,-81.64 770.76,-75.85"/>
<polygon fill="#63b8ff" stroke="#63b8ff" points="771.74,-79.23 780.89,-73.89 770.4,-72.36 771.74,-79.23"/>
</a>
</g>
</g>
<!-- Node11&#45;&gt;Node10 -->
<g id="edge23_Node000011_Node000010" class="edge">
<title>Node11&#45;&gt;Node10</title>
<g id="a_edge23_Node000011_Node000010"><a xlink:title=" ">
<path fill="none" stroke="#63b8ff" d="M820.03,-197.67C897.44,-192.63 1012.9,-180.32 1045,-151 1061.95,-135.52 1065.92,-108.19 1066.51,-89.83"/>
<polygon fill="#63b8ff" stroke="#63b8ff" points="1070.01,-89.76 1066.53,-79.75 1063.01,-89.75 1070.01,-89.76"/>
</a>
</g>
</g>
<!-- Node12 -->
<g id="Node000012" class="node">
<title>Node12</title>
<g id="a_Node000012"><a xlink:title=" ">
<polygon fill="#e0e0e0" stroke="#999999" points="793.5,-145.5 700.5,-145.5 700.5,-126.5 793.5,-126.5 793.5,-145.5"/>
<text text-anchor="middle" x="747" y="-133.5" font-family="Helvetica,sans-Serif" font-size="10.00">unordered_map</text>
</a>
</g>
</g>
<!-- Node11&#45;&gt;Node12 -->
<g id="edge17_Node000011_Node000012" class="edge">
<title>Node11&#45;&gt;Node12</title>
<g id="a_edge17_Node000011_Node000012"><a xlink:title=" ">
<path fill="none" stroke="#63b8ff" d="M747,-192.37C747,-183.16 747,-168.29 747,-156.27"/>
<polygon fill="#63b8ff" stroke="#63b8ff" points="750.5,-155.91 747,-145.91 743.5,-155.91 750.5,-155.91"/>
</a>
</g>
</g>
<!-- Node13 -->
<g id="Node000013" class="node">
<title>Node13</title>
<g id="a_Node000013"><a xlink:title=" ">
<polygon fill="#e0e0e0" stroke="#999999" points="898,-145.5 812,-145.5 812,-126.5 898,-126.5 898,-145.5"/>
<text text-anchor="middle" x="855" y="-133.5" font-family="Helvetica,sans-Serif" font-size="10.00">unordered_set</text>
</a>
</g>
</g>
<!-- Node11&#45;&gt;Node13 -->
<g id="edge18_Node000011_Node000013" class="edge">
<title>Node11&#45;&gt;Node13</title>
<g id="a_edge18_Node000011_Node000013"><a xlink:title=" ">
<path fill="none" stroke="#63b8ff" d="M761.57,-192.37C779.52,-181.73 810.27,-163.51 831.56,-150.89"/>
<polygon fill="#63b8ff" stroke="#63b8ff" points="833.5,-153.81 840.32,-145.7 829.93,-147.79 833.5,-153.81"/>
</a>
</g>
</g>
<!-- Node14&#45;&gt;Node2 -->
<g id="edge25_Node000014_Node000002" class="edge">
<title>Node14&#45;&gt;Node2</title>
<g id="a_edge25_Node000014_Node000002"><a xlink:title=" ">
<path fill="none" stroke="#63b8ff" d="M352.37,-186.9C335.6,-170.01 305.8,-141.44 277,-121 256.85,-106.69 232.18,-93.37 213.61,-84.08"/>
<polygon fill="#63b8ff" stroke="#63b8ff" points="215.04,-80.88 204.52,-79.61 211.95,-87.16 215.04,-80.88"/>
</a>
</g>
</g>
<!-- Node14&#45;&gt;Node5 -->
<g id="edge26_Node000014_Node000005" class="edge">
<title>Node14&#45;&gt;Node5</title>
<g id="a_edge26_Node000014_Node000005"><a xlink:title=" ">
<path fill="none" stroke="#63b8ff" d="M368.06,-186.94C371.26,-169.56 378.93,-139.96 396,-121 413.71,-101.32 440.94,-88.42 462.51,-80.66"/>
<polygon fill="#63b8ff" stroke="#63b8ff" points="463.93,-83.87 472.28,-77.35 461.68,-77.24 463.93,-83.87"/>
</a>
</g>
</g>
<!-- Node15 -->
<g id="Node000015" class="node">
<title>Node15</title>
<g id="a_Node000015"><a xlink:href="PrimitiveType_8ixx.html" target="_top" xlink:title="Enum of primitive types for mesh rendering.">
<polygon fill="white" stroke="#666666" points="268,-151 104,-151 104,-121 268,-121 268,-151"/>
<text text-anchor="start" x="112" y="-139" font-family="Helvetica,sans-Serif" font-size="10.00">helios.rendering.model.config.</text>
<text text-anchor="middle" x="186" y="-128" font-family="Helvetica,sans-Serif" font-size="10.00">PrimitiveType</text>
</a>
</g>
</g>
<!-- Node14&#45;&gt;Node15 -->
<g id="edge27_Node000014_Node000015" class="edge">
<title>Node14&#45;&gt;Node15</title>
<g id="a_edge27_Node000014_Node000015"><a xlink:title=" ">
<path fill="none" stroke="#63b8ff" d="M326.5,-186.95C299.53,-177.37 263.63,-164.6 234.87,-154.37"/>
<polygon fill="#63b8ff" stroke="#63b8ff" points="236,-151.06 225.41,-151.01 233.66,-157.66 236,-151.06"/>
</a>
</g>
</g>
<!-- Node14&#45;&gt;Node16 -->
<g id="edge28_Node000014_Node000016" class="edge">
<title>Node14&#45;&gt;Node16</title>
<g id="a_edge28_Node000014_Node000016"><a xlink:title=" ">
<path fill="none" stroke="#63b8ff" d="M396.07,-186.95C419.77,-175.88 452.56,-160.56 475.56,-149.82"/>
<polygon fill="#63b8ff" stroke="#63b8ff" points="477.19,-152.92 484.77,-145.52 474.23,-146.58 477.19,-152.92"/>
</a>
</g>
</g>
<!-- Node16&#45;&gt;Node6 -->
<g id="edge29_Node000016_Node000006" class="edge">
<title>Node16&#45;&gt;Node6</title>
<g id="a_edge29_Node000016_Node000006"><a xlink:title=" ">
<path fill="none" stroke="#63b8ff" d="M568.27,-129.96C683.21,-121.06 929.28,-101.9 1137,-85 1171.52,-82.19 1210.05,-78.97 1241.39,-76.32"/>
<polygon fill="#63b8ff" stroke="#63b8ff" points="1242.06,-79.78 1251.73,-75.45 1241.47,-72.8 1242.06,-79.78"/>
</a>
</g>
</g>
<!-- Node17&#45;&gt;Node15 -->
<g id="edge31_Node000017_Node000015" class="edge">
<title>Node17&#45;&gt;Node15</title>
<g id="a_edge31_Node000017_Node000015"><a xlink:title=" ">
<path fill="none" stroke="#63b8ff" d="M186,-186.8C186,-179.34 186,-169.99 186,-161.41"/>
<polygon fill="#63b8ff" stroke="#63b8ff" points="189.5,-161.16 186,-151.16 182.5,-161.16 189.5,-161.16"/>
</a>
</g>
</g>
<!-- Node18&#45;&gt;Node2 -->
<g id="edge34_Node000018_Node000002" class="edge">
<title>Node18&#45;&gt;Node2</title>
<g id="a_edge34_Node000018_Node000002"><a xlink:title=" ">
<path fill="none" stroke="#63b8ff" d="M869.49,-323.25C657.42,-311.93 125.28,-277.68 75,-217 65.64,-205.7 59.47,-147.44 77,-121 92.67,-97.36 122.53,-84.72 147.04,-78.07"/>
<polygon fill="#63b8ff" stroke="#63b8ff" points="147.95,-81.45 156.82,-75.65 146.27,-74.66 147.95,-81.45"/>
</a>
</g>
</g>
<!-- Node18&#45;&gt;Node4 -->
<g id="edge35_Node000018_Node000004" class="edge">
<title>Node18&#45;&gt;Node4</title>
<g id="a_edge35_Node000018_Node000004"><a xlink:title=" ">
<path fill="none" stroke="#63b8ff" d="M932.7,-318.94C873.67,-297.26 718.11,-240.13 649.88,-215.07"/>
<polygon fill="#63b8ff" stroke="#63b8ff" points="651.06,-211.78 640.46,-211.62 648.64,-218.35 651.06,-211.78"/>
</a>
</g>
</g>
<!-- Node19 -->
<g id="Node000019" class="node">
<title>Node19</title>
<g id="a_Node000019"><a xlink:href="helios_2util_2log_2__module_8ixx.html" target="_top" xlink:title="Module exports for logging.">
<polygon fill="white" stroke="#666666" points="1124.5,-277.5 1041.5,-277.5 1041.5,-258.5 1124.5,-258.5 1124.5,-277.5"/>
<text text-anchor="middle" x="1083" y="-265.5" font-family="Helvetica,sans-Serif" font-size="10.00">helios.util.log</text>
</a>
</g>
</g>
<!-- Node18&#45;&gt;Node19 -->
<g id="edge36_Node000018_Node000019" class="edge">
<title>Node18&#45;&gt;Node19</title>
<g id="a_edge36_Node000018_Node000019"><a xlink:title=" ">
<path fill="none" stroke="#63b8ff" d="M974.47,-318.99C995.72,-309.2 1030.85,-293.02 1055.37,-281.73"/>
<polygon fill="#63b8ff" stroke="#63b8ff" points="1056.89,-284.88 1064.51,-277.52 1053.96,-278.52 1056.89,-284.88"/>
</a>
</g>
</g>
<!-- Node21 -->
<g id="Node000021" class="node">
<title>Node21</title>
<g id="a_Node000021"><a xlink:href="MaterialProperties_8ixx.html" target="_top" xlink:title="Default material properties used by materials and instances.">
<polygon fill="white" stroke="#666666" points="1572,-283 1408,-283 1408,-253 1572,-253 1572,-283"/>
<text text-anchor="start" x="1416" y="-271" font-family="Helvetica,sans-Serif" font-size="10.00">helios.rendering.model.config.</text>
<text text-anchor="middle" x="1490" y="-260" font-family="Helvetica,sans-Serif" font-size="10.00">MaterialProperties</text>
</a>
</g>
</g>
<!-- Node18&#45;&gt;Node21 -->
<g id="edge43_Node000018_Node000021" class="edge">
<title>Node18&#45;&gt;Node21</title>
<g id="a_edge43_Node000018_Node000021"><a xlink:title=" ">
<path fill="none" stroke="#63b8ff" d="M1042.56,-319.83C1131,-311.72 1272.25,-298.05 1394,-283 1395.27,-282.84 1396.55,-282.68 1397.83,-282.52"/>
<polygon fill="#63b8ff" stroke="#63b8ff" points="1398.35,-285.98 1407.81,-281.23 1397.45,-279.04 1398.35,-285.98"/>
</a>
</g>
</g>
<!-- Node23 -->
<g id="Node000023" class="node">
<title>Node23</title>
<g id="a_Node000023"><a xlink:href="UniformValueMap_8ixx.html" target="_top" xlink:title="Mapping of uniform names to values used by shader programs.">
<polygon fill="white" stroke="#666666" points="1542,-151 1408,-151 1408,-121 1542,-121 1542,-151"/>
<text text-anchor="start" x="1416" y="-139" font-family="Helvetica,sans-Serif" font-size="10.00">helios.rendering.shader.</text>
<text text-anchor="middle" x="1475" y="-128" font-family="Helvetica,sans-Serif" font-size="10.00">UniformValueMap</text>
</a>
</g>
</g>
<!-- Node18&#45;&gt;Node23 -->
<g id="edge61_Node000018_Node000023" class="edge">
<title>Node18&#45;&gt;Node23</title>
<g id="a_edge61_Node000018_Node000023"><a xlink:title=" ">
<path fill="none" stroke="#63b8ff" d="M998.26,-318.93C1034.68,-311.07 1088.41,-298.35 1134,-283 1247.2,-244.89 1375.37,-185.36 1437.4,-155.46"/>
<polygon fill="#63b8ff" stroke="#63b8ff" points="1438.94,-158.6 1446.42,-151.09 1435.89,-152.3 1438.94,-158.6"/>
</a>
</g>
</g>
<!-- Node28 -->
<g id="Node000028" class="node">
<title>Node28</title>
<g id="a_Node000028"><a xlink:href="Shader_8ixx.html" target="_top" xlink:title="Abstraction for a compiled shader program.">
<polygon fill="white" stroke="#666666" points="1023,-283 889,-283 889,-253 1023,-253 1023,-283"/>
<text text-anchor="start" x="897" y="-271" font-family="Helvetica,sans-Serif" font-size="10.00">helios.rendering.shader.</text>
<text text-anchor="middle" x="956" y="-260" font-family="Helvetica,sans-Serif" font-size="10.00">Shader</text>
</a>
</g>
</g>
<!-- Node18&#45;&gt;Node28 -->
<g id="edge57_Node000018_Node000028" class="edge">
<title>Node18&#45;&gt;Node28</title>
<g id="a_edge57_Node000018_Node000028"><a xlink:title=" ">
<path fill="none" stroke="#63b8ff" d="M956,-318.87C956,-312.11 956,-302.35 956,-293.26"/>
<polygon fill="#63b8ff" stroke="#63b8ff" points="959.5,-293.11 956,-283.11 952.5,-293.11 959.5,-293.11"/>
</a>
</g>
</g>
<!-- Node19&#45;&gt;Node7 -->
<g id="edge38_Node000019_Node000007" class="edge">
<title>Node19&#45;&gt;Node7</title>
<g id="a_edge38_Node000019_Node000007"><a xlink:title=" ">
<path fill="none" stroke="#63b8ff" d="M1075.98,-258.47C1058.53,-237.27 1012.92,-181.86 989.83,-153.8"/>
<polygon fill="#63b8ff" stroke="#63b8ff" points="992.24,-151.23 983.19,-145.73 986.84,-155.68 992.24,-151.23"/>
</a>
</g>
</g>
<!-- Node19&#45;&gt;Node10 -->
<g id="edge42_Node000019_Node000010" class="edge">
<title>Node19&#45;&gt;Node10</title>
<g id="a_edge42_Node000019_Node000010"><a xlink:title=" ">
<path fill="none" stroke="#63b8ff" d="M1082.25,-258.33C1079.67,-228.66 1071.19,-130.85 1067.61,-89.6"/>
<polygon fill="#63b8ff" stroke="#63b8ff" points="1071.09,-89.23 1066.74,-79.57 1064.12,-89.84 1071.09,-89.23"/>
</a>
</g>
</g>
<!-- Node19&#45;&gt;Node11 -->
<g id="edge37_Node000019_Node000011" class="edge">
<title>Node19&#45;&gt;Node11</title>
<g id="a_edge37_Node000019_Node000011"><a xlink:title=" ">
<path fill="none" stroke="#63b8ff" d="M1053.72,-258.45C1046.64,-256.53 1039.08,-254.59 1032,-253 958.36,-236.47 873.01,-222.12 815.04,-213.09"/>
<polygon fill="#63b8ff" stroke="#63b8ff" points="815.32,-209.59 804.9,-211.52 814.25,-216.51 815.32,-209.59"/>
</a>
</g>
</g>
<!-- Node20 -->
<g id="Node000020" class="node">
<title>Node20</title>
<g id="a_Node000020"><a xlink:href="ConsoleSink_8ixx.html" target="_top" xlink:title="Log sink that writes to stdout.">
<polygon fill="white" stroke="#666666" points="1276,-145.5 1130,-145.5 1130,-126.5 1276,-126.5 1276,-145.5"/>
<text text-anchor="middle" x="1203" y="-133.5" font-family="Helvetica,sans-Serif" font-size="10.00">helios.util.log.ConsoleSink</text>
</a>
</g>
</g>
<!-- Node19&#45;&gt;Node20 -->
<g id="edge39_Node000019_Node000020" class="edge">
<title>Node19&#45;&gt;Node20</title>
<g id="a_edge39_Node000019_Node000020"><a xlink:title=" ">
<path fill="none" stroke="#63b8ff" d="M1090.87,-258.47C1110.62,-237.08 1162.48,-180.9 1188.16,-153.08"/>
<polygon fill="#63b8ff" stroke="#63b8ff" points="1190.73,-155.45 1194.94,-145.73 1185.59,-150.71 1190.73,-155.45"/>
</a>
</g>
</g>
<!-- Node20&#45;&gt;Node8 -->
<g id="edge40_Node000020_Node000008" class="edge">
<title>Node20&#45;&gt;Node8</title>
<g id="a_edge40_Node000020_Node000008"><a xlink:title=" ">
<path fill="none" stroke="#63b8ff" d="M1197.95,-126.29C1188.16,-110.09 1165.06,-75.19 1137,-55 1111.57,-36.7 1077.65,-24.84 1053.07,-18.01"/>
<polygon fill="#63b8ff" stroke="#63b8ff" points="1053.72,-14.56 1043.15,-15.38 1051.92,-21.32 1053.72,-14.56"/>
</a>
</g>
</g>
<!-- Node20&#45;&gt;Node10 -->
<g id="edge41_Node000020_Node000010" class="edge">
<title>Node20&#45;&gt;Node10</title>
<g id="a_edge41_Node000020_Node000010"><a xlink:title=" ">
<path fill="none" stroke="#63b8ff" d="M1184.52,-126.37C1161.24,-115.49 1120.99,-96.69 1093.94,-84.05"/>
<polygon fill="#63b8ff" stroke="#63b8ff" points="1095.16,-80.76 1084.62,-79.7 1092.2,-87.1 1095.16,-80.76"/>
</a>
</g>
</g>
<!-- Node21&#45;&gt;Node6 -->
<g id="edge51_Node000021_Node000006" class="edge">
<title>Node21&#45;&gt;Node6</title>
<g id="a_edge51_Node000021_Node000006"><a xlink:title=" ">
<path fill="none" stroke="#63b8ff" d="M1470.28,-252.76C1442.71,-232.24 1391.98,-192.29 1356,-151 1338.9,-131.37 1323.2,-105.7 1313.62,-88.79"/>
<polygon fill="#63b8ff" stroke="#63b8ff" points="1316.64,-87.01 1308.73,-79.97 1310.51,-90.41 1316.64,-87.01"/>
</a>
</g>
</g>
<!-- Node22 -->
<g id="Node000022" class="node">
<title>Node22</title>
<g id="a_Node000022"><a xlink:href="UniformSemantics_8ixx.html" target="_top" xlink:title="Definitions of uniform semantics used by shaders.">
<polygon fill="white" stroke="#666666" points="1730,-85 1596,-85 1596,-55 1730,-55 1730,-85"/>
<text text-anchor="start" x="1604" y="-73" font-family="Helvetica,sans-Serif" font-size="10.00">helios.rendering.shader.</text>
<text text-anchor="middle" x="1663" y="-62" font-family="Helvetica,sans-Serif" font-size="10.00">UniformSemantics</text>
</a>
</g>
</g>
<!-- Node21&#45;&gt;Node22 -->
<g id="edge44_Node000021_Node000022" class="edge">
<title>Node21&#45;&gt;Node22</title>
<g id="a_edge44_Node000021_Node000022"><a xlink:title=" ">
<path fill="none" stroke="#63b8ff" d="M1572.26,-257.91C1598.89,-250.86 1626.13,-238.52 1644,-217 1672.49,-182.7 1670.98,-127.36 1667.12,-95.57"/>
<polygon fill="#63b8ff" stroke="#63b8ff" points="1670.55,-94.81 1665.7,-85.39 1663.61,-95.77 1670.55,-94.81"/>
</a>
</g>
</g>
<!-- Node21&#45;&gt;Node23 -->
<g id="edge45_Node000021_Node000023" class="edge">
<title>Node21&#45;&gt;Node23</title>
<g id="a_edge45_Node000021_Node000023"><a xlink:title=" ">
<path fill="none" stroke="#63b8ff" d="M1479.56,-252.97C1473.11,-243.39 1465.42,-230.09 1462,-217 1457.13,-198.35 1461.2,-176.75 1466.03,-160.7"/>
<polygon fill="#63b8ff" stroke="#63b8ff" points="1469.41,-161.63 1469.23,-151.04 1462.76,-159.43 1469.41,-161.63"/>
</a>
</g>
</g>
<!-- Node27 -->
<g id="Node000027" class="node">
<title>Node27</title>
<g id="a_Node000027"><a xlink:href="MaterialPropertiesOverride_8ixx.html" target="_top" xlink:title="Overrides for material properties to customize rendering parameters.">
<polygon fill="white" stroke="#666666" points="1635,-217 1471,-217 1471,-187 1635,-187 1635,-217"/>
<text text-anchor="start" x="1479" y="-205" font-family="Helvetica,sans-Serif" font-size="10.00">helios.rendering.model.config.</text>
<text text-anchor="middle" x="1553" y="-194" font-family="Helvetica,sans-Serif" font-size="10.00">MaterialPropertiesOverride</text>
</a>
</g>
</g>
<!-- Node21&#45;&gt;Node27 -->
<g id="edge52_Node000021_Node000027" class="edge">
<title>Node21&#45;&gt;Node27</title>
<g id="a_edge52_Node000021_Node000027"><a xlink:title=" ">
<path fill="none" stroke="#63b8ff" d="M1503.98,-252.8C1512.22,-244.43 1522.8,-233.68 1532.02,-224.31"/>
<polygon fill="#63b8ff" stroke="#63b8ff" points="1534.54,-226.75 1539.06,-217.16 1529.55,-221.84 1534.54,-226.75"/>
</a>
</g>
</g>
<!-- Node23&#45;&gt;Node6 -->
<g id="edge49_Node000023_Node000006" class="edge">
<title>Node23&#45;&gt;Node6</title>
<g id="a_edge49_Node000023_Node000006"><a xlink:title=" ">
<path fill="none" stroke="#63b8ff" d="M1437.47,-120.95C1407.22,-109.63 1365.12,-93.88 1336.34,-83.1"/>
<polygon fill="#63b8ff" stroke="#63b8ff" points="1337.35,-79.74 1326.76,-79.52 1334.9,-86.3 1337.35,-79.74"/>
</a>
</g>
</g>
<!-- Node23&#45;&gt;Node22 -->
<g id="edge50_Node000023_Node000022" class="edge">
<title>Node23&#45;&gt;Node22</title>
<g id="a_edge50_Node000023_Node000022"><a xlink:title=" ">
<path fill="none" stroke="#63b8ff" d="M1516.26,-120.95C1544.54,-111.33 1582.25,-98.49 1612.35,-88.24"/>
<polygon fill="#63b8ff" stroke="#63b8ff" points="1613.5,-91.55 1621.84,-85.01 1611.24,-84.92 1613.5,-91.55"/>
</a>
</g>
</g>
<!-- Node24 -->
<g id="Node000024" class="node">
<title>Node24</title>
<g id="a_Node000024"><a xlink:title=" ">
<polygon fill="#e0e0e0" stroke="#999999" points="1434,-79.5 1392,-79.5 1392,-60.5 1434,-60.5 1434,-79.5"/>
<text text-anchor="middle" x="1413" y="-67.5" font-family="Helvetica,sans-Serif" font-size="10.00">array</text>
</a>
</g>
</g>
<!-- Node23&#45;&gt;Node24 -->
<g id="edge46_Node000023_Node000024" class="edge">
<title>Node23&#45;&gt;Node24</title>
<g id="a_edge46_Node000023_Node000024"><a xlink:title=" ">
<path fill="none" stroke="#63b8ff" d="M1461.24,-120.8C1451.57,-110.82 1438.63,-97.46 1428.58,-87.09"/>
<polygon fill="#63b8ff" stroke="#63b8ff" points="1431.04,-84.59 1421.57,-79.84 1426.01,-89.46 1431.04,-84.59"/>
</a>
</g>
</g>
<!-- Node25 -->
<g id="Node000025" class="node">
<title>Node25</title>
<g id="a_Node000025"><a xlink:title=" ">
<polygon fill="#e0e0e0" stroke="#999999" points="1578,-79.5 1522,-79.5 1522,-60.5 1578,-60.5 1578,-79.5"/>
<text text-anchor="middle" x="1550" y="-67.5" font-family="Helvetica,sans-Serif" font-size="10.00">optional</text>
</a>
</g>
</g>
<!-- Node23&#45;&gt;Node25 -->
<g id="edge47_Node000023_Node000025" class="edge">
<title>Node23&#45;&gt;Node25</title>
<g id="a_edge47_Node000023_Node000025"><a xlink:title=" ">
<path fill="none" stroke="#63b8ff" d="M1491.64,-120.8C1503.57,-110.62 1519.61,-96.93 1531.86,-86.48"/>
<polygon fill="#63b8ff" stroke="#63b8ff" points="1534.3,-89 1539.64,-79.84 1529.76,-83.67 1534.3,-89"/>
</a>
</g>
</g>
<!-- Node26 -->
<g id="Node000026" class="node">
<title>Node26</title>
<g id="a_Node000026"><a xlink:title=" ">
<polygon fill="#e0e0e0" stroke="#999999" points="1503.5,-79.5 1452.5,-79.5 1452.5,-60.5 1503.5,-60.5 1503.5,-79.5"/>
<text text-anchor="middle" x="1478" y="-67.5" font-family="Helvetica,sans-Serif" font-size="10.00">variant</text>
</a>
</g>
</g>
<!-- Node23&#45;&gt;Node26 -->
<g id="edge48_Node000023_Node000026" class="edge">
<title>Node23&#45;&gt;Node26</title>
<g id="a_edge48_Node000023_Node000026"><a xlink:title=" ">
<path fill="none" stroke="#63b8ff" d="M1475.67,-120.8C1476.09,-111.7 1476.65,-99.79 1477.11,-89.9"/>
<polygon fill="#63b8ff" stroke="#63b8ff" points="1480.61,-90 1477.59,-79.84 1473.62,-89.67 1480.61,-90"/>
</a>
</g>
</g>
<!-- Node27&#45;&gt;Node6 -->
<g id="edge56_Node000027_Node000006" class="edge">
<title>Node27&#45;&gt;Node6</title>
<g id="a_edge56_Node000027_Node000006"><a xlink:title=" ">
<path fill="none" stroke="#63b8ff" d="M1491.53,-186.91C1462.39,-178.78 1427.75,-166.97 1399,-151 1367.61,-133.57 1336.87,-104.97 1319.21,-87.11"/>
<polygon fill="#63b8ff" stroke="#63b8ff" points="1321.53,-84.48 1312.06,-79.73 1316.51,-89.35 1321.53,-84.48"/>
</a>
</g>
</g>
<!-- Node27&#45;&gt;Node22 -->
<g id="edge54_Node000027_Node000022" class="edge">
<title>Node27&#45;&gt;Node22</title>
<g id="a_edge54_Node000027_Node000022"><a xlink:title=" ">
<path fill="none" stroke="#63b8ff" d="M1564.98,-186.84C1584.16,-164.18 1621.88,-119.6 1644.53,-92.83"/>
<polygon fill="#63b8ff" stroke="#63b8ff" points="1647.25,-95.04 1651.03,-85.14 1641.9,-90.52 1647.25,-95.04"/>
</a>
</g>
</g>
<!-- Node27&#45;&gt;Node23 -->
<g id="edge55_Node000027_Node000023" class="edge">
<title>Node27&#45;&gt;Node23</title>
<g id="a_edge55_Node000027_Node000023"><a xlink:title=" ">
<path fill="none" stroke="#63b8ff" d="M1535.69,-186.8C1525.29,-178.26 1511.87,-167.25 1500.29,-157.75"/>
<polygon fill="#63b8ff" stroke="#63b8ff" points="1502.21,-154.8 1492.26,-151.16 1497.77,-160.21 1502.21,-154.8"/>
</a>
</g>
</g>
<!-- Node27&#45;&gt;Node25 -->
<g id="edge53_Node000027_Node000025" class="edge">
<title>Node27&#45;&gt;Node25</title>
<g id="a_edge53_Node000027_Node000025"><a xlink:title=" ">
<path fill="none" stroke="#63b8ff" d="M1552.67,-186.84C1552.13,-163.34 1551.04,-116.26 1550.44,-89.93"/>
<polygon fill="#63b8ff" stroke="#63b8ff" points="1553.93,-89.66 1550.2,-79.75 1546.93,-89.83 1553.93,-89.66"/>
</a>
</g>
</g>
<!-- Node28&#45;&gt;Node7 -->
<g id="edge59_Node000028_Node000007" class="edge">
<title>Node28&#45;&gt;Node7</title>
<g id="a_edge59_Node000028_Node000007"><a xlink:title=" ">
<path fill="none" stroke="#63b8ff" d="M958.18,-252.84C961.79,-229.34 969.04,-182.26 973.09,-155.93"/>
<polygon fill="#63b8ff" stroke="#63b8ff" points="976.59,-156.16 974.65,-145.75 969.67,-155.1 976.59,-156.16"/>
</a>
</g>
</g>
<!-- Node28&#45;&gt;Node11 -->
<g id="edge60_Node000028_Node000011" class="edge">
<title>Node28&#45;&gt;Node11</title>
<g id="a_edge60_Node000028_Node000011"><a xlink:title=" ">
<path fill="none" stroke="#63b8ff" d="M910.13,-252.95C872.51,-241.43 819.9,-225.32 784.7,-214.54"/>
<polygon fill="#63b8ff" stroke="#63b8ff" points="785.4,-211.1 774.81,-211.52 783.35,-217.79 785.4,-211.1"/>
</a>
</g>
</g>
<!-- Node28&#45;&gt;Node23 -->
<g id="edge58_Node000028_Node000023" class="edge">
<title>Node28&#45;&gt;Node23</title>
<g id="a_edge58_Node000028_Node000023"><a xlink:title=" ">
<path fill="none" stroke="#63b8ff" d="M1012.04,-252.96C1108.56,-228.79 1305.72,-179.4 1408.83,-153.58"/>
<polygon fill="#63b8ff" stroke="#63b8ff" points="1409.96,-156.9 1418.81,-151.08 1408.26,-150.11 1409.96,-156.9"/>
</a>
</g>
</g>
</g>
</svg>

<g id="navigator" transform="translate(0 0)" fill="#404254">
  <rect fill="#f2f5e9" fill-opacity="0.5" stroke="#606060" stroke-width=".5" x="0" y="0" width="60" height="60"/>
  <use id="zoomplus" xlink:href="#zoomPlus" x="17" y="9" onmousedown="handleZoom(evt,'in')"/>
  <use id="zoomminus" xlink:href="#zoomMin" x="42" y="9" onmousedown="handleZoom(evt,'out')"/>
  <use id="reset" xlink:href="#resetDef" x="30" y="36" onmousedown="handleReset()"/>
   <use id="arrowup" xlink:href="#arrowUp" x="0" y="0" onmousedown="handlePan(0,-1)"/>
  <use id="arrowright" xlink:href="#arrowRight" x="0" y="0" onmousedown="handlePan(1,0)"/>
  <use id="arrowdown" xlink:href="#arrowDown" x="0" y="0" onmousedown="handlePan(0,1)"/>
  <use id="arrowleft" xlink:href="#arrowLeft" x="0" y="0" onmousedown="handlePan(-1,0)"/>
</g>
<svg viewBox="0 0 15 15" width="100%" height="30px" preserveAspectRatio="xMaxYMin meet">
 <g id="arrow_out" transform="scale(0.3 0.3)">
  <a xlink:href="RenderPrototype_8ixx__incl_org.svg" target="_base">
   <rect id="button" ry="5" rx="5" y="6" x="6" height="38" width="38"
        fill="#f2f5e9" fill-opacity="0.5" stroke="#606060" stroke-width="1.0"/>
   <path id="arrow"
     d="M 11.500037,31.436501 C 11.940474,20.09759 22.043105,11.32322 32.158766,21.979434 L 37.068811,17.246167 C 37.068811,17.246167 37.088388,32 37.088388,32 L 22.160133,31.978069 C 22.160133,31.978069 26.997745,27.140456 26.997745,27.140456 C 18.528582,18.264221 13.291696,25.230495 11.500037,31.436501 z"
     style="fill:#404040;"/>
  </a>
 </g>
</svg>

<style type='text/css'>
<![CDATA[
[data-mouse-over-selected='false'] { opacity: 0.7; }
[data-mouse-over-selected='true']  { opacity: 1.0; }
]]>
</style>
<script type="application/ecmascript"><![CDATA[
document.addEventListener('DOMContentLoaded', (event) => {
  highlightEdges();
  highlightAdjacentNodes();
});
]]></script>
</svg>
