<?xml version="1.0" encoding="UTF-8" standalone="no"?>
<!DOCTYPE svg PUBLIC "-//W3C//DTD SVG 1.1//EN"
 "http://www.w3.org/Graphics/SVG/1.1/DTD/svg11.dtd">
<!-- Generated by graphviz version 2.43.0 (0)
 -->
<!-- Title: include/helios/rendering/Renderable.ixx Pages: 1 -->
<!--zoomable 467 -->

<svg id="main" version="1.1" xmlns="http://www.w3.org/2000/svg" xmlns:xlink="http://www.w3.org/1999/xlink" xml:space="preserve" onload="init(evt)">

<style type="text/css"><![CDATA[
.node, .edge {opacity: 0.7;}
.node.selected, .edge.selected {opacity: 1;}
.edge:hover path { stroke: red; }
.edge:hover polygon { stroke: red; fill: red; }
]]></style>

<defs>
  <circle id="rim" cx="0" cy="0" r="7"/>
  <circle id="rim2" cx="0" cy="0" r="3.5"/>
  <g id="zoomPlus">
    <use xlink:href="#rim" fill="#404040"><set attributeName="fill" to="#808080" begin="zoomplus.mouseover" end="zoomplus.mouseout"/></use>
    <path d="M-4,0h8M0,-4v8" fill="none" stroke="white" stroke-width="1.5" pointer-events="none"/>
  </g>
  <g id="zoomMin">
    <use xlink:href="#rim" fill="#404040"><set attributeName="fill" to="#808080" begin="zoomminus.mouseover" end="zoomminus.mouseout"/></use>
    <path d="M-4,0h8" fill="none" stroke="white" stroke-width="1.5" pointer-events="none"/>
  </g>
  <g id="arrowUp" transform="translate(30 24)">
    <use xlink:href="#rim"/>
    <path pointer-events="none" fill="none" stroke="white" stroke-width="1.5" d="M0,-3.0v7 M-2.5,-0.5L0,-3.0L2.5,-0.5"/>
  </g>
  <g id="arrowRight" transform="rotate(90) translate(36 -43)">
    <use xlink:href="#rim"/>
    <path pointer-events="none" fill="none" stroke="white" stroke-width="1.5" d="M0,-3.0v7 M-2.5,-0.5L0,-3.0L2.5,-0.5"/>
  </g>
  <g id="arrowDown" transform="rotate(180) translate(-30 -48)">
    <use xlink:href="#rim"/>
    <path pointer-events="none" fill="none" stroke="white" stroke-width="1.5" d="M0,-3.0v7 M-2.5,-0.5L0,-3.0L2.5,-0.5"/>
  </g>
  <g id="arrowLeft" transform="rotate(270) translate(-36 17)">
    <use xlink:href="#rim"/>
    <path pointer-events="none" fill="none" stroke="white" stroke-width="1.5" d="M0,-3.0v7 M-2.5,-0.5L0,-3.0L2.5,-0.5"/>
  </g>
  <g id="resetDef">
    <use xlink:href="#rim2" fill="#404040"><set attributeName="fill" to="#808080" begin="reset.mouseover" end="reset.mouseout"/></use>
  </g>
</defs>
<script type="application/ecmascript">
var viewWidth = 1884;
var viewHeight = 467;
var sectionId = 'dynsection-0';
</script>
<script type="application/ecmascript" xlink:href="svg.min.js"/>
<svg id="graph" class="graph">
<g id="viewport">
<title>include/helios/rendering/Renderable.ixx</title>
<!-- Node1 -->
<g id="Node000001" class="node">
<title>Node1</title>
<g id="a_Node000001"><a xlink:title="Representative of a configurable Renderable rendered by the underlying GL API.">
<polygon fill="#999999" stroke="#666666" points="687,-459 553,-459 553,-429 687,-429 687,-459"/>
<text text-anchor="start" x="561" y="-447" font-family="Helvetica,sans-Serif" font-size="10.00">include/helios/rendering</text>
<text text-anchor="middle" x="620" y="-436" font-family="Helvetica,sans-Serif" font-size="10.00">/Renderable.ixx</text>
</a>
</g>
</g>
<!-- Node2 -->
<g id="Node000002" class="node">
<title>Node2</title>
<g id="a_Node000002"><a xlink:title=" ">
<polygon fill="#e0e0e0" stroke="#999999" points="1149,-79.5 1091,-79.5 1091,-60.5 1149,-60.5 1149,-79.5"/>
<text text-anchor="middle" x="1120" y="-67.5" font-family="Helvetica,sans-Serif" font-size="10.00">memory</text>
</a>
</g>
</g>
<!-- Node1&#45;&gt;Node2 -->
<g id="edge1_Node000001_Node000002" class="edge">
<title>Node1&#45;&gt;Node2</title>
<g id="a_edge1_Node000001_Node000002"><a xlink:title=" ">
<path fill="none" stroke="#63b8ff" d="M687.09,-441.42C893.15,-435.67 1503,-411.71 1503,-329.5 1503,-329.5 1503,-329.5 1503,-267 1503,-185.49 1461.44,-163.69 1392,-121 1353.56,-97.37 1224.96,-81.49 1159.3,-74.71"/>
<polygon fill="#63b8ff" stroke="#63b8ff" points="1159.63,-71.23 1149.32,-73.7 1158.92,-78.19 1159.63,-71.23"/>
</a>
</g>
</g>
<!-- Node3 -->
<g id="Node000003" class="node">
<title>Node3</title>
<g id="a_Node000003"><a xlink:title=" ">
<polygon fill="#e0e0e0" stroke="#999999" points="140,-79.5 84,-79.5 84,-60.5 140,-60.5 140,-79.5"/>
<text text-anchor="middle" x="112" y="-67.5" font-family="Helvetica,sans-Serif" font-size="10.00">optional</text>
</a>
</g>
</g>
<!-- Node1&#45;&gt;Node3 -->
<g id="edge2_Node000001_Node000003" class="edge">
<title>Node1&#45;&gt;Node3</title>
<g id="a_edge2_Node000001_Node000003"><a xlink:title=" ">
<path fill="none" stroke="#63b8ff" d="M552.76,-442.46C424.72,-440.53 151.11,-431.83 66,-393 28.97,-376.1 0,-370.21 0,-329.5 0,-329.5 0,-329.5 0,-201 0,-147.9 54.29,-105.72 87.28,-85"/>
<polygon fill="#63b8ff" stroke="#63b8ff" points="89.22,-87.91 95.95,-79.73 85.59,-81.93 89.22,-87.91"/>
</a>
</g>
</g>
<!-- Node4 -->
<g id="Node000004" class="node">
<title>Node4</title>
<g id="a_Node000004"><a xlink:title=" ">
<polygon fill="#e0e0e0" stroke="#999999" points="313.5,-211.5 248.5,-211.5 248.5,-192.5 313.5,-192.5 313.5,-211.5"/>
<text text-anchor="middle" x="281" y="-199.5" font-family="Helvetica,sans-Serif" font-size="10.00">stdexcept</text>
</a>
</g>
</g>
<!-- Node1&#45;&gt;Node4 -->
<g id="edge3_Node000001_Node000004" class="edge">
<title>Node1&#45;&gt;Node4</title>
<g id="a_edge3_Node000001_Node000004"><a xlink:title=" ">
<path fill="none" stroke="#63b8ff" d="M555.78,-428.92C481.91,-409.27 362.55,-366.25 298,-283 284.37,-265.42 281.05,-239.39 280.54,-221.84"/>
<polygon fill="#63b8ff" stroke="#63b8ff" points="284.04,-221.7 280.52,-211.71 277.04,-221.71 284.04,-221.7"/>
</a>
</g>
</g>
<!-- Node5 -->
<g id="Node000005" class="node">
<title>Node5</title>
<g id="a_Node000005"><a xlink:href="LogManager_8ixx.html" target="_top" xlink:title="Central manager for scoped loggers with configurable sinks.">
<polygon fill="white" stroke="#666666" points="1407,-211.5 1261,-211.5 1261,-192.5 1407,-192.5 1407,-211.5"/>
<text text-anchor="middle" x="1334" y="-199.5" font-family="Helvetica,sans-Serif" font-size="10.00">helios.util.log.LogManager</text>
</a>
</g>
</g>
<!-- Node1&#45;&gt;Node5 -->
<g id="edge4_Node000001_Node000005" class="edge">
<title>Node1&#45;&gt;Node5</title>
<g id="a_edge4_Node000001_Node000005"><a xlink:title=" ">
<path fill="none" stroke="#63b8ff" d="M687.34,-439.68C767.09,-434.58 903.45,-422.12 1017,-393 1145.71,-359.99 1197.5,-373.28 1295,-283 1313.03,-266.31 1323.71,-239.49 1329.21,-221.56"/>
<polygon fill="#63b8ff" stroke="#63b8ff" points="1332.64,-222.3 1331.99,-211.72 1325.9,-220.39 1332.64,-222.3"/>
</a>
</g>
</g>
<!-- Node11 -->
<g id="Node000011" class="node">
<title>Node11</title>
<g id="a_Node000011"><a xlink:href="Logger_8ixx.html" target="_top" xlink:title="Simple synchronous logger with configurable output sinks.">
<polygon fill="white" stroke="#666666" points="1673.5,-145.5 1554.5,-145.5 1554.5,-126.5 1673.5,-126.5 1673.5,-145.5"/>
<text text-anchor="middle" x="1614" y="-133.5" font-family="Helvetica,sans-Serif" font-size="10.00">helios.util.log.Logger</text>
</a>
</g>
</g>
<!-- Node1&#45;&gt;Node11 -->
<g id="edge19_Node000001_Node000011" class="edge">
<title>Node1&#45;&gt;Node11</title>
<g id="a_edge19_Node000001_Node000011"><a xlink:title=" ">
<path fill="none" stroke="#63b8ff" d="M687.14,-443.62C868.11,-444.6 1362.74,-442.54 1517,-393 1567.13,-376.9 1617,-382.15 1617,-329.5 1617,-329.5 1617,-329.5 1617,-267 1617,-227.44 1615.59,-181.12 1614.71,-155.84"/>
<polygon fill="#63b8ff" stroke="#63b8ff" points="1618.19,-155.38 1614.33,-145.52 1611.2,-155.64 1618.19,-155.38"/>
</a>
</g>
</g>
<!-- Node13 -->
<g id="Node000013" class="node">
<title>Node13</title>
<g id="a_Node000013"><a xlink:href="UniformValueMap_8ixx.html" target="_top" xlink:title="Mapping of uniform names to values used by shader programs.">
<polygon fill="white" stroke="#666666" points="352,-151 218,-151 218,-121 352,-121 352,-151"/>
<text text-anchor="start" x="226" y="-139" font-family="Helvetica,sans-Serif" font-size="10.00">helios.rendering.shader.</text>
<text text-anchor="middle" x="285" y="-128" font-family="Helvetica,sans-Serif" font-size="10.00">UniformValueMap</text>
</a>
</g>
</g>
<!-- Node1&#45;&gt;Node13 -->
<g id="edge20_Node000001_Node000013" class="edge">
<title>Node1&#45;&gt;Node13</title>
<g id="a_edge20_Node000001_Node000013"><a xlink:title=" ">
<path fill="none" stroke="#63b8ff" d="M552.95,-443.86C399.92,-444.02 38,-433.41 38,-329.5 38,-329.5 38,-329.5 38,-267 38,-230.46 30.94,-212.62 57,-187 78.23,-166.13 150.2,-152.75 207.67,-145.13"/>
<polygon fill="#63b8ff" stroke="#63b8ff" points="208.37,-148.57 217.85,-143.82 207.48,-141.63 208.37,-148.57"/>
</a>
</g>
</g>
<!-- Node18 -->
<g id="Node000018" class="node">
<title>Node18</title>
<g id="a_Node000018"><a xlink:href="MaterialPropertiesOverride_8ixx.html" target="_top" xlink:title="Overrides for material properties to customize rendering parameters.">
<polygon fill="white" stroke="#666666" points="230,-217 66,-217 66,-187 230,-187 230,-217"/>
<text text-anchor="start" x="74" y="-205" font-family="Helvetica,sans-Serif" font-size="10.00">helios.rendering.model.config.</text>
<text text-anchor="middle" x="148" y="-194" font-family="Helvetica,sans-Serif" font-size="10.00">MaterialPropertiesOverride</text>
</a>
</g>
</g>
<!-- Node1&#45;&gt;Node18 -->
<g id="edge27_Node000001_Node000018" class="edge">
<title>Node1&#45;&gt;Node18</title>
<g id="a_edge27_Node000001_Node000018"><a xlink:title=" ">
<path fill="none" stroke="#63b8ff" d="M552.91,-433.21C511.15,-425.59 457.01,-412.9 412,-393 312.32,-348.94 212.9,-263.33 169.99,-223.86"/>
<polygon fill="#63b8ff" stroke="#63b8ff" points="172.36,-221.28 162.65,-217.05 167.6,-226.41 172.36,-221.28"/>
</a>
</g>
</g>
<!-- Node19 -->
<g id="Node000019" class="node">
<title>Node19</title>
<g id="a_Node000019"><a xlink:href="RenderPrototype_8ixx.html" target="_top" xlink:title="An immutable, shared prototype of a renderable object.">
<polygon fill="white" stroke="#666666" points="1008,-393 828,-393 828,-374 1008,-374 1008,-393"/>
<text text-anchor="middle" x="918" y="-381" font-family="Helvetica,sans-Serif" font-size="10.00">helios.rendering.RenderPrototype</text>
</a>
</g>
</g>
<!-- Node1&#45;&gt;Node19 -->
<g id="edge32_Node000001_Node000019" class="edge">
<title>Node1&#45;&gt;Node19</title>
<g id="a_edge32_Node000001_Node000019"><a xlink:title=" ">
<path fill="none" stroke="#63b8ff" d="M687.25,-429.8C740.89,-419.27 815,-404.72 864.62,-394.98"/>
<polygon fill="#63b8ff" stroke="#63b8ff" points="865.37,-398.4 874.51,-393.04 864.03,-391.53 865.37,-398.4"/>
</a>
</g>
</g>
<!-- Node5&#45;&gt;Node2 -->
<g id="edge8_Node000005_Node000002" class="edge">
<title>Node5&#45;&gt;Node2</title>
<g id="a_edge8_Node000005_Node000002"><a xlink:title=" ">
<path fill="none" stroke="#63b8ff" d="M1278.81,-192.43C1246.76,-185.36 1206.93,-172.83 1177,-151 1154.68,-134.72 1137.78,-107.01 1128.38,-88.85"/>
<polygon fill="#63b8ff" stroke="#63b8ff" points="1131.52,-87.29 1123.95,-79.88 1125.24,-90.4 1131.52,-87.29"/>
</a>
</g>
</g>
<!-- Node6 -->
<g id="Node000006" class="node">
<title>Node6</title>
<g id="a_Node000006"><a xlink:title=" ">
<polygon fill="#e0e0e0" stroke="#999999" points="1679,-19 1635,-19 1635,0 1679,0 1679,-19"/>
<text text-anchor="middle" x="1657" y="-7" font-family="Helvetica,sans-Serif" font-size="10.00">string</text>
</a>
</g>
</g>
<!-- Node5&#45;&gt;Node6 -->
<g id="edge5_Node000005_Node000006" class="edge">
<title>Node5&#45;&gt;Node6</title>
<g id="a_edge5_Node000005_Node000006"><a xlink:title=" ">
<path fill="none" stroke="#63b8ff" d="M1345.04,-192.17C1356.98,-182.46 1376.39,-166.22 1392,-151 1433.22,-110.79 1429.61,-84.59 1479,-55 1524.89,-27.51 1587.16,-16.94 1624.58,-12.92"/>
<polygon fill="#63b8ff" stroke="#63b8ff" points="1625.29,-16.36 1634.9,-11.91 1624.61,-9.4 1625.29,-16.36"/>
</a>
</g>
</g>
<!-- Node7 -->
<g id="Node000007" class="node">
<title>Node7</title>
<g id="a_Node000007"><a xlink:title=" ">
<polygon fill="#e0e0e0" stroke="#999999" points="1383.5,-145.5 1290.5,-145.5 1290.5,-126.5 1383.5,-126.5 1383.5,-145.5"/>
<text text-anchor="middle" x="1337" y="-133.5" font-family="Helvetica,sans-Serif" font-size="10.00">unordered_map</text>
</a>
</g>
</g>
<!-- Node5&#45;&gt;Node7 -->
<g id="edge6_Node000005_Node000007" class="edge">
<title>Node5&#45;&gt;Node7</title>
<g id="a_edge6_Node000005_Node000007"><a xlink:title=" ">
<path fill="none" stroke="#63b8ff" d="M1334.4,-192.37C1334.84,-183.07 1335.55,-167.98 1336.11,-155.9"/>
<polygon fill="#63b8ff" stroke="#63b8ff" points="1339.61,-156.06 1336.58,-145.91 1332.62,-155.73 1339.61,-156.06"/>
</a>
</g>
</g>
<!-- Node8 -->
<g id="Node000008" class="node">
<title>Node8</title>
<g id="a_Node000008"><a xlink:title=" ">
<polygon fill="#e0e0e0" stroke="#999999" points="1272,-145.5 1186,-145.5 1186,-126.5 1272,-126.5 1272,-145.5"/>
<text text-anchor="middle" x="1229" y="-133.5" font-family="Helvetica,sans-Serif" font-size="10.00">unordered_set</text>
</a>
</g>
</g>
<!-- Node5&#45;&gt;Node8 -->
<g id="edge7_Node000005_Node000008" class="edge">
<title>Node5&#45;&gt;Node8</title>
<g id="a_edge7_Node000005_Node000008"><a xlink:title=" ">
<path fill="none" stroke="#63b8ff" d="M1319.84,-192.37C1302.46,-181.78 1272.76,-163.67 1252.07,-151.06"/>
<polygon fill="#63b8ff" stroke="#63b8ff" points="1253.63,-147.92 1243.27,-145.7 1249.99,-153.89 1253.63,-147.92"/>
</a>
</g>
</g>
<!-- Node9 -->
<g id="Node000009" class="node">
<title>Node9</title>
<g id="a_Node000009"><a xlink:title=" ">
<polygon fill="#e0e0e0" stroke="#999999" points="1536,-79.5 1488,-79.5 1488,-60.5 1536,-60.5 1536,-79.5"/>
<text text-anchor="middle" x="1512" y="-67.5" font-family="Helvetica,sans-Serif" font-size="10.00">mutex</text>
</a>
</g>
</g>
<!-- Node5&#45;&gt;Node9 -->
<g id="edge9_Node000005_Node000009" class="edge">
<title>Node5&#45;&gt;Node9</title>
<g id="a_edge9_Node000005_Node000009"><a xlink:title=" ">
<path fill="none" stroke="#63b8ff" d="M1353.15,-192.34C1372.35,-183.27 1402.39,-167.98 1426,-151 1453.03,-131.56 1480.57,-104.37 1496.97,-87.23"/>
<polygon fill="#63b8ff" stroke="#63b8ff" points="1499.75,-89.37 1504.07,-79.7 1494.66,-84.57 1499.75,-89.37"/>
</a>
</g>
</g>
<!-- Node10 -->
<g id="Node000010" class="node">
<title>Node10</title>
<g id="a_Node000010"><a xlink:title=" ">
<polygon fill="#e0e0e0" stroke="#999999" points="1012.5,-79.5 965.5,-79.5 965.5,-60.5 1012.5,-60.5 1012.5,-79.5"/>
<text text-anchor="middle" x="989" y="-67.5" font-family="Helvetica,sans-Serif" font-size="10.00">vector</text>
</a>
</g>
</g>
<!-- Node5&#45;&gt;Node10 -->
<g id="edge10_Node000005_Node000010" class="edge">
<title>Node5&#45;&gt;Node10</title>
<g id="a_edge10_Node000005_Node000010"><a xlink:title=" ">
<path fill="none" stroke="#63b8ff" d="M1291.76,-192.45C1253.12,-184 1194.73,-169.65 1146,-151 1096.5,-132.05 1042.09,-102.11 1012.09,-84.73"/>
<polygon fill="#63b8ff" stroke="#63b8ff" points="1013.65,-81.59 1003.25,-79.56 1010.11,-87.63 1013.65,-81.59"/>
</a>
</g>
</g>
<!-- Node5&#45;&gt;Node11 -->
<g id="edge11_Node000005_Node000011" class="edge">
<title>Node5&#45;&gt;Node11</title>
<g id="a_edge11_Node000005_Node000011"><a xlink:title=" ">
<path fill="none" stroke="#63b8ff" d="M1371.47,-192.44C1421.97,-180.89 1511.88,-160.34 1566.9,-147.77"/>
<polygon fill="#63b8ff" stroke="#63b8ff" points="1567.78,-151.15 1576.75,-145.51 1566.22,-144.33 1567.78,-151.15"/>
</a>
</g>
</g>
<!-- Node12 -->
<g id="Node000012" class="node">
<title>Node12</title>
<g id="a_Node000012"><a xlink:href="LogSink_8ixx.html" target="_top" xlink:title="Abstract interface for log output destinations.">
<polygon fill="white" stroke="#666666" points="1764,-79.5 1640,-79.5 1640,-60.5 1764,-60.5 1764,-79.5"/>
<text text-anchor="middle" x="1702" y="-67.5" font-family="Helvetica,sans-Serif" font-size="10.00">helios.util.log.LogSink</text>
</a>
</g>
</g>
<!-- Node5&#45;&gt;Node12 -->
<g id="edge18_Node000005_Node000012" class="edge">
<title>Node5&#45;&gt;Node12</title>
<g id="a_edge18_Node000005_Node000012"><a xlink:title=" ">
<path fill="none" stroke="#63b8ff" d="M1355.54,-192.46C1393.7,-177.42 1475.79,-145.48 1546,-121 1586.1,-107.02 1632.51,-92.33 1664.21,-82.52"/>
<polygon fill="#63b8ff" stroke="#63b8ff" points="1665.43,-85.81 1673.96,-79.52 1663.37,-79.12 1665.43,-85.81"/>
</a>
</g>
</g>
<!-- Node11&#45;&gt;Node2 -->
<g id="edge14_Node000011_Node000002" class="edge">
<title>Node11&#45;&gt;Node2</title>
<g id="a_edge14_Node000011_Node000002"><a xlink:title=" ">
<path fill="none" stroke="#63b8ff" d="M1571.43,-126.43C1561.16,-124.51 1550.21,-122.57 1540,-121 1400.61,-99.54 1233.98,-82.14 1159.43,-74.78"/>
<polygon fill="#63b8ff" stroke="#63b8ff" points="1159.41,-71.27 1149.12,-73.77 1158.73,-78.23 1159.41,-71.27"/>
</a>
</g>
</g>
<!-- Node11&#45;&gt;Node6 -->
<g id="edge12_Node000011_Node000006" class="edge">
<title>Node11&#45;&gt;Node6</title>
<g id="a_edge12_Node000011_Node000006"><a xlink:title=" ">
<path fill="none" stroke="#63b8ff" d="M1614.92,-126.33C1616.72,-111.37 1621.37,-79.9 1631,-55 1634.67,-45.52 1640.2,-35.7 1645.21,-27.7"/>
<polygon fill="#63b8ff" stroke="#63b8ff" points="1648.18,-29.56 1650.73,-19.27 1642.32,-25.72 1648.18,-29.56"/>
</a>
</g>
</g>
<!-- Node11&#45;&gt;Node9 -->
<g id="edge15_Node000011_Node000009" class="edge">
<title>Node11&#45;&gt;Node9</title>
<g id="a_edge15_Node000011_Node000009"><a xlink:title=" ">
<path fill="none" stroke="#63b8ff" d="M1600.24,-126.37C1583.36,-115.78 1554.51,-97.67 1534.41,-85.06"/>
<polygon fill="#63b8ff" stroke="#63b8ff" points="1536.19,-82.05 1525.86,-79.7 1532.47,-87.98 1536.19,-82.05"/>
</a>
</g>
</g>
<!-- Node11&#45;&gt;Node10 -->
<g id="edge13_Node000011_Node000010" class="edge">
<title>Node11&#45;&gt;Node10</title>
<g id="a_edge13_Node000011_Node000010"><a xlink:title=" ">
<path fill="none" stroke="#63b8ff" d="M1554.44,-130.49C1455.96,-122.79 1253.05,-105.9 1082,-85 1062.4,-82.61 1040.57,-79.35 1022.99,-76.58"/>
<polygon fill="#63b8ff" stroke="#63b8ff" points="1023.08,-73.05 1012.65,-74.93 1021.97,-79.96 1023.08,-73.05"/>
</a>
</g>
</g>
<!-- Node11&#45;&gt;Node12 -->
<g id="edge16_Node000011_Node000012" class="edge">
<title>Node11&#45;&gt;Node12</title>
<g id="a_edge16_Node000011_Node000012"><a xlink:title=" ">
<path fill="none" stroke="#63b8ff" d="M1625.87,-126.37C1640.17,-115.97 1664.43,-98.32 1681.72,-85.75"/>
<polygon fill="#63b8ff" stroke="#63b8ff" points="1684.01,-88.41 1690.04,-79.7 1679.89,-82.75 1684.01,-88.41"/>
</a>
</g>
</g>
<!-- Node12&#45;&gt;Node6 -->
<g id="edge17_Node000012_Node000006" class="edge">
<title>Node12&#45;&gt;Node6</title>
<g id="a_edge17_Node000012_Node000006"><a xlink:title=" ">
<path fill="none" stroke="#63b8ff" d="M1695.36,-60.37C1688.71,-51.73 1678.31,-38.2 1670.01,-27.42"/>
<polygon fill="#63b8ff" stroke="#63b8ff" points="1672.54,-24.96 1663.67,-19.17 1666.99,-29.23 1672.54,-24.96"/>
</a>
</g>
</g>
<!-- Node13&#45;&gt;Node3 -->
<g id="edge22_Node000013_Node000003" class="edge">
<title>Node13&#45;&gt;Node3</title>
<g id="a_edge22_Node000013_Node000003"><a xlink:title=" ">
<path fill="none" stroke="#63b8ff" d="M246.57,-120.98C219.31,-111.01 181.88,-97.26 149,-85 147.41,-84.41 145.78,-83.8 144.13,-83.18"/>
<polygon fill="#63b8ff" stroke="#63b8ff" points="145.28,-79.87 134.69,-79.62 142.81,-86.42 145.28,-79.87"/>
</a>
</g>
</g>
<!-- Node14 -->
<g id="Node000014" class="node">
<title>Node14</title>
<g id="a_Node000014"><a xlink:title=" ">
<polygon fill="#e0e0e0" stroke="#999999" points="200,-79.5 158,-79.5 158,-60.5 200,-60.5 200,-79.5"/>
<text text-anchor="middle" x="179" y="-67.5" font-family="Helvetica,sans-Serif" font-size="10.00">array</text>
</a>
</g>
</g>
<!-- Node13&#45;&gt;Node14 -->
<g id="edge21_Node000013_Node000014" class="edge">
<title>Node13&#45;&gt;Node14</title>
<g id="a_edge21_Node000013_Node000014"><a xlink:title=" ">
<path fill="none" stroke="#63b8ff" d="M261.74,-120.95C243.89,-110.18 219.38,-95.38 201.67,-84.69"/>
<polygon fill="#63b8ff" stroke="#63b8ff" points="203.48,-81.69 193.11,-79.52 199.86,-87.68 203.48,-81.69"/>
</a>
</g>
</g>
<!-- Node15 -->
<g id="Node000015" class="node">
<title>Node15</title>
<g id="a_Node000015"><a xlink:title=" ">
<polygon fill="#e0e0e0" stroke="#999999" points="421.5,-79.5 370.5,-79.5 370.5,-60.5 421.5,-60.5 421.5,-79.5"/>
<text text-anchor="middle" x="396" y="-67.5" font-family="Helvetica,sans-Serif" font-size="10.00">variant</text>
</a>
</g>
</g>
<!-- Node13&#45;&gt;Node15 -->
<g id="edge23_Node000013_Node000015" class="edge">
<title>Node13&#45;&gt;Node15</title>
<g id="a_edge23_Node000013_Node000015"><a xlink:title=" ">
<path fill="none" stroke="#63b8ff" d="M309.36,-120.95C328.14,-110.13 353.95,-95.24 372.51,-84.54"/>
<polygon fill="#63b8ff" stroke="#63b8ff" points="374.31,-87.54 381.23,-79.52 370.82,-81.48 374.31,-87.54"/>
</a>
</g>
</g>
<!-- Node16 -->
<g id="Node000016" class="node">
<title>Node16</title>
<g id="a_Node000016"><a xlink:href="helios_2math_2types_2__module_8ixx.html" target="_top" xlink:title="Module exports for vector and matrix type definitions.">
<polygon fill="white" stroke="#666666" points="544,-79.5 440,-79.5 440,-60.5 544,-60.5 544,-79.5"/>
<text text-anchor="middle" x="492" y="-67.5" font-family="Helvetica,sans-Serif" font-size="10.00">helios.math.types</text>
</a>
</g>
</g>
<!-- Node13&#45;&gt;Node16 -->
<g id="edge24_Node000013_Node000016" class="edge">
<title>Node13&#45;&gt;Node16</title>
<g id="a_edge24_Node000013_Node000016"><a xlink:title=" ">
<path fill="none" stroke="#63b8ff" d="M330.43,-120.95C367.69,-109.43 419.8,-93.32 454.66,-82.54"/>
<polygon fill="#63b8ff" stroke="#63b8ff" points="455.93,-85.82 464.45,-79.52 453.86,-79.13 455.93,-85.82"/>
</a>
</g>
</g>
<!-- Node17 -->
<g id="Node000017" class="node">
<title>Node17</title>
<g id="a_Node000017"><a xlink:href="UniformSemantics_8ixx.html" target="_top" xlink:title="Definitions of uniform semantics used by shaders.">
<polygon fill="white" stroke="#666666" points="352,-85 218,-85 218,-55 352,-55 352,-85"/>
<text text-anchor="start" x="226" y="-73" font-family="Helvetica,sans-Serif" font-size="10.00">helios.rendering.shader.</text>
<text text-anchor="middle" x="285" y="-62" font-family="Helvetica,sans-Serif" font-size="10.00">UniformSemantics</text>
</a>
</g>
</g>
<!-- Node13&#45;&gt;Node17 -->
<g id="edge26_Node000013_Node000017" class="edge">
<title>Node13&#45;&gt;Node17</title>
<g id="a_edge26_Node000013_Node000017"><a xlink:title=" ">
<path fill="none" stroke="#63b8ff" d="M285,-120.8C285,-113.34 285,-103.99 285,-95.41"/>
<polygon fill="#63b8ff" stroke="#63b8ff" points="288.5,-95.16 285,-85.16 281.5,-95.16 288.5,-95.16"/>
</a>
</g>
</g>
<!-- Node16&#45;&gt;Node16 -->
<g id="edge25_Node000016_Node000016" class="edge">
<title>Node16&#45;&gt;Node16</title>
<g id="a_edge25_Node000016_Node000016"><a xlink:title=" ">
<path fill="none" stroke="#63b8ff" d="M517.85,-79.53C539.44,-83.61 562,-80.43 562,-70 562,-61.2 545.94,-57.56 527.95,-59.09"/>
<polygon fill="#63b8ff" stroke="#63b8ff" points="527.28,-55.65 517.85,-60.47 528.23,-62.58 527.28,-55.65"/>
</a>
</g>
</g>
<!-- Node18&#45;&gt;Node3 -->
<g id="edge28_Node000018_Node000003" class="edge">
<title>Node18&#45;&gt;Node3</title>
<g id="a_edge28_Node000018_Node000003"><a xlink:title=" ">
<path fill="none" stroke="#63b8ff" d="M144.08,-186.84C137.54,-163.23 124.42,-115.83 117.14,-89.58"/>
<polygon fill="#63b8ff" stroke="#63b8ff" points="120.46,-88.45 114.42,-79.75 113.72,-90.32 120.46,-88.45"/>
</a>
</g>
</g>
<!-- Node18&#45;&gt;Node13 -->
<g id="edge30_Node000018_Node000013" class="edge">
<title>Node18&#45;&gt;Node13</title>
<g id="a_edge30_Node000018_Node000013"><a xlink:title=" ">
<path fill="none" stroke="#63b8ff" d="M178.07,-186.95C197.96,-177.66 224.26,-165.38 245.79,-155.32"/>
<polygon fill="#63b8ff" stroke="#63b8ff" points="247.43,-158.42 255,-151.01 244.46,-152.07 247.43,-158.42"/>
</a>
</g>
</g>
<!-- Node18&#45;&gt;Node16 -->
<g id="edge31_Node000018_Node000016" class="edge">
<title>Node18&#45;&gt;Node16</title>
<g id="a_edge31_Node000018_Node000016"><a xlink:title=" ">
<path fill="none" stroke="#63b8ff" d="M230.04,-188.06C270.42,-180.12 319.27,-168.12 361,-151 403.38,-133.61 447.91,-103.51 472.59,-85.6"/>
<polygon fill="#63b8ff" stroke="#63b8ff" points="474.77,-88.35 480.75,-79.6 470.62,-82.71 474.77,-88.35"/>
</a>
</g>
</g>
<!-- Node18&#45;&gt;Node17 -->
<g id="edge29_Node000018_Node000017" class="edge">
<title>Node18&#45;&gt;Node17</title>
<g id="a_edge29_Node000018_Node000017"><a xlink:title=" ">
<path fill="none" stroke="#63b8ff" d="M156.68,-186.84C167.51,-169.89 187.29,-141.25 209,-121 221.41,-109.42 236.79,-98.76 250.47,-90.27"/>
<polygon fill="#63b8ff" stroke="#63b8ff" points="252.41,-93.19 259.16,-85.03 248.79,-87.2 252.41,-93.19"/>
</a>
</g>
</g>
<!-- Node19&#45;&gt;Node2 -->
<g id="edge33_Node000019_Node000002" class="edge">
<title>Node19&#45;&gt;Node2</title>
<g id="a_edge33_Node000019_Node000002"><a xlink:title=" ">
<path fill="none" stroke="#63b8ff" d="M980.81,-373.97C1040.1,-361.96 1120,-333.76 1120,-269 1120,-269 1120,-269 1120,-201 1120,-161.45 1120,-115.13 1120,-89.84"/>
<polygon fill="#63b8ff" stroke="#63b8ff" points="1123.5,-89.52 1120,-79.52 1116.5,-89.52 1123.5,-89.52"/>
</a>
</g>
</g>
<!-- Node20 -->
<g id="Node000020" class="node">
<title>Node20</title>
<g id="a_Node000020"><a xlink:href="Mesh_8ixx.html" target="_top" xlink:title="Mesh abstraction: immutable vertex/index data and configuration.">
<polygon fill="white" stroke="#666666" points="939,-277.5 781,-277.5 781,-258.5 939,-258.5 939,-277.5"/>
<text text-anchor="middle" x="860" y="-265.5" font-family="Helvetica,sans-Serif" font-size="10.00">helios.rendering.model.Mesh</text>
</a>
</g>
</g>
<!-- Node19&#45;&gt;Node20 -->
<g id="edge34_Node000019_Node000020" class="edge">
<title>Node19&#45;&gt;Node20</title>
<g id="a_edge34_Node000019_Node000020"><a xlink:title=" ">
<path fill="none" stroke="#63b8ff" d="M908.28,-373.89C899.42,-365.55 886.6,-352.11 879,-338 870.44,-322.12 865.48,-302.06 862.79,-287.67"/>
<polygon fill="#63b8ff" stroke="#63b8ff" points="866.19,-286.81 861.09,-277.53 859.29,-287.97 866.19,-286.81"/>
</a>
</g>
</g>
<!-- Node25 -->
<g id="Node000025" class="node">
<title>Node25</title>
<g id="a_Node000025"><a xlink:href="Material_8ixx.html" target="_top" xlink:title="Material abstraction: shader + material properties.">
<polygon fill="white" stroke="#666666" points="1061.5,-338 888.5,-338 888.5,-319 1061.5,-319 1061.5,-338"/>
<text text-anchor="middle" x="975" y="-326" font-family="Helvetica,sans-Serif" font-size="10.00">helios.rendering.model.Material</text>
</a>
</g>
</g>
<!-- Node19&#45;&gt;Node25 -->
<g id="edge50_Node000019_Node000025" class="edge">
<title>Node19&#45;&gt;Node25</title>
<g id="a_edge50_Node000019_Node000025"><a xlink:title=" ">
<path fill="none" stroke="#63b8ff" d="M927.16,-373.98C935.5,-366.23 948.03,-354.58 958.18,-345.14"/>
<polygon fill="#63b8ff" stroke="#63b8ff" points="960.74,-347.54 965.68,-338.17 955.97,-342.42 960.74,-347.54"/>
</a>
</g>
</g>
<!-- Node20&#45;&gt;Node2 -->
<g id="edge35_Node000020_Node000002" class="edge">
<title>Node20&#45;&gt;Node2</title>
<g id="a_edge35_Node000020_Node000002"><a xlink:title=" ">
<path fill="none" stroke="#63b8ff" d="M891.86,-258.48C916,-250.77 948.86,-237.44 972,-217 1009.36,-184 994.12,-155.6 1030,-121 1046.76,-104.83 1069.78,-92.17 1088.33,-83.64"/>
<polygon fill="#63b8ff" stroke="#63b8ff" points="1089.85,-86.79 1097.58,-79.55 1087.02,-80.39 1089.85,-86.79"/>
</a>
</g>
</g>
<!-- Node20&#45;&gt;Node4 -->
<g id="edge36_Node000020_Node000004" class="edge">
<title>Node20&#45;&gt;Node4</title>
<g id="a_edge36_Node000020_Node000004"><a xlink:title=" ">
<path fill="none" stroke="#63b8ff" d="M782.81,-258.47C659.24,-244.81 421.02,-218.48 323.85,-207.74"/>
<polygon fill="#63b8ff" stroke="#63b8ff" points="324.13,-204.25 313.8,-206.63 323.36,-211.2 324.13,-204.25"/>
</a>
</g>
</g>
<!-- Node20&#45;&gt;Node5 -->
<g id="edge40_Node000020_Node000005" class="edge">
<title>Node20&#45;&gt;Node5</title>
<g id="a_edge40_Node000020_Node000005"><a xlink:title=" ">
<path fill="none" stroke="#63b8ff" d="M923.43,-258.44C1010.97,-246.62 1168.43,-225.36 1260.83,-212.88"/>
<polygon fill="#63b8ff" stroke="#63b8ff" points="1261.5,-216.32 1270.94,-211.51 1260.56,-209.38 1261.5,-216.32"/>
</a>
</g>
</g>
<!-- Node20&#45;&gt;Node10 -->
<g id="edge37_Node000020_Node000010" class="edge">
<title>Node20&#45;&gt;Node10</title>
<g id="a_edge37_Node000020_Node000010"><a xlink:title=" ">
<path fill="none" stroke="#63b8ff" d="M886.76,-258.37C906.73,-250.6 933.18,-237.25 949,-217 978.85,-178.79 986.45,-119.82 988.37,-89.86"/>
<polygon fill="#63b8ff" stroke="#63b8ff" points="991.88,-89.74 988.87,-79.58 984.89,-89.4 991.88,-89.74"/>
</a>
</g>
</g>
<!-- Node20&#45;&gt;Node11 -->
<g id="edge39_Node000020_Node000011" class="edge">
<title>Node20&#45;&gt;Node11</title>
<g id="a_edge39_Node000020_Node000011"><a xlink:title=" ">
<path fill="none" stroke="#63b8ff" d="M939.15,-262.76C1070.47,-255.23 1327.68,-238.32 1416,-217 1480.51,-201.43 1551.61,-168.52 1588.55,-150.13"/>
<polygon fill="#63b8ff" stroke="#63b8ff" points="1590.24,-153.2 1597.6,-145.57 1587.1,-146.94 1590.24,-153.2"/>
</a>
</g>
</g>
<!-- Node20&#45;&gt;Node16 -->
<g id="edge38_Node000020_Node000016" class="edge">
<title>Node20&#45;&gt;Node16</title>
<g id="a_edge38_Node000020_Node000016"><a xlink:title=" ">
<path fill="none" stroke="#63b8ff" d="M780.94,-266.42C721.16,-262.94 638.76,-251.43 575,-217 539.59,-197.88 532.49,-186.21 513,-151 502.38,-131.81 496.96,-107.04 494.31,-90.18"/>
<polygon fill="#63b8ff" stroke="#63b8ff" points="497.73,-89.36 492.89,-79.94 490.8,-90.32 497.73,-89.36"/>
</a>
</g>
</g>
<!-- Node21 -->
<g id="Node000021" class="node">
<title>Node21</title>
<g id="a_Node000021"><a xlink:href="Shape_8ixx.html" target="_top" xlink:title="Interface for simple geometric shapes used for testing and debugging.">
<polygon fill="white" stroke="#666666" points="940,-217 780,-217 780,-187 940,-187 940,-217"/>
<text text-anchor="start" x="788" y="-205" font-family="Helvetica,sans-Serif" font-size="10.00">helios.rendering.asset.shape.</text>
<text text-anchor="middle" x="860" y="-194" font-family="Helvetica,sans-Serif" font-size="10.00">Shape</text>
</a>
</g>
</g>
<!-- Node20&#45;&gt;Node21 -->
<g id="edge41_Node000020_Node000021" class="edge">
<title>Node20&#45;&gt;Node21</title>
<g id="a_edge41_Node000020_Node000021"><a xlink:title=" ">
<path fill="none" stroke="#63b8ff" d="M860,-258.37C860,-250.49 860,-238.45 860,-227.6"/>
<polygon fill="#63b8ff" stroke="#63b8ff" points="863.5,-227.36 860,-217.36 856.5,-227.36 863.5,-227.36"/>
</a>
</g>
</g>
<!-- Node23 -->
<g id="Node000023" class="node">
<title>Node23</title>
<g id="a_Node000023"><a xlink:href="Vertex_8ixx.html" target="_top" xlink:title="Vertex description and utilities for rendering.">
<polygon fill="white" stroke="#666666" points="652,-145.5 522,-145.5 522,-126.5 652,-126.5 652,-145.5"/>
<text text-anchor="middle" x="587" y="-133.5" font-family="Helvetica,sans-Serif" font-size="10.00">helios.rendering.Vertex</text>
</a>
</g>
</g>
<!-- Node20&#45;&gt;Node23 -->
<g id="edge49_Node000020_Node000023" class="edge">
<title>Node20&#45;&gt;Node23</title>
<g id="a_edge49_Node000020_Node000023"><a xlink:title=" ">
<path fill="none" stroke="#63b8ff" d="M780.7,-263.17C709.79,-257.9 613.39,-245.56 589,-217 574.66,-200.2 577.36,-173.41 581.47,-155.52"/>
<polygon fill="#63b8ff" stroke="#63b8ff" points="584.89,-156.26 584.06,-145.7 578.12,-154.47 584.89,-156.26"/>
</a>
</g>
</g>
<!-- Node24 -->
<g id="Node000024" class="node">
<title>Node24</title>
<g id="a_Node000024"><a xlink:href="MeshConfig_8ixx.html" target="_top" xlink:title="Mesh configuration including primitive type.">
<polygon fill="white" stroke="#666666" points="762,-217 598,-217 598,-187 762,-187 762,-217"/>
<text text-anchor="start" x="606" y="-205" font-family="Helvetica,sans-Serif" font-size="10.00">helios.rendering.model.config.</text>
<text text-anchor="middle" x="680" y="-194" font-family="Helvetica,sans-Serif" font-size="10.00">MeshConfig</text>
</a>
</g>
</g>
<!-- Node20&#45;&gt;Node24 -->
<g id="edge47_Node000020_Node000024" class="edge">
<title>Node20&#45;&gt;Node24</title>
<g id="a_edge47_Node000020_Node000024"><a xlink:title=" ">
<path fill="none" stroke="#63b8ff" d="M835.72,-258.37C808.53,-248.7 763.74,-232.77 729.16,-220.48"/>
<polygon fill="#63b8ff" stroke="#63b8ff" points="730.29,-217.17 719.7,-217.12 727.95,-223.76 730.29,-217.17"/>
</a>
</g>
</g>
<!-- Node21&#45;&gt;Node2 -->
<g id="edge42_Node000021_Node000002" class="edge">
<title>Node21&#45;&gt;Node2</title>
<g id="a_edge42_Node000021_Node000002"><a xlink:title=" ">
<path fill="none" stroke="#63b8ff" d="M880.85,-186.81C906.35,-169.83 951.15,-141.17 992,-121 1022.54,-105.92 1058.82,-92.11 1084.95,-82.84"/>
<polygon fill="#63b8ff" stroke="#63b8ff" points="1086.15,-86.13 1094.43,-79.52 1083.84,-79.52 1086.15,-86.13"/>
</a>
</g>
</g>
<!-- Node21&#45;&gt;Node10 -->
<g id="edge43_Node000021_Node000010" class="edge">
<title>Node21&#45;&gt;Node10</title>
<g id="a_edge43_Node000021_Node000010"><a xlink:title=" ">
<path fill="none" stroke="#63b8ff" d="M867.78,-186.85C877.54,-169.9 895.52,-141.28 916,-121 930.47,-106.68 949.51,-93.79 964.52,-84.68"/>
<polygon fill="#63b8ff" stroke="#63b8ff" points="966.44,-87.62 973.27,-79.53 962.88,-81.59 966.44,-87.62"/>
</a>
</g>
</g>
<!-- Node22 -->
<g id="Node000022" class="node">
<title>Node22</title>
<g id="a_Node000022"><a xlink:href="PrimitiveType_8ixx.html" target="_top" xlink:title="Enum of primitive types for mesh rendering.">
<polygon fill="white" stroke="#666666" points="842,-151 678,-151 678,-121 842,-121 842,-151"/>
<text text-anchor="start" x="686" y="-139" font-family="Helvetica,sans-Serif" font-size="10.00">helios.rendering.model.config.</text>
<text text-anchor="middle" x="760" y="-128" font-family="Helvetica,sans-Serif" font-size="10.00">PrimitiveType</text>
</a>
</g>
</g>
<!-- Node21&#45;&gt;Node22 -->
<g id="edge44_Node000021_Node000022" class="edge">
<title>Node21&#45;&gt;Node22</title>
<g id="a_edge44_Node000021_Node000022"><a xlink:title=" ">
<path fill="none" stroke="#63b8ff" d="M837.81,-186.8C823.95,-177.93 805.93,-166.39 790.71,-156.66"/>
<polygon fill="#63b8ff" stroke="#63b8ff" points="792.44,-153.61 782.13,-151.16 788.67,-159.5 792.44,-153.61"/>
</a>
</g>
</g>
<!-- Node21&#45;&gt;Node23 -->
<g id="edge45_Node000021_Node000023" class="edge">
<title>Node21&#45;&gt;Node23</title>
<g id="a_edge45_Node000021_Node000023"><a xlink:title=" ">
<path fill="none" stroke="#63b8ff" d="M800.09,-186.95C749.89,-175.19 679.26,-158.63 633.31,-147.86"/>
<polygon fill="#63b8ff" stroke="#63b8ff" points="633.87,-144.39 623.33,-145.52 632.27,-151.21 633.87,-144.39"/>
</a>
</g>
</g>
<!-- Node23&#45;&gt;Node16 -->
<g id="edge46_Node000023_Node000016" class="edge">
<title>Node23&#45;&gt;Node16</title>
<g id="a_edge46_Node000023_Node000016"><a xlink:title=" ">
<path fill="none" stroke="#63b8ff" d="M574.19,-126.37C558.61,-115.87 532.07,-98 513.38,-85.4"/>
<polygon fill="#63b8ff" stroke="#63b8ff" points="515.16,-82.38 504.91,-79.7 511.25,-88.19 515.16,-82.38"/>
</a>
</g>
</g>
<!-- Node24&#45;&gt;Node22 -->
<g id="edge48_Node000024_Node000022" class="edge">
<title>Node24&#45;&gt;Node22</title>
<g id="a_edge48_Node000024_Node000022"><a xlink:title=" ">
<path fill="none" stroke="#63b8ff" d="M697.75,-186.8C708.53,-178.18 722.45,-167.04 734.4,-157.48"/>
<polygon fill="#63b8ff" stroke="#63b8ff" points="736.67,-160.14 742.3,-151.16 732.3,-154.68 736.67,-160.14"/>
</a>
</g>
</g>
<!-- Node25&#45;&gt;Node2 -->
<g id="edge51_Node000025_Node000002" class="edge">
<title>Node25&#45;&gt;Node2</title>
<g id="a_edge51_Node000025_Node000002"><a xlink:title=" ">
<path fill="none" stroke="#63b8ff" d="M979.82,-318.97C1000.47,-282.45 1081.59,-138.94 1110.06,-88.58"/>
<polygon fill="#63b8ff" stroke="#63b8ff" points="1113.28,-89.99 1115.16,-79.57 1107.19,-86.55 1113.28,-89.99"/>
</a>
</g>
</g>
<!-- Node25&#45;&gt;Node4 -->
<g id="edge52_Node000025_Node000004" class="edge">
<title>Node25&#45;&gt;Node4</title>
<g id="a_edge52_Node000025_Node000004"><a xlink:title=" ">
<path fill="none" stroke="#63b8ff" d="M888.34,-326C722.95,-322.5 374.49,-311.77 328,-283 305.57,-269.12 292.6,-240.26 286.17,-221.26"/>
<polygon fill="#63b8ff" stroke="#63b8ff" points="289.49,-220.16 283.18,-211.65 282.81,-222.23 289.49,-220.16"/>
</a>
</g>
</g>
<!-- Node25&#45;&gt;Node13 -->
<g id="edge69_Node000025_Node000013" class="edge">
<title>Node25&#45;&gt;Node13</title>
<g id="a_edge69_Node000025_Node000013"><a xlink:title=" ">
<path fill="none" stroke="#63b8ff" d="M888.4,-326.23C729.24,-323.18 402.63,-313.27 361,-283 323.75,-255.92 344.54,-227.16 322,-187 316.61,-177.39 309.64,-167.51 303.21,-159.08"/>
<polygon fill="#63b8ff" stroke="#63b8ff" points="305.96,-156.92 297.03,-151.22 300.45,-161.24 305.96,-156.92"/>
</a>
</g>
</g>
<!-- Node26 -->
<g id="Node000026" class="node">
<title>Node26</title>
<g id="a_Node000026"><a xlink:href="helios_2util_2log_2__module_8ixx.html" target="_top" xlink:title="Module exports for logging.">
<polygon fill="white" stroke="#666666" points="1728.5,-277.5 1645.5,-277.5 1645.5,-258.5 1728.5,-258.5 1728.5,-277.5"/>
<text text-anchor="middle" x="1687" y="-265.5" font-family="Helvetica,sans-Serif" font-size="10.00">helios.util.log</text>
</a>
</g>
</g>
<!-- Node25&#45;&gt;Node26 -->
<g id="edge53_Node000025_Node000026" class="edge">
<title>Node25&#45;&gt;Node26</title>
<g id="a_edge53_Node000025_Node000026"><a xlink:title=" ">
<path fill="none" stroke="#63b8ff" d="M1061.59,-320.39C1211.22,-308.09 1513.75,-283.23 1635,-273.27"/>
<polygon fill="#63b8ff" stroke="#63b8ff" points="1635.46,-276.75 1645.14,-272.44 1634.88,-269.77 1635.46,-276.75"/>
</a>
</g>
</g>
<!-- Node28 -->
<g id="Node000028" class="node">
<title>Node28</title>
<g id="a_Node000028"><a xlink:href="MaterialProperties_8ixx.html" target="_top" xlink:title="Default material properties used by materials and instances.">
<polygon fill="white" stroke="#666666" points="534,-283 370,-283 370,-253 534,-253 534,-283"/>
<text text-anchor="start" x="378" y="-271" font-family="Helvetica,sans-Serif" font-size="10.00">helios.rendering.model.config.</text>
<text text-anchor="middle" x="452" y="-260" font-family="Helvetica,sans-Serif" font-size="10.00">MaterialProperties</text>
</a>
</g>
</g>
<!-- Node25&#45;&gt;Node28 -->
<g id="edge60_Node000025_Node000028" class="edge">
<title>Node25&#45;&gt;Node28</title>
<g id="a_edge60_Node000025_Node000028"><a xlink:title=" ">
<path fill="none" stroke="#63b8ff" d="M898.95,-318.99C805,-308.49 645.26,-290.62 544.36,-279.33"/>
<polygon fill="#63b8ff" stroke="#63b8ff" points="544.51,-275.83 534.18,-278.19 543.73,-282.78 544.51,-275.83"/>
</a>
</g>
</g>
<!-- Node29 -->
<g id="Node000029" class="node">
<title>Node29</title>
<g id="a_Node000029"><a xlink:href="Shader_8ixx.html" target="_top" xlink:title="Abstraction for a compiled shader program.">
<polygon fill="white" stroke="#666666" points="1286,-283 1152,-283 1152,-253 1286,-253 1286,-283"/>
<text text-anchor="start" x="1160" y="-271" font-family="Helvetica,sans-Serif" font-size="10.00">helios.rendering.shader.</text>
<text text-anchor="middle" x="1219" y="-260" font-family="Helvetica,sans-Serif" font-size="10.00">Shader</text>
</a>
</g>
</g>
<!-- Node25&#45;&gt;Node29 -->
<g id="edge65_Node000025_Node000029" class="edge">
<title>Node25&#45;&gt;Node29</title>
<g id="a_edge65_Node000025_Node000029"><a xlink:title=" ">
<path fill="none" stroke="#63b8ff" d="M1010.48,-318.99C1047.05,-310.23 1105,-296.33 1150.53,-285.42"/>
<polygon fill="#63b8ff" stroke="#63b8ff" points="1151.43,-288.8 1160.34,-283.06 1149.8,-281.99 1151.43,-288.8"/>
</a>
</g>
</g>
<!-- Node26&#45;&gt;Node5 -->
<g id="edge54_Node000026_Node000005" class="edge">
<title>Node26&#45;&gt;Node5</title>
<g id="a_edge54_Node000026_Node000005"><a xlink:title=" ">
<path fill="none" stroke="#63b8ff" d="M1645.47,-259.47C1582.41,-248.04 1462.35,-226.27 1391.12,-213.36"/>
<polygon fill="#63b8ff" stroke="#63b8ff" points="1391.44,-209.86 1380.97,-211.52 1390.19,-216.74 1391.44,-209.86"/>
</a>
</g>
</g>
<!-- Node26&#45;&gt;Node11 -->
<g id="edge55_Node000026_Node000011" class="edge">
<title>Node26&#45;&gt;Node11</title>
<g id="a_edge55_Node000026_Node000011"><a xlink:title=" ">
<path fill="none" stroke="#63b8ff" d="M1682.21,-258.47C1670.41,-237.45 1639.73,-182.82 1623.85,-154.54"/>
<polygon fill="#63b8ff" stroke="#63b8ff" points="1626.85,-152.74 1618.9,-145.73 1620.75,-156.16 1626.85,-152.74"/>
</a>
</g>
</g>
<!-- Node26&#45;&gt;Node12 -->
<g id="edge59_Node000026_Node000012" class="edge">
<title>Node26&#45;&gt;Node12</title>
<g id="a_edge59_Node000026_Node000012"><a xlink:title=" ">
<path fill="none" stroke="#63b8ff" d="M1687.66,-258.33C1689.93,-228.66 1697.42,-130.85 1700.58,-89.6"/>
<polygon fill="#63b8ff" stroke="#63b8ff" points="1704.07,-89.81 1701.34,-79.57 1697.09,-89.28 1704.07,-89.81"/>
</a>
</g>
</g>
<!-- Node27 -->
<g id="Node000027" class="node">
<title>Node27</title>
<g id="a_Node000027"><a xlink:href="ConsoleSink_8ixx.html" target="_top" xlink:title="Log sink that writes to stdout.">
<polygon fill="white" stroke="#666666" points="1876,-145.5 1730,-145.5 1730,-126.5 1876,-126.5 1876,-145.5"/>
<text text-anchor="middle" x="1803" y="-133.5" font-family="Helvetica,sans-Serif" font-size="10.00">helios.util.log.ConsoleSink</text>
</a>
</g>
</g>
<!-- Node26&#45;&gt;Node27 -->
<g id="edge56_Node000026_Node000027" class="edge">
<title>Node26&#45;&gt;Node27</title>
<g id="a_edge56_Node000026_Node000027"><a xlink:title=" ">
<path fill="none" stroke="#63b8ff" d="M1694.61,-258.47C1713.61,-237.17 1763.4,-181.38 1788.33,-153.44"/>
<polygon fill="#63b8ff" stroke="#63b8ff" points="1791.16,-155.52 1795.21,-145.73 1785.94,-150.86 1791.16,-155.52"/>
</a>
</g>
</g>
<!-- Node27&#45;&gt;Node6 -->
<g id="edge57_Node000027_Node000006" class="edge">
<title>Node27&#45;&gt;Node6</title>
<g id="a_edge57_Node000027_Node000006"><a xlink:title=" ">
<path fill="none" stroke="#63b8ff" d="M1802.07,-126.29C1799.91,-110.11 1793.06,-75.21 1773,-55 1750.43,-32.26 1715,-20.93 1689.23,-15.42"/>
<polygon fill="#63b8ff" stroke="#63b8ff" points="1689.67,-11.94 1679.19,-13.46 1688.33,-18.81 1689.67,-11.94"/>
</a>
</g>
</g>
<!-- Node27&#45;&gt;Node12 -->
<g id="edge58_Node000027_Node000012" class="edge">
<title>Node27&#45;&gt;Node12</title>
<g id="a_edge58_Node000027_Node000012"><a xlink:title=" ">
<path fill="none" stroke="#63b8ff" d="M1789.38,-126.37C1772.66,-115.78 1744.09,-97.67 1724.19,-85.06"/>
<polygon fill="#63b8ff" stroke="#63b8ff" points="1726.05,-82.1 1715.73,-79.7 1722.3,-88.01 1726.05,-82.1"/>
</a>
</g>
</g>
<!-- Node28&#45;&gt;Node13 -->
<g id="edge62_Node000028_Node000013" class="edge">
<title>Node28&#45;&gt;Node13</title>
<g id="a_edge62_Node000028_Node000013"><a xlink:title=" ">
<path fill="none" stroke="#63b8ff" d="M435.68,-252.71C416.84,-236.37 384.75,-209.05 356,-187 342.59,-176.71 327.3,-165.85 314.36,-156.88"/>
<polygon fill="#63b8ff" stroke="#63b8ff" points="316.05,-153.79 305.82,-151.01 312.08,-159.56 316.05,-153.79"/>
</a>
</g>
</g>
<!-- Node28&#45;&gt;Node16 -->
<g id="edge63_Node000028_Node000016" class="edge">
<title>Node28&#45;&gt;Node16</title>
<g id="a_edge63_Node000028_Node000016"><a xlink:title=" ">
<path fill="none" stroke="#63b8ff" d="M454.49,-252.86C459.13,-226.74 469.6,-169.19 480,-121 482.25,-110.59 485.01,-99.02 487.31,-89.64"/>
<polygon fill="#63b8ff" stroke="#63b8ff" points="490.74,-90.37 489.75,-79.82 483.94,-88.68 490.74,-90.37"/>
</a>
</g>
</g>
<!-- Node28&#45;&gt;Node17 -->
<g id="edge61_Node000028_Node000017" class="edge">
<title>Node28&#45;&gt;Node17</title>
<g id="a_edge61_Node000028_Node000017"><a xlink:title=" ">
<path fill="none" stroke="#63b8ff" d="M445.69,-252.75C432.86,-224.93 401.47,-162.47 361,-121 349.42,-109.13 334.55,-98.59 321.04,-90.28"/>
<polygon fill="#63b8ff" stroke="#63b8ff" points="322.8,-87.25 312.41,-85.15 319.22,-93.27 322.8,-87.25"/>
</a>
</g>
</g>
<!-- Node28&#45;&gt;Node18 -->
<g id="edge64_Node000028_Node000018" class="edge">
<title>Node28&#45;&gt;Node18</title>
<g id="a_edge64_Node000028_Node000018"><a xlink:title=" ">
<path fill="none" stroke="#63b8ff" d="M385.29,-252.95C337.87,-242.97 274.07,-229.54 224.58,-219.12"/>
<polygon fill="#63b8ff" stroke="#63b8ff" points="225.07,-215.65 214.56,-217.01 223.62,-222.5 225.07,-215.65"/>
</a>
</g>
</g>
<!-- Node29&#45;&gt;Node5 -->
<g id="edge68_Node000029_Node000005" class="edge">
<title>Node29&#45;&gt;Node5</title>
<g id="a_edge68_Node000029_Node000005"><a xlink:title=" ">
<path fill="none" stroke="#63b8ff" d="M1244.24,-252.95C1263.78,-242.08 1290.68,-227.11 1309.93,-216.4"/>
<polygon fill="#63b8ff" stroke="#63b8ff" points="1311.66,-219.44 1318.7,-211.52 1308.26,-213.32 1311.66,-219.44"/>
</a>
</g>
</g>
<!-- Node29&#45;&gt;Node11 -->
<g id="edge67_Node000029_Node000011" class="edge">
<title>Node29&#45;&gt;Node11</title>
<g id="a_edge67_Node000029_Node000011"><a xlink:title=" ">
<path fill="none" stroke="#63b8ff" d="M1286.07,-263.09C1370.81,-257.12 1510.91,-243.52 1555,-217 1579.33,-202.36 1596.76,-173.5 1606.1,-154.74"/>
<polygon fill="#63b8ff" stroke="#63b8ff" points="1609.36,-156.04 1610.46,-145.51 1603.03,-153.06 1609.36,-156.04"/>
</a>
</g>
</g>
<!-- Node29&#45;&gt;Node13 -->
<g id="edge66_Node000029_Node000013" class="edge">
<title>Node29&#45;&gt;Node13</title>
<g id="a_edge66_Node000029_Node000013"><a xlink:title=" ">
<path fill="none" stroke="#63b8ff" d="M1151.81,-263.19C1012.39,-255.03 695.75,-235.13 589,-217 499.68,-201.83 398.37,-172.69 338.18,-154.08"/>
<polygon fill="#63b8ff" stroke="#63b8ff" points="339.1,-150.71 328.51,-151.08 337.02,-157.39 339.1,-150.71"/>
</a>
</g>
</g>
</g>
</svg>

<g id="navigator" transform="translate(0 0)" fill="#404254">
  <rect fill="#f2f5e9" fill-opacity="0.5" stroke="#606060" stroke-width=".5" x="0" y="0" width="60" height="60"/>
  <use id="zoomplus" xlink:href="#zoomPlus" x="17" y="9" onmousedown="handleZoom(evt,'in')"/>
  <use id="zoomminus" xlink:href="#zoomMin" x="42" y="9" onmousedown="handleZoom(evt,'out')"/>
  <use id="reset" xlink:href="#resetDef" x="30" y="36" onmousedown="handleReset()"/>
   <use id="arrowup" xlink:href="#arrowUp" x="0" y="0" onmousedown="handlePan(0,-1)"/>
  <use id="arrowright" xlink:href="#arrowRight" x="0" y="0" onmousedown="handlePan(1,0)"/>
  <use id="arrowdown" xlink:href="#arrowDown" x="0" y="0" onmousedown="handlePan(0,1)"/>
  <use id="arrowleft" xlink:href="#arrowLeft" x="0" y="0" onmousedown="handlePan(-1,0)"/>
</g>
<svg viewBox="0 0 15 15" width="100%" height="30px" preserveAspectRatio="xMaxYMin meet">
 <g id="arrow_out" transform="scale(0.3 0.3)">
  <a xlink:href="Renderable_8ixx__incl_org.svg" target="_base">
   <rect id="button" ry="5" rx="5" y="6" x="6" height="38" width="38"
        fill="#f2f5e9" fill-opacity="0.5" stroke="#606060" stroke-width="1.0"/>
   <path id="arrow"
     d="M 11.500037,31.436501 C 11.940474,20.09759 22.043105,11.32322 32.158766,21.979434 L 37.068811,17.246167 C 37.068811,17.246167 37.088388,32 37.088388,32 L 22.160133,31.978069 C 22.160133,31.978069 26.997745,27.140456 26.997745,27.140456 C 18.528582,18.264221 13.291696,25.230495 11.500037,31.436501 z"
     style="fill:#404040;"/>
  </a>
 </g>
</svg>

<style type='text/css'>
<![CDATA[
[data-mouse-over-selected='false'] { opacity: 0.7; }
[data-mouse-over-selected='true']  { opacity: 1.0; }
]]>
</style>
<script type="application/ecmascript"><![CDATA[
document.addEventListener('DOMContentLoaded', (event) => {
  highlightEdges();
  highlightAdjacentNodes();
});
]]></script>
</svg>
