<?xml version="1.0" encoding="UTF-8" standalone="no"?>
<!DOCTYPE svg PUBLIC "-//W3C//DTD SVG 1.1//EN"
 "http://www.w3.org/Graphics/SVG/1.1/DTD/svg11.dtd">
<!-- Generated by graphviz version 2.43.0 (0)
 -->
<!-- Title: include/helios/rendering/Renderable.ixx Pages: 1 -->
<svg width="1669pt" height="456pt"
 viewBox="0.00 0.00 1669.00 456.00" xmlns="http://www.w3.org/2000/svg" xmlns:xlink="http://www.w3.org/1999/xlink">
<g id="graph0" class="graph" transform="scale(1 1) rotate(0) translate(4 452)">
<title>include/helios/rendering/Renderable.ixx</title>
<!-- Node1 -->
<g id="Node000001" class="node">
<title>Node1</title>
<g id="a_Node000001"><a xlink:title="Representative of a configurable Renderable rendered by the underlying GL API.">
<polygon fill="#999999" stroke="#666666" points="630,-448 496,-448 496,-418 630,-418 630,-448"/>
<text text-anchor="start" x="504" y="-436" font-family="Helvetica,sans-Serif" font-size="10.00">include/helios/rendering</text>
<text text-anchor="middle" x="563" y="-425" font-family="Helvetica,sans-Serif" font-size="10.00">/Renderable.ixx</text>
</a>
</g>
</g>
<!-- Node2 -->
<g id="Node000002" class="node">
<title>Node2</title>
<g id="a_Node000002"><a xlink:title=" ">
<polygon fill="#e0e0e0" stroke="#999999" points="1395,-74 1337,-74 1337,-55 1395,-55 1395,-74"/>
<text text-anchor="middle" x="1366" y="-62" font-family="Helvetica,sans-Serif" font-size="10.00">memory</text>
</a>
</g>
</g>
<!-- Node1&#45;&gt;Node2 -->
<g id="edge1_Node000001_Node000002" class="edge">
<title>Node1&#45;&gt;Node2</title>
<g id="a_edge1_Node000001_Node000002"><a xlink:title=" ">
<path fill="none" stroke="#63b8ff" d="M630.03,-432.14C868.42,-431.77 1661,-422.7 1661,-318.5 1661,-318.5 1661,-318.5 1661,-190 1661,-80.27 1485.62,-65.74 1405.31,-64.83"/>
<polygon fill="#63b8ff" stroke="#63b8ff" points="1405.11,-61.33 1395.09,-64.79 1405.08,-68.33 1405.11,-61.33"/>
</a>
</g>
</g>
<!-- Node3 -->
<g id="Node000003" class="node">
<title>Node3</title>
<g id="a_Node000003"><a xlink:title=" ">
<polygon fill="#e0e0e0" stroke="#999999" points="56,-134.5 0,-134.5 0,-115.5 56,-115.5 56,-134.5"/>
<text text-anchor="middle" x="28" y="-122.5" font-family="Helvetica,sans-Serif" font-size="10.00">optional</text>
</a>
</g>
</g>
<!-- Node1&#45;&gt;Node3 -->
<g id="edge2_Node000001_Node000003" class="edge">
<title>Node1&#45;&gt;Node3</title>
<g id="a_edge2_Node000001_Node000003"><a xlink:title=" ">
<path fill="none" stroke="#63b8ff" d="M495.75,-431.58C352.86,-428.85 32,-412.3 32,-318.5 32,-318.5 32,-318.5 32,-256 32,-216.43 30.13,-170.12 28.94,-144.83"/>
<polygon fill="#63b8ff" stroke="#63b8ff" points="32.42,-144.33 28.44,-134.51 25.43,-144.67 32.42,-144.33"/>
</a>
</g>
</g>
<!-- Node4 -->
<g id="Node000004" class="node">
<title>Node4</title>
<g id="a_Node000004"><a xlink:title=" ">
<polygon fill="#e0e0e0" stroke="#999999" points="759.5,-266.5 694.5,-266.5 694.5,-247.5 759.5,-247.5 759.5,-266.5"/>
<text text-anchor="middle" x="727" y="-254.5" font-family="Helvetica,sans-Serif" font-size="10.00">stdexcept</text>
</a>
</g>
</g>
<!-- Node1&#45;&gt;Node4 -->
<g id="edge3_Node000001_Node000004" class="edge">
<title>Node1&#45;&gt;Node4</title>
<g id="a_edge3_Node000001_Node000004"><a xlink:title=" ">
<path fill="none" stroke="#63b8ff" d="M567.86,-417.65C576.96,-392.62 598.69,-340.54 632,-308 649.11,-291.29 672.93,-278.77 692.44,-270.43"/>
<polygon fill="#63b8ff" stroke="#63b8ff" points="693.98,-273.59 701.91,-266.57 691.33,-267.11 693.98,-273.59"/>
</a>
</g>
</g>
<!-- Node5 -->
<g id="Node000005" class="node">
<title>Node5</title>
<g id="a_Node000005"><a xlink:href="LogManager_8ixx.html" target="_top" xlink:title="Central manager for scoped loggers with configurable sinks.">
<polygon fill="white" stroke="#666666" points="969,-200.5 823,-200.5 823,-181.5 969,-181.5 969,-200.5"/>
<text text-anchor="middle" x="896" y="-188.5" font-family="Helvetica,sans-Serif" font-size="10.00">helios.util.log.LogManager</text>
</a>
</g>
</g>
<!-- Node1&#45;&gt;Node5 -->
<g id="edge4_Node000001_Node000005" class="edge">
<title>Node1&#45;&gt;Node5</title>
<g id="a_edge4_Node000001_Node000005"><a xlink:title=" ">
<path fill="none" stroke="#63b8ff" d="M554.1,-417.77C533.64,-383.07 488.34,-293.23 533,-242 542.14,-231.51 708.27,-212.01 812.59,-200.71"/>
<polygon fill="#63b8ff" stroke="#63b8ff" points="813.23,-204.16 822.79,-199.61 812.48,-197.21 813.23,-204.16"/>
</a>
</g>
</g>
<!-- Node11 -->
<g id="Node000011" class="node">
<title>Node11</title>
<g id="a_Node000011"><a xlink:href="Logger_8ixx.html" target="_top" xlink:title="Simple synchronous logger with configurable output sinks.">
<polygon fill="white" stroke="#666666" points="1185.5,-134.5 1066.5,-134.5 1066.5,-115.5 1185.5,-115.5 1185.5,-134.5"/>
<text text-anchor="middle" x="1126" y="-122.5" font-family="Helvetica,sans-Serif" font-size="10.00">helios.util.log.Logger</text>
</a>
</g>
</g>
<!-- Node1&#45;&gt;Node11 -->
<g id="edge19_Node000001_Node000011" class="edge">
<title>Node1&#45;&gt;Node11</title>
<g id="a_edge19_Node000001_Node000011"><a xlink:title=" ">
<path fill="none" stroke="#63b8ff" d="M630.08,-426.78C791.24,-413.34 1187,-374.62 1187,-318.5 1187,-318.5 1187,-318.5 1187,-256 1187,-211.79 1157.73,-166.44 1139.74,-142.75"/>
<polygon fill="#63b8ff" stroke="#63b8ff" points="1142.41,-140.49 1133.48,-134.78 1136.9,-144.81 1142.41,-140.49"/>
</a>
</g>
</g>
<!-- Node13 -->
<g id="Node000013" class="node">
<title>Node13</title>
<g id="a_Node000013"><a xlink:href="UniformValueMap_8ixx.html" target="_top" xlink:title="Mapping of uniform names to values used by shader programs.">
<polygon fill="white" stroke="#666666" points="319,-206 185,-206 185,-176 319,-176 319,-206"/>
<text text-anchor="start" x="193" y="-194" font-family="Helvetica,sans-Serif" font-size="10.00">helios.rendering.shader.</text>
<text text-anchor="middle" x="252" y="-183" font-family="Helvetica,sans-Serif" font-size="10.00">UniformValueMap</text>
</a>
</g>
</g>
<!-- Node1&#45;&gt;Node13 -->
<g id="edge20_Node000001_Node000013" class="edge">
<title>Node1&#45;&gt;Node13</title>
<g id="a_edge20_Node000001_Node000013"><a xlink:title=" ">
<path fill="none" stroke="#63b8ff" d="M515.96,-417.94C452.57,-396.61 340.37,-350.08 277,-272 264.14,-256.15 257.86,-233.65 254.82,-216.55"/>
<polygon fill="#63b8ff" stroke="#63b8ff" points="258.21,-215.57 253.25,-206.21 251.29,-216.62 258.21,-215.57"/>
</a>
</g>
</g>
<!-- Node18 -->
<g id="Node000018" class="node">
<title>Node18</title>
<g id="a_Node000018"><a xlink:href="MaterialPropertiesOverride_8ixx.html" target="_top" xlink:title="Overrides for material properties to customize rendering parameters.">
<polygon fill="white" stroke="#666666" points="228,-272 64,-272 64,-242 228,-242 228,-272"/>
<text text-anchor="start" x="72" y="-260" font-family="Helvetica,sans-Serif" font-size="10.00">helios.rendering.model.config.</text>
<text text-anchor="middle" x="146" y="-249" font-family="Helvetica,sans-Serif" font-size="10.00">MaterialPropertiesOverride</text>
</a>
</g>
</g>
<!-- Node1&#45;&gt;Node18 -->
<g id="edge27_Node000001_Node000018" class="edge">
<title>Node1&#45;&gt;Node18</title>
<g id="a_edge27_Node000001_Node000018"><a xlink:title=" ">
<path fill="none" stroke="#63b8ff" d="M495.84,-427.38C414.7,-420.79 283.83,-406.69 242,-382 201.56,-358.13 172.03,-310.12 157.07,-281.35"/>
<polygon fill="#63b8ff" stroke="#63b8ff" points="160.18,-279.75 152.56,-272.39 153.93,-282.9 160.18,-279.75"/>
</a>
</g>
</g>
<!-- Node19 -->
<g id="Node000019" class="node">
<title>Node19</title>
<g id="a_Node000019"><a xlink:href="RenderPrototype_8ixx.html" target="_top" xlink:title="An immutable, shared prototype of a renderable object.">
<polygon fill="white" stroke="#666666" points="990,-382 810,-382 810,-363 990,-363 990,-382"/>
<text text-anchor="middle" x="900" y="-370" font-family="Helvetica,sans-Serif" font-size="10.00">helios.rendering.RenderPrototype</text>
</a>
</g>
</g>
<!-- Node1&#45;&gt;Node19 -->
<g id="edge32_Node000001_Node000019" class="edge">
<title>Node1&#45;&gt;Node19</title>
<g id="a_edge32_Node000001_Node000019"><a xlink:title=" ">
<path fill="none" stroke="#63b8ff" d="M630.39,-420.3C692.03,-409.6 782.33,-393.93 841.14,-383.72"/>
<polygon fill="#63b8ff" stroke="#63b8ff" points="841.76,-387.16 851.02,-382 840.57,-380.27 841.76,-387.16"/>
</a>
</g>
</g>
<!-- Node5&#45;&gt;Node2 -->
<g id="edge8_Node000005_Node000002" class="edge">
<title>Node5&#45;&gt;Node2</title>
<g id="a_edge8_Node000005_Node000002"><a xlink:title=" ">
<path fill="none" stroke="#63b8ff" d="M969.02,-182.85C1030.26,-175.66 1119.56,-162.37 1195,-140 1248.74,-124.06 1307.98,-95.62 1340.72,-78.87"/>
<polygon fill="#63b8ff" stroke="#63b8ff" points="1342.72,-81.77 1349.99,-74.07 1339.5,-75.55 1342.72,-81.77"/>
</a>
</g>
</g>
<!-- Node6 -->
<g id="Node000006" class="node">
<title>Node6</title>
<g id="a_Node000006"><a xlink:title=" ">
<polygon fill="#e0e0e0" stroke="#999999" points="684,-19 640,-19 640,0 684,0 684,-19"/>
<text text-anchor="middle" x="662" y="-7" font-family="Helvetica,sans-Serif" font-size="10.00">string</text>
</a>
</g>
</g>
<!-- Node5&#45;&gt;Node6 -->
<g id="edge5_Node000005_Node000006" class="edge">
<title>Node5&#45;&gt;Node6</title>
<g id="a_edge5_Node000005_Node000006"><a xlink:title=" ">
<path fill="none" stroke="#63b8ff" d="M822.93,-182.63C717.64,-171.65 534.72,-151.12 525,-140 484.32,-93.47 578.19,-45.13 630.25,-22.96"/>
<polygon fill="#63b8ff" stroke="#63b8ff" points="631.86,-26.08 639.75,-19.01 629.17,-19.62 631.86,-26.08"/>
</a>
</g>
</g>
<!-- Node7 -->
<g id="Node000007" class="node">
<title>Node7</title>
<g id="a_Node000007"><a xlink:title=" ">
<polygon fill="#e0e0e0" stroke="#999999" points="971.5,-134.5 878.5,-134.5 878.5,-115.5 971.5,-115.5 971.5,-134.5"/>
<text text-anchor="middle" x="925" y="-122.5" font-family="Helvetica,sans-Serif" font-size="10.00">unordered_map</text>
</a>
</g>
</g>
<!-- Node5&#45;&gt;Node7 -->
<g id="edge6_Node000005_Node000007" class="edge">
<title>Node5&#45;&gt;Node7</title>
<g id="a_edge6_Node000005_Node000007"><a xlink:title=" ">
<path fill="none" stroke="#63b8ff" d="M899.91,-181.37C904.21,-171.88 911.24,-156.36 916.77,-144.16"/>
<polygon fill="#63b8ff" stroke="#63b8ff" points="920.03,-145.46 920.96,-134.91 913.65,-142.57 920.03,-145.46"/>
</a>
</g>
</g>
<!-- Node8 -->
<g id="Node000008" class="node">
<title>Node8</title>
<g id="a_Node000008"><a xlink:title=" ">
<polygon fill="#e0e0e0" stroke="#999999" points="822,-134.5 736,-134.5 736,-115.5 822,-115.5 822,-134.5"/>
<text text-anchor="middle" x="779" y="-122.5" font-family="Helvetica,sans-Serif" font-size="10.00">unordered_set</text>
</a>
</g>
</g>
<!-- Node5&#45;&gt;Node8 -->
<g id="edge7_Node000005_Node000008" class="edge">
<title>Node5&#45;&gt;Node8</title>
<g id="a_edge7_Node000005_Node000008"><a xlink:title=" ">
<path fill="none" stroke="#63b8ff" d="M880.22,-181.37C860.59,-170.63 826.86,-152.18 803.77,-139.55"/>
<polygon fill="#63b8ff" stroke="#63b8ff" points="805.36,-136.43 794.9,-134.7 802,-142.57 805.36,-136.43"/>
</a>
</g>
</g>
<!-- Node9 -->
<g id="Node000009" class="node">
<title>Node9</title>
<g id="a_Node000009"><a xlink:title=" ">
<polygon fill="#e0e0e0" stroke="#999999" points="1043,-74 995,-74 995,-55 1043,-55 1043,-74"/>
<text text-anchor="middle" x="1019" y="-62" font-family="Helvetica,sans-Serif" font-size="10.00">mutex</text>
</a>
</g>
</g>
<!-- Node5&#45;&gt;Node9 -->
<g id="edge9_Node000005_Node000009" class="edge">
<title>Node5&#45;&gt;Node9</title>
<g id="a_edge9_Node000005_Node000009"><a xlink:title=" ">
<path fill="none" stroke="#63b8ff" d="M917.49,-181.49C936.19,-173.21 963.04,-159.07 981,-140 996.35,-123.7 1007,-100 1013.04,-83.73"/>
<polygon fill="#63b8ff" stroke="#63b8ff" points="1016.35,-84.87 1016.34,-74.27 1009.74,-82.56 1016.35,-84.87"/>
</a>
</g>
</g>
<!-- Node10 -->
<g id="Node000010" class="node">
<title>Node10</title>
<g id="a_Node000010"><a xlink:title=" ">
<polygon fill="#e0e0e0" stroke="#999999" points="1219.5,-74 1172.5,-74 1172.5,-55 1219.5,-55 1219.5,-74"/>
<text text-anchor="middle" x="1196" y="-62" font-family="Helvetica,sans-Serif" font-size="10.00">vector</text>
</a>
</g>
</g>
<!-- Node5&#45;&gt;Node10 -->
<g id="edge10_Node000005_Node000010" class="edge">
<title>Node5&#45;&gt;Node10</title>
<g id="a_edge10_Node000005_Node000010"><a xlink:title=" ">
<path fill="none" stroke="#63b8ff" d="M915.72,-181.39C937.53,-171.76 973.61,-155.45 1004,-140 1028.47,-127.56 1032.82,-120.93 1058,-110 1092.55,-95 1133.86,-82.34 1162.22,-74.4"/>
<polygon fill="#63b8ff" stroke="#63b8ff" points="1163.33,-77.72 1172.04,-71.69 1161.47,-70.97 1163.33,-77.72"/>
</a>
</g>
</g>
<!-- Node5&#45;&gt;Node11 -->
<g id="edge11_Node000005_Node000011" class="edge">
<title>Node5&#45;&gt;Node11</title>
<g id="a_edge11_Node000005_Node000011"><a xlink:title=" ">
<path fill="none" stroke="#63b8ff" d="M927.02,-181.37C967.94,-169.98 1040.07,-149.91 1085.32,-137.32"/>
<polygon fill="#63b8ff" stroke="#63b8ff" points="1086.41,-140.65 1095.11,-134.6 1084.53,-133.91 1086.41,-140.65"/>
</a>
</g>
</g>
<!-- Node12 -->
<g id="Node000012" class="node">
<title>Node12</title>
<g id="a_Node000012"><a xlink:href="LogSink_8ixx.html" target="_top" xlink:title="Abstract interface for log output destinations.">
<polygon fill="white" stroke="#666666" points="770,-74 646,-74 646,-55 770,-55 770,-74"/>
<text text-anchor="middle" x="708" y="-62" font-family="Helvetica,sans-Serif" font-size="10.00">helios.util.log.LogSink</text>
</a>
</g>
</g>
<!-- Node5&#45;&gt;Node12 -->
<g id="edge18_Node000005_Node000012" class="edge">
<title>Node5&#45;&gt;Node12</title>
<g id="a_edge18_Node000005_Node000012"><a xlink:title=" ">
<path fill="none" stroke="#63b8ff" d="M891.1,-181.23C881.57,-164.95 859.01,-129.9 831,-110 809.13,-94.46 781.26,-83.79 757.58,-76.8"/>
<polygon fill="#63b8ff" stroke="#63b8ff" points="758.29,-73.36 747.71,-74.03 756.39,-80.1 758.29,-73.36"/>
</a>
</g>
</g>
<!-- Node11&#45;&gt;Node2 -->
<g id="edge14_Node000011_Node000002" class="edge">
<title>Node11&#45;&gt;Node2</title>
<g id="a_edge14_Node000011_Node000002"><a xlink:title=" ">
<path fill="none" stroke="#63b8ff" d="M1160.9,-115.49C1205.01,-104.74 1280.75,-86.28 1326.81,-75.05"/>
<polygon fill="#63b8ff" stroke="#63b8ff" points="1327.84,-78.41 1336.72,-72.64 1326.18,-71.6 1327.84,-78.41"/>
</a>
</g>
</g>
<!-- Node11&#45;&gt;Node6 -->
<g id="edge12_Node000011_Node000006" class="edge">
<title>Node11&#45;&gt;Node6</title>
<g id="a_edge12_Node000011_Node000006"><a xlink:title=" ">
<path fill="none" stroke="#63b8ff" d="M1119.82,-115.39C1108.39,-100.21 1082.31,-68.97 1052,-55 988.48,-25.71 776.05,-14.78 694.38,-11.6"/>
<polygon fill="#63b8ff" stroke="#63b8ff" points="694.32,-8.09 684.19,-11.22 694.05,-15.09 694.32,-8.09"/>
</a>
</g>
</g>
<!-- Node11&#45;&gt;Node9 -->
<g id="edge15_Node000011_Node000009" class="edge">
<title>Node11&#45;&gt;Node9</title>
<g id="a_edge15_Node000011_Node000009"><a xlink:title=" ">
<path fill="none" stroke="#63b8ff" d="M1110.21,-115.37C1092.67,-105.78 1064.12,-90.17 1043.63,-78.97"/>
<polygon fill="#63b8ff" stroke="#63b8ff" points="1045.31,-75.89 1034.85,-74.17 1041.95,-82.04 1045.31,-75.89"/>
</a>
</g>
</g>
<!-- Node11&#45;&gt;Node10 -->
<g id="edge13_Node000011_Node000010" class="edge">
<title>Node11&#45;&gt;Node10</title>
<g id="a_edge13_Node000011_Node000010"><a xlink:title=" ">
<path fill="none" stroke="#63b8ff" d="M1136.33,-115.37C1147.19,-106.3 1164.49,-91.84 1177.67,-80.82"/>
<polygon fill="#63b8ff" stroke="#63b8ff" points="1180.2,-83.27 1185.63,-74.17 1175.71,-77.89 1180.2,-83.27"/>
</a>
</g>
</g>
<!-- Node11&#45;&gt;Node12 -->
<g id="edge16_Node000011_Node000012" class="edge">
<title>Node11&#45;&gt;Node12</title>
<g id="a_edge16_Node000011_Node000012"><a xlink:title=" ">
<path fill="none" stroke="#63b8ff" d="M1066.11,-115.62C990.23,-105 859.64,-86.72 778.88,-75.42"/>
<polygon fill="#63b8ff" stroke="#63b8ff" points="779.19,-71.93 768.8,-74.01 778.21,-78.86 779.19,-71.93"/>
</a>
</g>
</g>
<!-- Node12&#45;&gt;Node6 -->
<g id="edge17_Node000012_Node000006" class="edge">
<title>Node12&#45;&gt;Node6</title>
<g id="a_edge17_Node000012_Node000006"><a xlink:title=" ">
<path fill="none" stroke="#63b8ff" d="M700.4,-54.75C693.84,-47.18 684.18,-36.05 676.19,-26.84"/>
<polygon fill="#63b8ff" stroke="#63b8ff" points="678.65,-24.35 669.45,-19.09 673.37,-28.94 678.65,-24.35"/>
</a>
</g>
</g>
<!-- Node13&#45;&gt;Node3 -->
<g id="edge22_Node000013_Node000003" class="edge">
<title>Node13&#45;&gt;Node3</title>
<g id="a_edge22_Node000013_Node000003"><a xlink:title=" ">
<path fill="none" stroke="#63b8ff" d="M193.44,-175.95C156.36,-166.66 107.54,-153.7 65,-140 63.09,-139.38 61.13,-138.73 59.16,-138.04"/>
<polygon fill="#63b8ff" stroke="#63b8ff" points="59.99,-134.62 49.39,-134.51 57.61,-141.2 59.99,-134.62"/>
</a>
</g>
</g>
<!-- Node14 -->
<g id="Node000014" class="node">
<title>Node14</title>
<g id="a_Node000014"><a xlink:title=" ">
<polygon fill="#e0e0e0" stroke="#999999" points="268,-134.5 226,-134.5 226,-115.5 268,-115.5 268,-134.5"/>
<text text-anchor="middle" x="247" y="-122.5" font-family="Helvetica,sans-Serif" font-size="10.00">array</text>
</a>
</g>
</g>
<!-- Node13&#45;&gt;Node14 -->
<g id="edge21_Node000013_Node000014" class="edge">
<title>Node13&#45;&gt;Node14</title>
<g id="a_edge21_Node000013_Node000014"><a xlink:title=" ">
<path fill="none" stroke="#63b8ff" d="M250.89,-175.8C250.18,-166.7 249.25,-154.79 248.48,-144.9"/>
<polygon fill="#63b8ff" stroke="#63b8ff" points="251.96,-144.54 247.69,-134.84 244.98,-145.09 251.96,-144.54"/>
</a>
</g>
</g>
<!-- Node15 -->
<g id="Node000015" class="node">
<title>Node15</title>
<g id="a_Node000015"><a xlink:title=" ">
<polygon fill="#e0e0e0" stroke="#999999" points="337.5,-134.5 286.5,-134.5 286.5,-115.5 337.5,-115.5 337.5,-134.5"/>
<text text-anchor="middle" x="312" y="-122.5" font-family="Helvetica,sans-Serif" font-size="10.00">variant</text>
</a>
</g>
</g>
<!-- Node13&#45;&gt;Node15 -->
<g id="edge23_Node000013_Node000015" class="edge">
<title>Node13&#45;&gt;Node15</title>
<g id="a_edge23_Node000013_Node000015"><a xlink:title=" ">
<path fill="none" stroke="#63b8ff" d="M265.32,-175.8C274.58,-165.92 286.95,-152.72 296.63,-142.39"/>
<polygon fill="#63b8ff" stroke="#63b8ff" points="299.42,-144.53 303.71,-134.84 294.32,-139.75 299.42,-144.53"/>
</a>
</g>
</g>
<!-- Node16 -->
<g id="Node000016" class="node">
<title>Node16</title>
<g id="a_Node000016"><a xlink:href="helios_2math_2types_2__module_8ixx.html" target="_top" xlink:title="Module exports for vector and matrix type definitions.">
<polygon fill="white" stroke="#666666" points="460,-134.5 356,-134.5 356,-115.5 460,-115.5 460,-134.5"/>
<text text-anchor="middle" x="408" y="-122.5" font-family="Helvetica,sans-Serif" font-size="10.00">helios.math.types</text>
</a>
</g>
</g>
<!-- Node13&#45;&gt;Node16 -->
<g id="edge24_Node000013_Node000016" class="edge">
<title>Node13&#45;&gt;Node16</title>
<g id="a_edge24_Node000013_Node000016"><a xlink:title=" ">
<path fill="none" stroke="#63b8ff" d="M286.23,-175.95C313.59,-164.73 351.57,-149.15 377.81,-138.39"/>
<polygon fill="#63b8ff" stroke="#63b8ff" points="379.32,-141.55 387.24,-134.52 376.66,-135.07 379.32,-141.55"/>
</a>
</g>
</g>
<!-- Node17 -->
<g id="Node000017" class="node">
<title>Node17</title>
<g id="a_Node000017"><a xlink:href="UniformSemantics_8ixx.html" target="_top" xlink:title="Definitions of uniform semantics used by shaders.">
<polygon fill="white" stroke="#666666" points="208,-140 74,-140 74,-110 208,-110 208,-140"/>
<text text-anchor="start" x="82" y="-128" font-family="Helvetica,sans-Serif" font-size="10.00">helios.rendering.shader.</text>
<text text-anchor="middle" x="141" y="-117" font-family="Helvetica,sans-Serif" font-size="10.00">UniformSemantics</text>
</a>
</g>
</g>
<!-- Node13&#45;&gt;Node17 -->
<g id="edge26_Node000013_Node000017" class="edge">
<title>Node13&#45;&gt;Node17</title>
<g id="a_edge26_Node000013_Node000017"><a xlink:title=" ">
<path fill="none" stroke="#63b8ff" d="M227.64,-175.95C212.03,-166.95 191.55,-155.14 174.42,-145.27"/>
<polygon fill="#63b8ff" stroke="#63b8ff" points="175.71,-141.98 165.3,-140.01 172.22,-148.04 175.71,-141.98"/>
</a>
</g>
</g>
<!-- Node16&#45;&gt;Node16 -->
<g id="edge25_Node000016_Node000016" class="edge">
<title>Node16&#45;&gt;Node16</title>
<g id="a_edge25_Node000016_Node000016"><a xlink:title=" ">
<path fill="none" stroke="#63b8ff" d="M433.85,-134.53C455.44,-138.61 478,-135.43 478,-125 478,-116.2 461.94,-112.56 443.95,-114.09"/>
<polygon fill="#63b8ff" stroke="#63b8ff" points="443.28,-110.65 433.85,-115.47 444.23,-117.58 443.28,-110.65"/>
</a>
</g>
</g>
<!-- Node18&#45;&gt;Node3 -->
<g id="edge28_Node000018_Node000003" class="edge">
<title>Node18&#45;&gt;Node3</title>
<g id="a_edge28_Node000018_Node000003"><a xlink:title=" ">
<path fill="none" stroke="#63b8ff" d="M133.15,-241.84C111.05,-217.49 65.99,-167.85 42.68,-142.18"/>
<polygon fill="#63b8ff" stroke="#63b8ff" points="45.25,-139.8 35.94,-134.75 40.07,-144.51 45.25,-139.8"/>
</a>
</g>
</g>
<!-- Node18&#45;&gt;Node13 -->
<g id="edge30_Node000018_Node000013" class="edge">
<title>Node18&#45;&gt;Node13</title>
<g id="a_edge30_Node000018_Node000013"><a xlink:title=" ">
<path fill="none" stroke="#63b8ff" d="M169.26,-241.95C184.17,-232.95 203.73,-221.14 220.09,-211.27"/>
<polygon fill="#63b8ff" stroke="#63b8ff" points="222.04,-214.18 228.79,-206.01 218.42,-208.18 222.04,-214.18"/>
</a>
</g>
</g>
<!-- Node18&#45;&gt;Node16 -->
<g id="edge31_Node000018_Node000016" class="edge">
<title>Node18&#45;&gt;Node16</title>
<g id="a_edge31_Node000018_Node000016"><a xlink:title=" ">
<path fill="none" stroke="#63b8ff" d="M228.39,-242.82C260.92,-235.25 297.69,-223.63 328,-206 356.02,-189.71 381.15,-161.18 395.48,-142.96"/>
<polygon fill="#63b8ff" stroke="#63b8ff" points="398.32,-145.01 401.61,-134.95 392.76,-140.76 398.32,-145.01"/>
</a>
</g>
</g>
<!-- Node18&#45;&gt;Node17 -->
<g id="edge29_Node000018_Node000017" class="edge">
<title>Node18&#45;&gt;Node17</title>
<g id="a_edge29_Node000018_Node000017"><a xlink:title=" ">
<path fill="none" stroke="#63b8ff" d="M145.46,-241.84C144.61,-219.86 142.97,-177.27 141.93,-150.3"/>
<polygon fill="#63b8ff" stroke="#63b8ff" points="145.43,-150 141.54,-140.14 138.43,-150.27 145.43,-150"/>
</a>
</g>
</g>
<!-- Node19&#45;&gt;Node2 -->
<g id="edge33_Node000019_Node000002" class="edge">
<title>Node19&#45;&gt;Node2</title>
<g id="a_edge33_Node000019_Node000002"><a xlink:title=" ">
<path fill="none" stroke="#63b8ff" d="M990.11,-366.61C1183.92,-354.9 1623,-321.37 1623,-258 1623,-258 1623,-258 1623,-190 1623,-94.55 1477.64,-72.25 1405.56,-67.06"/>
<polygon fill="#63b8ff" stroke="#63b8ff" points="1405.69,-63.56 1395.48,-66.41 1405.24,-70.55 1405.69,-63.56"/>
</a>
</g>
</g>
<!-- Node20 -->
<g id="Node000020" class="node">
<title>Node20</title>
<g id="a_Node000020"><a xlink:href="Mesh_8ixx.html" target="_top" xlink:title="Mesh abstraction: immutable vertex/index data and configuration.">
<polygon fill="white" stroke="#666666" points="1156,-327 998,-327 998,-308 1156,-308 1156,-327"/>
<text text-anchor="middle" x="1077" y="-315" font-family="Helvetica,sans-Serif" font-size="10.00">helios.rendering.model.Mesh</text>
</a>
</g>
</g>
<!-- Node19&#45;&gt;Node20 -->
<g id="edge34_Node000019_Node000020" class="edge">
<title>Node19&#45;&gt;Node20</title>
<g id="a_edge34_Node000019_Node000020"><a xlink:title=" ">
<path fill="none" stroke="#63b8ff" d="M928.44,-362.98C958.28,-354.05 1005.38,-339.94 1038.53,-330.02"/>
<polygon fill="#63b8ff" stroke="#63b8ff" points="1039.76,-333.3 1048.34,-327.08 1037.76,-326.6 1039.76,-333.3"/>
</a>
</g>
</g>
<!-- Node25 -->
<g id="Node000025" class="node">
<title>Node25</title>
<g id="a_Node000025"><a xlink:href="Material_8ixx.html" target="_top" xlink:title="Material abstraction: shader + material properties.">
<polygon fill="white" stroke="#666666" points="813.5,-327 640.5,-327 640.5,-308 813.5,-308 813.5,-327"/>
<text text-anchor="middle" x="727" y="-315" font-family="Helvetica,sans-Serif" font-size="10.00">helios.rendering.model.Material</text>
</a>
</g>
</g>
<!-- Node19&#45;&gt;Node25 -->
<g id="edge50_Node000019_Node000025" class="edge">
<title>Node19&#45;&gt;Node25</title>
<g id="a_edge50_Node000019_Node000025"><a xlink:title=" ">
<path fill="none" stroke="#63b8ff" d="M872.2,-362.98C843.03,-354.05 797,-339.94 764.6,-330.02"/>
<polygon fill="#63b8ff" stroke="#63b8ff" points="765.6,-326.66 755.01,-327.08 763.55,-333.36 765.6,-326.66"/>
</a>
</g>
</g>
<!-- Node20&#45;&gt;Node2 -->
<g id="edge35_Node000020_Node000002" class="edge">
<title>Node20&#45;&gt;Node2</title>
<g id="a_edge35_Node000020_Node000002"><a xlink:title=" ">
<path fill="none" stroke="#63b8ff" d="M1156.2,-315.02C1287.59,-311.73 1538.97,-301.61 1566,-272 1594.77,-240.49 1587.68,-212.75 1566,-176 1531.26,-117.11 1452.64,-87.43 1404.98,-74.32"/>
<polygon fill="#63b8ff" stroke="#63b8ff" points="1405.57,-70.86 1395.01,-71.7 1403.79,-77.63 1405.57,-70.86"/>
</a>
</g>
</g>
<!-- Node20&#45;&gt;Node4 -->
<g id="edge36_Node000020_Node000004" class="edge">
<title>Node20&#45;&gt;Node4</title>
<g id="a_edge36_Node000020_Node000004"><a xlink:title=" ">
<path fill="none" stroke="#63b8ff" d="M997.96,-308.05C936.48,-300.71 849.28,-288.65 774,-272 770.38,-271.2 766.63,-270.27 762.9,-269.27"/>
<polygon fill="#63b8ff" stroke="#63b8ff" points="763.75,-265.87 753.18,-266.52 761.85,-272.61 763.75,-265.87"/>
</a>
</g>
</g>
<!-- Node20&#45;&gt;Node5 -->
<g id="edge40_Node000020_Node000005" class="edge">
<title>Node20&#45;&gt;Node5</title>
<g id="a_edge40_Node000020_Node000005"><a xlink:title=" ">
<path fill="none" stroke="#63b8ff" d="M1064.56,-307.94C1033.95,-286.89 954.71,-232.38 916.8,-206.31"/>
<polygon fill="#63b8ff" stroke="#63b8ff" points="918.75,-203.4 908.53,-200.62 914.78,-209.17 918.75,-203.4"/>
</a>
</g>
</g>
<!-- Node20&#45;&gt;Node10 -->
<g id="edge37_Node000020_Node000010" class="edge">
<title>Node20&#45;&gt;Node10</title>
<g id="a_edge37_Node000020_Node000010"><a xlink:title=" ">
<path fill="none" stroke="#63b8ff" d="M1085.49,-307.93C1108.57,-283.97 1172.24,-213.21 1195,-140 1200.69,-121.69 1200.13,-99.61 1198.64,-84.26"/>
<polygon fill="#63b8ff" stroke="#63b8ff" points="1202.08,-83.52 1197.42,-74.01 1195.13,-84.36 1202.08,-83.52"/>
</a>
</g>
</g>
<!-- Node20&#45;&gt;Node11 -->
<g id="edge39_Node000020_Node000011" class="edge">
<title>Node20&#45;&gt;Node11</title>
<g id="a_edge39_Node000020_Node000011"><a xlink:title=" ">
<path fill="none" stroke="#63b8ff" d="M1079.23,-307.82C1086.69,-278.81 1110.88,-184.8 1121.23,-144.56"/>
<polygon fill="#63b8ff" stroke="#63b8ff" points="1124.65,-145.29 1123.75,-134.73 1117.87,-143.54 1124.65,-145.29"/>
</a>
</g>
</g>
<!-- Node20&#45;&gt;Node16 -->
<g id="edge38_Node000020_Node000016" class="edge">
<title>Node20&#45;&gt;Node16</title>
<g id="a_edge38_Node000020_Node000016"><a xlink:title=" ">
<path fill="none" stroke="#63b8ff" d="M997.87,-315.57C940.89,-312.14 863.54,-301.66 802,-272 784.14,-263.39 786.69,-250.94 769,-242 696.58,-205.38 667.37,-230.47 590,-206 531.94,-187.64 467.47,-156.59 433,-139.06"/>
<polygon fill="#63b8ff" stroke="#63b8ff" points="434.6,-135.95 424.1,-134.5 431.4,-142.18 434.6,-135.95"/>
</a>
</g>
</g>
<!-- Node21 -->
<g id="Node000021" class="node">
<title>Node21</title>
<g id="a_Node000021"><a xlink:href="Shape_8ixx.html" target="_top" xlink:title="Interface for simple geometric shapes used for testing and debugging.">
<polygon fill="white" stroke="#666666" points="1375,-272 1215,-272 1215,-242 1375,-242 1375,-272"/>
<text text-anchor="start" x="1223" y="-260" font-family="Helvetica,sans-Serif" font-size="10.00">helios.rendering.asset.shape.</text>
<text text-anchor="middle" x="1295" y="-249" font-family="Helvetica,sans-Serif" font-size="10.00">Shape</text>
</a>
</g>
</g>
<!-- Node20&#45;&gt;Node21 -->
<g id="edge41_Node000020_Node000021" class="edge">
<title>Node20&#45;&gt;Node21</title>
<g id="a_edge41_Node000020_Node000021"><a xlink:title=" ">
<path fill="none" stroke="#63b8ff" d="M1108.7,-307.99C1141.1,-299.3 1192.28,-285.57 1232.8,-274.69"/>
<polygon fill="#63b8ff" stroke="#63b8ff" points="1233.84,-278.04 1242.59,-272.06 1232.02,-271.28 1233.84,-278.04"/>
</a>
</g>
</g>
<!-- Node23 -->
<g id="Node000023" class="node">
<title>Node23</title>
<g id="a_Node000023"><a xlink:href="Vertex_8ixx.html" target="_top" xlink:title="Vertex description and utilities for rendering.">
<polygon fill="white" stroke="#666666" points="729,-200.5 599,-200.5 599,-181.5 729,-181.5 729,-200.5"/>
<text text-anchor="middle" x="664" y="-188.5" font-family="Helvetica,sans-Serif" font-size="10.00">helios.rendering.Vertex</text>
</a>
</g>
</g>
<!-- Node20&#45;&gt;Node23 -->
<g id="edge49_Node000020_Node000023" class="edge">
<title>Node20&#45;&gt;Node23</title>
<g id="a_edge49_Node000020_Node000023"><a xlink:title=" ">
<path fill="none" stroke="#63b8ff" d="M997.97,-309.35C952.24,-303.25 894.36,-292.13 846,-272 824.15,-262.91 823.07,-252.78 802,-242 770.38,-225.82 732.28,-212.44 704.14,-203.6"/>
<polygon fill="#63b8ff" stroke="#63b8ff" points="704.83,-200.15 694.25,-200.55 702.77,-206.84 704.83,-200.15"/>
</a>
</g>
</g>
<!-- Node24 -->
<g id="Node000024" class="node">
<title>Node24</title>
<g id="a_Node000024"><a xlink:href="MeshConfig_8ixx.html" target="_top" xlink:title="Mesh configuration including primitive type.">
<polygon fill="white" stroke="#666666" points="1557,-272 1393,-272 1393,-242 1557,-242 1557,-272"/>
<text text-anchor="start" x="1401" y="-260" font-family="Helvetica,sans-Serif" font-size="10.00">helios.rendering.model.config.</text>
<text text-anchor="middle" x="1475" y="-249" font-family="Helvetica,sans-Serif" font-size="10.00">MeshConfig</text>
</a>
</g>
</g>
<!-- Node20&#45;&gt;Node24 -->
<g id="edge47_Node000020_Node000024" class="edge">
<title>Node20&#45;&gt;Node24</title>
<g id="a_edge47_Node000020_Node000024"><a xlink:title=" ">
<path fill="none" stroke="#63b8ff" d="M1136.74,-308C1196.44,-299.46 1291.16,-285.83 1382.68,-272.19"/>
<polygon fill="#63b8ff" stroke="#63b8ff" points="1383.29,-275.64 1392.66,-270.7 1382.26,-268.71 1383.29,-275.64"/>
</a>
</g>
</g>
<!-- Node21&#45;&gt;Node2 -->
<g id="edge42_Node000021_Node000002" class="edge">
<title>Node21&#45;&gt;Node2</title>
<g id="a_edge42_Node000021_Node000002"><a xlink:title=" ">
<path fill="none" stroke="#63b8ff" d="M1301.13,-241.84C1310.44,-220.12 1328.5,-177.17 1342,-140 1348.87,-121.09 1355.82,-99.13 1360.46,-83.98"/>
<polygon fill="#63b8ff" stroke="#63b8ff" points="1363.85,-84.87 1363.4,-74.29 1357.15,-82.84 1363.85,-84.87"/>
</a>
</g>
</g>
<!-- Node21&#45;&gt;Node10 -->
<g id="edge43_Node000021_Node000010" class="edge">
<title>Node21&#45;&gt;Node10</title>
<g id="a_edge43_Node000021_Node000010"><a xlink:title=" ">
<path fill="none" stroke="#63b8ff" d="M1289.58,-241.87C1279.15,-215.27 1254.92,-156.29 1228,-110 1222.38,-100.34 1215.18,-90.17 1209.03,-81.99"/>
<polygon fill="#63b8ff" stroke="#63b8ff" points="1211.77,-79.82 1202.9,-74.03 1206.22,-84.09 1211.77,-79.82"/>
</a>
</g>
</g>
<!-- Node22 -->
<g id="Node000022" class="node">
<title>Node22</title>
<g id="a_Node000022"><a xlink:href="PrimitiveType_8ixx.html" target="_top" xlink:title="Enum of primitive types for mesh rendering.">
<polygon fill="white" stroke="#666666" points="1557,-206 1393,-206 1393,-176 1557,-176 1557,-206"/>
<text text-anchor="start" x="1401" y="-194" font-family="Helvetica,sans-Serif" font-size="10.00">helios.rendering.model.config.</text>
<text text-anchor="middle" x="1475" y="-183" font-family="Helvetica,sans-Serif" font-size="10.00">PrimitiveType</text>
</a>
</g>
</g>
<!-- Node21&#45;&gt;Node22 -->
<g id="edge44_Node000021_Node000022" class="edge">
<title>Node21&#45;&gt;Node22</title>
<g id="a_edge44_Node000021_Node000022"><a xlink:title=" ">
<path fill="none" stroke="#63b8ff" d="M1334.5,-241.95C1361.47,-232.37 1397.37,-219.6 1426.13,-209.37"/>
<polygon fill="#63b8ff" stroke="#63b8ff" points="1427.34,-212.66 1435.59,-206.01 1425,-206.06 1427.34,-212.66"/>
</a>
</g>
</g>
<!-- Node21&#45;&gt;Node23 -->
<g id="edge45_Node000021_Node000023" class="edge">
<title>Node21&#45;&gt;Node23</title>
<g id="a_edge45_Node000021_Node000023"><a xlink:title=" ">
<path fill="none" stroke="#63b8ff" d="M1214.76,-247.86C1092.04,-235.41 859.36,-211.81 739.52,-199.66"/>
<polygon fill="#63b8ff" stroke="#63b8ff" points="739.64,-196.15 729.34,-198.63 738.93,-203.12 739.64,-196.15"/>
</a>
</g>
</g>
<!-- Node23&#45;&gt;Node16 -->
<g id="edge46_Node000023_Node000016" class="edge">
<title>Node23&#45;&gt;Node16</title>
<g id="a_edge46_Node000023_Node000016"><a xlink:title=" ">
<path fill="none" stroke="#63b8ff" d="M629.74,-181.44C583.85,-169.96 502.39,-149.6 452.01,-137"/>
<polygon fill="#63b8ff" stroke="#63b8ff" points="452.61,-133.54 442.06,-134.51 450.91,-140.34 452.61,-133.54"/>
</a>
</g>
</g>
<!-- Node24&#45;&gt;Node22 -->
<g id="edge48_Node000024_Node000022" class="edge">
<title>Node24&#45;&gt;Node22</title>
<g id="a_edge48_Node000024_Node000022"><a xlink:title=" ">
<path fill="none" stroke="#63b8ff" d="M1475,-241.8C1475,-234.34 1475,-224.99 1475,-216.41"/>
<polygon fill="#63b8ff" stroke="#63b8ff" points="1478.5,-216.16 1475,-206.16 1471.5,-216.16 1478.5,-216.16"/>
</a>
</g>
</g>
<!-- Node25&#45;&gt;Node2 -->
<g id="edge51_Node000025_Node000002" class="edge">
<title>Node25&#45;&gt;Node2</title>
<g id="a_edge51_Node000025_Node000002"><a xlink:title=" ">
<path fill="none" stroke="#63b8ff" d="M786.7,-307.99C831.46,-300.75 893.88,-288.84 947,-272 1085.86,-227.97 1118.26,-208.16 1247,-140 1282.56,-121.17 1321.74,-95.65 1345.09,-79.89"/>
<polygon fill="#63b8ff" stroke="#63b8ff" points="1347.2,-82.69 1353.5,-74.17 1343.27,-76.9 1347.2,-82.69"/>
</a>
</g>
</g>
<!-- Node25&#45;&gt;Node4 -->
<g id="edge52_Node000025_Node000004" class="edge">
<title>Node25&#45;&gt;Node4</title>
<g id="a_edge52_Node000025_Node000004"><a xlink:title=" ">
<path fill="none" stroke="#63b8ff" d="M727,-307.87C727,-299.75 727,-287.31 727,-276.89"/>
<polygon fill="#63b8ff" stroke="#63b8ff" points="730.5,-276.67 727,-266.67 723.5,-276.67 730.5,-276.67"/>
</a>
</g>
</g>
<!-- Node25&#45;&gt;Node13 -->
<g id="edge68_Node000025_Node000013" class="edge">
<title>Node25&#45;&gt;Node13</title>
<g id="a_edge68_Node000025_Node000013"><a xlink:title=" ">
<path fill="none" stroke="#63b8ff" d="M640.48,-315.14C535.92,-312.15 367.24,-302.57 313,-272 290.2,-259.15 273.18,-233.92 263,-215.22"/>
<polygon fill="#63b8ff" stroke="#63b8ff" points="266,-213.41 258.3,-206.13 259.79,-216.62 266,-213.41"/>
</a>
</g>
</g>
<!-- Node26 -->
<g id="Node000026" class="node">
<title>Node26</title>
<g id="a_Node000026"><a xlink:href="helios_2util_2log_2__module_8ixx.html" target="_top" xlink:title="Module exports for logging.">
<polygon fill="white" stroke="#666666" points="937.5,-266.5 854.5,-266.5 854.5,-247.5 937.5,-247.5 937.5,-266.5"/>
<text text-anchor="middle" x="896" y="-254.5" font-family="Helvetica,sans-Serif" font-size="10.00">helios.util.log</text>
</a>
</g>
</g>
<!-- Node25&#45;&gt;Node26 -->
<g id="edge53_Node000025_Node000026" class="edge">
<title>Node25&#45;&gt;Node26</title>
<g id="a_edge53_Node000025_Node000026"><a xlink:title=" ">
<path fill="none" stroke="#63b8ff" d="M751.57,-307.99C780.61,-297.94 829.1,-281.16 861.8,-269.84"/>
<polygon fill="#63b8ff" stroke="#63b8ff" points="863.09,-273.1 871.4,-266.52 860.8,-266.48 863.09,-273.1"/>
</a>
</g>
</g>
<!-- Node28 -->
<g id="Node000028" class="node">
<title>Node28</title>
<g id="a_Node000028"><a xlink:href="MaterialProperties_8ixx.html" target="_top" xlink:title="Default material properties used by materials and instances.">
<polygon fill="white" stroke="#666666" points="486,-272 322,-272 322,-242 486,-242 486,-272"/>
<text text-anchor="start" x="330" y="-260" font-family="Helvetica,sans-Serif" font-size="10.00">helios.rendering.model.config.</text>
<text text-anchor="middle" x="404" y="-249" font-family="Helvetica,sans-Serif" font-size="10.00">MaterialProperties</text>
</a>
</g>
</g>
<!-- Node25&#45;&gt;Node28 -->
<g id="edge60_Node000025_Node000028" class="edge">
<title>Node25&#45;&gt;Node28</title>
<g id="a_edge60_Node000025_Node000028"><a xlink:title=" ">
<path fill="none" stroke="#63b8ff" d="M680.03,-307.99C630.73,-299.06 552.07,-284.82 491.31,-273.81"/>
<polygon fill="#63b8ff" stroke="#63b8ff" points="491.81,-270.35 481.34,-272.01 490.56,-277.23 491.81,-270.35"/>
</a>
</g>
</g>
<!-- Node29 -->
<g id="Node000029" class="node">
<title>Node29</title>
<g id="a_Node000029"><a xlink:href="Shader_8ixx.html" target="_top" xlink:title="Abstraction for a compiled shader program.">
<polygon fill="white" stroke="#666666" points="676,-272 542,-272 542,-242 676,-242 676,-272"/>
<text text-anchor="start" x="550" y="-260" font-family="Helvetica,sans-Serif" font-size="10.00">helios.rendering.shader.</text>
<text text-anchor="middle" x="609" y="-249" font-family="Helvetica,sans-Serif" font-size="10.00">Shader</text>
</a>
</g>
</g>
<!-- Node25&#45;&gt;Node29 -->
<g id="edge64_Node000025_Node000029" class="edge">
<title>Node25&#45;&gt;Node29</title>
<g id="a_edge64_Node000025_Node000029"><a xlink:title=" ">
<path fill="none" stroke="#63b8ff" d="M709.84,-307.99C693.36,-299.82 667.9,-287.2 646.69,-276.69"/>
<polygon fill="#63b8ff" stroke="#63b8ff" points="648.11,-273.48 637.6,-272.18 645,-279.76 648.11,-273.48"/>
</a>
</g>
</g>
<!-- Node26&#45;&gt;Node5 -->
<g id="edge54_Node000026_Node000005" class="edge">
<title>Node26&#45;&gt;Node5</title>
<g id="a_edge54_Node000026_Node000005"><a xlink:title=" ">
<path fill="none" stroke="#63b8ff" d="M896,-247.37C896,-238.16 896,-223.29 896,-211.27"/>
<polygon fill="#63b8ff" stroke="#63b8ff" points="899.5,-210.91 896,-200.91 892.5,-210.91 899.5,-210.91"/>
</a>
</g>
</g>
<!-- Node26&#45;&gt;Node11 -->
<g id="edge55_Node000026_Node000011" class="edge">
<title>Node26&#45;&gt;Node11</title>
<g id="a_edge55_Node000026_Node000011"><a xlink:title=" ">
<path fill="none" stroke="#63b8ff" d="M919.55,-247.34C943.26,-238.26 980.58,-222.97 1011,-206 1046.62,-186.12 1084.94,-157.95 1107.12,-140.88"/>
<polygon fill="#63b8ff" stroke="#63b8ff" points="1109.3,-143.62 1115.06,-134.72 1105.01,-138.09 1109.3,-143.62"/>
</a>
</g>
</g>
<!-- Node26&#45;&gt;Node12 -->
<g id="edge59_Node000026_Node000012" class="edge">
<title>Node26&#45;&gt;Node12</title>
<g id="a_edge59_Node000026_Node000012"><a xlink:title=" ">
<path fill="none" stroke="#63b8ff" d="M880.9,-247.41C864.23,-237.79 836.73,-221.5 814,-206 808.99,-202.58 730.35,-145.06 727,-140 715.84,-123.17 711.23,-100.22 709.33,-84.25"/>
<polygon fill="#63b8ff" stroke="#63b8ff" points="712.79,-83.68 708.37,-74.05 705.83,-84.33 712.79,-83.68"/>
</a>
</g>
</g>
<!-- Node27 -->
<g id="Node000027" class="node">
<title>Node27</title>
<g id="a_Node000027"><a xlink:href="ConsoleSink_8ixx.html" target="_top" xlink:title="Log sink that writes to stdout.">
<polygon fill="white" stroke="#666666" points="680,-134.5 534,-134.5 534,-115.5 680,-115.5 680,-134.5"/>
<text text-anchor="middle" x="607" y="-122.5" font-family="Helvetica,sans-Serif" font-size="10.00">helios.util.log.ConsoleSink</text>
</a>
</g>
</g>
<!-- Node26&#45;&gt;Node27 -->
<g id="edge56_Node000026_Node000027" class="edge">
<title>Node26&#45;&gt;Node27</title>
<g id="a_edge56_Node000026_Node000027"><a xlink:title=" ">
<path fill="none" stroke="#63b8ff" d="M872.44,-247.35C848.73,-238.28 811.41,-222.99 781,-206 760.66,-194.63 758.59,-186.9 738,-176 707.95,-160.09 671.7,-146.66 644.96,-137.74"/>
<polygon fill="#63b8ff" stroke="#63b8ff" points="645.8,-134.33 635.21,-134.54 643.62,-140.98 645.8,-134.33"/>
</a>
</g>
</g>
<!-- Node27&#45;&gt;Node6 -->
<g id="edge57_Node000027_Node000006" class="edge">
<title>Node27&#45;&gt;Node6</title>
<g id="a_edge57_Node000027_Node000006"><a xlink:title=" ">
<path fill="none" stroke="#63b8ff" d="M610.42,-115.37C615.72,-102.18 626.42,-76.29 637,-55 641.48,-45.97 646.92,-36.18 651.57,-28.09"/>
<polygon fill="#63b8ff" stroke="#63b8ff" points="654.73,-29.62 656.75,-19.22 648.69,-26.09 654.73,-29.62"/>
</a>
</g>
</g>
<!-- Node27&#45;&gt;Node12 -->
<g id="edge58_Node000027_Node000012" class="edge">
<title>Node27&#45;&gt;Node12</title>
<g id="a_edge58_Node000027_Node000012"><a xlink:title=" ">
<path fill="none" stroke="#63b8ff" d="M621.9,-115.37C638.31,-105.86 664.93,-90.45 684.23,-79.27"/>
<polygon fill="#63b8ff" stroke="#63b8ff" points="686.14,-82.21 693.04,-74.17 682.63,-76.15 686.14,-82.21"/>
</a>
</g>
</g>
<!-- Node28&#45;&gt;Node13 -->
<g id="edge62_Node000028_Node000013" class="edge">
<title>Node28&#45;&gt;Node13</title>
<g id="a_edge62_Node000028_Node000013"><a xlink:title=" ">
<path fill="none" stroke="#63b8ff" d="M370.64,-241.95C348.27,-232.53 318.61,-220.04 294.54,-209.91"/>
<polygon fill="#63b8ff" stroke="#63b8ff" points="295.85,-206.67 285.28,-206.01 293.14,-213.12 295.85,-206.67"/>
</a>
</g>
</g>
<!-- Node28&#45;&gt;Node16 -->
<g id="edge63_Node000028_Node000016" class="edge">
<title>Node28&#45;&gt;Node16</title>
<g id="a_edge63_Node000028_Node000016"><a xlink:title=" ">
<path fill="none" stroke="#63b8ff" d="M404.44,-241.84C405.16,-218.34 406.61,-171.26 407.42,-144.93"/>
<polygon fill="#63b8ff" stroke="#63b8ff" points="410.92,-144.85 407.73,-134.75 403.92,-144.64 410.92,-144.85"/>
</a>
</g>
</g>
<!-- Node28&#45;&gt;Node17 -->
<g id="edge61_Node000028_Node000017" class="edge">
<title>Node28&#45;&gt;Node17</title>
<g id="a_edge61_Node000028_Node000017"><a xlink:title=" ">
<path fill="none" stroke="#63b8ff" d="M394.42,-241.88C381.47,-223.87 356.66,-193.03 328,-176 309.17,-164.81 261.04,-152.05 218.32,-142.23"/>
<polygon fill="#63b8ff" stroke="#63b8ff" points="218.98,-138.79 208.45,-139.99 217.43,-145.61 218.98,-138.79"/>
</a>
</g>
</g>
<!-- Node29&#45;&gt;Node5 -->
<g id="edge67_Node000029_Node000005" class="edge">
<title>Node29&#45;&gt;Node5</title>
<g id="a_edge67_Node000029_Node000005"><a xlink:title=" ">
<path fill="none" stroke="#63b8ff" d="M671.98,-241.95C724.98,-230.14 799.63,-213.49 847.92,-202.72"/>
<polygon fill="#63b8ff" stroke="#63b8ff" points="848.81,-206.11 857.81,-200.52 847.28,-199.28 848.81,-206.11"/>
</a>
</g>
</g>
<!-- Node29&#45;&gt;Node11 -->
<g id="edge66_Node000029_Node000011" class="edge">
<title>Node29&#45;&gt;Node11</title>
<g id="a_edge66_Node000029_Node000011"><a xlink:title=" ">
<path fill="none" stroke="#63b8ff" d="M676.15,-243.56C679.48,-243.01 682.78,-242.49 686,-242 815.27,-222.3 859.16,-260.54 978,-206 996.01,-197.73 994.35,-186.76 1011,-176 1035.79,-159.97 1066.6,-146.89 1090.08,-138.13"/>
<polygon fill="#63b8ff" stroke="#63b8ff" points="1091.45,-141.36 1099.66,-134.65 1089.06,-134.78 1091.45,-141.36"/>
</a>
</g>
</g>
<!-- Node29&#45;&gt;Node13 -->
<g id="edge65_Node000029_Node000013" class="edge">
<title>Node29&#45;&gt;Node13</title>
<g id="a_edge65_Node000029_Node000013"><a xlink:title=" ">
<path fill="none" stroke="#63b8ff" d="M541.85,-243.96C481.36,-233.12 392.47,-217.18 329.09,-205.82"/>
<polygon fill="#63b8ff" stroke="#63b8ff" points="329.61,-202.36 319.15,-204.04 328.38,-209.25 329.61,-202.36"/>
</a>
</g>
</g>
</g>
</svg>
