<?xml version="1.0" encoding="UTF-8" standalone="no"?>
<!DOCTYPE svg PUBLIC "-//W3C//DTD SVG 1.1//EN"
 "http://www.w3.org/Graphics/SVG/1.1/DTD/svg11.dtd">
<!-- Generated by graphviz version 2.43.0 (0)
 -->
<!-- Title: include/helios/rendering/RenderCommand.ixx Pages: 1 -->
<!--zoomable 467 -->

<svg id="main" version="1.1" xmlns="http://www.w3.org/2000/svg" xmlns:xlink="http://www.w3.org/1999/xlink" xml:space="preserve" onload="init(evt)">

<style type="text/css"><![CDATA[
.node, .edge {opacity: 0.7;}
.node.selected, .edge.selected {opacity: 1;}
.edge:hover path { stroke: red; }
.edge:hover polygon { stroke: red; fill: red; }
]]></style>

<defs>
  <circle id="rim" cx="0" cy="0" r="7"/>
  <circle id="rim2" cx="0" cy="0" r="3.5"/>
  <g id="zoomPlus">
    <use xlink:href="#rim" fill="#404040"><set attributeName="fill" to="#808080" begin="zoomplus.mouseover" end="zoomplus.mouseout"/></use>
    <path d="M-4,0h8M0,-4v8" fill="none" stroke="white" stroke-width="1.5" pointer-events="none"/>
  </g>
  <g id="zoomMin">
    <use xlink:href="#rim" fill="#404040"><set attributeName="fill" to="#808080" begin="zoomminus.mouseover" end="zoomminus.mouseout"/></use>
    <path d="M-4,0h8" fill="none" stroke="white" stroke-width="1.5" pointer-events="none"/>
  </g>
  <g id="arrowUp" transform="translate(30 24)">
    <use xlink:href="#rim"/>
    <path pointer-events="none" fill="none" stroke="white" stroke-width="1.5" d="M0,-3.0v7 M-2.5,-0.5L0,-3.0L2.5,-0.5"/>
  </g>
  <g id="arrowRight" transform="rotate(90) translate(36 -43)">
    <use xlink:href="#rim"/>
    <path pointer-events="none" fill="none" stroke="white" stroke-width="1.5" d="M0,-3.0v7 M-2.5,-0.5L0,-3.0L2.5,-0.5"/>
  </g>
  <g id="arrowDown" transform="rotate(180) translate(-30 -48)">
    <use xlink:href="#rim"/>
    <path pointer-events="none" fill="none" stroke="white" stroke-width="1.5" d="M0,-3.0v7 M-2.5,-0.5L0,-3.0L2.5,-0.5"/>
  </g>
  <g id="arrowLeft" transform="rotate(270) translate(-36 17)">
    <use xlink:href="#rim"/>
    <path pointer-events="none" fill="none" stroke="white" stroke-width="1.5" d="M0,-3.0v7 M-2.5,-0.5L0,-3.0L2.5,-0.5"/>
  </g>
  <g id="resetDef">
    <use xlink:href="#rim2" fill="#404040"><set attributeName="fill" to="#808080" begin="reset.mouseover" end="reset.mouseout"/></use>
  </g>
</defs>
<script type="application/ecmascript">
var viewWidth = 1765;
var viewHeight = 467;
var sectionId = 'dynsection-0';
</script>
<script type="application/ecmascript" xlink:href="svg.min.js"/>
<svg id="graph" class="graph">
<g id="viewport">
<title>include/helios/rendering/RenderCommand.ixx</title>
<!-- Node1 -->
<g id="Node000001" class="node">
<title>Node1</title>
<g id="a_Node000001"><a xlink:title="Representation of a low&#45;level render command.">
<polygon fill="#999999" stroke="#666666" points="1274,-459 1140,-459 1140,-429 1274,-429 1274,-459"/>
<text text-anchor="start" x="1148" y="-447" font-family="Helvetica,sans-Serif" font-size="10.00">include/helios/rendering</text>
<text text-anchor="middle" x="1207" y="-436" font-family="Helvetica,sans-Serif" font-size="10.00">/RenderCommand.ixx</text>
</a>
</g>
</g>
<!-- Node2 -->
<g id="Node000002" class="node">
<title>Node2</title>
<g id="a_Node000002"><a xlink:title=" ">
<polygon fill="#e0e0e0" stroke="#999999" points="1672,-79.5 1614,-79.5 1614,-60.5 1672,-60.5 1672,-79.5"/>
<text text-anchor="middle" x="1643" y="-67.5" font-family="Helvetica,sans-Serif" font-size="10.00">memory</text>
</a>
</g>
</g>
<!-- Node1&#45;&gt;Node2 -->
<g id="edge1_Node000001_Node000002" class="edge">
<title>Node1&#45;&gt;Node2</title>
<g id="a_edge1_Node000001_Node000002"><a xlink:title=" ">
<path fill="none" stroke="#63b8ff" d="M1274.17,-443.08C1420.89,-441.45 1757,-427.06 1757,-329.5 1757,-329.5 1757,-329.5 1757,-201 1757,-147.49 1701.74,-105.48 1668.16,-84.89"/>
<polygon fill="#63b8ff" stroke="#63b8ff" points="1669.72,-81.74 1659.33,-79.66 1666.15,-87.76 1669.72,-81.74"/>
</a>
</g>
</g>
<!-- Node3 -->
<g id="Node000003" class="node">
<title>Node3</title>
<g id="a_Node000003"><a xlink:href="UniformValueMap_8ixx.html" target="_top" xlink:title="Mapping of uniform names to values used by shader programs.">
<polygon fill="white" stroke="#666666" points="154,-151 20,-151 20,-121 154,-121 154,-151"/>
<text text-anchor="start" x="28" y="-139" font-family="Helvetica,sans-Serif" font-size="10.00">helios.rendering.shader.</text>
<text text-anchor="middle" x="87" y="-128" font-family="Helvetica,sans-Serif" font-size="10.00">UniformValueMap</text>
</a>
</g>
</g>
<!-- Node1&#45;&gt;Node3 -->
<g id="edge2_Node000001_Node000003" class="edge">
<title>Node1&#45;&gt;Node3</title>
<g id="a_edge2_Node000001_Node000003"><a xlink:title=" ">
<path fill="none" stroke="#63b8ff" d="M1139.8,-440.21C886.67,-429.25 5,-386.95 5,-329.5 5,-329.5 5,-329.5 5,-267 5,-223.18 38.75,-182.08 62.94,-158.25"/>
<polygon fill="#63b8ff" stroke="#63b8ff" points="65.58,-160.57 70.41,-151.13 60.75,-155.5 65.58,-160.57"/>
</a>
</g>
</g>
<!-- Node9 -->
<g id="Node000009" class="node">
<title>Node9</title>
<g id="a_Node000009"><a xlink:href="RenderPrototype_8ixx.html" target="_top" xlink:title="An immutable, shared prototype of a renderable object.">
<polygon fill="white" stroke="#666666" points="1297,-393 1117,-393 1117,-374 1297,-374 1297,-393"/>
<text text-anchor="middle" x="1207" y="-381" font-family="Helvetica,sans-Serif" font-size="10.00">helios.rendering.RenderPrototype</text>
</a>
</g>
</g>
<!-- Node1&#45;&gt;Node9 -->
<g id="edge9_Node000001_Node000009" class="edge">
<title>Node1&#45;&gt;Node9</title>
<g id="a_edge9_Node000001_Node000009"><a xlink:title=" ">
<path fill="none" stroke="#63b8ff" d="M1207,-428.84C1207,-421.21 1207,-411.7 1207,-403.45"/>
<polygon fill="#63b8ff" stroke="#63b8ff" points="1210.5,-403.27 1207,-393.27 1203.5,-403.27 1210.5,-403.27"/>
</a>
</g>
</g>
<!-- Node4 -->
<g id="Node000004" class="node">
<title>Node4</title>
<g id="a_Node000004"><a xlink:title=" ">
<polygon fill="#e0e0e0" stroke="#999999" points="42,-79.5 0,-79.5 0,-60.5 42,-60.5 42,-79.5"/>
<text text-anchor="middle" x="21" y="-67.5" font-family="Helvetica,sans-Serif" font-size="10.00">array</text>
</a>
</g>
</g>
<!-- Node3&#45;&gt;Node4 -->
<g id="edge3_Node000003_Node000004" class="edge">
<title>Node3&#45;&gt;Node4</title>
<g id="a_edge3_Node000003_Node000004"><a xlink:title=" ">
<path fill="none" stroke="#63b8ff" d="M72.35,-120.8C62.06,-110.82 48.28,-97.46 37.59,-87.09"/>
<polygon fill="#63b8ff" stroke="#63b8ff" points="39.74,-84.29 30.12,-79.84 34.86,-89.32 39.74,-84.29"/>
</a>
</g>
</g>
<!-- Node5 -->
<g id="Node000005" class="node">
<title>Node5</title>
<g id="a_Node000005"><a xlink:title=" ">
<polygon fill="#e0e0e0" stroke="#999999" points="186,-79.5 130,-79.5 130,-60.5 186,-60.5 186,-79.5"/>
<text text-anchor="middle" x="158" y="-67.5" font-family="Helvetica,sans-Serif" font-size="10.00">optional</text>
</a>
</g>
</g>
<!-- Node3&#45;&gt;Node5 -->
<g id="edge4_Node000003_Node000005" class="edge">
<title>Node3&#45;&gt;Node5</title>
<g id="a_edge4_Node000003_Node000005"><a xlink:title=" ">
<path fill="none" stroke="#63b8ff" d="M102.76,-120.8C113.93,-110.72 128.94,-97.19 140.49,-86.78"/>
<polygon fill="#63b8ff" stroke="#63b8ff" points="143.1,-89.14 148.19,-79.84 138.42,-83.94 143.1,-89.14"/>
</a>
</g>
</g>
<!-- Node6 -->
<g id="Node000006" class="node">
<title>Node6</title>
<g id="a_Node000006"><a xlink:title=" ">
<polygon fill="#e0e0e0" stroke="#999999" points="111.5,-79.5 60.5,-79.5 60.5,-60.5 111.5,-60.5 111.5,-79.5"/>
<text text-anchor="middle" x="86" y="-67.5" font-family="Helvetica,sans-Serif" font-size="10.00">variant</text>
</a>
</g>
</g>
<!-- Node3&#45;&gt;Node6 -->
<g id="edge5_Node000003_Node000006" class="edge">
<title>Node3&#45;&gt;Node6</title>
<g id="a_edge5_Node000003_Node000006"><a xlink:title=" ">
<path fill="none" stroke="#63b8ff" d="M86.78,-120.8C86.64,-111.7 86.45,-99.79 86.3,-89.9"/>
<polygon fill="#63b8ff" stroke="#63b8ff" points="89.79,-89.79 86.14,-79.84 82.79,-89.9 89.79,-89.79"/>
</a>
</g>
</g>
<!-- Node7 -->
<g id="Node000007" class="node">
<title>Node7</title>
<g id="a_Node000007"><a xlink:href="helios_2math_2types_2__module_8ixx.html" target="_top" xlink:title="Module exports for vector and matrix type definitions.">
<polygon fill="white" stroke="#666666" points="460,-79.5 356,-79.5 356,-60.5 460,-60.5 460,-79.5"/>
<text text-anchor="middle" x="408" y="-67.5" font-family="Helvetica,sans-Serif" font-size="10.00">helios.math.types</text>
</a>
</g>
</g>
<!-- Node3&#45;&gt;Node7 -->
<g id="edge6_Node000003_Node000007" class="edge">
<title>Node3&#45;&gt;Node7</title>
<g id="a_edge6_Node000003_Node000007"><a xlink:title=" ">
<path fill="none" stroke="#63b8ff" d="M154.2,-122.76C206.77,-113.01 281.67,-98.77 347,-85 351.8,-83.99 356.8,-82.9 361.78,-81.79"/>
<polygon fill="#63b8ff" stroke="#63b8ff" points="362.94,-85.12 371.92,-79.5 361.4,-78.29 362.94,-85.12"/>
</a>
</g>
</g>
<!-- Node8 -->
<g id="Node000008" class="node">
<title>Node8</title>
<g id="a_Node000008"><a xlink:href="UniformSemantics_8ixx.html" target="_top" xlink:title="Definitions of uniform semantics used by shaders.">
<polygon fill="white" stroke="#666666" points="338,-85 204,-85 204,-55 338,-55 338,-85"/>
<text text-anchor="start" x="212" y="-73" font-family="Helvetica,sans-Serif" font-size="10.00">helios.rendering.shader.</text>
<text text-anchor="middle" x="271" y="-62" font-family="Helvetica,sans-Serif" font-size="10.00">UniformSemantics</text>
</a>
</g>
</g>
<!-- Node3&#45;&gt;Node8 -->
<g id="edge8_Node000003_Node000008" class="edge">
<title>Node3&#45;&gt;Node8</title>
<g id="a_edge8_Node000003_Node000008"><a xlink:title=" ">
<path fill="none" stroke="#63b8ff" d="M127.38,-120.95C154.94,-111.37 191.64,-98.6 221.05,-88.37"/>
<polygon fill="#63b8ff" stroke="#63b8ff" points="222.42,-91.6 230.71,-85.01 220.12,-84.99 222.42,-91.6"/>
</a>
</g>
</g>
<!-- Node7&#45;&gt;Node7 -->
<g id="edge7_Node000007_Node000007" class="edge">
<title>Node7&#45;&gt;Node7</title>
<g id="a_edge7_Node000007_Node000007"><a xlink:title=" ">
<path fill="none" stroke="#63b8ff" d="M433.85,-79.53C455.44,-83.61 478,-80.43 478,-70 478,-61.2 461.94,-57.56 443.95,-59.09"/>
<polygon fill="#63b8ff" stroke="#63b8ff" points="443.28,-55.65 433.85,-60.47 444.23,-62.58 443.28,-55.65"/>
</a>
</g>
</g>
<!-- Node9&#45;&gt;Node2 -->
<g id="edge10_Node000009_Node000002" class="edge">
<title>Node9&#45;&gt;Node2</title>
<g id="a_edge10_Node000009_Node000002"><a xlink:title=" ">
<path fill="none" stroke="#63b8ff" d="M1297.06,-380.81C1443.98,-375.59 1719,-354.41 1719,-269 1719,-269 1719,-269 1719,-201 1719,-154.46 1682.25,-109.79 1659.86,-86.89"/>
<polygon fill="#63b8ff" stroke="#63b8ff" points="1662.2,-84.27 1652.63,-79.73 1657.27,-89.25 1662.2,-84.27"/>
</a>
</g>
</g>
<!-- Node10 -->
<g id="Node000010" class="node">
<title>Node10</title>
<g id="a_Node000010"><a xlink:href="Mesh_8ixx.html" target="_top" xlink:title="Mesh abstraction: immutable vertex/index data and configuration.">
<polygon fill="white" stroke="#666666" points="1286,-277.5 1128,-277.5 1128,-258.5 1286,-258.5 1286,-277.5"/>
<text text-anchor="middle" x="1207" y="-265.5" font-family="Helvetica,sans-Serif" font-size="10.00">helios.rendering.model.Mesh</text>
</a>
</g>
</g>
<!-- Node9&#45;&gt;Node10 -->
<g id="edge11_Node000009_Node000010" class="edge">
<title>Node9&#45;&gt;Node10</title>
<g id="a_edge11_Node000009_Node000010"><a xlink:title=" ">
<path fill="none" stroke="#63b8ff" d="M1207,-373.97C1207,-355.73 1207,-312.57 1207,-287.64"/>
<polygon fill="#63b8ff" stroke="#63b8ff" points="1210.5,-287.63 1207,-277.63 1203.5,-287.63 1210.5,-287.63"/>
</a>
</g>
</g>
<!-- Node24 -->
<g id="Node000024" class="node">
<title>Node24</title>
<g id="a_Node000024"><a xlink:href="Material_8ixx.html" target="_top" xlink:title="Material abstraction: shader + material properties.">
<polygon fill="white" stroke="#666666" points="1061.5,-338 888.5,-338 888.5,-319 1061.5,-319 1061.5,-338"/>
<text text-anchor="middle" x="975" y="-326" font-family="Helvetica,sans-Serif" font-size="10.00">helios.rendering.model.Material</text>
</a>
</g>
</g>
<!-- Node9&#45;&gt;Node24 -->
<g id="edge41_Node000009_Node000024" class="edge">
<title>Node9&#45;&gt;Node24</title>
<g id="a_edge41_Node000009_Node000024"><a xlink:title=" ">
<path fill="none" stroke="#63b8ff" d="M1169.73,-373.98C1129.68,-364.84 1065.93,-350.27 1022.36,-340.32"/>
<polygon fill="#63b8ff" stroke="#63b8ff" points="1023.1,-336.9 1012.57,-338.08 1021.54,-343.72 1023.1,-336.9"/>
</a>
</g>
</g>
<!-- Node10&#45;&gt;Node2 -->
<g id="edge12_Node000010_Node000002" class="edge">
<title>Node10&#45;&gt;Node2</title>
<g id="a_edge12_Node000010_Node000002"><a xlink:title=" ">
<path fill="none" stroke="#63b8ff" d="M1286.42,-262.67C1400.71,-255.68 1600.49,-240.28 1624,-217 1657.97,-183.37 1652.45,-120.95 1647,-89.76"/>
<polygon fill="#63b8ff" stroke="#63b8ff" points="1650.41,-88.94 1645.08,-79.79 1643.54,-90.27 1650.41,-88.94"/>
</a>
</g>
</g>
<!-- Node10&#45;&gt;Node7 -->
<g id="edge15_Node000010_Node000007" class="edge">
<title>Node10&#45;&gt;Node7</title>
<g id="a_edge15_Node000010_Node000007"><a xlink:title=" ">
<path fill="none" stroke="#63b8ff" d="M1127.69,-259.88C941.12,-242.48 486.18,-195.88 434,-151 416.21,-135.7 410.51,-108.1 408.73,-89.66"/>
<polygon fill="#63b8ff" stroke="#63b8ff" points="412.21,-89.3 408.06,-79.55 405.23,-89.76 412.21,-89.3"/>
</a>
</g>
</g>
<!-- Node11 -->
<g id="Node000011" class="node">
<title>Node11</title>
<g id="a_Node000011"><a xlink:title=" ">
<polygon fill="#e0e0e0" stroke="#999999" points="1178.5,-211.5 1113.5,-211.5 1113.5,-192.5 1178.5,-192.5 1178.5,-211.5"/>
<text text-anchor="middle" x="1146" y="-199.5" font-family="Helvetica,sans-Serif" font-size="10.00">stdexcept</text>
</a>
</g>
</g>
<!-- Node10&#45;&gt;Node11 -->
<g id="edge13_Node000010_Node000011" class="edge">
<title>Node10&#45;&gt;Node11</title>
<g id="a_edge13_Node000010_Node000011"><a xlink:title=" ">
<path fill="none" stroke="#63b8ff" d="M1198.77,-258.37C1189.28,-248.4 1173.44,-231.79 1161.59,-219.36"/>
<polygon fill="#63b8ff" stroke="#63b8ff" points="1163.92,-216.73 1154.49,-211.91 1158.85,-221.56 1163.92,-216.73"/>
</a>
</g>
</g>
<!-- Node12 -->
<g id="Node000012" class="node">
<title>Node12</title>
<g id="a_Node000012"><a xlink:title=" ">
<polygon fill="#e0e0e0" stroke="#999999" points="1314.5,-79.5 1267.5,-79.5 1267.5,-60.5 1314.5,-60.5 1314.5,-79.5"/>
<text text-anchor="middle" x="1291" y="-67.5" font-family="Helvetica,sans-Serif" font-size="10.00">vector</text>
</a>
</g>
</g>
<!-- Node10&#45;&gt;Node12 -->
<g id="edge14_Node000010_Node000012" class="edge">
<title>Node10&#45;&gt;Node12</title>
<g id="a_edge14_Node000010_Node000012"><a xlink:title=" ">
<path fill="none" stroke="#63b8ff" d="M1213.31,-258.11C1223.8,-243.33 1245.51,-212.77 1264,-187 1275.5,-170.96 1283.81,-169.74 1290,-151 1296.65,-130.85 1295.72,-106.27 1293.89,-89.71"/>
<polygon fill="#63b8ff" stroke="#63b8ff" points="1297.35,-89.14 1292.56,-79.69 1290.41,-90.06 1297.35,-89.14"/>
</a>
</g>
</g>
<!-- Node13 -->
<g id="Node000013" class="node">
<title>Node13</title>
<g id="a_Node000013"><a xlink:href="Logger_8ixx.html" target="_top" xlink:title="Simple synchronous logger with configurable output sinks.">
<polygon fill="white" stroke="#666666" points="1280.5,-145.5 1161.5,-145.5 1161.5,-126.5 1280.5,-126.5 1280.5,-145.5"/>
<text text-anchor="middle" x="1221" y="-133.5" font-family="Helvetica,sans-Serif" font-size="10.00">helios.util.log.Logger</text>
</a>
</g>
</g>
<!-- Node10&#45;&gt;Node13 -->
<g id="edge16_Node000010_Node000013" class="edge">
<title>Node10&#45;&gt;Node13</title>
<g id="a_edge16_Node000010_Node000013"><a xlink:title=" ">
<path fill="none" stroke="#63b8ff" d="M1207.92,-258.47C1210.14,-237.82 1215.86,-184.72 1218.95,-156.04"/>
<polygon fill="#63b8ff" stroke="#63b8ff" points="1222.47,-156.05 1220.06,-145.73 1215.51,-155.3 1222.47,-156.05"/>
</a>
</g>
</g>
<!-- Node17 -->
<g id="Node000017" class="node">
<title>Node17</title>
<g id="a_Node000017"><a xlink:href="LogManager_8ixx.html" target="_top" xlink:title="Central manager for scoped loggers with configurable sinks.">
<polygon fill="white" stroke="#666666" points="1019,-211.5 873,-211.5 873,-192.5 1019,-192.5 1019,-211.5"/>
<text text-anchor="middle" x="946" y="-199.5" font-family="Helvetica,sans-Serif" font-size="10.00">helios.util.log.LogManager</text>
</a>
</g>
</g>
<!-- Node10&#45;&gt;Node17 -->
<g id="edge23_Node000010_Node000017" class="edge">
<title>Node10&#45;&gt;Node17</title>
<g id="a_edge23_Node000010_Node000017"><a xlink:title=" ">
<path fill="none" stroke="#63b8ff" d="M1172.07,-258.44C1125.19,-246.94 1041.88,-226.51 990.54,-213.92"/>
<polygon fill="#63b8ff" stroke="#63b8ff" points="991.27,-210.5 980.72,-211.51 989.6,-217.3 991.27,-210.5"/>
</a>
</g>
</g>
<!-- Node20 -->
<g id="Node000020" class="node">
<title>Node20</title>
<g id="a_Node000020"><a xlink:href="Shape_8ixx.html" target="_top" xlink:title="Interface for simple geometric shapes used for testing and debugging.">
<polygon fill="white" stroke="#666666" points="1433,-217 1273,-217 1273,-187 1433,-187 1433,-217"/>
<text text-anchor="start" x="1281" y="-205" font-family="Helvetica,sans-Serif" font-size="10.00">helios.rendering.asset.shape.</text>
<text text-anchor="middle" x="1353" y="-194" font-family="Helvetica,sans-Serif" font-size="10.00">Shape</text>
</a>
</g>
</g>
<!-- Node10&#45;&gt;Node20 -->
<g id="edge32_Node000010_Node000020" class="edge">
<title>Node10&#45;&gt;Node20</title>
<g id="a_edge32_Node000010_Node000020"><a xlink:title=" ">
<path fill="none" stroke="#63b8ff" d="M1226.69,-258.37C1248.27,-248.91 1283.53,-233.45 1311.32,-221.27"/>
<polygon fill="#63b8ff" stroke="#63b8ff" points="1313.05,-224.34 1320.8,-217.12 1310.23,-217.92 1313.05,-224.34"/>
</a>
</g>
</g>
<!-- Node22 -->
<g id="Node000022" class="node">
<title>Node22</title>
<g id="a_Node000022"><a xlink:href="Vertex_8ixx.html" target="_top" xlink:title="Vertex description and utilities for rendering.">
<polygon fill="white" stroke="#666666" points="879,-145.5 749,-145.5 749,-126.5 879,-126.5 879,-145.5"/>
<text text-anchor="middle" x="814" y="-133.5" font-family="Helvetica,sans-Serif" font-size="10.00">helios.rendering.Vertex</text>
</a>
</g>
</g>
<!-- Node10&#45;&gt;Node22 -->
<g id="edge40_Node000010_Node000022" class="edge">
<title>Node10&#45;&gt;Node22</title>
<g id="a_edge40_Node000010_Node000022"><a xlink:title=" ">
<path fill="none" stroke="#63b8ff" d="M1127.86,-259C1033.48,-248.91 885.7,-231.17 864,-217 841.66,-202.41 827.5,-173.99 820.16,-155.25"/>
<polygon fill="#63b8ff" stroke="#63b8ff" points="823.41,-153.94 816.7,-145.75 816.83,-156.34 823.41,-153.94"/>
</a>
</g>
</g>
<!-- Node23 -->
<g id="Node000023" class="node">
<title>Node23</title>
<g id="a_Node000023"><a xlink:href="MeshConfig_8ixx.html" target="_top" xlink:title="Mesh configuration including primitive type.">
<polygon fill="white" stroke="#666666" points="1615,-217 1451,-217 1451,-187 1615,-187 1615,-217"/>
<text text-anchor="start" x="1459" y="-205" font-family="Helvetica,sans-Serif" font-size="10.00">helios.rendering.model.config.</text>
<text text-anchor="middle" x="1533" y="-194" font-family="Helvetica,sans-Serif" font-size="10.00">MeshConfig</text>
</a>
</g>
</g>
<!-- Node10&#45;&gt;Node23 -->
<g id="edge38_Node000010_Node000023" class="edge">
<title>Node10&#45;&gt;Node23</title>
<g id="a_edge38_Node000010_Node000023"><a xlink:title=" ">
<path fill="none" stroke="#63b8ff" d="M1250.63,-258.44C1301.85,-248.38 1387.87,-231.49 1451.54,-218.99"/>
<polygon fill="#63b8ff" stroke="#63b8ff" points="1452.42,-222.39 1461.56,-217.02 1451.07,-215.52 1452.42,-222.39"/>
</a>
</g>
</g>
<!-- Node13&#45;&gt;Node2 -->
<g id="edge19_Node000013_Node000002" class="edge">
<title>Node13&#45;&gt;Node2</title>
<g id="a_edge19_Node000013_Node000002"><a xlink:title=" ">
<path fill="none" stroke="#63b8ff" d="M1277.47,-126.44C1364.46,-113.24 1528.99,-88.29 1603.98,-76.92"/>
<polygon fill="#63b8ff" stroke="#63b8ff" points="1604.59,-80.36 1613.95,-75.4 1603.54,-73.44 1604.59,-80.36"/>
</a>
</g>
</g>
<!-- Node13&#45;&gt;Node12 -->
<g id="edge18_Node000013_Node000012" class="edge">
<title>Node13&#45;&gt;Node12</title>
<g id="a_edge18_Node000013_Node000012"><a xlink:title=" ">
<path fill="none" stroke="#63b8ff" d="M1230.44,-126.37C1241.55,-116.21 1260.2,-99.16 1273.88,-86.65"/>
<polygon fill="#63b8ff" stroke="#63b8ff" points="1276.24,-89.24 1281.26,-79.91 1271.52,-84.07 1276.24,-89.24"/>
</a>
</g>
</g>
<!-- Node14 -->
<g id="Node000014" class="node">
<title>Node14</title>
<g id="a_Node000014"><a xlink:title=" ">
<polygon fill="#e0e0e0" stroke="#999999" points="1004,-19 960,-19 960,0 1004,0 1004,-19"/>
<text text-anchor="middle" x="982" y="-7" font-family="Helvetica,sans-Serif" font-size="10.00">string</text>
</a>
</g>
</g>
<!-- Node13&#45;&gt;Node14 -->
<g id="edge17_Node000013_Node000014" class="edge">
<title>Node13&#45;&gt;Node14</title>
<g id="a_edge17_Node000013_Node000014"><a xlink:title=" ">
<path fill="none" stroke="#63b8ff" d="M1216.66,-126.49C1207.8,-110 1186,-73.69 1157,-55 1112.87,-26.56 1051.59,-16.28 1014.48,-12.58"/>
<polygon fill="#63b8ff" stroke="#63b8ff" points="1014.51,-9.07 1004.24,-11.66 1013.88,-16.04 1014.51,-9.07"/>
</a>
</g>
</g>
<!-- Node15 -->
<g id="Node000015" class="node">
<title>Node15</title>
<g id="a_Node000015"><a xlink:title=" ">
<polygon fill="#e0e0e0" stroke="#999999" points="1148,-79.5 1100,-79.5 1100,-60.5 1148,-60.5 1148,-79.5"/>
<text text-anchor="middle" x="1124" y="-67.5" font-family="Helvetica,sans-Serif" font-size="10.00">mutex</text>
</a>
</g>
</g>
<!-- Node13&#45;&gt;Node15 -->
<g id="edge20_Node000013_Node000015" class="edge">
<title>Node13&#45;&gt;Node15</title>
<g id="a_edge20_Node000013_Node000015"><a xlink:title=" ">
<path fill="none" stroke="#63b8ff" d="M1207.92,-126.37C1191.94,-115.82 1164.67,-97.84 1145.57,-85.23"/>
<polygon fill="#63b8ff" stroke="#63b8ff" points="1147.46,-82.28 1137.18,-79.7 1143.6,-88.13 1147.46,-82.28"/>
</a>
</g>
</g>
<!-- Node16 -->
<g id="Node000016" class="node">
<title>Node16</title>
<g id="a_Node000016"><a xlink:href="LogSink_8ixx.html" target="_top" xlink:title="Abstract interface for log output destinations.">
<polygon fill="white" stroke="#666666" points="969,-79.5 845,-79.5 845,-60.5 969,-60.5 969,-79.5"/>
<text text-anchor="middle" x="907" y="-67.5" font-family="Helvetica,sans-Serif" font-size="10.00">helios.util.log.LogSink</text>
</a>
</g>
</g>
<!-- Node13&#45;&gt;Node16 -->
<g id="edge21_Node000013_Node000016" class="edge">
<title>Node13&#45;&gt;Node16</title>
<g id="a_edge21_Node000013_Node000016"><a xlink:title=" ">
<path fill="none" stroke="#63b8ff" d="M1178.98,-126.44C1121.99,-114.82 1020.26,-94.09 958.67,-81.53"/>
<polygon fill="#63b8ff" stroke="#63b8ff" points="959.27,-78.08 948.77,-79.51 957.87,-84.94 959.27,-78.08"/>
</a>
</g>
</g>
<!-- Node16&#45;&gt;Node14 -->
<g id="edge22_Node000016_Node000014" class="edge">
<title>Node16&#45;&gt;Node14</title>
<g id="a_edge22_Node000016_Node000014"><a xlink:title=" ">
<path fill="none" stroke="#63b8ff" d="M918.07,-60.37C929.81,-51.21 948.59,-36.56 962.76,-25.51"/>
<polygon fill="#63b8ff" stroke="#63b8ff" points="965.16,-28.08 970.89,-19.17 960.85,-22.56 965.16,-28.08"/>
</a>
</g>
</g>
<!-- Node17&#45;&gt;Node2 -->
<g id="edge27_Node000017_Node000002" class="edge">
<title>Node17&#45;&gt;Node2</title>
<g id="a_edge27_Node000017_Node000002"><a xlink:title=" ">
<path fill="none" stroke="#63b8ff" d="M1019.27,-193.03C1089.24,-184.78 1197.41,-170.39 1290,-151 1339.18,-140.7 1350.14,-132.72 1399,-121 1470.89,-103.76 1555.57,-87.25 1603.91,-78.18"/>
<polygon fill="#63b8ff" stroke="#63b8ff" points="1604.75,-81.58 1613.94,-76.31 1603.47,-74.7 1604.75,-81.58"/>
</a>
</g>
</g>
<!-- Node17&#45;&gt;Node12 -->
<g id="edge29_Node000017_Node000012" class="edge">
<title>Node17&#45;&gt;Node12</title>
<g id="a_edge29_Node000017_Node000012"><a xlink:title=" ">
<path fill="none" stroke="#63b8ff" d="M977.47,-192.46C1008.65,-183.59 1057.47,-168.55 1098,-151 1123.55,-139.94 1127.62,-132.44 1153,-121 1187.76,-105.33 1229.03,-90.9 1257.32,-81.61"/>
<polygon fill="#63b8ff" stroke="#63b8ff" points="1258.7,-84.84 1267.13,-78.43 1256.53,-78.19 1258.7,-84.84"/>
</a>
</g>
</g>
<!-- Node17&#45;&gt;Node13 -->
<g id="edge30_Node000017_Node000013" class="edge">
<title>Node17&#45;&gt;Node13</title>
<g id="a_edge30_Node000017_Node000013"><a xlink:title=" ">
<path fill="none" stroke="#63b8ff" d="M982.8,-192.44C1032.3,-180.92 1120.34,-160.43 1174.4,-147.84"/>
<polygon fill="#63b8ff" stroke="#63b8ff" points="1175.47,-151.19 1184.42,-145.51 1173.88,-144.37 1175.47,-151.19"/>
</a>
</g>
</g>
<!-- Node17&#45;&gt;Node14 -->
<g id="edge24_Node000017_Node000014" class="edge">
<title>Node17&#45;&gt;Node14</title>
<g id="a_edge24_Node000017_Node000014"><a xlink:title=" ">
<path fill="none" stroke="#63b8ff" d="M979.36,-192.35C1000.19,-185.03 1025.36,-172.25 1038,-151 1063.06,-108.87 1021.79,-53.47 997.6,-26.56"/>
<polygon fill="#63b8ff" stroke="#63b8ff" points="1000.11,-24.11 990.74,-19.16 994.98,-28.87 1000.11,-24.11"/>
</a>
</g>
</g>
<!-- Node17&#45;&gt;Node15 -->
<g id="edge28_Node000017_Node000015" class="edge">
<title>Node17&#45;&gt;Node15</title>
<g id="a_edge28_Node000017_Node000015"><a xlink:title=" ">
<path fill="none" stroke="#63b8ff" d="M983.25,-192.47C1009.86,-184.95 1045.35,-171.88 1071,-151 1091.84,-134.04 1107.45,-106.71 1116.16,-88.8"/>
<polygon fill="#63b8ff" stroke="#63b8ff" points="1119.34,-90.26 1120.37,-79.71 1112.99,-87.31 1119.34,-90.26"/>
</a>
</g>
</g>
<!-- Node17&#45;&gt;Node16 -->
<g id="edge31_Node000017_Node000016" class="edge">
<title>Node17&#45;&gt;Node16</title>
<g id="a_edge31_Node000017_Node000016"><a xlink:title=" ">
<path fill="none" stroke="#63b8ff" d="M942.32,-192.26C938.23,-182.37 931.62,-165.71 927,-151 920.52,-130.36 914.72,-106.21 911.06,-89.88"/>
<polygon fill="#63b8ff" stroke="#63b8ff" points="914.45,-88.99 908.88,-79.97 907.61,-90.49 914.45,-88.99"/>
</a>
</g>
</g>
<!-- Node18 -->
<g id="Node000018" class="node">
<title>Node18</title>
<g id="a_Node000018"><a xlink:title=" ">
<polygon fill="#e0e0e0" stroke="#999999" points="1028.5,-145.5 935.5,-145.5 935.5,-126.5 1028.5,-126.5 1028.5,-145.5"/>
<text text-anchor="middle" x="982" y="-133.5" font-family="Helvetica,sans-Serif" font-size="10.00">unordered_map</text>
</a>
</g>
</g>
<!-- Node17&#45;&gt;Node18 -->
<g id="edge25_Node000017_Node000018" class="edge">
<title>Node17&#45;&gt;Node18</title>
<g id="a_edge25_Node000017_Node000018"><a xlink:title=" ">
<path fill="none" stroke="#63b8ff" d="M950.86,-192.37C956.25,-182.78 965.1,-167.05 971.99,-154.8"/>
<polygon fill="#63b8ff" stroke="#63b8ff" points="975.14,-156.34 976.99,-145.91 969.04,-152.91 975.14,-156.34"/>
</a>
</g>
</g>
<!-- Node19 -->
<g id="Node000019" class="node">
<title>Node19</title>
<g id="a_Node000019"><a xlink:title=" ">
<polygon fill="#e0e0e0" stroke="#999999" points="731,-145.5 645,-145.5 645,-126.5 731,-126.5 731,-145.5"/>
<text text-anchor="middle" x="688" y="-133.5" font-family="Helvetica,sans-Serif" font-size="10.00">unordered_set</text>
</a>
</g>
</g>
<!-- Node17&#45;&gt;Node19 -->
<g id="edge26_Node000017_Node000019" class="edge">
<title>Node17&#45;&gt;Node19</title>
<g id="a_edge26_Node000017_Node000019"><a xlink:title=" ">
<path fill="none" stroke="#63b8ff" d="M909.46,-192.42C868.23,-182.67 799.18,-166.15 740,-151 736.44,-150.09 732.75,-149.13 729.04,-148.15"/>
<polygon fill="#63b8ff" stroke="#63b8ff" points="729.88,-144.75 719.31,-145.57 728.08,-151.52 729.88,-144.75"/>
</a>
</g>
</g>
<!-- Node20&#45;&gt;Node2 -->
<g id="edge33_Node000020_Node000002" class="edge">
<title>Node20&#45;&gt;Node2</title>
<g id="a_edge33_Node000020_Node000002"><a xlink:title=" ">
<path fill="none" stroke="#63b8ff" d="M1364.72,-186.85C1380.43,-168.82 1410.07,-137.95 1442,-121 1493.97,-93.41 1561.63,-80.66 1603.68,-75.06"/>
<polygon fill="#63b8ff" stroke="#63b8ff" points="1604.31,-78.5 1613.79,-73.78 1603.44,-71.56 1604.31,-78.5"/>
</a>
</g>
</g>
<!-- Node20&#45;&gt;Node12 -->
<g id="edge34_Node000020_Node000012" class="edge">
<title>Node20&#45;&gt;Node12</title>
<g id="a_edge34_Node000020_Node000012"><a xlink:title=" ">
<path fill="none" stroke="#63b8ff" d="M1348.66,-186.75C1343.48,-170.45 1334.09,-143.15 1323,-121 1317.26,-109.53 1309.53,-97.39 1303.11,-87.94"/>
<polygon fill="#63b8ff" stroke="#63b8ff" points="1305.83,-85.73 1297.25,-79.52 1300.09,-89.73 1305.83,-85.73"/>
</a>
</g>
</g>
<!-- Node21 -->
<g id="Node000021" class="node">
<title>Node21</title>
<g id="a_Node000021"><a xlink:href="PrimitiveType_8ixx.html" target="_top" xlink:title="Enum of primitive types for mesh rendering.">
<polygon fill="white" stroke="#666666" points="1615,-151 1451,-151 1451,-121 1615,-121 1615,-151"/>
<text text-anchor="start" x="1459" y="-139" font-family="Helvetica,sans-Serif" font-size="10.00">helios.rendering.model.config.</text>
<text text-anchor="middle" x="1533" y="-128" font-family="Helvetica,sans-Serif" font-size="10.00">PrimitiveType</text>
</a>
</g>
</g>
<!-- Node20&#45;&gt;Node21 -->
<g id="edge35_Node000020_Node000021" class="edge">
<title>Node20&#45;&gt;Node21</title>
<g id="a_edge35_Node000020_Node000021"><a xlink:title=" ">
<path fill="none" stroke="#63b8ff" d="M1392.5,-186.95C1419.47,-177.37 1455.37,-164.6 1484.13,-154.37"/>
<polygon fill="#63b8ff" stroke="#63b8ff" points="1485.34,-157.66 1493.59,-151.01 1483,-151.06 1485.34,-157.66"/>
</a>
</g>
</g>
<!-- Node20&#45;&gt;Node22 -->
<g id="edge36_Node000020_Node000022" class="edge">
<title>Node20&#45;&gt;Node22</title>
<g id="a_edge36_Node000020_Node000022"><a xlink:title=" ">
<path fill="none" stroke="#63b8ff" d="M1272.9,-191.75C1187.26,-181.83 1047.51,-165.54 927,-151 914.77,-149.52 901.79,-147.94 889.16,-146.38"/>
<polygon fill="#63b8ff" stroke="#63b8ff" points="889.48,-142.89 879.12,-145.14 888.62,-149.84 889.48,-142.89"/>
</a>
</g>
</g>
<!-- Node22&#45;&gt;Node7 -->
<g id="edge37_Node000022_Node000007" class="edge">
<title>Node22&#45;&gt;Node7</title>
<g id="a_edge37_Node000022_Node000007"><a xlink:title=" ">
<path fill="none" stroke="#63b8ff" d="M770.22,-126.44C760.3,-124.57 749.8,-122.66 740,-121 646.12,-105.06 536.86,-89.1 470.08,-79.64"/>
<polygon fill="#63b8ff" stroke="#63b8ff" points="470.53,-76.17 460.14,-78.24 469.55,-83.1 470.53,-76.17"/>
</a>
</g>
</g>
<!-- Node23&#45;&gt;Node21 -->
<g id="edge39_Node000023_Node000021" class="edge">
<title>Node23&#45;&gt;Node21</title>
<g id="a_edge39_Node000023_Node000021"><a xlink:title=" ">
<path fill="none" stroke="#63b8ff" d="M1533,-186.8C1533,-179.34 1533,-169.99 1533,-161.41"/>
<polygon fill="#63b8ff" stroke="#63b8ff" points="1536.5,-161.16 1533,-151.16 1529.5,-161.16 1536.5,-161.16"/>
</a>
</g>
</g>
<!-- Node24&#45;&gt;Node2 -->
<g id="edge42_Node000024_Node000002" class="edge">
<title>Node24&#45;&gt;Node2</title>
<g id="a_edge42_Node000024_Node000002"><a xlink:title=" ">
<path fill="none" stroke="#63b8ff" d="M1061.7,-324.75C1223.41,-317.83 1562.27,-294.26 1646,-217 1677.9,-187.56 1672.57,-163.56 1664,-121 1661.73,-109.75 1656.86,-97.87 1652.38,-88.52"/>
<polygon fill="#63b8ff" stroke="#63b8ff" points="1655.46,-86.85 1647.82,-79.51 1649.22,-90.02 1655.46,-86.85"/>
</a>
</g>
</g>
<!-- Node24&#45;&gt;Node3 -->
<g id="edge64_Node000024_Node000003" class="edge">
<title>Node24&#45;&gt;Node3</title>
<g id="a_edge64_Node000024_Node000003"><a xlink:title=" ">
<path fill="none" stroke="#63b8ff" d="M888.45,-325.72C722.97,-321.74 367.52,-310.23 248,-283 172.2,-265.73 129.38,-281.52 86,-217 75.02,-200.68 76.5,-177.93 80.01,-160.87"/>
<polygon fill="#63b8ff" stroke="#63b8ff" points="83.42,-161.62 82.36,-151.08 76.62,-159.99 83.42,-161.62"/>
</a>
</g>
</g>
<!-- Node24&#45;&gt;Node11 -->
<g id="edge43_Node000024_Node000011" class="edge">
<title>Node24&#45;&gt;Node11</title>
<g id="a_edge43_Node000024_Node000011"><a xlink:title=" ">
<path fill="none" stroke="#63b8ff" d="M991.51,-318.89C1007.25,-310.45 1031.39,-296.85 1051,-283 1079.87,-262.62 1110.71,-235.54 1129.17,-218.7"/>
<polygon fill="#63b8ff" stroke="#63b8ff" points="1131.74,-221.09 1136.73,-211.74 1127,-215.94 1131.74,-221.09"/>
</a>
</g>
</g>
<!-- Node25 -->
<g id="Node000025" class="node">
<title>Node25</title>
<g id="a_Node000025"><a xlink:href="helios_2util_2log_2__module_8ixx.html" target="_top" xlink:title="Module exports for logging.">
<polygon fill="white" stroke="#666666" points="889.5,-277.5 806.5,-277.5 806.5,-258.5 889.5,-258.5 889.5,-277.5"/>
<text text-anchor="middle" x="848" y="-265.5" font-family="Helvetica,sans-Serif" font-size="10.00">helios.util.log</text>
</a>
</g>
</g>
<!-- Node24&#45;&gt;Node25 -->
<g id="edge44_Node000024_Node000025" class="edge">
<title>Node24&#45;&gt;Node25</title>
<g id="a_edge44_Node000024_Node000025"><a xlink:title=" ">
<path fill="none" stroke="#63b8ff" d="M956.53,-318.99C935.28,-309.2 900.15,-293.02 875.63,-281.73"/>
<polygon fill="#63b8ff" stroke="#63b8ff" points="877.04,-278.52 866.49,-277.52 874.11,-284.88 877.04,-278.52"/>
</a>
</g>
</g>
<!-- Node27 -->
<g id="Node000027" class="node">
<title>Node27</title>
<g id="a_Node000027"><a xlink:href="MaterialProperties_8ixx.html" target="_top" xlink:title="Default material properties used by materials and instances.">
<polygon fill="white" stroke="#666666" points="421,-283 257,-283 257,-253 421,-253 421,-283"/>
<text text-anchor="start" x="265" y="-271" font-family="Helvetica,sans-Serif" font-size="10.00">helios.rendering.model.config.</text>
<text text-anchor="middle" x="339" y="-260" font-family="Helvetica,sans-Serif" font-size="10.00">MaterialProperties</text>
</a>
</g>
</g>
<!-- Node24&#45;&gt;Node27 -->
<g id="edge51_Node000024_Node000027" class="edge">
<title>Node24&#45;&gt;Node27</title>
<g id="a_edge51_Node000024_Node000027"><a xlink:title=" ">
<path fill="none" stroke="#63b8ff" d="M888.23,-319.52C768.55,-308.51 553.73,-288.75 431.23,-277.48"/>
<polygon fill="#63b8ff" stroke="#63b8ff" points="431.4,-273.98 421.12,-276.55 430.75,-280.95 431.4,-273.98"/>
</a>
</g>
</g>
<!-- Node29 -->
<g id="Node000029" class="node">
<title>Node29</title>
<g id="a_Node000029"><a xlink:href="Shader_8ixx.html" target="_top" xlink:title="Abstraction for a compiled shader program.">
<polygon fill="white" stroke="#666666" points="1042,-283 908,-283 908,-253 1042,-253 1042,-283"/>
<text text-anchor="start" x="916" y="-271" font-family="Helvetica,sans-Serif" font-size="10.00">helios.rendering.shader.</text>
<text text-anchor="middle" x="975" y="-260" font-family="Helvetica,sans-Serif" font-size="10.00">Shader</text>
</a>
</g>
</g>
<!-- Node24&#45;&gt;Node29 -->
<g id="edge60_Node000024_Node000029" class="edge">
<title>Node24&#45;&gt;Node29</title>
<g id="a_edge60_Node000024_Node000029"><a xlink:title=" ">
<path fill="none" stroke="#63b8ff" d="M975,-318.87C975,-312.11 975,-302.35 975,-293.26"/>
<polygon fill="#63b8ff" stroke="#63b8ff" points="978.5,-293.11 975,-283.11 971.5,-293.11 978.5,-293.11"/>
</a>
</g>
</g>
<!-- Node25&#45;&gt;Node13 -->
<g id="edge46_Node000025_Node000013" class="edge">
<title>Node25&#45;&gt;Node13</title>
<g id="a_edge46_Node000025_Node000013"><a xlink:title=" ">
<path fill="none" stroke="#63b8ff" d="M879,-258.49C930.04,-244.45 1026.33,-217.92 1028,-217 1045.35,-207.42 1043.8,-196.85 1061,-187 1093.58,-168.33 1133.97,-155.78 1166.01,-147.92"/>
<polygon fill="#63b8ff" stroke="#63b8ff" points="1167.18,-151.24 1176.1,-145.53 1165.57,-144.43 1167.18,-151.24"/>
</a>
</g>
</g>
<!-- Node25&#45;&gt;Node16 -->
<g id="edge50_Node000025_Node000016" class="edge">
<title>Node25&#45;&gt;Node16</title>
<g id="a_edge50_Node000025_Node000016"><a xlink:title=" ">
<path fill="none" stroke="#63b8ff" d="M811.85,-258.46C737.57,-239.28 579.32,-189.09 636,-121 648.71,-105.74 758.94,-89.24 834.84,-79.53"/>
<polygon fill="#63b8ff" stroke="#63b8ff" points="835.36,-82.99 844.84,-78.26 834.48,-76.05 835.36,-82.99"/>
</a>
</g>
</g>
<!-- Node25&#45;&gt;Node17 -->
<g id="edge45_Node000025_Node000017" class="edge">
<title>Node25&#45;&gt;Node17</title>
<g id="a_edge45_Node000025_Node000017"><a xlink:title=" ">
<path fill="none" stroke="#63b8ff" d="M861.22,-258.37C877.36,-247.82 904.91,-229.84 924.21,-217.23"/>
<polygon fill="#63b8ff" stroke="#63b8ff" points="926.22,-220.1 932.68,-211.7 922.39,-214.24 926.22,-220.1"/>
</a>
</g>
</g>
<!-- Node26 -->
<g id="Node000026" class="node">
<title>Node26</title>
<g id="a_Node000026"><a xlink:href="ConsoleSink_8ixx.html" target="_top" xlink:title="Log sink that writes to stdout.">
<polygon fill="white" stroke="#666666" points="589,-145.5 443,-145.5 443,-126.5 589,-126.5 589,-145.5"/>
<text text-anchor="middle" x="516" y="-133.5" font-family="Helvetica,sans-Serif" font-size="10.00">helios.util.log.ConsoleSink</text>
</a>
</g>
</g>
<!-- Node25&#45;&gt;Node26 -->
<g id="edge47_Node000025_Node000026" class="edge">
<title>Node25&#45;&gt;Node26</title>
<g id="a_edge47_Node000025_Node000026"><a xlink:title=" ">
<path fill="none" stroke="#63b8ff" d="M806.32,-265.26C755.7,-261.68 668.91,-250.68 603,-217 572.4,-201.36 544.6,-171.95 529.04,-153.47"/>
<polygon fill="#63b8ff" stroke="#63b8ff" points="531.65,-151.13 522.6,-145.62 526.23,-155.57 531.65,-151.13"/>
</a>
</g>
</g>
<!-- Node26&#45;&gt;Node14 -->
<g id="edge48_Node000026_Node000014" class="edge">
<title>Node26&#45;&gt;Node14</title>
<g id="a_edge48_Node000026_Node000014"><a xlink:title=" ">
<path fill="none" stroke="#63b8ff" d="M548.03,-126.44C633.21,-103.69 864.61,-41.86 949.88,-19.08"/>
<polygon fill="#63b8ff" stroke="#63b8ff" points="951.01,-22.4 959.77,-16.44 949.21,-15.64 951.01,-22.4"/>
</a>
</g>
</g>
<!-- Node26&#45;&gt;Node16 -->
<g id="edge49_Node000026_Node000016" class="edge">
<title>Node26&#45;&gt;Node16</title>
<g id="a_edge49_Node000026_Node000016"><a xlink:title=" ">
<path fill="none" stroke="#63b8ff" d="M568.33,-126.44C640.02,-114.7 768.58,-93.66 845.01,-81.15"/>
<polygon fill="#63b8ff" stroke="#63b8ff" points="845.68,-84.58 854.98,-79.51 844.55,-77.68 845.68,-84.58"/>
</a>
</g>
</g>
<!-- Node27&#45;&gt;Node3 -->
<g id="edge53_Node000027_Node000003" class="edge">
<title>Node27&#45;&gt;Node3</title>
<g id="a_edge53_Node000027_Node000003"><a xlink:title=" ">
<path fill="none" stroke="#63b8ff" d="M256.94,-258.86C198.39,-251.36 126.37,-238.14 105,-217 90.42,-202.57 86.55,-179.04 85.95,-161.23"/>
<polygon fill="#63b8ff" stroke="#63b8ff" points="89.45,-161 85.94,-151 82.45,-161.01 89.45,-161"/>
</a>
</g>
</g>
<!-- Node27&#45;&gt;Node7 -->
<g id="edge54_Node000027_Node000007" class="edge">
<title>Node27&#45;&gt;Node7</title>
<g id="a_edge54_Node000027_Node000007"><a xlink:title=" ">
<path fill="none" stroke="#63b8ff" d="M343.96,-252.9C356.22,-218.08 387.93,-128.02 401.59,-89.22"/>
<polygon fill="#63b8ff" stroke="#63b8ff" points="404.91,-90.32 404.93,-79.73 398.31,-88 404.91,-90.32"/>
</a>
</g>
</g>
<!-- Node27&#45;&gt;Node8 -->
<g id="edge52_Node000027_Node000008" class="edge">
<title>Node27&#45;&gt;Node8</title>
<g id="a_edge52_Node000027_Node000008"><a xlink:title=" ">
<path fill="none" stroke="#63b8ff" d="M336.4,-252.93C333.24,-236.8 327.42,-209.66 320,-187 309.27,-154.24 293.17,-117.83 282.39,-94.7"/>
<polygon fill="#63b8ff" stroke="#63b8ff" points="285.41,-92.91 277.98,-85.35 279.08,-95.89 285.41,-92.91"/>
</a>
</g>
</g>
<!-- Node28 -->
<g id="Node000028" class="node">
<title>Node28</title>
<g id="a_Node000028"><a xlink:href="MaterialPropertiesOverride_8ixx.html" target="_top" xlink:title="Overrides for material properties to customize rendering parameters.">
<polygon fill="white" stroke="#666666" points="311,-217 147,-217 147,-187 311,-187 311,-217"/>
<text text-anchor="start" x="155" y="-205" font-family="Helvetica,sans-Serif" font-size="10.00">helios.rendering.model.config.</text>
<text text-anchor="middle" x="229" y="-194" font-family="Helvetica,sans-Serif" font-size="10.00">MaterialPropertiesOverride</text>
</a>
</g>
</g>
<!-- Node27&#45;&gt;Node28 -->
<g id="edge55_Node000027_Node000028" class="edge">
<title>Node27&#45;&gt;Node28</title>
<g id="a_edge55_Node000027_Node000028"><a xlink:title=" ">
<path fill="none" stroke="#63b8ff" d="M314.86,-252.95C299.39,-243.95 279.09,-232.14 262.12,-222.27"/>
<polygon fill="#63b8ff" stroke="#63b8ff" points="263.49,-219.02 253.08,-217.01 259.97,-225.07 263.49,-219.02"/>
</a>
</g>
</g>
<!-- Node28&#45;&gt;Node3 -->
<g id="edge58_Node000028_Node000003" class="edge">
<title>Node28&#45;&gt;Node3</title>
<g id="a_edge58_Node000028_Node000003"><a xlink:title=" ">
<path fill="none" stroke="#63b8ff" d="M197.84,-186.95C177.12,-177.62 149.71,-165.27 127.34,-155.18"/>
<polygon fill="#63b8ff" stroke="#63b8ff" points="128.64,-151.93 118.09,-151.01 125.77,-158.31 128.64,-151.93"/>
</a>
</g>
</g>
<!-- Node28&#45;&gt;Node5 -->
<g id="edge56_Node000028_Node000005" class="edge">
<title>Node28&#45;&gt;Node5</title>
<g id="a_edge56_Node000028_Node000005"><a xlink:title=" ">
<path fill="none" stroke="#63b8ff" d="M221.27,-186.84C208.2,-162.92 181.79,-114.56 167.58,-88.53"/>
<polygon fill="#63b8ff" stroke="#63b8ff" points="170.64,-86.85 162.78,-79.75 164.5,-90.2 170.64,-86.85"/>
</a>
</g>
</g>
<!-- Node28&#45;&gt;Node7 -->
<g id="edge59_Node000028_Node000007" class="edge">
<title>Node28&#45;&gt;Node7</title>
<g id="a_edge59_Node000028_Node000007"><a xlink:title=" ">
<path fill="none" stroke="#63b8ff" d="M248.5,-186.84C282.6,-162.07 352.75,-111.12 387.53,-85.87"/>
<polygon fill="#63b8ff" stroke="#63b8ff" points="389.92,-88.46 395.95,-79.75 385.81,-82.79 389.92,-88.46"/>
</a>
</g>
</g>
<!-- Node28&#45;&gt;Node8 -->
<g id="edge57_Node000028_Node000008" class="edge">
<title>Node28&#45;&gt;Node8</title>
<g id="a_edge57_Node000028_Node000008"><a xlink:title=" ">
<path fill="none" stroke="#63b8ff" d="M233.57,-186.84C240.71,-164.76 254.56,-121.89 263.26,-94.94"/>
<polygon fill="#63b8ff" stroke="#63b8ff" points="266.69,-95.73 266.43,-85.14 260.03,-93.58 266.69,-95.73"/>
</a>
</g>
</g>
<!-- Node29&#45;&gt;Node3 -->
<g id="edge61_Node000029_Node000003" class="edge">
<title>Node29&#45;&gt;Node3</title>
<g id="a_edge61_Node000029_Node000003"><a xlink:title=" ">
<path fill="none" stroke="#63b8ff" d="M907.94,-254.14C904.92,-253.72 901.93,-253.34 899,-253 814.91,-243.31 211.24,-259.45 138,-217 116.74,-204.68 102.94,-179.55 95.12,-160.72"/>
<polygon fill="#63b8ff" stroke="#63b8ff" points="98.35,-159.36 91.48,-151.3 91.82,-161.89 98.35,-159.36"/>
</a>
</g>
</g>
<!-- Node29&#45;&gt;Node13 -->
<g id="edge62_Node000029_Node000013" class="edge">
<title>Node29&#45;&gt;Node13</title>
<g id="a_edge62_Node000029_Node000013"><a xlink:title=" ">
<path fill="none" stroke="#63b8ff" d="M1000.5,-252.81C1017.76,-243.05 1040.99,-229.62 1061,-217 1081.02,-204.38 1084.26,-198.4 1105,-187 1132.07,-172.12 1164.48,-158.47 1188.15,-149.21"/>
<polygon fill="#63b8ff" stroke="#63b8ff" points="1189.64,-152.38 1197.71,-145.52 1187.13,-145.85 1189.64,-152.38"/>
</a>
</g>
</g>
<!-- Node29&#45;&gt;Node17 -->
<g id="edge63_Node000029_Node000017" class="edge">
<title>Node29&#45;&gt;Node17</title>
<g id="a_edge63_Node000029_Node000017"><a xlink:title=" ">
<path fill="none" stroke="#63b8ff" d="M968.56,-252.8C964.35,-243.5 958.81,-231.27 954.27,-221.26"/>
<polygon fill="#63b8ff" stroke="#63b8ff" points="957.32,-219.51 950.01,-211.84 950.95,-222.4 957.32,-219.51"/>
</a>
</g>
</g>
</g>
</svg>

<g id="navigator" transform="translate(0 0)" fill="#404254">
  <rect fill="#f2f5e9" fill-opacity="0.5" stroke="#606060" stroke-width=".5" x="0" y="0" width="60" height="60"/>
  <use id="zoomplus" xlink:href="#zoomPlus" x="17" y="9" onmousedown="handleZoom(evt,'in')"/>
  <use id="zoomminus" xlink:href="#zoomMin" x="42" y="9" onmousedown="handleZoom(evt,'out')"/>
  <use id="reset" xlink:href="#resetDef" x="30" y="36" onmousedown="handleReset()"/>
   <use id="arrowup" xlink:href="#arrowUp" x="0" y="0" onmousedown="handlePan(0,-1)"/>
  <use id="arrowright" xlink:href="#arrowRight" x="0" y="0" onmousedown="handlePan(1,0)"/>
  <use id="arrowdown" xlink:href="#arrowDown" x="0" y="0" onmousedown="handlePan(0,1)"/>
  <use id="arrowleft" xlink:href="#arrowLeft" x="0" y="0" onmousedown="handlePan(-1,0)"/>
</g>
<svg viewBox="0 0 15 15" width="100%" height="30px" preserveAspectRatio="xMaxYMin meet">
 <g id="arrow_out" transform="scale(0.3 0.3)">
  <a xlink:href="RenderCommand_8ixx__incl_org.svg" target="_base">
   <rect id="button" ry="5" rx="5" y="6" x="6" height="38" width="38"
        fill="#f2f5e9" fill-opacity="0.5" stroke="#606060" stroke-width="1.0"/>
   <path id="arrow"
     d="M 11.500037,31.436501 C 11.940474,20.09759 22.043105,11.32322 32.158766,21.979434 L 37.068811,17.246167 C 37.068811,17.246167 37.088388,32 37.088388,32 L 22.160133,31.978069 C 22.160133,31.978069 26.997745,27.140456 26.997745,27.140456 C 18.528582,18.264221 13.291696,25.230495 11.500037,31.436501 z"
     style="fill:#404040;"/>
  </a>
 </g>
</svg>

<style type='text/css'>
<![CDATA[
[data-mouse-over-selected='false'] { opacity: 0.7; }
[data-mouse-over-selected='true']  { opacity: 1.0; }
]]>
</style>
<script type="application/ecmascript"><![CDATA[
document.addEventListener('DOMContentLoaded', (event) => {
  highlightEdges();
  highlightAdjacentNodes();
});
]]></script>
</svg>
