<?xml version="1.0" encoding="UTF-8" standalone="no"?>
<!DOCTYPE svg PUBLIC "-//W3C//DTD SVG 1.1//EN"
 "http://www.w3.org/Graphics/SVG/1.1/DTD/svg11.dtd">
<!-- Generated by graphviz version 2.43.0 (0)
 -->
<!-- Title: include/helios/rendering/asset/shape/basic/_module.ixx Pages: 1 -->
<!--zoomable 293 -->

<svg id="main" version="1.1" xmlns="http://www.w3.org/2000/svg" xmlns:xlink="http://www.w3.org/1999/xlink" xml:space="preserve" onload="init(evt)">

<style type="text/css"><![CDATA[
.node, .edge {opacity: 0.7;}
.node.selected, .edge.selected {opacity: 1;}
.edge:hover path { stroke: red; }
.edge:hover polygon { stroke: red; fill: red; }
]]></style>

<defs>
  <circle id="rim" cx="0" cy="0" r="7"/>
  <circle id="rim2" cx="0" cy="0" r="3.5"/>
  <g id="zoomPlus">
    <use xlink:href="#rim" fill="#404040"><set attributeName="fill" to="#808080" begin="zoomplus.mouseover" end="zoomplus.mouseout"/></use>
    <path d="M-4,0h8M0,-4v8" fill="none" stroke="white" stroke-width="1.5" pointer-events="none"/>
  </g>
  <g id="zoomMin">
    <use xlink:href="#rim" fill="#404040"><set attributeName="fill" to="#808080" begin="zoomminus.mouseover" end="zoomminus.mouseout"/></use>
    <path d="M-4,0h8" fill="none" stroke="white" stroke-width="1.5" pointer-events="none"/>
  </g>
  <g id="arrowUp" transform="translate(30 24)">
    <use xlink:href="#rim"/>
    <path pointer-events="none" fill="none" stroke="white" stroke-width="1.5" d="M0,-3.0v7 M-2.5,-0.5L0,-3.0L2.5,-0.5"/>
  </g>
  <g id="arrowRight" transform="rotate(90) translate(36 -43)">
    <use xlink:href="#rim"/>
    <path pointer-events="none" fill="none" stroke="white" stroke-width="1.5" d="M0,-3.0v7 M-2.5,-0.5L0,-3.0L2.5,-0.5"/>
  </g>
  <g id="arrowDown" transform="rotate(180) translate(-30 -48)">
    <use xlink:href="#rim"/>
    <path pointer-events="none" fill="none" stroke="white" stroke-width="1.5" d="M0,-3.0v7 M-2.5,-0.5L0,-3.0L2.5,-0.5"/>
  </g>
  <g id="arrowLeft" transform="rotate(270) translate(-36 17)">
    <use xlink:href="#rim"/>
    <path pointer-events="none" fill="none" stroke="white" stroke-width="1.5" d="M0,-3.0v7 M-2.5,-0.5L0,-3.0L2.5,-0.5"/>
  </g>
  <g id="resetDef">
    <use xlink:href="#rim2" fill="#404040"><set attributeName="fill" to="#808080" begin="reset.mouseover" end="reset.mouseout"/></use>
  </g>
</defs>
<script type="application/ecmascript">
var viewWidth = 574;
var viewHeight = 293;
var sectionId = 'dynsection-0';
</script>
<script type="application/ecmascript" xlink:href="svg.min.js"/>
<svg id="graph" class="graph">
<g id="viewport">
<title>include/helios/rendering/asset/shape/basic/_module.ixx</title>
<!-- Node1 -->
<g id="Node000001" class="node">
<title>Node1</title>
<g id="a_Node000001"><a xlink:title=" ">
<polygon fill="#999999" stroke="#666666" points="401,-285.17 231,-285.17 231,-255.17 401,-255.17 401,-285.17"/>
<text text-anchor="start" x="239" y="-273.17" font-family="Helvetica,sans-Serif" font-size="10.00">include/helios/rendering</text>
<text text-anchor="middle" x="316" y="-262.17" font-family="Helvetica,sans-Serif" font-size="10.00">/asset/shape/basic/_module.ixx</text>
</a>
</g>
</g>
<!-- Node2 -->
<g id="Node000002" class="node">
<title>Node2</title>
<g id="a_Node000002"><a xlink:href="Circle_8ixx.html" target="_top" xlink:title=" ">
<polygon fill="white" stroke="#666666" points="520,-219.17 332,-219.17 332,-189.17 520,-189.17 520,-219.17"/>
<text text-anchor="start" x="340" y="-207.17" font-family="Helvetica,sans-Serif" font-size="10.00">helios.rendering.asset.shape.basic.</text>
<text text-anchor="middle" x="426" y="-196.17" font-family="Helvetica,sans-Serif" font-size="10.00">Circle</text>
</a>
</g>
</g>
<!-- Node1&#45;&gt;Node2 -->
<g id="edge1_Node000001_Node000002" class="edge">
<title>Node1&#45;&gt;Node2</title>
<g id="a_edge1_Node000001_Node000002"><a xlink:title=" ">
<path fill="none" stroke="#63b8ff" d="M340.14,-255.13C355.61,-246.13 375.91,-234.32 392.88,-224.44"/>
<polygon fill="#63b8ff" stroke="#63b8ff" points="395.03,-227.24 401.92,-219.19 391.51,-221.19 395.03,-227.24"/>
</a>
</g>
</g>
<!-- Node11 -->
<g id="Node000011" class="node">
<title>Node11</title>
<g id="a_Node000011"><a xlink:href="Cube_8ixx.html" target="_top" xlink:title=" ">
<polygon fill="white" stroke="#666666" points="313.5,-213.67 100.5,-213.67 100.5,-194.67 313.5,-194.67 313.5,-213.67"/>
<text text-anchor="middle" x="207" y="-201.67" font-family="Helvetica,sans-Serif" font-size="10.00">helios.rendering.asset.shape.basic.Cube</text>
</a>
</g>
</g>
<!-- Node1&#45;&gt;Node11 -->
<g id="edge15_Node000001_Node000011" class="edge">
<title>Node1&#45;&gt;Node11</title>
<g id="a_edge15_Node000001_Node000011"><a xlink:title=" ">
<path fill="none" stroke="#63b8ff" d="M292.08,-255.13C273.72,-244.35 248.52,-229.55 230.31,-218.86"/>
<polygon fill="#63b8ff" stroke="#63b8ff" points="231.9,-215.74 221.51,-213.69 228.36,-221.77 231.9,-215.74"/>
</a>
</g>
</g>
<!-- Node3 -->
<g id="Node000003" class="node">
<title>Node3</title>
<g id="a_Node000003"><a xlink:title=" ">
<polygon fill="#e0e0e0" stroke="#999999" points="240.5,-81.67 193.5,-81.67 193.5,-62.67 240.5,-62.67 240.5,-81.67"/>
<text text-anchor="middle" x="217" y="-69.67" font-family="Helvetica,sans-Serif" font-size="10.00">vector</text>
</a>
</g>
</g>
<!-- Node2&#45;&gt;Node3 -->
<g id="edge2_Node000002_Node000003" class="edge">
<title>Node2&#45;&gt;Node3</title>
<g id="a_edge2_Node000002_Node000003"><a xlink:title=" ">
<path fill="none" stroke="#63b8ff" d="M408.52,-188.9C387.51,-172.1 350.85,-143.86 317,-123.17 293.94,-109.09 266.39,-95.53 246.05,-86.1"/>
<polygon fill="#63b8ff" stroke="#63b8ff" points="247.24,-82.8 236.69,-81.82 244.33,-89.16 247.24,-82.8"/>
</a>
</g>
</g>
<!-- Node4 -->
<g id="Node000004" class="node">
<title>Node4</title>
<g id="a_Node000004"><a xlink:title=" ">
<polygon fill="#e0e0e0" stroke="#999999" points="449.5,-147.67 402.5,-147.67 402.5,-128.67 449.5,-128.67 449.5,-147.67"/>
<text text-anchor="middle" x="426" y="-135.67" font-family="Helvetica,sans-Serif" font-size="10.00">cmath</text>
</a>
</g>
</g>
<!-- Node2&#45;&gt;Node4 -->
<g id="edge3_Node000002_Node000004" class="edge">
<title>Node2&#45;&gt;Node4</title>
<g id="a_edge3_Node000002_Node000004"><a xlink:title=" ">
<path fill="none" stroke="#63b8ff" d="M426,-188.97C426,-179.87 426,-167.96 426,-158.07"/>
<polygon fill="#63b8ff" stroke="#63b8ff" points="429.5,-158.02 426,-148.02 422.5,-158.02 429.5,-158.02"/>
</a>
</g>
</g>
<!-- Node5 -->
<g id="Node000005" class="node">
<title>Node5</title>
<g id="a_Node000005"><a xlink:title=" ">
<polygon fill="#e0e0e0" stroke="#999999" points="526.5,-147.67 467.5,-147.67 467.5,-128.67 526.5,-128.67 526.5,-147.67"/>
<text text-anchor="middle" x="497" y="-135.67" font-family="Helvetica,sans-Serif" font-size="10.00">numbers</text>
</a>
</g>
</g>
<!-- Node2&#45;&gt;Node5 -->
<g id="edge4_Node000002_Node000005" class="edge">
<title>Node2&#45;&gt;Node5</title>
<g id="a_edge4_Node000002_Node000005"><a xlink:title=" ">
<path fill="none" stroke="#63b8ff" d="M441.76,-188.97C452.93,-178.9 467.94,-165.37 479.49,-154.96"/>
<polygon fill="#63b8ff" stroke="#63b8ff" points="482.1,-157.31 487.19,-148.02 477.42,-152.11 482.1,-157.31"/>
</a>
</g>
</g>
<!-- Node6 -->
<g id="Node000006" class="node">
<title>Node6</title>
<g id="a_Node000006"><a xlink:href="PrimitiveType_8ixx.html" target="_top" xlink:title=" ">
<polygon fill="white" stroke="#666666" points="164,-87.17 0,-87.17 0,-57.17 164,-57.17 164,-87.17"/>
<text text-anchor="start" x="8" y="-75.17" font-family="Helvetica,sans-Serif" font-size="10.00">helios.rendering.model.config.</text>
<text text-anchor="middle" x="82" y="-64.17" font-family="Helvetica,sans-Serif" font-size="10.00">PrimitiveType</text>
</a>
</g>
</g>
<!-- Node2&#45;&gt;Node6 -->
<g id="edge5_Node000002_Node000006" class="edge">
<title>Node2&#45;&gt;Node6</title>
<g id="a_edge5_Node000002_Node000006"><a xlink:title=" ">
<path fill="none" stroke="#63b8ff" d="M331.96,-190.41C254.69,-179.33 155.37,-163.49 139,-153.17 117.59,-139.69 101.86,-114.97 92.41,-96.57"/>
<polygon fill="#63b8ff" stroke="#63b8ff" points="95.45,-94.82 87.92,-87.36 89.15,-97.88 95.45,-94.82"/>
</a>
</g>
</g>
<!-- Node7 -->
<g id="Node000007" class="node">
<title>Node7</title>
<g id="a_Node000007"><a xlink:href="math_2types_2__module_8ixx.html" target="_top" xlink:title=" ">
<polygon fill="white" stroke="#666666" points="548,-21.17 444,-21.17 444,-2.17 548,-2.17 548,-21.17"/>
<text text-anchor="middle" x="496" y="-9.17" font-family="Helvetica,sans-Serif" font-size="10.00">helios.math.types</text>
</a>
</g>
</g>
<!-- Node2&#45;&gt;Node7 -->
<g id="edge6_Node000002_Node000007" class="edge">
<title>Node2&#45;&gt;Node7</title>
<g id="a_edge6_Node000002_Node000007"><a xlink:title=" ">
<path fill="none" stroke="#63b8ff" d="M502.21,-189.1C521.63,-181.7 540.3,-170.41 552,-153.17 579.67,-112.42 536.72,-55.95 511.79,-28.68"/>
<polygon fill="#63b8ff" stroke="#63b8ff" points="514.14,-26.07 504.73,-21.2 509.05,-30.88 514.14,-26.07"/>
</a>
</g>
</g>
<!-- Node8 -->
<g id="Node000008" class="node">
<title>Node8</title>
<g id="a_Node000008"><a xlink:href="Vertex_8ixx.html" target="_top" xlink:title=" ">
<polygon fill="white" stroke="#666666" points="515,-81.67 385,-81.67 385,-62.67 515,-62.67 515,-81.67"/>
<text text-anchor="middle" x="450" y="-69.67" font-family="Helvetica,sans-Serif" font-size="10.00">helios.rendering.Vertex</text>
</a>
</g>
</g>
<!-- Node2&#45;&gt;Node8 -->
<g id="edge8_Node000002_Node000008" class="edge">
<title>Node2&#45;&gt;Node8</title>
<g id="a_edge8_Node000002_Node000008"><a xlink:title=" ">
<path fill="none" stroke="#63b8ff" d="M486.72,-189.17C505.43,-181.7 523.98,-170.35 535,-153.17 542.2,-141.95 541.62,-134.75 535,-123.17 524.89,-105.49 505.82,-93.45 488.3,-85.62"/>
<polygon fill="#63b8ff" stroke="#63b8ff" points="489.37,-82.27 478.79,-81.69 486.7,-88.74 489.37,-82.27"/>
</a>
</g>
</g>
<!-- Node9 -->
<g id="Node000009" class="node">
<title>Node9</title>
<g id="a_Node000009"><a xlink:href="Shape_8ixx.html" target="_top" xlink:title=" ">
<polygon fill="white" stroke="#666666" points="308,-153.17 148,-153.17 148,-123.17 308,-123.17 308,-153.17"/>
<text text-anchor="start" x="156" y="-141.17" font-family="Helvetica,sans-Serif" font-size="10.00">helios.rendering.asset.shape.</text>
<text text-anchor="middle" x="228" y="-130.17" font-family="Helvetica,sans-Serif" font-size="10.00">Shape</text>
</a>
</g>
</g>
<!-- Node2&#45;&gt;Node9 -->
<g id="edge10_Node000002_Node000009" class="edge">
<title>Node2&#45;&gt;Node9</title>
<g id="a_edge10_Node000002_Node000009"><a xlink:title=" ">
<path fill="none" stroke="#63b8ff" d="M382.55,-189.13C352.63,-179.46 312.71,-166.55 280.93,-156.28"/>
<polygon fill="#63b8ff" stroke="#63b8ff" points="281.94,-152.93 271.35,-153.19 279.79,-159.59 281.94,-152.93"/>
</a>
</g>
</g>
<!-- Node7&#45;&gt;Node7 -->
<g id="edge7_Node000007_Node000007" class="edge">
<title>Node7&#45;&gt;Node7</title>
<g id="a_edge7_Node000007_Node000007"><a xlink:title=" ">
<path fill="none" stroke="#63b8ff" d="M521.85,-21.21C543.44,-25.28 566,-22.1 566,-11.67 566,-2.87 549.94,0.76 531.95,-0.76"/>
<polygon fill="#63b8ff" stroke="#63b8ff" points="531.28,2.68 521.85,-2.14 532.23,-4.26 531.28,2.68"/>
</a>
</g>
</g>
<!-- Node8&#45;&gt;Node7 -->
<g id="edge9_Node000008_Node000007" class="edge">
<title>Node8&#45;&gt;Node7</title>
<g id="a_edge9_Node000008_Node000007"><a xlink:title=" ">
<path fill="none" stroke="#63b8ff" d="M456.79,-62.54C463.65,-53.82 474.43,-40.11 482.95,-29.27"/>
<polygon fill="#63b8ff" stroke="#63b8ff" points="485.75,-31.37 489.18,-21.34 480.25,-27.04 485.75,-31.37"/>
</a>
</g>
</g>
<!-- Node9&#45;&gt;Node3 -->
<g id="edge12_Node000009_Node000003" class="edge">
<title>Node9&#45;&gt;Node3</title>
<g id="a_edge12_Node000009_Node000003"><a xlink:title=" ">
<path fill="none" stroke="#63b8ff" d="M225.56,-122.97C224,-113.87 221.95,-101.96 220.25,-92.07"/>
<polygon fill="#63b8ff" stroke="#63b8ff" points="223.66,-91.28 218.52,-82.02 216.76,-92.47 223.66,-91.28"/>
</a>
</g>
</g>
<!-- Node9&#45;&gt;Node6 -->
<g id="edge13_Node000009_Node000006" class="edge">
<title>Node9&#45;&gt;Node6</title>
<g id="a_edge13_Node000009_Node000006"><a xlink:title=" ">
<path fill="none" stroke="#63b8ff" d="M195.96,-123.13C174.56,-113.75 146.23,-101.33 123.17,-91.22"/>
<polygon fill="#63b8ff" stroke="#63b8ff" points="124.53,-88 113.97,-87.19 121.72,-94.41 124.53,-88"/>
</a>
</g>
</g>
<!-- Node9&#45;&gt;Node8 -->
<g id="edge14_Node000009_Node000008" class="edge">
<title>Node9&#45;&gt;Node8</title>
<g id="a_edge14_Node000009_Node000008"><a xlink:title=" ">
<path fill="none" stroke="#63b8ff" d="M276.72,-123.13C316.85,-111.56 373.05,-95.36 410.44,-84.58"/>
<polygon fill="#63b8ff" stroke="#63b8ff" points="411.82,-87.83 420.46,-81.69 409.88,-81.1 411.82,-87.83"/>
</a>
</g>
</g>
<!-- Node10 -->
<g id="Node000010" class="node">
<title>Node10</title>
<g id="a_Node000010"><a xlink:title=" ">
<polygon fill="#e0e0e0" stroke="#999999" points="317,-81.67 259,-81.67 259,-62.67 317,-62.67 317,-81.67"/>
<text text-anchor="middle" x="288" y="-69.67" font-family="Helvetica,sans-Serif" font-size="10.00">memory</text>
</a>
</g>
</g>
<!-- Node9&#45;&gt;Node10 -->
<g id="edge11_Node000009_Node000010" class="edge">
<title>Node9&#45;&gt;Node10</title>
<g id="a_edge11_Node000009_Node000010"><a xlink:title=" ">
<path fill="none" stroke="#63b8ff" d="M241.32,-122.97C250.58,-113.09 262.95,-99.89 272.63,-89.57"/>
<polygon fill="#63b8ff" stroke="#63b8ff" points="275.42,-91.71 279.71,-82.02 270.32,-86.92 275.42,-91.71"/>
</a>
</g>
</g>
<!-- Node11&#45;&gt;Node3 -->
<g id="edge16_Node000011_Node000003" class="edge">
<title>Node11&#45;&gt;Node3</title>
<g id="a_edge16_Node000011_Node000003"><a xlink:title=" ">
<path fill="none" stroke="#63b8ff" d="M186.78,-194.64C170.56,-186.58 148.92,-172.79 139,-153.17 132.98,-141.28 132.6,-134.87 139,-123.17 148.55,-105.71 167.08,-93.45 183.69,-85.44"/>
<polygon fill="#63b8ff" stroke="#63b8ff" points="185.46,-88.49 193.16,-81.21 182.61,-82.09 185.46,-88.49"/>
</a>
</g>
</g>
<!-- Node11&#45;&gt;Node6 -->
<g id="edge17_Node000011_Node000006" class="edge">
<title>Node11&#45;&gt;Node6</title>
<g id="a_edge17_Node000011_Node000006"><a xlink:title=" ">
<path fill="none" stroke="#63b8ff" d="M135.5,-194.6C109.9,-187.69 83.56,-175.31 68,-153.17 56.41,-136.69 62.13,-113.67 69.44,-96.55"/>
<polygon fill="#63b8ff" stroke="#63b8ff" points="72.72,-97.79 73.81,-87.25 66.39,-94.82 72.72,-97.79"/>
</a>
</g>
</g>
<!-- Node11&#45;&gt;Node8 -->
<g id="edge18_Node000011_Node000008" class="edge">
<title>Node11&#45;&gt;Node8</title>
<g id="a_edge18_Node000011_Node000008"><a xlink:title=" ">
<path fill="none" stroke="#63b8ff" d="M227.61,-194.65C249.97,-185.2 286.55,-169.19 317,-153.17 357.15,-132.07 402,-104.13 428.01,-87.47"/>
<polygon fill="#63b8ff" stroke="#63b8ff" points="430.19,-90.23 436.7,-81.88 426.4,-84.35 430.19,-90.23"/>
</a>
</g>
</g>
<!-- Node11&#45;&gt;Node9 -->
<g id="edge19_Node000011_Node000009" class="edge">
<title>Node11&#45;&gt;Node9</title>
<g id="a_edge19_Node000011_Node000009"><a xlink:title=" ">
<path fill="none" stroke="#63b8ff" d="M209.83,-194.54C212.47,-186.5 216.53,-174.12 220.15,-163.1"/>
<polygon fill="#63b8ff" stroke="#63b8ff" points="223.5,-164.13 223.29,-153.54 216.84,-161.95 223.5,-164.13"/>
</a>
</g>
</g>
</g>
</svg>

<g id="navigator" transform="translate(0 0)" fill="#404254">
  <rect fill="#f2f5e9" fill-opacity="0.5" stroke="#606060" stroke-width=".5" x="0" y="0" width="60" height="60"/>
  <use id="zoomplus" xlink:href="#zoomPlus" x="17" y="9" onmousedown="handleZoom(evt,'in')"/>
  <use id="zoomminus" xlink:href="#zoomMin" x="42" y="9" onmousedown="handleZoom(evt,'out')"/>
  <use id="reset" xlink:href="#resetDef" x="30" y="36" onmousedown="handleReset()"/>
   <use id="arrowup" xlink:href="#arrowUp" x="0" y="0" onmousedown="handlePan(0,-1)"/>
  <use id="arrowright" xlink:href="#arrowRight" x="0" y="0" onmousedown="handlePan(1,0)"/>
  <use id="arrowdown" xlink:href="#arrowDown" x="0" y="0" onmousedown="handlePan(0,1)"/>
  <use id="arrowleft" xlink:href="#arrowLeft" x="0" y="0" onmousedown="handlePan(-1,0)"/>
</g>
<svg viewBox="0 0 15 15" width="100%" height="30px" preserveAspectRatio="xMaxYMin meet">
 <g id="arrow_out" transform="scale(0.3 0.3)">
  <a xlink:href="rendering_2asset_2shape_2basic_2__module_8ixx__incl_org.svg" target="_base">
   <rect id="button" ry="5" rx="5" y="6" x="6" height="38" width="38"
        fill="#f2f5e9" fill-opacity="0.5" stroke="#606060" stroke-width="1.0"/>
   <path id="arrow"
     d="M 11.500037,31.436501 C 11.940474,20.09759 22.043105,11.32322 32.158766,21.979434 L 37.068811,17.246167 C 37.068811,17.246167 37.088388,32 37.088388,32 L 22.160133,31.978069 C 22.160133,31.978069 26.997745,27.140456 26.997745,27.140456 C 18.528582,18.264221 13.291696,25.230495 11.500037,31.436501 z"
     style="fill:#404040;"/>
  </a>
 </g>
</svg>

<style type='text/css'>
<![CDATA[
[data-mouse-over-selected='false'] { opacity: 0.7; }
[data-mouse-over-selected='true']  { opacity: 1.0; }
]]>
</style>
<script type="application/ecmascript"><![CDATA[
document.addEventListener('DOMContentLoaded', (event) => {
  highlightEdges();
  highlightAdjacentNodes();
});
]]></script>
</svg>
