<?xml version="1.0" encoding="UTF-8" standalone="no"?>
<!DOCTYPE svg PUBLIC "-//W3C//DTD SVG 1.1//EN"
 "http://www.w3.org/Graphics/SVG/1.1/DTD/svg11.dtd">
<!-- Generated by graphviz version 2.43.0 (0)
 -->
<!-- Title: include/helios/rendering/RenderPrototype.ixx Pages: 1 -->
<svg width="1754pt" height="401pt"
 viewBox="0.00 0.00 1754.00 401.00" xmlns="http://www.w3.org/2000/svg" xmlns:xlink="http://www.w3.org/1999/xlink">
<g id="graph0" class="graph" transform="scale(1 1) rotate(0) translate(4 397)">
<title>include/helios/rendering/RenderPrototype.ixx</title>
<!-- Node1 -->
<g id="Node000001" class="node">
<title>Node1</title>
<g id="a_Node000001"><a xlink:title="An immutable, shared prototype of a renderable object.">
<polygon fill="#999999" stroke="#666666" points="579,-393 445,-393 445,-363 579,-363 579,-393"/>
<text text-anchor="start" x="453" y="-381" font-family="Helvetica,sans-Serif" font-size="10.00">include/helios/rendering</text>
<text text-anchor="middle" x="512" y="-370" font-family="Helvetica,sans-Serif" font-size="10.00">/RenderPrototype.ixx</text>
</a>
</g>
</g>
<!-- Node2 -->
<g id="Node000002" class="node">
<title>Node2</title>
<g id="a_Node000002"><a xlink:title=" ">
<polygon fill="#e0e0e0" stroke="#999999" points="215,-74 157,-74 157,-55 215,-55 215,-74"/>
<text text-anchor="middle" x="186" y="-62" font-family="Helvetica,sans-Serif" font-size="10.00">memory</text>
</a>
</g>
</g>
<!-- Node1&#45;&gt;Node2 -->
<g id="edge1_Node000001_Node000002" class="edge">
<title>Node1&#45;&gt;Node2</title>
<g id="a_edge1_Node000001_Node000002"><a xlink:title=" ">
<path fill="none" stroke="#63b8ff" d="M444.8,-375.35C305.89,-370.1 0,-348.29 0,-258 0,-258 0,-258 0,-190 0,-119.91 92.34,-86.78 146.89,-73.33"/>
<polygon fill="#63b8ff" stroke="#63b8ff" points="148,-76.66 156.94,-70.96 146.4,-69.85 148,-76.66"/>
</a>
</g>
</g>
<!-- Node3 -->
<g id="Node000003" class="node">
<title>Node3</title>
<g id="a_Node000003"><a xlink:href="Mesh_8ixx.html" target="_top" xlink:title="Mesh abstraction: immutable vertex/index data and configuration.">
<polygon fill="white" stroke="#666666" points="591,-266.5 433,-266.5 433,-247.5 591,-247.5 591,-266.5"/>
<text text-anchor="middle" x="512" y="-254.5" font-family="Helvetica,sans-Serif" font-size="10.00">helios.rendering.model.Mesh</text>
</a>
</g>
</g>
<!-- Node1&#45;&gt;Node3 -->
<g id="edge2_Node000001_Node000003" class="edge">
<title>Node1&#45;&gt;Node3</title>
<g id="a_edge2_Node000001_Node000003"><a xlink:title=" ">
<path fill="none" stroke="#63b8ff" d="M512,-362.88C512,-341.51 512,-300.89 512,-276.96"/>
<polygon fill="#63b8ff" stroke="#63b8ff" points="515.5,-276.71 512,-266.71 508.5,-276.71 515.5,-276.71"/>
</a>
</g>
</g>
<!-- Node18 -->
<g id="Node000018" class="node">
<title>Node18</title>
<g id="a_Node000018"><a xlink:href="Material_8ixx.html" target="_top" xlink:title="Material abstraction: shader + material properties.">
<polygon fill="white" stroke="#666666" points="1054.5,-327 881.5,-327 881.5,-308 1054.5,-308 1054.5,-327"/>
<text text-anchor="middle" x="968" y="-315" font-family="Helvetica,sans-Serif" font-size="10.00">helios.rendering.model.Material</text>
</a>
</g>
</g>
<!-- Node1&#45;&gt;Node18 -->
<g id="edge33_Node000001_Node000018" class="edge">
<title>Node1&#45;&gt;Node18</title>
<g id="a_edge33_Node000001_Node000018"><a xlink:title=" ">
<path fill="none" stroke="#63b8ff" d="M579.28,-368.37C662.57,-357.68 804.08,-339.53 891.44,-328.32"/>
<polygon fill="#63b8ff" stroke="#63b8ff" points="892.08,-331.77 901.55,-327.02 891.19,-324.83 892.08,-331.77"/>
</a>
</g>
</g>
<!-- Node3&#45;&gt;Node2 -->
<g id="edge3_Node000003_Node000002" class="edge">
<title>Node3&#45;&gt;Node2</title>
<g id="a_edge3_Node000003_Node000002"><a xlink:title=" ">
<path fill="none" stroke="#63b8ff" d="M432.66,-252.08C317.94,-245.58 116.99,-230.78 95,-206 66.68,-174.08 72.41,-146.2 95,-110 106.42,-91.71 127.78,-80.73 146.93,-74.25"/>
<polygon fill="#63b8ff" stroke="#63b8ff" points="148.15,-77.54 156.69,-71.26 146.1,-70.85 148.15,-77.54"/>
</a>
</g>
</g>
<!-- Node4 -->
<g id="Node000004" class="node">
<title>Node4</title>
<g id="a_Node000004"><a xlink:title=" ">
<polygon fill="#e0e0e0" stroke="#999999" points="755.5,-200.5 690.5,-200.5 690.5,-181.5 755.5,-181.5 755.5,-200.5"/>
<text text-anchor="middle" x="723" y="-188.5" font-family="Helvetica,sans-Serif" font-size="10.00">stdexcept</text>
</a>
</g>
</g>
<!-- Node3&#45;&gt;Node4 -->
<g id="edge4_Node000003_Node000004" class="edge">
<title>Node3&#45;&gt;Node4</title>
<g id="a_edge4_Node000003_Node000004"><a xlink:title=" ">
<path fill="none" stroke="#63b8ff" d="M540.46,-247.37C577.76,-236.05 643.33,-216.16 684.9,-203.56"/>
<polygon fill="#63b8ff" stroke="#63b8ff" points="686.1,-206.85 694.66,-200.6 684.07,-200.15 686.1,-206.85"/>
</a>
</g>
</g>
<!-- Node5 -->
<g id="Node000005" class="node">
<title>Node5</title>
<g id="a_Node000005"><a xlink:title=" ">
<polygon fill="#e0e0e0" stroke="#999999" points="479.5,-74 432.5,-74 432.5,-55 479.5,-55 479.5,-74"/>
<text text-anchor="middle" x="456" y="-62" font-family="Helvetica,sans-Serif" font-size="10.00">vector</text>
</a>
</g>
</g>
<!-- Node3&#45;&gt;Node5 -->
<g id="edge5_Node000003_Node000005" class="edge">
<title>Node3&#45;&gt;Node5</title>
<g id="a_edge5_Node000003_Node000005"><a xlink:title=" ">
<path fill="none" stroke="#63b8ff" d="M507.53,-247.36C499.03,-231.59 479.23,-197.77 455,-176 430.73,-154.19 407.48,-168.17 391,-140 384.27,-128.49 384.78,-121.79 391,-110 398.24,-96.27 411.83,-85.97 424.72,-78.76"/>
<polygon fill="#63b8ff" stroke="#63b8ff" points="426.59,-81.73 433.88,-74.05 423.39,-75.51 426.59,-81.73"/>
</a>
</g>
</g>
<!-- Node6 -->
<g id="Node000006" class="node">
<title>Node6</title>
<g id="a_Node000006"><a xlink:href="helios_2math_2types_2__module_8ixx.html" target="_top" xlink:title="Module exports for vector and matrix type definitions.">
<polygon fill="white" stroke="#666666" points="764,-74 660,-74 660,-55 764,-55 764,-74"/>
<text text-anchor="middle" x="712" y="-62" font-family="Helvetica,sans-Serif" font-size="10.00">helios.math.types</text>
</a>
</g>
</g>
<!-- Node3&#45;&gt;Node6 -->
<g id="edge6_Node000003_Node000006" class="edge">
<title>Node3&#45;&gt;Node6</title>
<g id="a_edge6_Node000003_Node000006"><a xlink:title=" ">
<path fill="none" stroke="#63b8ff" d="M519.52,-247.31C539.9,-223.97 598.38,-158.34 653,-110 665.1,-99.29 679.57,-88.35 691.15,-80"/>
<polygon fill="#63b8ff" stroke="#63b8ff" points="693.23,-82.81 699.35,-74.16 689.18,-77.11 693.23,-82.81"/>
</a>
</g>
</g>
<!-- Node7 -->
<g id="Node000007" class="node">
<title>Node7</title>
<g id="a_Node000007"><a xlink:href="Logger_8ixx.html" target="_top" xlink:title="Simple synchronous logger with configurable output sinks.">
<polygon fill="white" stroke="#666666" points="1073.5,-134.5 954.5,-134.5 954.5,-115.5 1073.5,-115.5 1073.5,-134.5"/>
<text text-anchor="middle" x="1014" y="-122.5" font-family="Helvetica,sans-Serif" font-size="10.00">helios.util.log.Logger</text>
</a>
</g>
</g>
<!-- Node3&#45;&gt;Node7 -->
<g id="edge8_Node000003_Node000007" class="edge">
<title>Node3&#45;&gt;Node7</title>
<g id="a_edge8_Node000003_Node000007"><a xlink:title=" ">
<path fill="none" stroke="#63b8ff" d="M591.35,-254.75C702.28,-251.73 896.86,-241.38 957,-206 981.18,-191.77 997.83,-162.79 1006.63,-143.89"/>
<polygon fill="#63b8ff" stroke="#63b8ff" points="1009.9,-145.15 1010.72,-134.59 1003.49,-142.34 1009.9,-145.15"/>
</a>
</g>
</g>
<!-- Node11 -->
<g id="Node000011" class="node">
<title>Node11</title>
<g id="a_Node000011"><a xlink:href="LogManager_8ixx.html" target="_top" xlink:title="Central manager for scoped loggers with configurable sinks.">
<polygon fill="white" stroke="#666666" points="948,-200.5 802,-200.5 802,-181.5 948,-181.5 948,-200.5"/>
<text text-anchor="middle" x="875" y="-188.5" font-family="Helvetica,sans-Serif" font-size="10.00">helios.util.log.LogManager</text>
</a>
</g>
</g>
<!-- Node3&#45;&gt;Node11 -->
<g id="edge15_Node000003_Node000011" class="edge">
<title>Node3&#45;&gt;Node11</title>
<g id="a_edge15_Node000003_Node000011"><a xlink:title=" ">
<path fill="none" stroke="#63b8ff" d="M560.58,-247.44C626.87,-235.75 745.52,-214.83 816.58,-202.3"/>
<polygon fill="#63b8ff" stroke="#63b8ff" points="817.47,-205.7 826.71,-200.51 816.25,-198.8 817.47,-205.7"/>
</a>
</g>
</g>
<!-- Node14 -->
<g id="Node000014" class="node">
<title>Node14</title>
<g id="a_Node000014"><a xlink:href="Shape_8ixx.html" target="_top" xlink:title="Interface for simple geometric shapes used for testing and debugging.">
<polygon fill="white" stroke="#666666" points="446,-206 286,-206 286,-176 446,-176 446,-206"/>
<text text-anchor="start" x="294" y="-194" font-family="Helvetica,sans-Serif" font-size="10.00">helios.rendering.asset.shape.</text>
<text text-anchor="middle" x="366" y="-183" font-family="Helvetica,sans-Serif" font-size="10.00">Shape</text>
</a>
</g>
</g>
<!-- Node3&#45;&gt;Node14 -->
<g id="edge24_Node000003_Node000014" class="edge">
<title>Node3&#45;&gt;Node14</title>
<g id="a_edge24_Node000003_Node000014"><a xlink:title=" ">
<path fill="none" stroke="#63b8ff" d="M492.31,-247.37C470.73,-237.91 435.47,-222.45 407.68,-210.27"/>
<polygon fill="#63b8ff" stroke="#63b8ff" points="408.77,-206.92 398.2,-206.12 405.95,-213.34 408.77,-206.92"/>
</a>
</g>
</g>
<!-- Node16 -->
<g id="Node000016" class="node">
<title>Node16</title>
<g id="a_Node000016"><a xlink:href="Vertex_8ixx.html" target="_top" xlink:title="Vertex description and utilities for rendering.">
<polygon fill="white" stroke="#666666" points="530,-134.5 400,-134.5 400,-115.5 530,-115.5 530,-134.5"/>
<text text-anchor="middle" x="465" y="-122.5" font-family="Helvetica,sans-Serif" font-size="10.00">helios.rendering.Vertex</text>
</a>
</g>
</g>
<!-- Node3&#45;&gt;Node16 -->
<g id="edge32_Node000003_Node000016" class="edge">
<title>Node3&#45;&gt;Node16</title>
<g id="a_edge32_Node000003_Node000016"><a xlink:title=" ">
<path fill="none" stroke="#63b8ff" d="M509.86,-247.46C506.06,-232.69 497.64,-201.5 488,-176 483.88,-165.1 478.47,-153.25 473.93,-143.82"/>
<polygon fill="#63b8ff" stroke="#63b8ff" points="477,-142.13 469.45,-134.69 470.72,-145.21 477,-142.13"/>
</a>
</g>
</g>
<!-- Node17 -->
<g id="Node000017" class="node">
<title>Node17</title>
<g id="a_Node000017"><a xlink:href="MeshConfig_8ixx.html" target="_top" xlink:title="Mesh configuration including primitive type.">
<polygon fill="white" stroke="#666666" points="268,-206 104,-206 104,-176 268,-176 268,-206"/>
<text text-anchor="start" x="112" y="-194" font-family="Helvetica,sans-Serif" font-size="10.00">helios.rendering.model.config.</text>
<text text-anchor="middle" x="186" y="-183" font-family="Helvetica,sans-Serif" font-size="10.00">MeshConfig</text>
</a>
</g>
</g>
<!-- Node3&#45;&gt;Node17 -->
<g id="edge30_Node000003_Node000017" class="edge">
<title>Node3&#45;&gt;Node17</title>
<g id="a_edge30_Node000003_Node000017"><a xlink:title=" ">
<path fill="none" stroke="#63b8ff" d="M468.37,-247.44C417.15,-237.38 331.13,-220.49 267.46,-207.99"/>
<polygon fill="#63b8ff" stroke="#63b8ff" points="267.93,-204.52 257.44,-206.02 266.58,-211.39 267.93,-204.52"/>
</a>
</g>
</g>
<!-- Node6&#45;&gt;Node6 -->
<g id="edge7_Node000006_Node000006" class="edge">
<title>Node6&#45;&gt;Node6</title>
<g id="a_edge7_Node000006_Node000006"><a xlink:title=" ">
<path fill="none" stroke="#63b8ff" d="M744.77,-74.03C764,-76.06 782,-72.88 782,-64.5 782,-57.62 769.89,-54.25 754.92,-54.38"/>
<polygon fill="#63b8ff" stroke="#63b8ff" points="754.55,-50.89 744.77,-54.97 754.95,-57.88 754.55,-50.89"/>
</a>
</g>
</g>
<!-- Node7&#45;&gt;Node2 -->
<g id="edge11_Node000007_Node000002" class="edge">
<title>Node7&#45;&gt;Node2</title>
<g id="a_edge11_Node000007_Node000002"><a xlink:title=" ">
<path fill="none" stroke="#63b8ff" d="M954.42,-117.83C928.24,-115.22 897.11,-112.27 869,-110 624.52,-90.24 330.26,-73.41 225.43,-67.64"/>
<polygon fill="#63b8ff" stroke="#63b8ff" points="225.49,-64.14 215.31,-67.08 225.11,-71.13 225.49,-64.14"/>
</a>
</g>
</g>
<!-- Node7&#45;&gt;Node5 -->
<g id="edge10_Node000007_Node000005" class="edge">
<title>Node7&#45;&gt;Node5</title>
<g id="a_edge10_Node000007_Node000005"><a xlink:title=" ">
<path fill="none" stroke="#63b8ff" d="M954.28,-117.74C837.32,-105.48 581.45,-78.65 489.63,-69.03"/>
<polygon fill="#63b8ff" stroke="#63b8ff" points="489.83,-65.53 479.51,-67.97 489.1,-72.49 489.83,-65.53"/>
</a>
</g>
</g>
<!-- Node8 -->
<g id="Node000008" class="node">
<title>Node8</title>
<g id="a_Node000008"><a xlink:title=" ">
<polygon fill="#e0e0e0" stroke="#999999" points="1117,-19 1073,-19 1073,0 1117,0 1117,-19"/>
<text text-anchor="middle" x="1095" y="-7" font-family="Helvetica,sans-Serif" font-size="10.00">string</text>
</a>
</g>
</g>
<!-- Node7&#45;&gt;Node8 -->
<g id="edge9_Node000007_Node000008" class="edge">
<title>Node7&#45;&gt;Node8</title>
<g id="a_edge9_Node000007_Node000008"><a xlink:title=" ">
<path fill="none" stroke="#63b8ff" d="M1020.09,-115.47C1033.4,-96.82 1065.3,-52.11 1082.88,-27.49"/>
<polygon fill="#63b8ff" stroke="#63b8ff" points="1085.88,-29.3 1088.84,-19.13 1080.18,-25.24 1085.88,-29.3"/>
</a>
</g>
</g>
<!-- Node9 -->
<g id="Node000009" class="node">
<title>Node9</title>
<g id="a_Node000009"><a xlink:title=" ">
<polygon fill="#e0e0e0" stroke="#999999" points="993,-74 945,-74 945,-55 993,-55 993,-74"/>
<text text-anchor="middle" x="969" y="-62" font-family="Helvetica,sans-Serif" font-size="10.00">mutex</text>
</a>
</g>
</g>
<!-- Node7&#45;&gt;Node9 -->
<g id="edge12_Node000007_Node000009" class="edge">
<title>Node7&#45;&gt;Node9</title>
<g id="a_edge12_Node000007_Node000009"><a xlink:title=" ">
<path fill="none" stroke="#63b8ff" d="M1007.36,-115.37C1000.71,-106.73 990.31,-93.2 982.01,-82.42"/>
<polygon fill="#63b8ff" stroke="#63b8ff" points="984.54,-79.96 975.67,-74.17 978.99,-84.23 984.54,-79.96"/>
</a>
</g>
</g>
<!-- Node10 -->
<g id="Node000010" class="node">
<title>Node10</title>
<g id="a_Node000010"><a xlink:href="LogSink_8ixx.html" target="_top" xlink:title="Abstract interface for log output destinations.">
<polygon fill="white" stroke="#666666" points="1202,-74 1078,-74 1078,-55 1202,-55 1202,-74"/>
<text text-anchor="middle" x="1140" y="-62" font-family="Helvetica,sans-Serif" font-size="10.00">helios.util.log.LogSink</text>
</a>
</g>
</g>
<!-- Node7&#45;&gt;Node10 -->
<g id="edge13_Node000007_Node000010" class="edge">
<title>Node7&#45;&gt;Node10</title>
<g id="a_edge13_Node000007_Node000010"><a xlink:title=" ">
<path fill="none" stroke="#63b8ff" d="M1032.32,-115.49C1053.41,-105.7 1088.26,-89.52 1112.58,-78.23"/>
<polygon fill="#63b8ff" stroke="#63b8ff" points="1114.06,-81.4 1121.66,-74.02 1111.11,-75.05 1114.06,-81.4"/>
</a>
</g>
</g>
<!-- Node10&#45;&gt;Node8 -->
<g id="edge14_Node000010_Node000008" class="edge">
<title>Node10&#45;&gt;Node8</title>
<g id="a_edge14_Node000010_Node000008"><a xlink:title=" ">
<path fill="none" stroke="#63b8ff" d="M1132.57,-54.75C1126.15,-47.18 1116.69,-36.05 1108.88,-26.84"/>
<polygon fill="#63b8ff" stroke="#63b8ff" points="1111.43,-24.45 1102.29,-19.09 1106.1,-28.98 1111.43,-24.45"/>
</a>
</g>
</g>
<!-- Node11&#45;&gt;Node2 -->
<g id="edge19_Node000011_Node000002" class="edge">
<title>Node11&#45;&gt;Node2</title>
<g id="a_edge19_Node000011_Node000002"><a xlink:title=" ">
<path fill="none" stroke="#63b8ff" d="M811.61,-181.49C729.18,-170.13 593.18,-150.25 572,-140 554.16,-131.37 557,-118.29 539,-110 483.83,-84.59 305.09,-71.96 225.2,-67.47"/>
<polygon fill="#63b8ff" stroke="#63b8ff" points="225.24,-63.96 215.06,-66.91 224.85,-70.95 225.24,-63.96"/>
</a>
</g>
</g>
<!-- Node11&#45;&gt;Node5 -->
<g id="edge21_Node000011_Node000005" class="edge">
<title>Node11&#45;&gt;Node5</title>
<g id="a_edge21_Node000011_Node000005"><a xlink:title=" ">
<path fill="none" stroke="#63b8ff" d="M828.16,-181.43C782.89,-172.69 712.6,-157.88 653,-140 644.74,-137.52 541.56,-98.2 487.93,-77.71"/>
<polygon fill="#63b8ff" stroke="#63b8ff" points="489.12,-74.41 478.53,-74.12 486.62,-80.95 489.12,-74.41"/>
</a>
</g>
</g>
<!-- Node11&#45;&gt;Node7 -->
<g id="edge22_Node000011_Node000007" class="edge">
<title>Node11&#45;&gt;Node7</title>
<g id="a_edge22_Node000011_Node000007"><a xlink:title=" ">
<path fill="none" stroke="#63b8ff" d="M893.75,-181.37C917.48,-170.44 958.57,-151.52 986.02,-138.88"/>
<polygon fill="#63b8ff" stroke="#63b8ff" points="987.49,-142.06 995.11,-134.7 984.56,-135.7 987.49,-142.06"/>
</a>
</g>
</g>
<!-- Node11&#45;&gt;Node8 -->
<g id="edge16_Node000011_Node000008" class="edge">
<title>Node11&#45;&gt;Node8</title>
<g id="a_edge16_Node000011_Node000008"><a xlink:title=" ">
<path fill="none" stroke="#63b8ff" d="M876.32,-181.18C880.4,-157.06 895.12,-89.51 936,-55 972.13,-24.5 1027.71,-14.83 1062.67,-11.81"/>
<polygon fill="#63b8ff" stroke="#63b8ff" points="1063.1,-15.29 1072.82,-11.07 1062.59,-8.31 1063.1,-15.29"/>
</a>
</g>
</g>
<!-- Node11&#45;&gt;Node9 -->
<g id="edge20_Node000011_Node000009" class="edge">
<title>Node11&#45;&gt;Node9</title>
<g id="a_edge20_Node000011_Node000009"><a xlink:title=" ">
<path fill="none" stroke="#63b8ff" d="M881.46,-181.44C896.89,-161.01 936.1,-109.07 956.4,-82.19"/>
<polygon fill="#63b8ff" stroke="#63b8ff" points="959.26,-84.21 962.49,-74.12 953.67,-79.99 959.26,-84.21"/>
</a>
</g>
</g>
<!-- Node11&#45;&gt;Node10 -->
<g id="edge23_Node000011_Node000010" class="edge">
<title>Node11&#45;&gt;Node10</title>
<g id="a_edge23_Node000011_Node000010"><a xlink:title=" ">
<path fill="none" stroke="#63b8ff" d="M948.19,-184.32C990.08,-178.26 1042.08,-165.76 1082,-140 1103.99,-125.81 1121.11,-100.34 1130.88,-83.18"/>
<polygon fill="#63b8ff" stroke="#63b8ff" points="1134.07,-84.64 1135.77,-74.19 1127.92,-81.3 1134.07,-84.64"/>
</a>
</g>
</g>
<!-- Node12 -->
<g id="Node000012" class="node">
<title>Node12</title>
<g id="a_Node000012"><a xlink:title=" ">
<polygon fill="#e0e0e0" stroke="#999999" points="755.5,-134.5 662.5,-134.5 662.5,-115.5 755.5,-115.5 755.5,-134.5"/>
<text text-anchor="middle" x="709" y="-122.5" font-family="Helvetica,sans-Serif" font-size="10.00">unordered_map</text>
</a>
</g>
</g>
<!-- Node11&#45;&gt;Node12 -->
<g id="edge17_Node000011_Node000012" class="edge">
<title>Node11&#45;&gt;Node12</title>
<g id="a_edge17_Node000011_Node000012"><a xlink:title=" ">
<path fill="none" stroke="#63b8ff" d="M852.61,-181.37C823.82,-170.27 773.63,-150.92 740.86,-138.28"/>
<polygon fill="#63b8ff" stroke="#63b8ff" points="741.89,-134.93 731.3,-134.6 739.37,-141.46 741.89,-134.93"/>
</a>
</g>
</g>
<!-- Node13 -->
<g id="Node000013" class="node">
<title>Node13</title>
<g id="a_Node000013"><a xlink:title=" ">
<polygon fill="#e0e0e0" stroke="#999999" points="860,-134.5 774,-134.5 774,-115.5 860,-115.5 860,-134.5"/>
<text text-anchor="middle" x="817" y="-122.5" font-family="Helvetica,sans-Serif" font-size="10.00">unordered_set</text>
</a>
</g>
</g>
<!-- Node11&#45;&gt;Node13 -->
<g id="edge18_Node000011_Node000013" class="edge">
<title>Node11&#45;&gt;Node13</title>
<g id="a_edge18_Node000011_Node000013"><a xlink:title=" ">
<path fill="none" stroke="#63b8ff" d="M867.18,-181.37C858.15,-171.4 843.09,-154.79 831.83,-142.36"/>
<polygon fill="#63b8ff" stroke="#63b8ff" points="834.38,-139.96 825.07,-134.91 829.19,-144.67 834.38,-139.96"/>
</a>
</g>
</g>
<!-- Node14&#45;&gt;Node2 -->
<g id="edge25_Node000014_Node000002" class="edge">
<title>Node14&#45;&gt;Node2</title>
<g id="a_edge25_Node000014_Node000002"><a xlink:title=" ">
<path fill="none" stroke="#63b8ff" d="M352.82,-175.97C336.27,-158.89 306.45,-129.87 277,-110 258.09,-97.24 234.99,-85.99 216.79,-77.99"/>
<polygon fill="#63b8ff" stroke="#63b8ff" points="218.08,-74.74 207.51,-74.01 215.31,-81.17 218.08,-74.74"/>
</a>
</g>
</g>
<!-- Node14&#45;&gt;Node5 -->
<g id="edge26_Node000014_Node000005" class="edge">
<title>Node14&#45;&gt;Node5</title>
<g id="a_edge26_Node000014_Node000005"><a xlink:title=" ">
<path fill="none" stroke="#63b8ff" d="M359.55,-175.73C352.89,-158.68 345.15,-129.95 358,-110 372.13,-88.07 399.99,-76.82 422.41,-71.13"/>
<polygon fill="#63b8ff" stroke="#63b8ff" points="423.29,-74.52 432.26,-68.89 421.73,-67.7 423.29,-74.52"/>
</a>
</g>
</g>
<!-- Node15 -->
<g id="Node000015" class="node">
<title>Node15</title>
<g id="a_Node000015"><a xlink:href="PrimitiveType_8ixx.html" target="_top" xlink:title="Enum of primitive types for mesh rendering.">
<polygon fill="white" stroke="#666666" points="268,-140 104,-140 104,-110 268,-110 268,-140"/>
<text text-anchor="start" x="112" y="-128" font-family="Helvetica,sans-Serif" font-size="10.00">helios.rendering.model.config.</text>
<text text-anchor="middle" x="186" y="-117" font-family="Helvetica,sans-Serif" font-size="10.00">PrimitiveType</text>
</a>
</g>
</g>
<!-- Node14&#45;&gt;Node15 -->
<g id="edge27_Node000014_Node000015" class="edge">
<title>Node14&#45;&gt;Node15</title>
<g id="a_edge27_Node000014_Node000015"><a xlink:title=" ">
<path fill="none" stroke="#63b8ff" d="M326.5,-175.95C299.53,-166.37 263.63,-153.6 234.87,-143.37"/>
<polygon fill="#63b8ff" stroke="#63b8ff" points="236,-140.06 225.41,-140.01 233.66,-146.66 236,-140.06"/>
</a>
</g>
</g>
<!-- Node14&#45;&gt;Node16 -->
<g id="edge28_Node000014_Node000016" class="edge">
<title>Node14&#45;&gt;Node16</title>
<g id="a_edge28_Node000014_Node000016"><a xlink:title=" ">
<path fill="none" stroke="#63b8ff" d="M387.97,-175.8C404.41,-165.17 426.79,-150.7 443.19,-140.1"/>
<polygon fill="#63b8ff" stroke="#63b8ff" points="445.11,-143.03 451.61,-134.66 441.31,-137.15 445.11,-143.03"/>
</a>
</g>
</g>
<!-- Node16&#45;&gt;Node6 -->
<g id="edge29_Node000016_Node000006" class="edge">
<title>Node16&#45;&gt;Node6</title>
<g id="a_edge29_Node000016_Node000006"><a xlink:title=" ">
<path fill="none" stroke="#63b8ff" d="M500.92,-115.49C544.64,-105.14 618.53,-87.64 666.27,-76.33"/>
<polygon fill="#63b8ff" stroke="#63b8ff" points="667.12,-79.73 676.04,-74.02 665.5,-72.92 667.12,-79.73"/>
</a>
</g>
</g>
<!-- Node17&#45;&gt;Node15 -->
<g id="edge31_Node000017_Node000015" class="edge">
<title>Node17&#45;&gt;Node15</title>
<g id="a_edge31_Node000017_Node000015"><a xlink:title=" ">
<path fill="none" stroke="#63b8ff" d="M186,-175.8C186,-168.34 186,-158.99 186,-150.41"/>
<polygon fill="#63b8ff" stroke="#63b8ff" points="189.5,-150.16 186,-140.16 182.5,-150.16 189.5,-150.16"/>
</a>
</g>
</g>
<!-- Node18&#45;&gt;Node2 -->
<g id="edge34_Node000018_Node000002" class="edge">
<title>Node18&#45;&gt;Node2</title>
<g id="a_edge34_Node000018_Node000002"><a xlink:title=" ">
<path fill="none" stroke="#63b8ff" d="M881.39,-312.42C667,-301.4 125.12,-267.66 74,-206 63.97,-193.9 59.51,-134.79 77,-110 92.88,-87.49 122.24,-76.35 146.49,-70.84"/>
<polygon fill="#63b8ff" stroke="#63b8ff" points="147.41,-74.23 156.52,-68.81 146.02,-67.37 147.41,-74.23"/>
</a>
</g>
</g>
<!-- Node18&#45;&gt;Node4 -->
<g id="edge35_Node000018_Node000004" class="edge">
<title>Node18&#45;&gt;Node4</title>
<g id="a_edge35_Node000018_Node000004"><a xlink:title=" ">
<path fill="none" stroke="#63b8ff" d="M951.16,-307.94C909.11,-286.58 799.29,-230.77 748.92,-205.17"/>
<polygon fill="#63b8ff" stroke="#63b8ff" points="750.46,-202.03 739.96,-200.62 747.29,-208.27 750.46,-202.03"/>
</a>
</g>
</g>
<!-- Node19 -->
<g id="Node000019" class="node">
<title>Node19</title>
<g id="a_Node000019"><a xlink:href="helios_2util_2log_2__module_8ixx.html" target="_top" xlink:title="Module exports for logging.">
<polygon fill="white" stroke="#666666" points="1136.5,-266.5 1053.5,-266.5 1053.5,-247.5 1136.5,-247.5 1136.5,-266.5"/>
<text text-anchor="middle" x="1095" y="-254.5" font-family="Helvetica,sans-Serif" font-size="10.00">helios.util.log</text>
</a>
</g>
</g>
<!-- Node18&#45;&gt;Node19 -->
<g id="edge36_Node000018_Node000019" class="edge">
<title>Node18&#45;&gt;Node19</title>
<g id="a_edge36_Node000018_Node000019"><a xlink:title=" ">
<path fill="none" stroke="#63b8ff" d="M986.47,-307.99C1007.72,-298.2 1042.85,-282.02 1067.37,-270.73"/>
<polygon fill="#63b8ff" stroke="#63b8ff" points="1068.89,-273.88 1076.51,-266.52 1065.96,-267.52 1068.89,-273.88"/>
</a>
</g>
</g>
<!-- Node21 -->
<g id="Node000021" class="node">
<title>Node21</title>
<g id="a_Node000021"><a xlink:href="MaterialProperties_8ixx.html" target="_top" xlink:title="Default material properties used by materials and instances.">
<polygon fill="white" stroke="#666666" points="1322,-272 1158,-272 1158,-242 1322,-242 1322,-272"/>
<text text-anchor="start" x="1166" y="-260" font-family="Helvetica,sans-Serif" font-size="10.00">helios.rendering.model.config.</text>
<text text-anchor="middle" x="1240" y="-249" font-family="Helvetica,sans-Serif" font-size="10.00">MaterialProperties</text>
</a>
</g>
</g>
<!-- Node18&#45;&gt;Node21 -->
<g id="edge43_Node000018_Node000021" class="edge">
<title>Node18&#45;&gt;Node21</title>
<g id="a_edge43_Node000018_Node000021"><a xlink:title=" ">
<path fill="none" stroke="#63b8ff" d="M1007.55,-307.99C1048.65,-299.16 1113.95,-285.11 1164.89,-274.16"/>
<polygon fill="#63b8ff" stroke="#63b8ff" points="1165.83,-277.53 1174.87,-272.01 1164.36,-270.69 1165.83,-277.53"/>
</a>
</g>
</g>
<!-- Node23 -->
<g id="Node000023" class="node">
<title>Node23</title>
<g id="a_Node000023"><a xlink:href="UniformValueMap_8ixx.html" target="_top" xlink:title="Mapping of uniform names to values used by shader programs.">
<polygon fill="white" stroke="#666666" points="1462,-206 1328,-206 1328,-176 1462,-176 1462,-206"/>
<text text-anchor="start" x="1336" y="-194" font-family="Helvetica,sans-Serif" font-size="10.00">helios.rendering.shader.</text>
<text text-anchor="middle" x="1395" y="-183" font-family="Helvetica,sans-Serif" font-size="10.00">UniformValueMap</text>
</a>
</g>
</g>
<!-- Node18&#45;&gt;Node23 -->
<g id="edge56_Node000018_Node000023" class="edge">
<title>Node18&#45;&gt;Node23</title>
<g id="a_edge56_Node000018_Node000023"><a xlink:title=" ">
<path fill="none" stroke="#63b8ff" d="M1054.82,-313.35C1146.85,-308.7 1285.12,-297.6 1331,-272 1354.38,-258.95 1372.4,-233.58 1383.27,-214.89"/>
<polygon fill="#63b8ff" stroke="#63b8ff" points="1386.37,-216.53 1388.16,-206.09 1380.25,-213.13 1386.37,-216.53"/>
</a>
</g>
</g>
<!-- Node27 -->
<g id="Node000027" class="node">
<title>Node27</title>
<g id="a_Node000027"><a xlink:href="Shader_8ixx.html" target="_top" xlink:title="Abstraction for a compiled shader program.">
<polygon fill="white" stroke="#666666" points="1035,-272 901,-272 901,-242 1035,-242 1035,-272"/>
<text text-anchor="start" x="909" y="-260" font-family="Helvetica,sans-Serif" font-size="10.00">helios.rendering.shader.</text>
<text text-anchor="middle" x="968" y="-249" font-family="Helvetica,sans-Serif" font-size="10.00">Shader</text>
</a>
</g>
</g>
<!-- Node18&#45;&gt;Node27 -->
<g id="edge52_Node000018_Node000027" class="edge">
<title>Node18&#45;&gt;Node27</title>
<g id="a_edge52_Node000018_Node000027"><a xlink:title=" ">
<path fill="none" stroke="#63b8ff" d="M968,-307.87C968,-301.11 968,-291.35 968,-282.26"/>
<polygon fill="#63b8ff" stroke="#63b8ff" points="971.5,-282.11 968,-272.11 964.5,-282.11 971.5,-282.11"/>
</a>
</g>
</g>
<!-- Node19&#45;&gt;Node7 -->
<g id="edge38_Node000019_Node000007" class="edge">
<title>Node19&#45;&gt;Node7</title>
<g id="a_edge38_Node000019_Node000007"><a xlink:title=" ">
<path fill="none" stroke="#63b8ff" d="M1089.69,-247.47C1076.59,-226.45 1042.55,-171.82 1024.93,-143.54"/>
<polygon fill="#63b8ff" stroke="#63b8ff" points="1027.7,-141.37 1019.44,-134.73 1021.76,-145.07 1027.7,-141.37"/>
</a>
</g>
</g>
<!-- Node19&#45;&gt;Node10 -->
<g id="edge42_Node000019_Node000010" class="edge">
<title>Node19&#45;&gt;Node10</title>
<g id="a_edge42_Node000019_Node000010"><a xlink:title=" ">
<path fill="none" stroke="#63b8ff" d="M1097.05,-247.32C1103.9,-218.31 1126.11,-124.3 1135.62,-84.06"/>
<polygon fill="#63b8ff" stroke="#63b8ff" points="1139.04,-84.77 1137.94,-74.23 1132.23,-83.16 1139.04,-84.77"/>
</a>
</g>
</g>
<!-- Node19&#45;&gt;Node11 -->
<g id="edge37_Node000019_Node000011" class="edge">
<title>Node19&#45;&gt;Node11</title>
<g id="a_edge37_Node000019_Node000011"><a xlink:title=" ">
<path fill="none" stroke="#63b8ff" d="M1065.33,-247.37C1026.27,-236 957.49,-216 914.18,-203.4"/>
<polygon fill="#63b8ff" stroke="#63b8ff" points="915.13,-200.03 904.55,-200.6 913.17,-206.75 915.13,-200.03"/>
</a>
</g>
</g>
<!-- Node20 -->
<g id="Node000020" class="node">
<title>Node20</title>
<g id="a_Node000020"><a xlink:href="ConsoleSink_8ixx.html" target="_top" xlink:title="Log sink that writes to stdout.">
<polygon fill="white" stroke="#666666" points="1390,-134.5 1244,-134.5 1244,-115.5 1390,-115.5 1390,-134.5"/>
<text text-anchor="middle" x="1317" y="-122.5" font-family="Helvetica,sans-Serif" font-size="10.00">helios.util.log.ConsoleSink</text>
</a>
</g>
</g>
<!-- Node19&#45;&gt;Node20 -->
<g id="edge39_Node000019_Node000020" class="edge">
<title>Node19&#45;&gt;Node20</title>
<g id="a_edge39_Node000019_Node000020"><a xlink:title=" ">
<path fill="none" stroke="#63b8ff" d="M1112.79,-247.45C1132.45,-237.86 1164.91,-221.6 1192,-206 1229.42,-184.45 1271.41,-156.83 1295.96,-140.32"/>
<polygon fill="#63b8ff" stroke="#63b8ff" points="1298.14,-143.07 1304.47,-134.58 1294.22,-137.27 1298.14,-143.07"/>
</a>
</g>
</g>
<!-- Node20&#45;&gt;Node8 -->
<g id="edge40_Node000020_Node000008" class="edge">
<title>Node20&#45;&gt;Node8</title>
<g id="a_edge40_Node000020_Node000008"><a xlink:title=" ">
<path fill="none" stroke="#63b8ff" d="M1305.41,-115.28C1286.43,-101.27 1247.19,-73.46 1211,-55 1183.6,-41.02 1150.72,-28.81 1126.98,-20.73"/>
<polygon fill="#63b8ff" stroke="#63b8ff" points="1128,-17.38 1117.4,-17.53 1125.78,-24.02 1128,-17.38"/>
</a>
</g>
</g>
<!-- Node20&#45;&gt;Node10 -->
<g id="edge41_Node000020_Node000010" class="edge">
<title>Node20&#45;&gt;Node10</title>
<g id="a_edge41_Node000020_Node000010"><a xlink:title=" ">
<path fill="none" stroke="#63b8ff" d="M1291.26,-115.49C1260.72,-105.4 1209.63,-88.51 1175.38,-77.19"/>
<polygon fill="#63b8ff" stroke="#63b8ff" points="1176.36,-73.83 1165.77,-74.02 1174.16,-80.48 1176.36,-73.83"/>
</a>
</g>
</g>
<!-- Node21&#45;&gt;Node6 -->
<g id="edge51_Node000021_Node000006" class="edge">
<title>Node21&#45;&gt;Node6</title>
<g id="a_edge51_Node000021_Node000006"><a xlink:title=" ">
<path fill="none" stroke="#63b8ff" d="M1225.05,-241.96C1186.5,-205.78 1086.38,-112.02 1082,-110 1028.7,-85.37 864.99,-73.3 774.22,-68.36"/>
<polygon fill="#63b8ff" stroke="#63b8ff" points="774.23,-64.85 764.06,-67.82 773.86,-71.84 774.23,-64.85"/>
</a>
</g>
</g>
<!-- Node22 -->
<g id="Node000022" class="node">
<title>Node22</title>
<g id="a_Node000022"><a xlink:href="UniformSemantics_8ixx.html" target="_top" xlink:title="Definitions of uniform semantics used by shaders.">
<polygon fill="white" stroke="#666666" points="1746,-140 1612,-140 1612,-110 1746,-110 1746,-140"/>
<text text-anchor="start" x="1620" y="-128" font-family="Helvetica,sans-Serif" font-size="10.00">helios.rendering.shader.</text>
<text text-anchor="middle" x="1679" y="-117" font-family="Helvetica,sans-Serif" font-size="10.00">UniformSemantics</text>
</a>
</g>
</g>
<!-- Node21&#45;&gt;Node22 -->
<g id="edge44_Node000021_Node000022" class="edge">
<title>Node21&#45;&gt;Node22</title>
<g id="a_edge44_Node000021_Node000022"><a xlink:title=" ">
<path fill="none" stroke="#63b8ff" d="M1319.35,-241.96C1364.28,-233.23 1421.26,-220.85 1471,-206 1530.16,-188.34 1596.38,-161.61 1637.88,-143.98"/>
<polygon fill="#63b8ff" stroke="#63b8ff" points="1639.29,-147.19 1647.11,-140.04 1636.54,-140.75 1639.29,-147.19"/>
</a>
</g>
</g>
<!-- Node21&#45;&gt;Node23 -->
<g id="edge45_Node000021_Node000023" class="edge">
<title>Node21&#45;&gt;Node23</title>
<g id="a_edge45_Node000021_Node000023"><a xlink:title=" ">
<path fill="none" stroke="#63b8ff" d="M1274.02,-241.95C1296.83,-232.53 1327.08,-220.04 1351.62,-209.91"/>
<polygon fill="#63b8ff" stroke="#63b8ff" points="1353.16,-213.06 1361.06,-206.01 1350.49,-206.59 1353.16,-213.06"/>
</a>
</g>
</g>
<!-- Node23&#45;&gt;Node6 -->
<g id="edge49_Node000023_Node000006" class="edge">
<title>Node23&#45;&gt;Node6</title>
<g id="a_edge49_Node000023_Node000006"><a xlink:title=" ">
<path fill="none" stroke="#63b8ff" d="M1349.54,-175.95C1282.69,-155.46 1160.93,-118.85 1116,-110 996.4,-86.44 854.26,-74.42 774.45,-69.08"/>
<polygon fill="#63b8ff" stroke="#63b8ff" points="774.29,-65.57 764.08,-68.41 773.83,-72.55 774.29,-65.57"/>
</a>
</g>
</g>
<!-- Node23&#45;&gt;Node22 -->
<g id="edge50_Node000023_Node000022" class="edge">
<title>Node23&#45;&gt;Node22</title>
<g id="a_edge50_Node000023_Node000022"><a xlink:title=" ">
<path fill="none" stroke="#63b8ff" d="M1457.33,-175.95C1501.44,-166.01 1560.72,-152.65 1606.88,-142.25"/>
<polygon fill="#63b8ff" stroke="#63b8ff" points="1607.83,-145.63 1616.82,-140.01 1606.3,-138.8 1607.83,-145.63"/>
</a>
</g>
</g>
<!-- Node24 -->
<g id="Node000024" class="node">
<title>Node24</title>
<g id="a_Node000024"><a xlink:title=" ">
<polygon fill="#e0e0e0" stroke="#999999" points="1450,-134.5 1408,-134.5 1408,-115.5 1450,-115.5 1450,-134.5"/>
<text text-anchor="middle" x="1429" y="-122.5" font-family="Helvetica,sans-Serif" font-size="10.00">array</text>
</a>
</g>
</g>
<!-- Node23&#45;&gt;Node24 -->
<g id="edge46_Node000023_Node000024" class="edge">
<title>Node23&#45;&gt;Node24</title>
<g id="a_edge46_Node000023_Node000024"><a xlink:title=" ">
<path fill="none" stroke="#63b8ff" d="M1402.55,-175.8C1407.53,-166.41 1414.12,-154.02 1419.47,-143.95"/>
<polygon fill="#63b8ff" stroke="#63b8ff" points="1422.7,-145.32 1424.3,-134.84 1416.52,-142.03 1422.7,-145.32"/>
</a>
</g>
</g>
<!-- Node25 -->
<g id="Node000025" class="node">
<title>Node25</title>
<g id="a_Node000025"><a xlink:title=" ">
<polygon fill="#e0e0e0" stroke="#999999" points="1524,-134.5 1468,-134.5 1468,-115.5 1524,-115.5 1524,-134.5"/>
<text text-anchor="middle" x="1496" y="-122.5" font-family="Helvetica,sans-Serif" font-size="10.00">optional</text>
</a>
</g>
</g>
<!-- Node23&#45;&gt;Node25 -->
<g id="edge47_Node000023_Node000025" class="edge">
<title>Node23&#45;&gt;Node25</title>
<g id="a_edge47_Node000023_Node000025"><a xlink:title=" ">
<path fill="none" stroke="#63b8ff" d="M1417.42,-175.8C1434.19,-165.17 1457.01,-150.7 1473.75,-140.1"/>
<polygon fill="#63b8ff" stroke="#63b8ff" points="1475.76,-142.97 1482.34,-134.66 1472.02,-137.05 1475.76,-142.97"/>
</a>
</g>
</g>
<!-- Node26 -->
<g id="Node000026" class="node">
<title>Node26</title>
<g id="a_Node000026"><a xlink:title=" ">
<polygon fill="#e0e0e0" stroke="#999999" points="1593.5,-134.5 1542.5,-134.5 1542.5,-115.5 1593.5,-115.5 1593.5,-134.5"/>
<text text-anchor="middle" x="1568" y="-122.5" font-family="Helvetica,sans-Serif" font-size="10.00">variant</text>
</a>
</g>
</g>
<!-- Node23&#45;&gt;Node26 -->
<g id="edge48_Node000023_Node000026" class="edge">
<title>Node23&#45;&gt;Node26</title>
<g id="a_edge48_Node000023_Node000026"><a xlink:title=" ">
<path fill="none" stroke="#63b8ff" d="M1434.99,-175.9C1462.61,-166.07 1500.14,-152.52 1533,-140 1534.41,-139.46 1535.86,-138.91 1537.32,-138.34"/>
<polygon fill="#63b8ff" stroke="#63b8ff" points="1538.92,-141.47 1546.94,-134.55 1536.36,-134.96 1538.92,-141.47"/>
</a>
</g>
</g>
<!-- Node27&#45;&gt;Node7 -->
<g id="edge54_Node000027_Node000007" class="edge">
<title>Node27&#45;&gt;Node7</title>
<g id="a_edge54_Node000027_Node000007"><a xlink:title=" ">
<path fill="none" stroke="#63b8ff" d="M974.83,-241.75C979.44,-231.85 985.48,-218.28 990,-206 997.66,-185.22 1004.72,-160.75 1009.17,-144.4"/>
<polygon fill="#63b8ff" stroke="#63b8ff" points="1012.61,-145.09 1011.81,-134.52 1005.85,-143.28 1012.61,-145.09"/>
</a>
</g>
</g>
<!-- Node27&#45;&gt;Node11 -->
<g id="edge55_Node000027_Node000011" class="edge">
<title>Node27&#45;&gt;Node11</title>
<g id="a_edge55_Node000027_Node000011"><a xlink:title=" ">
<path fill="none" stroke="#63b8ff" d="M947.36,-241.8C932.06,-231.27 911.29,-216.97 895.92,-206.4"/>
<polygon fill="#63b8ff" stroke="#63b8ff" points="897.8,-203.44 887.58,-200.66 893.84,-209.21 897.8,-203.44"/>
</a>
</g>
</g>
<!-- Node27&#45;&gt;Node23 -->
<g id="edge53_Node000027_Node000023" class="edge">
<title>Node27&#45;&gt;Node23</title>
<g id="a_edge53_Node000027_Node000023"><a xlink:title=" ">
<path fill="none" stroke="#63b8ff" d="M1035.11,-243.48C1038.11,-242.97 1041.09,-242.48 1044,-242 1137.94,-226.66 1246.47,-211.61 1317.68,-202.09"/>
<polygon fill="#63b8ff" stroke="#63b8ff" points="1318.46,-205.52 1327.91,-200.73 1317.54,-198.58 1318.46,-205.52"/>
</a>
</g>
</g>
</g>
</svg>
