<?xml version="1.0" encoding="UTF-8" standalone="no"?>
<!DOCTYPE svg PUBLIC "-//W3C//DTD SVG 1.1//EN"
 "http://www.w3.org/Graphics/SVG/1.1/DTD/svg11.dtd">
<!-- Generated by graphviz version 2.43.0 (0)
 -->
<!-- Title: include/helios/rendering/Renderable.ixx Pages: 1 -->
<svg width="1678pt" height="412pt"
 viewBox="0.00 0.00 1678.00 412.00" xmlns="http://www.w3.org/2000/svg" xmlns:xlink="http://www.w3.org/1999/xlink">
<g id="graph0" class="graph" transform="scale(1 1) rotate(0) translate(4 408)">
<title>include/helios/rendering/Renderable.ixx</title>
<!-- Node1 -->
<g id="Node000001" class="node">
<title>Node1</title>
<g id="a_Node000001"><a xlink:title=" ">
<polygon fill="#999999" stroke="#666666" points="1050,-404 916,-404 916,-374 1050,-374 1050,-404"/>
<text text-anchor="start" x="924" y="-392" font-family="Helvetica,sans-Serif" font-size="10.00">include/helios/rendering</text>
<text text-anchor="middle" x="983" y="-381" font-family="Helvetica,sans-Serif" font-size="10.00">/Renderable.ixx</text>
</a>
</g>
</g>
<!-- Node2 -->
<g id="Node000002" class="node">
<title>Node2</title>
<g id="a_Node000002"><a xlink:title=" ">
<polygon fill="#e0e0e0" stroke="#999999" points="1103,-79.5 1045,-79.5 1045,-60.5 1103,-60.5 1103,-79.5"/>
<text text-anchor="middle" x="1074" y="-67.5" font-family="Helvetica,sans-Serif" font-size="10.00">memory</text>
</a>
</g>
</g>
<!-- Node1&#45;&gt;Node2 -->
<g id="edge1_Node000001_Node000002" class="edge">
<title>Node1&#45;&gt;Node2</title>
<g id="a_edge1_Node000001_Node000002"><a xlink:title=" ">
<path fill="none" stroke="#63b8ff" d="M1050.12,-382.85C1222.99,-368.71 1670,-326.08 1670,-263.5 1670,-263.5 1670,-263.5 1670,-201 1670,-156.56 1648.79,-142.7 1610,-121 1524.85,-73.36 1222.04,-70.17 1113.26,-70.61"/>
<polygon fill="#63b8ff" stroke="#63b8ff" points="1113.04,-67.11 1103.06,-70.67 1113.08,-74.11 1113.04,-67.11"/>
</a>
</g>
</g>
<!-- Node3 -->
<g id="Node000003" class="node">
<title>Node3</title>
<g id="a_Node000003"><a xlink:title=" ">
<polygon fill="#e0e0e0" stroke="#999999" points="1015.5,-211.5 950.5,-211.5 950.5,-192.5 1015.5,-192.5 1015.5,-211.5"/>
<text text-anchor="middle" x="983" y="-199.5" font-family="Helvetica,sans-Serif" font-size="10.00">stdexcept</text>
</a>
</g>
</g>
<!-- Node1&#45;&gt;Node3 -->
<g id="edge2_Node000001_Node000003" class="edge">
<title>Node1&#45;&gt;Node3</title>
<g id="a_edge2_Node000001_Node000003"><a xlink:title=" ">
<path fill="none" stroke="#63b8ff" d="M983,-373.79C983,-340.81 983,-259.05 983,-221.9"/>
<polygon fill="#63b8ff" stroke="#63b8ff" points="986.5,-221.53 983,-211.53 979.5,-221.53 986.5,-221.53"/>
</a>
</g>
</g>
<!-- Node4 -->
<g id="Node000004" class="node">
<title>Node4</title>
<g id="a_Node000004"><a xlink:href="Logger_8ixx.html" target="_top" xlink:title=" ">
<polygon fill="white" stroke="#666666" points="634.5,-79.5 515.5,-79.5 515.5,-60.5 634.5,-60.5 634.5,-79.5"/>
<text text-anchor="middle" x="575" y="-67.5" font-family="Helvetica,sans-Serif" font-size="10.00">helios.util.log.Logger</text>
</a>
</g>
</g>
<!-- Node1&#45;&gt;Node4 -->
<g id="edge3_Node000001_Node000004" class="edge">
<title>Node1&#45;&gt;Node4</title>
<g id="a_edge3_Node000001_Node000004"><a xlink:title=" ">
<path fill="none" stroke="#63b8ff" d="M915.82,-386.57C694.15,-380.96 0,-356.02 0,-263.5 0,-263.5 0,-263.5 0,-201 0,-62.3 347.21,-99.14 465,-85 478.02,-83.44 491.91,-81.71 505.27,-80.03"/>
<polygon fill="#63b8ff" stroke="#63b8ff" points="505.88,-83.48 515.36,-78.75 505,-76.53 505.88,-83.48"/>
</a>
</g>
</g>
<!-- Node7 -->
<g id="Node000007" class="node">
<title>Node7</title>
<g id="a_Node000007"><a xlink:href="LogManager_8ixx.html" target="_top" xlink:title=" ">
<polygon fill="white" stroke="#666666" points="856,-145.5 710,-145.5 710,-126.5 856,-126.5 856,-145.5"/>
<text text-anchor="middle" x="783" y="-133.5" font-family="Helvetica,sans-Serif" font-size="10.00">helios.util.log.LogManager</text>
</a>
</g>
</g>
<!-- Node1&#45;&gt;Node7 -->
<g id="edge6_Node000001_Node000007" class="edge">
<title>Node1&#45;&gt;Node7</title>
<g id="a_edge6_Node000001_Node000007"><a xlink:title=" ">
<path fill="none" stroke="#63b8ff" d="M971.67,-373.79C937.13,-330.43 833.21,-200.01 796.24,-153.61"/>
<polygon fill="#63b8ff" stroke="#63b8ff" points="798.93,-151.37 789.96,-145.73 793.45,-155.73 798.93,-151.37"/>
</a>
</g>
</g>
<!-- Node10 -->
<g id="Node000010" class="node">
<title>Node10</title>
<g id="a_Node000010"><a xlink:href="MaterialInstance_8ixx.html" target="_top" xlink:title=" ">
<polygon fill="white" stroke="#666666" points="741.5,-338 568.5,-338 568.5,-308 741.5,-308 741.5,-338"/>
<text text-anchor="start" x="576.5" y="-326" font-family="Helvetica,sans-Serif" font-size="10.00">helios.rendering.model.Material</text>
<text text-anchor="middle" x="655" y="-315" font-family="Helvetica,sans-Serif" font-size="10.00">Instance</text>
</a>
</g>
</g>
<!-- Node1&#45;&gt;Node10 -->
<g id="edge12_Node000001_Node000010" class="edge">
<title>Node1&#45;&gt;Node10</title>
<g id="a_edge12_Node000001_Node000010"><a xlink:title=" ">
<path fill="none" stroke="#63b8ff" d="M915.83,-374.89C864.05,-364.79 792.19,-350.77 737.01,-340"/>
<polygon fill="#63b8ff" stroke="#63b8ff" points="737.4,-336.51 726.91,-338.03 736.06,-343.38 737.4,-336.51"/>
</a>
</g>
</g>
<!-- Node11 -->
<g id="Node000011" class="node">
<title>Node11</title>
<g id="a_Node000011"><a xlink:href="math_2types_2__module_8ixx.html" target="_top" xlink:title=" ">
<polygon fill="white" stroke="#666666" points="973,-79.5 869,-79.5 869,-60.5 973,-60.5 973,-79.5"/>
<text text-anchor="middle" x="921" y="-67.5" font-family="Helvetica,sans-Serif" font-size="10.00">helios.math.types</text>
</a>
</g>
</g>
<!-- Node1&#45;&gt;Node11 -->
<g id="edge48_Node000001_Node000011" class="edge">
<title>Node1&#45;&gt;Node11</title>
<g id="a_edge48_Node000001_Node000011"><a xlink:title=" ">
<path fill="none" stroke="#63b8ff" d="M991.11,-373.92C1009.25,-340.52 1049.55,-254.25 1024,-187 1007.4,-143.31 965.98,-105.55 941.01,-85.75"/>
<polygon fill="#63b8ff" stroke="#63b8ff" points="942.99,-82.86 932.93,-79.52 938.71,-88.4 942.99,-82.86"/>
</a>
</g>
</g>
<!-- Node23 -->
<g id="Node000023" class="node">
<title>Node23</title>
<g id="a_Node000023"><a xlink:href="Mesh_8ixx.html" target="_top" xlink:title=" ">
<polygon fill="white" stroke="#666666" points="1306,-272 1148,-272 1148,-253 1306,-253 1306,-272"/>
<text text-anchor="middle" x="1227" y="-260" font-family="Helvetica,sans-Serif" font-size="10.00">helios.rendering.model.Mesh</text>
</a>
</g>
</g>
<!-- Node1&#45;&gt;Node23 -->
<g id="edge49_Node000001_Node000023" class="edge">
<title>Node1&#45;&gt;Node23</title>
<g id="a_edge49_Node000001_Node000023"><a xlink:title=" ">
<path fill="none" stroke="#63b8ff" d="M1041.28,-373.95C1070.17,-365.69 1105,-353.75 1134,-338 1163.68,-321.88 1193.33,-296.01 1210.92,-279.39"/>
<polygon fill="#63b8ff" stroke="#63b8ff" points="1213.76,-281.52 1218.53,-272.06 1208.9,-276.48 1213.76,-281.52"/>
</a>
</g>
</g>
<!-- Node5 -->
<g id="Node000005" class="node">
<title>Node5</title>
<g id="a_Node000005"><a xlink:title=" ">
<polygon fill="#e0e0e0" stroke="#999999" points="605,-19 545,-19 545,0 605,0 605,-19"/>
<text text-anchor="middle" x="575" y="-7" font-family="Helvetica,sans-Serif" font-size="10.00">iostream</text>
</a>
</g>
</g>
<!-- Node4&#45;&gt;Node5 -->
<g id="edge4_Node000004_Node000005" class="edge">
<title>Node4&#45;&gt;Node5</title>
<g id="a_edge4_Node000004_Node000005"><a xlink:title=" ">
<path fill="none" stroke="#63b8ff" d="M575,-60.37C575,-52.25 575,-39.81 575,-29.39"/>
<polygon fill="#63b8ff" stroke="#63b8ff" points="578.5,-29.17 575,-19.17 571.5,-29.17 578.5,-29.17"/>
</a>
</g>
</g>
<!-- Node6 -->
<g id="Node000006" class="node">
<title>Node6</title>
<g id="a_Node000006"><a xlink:title=" ">
<polygon fill="#e0e0e0" stroke="#999999" points="676,-19 632,-19 632,0 676,0 676,-19"/>
<text text-anchor="middle" x="654" y="-7" font-family="Helvetica,sans-Serif" font-size="10.00">string</text>
</a>
</g>
</g>
<!-- Node4&#45;&gt;Node6 -->
<g id="edge5_Node000004_Node000006" class="edge">
<title>Node4&#45;&gt;Node6</title>
<g id="a_edge5_Node000004_Node000006"><a xlink:title=" ">
<path fill="none" stroke="#63b8ff" d="M586.66,-60.37C599.14,-51.12 619.18,-36.28 634.16,-25.19"/>
<polygon fill="#63b8ff" stroke="#63b8ff" points="636.34,-27.93 642.3,-19.17 632.18,-22.31 636.34,-27.93"/>
</a>
</g>
</g>
<!-- Node7&#45;&gt;Node2 -->
<g id="edge9_Node000007_Node000002" class="edge">
<title>Node7&#45;&gt;Node2</title>
<g id="a_edge9_Node000007_Node000002"><a xlink:title=" ">
<path fill="none" stroke="#63b8ff" d="M821.94,-126.44C877.64,-114.19 979.44,-91.8 1035.11,-79.55"/>
<polygon fill="#63b8ff" stroke="#63b8ff" points="1035.93,-82.96 1044.94,-77.39 1034.43,-76.12 1035.93,-82.96"/>
</a>
</g>
</g>
<!-- Node7&#45;&gt;Node4 -->
<g id="edge11_Node000007_Node000004" class="edge">
<title>Node7&#45;&gt;Node4</title>
<g id="a_edge11_Node000007_Node000004"><a xlink:title=" ">
<path fill="none" stroke="#63b8ff" d="M754.95,-126.37C718.17,-115.05 653.53,-95.16 612.56,-82.56"/>
<polygon fill="#63b8ff" stroke="#63b8ff" points="613.53,-79.19 602.94,-79.6 611.47,-85.88 613.53,-79.19"/>
</a>
</g>
</g>
<!-- Node7&#45;&gt;Node6 -->
<g id="edge7_Node000007_Node000006" class="edge">
<title>Node7&#45;&gt;Node6</title>
<g id="a_edge7_Node000007_Node000006"><a xlink:title=" ">
<path fill="none" stroke="#63b8ff" d="M751.84,-126.34C729.67,-118.74 700.64,-105.6 682,-85 667.84,-69.35 660.61,-45.85 657.08,-29.44"/>
<polygon fill="#63b8ff" stroke="#63b8ff" points="660.48,-28.58 655.19,-19.4 653.6,-29.87 660.48,-28.58"/>
</a>
</g>
</g>
<!-- Node8 -->
<g id="Node000008" class="node">
<title>Node8</title>
<g id="a_Node000008"><a xlink:title=" ">
<polygon fill="#e0e0e0" stroke="#999999" points="784.5,-79.5 691.5,-79.5 691.5,-60.5 784.5,-60.5 784.5,-79.5"/>
<text text-anchor="middle" x="738" y="-67.5" font-family="Helvetica,sans-Serif" font-size="10.00">unordered_map</text>
</a>
</g>
</g>
<!-- Node7&#45;&gt;Node8 -->
<g id="edge8_Node000007_Node000008" class="edge">
<title>Node7&#45;&gt;Node8</title>
<g id="a_edge8_Node000007_Node000008"><a xlink:title=" ">
<path fill="none" stroke="#63b8ff" d="M776.93,-126.37C770.13,-116.69 758.91,-100.74 750.26,-88.44"/>
<polygon fill="#63b8ff" stroke="#63b8ff" points="752.88,-86.07 744.26,-79.91 747.15,-90.1 752.88,-86.07"/>
</a>
</g>
</g>
<!-- Node9 -->
<g id="Node000009" class="node">
<title>Node9</title>
<g id="a_Node000009"><a xlink:title=" ">
<polygon fill="#e0e0e0" stroke="#999999" points="851,-79.5 803,-79.5 803,-60.5 851,-60.5 851,-79.5"/>
<text text-anchor="middle" x="827" y="-67.5" font-family="Helvetica,sans-Serif" font-size="10.00">mutex</text>
</a>
</g>
</g>
<!-- Node7&#45;&gt;Node9 -->
<g id="edge10_Node000007_Node000009" class="edge">
<title>Node7&#45;&gt;Node9</title>
<g id="a_edge10_Node000007_Node000009"><a xlink:title=" ">
<path fill="none" stroke="#63b8ff" d="M788.93,-126.37C795.59,-116.69 806.56,-100.74 815.01,-88.44"/>
<polygon fill="#63b8ff" stroke="#63b8ff" points="818.1,-90.13 820.88,-79.91 812.33,-86.16 818.1,-90.13"/>
</a>
</g>
</g>
<!-- Node10&#45;&gt;Node2 -->
<g id="edge13_Node000010_Node000002" class="edge">
<title>Node10&#45;&gt;Node2</title>
<g id="a_edge13_Node000010_Node000002"><a xlink:title=" ">
<path fill="none" stroke="#63b8ff" d="M704.3,-307.99C731.76,-299.31 766.13,-286.96 795,-272 902.11,-216.5 1013.97,-123.38 1056.34,-86.61"/>
<polygon fill="#63b8ff" stroke="#63b8ff" points="1058.85,-89.06 1064.08,-79.84 1054.25,-83.79 1058.85,-89.06"/>
</a>
</g>
</g>
<!-- Node10&#45;&gt;Node4 -->
<g id="edge16_Node000010_Node000004" class="edge">
<title>Node10&#45;&gt;Node4</title>
<g id="a_edge16_Node000010_Node000004"><a xlink:title=" ">
<path fill="none" stroke="#63b8ff" d="M568.27,-321.06C416.72,-317.25 114.33,-299.27 57,-217 49.38,-206.06 48.94,-197.62 57,-187 84.35,-150.95 374.57,-101.95 508.26,-81.08"/>
<polygon fill="#63b8ff" stroke="#63b8ff" points="509.04,-84.5 518.38,-79.51 507.96,-77.58 509.04,-84.5"/>
</a>
</g>
</g>
<!-- Node10&#45;&gt;Node7 -->
<g id="edge30_Node000010_Node000007" class="edge">
<title>Node10&#45;&gt;Node7</title>
<g id="a_edge30_Node000010_Node000007"><a xlink:title=" ">
<path fill="none" stroke="#63b8ff" d="M699.16,-307.95C717.36,-300.08 737.15,-288.45 750,-272 777.02,-237.4 782.3,-183.8 783.1,-155.67"/>
<polygon fill="#63b8ff" stroke="#63b8ff" points="786.6,-155.66 783.21,-145.62 779.6,-155.58 786.6,-155.66"/>
</a>
</g>
</g>
<!-- Node10&#45;&gt;Node11 -->
<g id="edge14_Node000010_Node000011" class="edge">
<title>Node10&#45;&gt;Node11</title>
<g id="a_edge14_Node000010_Node000011"><a xlink:title=" ">
<path fill="none" stroke="#63b8ff" d="M700.94,-307.97C723.21,-299.75 749.5,-287.84 770,-272 838.81,-218.86 891.96,-126.72 912.16,-88.45"/>
<polygon fill="#63b8ff" stroke="#63b8ff" points="915.28,-90.03 916.77,-79.54 909.06,-86.81 915.28,-90.03"/>
</a>
</g>
</g>
<!-- Node12 -->
<g id="Node000012" class="node">
<title>Node12</title>
<g id="a_Node000012"><a xlink:href="UniformValueMap_8ixx.html" target="_top" xlink:title=" ">
<polygon fill="white" stroke="#666666" points="436,-151 302,-151 302,-121 436,-121 436,-151"/>
<text text-anchor="start" x="310" y="-139" font-family="Helvetica,sans-Serif" font-size="10.00">helios.rendering.shader.</text>
<text text-anchor="middle" x="369" y="-128" font-family="Helvetica,sans-Serif" font-size="10.00">UniformValueMap</text>
</a>
</g>
</g>
<!-- Node10&#45;&gt;Node12 -->
<g id="edge17_Node000010_Node000012" class="edge">
<title>Node10&#45;&gt;Node12</title>
<g id="a_edge17_Node000010_Node000012"><a xlink:title=" ">
<path fill="none" stroke="#63b8ff" d="M568.43,-310.16C468.14,-294.45 312.14,-263.23 277,-217 268.93,-206.38 270.19,-198.46 277,-187 285.16,-173.29 298.53,-163.1 312.59,-155.63"/>
<polygon fill="#63b8ff" stroke="#63b8ff" points="314.43,-158.63 321.88,-151.11 311.36,-152.34 314.43,-158.63"/>
</a>
</g>
</g>
<!-- Node18 -->
<g id="Node000018" class="node">
<title>Node18</title>
<g id="a_Node000018"><a xlink:href="Shader_8ixx.html" target="_top" xlink:title=" ">
<polygon fill="white" stroke="#666666" points="640,-217 506,-217 506,-187 640,-187 640,-217"/>
<text text-anchor="start" x="514" y="-205" font-family="Helvetica,sans-Serif" font-size="10.00">helios.rendering.shader.</text>
<text text-anchor="middle" x="573" y="-194" font-family="Helvetica,sans-Serif" font-size="10.00">Shader</text>
</a>
</g>
</g>
<!-- Node10&#45;&gt;Node18 -->
<g id="edge24_Node000010_Node000018" class="edge">
<title>Node10&#45;&gt;Node18</title>
<g id="a_edge24_Node000010_Node000018"><a xlink:title=" ">
<path fill="none" stroke="#63b8ff" d="M604.88,-307.94C587.22,-300.31 569.23,-288.87 559,-272 550.74,-258.38 554.52,-240.74 560.22,-226.7"/>
<polygon fill="#63b8ff" stroke="#63b8ff" points="563.58,-227.78 564.57,-217.23 557.22,-224.86 563.58,-227.78"/>
</a>
</g>
</g>
<!-- Node19 -->
<g id="Node000019" class="node">
<title>Node19</title>
<g id="a_Node000019"><a xlink:href="MaterialPropertiesOverride_8ixx.html" target="_top" xlink:title=" ">
<polygon fill="white" stroke="#666666" points="230,-217 66,-217 66,-187 230,-187 230,-217"/>
<text text-anchor="start" x="74" y="-205" font-family="Helvetica,sans-Serif" font-size="10.00">helios.rendering.model.config.</text>
<text text-anchor="middle" x="148" y="-194" font-family="Helvetica,sans-Serif" font-size="10.00">MaterialPropertiesOverride</text>
</a>
</g>
</g>
<!-- Node10&#45;&gt;Node19 -->
<g id="edge31_Node000010_Node000019" class="edge">
<title>Node10&#45;&gt;Node19</title>
<g id="a_edge31_Node000010_Node000019"><a xlink:title=" ">
<path fill="none" stroke="#63b8ff" d="M568.09,-316.51C465.4,-309.15 301.25,-294.35 244,-272 215.98,-261.06 188.58,-240.03 170.27,-224.05"/>
<polygon fill="#63b8ff" stroke="#63b8ff" points="172.31,-221.19 162.53,-217.12 167.64,-226.4 172.31,-221.19"/>
</a>
</g>
</g>
<!-- Node20 -->
<g id="Node000020" class="node">
<title>Node20</title>
<g id="a_Node000020"><a xlink:href="Material_8ixx.html" target="_top" xlink:title=" ">
<polygon fill="white" stroke="#666666" points="741.5,-272 568.5,-272 568.5,-253 741.5,-253 741.5,-272"/>
<text text-anchor="middle" x="655" y="-260" font-family="Helvetica,sans-Serif" font-size="10.00">helios.rendering.model.Material</text>
</a>
</g>
</g>
<!-- Node10&#45;&gt;Node20 -->
<g id="edge36_Node000010_Node000020" class="edge">
<title>Node10&#45;&gt;Node20</title>
<g id="a_edge36_Node000010_Node000020"><a xlink:title=" ">
<path fill="none" stroke="#63b8ff" d="M655,-307.84C655,-300.21 655,-290.7 655,-282.45"/>
<polygon fill="#63b8ff" stroke="#63b8ff" points="658.5,-282.27 655,-272.27 651.5,-282.27 658.5,-282.27"/>
</a>
</g>
</g>
<!-- Node11&#45;&gt;Node11 -->
<g id="edge15_Node000011_Node000011" class="edge">
<title>Node11&#45;&gt;Node11</title>
<g id="a_edge15_Node000011_Node000011"><a xlink:title=" ">
<path fill="none" stroke="#63b8ff" d="M946.85,-79.53C968.44,-83.61 991,-80.43 991,-70 991,-61.2 974.94,-57.56 956.95,-59.09"/>
<polygon fill="#63b8ff" stroke="#63b8ff" points="956.28,-55.65 946.85,-60.47 957.23,-62.58 956.28,-55.65"/>
</a>
</g>
</g>
<!-- Node12&#45;&gt;Node11 -->
<g id="edge21_Node000012_Node000011" class="edge">
<title>Node12&#45;&gt;Node11</title>
<g id="a_edge21_Node000012_Node000011"><a xlink:title=" ">
<path fill="none" stroke="#63b8ff" d="M436.33,-129.19C551.17,-119.1 780.21,-98.17 860,-85 865.56,-84.08 871.37,-82.96 877.11,-81.76"/>
<polygon fill="#63b8ff" stroke="#63b8ff" points="878.25,-85.09 887.27,-79.53 876.75,-78.25 878.25,-85.09"/>
</a>
</g>
</g>
<!-- Node13 -->
<g id="Node000013" class="node">
<title>Node13</title>
<g id="a_Node000013"><a xlink:title=" ">
<polygon fill="#e0e0e0" stroke="#999999" points="456,-79.5 414,-79.5 414,-60.5 456,-60.5 456,-79.5"/>
<text text-anchor="middle" x="435" y="-67.5" font-family="Helvetica,sans-Serif" font-size="10.00">array</text>
</a>
</g>
</g>
<!-- Node12&#45;&gt;Node13 -->
<g id="edge18_Node000012_Node000013" class="edge">
<title>Node12&#45;&gt;Node13</title>
<g id="a_edge18_Node000012_Node000013"><a xlink:title=" ">
<path fill="none" stroke="#63b8ff" d="M383.65,-120.8C393.94,-110.82 407.72,-97.46 418.41,-87.09"/>
<polygon fill="#63b8ff" stroke="#63b8ff" points="421.14,-89.32 425.88,-79.84 416.26,-84.29 421.14,-89.32"/>
</a>
</g>
</g>
<!-- Node14 -->
<g id="Node000014" class="node">
<title>Node14</title>
<g id="a_Node000014"><a xlink:title=" ">
<polygon fill="#e0e0e0" stroke="#999999" points="326,-79.5 270,-79.5 270,-60.5 326,-60.5 326,-79.5"/>
<text text-anchor="middle" x="298" y="-67.5" font-family="Helvetica,sans-Serif" font-size="10.00">optional</text>
</a>
</g>
</g>
<!-- Node12&#45;&gt;Node14 -->
<g id="edge19_Node000012_Node000014" class="edge">
<title>Node12&#45;&gt;Node14</title>
<g id="a_edge19_Node000012_Node000014"><a xlink:title=" ">
<path fill="none" stroke="#63b8ff" d="M353.24,-120.8C342.07,-110.72 327.06,-97.19 315.51,-86.78"/>
<polygon fill="#63b8ff" stroke="#63b8ff" points="317.58,-83.94 307.81,-79.84 312.9,-89.14 317.58,-83.94"/>
</a>
</g>
</g>
<!-- Node15 -->
<g id="Node000015" class="node">
<title>Node15</title>
<g id="a_Node000015"><a xlink:title=" ">
<polygon fill="#e0e0e0" stroke="#999999" points="395.5,-79.5 344.5,-79.5 344.5,-60.5 395.5,-60.5 395.5,-79.5"/>
<text text-anchor="middle" x="370" y="-67.5" font-family="Helvetica,sans-Serif" font-size="10.00">variant</text>
</a>
</g>
</g>
<!-- Node12&#45;&gt;Node15 -->
<g id="edge20_Node000012_Node000015" class="edge">
<title>Node12&#45;&gt;Node15</title>
<g id="a_edge20_Node000012_Node000015"><a xlink:title=" ">
<path fill="none" stroke="#63b8ff" d="M369.22,-120.8C369.36,-111.7 369.55,-99.79 369.7,-89.9"/>
<polygon fill="#63b8ff" stroke="#63b8ff" points="373.21,-89.9 369.86,-79.84 366.21,-89.79 373.21,-89.9"/>
</a>
</g>
</g>
<!-- Node16 -->
<g id="Node000016" class="node">
<title>Node16</title>
<g id="a_Node000016"><a xlink:href="UniformSemantics_8ixx.html" target="_top" xlink:title=" ">
<polygon fill="white" stroke="#666666" points="252,-85 118,-85 118,-55 252,-55 252,-85"/>
<text text-anchor="start" x="126" y="-73" font-family="Helvetica,sans-Serif" font-size="10.00">helios.rendering.shader.</text>
<text text-anchor="middle" x="185" y="-62" font-family="Helvetica,sans-Serif" font-size="10.00">UniformSemantics</text>
</a>
</g>
</g>
<!-- Node12&#45;&gt;Node16 -->
<g id="edge22_Node000012_Node000016" class="edge">
<title>Node12&#45;&gt;Node16</title>
<g id="a_edge22_Node000012_Node000016"><a xlink:title=" ">
<path fill="none" stroke="#63b8ff" d="M328.62,-120.95C301.06,-111.37 264.36,-98.6 234.95,-88.37"/>
<polygon fill="#63b8ff" stroke="#63b8ff" points="235.88,-84.99 225.29,-85.01 233.58,-91.6 235.88,-84.99"/>
</a>
</g>
</g>
<!-- Node17 -->
<g id="Node000017" class="node">
<title>Node17</title>
<g id="a_Node000017"><a xlink:title=" ">
<polygon fill="#e0e0e0" stroke="#999999" points="210.5,-19 159.5,-19 159.5,0 210.5,0 210.5,-19"/>
<text text-anchor="middle" x="185" y="-7" font-family="Helvetica,sans-Serif" font-size="10.00">cwchar</text>
</a>
</g>
</g>
<!-- Node16&#45;&gt;Node17 -->
<g id="edge23_Node000016_Node000017" class="edge">
<title>Node16&#45;&gt;Node17</title>
<g id="a_edge23_Node000016_Node000017"><a xlink:title=" ">
<path fill="none" stroke="#63b8ff" d="M185,-54.84C185,-47.21 185,-37.7 185,-29.45"/>
<polygon fill="#63b8ff" stroke="#63b8ff" points="188.5,-29.27 185,-19.27 181.5,-29.27 188.5,-29.27"/>
</a>
</g>
</g>
<!-- Node18&#45;&gt;Node2 -->
<g id="edge25_Node000018_Node000002" class="edge">
<title>Node18&#45;&gt;Node2</title>
<g id="a_edge25_Node000018_Node000002"><a xlink:title=" ">
<path fill="none" stroke="#63b8ff" d="M640.13,-188.57C643.12,-188.04 646.09,-187.51 649,-187 744.86,-170.18 771.08,-176.52 865,-151 931.71,-132.87 1006.64,-101.3 1046.15,-83.73"/>
<polygon fill="#63b8ff" stroke="#63b8ff" points="1047.71,-86.86 1055.4,-79.58 1044.85,-80.48 1047.71,-86.86"/>
</a>
</g>
</g>
<!-- Node18&#45;&gt;Node4 -->
<g id="edge28_Node000018_Node000004" class="edge">
<title>Node18&#45;&gt;Node4</title>
<g id="a_edge28_Node000018_Node000004"><a xlink:title=" ">
<path fill="none" stroke="#63b8ff" d="M573.22,-186.84C573.58,-163.34 574.3,-116.26 574.71,-89.93"/>
<polygon fill="#63b8ff" stroke="#63b8ff" points="578.21,-89.8 574.87,-79.75 571.21,-89.69 578.21,-89.8"/>
</a>
</g>
</g>
<!-- Node18&#45;&gt;Node7 -->
<g id="edge29_Node000018_Node000007" class="edge">
<title>Node18&#45;&gt;Node7</title>
<g id="a_edge29_Node000018_Node000007"><a xlink:title=" ">
<path fill="none" stroke="#63b8ff" d="M619.09,-186.95C656.89,-175.43 709.75,-159.32 745.12,-148.54"/>
<polygon fill="#63b8ff" stroke="#63b8ff" points="746.51,-151.78 755.05,-145.52 744.47,-145.08 746.51,-151.78"/>
</a>
</g>
</g>
<!-- Node18&#45;&gt;Node12 -->
<g id="edge27_Node000018_Node000012" class="edge">
<title>Node18&#45;&gt;Node12</title>
<g id="a_edge27_Node000018_Node000012"><a xlink:title=" ">
<path fill="none" stroke="#63b8ff" d="M528.23,-186.95C497.41,-177.28 456.27,-164.38 423.53,-154.11"/>
<polygon fill="#63b8ff" stroke="#63b8ff" points="424.25,-150.67 413.66,-151.01 422.16,-157.35 424.25,-150.67"/>
</a>
</g>
</g>
<!-- Node18&#45;&gt;Node14 -->
<g id="edge26_Node000018_Node000014" class="edge">
<title>Node18&#45;&gt;Node14</title>
<g id="a_edge26_Node000018_Node000014"><a xlink:title=" ">
<path fill="none" stroke="#63b8ff" d="M553.89,-186.98C529.58,-169.64 485.83,-140.09 445,-121 398.4,-99.21 383.51,-102.11 335,-85 333.35,-84.42 331.67,-83.82 329.97,-83.2"/>
<polygon fill="#63b8ff" stroke="#63b8ff" points="330.84,-79.79 320.24,-79.6 328.41,-86.35 330.84,-79.79"/>
</a>
</g>
</g>
<!-- Node19&#45;&gt;Node11 -->
<g id="edge35_Node000019_Node000011" class="edge">
<title>Node19&#45;&gt;Node11</title>
<g id="a_edge35_Node000019_Node000011"><a xlink:title=" ">
<path fill="none" stroke="#63b8ff" d="M230.13,-188.28C289.87,-178.75 372.62,-165.01 445,-151 506.2,-139.16 520.59,-131.68 582,-121 704.75,-99.65 737.36,-106.96 860,-85 865.41,-84.03 871.07,-82.9 876.67,-81.7"/>
<polygon fill="#63b8ff" stroke="#63b8ff" points="877.59,-85.08 886.6,-79.51 876.08,-78.25 877.59,-85.08"/>
</a>
</g>
</g>
<!-- Node19&#45;&gt;Node12 -->
<g id="edge34_Node000019_Node000012" class="edge">
<title>Node19&#45;&gt;Node12</title>
<g id="a_edge34_Node000019_Node000012"><a xlink:title=" ">
<path fill="none" stroke="#63b8ff" d="M196.5,-186.95C230.18,-177.2 275.22,-164.16 310.84,-153.84"/>
<polygon fill="#63b8ff" stroke="#63b8ff" points="311.98,-157.16 320.61,-151.01 310.03,-150.43 311.98,-157.16"/>
</a>
</g>
</g>
<!-- Node19&#45;&gt;Node14 -->
<g id="edge32_Node000019_Node000014" class="edge">
<title>Node19&#45;&gt;Node14</title>
<g id="a_edge32_Node000019_Node000014"><a xlink:title=" ">
<path fill="none" stroke="#63b8ff" d="M164.34,-186.84C192.67,-162.28 250.71,-111.99 280.1,-86.52"/>
<polygon fill="#63b8ff" stroke="#63b8ff" points="282.64,-88.94 287.91,-79.75 278.06,-83.65 282.64,-88.94"/>
</a>
</g>
</g>
<!-- Node19&#45;&gt;Node16 -->
<g id="edge33_Node000019_Node000016" class="edge">
<title>Node19&#45;&gt;Node16</title>
<g id="a_edge33_Node000019_Node000016"><a xlink:title=" ">
<path fill="none" stroke="#63b8ff" d="M140.92,-186.88C133.72,-170.47 124.83,-142.84 134,-121 138.75,-109.68 147.46,-99.64 156.35,-91.58"/>
<polygon fill="#63b8ff" stroke="#63b8ff" points="158.73,-94.15 164.11,-85.03 154.21,-88.8 158.73,-94.15"/>
</a>
</g>
</g>
<!-- Node20&#45;&gt;Node2 -->
<g id="edge37_Node000020_Node000002" class="edge">
<title>Node20&#45;&gt;Node2</title>
<g id="a_edge37_Node000020_Node000002"><a xlink:title=" ">
<path fill="none" stroke="#63b8ff" d="M677.91,-252.91C724.61,-235.22 833.95,-192.83 923,-151 968.79,-129.49 1020.59,-101.13 1050.06,-84.6"/>
<polygon fill="#63b8ff" stroke="#63b8ff" points="1051.82,-87.63 1058.81,-79.67 1048.38,-81.53 1051.82,-87.63"/>
</a>
</g>
</g>
<!-- Node20&#45;&gt;Node3 -->
<g id="edge38_Node000020_Node000003" class="edge">
<title>Node20&#45;&gt;Node3</title>
<g id="a_edge38_Node000020_Node000003"><a xlink:title=" ">
<path fill="none" stroke="#63b8ff" d="M702.69,-252.99C766.52,-241.61 878.76,-221.59 940.07,-210.66"/>
<polygon fill="#63b8ff" stroke="#63b8ff" points="940.95,-214.06 950.18,-208.85 939.72,-207.16 940.95,-214.06"/>
</a>
</g>
</g>
<!-- Node20&#45;&gt;Node12 -->
<g id="edge47_Node000020_Node000012" class="edge">
<title>Node20&#45;&gt;Node12</title>
<g id="a_edge47_Node000020_Node000012"><a xlink:title=" ">
<path fill="none" stroke="#63b8ff" d="M606.16,-252.94C573.96,-246.06 531.53,-234.6 497,-217 477.83,-207.23 476.91,-198.93 459,-187 442.18,-175.8 422.66,-164.73 406.11,-155.88"/>
<polygon fill="#63b8ff" stroke="#63b8ff" points="407.73,-152.78 397.26,-151.2 404.46,-158.96 407.73,-152.78"/>
</a>
</g>
</g>
<!-- Node20&#45;&gt;Node18 -->
<g id="edge42_Node000020_Node000018" class="edge">
<title>Node20&#45;&gt;Node18</title>
<g id="a_edge42_Node000020_Node000018"><a xlink:title=" ">
<path fill="none" stroke="#63b8ff" d="M642.9,-252.87C631.98,-245.08 615.49,-233.32 601.28,-223.17"/>
<polygon fill="#63b8ff" stroke="#63b8ff" points="602.96,-220.07 592.78,-217.11 598.89,-225.77 602.96,-220.07"/>
</a>
</g>
</g>
<!-- Node21 -->
<g id="Node000021" class="node">
<title>Node21</title>
<g id="a_Node000021"><a xlink:href="util_2log_2__module_8ixx.html" target="_top" xlink:title=" ">
<polygon fill="white" stroke="#666666" points="741.5,-211.5 658.5,-211.5 658.5,-192.5 741.5,-192.5 741.5,-211.5"/>
<text text-anchor="middle" x="700" y="-199.5" font-family="Helvetica,sans-Serif" font-size="10.00">helios.util.log</text>
</a>
</g>
</g>
<!-- Node20&#45;&gt;Node21 -->
<g id="edge39_Node000020_Node000021" class="edge">
<title>Node20&#45;&gt;Node21</title>
<g id="a_edge39_Node000020_Node000021"><a xlink:title=" ">
<path fill="none" stroke="#63b8ff" d="M661.64,-252.87C668.29,-244.23 678.69,-230.7 686.99,-219.92"/>
<polygon fill="#63b8ff" stroke="#63b8ff" points="690.01,-221.73 693.33,-211.67 684.46,-217.46 690.01,-221.73"/>
</a>
</g>
</g>
<!-- Node22 -->
<g id="Node000022" class="node">
<title>Node22</title>
<g id="a_Node000022"><a xlink:href="MaterialProperties_8ixx.html" target="_top" xlink:title=" ">
<polygon fill="white" stroke="#666666" points="450,-217 286,-217 286,-187 450,-187 450,-217"/>
<text text-anchor="start" x="294" y="-205" font-family="Helvetica,sans-Serif" font-size="10.00">helios.rendering.model.config.</text>
<text text-anchor="middle" x="368" y="-194" font-family="Helvetica,sans-Serif" font-size="10.00">MaterialProperties</text>
</a>
</g>
</g>
<!-- Node20&#45;&gt;Node22 -->
<g id="edge43_Node000020_Node000022" class="edge">
<title>Node20&#45;&gt;Node22</title>
<g id="a_edge43_Node000020_Node000022"><a xlink:title=" ">
<path fill="none" stroke="#63b8ff" d="M613.27,-252.99C569.73,-244.12 500.43,-229.99 446.59,-219.02"/>
<polygon fill="#63b8ff" stroke="#63b8ff" points="447.22,-215.58 436.72,-217.01 445.82,-222.43 447.22,-215.58"/>
</a>
</g>
</g>
<!-- Node21&#45;&gt;Node4 -->
<g id="edge41_Node000021_Node000004" class="edge">
<title>Node21&#45;&gt;Node4</title>
<g id="a_edge41_Node000021_Node000004"><a xlink:title=" ">
<path fill="none" stroke="#63b8ff" d="M691.8,-192.47C671.23,-171.08 617.21,-114.9 590.46,-87.08"/>
<polygon fill="#63b8ff" stroke="#63b8ff" points="592.85,-84.51 583.4,-79.73 587.8,-89.37 592.85,-84.51"/>
</a>
</g>
</g>
<!-- Node21&#45;&gt;Node7 -->
<g id="edge40_Node000021_Node000007" class="edge">
<title>Node21&#45;&gt;Node7</title>
<g id="a_edge40_Node000021_Node000007"><a xlink:title=" ">
<path fill="none" stroke="#63b8ff" d="M711.19,-192.37C724.56,-182.06 747.15,-164.65 763.42,-152.09"/>
<polygon fill="#63b8ff" stroke="#63b8ff" points="765.94,-154.58 771.72,-145.7 761.66,-149.03 765.94,-154.58"/>
</a>
</g>
</g>
<!-- Node22&#45;&gt;Node11 -->
<g id="edge46_Node000022_Node000011" class="edge">
<title>Node22&#45;&gt;Node11</title>
<g id="a_edge46_Node000022_Node000011"><a xlink:title=" ">
<path fill="none" stroke="#63b8ff" d="M429.41,-186.95C472.23,-177.08 530.65,-163.47 582,-151 635,-138.13 647.95,-133.69 701,-121 771.47,-104.14 789.36,-101.1 860,-85 864.59,-83.95 869.38,-82.86 874.16,-81.77"/>
<polygon fill="#63b8ff" stroke="#63b8ff" points="874.94,-85.18 883.91,-79.53 873.38,-78.35 874.94,-85.18"/>
</a>
</g>
</g>
<!-- Node22&#45;&gt;Node12 -->
<g id="edge45_Node000022_Node000012" class="edge">
<title>Node22&#45;&gt;Node12</title>
<g id="a_edge45_Node000022_Node000012"><a xlink:title=" ">
<path fill="none" stroke="#63b8ff" d="M368.22,-186.8C368.34,-179.34 368.48,-169.99 368.62,-161.41"/>
<polygon fill="#63b8ff" stroke="#63b8ff" points="372.12,-161.22 368.78,-151.16 365.12,-161.11 372.12,-161.22"/>
</a>
</g>
</g>
<!-- Node22&#45;&gt;Node16 -->
<g id="edge44_Node000022_Node000016" class="edge">
<title>Node22&#45;&gt;Node16</title>
<g id="a_edge44_Node000022_Node000016"><a xlink:title=" ">
<path fill="none" stroke="#63b8ff" d="M346.15,-186.84C331.08,-176.98 310.67,-163.42 293,-151 264.86,-131.21 233.31,-107.69 211.61,-91.29"/>
<polygon fill="#63b8ff" stroke="#63b8ff" points="213.61,-88.41 203.53,-85.16 209.38,-93.99 213.61,-88.41"/>
</a>
</g>
</g>
<!-- Node23&#45;&gt;Node2 -->
<g id="edge50_Node000023_Node000002" class="edge">
<title>Node23&#45;&gt;Node2</title>
<g id="a_edge50_Node000023_Node000002"><a xlink:title=" ">
<path fill="none" stroke="#63b8ff" d="M1306.2,-257.34C1407.84,-251.18 1573.38,-238.03 1592,-217 1603.28,-204.26 1611.77,-144.26 1590,-121 1557.57,-86.35 1228.32,-74.86 1113.36,-71.88"/>
<polygon fill="#63b8ff" stroke="#63b8ff" points="1113.32,-68.38 1103.23,-71.63 1113.14,-75.38 1113.32,-68.38"/>
</a>
</g>
</g>
<!-- Node23&#45;&gt;Node3 -->
<g id="edge51_Node000023_Node000003" class="edge">
<title>Node23&#45;&gt;Node3</title>
<g id="a_edge51_Node000023_Node000003"><a xlink:title=" ">
<path fill="none" stroke="#63b8ff" d="M1185.3,-252.93C1145.29,-244.51 1083.26,-230.93 1030,-217 1026.87,-216.18 1023.63,-215.3 1020.39,-214.39"/>
<polygon fill="#63b8ff" stroke="#63b8ff" points="1021.33,-211.01 1010.75,-211.6 1019.39,-217.74 1021.33,-211.01"/>
</a>
</g>
</g>
<!-- Node23&#45;&gt;Node4 -->
<g id="edge53_Node000023_Node000004" class="edge">
<title>Node23&#45;&gt;Node4</title>
<g id="a_edge53_Node000023_Node000004"><a xlink:title=" ">
<path fill="none" stroke="#63b8ff" d="M1168.2,-252.96C1134.51,-246.41 1092.26,-235.28 1058,-217 1040.22,-207.51 1042.43,-195.16 1024,-187 891.93,-128.5 837.26,-198.95 701,-151 695.31,-149 631.14,-107.52 596.64,-85.1"/>
<polygon fill="#63b8ff" stroke="#63b8ff" points="598.46,-82.11 588.17,-79.59 594.64,-87.97 598.46,-82.11"/>
</a>
</g>
</g>
<!-- Node23&#45;&gt;Node7 -->
<g id="edge54_Node000023_Node000007" class="edge">
<title>Node23&#45;&gt;Node7</title>
<g id="a_edge54_Node000023_Node000007"><a xlink:title=" ">
<path fill="none" stroke="#63b8ff" d="M1210.71,-252.76C1181.13,-237.25 1116.25,-204.86 1058,-187 995,-167.68 921.45,-154.79 866.28,-146.94"/>
<polygon fill="#63b8ff" stroke="#63b8ff" points="866.59,-143.45 856.2,-145.53 865.62,-150.38 866.59,-143.45"/>
</a>
</g>
</g>
<!-- Node23&#45;&gt;Node11 -->
<g id="edge64_Node000023_Node000011" class="edge">
<title>Node23&#45;&gt;Node11</title>
<g id="a_edge64_Node000023_Node000011"><a xlink:title=" ">
<path fill="none" stroke="#63b8ff" d="M1213.58,-252.96C1191.71,-239.07 1147.02,-210.73 1109,-187 1049.57,-149.9 979.23,-106.68 943.81,-84.97"/>
<polygon fill="#63b8ff" stroke="#63b8ff" points="945.54,-81.92 935.18,-79.68 941.88,-87.89 945.54,-81.92"/>
</a>
</g>
</g>
<!-- Node24 -->
<g id="Node000024" class="node">
<title>Node24</title>
<g id="a_Node000024"><a xlink:title=" ">
<polygon fill="#e0e0e0" stroke="#999999" points="1580.5,-145.5 1533.5,-145.5 1533.5,-126.5 1580.5,-126.5 1580.5,-145.5"/>
<text text-anchor="middle" x="1557" y="-133.5" font-family="Helvetica,sans-Serif" font-size="10.00">vector</text>
</a>
</g>
</g>
<!-- Node23&#45;&gt;Node24 -->
<g id="edge52_Node000023_Node000024" class="edge">
<title>Node23&#45;&gt;Node24</title>
<g id="a_edge52_Node000023_Node000024"><a xlink:title=" ">
<path fill="none" stroke="#63b8ff" d="M1306.27,-256.82C1403.46,-250.26 1557.52,-236.86 1575,-217 1590.24,-199.69 1578.98,-172.25 1568.66,-154.44"/>
<polygon fill="#63b8ff" stroke="#63b8ff" points="1571.45,-152.3 1563.2,-145.65 1565.51,-155.99 1571.45,-152.3"/>
</a>
</g>
</g>
<!-- Node25 -->
<g id="Node000025" class="node">
<title>Node25</title>
<g id="a_Node000025"><a xlink:href="Vertex_8ixx.html" target="_top" xlink:title=" ">
<polygon fill="white" stroke="#666666" points="1261,-145.5 1131,-145.5 1131,-126.5 1261,-126.5 1261,-145.5"/>
<text text-anchor="middle" x="1196" y="-133.5" font-family="Helvetica,sans-Serif" font-size="10.00">helios.rendering.Vertex</text>
</a>
</g>
</g>
<!-- Node23&#45;&gt;Node25 -->
<g id="edge55_Node000023_Node000025" class="edge">
<title>Node23&#45;&gt;Node25</title>
<g id="a_edge55_Node000023_Node000025"><a xlink:title=" ">
<path fill="none" stroke="#63b8ff" d="M1224.62,-252.99C1222.14,-244.05 1218.19,-229.57 1215,-217 1209.7,-196.09 1204.03,-171.99 1200.28,-155.75"/>
<polygon fill="#63b8ff" stroke="#63b8ff" points="1203.67,-154.86 1198.02,-145.9 1196.85,-156.43 1203.67,-154.86"/>
</a>
</g>
</g>
<!-- Node26 -->
<g id="Node000026" class="node">
<title>Node26</title>
<g id="a_Node000026"><a xlink:href="Shape_8ixx.html" target="_top" xlink:title=" ">
<polygon fill="white" stroke="#666666" points="1566,-217 1406,-217 1406,-187 1566,-187 1566,-217"/>
<text text-anchor="start" x="1414" y="-205" font-family="Helvetica,sans-Serif" font-size="10.00">helios.rendering.asset.shape.</text>
<text text-anchor="middle" x="1486" y="-194" font-family="Helvetica,sans-Serif" font-size="10.00">Shape</text>
</a>
</g>
</g>
<!-- Node23&#45;&gt;Node26 -->
<g id="edge57_Node000023_Node000026" class="edge">
<title>Node23&#45;&gt;Node26</title>
<g id="a_edge57_Node000023_Node000026"><a xlink:title=" ">
<path fill="none" stroke="#63b8ff" d="M1264.66,-252.99C1303.71,-244.17 1365.71,-230.17 1414.17,-219.22"/>
<polygon fill="#63b8ff" stroke="#63b8ff" points="1415,-222.62 1423.98,-217.01 1413.46,-215.8 1415,-222.62"/>
</a>
</g>
</g>
<!-- Node28 -->
<g id="Node000028" class="node">
<title>Node28</title>
<g id="a_Node000028"><a xlink:href="MeshConfig_8ixx.html" target="_top" xlink:title=" ">
<polygon fill="white" stroke="#666666" points="1388,-217 1224,-217 1224,-187 1388,-187 1388,-217"/>
<text text-anchor="start" x="1232" y="-205" font-family="Helvetica,sans-Serif" font-size="10.00">helios.rendering.model.config.</text>
<text text-anchor="middle" x="1306" y="-194" font-family="Helvetica,sans-Serif" font-size="10.00">MeshConfig</text>
</a>
</g>
</g>
<!-- Node23&#45;&gt;Node28 -->
<g id="edge62_Node000023_Node000028" class="edge">
<title>Node23&#45;&gt;Node28</title>
<g id="a_edge62_Node000023_Node000028"><a xlink:title=" ">
<path fill="none" stroke="#63b8ff" d="M1238.66,-252.87C1249.18,-245.08 1265.06,-233.32 1278.76,-223.17"/>
<polygon fill="#63b8ff" stroke="#63b8ff" points="1280.99,-225.88 1286.94,-217.11 1276.82,-220.25 1280.99,-225.88"/>
</a>
</g>
</g>
<!-- Node25&#45;&gt;Node11 -->
<g id="edge56_Node000025_Node000011" class="edge">
<title>Node25&#45;&gt;Node11</title>
<g id="a_edge56_Node000025_Node000011"><a xlink:title=" ">
<path fill="none" stroke="#63b8ff" d="M1159.2,-126.44C1109.7,-114.92 1021.66,-94.43 967.6,-81.84"/>
<polygon fill="#63b8ff" stroke="#63b8ff" points="968.12,-78.37 957.58,-79.51 966.53,-85.19 968.12,-78.37"/>
</a>
</g>
</g>
<!-- Node26&#45;&gt;Node2 -->
<g id="edge58_Node000026_Node000002" class="edge">
<title>Node26&#45;&gt;Node2</title>
<g id="a_edge58_Node000026_Node000002"><a xlink:title=" ">
<path fill="none" stroke="#63b8ff" d="M1485.56,-186.93C1484.17,-168.68 1478.83,-137.27 1459,-121 1406.81,-78.16 1200.49,-71.75 1113.26,-70.99"/>
<polygon fill="#63b8ff" stroke="#63b8ff" points="1113.26,-67.49 1103.24,-70.92 1113.21,-74.49 1113.26,-67.49"/>
</a>
</g>
</g>
<!-- Node26&#45;&gt;Node24 -->
<g id="edge59_Node000026_Node000024" class="edge">
<title>Node26&#45;&gt;Node24</title>
<g id="a_edge59_Node000026_Node000024"><a xlink:title=" ">
<path fill="none" stroke="#63b8ff" d="M1501.76,-186.8C1512.93,-176.72 1527.94,-163.19 1539.49,-152.78"/>
<polygon fill="#63b8ff" stroke="#63b8ff" points="1542.1,-155.14 1547.19,-145.84 1537.42,-149.94 1542.1,-155.14"/>
</a>
</g>
</g>
<!-- Node26&#45;&gt;Node25 -->
<g id="edge61_Node000026_Node000025" class="edge">
<title>Node26&#45;&gt;Node25</title>
<g id="a_edge61_Node000026_Node000025"><a xlink:title=" ">
<path fill="none" stroke="#63b8ff" d="M1422.36,-186.95C1368.81,-175.14 1293.38,-158.49 1244.58,-147.72"/>
<polygon fill="#63b8ff" stroke="#63b8ff" points="1245.11,-144.25 1234.59,-145.52 1243.6,-151.09 1245.11,-144.25"/>
</a>
</g>
</g>
<!-- Node27 -->
<g id="Node000027" class="node">
<title>Node27</title>
<g id="a_Node000027"><a xlink:href="PrimitiveType_8ixx.html" target="_top" xlink:title=" ">
<polygon fill="white" stroke="#666666" points="1450,-151 1286,-151 1286,-121 1450,-121 1450,-151"/>
<text text-anchor="start" x="1294" y="-139" font-family="Helvetica,sans-Serif" font-size="10.00">helios.rendering.model.config.</text>
<text text-anchor="middle" x="1368" y="-128" font-family="Helvetica,sans-Serif" font-size="10.00">PrimitiveType</text>
</a>
</g>
</g>
<!-- Node26&#45;&gt;Node27 -->
<g id="edge60_Node000026_Node000027" class="edge">
<title>Node26&#45;&gt;Node27</title>
<g id="a_edge60_Node000026_Node000027"><a xlink:title=" ">
<path fill="none" stroke="#63b8ff" d="M1460.1,-186.95C1443.27,-177.83 1421.13,-165.82 1402.77,-155.86"/>
<polygon fill="#63b8ff" stroke="#63b8ff" points="1404.29,-152.7 1393.84,-151.01 1400.96,-158.86 1404.29,-152.7"/>
</a>
</g>
</g>
<!-- Node28&#45;&gt;Node27 -->
<g id="edge63_Node000028_Node000027" class="edge">
<title>Node28&#45;&gt;Node27</title>
<g id="a_edge63_Node000028_Node000027"><a xlink:title=" ">
<path fill="none" stroke="#63b8ff" d="M1319.76,-186.8C1327.79,-178.51 1338.07,-167.89 1347.09,-158.59"/>
<polygon fill="#63b8ff" stroke="#63b8ff" points="1349.83,-160.78 1354.28,-151.16 1344.81,-155.91 1349.83,-160.78"/>
</a>
</g>
</g>
</g>
</svg>
