<?xml version="1.0" encoding="UTF-8" standalone="no"?>
<!DOCTYPE svg PUBLIC "-//W3C//DTD SVG 1.1//EN"
 "http://www.w3.org/Graphics/SVG/1.1/DTD/svg11.dtd">
<!-- Generated by graphviz version 2.43.0 (0)
 -->
<!-- Title: include/helios/rendering/RenderQueue.ixx Pages: 1 -->
<!--zoomable 348 -->

<svg id="main" version="1.1" xmlns="http://www.w3.org/2000/svg" xmlns:xlink="http://www.w3.org/1999/xlink" xml:space="preserve" onload="init(evt)">

<style type="text/css"><![CDATA[
.node, .edge {opacity: 0.7;}
.node.selected, .edge.selected {opacity: 1;}
.edge:hover path { stroke: red; }
.edge:hover polygon { stroke: red; fill: red; }
]]></style>

<defs>
  <circle id="rim" cx="0" cy="0" r="7"/>
  <circle id="rim2" cx="0" cy="0" r="3.5"/>
  <g id="zoomPlus">
    <use xlink:href="#rim" fill="#404040"><set attributeName="fill" to="#808080" begin="zoomplus.mouseover" end="zoomplus.mouseout"/></use>
    <path d="M-4,0h8M0,-4v8" fill="none" stroke="white" stroke-width="1.5" pointer-events="none"/>
  </g>
  <g id="zoomMin">
    <use xlink:href="#rim" fill="#404040"><set attributeName="fill" to="#808080" begin="zoomminus.mouseover" end="zoomminus.mouseout"/></use>
    <path d="M-4,0h8" fill="none" stroke="white" stroke-width="1.5" pointer-events="none"/>
  </g>
  <g id="arrowUp" transform="translate(30 24)">
    <use xlink:href="#rim"/>
    <path pointer-events="none" fill="none" stroke="white" stroke-width="1.5" d="M0,-3.0v7 M-2.5,-0.5L0,-3.0L2.5,-0.5"/>
  </g>
  <g id="arrowRight" transform="rotate(90) translate(36 -43)">
    <use xlink:href="#rim"/>
    <path pointer-events="none" fill="none" stroke="white" stroke-width="1.5" d="M0,-3.0v7 M-2.5,-0.5L0,-3.0L2.5,-0.5"/>
  </g>
  <g id="arrowDown" transform="rotate(180) translate(-30 -48)">
    <use xlink:href="#rim"/>
    <path pointer-events="none" fill="none" stroke="white" stroke-width="1.5" d="M0,-3.0v7 M-2.5,-0.5L0,-3.0L2.5,-0.5"/>
  </g>
  <g id="arrowLeft" transform="rotate(270) translate(-36 17)">
    <use xlink:href="#rim"/>
    <path pointer-events="none" fill="none" stroke="white" stroke-width="1.5" d="M0,-3.0v7 M-2.5,-0.5L0,-3.0L2.5,-0.5"/>
  </g>
  <g id="resetDef">
    <use xlink:href="#rim2" fill="#404040"><set attributeName="fill" to="#808080" begin="reset.mouseover" end="reset.mouseout"/></use>
  </g>
</defs>
<script type="application/ecmascript">
var viewWidth = 1431;
var viewHeight = 348;
var sectionId = 'dynsection-0';
</script>
<script type="application/ecmascript" xlink:href="svg.min.js"/>
<svg id="graph" class="graph">
<g id="viewport">
<title>include/helios/rendering/RenderQueue.ixx</title>
<!-- Node1 -->
<g id="Node000001" class="node">
<title>Node1</title>
<g id="a_Node000001"><a xlink:title=" ">
<polygon fill="#999999" stroke="#666666" points="647,-340.17 513,-340.17 513,-310.17 647,-310.17 647,-340.17"/>
<text text-anchor="start" x="521" y="-328.17" font-family="Helvetica,sans-Serif" font-size="10.00">include/helios/rendering</text>
<text text-anchor="middle" x="580" y="-317.17" font-family="Helvetica,sans-Serif" font-size="10.00">/RenderQueue.ixx</text>
</a>
</g>
</g>
<!-- Node2 -->
<g id="Node000002" class="node">
<title>Node2</title>
<g id="a_Node000002"><a xlink:title=" ">
<polygon fill="#e0e0e0" stroke="#999999" points="60,-21.17 0,-21.17 0,-2.17 60,-2.17 60,-21.17"/>
<text text-anchor="middle" x="30" y="-9.17" font-family="Helvetica,sans-Serif" font-size="10.00">iostream</text>
</a>
</g>
</g>
<!-- Node1&#45;&gt;Node2 -->
<g id="edge1_Node000001_Node000002" class="edge">
<title>Node1&#45;&gt;Node2</title>
<g id="a_edge1_Node000001_Node000002"><a xlink:title=" ">
<path fill="none" stroke="#63b8ff" d="M512.89,-323.9C363.98,-321.49 19,-305.11 19,-205.17 19,-205.17 19,-205.17 19,-137.17 19,-99.52 24.05,-55.71 27.31,-31.39"/>
<polygon fill="#63b8ff" stroke="#63b8ff" points="30.79,-31.79 28.69,-21.41 23.85,-30.83 30.79,-31.79"/>
</a>
</g>
</g>
<!-- Node3 -->
<g id="Node000003" class="node">
<title>Node3</title>
<g id="a_Node000003"><a xlink:title=" ">
<polygon fill="#e0e0e0" stroke="#999999" points="853,-81.67 795,-81.67 795,-62.67 853,-62.67 853,-81.67"/>
<text text-anchor="middle" x="824" y="-69.67" font-family="Helvetica,sans-Serif" font-size="10.00">memory</text>
</a>
</g>
</g>
<!-- Node1&#45;&gt;Node3 -->
<g id="edge2_Node000001_Node000003" class="edge">
<title>Node1&#45;&gt;Node3</title>
<g id="a_edge2_Node000001_Node000003"><a xlink:title=" ">
<path fill="none" stroke="#63b8ff" d="M596.78,-310.08C608.31,-300.25 623.85,-286.7 637,-274.17 691.16,-222.58 703.35,-208.23 754,-153.17 773.82,-131.63 795.95,-106.07 809.92,-89.74"/>
<polygon fill="#63b8ff" stroke="#63b8ff" points="812.95,-91.58 816.78,-81.7 807.63,-87.04 812.95,-91.58"/>
</a>
</g>
</g>
<!-- Node4 -->
<g id="Node000004" class="node">
<title>Node4</title>
<g id="a_Node000004"><a xlink:title=" ">
<polygon fill="#e0e0e0" stroke="#999999" points="1034.5,-81.67 987.5,-81.67 987.5,-62.67 1034.5,-62.67 1034.5,-81.67"/>
<text text-anchor="middle" x="1011" y="-69.67" font-family="Helvetica,sans-Serif" font-size="10.00">vector</text>
</a>
</g>
</g>
<!-- Node1&#45;&gt;Node4 -->
<g id="edge3_Node000001_Node000004" class="edge">
<title>Node1&#45;&gt;Node4</title>
<g id="a_edge3_Node000001_Node000004"><a xlink:title=" ">
<path fill="none" stroke="#63b8ff" d="M647.12,-315.55C789.6,-295.64 1114.16,-241.36 1174,-153.17 1181.49,-142.14 1182.07,-133.79 1174,-123.17 1137.7,-75.46 1100.61,-106.92 1044,-87.17 1042.57,-86.67 1041.11,-86.14 1039.64,-85.59"/>
<polygon fill="#63b8ff" stroke="#63b8ff" points="1040.61,-82.21 1030.03,-81.75 1038.02,-88.71 1040.61,-82.21"/>
</a>
</g>
</g>
<!-- Node5 -->
<g id="Node000005" class="node">
<title>Node5</title>
<g id="a_Node000005"><a xlink:href="LogManager_8ixx.html" target="_top" xlink:title=" ">
<polygon fill="white" stroke="#666666" points="675,-147.67 529,-147.67 529,-128.67 675,-128.67 675,-147.67"/>
<text text-anchor="middle" x="602" y="-135.67" font-family="Helvetica,sans-Serif" font-size="10.00">helios.util.log.LogManager</text>
</a>
</g>
</g>
<!-- Node1&#45;&gt;Node5 -->
<g id="edge4_Node000001_Node000005" class="edge">
<title>Node1&#45;&gt;Node5</title>
<g id="a_edge4_Node000001_Node000005"><a xlink:title=" ">
<path fill="none" stroke="#63b8ff" d="M596.03,-310.17C605.27,-300.98 616.01,-288.13 621,-274.17 635.29,-234.22 620.24,-184.01 609.94,-157.51"/>
<polygon fill="#63b8ff" stroke="#63b8ff" points="613.08,-155.92 606.05,-147.99 606.6,-158.57 613.08,-155.92"/>
</a>
</g>
</g>
<!-- Node9 -->
<g id="Node000009" class="node">
<title>Node9</title>
<g id="a_Node000009"><a xlink:href="Logger_8ixx.html" target="_top" xlink:title=" ">
<polygon fill="white" stroke="#666666" points="560.5,-81.67 441.5,-81.67 441.5,-62.67 560.5,-62.67 560.5,-81.67"/>
<text text-anchor="middle" x="501" y="-69.67" font-family="Helvetica,sans-Serif" font-size="10.00">helios.util.log.Logger</text>
</a>
</g>
</g>
<!-- Node1&#45;&gt;Node9 -->
<g id="edge12_Node000001_Node000009" class="edge">
<title>Node1&#45;&gt;Node9</title>
<g id="a_edge12_Node000001_Node000009"><a xlink:title=" ">
<path fill="none" stroke="#63b8ff" d="M512.89,-321.13C479.27,-315.79 441.29,-303.13 420,-274.17 375.46,-213.59 449.85,-125.07 484.61,-89.18"/>
<polygon fill="#63b8ff" stroke="#63b8ff" points="487.2,-91.54 491.75,-81.98 482.22,-86.62 487.2,-91.54"/>
</a>
</g>
</g>
<!-- Node10 -->
<g id="Node000010" class="node">
<title>Node10</title>
<g id="a_Node000010"><a xlink:href="RenderCommand_8ixx.html" target="_top" xlink:title=" ">
<polygon fill="white" stroke="#666666" points="611.5,-274.17 428.5,-274.17 428.5,-255.17 611.5,-255.17 611.5,-274.17"/>
<text text-anchor="middle" x="520" y="-262.17" font-family="Helvetica,sans-Serif" font-size="10.00">helios.rendering.RenderCommand</text>
</a>
</g>
</g>
<!-- Node1&#45;&gt;Node10 -->
<g id="edge13_Node000001_Node000010" class="edge">
<title>Node1&#45;&gt;Node10</title>
<g id="a_edge13_Node000001_Node000010"><a xlink:title=" ">
<path fill="none" stroke="#63b8ff" d="M565.48,-310.01C556.68,-301.44 545.43,-290.47 536.33,-281.59"/>
<polygon fill="#63b8ff" stroke="#63b8ff" points="538.59,-278.92 528.99,-274.44 533.71,-283.93 538.59,-278.92"/>
</a>
</g>
</g>
<!-- Node5&#45;&gt;Node3 -->
<g id="edge7_Node000005_Node000003" class="edge">
<title>Node5&#45;&gt;Node3</title>
<g id="a_edge7_Node000005_Node000003"><a xlink:title=" ">
<path fill="none" stroke="#63b8ff" d="M636.86,-128.67C674.06,-119.37 734.6,-103.59 786,-87.17 787.91,-86.57 789.86,-85.92 791.83,-85.25"/>
<polygon fill="#63b8ff" stroke="#63b8ff" points="793.34,-88.43 801.61,-81.79 791.01,-81.83 793.34,-88.43"/>
</a>
</g>
</g>
<!-- Node6 -->
<g id="Node000006" class="node">
<title>Node6</title>
<g id="a_Node000006"><a xlink:title=" ">
<polygon fill="#e0e0e0" stroke="#999999" points="567,-21.17 523,-21.17 523,-2.17 567,-2.17 567,-21.17"/>
<text text-anchor="middle" x="545" y="-9.17" font-family="Helvetica,sans-Serif" font-size="10.00">string</text>
</a>
</g>
</g>
<!-- Node5&#45;&gt;Node6 -->
<g id="edge5_Node000005_Node000006" class="edge">
<title>Node5&#45;&gt;Node6</title>
<g id="a_edge5_Node000005_Node000006"><a xlink:title=" ">
<path fill="none" stroke="#63b8ff" d="M598.99,-128.61C593.7,-113.8 582.14,-82.54 570,-57.17 565.65,-48.08 560.23,-38.28 555.55,-30.2"/>
<polygon fill="#63b8ff" stroke="#63b8ff" points="558.43,-28.19 550.33,-21.36 552.4,-31.75 558.43,-28.19"/>
</a>
</g>
</g>
<!-- Node7 -->
<g id="Node000007" class="node">
<title>Node7</title>
<g id="a_Node000007"><a xlink:title=" ">
<polygon fill="#e0e0e0" stroke="#999999" points="776.5,-81.67 683.5,-81.67 683.5,-62.67 776.5,-62.67 776.5,-81.67"/>
<text text-anchor="middle" x="730" y="-69.67" font-family="Helvetica,sans-Serif" font-size="10.00">unordered_map</text>
</a>
</g>
</g>
<!-- Node5&#45;&gt;Node7 -->
<g id="edge6_Node000005_Node000007" class="edge">
<title>Node5&#45;&gt;Node7</title>
<g id="a_edge6_Node000005_Node000007"><a xlink:title=" ">
<path fill="none" stroke="#63b8ff" d="M619.26,-128.54C640.92,-117.71 678.29,-99.03 703.57,-86.39"/>
<polygon fill="#63b8ff" stroke="#63b8ff" points="705.22,-89.48 712.6,-81.87 702.09,-83.22 705.22,-89.48"/>
</a>
</g>
</g>
<!-- Node8 -->
<g id="Node000008" class="node">
<title>Node8</title>
<g id="a_Node000008"><a xlink:title=" ">
<polygon fill="#e0e0e0" stroke="#999999" points="665,-81.67 617,-81.67 617,-62.67 665,-62.67 665,-81.67"/>
<text text-anchor="middle" x="641" y="-69.67" font-family="Helvetica,sans-Serif" font-size="10.00">mutex</text>
</a>
</g>
</g>
<!-- Node5&#45;&gt;Node8 -->
<g id="edge8_Node000005_Node000008" class="edge">
<title>Node5&#45;&gt;Node8</title>
<g id="a_edge8_Node000005_Node000008"><a xlink:title=" ">
<path fill="none" stroke="#63b8ff" d="M607.26,-128.54C613.1,-118.96 622.69,-103.22 630.15,-90.97"/>
<polygon fill="#63b8ff" stroke="#63b8ff" points="633.36,-92.44 635.57,-82.08 627.38,-88.8 633.36,-92.44"/>
</a>
</g>
</g>
<!-- Node5&#45;&gt;Node9 -->
<g id="edge9_Node000005_Node000009" class="edge">
<title>Node5&#45;&gt;Node9</title>
<g id="a_edge9_Node000005_Node000009"><a xlink:title=" ">
<path fill="none" stroke="#63b8ff" d="M588.38,-128.54C571.66,-117.95 543.09,-99.85 523.19,-87.24"/>
<polygon fill="#63b8ff" stroke="#63b8ff" points="525.05,-84.27 514.73,-81.87 521.3,-90.18 525.05,-84.27"/>
</a>
</g>
</g>
<!-- Node9&#45;&gt;Node2 -->
<g id="edge10_Node000009_Node000002" class="edge">
<title>Node9&#45;&gt;Node2</title>
<g id="a_edge10_Node000009_Node000002"><a xlink:title=" ">
<path fill="none" stroke="#63b8ff" d="M462.44,-62.65C452.55,-60.66 441.91,-58.68 432,-57.17 276.09,-33.47 235.23,-42.66 79,-21.17 76.11,-20.78 73.14,-20.34 70.14,-19.87"/>
<polygon fill="#63b8ff" stroke="#63b8ff" points="70.44,-16.38 60.01,-18.22 69.32,-23.28 70.44,-16.38"/>
</a>
</g>
</g>
<!-- Node9&#45;&gt;Node6 -->
<g id="edge11_Node000009_Node000006" class="edge">
<title>Node9&#45;&gt;Node6</title>
<g id="a_edge11_Node000009_Node000006"><a xlink:title=" ">
<path fill="none" stroke="#63b8ff" d="M507.49,-62.54C513.99,-53.9 524.16,-40.38 532.28,-29.59"/>
<polygon fill="#63b8ff" stroke="#63b8ff" points="535.27,-31.44 538.48,-21.34 529.67,-27.23 535.27,-31.44"/>
</a>
</g>
</g>
<!-- Node10&#45;&gt;Node3 -->
<g id="edge14_Node000010_Node000003" class="edge">
<title>Node10&#45;&gt;Node3</title>
<g id="a_edge14_Node000010_Node000003"><a xlink:title=" ">
<path fill="none" stroke="#63b8ff" d="M537.25,-255.16C572.38,-237.6 654.33,-195.45 719,-153.17 750.72,-132.44 785.28,-105.11 805.77,-88.36"/>
<polygon fill="#63b8ff" stroke="#63b8ff" points="808.14,-90.93 813.64,-81.88 803.69,-85.53 808.14,-90.93"/>
</a>
</g>
</g>
<!-- Node11 -->
<g id="Node000011" class="node">
<title>Node11</title>
<g id="a_Node000011"><a xlink:href="UniformValueMap_8ixx.html" target="_top" xlink:title=" ">
<polygon fill="white" stroke="#666666" points="359,-153.17 225,-153.17 225,-123.17 359,-123.17 359,-153.17"/>
<text text-anchor="start" x="233" y="-141.17" font-family="Helvetica,sans-Serif" font-size="10.00">helios.rendering.shader.</text>
<text text-anchor="middle" x="292" y="-130.17" font-family="Helvetica,sans-Serif" font-size="10.00">UniformValueMap</text>
</a>
</g>
</g>
<!-- Node10&#45;&gt;Node11 -->
<g id="edge15_Node000010_Node000011" class="edge">
<title>Node10&#45;&gt;Node11</title>
<g id="a_edge15_Node000010_Node000011"><a xlink:title=" ">
<path fill="none" stroke="#63b8ff" d="M504.33,-255.12C467.96,-235.26 377.1,-185.64 326.83,-158.19"/>
<polygon fill="#63b8ff" stroke="#63b8ff" points="328.39,-155.06 317.93,-153.34 325.03,-161.2 328.39,-155.06"/>
</a>
</g>
</g>
<!-- Node18 -->
<g id="Node000018" class="node">
<title>Node18</title>
<g id="a_Node000018"><a xlink:href="Shader_8ixx.html" target="_top" xlink:title=" ">
<polygon fill="white" stroke="#666666" points="587,-219.17 453,-219.17 453,-189.17 587,-189.17 587,-219.17"/>
<text text-anchor="start" x="461" y="-207.17" font-family="Helvetica,sans-Serif" font-size="10.00">helios.rendering.shader.</text>
<text text-anchor="middle" x="520" y="-196.17" font-family="Helvetica,sans-Serif" font-size="10.00">Shader</text>
</a>
</g>
</g>
<!-- Node10&#45;&gt;Node18 -->
<g id="edge23_Node000010_Node000018" class="edge">
<title>Node10&#45;&gt;Node18</title>
<g id="a_edge23_Node000010_Node000018"><a xlink:title=" ">
<path fill="none" stroke="#63b8ff" d="M520,-255.04C520,-248.28 520,-238.53 520,-229.44"/>
<polygon fill="#63b8ff" stroke="#63b8ff" points="523.5,-229.29 520,-219.29 516.5,-229.29 523.5,-229.29"/>
</a>
</g>
</g>
<!-- Node19 -->
<g id="Node000019" class="node">
<title>Node19</title>
<g id="a_Node000019"><a xlink:href="Mesh_8ixx.html" target="_top" xlink:title=" ">
<polygon fill="white" stroke="#666666" points="999,-213.67 841,-213.67 841,-194.67 999,-194.67 999,-213.67"/>
<text text-anchor="middle" x="920" y="-201.67" font-family="Helvetica,sans-Serif" font-size="10.00">helios.rendering.model.Mesh</text>
</a>
</g>
</g>
<!-- Node10&#45;&gt;Node19 -->
<g id="edge29_Node000010_Node000019" class="edge">
<title>Node10&#45;&gt;Node19</title>
<g id="a_edge29_Node000010_Node000019"><a xlink:title=" ">
<path fill="none" stroke="#63b8ff" d="M578.16,-255.17C650.74,-244.55 774.66,-226.43 851.68,-215.17"/>
<polygon fill="#63b8ff" stroke="#63b8ff" points="852.38,-218.6 861.77,-213.69 851.37,-211.68 852.38,-218.6"/>
</a>
</g>
</g>
<!-- Node12 -->
<g id="Node000012" class="node">
<title>Node12</title>
<g id="a_Node000012"><a xlink:title=" ">
<polygon fill="#e0e0e0" stroke="#999999" points="241,-81.67 199,-81.67 199,-62.67 241,-62.67 241,-81.67"/>
<text text-anchor="middle" x="220" y="-69.67" font-family="Helvetica,sans-Serif" font-size="10.00">array</text>
</a>
</g>
</g>
<!-- Node11&#45;&gt;Node12 -->
<g id="edge16_Node000011_Node000012" class="edge">
<title>Node11&#45;&gt;Node12</title>
<g id="a_edge16_Node000011_Node000012"><a xlink:title=" ">
<path fill="none" stroke="#63b8ff" d="M276.02,-122.97C264.69,-112.9 249.47,-99.37 237.75,-88.96"/>
<polygon fill="#63b8ff" stroke="#63b8ff" points="239.75,-86.05 229.95,-82.02 235.1,-91.28 239.75,-86.05"/>
</a>
</g>
</g>
<!-- Node13 -->
<g id="Node000013" class="node">
<title>Node13</title>
<g id="a_Node000013"><a xlink:title=" ">
<polygon fill="#e0e0e0" stroke="#999999" points="423,-81.67 367,-81.67 367,-62.67 423,-62.67 423,-81.67"/>
<text text-anchor="middle" x="395" y="-69.67" font-family="Helvetica,sans-Serif" font-size="10.00">optional</text>
</a>
</g>
</g>
<!-- Node11&#45;&gt;Node13 -->
<g id="edge17_Node000011_Node000013" class="edge">
<title>Node11&#45;&gt;Node13</title>
<g id="a_edge17_Node000011_Node000013"><a xlink:title=" ">
<path fill="none" stroke="#63b8ff" d="M314.6,-123.13C331.79,-112.45 355.33,-97.82 372.49,-87.16"/>
<polygon fill="#63b8ff" stroke="#63b8ff" points="374.65,-89.94 381.29,-81.69 370.95,-84 374.65,-89.94"/>
</a>
</g>
</g>
<!-- Node14 -->
<g id="Node000014" class="node">
<title>Node14</title>
<g id="a_Node000014"><a xlink:title=" ">
<polygon fill="#e0e0e0" stroke="#999999" points="310.5,-81.67 259.5,-81.67 259.5,-62.67 310.5,-62.67 310.5,-81.67"/>
<text text-anchor="middle" x="285" y="-69.67" font-family="Helvetica,sans-Serif" font-size="10.00">variant</text>
</a>
</g>
</g>
<!-- Node11&#45;&gt;Node14 -->
<g id="edge18_Node000011_Node000014" class="edge">
<title>Node11&#45;&gt;Node14</title>
<g id="a_edge18_Node000011_Node000014"><a xlink:title=" ">
<path fill="none" stroke="#63b8ff" d="M290.45,-122.97C289.45,-113.87 288.15,-101.96 287.07,-92.07"/>
<polygon fill="#63b8ff" stroke="#63b8ff" points="290.53,-91.58 285.97,-82.02 283.58,-92.34 290.53,-91.58"/>
</a>
</g>
</g>
<!-- Node15 -->
<g id="Node000015" class="node">
<title>Node15</title>
<g id="a_Node000015"><a xlink:href="math_2types_2__module_8ixx.html" target="_top" xlink:title=" ">
<polygon fill="white" stroke="#666666" points="991,-21.17 887,-21.17 887,-2.17 991,-2.17 991,-21.17"/>
<text text-anchor="middle" x="939" y="-9.17" font-family="Helvetica,sans-Serif" font-size="10.00">helios.math.types</text>
</a>
</g>
</g>
<!-- Node11&#45;&gt;Node15 -->
<g id="edge19_Node000011_Node000015" class="edge">
<title>Node11&#45;&gt;Node15</title>
<g id="a_edge19_Node000011_Node000015"><a xlink:title=" ">
<path fill="none" stroke="#63b8ff" d="M299.07,-122.9C309.23,-104.11 329.87,-71.77 358,-57.17 403.17,-33.73 736.27,-19.65 876.77,-14.7"/>
<polygon fill="#63b8ff" stroke="#63b8ff" points="877.08,-18.19 886.95,-14.34 876.83,-11.19 877.08,-18.19"/>
</a>
</g>
</g>
<!-- Node16 -->
<g id="Node000016" class="node">
<title>Node16</title>
<g id="a_Node000016"><a xlink:href="UniformSemantics_8ixx.html" target="_top" xlink:title=" ">
<polygon fill="white" stroke="#666666" points="181,-87.17 47,-87.17 47,-57.17 181,-57.17 181,-87.17"/>
<text text-anchor="start" x="55" y="-75.17" font-family="Helvetica,sans-Serif" font-size="10.00">helios.rendering.shader.</text>
<text text-anchor="middle" x="114" y="-64.17" font-family="Helvetica,sans-Serif" font-size="10.00">UniformSemantics</text>
</a>
</g>
</g>
<!-- Node11&#45;&gt;Node16 -->
<g id="edge21_Node000011_Node000016" class="edge">
<title>Node11&#45;&gt;Node16</title>
<g id="a_edge21_Node000011_Node000016"><a xlink:title=" ">
<path fill="none" stroke="#63b8ff" d="M252.94,-123.13C226.39,-113.58 191.08,-100.89 162.7,-90.68"/>
<polygon fill="#63b8ff" stroke="#63b8ff" points="163.57,-87.28 152.97,-87.19 161.2,-93.86 163.57,-87.28"/>
</a>
</g>
</g>
<!-- Node15&#45;&gt;Node15 -->
<g id="edge20_Node000015_Node000015" class="edge">
<title>Node15&#45;&gt;Node15</title>
<g id="a_edge20_Node000015_Node000015"><a xlink:title=" ">
<path fill="none" stroke="#63b8ff" d="M964.85,-21.21C986.44,-25.28 1009,-22.1 1009,-11.67 1009,-2.87 992.94,0.76 974.95,-0.76"/>
<polygon fill="#63b8ff" stroke="#63b8ff" points="974.28,2.68 964.85,-2.14 975.23,-4.26 974.28,2.68"/>
</a>
</g>
</g>
<!-- Node17 -->
<g id="Node000017" class="node">
<title>Node17</title>
<g id="a_Node000017"><a xlink:title=" ">
<polygon fill="#e0e0e0" stroke="#999999" points="139.5,-21.17 88.5,-21.17 88.5,-2.17 139.5,-2.17 139.5,-21.17"/>
<text text-anchor="middle" x="114" y="-9.17" font-family="Helvetica,sans-Serif" font-size="10.00">cwchar</text>
</a>
</g>
</g>
<!-- Node16&#45;&gt;Node17 -->
<g id="edge22_Node000016_Node000017" class="edge">
<title>Node16&#45;&gt;Node17</title>
<g id="a_edge22_Node000016_Node000017"><a xlink:title=" ">
<path fill="none" stroke="#63b8ff" d="M114,-57.01C114,-49.39 114,-39.88 114,-31.62"/>
<polygon fill="#63b8ff" stroke="#63b8ff" points="117.5,-31.44 114,-21.44 110.5,-31.44 117.5,-31.44"/>
</a>
</g>
</g>
<!-- Node18&#45;&gt;Node3 -->
<g id="edge24_Node000018_Node000003" class="edge">
<title>Node18&#45;&gt;Node3</title>
<g id="a_edge24_Node000018_Node000003"><a xlink:title=" ">
<path fill="none" stroke="#63b8ff" d="M582.09,-189.16C613.52,-180.86 651.74,-168.86 684,-153.17 704.96,-142.99 707.04,-135.21 727,-123.17 749.87,-109.39 776.96,-95.63 796.69,-86.04"/>
<polygon fill="#63b8ff" stroke="#63b8ff" points="798.24,-89.18 805.73,-81.69 795.2,-82.87 798.24,-89.18"/>
</a>
</g>
</g>
<!-- Node18&#45;&gt;Node5 -->
<g id="edge28_Node000018_Node000005" class="edge">
<title>Node18&#45;&gt;Node5</title>
<g id="a_edge28_Node000018_Node000005"><a xlink:title=" ">
<path fill="none" stroke="#63b8ff" d="M538.2,-188.97C551.36,-178.7 569.11,-164.84 582.55,-154.35"/>
<polygon fill="#63b8ff" stroke="#63b8ff" points="584.94,-156.93 590.67,-148.02 580.63,-151.41 584.94,-156.93"/>
</a>
</g>
</g>
<!-- Node18&#45;&gt;Node9 -->
<g id="edge27_Node000018_Node000009" class="edge">
<title>Node18&#45;&gt;Node9</title>
<g id="a_edge27_Node000018_Node000009"><a xlink:title=" ">
<path fill="none" stroke="#63b8ff" d="M507.39,-189.03C499.86,-179.6 491.01,-166.52 487,-153.17 480.75,-132.35 487.11,-107.58 493.16,-91.18"/>
<polygon fill="#63b8ff" stroke="#63b8ff" points="496.47,-92.32 496.95,-81.74 489.97,-89.71 496.47,-92.32"/>
</a>
</g>
</g>
<!-- Node18&#45;&gt;Node11 -->
<g id="edge26_Node000018_Node000011" class="edge">
<title>Node18&#45;&gt;Node11</title>
<g id="a_edge26_Node000018_Node000011"><a xlink:title=" ">
<path fill="none" stroke="#63b8ff" d="M469.96,-189.13C435.22,-179.38 388.75,-166.33 352.01,-156.02"/>
<polygon fill="#63b8ff" stroke="#63b8ff" points="352.49,-152.52 341.92,-153.19 350.6,-159.26 352.49,-152.52"/>
</a>
</g>
</g>
<!-- Node18&#45;&gt;Node13 -->
<g id="edge25_Node000018_Node000013" class="edge">
<title>Node18&#45;&gt;Node13</title>
<g id="a_edge25_Node000018_Node000013"><a xlink:title=" ">
<path fill="none" stroke="#63b8ff" d="M506.38,-189.01C482.98,-164.67 435.24,-115.02 410.56,-89.35"/>
<polygon fill="#63b8ff" stroke="#63b8ff" points="412.87,-86.71 403.41,-81.92 407.82,-91.56 412.87,-86.71"/>
</a>
</g>
</g>
<!-- Node19&#45;&gt;Node3 -->
<g id="edge30_Node000019_Node000003" class="edge">
<title>Node19&#45;&gt;Node3</title>
<g id="a_edge30_Node000019_Node000003"><a xlink:title=" ">
<path fill="none" stroke="#63b8ff" d="M917.26,-194.6C912.07,-179.22 899.71,-146.41 882,-123.17 871.62,-109.56 857.01,-97 845.05,-87.87"/>
<polygon fill="#63b8ff" stroke="#63b8ff" points="847.04,-84.98 836.91,-81.86 842.88,-90.61 847.04,-84.98"/>
</a>
</g>
</g>
<!-- Node19&#45;&gt;Node4 -->
<g id="edge32_Node000019_Node000004" class="edge">
<title>Node19&#45;&gt;Node4</title>
<g id="a_edge32_Node000019_Node000004"><a xlink:title=" ">
<path fill="none" stroke="#63b8ff" d="M925.97,-194.65C940.75,-173.53 979.26,-118.52 998.98,-90.34"/>
<polygon fill="#63b8ff" stroke="#63b8ff" points="1002.02,-92.11 1004.89,-81.91 996.29,-88.09 1002.02,-92.11"/>
</a>
</g>
</g>
<!-- Node19&#45;&gt;Node5 -->
<g id="edge34_Node000019_Node000005" class="edge">
<title>Node19&#45;&gt;Node5</title>
<g id="a_edge34_Node000019_Node000005"><a xlink:title=" ">
<path fill="none" stroke="#63b8ff" d="M877.44,-194.61C819.73,-182.99 716.7,-162.26 654.33,-149.71"/>
<polygon fill="#63b8ff" stroke="#63b8ff" points="654.8,-146.23 644.3,-147.69 653.42,-153.09 654.8,-146.23"/>
</a>
</g>
</g>
<!-- Node19&#45;&gt;Node9 -->
<g id="edge33_Node000019_Node000009" class="edge">
<title>Node19&#45;&gt;Node9</title>
<g id="a_edge33_Node000019_Node000009"><a xlink:title=" ">
<path fill="none" stroke="#63b8ff" d="M840.66,-203.62C737.72,-202.5 565.85,-194.29 520,-153.17 502.93,-137.86 499.8,-110.26 499.84,-91.83"/>
<polygon fill="#63b8ff" stroke="#63b8ff" points="503.34,-91.84 500.18,-81.73 496.34,-91.6 503.34,-91.84"/>
</a>
</g>
</g>
<!-- Node19&#45;&gt;Node15 -->
<g id="edge44_Node000019_Node000015" class="edge">
<title>Node19&#45;&gt;Node15</title>
<g id="a_edge44_Node000019_Node000015"><a xlink:title=" ">
<path fill="none" stroke="#63b8ff" d="M920.87,-194.49C923.75,-165.55 933.1,-71.88 937.12,-31.49"/>
<polygon fill="#63b8ff" stroke="#63b8ff" points="940.62,-31.7 938.13,-21.41 933.65,-31.01 940.62,-31.7"/>
</a>
</g>
</g>
<!-- Node20 -->
<g id="Node000020" class="node">
<title>Node20</title>
<g id="a_Node000020"><a xlink:title=" ">
<polygon fill="#e0e0e0" stroke="#999999" points="872.5,-147.67 807.5,-147.67 807.5,-128.67 872.5,-128.67 872.5,-147.67"/>
<text text-anchor="middle" x="840" y="-135.67" font-family="Helvetica,sans-Serif" font-size="10.00">stdexcept</text>
</a>
</g>
</g>
<!-- Node19&#45;&gt;Node20 -->
<g id="edge31_Node000019_Node000020" class="edge">
<title>Node19&#45;&gt;Node20</title>
<g id="a_edge31_Node000019_Node000020"><a xlink:title=" ">
<path fill="none" stroke="#63b8ff" d="M909.21,-194.54C896.33,-184.24 874.56,-166.82 858.87,-154.27"/>
<polygon fill="#63b8ff" stroke="#63b8ff" points="860.87,-151.39 850.87,-147.87 856.5,-156.85 860.87,-151.39"/>
</a>
</g>
</g>
<!-- Node21 -->
<g id="Node000021" class="node">
<title>Node21</title>
<g id="a_Node000021"><a xlink:href="Vertex_8ixx.html" target="_top" xlink:title=" ">
<polygon fill="white" stroke="#666666" points="1183,-81.67 1053,-81.67 1053,-62.67 1183,-62.67 1183,-81.67"/>
<text text-anchor="middle" x="1118" y="-69.67" font-family="Helvetica,sans-Serif" font-size="10.00">helios.rendering.Vertex</text>
</a>
</g>
</g>
<!-- Node19&#45;&gt;Node21 -->
<g id="edge35_Node000019_Node000021" class="edge">
<title>Node19&#45;&gt;Node21</title>
<g id="a_edge35_Node000019_Node000021"><a xlink:title=" ">
<path fill="none" stroke="#63b8ff" d="M999.01,-198.36C1065.13,-192.49 1152.09,-179.82 1174,-153.17 1191.87,-131.44 1163.03,-104.26 1140.54,-87.83"/>
<polygon fill="#63b8ff" stroke="#63b8ff" points="1142.24,-84.76 1132.04,-81.9 1138.23,-90.49 1142.24,-84.76"/>
</a>
</g>
</g>
<!-- Node22 -->
<g id="Node000022" class="node">
<title>Node22</title>
<g id="a_Node000022"><a xlink:href="Shape_8ixx.html" target="_top" xlink:title=" ">
<polygon fill="white" stroke="#666666" points="1165,-153.17 1005,-153.17 1005,-123.17 1165,-123.17 1165,-153.17"/>
<text text-anchor="start" x="1013" y="-141.17" font-family="Helvetica,sans-Serif" font-size="10.00">helios.rendering.asset.shape.</text>
<text text-anchor="middle" x="1085" y="-130.17" font-family="Helvetica,sans-Serif" font-size="10.00">Shape</text>
</a>
</g>
</g>
<!-- Node19&#45;&gt;Node22 -->
<g id="edge37_Node000019_Node000022" class="edge">
<title>Node19&#45;&gt;Node22</title>
<g id="a_edge37_Node000019_Node000022"><a xlink:title=" ">
<path fill="none" stroke="#63b8ff" d="M942.25,-194.54C966.97,-184.96 1007.54,-169.22 1039.12,-156.97"/>
<polygon fill="#63b8ff" stroke="#63b8ff" points="1040.55,-160.17 1048.61,-153.29 1038.02,-153.64 1040.55,-160.17"/>
</a>
</g>
</g>
<!-- Node24 -->
<g id="Node000024" class="node">
<title>Node24</title>
<g id="a_Node000024"><a xlink:href="MeshConfig_8ixx.html" target="_top" xlink:title=" ">
<polygon fill="white" stroke="#666666" points="1423,-153.17 1259,-153.17 1259,-123.17 1423,-123.17 1423,-153.17"/>
<text text-anchor="start" x="1267" y="-141.17" font-family="Helvetica,sans-Serif" font-size="10.00">helios.rendering.model.config.</text>
<text text-anchor="middle" x="1341" y="-130.17" font-family="Helvetica,sans-Serif" font-size="10.00">MeshConfig</text>
</a>
</g>
</g>
<!-- Node19&#45;&gt;Node24 -->
<g id="edge42_Node000019_Node000024" class="edge">
<title>Node19&#45;&gt;Node24</title>
<g id="a_edge42_Node000019_Node000024"><a xlink:title=" ">
<path fill="none" stroke="#63b8ff" d="M976.34,-194.61C1046.1,-184 1165.86,-165.8 1249.02,-153.16"/>
<polygon fill="#63b8ff" stroke="#63b8ff" points="1249.61,-156.61 1258.97,-151.64 1248.56,-149.69 1249.61,-156.61"/>
</a>
</g>
</g>
<!-- Node21&#45;&gt;Node15 -->
<g id="edge36_Node000021_Node000015" class="edge">
<title>Node21&#45;&gt;Node15</title>
<g id="a_edge36_Node000021_Node000015"><a xlink:title=" ">
<path fill="none" stroke="#63b8ff" d="M1091.97,-62.67C1061.08,-52.57 1009.42,-35.69 974.78,-24.37"/>
<polygon fill="#63b8ff" stroke="#63b8ff" points="975.65,-20.97 965.06,-21.19 973.48,-27.62 975.65,-20.97"/>
</a>
</g>
</g>
<!-- Node22&#45;&gt;Node3 -->
<g id="edge38_Node000022_Node000003" class="edge">
<title>Node22&#45;&gt;Node3</title>
<g id="a_edge38_Node000022_Node000003"><a xlink:title=" ">
<path fill="none" stroke="#63b8ff" d="M1027.72,-123.13C977.85,-110.9 906.88,-93.5 863.22,-82.79"/>
<polygon fill="#63b8ff" stroke="#63b8ff" points="863.82,-79.33 853.27,-80.35 862.15,-86.13 863.82,-79.33"/>
</a>
</g>
</g>
<!-- Node22&#45;&gt;Node4 -->
<g id="edge39_Node000022_Node000004" class="edge">
<title>Node22&#45;&gt;Node4</title>
<g id="a_edge39_Node000022_Node000004"><a xlink:title=" ">
<path fill="none" stroke="#63b8ff" d="M1068.58,-122.97C1056.81,-112.8 1040.98,-99.11 1028.9,-88.65"/>
<polygon fill="#63b8ff" stroke="#63b8ff" points="1031.08,-85.91 1021.23,-82.02 1026.5,-91.21 1031.08,-85.91"/>
</a>
</g>
</g>
<!-- Node22&#45;&gt;Node21 -->
<g id="edge41_Node000022_Node000021" class="edge">
<title>Node22&#45;&gt;Node21</title>
<g id="a_edge41_Node000022_Node000021"><a xlink:title=" ">
<path fill="none" stroke="#63b8ff" d="M1092.32,-122.97C1097.17,-113.58 1103.55,-101.19 1108.75,-91.12"/>
<polygon fill="#63b8ff" stroke="#63b8ff" points="1111.97,-92.51 1113.44,-82.02 1105.75,-89.3 1111.97,-92.51"/>
</a>
</g>
</g>
<!-- Node23 -->
<g id="Node000023" class="node">
<title>Node23</title>
<g id="a_Node000023"><a xlink:href="PrimitiveType_8ixx.html" target="_top" xlink:title=" ">
<polygon fill="white" stroke="#666666" points="1404,-87.17 1240,-87.17 1240,-57.17 1404,-57.17 1404,-87.17"/>
<text text-anchor="start" x="1248" y="-75.17" font-family="Helvetica,sans-Serif" font-size="10.00">helios.rendering.model.config.</text>
<text text-anchor="middle" x="1322" y="-64.17" font-family="Helvetica,sans-Serif" font-size="10.00">PrimitiveType</text>
</a>
</g>
</g>
<!-- Node22&#45;&gt;Node23 -->
<g id="edge40_Node000022_Node000023" class="edge">
<title>Node22&#45;&gt;Node23</title>
<g id="a_edge40_Node000022_Node000023"><a xlink:title=" ">
<path fill="none" stroke="#63b8ff" d="M1137.01,-123.13C1173.28,-113.33 1221.85,-100.22 1260.11,-89.89"/>
<polygon fill="#63b8ff" stroke="#63b8ff" points="1261.37,-93.17 1270.11,-87.19 1259.54,-86.42 1261.37,-93.17"/>
</a>
</g>
</g>
<!-- Node24&#45;&gt;Node23 -->
<g id="edge43_Node000024_Node000023" class="edge">
<title>Node24&#45;&gt;Node23</title>
<g id="a_edge43_Node000024_Node000023"><a xlink:title=" ">
<path fill="none" stroke="#63b8ff" d="M1336.78,-122.97C1334.52,-115.35 1331.67,-105.75 1329.08,-97.02"/>
<polygon fill="#63b8ff" stroke="#63b8ff" points="1332.41,-95.93 1326.2,-87.34 1325.7,-97.92 1332.41,-95.93"/>
</a>
</g>
</g>
</g>
</svg>

<g id="navigator" transform="translate(0 0)" fill="#404254">
  <rect fill="#f2f5e9" fill-opacity="0.5" stroke="#606060" stroke-width=".5" x="0" y="0" width="60" height="60"/>
  <use id="zoomplus" xlink:href="#zoomPlus" x="17" y="9" onmousedown="handleZoom(evt,'in')"/>
  <use id="zoomminus" xlink:href="#zoomMin" x="42" y="9" onmousedown="handleZoom(evt,'out')"/>
  <use id="reset" xlink:href="#resetDef" x="30" y="36" onmousedown="handleReset()"/>
   <use id="arrowup" xlink:href="#arrowUp" x="0" y="0" onmousedown="handlePan(0,-1)"/>
  <use id="arrowright" xlink:href="#arrowRight" x="0" y="0" onmousedown="handlePan(1,0)"/>
  <use id="arrowdown" xlink:href="#arrowDown" x="0" y="0" onmousedown="handlePan(0,1)"/>
  <use id="arrowleft" xlink:href="#arrowLeft" x="0" y="0" onmousedown="handlePan(-1,0)"/>
</g>
<svg viewBox="0 0 15 15" width="100%" height="30px" preserveAspectRatio="xMaxYMin meet">
 <g id="arrow_out" transform="scale(0.3 0.3)">
  <a xlink:href="RenderQueue_8ixx__incl_org.svg" target="_base">
   <rect id="button" ry="5" rx="5" y="6" x="6" height="38" width="38"
        fill="#f2f5e9" fill-opacity="0.5" stroke="#606060" stroke-width="1.0"/>
   <path id="arrow"
     d="M 11.500037,31.436501 C 11.940474,20.09759 22.043105,11.32322 32.158766,21.979434 L 37.068811,17.246167 C 37.068811,17.246167 37.088388,32 37.088388,32 L 22.160133,31.978069 C 22.160133,31.978069 26.997745,27.140456 26.997745,27.140456 C 18.528582,18.264221 13.291696,25.230495 11.500037,31.436501 z"
     style="fill:#404040;"/>
  </a>
 </g>
</svg>

<style type='text/css'>
<![CDATA[
[data-mouse-over-selected='false'] { opacity: 0.7; }
[data-mouse-over-selected='true']  { opacity: 1.0; }
]]>
</style>
<script type="application/ecmascript"><![CDATA[
document.addEventListener('DOMContentLoaded', (event) => {
  highlightEdges();
  highlightAdjacentNodes();
});
]]></script>
</svg>
