<?xml version="1.0" encoding="UTF-8" standalone="no"?>
<!DOCTYPE svg PUBLIC "-//W3C//DTD SVG 1.1//EN"
 "http://www.w3.org/Graphics/SVG/1.1/DTD/svg11.dtd">
<!-- Generated by graphviz version 2.43.0 (0)
 -->
<!-- Title: include/helios/rendering/RenderCommand.ixx Pages: 1 -->
<svg width="1293pt" height="293pt"
 viewBox="0.00 0.00 1292.64 293.17" xmlns="http://www.w3.org/2000/svg" xmlns:xlink="http://www.w3.org/1999/xlink">
<g id="graph0" class="graph" transform="scale(1 1) rotate(0) translate(4 289.17)">
<title>include/helios/rendering/RenderCommand.ixx</title>
<!-- Node1 -->
<g id="Node000001" class="node">
<title>Node1</title>
<g id="a_Node000001"><a xlink:title=" ">
<polygon fill="#999999" stroke="#666666" points="702,-285.17 568,-285.17 568,-255.17 702,-255.17 702,-285.17"/>
<text text-anchor="start" x="576" y="-273.17" font-family="Helvetica,sans-Serif" font-size="10.00">include/helios/rendering</text>
<text text-anchor="middle" x="635" y="-262.17" font-family="Helvetica,sans-Serif" font-size="10.00">/RenderCommand.ixx</text>
</a>
</g>
</g>
<!-- Node2 -->
<g id="Node000002" class="node">
<title>Node2</title>
<g id="a_Node000002"><a xlink:title=" ">
<polygon fill="#e0e0e0" stroke="#999999" points="806,-81.67 748,-81.67 748,-62.67 806,-62.67 806,-81.67"/>
<text text-anchor="middle" x="777" y="-69.67" font-family="Helvetica,sans-Serif" font-size="10.00">memory</text>
</a>
</g>
</g>
<!-- Node1&#45;&gt;Node2 -->
<g id="edge1_Node000001_Node000002" class="edge">
<title>Node1&#45;&gt;Node2</title>
<g id="a_edge1_Node000001_Node000002"><a xlink:title=" ">
<path fill="none" stroke="#63b8ff" d="M645.21,-255.08C670.66,-219.96 736.81,-128.65 764.51,-90.41"/>
<polygon fill="#63b8ff" stroke="#63b8ff" points="767.65,-92.05 770.68,-81.9 761.98,-87.95 767.65,-92.05"/>
</a>
</g>
</g>
<!-- Node3 -->
<g id="Node000003" class="node">
<title>Node3</title>
<g id="a_Node000003"><a xlink:href="UniformValueMap_8ixx.html" target="_top" xlink:title=" ">
<polygon fill="white" stroke="#666666" points="359,-153.17 225,-153.17 225,-123.17 359,-123.17 359,-153.17"/>
<text text-anchor="start" x="233" y="-141.17" font-family="Helvetica,sans-Serif" font-size="10.00">helios.rendering.shader.</text>
<text text-anchor="middle" x="292" y="-130.17" font-family="Helvetica,sans-Serif" font-size="10.00">UniformValueMap</text>
</a>
</g>
</g>
<!-- Node1&#45;&gt;Node3 -->
<g id="edge2_Node000001_Node000003" class="edge">
<title>Node1&#45;&gt;Node3</title>
<g id="a_edge2_Node000001_Node000003"><a xlink:title=" ">
<path fill="none" stroke="#63b8ff" d="M567.85,-259.43C524.53,-251.74 467.6,-238.94 420,-219.17 382.55,-203.62 343.6,-177.64 318.65,-159.52"/>
<polygon fill="#63b8ff" stroke="#63b8ff" points="320.56,-156.58 310.44,-153.47 316.41,-162.22 320.56,-156.58"/>
</a>
</g>
</g>
<!-- Node10 -->
<g id="Node000010" class="node">
<title>Node10</title>
<g id="a_Node000010"><a xlink:href="Shader_8ixx.html" target="_top" xlink:title=" ">
<polygon fill="white" stroke="#666666" points="563,-219.17 429,-219.17 429,-189.17 563,-189.17 563,-219.17"/>
<text text-anchor="start" x="437" y="-207.17" font-family="Helvetica,sans-Serif" font-size="10.00">helios.rendering.shader.</text>
<text text-anchor="middle" x="496" y="-196.17" font-family="Helvetica,sans-Serif" font-size="10.00">Shader</text>
</a>
</g>
</g>
<!-- Node1&#45;&gt;Node10 -->
<g id="edge10_Node000001_Node000010" class="edge">
<title>Node1&#45;&gt;Node10</title>
<g id="a_edge10_Node000001_Node000010"><a xlink:title=" ">
<path fill="none" stroke="#63b8ff" d="M604.5,-255.13C584.31,-245.83 557.63,-233.55 535.78,-223.49"/>
<polygon fill="#63b8ff" stroke="#63b8ff" points="536.98,-220.19 526.43,-219.19 534.05,-226.55 536.98,-220.19"/>
</a>
</g>
</g>
<!-- Node17 -->
<g id="Node000017" class="node">
<title>Node17</title>
<g id="a_Node000017"><a xlink:href="Mesh_8ixx.html" target="_top" xlink:title=" ">
<polygon fill="white" stroke="#666666" points="929,-213.67 771,-213.67 771,-194.67 929,-194.67 929,-213.67"/>
<text text-anchor="middle" x="850" y="-201.67" font-family="Helvetica,sans-Serif" font-size="10.00">helios.rendering.model.Mesh</text>
</a>
</g>
</g>
<!-- Node1&#45;&gt;Node17 -->
<g id="edge23_Node000001_Node000017" class="edge">
<title>Node1&#45;&gt;Node17</title>
<g id="a_edge23_Node000001_Node000017"><a xlink:title=" ">
<path fill="none" stroke="#63b8ff" d="M682.18,-255.13C721.05,-243.56 775.47,-227.36 811.68,-216.58"/>
<polygon fill="#63b8ff" stroke="#63b8ff" points="812.8,-219.9 821.39,-213.69 810.8,-213.19 812.8,-219.9"/>
</a>
</g>
</g>
<!-- Node4 -->
<g id="Node000004" class="node">
<title>Node4</title>
<g id="a_Node000004"><a xlink:title=" ">
<polygon fill="#e0e0e0" stroke="#999999" points="42,-81.67 0,-81.67 0,-62.67 42,-62.67 42,-81.67"/>
<text text-anchor="middle" x="21" y="-69.67" font-family="Helvetica,sans-Serif" font-size="10.00">array</text>
</a>
</g>
</g>
<!-- Node3&#45;&gt;Node4 -->
<g id="edge3_Node000003_Node000004" class="edge">
<title>Node3&#45;&gt;Node4</title>
<g id="a_edge3_Node000003_Node000004"><a xlink:title=" ">
<path fill="none" stroke="#63b8ff" d="M224.93,-127.55C175.96,-119.5 108.38,-106.23 51,-87.17 49.6,-86.71 48.18,-86.2 46.76,-85.65"/>
<polygon fill="#63b8ff" stroke="#63b8ff" points="48.11,-82.42 37.54,-81.73 45.37,-88.86 48.11,-82.42"/>
</a>
</g>
</g>
<!-- Node5 -->
<g id="Node000005" class="node">
<title>Node5</title>
<g id="a_Node000005"><a xlink:title=" ">
<polygon fill="#e0e0e0" stroke="#999999" points="376,-81.67 320,-81.67 320,-62.67 376,-62.67 376,-81.67"/>
<text text-anchor="middle" x="348" y="-69.67" font-family="Helvetica,sans-Serif" font-size="10.00">optional</text>
</a>
</g>
</g>
<!-- Node3&#45;&gt;Node5 -->
<g id="edge4_Node000003_Node000005" class="edge">
<title>Node3&#45;&gt;Node5</title>
<g id="a_edge4_Node000003_Node000005"><a xlink:title=" ">
<path fill="none" stroke="#63b8ff" d="M304.43,-122.97C313.07,-113.09 324.62,-99.89 333.66,-89.57"/>
<polygon fill="#63b8ff" stroke="#63b8ff" points="336.31,-91.85 340.26,-82.02 331.04,-87.24 336.31,-91.85"/>
</a>
</g>
</g>
<!-- Node6 -->
<g id="Node000006" class="node">
<title>Node6</title>
<g id="a_Node000006"><a xlink:title=" ">
<polygon fill="#e0e0e0" stroke="#999999" points="263.5,-81.67 212.5,-81.67 212.5,-62.67 263.5,-62.67 263.5,-81.67"/>
<text text-anchor="middle" x="238" y="-69.67" font-family="Helvetica,sans-Serif" font-size="10.00">variant</text>
</a>
</g>
</g>
<!-- Node3&#45;&gt;Node6 -->
<g id="edge5_Node000003_Node000006" class="edge">
<title>Node3&#45;&gt;Node6</title>
<g id="a_edge5_Node000003_Node000006"><a xlink:title=" ">
<path fill="none" stroke="#63b8ff" d="M280.02,-122.97C271.76,-113.19 260.76,-100.15 252.09,-89.87"/>
<polygon fill="#63b8ff" stroke="#63b8ff" points="254.59,-87.4 245.46,-82.02 249.24,-91.92 254.59,-87.4"/>
</a>
</g>
</g>
<!-- Node7 -->
<g id="Node000007" class="node">
<title>Node7</title>
<g id="a_Node000007"><a xlink:href="math_2types_2__module_8ixx.html" target="_top" xlink:title=" ">
<polygon fill="white" stroke="#666666" points="941,-21.17 837,-21.17 837,-2.17 941,-2.17 941,-21.17"/>
<text text-anchor="middle" x="889" y="-9.17" font-family="Helvetica,sans-Serif" font-size="10.00">helios.math.types</text>
</a>
</g>
</g>
<!-- Node3&#45;&gt;Node7 -->
<g id="edge6_Node000003_Node000007" class="edge">
<title>Node3&#45;&gt;Node7</title>
<g id="a_edge6_Node000003_Node000007"><a xlink:title=" ">
<path fill="none" stroke="#63b8ff" d="M290.8,-123.09C290.1,-104.83 292.01,-73.41 311,-57.17 349.53,-24.24 685.37,-15.58 826.72,-13.39"/>
<polygon fill="#63b8ff" stroke="#63b8ff" points="827.01,-16.89 836.96,-13.24 826.91,-9.89 827.01,-16.89"/>
</a>
</g>
</g>
<!-- Node8 -->
<g id="Node000008" class="node">
<title>Node8</title>
<g id="a_Node000008"><a xlink:href="UniformSemantics_8ixx.html" target="_top" xlink:title=" ">
<polygon fill="white" stroke="#666666" points="194,-87.17 60,-87.17 60,-57.17 194,-57.17 194,-87.17"/>
<text text-anchor="start" x="68" y="-75.17" font-family="Helvetica,sans-Serif" font-size="10.00">helios.rendering.shader.</text>
<text text-anchor="middle" x="127" y="-64.17" font-family="Helvetica,sans-Serif" font-size="10.00">UniformSemantics</text>
</a>
</g>
</g>
<!-- Node3&#45;&gt;Node8 -->
<g id="edge8_Node000003_Node000008" class="edge">
<title>Node3&#45;&gt;Node8</title>
<g id="a_edge8_Node000003_Node000008"><a xlink:title=" ">
<path fill="none" stroke="#63b8ff" d="M255.79,-123.13C231.29,-113.63 198.73,-101 172.48,-90.82"/>
<polygon fill="#63b8ff" stroke="#63b8ff" points="173.71,-87.54 163.13,-87.19 171.18,-94.07 173.71,-87.54"/>
</a>
</g>
</g>
<!-- Node7&#45;&gt;Node7 -->
<g id="edge7_Node000007_Node000007" class="edge">
<title>Node7&#45;&gt;Node7</title>
<g id="a_edge7_Node000007_Node000007"><a xlink:title=" ">
<path fill="none" stroke="#63b8ff" d="M914.85,-21.21C936.44,-25.28 959,-22.1 959,-11.67 959,-2.87 942.94,0.76 924.95,-0.76"/>
<polygon fill="#63b8ff" stroke="#63b8ff" points="924.28,2.68 914.85,-2.14 925.23,-4.26 924.28,2.68"/>
</a>
</g>
</g>
<!-- Node9 -->
<g id="Node000009" class="node">
<title>Node9</title>
<g id="a_Node000009"><a xlink:title=" ">
<polygon fill="#e0e0e0" stroke="#999999" points="152.5,-21.17 101.5,-21.17 101.5,-2.17 152.5,-2.17 152.5,-21.17"/>
<text text-anchor="middle" x="127" y="-9.17" font-family="Helvetica,sans-Serif" font-size="10.00">cwchar</text>
</a>
</g>
</g>
<!-- Node8&#45;&gt;Node9 -->
<g id="edge9_Node000008_Node000009" class="edge">
<title>Node8&#45;&gt;Node9</title>
<g id="a_edge9_Node000008_Node000009"><a xlink:title=" ">
<path fill="none" stroke="#63b8ff" d="M127,-57.01C127,-49.39 127,-39.88 127,-31.62"/>
<polygon fill="#63b8ff" stroke="#63b8ff" points="130.5,-31.44 127,-21.44 123.5,-31.44 130.5,-31.44"/>
</a>
</g>
</g>
<!-- Node10&#45;&gt;Node2 -->
<g id="edge11_Node000010_Node000002" class="edge">
<title>Node10&#45;&gt;Node2</title>
<g id="a_edge11_Node000010_Node000002"><a xlink:title=" ">
<path fill="none" stroke="#63b8ff" d="M551.7,-189.08C581.15,-180.59 617.44,-168.45 648,-153.17 668.84,-142.76 671.36,-135.71 691,-123.17 711.27,-110.24 734.93,-96.59 752.29,-86.82"/>
<polygon fill="#63b8ff" stroke="#63b8ff" points="754.21,-89.76 761.23,-81.83 750.8,-83.65 754.21,-89.76"/>
</a>
</g>
</g>
<!-- Node10&#45;&gt;Node3 -->
<g id="edge13_Node000010_Node000003" class="edge">
<title>Node10&#45;&gt;Node3</title>
<g id="a_edge13_Node000010_Node000003"><a xlink:title=" ">
<path fill="none" stroke="#63b8ff" d="M451.23,-189.13C420.41,-179.46 379.27,-166.55 346.53,-156.28"/>
<polygon fill="#63b8ff" stroke="#63b8ff" points="347.25,-152.84 336.66,-153.19 345.16,-159.52 347.25,-152.84"/>
</a>
</g>
</g>
<!-- Node10&#45;&gt;Node5 -->
<g id="edge12_Node000010_Node000005" class="edge">
<title>Node10&#45;&gt;Node5</title>
<g id="a_edge12_Node000010_Node000005"><a xlink:title=" ">
<path fill="none" stroke="#63b8ff" d="M479.88,-189.01C451.92,-164.46 394.66,-114.16 365.67,-88.69"/>
<polygon fill="#63b8ff" stroke="#63b8ff" points="367.78,-85.89 357.96,-81.92 363.16,-91.15 367.78,-85.89"/>
</a>
</g>
</g>
<!-- Node11 -->
<g id="Node000011" class="node">
<title>Node11</title>
<g id="a_Node000011"><a xlink:href="Logger_8ixx.html" target="_top" xlink:title=" ">
<polygon fill="white" stroke="#666666" points="513.5,-81.67 394.5,-81.67 394.5,-62.67 513.5,-62.67 513.5,-81.67"/>
<text text-anchor="middle" x="454" y="-69.67" font-family="Helvetica,sans-Serif" font-size="10.00">helios.util.log.Logger</text>
</a>
</g>
</g>
<!-- Node10&#45;&gt;Node11 -->
<g id="edge14_Node000010_Node000011" class="edge">
<title>Node10&#45;&gt;Node11</title>
<g id="a_edge14_Node000010_Node000011"><a xlink:title=" ">
<path fill="none" stroke="#63b8ff" d="M477.98,-189.06C467.96,-180.02 456.44,-167.35 451,-153.17 443.39,-133.35 445.93,-108.7 449.22,-92.05"/>
<polygon fill="#63b8ff" stroke="#63b8ff" points="452.71,-92.47 451.5,-81.95 445.88,-90.93 452.71,-92.47"/>
</a>
</g>
</g>
<!-- Node14 -->
<g id="Node000014" class="node">
<title>Node14</title>
<g id="a_Node000014"><a xlink:href="LogManager_8ixx.html" target="_top" xlink:title=" ">
<polygon fill="white" stroke="#666666" points="639,-147.67 493,-147.67 493,-128.67 639,-128.67 639,-147.67"/>
<text text-anchor="middle" x="566" y="-135.67" font-family="Helvetica,sans-Serif" font-size="10.00">helios.util.log.LogManager</text>
</a>
</g>
</g>
<!-- Node10&#45;&gt;Node14 -->
<g id="edge17_Node000010_Node000014" class="edge">
<title>Node10&#45;&gt;Node14</title>
<g id="a_edge17_Node000010_Node000014"><a xlink:title=" ">
<path fill="none" stroke="#63b8ff" d="M511.54,-188.97C522.56,-178.9 537.35,-165.37 548.74,-154.96"/>
<polygon fill="#63b8ff" stroke="#63b8ff" points="551.31,-157.35 556.33,-148.02 546.58,-152.18 551.31,-157.35"/>
</a>
</g>
</g>
<!-- Node12 -->
<g id="Node000012" class="node">
<title>Node12</title>
<g id="a_Node000012"><a xlink:title=" ">
<polygon fill="#e0e0e0" stroke="#999999" points="484,-21.17 424,-21.17 424,-2.17 484,-2.17 484,-21.17"/>
<text text-anchor="middle" x="454" y="-9.17" font-family="Helvetica,sans-Serif" font-size="10.00">iostream</text>
</a>
</g>
</g>
<!-- Node11&#45;&gt;Node12 -->
<g id="edge15_Node000011_Node000012" class="edge">
<title>Node11&#45;&gt;Node12</title>
<g id="a_edge15_Node000011_Node000012"><a xlink:title=" ">
<path fill="none" stroke="#63b8ff" d="M454,-62.54C454,-54.42 454,-41.98 454,-31.56"/>
<polygon fill="#63b8ff" stroke="#63b8ff" points="457.5,-31.34 454,-21.34 450.5,-31.34 457.5,-31.34"/>
</a>
</g>
</g>
<!-- Node13 -->
<g id="Node000013" class="node">
<title>Node13</title>
<g id="a_Node000013"><a xlink:title=" ">
<polygon fill="#e0e0e0" stroke="#999999" points="555,-21.17 511,-21.17 511,-2.17 555,-2.17 555,-21.17"/>
<text text-anchor="middle" x="533" y="-9.17" font-family="Helvetica,sans-Serif" font-size="10.00">string</text>
</a>
</g>
</g>
<!-- Node11&#45;&gt;Node13 -->
<g id="edge16_Node000011_Node000013" class="edge">
<title>Node11&#45;&gt;Node13</title>
<g id="a_edge16_Node000011_Node000013"><a xlink:title=" ">
<path fill="none" stroke="#63b8ff" d="M465.66,-62.54C478.14,-53.3 498.18,-38.46 513.16,-27.37"/>
<polygon fill="#63b8ff" stroke="#63b8ff" points="515.34,-30.11 521.3,-21.34 511.18,-24.48 515.34,-30.11"/>
</a>
</g>
</g>
<!-- Node14&#45;&gt;Node2 -->
<g id="edge20_Node000014_Node000002" class="edge">
<title>Node14&#45;&gt;Node2</title>
<g id="a_edge20_Node000014_Node000002"><a xlink:title=" ">
<path fill="none" stroke="#63b8ff" d="M598.1,-128.64C632.99,-119.19 690.28,-103.17 739,-87.17 740.9,-86.55 742.85,-85.89 744.82,-85.21"/>
<polygon fill="#63b8ff" stroke="#63b8ff" points="746.34,-88.39 754.59,-81.73 743.99,-81.79 746.34,-88.39"/>
</a>
</g>
</g>
<!-- Node14&#45;&gt;Node11 -->
<g id="edge22_Node000014_Node000011" class="edge">
<title>Node14&#45;&gt;Node11</title>
<g id="a_edge22_Node000014_Node000011"><a xlink:title=" ">
<path fill="none" stroke="#63b8ff" d="M550.9,-128.54C532.19,-117.86 500.1,-99.52 478.01,-86.9"/>
<polygon fill="#63b8ff" stroke="#63b8ff" points="479.64,-83.8 469.22,-81.87 476.17,-89.87 479.64,-83.8"/>
</a>
</g>
</g>
<!-- Node14&#45;&gt;Node13 -->
<g id="edge18_Node000014_Node000013" class="edge">
<title>Node14&#45;&gt;Node13</title>
<g id="a_edge18_Node000014_Node000013"><a xlink:title=" ">
<path fill="none" stroke="#63b8ff" d="M563.73,-128.62C558.43,-108.63 545.14,-58.49 537.9,-31.15"/>
<polygon fill="#63b8ff" stroke="#63b8ff" points="541.23,-30.06 535.28,-21.29 534.46,-31.85 541.23,-30.06"/>
</a>
</g>
</g>
<!-- Node15 -->
<g id="Node000015" class="node">
<title>Node15</title>
<g id="a_Node000015"><a xlink:title=" ">
<polygon fill="#e0e0e0" stroke="#999999" points="729.5,-81.67 636.5,-81.67 636.5,-62.67 729.5,-62.67 729.5,-81.67"/>
<text text-anchor="middle" x="683" y="-69.67" font-family="Helvetica,sans-Serif" font-size="10.00">unordered_map</text>
</a>
</g>
</g>
<!-- Node14&#45;&gt;Node15 -->
<g id="edge19_Node000014_Node000015" class="edge">
<title>Node14&#45;&gt;Node15</title>
<g id="a_edge19_Node000014_Node000015"><a xlink:title=" ">
<path fill="none" stroke="#63b8ff" d="M581.78,-128.54C601.41,-117.81 635.14,-99.36 658.23,-86.73"/>
<polygon fill="#63b8ff" stroke="#63b8ff" points="660,-89.74 667.1,-81.87 656.64,-83.6 660,-89.74"/>
</a>
</g>
</g>
<!-- Node16 -->
<g id="Node000016" class="node">
<title>Node16</title>
<g id="a_Node000016"><a xlink:title=" ">
<polygon fill="#e0e0e0" stroke="#999999" points="618,-81.67 570,-81.67 570,-62.67 618,-62.67 618,-81.67"/>
<text text-anchor="middle" x="594" y="-69.67" font-family="Helvetica,sans-Serif" font-size="10.00">mutex</text>
</a>
</g>
</g>
<!-- Node14&#45;&gt;Node16 -->
<g id="edge21_Node000014_Node000016" class="edge">
<title>Node14&#45;&gt;Node16</title>
<g id="a_edge21_Node000014_Node000016"><a xlink:title=" ">
<path fill="none" stroke="#63b8ff" d="M569.78,-128.54C573.93,-119.05 580.72,-103.54 586.05,-91.34"/>
<polygon fill="#63b8ff" stroke="#63b8ff" points="589.3,-92.64 590.1,-82.08 582.89,-89.84 589.3,-92.64"/>
</a>
</g>
</g>
<!-- Node17&#45;&gt;Node2 -->
<g id="edge24_Node000017_Node000002" class="edge">
<title>Node17&#45;&gt;Node2</title>
<g id="a_edge24_Node000017_Node000002"><a xlink:title=" ">
<path fill="none" stroke="#63b8ff" d="M835.36,-194.64C821.87,-185.97 802.41,-171.26 792,-153.17 781.12,-134.27 777.9,-109.07 777.07,-92.05"/>
<polygon fill="#63b8ff" stroke="#63b8ff" points="780.56,-91.65 776.81,-81.75 773.56,-91.83 780.56,-91.65"/>
</a>
</g>
</g>
<!-- Node17&#45;&gt;Node7 -->
<g id="edge38_Node000017_Node000007" class="edge">
<title>Node17&#45;&gt;Node7</title>
<g id="a_edge38_Node000017_Node000007"><a xlink:title=" ">
<path fill="none" stroke="#63b8ff" d="M929.24,-199.04C1042.62,-192.32 1239.98,-177.28 1262,-153.17 1290.78,-121.66 1292.34,-89.08 1264,-57.17 1243.64,-34.25 1052.78,-21.07 951.48,-15.63"/>
<polygon fill="#63b8ff" stroke="#63b8ff" points="951.55,-12.13 941.37,-15.1 951.18,-19.12 951.55,-12.13"/>
</a>
</g>
</g>
<!-- Node17&#45;&gt;Node11 -->
<g id="edge27_Node000017_Node000011" class="edge">
<title>Node17&#45;&gt;Node11</title>
<g id="a_edge27_Node000017_Node000011"><a xlink:title=" ">
<path fill="none" stroke="#63b8ff" d="M770.74,-201.65C676.63,-198.27 526.97,-187.49 484,-153.17 465.38,-138.3 458.31,-110.59 455.64,-92.01"/>
<polygon fill="#63b8ff" stroke="#63b8ff" points="459.08,-91.36 454.47,-81.82 452.13,-92.15 459.08,-91.36"/>
</a>
</g>
</g>
<!-- Node17&#45;&gt;Node14 -->
<g id="edge28_Node000017_Node000014" class="edge">
<title>Node17&#45;&gt;Node14</title>
<g id="a_edge28_Node000017_Node000014"><a xlink:title=" ">
<path fill="none" stroke="#63b8ff" d="M811.99,-194.61C760.77,-183.07 669.58,-162.52 613.77,-149.94"/>
<polygon fill="#63b8ff" stroke="#63b8ff" points="614.31,-146.47 603.78,-147.69 612.77,-153.3 614.31,-146.47"/>
</a>
</g>
</g>
<!-- Node18 -->
<g id="Node000018" class="node">
<title>Node18</title>
<g id="a_Node000018"><a xlink:title=" ">
<polygon fill="#e0e0e0" stroke="#999999" points="1052.5,-147.67 987.5,-147.67 987.5,-128.67 1052.5,-128.67 1052.5,-147.67"/>
<text text-anchor="middle" x="1020" y="-135.67" font-family="Helvetica,sans-Serif" font-size="10.00">stdexcept</text>
</a>
</g>
</g>
<!-- Node17&#45;&gt;Node18 -->
<g id="edge25_Node000017_Node000018" class="edge">
<title>Node17&#45;&gt;Node18</title>
<g id="a_edge25_Node000017_Node000018"><a xlink:title=" ">
<path fill="none" stroke="#63b8ff" d="M872.93,-194.54C902.54,-183.39 954.25,-163.93 987.8,-151.3"/>
<polygon fill="#63b8ff" stroke="#63b8ff" points="989.04,-154.57 997.17,-147.77 986.57,-148.02 989.04,-154.57"/>
</a>
</g>
</g>
<!-- Node19 -->
<g id="Node000019" class="node">
<title>Node19</title>
<g id="a_Node000019"><a xlink:title=" ">
<polygon fill="#e0e0e0" stroke="#999999" points="1254.5,-81.67 1207.5,-81.67 1207.5,-62.67 1254.5,-62.67 1254.5,-81.67"/>
<text text-anchor="middle" x="1231" y="-69.67" font-family="Helvetica,sans-Serif" font-size="10.00">vector</text>
</a>
</g>
</g>
<!-- Node17&#45;&gt;Node19 -->
<g id="edge26_Node000017_Node000019" class="edge">
<title>Node17&#45;&gt;Node19</title>
<g id="a_edge26_Node000017_Node000019"><a xlink:title=" ">
<path fill="none" stroke="#63b8ff" d="M929.04,-198.67C1038.07,-191.63 1223.54,-176.39 1244,-153.17 1259,-136.15 1249.95,-108.83 1241.19,-90.94"/>
<polygon fill="#63b8ff" stroke="#63b8ff" points="1244.16,-89.07 1236.38,-81.87 1237.97,-92.35 1244.16,-89.07"/>
</a>
</g>
</g>
<!-- Node20 -->
<g id="Node000020" class="node">
<title>Node20</title>
<g id="a_Node000020"><a xlink:href="Vertex_8ixx.html" target="_top" xlink:title=" ">
<polygon fill="white" stroke="#666666" points="954,-81.67 824,-81.67 824,-62.67 954,-62.67 954,-81.67"/>
<text text-anchor="middle" x="889" y="-69.67" font-family="Helvetica,sans-Serif" font-size="10.00">helios.rendering.Vertex</text>
</a>
</g>
</g>
<!-- Node17&#45;&gt;Node20 -->
<g id="edge29_Node000017_Node000020" class="edge">
<title>Node17&#45;&gt;Node20</title>
<g id="a_edge29_Node000017_Node000020"><a xlink:title=" ">
<path fill="none" stroke="#63b8ff" d="M837.69,-194.63C818.34,-180.11 784.53,-149.61 800,-123.17 810.42,-105.36 829.78,-93.41 847.78,-85.67"/>
<polygon fill="#63b8ff" stroke="#63b8ff" points="849.57,-88.73 857.58,-81.8 846.99,-82.22 849.57,-88.73"/>
</a>
</g>
</g>
<!-- Node21 -->
<g id="Node000021" class="node">
<title>Node21</title>
<g id="a_Node000021"><a xlink:href="Shape_8ixx.html" target="_top" xlink:title=" ">
<polygon fill="white" stroke="#666666" points="969,-153.17 809,-153.17 809,-123.17 969,-123.17 969,-153.17"/>
<text text-anchor="start" x="817" y="-141.17" font-family="Helvetica,sans-Serif" font-size="10.00">helios.rendering.asset.shape.</text>
<text text-anchor="middle" x="889" y="-130.17" font-family="Helvetica,sans-Serif" font-size="10.00">Shape</text>
</a>
</g>
</g>
<!-- Node17&#45;&gt;Node21 -->
<g id="edge31_Node000017_Node000021" class="edge">
<title>Node17&#45;&gt;Node21</title>
<g id="a_edge31_Node000017_Node000021"><a xlink:title=" ">
<path fill="none" stroke="#63b8ff" d="M855.26,-194.54C860.31,-186.25 868.17,-173.36 875.03,-162.1"/>
<polygon fill="#63b8ff" stroke="#63b8ff" points="878.03,-163.9 880.25,-153.54 872.06,-160.25 878.03,-163.9"/>
</a>
</g>
</g>
<!-- Node23 -->
<g id="Node000023" class="node">
<title>Node23</title>
<g id="a_Node000023"><a xlink:href="MeshConfig_8ixx.html" target="_top" xlink:title=" ">
<polygon fill="white" stroke="#666666" points="1235,-153.17 1071,-153.17 1071,-123.17 1235,-123.17 1235,-153.17"/>
<text text-anchor="start" x="1079" y="-141.17" font-family="Helvetica,sans-Serif" font-size="10.00">helios.rendering.model.config.</text>
<text text-anchor="middle" x="1153" y="-130.17" font-family="Helvetica,sans-Serif" font-size="10.00">MeshConfig</text>
</a>
</g>
</g>
<!-- Node17&#45;&gt;Node23 -->
<g id="edge36_Node000017_Node000023" class="edge">
<title>Node17&#45;&gt;Node23</title>
<g id="a_edge36_Node000017_Node000023"><a xlink:title=" ">
<path fill="none" stroke="#63b8ff" d="M890.55,-194.61C937.96,-184.6 1017.46,-167.8 1076.56,-155.32"/>
<polygon fill="#63b8ff" stroke="#63b8ff" points="1077.54,-158.69 1086.6,-153.2 1076.09,-151.84 1077.54,-158.69"/>
</a>
</g>
</g>
<!-- Node20&#45;&gt;Node7 -->
<g id="edge30_Node000020_Node000007" class="edge">
<title>Node20&#45;&gt;Node7</title>
<g id="a_edge30_Node000020_Node000007"><a xlink:title=" ">
<path fill="none" stroke="#63b8ff" d="M889,-62.54C889,-54.42 889,-41.98 889,-31.56"/>
<polygon fill="#63b8ff" stroke="#63b8ff" points="892.5,-31.34 889,-21.34 885.5,-31.34 892.5,-31.34"/>
</a>
</g>
</g>
<!-- Node21&#45;&gt;Node2 -->
<g id="edge32_Node000021_Node000002" class="edge">
<title>Node21&#45;&gt;Node2</title>
<g id="a_edge32_Node000021_Node000002"><a xlink:title=" ">
<path fill="none" stroke="#63b8ff" d="M864.42,-123.13C845.47,-112.3 819.42,-97.42 800.7,-86.72"/>
<polygon fill="#63b8ff" stroke="#63b8ff" points="802.32,-83.61 791.91,-81.69 798.85,-89.69 802.32,-83.61"/>
</a>
</g>
</g>
<!-- Node21&#45;&gt;Node19 -->
<g id="edge33_Node000021_Node000019" class="edge">
<title>Node21&#45;&gt;Node19</title>
<g id="a_edge33_Node000021_Node000019"><a xlink:title=" ">
<path fill="none" stroke="#63b8ff" d="M968.52,-123.15C1023.26,-113.38 1097.61,-99.87 1163,-87.17 1174.21,-85 1186.43,-82.52 1197.39,-80.25"/>
<polygon fill="#63b8ff" stroke="#63b8ff" points="1198.35,-83.63 1207.42,-78.16 1196.92,-76.77 1198.35,-83.63"/>
</a>
</g>
</g>
<!-- Node21&#45;&gt;Node20 -->
<g id="edge35_Node000021_Node000020" class="edge">
<title>Node21&#45;&gt;Node20</title>
<g id="a_edge35_Node000021_Node000020"><a xlink:title=" ">
<path fill="none" stroke="#63b8ff" d="M889,-122.97C889,-113.87 889,-101.96 889,-92.07"/>
<polygon fill="#63b8ff" stroke="#63b8ff" points="892.5,-92.02 889,-82.02 885.5,-92.02 892.5,-92.02"/>
</a>
</g>
</g>
<!-- Node22 -->
<g id="Node000022" class="node">
<title>Node22</title>
<g id="a_Node000022"><a xlink:href="PrimitiveType_8ixx.html" target="_top" xlink:title=" ">
<polygon fill="white" stroke="#666666" points="1154,-87.17 990,-87.17 990,-57.17 1154,-57.17 1154,-87.17"/>
<text text-anchor="start" x="998" y="-75.17" font-family="Helvetica,sans-Serif" font-size="10.00">helios.rendering.model.config.</text>
<text text-anchor="middle" x="1072" y="-64.17" font-family="Helvetica,sans-Serif" font-size="10.00">PrimitiveType</text>
</a>
</g>
</g>
<!-- Node21&#45;&gt;Node22 -->
<g id="edge34_Node000021_Node000022" class="edge">
<title>Node21&#45;&gt;Node22</title>
<g id="a_edge34_Node000021_Node000022"><a xlink:title=" ">
<path fill="none" stroke="#63b8ff" d="M929.16,-123.13C956.57,-113.54 993.08,-100.78 1022.32,-90.55"/>
<polygon fill="#63b8ff" stroke="#63b8ff" points="1023.65,-93.79 1031.93,-87.19 1021.34,-87.18 1023.65,-93.79"/>
</a>
</g>
</g>
<!-- Node23&#45;&gt;Node22 -->
<g id="edge37_Node000023_Node000022" class="edge">
<title>Node23&#45;&gt;Node22</title>
<g id="a_edge37_Node000023_Node000022"><a xlink:title=" ">
<path fill="none" stroke="#63b8ff" d="M1135.02,-122.97C1124.12,-114.35 1110.02,-103.21 1097.92,-93.65"/>
<polygon fill="#63b8ff" stroke="#63b8ff" points="1099.94,-90.79 1089.93,-87.34 1095.6,-96.28 1099.94,-90.79"/>
</a>
</g>
</g>
</g>
</svg>
