<?xml version="1.0" encoding="UTF-8" standalone="no"?>
<!DOCTYPE svg PUBLIC "-//W3C//DTD SVG 1.1//EN"
 "http://www.w3.org/Graphics/SVG/1.1/DTD/svg11.dtd">
<!-- Generated by graphviz version 2.43.0 (0)
 -->
<!-- Title: include/helios/rendering/RenderCommand.ixx Pages: 1 -->
<svg width="1765pt" height="456pt"
 viewBox="0.00 0.00 1765.14 456.00" xmlns="http://www.w3.org/2000/svg" xmlns:xlink="http://www.w3.org/1999/xlink">
<g id="graph0" class="graph" transform="scale(1 1) rotate(0) translate(4 452)">
<title>include/helios/rendering/RenderCommand.ixx</title>
<!-- Node1 -->
<g id="Node000001" class="node">
<title>Node1</title>
<g id="a_Node000001"><a xlink:title="Representation of a low&#45;level render command.">
<polygon fill="#999999" stroke="#666666" points="1188,-448 1054,-448 1054,-418 1188,-418 1188,-448"/>
<text text-anchor="start" x="1062" y="-436" font-family="Helvetica,sans-Serif" font-size="10.00">include/helios/rendering</text>
<text text-anchor="middle" x="1121" y="-425" font-family="Helvetica,sans-Serif" font-size="10.00">/RenderCommand.ixx</text>
</a>
</g>
</g>
<!-- Node2 -->
<g id="Node000002" class="node">
<title>Node2</title>
<g id="a_Node000002"><a xlink:title=" ">
<polygon fill="#e0e0e0" stroke="#999999" points="1293,-74 1235,-74 1235,-55 1293,-55 1293,-74"/>
<text text-anchor="middle" x="1264" y="-62" font-family="Helvetica,sans-Serif" font-size="10.00">memory</text>
</a>
</g>
</g>
<!-- Node1&#45;&gt;Node2 -->
<g id="edge1_Node000001_Node000002" class="edge">
<title>Node1&#45;&gt;Node2</title>
<g id="a_edge1_Node000001_Node000002"><a xlink:title=" ">
<path fill="none" stroke="#63b8ff" d="M1188.25,-426.96C1351.42,-413.83 1755,-375.6 1755,-318.5 1755,-318.5 1755,-318.5 1755,-190 1755,-153.46 1763.58,-133.98 1736,-110 1719.72,-95.84 1413.3,-75.01 1303.08,-67.95"/>
<polygon fill="#63b8ff" stroke="#63b8ff" points="1303.25,-64.45 1293.04,-67.31 1302.8,-71.44 1303.25,-64.45"/>
</a>
</g>
</g>
<!-- Node3 -->
<g id="Node000003" class="node">
<title>Node3</title>
<g id="a_Node000003"><a xlink:href="UniformValueMap_8ixx.html" target="_top" xlink:title="Mapping of uniform names to values used by shader programs.">
<polygon fill="white" stroke="#666666" points="901,-206 767,-206 767,-176 901,-176 901,-206"/>
<text text-anchor="start" x="775" y="-194" font-family="Helvetica,sans-Serif" font-size="10.00">helios.rendering.shader.</text>
<text text-anchor="middle" x="834" y="-183" font-family="Helvetica,sans-Serif" font-size="10.00">UniformValueMap</text>
</a>
</g>
</g>
<!-- Node1&#45;&gt;Node3 -->
<g id="edge2_Node000001_Node000003" class="edge">
<title>Node1&#45;&gt;Node3</title>
<g id="a_edge2_Node000001_Node000003"><a xlink:title=" ">
<path fill="none" stroke="#63b8ff" d="M1053.87,-425.97C988.68,-416.36 892.01,-391.46 839,-327 813.39,-295.86 819.92,-245.68 826.97,-216.06"/>
<polygon fill="#63b8ff" stroke="#63b8ff" points="830.42,-216.71 829.54,-206.15 823.64,-214.96 830.42,-216.71"/>
</a>
</g>
</g>
<!-- Node9 -->
<g id="Node000009" class="node">
<title>Node9</title>
<g id="a_Node000009"><a xlink:href="RenderPrototype_8ixx.html" target="_top" xlink:title="An immutable, shared prototype of a renderable object.">
<polygon fill="white" stroke="#666666" points="1211,-382 1031,-382 1031,-363 1211,-363 1211,-382"/>
<text text-anchor="middle" x="1121" y="-370" font-family="Helvetica,sans-Serif" font-size="10.00">helios.rendering.RenderPrototype</text>
</a>
</g>
</g>
<!-- Node1&#45;&gt;Node9 -->
<g id="edge9_Node000001_Node000009" class="edge">
<title>Node1&#45;&gt;Node9</title>
<g id="a_edge9_Node000001_Node000009"><a xlink:title=" ">
<path fill="none" stroke="#63b8ff" d="M1121,-417.84C1121,-410.21 1121,-400.7 1121,-392.45"/>
<polygon fill="#63b8ff" stroke="#63b8ff" points="1124.5,-392.27 1121,-382.27 1117.5,-392.27 1124.5,-392.27"/>
</a>
</g>
</g>
<!-- Node4 -->
<g id="Node000004" class="node">
<title>Node4</title>
<g id="a_Node000004"><a xlink:title=" ">
<polygon fill="#e0e0e0" stroke="#999999" points="788,-134.5 746,-134.5 746,-115.5 788,-115.5 788,-134.5"/>
<text text-anchor="middle" x="767" y="-122.5" font-family="Helvetica,sans-Serif" font-size="10.00">array</text>
</a>
</g>
</g>
<!-- Node3&#45;&gt;Node4 -->
<g id="edge3_Node000003_Node000004" class="edge">
<title>Node3&#45;&gt;Node4</title>
<g id="a_edge3_Node000003_Node000004"><a xlink:title=" ">
<path fill="none" stroke="#63b8ff" d="M819.13,-175.8C808.58,-165.72 794.42,-152.19 783.52,-141.78"/>
<polygon fill="#63b8ff" stroke="#63b8ff" points="785.91,-139.22 776.26,-134.84 781.07,-144.28 785.91,-139.22"/>
</a>
</g>
</g>
<!-- Node5 -->
<g id="Node000005" class="node">
<title>Node5</title>
<g id="a_Node000005"><a xlink:title=" ">
<polygon fill="#e0e0e0" stroke="#999999" points="862,-134.5 806,-134.5 806,-115.5 862,-115.5 862,-134.5"/>
<text text-anchor="middle" x="834" y="-122.5" font-family="Helvetica,sans-Serif" font-size="10.00">optional</text>
</a>
</g>
</g>
<!-- Node3&#45;&gt;Node5 -->
<g id="edge4_Node000003_Node000005" class="edge">
<title>Node3&#45;&gt;Node5</title>
<g id="a_edge4_Node000003_Node000005"><a xlink:title=" ">
<path fill="none" stroke="#63b8ff" d="M834,-175.8C834,-166.7 834,-154.79 834,-144.9"/>
<polygon fill="#63b8ff" stroke="#63b8ff" points="837.5,-144.84 834,-134.84 830.5,-144.84 837.5,-144.84"/>
</a>
</g>
</g>
<!-- Node6 -->
<g id="Node000006" class="node">
<title>Node6</title>
<g id="a_Node000006"><a xlink:title=" ">
<polygon fill="#e0e0e0" stroke="#999999" points="931.5,-134.5 880.5,-134.5 880.5,-115.5 931.5,-115.5 931.5,-134.5"/>
<text text-anchor="middle" x="906" y="-122.5" font-family="Helvetica,sans-Serif" font-size="10.00">variant</text>
</a>
</g>
</g>
<!-- Node3&#45;&gt;Node6 -->
<g id="edge5_Node000003_Node000006" class="edge">
<title>Node3&#45;&gt;Node6</title>
<g id="a_edge5_Node000003_Node000006"><a xlink:title=" ">
<path fill="none" stroke="#63b8ff" d="M849.98,-175.8C861.31,-165.72 876.53,-152.19 888.25,-141.78"/>
<polygon fill="#63b8ff" stroke="#63b8ff" points="890.9,-144.1 896.05,-134.84 886.25,-138.87 890.9,-144.1"/>
</a>
</g>
</g>
<!-- Node7 -->
<g id="Node000007" class="node">
<title>Node7</title>
<g id="a_Node000007"><a xlink:href="helios_2math_2types_2__module_8ixx.html" target="_top" xlink:title="Module exports for vector and matrix type definitions.">
<polygon fill="white" stroke="#666666" points="1560,-74 1456,-74 1456,-55 1560,-55 1560,-74"/>
<text text-anchor="middle" x="1508" y="-62" font-family="Helvetica,sans-Serif" font-size="10.00">helios.math.types</text>
</a>
</g>
</g>
<!-- Node3&#45;&gt;Node7 -->
<g id="edge6_Node000003_Node000007" class="edge">
<title>Node3&#45;&gt;Node7</title>
<g id="a_edge6_Node000003_Node000007"><a xlink:title=" ">
<path fill="none" stroke="#63b8ff" d="M868.87,-175.81C890.03,-166.66 917.25,-153.89 940,-140 958.66,-128.6 958.61,-117.9 979,-110 1021.57,-93.5 1315.12,-75.88 1445.66,-68.76"/>
<polygon fill="#63b8ff" stroke="#63b8ff" points="1446.1,-72.25 1455.9,-68.21 1445.72,-65.26 1446.1,-72.25"/>
</a>
</g>
</g>
<!-- Node8 -->
<g id="Node000008" class="node">
<title>Node8</title>
<g id="a_Node000008"><a xlink:href="UniformSemantics_8ixx.html" target="_top" xlink:title="Definitions of uniform semantics used by shaders.">
<polygon fill="white" stroke="#666666" points="1122,-140 988,-140 988,-110 1122,-110 1122,-140"/>
<text text-anchor="start" x="996" y="-128" font-family="Helvetica,sans-Serif" font-size="10.00">helios.rendering.shader.</text>
<text text-anchor="middle" x="1055" y="-117" font-family="Helvetica,sans-Serif" font-size="10.00">UniformSemantics</text>
</a>
</g>
</g>
<!-- Node3&#45;&gt;Node8 -->
<g id="edge8_Node000003_Node000008" class="edge">
<title>Node3&#45;&gt;Node8</title>
<g id="a_edge8_Node000003_Node000008"><a xlink:title=" ">
<path fill="none" stroke="#63b8ff" d="M882.5,-175.95C916.18,-166.2 961.22,-153.16 996.84,-142.84"/>
<polygon fill="#63b8ff" stroke="#63b8ff" points="997.98,-146.16 1006.61,-140.01 996.03,-139.43 997.98,-146.16"/>
</a>
</g>
</g>
<!-- Node7&#45;&gt;Node7 -->
<g id="edge7_Node000007_Node000007" class="edge">
<title>Node7&#45;&gt;Node7</title>
<g id="a_edge7_Node000007_Node000007"><a xlink:title=" ">
<path fill="none" stroke="#63b8ff" d="M1540.77,-74.03C1560,-76.06 1578,-72.88 1578,-64.5 1578,-57.62 1565.89,-54.25 1550.92,-54.38"/>
<polygon fill="#63b8ff" stroke="#63b8ff" points="1550.55,-50.89 1540.77,-54.97 1550.95,-57.88 1550.55,-50.89"/>
</a>
</g>
</g>
<!-- Node9&#45;&gt;Node2 -->
<g id="edge10_Node000009_Node000002" class="edge">
<title>Node9&#45;&gt;Node2</title>
<g id="a_edge10_Node000009_Node000002"><a xlink:title=" ">
<path fill="none" stroke="#63b8ff" d="M1119.65,-362.63C1115.68,-333.71 1106.41,-240.3 1141,-176 1152.97,-153.75 1166.02,-156.68 1185,-140 1207.19,-120.5 1231.81,-96.96 1247.58,-81.63"/>
<polygon fill="#63b8ff" stroke="#63b8ff" points="1250.24,-83.92 1254.95,-74.43 1245.35,-78.91 1250.24,-83.92"/>
</a>
</g>
</g>
<!-- Node10 -->
<g id="Node000010" class="node">
<title>Node10</title>
<g id="a_Node000010"><a xlink:href="Mesh_8ixx.html" target="_top" xlink:title="Mesh abstraction: immutable vertex/index data and configuration.">
<polygon fill="white" stroke="#666666" points="1379,-266.5 1221,-266.5 1221,-247.5 1379,-247.5 1379,-266.5"/>
<text text-anchor="middle" x="1300" y="-254.5" font-family="Helvetica,sans-Serif" font-size="10.00">helios.rendering.model.Mesh</text>
</a>
</g>
</g>
<!-- Node9&#45;&gt;Node10 -->
<g id="edge11_Node000009_Node000010" class="edge">
<title>Node9&#45;&gt;Node10</title>
<g id="a_edge11_Node000009_Node000010"><a xlink:title=" ">
<path fill="none" stroke="#63b8ff" d="M1134.45,-362.97C1165.04,-343.58 1240.02,-296.03 1277.67,-272.16"/>
<polygon fill="#63b8ff" stroke="#63b8ff" points="1279.82,-274.94 1286.39,-266.63 1276.07,-269.03 1279.82,-274.94"/>
</a>
</g>
</g>
<!-- Node24 -->
<g id="Node000024" class="node">
<title>Node24</title>
<g id="a_Node000024"><a xlink:href="Material_8ixx.html" target="_top" xlink:title="Material abstraction: shader + material properties.">
<polygon fill="white" stroke="#666666" points="1021.5,-327 848.5,-327 848.5,-308 1021.5,-308 1021.5,-327"/>
<text text-anchor="middle" x="935" y="-315" font-family="Helvetica,sans-Serif" font-size="10.00">helios.rendering.model.Material</text>
</a>
</g>
</g>
<!-- Node9&#45;&gt;Node24 -->
<g id="edge41_Node000009_Node000024" class="edge">
<title>Node9&#45;&gt;Node24</title>
<g id="a_edge41_Node000009_Node000024"><a xlink:title=" ">
<path fill="none" stroke="#63b8ff" d="M1091.12,-362.98C1059.62,-354.01 1009.83,-339.82 974.97,-329.89"/>
<polygon fill="#63b8ff" stroke="#63b8ff" points="975.69,-326.46 965.12,-327.08 973.78,-333.19 975.69,-326.46"/>
</a>
</g>
</g>
<!-- Node10&#45;&gt;Node2 -->
<g id="edge12_Node000010_Node000002" class="edge">
<title>Node10&#45;&gt;Node2</title>
<g id="a_edge12_Node000010_Node000002"><a xlink:title=" ">
<path fill="none" stroke="#63b8ff" d="M1299.99,-247.06C1299.86,-232.21 1299.05,-201.56 1295,-176 1290.26,-146.08 1286.33,-139.12 1278,-110 1275.55,-101.43 1272.62,-92.01 1270.08,-84.05"/>
<polygon fill="#63b8ff" stroke="#63b8ff" points="1273.34,-82.76 1266.93,-74.32 1266.68,-84.92 1273.34,-82.76"/>
</a>
</g>
</g>
<!-- Node10&#45;&gt;Node7 -->
<g id="edge15_Node000010_Node000007" class="edge">
<title>Node10&#45;&gt;Node7</title>
<g id="a_edge15_Node000010_Node000007"><a xlink:title=" ">
<path fill="none" stroke="#63b8ff" d="M1379.14,-256.36C1485.06,-255.22 1665.38,-247.06 1715,-206 1748.65,-178.15 1763.77,-143.71 1736,-110 1715.37,-84.95 1630.56,-73.81 1570.43,-68.99"/>
<polygon fill="#63b8ff" stroke="#63b8ff" points="1570.5,-65.48 1560.26,-68.21 1569.96,-72.46 1570.5,-65.48"/>
</a>
</g>
</g>
<!-- Node11 -->
<g id="Node000011" class="node">
<title>Node11</title>
<g id="a_Node000011"><a xlink:title=" ">
<polygon fill="#e0e0e0" stroke="#999999" points="1214.5,-200.5 1149.5,-200.5 1149.5,-181.5 1214.5,-181.5 1214.5,-200.5"/>
<text text-anchor="middle" x="1182" y="-188.5" font-family="Helvetica,sans-Serif" font-size="10.00">stdexcept</text>
</a>
</g>
</g>
<!-- Node10&#45;&gt;Node11 -->
<g id="edge13_Node000010_Node000011" class="edge">
<title>Node10&#45;&gt;Node11</title>
<g id="a_edge13_Node000010_Node000011"><a xlink:title=" ">
<path fill="none" stroke="#63b8ff" d="M1284.09,-247.37C1264.29,-236.63 1230.27,-218.18 1206.99,-205.55"/>
<polygon fill="#63b8ff" stroke="#63b8ff" points="1208.5,-202.39 1198.04,-200.7 1205.16,-208.54 1208.5,-202.39"/>
</a>
</g>
</g>
<!-- Node12 -->
<g id="Node000012" class="node">
<title>Node12</title>
<g id="a_Node000012"><a xlink:title=" ">
<polygon fill="#e0e0e0" stroke="#999999" points="983.5,-74 936.5,-74 936.5,-55 983.5,-55 983.5,-74"/>
<text text-anchor="middle" x="960" y="-62" font-family="Helvetica,sans-Serif" font-size="10.00">vector</text>
</a>
</g>
</g>
<!-- Node10&#45;&gt;Node12 -->
<g id="edge14_Node000010_Node000012" class="edge">
<title>Node10&#45;&gt;Node12</title>
<g id="a_edge14_Node000010_Node000012"><a xlink:title=" ">
<path fill="none" stroke="#63b8ff" d="M1297.32,-247.49C1291.95,-231.65 1278.52,-197.29 1257,-176 1182.47,-102.27 1054.33,-77.08 993.69,-69.02"/>
<polygon fill="#63b8ff" stroke="#63b8ff" points="993.88,-65.51 983.52,-67.74 993.01,-72.46 993.88,-65.51"/>
</a>
</g>
</g>
<!-- Node13 -->
<g id="Node000013" class="node">
<title>Node13</title>
<g id="a_Node000013"><a xlink:href="Logger_8ixx.html" target="_top" xlink:title="Simple synchronous logger with configurable output sinks.">
<polygon fill="white" stroke="#666666" points="359.5,-134.5 240.5,-134.5 240.5,-115.5 359.5,-115.5 359.5,-134.5"/>
<text text-anchor="middle" x="300" y="-122.5" font-family="Helvetica,sans-Serif" font-size="10.00">helios.util.log.Logger</text>
</a>
</g>
</g>
<!-- Node10&#45;&gt;Node13 -->
<g id="edge16_Node000010_Node000013" class="edge">
<title>Node10&#45;&gt;Node13</title>
<g id="a_edge16_Node000010_Node000013"><a xlink:title=" ">
<path fill="none" stroke="#63b8ff" d="M1295.06,-247.45C1284.56,-230.21 1258.15,-191.61 1224,-176 1145.19,-139.99 531.43,-146.17 445,-140 420.39,-138.24 393.48,-135.79 369.59,-133.43"/>
<polygon fill="#63b8ff" stroke="#63b8ff" points="369.85,-129.94 359.56,-132.43 369.16,-136.91 369.85,-129.94"/>
</a>
</g>
</g>
<!-- Node17 -->
<g id="Node000017" class="node">
<title>Node17</title>
<g id="a_Node000017"><a xlink:href="LogManager_8ixx.html" target="_top" xlink:title="Central manager for scoped loggers with configurable sinks.">
<polygon fill="white" stroke="#666666" points="574,-200.5 428,-200.5 428,-181.5 574,-181.5 574,-200.5"/>
<text text-anchor="middle" x="501" y="-188.5" font-family="Helvetica,sans-Serif" font-size="10.00">helios.util.log.LogManager</text>
</a>
</g>
</g>
<!-- Node10&#45;&gt;Node17 -->
<g id="edge23_Node000010_Node000017" class="edge">
<title>Node10&#45;&gt;Node17</title>
<g id="a_edge23_Node000010_Node000017"><a xlink:title=" ">
<path fill="none" stroke="#63b8ff" d="M1220.84,-249.66C1069.29,-237.52 739.52,-211.11 584.59,-198.7"/>
<polygon fill="#63b8ff" stroke="#63b8ff" points="584.43,-195.17 574.19,-197.86 583.88,-202.15 584.43,-195.17"/>
</a>
</g>
</g>
<!-- Node20 -->
<g id="Node000020" class="node">
<title>Node20</title>
<g id="a_Node000020"><a xlink:href="Shape_8ixx.html" target="_top" xlink:title="Interface for simple geometric shapes used for testing and debugging.">
<polygon fill="white" stroke="#666666" points="1507,-206 1347,-206 1347,-176 1507,-176 1507,-206"/>
<text text-anchor="start" x="1355" y="-194" font-family="Helvetica,sans-Serif" font-size="10.00">helios.rendering.asset.shape.</text>
<text text-anchor="middle" x="1427" y="-183" font-family="Helvetica,sans-Serif" font-size="10.00">Shape</text>
</a>
</g>
</g>
<!-- Node10&#45;&gt;Node20 -->
<g id="edge32_Node000010_Node000020" class="edge">
<title>Node10&#45;&gt;Node20</title>
<g id="a_edge32_Node000010_Node000020"><a xlink:title=" ">
<path fill="none" stroke="#63b8ff" d="M1317.13,-247.37C1335.66,-238.03 1365.77,-222.86 1389.79,-210.75"/>
<polygon fill="#63b8ff" stroke="#63b8ff" points="1391.63,-213.74 1398.99,-206.12 1388.48,-207.49 1391.63,-213.74"/>
</a>
</g>
</g>
<!-- Node22 -->
<g id="Node000022" class="node">
<title>Node22</title>
<g id="a_Node000022"><a xlink:href="Vertex_8ixx.html" target="_top" xlink:title="Vertex description and utilities for rendering.">
<polygon fill="white" stroke="#666666" points="1727,-134.5 1597,-134.5 1597,-115.5 1727,-115.5 1727,-134.5"/>
<text text-anchor="middle" x="1662" y="-122.5" font-family="Helvetica,sans-Serif" font-size="10.00">helios.rendering.Vertex</text>
</a>
</g>
</g>
<!-- Node10&#45;&gt;Node22 -->
<g id="edge40_Node000010_Node000022" class="edge">
<title>Node10&#45;&gt;Node22</title>
<g id="a_edge40_Node000010_Node000022"><a xlink:title=" ">
<path fill="none" stroke="#63b8ff" d="M1379.38,-251.58C1489.45,-244.63 1677.3,-229.47 1698,-206 1714.69,-187.08 1694.71,-159.16 1678.53,-141.8"/>
<polygon fill="#63b8ff" stroke="#63b8ff" points="1681.01,-139.32 1671.51,-134.63 1676.01,-144.22 1681.01,-139.32"/>
</a>
</g>
</g>
<!-- Node23 -->
<g id="Node000023" class="node">
<title>Node23</title>
<g id="a_Node000023"><a xlink:href="MeshConfig_8ixx.html" target="_top" xlink:title="Mesh configuration including primitive type.">
<polygon fill="white" stroke="#666666" points="1689,-206 1525,-206 1525,-176 1689,-176 1689,-206"/>
<text text-anchor="start" x="1533" y="-194" font-family="Helvetica,sans-Serif" font-size="10.00">helios.rendering.model.config.</text>
<text text-anchor="middle" x="1607" y="-183" font-family="Helvetica,sans-Serif" font-size="10.00">MeshConfig</text>
</a>
</g>
</g>
<!-- Node10&#45;&gt;Node23 -->
<g id="edge38_Node000010_Node000023" class="edge">
<title>Node10&#45;&gt;Node23</title>
<g id="a_edge38_Node000010_Node000023"><a xlink:title=" ">
<path fill="none" stroke="#63b8ff" d="M1341.08,-247.44C1389.22,-237.4 1470,-220.56 1529.92,-208.07"/>
<polygon fill="#63b8ff" stroke="#63b8ff" points="1530.65,-211.49 1539.72,-206.02 1529.22,-204.64 1530.65,-211.49"/>
</a>
</g>
</g>
<!-- Node13&#45;&gt;Node2 -->
<g id="edge19_Node000013_Node000002" class="edge">
<title>Node13&#45;&gt;Node2</title>
<g id="a_edge19_Node000013_Node000002"><a xlink:title=" ">
<path fill="none" stroke="#63b8ff" d="M359.78,-115.72C376.64,-113.6 395.02,-111.5 412,-110 724.58,-82.34 1103.3,-69.98 1224.62,-66.55"/>
<polygon fill="#63b8ff" stroke="#63b8ff" points="1224.99,-70.04 1234.89,-66.26 1224.8,-63.04 1224.99,-70.04"/>
</a>
</g>
</g>
<!-- Node13&#45;&gt;Node12 -->
<g id="edge18_Node000013_Node000012" class="edge">
<title>Node13&#45;&gt;Node12</title>
<g id="a_edge18_Node000013_Node000012"><a xlink:title=" ">
<path fill="none" stroke="#63b8ff" d="M359.52,-116.07C376.46,-113.95 394.94,-111.76 412,-110 606.4,-89.97 840.37,-73.51 926.27,-67.73"/>
<polygon fill="#63b8ff" stroke="#63b8ff" points="926.72,-71.21 936.47,-67.04 926.25,-64.22 926.72,-71.21"/>
</a>
</g>
</g>
<!-- Node14 -->
<g id="Node000014" class="node">
<title>Node14</title>
<g id="a_Node000014"><a xlink:title=" ">
<polygon fill="#e0e0e0" stroke="#999999" points="277,-19 233,-19 233,0 277,0 277,-19"/>
<text text-anchor="middle" x="255" y="-7" font-family="Helvetica,sans-Serif" font-size="10.00">string</text>
</a>
</g>
</g>
<!-- Node13&#45;&gt;Node14 -->
<g id="edge17_Node000013_Node000014" class="edge">
<title>Node13&#45;&gt;Node14</title>
<g id="a_edge17_Node000013_Node000014"><a xlink:title=" ">
<path fill="none" stroke="#63b8ff" d="M298.36,-115.26C295.68,-101.92 289.78,-75.84 281,-55 277,-45.52 271.35,-35.57 266.34,-27.5"/>
<polygon fill="#63b8ff" stroke="#63b8ff" points="269.23,-25.53 260.88,-19.01 263.35,-29.32 269.23,-25.53"/>
</a>
</g>
</g>
<!-- Node15 -->
<g id="Node000015" class="node">
<title>Node15</title>
<g id="a_Node000015"><a xlink:title=" ">
<polygon fill="#e0e0e0" stroke="#999999" points="394,-74 346,-74 346,-55 394,-55 394,-74"/>
<text text-anchor="middle" x="370" y="-62" font-family="Helvetica,sans-Serif" font-size="10.00">mutex</text>
</a>
</g>
</g>
<!-- Node13&#45;&gt;Node15 -->
<g id="edge20_Node000013_Node000015" class="edge">
<title>Node13&#45;&gt;Node15</title>
<g id="a_edge20_Node000013_Node000015"><a xlink:title=" ">
<path fill="none" stroke="#63b8ff" d="M310.33,-115.37C321.19,-106.3 338.49,-91.84 351.67,-80.82"/>
<polygon fill="#63b8ff" stroke="#63b8ff" points="354.2,-83.27 359.63,-74.17 349.71,-77.89 354.2,-83.27"/>
</a>
</g>
</g>
<!-- Node16 -->
<g id="Node000016" class="node">
<title>Node16</title>
<g id="a_Node000016"><a xlink:href="LogSink_8ixx.html" target="_top" xlink:title="Abstract interface for log output destinations.">
<polygon fill="white" stroke="#666666" points="272,-74 148,-74 148,-55 272,-55 272,-74"/>
<text text-anchor="middle" x="210" y="-62" font-family="Helvetica,sans-Serif" font-size="10.00">helios.util.log.LogSink</text>
</a>
</g>
</g>
<!-- Node13&#45;&gt;Node16 -->
<g id="edge21_Node000013_Node000016" class="edge">
<title>Node13&#45;&gt;Node16</title>
<g id="a_edge21_Node000013_Node000016"><a xlink:title=" ">
<path fill="none" stroke="#63b8ff" d="M286.72,-115.37C272.36,-106.04 249.24,-91.01 232.13,-79.88"/>
<polygon fill="#63b8ff" stroke="#63b8ff" points="233.63,-76.68 223.33,-74.17 229.81,-82.55 233.63,-76.68"/>
</a>
</g>
</g>
<!-- Node16&#45;&gt;Node14 -->
<g id="edge22_Node000016_Node000014" class="edge">
<title>Node16&#45;&gt;Node14</title>
<g id="a_edge22_Node000016_Node000014"><a xlink:title=" ">
<path fill="none" stroke="#63b8ff" d="M217.43,-54.75C223.85,-47.18 233.31,-36.05 241.12,-26.84"/>
<polygon fill="#63b8ff" stroke="#63b8ff" points="243.9,-28.98 247.71,-19.09 238.57,-24.45 243.9,-28.98"/>
</a>
</g>
</g>
<!-- Node17&#45;&gt;Node2 -->
<g id="edge27_Node000017_Node000002" class="edge">
<title>Node17&#45;&gt;Node2</title>
<g id="a_edge27_Node000017_Node000002"><a xlink:title=" ">
<path fill="none" stroke="#63b8ff" d="M487.34,-181.45C464.43,-166.13 422.85,-133.39 445,-110 458.57,-95.68 1062.64,-72.8 1224.47,-66.91"/>
<polygon fill="#63b8ff" stroke="#63b8ff" points="1225.04,-70.4 1234.91,-66.54 1224.79,-63.4 1225.04,-70.4"/>
</a>
</g>
</g>
<!-- Node17&#45;&gt;Node12 -->
<g id="edge29_Node000017_Node000012" class="edge">
<title>Node17&#45;&gt;Node12</title>
<g id="a_edge29_Node000017_Node000012"><a xlink:title=" ">
<path fill="none" stroke="#63b8ff" d="M554.33,-181.47C594.08,-173.87 649.04,-160.69 694,-140 715.17,-130.26 715.56,-119.14 737,-110 800.54,-82.91 881.4,-72.06 926.22,-67.91"/>
<polygon fill="#63b8ff" stroke="#63b8ff" points="926.62,-71.39 936.27,-67.03 926.01,-64.41 926.62,-71.39"/>
</a>
</g>
</g>
<!-- Node17&#45;&gt;Node13 -->
<g id="edge30_Node000017_Node000013" class="edge">
<title>Node17&#45;&gt;Node13</title>
<g id="a_edge30_Node000017_Node000013"><a xlink:title=" ">
<path fill="none" stroke="#63b8ff" d="M473.89,-181.37C438.43,-170.08 376.16,-150.25 336.55,-137.64"/>
<polygon fill="#63b8ff" stroke="#63b8ff" points="337.59,-134.3 327,-134.6 335.47,-140.97 337.59,-134.3"/>
</a>
</g>
</g>
<!-- Node17&#45;&gt;Node14 -->
<g id="edge24_Node000017_Node000014" class="edge">
<title>Node17&#45;&gt;Node14</title>
<g id="a_edge24_Node000017_Node000014"><a xlink:title=" ">
<path fill="none" stroke="#63b8ff" d="M562.97,-181.48C620.18,-170.97 691.96,-149.46 661,-110 614.34,-50.53 374.79,-21.96 287.16,-13.38"/>
<polygon fill="#63b8ff" stroke="#63b8ff" points="287.3,-9.88 277.01,-12.41 286.63,-16.85 287.3,-9.88"/>
</a>
</g>
</g>
<!-- Node17&#45;&gt;Node15 -->
<g id="edge28_Node000017_Node000015" class="edge">
<title>Node17&#45;&gt;Node15</title>
<g id="a_edge28_Node000017_Node000015"><a xlink:title=" ">
<path fill="none" stroke="#63b8ff" d="M478.31,-181.37C458.86,-173.09 431.06,-159.03 412,-140 395.8,-123.82 383.87,-100.1 376.95,-83.79"/>
<polygon fill="#63b8ff" stroke="#63b8ff" points="380.12,-82.27 373.13,-74.3 373.62,-84.89 380.12,-82.27"/>
</a>
</g>
</g>
<!-- Node17&#45;&gt;Node16 -->
<g id="edge31_Node000017_Node000016" class="edge">
<title>Node17&#45;&gt;Node16</title>
<g id="a_edge31_Node000017_Node000016"><a xlink:title=" ">
<path fill="none" stroke="#63b8ff" d="M427.78,-185.05C357.91,-178.85 259.22,-165.74 231,-140 215.59,-125.94 211.15,-101.55 210.04,-84.52"/>
<polygon fill="#63b8ff" stroke="#63b8ff" points="213.52,-84.01 209.71,-74.12 206.53,-84.23 213.52,-84.01"/>
</a>
</g>
</g>
<!-- Node18 -->
<g id="Node000018" class="node">
<title>Node18</title>
<g id="a_Node000018"><a xlink:title=" ">
<polygon fill="#e0e0e0" stroke="#999999" points="547.5,-134.5 454.5,-134.5 454.5,-115.5 547.5,-115.5 547.5,-134.5"/>
<text text-anchor="middle" x="501" y="-122.5" font-family="Helvetica,sans-Serif" font-size="10.00">unordered_map</text>
</a>
</g>
</g>
<!-- Node17&#45;&gt;Node18 -->
<g id="edge25_Node000017_Node000018" class="edge">
<title>Node17&#45;&gt;Node18</title>
<g id="a_edge25_Node000017_Node000018"><a xlink:title=" ">
<path fill="none" stroke="#63b8ff" d="M501,-181.37C501,-172.16 501,-157.29 501,-145.27"/>
<polygon fill="#63b8ff" stroke="#63b8ff" points="504.5,-144.91 501,-134.91 497.5,-144.91 504.5,-144.91"/>
</a>
</g>
</g>
<!-- Node19 -->
<g id="Node000019" class="node">
<title>Node19</title>
<g id="a_Node000019"><a xlink:title=" ">
<polygon fill="#e0e0e0" stroke="#999999" points="652,-134.5 566,-134.5 566,-115.5 652,-115.5 652,-134.5"/>
<text text-anchor="middle" x="609" y="-122.5" font-family="Helvetica,sans-Serif" font-size="10.00">unordered_set</text>
</a>
</g>
</g>
<!-- Node17&#45;&gt;Node19 -->
<g id="edge26_Node000017_Node000019" class="edge">
<title>Node17&#45;&gt;Node19</title>
<g id="a_edge26_Node000017_Node000019"><a xlink:title=" ">
<path fill="none" stroke="#63b8ff" d="M515.57,-181.37C533.52,-170.73 564.27,-152.51 585.56,-139.89"/>
<polygon fill="#63b8ff" stroke="#63b8ff" points="587.5,-142.81 594.32,-134.7 583.93,-136.79 587.5,-142.81"/>
</a>
</g>
</g>
<!-- Node20&#45;&gt;Node2 -->
<g id="edge33_Node000020_Node000002" class="edge">
<title>Node20&#45;&gt;Node2</title>
<g id="a_edge33_Node000020_Node000002"><a xlink:title=" ">
<path fill="none" stroke="#63b8ff" d="M1418.66,-175.87C1407.76,-158.41 1387.18,-128.74 1363,-110 1344.65,-95.78 1321.04,-84.94 1301.47,-77.52"/>
<polygon fill="#63b8ff" stroke="#63b8ff" points="1302.54,-74.19 1291.95,-74.06 1300.15,-80.77 1302.54,-74.19"/>
</a>
</g>
</g>
<!-- Node20&#45;&gt;Node12 -->
<g id="edge34_Node000020_Node000012" class="edge">
<title>Node20&#45;&gt;Node12</title>
<g id="a_edge34_Node000020_Node000012"><a xlink:title=" ">
<path fill="none" stroke="#63b8ff" d="M1392.85,-175.93C1349.22,-158.4 1271.08,-128.51 1202,-110 1128.73,-90.37 1040.67,-76.56 993.59,-69.94"/>
<polygon fill="#63b8ff" stroke="#63b8ff" points="994.02,-66.47 983.64,-68.57 993.06,-73.4 994.02,-66.47"/>
</a>
</g>
</g>
<!-- Node21 -->
<g id="Node000021" class="node">
<title>Node21</title>
<g id="a_Node000021"><a xlink:href="PrimitiveType_8ixx.html" target="_top" xlink:title="Enum of primitive types for mesh rendering.">
<polygon fill="white" stroke="#666666" points="1579,-140 1415,-140 1415,-110 1579,-110 1579,-140"/>
<text text-anchor="start" x="1423" y="-128" font-family="Helvetica,sans-Serif" font-size="10.00">helios.rendering.model.config.</text>
<text text-anchor="middle" x="1497" y="-117" font-family="Helvetica,sans-Serif" font-size="10.00">PrimitiveType</text>
</a>
</g>
</g>
<!-- Node20&#45;&gt;Node21 -->
<g id="edge35_Node000020_Node000021" class="edge">
<title>Node20&#45;&gt;Node21</title>
<g id="a_edge35_Node000020_Node000021"><a xlink:title=" ">
<path fill="none" stroke="#63b8ff" d="M1442.54,-175.8C1451.78,-167.34 1463.68,-156.46 1474,-147.03"/>
<polygon fill="#63b8ff" stroke="#63b8ff" points="1476.49,-149.49 1481.51,-140.16 1471.77,-144.33 1476.49,-149.49"/>
</a>
</g>
</g>
<!-- Node20&#45;&gt;Node22 -->
<g id="edge36_Node000020_Node000022" class="edge">
<title>Node20&#45;&gt;Node22</title>
<g id="a_edge36_Node000020_Node000022"><a xlink:title=" ">
<path fill="none" stroke="#63b8ff" d="M1478.57,-175.95C1521.33,-164.31 1581.3,-147.98 1620.88,-137.2"/>
<polygon fill="#63b8ff" stroke="#63b8ff" points="1622,-140.52 1630.73,-134.52 1620.16,-133.77 1622,-140.52"/>
</a>
</g>
</g>
<!-- Node22&#45;&gt;Node7 -->
<g id="edge37_Node000022_Node000007" class="edge">
<title>Node22&#45;&gt;Node7</title>
<g id="a_edge37_Node000022_Node000007"><a xlink:title=" ">
<path fill="none" stroke="#63b8ff" d="M1639.61,-115.49C1613.38,-105.53 1569.72,-88.95 1539.94,-77.63"/>
<polygon fill="#63b8ff" stroke="#63b8ff" points="1541.01,-74.3 1530.42,-74.02 1538.53,-80.84 1541.01,-74.3"/>
</a>
</g>
</g>
<!-- Node23&#45;&gt;Node21 -->
<g id="edge39_Node000023_Node000021" class="edge">
<title>Node23&#45;&gt;Node21</title>
<g id="a_edge39_Node000023_Node000021"><a xlink:title=" ">
<path fill="none" stroke="#63b8ff" d="M1582.86,-175.95C1567.39,-166.95 1547.09,-155.14 1530.12,-145.27"/>
<polygon fill="#63b8ff" stroke="#63b8ff" points="1531.49,-142.02 1521.08,-140.01 1527.97,-148.07 1531.49,-142.02"/>
</a>
</g>
</g>
<!-- Node24&#45;&gt;Node2 -->
<g id="edge42_Node000024_Node000002" class="edge">
<title>Node24&#45;&gt;Node2</title>
<g id="a_edge42_Node000024_Node000002"><a xlink:title=" ">
<path fill="none" stroke="#63b8ff" d="M958.96,-307.97C978.27,-300.38 1005.48,-288.01 1026,-272 1070.02,-237.67 1065.84,-213.71 1107,-176 1150.4,-136.25 1208.62,-98.76 1240.57,-79.33"/>
<polygon fill="#63b8ff" stroke="#63b8ff" points="1242.46,-82.28 1249.22,-74.12 1238.85,-76.28 1242.46,-82.28"/>
</a>
</g>
</g>
<!-- Node24&#45;&gt;Node3 -->
<g id="edge59_Node000024_Node000003" class="edge">
<title>Node24&#45;&gt;Node3</title>
<g id="a_edge59_Node000024_Node000003"><a xlink:title=" ">
<path fill="none" stroke="#63b8ff" d="M899.31,-307.99C879.83,-301.44 857.08,-290.32 844,-272 832.59,-256.02 830.68,-233.53 831.29,-216.47"/>
<polygon fill="#63b8ff" stroke="#63b8ff" points="834.8,-216.37 831.97,-206.16 827.82,-215.91 834.8,-216.37"/>
</a>
</g>
</g>
<!-- Node24&#45;&gt;Node11 -->
<g id="edge43_Node000024_Node000011" class="edge">
<title>Node24&#45;&gt;Node11</title>
<g id="a_edge43_Node000024_Node000011"><a xlink:title=" ">
<path fill="none" stroke="#63b8ff" d="M964.86,-307.93C990.48,-300.08 1028.06,-287.35 1059,-272 1097.65,-252.82 1138.99,-224.01 1162.55,-206.7"/>
<polygon fill="#63b8ff" stroke="#63b8ff" points="1164.73,-209.44 1170.67,-200.67 1160.55,-203.82 1164.73,-209.44"/>
</a>
</g>
</g>
<!-- Node25 -->
<g id="Node000025" class="node">
<title>Node25</title>
<g id="a_Node000025"><a xlink:href="helios_2util_2log_2__module_8ixx.html" target="_top" xlink:title="Module exports for logging.">
<polygon fill="white" stroke="#666666" points="341.5,-266.5 258.5,-266.5 258.5,-247.5 341.5,-247.5 341.5,-266.5"/>
<text text-anchor="middle" x="300" y="-254.5" font-family="Helvetica,sans-Serif" font-size="10.00">helios.util.log</text>
</a>
</g>
</g>
<!-- Node24&#45;&gt;Node25 -->
<g id="edge44_Node000024_Node000025" class="edge">
<title>Node24&#45;&gt;Node25</title>
<g id="a_edge44_Node000024_Node000025"><a xlink:title=" ">
<path fill="none" stroke="#63b8ff" d="M848.37,-308.52C714.23,-296.16 460.4,-272.78 351.61,-262.75"/>
<polygon fill="#63b8ff" stroke="#63b8ff" points="351.82,-259.26 341.55,-261.83 351.18,-266.23 351.82,-259.26"/>
</a>
</g>
</g>
<!-- Node27 -->
<g id="Node000027" class="node">
<title>Node27</title>
<g id="a_Node000027"><a xlink:href="MaterialProperties_8ixx.html" target="_top" xlink:title="Default material properties used by materials and instances.">
<polygon fill="white" stroke="#666666" points="1017,-272 853,-272 853,-242 1017,-242 1017,-272"/>
<text text-anchor="start" x="861" y="-260" font-family="Helvetica,sans-Serif" font-size="10.00">helios.rendering.model.config.</text>
<text text-anchor="middle" x="935" y="-249" font-family="Helvetica,sans-Serif" font-size="10.00">MaterialProperties</text>
</a>
</g>
</g>
<!-- Node24&#45;&gt;Node27 -->
<g id="edge51_Node000024_Node000027" class="edge">
<title>Node24&#45;&gt;Node27</title>
<g id="a_edge51_Node000024_Node000027"><a xlink:title=" ">
<path fill="none" stroke="#63b8ff" d="M935,-307.87C935,-301.11 935,-291.35 935,-282.26"/>
<polygon fill="#63b8ff" stroke="#63b8ff" points="938.5,-282.11 935,-272.11 931.5,-282.11 938.5,-282.11"/>
</a>
</g>
</g>
<!-- Node28 -->
<g id="Node000028" class="node">
<title>Node28</title>
<g id="a_Node000028"><a xlink:href="Shader_8ixx.html" target="_top" xlink:title="Abstraction for a compiled shader program.">
<polygon fill="white" stroke="#666666" points="668,-272 534,-272 534,-242 668,-242 668,-272"/>
<text text-anchor="start" x="542" y="-260" font-family="Helvetica,sans-Serif" font-size="10.00">helios.rendering.shader.</text>
<text text-anchor="middle" x="601" y="-249" font-family="Helvetica,sans-Serif" font-size="10.00">Shader</text>
</a>
</g>
</g>
<!-- Node24&#45;&gt;Node28 -->
<g id="edge55_Node000024_Node000028" class="edge">
<title>Node24&#45;&gt;Node28</title>
<g id="a_edge55_Node000024_Node000028"><a xlink:title=" ">
<path fill="none" stroke="#63b8ff" d="M886.43,-307.99C831.82,-298.43 742.39,-282.76 678.18,-271.52"/>
<polygon fill="#63b8ff" stroke="#63b8ff" points="678.56,-268.03 668.1,-269.75 677.35,-274.93 678.56,-268.03"/>
</a>
</g>
</g>
<!-- Node25&#45;&gt;Node13 -->
<g id="edge46_Node000025_Node000013" class="edge">
<title>Node25&#45;&gt;Node13</title>
<g id="a_edge46_Node000025_Node000013"><a xlink:title=" ">
<path fill="none" stroke="#63b8ff" d="M300,-247.47C300,-226.82 300,-173.72 300,-145.04"/>
<polygon fill="#63b8ff" stroke="#63b8ff" points="303.5,-144.73 300,-134.73 296.5,-144.73 303.5,-144.73"/>
</a>
</g>
</g>
<!-- Node25&#45;&gt;Node16 -->
<g id="edge50_Node000025_Node000016" class="edge">
<title>Node25&#45;&gt;Node16</title>
<g id="a_edge50_Node000025_Node000016"><a xlink:title=" ">
<path fill="none" stroke="#63b8ff" d="M290.01,-247.35C270.37,-229.59 227.22,-186.76 211,-140 204.72,-121.89 205.37,-99.77 207.04,-84.37"/>
<polygon fill="#63b8ff" stroke="#63b8ff" points="210.56,-84.44 208.41,-74.07 203.62,-83.52 210.56,-84.44"/>
</a>
</g>
</g>
<!-- Node25&#45;&gt;Node17 -->
<g id="edge45_Node000025_Node000017" class="edge">
<title>Node25&#45;&gt;Node17</title>
<g id="a_edge45_Node000025_Node000017"><a xlink:title=" ">
<path fill="none" stroke="#63b8ff" d="M327.11,-247.37C362.57,-236.08 424.84,-216.25 464.45,-203.64"/>
<polygon fill="#63b8ff" stroke="#63b8ff" points="465.53,-206.97 474,-200.6 463.41,-200.3 465.53,-206.97"/>
</a>
</g>
</g>
<!-- Node26 -->
<g id="Node000026" class="node">
<title>Node26</title>
<g id="a_Node000026"><a xlink:href="ConsoleSink_8ixx.html" target="_top" xlink:title="Log sink that writes to stdout.">
<polygon fill="white" stroke="#666666" points="146,-134.5 0,-134.5 0,-115.5 146,-115.5 146,-134.5"/>
<text text-anchor="middle" x="73" y="-122.5" font-family="Helvetica,sans-Serif" font-size="10.00">helios.util.log.ConsoleSink</text>
</a>
</g>
</g>
<!-- Node25&#45;&gt;Node26 -->
<g id="edge47_Node000025_Node000026" class="edge">
<title>Node25&#45;&gt;Node26</title>
<g id="a_edge47_Node000025_Node000026"><a xlink:title=" ">
<path fill="none" stroke="#63b8ff" d="M264.03,-247.44C234.66,-239.46 192.81,-225.81 160,-206 131.02,-188.5 103.25,-160.32 87.18,-142.5"/>
<polygon fill="#63b8ff" stroke="#63b8ff" points="89.51,-139.86 80.27,-134.68 84.27,-144.49 89.51,-139.86"/>
</a>
</g>
</g>
<!-- Node26&#45;&gt;Node14 -->
<g id="edge48_Node000026_Node000014" class="edge">
<title>Node26&#45;&gt;Node14</title>
<g id="a_edge48_Node000026_Node000014"><a xlink:title=" ">
<path fill="none" stroke="#63b8ff" d="M79.35,-115.17C90.12,-100.76 113.33,-72.08 139,-55 164.93,-37.75 198.51,-25.81 222.86,-18.67"/>
<polygon fill="#63b8ff" stroke="#63b8ff" points="224,-21.98 232.68,-15.9 222.11,-15.24 224,-21.98"/>
</a>
</g>
</g>
<!-- Node26&#45;&gt;Node16 -->
<g id="edge49_Node000026_Node000016" class="edge">
<title>Node26&#45;&gt;Node16</title>
<g id="a_edge49_Node000026_Node000016"><a xlink:title=" ">
<path fill="none" stroke="#63b8ff" d="M92.92,-115.49C115.95,-105.66 154.08,-89.38 180.54,-78.08"/>
<polygon fill="#63b8ff" stroke="#63b8ff" points="182.23,-81.16 190.05,-74.02 179.48,-74.72 182.23,-81.16"/>
</a>
</g>
</g>
<!-- Node27&#45;&gt;Node3 -->
<g id="edge53_Node000027_Node000003" class="edge">
<title>Node27&#45;&gt;Node3</title>
<g id="a_edge53_Node000027_Node000003"><a xlink:title=" ">
<path fill="none" stroke="#63b8ff" d="M912.58,-241.8C898.59,-232.93 880.38,-221.39 865.02,-211.66"/>
<polygon fill="#63b8ff" stroke="#63b8ff" points="866.67,-208.56 856.35,-206.16 862.93,-214.47 866.67,-208.56"/>
</a>
</g>
</g>
<!-- Node27&#45;&gt;Node7 -->
<g id="edge54_Node000027_Node000007" class="edge">
<title>Node27&#45;&gt;Node7</title>
<g id="a_edge54_Node000027_Node000007"><a xlink:title=" ">
<path fill="none" stroke="#63b8ff" d="M968.96,-241.87C1009.55,-225.21 1079.69,-197.1 1141,-176 1258,-135.74 1398.67,-95.66 1466.89,-76.75"/>
<polygon fill="#63b8ff" stroke="#63b8ff" points="1468.1,-80.04 1476.81,-74 1466.24,-73.3 1468.1,-80.04"/>
</a>
</g>
</g>
<!-- Node27&#45;&gt;Node8 -->
<g id="edge52_Node000027_Node000008" class="edge">
<title>Node27&#45;&gt;Node8</title>
<g id="a_edge52_Node000027_Node000008"><a xlink:title=" ">
<path fill="none" stroke="#63b8ff" d="M948.07,-241.84C968.99,-219.18 1010.14,-174.6 1034.85,-147.83"/>
<polygon fill="#63b8ff" stroke="#63b8ff" points="1037.73,-149.86 1041.95,-140.14 1032.59,-145.12 1037.73,-149.86"/>
</a>
</g>
</g>
<!-- Node28&#45;&gt;Node3 -->
<g id="edge56_Node000028_Node000003" class="edge">
<title>Node28&#45;&gt;Node3</title>
<g id="a_edge56_Node000028_Node000003"><a xlink:title=" ">
<path fill="none" stroke="#63b8ff" d="M652.13,-241.95C687.79,-232.16 735.54,-219.05 773.16,-208.71"/>
<polygon fill="#63b8ff" stroke="#63b8ff" points="774.27,-212.04 782.99,-206.01 772.42,-205.29 774.27,-212.04"/>
</a>
</g>
</g>
<!-- Node28&#45;&gt;Node13 -->
<g id="edge57_Node000028_Node000013" class="edge">
<title>Node28&#45;&gt;Node13</title>
<g id="a_edge57_Node000028_Node000013"><a xlink:title=" ">
<path fill="none" stroke="#63b8ff" d="M533.91,-243.04C498.73,-234.9 455.49,-222.73 419,-206 380.45,-188.32 340.5,-158.74 318.09,-140.93"/>
<polygon fill="#63b8ff" stroke="#63b8ff" points="320.12,-138.07 310.14,-134.51 315.72,-143.51 320.12,-138.07"/>
</a>
</g>
</g>
<!-- Node28&#45;&gt;Node17 -->
<g id="edge58_Node000028_Node000017" class="edge">
<title>Node28&#45;&gt;Node17</title>
<g id="a_edge58_Node000028_Node000017"><a xlink:title=" ">
<path fill="none" stroke="#63b8ff" d="M578.81,-241.8C562.2,-231.17 539.6,-216.7 523.03,-206.1"/>
<polygon fill="#63b8ff" stroke="#63b8ff" points="524.84,-203.1 514.53,-200.66 521.06,-209 524.84,-203.1"/>
</a>
</g>
</g>
</g>
</svg>
