<?xml version="1.0" encoding="UTF-8" standalone="no"?>
<!DOCTYPE svg PUBLIC "-//W3C//DTD SVG 1.1//EN"
 "http://www.w3.org/Graphics/SVG/1.1/DTD/svg11.dtd">
<!-- Generated by graphviz version 2.43.0 (0)
 -->
<!-- Title: include/helios/rendering/model/_module.ixx Pages: 1 -->
<svg width="1542pt" height="412pt"
 viewBox="0.00 0.00 1542.24 412.00" xmlns="http://www.w3.org/2000/svg" xmlns:xlink="http://www.w3.org/1999/xlink">
<g id="graph0" class="graph" transform="scale(1 1) rotate(0) translate(4 408)">
<title>include/helios/rendering/model/_module.ixx</title>
<!-- Node1 -->
<g id="Node000001" class="node">
<title>Node1</title>
<g id="a_Node000001"><a xlink:title=" ">
<polygon fill="#999999" stroke="#666666" points="643.04,-404 509.04,-404 509.04,-374 643.04,-374 643.04,-404"/>
<text text-anchor="start" x="517.04" y="-392" font-family="Helvetica,sans-Serif" font-size="10.00">include/helios/rendering</text>
<text text-anchor="middle" x="576.04" y="-381" font-family="Helvetica,sans-Serif" font-size="10.00">/model/_module.ixx</text>
</a>
</g>
</g>
<!-- Node2 -->
<g id="Node000002" class="node">
<title>Node2</title>
<g id="a_Node000002"><a xlink:href="MaterialInstance_8ixx.html" target="_top" xlink:title=" ">
<polygon fill="white" stroke="#666666" points="605.54,-338 432.54,-338 432.54,-308 605.54,-308 605.54,-338"/>
<text text-anchor="start" x="440.54" y="-326" font-family="Helvetica,sans-Serif" font-size="10.00">helios.rendering.model.Material</text>
<text text-anchor="middle" x="519.04" y="-315" font-family="Helvetica,sans-Serif" font-size="10.00">Instance</text>
</a>
</g>
</g>
<!-- Node1&#45;&gt;Node2 -->
<g id="edge1_Node000001_Node000002" class="edge">
<title>Node1&#45;&gt;Node2</title>
<g id="a_edge1_Node000001_Node000002"><a xlink:title=" ">
<path fill="none" stroke="#63b8ff" d="M563.39,-373.8C556.08,-365.59 546.74,-355.1 538.51,-345.87"/>
<polygon fill="#63b8ff" stroke="#63b8ff" points="540.92,-343.3 531.65,-338.16 535.69,-347.96 540.92,-343.3"/>
</a>
</g>
</g>
<!-- Node19 -->
<g id="Node000019" class="node">
<title>Node19</title>
<g id="a_Node000019"><a xlink:href="Material_8ixx.html" target="_top" xlink:title=" ">
<polygon fill="white" stroke="#666666" points="487.54,-272 314.54,-272 314.54,-253 487.54,-253 487.54,-272"/>
<text text-anchor="middle" x="401.04" y="-260" font-family="Helvetica,sans-Serif" font-size="10.00">helios.rendering.model.Material</text>
</a>
</g>
</g>
<!-- Node1&#45;&gt;Node19 -->
<g id="edge44_Node000001_Node000019" class="edge">
<title>Node1&#45;&gt;Node19</title>
<g id="a_edge44_Node000001_Node000019"><a xlink:title=" ">
<path fill="none" stroke="#63b8ff" d="M508.87,-379.95C479.36,-373.2 446.42,-360.8 424.04,-338 409.4,-323.09 404.05,-299.07 402.11,-282.35"/>
<polygon fill="#63b8ff" stroke="#63b8ff" points="405.58,-281.81 401.24,-272.14 398.6,-282.4 405.58,-281.81"/>
</a>
</g>
</g>
<!-- Node23 -->
<g id="Node000023" class="node">
<title>Node23</title>
<g id="a_Node000023"><a xlink:href="Mesh_8ixx.html" target="_top" xlink:title=" ">
<polygon fill="white" stroke="#666666" points="1186.04,-272 1028.04,-272 1028.04,-253 1186.04,-253 1186.04,-272"/>
<text text-anchor="middle" x="1107.04" y="-260" font-family="Helvetica,sans-Serif" font-size="10.00">helios.rendering.model.Mesh</text>
</a>
</g>
</g>
<!-- Node1&#45;&gt;Node23 -->
<g id="edge45_Node000001_Node000023" class="edge">
<title>Node1&#45;&gt;Node23</title>
<g id="a_edge45_Node000001_Node000023"><a xlink:title=" ">
<path fill="none" stroke="#63b8ff" d="M635.92,-373.96C742.82,-348.9 964.32,-296.96 1060.63,-274.38"/>
<polygon fill="#63b8ff" stroke="#63b8ff" points="1061.71,-277.72 1070.65,-272.03 1060.11,-270.91 1061.71,-277.72"/>
</a>
</g>
</g>
<!-- Node29 -->
<g id="Node000029" class="node">
<title>Node29</title>
<g id="a_Node000029"><a xlink:href="rendering_2model_2config_2__module_8ixx.html" target="_top" xlink:title=" ">
<polygon fill="white" stroke="#666666" points="1365.54,-272 1204.54,-272 1204.54,-253 1365.54,-253 1365.54,-272"/>
<text text-anchor="middle" x="1285.04" y="-260" font-family="Helvetica,sans-Serif" font-size="10.00">helios.rendering.model.config</text>
</a>
</g>
</g>
<!-- Node1&#45;&gt;Node29 -->
<g id="edge61_Node000001_Node000029" class="edge">
<title>Node1&#45;&gt;Node29</title>
<g id="a_edge61_Node000001_Node000029"><a xlink:title=" ">
<path fill="none" stroke="#63b8ff" d="M643.31,-376.32C701.48,-366.22 787.81,-351.19 863.04,-338 993.04,-315.2 1145.53,-288.22 1226.9,-273.81"/>
<polygon fill="#63b8ff" stroke="#63b8ff" points="1227.71,-277.22 1236.94,-272.03 1226.49,-270.32 1227.71,-277.22"/>
</a>
</g>
</g>
<!-- Node3 -->
<g id="Node000003" class="node">
<title>Node3</title>
<g id="a_Node000003"><a xlink:title=" ">
<polygon fill="#e0e0e0" stroke="#999999" points="487.04,-79.5 429.04,-79.5 429.04,-60.5 487.04,-60.5 487.04,-79.5"/>
<text text-anchor="middle" x="458.04" y="-67.5" font-family="Helvetica,sans-Serif" font-size="10.00">memory</text>
</a>
</g>
</g>
<!-- Node2&#45;&gt;Node3 -->
<g id="edge2_Node000002_Node000003" class="edge">
<title>Node2&#45;&gt;Node3</title>
<g id="a_edge2_Node000002_Node000003"><a xlink:title=" ">
<path fill="none" stroke="#63b8ff" d="M518,-307.63C515.98,-282.75 510.77,-230.18 500.04,-187 491.16,-151.29 475.28,-111.27 465.8,-88.81"/>
<polygon fill="#63b8ff" stroke="#63b8ff" points="468.98,-87.35 461.83,-79.54 462.55,-90.11 468.98,-87.35"/>
</a>
</g>
</g>
<!-- Node4 -->
<g id="Node000004" class="node">
<title>Node4</title>
<g id="a_Node000004"><a xlink:href="math_2types_2__module_8ixx.html" target="_top" xlink:title=" ">
<polygon fill="white" stroke="#666666" points="1075.04,-79.5 971.04,-79.5 971.04,-60.5 1075.04,-60.5 1075.04,-79.5"/>
<text text-anchor="middle" x="1023.04" y="-67.5" font-family="Helvetica,sans-Serif" font-size="10.00">helios.math.types</text>
</a>
</g>
</g>
<!-- Node2&#45;&gt;Node4 -->
<g id="edge3_Node000002_Node000004" class="edge">
<title>Node2&#45;&gt;Node4</title>
<g id="a_edge3_Node000002_Node000004"><a xlink:title=" ">
<path fill="none" stroke="#63b8ff" d="M605.78,-316.14C733.82,-305.51 963.91,-278.23 1016.04,-217 1046.8,-180.86 1036.35,-119.6 1028.48,-89.21"/>
<polygon fill="#63b8ff" stroke="#63b8ff" points="1031.84,-88.21 1025.78,-79.52 1025.1,-90.09 1031.84,-88.21"/>
</a>
</g>
</g>
<!-- Node5 -->
<g id="Node000005" class="node">
<title>Node5</title>
<g id="a_Node000005"><a xlink:href="Logger_8ixx.html" target="_top" xlink:title=" ">
<polygon fill="white" stroke="#666666" points="159.54,-79.5 40.54,-79.5 40.54,-60.5 159.54,-60.5 159.54,-79.5"/>
<text text-anchor="middle" x="100.04" y="-67.5" font-family="Helvetica,sans-Serif" font-size="10.00">helios.util.log.Logger</text>
</a>
</g>
</g>
<!-- Node2&#45;&gt;Node5 -->
<g id="edge5_Node000002_Node000005" class="edge">
<title>Node2&#45;&gt;Node5</title>
<g id="a_edge5_Node000002_Node000005"><a xlink:title=" ">
<path fill="none" stroke="#63b8ff" d="M432.41,-317.3C300.9,-308.1 60.76,-282.57 10.04,-217 -24.73,-172.06 42.34,-112.99 78.75,-85.83"/>
<polygon fill="#63b8ff" stroke="#63b8ff" points="81.23,-88.35 87.26,-79.64 77.11,-82.69 81.23,-88.35"/>
</a>
</g>
</g>
<!-- Node8 -->
<g id="Node000008" class="node">
<title>Node8</title>
<g id="a_Node000008"><a xlink:href="UniformValueMap_8ixx.html" target="_top" xlink:title=" ">
<polygon fill="white" stroke="#666666" points="833.04,-151 699.04,-151 699.04,-121 833.04,-121 833.04,-151"/>
<text text-anchor="start" x="707.04" y="-139" font-family="Helvetica,sans-Serif" font-size="10.00">helios.rendering.shader.</text>
<text text-anchor="middle" x="766.04" y="-128" font-family="Helvetica,sans-Serif" font-size="10.00">UniformValueMap</text>
</a>
</g>
</g>
<!-- Node2&#45;&gt;Node8 -->
<g id="edge8_Node000002_Node000008" class="edge">
<title>Node2&#45;&gt;Node8</title>
<g id="a_edge8_Node000002_Node000008"><a xlink:title=" ">
<path fill="none" stroke="#63b8ff" d="M530.06,-307.62C551.21,-280.85 600.01,-222.83 652.04,-187 671.09,-173.88 694.14,-162.99 714.52,-154.76"/>
<polygon fill="#63b8ff" stroke="#63b8ff" points="715.94,-157.96 723.97,-151.05 713.38,-151.44 715.94,-157.96"/>
</a>
</g>
</g>
<!-- Node14 -->
<g id="Node000014" class="node">
<title>Node14</title>
<g id="a_Node000014"><a xlink:href="Shader_8ixx.html" target="_top" xlink:title=" ">
<polygon fill="white" stroke="#666666" points="331.04,-217 197.04,-217 197.04,-187 331.04,-187 331.04,-217"/>
<text text-anchor="start" x="205.04" y="-205" font-family="Helvetica,sans-Serif" font-size="10.00">helios.rendering.shader.</text>
<text text-anchor="middle" x="264.04" y="-194" font-family="Helvetica,sans-Serif" font-size="10.00">Shader</text>
</a>
</g>
</g>
<!-- Node2&#45;&gt;Node14 -->
<g id="edge15_Node000002_Node000014" class="edge">
<title>Node2&#45;&gt;Node14</title>
<g id="a_edge15_Node000002_Node000014"><a xlink:title=" ">
<path fill="none" stroke="#63b8ff" d="M432.5,-317.12C391.03,-311.15 342.55,-298.48 306.04,-272 290.48,-260.72 279.55,-241.76 272.74,-226.56"/>
<polygon fill="#63b8ff" stroke="#63b8ff" points="275.94,-225.12 268.86,-217.24 269.47,-227.81 275.94,-225.12"/>
</a>
</g>
</g>
<!-- Node15 -->
<g id="Node000015" class="node">
<title>Node15</title>
<g id="a_Node000015"><a xlink:href="LogManager_8ixx.html" target="_top" xlink:title=" ">
<polygon fill="white" stroke="#666666" points="337.04,-145.5 191.04,-145.5 191.04,-126.5 337.04,-126.5 337.04,-145.5"/>
<text text-anchor="middle" x="264.04" y="-133.5" font-family="Helvetica,sans-Serif" font-size="10.00">helios.util.log.LogManager</text>
</a>
</g>
</g>
<!-- Node2&#45;&gt;Node15 -->
<g id="edge26_Node000002_Node000015" class="edge">
<title>Node2&#45;&gt;Node15</title>
<g id="a_edge26_Node000002_Node000015"><a xlink:title=" ">
<path fill="none" stroke="#63b8ff" d="M432.51,-310.4C387.02,-302.64 330.93,-290.4 283.04,-272 237.49,-254.5 212.4,-259.27 188.04,-217 181.38,-205.45 181.71,-198.74 188.04,-187 197.18,-170.03 214.88,-157.88 230.9,-149.81"/>
<polygon fill="#63b8ff" stroke="#63b8ff" points="232.49,-152.93 240.06,-145.52 229.52,-146.59 232.49,-152.93"/>
</a>
</g>
</g>
<!-- Node18 -->
<g id="Node000018" class="node">
<title>Node18</title>
<g id="a_Node000018"><a xlink:href="MaterialPropertiesOverride_8ixx.html" target="_top" xlink:title=" ">
<polygon fill="white" stroke="#666666" points="825.04,-217 661.04,-217 661.04,-187 825.04,-187 825.04,-217"/>
<text text-anchor="start" x="669.04" y="-205" font-family="Helvetica,sans-Serif" font-size="10.00">helios.rendering.model.config.</text>
<text text-anchor="middle" x="743.04" y="-194" font-family="Helvetica,sans-Serif" font-size="10.00">MaterialPropertiesOverride</text>
</a>
</g>
</g>
<!-- Node2&#45;&gt;Node18 -->
<g id="edge27_Node000002_Node000018" class="edge">
<title>Node2&#45;&gt;Node18</title>
<g id="a_edge27_Node000002_Node000018"><a xlink:title=" ">
<path fill="none" stroke="#63b8ff" d="M545.61,-307.88C585.86,-286.5 662.34,-245.87 707.38,-221.94"/>
<polygon fill="#63b8ff" stroke="#63b8ff" points="709.31,-224.88 716.49,-217.1 706.02,-218.7 709.31,-224.88"/>
</a>
</g>
</g>
<!-- Node2&#45;&gt;Node19 -->
<g id="edge32_Node000002_Node000019" class="edge">
<title>Node2&#45;&gt;Node19</title>
<g id="a_edge32_Node000002_Node000019"><a xlink:title=" ">
<path fill="none" stroke="#63b8ff" d="M490.77,-307.99C471.61,-298.49 446.45,-286.02 427.65,-276.69"/>
<polygon fill="#63b8ff" stroke="#63b8ff" points="428.98,-273.45 418.46,-272.14 425.87,-279.72 428.98,-273.45"/>
</a>
</g>
</g>
<!-- Node4&#45;&gt;Node4 -->
<g id="edge4_Node000004_Node000004" class="edge">
<title>Node4&#45;&gt;Node4</title>
<g id="a_edge4_Node000004_Node000004"><a xlink:title=" ">
<path fill="none" stroke="#63b8ff" d="M1048.88,-79.53C1070.47,-83.61 1093.04,-80.43 1093.04,-70 1093.04,-61.2 1076.97,-57.56 1058.98,-59.09"/>
<polygon fill="#63b8ff" stroke="#63b8ff" points="1058.32,-55.65 1048.88,-60.47 1059.26,-62.58 1058.32,-55.65"/>
</a>
</g>
</g>
<!-- Node6 -->
<g id="Node000006" class="node">
<title>Node6</title>
<g id="a_Node000006"><a xlink:title=" ">
<polygon fill="#e0e0e0" stroke="#999999" points="130.04,-19 70.04,-19 70.04,0 130.04,0 130.04,-19"/>
<text text-anchor="middle" x="100.04" y="-7" font-family="Helvetica,sans-Serif" font-size="10.00">iostream</text>
</a>
</g>
</g>
<!-- Node5&#45;&gt;Node6 -->
<g id="edge6_Node000005_Node000006" class="edge">
<title>Node5&#45;&gt;Node6</title>
<g id="a_edge6_Node000005_Node000006"><a xlink:title=" ">
<path fill="none" stroke="#63b8ff" d="M100.04,-60.37C100.04,-52.25 100.04,-39.81 100.04,-29.39"/>
<polygon fill="#63b8ff" stroke="#63b8ff" points="103.54,-29.17 100.04,-19.17 96.54,-29.17 103.54,-29.17"/>
</a>
</g>
</g>
<!-- Node7 -->
<g id="Node000007" class="node">
<title>Node7</title>
<g id="a_Node000007"><a xlink:title=" ">
<polygon fill="#e0e0e0" stroke="#999999" points="290.04,-19 246.04,-19 246.04,0 290.04,0 290.04,-19"/>
<text text-anchor="middle" x="268.04" y="-7" font-family="Helvetica,sans-Serif" font-size="10.00">string</text>
</a>
</g>
</g>
<!-- Node5&#45;&gt;Node7 -->
<g id="edge7_Node000005_Node000007" class="edge">
<title>Node5&#45;&gt;Node7</title>
<g id="a_edge7_Node000005_Node000007"><a xlink:title=" ">
<path fill="none" stroke="#63b8ff" d="M124.46,-60.49C154.07,-50.18 204.02,-32.79 236.51,-21.48"/>
<polygon fill="#63b8ff" stroke="#63b8ff" points="237.7,-24.77 245.99,-18.18 235.39,-18.16 237.7,-24.77"/>
</a>
</g>
</g>
<!-- Node8&#45;&gt;Node4 -->
<g id="edge12_Node000008_Node000004" class="edge">
<title>Node8&#45;&gt;Node4</title>
<g id="a_edge12_Node000008_Node000004"><a xlink:title=" ">
<path fill="none" stroke="#63b8ff" d="M822.44,-120.95C869.49,-109.24 935.62,-92.77 978.89,-81.99"/>
<polygon fill="#63b8ff" stroke="#63b8ff" points="979.98,-85.33 988.83,-79.52 978.28,-78.54 979.98,-85.33"/>
</a>
</g>
</g>
<!-- Node9 -->
<g id="Node000009" class="node">
<title>Node9</title>
<g id="a_Node000009"><a xlink:title=" ">
<polygon fill="#e0e0e0" stroke="#999999" points="788.04,-79.5 746.04,-79.5 746.04,-60.5 788.04,-60.5 788.04,-79.5"/>
<text text-anchor="middle" x="767.04" y="-67.5" font-family="Helvetica,sans-Serif" font-size="10.00">array</text>
</a>
</g>
</g>
<!-- Node8&#45;&gt;Node9 -->
<g id="edge9_Node000008_Node000009" class="edge">
<title>Node8&#45;&gt;Node9</title>
<g id="a_edge9_Node000008_Node000009"><a xlink:title=" ">
<path fill="none" stroke="#63b8ff" d="M766.26,-120.8C766.4,-111.7 766.59,-99.79 766.74,-89.9"/>
<polygon fill="#63b8ff" stroke="#63b8ff" points="770.24,-89.9 766.9,-79.84 763.24,-89.79 770.24,-89.9"/>
</a>
</g>
</g>
<!-- Node10 -->
<g id="Node000010" class="node">
<title>Node10</title>
<g id="a_Node000010"><a xlink:title=" ">
<polygon fill="#e0e0e0" stroke="#999999" points="658.04,-79.5 602.04,-79.5 602.04,-60.5 658.04,-60.5 658.04,-79.5"/>
<text text-anchor="middle" x="630.04" y="-67.5" font-family="Helvetica,sans-Serif" font-size="10.00">optional</text>
</a>
</g>
</g>
<!-- Node8&#45;&gt;Node10 -->
<g id="edge10_Node000008_Node000010" class="edge">
<title>Node8&#45;&gt;Node10</title>
<g id="a_edge10_Node000008_Node000010"><a xlink:title=" ">
<path fill="none" stroke="#63b8ff" d="M736.19,-120.95C712.65,-109.88 680.1,-94.56 657.27,-83.82"/>
<polygon fill="#63b8ff" stroke="#63b8ff" points="658.67,-80.61 648.14,-79.52 655.69,-86.94 658.67,-80.61"/>
</a>
</g>
</g>
<!-- Node11 -->
<g id="Node000011" class="node">
<title>Node11</title>
<g id="a_Node000011"><a xlink:title=" ">
<polygon fill="#e0e0e0" stroke="#999999" points="727.54,-79.5 676.54,-79.5 676.54,-60.5 727.54,-60.5 727.54,-79.5"/>
<text text-anchor="middle" x="702.04" y="-67.5" font-family="Helvetica,sans-Serif" font-size="10.00">variant</text>
</a>
</g>
</g>
<!-- Node8&#45;&gt;Node11 -->
<g id="edge11_Node000008_Node000011" class="edge">
<title>Node8&#45;&gt;Node11</title>
<g id="a_edge11_Node000008_Node000011"><a xlink:title=" ">
<path fill="none" stroke="#63b8ff" d="M751.83,-120.8C741.85,-110.82 728.49,-97.46 718.12,-87.09"/>
<polygon fill="#63b8ff" stroke="#63b8ff" points="720.43,-84.44 710.88,-79.84 715.48,-89.39 720.43,-84.44"/>
</a>
</g>
</g>
<!-- Node12 -->
<g id="Node000012" class="node">
<title>Node12</title>
<g id="a_Node000012"><a xlink:href="UniformSemantics_8ixx.html" target="_top" xlink:title=" ">
<polygon fill="white" stroke="#666666" points="940.04,-85 806.04,-85 806.04,-55 940.04,-55 940.04,-85"/>
<text text-anchor="start" x="814.04" y="-73" font-family="Helvetica,sans-Serif" font-size="10.00">helios.rendering.shader.</text>
<text text-anchor="middle" x="873.04" y="-62" font-family="Helvetica,sans-Serif" font-size="10.00">UniformSemantics</text>
</a>
</g>
</g>
<!-- Node8&#45;&gt;Node12 -->
<g id="edge13_Node000008_Node000012" class="edge">
<title>Node8&#45;&gt;Node12</title>
<g id="a_edge13_Node000008_Node000012"><a xlink:title=" ">
<path fill="none" stroke="#63b8ff" d="M789.52,-120.95C804.57,-111.95 824.31,-100.14 840.82,-90.27"/>
<polygon fill="#63b8ff" stroke="#63b8ff" points="842.82,-93.15 849.61,-85.01 839.23,-87.14 842.82,-93.15"/>
</a>
</g>
</g>
<!-- Node13 -->
<g id="Node000013" class="node">
<title>Node13</title>
<g id="a_Node000013"><a xlink:title=" ">
<polygon fill="#e0e0e0" stroke="#999999" points="898.54,-19 847.54,-19 847.54,0 898.54,0 898.54,-19"/>
<text text-anchor="middle" x="873.04" y="-7" font-family="Helvetica,sans-Serif" font-size="10.00">cwchar</text>
</a>
</g>
</g>
<!-- Node12&#45;&gt;Node13 -->
<g id="edge14_Node000012_Node000013" class="edge">
<title>Node12&#45;&gt;Node13</title>
<g id="a_edge14_Node000012_Node000013"><a xlink:title=" ">
<path fill="none" stroke="#63b8ff" d="M873.04,-54.84C873.04,-47.21 873.04,-37.7 873.04,-29.45"/>
<polygon fill="#63b8ff" stroke="#63b8ff" points="876.54,-29.27 873.04,-19.27 869.54,-29.27 876.54,-29.27"/>
</a>
</g>
</g>
<!-- Node14&#45;&gt;Node3 -->
<g id="edge16_Node000014_Node000003" class="edge">
<title>Node14&#45;&gt;Node3</title>
<g id="a_edge16_Node000014_Node000003"><a xlink:title=" ">
<path fill="none" stroke="#63b8ff" d="M288.36,-186.8C304.83,-177.03 326.98,-163.59 346.04,-151 363.68,-139.34 410.46,-105.56 437.66,-85.83"/>
<polygon fill="#63b8ff" stroke="#63b8ff" points="440.03,-88.43 446.06,-79.72 435.91,-82.77 440.03,-88.43"/>
</a>
</g>
</g>
<!-- Node14&#45;&gt;Node5 -->
<g id="edge19_Node000014_Node000005" class="edge">
<title>Node14&#45;&gt;Node5</title>
<g id="a_edge19_Node000014_Node000005"><a xlink:title=" ">
<path fill="none" stroke="#63b8ff" d="M237.57,-186.88C221,-177.57 199.55,-164.6 182.04,-151 156.39,-131.08 130.1,-104.03 114.42,-87.04"/>
<polygon fill="#63b8ff" stroke="#63b8ff" points="116.95,-84.62 107.63,-79.59 111.78,-89.34 116.95,-84.62"/>
</a>
</g>
</g>
<!-- Node14&#45;&gt;Node8 -->
<g id="edge18_Node000014_Node000008" class="edge">
<title>Node14&#45;&gt;Node8</title>
<g id="a_edge18_Node000014_Node000008"><a xlink:title=" ">
<path fill="none" stroke="#63b8ff" d="M331.22,-192.44C423.98,-180.61 590.9,-159.33 688.73,-146.86"/>
<polygon fill="#63b8ff" stroke="#63b8ff" points="689.38,-150.3 698.85,-145.57 688.49,-143.36 689.38,-150.3"/>
</a>
</g>
</g>
<!-- Node14&#45;&gt;Node10 -->
<g id="edge17_Node000014_Node000010" class="edge">
<title>Node14&#45;&gt;Node10</title>
<g id="a_edge17_Node000014_Node000010"><a xlink:title=" ">
<path fill="none" stroke="#63b8ff" d="M303.55,-186.96C375.81,-161.3 528.06,-107.22 596.03,-83.08"/>
<polygon fill="#63b8ff" stroke="#63b8ff" points="597.55,-86.25 605.8,-79.61 595.21,-79.66 597.55,-86.25"/>
</a>
</g>
</g>
<!-- Node14&#45;&gt;Node15 -->
<g id="edge20_Node000014_Node000015" class="edge">
<title>Node14&#45;&gt;Node15</title>
<g id="a_edge20_Node000014_Node000015"><a xlink:title=" ">
<path fill="none" stroke="#63b8ff" d="M264.04,-186.8C264.04,-177.7 264.04,-165.79 264.04,-155.9"/>
<polygon fill="#63b8ff" stroke="#63b8ff" points="267.54,-155.84 264.04,-145.84 260.54,-155.84 267.54,-155.84"/>
</a>
</g>
</g>
<!-- Node15&#45;&gt;Node3 -->
<g id="edge23_Node000015_Node000003" class="edge">
<title>Node15&#45;&gt;Node3</title>
<g id="a_edge23_Node000015_Node000003"><a xlink:title=" ">
<path fill="none" stroke="#63b8ff" d="M290.2,-126.37C324.28,-115.12 384.02,-95.42 422.27,-82.8"/>
<polygon fill="#63b8ff" stroke="#63b8ff" points="423.58,-86.05 431.98,-79.6 421.38,-79.41 423.58,-86.05"/>
</a>
</g>
</g>
<!-- Node15&#45;&gt;Node5 -->
<g id="edge25_Node000015_Node000005" class="edge">
<title>Node15&#45;&gt;Node5</title>
<g id="a_edge25_Node000015_Node000005"><a xlink:title=" ">
<path fill="none" stroke="#63b8ff" d="M241.92,-126.37C213.47,-115.27 163.89,-95.92 131.52,-83.28"/>
<polygon fill="#63b8ff" stroke="#63b8ff" points="132.65,-79.97 122.06,-79.6 130.11,-86.49 132.65,-79.97"/>
</a>
</g>
</g>
<!-- Node15&#45;&gt;Node7 -->
<g id="edge21_Node000015_Node000007" class="edge">
<title>Node15&#45;&gt;Node7</title>
<g id="a_edge21_Node000015_Node000007"><a xlink:title=" ">
<path fill="none" stroke="#63b8ff" d="M291.44,-126.37C310.48,-118.77 334.44,-105.65 346.04,-85 352.56,-73.37 352.73,-66.53 346.04,-55 336.09,-37.87 316.8,-26.78 299.89,-19.96"/>
<polygon fill="#63b8ff" stroke="#63b8ff" points="300.9,-16.6 290.3,-16.42 298.47,-23.16 300.9,-16.6"/>
</a>
</g>
</g>
<!-- Node16 -->
<g id="Node000016" class="node">
<title>Node16</title>
<g id="a_Node000016"><a xlink:title=" ">
<polygon fill="#e0e0e0" stroke="#999999" points="270.54,-79.5 177.54,-79.5 177.54,-60.5 270.54,-60.5 270.54,-79.5"/>
<text text-anchor="middle" x="224.04" y="-67.5" font-family="Helvetica,sans-Serif" font-size="10.00">unordered_map</text>
</a>
</g>
</g>
<!-- Node15&#45;&gt;Node16 -->
<g id="edge22_Node000015_Node000016" class="edge">
<title>Node15&#45;&gt;Node16</title>
<g id="a_edge22_Node000015_Node000016"><a xlink:title=" ">
<path fill="none" stroke="#63b8ff" d="M258.64,-126.37C252.59,-116.69 242.62,-100.74 234.93,-88.44"/>
<polygon fill="#63b8ff" stroke="#63b8ff" points="237.87,-86.53 229.6,-79.91 231.93,-90.24 237.87,-86.53"/>
</a>
</g>
</g>
<!-- Node17 -->
<g id="Node000017" class="node">
<title>Node17</title>
<g id="a_Node000017"><a xlink:title=" ">
<polygon fill="#e0e0e0" stroke="#999999" points="337.04,-79.5 289.04,-79.5 289.04,-60.5 337.04,-60.5 337.04,-79.5"/>
<text text-anchor="middle" x="313.04" y="-67.5" font-family="Helvetica,sans-Serif" font-size="10.00">mutex</text>
</a>
</g>
</g>
<!-- Node15&#45;&gt;Node17 -->
<g id="edge24_Node000015_Node000017" class="edge">
<title>Node15&#45;&gt;Node17</title>
<g id="a_edge24_Node000015_Node000017"><a xlink:title=" ">
<path fill="none" stroke="#63b8ff" d="M270.64,-126.37C278.13,-116.59 290.51,-100.42 299.96,-88.08"/>
<polygon fill="#63b8ff" stroke="#63b8ff" points="302.92,-89.97 306.22,-79.91 297.36,-85.72 302.92,-89.97"/>
</a>
</g>
</g>
<!-- Node18&#45;&gt;Node4 -->
<g id="edge31_Node000018_Node000004" class="edge">
<title>Node18&#45;&gt;Node4</title>
<g id="a_edge31_Node000018_Node000004"><a xlink:title=" ">
<path fill="none" stroke="#63b8ff" d="M779.07,-186.92C803.29,-177.26 835.82,-163.91 864.04,-151 912.17,-128.98 967.07,-100.62 998.14,-84.25"/>
<polygon fill="#63b8ff" stroke="#63b8ff" points="999.77,-87.35 1006.98,-79.58 996.5,-81.16 999.77,-87.35"/>
</a>
</g>
</g>
<!-- Node18&#45;&gt;Node8 -->
<g id="edge30_Node000018_Node000008" class="edge">
<title>Node18&#45;&gt;Node8</title>
<g id="a_edge30_Node000018_Node000008"><a xlink:title=" ">
<path fill="none" stroke="#63b8ff" d="M748.14,-186.8C750.88,-179.17 754.33,-169.57 757.47,-160.84"/>
<polygon fill="#63b8ff" stroke="#63b8ff" points="760.86,-161.76 760.95,-151.16 754.27,-159.39 760.86,-161.76"/>
</a>
</g>
</g>
<!-- Node18&#45;&gt;Node10 -->
<g id="edge28_Node000018_Node000010" class="edge">
<title>Node18&#45;&gt;Node10</title>
<g id="a_edge28_Node000018_Node000010"><a xlink:title=" ">
<path fill="none" stroke="#63b8ff" d="M726.57,-186.8C715.74,-177.14 701.5,-163.83 690.04,-151 671.86,-130.65 653.39,-105.14 641.83,-88.47"/>
<polygon fill="#63b8ff" stroke="#63b8ff" points="644.42,-86.05 635.88,-79.78 638.65,-90.01 644.42,-86.05"/>
</a>
</g>
</g>
<!-- Node18&#45;&gt;Node12 -->
<g id="edge29_Node000018_Node000012" class="edge">
<title>Node18&#45;&gt;Node12</title>
<g id="a_edge29_Node000018_Node000012"><a xlink:title=" ">
<path fill="none" stroke="#63b8ff" d="M787.02,-186.93C806.05,-178.96 827.29,-167.26 842.04,-151 856.29,-135.28 864.27,-112.29 868.56,-94.98"/>
<polygon fill="#63b8ff" stroke="#63b8ff" points="872.01,-95.58 870.77,-85.06 865.18,-94.06 872.01,-95.58"/>
</a>
</g>
</g>
<!-- Node19&#45;&gt;Node3 -->
<g id="edge33_Node000019_Node000003" class="edge">
<title>Node19&#45;&gt;Node3</title>
<g id="a_edge33_Node000019_Node000003"><a xlink:title=" ">
<path fill="none" stroke="#63b8ff" d="M399.12,-252.63C396.42,-238.5 392.4,-210.14 398.04,-187 407.23,-149.19 431.06,-109.95 445.77,-88.18"/>
<polygon fill="#63b8ff" stroke="#63b8ff" points="448.81,-89.94 451.63,-79.73 443.06,-85.96 448.81,-89.94"/>
</a>
</g>
</g>
<!-- Node19&#45;&gt;Node8 -->
<g id="edge43_Node000019_Node000008" class="edge">
<title>Node19&#45;&gt;Node8</title>
<g id="a_edge43_Node000019_Node000008"><a xlink:title=" ">
<path fill="none" stroke="#63b8ff" d="M400.03,-252.86C398.75,-237.22 398.56,-204.24 417.04,-187 436.59,-168.75 592.18,-152.11 688.9,-143.39"/>
<polygon fill="#63b8ff" stroke="#63b8ff" points="689.29,-146.87 698.94,-142.49 688.67,-139.9 689.29,-146.87"/>
</a>
</g>
</g>
<!-- Node19&#45;&gt;Node14 -->
<g id="edge38_Node000019_Node000014" class="edge">
<title>Node19&#45;&gt;Node14</title>
<g id="a_edge38_Node000019_Node000014"><a xlink:title=" ">
<path fill="none" stroke="#63b8ff" d="M381.11,-252.99C361.57,-244.65 331.16,-231.66 306.23,-221.02"/>
<polygon fill="#63b8ff" stroke="#63b8ff" points="307.54,-217.77 296.97,-217.06 304.79,-224.21 307.54,-217.77"/>
</a>
</g>
</g>
<!-- Node20 -->
<g id="Node000020" class="node">
<title>Node20</title>
<g id="a_Node000020"><a xlink:title=" ">
<polygon fill="#e0e0e0" stroke="#999999" points="490.54,-211.5 425.54,-211.5 425.54,-192.5 490.54,-192.5 490.54,-211.5"/>
<text text-anchor="middle" x="458.04" y="-199.5" font-family="Helvetica,sans-Serif" font-size="10.00">stdexcept</text>
</a>
</g>
</g>
<!-- Node19&#45;&gt;Node20 -->
<g id="edge34_Node000019_Node000020" class="edge">
<title>Node19&#45;&gt;Node20</title>
<g id="a_edge34_Node000019_Node000020"><a xlink:title=" ">
<path fill="none" stroke="#63b8ff" d="M409.45,-252.87C418.12,-243.97 431.84,-229.89 442.49,-218.95"/>
<polygon fill="#63b8ff" stroke="#63b8ff" points="445.12,-221.27 449.59,-211.67 440.11,-216.39 445.12,-221.27"/>
</a>
</g>
</g>
<!-- Node21 -->
<g id="Node000021" class="node">
<title>Node21</title>
<g id="a_Node000021"><a xlink:href="util_2log_2__module_8ixx.html" target="_top" xlink:title=" ">
<polygon fill="white" stroke="#666666" points="102.54,-211.5 19.54,-211.5 19.54,-192.5 102.54,-192.5 102.54,-211.5"/>
<text text-anchor="middle" x="61.04" y="-199.5" font-family="Helvetica,sans-Serif" font-size="10.00">helios.util.log</text>
</a>
</g>
</g>
<!-- Node19&#45;&gt;Node21 -->
<g id="edge35_Node000019_Node000021" class="edge">
<title>Node19&#45;&gt;Node21</title>
<g id="a_edge35_Node000019_Node000021"><a xlink:title=" ">
<path fill="none" stroke="#63b8ff" d="M335.88,-252.98C278.13,-245.03 191.62,-232.14 117.04,-217 112.55,-216.09 107.88,-215.06 103.24,-213.98"/>
<polygon fill="#63b8ff" stroke="#63b8ff" points="103.74,-210.5 93.2,-211.57 102.11,-217.31 103.74,-210.5"/>
</a>
</g>
</g>
<!-- Node22 -->
<g id="Node000022" class="node">
<title>Node22</title>
<g id="a_Node000022"><a xlink:href="MaterialProperties_8ixx.html" target="_top" xlink:title=" ">
<polygon fill="white" stroke="#666666" points="1007.04,-217 843.04,-217 843.04,-187 1007.04,-187 1007.04,-217"/>
<text text-anchor="start" x="851.04" y="-205" font-family="Helvetica,sans-Serif" font-size="10.00">helios.rendering.model.config.</text>
<text text-anchor="middle" x="925.04" y="-194" font-family="Helvetica,sans-Serif" font-size="10.00">MaterialProperties</text>
</a>
</g>
</g>
<!-- Node19&#45;&gt;Node22 -->
<g id="edge39_Node000019_Node000022" class="edge">
<title>Node19&#45;&gt;Node22</title>
<g id="a_edge39_Node000019_Node000022"><a xlink:title=" ">
<path fill="none" stroke="#63b8ff" d="M487.86,-253.87C573.08,-246.08 707,-233.06 832.54,-217.15"/>
<polygon fill="#63b8ff" stroke="#63b8ff" points="833.25,-220.59 842.72,-215.85 832.36,-213.65 833.25,-220.59"/>
</a>
</g>
</g>
<!-- Node21&#45;&gt;Node5 -->
<g id="edge37_Node000021_Node000005" class="edge">
<title>Node21&#45;&gt;Node5</title>
<g id="a_edge37_Node000021_Node000005"><a xlink:title=" ">
<path fill="none" stroke="#63b8ff" d="M63.59,-192.47C69.82,-171.73 85.86,-118.24 94.44,-89.66"/>
<polygon fill="#63b8ff" stroke="#63b8ff" points="97.9,-90.32 97.42,-79.73 91.19,-88.3 97.9,-90.32"/>
</a>
</g>
</g>
<!-- Node21&#45;&gt;Node15 -->
<g id="edge36_Node000021_Node000015" class="edge">
<title>Node21&#45;&gt;Node15</title>
<g id="a_edge36_Node000021_Node000015"><a xlink:title=" ">
<path fill="none" stroke="#63b8ff" d="M88.41,-192.37C124.23,-181.08 187.12,-161.25 227.12,-148.64"/>
<polygon fill="#63b8ff" stroke="#63b8ff" points="228.28,-151.94 236.77,-145.6 226.18,-145.27 228.28,-151.94"/>
</a>
</g>
</g>
<!-- Node22&#45;&gt;Node4 -->
<g id="edge42_Node000022_Node000004" class="edge">
<title>Node22&#45;&gt;Node4</title>
<g id="a_edge42_Node000022_Node000004"><a xlink:title=" ">
<path fill="none" stroke="#63b8ff" d="M938.25,-186.97C947.26,-177.17 959.28,-163.63 969.04,-151 985.13,-130.16 1001.82,-104.76 1012.3,-88.25"/>
<polygon fill="#63b8ff" stroke="#63b8ff" points="1015.34,-89.99 1017.71,-79.66 1009.42,-86.26 1015.34,-89.99"/>
</a>
</g>
</g>
<!-- Node22&#45;&gt;Node8 -->
<g id="edge41_Node000022_Node000008" class="edge">
<title>Node22&#45;&gt;Node8</title>
<g id="a_edge41_Node000022_Node000008"><a xlink:title=" ">
<path fill="none" stroke="#63b8ff" d="M890.14,-186.95C866.64,-177.49 835.44,-164.93 810.2,-154.78"/>
<polygon fill="#63b8ff" stroke="#63b8ff" points="811.43,-151.5 800.85,-151.01 808.82,-157.99 811.43,-151.5"/>
</a>
</g>
</g>
<!-- Node22&#45;&gt;Node12 -->
<g id="edge40_Node000022_Node000012" class="edge">
<title>Node22&#45;&gt;Node12</title>
<g id="a_edge40_Node000022_Node000012"><a xlink:title=" ">
<path fill="none" stroke="#63b8ff" d="M919.37,-186.84C910.5,-164.67 893.24,-121.51 882.47,-94.59"/>
<polygon fill="#63b8ff" stroke="#63b8ff" points="885.66,-93.13 878.69,-85.14 879.16,-95.73 885.66,-93.13"/>
</a>
</g>
</g>
<!-- Node23&#45;&gt;Node3 -->
<g id="edge46_Node000023_Node000003" class="edge">
<title>Node23&#45;&gt;Node3</title>
<g id="a_edge46_Node000023_Node000003"><a xlink:title=" ">
<path fill="none" stroke="#63b8ff" d="M1028.02,-259.21C916.24,-255.05 718.15,-244.04 652.04,-217 589.14,-191.28 587.81,-161.22 533.04,-121 515.8,-108.34 495.6,-94.95 480.5,-85.22"/>
<polygon fill="#63b8ff" stroke="#63b8ff" points="482.15,-82.11 471.84,-79.67 478.37,-88.01 482.15,-82.11"/>
</a>
</g>
</g>
<!-- Node23&#45;&gt;Node4 -->
<g id="edge60_Node000023_Node000004" class="edge">
<title>Node23&#45;&gt;Node4</title>
<g id="a_edge60_Node000023_Node000004"><a xlink:title=" ">
<path fill="none" stroke="#63b8ff" d="M1167.48,-252.99C1212.49,-245.48 1268.98,-233.22 1286.04,-217 1317.62,-186.97 1334.04,-154.39 1306.04,-121 1278.44,-88.1 1159.98,-76.84 1085.34,-72.99"/>
<polygon fill="#63b8ff" stroke="#63b8ff" points="1085.27,-69.48 1075.12,-72.49 1084.94,-76.47 1085.27,-69.48"/>
</a>
</g>
</g>
<!-- Node23&#45;&gt;Node5 -->
<g id="edge49_Node000023_Node000005" class="edge">
<title>Node23&#45;&gt;Node5</title>
<g id="a_edge49_Node000023_Node000005"><a xlink:title=" ">
<path fill="none" stroke="#63b8ff" d="M1027.94,-261.75C818.37,-261.86 259.87,-258.21 188.04,-217 139.35,-189.07 114.51,-122.4 104.9,-89.71"/>
<polygon fill="#63b8ff" stroke="#63b8ff" points="108.16,-88.39 102.12,-79.69 101.42,-90.26 108.16,-88.39"/>
</a>
</g>
</g>
<!-- Node23&#45;&gt;Node15 -->
<g id="edge50_Node000023_Node000015" class="edge">
<title>Node23&#45;&gt;Node15</title>
<g id="a_edge50_Node000023_Node000015"><a xlink:title=" ">
<path fill="none" stroke="#63b8ff" d="M1027.94,-258.09C931.01,-253.03 762.02,-241.39 619.04,-217 565.27,-207.83 553.17,-199.32 500.04,-187 437.19,-172.43 364.52,-157.29 316.61,-147.54"/>
<polygon fill="#63b8ff" stroke="#63b8ff" points="317.27,-144.1 306.78,-145.54 315.88,-150.96 317.27,-144.1"/>
</a>
</g>
</g>
<!-- Node23&#45;&gt;Node20 -->
<g id="edge47_Node000023_Node000020" class="edge">
<title>Node23&#45;&gt;Node20</title>
<g id="a_edge47_Node000023_Node000020"><a xlink:title=" ">
<path fill="none" stroke="#63b8ff" d="M1027.9,-257.37C918.59,-251.19 715.37,-237.95 543.04,-217 529.19,-215.32 514.16,-213 500.64,-210.74"/>
<polygon fill="#63b8ff" stroke="#63b8ff" points="501.08,-207.27 490.64,-209.03 499.91,-214.17 501.08,-207.27"/>
</a>
</g>
</g>
<!-- Node24 -->
<g id="Node000024" class="node">
<title>Node24</title>
<g id="a_Node000024"><a xlink:title=" ">
<polygon fill="#e0e0e0" stroke="#999999" points="1110.54,-145.5 1063.54,-145.5 1063.54,-126.5 1110.54,-126.5 1110.54,-145.5"/>
<text text-anchor="middle" x="1087.04" y="-133.5" font-family="Helvetica,sans-Serif" font-size="10.00">vector</text>
</a>
</g>
</g>
<!-- Node23&#45;&gt;Node24 -->
<g id="edge48_Node000023_Node000024" class="edge">
<title>Node23&#45;&gt;Node24</title>
<g id="a_edge48_Node000023_Node000024"><a xlink:title=" ">
<path fill="none" stroke="#63b8ff" d="M1103.35,-252.82C1099.78,-243.98 1094.55,-229.8 1092.04,-217 1087.98,-196.34 1086.97,-172.16 1086.83,-155.84"/>
<polygon fill="#63b8ff" stroke="#63b8ff" points="1090.33,-155.51 1086.84,-145.5 1083.33,-155.5 1090.33,-155.51"/>
</a>
</g>
</g>
<!-- Node25 -->
<g id="Node000025" class="node">
<title>Node25</title>
<g id="a_Node000025"><a xlink:href="Vertex_8ixx.html" target="_top" xlink:title=" ">
<polygon fill="white" stroke="#666666" points="1297.04,-145.5 1167.04,-145.5 1167.04,-126.5 1297.04,-126.5 1297.04,-145.5"/>
<text text-anchor="middle" x="1232.04" y="-133.5" font-family="Helvetica,sans-Serif" font-size="10.00">helios.rendering.Vertex</text>
</a>
</g>
</g>
<!-- Node23&#45;&gt;Node25 -->
<g id="edge51_Node000023_Node000025" class="edge">
<title>Node23&#45;&gt;Node25</title>
<g id="a_edge51_Node000023_Node000025"><a xlink:title=" ">
<path fill="none" stroke="#63b8ff" d="M1166.4,-252.96C1207.59,-245.68 1257.26,-233.73 1270.04,-217 1285.27,-197.05 1265.61,-170 1249.38,-153.03"/>
<polygon fill="#63b8ff" stroke="#63b8ff" points="1251.42,-150.12 1241.85,-145.58 1246.49,-155.1 1251.42,-150.12"/>
</a>
</g>
</g>
<!-- Node26 -->
<g id="Node000026" class="node">
<title>Node26</title>
<g id="a_Node000026"><a xlink:href="Shape_8ixx.html" target="_top" xlink:title=" ">
<polygon fill="white" stroke="#666666" points="1261.04,-217 1101.04,-217 1101.04,-187 1261.04,-187 1261.04,-217"/>
<text text-anchor="start" x="1109.04" y="-205" font-family="Helvetica,sans-Serif" font-size="10.00">helios.rendering.asset.shape.</text>
<text text-anchor="middle" x="1181.04" y="-194" font-family="Helvetica,sans-Serif" font-size="10.00">Shape</text>
</a>
</g>
</g>
<!-- Node23&#45;&gt;Node26 -->
<g id="edge53_Node000023_Node000026" class="edge">
<title>Node23&#45;&gt;Node26</title>
<g id="a_edge53_Node000023_Node000026"><a xlink:title=" ">
<path fill="none" stroke="#63b8ff" d="M1117.95,-252.87C1127.72,-245.15 1142.41,-233.54 1155.16,-223.46"/>
<polygon fill="#63b8ff" stroke="#63b8ff" points="1157.51,-226.06 1163.18,-217.11 1153.17,-220.57 1157.51,-226.06"/>
</a>
</g>
</g>
<!-- Node28 -->
<g id="Node000028" class="node">
<title>Node28</title>
<g id="a_Node000028"><a xlink:href="MeshConfig_8ixx.html" target="_top" xlink:title=" ">
<polygon fill="white" stroke="#666666" points="1519.04,-217 1355.04,-217 1355.04,-187 1519.04,-187 1519.04,-217"/>
<text text-anchor="start" x="1363.04" y="-205" font-family="Helvetica,sans-Serif" font-size="10.00">helios.rendering.model.config.</text>
<text text-anchor="middle" x="1437.04" y="-194" font-family="Helvetica,sans-Serif" font-size="10.00">MeshConfig</text>
</a>
</g>
</g>
<!-- Node23&#45;&gt;Node28 -->
<g id="edge58_Node000023_Node000028" class="edge">
<title>Node23&#45;&gt;Node28</title>
<g id="a_edge58_Node000023_Node000028"><a xlink:title=" ">
<path fill="none" stroke="#63b8ff" d="M1155.02,-252.99C1205.4,-244.06 1285.76,-229.82 1347.83,-218.81"/>
<polygon fill="#63b8ff" stroke="#63b8ff" points="1348.78,-222.2 1358.02,-217.01 1347.56,-215.31 1348.78,-222.2"/>
</a>
</g>
</g>
<!-- Node25&#45;&gt;Node4 -->
<g id="edge52_Node000025_Node000004" class="edge">
<title>Node25&#45;&gt;Node4</title>
<g id="a_edge52_Node000025_Node000004"><a xlink:title=" ">
<path fill="none" stroke="#63b8ff" d="M1203.85,-126.37C1166.9,-115.05 1101.95,-95.16 1060.78,-82.56"/>
<polygon fill="#63b8ff" stroke="#63b8ff" points="1061.7,-79.18 1051.11,-79.6 1059.65,-85.87 1061.7,-79.18"/>
</a>
</g>
</g>
<!-- Node26&#45;&gt;Node3 -->
<g id="edge54_Node000026_Node000003" class="edge">
<title>Node26&#45;&gt;Node3</title>
<g id="a_edge54_Node000026_Node000003"><a xlink:title=" ">
<path fill="none" stroke="#63b8ff" d="M1174.82,-186.71C1165.79,-167.92 1147.1,-135.57 1120.04,-121 1016.67,-65.37 709.99,-95.06 593.04,-85 560.81,-82.23 524.32,-78.4 497.42,-75.45"/>
<polygon fill="#63b8ff" stroke="#63b8ff" points="497.56,-71.95 487.24,-74.33 496.79,-78.91 497.56,-71.95"/>
</a>
</g>
</g>
<!-- Node26&#45;&gt;Node24 -->
<g id="edge55_Node000026_Node000024" class="edge">
<title>Node26&#45;&gt;Node24</title>
<g id="a_edge55_Node000026_Node000024"><a xlink:title=" ">
<path fill="none" stroke="#63b8ff" d="M1160.17,-186.8C1144.71,-176.27 1123.71,-161.97 1108.18,-151.4"/>
<polygon fill="#63b8ff" stroke="#63b8ff" points="1109.99,-148.39 1099.75,-145.66 1106.05,-154.18 1109.99,-148.39"/>
</a>
</g>
</g>
<!-- Node26&#45;&gt;Node25 -->
<g id="edge57_Node000026_Node000025" class="edge">
<title>Node26&#45;&gt;Node25</title>
<g id="a_edge57_Node000026_Node000025"><a xlink:title=" ">
<path fill="none" stroke="#63b8ff" d="M1192.35,-186.8C1200.15,-177.01 1210.54,-163.98 1218.73,-153.7"/>
<polygon fill="#63b8ff" stroke="#63b8ff" points="1221.49,-155.85 1224.99,-145.84 1216.02,-151.48 1221.49,-155.85"/>
</a>
</g>
</g>
<!-- Node27 -->
<g id="Node000027" class="node">
<title>Node27</title>
<g id="a_Node000027"><a xlink:href="PrimitiveType_8ixx.html" target="_top" xlink:title=" ">
<polygon fill="white" stroke="#666666" points="1519.04,-151 1355.04,-151 1355.04,-121 1519.04,-121 1519.04,-151"/>
<text text-anchor="start" x="1363.04" y="-139" font-family="Helvetica,sans-Serif" font-size="10.00">helios.rendering.model.config.</text>
<text text-anchor="middle" x="1437.04" y="-128" font-family="Helvetica,sans-Serif" font-size="10.00">PrimitiveType</text>
</a>
</g>
</g>
<!-- Node26&#45;&gt;Node27 -->
<g id="edge56_Node000026_Node000027" class="edge">
<title>Node26&#45;&gt;Node27</title>
<g id="a_edge56_Node000026_Node000027"><a xlink:title=" ">
<path fill="none" stroke="#63b8ff" d="M1237.22,-186.95C1276.73,-177.08 1329.75,-163.82 1371.24,-153.45"/>
<polygon fill="#63b8ff" stroke="#63b8ff" points="1372.13,-156.83 1380.99,-151.01 1370.44,-150.04 1372.13,-156.83"/>
</a>
</g>
</g>
<!-- Node28&#45;&gt;Node27 -->
<g id="edge59_Node000028_Node000027" class="edge">
<title>Node28&#45;&gt;Node27</title>
<g id="a_edge59_Node000028_Node000027"><a xlink:title=" ">
<path fill="none" stroke="#63b8ff" d="M1437.04,-186.8C1437.04,-179.34 1437.04,-169.99 1437.04,-161.41"/>
<polygon fill="#63b8ff" stroke="#63b8ff" points="1440.54,-161.16 1437.04,-151.16 1433.54,-161.16 1440.54,-161.16"/>
</a>
</g>
</g>
<!-- Node29&#45;&gt;Node18 -->
<g id="edge63_Node000029_Node000018" class="edge">
<title>Node29&#45;&gt;Node18</title>
<g id="a_edge63_Node000029_Node000018"><a xlink:title=" ">
<path fill="none" stroke="#63b8ff" d="M1204.15,-253.76C1091.77,-242.97 896.15,-224.06 835.59,-217.1"/>
<polygon fill="#63b8ff" stroke="#63b8ff" points="835.69,-213.58 825.35,-215.87 834.86,-220.53 835.69,-213.58"/>
</a>
</g>
</g>
<!-- Node29&#45;&gt;Node22 -->
<g id="edge64_Node000029_Node000022" class="edge">
<title>Node29&#45;&gt;Node22</title>
<g id="a_edge64_Node000029_Node000022"><a xlink:title=" ">
<path fill="none" stroke="#63b8ff" d="M1232.69,-252.99C1176.28,-243.83 1085.4,-229.06 1017.02,-217.95"/>
<polygon fill="#63b8ff" stroke="#63b8ff" points="1017.53,-214.48 1007.1,-216.33 1016.4,-221.39 1017.53,-214.48"/>
</a>
</g>
</g>
<!-- Node29&#45;&gt;Node27 -->
<g id="edge62_Node000029_Node000027" class="edge">
<title>Node29&#45;&gt;Node27</title>
<g id="a_edge62_Node000029_Node000027"><a xlink:title=" ">
<path fill="none" stroke="#63b8ff" d="M1365.55,-257.59C1428.08,-252.67 1507.51,-241.63 1528.04,-217 1547.77,-193.32 1515.1,-170.54 1483.55,-155.38"/>
<polygon fill="#63b8ff" stroke="#63b8ff" points="1484.84,-152.12 1474.29,-151.13 1481.91,-158.48 1484.84,-152.12"/>
</a>
</g>
</g>
<!-- Node29&#45;&gt;Node28 -->
<g id="edge65_Node000029_Node000028" class="edge">
<title>Node29&#45;&gt;Node28</title>
<g id="a_edge65_Node000029_Node000028"><a xlink:title=" ">
<path fill="none" stroke="#63b8ff" d="M1307.14,-252.99C1329.01,-244.57 1363.16,-231.43 1390.96,-220.73"/>
<polygon fill="#63b8ff" stroke="#63b8ff" points="1392.42,-223.92 1400.49,-217.06 1389.9,-217.39 1392.42,-223.92"/>
</a>
</g>
</g>
</g>
</svg>
