<?xml version="1.0" encoding="UTF-8" standalone="no"?>
<!DOCTYPE svg PUBLIC "-//W3C//DTD SVG 1.1//EN"
 "http://www.w3.org/Graphics/SVG/1.1/DTD/svg11.dtd">
<!-- Generated by graphviz version 2.43.0 (0)
 -->
<!-- Title: include/helios/rendering/RenderQueue.ixx Pages: 1 -->
<!--zoomable 511 -->

<svg id="main" version="1.1" xmlns="http://www.w3.org/2000/svg" xmlns:xlink="http://www.w3.org/1999/xlink" xml:space="preserve" onload="init(evt)">

<style type="text/css"><![CDATA[
.node, .edge {opacity: 0.7;}
.node.selected, .edge.selected {opacity: 1;}
.edge:hover path { stroke: red; }
.edge:hover polygon { stroke: red; fill: red; }
]]></style>

<defs>
  <circle id="rim" cx="0" cy="0" r="7"/>
  <circle id="rim2" cx="0" cy="0" r="3.5"/>
  <g id="zoomPlus">
    <use xlink:href="#rim" fill="#404040"><set attributeName="fill" to="#808080" begin="zoomplus.mouseover" end="zoomplus.mouseout"/></use>
    <path d="M-4,0h8M0,-4v8" fill="none" stroke="white" stroke-width="1.5" pointer-events="none"/>
  </g>
  <g id="zoomMin">
    <use xlink:href="#rim" fill="#404040"><set attributeName="fill" to="#808080" begin="zoomminus.mouseover" end="zoomminus.mouseout"/></use>
    <path d="M-4,0h8" fill="none" stroke="white" stroke-width="1.5" pointer-events="none"/>
  </g>
  <g id="arrowUp" transform="translate(30 24)">
    <use xlink:href="#rim"/>
    <path pointer-events="none" fill="none" stroke="white" stroke-width="1.5" d="M0,-3.0v7 M-2.5,-0.5L0,-3.0L2.5,-0.5"/>
  </g>
  <g id="arrowRight" transform="rotate(90) translate(36 -43)">
    <use xlink:href="#rim"/>
    <path pointer-events="none" fill="none" stroke="white" stroke-width="1.5" d="M0,-3.0v7 M-2.5,-0.5L0,-3.0L2.5,-0.5"/>
  </g>
  <g id="arrowDown" transform="rotate(180) translate(-30 -48)">
    <use xlink:href="#rim"/>
    <path pointer-events="none" fill="none" stroke="white" stroke-width="1.5" d="M0,-3.0v7 M-2.5,-0.5L0,-3.0L2.5,-0.5"/>
  </g>
  <g id="arrowLeft" transform="rotate(270) translate(-36 17)">
    <use xlink:href="#rim"/>
    <path pointer-events="none" fill="none" stroke="white" stroke-width="1.5" d="M0,-3.0v7 M-2.5,-0.5L0,-3.0L2.5,-0.5"/>
  </g>
  <g id="resetDef">
    <use xlink:href="#rim2" fill="#404040"><set attributeName="fill" to="#808080" begin="reset.mouseover" end="reset.mouseout"/></use>
  </g>
</defs>
<script type="application/ecmascript">
var viewWidth = 1860;
var viewHeight = 511;
var sectionId = 'dynsection-0';
</script>
<script type="application/ecmascript" xlink:href="svg.min.js"/>
<svg id="graph" class="graph">
<g id="viewport">
<title>include/helios/rendering/RenderQueue.ixx</title>
<!-- Node1 -->
<g id="Node000001" class="node">
<title>Node1</title>
<g id="a_Node000001"><a xlink:title="Container for enqueued render commands and renderables.">
<polygon fill="#999999" stroke="#666666" points="814,-503 680,-503 680,-473 814,-473 814,-503"/>
<text text-anchor="start" x="688" y="-491" font-family="Helvetica,sans-Serif" font-size="10.00">include/helios/rendering</text>
<text text-anchor="middle" x="747" y="-480" font-family="Helvetica,sans-Serif" font-size="10.00">/RenderQueue.ixx</text>
</a>
</g>
</g>
<!-- Node2 -->
<g id="Node000002" class="node">
<title>Node2</title>
<g id="a_Node000002"><a xlink:title=" ">
<polygon fill="#e0e0e0" stroke="#999999" points="534,-437 484,-437 484,-418 534,-418 534,-437"/>
<text text-anchor="middle" x="509" y="-425" font-family="Helvetica,sans-Serif" font-size="10.00">format</text>
</a>
</g>
</g>
<!-- Node1&#45;&gt;Node2 -->
<g id="edge1_Node000001_Node000002" class="edge">
<title>Node1&#45;&gt;Node2</title>
<g id="a_edge1_Node000001_Node000002"><a xlink:title=" ">
<path fill="none" stroke="#63b8ff" d="M689.99,-472.99C644.74,-461.86 582.89,-446.66 544.48,-437.22"/>
<polygon fill="#63b8ff" stroke="#63b8ff" points="544.84,-433.71 534.29,-434.72 543.17,-440.5 544.84,-433.71"/>
</a>
</g>
</g>
<!-- Node3 -->
<g id="Node000003" class="node">
<title>Node3</title>
<g id="a_Node000003"><a xlink:title=" ">
<polygon fill="#e0e0e0" stroke="#999999" points="1039,-74 981,-74 981,-55 1039,-55 1039,-74"/>
<text text-anchor="middle" x="1010" y="-62" font-family="Helvetica,sans-Serif" font-size="10.00">memory</text>
</a>
</g>
</g>
<!-- Node1&#45;&gt;Node3 -->
<g id="edge2_Node000001_Node000003" class="edge">
<title>Node1&#45;&gt;Node3</title>
<g id="a_edge2_Node000001_Node000003"><a xlink:title=" ">
<path fill="none" stroke="#63b8ff" d="M814.15,-486.93C1048.22,-485.83 1814,-474.5 1814,-373.5 1814,-373.5 1814,-373.5 1814,-256 1814,-180.46 1791.49,-149.33 1727,-110 1669.08,-74.67 1191.67,-67.25 1049.68,-65.82"/>
<polygon fill="#63b8ff" stroke="#63b8ff" points="1049.32,-62.32 1039.28,-65.72 1049.25,-69.32 1049.32,-62.32"/>
</a>
</g>
</g>
<!-- Node4 -->
<g id="Node000004" class="node">
<title>Node4</title>
<g id="a_Node000004"><a xlink:title=" ">
<polygon fill="#e0e0e0" stroke="#999999" points="1582.5,-74 1535.5,-74 1535.5,-55 1582.5,-55 1582.5,-74"/>
<text text-anchor="middle" x="1559" y="-62" font-family="Helvetica,sans-Serif" font-size="10.00">vector</text>
</a>
</g>
</g>
<!-- Node1&#45;&gt;Node4 -->
<g id="edge3_Node000001_Node000004" class="edge">
<title>Node1&#45;&gt;Node4</title>
<g id="a_edge3_Node000001_Node000004"><a xlink:title=" ">
<path fill="none" stroke="#63b8ff" d="M814,-487.14C1005.5,-486.97 1552.47,-482.41 1725,-437 1786.03,-420.94 1852,-436.61 1852,-373.5 1852,-373.5 1852,-373.5 1852,-256 1852,-176.07 1817.58,-147.51 1747,-110 1687.23,-78.23 1662.81,-89.7 1592.53,-73.98"/>
<polygon fill="#63b8ff" stroke="#63b8ff" points="1593.31,-70.57 1582.78,-71.7 1591.71,-77.39 1593.31,-70.57"/>
</a>
</g>
</g>
<!-- Node5 -->
<g id="Node000005" class="node">
<title>Node5</title>
<g id="a_Node000005"><a xlink:href="LogManager_8ixx.html" target="_top" xlink:title="Central manager for scoped loggers with configurable sinks.">
<polygon fill="white" stroke="#666666" points="540,-200.5 394,-200.5 394,-181.5 540,-181.5 540,-200.5"/>
<text text-anchor="middle" x="467" y="-188.5" font-family="Helvetica,sans-Serif" font-size="10.00">helios.util.log.LogManager</text>
</a>
</g>
</g>
<!-- Node1&#45;&gt;Node5 -->
<g id="edge4_Node000001_Node000005" class="edge">
<title>Node1&#45;&gt;Node5</title>
<g id="a_edge4_Node000001_Node000005"><a xlink:title=" ">
<path fill="none" stroke="#63b8ff" d="M719.72,-472.83C665.71,-443.29 545.21,-369.67 485,-272 473.47,-253.29 469.3,-228.06 467.81,-210.97"/>
<polygon fill="#63b8ff" stroke="#63b8ff" points="471.27,-210.37 467.14,-200.62 464.29,-210.82 471.27,-210.37"/>
</a>
</g>
</g>
<!-- Node10 -->
<g id="Node000010" class="node">
<title>Node10</title>
<g id="a_Node000010"><a xlink:href="Logger_8ixx.html" target="_top" xlink:title="Simple synchronous logger with configurable output sinks.">
<polygon fill="white" stroke="#666666" points="727.5,-134.5 608.5,-134.5 608.5,-115.5 727.5,-115.5 727.5,-134.5"/>
<text text-anchor="middle" x="668" y="-122.5" font-family="Helvetica,sans-Serif" font-size="10.00">helios.util.log.Logger</text>
</a>
</g>
</g>
<!-- Node1&#45;&gt;Node10 -->
<g id="edge19_Node000001_Node000010" class="edge">
<title>Node1&#45;&gt;Node10</title>
<g id="a_edge19_Node000001_Node000010"><a xlink:title=" ">
<path fill="none" stroke="#63b8ff" d="M735.19,-472.55C709.05,-439.53 646.91,-354.99 625,-272 612.63,-225.13 640.07,-170.45 656.62,-143.23"/>
<polygon fill="#63b8ff" stroke="#63b8ff" points="659.75,-144.83 662.13,-134.51 653.83,-141.09 659.75,-144.83"/>
</a>
</g>
</g>
<!-- Node12 -->
<g id="Node000012" class="node">
<title>Node12</title>
<g id="a_Node000012"><a xlink:href="RenderCommand_8ixx.html" target="_top" xlink:title="Representation of a low&#45;level render command.">
<polygon fill="white" stroke="#666666" points="923.5,-437 740.5,-437 740.5,-418 923.5,-418 923.5,-437"/>
<text text-anchor="middle" x="832" y="-425" font-family="Helvetica,sans-Serif" font-size="10.00">helios.rendering.RenderCommand</text>
</a>
</g>
</g>
<!-- Node1&#45;&gt;Node12 -->
<g id="edge20_Node000001_Node000012" class="edge">
<title>Node1&#45;&gt;Node12</title>
<g id="a_edge20_Node000001_Node000012"><a xlink:title=" ">
<path fill="none" stroke="#63b8ff" d="M767.58,-472.84C780.67,-463.83 797.59,-452.18 810.8,-443.09"/>
<polygon fill="#63b8ff" stroke="#63b8ff" points="813.01,-445.82 819.26,-437.27 809.04,-440.05 813.01,-445.82"/>
</a>
</g>
</g>
<!-- Node5&#45;&gt;Node3 -->
<g id="edge8_Node000005_Node000003" class="edge">
<title>Node5&#45;&gt;Node3</title>
<g id="a_edge8_Node000005_Node000003"><a xlink:title=" ">
<path fill="none" stroke="#63b8ff" d="M485.17,-181.46C504.49,-172.13 535.67,-156.32 561,-140 579.38,-128.16 579.71,-118.15 600,-110 666.8,-83.17 881.61,-71.03 970.71,-67.06"/>
<polygon fill="#63b8ff" stroke="#63b8ff" points="971.09,-70.55 980.93,-66.62 970.79,-63.55 971.09,-70.55"/>
</a>
</g>
</g>
<!-- Node5&#45;&gt;Node4 -->
<g id="edge10_Node000005_Node000004" class="edge">
<title>Node5&#45;&gt;Node4</title>
<g id="a_edge10_Node000005_Node000004"><a xlink:title=" ">
<path fill="none" stroke="#63b8ff" d="M531.89,-181.49C587.08,-173.42 668.11,-159.61 737,-140 772.32,-129.94 778.12,-117.86 814,-110 952.36,-79.7 1397.76,-68.7 1524.85,-66.13"/>
<polygon fill="#63b8ff" stroke="#63b8ff" points="1525.21,-69.62 1535.14,-65.93 1525.07,-62.63 1525.21,-69.62"/>
</a>
</g>
</g>
<!-- Node6 -->
<g id="Node000006" class="node">
<title>Node6</title>
<g id="a_Node000006"><a xlink:title=" ">
<polygon fill="#e0e0e0" stroke="#999999" points="265,-19 221,-19 221,0 265,0 265,-19"/>
<text text-anchor="middle" x="243" y="-7" font-family="Helvetica,sans-Serif" font-size="10.00">string</text>
</a>
</g>
</g>
<!-- Node5&#45;&gt;Node6 -->
<g id="edge5_Node000005_Node000006" class="edge">
<title>Node5&#45;&gt;Node6</title>
<g id="a_edge5_Node000005_Node000006"><a xlink:title=" ">
<path fill="none" stroke="#63b8ff" d="M427.91,-181.48C400.17,-173.99 363.19,-160.94 336,-140 314.93,-123.78 273.11,-58.96 253.55,-27.63"/>
<polygon fill="#63b8ff" stroke="#63b8ff" points="256.48,-25.73 248.24,-19.08 250.53,-29.42 256.48,-25.73"/>
</a>
</g>
</g>
<!-- Node7 -->
<g id="Node000007" class="node">
<title>Node7</title>
<g id="a_Node000007"><a xlink:title=" ">
<polygon fill="#e0e0e0" stroke="#999999" points="447.5,-134.5 354.5,-134.5 354.5,-115.5 447.5,-115.5 447.5,-134.5"/>
<text text-anchor="middle" x="401" y="-122.5" font-family="Helvetica,sans-Serif" font-size="10.00">unordered_map</text>
</a>
</g>
</g>
<!-- Node5&#45;&gt;Node7 -->
<g id="edge6_Node000005_Node000007" class="edge">
<title>Node5&#45;&gt;Node7</title>
<g id="a_edge6_Node000005_Node000007"><a xlink:title=" ">
<path fill="none" stroke="#63b8ff" d="M458.1,-181.37C447.73,-171.31 430.37,-154.48 417.51,-142.01"/>
<polygon fill="#63b8ff" stroke="#63b8ff" points="419.8,-139.35 410.18,-134.91 414.93,-144.38 419.8,-139.35"/>
</a>
</g>
</g>
<!-- Node8 -->
<g id="Node000008" class="node">
<title>Node8</title>
<g id="a_Node000008"><a xlink:title=" ">
<polygon fill="#e0e0e0" stroke="#999999" points="552,-134.5 466,-134.5 466,-115.5 552,-115.5 552,-134.5"/>
<text text-anchor="middle" x="509" y="-122.5" font-family="Helvetica,sans-Serif" font-size="10.00">unordered_set</text>
</a>
</g>
</g>
<!-- Node5&#45;&gt;Node8 -->
<g id="edge7_Node000005_Node000008" class="edge">
<title>Node5&#45;&gt;Node8</title>
<g id="a_edge7_Node000005_Node000008"><a xlink:title=" ">
<path fill="none" stroke="#63b8ff" d="M472.66,-181.37C479.02,-171.69 489.48,-155.74 497.56,-143.44"/>
<polygon fill="#63b8ff" stroke="#63b8ff" points="500.6,-145.19 503.16,-134.91 494.74,-141.35 500.6,-145.19"/>
</a>
</g>
</g>
<!-- Node9 -->
<g id="Node000009" class="node">
<title>Node9</title>
<g id="a_Node000009"><a xlink:title=" ">
<polygon fill="#e0e0e0" stroke="#999999" points="433,-74 385,-74 385,-55 433,-55 433,-74"/>
<text text-anchor="middle" x="409" y="-62" font-family="Helvetica,sans-Serif" font-size="10.00">mutex</text>
</a>
</g>
</g>
<!-- Node5&#45;&gt;Node9 -->
<g id="edge9_Node000005_Node000009" class="edge">
<title>Node5&#45;&gt;Node9</title>
<g id="a_edge9_Node000005_Node000009"><a xlink:title=" ">
<path fill="none" stroke="#63b8ff" d="M411.35,-181.46C386.69,-174.6 359.92,-162.24 345,-140 337.57,-128.93 338.82,-121.82 345,-110 352.11,-96.39 365.49,-86.1 378.19,-78.87"/>
<polygon fill="#63b8ff" stroke="#63b8ff" points="379.98,-81.88 387.21,-74.13 376.73,-75.68 379.98,-81.88"/>
</a>
</g>
</g>
<!-- Node5&#45;&gt;Node10 -->
<g id="edge11_Node000005_Node000010" class="edge">
<title>Node5&#45;&gt;Node10</title>
<g id="a_edge11_Node000005_Node000010"><a xlink:title=" ">
<path fill="none" stroke="#63b8ff" d="M494.11,-181.37C529.57,-170.08 591.84,-150.25 631.45,-137.64"/>
<polygon fill="#63b8ff" stroke="#63b8ff" points="632.53,-140.97 641,-134.6 630.41,-134.3 632.53,-140.97"/>
</a>
</g>
</g>
<!-- Node11 -->
<g id="Node000011" class="node">
<title>Node11</title>
<g id="a_Node000011"><a xlink:href="LogSink_8ixx.html" target="_top" xlink:title="Abstract interface for log output destinations.">
<polygon fill="white" stroke="#666666" points="260,-74 136,-74 136,-55 260,-55 260,-74"/>
<text text-anchor="middle" x="198" y="-62" font-family="Helvetica,sans-Serif" font-size="10.00">helios.util.log.LogSink</text>
</a>
</g>
</g>
<!-- Node5&#45;&gt;Node11 -->
<g id="edge18_Node000005_Node000011" class="edge">
<title>Node5&#45;&gt;Node11</title>
<g id="a_edge18_Node000005_Node000011"><a xlink:title=" ">
<path fill="none" stroke="#63b8ff" d="M399.88,-181.43C361.2,-174.4 312.72,-161.89 274,-140 247.84,-125.21 224.24,-99.14 210.51,-82.1"/>
<polygon fill="#63b8ff" stroke="#63b8ff" points="213.19,-79.83 204.27,-74.11 207.67,-84.15 213.19,-79.83"/>
</a>
</g>
</g>
<!-- Node10&#45;&gt;Node3 -->
<g id="edge14_Node000010_Node000003" class="edge">
<title>Node10&#45;&gt;Node3</title>
<g id="a_edge14_Node000010_Node000003"><a xlink:title=" ">
<path fill="none" stroke="#63b8ff" d="M712.19,-115.47C722,-113.63 732.34,-111.71 742,-110 823.03,-95.61 918.1,-80.16 970.43,-71.79"/>
<polygon fill="#63b8ff" stroke="#63b8ff" points="971.29,-75.19 980.62,-70.16 970.19,-68.28 971.29,-75.19"/>
</a>
</g>
</g>
<!-- Node10&#45;&gt;Node4 -->
<g id="edge13_Node000010_Node000004" class="edge">
<title>Node10&#45;&gt;Node4</title>
<g id="a_edge13_Node000010_Node000004"><a xlink:title=" ">
<path fill="none" stroke="#63b8ff" d="M707.79,-115.47C718.82,-113.38 730.84,-111.35 742,-110 1044.25,-73.34 1413.09,-66.87 1525.14,-65.74"/>
<polygon fill="#63b8ff" stroke="#63b8ff" points="1525.2,-69.24 1535.17,-65.65 1525.14,-62.24 1525.2,-69.24"/>
</a>
</g>
</g>
<!-- Node10&#45;&gt;Node6 -->
<g id="edge12_Node000010_Node000006" class="edge">
<title>Node10&#45;&gt;Node6</title>
<g id="a_edge12_Node000010_Node000006"><a xlink:title=" ">
<path fill="none" stroke="#63b8ff" d="M642.42,-115.49C600.73,-101.78 515.38,-74.38 442,-55 383.56,-39.57 314.55,-24.93 275.07,-16.88"/>
<polygon fill="#63b8ff" stroke="#63b8ff" points="275.71,-13.44 265.22,-14.89 274.33,-20.31 275.71,-13.44"/>
</a>
</g>
</g>
<!-- Node10&#45;&gt;Node9 -->
<g id="edge15_Node000010_Node000009" class="edge">
<title>Node10&#45;&gt;Node9</title>
<g id="a_edge15_Node000010_Node000009"><a xlink:title=" ">
<path fill="none" stroke="#63b8ff" d="M630.34,-115.49C580.02,-104.13 491.57,-84.15 443.12,-73.21"/>
<polygon fill="#63b8ff" stroke="#63b8ff" points="443.65,-69.74 433.13,-70.95 442.11,-76.57 443.65,-69.74"/>
</a>
</g>
</g>
<!-- Node10&#45;&gt;Node11 -->
<g id="edge16_Node000010_Node000011" class="edge">
<title>Node10&#45;&gt;Node11</title>
<g id="a_edge16_Node000010_Node000011"><a xlink:title=" ">
<path fill="none" stroke="#63b8ff" d="M608.3,-116.1C592.9,-114.09 576.33,-111.94 561,-110 460.08,-97.21 343.3,-83 270.04,-74.16"/>
<polygon fill="#63b8ff" stroke="#63b8ff" points="270.35,-70.67 260,-72.95 269.51,-77.62 270.35,-70.67"/>
</a>
</g>
</g>
<!-- Node11&#45;&gt;Node6 -->
<g id="edge17_Node000011_Node000006" class="edge">
<title>Node11&#45;&gt;Node6</title>
<g id="a_edge17_Node000011_Node000006"><a xlink:title=" ">
<path fill="none" stroke="#63b8ff" d="M205.43,-54.75C211.85,-47.18 221.31,-36.05 229.12,-26.84"/>
<polygon fill="#63b8ff" stroke="#63b8ff" points="231.9,-28.98 235.71,-19.09 226.57,-24.45 231.9,-28.98"/>
</a>
</g>
</g>
<!-- Node12&#45;&gt;Node3 -->
<g id="edge21_Node000012_Node000003" class="edge">
<title>Node12&#45;&gt;Node3</title>
<g id="a_edge21_Node000012_Node000003"><a xlink:title=" ">
<path fill="none" stroke="#63b8ff" d="M791.62,-417.94C650.42,-386.37 195.36,-269.99 345,-110 387.8,-64.24 834.26,-64.06 970.65,-65.09"/>
<polygon fill="#63b8ff" stroke="#63b8ff" points="970.63,-68.59 980.66,-65.17 970.69,-61.59 970.63,-68.59"/>
</a>
</g>
</g>
<!-- Node13 -->
<g id="Node000013" class="node">
<title>Node13</title>
<g id="a_Node000013"><a xlink:href="UniformValueMap_8ixx.html" target="_top" xlink:title="Mapping of uniform names to values used by shader programs.">
<polygon fill="white" stroke="#666666" points="984,-206 850,-206 850,-176 984,-176 984,-206"/>
<text text-anchor="start" x="858" y="-194" font-family="Helvetica,sans-Serif" font-size="10.00">helios.rendering.shader.</text>
<text text-anchor="middle" x="917" y="-183" font-family="Helvetica,sans-Serif" font-size="10.00">UniformValueMap</text>
</a>
</g>
</g>
<!-- Node12&#45;&gt;Node13 -->
<g id="edge22_Node000012_Node000013" class="edge">
<title>Node12&#45;&gt;Node13</title>
<g id="a_edge22_Node000012_Node000013"><a xlink:title=" ">
<path fill="none" stroke="#63b8ff" d="M839.66,-417.93C853.81,-401.57 883.88,-364.21 898,-327 911.95,-290.24 915.8,-244.35 916.78,-216.65"/>
<polygon fill="#63b8ff" stroke="#63b8ff" points="920.29,-216.39 917.04,-206.31 913.29,-216.22 920.29,-216.39"/>
</a>
</g>
</g>
<!-- Node19 -->
<g id="Node000019" class="node">
<title>Node19</title>
<g id="a_Node000019"><a xlink:href="RenderPrototype_8ixx.html" target="_top" xlink:title="An immutable, shared prototype of a renderable object.">
<polygon fill="white" stroke="#666666" points="1219,-382 1039,-382 1039,-363 1219,-363 1219,-382"/>
<text text-anchor="middle" x="1129" y="-370" font-family="Helvetica,sans-Serif" font-size="10.00">helios.rendering.RenderPrototype</text>
</a>
</g>
</g>
<!-- Node12&#45;&gt;Node19 -->
<g id="edge29_Node000012_Node000019" class="edge">
<title>Node12&#45;&gt;Node19</title>
<g id="a_edge29_Node000012_Node000019"><a xlink:title=" ">
<path fill="none" stroke="#63b8ff" d="M879.72,-417.98C931.74,-408.7 1015,-393.84 1070.82,-383.88"/>
<polygon fill="#63b8ff" stroke="#63b8ff" points="1071.68,-387.28 1080.91,-382.08 1070.45,-380.39 1071.68,-387.28"/>
</a>
</g>
</g>
<!-- Node14 -->
<g id="Node000014" class="node">
<title>Node14</title>
<g id="a_Node000014"><a xlink:title=" ">
<polygon fill="#e0e0e0" stroke="#999999" points="934,-134.5 892,-134.5 892,-115.5 934,-115.5 934,-134.5"/>
<text text-anchor="middle" x="913" y="-122.5" font-family="Helvetica,sans-Serif" font-size="10.00">array</text>
</a>
</g>
</g>
<!-- Node13&#45;&gt;Node14 -->
<g id="edge23_Node000013_Node000014" class="edge">
<title>Node13&#45;&gt;Node14</title>
<g id="a_edge23_Node000013_Node000014"><a xlink:title=" ">
<path fill="none" stroke="#63b8ff" d="M916.11,-175.8C915.54,-166.7 914.8,-154.79 914.18,-144.9"/>
<polygon fill="#63b8ff" stroke="#63b8ff" points="917.67,-144.61 913.55,-134.84 910.68,-145.04 917.67,-144.61"/>
</a>
</g>
</g>
<!-- Node15 -->
<g id="Node000015" class="node">
<title>Node15</title>
<g id="a_Node000015"><a xlink:title=" ">
<polygon fill="#e0e0e0" stroke="#999999" points="1008,-134.5 952,-134.5 952,-115.5 1008,-115.5 1008,-134.5"/>
<text text-anchor="middle" x="980" y="-122.5" font-family="Helvetica,sans-Serif" font-size="10.00">optional</text>
</a>
</g>
</g>
<!-- Node13&#45;&gt;Node15 -->
<g id="edge24_Node000013_Node000015" class="edge">
<title>Node13&#45;&gt;Node15</title>
<g id="a_edge24_Node000013_Node000015"><a xlink:title=" ">
<path fill="none" stroke="#63b8ff" d="M930.98,-175.8C940.8,-165.82 953.96,-152.46 964.17,-142.09"/>
<polygon fill="#63b8ff" stroke="#63b8ff" points="966.77,-144.43 971.29,-134.84 961.78,-139.52 966.77,-144.43"/>
</a>
</g>
</g>
<!-- Node16 -->
<g id="Node000016" class="node">
<title>Node16</title>
<g id="a_Node000016"><a xlink:title=" ">
<polygon fill="#e0e0e0" stroke="#999999" points="873.5,-134.5 822.5,-134.5 822.5,-115.5 873.5,-115.5 873.5,-134.5"/>
<text text-anchor="middle" x="848" y="-122.5" font-family="Helvetica,sans-Serif" font-size="10.00">variant</text>
</a>
</g>
</g>
<!-- Node13&#45;&gt;Node16 -->
<g id="edge25_Node000013_Node000016" class="edge">
<title>Node13&#45;&gt;Node16</title>
<g id="a_edge25_Node000013_Node000016"><a xlink:title=" ">
<path fill="none" stroke="#63b8ff" d="M901.69,-175.8C890.82,-165.72 876.24,-152.19 865.01,-141.78"/>
<polygon fill="#63b8ff" stroke="#63b8ff" points="867.25,-139.08 857.54,-134.84 862.49,-144.21 867.25,-139.08"/>
</a>
</g>
</g>
<!-- Node17 -->
<g id="Node000017" class="node">
<title>Node17</title>
<g id="a_Node000017"><a xlink:href="helios_2math_2types_2__module_8ixx.html" target="_top" xlink:title="Module exports for vector and matrix type definitions.">
<polygon fill="white" stroke="#666666" points="1705,-74 1601,-74 1601,-55 1705,-55 1705,-74"/>
<text text-anchor="middle" x="1653" y="-62" font-family="Helvetica,sans-Serif" font-size="10.00">helios.math.types</text>
</a>
</g>
</g>
<!-- Node13&#45;&gt;Node17 -->
<g id="edge26_Node000013_Node000017" class="edge">
<title>Node13&#45;&gt;Node17</title>
<g id="a_edge26_Node000013_Node000017"><a xlink:title=" ">
<path fill="none" stroke="#63b8ff" d="M949.44,-175.84C969.46,-166.6 995.37,-153.74 1017,-140 1035.16,-128.46 1034.92,-117.73 1055,-110 1163.78,-68.11 1457.59,-85.32 1590.72,-73.97"/>
<polygon fill="#63b8ff" stroke="#63b8ff" points="1591.16,-77.45 1600.79,-73.03 1590.5,-70.48 1591.16,-77.45"/>
</a>
</g>
</g>
<!-- Node18 -->
<g id="Node000018" class="node">
<title>Node18</title>
<g id="a_Node000018"><a xlink:href="UniformSemantics_8ixx.html" target="_top" xlink:title="Definitions of uniform semantics used by shaders.">
<polygon fill="white" stroke="#666666" points="1198,-140 1064,-140 1064,-110 1198,-110 1198,-140"/>
<text text-anchor="start" x="1072" y="-128" font-family="Helvetica,sans-Serif" font-size="10.00">helios.rendering.shader.</text>
<text text-anchor="middle" x="1131" y="-117" font-family="Helvetica,sans-Serif" font-size="10.00">UniformSemantics</text>
</a>
</g>
</g>
<!-- Node13&#45;&gt;Node18 -->
<g id="edge28_Node000013_Node000018" class="edge">
<title>Node13&#45;&gt;Node18</title>
<g id="a_edge28_Node000013_Node000018"><a xlink:title=" ">
<path fill="none" stroke="#63b8ff" d="M963.96,-175.95C996.44,-166.24 1039.82,-153.27 1074.24,-142.98"/>
<polygon fill="#63b8ff" stroke="#63b8ff" points="1075.57,-146.23 1084.15,-140.01 1073.56,-139.52 1075.57,-146.23"/>
</a>
</g>
</g>
<!-- Node17&#45;&gt;Node17 -->
<g id="edge27_Node000017_Node000017" class="edge">
<title>Node17&#45;&gt;Node17</title>
<g id="a_edge27_Node000017_Node000017"><a xlink:title=" ">
<path fill="none" stroke="#63b8ff" d="M1685.77,-74.03C1705,-76.06 1723,-72.88 1723,-64.5 1723,-57.62 1710.89,-54.25 1695.92,-54.38"/>
<polygon fill="#63b8ff" stroke="#63b8ff" points="1695.55,-50.89 1685.77,-54.97 1695.95,-57.88 1695.55,-50.89"/>
</a>
</g>
</g>
<!-- Node19&#45;&gt;Node3 -->
<g id="edge30_Node000019_Node000003" class="edge">
<title>Node19&#45;&gt;Node3</title>
<g id="a_edge30_Node000019_Node000003"><a xlink:title=" ">
<path fill="none" stroke="#63b8ff" d="M1144.58,-362.84C1172,-346.32 1226,-307.51 1226,-258 1226,-258 1226,-258 1226,-190 1226,-153.46 1232.98,-135.7 1207,-110 1185.08,-88.32 1100.29,-75.42 1049.37,-69.48"/>
<polygon fill="#63b8ff" stroke="#63b8ff" points="1049.68,-65.99 1039.35,-68.35 1048.9,-72.95 1049.68,-65.99"/>
</a>
</g>
</g>
<!-- Node20 -->
<g id="Node000020" class="node">
<title>Node20</title>
<g id="a_Node000020"><a xlink:href="Mesh_8ixx.html" target="_top" xlink:title="Mesh abstraction: immutable vertex/index data and configuration.">
<polygon fill="white" stroke="#666666" points="1454,-266.5 1296,-266.5 1296,-247.5 1454,-247.5 1454,-266.5"/>
<text text-anchor="middle" x="1375" y="-254.5" font-family="Helvetica,sans-Serif" font-size="10.00">helios.rendering.model.Mesh</text>
</a>
</g>
</g>
<!-- Node19&#45;&gt;Node20 -->
<g id="edge31_Node000019_Node000020" class="edge">
<title>Node19&#45;&gt;Node20</title>
<g id="a_edge31_Node000019_Node000020"><a xlink:title=" ">
<path fill="none" stroke="#63b8ff" d="M1152.22,-362.9C1174.86,-354.35 1210.14,-340.58 1240,-327 1279.26,-309.14 1323.58,-285.87 1350.39,-271.44"/>
<polygon fill="#63b8ff" stroke="#63b8ff" points="1352.3,-274.38 1359.43,-266.55 1348.97,-268.22 1352.3,-274.38"/>
</a>
</g>
</g>
<!-- Node26 -->
<g id="Node000026" class="node">
<title>Node26</title>
<g id="a_Node000026"><a xlink:href="Material_8ixx.html" target="_top" xlink:title="Material abstraction: shader + material properties.">
<polygon fill="white" stroke="#666666" points="888.5,-327 715.5,-327 715.5,-308 888.5,-308 888.5,-327"/>
<text text-anchor="middle" x="802" y="-315" font-family="Helvetica,sans-Serif" font-size="10.00">helios.rendering.model.Material</text>
</a>
</g>
</g>
<!-- Node19&#45;&gt;Node26 -->
<g id="edge47_Node000019_Node000026" class="edge">
<title>Node19&#45;&gt;Node26</title>
<g id="a_edge47_Node000019_Node000026"><a xlink:title=" ">
<path fill="none" stroke="#63b8ff" d="M1076.46,-362.98C1018.74,-353.63 926.09,-338.61 864.64,-328.65"/>
<polygon fill="#63b8ff" stroke="#63b8ff" points="865.11,-325.18 854.68,-327.04 863.99,-332.09 865.11,-325.18"/>
</a>
</g>
</g>
<!-- Node20&#45;&gt;Node3 -->
<g id="edge32_Node000020_Node000003" class="edge">
<title>Node20&#45;&gt;Node3</title>
<g id="a_edge32_Node000020_Node000003"><a xlink:title=" ">
<path fill="none" stroke="#63b8ff" d="M1365.1,-247.49C1354,-237.81 1335.65,-221.34 1321,-206 1282.45,-165.63 1288.15,-138.25 1240,-110 1179.86,-74.72 1097.14,-66.74 1049.04,-65.31"/>
<polygon fill="#63b8ff" stroke="#63b8ff" points="1049.1,-61.81 1039.03,-65.09 1048.95,-68.81 1049.1,-61.81"/>
</a>
</g>
</g>
<!-- Node20&#45;&gt;Node4 -->
<g id="edge34_Node000020_Node000004" class="edge">
<title>Node20&#45;&gt;Node4</title>
<g id="a_edge34_Node000020_Node000004"><a xlink:title=" ">
<path fill="none" stroke="#63b8ff" d="M1454.35,-252.35C1537.43,-247.05 1660.88,-234.52 1698,-206 1733.34,-178.84 1754.18,-145.32 1727,-110 1726.48,-109.32 1641.3,-86.99 1592.45,-74.23"/>
<polygon fill="#63b8ff" stroke="#63b8ff" points="1593.18,-70.8 1582.62,-71.66 1591.41,-77.57 1593.18,-70.8"/>
</a>
</g>
</g>
<!-- Node20&#45;&gt;Node5 -->
<g id="edge37_Node000020_Node000005" class="edge">
<title>Node20&#45;&gt;Node5</title>
<g id="a_edge37_Node000020_Node000005"><a xlink:title=" ">
<path fill="none" stroke="#63b8ff" d="M1295.61,-250.4C1124.98,-238.38 724.66,-210.16 550.45,-197.88"/>
<polygon fill="#63b8ff" stroke="#63b8ff" points="550.53,-194.38 540.31,-197.17 550.04,-201.36 550.53,-194.38"/>
</a>
</g>
</g>
<!-- Node20&#45;&gt;Node10 -->
<g id="edge36_Node000020_Node000010" class="edge">
<title>Node20&#45;&gt;Node10</title>
<g id="a_edge36_Node000020_Node000010"><a xlink:title=" ">
<path fill="none" stroke="#63b8ff" d="M1361.28,-247.38C1333.43,-230.36 1267.75,-192.67 1207,-176 1037.86,-129.57 988.63,-156.37 814,-140 789.15,-137.67 761.94,-135.07 737.8,-132.75"/>
<polygon fill="#63b8ff" stroke="#63b8ff" points="737.95,-129.25 727.66,-131.78 737.28,-136.22 737.95,-129.25"/>
</a>
</g>
</g>
<!-- Node20&#45;&gt;Node17 -->
<g id="edge35_Node000020_Node000017" class="edge">
<title>Node20&#45;&gt;Node17</title>
<g id="a_edge35_Node000020_Node000017"><a xlink:title=" ">
<path fill="none" stroke="#63b8ff" d="M1454.1,-254.29C1544.79,-250.72 1686.11,-239.74 1726,-206 1759.35,-177.79 1770.36,-146.9 1747,-110 1737.15,-94.44 1720.23,-84.22 1703.44,-77.55"/>
<polygon fill="#63b8ff" stroke="#63b8ff" points="1704.21,-74.1 1693.62,-74.01 1701.84,-80.69 1704.21,-74.1"/>
</a>
</g>
</g>
<!-- Node21 -->
<g id="Node000021" class="node">
<title>Node21</title>
<g id="a_Node000021"><a xlink:title=" ">
<polygon fill="#e0e0e0" stroke="#999999" points="1197.5,-200.5 1132.5,-200.5 1132.5,-181.5 1197.5,-181.5 1197.5,-200.5"/>
<text text-anchor="middle" x="1165" y="-188.5" font-family="Helvetica,sans-Serif" font-size="10.00">stdexcept</text>
</a>
</g>
</g>
<!-- Node20&#45;&gt;Node21 -->
<g id="edge33_Node000020_Node000021" class="edge">
<title>Node20&#45;&gt;Node21</title>
<g id="a_edge33_Node000020_Node000021"><a xlink:title=" ">
<path fill="none" stroke="#63b8ff" d="M1346.68,-247.37C1309.55,-236.05 1244.29,-216.16 1202.92,-203.56"/>
<polygon fill="#63b8ff" stroke="#63b8ff" points="1203.79,-200.16 1193.21,-200.6 1201.75,-206.86 1203.79,-200.16"/>
</a>
</g>
</g>
<!-- Node22 -->
<g id="Node000022" class="node">
<title>Node22</title>
<g id="a_Node000022"><a xlink:href="Shape_8ixx.html" target="_top" xlink:title="Interface for simple geometric shapes used for testing and debugging.">
<polygon fill="white" stroke="#666666" points="1672,-206 1512,-206 1512,-176 1672,-176 1672,-206"/>
<text text-anchor="start" x="1520" y="-194" font-family="Helvetica,sans-Serif" font-size="10.00">helios.rendering.asset.shape.</text>
<text text-anchor="middle" x="1592" y="-183" font-family="Helvetica,sans-Serif" font-size="10.00">Shape</text>
</a>
</g>
</g>
<!-- Node20&#45;&gt;Node22 -->
<g id="edge38_Node000020_Node000022" class="edge">
<title>Node20&#45;&gt;Node22</title>
<g id="a_edge38_Node000020_Node000022"><a xlink:title=" ">
<path fill="none" stroke="#63b8ff" d="M1404.27,-247.37C1437.47,-237.58 1492.43,-221.37 1534.33,-209.01"/>
<polygon fill="#63b8ff" stroke="#63b8ff" points="1535.54,-212.3 1544.14,-206.12 1533.56,-205.59 1535.54,-212.3"/>
</a>
</g>
</g>
<!-- Node24 -->
<g id="Node000024" class="node">
<title>Node24</title>
<g id="a_Node000024"><a xlink:href="Vertex_8ixx.html" target="_top" xlink:title="Vertex description and utilities for rendering.">
<polygon fill="white" stroke="#666666" points="1718,-134.5 1588,-134.5 1588,-115.5 1718,-115.5 1718,-134.5"/>
<text text-anchor="middle" x="1653" y="-122.5" font-family="Helvetica,sans-Serif" font-size="10.00">helios.rendering.Vertex</text>
</a>
</g>
</g>
<!-- Node20&#45;&gt;Node24 -->
<g id="edge46_Node000020_Node000024" class="edge">
<title>Node20&#45;&gt;Node24</title>
<g id="a_edge46_Node000020_Node000024"><a xlink:title=" ">
<path fill="none" stroke="#63b8ff" d="M1454.08,-254.3C1534.87,-250.69 1652.42,-239.63 1681,-206 1696.5,-187.76 1681,-160.41 1667.64,-142.88"/>
<polygon fill="#63b8ff" stroke="#63b8ff" points="1670.03,-140.28 1661.02,-134.71 1664.59,-144.68 1670.03,-140.28"/>
</a>
</g>
</g>
<!-- Node25 -->
<g id="Node000025" class="node">
<title>Node25</title>
<g id="a_Node000025"><a xlink:href="MeshConfig_8ixx.html" target="_top" xlink:title="Mesh configuration including primitive type.">
<polygon fill="white" stroke="#666666" points="1494,-206 1330,-206 1330,-176 1494,-176 1494,-206"/>
<text text-anchor="start" x="1338" y="-194" font-family="Helvetica,sans-Serif" font-size="10.00">helios.rendering.model.config.</text>
<text text-anchor="middle" x="1412" y="-183" font-family="Helvetica,sans-Serif" font-size="10.00">MeshConfig</text>
</a>
</g>
</g>
<!-- Node20&#45;&gt;Node25 -->
<g id="edge44_Node000020_Node000025" class="edge">
<title>Node20&#45;&gt;Node25</title>
<g id="a_edge44_Node000020_Node000025"><a xlink:title=" ">
<path fill="none" stroke="#63b8ff" d="M1379.99,-247.37C1384.74,-239.16 1392.09,-226.44 1398.56,-215.26"/>
<polygon fill="#63b8ff" stroke="#63b8ff" points="1401.72,-216.77 1403.7,-206.36 1395.66,-213.27 1401.72,-216.77"/>
</a>
</g>
</g>
<!-- Node22&#45;&gt;Node3 -->
<g id="edge39_Node000022_Node000003" class="edge">
<title>Node22&#45;&gt;Node3</title>
<g id="a_edge39_Node000022_Node000003"><a xlink:title=" ">
<path fill="none" stroke="#63b8ff" d="M1581.18,-175.73C1566.02,-156.95 1536.52,-124.61 1503,-110 1421.78,-74.59 1151.54,-67.35 1049.49,-65.88"/>
<polygon fill="#63b8ff" stroke="#63b8ff" points="1049.34,-62.37 1039.3,-65.74 1049.25,-69.37 1049.34,-62.37"/>
</a>
</g>
</g>
<!-- Node22&#45;&gt;Node4 -->
<g id="edge40_Node000022_Node000004" class="edge">
<title>Node22&#45;&gt;Node4</title>
<g id="a_edge40_Node000022_Node000004"><a xlink:title=" ">
<path fill="none" stroke="#63b8ff" d="M1588.21,-175.72C1582.2,-153.02 1570.46,-108.72 1563.84,-83.75"/>
<polygon fill="#63b8ff" stroke="#63b8ff" points="1567.22,-82.84 1561.27,-74.07 1560.45,-84.63 1567.22,-82.84"/>
</a>
</g>
</g>
<!-- Node23 -->
<g id="Node000023" class="node">
<title>Node23</title>
<g id="a_Node000023"><a xlink:href="PrimitiveType_8ixx.html" target="_top" xlink:title="Enum of primitive types for mesh rendering.">
<polygon fill="white" stroke="#666666" points="1494,-140 1330,-140 1330,-110 1494,-110 1494,-140"/>
<text text-anchor="start" x="1338" y="-128" font-family="Helvetica,sans-Serif" font-size="10.00">helios.rendering.model.config.</text>
<text text-anchor="middle" x="1412" y="-117" font-family="Helvetica,sans-Serif" font-size="10.00">PrimitiveType</text>
</a>
</g>
</g>
<!-- Node22&#45;&gt;Node23 -->
<g id="edge41_Node000022_Node000023" class="edge">
<title>Node22&#45;&gt;Node23</title>
<g id="a_edge41_Node000022_Node000023"><a xlink:title=" ">
<path fill="none" stroke="#63b8ff" d="M1552.5,-175.95C1525.53,-166.37 1489.63,-153.6 1460.87,-143.37"/>
<polygon fill="#63b8ff" stroke="#63b8ff" points="1462,-140.06 1451.41,-140.01 1459.66,-146.66 1462,-140.06"/>
</a>
</g>
</g>
<!-- Node22&#45;&gt;Node24 -->
<g id="edge42_Node000022_Node000024" class="edge">
<title>Node22&#45;&gt;Node24</title>
<g id="a_edge42_Node000022_Node000024"><a xlink:title=" ">
<path fill="none" stroke="#63b8ff" d="M1605.54,-175.8C1615.05,-165.82 1627.78,-152.46 1637.67,-142.09"/>
<polygon fill="#63b8ff" stroke="#63b8ff" points="1640.2,-144.5 1644.57,-134.84 1635.14,-139.67 1640.2,-144.5"/>
</a>
</g>
</g>
<!-- Node24&#45;&gt;Node17 -->
<g id="edge43_Node000024_Node000017" class="edge">
<title>Node24&#45;&gt;Node17</title>
<g id="a_edge43_Node000024_Node000017"><a xlink:title=" ">
<path fill="none" stroke="#63b8ff" d="M1653,-115.37C1653,-107.25 1653,-94.81 1653,-84.39"/>
<polygon fill="#63b8ff" stroke="#63b8ff" points="1656.5,-84.17 1653,-74.17 1649.5,-84.17 1656.5,-84.17"/>
</a>
</g>
</g>
<!-- Node25&#45;&gt;Node23 -->
<g id="edge45_Node000025_Node000023" class="edge">
<title>Node25&#45;&gt;Node23</title>
<g id="a_edge45_Node000025_Node000023"><a xlink:title=" ">
<path fill="none" stroke="#63b8ff" d="M1412,-175.8C1412,-168.34 1412,-158.99 1412,-150.41"/>
<polygon fill="#63b8ff" stroke="#63b8ff" points="1415.5,-150.16 1412,-140.16 1408.5,-150.16 1415.5,-150.16"/>
</a>
</g>
</g>
<!-- Node26&#45;&gt;Node3 -->
<g id="edge48_Node000026_Node000003" class="edge">
<title>Node26&#45;&gt;Node3</title>
<g id="a_edge48_Node000026_Node000003"><a xlink:title=" ">
<path fill="none" stroke="#63b8ff" d="M799.24,-307.72C790.03,-276.49 763.63,-169.46 814,-110 833.89,-86.52 919.38,-74.27 970.66,-68.92"/>
<polygon fill="#63b8ff" stroke="#63b8ff" points="971.14,-72.39 980.74,-67.92 970.44,-65.43 971.14,-72.39"/>
</a>
</g>
</g>
<!-- Node26&#45;&gt;Node13 -->
<g id="edge65_Node000026_Node000013" class="edge">
<title>Node26&#45;&gt;Node13</title>
<g id="a_edge65_Node000026_Node000013"><a xlink:title=" ">
<path fill="none" stroke="#63b8ff" d="M809.9,-307.94C827.64,-288.74 871.07,-241.73 896.84,-213.82"/>
<polygon fill="#63b8ff" stroke="#63b8ff" points="899.71,-215.88 903.92,-206.16 894.56,-211.13 899.71,-215.88"/>
</a>
</g>
</g>
<!-- Node26&#45;&gt;Node21 -->
<g id="edge49_Node000026_Node000021" class="edge">
<title>Node26&#45;&gt;Node21</title>
<g id="a_edge49_Node000026_Node000021"><a xlink:title=" ">
<path fill="none" stroke="#63b8ff" d="M888.86,-313.17C970.46,-308.5 1085.34,-297.51 1122,-272 1142.99,-257.4 1154.64,-229.19 1160.36,-210.48"/>
<polygon fill="#63b8ff" stroke="#63b8ff" points="1163.77,-211.3 1163.07,-200.73 1157.02,-209.43 1163.77,-211.3"/>
</a>
</g>
</g>
<!-- Node27 -->
<g id="Node000027" class="node">
<title>Node27</title>
<g id="a_Node000027"><a xlink:href="helios_2util_2log_2__module_8ixx.html" target="_top" xlink:title="Module exports for logging.">
<polygon fill="white" stroke="#666666" points="577.5,-266.5 494.5,-266.5 494.5,-247.5 577.5,-247.5 577.5,-266.5"/>
<text text-anchor="middle" x="536" y="-254.5" font-family="Helvetica,sans-Serif" font-size="10.00">helios.util.log</text>
</a>
</g>
</g>
<!-- Node26&#45;&gt;Node27 -->
<g id="edge50_Node000026_Node000027" class="edge">
<title>Node26&#45;&gt;Node27</title>
<g id="a_edge50_Node000026_Node000027"><a xlink:title=" ">
<path fill="none" stroke="#63b8ff" d="M763.32,-307.99C716.04,-297.6 636,-279.99 584.6,-268.69"/>
<polygon fill="#63b8ff" stroke="#63b8ff" points="585.24,-265.25 574.73,-266.52 583.74,-272.08 585.24,-265.25"/>
</a>
</g>
</g>
<!-- Node29 -->
<g id="Node000029" class="node">
<title>Node29</title>
<g id="a_Node000029"><a xlink:href="MaterialProperties_8ixx.html" target="_top" xlink:title="Default material properties used by materials and instances.">
<polygon fill="white" stroke="#666666" points="1113,-272 949,-272 949,-242 1113,-242 1113,-272"/>
<text text-anchor="start" x="957" y="-260" font-family="Helvetica,sans-Serif" font-size="10.00">helios.rendering.model.config.</text>
<text text-anchor="middle" x="1031" y="-249" font-family="Helvetica,sans-Serif" font-size="10.00">MaterialProperties</text>
</a>
</g>
</g>
<!-- Node26&#45;&gt;Node29 -->
<g id="edge57_Node000026_Node000029" class="edge">
<title>Node26&#45;&gt;Node29</title>
<g id="a_edge57_Node000026_Node000029"><a xlink:title=" ">
<path fill="none" stroke="#63b8ff" d="M835.3,-307.99C869.48,-299.26 923.55,-285.45 966.2,-274.55"/>
<polygon fill="#63b8ff" stroke="#63b8ff" points="967.12,-277.93 975.95,-272.06 965.39,-271.15 967.12,-277.93"/>
</a>
</g>
</g>
<!-- Node30 -->
<g id="Node000030" class="node">
<title>Node30</title>
<g id="a_Node000030"><a xlink:href="Shader_8ixx.html" target="_top" xlink:title="Abstraction for a compiled shader program.">
<polygon fill="white" stroke="#666666" points="768,-272 634,-272 634,-242 768,-242 768,-272"/>
<text text-anchor="start" x="642" y="-260" font-family="Helvetica,sans-Serif" font-size="10.00">helios.rendering.shader.</text>
<text text-anchor="middle" x="701" y="-249" font-family="Helvetica,sans-Serif" font-size="10.00">Shader</text>
</a>
</g>
</g>
<!-- Node26&#45;&gt;Node30 -->
<g id="edge61_Node000026_Node000030" class="edge">
<title>Node26&#45;&gt;Node30</title>
<g id="a_edge61_Node000026_Node000030"><a xlink:title=" ">
<path fill="none" stroke="#63b8ff" d="M787.1,-307.87C773.27,-299.86 752.19,-287.65 734.35,-277.31"/>
<polygon fill="#63b8ff" stroke="#63b8ff" points="735.78,-274.1 725.37,-272.11 732.27,-280.16 735.78,-274.1"/>
</a>
</g>
</g>
<!-- Node27&#45;&gt;Node5 -->
<g id="edge51_Node000027_Node000005" class="edge">
<title>Node27&#45;&gt;Node5</title>
<g id="a_edge51_Node000027_Node000005"><a xlink:title=" ">
<path fill="none" stroke="#63b8ff" d="M526.69,-247.37C515.85,-237.31 497.7,-220.48 484.26,-208.01"/>
<polygon fill="#63b8ff" stroke="#63b8ff" points="486.31,-205.14 476.6,-200.91 481.55,-210.27 486.31,-205.14"/>
</a>
</g>
</g>
<!-- Node27&#45;&gt;Node10 -->
<g id="edge52_Node000027_Node000010" class="edge">
<title>Node27&#45;&gt;Node10</title>
<g id="a_edge52_Node000027_Node000010"><a xlink:title=" ">
<path fill="none" stroke="#63b8ff" d="M540.64,-247.27C549.24,-231.64 568.9,-198.45 592,-176 606.92,-161.51 626.59,-148.7 642.19,-139.67"/>
<polygon fill="#63b8ff" stroke="#63b8ff" points="644.29,-142.51 651.29,-134.56 640.86,-136.4 644.29,-142.51"/>
</a>
</g>
</g>
<!-- Node27&#45;&gt;Node11 -->
<g id="edge56_Node000027_Node000011" class="edge">
<title>Node27&#45;&gt;Node11</title>
<g id="a_edge56_Node000027_Node000011"><a xlink:title=" ">
<path fill="none" stroke="#63b8ff" d="M494.4,-250.47C430.55,-239.93 308.05,-211.28 234,-140 217.87,-124.47 208.04,-100.24 202.81,-83.65"/>
<polygon fill="#63b8ff" stroke="#63b8ff" points="206.17,-82.66 200.02,-74.03 199.44,-84.61 206.17,-82.66"/>
</a>
</g>
</g>
<!-- Node28 -->
<g id="Node000028" class="node">
<title>Node28</title>
<g id="a_Node000028"><a xlink:href="ConsoleSink_8ixx.html" target="_top" xlink:title="Log sink that writes to stdout.">
<polygon fill="white" stroke="#666666" points="146,-134.5 0,-134.5 0,-115.5 146,-115.5 146,-134.5"/>
<text text-anchor="middle" x="73" y="-122.5" font-family="Helvetica,sans-Serif" font-size="10.00">helios.util.log.ConsoleSink</text>
</a>
</g>
</g>
<!-- Node27&#45;&gt;Node28 -->
<g id="edge53_Node000027_Node000028" class="edge">
<title>Node27&#45;&gt;Node28</title>
<g id="a_edge53_Node000027_Node000028"><a xlink:title=" ">
<path fill="none" stroke="#63b8ff" d="M494.29,-255.41C429.05,-253.27 299.81,-244.1 198,-206 156.49,-190.47 114.32,-159.69 91.13,-141.16"/>
<polygon fill="#63b8ff" stroke="#63b8ff" points="93.17,-138.32 83.21,-134.72 88.76,-143.75 93.17,-138.32"/>
</a>
</g>
</g>
<!-- Node28&#45;&gt;Node6 -->
<g id="edge54_Node000028_Node000006" class="edge">
<title>Node28&#45;&gt;Node6</title>
<g id="a_edge54_Node000028_Node000006"><a xlink:title=" ">
<path fill="none" stroke="#63b8ff" d="M77.8,-115.12C86.05,-100.62 104.25,-71.82 127,-55 152.19,-36.38 186.14,-24.56 210.8,-17.82"/>
<polygon fill="#63b8ff" stroke="#63b8ff" points="211.95,-21.14 220.75,-15.24 210.19,-14.37 211.95,-21.14"/>
</a>
</g>
</g>
<!-- Node28&#45;&gt;Node11 -->
<g id="edge55_Node000028_Node000011" class="edge">
<title>Node28&#45;&gt;Node11</title>
<g id="a_edge55_Node000028_Node000011"><a xlink:title=" ">
<path fill="none" stroke="#63b8ff" d="M91.18,-115.49C112.01,-105.75 146.37,-89.66 170.48,-78.38"/>
<polygon fill="#63b8ff" stroke="#63b8ff" points="172.23,-81.43 179.8,-74.02 169.26,-75.09 172.23,-81.43"/>
</a>
</g>
</g>
<!-- Node29&#45;&gt;Node13 -->
<g id="edge59_Node000029_Node000013" class="edge">
<title>Node29&#45;&gt;Node13</title>
<g id="a_edge59_Node000029_Node000013"><a xlink:title=" ">
<path fill="none" stroke="#63b8ff" d="M1005.98,-241.95C989.8,-232.87 968.52,-220.93 950.84,-211"/>
<polygon fill="#63b8ff" stroke="#63b8ff" points="952.39,-207.86 941.96,-206.01 948.97,-213.96 952.39,-207.86"/>
</a>
</g>
</g>
<!-- Node29&#45;&gt;Node17 -->
<g id="edge60_Node000029_Node000017" class="edge">
<title>Node29&#45;&gt;Node17</title>
<g id="a_edge60_Node000029_Node000017"><a xlink:title=" ">
<path fill="none" stroke="#63b8ff" d="M1047.86,-241.86C1059.7,-231.9 1075.88,-218.21 1090,-206 1105.24,-192.82 1106.54,-186.07 1124,-176 1163.99,-152.93 1276.02,-120.42 1321,-110 1436.25,-83.3 1469.85,-90 1590.74,-74.14"/>
<polygon fill="#63b8ff" stroke="#63b8ff" points="1591.31,-77.6 1600.76,-72.8 1590.38,-70.66 1591.31,-77.6"/>
</a>
</g>
</g>
<!-- Node29&#45;&gt;Node18 -->
<g id="edge58_Node000029_Node000018" class="edge">
<title>Node29&#45;&gt;Node18</title>
<g id="a_edge58_Node000029_Node000018"><a xlink:title=" ">
<path fill="none" stroke="#63b8ff" d="M1041.02,-241.96C1052.59,-225.86 1072.3,-198.75 1090,-176 1097.21,-166.73 1105.37,-156.69 1112.5,-148.06"/>
<polygon fill="#63b8ff" stroke="#63b8ff" points="1115.26,-150.21 1118.96,-140.28 1109.88,-145.74 1115.26,-150.21"/>
</a>
</g>
</g>
<!-- Node30&#45;&gt;Node5 -->
<g id="edge64_Node000030_Node000005" class="edge">
<title>Node30&#45;&gt;Node5</title>
<g id="a_edge64_Node000030_Node000005"><a xlink:title=" ">
<path fill="none" stroke="#63b8ff" d="M649.65,-241.95C607.07,-230.31 547.35,-213.98 507.95,-203.2"/>
<polygon fill="#63b8ff" stroke="#63b8ff" points="508.71,-199.78 498.14,-200.52 506.86,-206.53 508.71,-199.78"/>
</a>
</g>
</g>
<!-- Node30&#45;&gt;Node10 -->
<g id="edge63_Node000030_Node000010" class="edge">
<title>Node30&#45;&gt;Node10</title>
<g id="a_edge63_Node000030_Node000010"><a xlink:title=" ">
<path fill="none" stroke="#63b8ff" d="M697.41,-241.84C691.41,-218.23 679.38,-170.83 672.72,-144.58"/>
<polygon fill="#63b8ff" stroke="#63b8ff" points="676.07,-143.58 670.22,-134.75 669.29,-145.3 676.07,-143.58"/>
</a>
</g>
</g>
<!-- Node30&#45;&gt;Node13 -->
<g id="edge62_Node000030_Node000013" class="edge">
<title>Node30&#45;&gt;Node13</title>
<g id="a_edge62_Node000030_Node000013"><a xlink:title=" ">
<path fill="none" stroke="#63b8ff" d="M748.4,-241.95C781.18,-232.24 824.97,-219.27 859.71,-208.98"/>
<polygon fill="#63b8ff" stroke="#63b8ff" points="861.11,-212.21 869.71,-206.01 859.13,-205.5 861.11,-212.21"/>
</a>
</g>
</g>
</g>
</svg>

<g id="navigator" transform="translate(0 0)" fill="#404254">
  <rect fill="#f2f5e9" fill-opacity="0.5" stroke="#606060" stroke-width=".5" x="0" y="0" width="60" height="60"/>
  <use id="zoomplus" xlink:href="#zoomPlus" x="17" y="9" onmousedown="handleZoom(evt,'in')"/>
  <use id="zoomminus" xlink:href="#zoomMin" x="42" y="9" onmousedown="handleZoom(evt,'out')"/>
  <use id="reset" xlink:href="#resetDef" x="30" y="36" onmousedown="handleReset()"/>
   <use id="arrowup" xlink:href="#arrowUp" x="0" y="0" onmousedown="handlePan(0,-1)"/>
  <use id="arrowright" xlink:href="#arrowRight" x="0" y="0" onmousedown="handlePan(1,0)"/>
  <use id="arrowdown" xlink:href="#arrowDown" x="0" y="0" onmousedown="handlePan(0,1)"/>
  <use id="arrowleft" xlink:href="#arrowLeft" x="0" y="0" onmousedown="handlePan(-1,0)"/>
</g>
<svg viewBox="0 0 15 15" width="100%" height="30px" preserveAspectRatio="xMaxYMin meet">
 <g id="arrow_out" transform="scale(0.3 0.3)">
  <a xlink:href="RenderQueue_8ixx__incl_org.svg" target="_base">
   <rect id="button" ry="5" rx="5" y="6" x="6" height="38" width="38"
        fill="#f2f5e9" fill-opacity="0.5" stroke="#606060" stroke-width="1.0"/>
   <path id="arrow"
     d="M 11.500037,31.436501 C 11.940474,20.09759 22.043105,11.32322 32.158766,21.979434 L 37.068811,17.246167 C 37.068811,17.246167 37.088388,32 37.088388,32 L 22.160133,31.978069 C 22.160133,31.978069 26.997745,27.140456 26.997745,27.140456 C 18.528582,18.264221 13.291696,25.230495 11.500037,31.436501 z"
     style="fill:#404040;"/>
  </a>
 </g>
</svg>

<style type='text/css'>
<![CDATA[
[data-mouse-over-selected='false'] { opacity: 0.7; }
[data-mouse-over-selected='true']  { opacity: 1.0; }
]]>
</style>
<script type="application/ecmascript"><![CDATA[
document.addEventListener('DOMContentLoaded', (event) => {
  highlightEdges();
  highlightAdjacentNodes();
});
]]></script>
</svg>
