<?xml version="1.0" encoding="UTF-8" standalone="no"?>
<!DOCTYPE svg PUBLIC "-//W3C//DTD SVG 1.1//EN"
 "http://www.w3.org/Graphics/SVG/1.1/DTD/svg11.dtd">
<!-- Generated by graphviz version 2.43.0 (0)
 -->
<!-- Title: include/helios/rendering/shader/_module.ixx Pages: 1 -->
<svg width="916pt" height="291pt"
 viewBox="0.00 0.00 915.50 291.00" xmlns="http://www.w3.org/2000/svg" xmlns:xlink="http://www.w3.org/1999/xlink">
<g id="graph0" class="graph" transform="scale(1 1) rotate(0) translate(4 287)">
<title>include/helios/rendering/shader/_module.ixx</title>
<!-- Node1 -->
<g id="Node000001" class="node">
<title>Node1</title>
<g id="a_Node000001"><a xlink:title=" ">
<polygon fill="#999999" stroke="#666666" points="419.5,-283 285.5,-283 285.5,-253 419.5,-253 419.5,-283"/>
<text text-anchor="start" x="293.5" y="-271" font-family="Helvetica,sans-Serif" font-size="10.00">include/helios/rendering</text>
<text text-anchor="middle" x="352.5" y="-260" font-family="Helvetica,sans-Serif" font-size="10.00">/shader/_module.ixx</text>
</a>
</g>
</g>
<!-- Node2 -->
<g id="Node000002" class="node">
<title>Node2</title>
<g id="a_Node000002"><a xlink:href="UniformValueMap_8ixx.html" target="_top" xlink:title=" ">
<polygon fill="white" stroke="#666666" points="324.5,-151 190.5,-151 190.5,-121 324.5,-121 324.5,-151"/>
<text text-anchor="start" x="198.5" y="-139" font-family="Helvetica,sans-Serif" font-size="10.00">helios.rendering.shader.</text>
<text text-anchor="middle" x="257.5" y="-128" font-family="Helvetica,sans-Serif" font-size="10.00">UniformValueMap</text>
</a>
</g>
</g>
<!-- Node1&#45;&gt;Node2 -->
<g id="edge1_Node000001_Node000002" class="edge">
<title>Node1&#45;&gt;Node2</title>
<g id="a_edge1_Node000001_Node000002"><a xlink:title=" ">
<path fill="none" stroke="#63b8ff" d="M342.15,-252.84C325.73,-230.37 293.57,-186.36 273.96,-159.53"/>
<polygon fill="#63b8ff" stroke="#63b8ff" points="276.56,-157.15 267.83,-151.14 270.91,-161.28 276.56,-157.15"/>
</a>
</g>
</g>
<!-- Node7 -->
<g id="Node000007" class="node">
<title>Node7</title>
<g id="a_Node000007"><a xlink:href="UniformSemantics_8ixx.html" target="_top" xlink:title=" ">
<polygon fill="white" stroke="#666666" points="403.5,-85 269.5,-85 269.5,-55 403.5,-55 403.5,-85"/>
<text text-anchor="start" x="277.5" y="-73" font-family="Helvetica,sans-Serif" font-size="10.00">helios.rendering.shader.</text>
<text text-anchor="middle" x="336.5" y="-62" font-family="Helvetica,sans-Serif" font-size="10.00">UniformSemantics</text>
</a>
</g>
</g>
<!-- Node1&#45;&gt;Node7 -->
<g id="edge9_Node000001_Node000007" class="edge">
<title>Node1&#45;&gt;Node7</title>
<g id="a_edge9_Node000001_Node000007"><a xlink:title=" ">
<path fill="none" stroke="#63b8ff" d="M351.35,-252.9C348.65,-219.79 341.86,-136.7 338.48,-95.27"/>
<polygon fill="#63b8ff" stroke="#63b8ff" points="341.96,-94.91 337.66,-85.23 334.99,-95.48 341.96,-94.91"/>
</a>
</g>
</g>
<!-- Node9 -->
<g id="Node000009" class="node">
<title>Node9</title>
<g id="a_Node000009"><a xlink:href="Shader_8ixx.html" target="_top" xlink:title=" ">
<polygon fill="white" stroke="#666666" points="556.5,-217 422.5,-217 422.5,-187 556.5,-187 556.5,-217"/>
<text text-anchor="start" x="430.5" y="-205" font-family="Helvetica,sans-Serif" font-size="10.00">helios.rendering.shader.</text>
<text text-anchor="middle" x="489.5" y="-194" font-family="Helvetica,sans-Serif" font-size="10.00">Shader</text>
</a>
</g>
</g>
<!-- Node1&#45;&gt;Node9 -->
<g id="edge10_Node000001_Node000009" class="edge">
<title>Node1&#45;&gt;Node9</title>
<g id="a_edge10_Node000001_Node000009"><a xlink:title=" ">
<path fill="none" stroke="#63b8ff" d="M382.57,-252.95C402.46,-243.66 428.76,-231.38 450.29,-221.32"/>
<polygon fill="#63b8ff" stroke="#63b8ff" points="451.93,-224.42 459.5,-217.01 448.96,-218.07 451.93,-224.42"/>
</a>
</g>
</g>
<!-- Node3 -->
<g id="Node000003" class="node">
<title>Node3</title>
<g id="a_Node000003"><a xlink:title=" ">
<polygon fill="#e0e0e0" stroke="#999999" points="251.5,-79.5 209.5,-79.5 209.5,-60.5 251.5,-60.5 251.5,-79.5"/>
<text text-anchor="middle" x="230.5" y="-67.5" font-family="Helvetica,sans-Serif" font-size="10.00">array</text>
</a>
</g>
</g>
<!-- Node2&#45;&gt;Node3 -->
<g id="edge2_Node000002_Node000003" class="edge">
<title>Node2&#45;&gt;Node3</title>
<g id="a_edge2_Node000002_Node000003"><a xlink:title=" ">
<path fill="none" stroke="#63b8ff" d="M251.51,-120.8C247.59,-111.5 242.43,-99.27 238.2,-89.26"/>
<polygon fill="#63b8ff" stroke="#63b8ff" points="241.34,-87.7 234.23,-79.84 234.89,-90.42 241.34,-87.7"/>
</a>
</g>
</g>
<!-- Node4 -->
<g id="Node000004" class="node">
<title>Node4</title>
<g id="a_Node000004"><a xlink:title=" ">
<polygon fill="#e0e0e0" stroke="#999999" points="477.5,-79.5 421.5,-79.5 421.5,-60.5 477.5,-60.5 477.5,-79.5"/>
<text text-anchor="middle" x="449.5" y="-67.5" font-family="Helvetica,sans-Serif" font-size="10.00">optional</text>
</a>
</g>
</g>
<!-- Node2&#45;&gt;Node4 -->
<g id="edge3_Node000002_Node000004" class="edge">
<title>Node2&#45;&gt;Node4</title>
<g id="a_edge3_Node000002_Node000004"><a xlink:title=" ">
<path fill="none" stroke="#63b8ff" d="M303.14,-120.93C334.12,-111.22 375.94,-97.8 412.5,-85 414.15,-84.42 415.84,-83.82 417.54,-83.21"/>
<polygon fill="#63b8ff" stroke="#63b8ff" points="419.09,-86.36 427.26,-79.62 416.67,-79.8 419.09,-86.36"/>
</a>
</g>
</g>
<!-- Node5 -->
<g id="Node000005" class="node">
<title>Node5</title>
<g id="a_Node000005"><a xlink:title=" ">
<polygon fill="#e0e0e0" stroke="#999999" points="51,-79.5 0,-79.5 0,-60.5 51,-60.5 51,-79.5"/>
<text text-anchor="middle" x="25.5" y="-67.5" font-family="Helvetica,sans-Serif" font-size="10.00">variant</text>
</a>
</g>
</g>
<!-- Node2&#45;&gt;Node5 -->
<g id="edge4_Node000002_Node000005" class="edge">
<title>Node2&#45;&gt;Node5</title>
<g id="a_edge4_Node000002_Node000005"><a xlink:title=" ">
<path fill="none" stroke="#63b8ff" d="M193.01,-120.9C154.24,-111.86 104.12,-99.19 60.5,-85 58.83,-84.46 57.13,-83.87 55.42,-83.27"/>
<polygon fill="#63b8ff" stroke="#63b8ff" points="56.28,-79.85 45.69,-79.6 53.82,-86.4 56.28,-79.85"/>
</a>
</g>
</g>
<!-- Node6 -->
<g id="Node000006" class="node">
<title>Node6</title>
<g id="a_Node000006"><a xlink:href="math_2types_2__module_8ixx.html" target="_top" xlink:title=" ">
<polygon fill="white" stroke="#666666" points="173.5,-79.5 69.5,-79.5 69.5,-60.5 173.5,-60.5 173.5,-79.5"/>
<text text-anchor="middle" x="121.5" y="-67.5" font-family="Helvetica,sans-Serif" font-size="10.00">helios.math.types</text>
</a>
</g>
</g>
<!-- Node2&#45;&gt;Node6 -->
<g id="edge5_Node000002_Node000006" class="edge">
<title>Node2&#45;&gt;Node6</title>
<g id="a_edge5_Node000002_Node000006"><a xlink:title=" ">
<path fill="none" stroke="#63b8ff" d="M227.65,-120.95C204.12,-109.88 171.57,-94.56 148.73,-83.82"/>
<polygon fill="#63b8ff" stroke="#63b8ff" points="150.14,-80.61 139.6,-79.52 147.16,-86.94 150.14,-80.61"/>
</a>
</g>
</g>
<!-- Node2&#45;&gt;Node7 -->
<g id="edge7_Node000002_Node000007" class="edge">
<title>Node2&#45;&gt;Node7</title>
<g id="a_edge7_Node000002_Node000007"><a xlink:title=" ">
<path fill="none" stroke="#63b8ff" d="M275.03,-120.8C285.67,-112.18 299.42,-101.04 311.22,-91.48"/>
<polygon fill="#63b8ff" stroke="#63b8ff" points="313.45,-94.18 319.02,-85.16 309.04,-88.74 313.45,-94.18"/>
</a>
</g>
</g>
<!-- Node6&#45;&gt;Node6 -->
<g id="edge6_Node000006_Node000006" class="edge">
<title>Node6&#45;&gt;Node6</title>
<g id="a_edge6_Node000006_Node000006"><a xlink:title=" ">
<path fill="none" stroke="#63b8ff" d="M147.35,-79.53C168.94,-83.61 191.5,-80.43 191.5,-70 191.5,-61.2 175.44,-57.56 157.45,-59.09"/>
<polygon fill="#63b8ff" stroke="#63b8ff" points="156.78,-55.65 147.35,-60.47 157.73,-62.58 156.78,-55.65"/>
</a>
</g>
</g>
<!-- Node8 -->
<g id="Node000008" class="node">
<title>Node8</title>
<g id="a_Node000008"><a xlink:title=" ">
<polygon fill="#e0e0e0" stroke="#999999" points="362,-19 311,-19 311,0 362,0 362,-19"/>
<text text-anchor="middle" x="336.5" y="-7" font-family="Helvetica,sans-Serif" font-size="10.00">cwchar</text>
</a>
</g>
</g>
<!-- Node7&#45;&gt;Node8 -->
<g id="edge8_Node000007_Node000008" class="edge">
<title>Node7&#45;&gt;Node8</title>
<g id="a_edge8_Node000007_Node000008"><a xlink:title=" ">
<path fill="none" stroke="#63b8ff" d="M336.5,-54.84C336.5,-47.21 336.5,-37.7 336.5,-29.45"/>
<polygon fill="#63b8ff" stroke="#63b8ff" points="340,-29.27 336.5,-19.27 333,-29.27 340,-29.27"/>
</a>
</g>
</g>
<!-- Node9&#45;&gt;Node2 -->
<g id="edge13_Node000009_Node000002" class="edge">
<title>Node9&#45;&gt;Node2</title>
<g id="a_edge13_Node000009_Node000002"><a xlink:title=" ">
<path fill="none" stroke="#63b8ff" d="M438.59,-186.95C403.08,-177.16 355.54,-164.05 318.08,-153.71"/>
<polygon fill="#63b8ff" stroke="#63b8ff" points="318.87,-150.3 308.29,-151.01 317,-157.05 318.87,-150.3"/>
</a>
</g>
</g>
<!-- Node9&#45;&gt;Node4 -->
<g id="edge12_Node000009_Node000004" class="edge">
<title>Node9&#45;&gt;Node4</title>
<g id="a_edge12_Node000009_Node000004"><a xlink:title=" ">
<path fill="none" stroke="#63b8ff" d="M485.14,-186.84C477.88,-163.23 463.3,-115.83 455.22,-89.58"/>
<polygon fill="#63b8ff" stroke="#63b8ff" points="458.48,-88.28 452.19,-79.75 451.79,-90.34 458.48,-88.28"/>
</a>
</g>
</g>
<!-- Node10 -->
<g id="Node000010" class="node">
<title>Node10</title>
<g id="a_Node000010"><a xlink:title=" ">
<polygon fill="#e0e0e0" stroke="#999999" points="907.5,-79.5 849.5,-79.5 849.5,-60.5 907.5,-60.5 907.5,-79.5"/>
<text text-anchor="middle" x="878.5" y="-67.5" font-family="Helvetica,sans-Serif" font-size="10.00">memory</text>
</a>
</g>
</g>
<!-- Node9&#45;&gt;Node10 -->
<g id="edge11_Node000009_Node000010" class="edge">
<title>Node9&#45;&gt;Node10</title>
<g id="a_edge11_Node000009_Node000010"><a xlink:title=" ">
<path fill="none" stroke="#63b8ff" d="M556.77,-194.35C609.46,-187.62 683.9,-174.7 745.5,-151 788.95,-134.29 834.34,-103.69 859.25,-85.57"/>
<polygon fill="#63b8ff" stroke="#63b8ff" points="861.5,-88.26 867.46,-79.5 857.34,-82.63 861.5,-88.26"/>
</a>
</g>
</g>
<!-- Node11 -->
<g id="Node000011" class="node">
<title>Node11</title>
<g id="a_Node000011"><a xlink:href="Logger_8ixx.html" target="_top" xlink:title=" ">
<polygon fill="white" stroke="#666666" points="615,-79.5 496,-79.5 496,-60.5 615,-60.5 615,-79.5"/>
<text text-anchor="middle" x="555.5" y="-67.5" font-family="Helvetica,sans-Serif" font-size="10.00">helios.util.log.Logger</text>
</a>
</g>
</g>
<!-- Node9&#45;&gt;Node11 -->
<g id="edge14_Node000009_Node000011" class="edge">
<title>Node9&#45;&gt;Node11</title>
<g id="a_edge14_Node000009_Node000011"><a xlink:title=" ">
<path fill="none" stroke="#63b8ff" d="M496.69,-186.84C508.78,-163.02 533.17,-114.99 546.42,-88.88"/>
<polygon fill="#63b8ff" stroke="#63b8ff" points="549.65,-90.25 551.06,-79.75 543.41,-87.08 549.65,-90.25"/>
</a>
</g>
</g>
<!-- Node14 -->
<g id="Node000014" class="node">
<title>Node14</title>
<g id="a_Node000014"><a xlink:href="LogManager_8ixx.html" target="_top" xlink:title=" ">
<polygon fill="white" stroke="#666666" points="736.5,-145.5 590.5,-145.5 590.5,-126.5 736.5,-126.5 736.5,-145.5"/>
<text text-anchor="middle" x="663.5" y="-133.5" font-family="Helvetica,sans-Serif" font-size="10.00">helios.util.log.LogManager</text>
</a>
</g>
</g>
<!-- Node9&#45;&gt;Node14 -->
<g id="edge17_Node000009_Node000014" class="edge">
<title>Node9&#45;&gt;Node14</title>
<g id="a_edge17_Node000009_Node000014"><a xlink:title=" ">
<path fill="none" stroke="#63b8ff" d="M527.69,-186.95C558.47,-175.63 601.31,-159.88 630.59,-149.1"/>
<polygon fill="#63b8ff" stroke="#63b8ff" points="632.17,-152.25 640.34,-145.52 629.75,-145.68 632.17,-152.25"/>
</a>
</g>
</g>
<!-- Node12 -->
<g id="Node000012" class="node">
<title>Node12</title>
<g id="a_Node000012"><a xlink:title=" ">
<polygon fill="#e0e0e0" stroke="#999999" points="585.5,-19 525.5,-19 525.5,0 585.5,0 585.5,-19"/>
<text text-anchor="middle" x="555.5" y="-7" font-family="Helvetica,sans-Serif" font-size="10.00">iostream</text>
</a>
</g>
</g>
<!-- Node11&#45;&gt;Node12 -->
<g id="edge15_Node000011_Node000012" class="edge">
<title>Node11&#45;&gt;Node12</title>
<g id="a_edge15_Node000011_Node000012"><a xlink:title=" ">
<path fill="none" stroke="#63b8ff" d="M555.5,-60.37C555.5,-52.25 555.5,-39.81 555.5,-29.39"/>
<polygon fill="#63b8ff" stroke="#63b8ff" points="559,-29.17 555.5,-19.17 552,-29.17 559,-29.17"/>
</a>
</g>
</g>
<!-- Node13 -->
<g id="Node000013" class="node">
<title>Node13</title>
<g id="a_Node000013"><a xlink:title=" ">
<polygon fill="#e0e0e0" stroke="#999999" points="656.5,-19 612.5,-19 612.5,0 656.5,0 656.5,-19"/>
<text text-anchor="middle" x="634.5" y="-7" font-family="Helvetica,sans-Serif" font-size="10.00">string</text>
</a>
</g>
</g>
<!-- Node11&#45;&gt;Node13 -->
<g id="edge16_Node000011_Node000013" class="edge">
<title>Node11&#45;&gt;Node13</title>
<g id="a_edge16_Node000011_Node000013"><a xlink:title=" ">
<path fill="none" stroke="#63b8ff" d="M567.16,-60.37C579.64,-51.12 599.68,-36.28 614.66,-25.19"/>
<polygon fill="#63b8ff" stroke="#63b8ff" points="616.84,-27.93 622.8,-19.17 612.68,-22.31 616.84,-27.93"/>
</a>
</g>
</g>
<!-- Node14&#45;&gt;Node10 -->
<g id="edge20_Node000014_Node000010" class="edge">
<title>Node14&#45;&gt;Node10</title>
<g id="a_edge20_Node000014_Node000010"><a xlink:title=" ">
<path fill="none" stroke="#63b8ff" d="M696.68,-126.45C732.42,-117.05 790.85,-101.13 840.5,-85 842.41,-84.38 844.36,-83.73 846.32,-83.05"/>
<polygon fill="#63b8ff" stroke="#63b8ff" points="847.84,-86.23 856.1,-79.58 845.5,-79.63 847.84,-86.23"/>
</a>
</g>
</g>
<!-- Node14&#45;&gt;Node11 -->
<g id="edge22_Node000014_Node000011" class="edge">
<title>Node14&#45;&gt;Node11</title>
<g id="a_edge22_Node000014_Node000011"><a xlink:title=" ">
<path fill="none" stroke="#63b8ff" d="M648.93,-126.37C630.98,-115.73 600.23,-97.51 578.94,-84.89"/>
<polygon fill="#63b8ff" stroke="#63b8ff" points="580.57,-81.79 570.18,-79.7 577,-87.81 580.57,-81.79"/>
</a>
</g>
</g>
<!-- Node14&#45;&gt;Node13 -->
<g id="edge18_Node000014_Node000013" class="edge">
<title>Node14&#45;&gt;Node13</title>
<g id="a_edge18_Node000014_Node000013"><a xlink:title=" ">
<path fill="none" stroke="#63b8ff" d="M661.51,-126.44C656.85,-106.45 645.17,-56.32 638.8,-28.98"/>
<polygon fill="#63b8ff" stroke="#63b8ff" points="642.18,-28.06 636.51,-19.12 635.37,-29.65 642.18,-28.06"/>
</a>
</g>
</g>
<!-- Node15 -->
<g id="Node000015" class="node">
<title>Node15</title>
<g id="a_Node000015"><a xlink:title=" ">
<polygon fill="#e0e0e0" stroke="#999999" points="765,-79.5 672,-79.5 672,-60.5 765,-60.5 765,-79.5"/>
<text text-anchor="middle" x="718.5" y="-67.5" font-family="Helvetica,sans-Serif" font-size="10.00">unordered_map</text>
</a>
</g>
</g>
<!-- Node14&#45;&gt;Node15 -->
<g id="edge19_Node000014_Node000015" class="edge">
<title>Node14&#45;&gt;Node15</title>
<g id="a_edge19_Node000014_Node000015"><a xlink:title=" ">
<path fill="none" stroke="#63b8ff" d="M670.92,-126.37C679.4,-116.5 693.48,-100.11 704.13,-87.72"/>
<polygon fill="#63b8ff" stroke="#63b8ff" points="706.98,-89.77 710.85,-79.91 701.67,-85.21 706.98,-89.77"/>
</a>
</g>
</g>
<!-- Node16 -->
<g id="Node000016" class="node">
<title>Node16</title>
<g id="a_Node000016"><a xlink:title=" ">
<polygon fill="#e0e0e0" stroke="#999999" points="831.5,-79.5 783.5,-79.5 783.5,-60.5 831.5,-60.5 831.5,-79.5"/>
<text text-anchor="middle" x="807.5" y="-67.5" font-family="Helvetica,sans-Serif" font-size="10.00">mutex</text>
</a>
</g>
</g>
<!-- Node14&#45;&gt;Node16 -->
<g id="edge21_Node000014_Node000016" class="edge">
<title>Node14&#45;&gt;Node16</title>
<g id="a_edge21_Node000014_Node000016"><a xlink:title=" ">
<path fill="none" stroke="#63b8ff" d="M682.92,-126.37C707.51,-115.44 750.07,-96.52 778.51,-83.88"/>
<polygon fill="#63b8ff" stroke="#63b8ff" points="780.21,-86.96 787.93,-79.7 777.37,-80.56 780.21,-86.96"/>
</a>
</g>
</g>
</g>
</svg>
