<?xml version="1.0" encoding="UTF-8" standalone="no"?>
<!DOCTYPE svg PUBLIC "-//W3C//DTD SVG 1.1//EN"
 "http://www.w3.org/Graphics/SVG/1.1/DTD/svg11.dtd">
<!-- Generated by graphviz version 2.43.0 (0)
 -->
<!-- Title: include/helios/engine/game/components/physics/ScaleComponent.ixx Pages: 1 -->
<svg width="474pt" height="160pt"
 viewBox="0.00 0.00 473.50 159.77" xmlns="http://www.w3.org/2000/svg" xmlns:xlink="http://www.w3.org/1999/xlink">

<svg id="main" version="1.1" xmlns="http://www.w3.org/2000/svg" xmlns:xlink="http://www.w3.org/1999/xlink" xml:space="preserve">

<style type="text/css"><![CDATA[
.node, .edge {opacity: 0.7;}
.node.selected, .edge.selected {opacity: 1;}
.edge:hover path { stroke: red; }
.edge:hover polygon { stroke: red; fill: red; }
]]></style>
<script type="application/ecmascript" xlink:href="svg.min.js"/>
<svg id="graph" class="graph">
<g id="graph0" class="graph" transform="scale(1 1) rotate(0) translate(4 155.77)">
<title>include/helios/engine/game/components/physics/ScaleComponent.ixx</title>
<!-- Node1 -->
<g id="Node000001" class="node">
<title>Node1</title>
<g id="a_Node000001"><a xlink:title="Component for managing the dimensions of an entity.">
<polygon fill="#999999" stroke="#666666" points="244.5,-151.77 94.5,-151.77 94.5,-110.77 244.5,-110.77 244.5,-151.77"/>
<text text-anchor="start" x="102.5" y="-139.77" font-family="Helvetica,sans-Serif" font-size="10.00">include/helios/engine</text>
<text text-anchor="start" x="102.5" y="-128.77" font-family="Helvetica,sans-Serif" font-size="10.00">/game/components/physics</text>
<text text-anchor="middle" x="169.5" y="-117.77" font-family="Helvetica,sans-Serif" font-size="10.00">/ScaleComponent.ixx</text>
</a>
</g>
</g>
<!-- Node2 -->
<g id="Node000002" class="node">
<title>Node2</title>
<g id="a_Node000002"><a xlink:href="units_8ixx.html" target="_top" xlink:title="Canonical length units and conversion helpers for helios to keep spatial and temporal data consistent...">
<polygon fill="white" stroke="#666666" points="97,-74.77 0,-74.77 0,-55.77 97,-55.77 97,-74.77"/>
<text text-anchor="middle" x="48.5" y="-62.77" font-family="Helvetica,sans-Serif" font-size="10.00">helios.core.units</text>
</a>
</g>
</g>
<!-- Node1&#45;&gt;Node2 -->
<g id="edge1_Node000001_Node000002" class="edge">
<title>Node1&#45;&gt;Node2</title>
<g id="a_edge1_Node000001_Node000002"><a xlink:title=" ">
<path fill="none" stroke="#63b8ff" d="M132.54,-110.72C113.6,-100.7 91.01,-88.76 74.03,-79.77"/>
<polygon fill="#63b8ff" stroke="#63b8ff" points="75.22,-76.45 64.74,-74.86 71.95,-82.63 75.22,-76.45"/>
</a>
</g>
</g>
<!-- Node4 -->
<g id="Node000004" class="node">
<title>Node4</title>
<g id="a_Node000004"><a xlink:href="helios_2math_2types_2__module_8ixx.html" target="_top" xlink:title="Module exports for vector and matrix type definitions.">
<polygon fill="white" stroke="#666666" points="177.5,-19.77 73.5,-19.77 73.5,-0.77 177.5,-0.77 177.5,-19.77"/>
<text text-anchor="middle" x="125.5" y="-7.77" font-family="Helvetica,sans-Serif" font-size="10.00">helios.math.types</text>
</a>
</g>
</g>
<!-- Node1&#45;&gt;Node4 -->
<g id="edge10_Node000001_Node000004" class="edge">
<title>Node1&#45;&gt;Node4</title>
<g id="a_edge10_Node000001_Node000004"><a xlink:title=" ">
<path fill="none" stroke="#63b8ff" d="M159.95,-110.76C154.99,-100.24 149.04,-86.95 144.5,-74.77 138.96,-59.93 133.89,-42.69 130.38,-29.92"/>
<polygon fill="#63b8ff" stroke="#63b8ff" points="133.69,-28.77 127.72,-20.02 126.93,-30.58 133.69,-28.77"/>
</a>
</g>
</g>
<!-- Node5 -->
<g id="Node000005" class="node">
<title>Node5</title>
<g id="a_Node000005"><a xlink:href="Transform_8ixx.html" target="_top" xlink:title="Represents a 3D transformation consisting of translation, rotation and scale.">
<polygon fill="white" stroke="#666666" points="275.5,-74.77 153.5,-74.77 153.5,-55.77 275.5,-55.77 275.5,-74.77"/>
<text text-anchor="middle" x="214.5" y="-62.77" font-family="Helvetica,sans-Serif" font-size="10.00">helios.core.Transform</text>
</a>
</g>
</g>
<!-- Node1&#45;&gt;Node5 -->
<g id="edge5_Node000001_Node000005" class="edge">
<title>Node1&#45;&gt;Node5</title>
<g id="a_edge5_Node000001_Node000005"><a xlink:title=" ">
<path fill="none" stroke="#63b8ff" d="M183.25,-110.72C189.4,-101.98 196.58,-91.76 202.51,-83.33"/>
<polygon fill="#63b8ff" stroke="#63b8ff" points="205.45,-85.23 208.34,-75.03 199.73,-81.2 205.45,-85.23"/>
</a>
</g>
</g>
<!-- Node7 -->
<g id="Node000007" class="node">
<title>Node7</title>
<g id="a_Node000007"><a xlink:href="Component_8ixx.html" target="_top" xlink:title="Base class for components attached to GameObjects.">
<polygon fill="white" stroke="#666666" points="465.5,-74.77 293.5,-74.77 293.5,-55.77 465.5,-55.77 465.5,-74.77"/>
<text text-anchor="middle" x="379.5" y="-62.77" font-family="Helvetica,sans-Serif" font-size="10.00">helios.engine.game.Component</text>
</a>
</g>
</g>
<!-- Node1&#45;&gt;Node7 -->
<g id="edge9_Node000001_Node000007" class="edge">
<title>Node1&#45;&gt;Node7</title>
<g id="a_edge9_Node000001_Node000007"><a xlink:title=" ">
<path fill="none" stroke="#63b8ff" d="M233.65,-110.72C269.08,-99.92 311.88,-86.88 341.91,-77.73"/>
<polygon fill="#63b8ff" stroke="#63b8ff" points="343.04,-81.04 351.58,-74.78 341,-74.35 343.04,-81.04"/>
</a>
</g>
</g>
<!-- Node3 -->
<g id="Node000003" class="node">
<title>Node3</title>
<g id="a_Node000003"><a xlink:title=" ">
<polygon fill="#e0e0e0" stroke="#999999" points="55.5,-19.77 11.5,-19.77 11.5,-0.77 55.5,-0.77 55.5,-19.77"/>
<text text-anchor="middle" x="33.5" y="-7.77" font-family="Helvetica,sans-Serif" font-size="10.00">string</text>
</a>
</g>
</g>
<!-- Node2&#45;&gt;Node3 -->
<g id="edge2_Node000002_Node000003" class="edge">
<title>Node2&#45;&gt;Node3</title>
<g id="a_edge2_Node000002_Node000003"><a xlink:title=" ">
<path fill="none" stroke="#63b8ff" d="M46.02,-55.52C44.04,-48.5 41.18,-38.4 38.69,-29.62"/>
<polygon fill="#63b8ff" stroke="#63b8ff" points="42.02,-28.53 35.93,-19.86 35.29,-30.44 42.02,-28.53"/>
</a>
</g>
</g>
<!-- Node2&#45;&gt;Node4 -->
<g id="edge3_Node000002_Node000004" class="edge">
<title>Node2&#45;&gt;Node4</title>
<g id="a_edge3_Node000002_Node000004"><a xlink:title=" ">
<path fill="none" stroke="#63b8ff" d="M60.87,-55.76C72.59,-47.69 90.42,-35.42 104.39,-25.8"/>
<polygon fill="#63b8ff" stroke="#63b8ff" points="106.65,-28.49 112.9,-19.94 102.68,-22.73 106.65,-28.49"/>
</a>
</g>
</g>
<!-- Node4&#45;&gt;Node4 -->
<g id="edge4_Node000004_Node000004" class="edge">
<title>Node4&#45;&gt;Node4</title>
<g id="a_edge4_Node000004_Node000004"><a xlink:title=" ">
<path fill="none" stroke="#63b8ff" d="M158.27,-19.8C177.5,-21.83 195.5,-18.66 195.5,-10.27 195.5,-3.39 183.39,-0.02 168.42,-0.15"/>
<polygon fill="#63b8ff" stroke="#63b8ff" points="168.05,3.33 158.27,-0.74 168.45,-3.65 168.05,3.33"/>
</a>
</g>
</g>
<!-- Node5&#45;&gt;Node4 -->
<g id="edge8_Node000005_Node000004" class="edge">
<title>Node5&#45;&gt;Node4</title>
<g id="a_edge8_Node000005_Node000004"><a xlink:title=" ">
<path fill="none" stroke="#63b8ff" d="M200.2,-55.76C186.4,-47.54 165.26,-34.95 148.99,-25.26"/>
<polygon fill="#63b8ff" stroke="#63b8ff" points="150.44,-22.05 140.06,-19.94 146.86,-28.07 150.44,-22.05"/>
</a>
</g>
</g>
<!-- Node6 -->
<g id="Node000006" class="node">
<title>Node6</title>
<g id="a_Node000006"><a xlink:href="helios_2math_2transform_2__module_8ixx.html" target="_top" xlink:title="Module exports for transformation utilities.">
<polygon fill="white" stroke="#666666" points="339,-19.77 214,-19.77 214,-0.77 339,-0.77 339,-19.77"/>
<text text-anchor="middle" x="276.5" y="-7.77" font-family="Helvetica,sans-Serif" font-size="10.00">helios.math.transform</text>
</a>
</g>
</g>
<!-- Node5&#45;&gt;Node6 -->
<g id="edge6_Node000005_Node000006" class="edge">
<title>Node5&#45;&gt;Node6</title>
<g id="a_edge6_Node000005_Node000006"><a xlink:title=" ">
<path fill="none" stroke="#63b8ff" d="M224.46,-55.76C233.63,-47.92 247.44,-36.12 258.53,-26.63"/>
<polygon fill="#63b8ff" stroke="#63b8ff" points="261.03,-29.1 266.36,-19.94 256.48,-23.78 261.03,-29.1"/>
</a>
</g>
</g>
<!-- Node6&#45;&gt;Node6 -->
<g id="edge7_Node000006_Node000006" class="edge">
<title>Node6&#45;&gt;Node6</title>
<g id="a_edge7_Node000006_Node000006"><a xlink:title=" ">
<path fill="none" stroke="#63b8ff" d="M314.18,-19.8C336.3,-21.83 357,-18.66 357,-10.27 357,-3.2 342.26,0.17 324.37,-0.17"/>
<polygon fill="#63b8ff" stroke="#63b8ff" points="323.97,3.31 314.18,-0.74 324.36,-3.68 323.97,3.31"/>
</a>
</g>
</g>
</g>
</svg>
</svg>

<style type='text/css'>
<![CDATA[
[data-mouse-over-selected='false'] { opacity: 0.7; }
[data-mouse-over-selected='true']  { opacity: 1.0; }
]]>
</style>
<script type="application/ecmascript"><![CDATA[
document.addEventListener('DOMContentLoaded', (event) => {
  highlightEdges();
  highlightAdjacentNodes();
});
]]></script>
</svg>
