<?xml version="1.0" encoding="UTF-8" standalone="no"?>
<!DOCTYPE svg PUBLIC "-//W3C//DTD SVG 1.1//EN"
 "http://www.w3.org/Graphics/SVG/1.1/DTD/svg11.dtd">
<!-- Generated by graphviz version 2.43.0 (0)
 -->
<!-- Title: include/helios/scene/SceneNode.ixx Pages: 1 -->
<svg width="2053pt" height="467pt"
 viewBox="0.00 0.00 2053.00 467.00" xmlns="http://www.w3.org/2000/svg" xmlns:xlink="http://www.w3.org/1999/xlink">
<g id="graph0" class="graph" transform="scale(1 1) rotate(0) translate(4 463)">
<title>include/helios/scene/SceneNode.ixx</title>
<!-- Node1 -->
<g id="Node000001" class="node">
<title>Node1</title>
<g id="a_Node000001"><a xlink:title=" ">
<polygon fill="#999999" stroke="#666666" points="1408,-459 1292,-459 1292,-429 1408,-429 1408,-459"/>
<text text-anchor="start" x="1300" y="-447" font-family="Helvetica,sans-Serif" font-size="10.00">include/helios/scene</text>
<text text-anchor="middle" x="1350" y="-436" font-family="Helvetica,sans-Serif" font-size="10.00">/SceneNode.ixx</text>
</a>
</g>
</g>
<!-- Node1&#45;&gt;Node1 -->
<g id="edge76_Node000001_Node000001" class="edge">
<title>Node1&#45;&gt;Node1</title>
<g id="a_edge76_Node000001_Node000001"><a xlink:title=" ">
<path fill="none" stroke="#63b8ff" d="M1408.31,-454.59C1418.73,-453.21 1426,-449.68 1426,-444 1426,-440.36 1423.01,-437.6 1418.13,-435.73"/>
<polygon fill="#63b8ff" stroke="#63b8ff" points="1418.85,-432.3 1408.31,-433.41 1417.24,-439.11 1418.85,-432.3"/>
</a>
</g>
</g>
<!-- Node2 -->
<g id="Node000002" class="node">
<title>Node2</title>
<g id="a_Node000002"><a xlink:title=" ">
<polygon fill="#e0e0e0" stroke="#999999" points="629,-79.5 571,-79.5 571,-60.5 629,-60.5 629,-79.5"/>
<text text-anchor="middle" x="600" y="-67.5" font-family="Helvetica,sans-Serif" font-size="10.00">memory</text>
</a>
</g>
</g>
<!-- Node1&#45;&gt;Node2 -->
<g id="edge1_Node000001_Node000002" class="edge">
<title>Node1&#45;&gt;Node2</title>
<g id="a_edge1_Node000001_Node000002"><a xlink:title=" ">
<path fill="none" stroke="#63b8ff" d="M1291.89,-443.21C1177.3,-442.6 914.64,-436.13 699,-393 622.37,-377.67 598.39,-379.22 532,-338 465.04,-296.43 422.31,-264.03 439,-187 445.82,-155.51 445.52,-143.07 469,-121 494.36,-97.17 532.24,-84.36 560.76,-77.7"/>
<polygon fill="#63b8ff" stroke="#63b8ff" points="561.77,-81.06 570.8,-75.51 560.28,-74.22 561.77,-81.06"/>
</a>
</g>
</g>
<!-- Node3 -->
<g id="Node000003" class="node">
<title>Node3</title>
<g id="a_Node000003"><a xlink:title=" ">
<polygon fill="#e0e0e0" stroke="#999999" points="1792.5,-145.5 1745.5,-145.5 1745.5,-126.5 1792.5,-126.5 1792.5,-145.5"/>
<text text-anchor="middle" x="1769" y="-133.5" font-family="Helvetica,sans-Serif" font-size="10.00">vector</text>
</a>
</g>
</g>
<!-- Node1&#45;&gt;Node3 -->
<g id="edge2_Node000001_Node000003" class="edge">
<title>Node1&#45;&gt;Node3</title>
<g id="a_edge2_Node000001_Node000003"><a xlink:title=" ">
<path fill="none" stroke="#63b8ff" d="M1408.34,-440.03C1531.55,-432.17 1807,-405.47 1807,-324 1807,-324 1807,-324 1807,-261.5 1807,-222.13 1789.4,-178.68 1778.16,-154.95"/>
<polygon fill="#63b8ff" stroke="#63b8ff" points="1781.21,-153.21 1773.66,-145.78 1774.92,-156.3 1781.21,-153.21"/>
</a>
</g>
</g>
<!-- Node4 -->
<g id="Node000004" class="node">
<title>Node4</title>
<g id="a_Node000004"><a xlink:href="math_2types_2__module_8ixx.html" target="_top" xlink:title=" ">
<polygon fill="white" stroke="#666666" points="1385,-79.5 1281,-79.5 1281,-60.5 1385,-60.5 1385,-79.5"/>
<text text-anchor="middle" x="1333" y="-67.5" font-family="Helvetica,sans-Serif" font-size="10.00">helios.math.types</text>
</a>
</g>
</g>
<!-- Node1&#45;&gt;Node4 -->
<g id="edge3_Node000001_Node000004" class="edge">
<title>Node1&#45;&gt;Node4</title>
<g id="a_edge3_Node000001_Node000004"><a xlink:title=" ">
<path fill="none" stroke="#63b8ff" d="M1408.24,-443.31C1543.31,-443.25 1874.02,-438.31 1974,-393 2014.08,-374.84 2045,-368 2045,-324 2045,-324 2045,-324 2045,-201 2045,-134.29 1981.25,-142.22 1918,-121 1822.5,-88.96 1525.76,-76.59 1395.44,-72.62"/>
<polygon fill="#63b8ff" stroke="#63b8ff" points="1395.33,-69.11 1385.23,-72.31 1395.12,-76.11 1395.33,-69.11"/>
</a>
</g>
</g>
<!-- Node5 -->
<g id="Node000005" class="node">
<title>Node5</title>
<g id="a_Node000005"><a xlink:href="Guid_8ixx.html" target="_top" xlink:title=" ">
<polygon fill="white" stroke="#666666" points="128,-393 38,-393 38,-374 128,-374 128,-393"/>
<text text-anchor="middle" x="83" y="-381" font-family="Helvetica,sans-Serif" font-size="10.00">helios.util.Guid</text>
</a>
</g>
</g>
<!-- Node1&#45;&gt;Node5 -->
<g id="edge5_Node000001_Node000005" class="edge">
<title>Node1&#45;&gt;Node5</title>
<g id="a_edge5_Node000001_Node000005"><a xlink:title=" ">
<path fill="none" stroke="#63b8ff" d="M1291.71,-442.69C1117.05,-441.3 582.75,-433.76 142,-393 140.72,-392.88 139.43,-392.76 138.13,-392.62"/>
<polygon fill="#63b8ff" stroke="#63b8ff" points="138.37,-389.13 128.04,-391.47 137.58,-396.08 138.37,-389.13"/>
</a>
</g>
</g>
<!-- Node8 -->
<g id="Node000008" class="node">
<title>Node8</title>
<g id="a_Node000008"><a xlink:href="Transform_8ixx.html" target="_top" xlink:title=" ">
<polygon fill="white" stroke="#666666" points="1964.5,-393 1835.5,-393 1835.5,-374 1964.5,-374 1964.5,-393"/>
<text text-anchor="middle" x="1900" y="-381" font-family="Helvetica,sans-Serif" font-size="10.00">helios.scene.Transform</text>
</a>
</g>
</g>
<!-- Node1&#45;&gt;Node8 -->
<g id="edge8_Node000001_Node000008" class="edge">
<title>Node1&#45;&gt;Node8</title>
<g id="a_edge8_Node000001_Node000008"><a xlink:title=" ">
<path fill="none" stroke="#63b8ff" d="M1408.01,-436.87C1496.91,-427.47 1672.19,-408.9 1821,-393 1822.31,-392.86 1823.64,-392.72 1824.97,-392.58"/>
<polygon fill="#63b8ff" stroke="#63b8ff" points="1825.76,-396.01 1835.33,-391.47 1825.02,-389.05 1825.76,-396.01"/>
</a>
</g>
</g>
<!-- Node10 -->
<g id="Node000010" class="node">
<title>Node10</title>
<g id="a_Node000010"><a xlink:href="Renderable_8ixx.html" target="_top" xlink:title=" ">
<polygon fill="white" stroke="#666666" points="862,-393 708,-393 708,-374 862,-374 862,-393"/>
<text text-anchor="middle" x="785" y="-381" font-family="Helvetica,sans-Serif" font-size="10.00">helios.rendering.Renderable</text>
</a>
</g>
</g>
<!-- Node1&#45;&gt;Node10 -->
<g id="edge12_Node000001_Node000010" class="edge">
<title>Node1&#45;&gt;Node10</title>
<g id="a_edge12_Node000001_Node000010"><a xlink:title=" ">
<path fill="none" stroke="#63b8ff" d="M1291.93,-436.99C1192.46,-426.69 988.99,-405.62 872.34,-393.54"/>
<polygon fill="#63b8ff" stroke="#63b8ff" points="872.67,-390.06 862.36,-392.51 871.95,-397.02 872.67,-390.06"/>
</a>
</g>
</g>
<!-- Node4&#45;&gt;Node4 -->
<g id="edge4_Node000004_Node000004" class="edge">
<title>Node4&#45;&gt;Node4</title>
<g id="a_edge4_Node000004_Node000004"><a xlink:title=" ">
<path fill="none" stroke="#63b8ff" d="M1358.85,-79.53C1380.44,-83.61 1403,-80.43 1403,-70 1403,-61.2 1386.94,-57.56 1368.95,-59.09"/>
<polygon fill="#63b8ff" stroke="#63b8ff" points="1368.28,-55.65 1358.85,-60.47 1369.23,-62.58 1368.28,-55.65"/>
</a>
</g>
</g>
<!-- Node6 -->
<g id="Node000006" class="node">
<title>Node6</title>
<g id="a_Node000006"><a xlink:title=" ">
<polygon fill="#e0e0e0" stroke="#999999" points="50,-332.5 0,-332.5 0,-313.5 50,-313.5 50,-332.5"/>
<text text-anchor="middle" x="25" y="-320.5" font-family="Helvetica,sans-Serif" font-size="10.00">atomic</text>
</a>
</g>
</g>
<!-- Node5&#45;&gt;Node6 -->
<g id="edge6_Node000005_Node000006" class="edge">
<title>Node5&#45;&gt;Node6</title>
<g id="a_edge6_Node000005_Node000006"><a xlink:title=" ">
<path fill="none" stroke="#63b8ff" d="M74.44,-373.87C65.62,-364.97 51.66,-350.89 40.82,-339.95"/>
<polygon fill="#63b8ff" stroke="#63b8ff" points="43.12,-337.3 33.59,-332.67 38.15,-342.23 43.12,-337.3"/>
</a>
</g>
</g>
<!-- Node7 -->
<g id="Node000007" class="node">
<title>Node7</title>
<g id="a_Node000007"><a xlink:title=" ">
<polygon fill="#e0e0e0" stroke="#999999" points="118,-332.5 68,-332.5 68,-313.5 118,-313.5 118,-332.5"/>
<text text-anchor="middle" x="93" y="-320.5" font-family="Helvetica,sans-Serif" font-size="10.00">cstdint</text>
</a>
</g>
</g>
<!-- Node5&#45;&gt;Node7 -->
<g id="edge7_Node000005_Node000007" class="edge">
<title>Node5&#45;&gt;Node7</title>
<g id="a_edge7_Node000005_Node000007"><a xlink:title=" ">
<path fill="none" stroke="#63b8ff" d="M84.48,-373.87C85.88,-365.66 88.04,-353.04 89.83,-342.55"/>
<polygon fill="#63b8ff" stroke="#63b8ff" points="93.28,-343.11 91.52,-332.67 86.38,-341.93 93.28,-343.11"/>
</a>
</g>
</g>
<!-- Node8&#45;&gt;Node4 -->
<g id="edge11_Node000008_Node000004" class="edge">
<title>Node8&#45;&gt;Node4</title>
<g id="a_edge11_Node000008_Node000004"><a xlink:title=" ">
<path fill="none" stroke="#63b8ff" d="M1931.55,-373.85C1950.55,-367.08 1973.75,-355.76 1988,-338 2009.38,-311.35 2007,-297.67 2007,-263.5 2007,-263.5 2007,-263.5 2007,-201 2007,-111.42 1908.68,-143.6 1822,-121 1672.36,-81.99 1489.56,-73.15 1395.51,-71.32"/>
<polygon fill="#63b8ff" stroke="#63b8ff" points="1395.38,-67.82 1385.32,-71.14 1395.25,-74.82 1395.38,-67.82"/>
</a>
</g>
</g>
<!-- Node9 -->
<g id="Node000009" class="node">
<title>Node9</title>
<g id="a_Node000009"><a xlink:href="math_2transform_2__module_8ixx.html" target="_top" xlink:title=" ">
<polygon fill="white" stroke="#666666" points="1960.5,-332.5 1835.5,-332.5 1835.5,-313.5 1960.5,-313.5 1960.5,-332.5"/>
<text text-anchor="middle" x="1898" y="-320.5" font-family="Helvetica,sans-Serif" font-size="10.00">helios.math.transform</text>
</a>
</g>
</g>
<!-- Node8&#45;&gt;Node9 -->
<g id="edge9_Node000008_Node000009" class="edge">
<title>Node8&#45;&gt;Node9</title>
<g id="a_edge9_Node000008_Node000009"><a xlink:title=" ">
<path fill="none" stroke="#63b8ff" d="M1899.7,-373.87C1899.43,-365.75 1899,-353.31 1898.65,-342.89"/>
<polygon fill="#63b8ff" stroke="#63b8ff" points="1902.14,-342.54 1898.3,-332.67 1895.14,-342.78 1902.14,-342.54"/>
</a>
</g>
</g>
<!-- Node9&#45;&gt;Node9 -->
<g id="edge10_Node000009_Node000009" class="edge">
<title>Node9&#45;&gt;Node9</title>
<g id="a_edge10_Node000009_Node000009"><a xlink:title=" ">
<path fill="none" stroke="#63b8ff" d="M1927.72,-332.53C1952.55,-336.61 1978.5,-333.43 1978.5,-323 1978.5,-314 1959.16,-310.4 1937.9,-312.2"/>
<polygon fill="#63b8ff" stroke="#63b8ff" points="1937.22,-308.76 1927.72,-313.47 1938.08,-315.71 1937.22,-308.76"/>
</a>
</g>
</g>
<!-- Node10&#45;&gt;Node2 -->
<g id="edge13_Node000010_Node000002" class="edge">
<title>Node10&#45;&gt;Node2</title>
<g id="a_edge13_Node000010_Node000002"><a xlink:title=" ">
<path fill="none" stroke="#63b8ff" d="M717.96,-373.94C634.31,-359.05 496.35,-319.41 448,-217 442.31,-204.94 442.09,-198.95 448,-187 473.27,-135.93 533,-101.19 569.61,-83.85"/>
<polygon fill="#63b8ff" stroke="#63b8ff" points="571.2,-86.97 578.83,-79.61 568.28,-80.6 571.2,-86.97"/>
</a>
</g>
</g>
<!-- Node10&#45;&gt;Node4 -->
<g id="edge59_Node000010_Node000004" class="edge">
<title>Node10&#45;&gt;Node4</title>
<g id="a_edge59_Node000010_Node000004"><a xlink:title=" ">
<path fill="none" stroke="#63b8ff" d="M862.15,-378.85C1068.93,-367.66 1629.52,-327.61 1772,-217 1807.31,-189.59 1831.89,-154.24 1802,-121 1775.3,-91.3 1516.99,-77.83 1395.53,-73.1"/>
<polygon fill="#63b8ff" stroke="#63b8ff" points="1395.39,-69.59 1385.27,-72.71 1395.13,-76.59 1395.39,-69.59"/>
</a>
</g>
</g>
<!-- Node11 -->
<g id="Node000011" class="node">
<title>Node11</title>
<g id="a_Node000011"><a xlink:title=" ">
<polygon fill="#e0e0e0" stroke="#999999" points="864.5,-211.5 799.5,-211.5 799.5,-192.5 864.5,-192.5 864.5,-211.5"/>
<text text-anchor="middle" x="832" y="-199.5" font-family="Helvetica,sans-Serif" font-size="10.00">stdexcept</text>
</a>
</g>
</g>
<!-- Node10&#45;&gt;Node11 -->
<g id="edge14_Node000010_Node000011" class="edge">
<title>Node10&#45;&gt;Node11</title>
<g id="a_edge14_Node000010_Node000011"><a xlink:title=" ">
<path fill="none" stroke="#63b8ff" d="M787.98,-374C794.34,-355.58 809.46,-310.58 819,-272 823.16,-255.17 826.71,-235.75 829.04,-221.81"/>
<polygon fill="#63b8ff" stroke="#63b8ff" points="832.56,-222 830.7,-211.56 825.65,-220.88 832.56,-222"/>
</a>
</g>
</g>
<!-- Node12 -->
<g id="Node000012" class="node">
<title>Node12</title>
<g id="a_Node000012"><a xlink:href="Logger_8ixx.html" target="_top" xlink:title=" ">
<polygon fill="white" stroke="#666666" points="234.5,-79.5 115.5,-79.5 115.5,-60.5 234.5,-60.5 234.5,-79.5"/>
<text text-anchor="middle" x="175" y="-67.5" font-family="Helvetica,sans-Serif" font-size="10.00">helios.util.log.Logger</text>
</a>
</g>
</g>
<!-- Node10&#45;&gt;Node12 -->
<g id="edge15_Node000010_Node000012" class="edge">
<title>Node10&#45;&gt;Node12</title>
<g id="a_edge15_Node000010_Node000012"><a xlink:title=" ">
<path fill="none" stroke="#63b8ff" d="M707.72,-382.06C589.61,-380.27 370.54,-372.27 301,-338 209.98,-293.15 184.18,-251.48 170,-151 167.09,-130.38 169.29,-106.52 171.62,-90.26"/>
<polygon fill="#63b8ff" stroke="#63b8ff" points="175.15,-90.35 173.27,-79.92 168.24,-89.25 175.15,-90.35"/>
</a>
</g>
</g>
<!-- Node15 -->
<g id="Node000015" class="node">
<title>Node15</title>
<g id="a_Node000015"><a xlink:href="LogManager_8ixx.html" target="_top" xlink:title=" ">
<polygon fill="white" stroke="#666666" points="425,-145.5 279,-145.5 279,-126.5 425,-126.5 425,-145.5"/>
<text text-anchor="middle" x="352" y="-133.5" font-family="Helvetica,sans-Serif" font-size="10.00">helios.util.log.LogManager</text>
</a>
</g>
</g>
<!-- Node10&#45;&gt;Node15 -->
<g id="edge18_Node000010_Node000015" class="edge">
<title>Node10&#45;&gt;Node15</title>
<g id="a_edge18_Node000010_Node000015"><a xlink:title=" ">
<path fill="none" stroke="#63b8ff" d="M707.92,-378.86C606.86,-373.27 435.53,-360.75 377,-338 295.54,-306.34 258.77,-296.28 222,-217 216.39,-204.9 214.45,-197.99 222,-187 235.3,-167.64 257.22,-155.77 279.3,-148.5"/>
<polygon fill="#63b8ff" stroke="#63b8ff" points="280.52,-151.79 289.09,-145.56 278.51,-145.08 280.52,-151.79"/>
</a>
</g>
</g>
<!-- Node18 -->
<g id="Node000018" class="node">
<title>Node18</title>
<g id="a_Node000018"><a xlink:href="MaterialInstance_8ixx.html" target="_top" xlink:title=" ">
<polygon fill="white" stroke="#666666" points="776.5,-338 603.5,-338 603.5,-308 776.5,-308 776.5,-338"/>
<text text-anchor="start" x="611.5" y="-326" font-family="Helvetica,sans-Serif" font-size="10.00">helios.rendering.model.Material</text>
<text text-anchor="middle" x="690" y="-315" font-family="Helvetica,sans-Serif" font-size="10.00">Instance</text>
</a>
</g>
</g>
<!-- Node10&#45;&gt;Node18 -->
<g id="edge24_Node000010_Node000018" class="edge">
<title>Node10&#45;&gt;Node18</title>
<g id="a_edge24_Node000010_Node000018"><a xlink:title=" ">
<path fill="none" stroke="#63b8ff" d="M770.98,-373.87C758.09,-365.93 738.51,-353.87 721.83,-343.6"/>
<polygon fill="#63b8ff" stroke="#63b8ff" points="723.27,-340.38 712.92,-338.11 719.6,-346.34 723.27,-340.38"/>
</a>
</g>
</g>
<!-- Node30 -->
<g id="Node000030" class="node">
<title>Node30</title>
<g id="a_Node000030"><a xlink:href="Mesh_8ixx.html" target="_top" xlink:title=" ">
<polygon fill="white" stroke="#666666" points="1450,-272 1292,-272 1292,-253 1450,-253 1450,-272"/>
<text text-anchor="middle" x="1371" y="-260" font-family="Helvetica,sans-Serif" font-size="10.00">helios.rendering.model.Mesh</text>
</a>
</g>
</g>
<!-- Node10&#45;&gt;Node30 -->
<g id="edge60_Node000010_Node000030" class="edge">
<title>Node10&#45;&gt;Node30</title>
<g id="a_edge60_Node000010_Node000030"><a xlink:title=" ">
<path fill="none" stroke="#63b8ff" d="M827.14,-373.94C931.97,-352.65 1204.25,-297.36 1318.9,-274.08"/>
<polygon fill="#63b8ff" stroke="#63b8ff" points="1319.74,-277.48 1328.85,-272.06 1318.35,-270.62 1319.74,-277.48"/>
</a>
</g>
</g>
<!-- Node13 -->
<g id="Node000013" class="node">
<title>Node13</title>
<g id="a_Node000013"><a xlink:title=" ">
<polygon fill="#e0e0e0" stroke="#999999" points="205,-19 145,-19 145,0 205,0 205,-19"/>
<text text-anchor="middle" x="175" y="-7" font-family="Helvetica,sans-Serif" font-size="10.00">iostream</text>
</a>
</g>
</g>
<!-- Node12&#45;&gt;Node13 -->
<g id="edge16_Node000012_Node000013" class="edge">
<title>Node12&#45;&gt;Node13</title>
<g id="a_edge16_Node000012_Node000013"><a xlink:title=" ">
<path fill="none" stroke="#63b8ff" d="M175,-60.37C175,-52.25 175,-39.81 175,-29.39"/>
<polygon fill="#63b8ff" stroke="#63b8ff" points="178.5,-29.17 175,-19.17 171.5,-29.17 178.5,-29.17"/>
</a>
</g>
</g>
<!-- Node14 -->
<g id="Node000014" class="node">
<title>Node14</title>
<g id="a_Node000014"><a xlink:title=" ">
<polygon fill="#e0e0e0" stroke="#999999" points="365,-19 321,-19 321,0 365,0 365,-19"/>
<text text-anchor="middle" x="343" y="-7" font-family="Helvetica,sans-Serif" font-size="10.00">string</text>
</a>
</g>
</g>
<!-- Node12&#45;&gt;Node14 -->
<g id="edge17_Node000012_Node000014" class="edge">
<title>Node12&#45;&gt;Node14</title>
<g id="a_edge17_Node000012_Node000014"><a xlink:title=" ">
<path fill="none" stroke="#63b8ff" d="M199.43,-60.49C229.04,-50.18 278.99,-32.79 311.47,-21.48"/>
<polygon fill="#63b8ff" stroke="#63b8ff" points="312.66,-24.77 320.95,-18.18 310.36,-18.16 312.66,-24.77"/>
</a>
</g>
</g>
<!-- Node15&#45;&gt;Node2 -->
<g id="edge21_Node000015_Node000002" class="edge">
<title>Node15&#45;&gt;Node2</title>
<g id="a_edge21_Node000015_Node000002"><a xlink:title=" ">
<path fill="none" stroke="#63b8ff" d="M385.19,-126.44C430.78,-114.67 512.63,-93.55 561.06,-81.05"/>
<polygon fill="#63b8ff" stroke="#63b8ff" points="562.06,-84.41 570.86,-78.52 560.31,-77.63 562.06,-84.41"/>
</a>
</g>
</g>
<!-- Node15&#45;&gt;Node12 -->
<g id="edge23_Node000015_Node000012" class="edge">
<title>Node15&#45;&gt;Node12</title>
<g id="a_edge23_Node000015_Node000012"><a xlink:title=" ">
<path fill="none" stroke="#63b8ff" d="M328.13,-126.37C297.3,-115.22 243.45,-95.75 208.52,-83.12"/>
<polygon fill="#63b8ff" stroke="#63b8ff" points="209.37,-79.71 198.77,-79.6 206.99,-86.29 209.37,-79.71"/>
</a>
</g>
</g>
<!-- Node15&#45;&gt;Node14 -->
<g id="edge19_Node000015_Node000014" class="edge">
<title>Node15&#45;&gt;Node14</title>
<g id="a_edge19_Node000015_Node000014"><a xlink:title=" ">
<path fill="none" stroke="#63b8ff" d="M372.83,-126.39C389.25,-118.35 410.98,-104.63 421,-85 427.06,-73.12 427.7,-66.53 421,-55 411.05,-37.87 391.76,-26.78 374.86,-19.96"/>
<polygon fill="#63b8ff" stroke="#63b8ff" points="375.86,-16.6 365.27,-16.42 373.44,-23.16 375.86,-16.6"/>
</a>
</g>
</g>
<!-- Node16 -->
<g id="Node000016" class="node">
<title>Node16</title>
<g id="a_Node000016"><a xlink:title=" ">
<polygon fill="#e0e0e0" stroke="#999999" points="345.5,-79.5 252.5,-79.5 252.5,-60.5 345.5,-60.5 345.5,-79.5"/>
<text text-anchor="middle" x="299" y="-67.5" font-family="Helvetica,sans-Serif" font-size="10.00">unordered_map</text>
</a>
</g>
</g>
<!-- Node15&#45;&gt;Node16 -->
<g id="edge20_Node000015_Node000016" class="edge">
<title>Node15&#45;&gt;Node16</title>
<g id="a_edge20_Node000015_Node000016"><a xlink:title=" ">
<path fill="none" stroke="#63b8ff" d="M344.85,-126.37C336.68,-116.5 323.11,-100.11 312.84,-87.72"/>
<polygon fill="#63b8ff" stroke="#63b8ff" points="315.45,-85.37 306.37,-79.91 310.06,-89.84 315.45,-85.37"/>
</a>
</g>
</g>
<!-- Node17 -->
<g id="Node000017" class="node">
<title>Node17</title>
<g id="a_Node000017"><a xlink:title=" ">
<polygon fill="#e0e0e0" stroke="#999999" points="412,-79.5 364,-79.5 364,-60.5 412,-60.5 412,-79.5"/>
<text text-anchor="middle" x="388" y="-67.5" font-family="Helvetica,sans-Serif" font-size="10.00">mutex</text>
</a>
</g>
</g>
<!-- Node15&#45;&gt;Node17 -->
<g id="edge22_Node000015_Node000017" class="edge">
<title>Node15&#45;&gt;Node17</title>
<g id="a_edge22_Node000015_Node000017"><a xlink:title=" ">
<path fill="none" stroke="#63b8ff" d="M356.86,-126.37C362.25,-116.78 371.1,-101.05 377.99,-88.8"/>
<polygon fill="#63b8ff" stroke="#63b8ff" points="381.14,-90.34 382.99,-79.91 375.04,-86.91 381.14,-90.34"/>
</a>
</g>
</g>
<!-- Node18&#45;&gt;Node2 -->
<g id="edge25_Node000018_Node000002" class="edge">
<title>Node18&#45;&gt;Node2</title>
<g id="a_edge25_Node000018_Node000002"><a xlink:title=" ">
<path fill="none" stroke="#63b8ff" d="M640.39,-307.82C622.91,-300.18 605.11,-288.75 595,-272 590.58,-264.68 599.38,-226 600,-217 603.15,-171.42 601.86,-117.65 600.83,-89.81"/>
<polygon fill="#63b8ff" stroke="#63b8ff" points="604.31,-89.42 600.41,-79.57 597.32,-89.71 604.31,-89.42"/>
</a>
</g>
</g>
<!-- Node18&#45;&gt;Node4 -->
<g id="edge26_Node000018_Node000004" class="edge">
<title>Node18&#45;&gt;Node4</title>
<g id="a_edge26_Node000018_Node000004"><a xlink:title=" ">
<path fill="none" stroke="#63b8ff" d="M776.76,-316.73C920.84,-306.33 1201.04,-278.61 1276,-217 1315.5,-184.53 1327.73,-121.06 1331.43,-89.6"/>
<polygon fill="#63b8ff" stroke="#63b8ff" points="1334.92,-89.87 1332.45,-79.57 1327.96,-89.17 1334.92,-89.87"/>
</a>
</g>
</g>
<!-- Node18&#45;&gt;Node12 -->
<g id="edge27_Node000018_Node000012" class="edge">
<title>Node18&#45;&gt;Node12</title>
<g id="a_edge27_Node000018_Node000012"><a xlink:title=" ">
<path fill="none" stroke="#63b8ff" d="M603.15,-317.03C502.06,-310.24 341.97,-296.08 287,-272 221.24,-243.2 202.21,-219.27 180,-151 173.42,-130.79 172.91,-106.21 173.57,-89.68"/>
<polygon fill="#63b8ff" stroke="#63b8ff" points="177.07,-89.86 174.16,-79.67 170.08,-89.45 177.07,-89.86"/>
</a>
</g>
</g>
<!-- Node18&#45;&gt;Node15 -->
<g id="edge41_Node000018_Node000015" class="edge">
<title>Node18&#45;&gt;Node15</title>
<g id="a_edge41_Node000018_Node000015"><a xlink:title=" ">
<path fill="none" stroke="#63b8ff" d="M603.16,-314.69C483.73,-302.62 278.39,-274 233,-217 207.63,-185.14 263.3,-161.32 306.79,-148.29"/>
<polygon fill="#63b8ff" stroke="#63b8ff" points="307.76,-151.65 316.4,-145.51 305.83,-144.92 307.76,-151.65"/>
</a>
</g>
</g>
<!-- Node19 -->
<g id="Node000019" class="node">
<title>Node19</title>
<g id="a_Node000019"><a xlink:href="UniformValueMap_8ixx.html" target="_top" xlink:title=" ">
<polygon fill="white" stroke="#666666" points="1055,-151 921,-151 921,-121 1055,-121 1055,-151"/>
<text text-anchor="start" x="929" y="-139" font-family="Helvetica,sans-Serif" font-size="10.00">helios.rendering.shader.</text>
<text text-anchor="middle" x="988" y="-128" font-family="Helvetica,sans-Serif" font-size="10.00">UniformValueMap</text>
</a>
</g>
</g>
<!-- Node18&#45;&gt;Node19 -->
<g id="edge28_Node000018_Node000019" class="edge">
<title>Node18&#45;&gt;Node19</title>
<g id="a_edge28_Node000018_Node000019"><a xlink:title=" ">
<path fill="none" stroke="#63b8ff" d="M738.85,-307.95C756.68,-300.27 775.12,-288.8 786,-272 806.57,-240.24 766.9,-216.17 791,-187 806.47,-168.27 862.3,-155.22 910.59,-147.16"/>
<polygon fill="#63b8ff" stroke="#63b8ff" points="911.45,-150.57 920.77,-145.52 910.34,-143.66 911.45,-150.57"/>
</a>
</g>
</g>
<!-- Node25 -->
<g id="Node000025" class="node">
<title>Node25</title>
<g id="a_Node000025"><a xlink:href="Shader_8ixx.html" target="_top" xlink:title=" ">
<polygon fill="white" stroke="#666666" points="591,-217 457,-217 457,-187 591,-187 591,-217"/>
<text text-anchor="start" x="465" y="-205" font-family="Helvetica,sans-Serif" font-size="10.00">helios.rendering.shader.</text>
<text text-anchor="middle" x="524" y="-194" font-family="Helvetica,sans-Serif" font-size="10.00">Shader</text>
</a>
</g>
</g>
<!-- Node18&#45;&gt;Node25 -->
<g id="edge35_Node000018_Node000025" class="edge">
<title>Node18&#45;&gt;Node25</title>
<g id="a_edge35_Node000018_Node000025"><a xlink:title=" ">
<path fill="none" stroke="#63b8ff" d="M628.68,-307.99C605.47,-300.34 580.07,-288.87 561,-272 547.27,-259.85 537.73,-241.35 531.79,-226.57"/>
<polygon fill="#63b8ff" stroke="#63b8ff" points="535.01,-225.19 528.24,-217.05 528.45,-227.64 535.01,-225.19"/>
</a>
</g>
</g>
<!-- Node26 -->
<g id="Node000026" class="node">
<title>Node26</title>
<g id="a_Node000026"><a xlink:href="MaterialPropertiesOverride_8ixx.html" target="_top" xlink:title=" ">
<polygon fill="white" stroke="#666666" points="1267,-217 1103,-217 1103,-187 1267,-187 1267,-217"/>
<text text-anchor="start" x="1111" y="-205" font-family="Helvetica,sans-Serif" font-size="10.00">helios.rendering.model.config.</text>
<text text-anchor="middle" x="1185" y="-194" font-family="Helvetica,sans-Serif" font-size="10.00">MaterialPropertiesOverride</text>
</a>
</g>
</g>
<!-- Node18&#45;&gt;Node26 -->
<g id="edge42_Node000018_Node000026" class="edge">
<title>Node18&#45;&gt;Node26</title>
<g id="a_edge42_Node000018_Node000026"><a xlink:title=" ">
<path fill="none" stroke="#63b8ff" d="M748.24,-308C840.28,-285.87 1018.92,-242.93 1116.81,-219.39"/>
<polygon fill="#63b8ff" stroke="#63b8ff" points="1117.7,-222.78 1126.6,-217.04 1116.06,-215.97 1117.7,-222.78"/>
</a>
</g>
</g>
<!-- Node27 -->
<g id="Node000027" class="node">
<title>Node27</title>
<g id="a_Node000027"><a xlink:href="Material_8ixx.html" target="_top" xlink:title=" ">
<polygon fill="white" stroke="#666666" points="776.5,-272 603.5,-272 603.5,-253 776.5,-253 776.5,-272"/>
<text text-anchor="middle" x="690" y="-260" font-family="Helvetica,sans-Serif" font-size="10.00">helios.rendering.model.Material</text>
</a>
</g>
</g>
<!-- Node18&#45;&gt;Node27 -->
<g id="edge47_Node000018_Node000027" class="edge">
<title>Node18&#45;&gt;Node27</title>
<g id="a_edge47_Node000018_Node000027"><a xlink:title=" ">
<path fill="none" stroke="#63b8ff" d="M690,-307.84C690,-300.21 690,-290.7 690,-282.45"/>
<polygon fill="#63b8ff" stroke="#63b8ff" points="693.5,-282.27 690,-272.27 686.5,-282.27 693.5,-282.27"/>
</a>
</g>
</g>
<!-- Node19&#45;&gt;Node4 -->
<g id="edge32_Node000019_Node000004" class="edge">
<title>Node19&#45;&gt;Node4</title>
<g id="a_edge32_Node000019_Node000004"><a xlink:title=" ">
<path fill="none" stroke="#63b8ff" d="M1055.34,-122.51C1119.94,-110.52 1216.36,-92.64 1276.91,-81.4"/>
<polygon fill="#63b8ff" stroke="#63b8ff" points="1277.85,-84.79 1287.05,-79.52 1276.58,-77.91 1277.85,-84.79"/>
</a>
</g>
</g>
<!-- Node20 -->
<g id="Node000020" class="node">
<title>Node20</title>
<g id="a_Node000020"><a xlink:title=" ">
<polygon fill="#e0e0e0" stroke="#999999" points="976,-79.5 934,-79.5 934,-60.5 976,-60.5 976,-79.5"/>
<text text-anchor="middle" x="955" y="-67.5" font-family="Helvetica,sans-Serif" font-size="10.00">array</text>
</a>
</g>
</g>
<!-- Node19&#45;&gt;Node20 -->
<g id="edge29_Node000019_Node000020" class="edge">
<title>Node19&#45;&gt;Node20</title>
<g id="a_edge29_Node000019_Node000020"><a xlink:title=" ">
<path fill="none" stroke="#63b8ff" d="M980.68,-120.8C975.83,-111.41 969.45,-99.02 964.25,-88.95"/>
<polygon fill="#63b8ff" stroke="#63b8ff" points="967.25,-87.13 959.56,-79.84 961.03,-90.34 967.25,-87.13"/>
</a>
</g>
</g>
<!-- Node21 -->
<g id="Node000021" class="node">
<title>Node21</title>
<g id="a_Node000021"><a xlink:title=" ">
<polygon fill="#e0e0e0" stroke="#999999" points="916,-79.5 860,-79.5 860,-60.5 916,-60.5 916,-79.5"/>
<text text-anchor="middle" x="888" y="-67.5" font-family="Helvetica,sans-Serif" font-size="10.00">optional</text>
</a>
</g>
</g>
<!-- Node19&#45;&gt;Node21 -->
<g id="edge30_Node000019_Node000021" class="edge">
<title>Node19&#45;&gt;Node21</title>
<g id="a_edge30_Node000019_Node000021"><a xlink:title=" ">
<path fill="none" stroke="#63b8ff" d="M965.81,-120.8C949.2,-110.17 926.6,-95.7 910.03,-85.1"/>
<polygon fill="#63b8ff" stroke="#63b8ff" points="911.84,-82.1 901.53,-79.66 908.06,-88 911.84,-82.1"/>
</a>
</g>
</g>
<!-- Node22 -->
<g id="Node000022" class="node">
<title>Node22</title>
<g id="a_Node000022"><a xlink:title=" ">
<polygon fill="#e0e0e0" stroke="#999999" points="1045.5,-79.5 994.5,-79.5 994.5,-60.5 1045.5,-60.5 1045.5,-79.5"/>
<text text-anchor="middle" x="1020" y="-67.5" font-family="Helvetica,sans-Serif" font-size="10.00">variant</text>
</a>
</g>
</g>
<!-- Node19&#45;&gt;Node22 -->
<g id="edge31_Node000019_Node000022" class="edge">
<title>Node19&#45;&gt;Node22</title>
<g id="a_edge31_Node000019_Node000022"><a xlink:title=" ">
<path fill="none" stroke="#63b8ff" d="M995.1,-120.8C999.8,-111.41 1005.99,-99.02 1011.03,-88.95"/>
<polygon fill="#63b8ff" stroke="#63b8ff" points="1014.24,-90.35 1015.58,-79.84 1007.98,-87.22 1014.24,-90.35"/>
</a>
</g>
</g>
<!-- Node23 -->
<g id="Node000023" class="node">
<title>Node23</title>
<g id="a_Node000023"><a xlink:href="UniformSemantics_8ixx.html" target="_top" xlink:title=" ">
<polygon fill="white" stroke="#666666" points="1198,-85 1064,-85 1064,-55 1198,-55 1198,-85"/>
<text text-anchor="start" x="1072" y="-73" font-family="Helvetica,sans-Serif" font-size="10.00">helios.rendering.shader.</text>
<text text-anchor="middle" x="1131" y="-62" font-family="Helvetica,sans-Serif" font-size="10.00">UniformSemantics</text>
</a>
</g>
</g>
<!-- Node19&#45;&gt;Node23 -->
<g id="edge33_Node000019_Node000023" class="edge">
<title>Node19&#45;&gt;Node23</title>
<g id="a_edge33_Node000019_Node000023"><a xlink:title=" ">
<path fill="none" stroke="#63b8ff" d="M1019.38,-120.95C1040.24,-111.62 1067.84,-99.27 1090.38,-89.18"/>
<polygon fill="#63b8ff" stroke="#63b8ff" points="1091.99,-92.29 1099.69,-85.01 1089.13,-85.9 1091.99,-92.29"/>
</a>
</g>
</g>
<!-- Node24 -->
<g id="Node000024" class="node">
<title>Node24</title>
<g id="a_Node000024"><a xlink:title=" ">
<polygon fill="#e0e0e0" stroke="#999999" points="1156.5,-19 1105.5,-19 1105.5,0 1156.5,0 1156.5,-19"/>
<text text-anchor="middle" x="1131" y="-7" font-family="Helvetica,sans-Serif" font-size="10.00">cwchar</text>
</a>
</g>
</g>
<!-- Node23&#45;&gt;Node24 -->
<g id="edge34_Node000023_Node000024" class="edge">
<title>Node23&#45;&gt;Node24</title>
<g id="a_edge34_Node000023_Node000024"><a xlink:title=" ">
<path fill="none" stroke="#63b8ff" d="M1131,-54.84C1131,-47.21 1131,-37.7 1131,-29.45"/>
<polygon fill="#63b8ff" stroke="#63b8ff" points="1134.5,-29.27 1131,-19.27 1127.5,-29.27 1134.5,-29.27"/>
</a>
</g>
</g>
<!-- Node25&#45;&gt;Node2 -->
<g id="edge36_Node000025_Node000002" class="edge">
<title>Node25&#45;&gt;Node2</title>
<g id="a_edge36_Node000025_Node000002"><a xlink:title=" ">
<path fill="none" stroke="#63b8ff" d="M532.28,-186.84C546.26,-162.92 574.53,-114.56 589.75,-88.53"/>
<polygon fill="#63b8ff" stroke="#63b8ff" points="592.86,-90.15 594.89,-79.75 586.82,-86.61 592.86,-90.15"/>
</a>
</g>
</g>
<!-- Node25&#45;&gt;Node12 -->
<g id="edge39_Node000025_Node000012" class="edge">
<title>Node25&#45;&gt;Node12</title>
<g id="a_edge39_Node000025_Node000012"><a xlink:title=" ">
<path fill="none" stroke="#63b8ff" d="M456.96,-188.66C384.61,-175.22 278.48,-155.07 270,-151 252.77,-142.74 213.86,-107.57 191.55,-86.71"/>
<polygon fill="#63b8ff" stroke="#63b8ff" points="193.84,-84.06 184.15,-79.75 189.04,-89.15 193.84,-84.06"/>
</a>
</g>
</g>
<!-- Node25&#45;&gt;Node15 -->
<g id="edge40_Node000025_Node000015" class="edge">
<title>Node25&#45;&gt;Node15</title>
<g id="a_edge40_Node000025_Node000015"><a xlink:title=" ">
<path fill="none" stroke="#63b8ff" d="M486.25,-186.95C455.82,-175.63 413.48,-159.88 384.53,-149.1"/>
<polygon fill="#63b8ff" stroke="#63b8ff" points="385.48,-145.72 374.89,-145.52 383.04,-152.28 385.48,-145.72"/>
</a>
</g>
</g>
<!-- Node25&#45;&gt;Node19 -->
<g id="edge38_Node000025_Node000019" class="edge">
<title>Node25&#45;&gt;Node19</title>
<g id="a_edge38_Node000025_Node000019"><a xlink:title=" ">
<path fill="none" stroke="#63b8ff" d="M591.47,-191.69C676.3,-179.99 821.59,-159.95 910.77,-147.65"/>
<polygon fill="#63b8ff" stroke="#63b8ff" points="911.4,-151.1 920.83,-146.27 910.44,-144.16 911.4,-151.1"/>
</a>
</g>
</g>
<!-- Node25&#45;&gt;Node21 -->
<g id="edge37_Node000025_Node000021" class="edge">
<title>Node25&#45;&gt;Node21</title>
<g id="a_edge37_Node000025_Node000021"><a xlink:title=" ">
<path fill="none" stroke="#63b8ff" d="M563.3,-186.96C635.17,-161.3 786.58,-107.22 854.18,-83.08"/>
<polygon fill="#63b8ff" stroke="#63b8ff" points="855.66,-86.27 863.9,-79.61 853.3,-79.67 855.66,-86.27"/>
</a>
</g>
</g>
<!-- Node26&#45;&gt;Node4 -->
<g id="edge46_Node000026_Node000004" class="edge">
<title>Node26&#45;&gt;Node4</title>
<g id="a_edge46_Node000026_Node000004"><a xlink:title=" ">
<path fill="none" stroke="#63b8ff" d="M1201.12,-186.84C1229.08,-162.28 1286.34,-111.99 1315.33,-86.52"/>
<polygon fill="#63b8ff" stroke="#63b8ff" points="1317.84,-88.98 1323.04,-79.75 1313.22,-83.72 1317.84,-88.98"/>
</a>
</g>
</g>
<!-- Node26&#45;&gt;Node19 -->
<g id="edge45_Node000026_Node000019" class="edge">
<title>Node26&#45;&gt;Node19</title>
<g id="a_edge45_Node000026_Node000019"><a xlink:title=" ">
<path fill="none" stroke="#63b8ff" d="M1141.77,-186.95C1112,-177.28 1072.28,-164.38 1040.66,-154.11"/>
<polygon fill="#63b8ff" stroke="#63b8ff" points="1041.72,-150.77 1031.13,-151.01 1039.56,-157.43 1041.72,-150.77"/>
</a>
</g>
</g>
<!-- Node26&#45;&gt;Node21 -->
<g id="edge43_Node000026_Node000021" class="edge">
<title>Node26&#45;&gt;Node21</title>
<g id="a_edge43_Node000026_Node000021"><a xlink:title=" ">
<path fill="none" stroke="#63b8ff" d="M1167.64,-186.81C1145.07,-169.02 1103.8,-138.72 1064,-121 1005.7,-95.05 985.82,-104.32 925,-85 923.09,-84.39 921.13,-83.74 919.15,-83.06"/>
<polygon fill="#63b8ff" stroke="#63b8ff" points="919.98,-79.64 909.38,-79.54 917.6,-86.22 919.98,-79.64"/>
</a>
</g>
</g>
<!-- Node26&#45;&gt;Node23 -->
<g id="edge44_Node000026_Node000023" class="edge">
<title>Node26&#45;&gt;Node23</title>
<g id="a_edge44_Node000026_Node000023"><a xlink:title=" ">
<path fill="none" stroke="#63b8ff" d="M1179.12,-186.84C1169.91,-164.67 1151.98,-121.51 1140.8,-94.59"/>
<polygon fill="#63b8ff" stroke="#63b8ff" points="1143.94,-93.03 1136.87,-85.14 1137.48,-95.72 1143.94,-93.03"/>
</a>
</g>
</g>
<!-- Node27&#45;&gt;Node2 -->
<g id="edge48_Node000027_Node000002" class="edge">
<title>Node27&#45;&gt;Node2</title>
<g id="a_edge48_Node000027_Node000002"><a xlink:title=" ">
<path fill="none" stroke="#63b8ff" d="M687.11,-252.68C679.56,-230.12 658.13,-168.75 633,-121 626.97,-109.54 619,-97.4 612.4,-87.95"/>
<polygon fill="#63b8ff" stroke="#63b8ff" points="615.05,-85.63 606.39,-79.53 609.35,-89.7 615.05,-85.63"/>
</a>
</g>
</g>
<!-- Node27&#45;&gt;Node11 -->
<g id="edge49_Node000027_Node000011" class="edge">
<title>Node27&#45;&gt;Node11</title>
<g id="a_edge49_Node000027_Node000011"><a xlink:title=" ">
<path fill="none" stroke="#63b8ff" d="M710.65,-252.99C734.63,-243.12 774.39,-226.73 801.83,-215.43"/>
<polygon fill="#63b8ff" stroke="#63b8ff" points="803.41,-218.56 811.33,-211.52 800.75,-212.09 803.41,-218.56"/>
</a>
</g>
</g>
<!-- Node27&#45;&gt;Node19 -->
<g id="edge58_Node000027_Node000019" class="edge">
<title>Node27&#45;&gt;Node19</title>
<g id="a_edge58_Node000027_Node000019"><a xlink:title=" ">
<path fill="none" stroke="#63b8ff" d="M695.21,-252.76C705.11,-236.94 728.26,-203.67 757,-187 803.79,-159.85 863.64,-147.41 910.7,-141.72"/>
<polygon fill="#63b8ff" stroke="#63b8ff" points="911.3,-145.17 920.84,-140.57 910.51,-138.22 911.3,-145.17"/>
</a>
</g>
</g>
<!-- Node27&#45;&gt;Node25 -->
<g id="edge53_Node000027_Node000025" class="edge">
<title>Node27&#45;&gt;Node25</title>
<g id="a_edge53_Node000027_Node000025"><a xlink:title=" ">
<path fill="none" stroke="#63b8ff" d="M665.86,-252.99C641.76,-244.5 604.03,-231.2 573.53,-220.45"/>
<polygon fill="#63b8ff" stroke="#63b8ff" points="574.5,-217.09 563.91,-217.06 572.18,-223.69 574.5,-217.09"/>
</a>
</g>
</g>
<!-- Node28 -->
<g id="Node000028" class="node">
<title>Node28</title>
<g id="a_Node000028"><a xlink:href="util_2log_2__module_8ixx.html" target="_top" xlink:title=" ">
<polygon fill="white" stroke="#666666" points="324.5,-211.5 241.5,-211.5 241.5,-192.5 324.5,-192.5 324.5,-211.5"/>
<text text-anchor="middle" x="283" y="-199.5" font-family="Helvetica,sans-Serif" font-size="10.00">helios.util.log</text>
</a>
</g>
</g>
<!-- Node27&#45;&gt;Node28 -->
<g id="edge50_Node000027_Node000028" class="edge">
<title>Node27&#45;&gt;Node28</title>
<g id="a_edge50_Node000027_Node000028"><a xlink:title=" ">
<path fill="none" stroke="#63b8ff" d="M630.82,-252.99C551.12,-241.54 410.57,-221.34 334.83,-210.45"/>
<polygon fill="#63b8ff" stroke="#63b8ff" points="334.99,-206.94 324.59,-208.98 333.99,-213.87 334.99,-206.94"/>
</a>
</g>
</g>
<!-- Node29 -->
<g id="Node000029" class="node">
<title>Node29</title>
<g id="a_Node000029"><a xlink:href="MaterialProperties_8ixx.html" target="_top" xlink:title=" ">
<polygon fill="white" stroke="#666666" points="1085,-217 921,-217 921,-187 1085,-187 1085,-217"/>
<text text-anchor="start" x="929" y="-205" font-family="Helvetica,sans-Serif" font-size="10.00">helios.rendering.model.config.</text>
<text text-anchor="middle" x="1003" y="-194" font-family="Helvetica,sans-Serif" font-size="10.00">MaterialProperties</text>
</a>
</g>
</g>
<!-- Node27&#45;&gt;Node29 -->
<g id="edge54_Node000027_Node000029" class="edge">
<title>Node27&#45;&gt;Node29</title>
<g id="a_edge54_Node000027_Node000029"><a xlink:title=" ">
<path fill="none" stroke="#63b8ff" d="M735.51,-252.99C783.2,-244.08 859.2,-229.88 918.02,-218.88"/>
<polygon fill="#63b8ff" stroke="#63b8ff" points="918.87,-222.29 928.05,-217.01 917.58,-215.4 918.87,-222.29"/>
</a>
</g>
</g>
<!-- Node28&#45;&gt;Node12 -->
<g id="edge52_Node000028_Node000012" class="edge">
<title>Node28&#45;&gt;Node12</title>
<g id="a_edge52_Node000028_Node000012"><a xlink:title=" ">
<path fill="none" stroke="#63b8ff" d="M259.01,-192.38C240.11,-184.42 214.45,-170.8 199,-151 185.02,-133.09 179.16,-107.14 176.72,-89.69"/>
<polygon fill="#63b8ff" stroke="#63b8ff" points="180.18,-89.16 175.56,-79.63 173.23,-89.97 180.18,-89.16"/>
</a>
</g>
</g>
<!-- Node28&#45;&gt;Node15 -->
<g id="edge51_Node000028_Node000015" class="edge">
<title>Node28&#45;&gt;Node15</title>
<g id="a_edge51_Node000028_Node000015"><a xlink:title=" ">
<path fill="none" stroke="#63b8ff" d="M292.31,-192.37C303.15,-182.31 321.3,-165.48 334.74,-153.01"/>
<polygon fill="#63b8ff" stroke="#63b8ff" points="337.45,-155.27 342.4,-145.91 332.69,-150.14 337.45,-155.27"/>
</a>
</g>
</g>
<!-- Node29&#45;&gt;Node4 -->
<g id="edge57_Node000029_Node000004" class="edge">
<title>Node29&#45;&gt;Node4</title>
<g id="a_edge57_Node000029_Node000004"><a xlink:title=" ">
<path fill="none" stroke="#63b8ff" d="M1038.63,-186.96C1103.52,-161.4 1239.93,-107.66 1301.58,-83.38"/>
<polygon fill="#63b8ff" stroke="#63b8ff" points="1303.13,-86.53 1311.15,-79.61 1300.56,-80.02 1303.13,-86.53"/>
</a>
</g>
</g>
<!-- Node29&#45;&gt;Node19 -->
<g id="edge56_Node000029_Node000019" class="edge">
<title>Node29&#45;&gt;Node19</title>
<g id="a_edge56_Node000029_Node000019"><a xlink:title=" ">
<path fill="none" stroke="#63b8ff" d="M999.67,-186.8C997.9,-179.26 995.68,-169.78 993.66,-161.13"/>
<polygon fill="#63b8ff" stroke="#63b8ff" points="997.01,-160.1 991.32,-151.16 990.19,-161.7 997.01,-160.1"/>
</a>
</g>
</g>
<!-- Node29&#45;&gt;Node23 -->
<g id="edge55_Node000029_Node000023" class="edge">
<title>Node29&#45;&gt;Node23</title>
<g id="a_edge55_Node000029_Node000023"><a xlink:title=" ">
<path fill="none" stroke="#63b8ff" d="M1021.92,-186.98C1034.37,-177.39 1050.76,-164.1 1064,-151 1082.42,-132.77 1101.18,-109.93 1114.14,-93.33"/>
<polygon fill="#63b8ff" stroke="#63b8ff" points="1117.02,-95.33 1120.36,-85.27 1111.48,-91.05 1117.02,-95.33"/>
</a>
</g>
</g>
<!-- Node30&#45;&gt;Node2 -->
<g id="edge61_Node000030_Node000002" class="edge">
<title>Node30&#45;&gt;Node2</title>
<g id="a_edge61_Node000030_Node000002"><a xlink:title=" ">
<path fill="none" stroke="#63b8ff" d="M1291.8,-259.19C1179.17,-255 978.94,-243.93 912,-217 892.04,-208.97 892.52,-197.96 874,-187 793.61,-139.42 690.06,-101.18 636.19,-82.82"/>
<polygon fill="#63b8ff" stroke="#63b8ff" points="637.01,-79.4 626.42,-79.52 634.77,-86.04 637.01,-79.4"/>
</a>
</g>
</g>
<!-- Node30&#45;&gt;Node3 -->
<g id="edge63_Node000030_Node000003" class="edge">
<title>Node30&#45;&gt;Node3</title>
<g id="a_edge63_Node000030_Node000003"><a xlink:title=" ">
<path fill="none" stroke="#63b8ff" d="M1450.3,-257C1554.82,-250.34 1728.07,-236.52 1750,-217 1767.13,-201.75 1770.24,-174.14 1770.19,-155.68"/>
<polygon fill="#63b8ff" stroke="#63b8ff" points="1773.68,-155.44 1769.84,-145.56 1766.68,-155.68 1773.68,-155.44"/>
</a>
</g>
</g>
<!-- Node30&#45;&gt;Node4 -->
<g id="edge75_Node000030_Node000004" class="edge">
<title>Node30&#45;&gt;Node4</title>
<g id="a_edge75_Node000030_Node000004"><a xlink:title=" ">
<path fill="none" stroke="#63b8ff" d="M1369.27,-252.82C1363.48,-223.81 1344.73,-129.8 1336.7,-89.56"/>
<polygon fill="#63b8ff" stroke="#63b8ff" points="1340.13,-88.85 1334.74,-79.73 1333.27,-90.22 1340.13,-88.85"/>
</a>
</g>
</g>
<!-- Node30&#45;&gt;Node11 -->
<g id="edge62_Node000030_Node000011" class="edge">
<title>Node30&#45;&gt;Node11</title>
<g id="a_edge62_Node000030_Node000011"><a xlink:title=" ">
<path fill="none" stroke="#63b8ff" d="M1291.93,-259.19C1194.16,-255.23 1023.02,-244.68 879,-217 875.27,-216.28 871.41,-215.39 867.58,-214.41"/>
<polygon fill="#63b8ff" stroke="#63b8ff" points="868.2,-210.94 857.63,-211.64 866.33,-217.69 868.2,-210.94"/>
</a>
</g>
</g>
<!-- Node30&#45;&gt;Node12 -->
<g id="edge64_Node000030_Node000012" class="edge">
<title>Node30&#45;&gt;Node12</title>
<g id="a_edge64_Node000030_Node000012"><a xlink:title=" ">
<path fill="none" stroke="#63b8ff" d="M1291.83,-260.14C1099.04,-256.44 609.2,-244.54 448,-217 435.37,-214.84 237.26,-158.68 227,-151 205.61,-135 190.54,-107.42 182.31,-89.19"/>
<polygon fill="#63b8ff" stroke="#63b8ff" points="185.5,-87.75 178.35,-79.93 179.06,-90.5 185.5,-87.75"/>
</a>
</g>
</g>
<!-- Node30&#45;&gt;Node15 -->
<g id="edge65_Node000030_Node000015" class="edge">
<title>Node30&#45;&gt;Node15</title>
<g id="a_edge65_Node000030_Node000015"><a xlink:title=" ">
<path fill="none" stroke="#63b8ff" d="M1291.93,-258.04C1180.05,-252.54 969.28,-240.02 791,-217 648.43,-198.59 481.89,-164.84 401.03,-147.66"/>
<polygon fill="#63b8ff" stroke="#63b8ff" points="401.65,-144.21 391.14,-145.54 400.19,-151.05 401.65,-144.21"/>
</a>
</g>
</g>
<!-- Node31 -->
<g id="Node000031" class="node">
<title>Node31</title>
<g id="a_Node000031"><a xlink:href="Vertex_8ixx.html" target="_top" xlink:title=" ">
<polygon fill="white" stroke="#666666" points="1529,-145.5 1399,-145.5 1399,-126.5 1529,-126.5 1529,-145.5"/>
<text text-anchor="middle" x="1464" y="-133.5" font-family="Helvetica,sans-Serif" font-size="10.00">helios.rendering.Vertex</text>
</a>
</g>
</g>
<!-- Node30&#45;&gt;Node31 -->
<g id="edge66_Node000030_Node000031" class="edge">
<title>Node30&#45;&gt;Node31</title>
<g id="a_edge66_Node000030_Node000031"><a xlink:title=" ">
<path fill="none" stroke="#63b8ff" d="M1371.25,-252.87C1372.08,-238.08 1375.56,-207.52 1390,-187 1401.23,-171.04 1419.31,-158.68 1434.78,-150.25"/>
<polygon fill="#63b8ff" stroke="#63b8ff" points="1436.71,-153.2 1444,-145.51 1433.51,-146.97 1436.71,-153.2"/>
</a>
</g>
</g>
<!-- Node32 -->
<g id="Node000032" class="node">
<title>Node32</title>
<g id="a_Node000032"><a xlink:href="Shape_8ixx.html" target="_top" xlink:title=" ">
<polygon fill="white" stroke="#666666" points="1559,-217 1399,-217 1399,-187 1559,-187 1559,-217"/>
<text text-anchor="start" x="1407" y="-205" font-family="Helvetica,sans-Serif" font-size="10.00">helios.rendering.asset.shape.</text>
<text text-anchor="middle" x="1479" y="-194" font-family="Helvetica,sans-Serif" font-size="10.00">Shape</text>
</a>
</g>
</g>
<!-- Node30&#45;&gt;Node32 -->
<g id="edge68_Node000030_Node000032" class="edge">
<title>Node30&#45;&gt;Node32</title>
<g id="a_edge68_Node000030_Node000032"><a xlink:title=" ">
<path fill="none" stroke="#63b8ff" d="M1386.94,-252.87C1401.93,-244.75 1424.89,-232.31 1444.13,-221.89"/>
<polygon fill="#63b8ff" stroke="#63b8ff" points="1445.82,-224.96 1452.94,-217.11 1442.48,-218.8 1445.82,-224.96"/>
</a>
</g>
</g>
<!-- Node34 -->
<g id="Node000034" class="node">
<title>Node34</title>
<g id="a_Node000034"><a xlink:href="MeshConfig_8ixx.html" target="_top" xlink:title=" ">
<polygon fill="white" stroke="#666666" points="1741,-217 1577,-217 1577,-187 1741,-187 1741,-217"/>
<text text-anchor="start" x="1585" y="-205" font-family="Helvetica,sans-Serif" font-size="10.00">helios.rendering.model.config.</text>
<text text-anchor="middle" x="1659" y="-194" font-family="Helvetica,sans-Serif" font-size="10.00">MeshConfig</text>
</a>
</g>
</g>
<!-- Node30&#45;&gt;Node34 -->
<g id="edge73_Node000030_Node000034" class="edge">
<title>Node30&#45;&gt;Node34</title>
<g id="a_edge73_Node000030_Node000034"><a xlink:title=" ">
<path fill="none" stroke="#63b8ff" d="M1412.88,-252.99C1456.57,-244.12 1526.11,-229.99 1580.14,-219.02"/>
<polygon fill="#63b8ff" stroke="#63b8ff" points="1580.94,-222.43 1590.04,-217.01 1579.54,-215.57 1580.94,-222.43"/>
</a>
</g>
</g>
<!-- Node31&#45;&gt;Node4 -->
<g id="edge67_Node000031_Node000004" class="edge">
<title>Node31&#45;&gt;Node4</title>
<g id="a_edge67_Node000031_Node000004"><a xlink:title=" ">
<path fill="none" stroke="#63b8ff" d="M1446.33,-126.37C1424.16,-115.54 1385.92,-96.85 1360.05,-84.22"/>
<polygon fill="#63b8ff" stroke="#63b8ff" points="1361.33,-80.94 1350.81,-79.7 1358.25,-87.23 1361.33,-80.94"/>
</a>
</g>
</g>
<!-- Node32&#45;&gt;Node2 -->
<g id="edge69_Node000032_Node000002" class="edge">
<title>Node32&#45;&gt;Node2</title>
<g id="a_edge69_Node000032_Node000002"><a xlink:title=" ">
<path fill="none" stroke="#63b8ff" d="M1414.95,-186.94C1333.66,-169.49 1188.99,-139.75 1064,-121 907.38,-97.51 719.41,-80.74 639.28,-74.12"/>
<polygon fill="#63b8ff" stroke="#63b8ff" points="639.41,-70.62 629.15,-73.29 638.83,-77.6 639.41,-70.62"/>
</a>
</g>
</g>
<!-- Node32&#45;&gt;Node3 -->
<g id="edge70_Node000032_Node000003" class="edge">
<title>Node32&#45;&gt;Node3</title>
<g id="a_edge70_Node000032_Node000003"><a xlink:title=" ">
<path fill="none" stroke="#63b8ff" d="M1559.24,-187.64C1608.34,-178.79 1672.23,-166.05 1728,-151 1730.63,-150.29 1733.34,-149.5 1736.05,-148.67"/>
<polygon fill="#63b8ff" stroke="#63b8ff" points="1737.31,-151.94 1745.75,-145.53 1735.15,-145.28 1737.31,-151.94"/>
</a>
</g>
</g>
<!-- Node32&#45;&gt;Node31 -->
<g id="edge72_Node000032_Node000031" class="edge">
<title>Node32&#45;&gt;Node31</title>
<g id="a_edge72_Node000032_Node000031"><a xlink:title=" ">
<path fill="none" stroke="#63b8ff" d="M1475.67,-186.8C1473.54,-177.7 1470.75,-165.79 1468.43,-155.9"/>
<polygon fill="#63b8ff" stroke="#63b8ff" points="1471.76,-154.78 1466.07,-145.84 1464.95,-156.38 1471.76,-154.78"/>
</a>
</g>
</g>
<!-- Node33 -->
<g id="Node000033" class="node">
<title>Node33</title>
<g id="a_Node000033"><a xlink:href="PrimitiveType_8ixx.html" target="_top" xlink:title=" ">
<polygon fill="white" stroke="#666666" points="1719,-151 1555,-151 1555,-121 1719,-121 1719,-151"/>
<text text-anchor="start" x="1563" y="-139" font-family="Helvetica,sans-Serif" font-size="10.00">helios.rendering.model.config.</text>
<text text-anchor="middle" x="1637" y="-128" font-family="Helvetica,sans-Serif" font-size="10.00">PrimitiveType</text>
</a>
</g>
</g>
<!-- Node32&#45;&gt;Node33 -->
<g id="edge71_Node000032_Node000033" class="edge">
<title>Node32&#45;&gt;Node33</title>
<g id="a_edge71_Node000032_Node000033"><a xlink:title=" ">
<path fill="none" stroke="#63b8ff" d="M1513.67,-186.95C1537.03,-177.49 1568.04,-164.93 1593.11,-154.78"/>
<polygon fill="#63b8ff" stroke="#63b8ff" points="1594.45,-158.01 1602.41,-151.01 1591.82,-151.52 1594.45,-158.01"/>
</a>
</g>
</g>
<!-- Node34&#45;&gt;Node33 -->
<g id="edge74_Node000034_Node000033" class="edge">
<title>Node34&#45;&gt;Node33</title>
<g id="a_edge74_Node000034_Node000033"><a xlink:title=" ">
<path fill="none" stroke="#63b8ff" d="M1654.12,-186.8C1651.5,-179.17 1648.2,-169.57 1645.2,-160.84"/>
<polygon fill="#63b8ff" stroke="#63b8ff" points="1648.43,-159.48 1641.87,-151.16 1641.81,-161.76 1648.43,-159.48"/>
</a>
</g>
</g>
</g>
</svg>
