<?xml version="1.0" encoding="UTF-8" standalone="no"?>
<!DOCTYPE svg PUBLIC "-//W3C//DTD SVG 1.1//EN"
 "http://www.w3.org/Graphics/SVG/1.1/DTD/svg11.dtd">
<!-- Generated by graphviz version 2.43.0 (0)
 -->
<!-- Title: include/helios/rendering/shader/Shader.ixx Pages: 1 -->
<svg width="1074pt" height="280pt"
 viewBox="0.00 0.00 1074.00 280.00" xmlns="http://www.w3.org/2000/svg" xmlns:xlink="http://www.w3.org/1999/xlink">
<g id="graph0" class="graph" transform="scale(1 1) rotate(0) translate(4 276)">
<title>include/helios/rendering/shader/Shader.ixx</title>
<!-- Node1 -->
<g id="Node000001" class="node">
<title>Node1</title>
<g id="a_Node000001"><a xlink:title="Abstraction for a compiled shader program.">
<polygon fill="#999999" stroke="#666666" points="793,-272 659,-272 659,-242 793,-242 793,-272"/>
<text text-anchor="start" x="667" y="-260" font-family="Helvetica,sans-Serif" font-size="10.00">include/helios/rendering</text>
<text text-anchor="middle" x="726" y="-249" font-family="Helvetica,sans-Serif" font-size="10.00">/shader/Shader.ixx</text>
</a>
</g>
</g>
<!-- Node2 -->
<g id="Node000002" class="node">
<title>Node2</title>
<g id="a_Node000002"><a xlink:href="UniformValueMap_8ixx.html" target="_top" xlink:title="Mapping of uniform names to values used by shader programs.">
<polygon fill="white" stroke="#666666" points="343,-206 209,-206 209,-176 343,-176 343,-206"/>
<text text-anchor="start" x="217" y="-194" font-family="Helvetica,sans-Serif" font-size="10.00">helios.rendering.shader.</text>
<text text-anchor="middle" x="276" y="-183" font-family="Helvetica,sans-Serif" font-size="10.00">UniformValueMap</text>
</a>
</g>
</g>
<!-- Node1&#45;&gt;Node2 -->
<g id="edge1_Node000001_Node000002" class="edge">
<title>Node1&#45;&gt;Node2</title>
<g id="a_edge1_Node000001_Node000002"><a xlink:title=" ">
<path fill="none" stroke="#63b8ff" d="M658.63,-246.42C576.79,-234.78 439.04,-215.19 353.06,-202.96"/>
<polygon fill="#63b8ff" stroke="#63b8ff" points="353.49,-199.49 343.09,-201.54 352.5,-206.42 353.49,-199.49"/>
</a>
</g>
</g>
<!-- Node8 -->
<g id="Node000008" class="node">
<title>Node8</title>
<g id="a_Node000008"><a xlink:href="Logger_8ixx.html" target="_top" xlink:title="Simple synchronous logger with configurable output sinks.">
<polygon fill="white" stroke="#666666" points="983.5,-134.5 864.5,-134.5 864.5,-115.5 983.5,-115.5 983.5,-134.5"/>
<text text-anchor="middle" x="924" y="-122.5" font-family="Helvetica,sans-Serif" font-size="10.00">helios.util.log.Logger</text>
</a>
</g>
</g>
<!-- Node1&#45;&gt;Node8 -->
<g id="edge8_Node000001_Node000008" class="edge">
<title>Node1&#45;&gt;Node8</title>
<g id="a_edge8_Node000001_Node000008"><a xlink:title=" ">
<path fill="none" stroke="#63b8ff" d="M749.9,-241.91C766.38,-232.08 788.7,-218.53 808,-206 842.06,-183.9 880.71,-156.83 903.69,-140.52"/>
<polygon fill="#63b8ff" stroke="#63b8ff" points="905.84,-143.29 911.96,-134.64 901.78,-137.58 905.84,-143.29"/>
</a>
</g>
</g>
<!-- Node14 -->
<g id="Node000014" class="node">
<title>Node14</title>
<g id="a_Node000014"><a xlink:href="LogManager_8ixx.html" target="_top" xlink:title="Central manager for scoped loggers with configurable sinks.">
<polygon fill="white" stroke="#666666" points="799,-200.5 653,-200.5 653,-181.5 799,-181.5 799,-200.5"/>
<text text-anchor="middle" x="726" y="-188.5" font-family="Helvetica,sans-Serif" font-size="10.00">helios.util.log.LogManager</text>
</a>
</g>
</g>
<!-- Node1&#45;&gt;Node14 -->
<g id="edge15_Node000001_Node000014" class="edge">
<title>Node1&#45;&gt;Node14</title>
<g id="a_edge15_Node000001_Node000014"><a xlink:title=" ">
<path fill="none" stroke="#63b8ff" d="M726,-241.8C726,-232.7 726,-220.79 726,-210.9"/>
<polygon fill="#63b8ff" stroke="#63b8ff" points="729.5,-210.84 726,-200.84 722.5,-210.84 729.5,-210.84"/>
</a>
</g>
</g>
<!-- Node3 -->
<g id="Node000003" class="node">
<title>Node3</title>
<g id="a_Node000003"><a xlink:title=" ">
<polygon fill="#e0e0e0" stroke="#999999" points="194,-134.5 152,-134.5 152,-115.5 194,-115.5 194,-134.5"/>
<text text-anchor="middle" x="173" y="-122.5" font-family="Helvetica,sans-Serif" font-size="10.00">array</text>
</a>
</g>
</g>
<!-- Node2&#45;&gt;Node3 -->
<g id="edge2_Node000002_Node000003" class="edge">
<title>Node2&#45;&gt;Node3</title>
<g id="a_edge2_Node000002_Node000003"><a xlink:title=" ">
<path fill="none" stroke="#63b8ff" d="M253.4,-175.95C236.21,-165.27 212.67,-150.65 195.51,-139.98"/>
<polygon fill="#63b8ff" stroke="#63b8ff" points="197.05,-136.82 186.71,-134.52 193.35,-142.77 197.05,-136.82"/>
</a>
</g>
</g>
<!-- Node4 -->
<g id="Node000004" class="node">
<title>Node4</title>
<g id="a_Node000004"><a xlink:title=" ">
<polygon fill="#e0e0e0" stroke="#999999" points="268,-134.5 212,-134.5 212,-115.5 268,-115.5 268,-134.5"/>
<text text-anchor="middle" x="240" y="-122.5" font-family="Helvetica,sans-Serif" font-size="10.00">optional</text>
</a>
</g>
</g>
<!-- Node2&#45;&gt;Node4 -->
<g id="edge3_Node000002_Node000004" class="edge">
<title>Node2&#45;&gt;Node4</title>
<g id="a_edge3_Node000002_Node000004"><a xlink:title=" ">
<path fill="none" stroke="#63b8ff" d="M268.01,-175.8C262.67,-166.31 255.61,-153.76 249.92,-143.63"/>
<polygon fill="#63b8ff" stroke="#63b8ff" points="252.93,-141.84 244.97,-134.84 246.83,-145.28 252.93,-141.84"/>
</a>
</g>
</g>
<!-- Node5 -->
<g id="Node000005" class="node">
<title>Node5</title>
<g id="a_Node000005"><a xlink:title=" ">
<polygon fill="#e0e0e0" stroke="#999999" points="337.5,-134.5 286.5,-134.5 286.5,-115.5 337.5,-115.5 337.5,-134.5"/>
<text text-anchor="middle" x="312" y="-122.5" font-family="Helvetica,sans-Serif" font-size="10.00">variant</text>
</a>
</g>
</g>
<!-- Node2&#45;&gt;Node5 -->
<g id="edge4_Node000002_Node000005" class="edge">
<title>Node2&#45;&gt;Node5</title>
<g id="a_edge4_Node000002_Node000005"><a xlink:title=" ">
<path fill="none" stroke="#63b8ff" d="M283.99,-175.8C289.33,-166.31 296.39,-153.76 302.08,-143.63"/>
<polygon fill="#63b8ff" stroke="#63b8ff" points="305.17,-145.28 307.03,-134.84 299.07,-141.84 305.17,-145.28"/>
</a>
</g>
</g>
<!-- Node6 -->
<g id="Node000006" class="node">
<title>Node6</title>
<g id="a_Node000006"><a xlink:href="helios_2math_2types_2__module_8ixx.html" target="_top" xlink:title="Module exports for vector and matrix type definitions.">
<polygon fill="white" stroke="#666666" points="460,-134.5 356,-134.5 356,-115.5 460,-115.5 460,-134.5"/>
<text text-anchor="middle" x="408" y="-122.5" font-family="Helvetica,sans-Serif" font-size="10.00">helios.math.types</text>
</a>
</g>
</g>
<!-- Node2&#45;&gt;Node6 -->
<g id="edge5_Node000002_Node000006" class="edge">
<title>Node2&#45;&gt;Node6</title>
<g id="a_edge5_Node000002_Node000006"><a xlink:title=" ">
<path fill="none" stroke="#63b8ff" d="M304.97,-175.95C327.71,-164.93 359.12,-149.7 381.27,-138.96"/>
<polygon fill="#63b8ff" stroke="#63b8ff" points="382.96,-142.03 390.43,-134.52 379.91,-135.73 382.96,-142.03"/>
</a>
</g>
</g>
<!-- Node7 -->
<g id="Node000007" class="node">
<title>Node7</title>
<g id="a_Node000007"><a xlink:href="UniformSemantics_8ixx.html" target="_top" xlink:title="Definitions of uniform semantics used by shaders.">
<polygon fill="white" stroke="#666666" points="134,-140 0,-140 0,-110 134,-110 134,-140"/>
<text text-anchor="start" x="8" y="-128" font-family="Helvetica,sans-Serif" font-size="10.00">helios.rendering.shader.</text>
<text text-anchor="middle" x="67" y="-117" font-family="Helvetica,sans-Serif" font-size="10.00">UniformSemantics</text>
</a>
</g>
</g>
<!-- Node2&#45;&gt;Node7 -->
<g id="edge7_Node000002_Node000007" class="edge">
<title>Node2&#45;&gt;Node7</title>
<g id="a_edge7_Node000002_Node000007"><a xlink:title=" ">
<path fill="none" stroke="#63b8ff" d="M230.13,-175.95C198.42,-166.24 156.05,-153.27 122.44,-142.98"/>
<polygon fill="#63b8ff" stroke="#63b8ff" points="123.35,-139.59 112.76,-140.01 121.3,-146.29 123.35,-139.59"/>
</a>
</g>
</g>
<!-- Node6&#45;&gt;Node6 -->
<g id="edge6_Node000006_Node000006" class="edge">
<title>Node6&#45;&gt;Node6</title>
<g id="a_edge6_Node000006_Node000006"><a xlink:title=" ">
<path fill="none" stroke="#63b8ff" d="M433.85,-134.53C455.44,-138.61 478,-135.43 478,-125 478,-116.2 461.94,-112.56 443.95,-114.09"/>
<polygon fill="#63b8ff" stroke="#63b8ff" points="443.28,-110.65 433.85,-115.47 444.23,-117.58 443.28,-110.65"/>
</a>
</g>
</g>
<!-- Node9 -->
<g id="Node000009" class="node">
<title>Node9</title>
<g id="a_Node000009"><a xlink:title=" ">
<polygon fill="#e0e0e0" stroke="#999999" points="936,-19 892,-19 892,0 936,0 936,-19"/>
<text text-anchor="middle" x="914" y="-7" font-family="Helvetica,sans-Serif" font-size="10.00">string</text>
</a>
</g>
</g>
<!-- Node8&#45;&gt;Node9 -->
<g id="edge9_Node000008_Node000009" class="edge">
<title>Node8&#45;&gt;Node9</title>
<g id="a_edge9_Node000008_Node000009"><a xlink:title=" ">
<path fill="none" stroke="#63b8ff" d="M923.25,-115.47C921.64,-97.23 917.84,-54.07 915.64,-29.14"/>
<polygon fill="#63b8ff" stroke="#63b8ff" points="919.12,-28.78 914.76,-19.13 912.15,-29.4 919.12,-28.78"/>
</a>
</g>
</g>
<!-- Node10 -->
<g id="Node000010" class="node">
<title>Node10</title>
<g id="a_Node000010"><a xlink:title=" ">
<polygon fill="#e0e0e0" stroke="#999999" points="752.5,-74 705.5,-74 705.5,-55 752.5,-55 752.5,-74"/>
<text text-anchor="middle" x="729" y="-62" font-family="Helvetica,sans-Serif" font-size="10.00">vector</text>
</a>
</g>
</g>
<!-- Node8&#45;&gt;Node10 -->
<g id="edge10_Node000008_Node000010" class="edge">
<title>Node8&#45;&gt;Node10</title>
<g id="a_edge10_Node000008_Node000010"><a xlink:title=" ">
<path fill="none" stroke="#63b8ff" d="M895.65,-115.49C860.4,-104.92 800.33,-86.9 762.75,-75.63"/>
<polygon fill="#63b8ff" stroke="#63b8ff" points="763.37,-72.16 752.79,-72.64 761.36,-78.86 763.37,-72.16"/>
</a>
</g>
</g>
<!-- Node11 -->
<g id="Node000011" class="node">
<title>Node11</title>
<g id="a_Node000011"><a xlink:title=" ">
<polygon fill="#e0e0e0" stroke="#999999" points="872,-74 814,-74 814,-55 872,-55 872,-74"/>
<text text-anchor="middle" x="843" y="-62" font-family="Helvetica,sans-Serif" font-size="10.00">memory</text>
</a>
</g>
</g>
<!-- Node8&#45;&gt;Node11 -->
<g id="edge11_Node000008_Node000011" class="edge">
<title>Node8&#45;&gt;Node11</title>
<g id="a_edge11_Node000008_Node000011"><a xlink:title=" ">
<path fill="none" stroke="#63b8ff" d="M912.05,-115.37C899.25,-106.12 878.7,-91.28 863.35,-80.19"/>
<polygon fill="#63b8ff" stroke="#63b8ff" points="865.16,-77.18 855,-74.17 861.06,-82.86 865.16,-77.18"/>
</a>
</g>
</g>
<!-- Node12 -->
<g id="Node000012" class="node">
<title>Node12</title>
<g id="a_Node000012"><a xlink:title=" ">
<polygon fill="#e0e0e0" stroke="#999999" points="652,-74 604,-74 604,-55 652,-55 652,-74"/>
<text text-anchor="middle" x="628" y="-62" font-family="Helvetica,sans-Serif" font-size="10.00">mutex</text>
</a>
</g>
</g>
<!-- Node8&#45;&gt;Node12 -->
<g id="edge12_Node000008_Node000012" class="edge">
<title>Node8&#45;&gt;Node12</title>
<g id="a_edge12_Node000008_Node000012"><a xlink:title=" ">
<path fill="none" stroke="#63b8ff" d="M880.96,-115.49C821.73,-103.79 716.31,-82.95 662.16,-72.25"/>
<polygon fill="#63b8ff" stroke="#63b8ff" points="662.54,-68.76 652.05,-70.25 661.18,-75.63 662.54,-68.76"/>
</a>
</g>
</g>
<!-- Node13 -->
<g id="Node000013" class="node">
<title>Node13</title>
<g id="a_Node000013"><a xlink:href="LogSink_8ixx.html" target="_top" xlink:title="Abstract interface for log output destinations.">
<polygon fill="white" stroke="#666666" points="1066,-74 942,-74 942,-55 1066,-55 1066,-74"/>
<text text-anchor="middle" x="1004" y="-62" font-family="Helvetica,sans-Serif" font-size="10.00">helios.util.log.LogSink</text>
</a>
</g>
</g>
<!-- Node8&#45;&gt;Node13 -->
<g id="edge13_Node000008_Node000013" class="edge">
<title>Node8&#45;&gt;Node13</title>
<g id="a_edge13_Node000008_Node000013"><a xlink:title=" ">
<path fill="none" stroke="#63b8ff" d="M935.8,-115.37C948.45,-106.12 968.74,-91.28 983.91,-80.19"/>
<polygon fill="#63b8ff" stroke="#63b8ff" points="986.14,-82.9 992.15,-74.17 982.01,-77.24 986.14,-82.9"/>
</a>
</g>
</g>
<!-- Node13&#45;&gt;Node9 -->
<g id="edge14_Node000013_Node000009" class="edge">
<title>Node13&#45;&gt;Node9</title>
<g id="a_edge14_Node000013_Node000009"><a xlink:title=" ">
<path fill="none" stroke="#63b8ff" d="M989.54,-54.98C975.58,-46.77 954.21,-34.18 937.75,-24.49"/>
<polygon fill="#63b8ff" stroke="#63b8ff" points="939.12,-21.23 928.72,-19.17 935.56,-27.26 939.12,-21.23"/>
</a>
</g>
</g>
<!-- Node14&#45;&gt;Node8 -->
<g id="edge22_Node000014_Node000008" class="edge">
<title>Node14&#45;&gt;Node8</title>
<g id="a_edge22_Node000014_Node000008"><a xlink:title=" ">
<path fill="none" stroke="#63b8ff" d="M752.7,-181.37C787.49,-170.12 848.46,-150.42 887.5,-137.8"/>
<polygon fill="#63b8ff" stroke="#63b8ff" points="888.97,-141 897.4,-134.6 886.81,-134.34 888.97,-141"/>
</a>
</g>
</g>
<!-- Node14&#45;&gt;Node9 -->
<g id="edge16_Node000014_Node000009" class="edge">
<title>Node14&#45;&gt;Node9</title>
<g id="a_edge16_Node000014_Node000009"><a xlink:title=" ">
<path fill="none" stroke="#63b8ff" d="M671.81,-181.47C626.93,-173.17 568.28,-159.03 554,-140 546,-129.34 549.8,-122.66 554,-110 563.6,-81.06 568.76,-70.53 595,-55 643.06,-26.56 810.33,-15.41 881.52,-11.88"/>
<polygon fill="#63b8ff" stroke="#63b8ff" points="881.87,-15.37 891.7,-11.4 881.54,-8.38 881.87,-15.37"/>
</a>
</g>
</g>
<!-- Node14&#45;&gt;Node10 -->
<g id="edge21_Node000014_Node000010" class="edge">
<title>Node14&#45;&gt;Node10</title>
<g id="a_edge21_Node000014_Node000010"><a xlink:title=" ">
<path fill="none" stroke="#63b8ff" d="M722.61,-181.11C717.4,-166.33 708.51,-135.78 713,-110 714.57,-101 717.8,-91.42 720.94,-83.46"/>
<polygon fill="#63b8ff" stroke="#63b8ff" points="724.22,-84.69 724.89,-74.12 717.77,-81.97 724.22,-84.69"/>
</a>
</g>
</g>
<!-- Node14&#45;&gt;Node11 -->
<g id="edge19_Node000014_Node000011" class="edge">
<title>Node14&#45;&gt;Node11</title>
<g id="a_edge19_Node000014_Node000011"><a xlink:title=" ">
<path fill="none" stroke="#63b8ff" d="M752.55,-181.37C772.8,-173.53 800,-160.09 817,-140 830.51,-124.02 837.16,-100.59 840.32,-84.28"/>
<polygon fill="#63b8ff" stroke="#63b8ff" points="843.79,-84.76 841.99,-74.31 836.88,-83.6 843.79,-84.76"/>
</a>
</g>
</g>
<!-- Node14&#45;&gt;Node12 -->
<g id="edge20_Node000014_Node000012" class="edge">
<title>Node14&#45;&gt;Node12</title>
<g id="a_edge20_Node000014_Node000012"><a xlink:title=" ">
<path fill="none" stroke="#63b8ff" d="M652.65,-186.49C619.71,-180.8 583.67,-167.97 563,-140 555.07,-129.28 556.78,-121.79 563,-110 570.24,-96.27 583.83,-85.97 596.72,-78.76"/>
<polygon fill="#63b8ff" stroke="#63b8ff" points="598.59,-81.73 605.88,-74.05 595.39,-75.51 598.59,-81.73"/>
</a>
</g>
</g>
<!-- Node14&#45;&gt;Node13 -->
<g id="edge23_Node000014_Node000013" class="edge">
<title>Node14&#45;&gt;Node13</title>
<g id="a_edge23_Node000014_Node000013"><a xlink:title=" ">
<path fill="none" stroke="#63b8ff" d="M799.12,-185.68C868.78,-179.96 966.8,-167.23 993,-140 1006.99,-125.46 1008.11,-101.36 1006.79,-84.52"/>
<polygon fill="#63b8ff" stroke="#63b8ff" points="1010.23,-83.77 1005.62,-74.23 1003.27,-84.57 1010.23,-83.77"/>
</a>
</g>
</g>
<!-- Node15 -->
<g id="Node000015" class="node">
<title>Node15</title>
<g id="a_Node000015"><a xlink:title=" ">
<polygon fill="#e0e0e0" stroke="#999999" points="665.5,-134.5 572.5,-134.5 572.5,-115.5 665.5,-115.5 665.5,-134.5"/>
<text text-anchor="middle" x="619" y="-122.5" font-family="Helvetica,sans-Serif" font-size="10.00">unordered_map</text>
</a>
</g>
</g>
<!-- Node14&#45;&gt;Node15 -->
<g id="edge17_Node000014_Node000015" class="edge">
<title>Node14&#45;&gt;Node15</title>
<g id="a_edge17_Node000014_Node000015"><a xlink:title=" ">
<path fill="none" stroke="#63b8ff" d="M711.57,-181.37C693.78,-170.73 663.32,-152.51 642.22,-139.89"/>
<polygon fill="#63b8ff" stroke="#63b8ff" points="643.92,-136.83 633.54,-134.7 640.33,-142.84 643.92,-136.83"/>
</a>
</g>
</g>
<!-- Node16 -->
<g id="Node000016" class="node">
<title>Node16</title>
<g id="a_Node000016"><a xlink:title=" ">
<polygon fill="#e0e0e0" stroke="#999999" points="808,-134.5 722,-134.5 722,-115.5 808,-115.5 808,-134.5"/>
<text text-anchor="middle" x="765" y="-122.5" font-family="Helvetica,sans-Serif" font-size="10.00">unordered_set</text>
</a>
</g>
</g>
<!-- Node14&#45;&gt;Node16 -->
<g id="edge18_Node000014_Node000016" class="edge">
<title>Node14&#45;&gt;Node16</title>
<g id="a_edge18_Node000014_Node000016"><a xlink:title=" ">
<path fill="none" stroke="#63b8ff" d="M731.26,-181.37C737.1,-171.78 746.69,-156.05 754.15,-143.8"/>
<polygon fill="#63b8ff" stroke="#63b8ff" points="757.36,-145.27 759.57,-134.91 751.38,-141.62 757.36,-145.27"/>
</a>
</g>
</g>
</g>
</svg>
