<?xml version="1.0" encoding="UTF-8" standalone="no"?>
<!DOCTYPE svg PUBLIC "-//W3C//DTD SVG 1.1//EN"
 "http://www.w3.org/Graphics/SVG/1.1/DTD/svg11.dtd">
<!-- Generated by graphviz version 2.43.0 (0)
 -->
<!-- Title: include/helios/rendering/asset/shape/Shape.ixx Pages: 1 -->
<svg width="467pt" height="161pt"
 viewBox="0.00 0.00 467.00 161.17" xmlns="http://www.w3.org/2000/svg" xmlns:xlink="http://www.w3.org/1999/xlink">
<g id="graph0" class="graph" transform="scale(1 1) rotate(0) translate(4 157.17)">
<title>include/helios/rendering/asset/shape/Shape.ixx</title>
<!-- Node1 -->
<g id="Node000001" class="node">
<title>Node1</title>
<g id="a_Node000001"><a xlink:title="Interface for simple geometric shapes used for testing and debugging.">
<polygon fill="#999999" stroke="#666666" points="229,-153.17 95,-153.17 95,-123.17 229,-123.17 229,-153.17"/>
<text text-anchor="start" x="103" y="-141.17" font-family="Helvetica,sans-Serif" font-size="10.00">include/helios/rendering</text>
<text text-anchor="middle" x="162" y="-130.17" font-family="Helvetica,sans-Serif" font-size="10.00">/asset/shape/Shape.ixx</text>
</a>
</g>
</g>
<!-- Node2 -->
<g id="Node000002" class="node">
<title>Node2</title>
<g id="a_Node000002"><a xlink:title=" ">
<polygon fill="#e0e0e0" stroke="#999999" points="58,-81.67 0,-81.67 0,-62.67 58,-62.67 58,-81.67"/>
<text text-anchor="middle" x="29" y="-69.67" font-family="Helvetica,sans-Serif" font-size="10.00">memory</text>
</a>
</g>
</g>
<!-- Node1&#45;&gt;Node2 -->
<g id="edge1_Node000001_Node000002" class="edge">
<title>Node1&#45;&gt;Node2</title>
<g id="a_edge1_Node000001_Node000002"><a xlink:title=" ">
<path fill="none" stroke="#63b8ff" d="M132.81,-123.13C109.9,-112.1 78.25,-96.87 55.93,-86.14"/>
<polygon fill="#63b8ff" stroke="#63b8ff" points="57.23,-82.87 46.7,-81.69 54.19,-89.18 57.23,-82.87"/>
</a>
</g>
</g>
<!-- Node3 -->
<g id="Node000003" class="node">
<title>Node3</title>
<g id="a_Node000003"><a xlink:title=" ">
<polygon fill="#e0e0e0" stroke="#999999" points="123.5,-81.67 76.5,-81.67 76.5,-62.67 123.5,-62.67 123.5,-81.67"/>
<text text-anchor="middle" x="100" y="-69.67" font-family="Helvetica,sans-Serif" font-size="10.00">vector</text>
</a>
</g>
</g>
<!-- Node1&#45;&gt;Node3 -->
<g id="edge2_Node000001_Node000003" class="edge">
<title>Node1&#45;&gt;Node3</title>
<g id="a_edge2_Node000001_Node000003"><a xlink:title=" ">
<path fill="none" stroke="#63b8ff" d="M148.24,-122.97C138.57,-112.99 125.63,-99.63 115.58,-89.26"/>
<polygon fill="#63b8ff" stroke="#63b8ff" points="118.04,-86.77 108.57,-82.02 113.01,-91.64 118.04,-86.77"/>
</a>
</g>
</g>
<!-- Node4 -->
<g id="Node000004" class="node">
<title>Node4</title>
<g id="a_Node000004"><a xlink:href="PrimitiveType_8ixx.html" target="_top" xlink:title="Enum of primitive types for mesh rendering.">
<polygon fill="white" stroke="#666666" points="306,-87.17 142,-87.17 142,-57.17 306,-57.17 306,-87.17"/>
<text text-anchor="start" x="150" y="-75.17" font-family="Helvetica,sans-Serif" font-size="10.00">helios.rendering.model.config.</text>
<text text-anchor="middle" x="224" y="-64.17" font-family="Helvetica,sans-Serif" font-size="10.00">PrimitiveType</text>
</a>
</g>
</g>
<!-- Node1&#45;&gt;Node4 -->
<g id="edge3_Node000001_Node000004" class="edge">
<title>Node1&#45;&gt;Node4</title>
<g id="a_edge3_Node000001_Node000004"><a xlink:title=" ">
<path fill="none" stroke="#63b8ff" d="M175.76,-122.97C183.79,-114.69 194.07,-104.07 203.09,-94.76"/>
<polygon fill="#63b8ff" stroke="#63b8ff" points="205.83,-96.96 210.28,-87.34 200.81,-92.09 205.83,-96.96"/>
</a>
</g>
</g>
<!-- Node5 -->
<g id="Node000005" class="node">
<title>Node5</title>
<g id="a_Node000005"><a xlink:href="Vertex_8ixx.html" target="_top" xlink:title="Vertex description and utilities for rendering.">
<polygon fill="white" stroke="#666666" points="454,-81.67 324,-81.67 324,-62.67 454,-62.67 454,-81.67"/>
<text text-anchor="middle" x="389" y="-69.67" font-family="Helvetica,sans-Serif" font-size="10.00">helios.rendering.Vertex</text>
</a>
</g>
</g>
<!-- Node1&#45;&gt;Node5 -->
<g id="edge4_Node000001_Node000005" class="edge">
<title>Node1&#45;&gt;Node5</title>
<g id="a_edge4_Node000001_Node000005"><a xlink:title=" ">
<path fill="none" stroke="#63b8ff" d="M211.82,-123.13C253.03,-111.51 310.8,-95.22 349.04,-84.44"/>
<polygon fill="#63b8ff" stroke="#63b8ff" points="350.12,-87.77 358.79,-81.69 348.22,-81.04 350.12,-87.77"/>
</a>
</g>
</g>
<!-- Node6 -->
<g id="Node000006" class="node">
<title>Node6</title>
<g id="a_Node000006"><a xlink:href="helios_2math_2types_2__module_8ixx.html" target="_top" xlink:title="Module exports for vector and matrix type definitions.">
<polygon fill="white" stroke="#666666" points="441,-21.17 337,-21.17 337,-2.17 441,-2.17 441,-21.17"/>
<text text-anchor="middle" x="389" y="-9.17" font-family="Helvetica,sans-Serif" font-size="10.00">helios.math.types</text>
</a>
</g>
</g>
<!-- Node5&#45;&gt;Node6 -->
<g id="edge5_Node000005_Node000006" class="edge">
<title>Node5&#45;&gt;Node6</title>
<g id="a_edge5_Node000005_Node000006"><a xlink:title=" ">
<path fill="none" stroke="#63b8ff" d="M389,-62.54C389,-54.42 389,-41.98 389,-31.56"/>
<polygon fill="#63b8ff" stroke="#63b8ff" points="392.5,-31.34 389,-21.34 385.5,-31.34 392.5,-31.34"/>
</a>
</g>
</g>
<!-- Node6&#45;&gt;Node6 -->
<g id="edge6_Node000006_Node000006" class="edge">
<title>Node6&#45;&gt;Node6</title>
<g id="a_edge6_Node000006_Node000006"><a xlink:title=" ">
<path fill="none" stroke="#63b8ff" d="M414.85,-21.21C436.44,-25.28 459,-22.1 459,-11.67 459,-2.87 442.94,0.76 424.95,-0.76"/>
<polygon fill="#63b8ff" stroke="#63b8ff" points="424.28,2.68 414.85,-2.14 425.23,-4.26 424.28,2.68"/>
</a>
</g>
</g>
</g>
</svg>
