<?xml version="1.0" encoding="UTF-8" standalone="no"?>
<!DOCTYPE svg PUBLIC "-//W3C//DTD SVG 1.1//EN"
 "http://www.w3.org/Graphics/SVG/1.1/DTD/svg11.dtd">
<!-- Generated by graphviz version 2.43.0 (0)
 -->
<!-- Title: include/helios/scene/SnapshotItem.ixx Pages: 1 -->
<svg width="1918pt" height="522pt"
 viewBox="0.00 0.00 1918.00 522.00" xmlns="http://www.w3.org/2000/svg" xmlns:xlink="http://www.w3.org/1999/xlink">
<g id="graph0" class="graph" transform="scale(1 1) rotate(0) translate(4 518)">
<title>include/helios/scene/SnapshotItem.ixx</title>
<!-- Node1 -->
<g id="Node000001" class="node">
<title>Node1</title>
<g id="a_Node000001"><a xlink:title="Snapshot item bundling a Renderable reference and its world matrix.">
<polygon fill="#999999" stroke="#666666" points="701,-514 585,-514 585,-484 701,-484 701,-514"/>
<text text-anchor="start" x="593" y="-502" font-family="Helvetica,sans-Serif" font-size="10.00">include/helios/scene</text>
<text text-anchor="middle" x="643" y="-491" font-family="Helvetica,sans-Serif" font-size="10.00">/SnapshotItem.ixx</text>
</a>
</g>
</g>
<!-- Node2 -->
<g id="Node000002" class="node">
<title>Node2</title>
<g id="a_Node000002"><a xlink:title=" ">
<polygon fill="#e0e0e0" stroke="#999999" points="1806,-79.5 1748,-79.5 1748,-60.5 1806,-60.5 1806,-79.5"/>
<text text-anchor="middle" x="1777" y="-67.5" font-family="Helvetica,sans-Serif" font-size="10.00">memory</text>
</a>
</g>
</g>
<!-- Node1&#45;&gt;Node2 -->
<g id="edge1_Node000001_Node000002" class="edge">
<title>Node1&#45;&gt;Node2</title>
<g id="a_edge1_Node000001_Node000002"><a xlink:title=" ">
<path fill="none" stroke="#63b8ff" d="M701.15,-495.88C949.67,-486.45 1910,-446.03 1910,-384.5 1910,-384.5 1910,-384.5 1910,-201 1910,-143.7 1846.09,-103.37 1806.87,-84.02"/>
<polygon fill="#63b8ff" stroke="#63b8ff" points="1808.02,-80.69 1797.49,-79.55 1805.02,-87.01 1808.02,-80.69"/>
</a>
</g>
</g>
<!-- Node3 -->
<g id="Node000003" class="node">
<title>Node3</title>
<g id="a_Node000003"><a xlink:href="helios_2math_2types_2__module_8ixx.html" target="_top" xlink:title="Module exports for vector and matrix type definitions.">
<polygon fill="white" stroke="#666666" points="239,-79.5 135,-79.5 135,-60.5 239,-60.5 239,-79.5"/>
<text text-anchor="middle" x="187" y="-67.5" font-family="Helvetica,sans-Serif" font-size="10.00">helios.math.types</text>
</a>
</g>
</g>
<!-- Node1&#45;&gt;Node3 -->
<g id="edge2_Node000001_Node000003" class="edge">
<title>Node1&#45;&gt;Node3</title>
<g id="a_edge2_Node000001_Node000003"><a xlink:title=" ">
<path fill="none" stroke="#63b8ff" d="M584.99,-493.2C433.56,-479.88 38,-439.8 38,-384.5 38,-384.5 38,-384.5 38,-267 38,-230.46 38.28,-218.39 57,-187 83.98,-141.76 134.41,-104.39 163.91,-85.12"/>
<polygon fill="#63b8ff" stroke="#63b8ff" points="166.14,-87.84 172.69,-79.51 162.38,-81.94 166.14,-87.84"/>
</a>
</g>
</g>
<!-- Node4 -->
<g id="Node000004" class="node">
<title>Node4</title>
<g id="a_Node000004"><a xlink:href="Renderable_8ixx.html" target="_top" xlink:title="Representative of a configurable Renderable rendered by the underlying GL API.">
<polygon fill="white" stroke="#666666" points="720,-448 566,-448 566,-429 720,-429 720,-448"/>
<text text-anchor="middle" x="643" y="-436" font-family="Helvetica,sans-Serif" font-size="10.00">helios.rendering.Renderable</text>
</a>
</g>
</g>
<!-- Node1&#45;&gt;Node4 -->
<g id="edge4_Node000001_Node000004" class="edge">
<title>Node1&#45;&gt;Node4</title>
<g id="a_edge4_Node000001_Node000004"><a xlink:title=" ">
<path fill="none" stroke="#63b8ff" d="M643,-483.84C643,-476.21 643,-466.7 643,-458.45"/>
<polygon fill="#63b8ff" stroke="#63b8ff" points="646.5,-458.27 643,-448.27 639.5,-458.27 646.5,-458.27"/>
</a>
</g>
</g>
<!-- Node3&#45;&gt;Node3 -->
<g id="edge3_Node000003_Node000003" class="edge">
<title>Node3&#45;&gt;Node3</title>
<g id="a_edge3_Node000003_Node000003"><a xlink:title=" ">
<path fill="none" stroke="#63b8ff" d="M212.85,-79.53C234.44,-83.61 257,-80.43 257,-70 257,-61.2 240.94,-57.56 222.95,-59.09"/>
<polygon fill="#63b8ff" stroke="#63b8ff" points="222.28,-55.65 212.85,-60.47 223.23,-62.58 222.28,-55.65"/>
</a>
</g>
</g>
<!-- Node4&#45;&gt;Node2 -->
<g id="edge5_Node000004_Node000002" class="edge">
<title>Node4&#45;&gt;Node2</title>
<g id="a_edge5_Node000004_Node000002"><a xlink:title=" ">
<path fill="none" stroke="#63b8ff" d="M720.35,-434.77C989.95,-424.76 1872,-387.57 1872,-329.5 1872,-329.5 1872,-329.5 1872,-201 1872,-151.09 1825.8,-107.57 1797.83,-85.8"/>
<polygon fill="#63b8ff" stroke="#63b8ff" points="1799.91,-82.98 1789.81,-79.76 1795.69,-88.57 1799.91,-82.98"/>
</a>
</g>
</g>
<!-- Node5 -->
<g id="Node000005" class="node">
<title>Node5</title>
<g id="a_Node000005"><a xlink:title=" ">
<polygon fill="#e0e0e0" stroke="#999999" points="66,-79.5 10,-79.5 10,-60.5 66,-60.5 66,-79.5"/>
<text text-anchor="middle" x="38" y="-67.5" font-family="Helvetica,sans-Serif" font-size="10.00">optional</text>
</a>
</g>
</g>
<!-- Node4&#45;&gt;Node5 -->
<g id="edge6_Node000004_Node000005" class="edge">
<title>Node4&#45;&gt;Node5</title>
<g id="a_edge6_Node000004_Node000005"><a xlink:title=" ">
<path fill="none" stroke="#63b8ff" d="M565.81,-433.02C462.46,-426.4 284.96,-412.61 223,-393 114.88,-358.78 0,-382.4 0,-269 0,-269 0,-269 0,-201 0,-159.44 18.11,-113.3 29.33,-88.71"/>
<polygon fill="#63b8ff" stroke="#63b8ff" points="32.54,-90.11 33.64,-79.57 26.21,-87.12 32.54,-90.11"/>
</a>
</g>
</g>
<!-- Node6 -->
<g id="Node000006" class="node">
<title>Node6</title>
<g id="a_Node000006"><a xlink:title=" ">
<polygon fill="#e0e0e0" stroke="#999999" points="465.5,-211.5 400.5,-211.5 400.5,-192.5 465.5,-192.5 465.5,-211.5"/>
<text text-anchor="middle" x="433" y="-199.5" font-family="Helvetica,sans-Serif" font-size="10.00">stdexcept</text>
</a>
</g>
</g>
<!-- Node4&#45;&gt;Node6 -->
<g id="edge7_Node000004_Node000006" class="edge">
<title>Node4&#45;&gt;Node6</title>
<g id="a_edge7_Node000004_Node000006"><a xlink:title=" ">
<path fill="none" stroke="#63b8ff" d="M634.08,-428.72C610.69,-405.56 545.93,-340.65 496,-283 477.64,-261.8 457.84,-236.16 445.44,-219.72"/>
<polygon fill="#63b8ff" stroke="#63b8ff" points="448.17,-217.52 439.37,-211.62 442.57,-221.72 448.17,-217.52"/>
</a>
</g>
</g>
<!-- Node7 -->
<g id="Node000007" class="node">
<title>Node7</title>
<g id="a_Node000007"><a xlink:href="LogManager_8ixx.html" target="_top" xlink:title="Central manager for scoped loggers with configurable sinks.">
<polygon fill="white" stroke="#666666" points="1332,-211.5 1186,-211.5 1186,-192.5 1332,-192.5 1332,-211.5"/>
<text text-anchor="middle" x="1259" y="-199.5" font-family="Helvetica,sans-Serif" font-size="10.00">helios.util.log.LogManager</text>
</a>
</g>
</g>
<!-- Node4&#45;&gt;Node7 -->
<g id="edge8_Node000004_Node000007" class="edge">
<title>Node4&#45;&gt;Node7</title>
<g id="a_edge8_Node000004_Node000007"><a xlink:title=" ">
<path fill="none" stroke="#63b8ff" d="M720.44,-434.86C838.97,-430.08 1059.47,-418.07 1134,-393 1221.43,-363.59 1265.28,-363.68 1310,-283 1316.46,-271.34 1315.16,-265.29 1310,-253 1304.03,-238.79 1291.83,-226.59 1280.86,-217.8"/>
<polygon fill="#63b8ff" stroke="#63b8ff" points="1282.93,-214.98 1272.84,-211.76 1278.73,-220.57 1282.93,-214.98"/>
</a>
</g>
</g>
<!-- Node13 -->
<g id="Node000013" class="node">
<title>Node13</title>
<g id="a_Node000013"><a xlink:href="Logger_8ixx.html" target="_top" xlink:title="Simple synchronous logger with configurable output sinks.">
<polygon fill="white" stroke="#666666" points="1083.5,-145.5 964.5,-145.5 964.5,-126.5 1083.5,-126.5 1083.5,-145.5"/>
<text text-anchor="middle" x="1024" y="-133.5" font-family="Helvetica,sans-Serif" font-size="10.00">helios.util.log.Logger</text>
</a>
</g>
</g>
<!-- Node4&#45;&gt;Node13 -->
<g id="edge23_Node000004_Node000013" class="edge">
<title>Node4&#45;&gt;Node13</title>
<g id="a_edge23_Node000004_Node000013"><a xlink:title=" ">
<path fill="none" stroke="#63b8ff" d="M720.17,-435.81C855.17,-430.74 1120,-410.48 1120,-329.5 1120,-329.5 1120,-329.5 1120,-267 1120,-216.91 1073.31,-173.46 1045.05,-151.75"/>
<polygon fill="#63b8ff" stroke="#63b8ff" points="1047.06,-148.88 1036.95,-145.73 1042.89,-154.5 1047.06,-148.88"/>
</a>
</g>
</g>
<!-- Node15 -->
<g id="Node000015" class="node">
<title>Node15</title>
<g id="a_Node000015"><a xlink:href="UniformValueMap_8ixx.html" target="_top" xlink:title="Mapping of uniform names to values used by shader programs.">
<polygon fill="white" stroke="#666666" points="406,-151 272,-151 272,-121 406,-121 406,-151"/>
<text text-anchor="start" x="280" y="-139" font-family="Helvetica,sans-Serif" font-size="10.00">helios.rendering.shader.</text>
<text text-anchor="middle" x="339" y="-128" font-family="Helvetica,sans-Serif" font-size="10.00">UniformValueMap</text>
</a>
</g>
</g>
<!-- Node4&#45;&gt;Node15 -->
<g id="edge24_Node000004_Node000015" class="edge">
<title>Node4&#45;&gt;Node15</title>
<g id="a_edge24_Node000004_Node000015"><a xlink:title=" ">
<path fill="none" stroke="#63b8ff" d="M565.74,-429.11C479.59,-415.17 344.08,-378.51 281,-283 254.48,-242.85 292.06,-188.7 317.98,-158.92"/>
<polygon fill="#63b8ff" stroke="#63b8ff" points="320.84,-160.97 324.92,-151.19 315.63,-156.29 320.84,-160.97"/>
</a>
</g>
</g>
<!-- Node19 -->
<g id="Node000019" class="node">
<title>Node19</title>
<g id="a_Node000019"><a xlink:href="MaterialPropertiesOverride_8ixx.html" target="_top" xlink:title="Overrides for material properties to customize rendering parameters.">
<polygon fill="white" stroke="#666666" points="230,-217 66,-217 66,-187 230,-187 230,-217"/>
<text text-anchor="start" x="74" y="-205" font-family="Helvetica,sans-Serif" font-size="10.00">helios.rendering.model.config.</text>
<text text-anchor="middle" x="148" y="-194" font-family="Helvetica,sans-Serif" font-size="10.00">MaterialPropertiesOverride</text>
</a>
</g>
</g>
<!-- Node4&#45;&gt;Node19 -->
<g id="edge30_Node000004_Node000019" class="edge">
<title>Node4&#45;&gt;Node19</title>
<g id="a_edge30_Node000004_Node000019"><a xlink:title=" ">
<path fill="none" stroke="#63b8ff" d="M565.65,-437.21C465.56,-435.42 298.08,-427.2 248,-393 189.81,-353.25 163.03,-268.6 153,-227.04"/>
<polygon fill="#63b8ff" stroke="#63b8ff" points="156.4,-226.19 150.75,-217.22 149.57,-227.75 156.4,-226.19"/>
</a>
</g>
</g>
<!-- Node20 -->
<g id="Node000020" class="node">
<title>Node20</title>
<g id="a_Node000020"><a xlink:href="RenderPrototype_8ixx.html" target="_top" xlink:title="An immutable, shared prototype of a renderable object.">
<polygon fill="white" stroke="#666666" points="894,-393 714,-393 714,-374 894,-374 894,-393"/>
<text text-anchor="middle" x="804" y="-381" font-family="Helvetica,sans-Serif" font-size="10.00">helios.rendering.RenderPrototype</text>
</a>
</g>
</g>
<!-- Node4&#45;&gt;Node20 -->
<g id="edge35_Node000004_Node000020" class="edge">
<title>Node4&#45;&gt;Node20</title>
<g id="a_edge35_Node000004_Node000020"><a xlink:title=" ">
<path fill="none" stroke="#63b8ff" d="M668.87,-428.98C695.78,-420.13 738.12,-406.19 768.23,-396.28"/>
<polygon fill="#63b8ff" stroke="#63b8ff" points="769.53,-399.53 777.93,-393.08 767.34,-392.88 769.53,-399.53"/>
</a>
</g>
</g>
<!-- Node7&#45;&gt;Node2 -->
<g id="edge12_Node000007_Node000002" class="edge">
<title>Node7&#45;&gt;Node2</title>
<g id="a_edge12_Node000007_Node000002"><a xlink:title=" ">
<path fill="none" stroke="#63b8ff" d="M1332.16,-198.38C1439.43,-193.59 1633.41,-180.97 1696,-151 1725.87,-136.7 1751.35,-106.84 1765.38,-87.92"/>
<polygon fill="#63b8ff" stroke="#63b8ff" points="1768.34,-89.8 1771.32,-79.63 1762.65,-85.72 1768.34,-89.8"/>
</a>
</g>
</g>
<!-- Node8 -->
<g id="Node000008" class="node">
<title>Node8</title>
<g id="a_Node000008"><a xlink:title=" ">
<polygon fill="#e0e0e0" stroke="#999999" points="1281,-19 1237,-19 1237,0 1281,0 1281,-19"/>
<text text-anchor="middle" x="1259" y="-7" font-family="Helvetica,sans-Serif" font-size="10.00">string</text>
</a>
</g>
</g>
<!-- Node7&#45;&gt;Node8 -->
<g id="edge9_Node000007_Node000008" class="edge">
<title>Node7&#45;&gt;Node8</title>
<g id="a_edge9_Node000007_Node000008"><a xlink:title=" ">
<path fill="none" stroke="#63b8ff" d="M1244.9,-192.3C1232.29,-183.61 1214.65,-168.98 1207,-151 1188.23,-106.92 1223.39,-53.54 1244.59,-27.06"/>
<polygon fill="#63b8ff" stroke="#63b8ff" points="1247.45,-29.1 1251.14,-19.17 1242.06,-24.62 1247.45,-29.1"/>
</a>
</g>
</g>
<!-- Node9 -->
<g id="Node000009" class="node">
<title>Node9</title>
<g id="a_Node000009"><a xlink:title=" ">
<polygon fill="#e0e0e0" stroke="#999999" points="1451.5,-145.5 1358.5,-145.5 1358.5,-126.5 1451.5,-126.5 1451.5,-145.5"/>
<text text-anchor="middle" x="1405" y="-133.5" font-family="Helvetica,sans-Serif" font-size="10.00">unordered_map</text>
</a>
</g>
</g>
<!-- Node7&#45;&gt;Node9 -->
<g id="edge10_Node000007_Node000009" class="edge">
<title>Node7&#45;&gt;Node9</title>
<g id="a_edge10_Node000007_Node000009"><a xlink:title=" ">
<path fill="none" stroke="#63b8ff" d="M1278.69,-192.37C1303.73,-181.39 1347.15,-162.36 1375.98,-149.72"/>
<polygon fill="#63b8ff" stroke="#63b8ff" points="1377.4,-152.92 1385.16,-145.7 1374.59,-146.51 1377.4,-152.92"/>
</a>
</g>
</g>
<!-- Node10 -->
<g id="Node000010" class="node">
<title>Node10</title>
<g id="a_Node000010"><a xlink:title=" ">
<polygon fill="#e0e0e0" stroke="#999999" points="1302,-145.5 1216,-145.5 1216,-126.5 1302,-126.5 1302,-145.5"/>
<text text-anchor="middle" x="1259" y="-133.5" font-family="Helvetica,sans-Serif" font-size="10.00">unordered_set</text>
</a>
</g>
</g>
<!-- Node7&#45;&gt;Node10 -->
<g id="edge11_Node000007_Node000010" class="edge">
<title>Node7&#45;&gt;Node10</title>
<g id="a_edge11_Node000007_Node000010"><a xlink:title=" ">
<path fill="none" stroke="#63b8ff" d="M1259,-192.37C1259,-183.16 1259,-168.29 1259,-156.27"/>
<polygon fill="#63b8ff" stroke="#63b8ff" points="1262.5,-155.91 1259,-145.91 1255.5,-155.91 1262.5,-155.91"/>
</a>
</g>
</g>
<!-- Node11 -->
<g id="Node000011" class="node">
<title>Node11</title>
<g id="a_Node000011"><a xlink:title=" ">
<polygon fill="#e0e0e0" stroke="#999999" points="1145,-79.5 1097,-79.5 1097,-60.5 1145,-60.5 1145,-79.5"/>
<text text-anchor="middle" x="1121" y="-67.5" font-family="Helvetica,sans-Serif" font-size="10.00">mutex</text>
</a>
</g>
</g>
<!-- Node7&#45;&gt;Node11 -->
<g id="edge13_Node000007_Node000011" class="edge">
<title>Node7&#45;&gt;Node11</title>
<g id="a_edge13_Node000007_Node000011"><a xlink:title=" ">
<path fill="none" stroke="#63b8ff" d="M1239.1,-192.48C1220.71,-183.92 1193.38,-169.37 1174,-151 1154.7,-132.7 1138.85,-106.11 1129.67,-88.69"/>
<polygon fill="#63b8ff" stroke="#63b8ff" points="1132.71,-86.94 1125.05,-79.62 1126.47,-90.12 1132.71,-86.94"/>
</a>
</g>
</g>
<!-- Node12 -->
<g id="Node000012" class="node">
<title>Node12</title>
<g id="a_Node000012"><a xlink:title=" ">
<polygon fill="#e0e0e0" stroke="#999999" points="984.5,-79.5 937.5,-79.5 937.5,-60.5 984.5,-60.5 984.5,-79.5"/>
<text text-anchor="middle" x="961" y="-67.5" font-family="Helvetica,sans-Serif" font-size="10.00">vector</text>
</a>
</g>
</g>
<!-- Node7&#45;&gt;Node12 -->
<g id="edge14_Node000007_Node000012" class="edge">
<title>Node7&#45;&gt;Node12</title>
<g id="a_edge14_Node000007_Node000012"><a xlink:title=" ">
<path fill="none" stroke="#63b8ff" d="M1237.89,-192.39C1214.97,-182.88 1177.43,-166.8 1146,-151 1121.82,-138.84 1117.51,-132.49 1093,-121 1060.34,-105.68 1021.6,-91.45 994.57,-82.12"/>
<polygon fill="#63b8ff" stroke="#63b8ff" points="995.41,-78.71 984.82,-78.79 993.15,-85.33 995.41,-78.71"/>
</a>
</g>
</g>
<!-- Node7&#45;&gt;Node13 -->
<g id="edge15_Node000007_Node000013" class="edge">
<title>Node7&#45;&gt;Node13</title>
<g id="a_edge15_Node000007_Node000013"><a xlink:title=" ">
<path fill="none" stroke="#63b8ff" d="M1227.31,-192.37C1185.4,-180.96 1111.49,-160.83 1065.27,-148.24"/>
<polygon fill="#63b8ff" stroke="#63b8ff" points="1066.13,-144.85 1055.57,-145.6 1064.29,-151.6 1066.13,-144.85"/>
</a>
</g>
</g>
<!-- Node14 -->
<g id="Node000014" class="node">
<title>Node14</title>
<g id="a_Node000014"><a xlink:href="LogSink_8ixx.html" target="_top" xlink:title="Abstract interface for log output destinations.">
<polygon fill="white" stroke="#666666" points="1392,-79.5 1268,-79.5 1268,-60.5 1392,-60.5 1392,-79.5"/>
<text text-anchor="middle" x="1330" y="-67.5" font-family="Helvetica,sans-Serif" font-size="10.00">helios.util.log.LogSink</text>
</a>
</g>
</g>
<!-- Node7&#45;&gt;Node14 -->
<g id="edge22_Node000007_Node000014" class="edge">
<title>Node7&#45;&gt;Node14</title>
<g id="a_edge22_Node000007_Node000014"><a xlink:title=" ">
<path fill="none" stroke="#63b8ff" d="M1271.71,-192.18C1283.68,-183.2 1301.18,-168.18 1311,-151 1321.93,-131.87 1326.59,-106.72 1328.56,-89.77"/>
<polygon fill="#63b8ff" stroke="#63b8ff" points="1332.08,-89.8 1329.55,-79.51 1325.11,-89.13 1332.08,-89.8"/>
</a>
</g>
</g>
<!-- Node13&#45;&gt;Node2 -->
<g id="edge18_Node000013_Node000002" class="edge">
<title>Node13&#45;&gt;Node2</title>
<g id="a_edge18_Node000013_Node000002"><a xlink:title=" ">
<path fill="none" stroke="#63b8ff" d="M1083.72,-129.92C1231.93,-117.33 1613.59,-84.89 1737.5,-74.36"/>
<polygon fill="#63b8ff" stroke="#63b8ff" points="1738,-77.83 1747.67,-73.49 1737.41,-70.85 1738,-77.83"/>
</a>
</g>
</g>
<!-- Node13&#45;&gt;Node8 -->
<g id="edge16_Node000013_Node000008" class="edge">
<title>Node13&#45;&gt;Node8</title>
<g id="a_edge16_Node000013_Node000008"><a xlink:title=" ">
<path fill="none" stroke="#63b8ff" d="M1028.35,-126.5C1037.22,-110.04 1059.05,-73.77 1088,-55 1130.99,-27.12 1190.67,-16.68 1226.96,-12.79"/>
<polygon fill="#63b8ff" stroke="#63b8ff" points="1227.37,-16.26 1236.99,-11.82 1226.7,-9.3 1227.37,-16.26"/>
</a>
</g>
</g>
<!-- Node13&#45;&gt;Node11 -->
<g id="edge19_Node000013_Node000011" class="edge">
<title>Node13&#45;&gt;Node11</title>
<g id="a_edge19_Node000013_Node000011"><a xlink:title=" ">
<path fill="none" stroke="#63b8ff" d="M1037.08,-126.37C1053.06,-115.82 1080.33,-97.84 1099.43,-85.23"/>
<polygon fill="#63b8ff" stroke="#63b8ff" points="1101.4,-88.13 1107.82,-79.7 1097.54,-82.28 1101.4,-88.13"/>
</a>
</g>
</g>
<!-- Node13&#45;&gt;Node12 -->
<g id="edge17_Node000013_Node000012" class="edge">
<title>Node13&#45;&gt;Node12</title>
<g id="a_edge17_Node000013_Node000012"><a xlink:title=" ">
<path fill="none" stroke="#63b8ff" d="M1015.5,-126.37C1005.7,-116.4 989.34,-99.79 977.11,-87.36"/>
<polygon fill="#63b8ff" stroke="#63b8ff" points="979.28,-84.58 969.77,-79.91 974.29,-89.49 979.28,-84.58"/>
</a>
</g>
</g>
<!-- Node13&#45;&gt;Node14 -->
<g id="edge20_Node000013_Node000014" class="edge">
<title>Node13&#45;&gt;Node14</title>
<g id="a_edge20_Node000013_Node000014"><a xlink:title=" ">
<path fill="none" stroke="#63b8ff" d="M1064.95,-126.44C1120.37,-114.84 1219.22,-94.17 1279.27,-81.61"/>
<polygon fill="#63b8ff" stroke="#63b8ff" points="1280.22,-84.99 1289.29,-79.51 1278.79,-78.14 1280.22,-84.99"/>
</a>
</g>
</g>
<!-- Node14&#45;&gt;Node8 -->
<g id="edge21_Node000014_Node000008" class="edge">
<title>Node14&#45;&gt;Node8</title>
<g id="a_edge21_Node000014_Node000008"><a xlink:title=" ">
<path fill="none" stroke="#63b8ff" d="M1319.52,-60.37C1308.51,-51.3 1290.96,-36.84 1277.59,-25.82"/>
<polygon fill="#63b8ff" stroke="#63b8ff" points="1279.46,-22.83 1269.52,-19.17 1275.01,-28.23 1279.46,-22.83"/>
</a>
</g>
</g>
<!-- Node15&#45;&gt;Node3 -->
<g id="edge28_Node000015_Node000003" class="edge">
<title>Node15&#45;&gt;Node3</title>
<g id="a_edge28_Node000015_Node000003"><a xlink:title=" ">
<path fill="none" stroke="#63b8ff" d="M305.64,-120.95C279.1,-109.78 242.31,-94.29 216.76,-83.53"/>
<polygon fill="#63b8ff" stroke="#63b8ff" points="217.8,-80.17 207.23,-79.52 215.09,-86.62 217.8,-80.17"/>
</a>
</g>
</g>
<!-- Node15&#45;&gt;Node5 -->
<g id="edge26_Node000015_Node000005" class="edge">
<title>Node15&#45;&gt;Node5</title>
<g id="a_edge26_Node000015_Node000005"><a xlink:title=" ">
<path fill="none" stroke="#63b8ff" d="M272.94,-120.95C212.68,-108.14 125.71,-89.65 76.24,-79.13"/>
<polygon fill="#63b8ff" stroke="#63b8ff" points="76.78,-75.67 66.27,-77.01 75.33,-82.52 76.78,-75.67"/>
</a>
</g>
</g>
<!-- Node16 -->
<g id="Node000016" class="node">
<title>Node16</title>
<g id="a_Node000016"><a xlink:title=" ">
<polygon fill="#e0e0e0" stroke="#999999" points="387,-79.5 345,-79.5 345,-60.5 387,-60.5 387,-79.5"/>
<text text-anchor="middle" x="366" y="-67.5" font-family="Helvetica,sans-Serif" font-size="10.00">array</text>
</a>
</g>
</g>
<!-- Node15&#45;&gt;Node16 -->
<g id="edge25_Node000015_Node000016" class="edge">
<title>Node15&#45;&gt;Node16</title>
<g id="a_edge25_Node000015_Node000016"><a xlink:title=" ">
<path fill="none" stroke="#63b8ff" d="M344.99,-120.8C348.91,-111.5 354.07,-99.27 358.3,-89.26"/>
<polygon fill="#63b8ff" stroke="#63b8ff" points="361.61,-90.42 362.27,-79.84 355.16,-87.7 361.61,-90.42"/>
</a>
</g>
</g>
<!-- Node17 -->
<g id="Node000017" class="node">
<title>Node17</title>
<g id="a_Node000017"><a xlink:title=" ">
<polygon fill="#e0e0e0" stroke="#999999" points="326.5,-79.5 275.5,-79.5 275.5,-60.5 326.5,-60.5 326.5,-79.5"/>
<text text-anchor="middle" x="301" y="-67.5" font-family="Helvetica,sans-Serif" font-size="10.00">variant</text>
</a>
</g>
</g>
<!-- Node15&#45;&gt;Node17 -->
<g id="edge27_Node000015_Node000017" class="edge">
<title>Node15&#45;&gt;Node17</title>
<g id="a_edge27_Node000015_Node000017"><a xlink:title=" ">
<path fill="none" stroke="#63b8ff" d="M330.57,-120.8C324.93,-111.31 317.48,-98.76 311.47,-88.63"/>
<polygon fill="#63b8ff" stroke="#63b8ff" points="314.37,-86.66 306.25,-79.84 308.35,-90.23 314.37,-86.66"/>
</a>
</g>
</g>
<!-- Node18 -->
<g id="Node000018" class="node">
<title>Node18</title>
<g id="a_Node000018"><a xlink:href="UniformSemantics_8ixx.html" target="_top" xlink:title="Definitions of uniform semantics used by shaders.">
<polygon fill="white" stroke="#666666" points="539,-85 405,-85 405,-55 539,-55 539,-85"/>
<text text-anchor="start" x="413" y="-73" font-family="Helvetica,sans-Serif" font-size="10.00">helios.rendering.shader.</text>
<text text-anchor="middle" x="472" y="-62" font-family="Helvetica,sans-Serif" font-size="10.00">UniformSemantics</text>
</a>
</g>
</g>
<!-- Node15&#45;&gt;Node18 -->
<g id="edge29_Node000015_Node000018" class="edge">
<title>Node15&#45;&gt;Node18</title>
<g id="a_edge29_Node000015_Node000018"><a xlink:title=" ">
<path fill="none" stroke="#63b8ff" d="M368.19,-120.95C387.42,-111.7 412.8,-99.49 433.66,-89.45"/>
<polygon fill="#63b8ff" stroke="#63b8ff" points="435.39,-92.5 442.88,-85.01 432.35,-86.19 435.39,-92.5"/>
</a>
</g>
</g>
<!-- Node19&#45;&gt;Node3 -->
<g id="edge34_Node000019_Node000003" class="edge">
<title>Node19&#45;&gt;Node3</title>
<g id="a_edge34_Node000019_Node000003"><a xlink:title=" ">
<path fill="none" stroke="#63b8ff" d="M152.25,-186.84C159.33,-163.23 173.55,-115.83 181.43,-89.58"/>
<polygon fill="#63b8ff" stroke="#63b8ff" points="184.85,-90.33 184.38,-79.75 178.15,-88.32 184.85,-90.33"/>
</a>
</g>
</g>
<!-- Node19&#45;&gt;Node5 -->
<g id="edge31_Node000019_Node000005" class="edge">
<title>Node19&#45;&gt;Node5</title>
<g id="a_edge31_Node000019_Node000005"><a xlink:title=" ">
<path fill="none" stroke="#63b8ff" d="M136.02,-186.84C115.51,-162.6 73.77,-113.28 51.97,-87.51"/>
<polygon fill="#63b8ff" stroke="#63b8ff" points="54.53,-85.12 45.4,-79.75 49.19,-89.64 54.53,-85.12"/>
</a>
</g>
</g>
<!-- Node19&#45;&gt;Node15 -->
<g id="edge33_Node000019_Node000015" class="edge">
<title>Node19&#45;&gt;Node15</title>
<g id="a_edge33_Node000019_Node000015"><a xlink:title=" ">
<path fill="none" stroke="#63b8ff" d="M189.92,-186.95C218.65,-177.33 256.96,-164.49 287.54,-154.24"/>
<polygon fill="#63b8ff" stroke="#63b8ff" points="288.81,-157.51 297.18,-151.01 286.59,-150.87 288.81,-157.51"/>
</a>
</g>
</g>
<!-- Node19&#45;&gt;Node18 -->
<g id="edge32_Node000019_Node000018" class="edge">
<title>Node19&#45;&gt;Node18</title>
<g id="a_edge32_Node000019_Node000018"><a xlink:title=" ">
<path fill="none" stroke="#63b8ff" d="M163.95,-186.96C185.13,-169.05 224.38,-138.31 263,-121 286.53,-110.45 345.58,-96.72 394.94,-86.31"/>
<polygon fill="#63b8ff" stroke="#63b8ff" points="395.91,-89.69 404.99,-84.21 394.48,-82.83 395.91,-89.69"/>
</a>
</g>
</g>
<!-- Node20&#45;&gt;Node2 -->
<g id="edge36_Node000020_Node000002" class="edge">
<title>Node20&#45;&gt;Node2</title>
<g id="a_edge36_Node000020_Node000002"><a xlink:title=" ">
<path fill="none" stroke="#63b8ff" d="M894.28,-376.54C1054.28,-363.52 1395.8,-324.53 1662,-217 1716.64,-194.93 1747.47,-202 1777,-151 1787.85,-132.27 1785.49,-106.69 1781.98,-89.55"/>
<polygon fill="#63b8ff" stroke="#63b8ff" points="1785.35,-88.58 1779.64,-79.66 1778.54,-90.19 1785.35,-88.58"/>
</a>
</g>
</g>
<!-- Node21 -->
<g id="Node000021" class="node">
<title>Node21</title>
<g id="a_Node000021"><a xlink:href="Mesh_8ixx.html" target="_top" xlink:title="Mesh abstraction: immutable vertex/index data and configuration.">
<polygon fill="white" stroke="#666666" points="940,-277.5 782,-277.5 782,-258.5 940,-258.5 940,-277.5"/>
<text text-anchor="middle" x="861" y="-265.5" font-family="Helvetica,sans-Serif" font-size="10.00">helios.rendering.model.Mesh</text>
</a>
</g>
</g>
<!-- Node20&#45;&gt;Node21 -->
<g id="edge37_Node000020_Node000021" class="edge">
<title>Node20&#45;&gt;Node21</title>
<g id="a_edge37_Node000020_Node000021"><a xlink:title=" ">
<path fill="none" stroke="#63b8ff" d="M813.47,-373.84C822.09,-365.46 834.57,-352 842,-338 850.45,-322.06 855.43,-302.01 858.15,-287.64"/>
<polygon fill="#63b8ff" stroke="#63b8ff" points="861.65,-287.96 859.88,-277.51 854.75,-286.78 861.65,-287.96"/>
</a>
</g>
</g>
<!-- Node26 -->
<g id="Node000026" class="node">
<title>Node26</title>
<g id="a_Node000026"><a xlink:href="Material_8ixx.html" target="_top" xlink:title="Material abstraction: shader + material properties.">
<polygon fill="white" stroke="#666666" points="832.5,-338 659.5,-338 659.5,-319 832.5,-319 832.5,-338"/>
<text text-anchor="middle" x="746" y="-326" font-family="Helvetica,sans-Serif" font-size="10.00">helios.rendering.model.Material</text>
</a>
</g>
</g>
<!-- Node20&#45;&gt;Node26 -->
<g id="edge53_Node000020_Node000026" class="edge">
<title>Node20&#45;&gt;Node26</title>
<g id="a_edge53_Node000020_Node000026"><a xlink:title=" ">
<path fill="none" stroke="#63b8ff" d="M794.68,-373.98C786.19,-366.23 773.44,-354.58 763.12,-345.14"/>
<polygon fill="#63b8ff" stroke="#63b8ff" points="765.23,-342.33 755.49,-338.17 760.51,-347.5 765.23,-342.33"/>
</a>
</g>
</g>
<!-- Node21&#45;&gt;Node2 -->
<g id="edge38_Node000021_Node000002" class="edge">
<title>Node21&#45;&gt;Node2</title>
<g id="a_edge38_Node000021_Node000002"><a xlink:title=" ">
<path fill="none" stroke="#63b8ff" d="M911.18,-258.43C923.52,-256.48 936.72,-254.54 949,-253 1122.45,-231.26 1584.67,-249.62 1729,-151 1750.69,-136.18 1764.16,-108.03 1771.12,-89.39"/>
<polygon fill="#63b8ff" stroke="#63b8ff" points="1774.52,-90.28 1774.48,-79.68 1767.9,-87.99 1774.52,-90.28"/>
</a>
</g>
</g>
<!-- Node21&#45;&gt;Node3 -->
<g id="edge41_Node000021_Node000003" class="edge">
<title>Node21&#45;&gt;Node3</title>
<g id="a_edge41_Node000021_Node000003"><a xlink:title=" ">
<path fill="none" stroke="#63b8ff" d="M781.93,-258.79C727.65,-251.58 654.59,-238.75 593,-217 508.25,-187.06 499.27,-152.26 415,-121 384,-109.5 299.86,-92.34 242.94,-81.41"/>
<polygon fill="#63b8ff" stroke="#63b8ff" points="243.47,-77.95 233,-79.51 242.16,-84.83 243.47,-77.95"/>
</a>
</g>
</g>
<!-- Node21&#45;&gt;Node6 -->
<g id="edge39_Node000021_Node000006" class="edge">
<title>Node21&#45;&gt;Node6</title>
<g id="a_edge39_Node000021_Node000006"><a xlink:title=" ">
<path fill="none" stroke="#63b8ff" d="M800.23,-258.49C731.63,-248.8 616.71,-232.32 518,-217 504.22,-214.86 489.2,-212.42 475.68,-210.19"/>
<polygon fill="#63b8ff" stroke="#63b8ff" points="476.11,-206.71 465.67,-208.53 474.96,-213.62 476.11,-206.71"/>
</a>
</g>
</g>
<!-- Node21&#45;&gt;Node7 -->
<g id="edge43_Node000021_Node000007" class="edge">
<title>Node21&#45;&gt;Node7</title>
<g id="a_edge43_Node000021_Node000007"><a xlink:title=" ">
<path fill="none" stroke="#63b8ff" d="M914.26,-258.44C987.24,-246.7 1118.1,-225.66 1195.9,-213.15"/>
<polygon fill="#63b8ff" stroke="#63b8ff" points="1196.73,-216.56 1206.05,-211.51 1195.62,-209.65 1196.73,-216.56"/>
</a>
</g>
</g>
<!-- Node21&#45;&gt;Node12 -->
<g id="edge40_Node000021_Node000012" class="edge">
<title>Node21&#45;&gt;Node12</title>
<g id="a_edge40_Node000021_Node000012"><a xlink:title=" ">
<path fill="none" stroke="#63b8ff" d="M920.06,-258.49C945.06,-251.65 971.86,-239.29 987,-217 994.49,-205.97 991.64,-199.5 987,-187 979.65,-167.21 963.35,-170.79 956,-151 948.6,-131.07 951.81,-106.44 955.61,-89.82"/>
<polygon fill="#63b8ff" stroke="#63b8ff" points="959.1,-90.3 958.2,-79.74 952.32,-88.55 959.1,-90.3"/>
</a>
</g>
</g>
<!-- Node21&#45;&gt;Node13 -->
<g id="edge42_Node000021_Node000013" class="edge">
<title>Node21&#45;&gt;Node13</title>
<g id="a_edge42_Node000021_Node000013"><a xlink:title=" ">
<path fill="none" stroke="#63b8ff" d="M907.31,-258.5C949.09,-249.8 1006.06,-235.03 1020,-217 1033.46,-199.59 1031.81,-173.13 1028.58,-155.47"/>
<polygon fill="#63b8ff" stroke="#63b8ff" points="1031.97,-154.57 1026.44,-145.54 1025.13,-156.05 1031.97,-154.57"/>
</a>
</g>
</g>
<!-- Node22 -->
<g id="Node000022" class="node">
<title>Node22</title>
<g id="a_Node000022"><a xlink:href="Shape_8ixx.html" target="_top" xlink:title="Interface for simple geometric shapes used for testing and debugging.">
<polygon fill="white" stroke="#666666" points="978,-217 818,-217 818,-187 978,-187 978,-217"/>
<text text-anchor="start" x="826" y="-205" font-family="Helvetica,sans-Serif" font-size="10.00">helios.rendering.asset.shape.</text>
<text text-anchor="middle" x="898" y="-194" font-family="Helvetica,sans-Serif" font-size="10.00">Shape</text>
</a>
</g>
</g>
<!-- Node21&#45;&gt;Node22 -->
<g id="edge44_Node000021_Node000022" class="edge">
<title>Node21&#45;&gt;Node22</title>
<g id="a_edge44_Node000021_Node000022"><a xlink:title=" ">
<path fill="none" stroke="#63b8ff" d="M865.99,-258.37C870.74,-250.16 878.09,-237.44 884.56,-226.26"/>
<polygon fill="#63b8ff" stroke="#63b8ff" points="887.72,-227.77 889.7,-217.36 881.66,-224.27 887.72,-227.77"/>
</a>
</g>
</g>
<!-- Node24 -->
<g id="Node000024" class="node">
<title>Node24</title>
<g id="a_Node000024"><a xlink:href="Vertex_8ixx.html" target="_top" xlink:title="Vertex description and utilities for rendering.">
<polygon fill="white" stroke="#666666" points="635,-145.5 505,-145.5 505,-126.5 635,-126.5 635,-145.5"/>
<text text-anchor="middle" x="570" y="-133.5" font-family="Helvetica,sans-Serif" font-size="10.00">helios.rendering.Vertex</text>
</a>
</g>
</g>
<!-- Node21&#45;&gt;Node24 -->
<g id="edge52_Node000021_Node000024" class="edge">
<title>Node21&#45;&gt;Node24</title>
<g id="a_edge52_Node000021_Node000024"><a xlink:title=" ">
<path fill="none" stroke="#63b8ff" d="M781.74,-264.36C733.62,-259.46 672.83,-247.1 627,-217 603.67,-201.68 586.87,-173.24 577.79,-154.73"/>
<polygon fill="#63b8ff" stroke="#63b8ff" points="580.94,-153.2 573.54,-145.61 574.59,-156.15 580.94,-153.2"/>
</a>
</g>
</g>
<!-- Node25 -->
<g id="Node000025" class="node">
<title>Node25</title>
<g id="a_Node000025"><a xlink:href="MeshConfig_8ixx.html" target="_top" xlink:title="Mesh configuration including primitive type.">
<polygon fill="white" stroke="#666666" points="800,-217 636,-217 636,-187 800,-187 800,-217"/>
<text text-anchor="start" x="644" y="-205" font-family="Helvetica,sans-Serif" font-size="10.00">helios.rendering.model.config.</text>
<text text-anchor="middle" x="718" y="-194" font-family="Helvetica,sans-Serif" font-size="10.00">MeshConfig</text>
</a>
</g>
</g>
<!-- Node21&#45;&gt;Node25 -->
<g id="edge50_Node000021_Node000025" class="edge">
<title>Node21&#45;&gt;Node25</title>
<g id="a_edge50_Node000021_Node000025"><a xlink:title=" ">
<path fill="none" stroke="#63b8ff" d="M841.71,-258.37C820.57,-248.91 786.04,-233.45 758.83,-221.27"/>
<polygon fill="#63b8ff" stroke="#63b8ff" points="760.1,-218.01 749.54,-217.12 757.24,-224.4 760.1,-218.01"/>
</a>
</g>
</g>
<!-- Node22&#45;&gt;Node2 -->
<g id="edge45_Node000022_Node000002" class="edge">
<title>Node22&#45;&gt;Node2</title>
<g id="a_edge45_Node000022_Node000002"><a xlink:title=" ">
<path fill="none" stroke="#63b8ff" d="M978.29,-196.45C1171.46,-185.41 1647.39,-157.63 1663,-151 1681.24,-143.25 1680.17,-132.92 1696,-121 1713.99,-107.45 1735.77,-94.16 1752.22,-84.69"/>
<polygon fill="#63b8ff" stroke="#63b8ff" points="1754.25,-87.57 1761.22,-79.59 1750.79,-81.48 1754.25,-87.57"/>
</a>
</g>
</g>
<!-- Node22&#45;&gt;Node12 -->
<g id="edge46_Node000022_Node000012" class="edge">
<title>Node22&#45;&gt;Node12</title>
<g id="a_edge46_Node000022_Node000012"><a xlink:title=" ">
<path fill="none" stroke="#63b8ff" d="M900.59,-186.81C903.98,-170.33 910.82,-142.64 922,-121 928.35,-108.72 937.85,-96.46 945.89,-87.15"/>
<polygon fill="#63b8ff" stroke="#63b8ff" points="948.66,-89.3 952.72,-79.52 943.44,-84.63 948.66,-89.3"/>
</a>
</g>
</g>
<!-- Node23 -->
<g id="Node000023" class="node">
<title>Node23</title>
<g id="a_Node000023"><a xlink:href="PrimitiveType_8ixx.html" target="_top" xlink:title="Enum of primitive types for mesh rendering.">
<polygon fill="white" stroke="#666666" points="844,-151 680,-151 680,-121 844,-121 844,-151"/>
<text text-anchor="start" x="688" y="-139" font-family="Helvetica,sans-Serif" font-size="10.00">helios.rendering.model.config.</text>
<text text-anchor="middle" x="762" y="-128" font-family="Helvetica,sans-Serif" font-size="10.00">PrimitiveType</text>
</a>
</g>
</g>
<!-- Node22&#45;&gt;Node23 -->
<g id="edge47_Node000022_Node000023" class="edge">
<title>Node22&#45;&gt;Node23</title>
<g id="a_edge47_Node000022_Node000023"><a xlink:title=" ">
<path fill="none" stroke="#63b8ff" d="M868.15,-186.95C848.4,-177.66 822.3,-165.38 800.92,-155.32"/>
<polygon fill="#63b8ff" stroke="#63b8ff" points="802.31,-152.1 791.78,-151.01 799.33,-158.44 802.31,-152.1"/>
</a>
</g>
</g>
<!-- Node22&#45;&gt;Node24 -->
<g id="edge48_Node000022_Node000024" class="edge">
<title>Node22&#45;&gt;Node24</title>
<g id="a_edge48_Node000022_Node000024"><a xlink:title=" ">
<path fill="none" stroke="#63b8ff" d="M826.02,-186.95C764.95,-175.04 678.71,-158.21 623.57,-147.45"/>
<polygon fill="#63b8ff" stroke="#63b8ff" points="624.14,-144 613.65,-145.52 622.8,-150.87 624.14,-144"/>
</a>
</g>
</g>
<!-- Node24&#45;&gt;Node3 -->
<g id="edge49_Node000024_Node000003" class="edge">
<title>Node24&#45;&gt;Node3</title>
<g id="a_edge49_Node000024_Node000003"><a xlink:title=" ">
<path fill="none" stroke="#63b8ff" d="M517.43,-126.48C456.98,-116.65 354.78,-99.92 267,-85 259.93,-83.8 252.51,-82.52 245.16,-81.25"/>
<polygon fill="#63b8ff" stroke="#63b8ff" points="245.67,-77.78 235.21,-79.52 244.47,-84.68 245.67,-77.78"/>
</a>
</g>
</g>
<!-- Node25&#45;&gt;Node23 -->
<g id="edge51_Node000025_Node000023" class="edge">
<title>Node25&#45;&gt;Node23</title>
<g id="a_edge51_Node000025_Node000023"><a xlink:title=" ">
<path fill="none" stroke="#63b8ff" d="M727.77,-186.8C733.29,-178.76 740.33,-168.53 746.58,-159.43"/>
<polygon fill="#63b8ff" stroke="#63b8ff" points="749.48,-161.39 752.26,-151.16 743.71,-157.42 749.48,-161.39"/>
</a>
</g>
</g>
<!-- Node26&#45;&gt;Node2 -->
<g id="edge54_Node000026_Node000002" class="edge">
<title>Node26&#45;&gt;Node2</title>
<g id="a_edge54_Node000026_Node000002"><a xlink:title=" ">
<path fill="none" stroke="#63b8ff" d="M832.97,-324.85C944.17,-320.49 1142.4,-309.48 1310,-283 1434.58,-263.31 1465.6,-254.58 1586,-217 1663.37,-192.85 1702.04,-211.47 1756,-151 1771.13,-134.05 1775.58,-107.48 1776.77,-89.67"/>
<polygon fill="#63b8ff" stroke="#63b8ff" points="1780.27,-89.77 1777.16,-79.64 1773.27,-89.5 1780.27,-89.77"/>
</a>
</g>
</g>
<!-- Node26&#45;&gt;Node6 -->
<g id="edge55_Node000026_Node000006" class="edge">
<title>Node26&#45;&gt;Node6</title>
<g id="a_edge55_Node000026_Node000006"><a xlink:title=" ">
<path fill="none" stroke="#63b8ff" d="M674.11,-318.95C634.49,-312.46 585.14,-301.4 544,-283 524.62,-274.33 478.17,-238.75 451.91,-218.08"/>
<polygon fill="#63b8ff" stroke="#63b8ff" points="453.86,-215.16 443.85,-211.7 449.52,-220.65 453.86,-215.16"/>
</a>
</g>
</g>
<!-- Node26&#45;&gt;Node15 -->
<g id="edge72_Node000026_Node000015" class="edge">
<title>Node26&#45;&gt;Node15</title>
<g id="a_edge72_Node000026_Node000015"><a xlink:title=" ">
<path fill="none" stroke="#63b8ff" d="M725.63,-318.92C685.07,-301.57 591.81,-260.27 518,-217 497.9,-205.22 495.66,-197.78 475,-187 449.99,-173.96 420.8,-162.75 395.89,-154.27"/>
<polygon fill="#63b8ff" stroke="#63b8ff" points="396.81,-150.89 386.22,-151.04 394.59,-157.53 396.81,-150.89"/>
</a>
</g>
</g>
<!-- Node27 -->
<g id="Node000027" class="node">
<title>Node27</title>
<g id="a_Node000027"><a xlink:href="helios_2util_2log_2__module_8ixx.html" target="_top" xlink:title="Module exports for logging.">
<polygon fill="white" stroke="#666666" points="1300.5,-277.5 1217.5,-277.5 1217.5,-258.5 1300.5,-258.5 1300.5,-277.5"/>
<text text-anchor="middle" x="1259" y="-265.5" font-family="Helvetica,sans-Serif" font-size="10.00">helios.util.log</text>
</a>
</g>
</g>
<!-- Node26&#45;&gt;Node27 -->
<g id="edge56_Node000026_Node000027" class="edge">
<title>Node26&#45;&gt;Node27</title>
<g id="a_edge56_Node000026_Node000027"><a xlink:title=" ">
<path fill="none" stroke="#63b8ff" d="M820.59,-318.99C926.02,-306.97 1115.91,-285.32 1207.22,-274.91"/>
<polygon fill="#63b8ff" stroke="#63b8ff" points="1207.78,-278.36 1217.32,-273.75 1206.99,-271.41 1207.78,-278.36"/>
</a>
</g>
</g>
<!-- Node29 -->
<g id="Node000029" class="node">
<title>Node29</title>
<g id="a_Node000029"><a xlink:href="MaterialProperties_8ixx.html" target="_top" xlink:title="Default material properties used by materials and instances.">
<polygon fill="white" stroke="#666666" points="454,-283 290,-283 290,-253 454,-253 454,-283"/>
<text text-anchor="start" x="298" y="-271" font-family="Helvetica,sans-Serif" font-size="10.00">helios.rendering.model.config.</text>
<text text-anchor="middle" x="372" y="-260" font-family="Helvetica,sans-Serif" font-size="10.00">MaterialProperties</text>
</a>
</g>
</g>
<!-- Node26&#45;&gt;Node29 -->
<g id="edge63_Node000026_Node000029" class="edge">
<title>Node26&#45;&gt;Node29</title>
<g id="a_edge63_Node000026_Node000029"><a xlink:title=" ">
<path fill="none" stroke="#63b8ff" d="M691.62,-318.99C632.02,-309.67 535.4,-294.56 463.97,-283.39"/>
<polygon fill="#63b8ff" stroke="#63b8ff" points="464.49,-279.92 454.07,-281.84 463.41,-286.84 464.49,-279.92"/>
</a>
</g>
</g>
<!-- Node30 -->
<g id="Node000030" class="node">
<title>Node30</title>
<g id="a_Node000030"><a xlink:href="Shader_8ixx.html" target="_top" xlink:title="Abstraction for a compiled shader program.">
<polygon fill="white" stroke="#666666" points="1092,-283 958,-283 958,-253 1092,-253 1092,-283"/>
<text text-anchor="start" x="966" y="-271" font-family="Helvetica,sans-Serif" font-size="10.00">helios.rendering.shader.</text>
<text text-anchor="middle" x="1025" y="-260" font-family="Helvetica,sans-Serif" font-size="10.00">Shader</text>
</a>
</g>
</g>
<!-- Node26&#45;&gt;Node30 -->
<g id="edge68_Node000026_Node000030" class="edge">
<title>Node26&#45;&gt;Node30</title>
<g id="a_edge68_Node000026_Node000030"><a xlink:title=" ">
<path fill="none" stroke="#63b8ff" d="M786.57,-318.99C828.81,-310.14 895.98,-296.05 948.28,-285.09"/>
<polygon fill="#63b8ff" stroke="#63b8ff" points="949.13,-288.49 958.19,-283.01 947.69,-281.63 949.13,-288.49"/>
</a>
</g>
</g>
<!-- Node27&#45;&gt;Node7 -->
<g id="edge57_Node000027_Node000007" class="edge">
<title>Node27&#45;&gt;Node7</title>
<g id="a_edge57_Node000027_Node000007"><a xlink:title=" ">
<path fill="none" stroke="#63b8ff" d="M1259,-258.37C1259,-249.16 1259,-234.29 1259,-222.27"/>
<polygon fill="#63b8ff" stroke="#63b8ff" points="1262.5,-221.91 1259,-211.91 1255.5,-221.91 1262.5,-221.91"/>
</a>
</g>
</g>
<!-- Node27&#45;&gt;Node13 -->
<g id="edge58_Node000027_Node000013" class="edge">
<title>Node27&#45;&gt;Node13</title>
<g id="a_edge58_Node000027_Node000013"><a xlink:title=" ">
<path fill="none" stroke="#63b8ff" d="M1244.32,-258.42C1227.77,-248.66 1200.18,-232.13 1177,-217 1157.49,-204.26 1154.25,-198.54 1134,-187 1108.44,-172.44 1077.87,-158.82 1055.45,-149.49"/>
<polygon fill="#63b8ff" stroke="#63b8ff" points="1056.66,-146.2 1046.08,-145.64 1054,-152.68 1056.66,-146.2"/>
</a>
</g>
</g>
<!-- Node27&#45;&gt;Node14 -->
<g id="edge62_Node000027_Node000014" class="edge">
<title>Node27&#45;&gt;Node14</title>
<g id="a_edge62_Node000027_Node000014"><a xlink:title=" ">
<path fill="none" stroke="#63b8ff" d="M1294.19,-258.49C1341.83,-244.87 1425.04,-213.12 1461,-151 1481.6,-115.41 1429.76,-93.65 1385.33,-81.99"/>
<polygon fill="#63b8ff" stroke="#63b8ff" points="1385.96,-78.54 1375.41,-79.52 1384.26,-85.33 1385.96,-78.54"/>
</a>
</g>
</g>
<!-- Node28 -->
<g id="Node000028" class="node">
<title>Node28</title>
<g id="a_Node000028"><a xlink:href="ConsoleSink_8ixx.html" target="_top" xlink:title="Log sink that writes to stdout.">
<polygon fill="white" stroke="#666666" points="1654,-145.5 1508,-145.5 1508,-126.5 1654,-126.5 1654,-145.5"/>
<text text-anchor="middle" x="1581" y="-133.5" font-family="Helvetica,sans-Serif" font-size="10.00">helios.util.log.ConsoleSink</text>
</a>
</g>
</g>
<!-- Node27&#45;&gt;Node28 -->
<g id="edge59_Node000027_Node000028" class="edge">
<title>Node27&#45;&gt;Node28</title>
<g id="a_edge59_Node000027_Node000028"><a xlink:title=" ">
<path fill="none" stroke="#63b8ff" d="M1300.71,-264.77C1349.5,-260.7 1431.55,-249.24 1494,-217 1524.54,-201.24 1552.35,-171.86 1567.94,-153.43"/>
<polygon fill="#63b8ff" stroke="#63b8ff" points="1570.74,-155.54 1574.39,-145.59 1565.33,-151.09 1570.74,-155.54"/>
</a>
</g>
</g>
<!-- Node28&#45;&gt;Node8 -->
<g id="edge60_Node000028_Node000008" class="edge">
<title>Node28&#45;&gt;Node8</title>
<g id="a_edge60_Node000028_Node000008"><a xlink:title=" ">
<path fill="none" stroke="#63b8ff" d="M1563.65,-126.49C1531.86,-111.07 1461.95,-78.01 1401,-55 1363.97,-41.02 1320.41,-27.84 1291.4,-19.5"/>
<polygon fill="#63b8ff" stroke="#63b8ff" points="1291.98,-16.03 1281.4,-16.66 1290.06,-22.76 1291.98,-16.03"/>
</a>
</g>
</g>
<!-- Node28&#45;&gt;Node14 -->
<g id="edge61_Node000028_Node000014" class="edge">
<title>Node28&#45;&gt;Node14</title>
<g id="a_edge61_Node000028_Node000014"><a xlink:title=" ">
<path fill="none" stroke="#63b8ff" d="M1547.41,-126.44C1502.42,-114.96 1422.54,-94.6 1373.15,-82"/>
<polygon fill="#63b8ff" stroke="#63b8ff" points="1373.95,-78.59 1363.39,-79.51 1372.22,-85.38 1373.95,-78.59"/>
</a>
</g>
</g>
<!-- Node29&#45;&gt;Node3 -->
<g id="edge66_Node000029_Node000003" class="edge">
<title>Node29&#45;&gt;Node3</title>
<g id="a_edge66_Node000029_Node000003"><a xlink:title=" ">
<path fill="none" stroke="#63b8ff" d="M358.7,-252.9C325.27,-217.49 237.9,-124.92 202.36,-87.28"/>
<polygon fill="#63b8ff" stroke="#63b8ff" points="204.65,-84.6 195.24,-79.73 199.56,-89.4 204.65,-84.6"/>
</a>
</g>
</g>
<!-- Node29&#45;&gt;Node15 -->
<g id="edge65_Node000029_Node000015" class="edge">
<title>Node29&#45;&gt;Node15</title>
<g id="a_edge65_Node000029_Node000015"><a xlink:title=" ">
<path fill="none" stroke="#63b8ff" d="M367.8,-252.6C364.94,-242.63 361.11,-229.04 358,-217 353.18,-198.36 348.16,-177.15 344.5,-161.26"/>
<polygon fill="#63b8ff" stroke="#63b8ff" points="347.84,-160.17 342.19,-151.2 341.01,-161.73 347.84,-160.17"/>
</a>
</g>
</g>
<!-- Node29&#45;&gt;Node18 -->
<g id="edge64_Node000029_Node000018" class="edge">
<title>Node29&#45;&gt;Node18</title>
<g id="a_edge64_Node000029_Node000018"><a xlink:title=" ">
<path fill="none" stroke="#63b8ff" d="M373.95,-252.91C376.58,-236.52 382.1,-208.92 392,-187 396.49,-177.06 433.57,-124.64 455.64,-93.78"/>
<polygon fill="#63b8ff" stroke="#63b8ff" points="458.71,-95.5 461.69,-85.33 453.02,-91.42 458.71,-95.5"/>
</a>
</g>
</g>
<!-- Node29&#45;&gt;Node19 -->
<g id="edge67_Node000029_Node000019" class="edge">
<title>Node29&#45;&gt;Node19</title>
<g id="a_edge67_Node000029_Node000019"><a xlink:title=" ">
<path fill="none" stroke="#63b8ff" d="M322.84,-252.95C288.7,-243.2 243.05,-230.16 206.95,-219.84"/>
<polygon fill="#63b8ff" stroke="#63b8ff" points="207.62,-216.39 197.04,-217.01 205.7,-223.12 207.62,-216.39"/>
</a>
</g>
</g>
<!-- Node30&#45;&gt;Node7 -->
<g id="edge71_Node000030_Node000007" class="edge">
<title>Node30&#45;&gt;Node7</title>
<g id="a_edge71_Node000030_Node000007"><a xlink:title=" ">
<path fill="none" stroke="#63b8ff" d="M1076.35,-252.95C1118.93,-241.31 1178.65,-224.98 1218.05,-214.2"/>
<polygon fill="#63b8ff" stroke="#63b8ff" points="1219.14,-217.53 1227.86,-211.52 1217.29,-210.78 1219.14,-217.53"/>
</a>
</g>
</g>
<!-- Node30&#45;&gt;Node13 -->
<g id="edge70_Node000030_Node000013" class="edge">
<title>Node30&#45;&gt;Node13</title>
<g id="a_edge70_Node000030_Node000013"><a xlink:title=" ">
<path fill="none" stroke="#63b8ff" d="M1037.61,-252.85C1045.14,-243.42 1053.99,-230.35 1058,-217 1061.83,-204.23 1061.92,-199.74 1058,-187 1054.21,-174.68 1046.23,-162.68 1038.96,-153.52"/>
<polygon fill="#63b8ff" stroke="#63b8ff" points="1041.49,-151.09 1032.36,-145.7 1036.13,-155.6 1041.49,-151.09"/>
</a>
</g>
</g>
<!-- Node30&#45;&gt;Node15 -->
<g id="edge69_Node000030_Node000015" class="edge">
<title>Node30&#45;&gt;Node15</title>
<g id="a_edge69_Node000030_Node000015"><a xlink:title=" ">
<path fill="none" stroke="#63b8ff" d="M957.91,-254.37C954.9,-253.89 951.92,-253.43 949,-253 806.55,-231.94 768.38,-244.36 627,-217 582.78,-208.44 466.11,-174.71 395.58,-153.87"/>
<polygon fill="#63b8ff" stroke="#63b8ff" points="396.53,-150.51 385.94,-151.02 394.54,-157.22 396.53,-150.51"/>
</a>
</g>
</g>
</g>
</svg>
