<?xml version="1.0" encoding="UTF-8" standalone="no"?>
<!DOCTYPE svg PUBLIC "-//W3C//DTD SVG 1.1//EN"
 "http://www.w3.org/Graphics/SVG/1.1/DTD/svg11.dtd">
<!-- Generated by graphviz version 2.43.0 (0)
 -->
<!-- Title: include/helios/scene/Snapshot.ixx Pages: 1 -->
<svg width="1830pt" height="522pt"
 viewBox="0.00 0.00 1830.00 522.00" xmlns="http://www.w3.org/2000/svg" xmlns:xlink="http://www.w3.org/1999/xlink">
<g id="graph0" class="graph" transform="scale(1 1) rotate(0) translate(4 518)">
<title>include/helios/scene/Snapshot.ixx</title>
<!-- Node1 -->
<g id="Node000001" class="node">
<title>Node1</title>
<g id="a_Node000001"><a xlink:title=" ">
<polygon fill="#999999" stroke="#666666" points="1102,-514 986,-514 986,-484 1102,-484 1102,-514"/>
<text text-anchor="start" x="994" y="-502" font-family="Helvetica,sans-Serif" font-size="10.00">include/helios/scene</text>
<text text-anchor="middle" x="1044" y="-491" font-family="Helvetica,sans-Serif" font-size="10.00">/Snapshot.ixx</text>
</a>
</g>
</g>
<!-- Node2 -->
<g id="Node000002" class="node">
<title>Node2</title>
<g id="a_Node000002"><a xlink:title=" ">
<polygon fill="#e0e0e0" stroke="#999999" points="1693.5,-145.5 1646.5,-145.5 1646.5,-126.5 1693.5,-126.5 1693.5,-145.5"/>
<text text-anchor="middle" x="1670" y="-133.5" font-family="Helvetica,sans-Serif" font-size="10.00">vector</text>
</a>
</g>
</g>
<!-- Node1&#45;&gt;Node2 -->
<g id="edge1_Node000001_Node000002" class="edge">
<title>Node1&#45;&gt;Node2</title>
<g id="a_edge1_Node000001_Node000002"><a xlink:title=" ">
<path fill="none" stroke="#63b8ff" d="M1102.05,-494.17C1263.84,-482.72 1708,-445.72 1708,-384.5 1708,-384.5 1708,-384.5 1708,-261.5 1708,-222.13 1690.4,-178.68 1679.16,-154.95"/>
<polygon fill="#63b8ff" stroke="#63b8ff" points="1682.21,-153.21 1674.66,-145.78 1675.92,-156.3 1682.21,-153.21"/>
</a>
</g>
</g>
<!-- Node3 -->
<g id="Node000003" class="node">
<title>Node3</title>
<g id="a_Node000003"><a xlink:href="math_2types_2__module_8ixx.html" target="_top" xlink:title=" ">
<polygon fill="white" stroke="#666666" points="246,-79.5 142,-79.5 142,-60.5 246,-60.5 246,-79.5"/>
<text text-anchor="middle" x="194" y="-67.5" font-family="Helvetica,sans-Serif" font-size="10.00">helios.math.types</text>
</a>
</g>
</g>
<!-- Node1&#45;&gt;Node3 -->
<g id="edge2_Node000001_Node000003" class="edge">
<title>Node1&#45;&gt;Node3</title>
<g id="a_edge2_Node000001_Node000003"><a xlink:title=" ">
<path fill="none" stroke="#63b8ff" d="M985.63,-497.83C765.77,-496.44 0,-484.43 0,-384.5 0,-384.5 0,-384.5 0,-201 0,-132.4 84.76,-97.69 142.23,-82.04"/>
<polygon fill="#63b8ff" stroke="#63b8ff" points="143.11,-85.42 151.9,-79.51 141.34,-78.65 143.11,-85.42"/>
</a>
</g>
</g>
<!-- Node4 -->
<g id="Node000004" class="node">
<title>Node4</title>
<g id="a_Node000004"><a xlink:href="SnapshotItem_8ixx.html" target="_top" xlink:title=" ">
<polygon fill="white" stroke="#666666" points="1118,-448 970,-448 970,-429 1118,-429 1118,-448"/>
<text text-anchor="middle" x="1044" y="-436" font-family="Helvetica,sans-Serif" font-size="10.00">helios.scene.SnapshotItem</text>
</a>
</g>
</g>
<!-- Node1&#45;&gt;Node4 -->
<g id="edge4_Node000001_Node000004" class="edge">
<title>Node1&#45;&gt;Node4</title>
<g id="a_edge4_Node000001_Node000004"><a xlink:title=" ">
<path fill="none" stroke="#63b8ff" d="M1044,-483.84C1044,-476.21 1044,-466.7 1044,-458.45"/>
<polygon fill="#63b8ff" stroke="#63b8ff" points="1047.5,-458.27 1044,-448.27 1040.5,-458.27 1047.5,-458.27"/>
</a>
</g>
</g>
<!-- Node3&#45;&gt;Node3 -->
<g id="edge3_Node000003_Node000003" class="edge">
<title>Node3&#45;&gt;Node3</title>
<g id="a_edge3_Node000003_Node000003"><a xlink:title=" ">
<path fill="none" stroke="#63b8ff" d="M219.85,-79.53C241.44,-83.61 264,-80.43 264,-70 264,-61.2 247.94,-57.56 229.95,-59.09"/>
<polygon fill="#63b8ff" stroke="#63b8ff" points="229.28,-55.65 219.85,-60.47 230.23,-62.58 229.28,-55.65"/>
</a>
</g>
</g>
<!-- Node4&#45;&gt;Node3 -->
<g id="edge6_Node000004_Node000003" class="edge">
<title>Node4&#45;&gt;Node3</title>
<g id="a_edge6_Node000004_Node000003"><a xlink:title=" ">
<path fill="none" stroke="#63b8ff" d="M969.62,-436.91C736.88,-434.07 38,-417.76 38,-324 38,-324 38,-324 38,-201 38,-139.12 111.33,-100.98 157.44,-83.12"/>
<polygon fill="#63b8ff" stroke="#63b8ff" points="158.68,-86.39 166.83,-79.62 156.23,-79.83 158.68,-86.39"/>
</a>
</g>
</g>
<!-- Node5 -->
<g id="Node000005" class="node">
<title>Node5</title>
<g id="a_Node000005"><a xlink:title=" ">
<polygon fill="#e0e0e0" stroke="#999999" points="1299,-79.5 1241,-79.5 1241,-60.5 1299,-60.5 1299,-79.5"/>
<text text-anchor="middle" x="1270" y="-67.5" font-family="Helvetica,sans-Serif" font-size="10.00">memory</text>
</a>
</g>
</g>
<!-- Node4&#45;&gt;Node5 -->
<g id="edge5_Node000004_Node000005" class="edge">
<title>Node4&#45;&gt;Node5</title>
<g id="a_edge5_Node000004_Node000005"><a xlink:title=" ">
<path fill="none" stroke="#63b8ff" d="M1118.25,-434.4C1312.71,-425.29 1822,-394.68 1822,-324 1822,-324 1822,-324 1822,-201 1822,-151.96 1789.99,-142.68 1746,-121 1669.41,-83.26 1409.03,-73.89 1309.3,-71.66"/>
<polygon fill="#63b8ff" stroke="#63b8ff" points="1309.13,-68.16 1299.06,-71.45 1308.98,-75.16 1309.13,-68.16"/>
</a>
</g>
</g>
<!-- Node6 -->
<g id="Node000006" class="node">
<title>Node6</title>
<g id="a_Node000006"><a xlink:href="Renderable_8ixx.html" target="_top" xlink:title=" ">
<polygon fill="white" stroke="#666666" points="1121,-393 967,-393 967,-374 1121,-374 1121,-393"/>
<text text-anchor="middle" x="1044" y="-381" font-family="Helvetica,sans-Serif" font-size="10.00">helios.rendering.Renderable</text>
</a>
</g>
</g>
<!-- Node4&#45;&gt;Node6 -->
<g id="edge7_Node000004_Node000006" class="edge">
<title>Node4&#45;&gt;Node6</title>
<g id="a_edge7_Node000004_Node000006"><a xlink:title=" ">
<path fill="none" stroke="#63b8ff" d="M1044,-428.75C1044,-421.8 1044,-411.85 1044,-403.13"/>
<polygon fill="#63b8ff" stroke="#63b8ff" points="1047.5,-403.09 1044,-393.09 1040.5,-403.09 1047.5,-403.09"/>
</a>
</g>
</g>
<!-- Node6&#45;&gt;Node3 -->
<g id="edge54_Node000006_Node000003" class="edge">
<title>Node6&#45;&gt;Node3</title>
<g id="a_edge54_Node000006_Node000003"><a xlink:title=" ">
<path fill="none" stroke="#63b8ff" d="M966.83,-381.09C737.5,-375.88 76,-353.08 76,-263.5 76,-263.5 76,-263.5 76,-201 76,-146.67 133.2,-104.98 167.95,-84.66"/>
<polygon fill="#63b8ff" stroke="#63b8ff" points="170.1,-87.46 177.09,-79.5 166.66,-81.37 170.1,-87.46"/>
</a>
</g>
</g>
<!-- Node6&#45;&gt;Node5 -->
<g id="edge8_Node000006_Node000005" class="edge">
<title>Node6&#45;&gt;Node5</title>
<g id="a_edge8_Node000006_Node000005"><a xlink:title=" ">
<path fill="none" stroke="#63b8ff" d="M1120.47,-373.98C1278.3,-354.8 1632.16,-303.07 1713,-217 1742.44,-185.66 1753.7,-153.02 1725,-121 1697.44,-90.25 1414.66,-76.47 1309.29,-72.38"/>
<polygon fill="#63b8ff" stroke="#63b8ff" points="1309.21,-68.87 1299.08,-71.99 1308.94,-75.87 1309.21,-68.87"/>
</a>
</g>
</g>
<!-- Node7 -->
<g id="Node000007" class="node">
<title>Node7</title>
<g id="a_Node000007"><a xlink:title=" ">
<polygon fill="#e0e0e0" stroke="#999999" points="1053.5,-211.5 988.5,-211.5 988.5,-192.5 1053.5,-192.5 1053.5,-211.5"/>
<text text-anchor="middle" x="1021" y="-199.5" font-family="Helvetica,sans-Serif" font-size="10.00">stdexcept</text>
</a>
</g>
</g>
<!-- Node6&#45;&gt;Node7 -->
<g id="edge9_Node000006_Node000007" class="edge">
<title>Node6&#45;&gt;Node7</title>
<g id="a_edge9_Node000006_Node000007"><a xlink:title=" ">
<path fill="none" stroke="#63b8ff" d="M1042.89,-373.84C1039.36,-346.3 1028.34,-260.26 1023.41,-221.84"/>
<polygon fill="#63b8ff" stroke="#63b8ff" points="1026.84,-221.04 1022.1,-211.57 1019.9,-221.93 1026.84,-221.04"/>
</a>
</g>
</g>
<!-- Node8 -->
<g id="Node000008" class="node">
<title>Node8</title>
<g id="a_Node000008"><a xlink:href="Logger_8ixx.html" target="_top" xlink:title=" ">
<polygon fill="white" stroke="#666666" points="836.5,-79.5 717.5,-79.5 717.5,-60.5 836.5,-60.5 836.5,-79.5"/>
<text text-anchor="middle" x="777" y="-67.5" font-family="Helvetica,sans-Serif" font-size="10.00">helios.util.log.Logger</text>
</a>
</g>
</g>
<!-- Node6&#45;&gt;Node8 -->
<g id="edge10_Node000006_Node000008" class="edge">
<title>Node6&#45;&gt;Node8</title>
<g id="a_edge10_Node000006_Node000008"><a xlink:title=" ">
<path fill="none" stroke="#63b8ff" d="M966.76,-380.58C842.42,-376.69 609.18,-365.73 584,-338 531.55,-280.23 428.72,-362.96 669,-121 686.93,-102.95 712.6,-90.69 734.41,-82.84"/>
<polygon fill="#63b8ff" stroke="#63b8ff" points="735.78,-86.07 744.12,-79.53 733.53,-79.44 735.78,-86.07"/>
</a>
</g>
</g>
<!-- Node11 -->
<g id="Node000011" class="node">
<title>Node11</title>
<g id="a_Node000011"><a xlink:href="LogManager_8ixx.html" target="_top" xlink:title=" ">
<polygon fill="white" stroke="#666666" points="1013,-145.5 867,-145.5 867,-126.5 1013,-126.5 1013,-145.5"/>
<text text-anchor="middle" x="940" y="-133.5" font-family="Helvetica,sans-Serif" font-size="10.00">helios.util.log.LogManager</text>
</a>
</g>
</g>
<!-- Node6&#45;&gt;Node11 -->
<g id="edge13_Node000006_Node000011" class="edge">
<title>Node6&#45;&gt;Node11</title>
<g id="a_edge13_Node000006_Node000011"><a xlink:title=" ">
<path fill="none" stroke="#63b8ff" d="M1048.38,-373.75C1062.38,-344.39 1102.83,-247.86 1062,-187 1049,-167.63 1027.02,-155.75 1005.26,-148.48"/>
<polygon fill="#63b8ff" stroke="#63b8ff" points="1006.23,-145.12 995.65,-145.54 1004.19,-151.81 1006.23,-145.12"/>
</a>
</g>
</g>
<!-- Node14 -->
<g id="Node000014" class="node">
<title>Node14</title>
<g id="a_Node000014"><a xlink:href="MaterialInstance_8ixx.html" target="_top" xlink:title=" ">
<polygon fill="white" stroke="#666666" points="766.5,-338 593.5,-338 593.5,-308 766.5,-308 766.5,-338"/>
<text text-anchor="start" x="601.5" y="-326" font-family="Helvetica,sans-Serif" font-size="10.00">helios.rendering.model.Material</text>
<text text-anchor="middle" x="680" y="-315" font-family="Helvetica,sans-Serif" font-size="10.00">Instance</text>
</a>
</g>
</g>
<!-- Node6&#45;&gt;Node14 -->
<g id="edge19_Node000006_Node000014" class="edge">
<title>Node6&#45;&gt;Node14</title>
<g id="a_edge19_Node000006_Node000014"><a xlink:title=" ">
<path fill="none" stroke="#63b8ff" d="M991.07,-373.99C935.07,-364.99 845.47,-350.59 776.78,-339.55"/>
<polygon fill="#63b8ff" stroke="#63b8ff" points="777.24,-336.08 766.81,-337.95 776.13,-342.99 777.24,-336.08"/>
</a>
</g>
</g>
<!-- Node26 -->
<g id="Node000026" class="node">
<title>Node26</title>
<g id="a_Node000026"><a xlink:href="Mesh_8ixx.html" target="_top" xlink:title=" ">
<polygon fill="white" stroke="#666666" points="1332,-272 1174,-272 1174,-253 1332,-253 1332,-272"/>
<text text-anchor="middle" x="1253" y="-260" font-family="Helvetica,sans-Serif" font-size="10.00">helios.rendering.model.Mesh</text>
</a>
</g>
</g>
<!-- Node6&#45;&gt;Node26 -->
<g id="edge55_Node000006_Node000026" class="edge">
<title>Node6&#45;&gt;Node26</title>
<g id="a_edge55_Node000006_Node000026"><a xlink:title=" ">
<path fill="none" stroke="#63b8ff" d="M1059.03,-373.94C1094.87,-353.54 1185.59,-301.88 1229.06,-277.13"/>
<polygon fill="#63b8ff" stroke="#63b8ff" points="1230.87,-280.13 1237.82,-272.14 1227.4,-274.05 1230.87,-280.13"/>
</a>
</g>
</g>
<!-- Node9 -->
<g id="Node000009" class="node">
<title>Node9</title>
<g id="a_Node000009"><a xlink:title=" ">
<polygon fill="#e0e0e0" stroke="#999999" points="807,-19 747,-19 747,0 807,0 807,-19"/>
<text text-anchor="middle" x="777" y="-7" font-family="Helvetica,sans-Serif" font-size="10.00">iostream</text>
</a>
</g>
</g>
<!-- Node8&#45;&gt;Node9 -->
<g id="edge11_Node000008_Node000009" class="edge">
<title>Node8&#45;&gt;Node9</title>
<g id="a_edge11_Node000008_Node000009"><a xlink:title=" ">
<path fill="none" stroke="#63b8ff" d="M777,-60.37C777,-52.25 777,-39.81 777,-29.39"/>
<polygon fill="#63b8ff" stroke="#63b8ff" points="780.5,-29.17 777,-19.17 773.5,-29.17 780.5,-29.17"/>
</a>
</g>
</g>
<!-- Node10 -->
<g id="Node000010" class="node">
<title>Node10</title>
<g id="a_Node000010"><a xlink:title=" ">
<polygon fill="#e0e0e0" stroke="#999999" points="878,-19 834,-19 834,0 878,0 878,-19"/>
<text text-anchor="middle" x="856" y="-7" font-family="Helvetica,sans-Serif" font-size="10.00">string</text>
</a>
</g>
</g>
<!-- Node8&#45;&gt;Node10 -->
<g id="edge12_Node000008_Node000010" class="edge">
<title>Node8&#45;&gt;Node10</title>
<g id="a_edge12_Node000008_Node000010"><a xlink:title=" ">
<path fill="none" stroke="#63b8ff" d="M788.66,-60.37C801.14,-51.12 821.18,-36.28 836.16,-25.19"/>
<polygon fill="#63b8ff" stroke="#63b8ff" points="838.34,-27.93 844.3,-19.17 834.18,-22.31 838.34,-27.93"/>
</a>
</g>
</g>
<!-- Node11&#45;&gt;Node5 -->
<g id="edge16_Node000011_Node000005" class="edge">
<title>Node11&#45;&gt;Node5</title>
<g id="a_edge16_Node000011_Node000005"><a xlink:title=" ">
<path fill="none" stroke="#63b8ff" d="M984.16,-126.44C1048.91,-113.88 1168.62,-90.66 1230.56,-78.65"/>
<polygon fill="#63b8ff" stroke="#63b8ff" points="1231.56,-82.02 1240.71,-76.68 1230.23,-75.15 1231.56,-82.02"/>
</a>
</g>
</g>
<!-- Node11&#45;&gt;Node8 -->
<g id="edge18_Node000011_Node000008" class="edge">
<title>Node11&#45;&gt;Node8</title>
<g id="a_edge18_Node000011_Node000008"><a xlink:title=" ">
<path fill="none" stroke="#63b8ff" d="M918.02,-126.37C889.75,-115.27 840.46,-95.92 808.29,-83.28"/>
<polygon fill="#63b8ff" stroke="#63b8ff" points="809.48,-79.99 798.89,-79.6 806.92,-86.51 809.48,-79.99"/>
</a>
</g>
</g>
<!-- Node11&#45;&gt;Node10 -->
<g id="edge14_Node000011_Node000010" class="edge">
<title>Node11&#45;&gt;Node10</title>
<g id="a_edge14_Node000011_Node000010"><a xlink:title=" ">
<path fill="none" stroke="#63b8ff" d="M927.25,-126.44C914.72,-117.43 895.79,-102.2 884,-85 872.31,-67.94 864.72,-45.36 860.43,-29.55"/>
<polygon fill="#63b8ff" stroke="#63b8ff" points="863.71,-28.25 857.88,-19.41 856.92,-29.96 863.71,-28.25"/>
</a>
</g>
</g>
<!-- Node12 -->
<g id="Node000012" class="node">
<title>Node12</title>
<g id="a_Node000012"><a xlink:title=" ">
<polygon fill="#e0e0e0" stroke="#999999" points="986.5,-79.5 893.5,-79.5 893.5,-60.5 986.5,-60.5 986.5,-79.5"/>
<text text-anchor="middle" x="940" y="-67.5" font-family="Helvetica,sans-Serif" font-size="10.00">unordered_map</text>
</a>
</g>
</g>
<!-- Node11&#45;&gt;Node12 -->
<g id="edge15_Node000011_Node000012" class="edge">
<title>Node11&#45;&gt;Node12</title>
<g id="a_edge15_Node000011_Node000012"><a xlink:title=" ">
<path fill="none" stroke="#63b8ff" d="M940,-126.37C940,-117.16 940,-102.29 940,-90.27"/>
<polygon fill="#63b8ff" stroke="#63b8ff" points="943.5,-89.91 940,-79.91 936.5,-89.91 943.5,-89.91"/>
</a>
</g>
</g>
<!-- Node13 -->
<g id="Node000013" class="node">
<title>Node13</title>
<g id="a_Node000013"><a xlink:title=" ">
<polygon fill="#e0e0e0" stroke="#999999" points="1053,-79.5 1005,-79.5 1005,-60.5 1053,-60.5 1053,-79.5"/>
<text text-anchor="middle" x="1029" y="-67.5" font-family="Helvetica,sans-Serif" font-size="10.00">mutex</text>
</a>
</g>
</g>
<!-- Node11&#45;&gt;Node13 -->
<g id="edge17_Node000011_Node000013" class="edge">
<title>Node11&#45;&gt;Node13</title>
<g id="a_edge17_Node000011_Node000013"><a xlink:title=" ">
<path fill="none" stroke="#63b8ff" d="M952,-126.37C966.47,-115.97 991.01,-98.32 1008.49,-85.75"/>
<polygon fill="#63b8ff" stroke="#63b8ff" points="1010.83,-88.38 1016.9,-79.7 1006.74,-82.7 1010.83,-88.38"/>
</a>
</g>
</g>
<!-- Node14&#45;&gt;Node3 -->
<g id="edge21_Node000014_Node000003" class="edge">
<title>Node14&#45;&gt;Node3</title>
<g id="a_edge21_Node000014_Node000003"><a xlink:title=" ">
<path fill="none" stroke="#63b8ff" d="M593.36,-318.34C454.15,-310.44 190.4,-286.47 133,-217 99.73,-176.74 149.52,-115.75 177.35,-87.03"/>
<polygon fill="#63b8ff" stroke="#63b8ff" points="179.95,-89.38 184.53,-79.83 174.99,-84.44 179.95,-89.38"/>
</a>
</g>
</g>
<!-- Node14&#45;&gt;Node5 -->
<g id="edge20_Node000014_Node000005" class="edge">
<title>Node14&#45;&gt;Node5</title>
<g id="a_edge20_Node000014_Node000005"><a xlink:title=" ">
<path fill="none" stroke="#63b8ff" d="M766.63,-309.17C846.73,-294.83 967.34,-266.78 1062,-217 1127.48,-182.56 1137.39,-163.43 1198,-121 1215.24,-108.93 1234.87,-95.31 1249.27,-85.33"/>
<polygon fill="#63b8ff" stroke="#63b8ff" points="1251.26,-88.21 1257.49,-79.64 1247.28,-82.46 1251.26,-88.21"/>
</a>
</g>
</g>
<!-- Node14&#45;&gt;Node8 -->
<g id="edge22_Node000014_Node000008" class="edge">
<title>Node14&#45;&gt;Node8</title>
<g id="a_edge22_Node000014_Node000008"><a xlink:title=" ">
<path fill="none" stroke="#63b8ff" d="M670.96,-307.64C656.26,-282.33 630.58,-228.55 649,-187 670.04,-139.54 721.14,-103.23 752.04,-84.69"/>
<polygon fill="#63b8ff" stroke="#63b8ff" points="754.05,-87.57 760.92,-79.51 750.52,-81.52 754.05,-87.57"/>
</a>
</g>
</g>
<!-- Node14&#45;&gt;Node11 -->
<g id="edge36_Node000014_Node000011" class="edge">
<title>Node14&#45;&gt;Node11</title>
<g id="a_edge36_Node000014_Node000011"><a xlink:title=" ">
<path fill="none" stroke="#63b8ff" d="M766.77,-309.76C816.02,-301.23 871.45,-288.43 890,-272 924.35,-241.57 935.15,-185.34 938.51,-155.97"/>
<polygon fill="#63b8ff" stroke="#63b8ff" points="942.01,-156.11 939.49,-145.82 935.04,-155.44 942.01,-156.11"/>
</a>
</g>
</g>
<!-- Node15 -->
<g id="Node000015" class="node">
<title>Node15</title>
<g id="a_Node000015"><a xlink:href="UniformValueMap_8ixx.html" target="_top" xlink:title=" ">
<polygon fill="white" stroke="#666666" points="524,-151 390,-151 390,-121 524,-121 524,-151"/>
<text text-anchor="start" x="398" y="-139" font-family="Helvetica,sans-Serif" font-size="10.00">helios.rendering.shader.</text>
<text text-anchor="middle" x="457" y="-128" font-family="Helvetica,sans-Serif" font-size="10.00">UniformValueMap</text>
</a>
</g>
</g>
<!-- Node14&#45;&gt;Node15 -->
<g id="edge23_Node000014_Node000015" class="edge">
<title>Node14&#45;&gt;Node15</title>
<g id="a_edge23_Node000014_Node000015"><a xlink:title=" ">
<path fill="none" stroke="#63b8ff" d="M661.64,-307.97C648.76,-298.06 631.2,-284.38 616,-272 567.29,-232.32 511.57,-184.42 480.72,-157.66"/>
<polygon fill="#63b8ff" stroke="#63b8ff" points="482.91,-154.93 473.07,-151.02 478.32,-160.22 482.91,-154.93"/>
</a>
</g>
</g>
<!-- Node21 -->
<g id="Node000021" class="node">
<title>Node21</title>
<g id="a_Node000021"><a xlink:href="Shader_8ixx.html" target="_top" xlink:title=" ">
<polygon fill="white" stroke="#666666" points="792,-217 658,-217 658,-187 792,-187 792,-217"/>
<text text-anchor="start" x="666" y="-205" font-family="Helvetica,sans-Serif" font-size="10.00">helios.rendering.shader.</text>
<text text-anchor="middle" x="725" y="-194" font-family="Helvetica,sans-Serif" font-size="10.00">Shader</text>
</a>
</g>
</g>
<!-- Node14&#45;&gt;Node21 -->
<g id="edge30_Node000014_Node000021" class="edge">
<title>Node14&#45;&gt;Node21</title>
<g id="a_edge30_Node000014_Node000021"><a xlink:title=" ">
<path fill="none" stroke="#63b8ff" d="M682.95,-307.97C686.13,-293.83 691.73,-271.5 699,-253 702.59,-243.87 707.35,-234.22 711.82,-225.86"/>
<polygon fill="#63b8ff" stroke="#63b8ff" points="714.91,-227.51 716.67,-217.07 708.77,-224.14 714.91,-227.51"/>
</a>
</g>
</g>
<!-- Node22 -->
<g id="Node000022" class="node">
<title>Node22</title>
<g id="a_Node000022"><a xlink:href="MaterialPropertiesOverride_8ixx.html" target="_top" xlink:title=" ">
<polygon fill="white" stroke="#666666" points="306,-217 142,-217 142,-187 306,-187 306,-217"/>
<text text-anchor="start" x="150" y="-205" font-family="Helvetica,sans-Serif" font-size="10.00">helios.rendering.model.config.</text>
<text text-anchor="middle" x="224" y="-194" font-family="Helvetica,sans-Serif" font-size="10.00">MaterialPropertiesOverride</text>
</a>
</g>
</g>
<!-- Node14&#45;&gt;Node22 -->
<g id="edge37_Node000014_Node000022" class="edge">
<title>Node14&#45;&gt;Node22</title>
<g id="a_edge37_Node000014_Node000022"><a xlink:title=" ">
<path fill="none" stroke="#63b8ff" d="M624.23,-307.92C588.92,-298.61 542.45,-285.65 502,-272 480.26,-264.67 475.95,-259.68 454,-253 408.39,-239.12 356.59,-227.5 313.71,-218.98"/>
<polygon fill="#63b8ff" stroke="#63b8ff" points="314.34,-215.53 303.86,-217.04 312.99,-222.4 314.34,-215.53"/>
</a>
</g>
</g>
<!-- Node23 -->
<g id="Node000023" class="node">
<title>Node23</title>
<g id="a_Node000023"><a xlink:href="Material_8ixx.html" target="_top" xlink:title=" ">
<polygon fill="white" stroke="#666666" points="881.5,-272 708.5,-272 708.5,-253 881.5,-253 881.5,-272"/>
<text text-anchor="middle" x="795" y="-260" font-family="Helvetica,sans-Serif" font-size="10.00">helios.rendering.model.Material</text>
</a>
</g>
</g>
<!-- Node14&#45;&gt;Node23 -->
<g id="edge42_Node000014_Node000023" class="edge">
<title>Node14&#45;&gt;Node23</title>
<g id="a_edge42_Node000014_Node000023"><a xlink:title=" ">
<path fill="none" stroke="#63b8ff" d="M707.55,-307.99C726.22,-298.49 750.74,-286.02 769.06,-276.69"/>
<polygon fill="#63b8ff" stroke="#63b8ff" points="770.69,-279.79 778.02,-272.14 767.52,-273.55 770.69,-279.79"/>
</a>
</g>
</g>
<!-- Node15&#45;&gt;Node3 -->
<g id="edge27_Node000015_Node000003" class="edge">
<title>Node15&#45;&gt;Node3</title>
<g id="a_edge27_Node000015_Node000003"><a xlink:title=" ">
<path fill="none" stroke="#63b8ff" d="M399.28,-120.95C351.03,-109.21 283.17,-92.7 238.9,-81.93"/>
<polygon fill="#63b8ff" stroke="#63b8ff" points="239.54,-78.48 229,-79.52 237.89,-85.28 239.54,-78.48"/>
</a>
</g>
</g>
<!-- Node16 -->
<g id="Node000016" class="node">
<title>Node16</title>
<g id="a_Node000016"><a xlink:title=" ">
<polygon fill="#e0e0e0" stroke="#999999" points="476,-79.5 434,-79.5 434,-60.5 476,-60.5 476,-79.5"/>
<text text-anchor="middle" x="455" y="-67.5" font-family="Helvetica,sans-Serif" font-size="10.00">array</text>
</a>
</g>
</g>
<!-- Node15&#45;&gt;Node16 -->
<g id="edge24_Node000015_Node000016" class="edge">
<title>Node15&#45;&gt;Node16</title>
<g id="a_edge24_Node000015_Node000016"><a xlink:title=" ">
<path fill="none" stroke="#63b8ff" d="M456.56,-120.8C456.27,-111.7 455.9,-99.79 455.59,-89.9"/>
<polygon fill="#63b8ff" stroke="#63b8ff" points="459.09,-89.73 455.28,-79.84 452.09,-89.95 459.09,-89.73"/>
</a>
</g>
</g>
<!-- Node17 -->
<g id="Node000017" class="node">
<title>Node17</title>
<g id="a_Node000017"><a xlink:title=" ">
<polygon fill="#e0e0e0" stroke="#999999" points="620,-79.5 564,-79.5 564,-60.5 620,-60.5 620,-79.5"/>
<text text-anchor="middle" x="592" y="-67.5" font-family="Helvetica,sans-Serif" font-size="10.00">optional</text>
</a>
</g>
</g>
<!-- Node15&#45;&gt;Node17 -->
<g id="edge25_Node000015_Node000017" class="edge">
<title>Node15&#45;&gt;Node17</title>
<g id="a_edge25_Node000015_Node000017"><a xlink:title=" ">
<path fill="none" stroke="#63b8ff" d="M486.63,-120.95C509.99,-109.88 542.3,-94.56 564.97,-83.82"/>
<polygon fill="#63b8ff" stroke="#63b8ff" points="566.5,-86.96 574.03,-79.52 563.5,-80.64 566.5,-86.96"/>
</a>
</g>
</g>
<!-- Node18 -->
<g id="Node000018" class="node">
<title>Node18</title>
<g id="a_Node000018"><a xlink:title=" ">
<polygon fill="#e0e0e0" stroke="#999999" points="545.5,-79.5 494.5,-79.5 494.5,-60.5 545.5,-60.5 545.5,-79.5"/>
<text text-anchor="middle" x="520" y="-67.5" font-family="Helvetica,sans-Serif" font-size="10.00">variant</text>
</a>
</g>
</g>
<!-- Node15&#45;&gt;Node18 -->
<g id="edge26_Node000015_Node000018" class="edge">
<title>Node15&#45;&gt;Node18</title>
<g id="a_edge26_Node000015_Node000018"><a xlink:title=" ">
<path fill="none" stroke="#63b8ff" d="M470.98,-120.8C480.8,-110.82 493.96,-97.46 504.17,-87.09"/>
<polygon fill="#63b8ff" stroke="#63b8ff" points="506.77,-89.43 511.29,-79.84 501.78,-84.52 506.77,-89.43"/>
</a>
</g>
</g>
<!-- Node19 -->
<g id="Node000019" class="node">
<title>Node19</title>
<g id="a_Node000019"><a xlink:href="UniformSemantics_8ixx.html" target="_top" xlink:title=" ">
<polygon fill="white" stroke="#666666" points="416,-85 282,-85 282,-55 416,-55 416,-85"/>
<text text-anchor="start" x="290" y="-73" font-family="Helvetica,sans-Serif" font-size="10.00">helios.rendering.shader.</text>
<text text-anchor="middle" x="349" y="-62" font-family="Helvetica,sans-Serif" font-size="10.00">UniformSemantics</text>
</a>
</g>
</g>
<!-- Node15&#45;&gt;Node19 -->
<g id="edge28_Node000015_Node000019" class="edge">
<title>Node15&#45;&gt;Node19</title>
<g id="a_edge28_Node000015_Node000019"><a xlink:title=" ">
<path fill="none" stroke="#63b8ff" d="M433.3,-120.95C418.11,-111.95 398.18,-100.14 381.52,-90.27"/>
<polygon fill="#63b8ff" stroke="#63b8ff" points="383.03,-87.1 372.65,-85.01 379.46,-93.12 383.03,-87.1"/>
</a>
</g>
</g>
<!-- Node20 -->
<g id="Node000020" class="node">
<title>Node20</title>
<g id="a_Node000020"><a xlink:title=" ">
<polygon fill="#e0e0e0" stroke="#999999" points="374.5,-19 323.5,-19 323.5,0 374.5,0 374.5,-19"/>
<text text-anchor="middle" x="349" y="-7" font-family="Helvetica,sans-Serif" font-size="10.00">cwchar</text>
</a>
</g>
</g>
<!-- Node19&#45;&gt;Node20 -->
<g id="edge29_Node000019_Node000020" class="edge">
<title>Node19&#45;&gt;Node20</title>
<g id="a_edge29_Node000019_Node000020"><a xlink:title=" ">
<path fill="none" stroke="#63b8ff" d="M349,-54.84C349,-47.21 349,-37.7 349,-29.45"/>
<polygon fill="#63b8ff" stroke="#63b8ff" points="352.5,-29.27 349,-19.27 345.5,-29.27 352.5,-29.27"/>
</a>
</g>
</g>
<!-- Node21&#45;&gt;Node5 -->
<g id="edge31_Node000021_Node000005" class="edge">
<title>Node21&#45;&gt;Node5</title>
<g id="a_edge31_Node000021_Node000005"><a xlink:title=" ">
<path fill="none" stroke="#63b8ff" d="M742.71,-186.96C767.11,-168.45 813.15,-136.42 858,-121 926.5,-97.45 1141.57,-80.05 1230.7,-73.66"/>
<polygon fill="#63b8ff" stroke="#63b8ff" points="1231.2,-77.14 1240.93,-72.94 1230.71,-70.16 1231.2,-77.14"/>
</a>
</g>
</g>
<!-- Node21&#45;&gt;Node8 -->
<g id="edge34_Node000021_Node000008" class="edge">
<title>Node21&#45;&gt;Node8</title>
<g id="a_edge34_Node000021_Node000008"><a xlink:title=" ">
<path fill="none" stroke="#63b8ff" d="M728.26,-186.8C732.21,-170.55 739.55,-143.29 749,-121 753.78,-109.71 760.45,-97.71 766.08,-88.29"/>
<polygon fill="#63b8ff" stroke="#63b8ff" points="769.19,-89.91 771.44,-79.56 763.23,-86.25 769.19,-89.91"/>
</a>
</g>
</g>
<!-- Node21&#45;&gt;Node11 -->
<g id="edge35_Node000021_Node000011" class="edge">
<title>Node21&#45;&gt;Node11</title>
<g id="a_edge35_Node000021_Node000011"><a xlink:title=" ">
<path fill="none" stroke="#63b8ff" d="M772.18,-186.95C811.05,-175.38 865.47,-159.18 901.68,-148.41"/>
<polygon fill="#63b8ff" stroke="#63b8ff" points="902.8,-151.72 911.39,-145.52 900.8,-145.02 902.8,-151.72"/>
</a>
</g>
</g>
<!-- Node21&#45;&gt;Node15 -->
<g id="edge33_Node000021_Node000015" class="edge">
<title>Node21&#45;&gt;Node15</title>
<g id="a_edge33_Node000021_Node000015"><a xlink:title=" ">
<path fill="none" stroke="#63b8ff" d="M666.19,-186.95C624.73,-177.06 569.08,-163.77 525.6,-153.38"/>
<polygon fill="#63b8ff" stroke="#63b8ff" points="526.22,-149.93 515.68,-151.01 524.59,-156.74 526.22,-149.93"/>
</a>
</g>
</g>
<!-- Node21&#45;&gt;Node17 -->
<g id="edge32_Node000021_Node000017" class="edge">
<title>Node21&#45;&gt;Node17</title>
<g id="a_edge32_Node000021_Node000017"><a xlink:title=" ">
<path fill="none" stroke="#63b8ff" d="M710.51,-186.84C685.5,-162.39 634.37,-112.42 608.21,-86.85"/>
<polygon fill="#63b8ff" stroke="#63b8ff" points="610.55,-84.24 600.95,-79.75 605.65,-89.24 610.55,-84.24"/>
</a>
</g>
</g>
<!-- Node22&#45;&gt;Node3 -->
<g id="edge41_Node000022_Node000003" class="edge">
<title>Node22&#45;&gt;Node3</title>
<g id="a_edge41_Node000022_Node000003"><a xlink:title=" ">
<path fill="none" stroke="#63b8ff" d="M220.73,-186.84C215.28,-163.23 204.35,-115.83 198.29,-89.58"/>
<polygon fill="#63b8ff" stroke="#63b8ff" points="201.68,-88.71 196.02,-79.75 194.86,-90.28 201.68,-88.71"/>
</a>
</g>
</g>
<!-- Node22&#45;&gt;Node15 -->
<g id="edge40_Node000022_Node000015" class="edge">
<title>Node22&#45;&gt;Node15</title>
<g id="a_edge40_Node000022_Node000015"><a xlink:title=" ">
<path fill="none" stroke="#63b8ff" d="M275.13,-186.95C310.79,-177.16 358.54,-164.05 396.16,-153.71"/>
<polygon fill="#63b8ff" stroke="#63b8ff" points="397.27,-157.04 405.99,-151.01 395.42,-150.29 397.27,-157.04"/>
</a>
</g>
</g>
<!-- Node22&#45;&gt;Node17 -->
<g id="edge38_Node000022_Node000017" class="edge">
<title>Node22&#45;&gt;Node17</title>
<g id="a_edge38_Node000022_Node000017"><a xlink:title=" ">
<path fill="none" stroke="#63b8ff" d="M246.81,-186.92C276.61,-169.1 330.93,-138.61 381,-121 455.09,-94.94 478.5,-106.63 554,-85 556.28,-84.35 558.62,-83.62 560.97,-82.86"/>
<polygon fill="#63b8ff" stroke="#63b8ff" points="562.18,-86.14 570.48,-79.56 559.89,-79.53 562.18,-86.14"/>
</a>
</g>
</g>
<!-- Node22&#45;&gt;Node19 -->
<g id="edge39_Node000022_Node000019" class="edge">
<title>Node22&#45;&gt;Node19</title>
<g id="a_edge39_Node000022_Node000019"><a xlink:title=" ">
<path fill="none" stroke="#63b8ff" d="M237.62,-186.84C259.5,-164.08 302.64,-119.21 328.34,-92.49"/>
<polygon fill="#63b8ff" stroke="#63b8ff" points="330.99,-94.78 335.4,-85.14 325.95,-89.92 330.99,-94.78"/>
</a>
</g>
</g>
<!-- Node23&#45;&gt;Node5 -->
<g id="edge43_Node000023_Node000005" class="edge">
<title>Node23&#45;&gt;Node5</title>
<g id="a_edge43_Node000023_Node000005"><a xlink:title=" ">
<path fill="none" stroke="#63b8ff" d="M815.96,-252.97C850.09,-239.09 919.84,-210.77 979,-187 1073.58,-149 1185.65,-104.47 1238.9,-83.33"/>
<polygon fill="#63b8ff" stroke="#63b8ff" points="1240.44,-86.49 1248.45,-79.55 1237.86,-79.98 1240.44,-86.49"/>
</a>
</g>
</g>
<!-- Node23&#45;&gt;Node7 -->
<g id="edge44_Node000023_Node000007" class="edge">
<title>Node23&#45;&gt;Node7</title>
<g id="a_edge44_Node000023_Node000007"><a xlink:title=" ">
<path fill="none" stroke="#63b8ff" d="M831.47,-252.95C867.73,-244.33 924.88,-230.41 974,-217 977.12,-216.15 980.35,-215.24 983.59,-214.31"/>
<polygon fill="#63b8ff" stroke="#63b8ff" points="984.6,-217.66 993.23,-211.5 982.65,-210.94 984.6,-217.66"/>
</a>
</g>
</g>
<!-- Node23&#45;&gt;Node15 -->
<g id="edge53_Node000023_Node000015" class="edge">
<title>Node23&#45;&gt;Node15</title>
<g id="a_edge53_Node000023_Node000015"><a xlink:title=" ">
<path fill="none" stroke="#63b8ff" d="M763.66,-252.92C733.9,-244.54 688.02,-231.04 649,-217 595.9,-197.9 536.09,-172.31 497.55,-155.27"/>
<polygon fill="#63b8ff" stroke="#63b8ff" points="498.78,-151.99 488.22,-151.13 495.94,-158.39 498.78,-151.99"/>
</a>
</g>
</g>
<!-- Node23&#45;&gt;Node21 -->
<g id="edge48_Node000023_Node000021" class="edge">
<title>Node23&#45;&gt;Node21</title>
<g id="a_edge48_Node000023_Node000021"><a xlink:title=" ">
<path fill="none" stroke="#63b8ff" d="M784.67,-252.87C775.52,-245.22 761.81,-233.76 749.83,-223.75"/>
<polygon fill="#63b8ff" stroke="#63b8ff" points="751.81,-220.84 741.89,-217.11 747.32,-226.21 751.81,-220.84"/>
</a>
</g>
</g>
<!-- Node24 -->
<g id="Node000024" class="node">
<title>Node24</title>
<g id="a_Node000024"><a xlink:href="util_2log_2__module_8ixx.html" target="_top" xlink:title=" ">
<polygon fill="white" stroke="#666666" points="893.5,-211.5 810.5,-211.5 810.5,-192.5 893.5,-192.5 893.5,-211.5"/>
<text text-anchor="middle" x="852" y="-199.5" font-family="Helvetica,sans-Serif" font-size="10.00">helios.util.log</text>
</a>
</g>
</g>
<!-- Node23&#45;&gt;Node24 -->
<g id="edge45_Node000023_Node000024" class="edge">
<title>Node23&#45;&gt;Node24</title>
<g id="a_edge45_Node000023_Node000024"><a xlink:title=" ">
<path fill="none" stroke="#63b8ff" d="M803.41,-252.87C812.08,-243.97 825.8,-229.89 836.46,-218.95"/>
<polygon fill="#63b8ff" stroke="#63b8ff" points="839.08,-221.27 843.55,-211.67 834.07,-216.39 839.08,-221.27"/>
</a>
</g>
</g>
<!-- Node25 -->
<g id="Node000025" class="node">
<title>Node25</title>
<g id="a_Node000025"><a xlink:href="MaterialProperties_8ixx.html" target="_top" xlink:title=" ">
<polygon fill="white" stroke="#666666" points="488,-217 324,-217 324,-187 488,-187 488,-217"/>
<text text-anchor="start" x="332" y="-205" font-family="Helvetica,sans-Serif" font-size="10.00">helios.rendering.model.config.</text>
<text text-anchor="middle" x="406" y="-194" font-family="Helvetica,sans-Serif" font-size="10.00">MaterialProperties</text>
</a>
</g>
</g>
<!-- Node23&#45;&gt;Node25 -->
<g id="edge49_Node000023_Node000025" class="edge">
<title>Node23&#45;&gt;Node25</title>
<g id="a_edge49_Node000023_Node000025"><a xlink:title=" ">
<path fill="none" stroke="#63b8ff" d="M738.44,-252.99C675.54,-243.54 573.01,-228.12 498.42,-216.9"/>
<polygon fill="#63b8ff" stroke="#63b8ff" points="498.5,-213.37 488.09,-215.35 497.46,-220.29 498.5,-213.37"/>
</a>
</g>
</g>
<!-- Node24&#45;&gt;Node8 -->
<g id="edge47_Node000024_Node000008" class="edge">
<title>Node24&#45;&gt;Node8</title>
<g id="a_edge47_Node000024_Node000008"><a xlink:title=" ">
<path fill="none" stroke="#63b8ff" d="M847.08,-192.47C834.95,-171.45 803.43,-116.82 787.12,-88.54"/>
<polygon fill="#63b8ff" stroke="#63b8ff" points="790.07,-86.64 782.04,-79.73 784,-90.14 790.07,-86.64"/>
</a>
</g>
</g>
<!-- Node24&#45;&gt;Node11 -->
<g id="edge46_Node000024_Node000011" class="edge">
<title>Node24&#45;&gt;Node11</title>
<g id="a_edge46_Node000024_Node000011"><a xlink:title=" ">
<path fill="none" stroke="#63b8ff" d="M863.87,-192.37C878.17,-181.97 902.43,-164.32 919.72,-151.75"/>
<polygon fill="#63b8ff" stroke="#63b8ff" points="922.01,-154.41 928.04,-145.7 917.89,-148.75 922.01,-154.41"/>
</a>
</g>
</g>
<!-- Node25&#45;&gt;Node3 -->
<g id="edge52_Node000025_Node000003" class="edge">
<title>Node25&#45;&gt;Node3</title>
<g id="a_edge52_Node000025_Node000003"><a xlink:title=" ">
<path fill="none" stroke="#63b8ff" d="M382.91,-186.84C341.99,-161.75 257.25,-109.78 216.65,-84.89"/>
<polygon fill="#63b8ff" stroke="#63b8ff" points="218.36,-81.83 208,-79.59 214.7,-87.8 218.36,-81.83"/>
</a>
</g>
</g>
<!-- Node25&#45;&gt;Node15 -->
<g id="edge51_Node000025_Node000015" class="edge">
<title>Node25&#45;&gt;Node15</title>
<g id="a_edge51_Node000025_Node000015"><a xlink:title=" ">
<path fill="none" stroke="#63b8ff" d="M417.32,-186.8C423.79,-178.68 432.05,-168.31 439.35,-159.15"/>
<polygon fill="#63b8ff" stroke="#63b8ff" points="442.22,-161.17 445.71,-151.16 436.74,-156.8 442.22,-161.17"/>
</a>
</g>
</g>
<!-- Node25&#45;&gt;Node19 -->
<g id="edge50_Node000025_Node000019" class="edge">
<title>Node25&#45;&gt;Node19</title>
<g id="a_edge50_Node000025_Node000019"><a xlink:title=" ">
<path fill="none" stroke="#63b8ff" d="M398.46,-186.71C393.32,-176.79 386.49,-163.22 381,-151 372.61,-132.31 364.03,-110.71 357.87,-94.67"/>
<polygon fill="#63b8ff" stroke="#63b8ff" points="361.03,-93.12 354.2,-85.02 354.49,-95.61 361.03,-93.12"/>
</a>
</g>
</g>
<!-- Node26&#45;&gt;Node2 -->
<g id="edge58_Node000026_Node000002" class="edge">
<title>Node26&#45;&gt;Node2</title>
<g id="a_edge58_Node000026_Node000002"><a xlink:title=" ">
<path fill="none" stroke="#63b8ff" d="M1332.12,-257.49C1441.36,-251.24 1627.64,-237.68 1651,-217 1668.17,-201.8 1671.28,-174.17 1671.2,-155.7"/>
<polygon fill="#63b8ff" stroke="#63b8ff" points="1674.7,-155.44 1670.85,-145.57 1667.7,-155.69 1674.7,-155.44"/>
</a>
</g>
</g>
<!-- Node26&#45;&gt;Node3 -->
<g id="edge70_Node000026_Node000003" class="edge">
<title>Node26&#45;&gt;Node3</title>
<g id="a_edge70_Node000026_Node000003"><a xlink:title=" ">
<path fill="none" stroke="#63b8ff" d="M1229.19,-252.89C1205.1,-244.11 1166.82,-229.97 1134,-217 1101.76,-204.26 1095.49,-195.97 1062,-187 891.23,-141.26 447.75,-111.77 273,-85 265.53,-83.86 257.68,-82.57 249.95,-81.25"/>
<polygon fill="#63b8ff" stroke="#63b8ff" points="250.34,-77.77 239.89,-79.51 249.15,-84.66 250.34,-77.77"/>
</a>
</g>
</g>
<!-- Node26&#45;&gt;Node5 -->
<g id="edge56_Node000026_Node000005" class="edge">
<title>Node26&#45;&gt;Node5</title>
<g id="a_edge56_Node000026_Node000005"><a xlink:title=" ">
<path fill="none" stroke="#63b8ff" d="M1332.26,-261.71C1488.02,-259.57 1809.93,-240.99 1703,-121 1677.02,-91.84 1411.35,-77.2 1309.47,-72.62"/>
<polygon fill="#63b8ff" stroke="#63b8ff" points="1309.43,-69.11 1299.29,-72.17 1309.13,-76.11 1309.43,-69.11"/>
</a>
</g>
</g>
<!-- Node26&#45;&gt;Node7 -->
<g id="edge57_Node000026_Node000007" class="edge">
<title>Node26&#45;&gt;Node7</title>
<g id="a_edge57_Node000026_Node000007"><a xlink:title=" ">
<path fill="none" stroke="#63b8ff" d="M1219.27,-252.99C1178.02,-242.59 1108.19,-224.99 1063.37,-213.68"/>
<polygon fill="#63b8ff" stroke="#63b8ff" points="1064.2,-210.28 1053.65,-211.23 1062.49,-217.07 1064.2,-210.28"/>
</a>
</g>
</g>
<!-- Node26&#45;&gt;Node8 -->
<g id="edge59_Node000026_Node000008" class="edge">
<title>Node26&#45;&gt;Node8</title>
<g id="a_edge59_Node000026_Node000008"><a xlink:title=" ">
<path fill="none" stroke="#63b8ff" d="M1245.75,-252.62C1233,-237.47 1205.12,-206.37 1176,-187 1114,-145.76 1093.07,-143.23 1022,-121 963.66,-102.76 895.38,-89.46 845.75,-81.18"/>
<polygon fill="#63b8ff" stroke="#63b8ff" points="846.2,-77.71 835.76,-79.54 845.06,-84.61 846.2,-77.71"/>
</a>
</g>
</g>
<!-- Node26&#45;&gt;Node11 -->
<g id="edge60_Node000026_Node000011" class="edge">
<title>Node26&#45;&gt;Node11</title>
<g id="a_edge60_Node000026_Node000011"><a xlink:title=" ">
<path fill="none" stroke="#63b8ff" d="M1241.83,-252.84C1221.49,-237.46 1176.55,-205.28 1134,-187 1091.02,-168.54 1039.66,-155.67 1000.59,-147.62"/>
<polygon fill="#63b8ff" stroke="#63b8ff" points="1000.91,-144.12 990.42,-145.58 999.54,-150.98 1000.91,-144.12"/>
</a>
</g>
</g>
<!-- Node27 -->
<g id="Node000027" class="node">
<title>Node27</title>
<g id="a_Node000027"><a xlink:href="Vertex_8ixx.html" target="_top" xlink:title=" ">
<polygon fill="white" stroke="#666666" points="1337,-145.5 1207,-145.5 1207,-126.5 1337,-126.5 1337,-145.5"/>
<text text-anchor="middle" x="1272" y="-133.5" font-family="Helvetica,sans-Serif" font-size="10.00">helios.rendering.Vertex</text>
</a>
</g>
</g>
<!-- Node26&#45;&gt;Node27 -->
<g id="edge61_Node000026_Node000027" class="edge">
<title>Node26&#45;&gt;Node27</title>
<g id="a_edge61_Node000026_Node000027"><a xlink:title=" ">
<path fill="none" stroke="#63b8ff" d="M1254.31,-252.94C1257.34,-233.04 1264.94,-183.26 1269.12,-155.85"/>
<polygon fill="#63b8ff" stroke="#63b8ff" points="1272.64,-156.03 1270.68,-145.62 1265.72,-154.97 1272.64,-156.03"/>
</a>
</g>
</g>
<!-- Node28 -->
<g id="Node000028" class="node">
<title>Node28</title>
<g id="a_Node000028"><a xlink:href="Shape_8ixx.html" target="_top" xlink:title=" ">
<polygon fill="white" stroke="#666666" points="1460,-217 1300,-217 1300,-187 1460,-187 1460,-217"/>
<text text-anchor="start" x="1308" y="-205" font-family="Helvetica,sans-Serif" font-size="10.00">helios.rendering.asset.shape.</text>
<text text-anchor="middle" x="1380" y="-194" font-family="Helvetica,sans-Serif" font-size="10.00">Shape</text>
</a>
</g>
</g>
<!-- Node26&#45;&gt;Node28 -->
<g id="edge63_Node000026_Node000028" class="edge">
<title>Node26&#45;&gt;Node28</title>
<g id="a_edge63_Node000026_Node000028"><a xlink:title=" ">
<path fill="none" stroke="#63b8ff" d="M1271.47,-252.99C1289.36,-244.75 1317.1,-231.98 1340.05,-221.4"/>
<polygon fill="#63b8ff" stroke="#63b8ff" points="1341.6,-224.54 1349.22,-217.18 1338.67,-218.18 1341.6,-224.54"/>
</a>
</g>
</g>
<!-- Node30 -->
<g id="Node000030" class="node">
<title>Node30</title>
<g id="a_Node000030"><a xlink:href="MeshConfig_8ixx.html" target="_top" xlink:title=" ">
<polygon fill="white" stroke="#666666" points="1642,-217 1478,-217 1478,-187 1642,-187 1642,-217"/>
<text text-anchor="start" x="1486" y="-205" font-family="Helvetica,sans-Serif" font-size="10.00">helios.rendering.model.config.</text>
<text text-anchor="middle" x="1560" y="-194" font-family="Helvetica,sans-Serif" font-size="10.00">MeshConfig</text>
</a>
</g>
</g>
<!-- Node26&#45;&gt;Node30 -->
<g id="edge68_Node000026_Node000030" class="edge">
<title>Node26&#45;&gt;Node30</title>
<g id="a_edge68_Node000026_Node000030"><a xlink:title=" ">
<path fill="none" stroke="#63b8ff" d="M1297.64,-252.99C1344.41,-244.08 1418.96,-229.88 1476.65,-218.88"/>
<polygon fill="#63b8ff" stroke="#63b8ff" points="1477.32,-222.32 1486.49,-217.01 1476.01,-215.44 1477.32,-222.32"/>
</a>
</g>
</g>
<!-- Node27&#45;&gt;Node3 -->
<g id="edge62_Node000027_Node000003" class="edge">
<title>Node27&#45;&gt;Node3</title>
<g id="a_edge62_Node000027_Node000003"><a xlink:title=" ">
<path fill="none" stroke="#63b8ff" d="M1207,-131.22C1156.54,-128.32 1084.84,-124.27 1022,-121 689.18,-103.68 604.2,-122.15 273,-85 264.44,-84.04 255.41,-82.73 246.64,-81.29"/>
<polygon fill="#63b8ff" stroke="#63b8ff" points="246.94,-77.79 236.5,-79.56 245.76,-84.69 246.94,-77.79"/>
</a>
</g>
</g>
<!-- Node28&#45;&gt;Node2 -->
<g id="edge65_Node000028_Node000002" class="edge">
<title>Node28&#45;&gt;Node2</title>
<g id="a_edge65_Node000028_Node000002"><a xlink:title=" ">
<path fill="none" stroke="#63b8ff" d="M1443.64,-186.95C1503.01,-173.85 1589.28,-154.81 1636.32,-144.43"/>
<polygon fill="#63b8ff" stroke="#63b8ff" points="1637.28,-147.8 1646.29,-142.23 1635.77,-140.97 1637.28,-147.8"/>
</a>
</g>
</g>
<!-- Node28&#45;&gt;Node5 -->
<g id="edge64_Node000028_Node000005" class="edge">
<title>Node28&#45;&gt;Node5</title>
<g id="a_edge64_Node000028_Node000005"><a xlink:title=" ">
<path fill="none" stroke="#63b8ff" d="M1376.71,-186.95C1372.15,-169.85 1362.53,-140.81 1346,-121 1333.1,-105.53 1314.19,-93.07 1298.46,-84.45"/>
<polygon fill="#63b8ff" stroke="#63b8ff" points="1299.64,-81.12 1289.16,-79.59 1296.4,-87.33 1299.64,-81.12"/>
</a>
</g>
</g>
<!-- Node28&#45;&gt;Node27 -->
<g id="edge67_Node000028_Node000027" class="edge">
<title>Node28&#45;&gt;Node27</title>
<g id="a_edge67_Node000028_Node000027"><a xlink:title=" ">
<path fill="none" stroke="#63b8ff" d="M1356.3,-186.95C1338.11,-176.18 1313.14,-161.38 1295.1,-150.69"/>
<polygon fill="#63b8ff" stroke="#63b8ff" points="1296.76,-147.6 1286.37,-145.52 1293.19,-153.63 1296.76,-147.6"/>
</a>
</g>
</g>
<!-- Node29 -->
<g id="Node000029" class="node">
<title>Node29</title>
<g id="a_Node000029"><a xlink:href="PrimitiveType_8ixx.html" target="_top" xlink:title=" ">
<polygon fill="white" stroke="#666666" points="1597,-151 1433,-151 1433,-121 1597,-121 1597,-151"/>
<text text-anchor="start" x="1441" y="-139" font-family="Helvetica,sans-Serif" font-size="10.00">helios.rendering.model.config.</text>
<text text-anchor="middle" x="1515" y="-128" font-family="Helvetica,sans-Serif" font-size="10.00">PrimitiveType</text>
</a>
</g>
</g>
<!-- Node28&#45;&gt;Node29 -->
<g id="edge66_Node000028_Node000029" class="edge">
<title>Node28&#45;&gt;Node29</title>
<g id="a_edge66_Node000028_Node000029"><a xlink:title=" ">
<path fill="none" stroke="#63b8ff" d="M1409.63,-186.95C1429.23,-177.66 1455.14,-165.38 1476.37,-155.32"/>
<polygon fill="#63b8ff" stroke="#63b8ff" points="1477.91,-158.46 1485.44,-151.01 1474.91,-152.13 1477.91,-158.46"/>
</a>
</g>
</g>
<!-- Node30&#45;&gt;Node29 -->
<g id="edge69_Node000030_Node000029" class="edge">
<title>Node30&#45;&gt;Node29</title>
<g id="a_edge69_Node000030_Node000029"><a xlink:title=" ">
<path fill="none" stroke="#63b8ff" d="M1550.01,-186.8C1544.36,-178.76 1537.17,-168.53 1530.77,-159.43"/>
<polygon fill="#63b8ff" stroke="#63b8ff" points="1533.57,-157.33 1524.96,-151.16 1527.85,-161.36 1533.57,-157.33"/>
</a>
</g>
</g>
</g>
</svg>
