<?xml version="1.0" encoding="UTF-8" standalone="no"?>
<!DOCTYPE svg PUBLIC "-//W3C//DTD SVG 1.1//EN"
 "http://www.w3.org/Graphics/SVG/1.1/DTD/svg11.dtd">
<!-- Generated by graphviz version 2.43.0 (0)
 -->
<!-- Title: include/helios/scene/SnapshotItem.ixx Pages: 1 -->
<svg width="1756pt" height="467pt"
 viewBox="0.00 0.00 1755.59 467.00" xmlns="http://www.w3.org/2000/svg" xmlns:xlink="http://www.w3.org/1999/xlink">
<g id="graph0" class="graph" transform="scale(1 1) rotate(0) translate(4 463)">
<title>include/helios/scene/SnapshotItem.ixx</title>
<!-- Node1 -->
<g id="Node000001" class="node">
<title>Node1</title>
<g id="a_Node000001"><a xlink:title=" ">
<polygon fill="#999999" stroke="#666666" points="1102.59,-459 986.59,-459 986.59,-429 1102.59,-429 1102.59,-459"/>
<text text-anchor="start" x="994.59" y="-447" font-family="Helvetica,sans-Serif" font-size="10.00">include/helios/scene</text>
<text text-anchor="middle" x="1044.59" y="-436" font-family="Helvetica,sans-Serif" font-size="10.00">/SnapshotItem.ixx</text>
</a>
</g>
</g>
<!-- Node2 -->
<g id="Node000002" class="node">
<title>Node2</title>
<g id="a_Node000002"><a xlink:title=" ">
<polygon fill="#e0e0e0" stroke="#999999" points="1168.59,-79.5 1110.59,-79.5 1110.59,-60.5 1168.59,-60.5 1168.59,-79.5"/>
<text text-anchor="middle" x="1139.59" y="-67.5" font-family="Helvetica,sans-Serif" font-size="10.00">memory</text>
</a>
</g>
</g>
<!-- Node1&#45;&gt;Node2 -->
<g id="edge1_Node000001_Node000002" class="edge">
<title>Node1&#45;&gt;Node2</title>
<g id="a_edge1_Node000001_Node000002"><a xlink:title=" ">
<path fill="none" stroke="#63b8ff" d="M1102.72,-439.27C1271.15,-427.71 1747.59,-389.22 1747.59,-324 1747.59,-324 1747.59,-324 1747.59,-201 1747.59,-159.99 1736.15,-143.09 1701.59,-121 1657.78,-92.99 1299.99,-77.05 1179.23,-72.42"/>
<polygon fill="#63b8ff" stroke="#63b8ff" points="1179.08,-68.91 1168.96,-72.03 1178.82,-75.91 1179.08,-68.91"/>
</a>
</g>
</g>
<!-- Node3 -->
<g id="Node000003" class="node">
<title>Node3</title>
<g id="a_Node000003"><a xlink:href="math_2types_2__module_8ixx.html" target="_top" xlink:title=" ">
<polygon fill="white" stroke="#666666" points="490.59,-79.5 386.59,-79.5 386.59,-60.5 490.59,-60.5 490.59,-79.5"/>
<text text-anchor="middle" x="438.59" y="-67.5" font-family="Helvetica,sans-Serif" font-size="10.00">helios.math.types</text>
</a>
</g>
</g>
<!-- Node1&#45;&gt;Node3 -->
<g id="edge2_Node000001_Node000003" class="edge">
<title>Node1&#45;&gt;Node3</title>
<g id="a_edge2_Node000001_Node000003"><a xlink:title=" ">
<path fill="none" stroke="#63b8ff" d="M986.22,-442.53C766.36,-439.99 0.59,-423.99 0.59,-324 0.59,-324 0.59,-324 0.59,-261.5 0.59,-227.33 -1.77,-213.67 19.59,-187 60.1,-136.43 87.97,-141.03 149.59,-121 245.9,-89.7 275.08,-103.83 374.59,-85 380.04,-83.97 385.73,-82.82 391.38,-81.64"/>
<polygon fill="#63b8ff" stroke="#63b8ff" points="392.39,-85.01 401.44,-79.5 390.93,-78.16 392.39,-85.01"/>
</a>
</g>
</g>
<!-- Node4 -->
<g id="Node000004" class="node">
<title>Node4</title>
<g id="a_Node000004"><a xlink:href="Renderable_8ixx.html" target="_top" xlink:title=" ">
<polygon fill="white" stroke="#666666" points="1121.59,-393 967.59,-393 967.59,-374 1121.59,-374 1121.59,-393"/>
<text text-anchor="middle" x="1044.59" y="-381" font-family="Helvetica,sans-Serif" font-size="10.00">helios.rendering.Renderable</text>
</a>
</g>
</g>
<!-- Node1&#45;&gt;Node4 -->
<g id="edge4_Node000001_Node000004" class="edge">
<title>Node1&#45;&gt;Node4</title>
<g id="a_edge4_Node000001_Node000004"><a xlink:title=" ">
<path fill="none" stroke="#63b8ff" d="M1044.59,-428.84C1044.59,-421.21 1044.59,-411.7 1044.59,-403.45"/>
<polygon fill="#63b8ff" stroke="#63b8ff" points="1048.09,-403.27 1044.59,-393.27 1041.09,-403.27 1048.09,-403.27"/>
</a>
</g>
</g>
<!-- Node3&#45;&gt;Node3 -->
<g id="edge3_Node000003_Node000003" class="edge">
<title>Node3&#45;&gt;Node3</title>
<g id="a_edge3_Node000003_Node000003"><a xlink:title=" ">
<path fill="none" stroke="#63b8ff" d="M464.44,-79.53C486.03,-83.61 508.59,-80.43 508.59,-70 508.59,-61.2 492.53,-57.56 474.54,-59.09"/>
<polygon fill="#63b8ff" stroke="#63b8ff" points="473.87,-55.65 464.44,-60.47 474.82,-62.58 473.87,-55.65"/>
</a>
</g>
</g>
<!-- Node4&#45;&gt;Node2 -->
<g id="edge5_Node000004_Node000002" class="edge">
<title>Node4&#45;&gt;Node2</title>
<g id="a_edge5_Node000004_Node000002"><a xlink:title=" ">
<path fill="none" stroke="#63b8ff" d="M1053.41,-373.77C1061.42,-365.33 1072.97,-351.83 1079.59,-338 1121.09,-251.26 1134.47,-134.8 1138.26,-89.82"/>
<polygon fill="#63b8ff" stroke="#63b8ff" points="1141.75,-90 1139.04,-79.76 1134.78,-89.46 1141.75,-90"/>
</a>
</g>
</g>
<!-- Node4&#45;&gt;Node3 -->
<g id="edge51_Node000004_Node000003" class="edge">
<title>Node4&#45;&gt;Node3</title>
<g id="a_edge51_Node000004_Node000003"><a xlink:title=" ">
<path fill="none" stroke="#63b8ff" d="M1041.55,-373.98C1029.14,-339.73 981.53,-212.71 948.59,-187 888.39,-140.02 855.1,-167.7 780.59,-151 674.12,-127.14 549.41,-97.55 483.97,-81.9"/>
<polygon fill="#63b8ff" stroke="#63b8ff" points="484.53,-78.43 473.99,-79.51 482.9,-85.24 484.53,-78.43"/>
</a>
</g>
</g>
<!-- Node5 -->
<g id="Node000005" class="node">
<title>Node5</title>
<g id="a_Node000005"><a xlink:title=" ">
<polygon fill="#e0e0e0" stroke="#999999" points="940.09,-211.5 875.09,-211.5 875.09,-192.5 940.09,-192.5 940.09,-211.5"/>
<text text-anchor="middle" x="907.59" y="-199.5" font-family="Helvetica,sans-Serif" font-size="10.00">stdexcept</text>
</a>
</g>
</g>
<!-- Node4&#45;&gt;Node5 -->
<g id="edge6_Node000004_Node000005" class="edge">
<title>Node4&#45;&gt;Node5</title>
<g id="a_edge6_Node000004_Node000005"><a xlink:title=" ">
<path fill="none" stroke="#63b8ff" d="M1013.72,-373.9C994.34,-367.05 970.17,-355.64 954.59,-338 924.71,-304.15 913.56,-250.23 909.61,-221.86"/>
<polygon fill="#63b8ff" stroke="#63b8ff" points="913.06,-221.21 908.36,-211.71 906.11,-222.07 913.06,-221.21"/>
</a>
</g>
</g>
<!-- Node6 -->
<g id="Node000006" class="node">
<title>Node6</title>
<g id="a_Node000006"><a xlink:href="Logger_8ixx.html" target="_top" xlink:title=" ">
<polygon fill="white" stroke="#666666" points="828.09,-79.5 709.09,-79.5 709.09,-60.5 828.09,-60.5 828.09,-79.5"/>
<text text-anchor="middle" x="768.59" y="-67.5" font-family="Helvetica,sans-Serif" font-size="10.00">helios.util.log.Logger</text>
</a>
</g>
</g>
<!-- Node4&#45;&gt;Node6 -->
<g id="edge7_Node000004_Node000006" class="edge">
<title>Node4&#45;&gt;Node6</title>
<g id="a_edge7_Node000004_Node000006"><a xlink:title=" ">
<path fill="none" stroke="#63b8ff" d="M1044.3,-373.85C1042.83,-344.02 1034.13,-244.09 982.59,-187 955.65,-157.15 935.28,-169.52 899.59,-151 859.57,-130.23 815.22,-101.96 789.75,-85.19"/>
<polygon fill="#63b8ff" stroke="#63b8ff" points="791.53,-82.17 781.26,-79.56 787.66,-88 791.53,-82.17"/>
</a>
</g>
</g>
<!-- Node9 -->
<g id="Node000009" class="node">
<title>Node9</title>
<g id="a_Node000009"><a xlink:href="LogManager_8ixx.html" target="_top" xlink:title=" ">
<polygon fill="white" stroke="#666666" points="1054.59,-145.5 908.59,-145.5 908.59,-126.5 1054.59,-126.5 1054.59,-145.5"/>
<text text-anchor="middle" x="981.59" y="-133.5" font-family="Helvetica,sans-Serif" font-size="10.00">helios.util.log.LogManager</text>
</a>
</g>
</g>
<!-- Node4&#45;&gt;Node9 -->
<g id="edge10_Node000004_Node000009" class="edge">
<title>Node4&#45;&gt;Node9</title>
<g id="a_edge10_Node000004_Node000009"><a xlink:title=" ">
<path fill="none" stroke="#63b8ff" d="M1048.4,-373.61C1060.21,-344.61 1093.34,-250.99 1058.59,-187 1049.37,-170.02 1031.62,-157.91 1015.48,-149.87"/>
<polygon fill="#63b8ff" stroke="#63b8ff" points="1016.79,-146.62 1006.25,-145.59 1013.85,-152.97 1016.79,-146.62"/>
</a>
</g>
</g>
<!-- Node12 -->
<g id="Node000012" class="node">
<title>Node12</title>
<g id="a_Node000012"><a xlink:href="MaterialInstance_8ixx.html" target="_top" xlink:title=" ">
<polygon fill="white" stroke="#666666" points="670.09,-338 497.09,-338 497.09,-308 670.09,-308 670.09,-338"/>
<text text-anchor="start" x="505.09" y="-326" font-family="Helvetica,sans-Serif" font-size="10.00">helios.rendering.model.Material</text>
<text text-anchor="middle" x="583.59" y="-315" font-family="Helvetica,sans-Serif" font-size="10.00">Instance</text>
</a>
</g>
</g>
<!-- Node4&#45;&gt;Node12 -->
<g id="edge16_Node000004_Node000012" class="edge">
<title>Node4&#45;&gt;Node12</title>
<g id="a_edge16_Node000004_Node000012"><a xlink:title=" ">
<path fill="none" stroke="#63b8ff" d="M977.56,-373.99C899.41,-364.08 769.61,-347.61 680.5,-336.3"/>
<polygon fill="#63b8ff" stroke="#63b8ff" points="680.74,-332.8 670.38,-335.01 679.86,-339.74 680.74,-332.8"/>
</a>
</g>
</g>
<!-- Node24 -->
<g id="Node000024" class="node">
<title>Node24</title>
<g id="a_Node000024"><a xlink:href="Mesh_8ixx.html" target="_top" xlink:title=" ">
<polygon fill="white" stroke="#666666" points="1382.59,-272 1224.59,-272 1224.59,-253 1382.59,-253 1382.59,-272"/>
<text text-anchor="middle" x="1303.59" y="-260" font-family="Helvetica,sans-Serif" font-size="10.00">helios.rendering.model.Mesh</text>
</a>
</g>
</g>
<!-- Node4&#45;&gt;Node24 -->
<g id="edge52_Node000004_Node000024" class="edge">
<title>Node4&#45;&gt;Node24</title>
<g id="a_edge52_Node000004_Node000024"><a xlink:title=" ">
<path fill="none" stroke="#63b8ff" d="M1098.21,-373.97C1131.76,-367.24 1175.19,-355.92 1210.59,-338 1240.73,-322.74 1270.25,-296.64 1287.69,-279.73"/>
<polygon fill="#63b8ff" stroke="#63b8ff" points="1290.59,-281.79 1295.23,-272.26 1285.66,-276.82 1290.59,-281.79"/>
</a>
</g>
</g>
<!-- Node7 -->
<g id="Node000007" class="node">
<title>Node7</title>
<g id="a_Node000007"><a xlink:title=" ">
<polygon fill="#e0e0e0" stroke="#999999" points="798.59,-19 738.59,-19 738.59,0 798.59,0 798.59,-19"/>
<text text-anchor="middle" x="768.59" y="-7" font-family="Helvetica,sans-Serif" font-size="10.00">iostream</text>
</a>
</g>
</g>
<!-- Node6&#45;&gt;Node7 -->
<g id="edge8_Node000006_Node000007" class="edge">
<title>Node6&#45;&gt;Node7</title>
<g id="a_edge8_Node000006_Node000007"><a xlink:title=" ">
<path fill="none" stroke="#63b8ff" d="M768.59,-60.37C768.59,-52.25 768.59,-39.81 768.59,-29.39"/>
<polygon fill="#63b8ff" stroke="#63b8ff" points="772.09,-29.17 768.59,-19.17 765.09,-29.17 772.09,-29.17"/>
</a>
</g>
</g>
<!-- Node8 -->
<g id="Node000008" class="node">
<title>Node8</title>
<g id="a_Node000008"><a xlink:title=" ">
<polygon fill="#e0e0e0" stroke="#999999" points="957.59,-19 913.59,-19 913.59,0 957.59,0 957.59,-19"/>
<text text-anchor="middle" x="935.59" y="-7" font-family="Helvetica,sans-Serif" font-size="10.00">string</text>
</a>
</g>
</g>
<!-- Node6&#45;&gt;Node8 -->
<g id="edge9_Node000006_Node000008" class="edge">
<title>Node6&#45;&gt;Node8</title>
<g id="a_edge9_Node000006_Node000008"><a xlink:title=" ">
<path fill="none" stroke="#63b8ff" d="M792.87,-60.49C822.1,-50.26 871.26,-33.04 903.56,-21.72"/>
<polygon fill="#63b8ff" stroke="#63b8ff" points="905.13,-24.88 913.41,-18.27 902.82,-18.27 905.13,-24.88"/>
</a>
</g>
</g>
<!-- Node9&#45;&gt;Node2 -->
<g id="edge13_Node000009_Node000002" class="edge">
<title>Node9&#45;&gt;Node2</title>
<g id="a_edge13_Node000009_Node000002"><a xlink:title=" ">
<path fill="none" stroke="#63b8ff" d="M1002.9,-126.37C1030.19,-115.32 1077.66,-96.08 1108.86,-83.45"/>
<polygon fill="#63b8ff" stroke="#63b8ff" points="1110.41,-86.59 1118.37,-79.6 1107.79,-80.11 1110.41,-86.59"/>
</a>
</g>
</g>
<!-- Node9&#45;&gt;Node6 -->
<g id="edge15_Node000009_Node000006" class="edge">
<title>Node9&#45;&gt;Node6</title>
<g id="a_edge15_Node000009_Node000006"><a xlink:title=" ">
<path fill="none" stroke="#63b8ff" d="M952.86,-126.37C915.12,-115.03 848.73,-95.08 806.79,-82.48"/>
<polygon fill="#63b8ff" stroke="#63b8ff" points="807.79,-79.12 797.2,-79.6 805.77,-85.83 807.79,-79.12"/>
</a>
</g>
</g>
<!-- Node9&#45;&gt;Node8 -->
<g id="edge11_Node000009_Node000008" class="edge">
<title>Node9&#45;&gt;Node8</title>
<g id="a_edge11_Node000009_Node000008"><a xlink:title=" ">
<path fill="none" stroke="#63b8ff" d="M990.36,-126.23C1004.37,-111.1 1028.84,-79.39 1014.59,-55 1004.43,-37.62 984.71,-26.5 967.51,-19.72"/>
<polygon fill="#63b8ff" stroke="#63b8ff" points="968.36,-16.31 957.76,-16.22 965.99,-22.89 968.36,-16.31"/>
</a>
</g>
</g>
<!-- Node10 -->
<g id="Node000010" class="node">
<title>Node10</title>
<g id="a_Node000010"><a xlink:title=" ">
<polygon fill="#e0e0e0" stroke="#999999" points="939.09,-79.5 846.09,-79.5 846.09,-60.5 939.09,-60.5 939.09,-79.5"/>
<text text-anchor="middle" x="892.59" y="-67.5" font-family="Helvetica,sans-Serif" font-size="10.00">unordered_map</text>
</a>
</g>
</g>
<!-- Node9&#45;&gt;Node10 -->
<g id="edge12_Node000009_Node000010" class="edge">
<title>Node9&#45;&gt;Node10</title>
<g id="a_edge12_Node000009_Node000010"><a xlink:title=" ">
<path fill="none" stroke="#63b8ff" d="M969.59,-126.37C955.12,-115.97 930.59,-98.32 913.1,-85.75"/>
<polygon fill="#63b8ff" stroke="#63b8ff" points="914.85,-82.7 904.69,-79.7 910.76,-88.38 914.85,-82.7"/>
</a>
</g>
</g>
<!-- Node11 -->
<g id="Node000011" class="node">
<title>Node11</title>
<g id="a_Node000011"><a xlink:title=" ">
<polygon fill="#e0e0e0" stroke="#999999" points="1005.59,-79.5 957.59,-79.5 957.59,-60.5 1005.59,-60.5 1005.59,-79.5"/>
<text text-anchor="middle" x="981.59" y="-67.5" font-family="Helvetica,sans-Serif" font-size="10.00">mutex</text>
</a>
</g>
</g>
<!-- Node9&#45;&gt;Node11 -->
<g id="edge14_Node000009_Node000011" class="edge">
<title>Node9&#45;&gt;Node11</title>
<g id="a_edge14_Node000009_Node000011"><a xlink:title=" ">
<path fill="none" stroke="#63b8ff" d="M981.59,-126.37C981.59,-117.16 981.59,-102.29 981.59,-90.27"/>
<polygon fill="#63b8ff" stroke="#63b8ff" points="985.09,-89.91 981.59,-79.91 978.09,-89.91 985.09,-89.91"/>
</a>
</g>
</g>
<!-- Node12&#45;&gt;Node2 -->
<g id="edge17_Node000012_Node000002" class="edge">
<title>Node12&#45;&gt;Node2</title>
<g id="a_edge17_Node000012_Node000002"><a xlink:title=" ">
<path fill="none" stroke="#63b8ff" d="M670.45,-314.88C782.37,-301.33 976.73,-262.33 1096.59,-151 1115.05,-133.86 1127.21,-106.96 1133.75,-89.15"/>
<polygon fill="#63b8ff" stroke="#63b8ff" points="1137.08,-90.23 1137.03,-79.64 1130.46,-87.95 1137.08,-90.23"/>
</a>
</g>
</g>
<!-- Node12&#45;&gt;Node3 -->
<g id="edge18_Node000012_Node000003" class="edge">
<title>Node12&#45;&gt;Node3</title>
<g id="a_edge18_Node000012_Node000003"><a xlink:title=" ">
<path fill="none" stroke="#63b8ff" d="M549.63,-307.89C533.36,-299.59 514.8,-287.63 502.59,-272 458.47,-215.5 444.4,-127.88 440.23,-89.77"/>
<polygon fill="#63b8ff" stroke="#63b8ff" points="443.69,-89.23 439.22,-79.62 436.72,-89.92 443.69,-89.23"/>
</a>
</g>
</g>
<!-- Node12&#45;&gt;Node6 -->
<g id="edge19_Node000012_Node000006" class="edge">
<title>Node12&#45;&gt;Node6</title>
<g id="a_edge19_Node000012_Node000006"><a xlink:title=" ">
<path fill="none" stroke="#63b8ff" d="M570.7,-307.72C549.2,-282.08 510.71,-227.18 535.59,-187 573.52,-125.75 654.57,-95.8 710.33,-81.92"/>
<polygon fill="#63b8ff" stroke="#63b8ff" points="711.17,-85.32 720.08,-79.59 709.54,-78.51 711.17,-85.32"/>
</a>
</g>
</g>
<!-- Node12&#45;&gt;Node9 -->
<g id="edge33_Node000012_Node000009" class="edge">
<title>Node12&#45;&gt;Node9</title>
<g id="a_edge33_Node000012_Node000009"><a xlink:title=" ">
<path fill="none" stroke="#63b8ff" d="M670.34,-313.87C710.16,-307.1 756.63,-294.71 793.59,-272 835.78,-246.09 825.81,-216.47 865.59,-187 888.72,-169.87 918.62,-157.16 942.28,-148.84"/>
<polygon fill="#63b8ff" stroke="#63b8ff" points="943.65,-152.07 951.99,-145.55 941.4,-145.45 943.65,-152.07"/>
</a>
</g>
</g>
<!-- Node13 -->
<g id="Node000013" class="node">
<title>Node13</title>
<g id="a_Node000013"><a xlink:href="UniformValueMap_8ixx.html" target="_top" xlink:title=" ">
<polygon fill="white" stroke="#666666" points="336.59,-151 202.59,-151 202.59,-121 336.59,-121 336.59,-151"/>
<text text-anchor="start" x="210.59" y="-139" font-family="Helvetica,sans-Serif" font-size="10.00">helios.rendering.shader.</text>
<text text-anchor="middle" x="269.59" y="-128" font-family="Helvetica,sans-Serif" font-size="10.00">UniformValueMap</text>
</a>
</g>
</g>
<!-- Node12&#45;&gt;Node13 -->
<g id="edge20_Node000012_Node000013" class="edge">
<title>Node12&#45;&gt;Node13</title>
<g id="a_edge20_Node000012_Node000013"><a xlink:title=" ">
<path fill="none" stroke="#63b8ff" d="M499.02,-307.95C407.55,-290.82 270.61,-258.91 239.59,-217 226.81,-199.74 238.08,-176.42 250.28,-159.41"/>
<polygon fill="#63b8ff" stroke="#63b8ff" points="253.31,-161.22 256.63,-151.16 247.76,-156.95 253.31,-161.22"/>
</a>
</g>
</g>
<!-- Node19 -->
<g id="Node000019" class="node">
<title>Node19</title>
<g id="a_Node000019"><a xlink:href="Shader_8ixx.html" target="_top" xlink:title=" ">
<polygon fill="white" stroke="#666666" points="678.59,-217 544.59,-217 544.59,-187 678.59,-187 678.59,-217"/>
<text text-anchor="start" x="552.59" y="-205" font-family="Helvetica,sans-Serif" font-size="10.00">helios.rendering.shader.</text>
<text text-anchor="middle" x="611.59" y="-194" font-family="Helvetica,sans-Serif" font-size="10.00">Shader</text>
</a>
</g>
</g>
<!-- Node12&#45;&gt;Node19 -->
<g id="edge27_Node000012_Node000019" class="edge">
<title>Node12&#45;&gt;Node19</title>
<g id="a_edge27_Node000012_Node000019"><a xlink:title=" ">
<path fill="none" stroke="#63b8ff" d="M586.91,-307.88C591.61,-287.93 600.24,-251.22 605.95,-226.96"/>
<polygon fill="#63b8ff" stroke="#63b8ff" points="609.39,-227.64 608.27,-217.1 602.58,-226.03 609.39,-227.64"/>
</a>
</g>
</g>
<!-- Node20 -->
<g id="Node000020" class="node">
<title>Node20</title>
<g id="a_Node000020"><a xlink:href="MaterialPropertiesOverride_8ixx.html" target="_top" xlink:title=" ">
<polygon fill="white" stroke="#666666" points="192.59,-217 28.59,-217 28.59,-187 192.59,-187 192.59,-217"/>
<text text-anchor="start" x="36.59" y="-205" font-family="Helvetica,sans-Serif" font-size="10.00">helios.rendering.model.config.</text>
<text text-anchor="middle" x="110.59" y="-194" font-family="Helvetica,sans-Serif" font-size="10.00">MaterialPropertiesOverride</text>
</a>
</g>
</g>
<!-- Node12&#45;&gt;Node20 -->
<g id="edge34_Node000012_Node000020" class="edge">
<title>Node12&#45;&gt;Node20</title>
<g id="a_edge34_Node000012_Node000020"><a xlink:title=" ">
<path fill="none" stroke="#63b8ff" d="M496.75,-322.36C418.34,-319.96 301.11,-309.48 206.59,-272 178.63,-260.91 151.22,-239.91 132.89,-223.97"/>
<polygon fill="#63b8ff" stroke="#63b8ff" points="134.94,-221.1 125.14,-217.06 130.28,-226.33 134.94,-221.1"/>
</a>
</g>
</g>
<!-- Node21 -->
<g id="Node000021" class="node">
<title>Node21</title>
<g id="a_Node000021"><a xlink:href="Material_8ixx.html" target="_top" xlink:title=" ">
<polygon fill="white" stroke="#666666" points="785.09,-272 612.09,-272 612.09,-253 785.09,-253 785.09,-272"/>
<text text-anchor="middle" x="698.59" y="-260" font-family="Helvetica,sans-Serif" font-size="10.00">helios.rendering.model.Material</text>
</a>
</g>
</g>
<!-- Node12&#45;&gt;Node21 -->
<g id="edge39_Node000012_Node000021" class="edge">
<title>Node12&#45;&gt;Node21</title>
<g id="a_edge39_Node000012_Node000021"><a xlink:title=" ">
<path fill="none" stroke="#63b8ff" d="M611.14,-307.99C629.81,-298.49 654.33,-286.02 672.65,-276.69"/>
<polygon fill="#63b8ff" stroke="#63b8ff" points="674.28,-279.79 681.61,-272.14 671.11,-273.55 674.28,-279.79"/>
</a>
</g>
</g>
<!-- Node13&#45;&gt;Node3 -->
<g id="edge24_Node000013_Node000003" class="edge">
<title>Node13&#45;&gt;Node3</title>
<g id="a_edge24_Node000013_Node000003"><a xlink:title=" ">
<path fill="none" stroke="#63b8ff" d="M306.68,-120.95C336.58,-109.63 378.19,-93.88 406.63,-83.1"/>
<polygon fill="#63b8ff" stroke="#63b8ff" points="407.99,-86.33 416.1,-79.52 405.51,-79.79 407.99,-86.33"/>
</a>
</g>
</g>
<!-- Node14 -->
<g id="Node000014" class="node">
<title>Node14</title>
<g id="a_Node000014"><a xlink:title=" ">
<polygon fill="#e0e0e0" stroke="#999999" points="291.59,-79.5 249.59,-79.5 249.59,-60.5 291.59,-60.5 291.59,-79.5"/>
<text text-anchor="middle" x="270.59" y="-67.5" font-family="Helvetica,sans-Serif" font-size="10.00">array</text>
</a>
</g>
</g>
<!-- Node13&#45;&gt;Node14 -->
<g id="edge21_Node000013_Node000014" class="edge">
<title>Node13&#45;&gt;Node14</title>
<g id="a_edge21_Node000013_Node000014"><a xlink:title=" ">
<path fill="none" stroke="#63b8ff" d="M269.81,-120.8C269.95,-111.7 270.14,-99.79 270.3,-89.9"/>
<polygon fill="#63b8ff" stroke="#63b8ff" points="273.8,-89.9 270.45,-79.84 266.8,-89.79 273.8,-89.9"/>
</a>
</g>
</g>
<!-- Node15 -->
<g id="Node000015" class="node">
<title>Node15</title>
<g id="a_Node000015"><a xlink:title=" ">
<polygon fill="#e0e0e0" stroke="#999999" points="365.59,-79.5 309.59,-79.5 309.59,-60.5 365.59,-60.5 365.59,-79.5"/>
<text text-anchor="middle" x="337.59" y="-67.5" font-family="Helvetica,sans-Serif" font-size="10.00">optional</text>
</a>
</g>
</g>
<!-- Node13&#45;&gt;Node15 -->
<g id="edge22_Node000013_Node000015" class="edge">
<title>Node13&#45;&gt;Node15</title>
<g id="a_edge22_Node000013_Node000015"><a xlink:title=" ">
<path fill="none" stroke="#63b8ff" d="M284.68,-120.8C295.39,-110.72 309.76,-97.19 320.82,-86.78"/>
<polygon fill="#63b8ff" stroke="#63b8ff" points="323.31,-89.25 328.19,-79.84 318.51,-84.15 323.31,-89.25"/>
</a>
</g>
</g>
<!-- Node16 -->
<g id="Node000016" class="node">
<title>Node16</title>
<g id="a_Node000016"><a xlink:title=" ">
<polygon fill="#e0e0e0" stroke="#999999" points="231.09,-79.5 180.09,-79.5 180.09,-60.5 231.09,-60.5 231.09,-79.5"/>
<text text-anchor="middle" x="205.59" y="-67.5" font-family="Helvetica,sans-Serif" font-size="10.00">variant</text>
</a>
</g>
</g>
<!-- Node13&#45;&gt;Node16 -->
<g id="edge23_Node000013_Node000016" class="edge">
<title>Node13&#45;&gt;Node16</title>
<g id="a_edge23_Node000013_Node000016"><a xlink:title=" ">
<path fill="none" stroke="#63b8ff" d="M255.39,-120.8C245.41,-110.82 232.05,-97.46 221.68,-87.09"/>
<polygon fill="#63b8ff" stroke="#63b8ff" points="223.98,-84.44 214.44,-79.84 219.03,-89.39 223.98,-84.44"/>
</a>
</g>
</g>
<!-- Node17 -->
<g id="Node000017" class="node">
<title>Node17</title>
<g id="a_Node000017"><a xlink:href="UniformSemantics_8ixx.html" target="_top" xlink:title=" ">
<polygon fill="white" stroke="#666666" points="161.59,-85 27.59,-85 27.59,-55 161.59,-55 161.59,-85"/>
<text text-anchor="start" x="35.59" y="-73" font-family="Helvetica,sans-Serif" font-size="10.00">helios.rendering.shader.</text>
<text text-anchor="middle" x="94.59" y="-62" font-family="Helvetica,sans-Serif" font-size="10.00">UniformSemantics</text>
</a>
</g>
</g>
<!-- Node13&#45;&gt;Node17 -->
<g id="edge25_Node000013_Node000017" class="edge">
<title>Node13&#45;&gt;Node17</title>
<g id="a_edge25_Node000013_Node000017"><a xlink:title=" ">
<path fill="none" stroke="#63b8ff" d="M231.19,-120.95C205.09,-111.41 170.37,-98.71 142.47,-88.51"/>
<polygon fill="#63b8ff" stroke="#63b8ff" points="143.5,-85.16 132.91,-85.01 141.1,-91.73 143.5,-85.16"/>
</a>
</g>
</g>
<!-- Node18 -->
<g id="Node000018" class="node">
<title>Node18</title>
<g id="a_Node000018"><a xlink:title=" ">
<polygon fill="#e0e0e0" stroke="#999999" points="120.09,-19 69.09,-19 69.09,0 120.09,0 120.09,-19"/>
<text text-anchor="middle" x="94.59" y="-7" font-family="Helvetica,sans-Serif" font-size="10.00">cwchar</text>
</a>
</g>
</g>
<!-- Node17&#45;&gt;Node18 -->
<g id="edge26_Node000017_Node000018" class="edge">
<title>Node17&#45;&gt;Node18</title>
<g id="a_edge26_Node000017_Node000018"><a xlink:title=" ">
<path fill="none" stroke="#63b8ff" d="M94.59,-54.84C94.59,-47.21 94.59,-37.7 94.59,-29.45"/>
<polygon fill="#63b8ff" stroke="#63b8ff" points="98.09,-29.27 94.59,-19.27 91.09,-29.27 98.09,-29.27"/>
</a>
</g>
</g>
<!-- Node19&#45;&gt;Node2 -->
<g id="edge28_Node000019_Node000002" class="edge">
<title>Node19&#45;&gt;Node2</title>
<g id="a_edge28_Node000019_Node000002"><a xlink:title=" ">
<path fill="none" stroke="#63b8ff" d="M658.49,-186.95C715.28,-170.18 813.99,-141.78 899.59,-121 969.91,-103.93 1052.69,-87.48 1100.36,-78.35"/>
<polygon fill="#63b8ff" stroke="#63b8ff" points="1101.1,-81.78 1110.27,-76.47 1099.79,-74.9 1101.1,-81.78"/>
</a>
</g>
</g>
<!-- Node19&#45;&gt;Node6 -->
<g id="edge31_Node000019_Node000006" class="edge">
<title>Node19&#45;&gt;Node6</title>
<g id="a_edge31_Node000019_Node000006"><a xlink:title=" ">
<path fill="none" stroke="#63b8ff" d="M628.69,-186.84C658.48,-162.18 719.61,-111.56 750.25,-86.19"/>
<polygon fill="#63b8ff" stroke="#63b8ff" points="752.56,-88.82 758.03,-79.75 748.09,-83.43 752.56,-88.82"/>
</a>
</g>
</g>
<!-- Node19&#45;&gt;Node9 -->
<g id="edge32_Node000019_Node000009" class="edge">
<title>Node19&#45;&gt;Node9</title>
<g id="a_edge32_Node000019_Node000009"><a xlink:title=" ">
<path fill="none" stroke="#63b8ff" d="M678.72,-188.58C681.72,-188.04 684.68,-187.51 687.59,-187 767.95,-172.77 860.82,-157.1 920.32,-147.17"/>
<polygon fill="#63b8ff" stroke="#63b8ff" points="921.01,-150.6 930.3,-145.5 919.86,-143.7 921.01,-150.6"/>
</a>
</g>
</g>
<!-- Node19&#45;&gt;Node13 -->
<g id="edge30_Node000019_Node000013" class="edge">
<title>Node19&#45;&gt;Node13</title>
<g id="a_edge30_Node000019_Node000013"><a xlink:title=" ">
<path fill="none" stroke="#63b8ff" d="M544.43,-188.43C487.61,-177.8 406.17,-162.56 346.69,-151.43"/>
<polygon fill="#63b8ff" stroke="#63b8ff" points="347.07,-147.94 336.6,-149.54 345.78,-154.82 347.07,-147.94"/>
</a>
</g>
</g>
<!-- Node19&#45;&gt;Node15 -->
<g id="edge29_Node000019_Node000015" class="edge">
<title>Node19&#45;&gt;Node15</title>
<g id="a_edge29_Node000019_Node000015"><a xlink:title=" ">
<path fill="none" stroke="#63b8ff" d="M582.01,-186.96C528.58,-161.61 416.73,-108.55 364.96,-83.99"/>
<polygon fill="#63b8ff" stroke="#63b8ff" points="366.27,-80.73 355.73,-79.61 363.27,-87.06 366.27,-80.73"/>
</a>
</g>
</g>
<!-- Node20&#45;&gt;Node3 -->
<g id="edge38_Node000020_Node000003" class="edge">
<title>Node20&#45;&gt;Node3</title>
<g id="a_edge38_Node000020_Node000003"><a xlink:title=" ">
<path fill="none" stroke="#63b8ff" d="M120.94,-186.91C135.16,-168.65 162.55,-137.22 193.59,-121 266.28,-83 294.3,-101.76 374.59,-85 379.61,-83.95 384.85,-82.84 390.07,-81.72"/>
<polygon fill="#63b8ff" stroke="#63b8ff" points="391,-85.1 400.03,-79.56 389.52,-78.25 391,-85.1"/>
</a>
</g>
</g>
<!-- Node20&#45;&gt;Node13 -->
<g id="edge37_Node000020_Node000013" class="edge">
<title>Node20&#45;&gt;Node13</title>
<g id="a_edge37_Node000020_Node000013"><a xlink:title=" ">
<path fill="none" stroke="#63b8ff" d="M145.48,-186.95C168.99,-177.49 200.19,-164.93 225.43,-154.78"/>
<polygon fill="#63b8ff" stroke="#63b8ff" points="226.81,-157.99 234.78,-151.01 224.2,-151.5 226.81,-157.99"/>
</a>
</g>
</g>
<!-- Node20&#45;&gt;Node15 -->
<g id="edge35_Node000020_Node000015" class="edge">
<title>Node20&#45;&gt;Node15</title>
<g id="a_edge35_Node000020_Node000015"><a xlink:title=" ">
<path fill="none" stroke="#63b8ff" d="M115.62,-186.82C122.76,-168.74 137.6,-137.83 160.59,-121 212.43,-83.05 239.34,-104.4 300.59,-85 302.51,-84.39 304.47,-83.74 306.44,-83.07"/>
<polygon fill="#63b8ff" stroke="#63b8ff" points="307.99,-86.23 316.21,-79.55 305.62,-79.64 307.99,-86.23"/>
</a>
</g>
</g>
<!-- Node20&#45;&gt;Node17 -->
<g id="edge36_Node000020_Node000017" class="edge">
<title>Node20&#45;&gt;Node17</title>
<g id="a_edge36_Node000020_Node000017"><a xlink:title=" ">
<path fill="none" stroke="#63b8ff" d="M82.54,-186.95C69.02,-178.54 54.13,-166.46 46.59,-151 40.75,-139.02 41.61,-133.37 46.59,-121 50.99,-110.06 59.06,-100.17 67.34,-92.13"/>
<polygon fill="#63b8ff" stroke="#63b8ff" points="69.83,-94.59 74.9,-85.28 65.14,-89.4 69.83,-94.59"/>
</a>
</g>
</g>
<!-- Node21&#45;&gt;Node2 -->
<g id="edge40_Node000021_Node000002" class="edge">
<title>Node21&#45;&gt;Node2</title>
<g id="a_edge40_Node000021_Node000002"><a xlink:title=" ">
<path fill="none" stroke="#63b8ff" d="M716.35,-252.92C752.93,-235.37 835.71,-196.23 865.59,-187 951.05,-160.59 984.9,-193.52 1063.59,-151 1091.56,-135.88 1115.21,-106.75 1128.38,-88.12"/>
<polygon fill="#63b8ff" stroke="#63b8ff" points="1131.38,-89.93 1134.13,-79.7 1125.6,-85.98 1131.38,-89.93"/>
</a>
</g>
</g>
<!-- Node21&#45;&gt;Node5 -->
<g id="edge41_Node000021_Node000005" class="edge">
<title>Node21&#45;&gt;Node5</title>
<g id="a_edge41_Node000021_Node000005"><a xlink:title=" ">
<path fill="none" stroke="#63b8ff" d="M728.98,-252.99C765.51,-242.77 826.93,-225.58 867.36,-214.26"/>
<polygon fill="#63b8ff" stroke="#63b8ff" points="868.48,-217.58 877.16,-211.52 866.59,-210.84 868.48,-217.58"/>
</a>
</g>
</g>
<!-- Node21&#45;&gt;Node13 -->
<g id="edge50_Node000021_Node000013" class="edge">
<title>Node21&#45;&gt;Node13</title>
<g id="a_edge50_Node000021_Node000013"><a xlink:title=" ">
<path fill="none" stroke="#63b8ff" d="M666.36,-252.96C633.43,-244.18 580.85,-229.98 535.59,-217 462.5,-196.03 378.53,-170.54 324.81,-154.06"/>
<polygon fill="#63b8ff" stroke="#63b8ff" points="325.73,-150.68 315.14,-151.09 323.67,-157.37 325.73,-150.68"/>
</a>
</g>
</g>
<!-- Node21&#45;&gt;Node19 -->
<g id="edge45_Node000021_Node000019" class="edge">
<title>Node21&#45;&gt;Node19</title>
<g id="a_edge45_Node000021_Node000019"><a xlink:title=" ">
<path fill="none" stroke="#63b8ff" d="M685.75,-252.87C674.06,-245 656.35,-233.09 641.16,-222.89"/>
<polygon fill="#63b8ff" stroke="#63b8ff" points="642.83,-219.79 632.58,-217.11 638.93,-225.6 642.83,-219.79"/>
</a>
</g>
</g>
<!-- Node22 -->
<g id="Node000022" class="node">
<title>Node22</title>
<g id="a_Node000022"><a xlink:href="util_2log_2__module_8ixx.html" target="_top" xlink:title=" ">
<polygon fill="white" stroke="#666666" points="780.09,-211.5 697.09,-211.5 697.09,-192.5 780.09,-192.5 780.09,-211.5"/>
<text text-anchor="middle" x="738.59" y="-199.5" font-family="Helvetica,sans-Serif" font-size="10.00">helios.util.log</text>
</a>
</g>
</g>
<!-- Node21&#45;&gt;Node22 -->
<g id="edge42_Node000021_Node000022" class="edge">
<title>Node21&#45;&gt;Node22</title>
<g id="a_edge42_Node000021_Node000022"><a xlink:title=" ">
<path fill="none" stroke="#63b8ff" d="M704.49,-252.87C710.34,-244.31 719.46,-230.97 726.8,-220.24"/>
<polygon fill="#63b8ff" stroke="#63b8ff" points="729.91,-221.9 732.66,-211.67 724.13,-217.95 729.91,-221.9"/>
</a>
</g>
</g>
<!-- Node23 -->
<g id="Node000023" class="node">
<title>Node23</title>
<g id="a_Node000023"><a xlink:href="MaterialProperties_8ixx.html" target="_top" xlink:title=" ">
<polygon fill="white" stroke="#666666" points="412.59,-217 248.59,-217 248.59,-187 412.59,-187 412.59,-217"/>
<text text-anchor="start" x="256.59" y="-205" font-family="Helvetica,sans-Serif" font-size="10.00">helios.rendering.model.config.</text>
<text text-anchor="middle" x="330.59" y="-194" font-family="Helvetica,sans-Serif" font-size="10.00">MaterialProperties</text>
</a>
</g>
</g>
<!-- Node21&#45;&gt;Node23 -->
<g id="edge46_Node000021_Node000023" class="edge">
<title>Node21&#45;&gt;Node23</title>
<g id="a_edge46_Node000021_Node000023"><a xlink:title=" ">
<path fill="none" stroke="#63b8ff" d="M645.08,-252.99C586.94,-243.75 492.99,-228.82 422.89,-217.67"/>
<polygon fill="#63b8ff" stroke="#63b8ff" points="423.16,-214.17 412.73,-216.06 422.06,-221.08 423.16,-214.17"/>
</a>
</g>
</g>
<!-- Node22&#45;&gt;Node6 -->
<g id="edge44_Node000022_Node000006" class="edge">
<title>Node22&#45;&gt;Node6</title>
<g id="a_edge44_Node000022_Node000006"><a xlink:title=" ">
<path fill="none" stroke="#63b8ff" d="M740.56,-192.47C745.35,-171.73 757.69,-118.24 764.28,-89.66"/>
<polygon fill="#63b8ff" stroke="#63b8ff" points="767.74,-90.26 766.58,-79.73 760.92,-88.69 767.74,-90.26"/>
</a>
</g>
</g>
<!-- Node22&#45;&gt;Node9 -->
<g id="edge43_Node000022_Node000009" class="edge">
<title>Node22&#45;&gt;Node9</title>
<g id="a_edge43_Node000022_Node000009"><a xlink:title=" ">
<path fill="none" stroke="#63b8ff" d="M771.11,-192.44C814.58,-180.99 891.67,-160.68 939.52,-148.08"/>
<polygon fill="#63b8ff" stroke="#63b8ff" points="940.48,-151.45 949.26,-145.51 938.7,-144.68 940.48,-151.45"/>
</a>
</g>
</g>
<!-- Node23&#45;&gt;Node3 -->
<g id="edge49_Node000023_Node000003" class="edge">
<title>Node23&#45;&gt;Node3</title>
<g id="a_edge49_Node000023_Node000003"><a xlink:title=" ">
<path fill="none" stroke="#63b8ff" d="M342.35,-186.84C362.49,-162.6 403.47,-113.28 424.87,-87.51"/>
<polygon fill="#63b8ff" stroke="#63b8ff" points="427.62,-89.68 431.32,-79.75 422.24,-85.2 427.62,-89.68"/>
</a>
</g>
</g>
<!-- Node23&#45;&gt;Node13 -->
<g id="edge48_Node000023_Node000013" class="edge">
<title>Node23&#45;&gt;Node13</title>
<g id="a_edge48_Node000023_Node000013"><a xlink:title=" ">
<path fill="none" stroke="#63b8ff" d="M317.05,-186.8C309.16,-178.51 299.03,-167.89 290.17,-158.59"/>
<polygon fill="#63b8ff" stroke="#63b8ff" points="292.52,-155.99 283.09,-151.16 287.46,-160.82 292.52,-155.99"/>
</a>
</g>
</g>
<!-- Node23&#45;&gt;Node17 -->
<g id="edge47_Node000023_Node000017" class="edge">
<title>Node23&#45;&gt;Node17</title>
<g id="a_edge47_Node000023_Node000017"><a xlink:title=" ">
<path fill="none" stroke="#63b8ff" d="M280.03,-186.95C253.38,-178.47 220.7,-166.33 193.59,-151 164.64,-134.63 135.52,-109.85 116.42,-92.22"/>
<polygon fill="#63b8ff" stroke="#63b8ff" points="118.57,-89.44 108.89,-85.14 113.78,-94.54 118.57,-89.44"/>
</a>
</g>
</g>
<!-- Node24&#45;&gt;Node2 -->
<g id="edge53_Node000024_Node000002" class="edge">
<title>Node24&#45;&gt;Node2</title>
<g id="a_edge53_Node000024_Node000002"><a xlink:title=" ">
<path fill="none" stroke="#63b8ff" d="M1383,-257.93C1490.28,-252.27 1670.51,-239.53 1690.59,-217 1705.46,-200.33 1698.33,-137.74 1680.59,-121 1644.21,-86.68 1296.75,-74.91 1178.65,-71.88"/>
<polygon fill="#63b8ff" stroke="#63b8ff" points="1178.69,-68.38 1168.6,-71.63 1178.51,-75.38 1178.69,-68.38"/>
</a>
</g>
</g>
<!-- Node24&#45;&gt;Node3 -->
<g id="edge67_Node000024_Node000003" class="edge">
<title>Node24&#45;&gt;Node3</title>
<g id="a_edge67_Node000024_Node000003"><a xlink:title=" ">
<path fill="none" stroke="#63b8ff" d="M1263.51,-252.95C1224.36,-244.44 1163.17,-230.7 1110.59,-217 962.78,-178.49 929.85,-153.46 780.59,-121 683.96,-99.99 570.02,-85.31 501.1,-77.52"/>
<polygon fill="#63b8ff" stroke="#63b8ff" points="501.18,-74 490.85,-76.37 500.4,-80.96 501.18,-74"/>
</a>
</g>
</g>
<!-- Node24&#45;&gt;Node5 -->
<g id="edge54_Node000024_Node000005" class="edge">
<title>Node24&#45;&gt;Node5</title>
<g id="a_edge54_Node000024_Node000005"><a xlink:title=" ">
<path fill="none" stroke="#63b8ff" d="M1241.28,-252.98C1178.45,-244.29 1078.71,-230.25 992.59,-217 978.81,-214.88 963.79,-212.45 950.27,-210.21"/>
<polygon fill="#63b8ff" stroke="#63b8ff" points="950.7,-206.73 940.26,-208.55 949.55,-213.64 950.7,-206.73"/>
</a>
</g>
</g>
<!-- Node24&#45;&gt;Node6 -->
<g id="edge56_Node000024_Node000006" class="edge">
<title>Node24&#45;&gt;Node6</title>
<g id="a_edge56_Node000024_Node000006"><a xlink:title=" ">
<path fill="none" stroke="#63b8ff" d="M1299.6,-252.92C1293.58,-238.72 1283.77,-209.66 1292.59,-187 1300.46,-166.77 1317.72,-171.23 1325.59,-151 1330.42,-138.57 1334.67,-130.77 1325.59,-121 1288.51,-81.09 890.55,-92.51 836.59,-85 829.77,-84.05 822.61,-82.83 815.6,-81.5"/>
<polygon fill="#63b8ff" stroke="#63b8ff" points="815.99,-78.01 805.5,-79.5 814.63,-84.88 815.99,-78.01"/>
</a>
</g>
</g>
<!-- Node24&#45;&gt;Node9 -->
<g id="edge57_Node000024_Node000009" class="edge">
<title>Node24&#45;&gt;Node9</title>
<g id="a_edge57_Node000024_Node000009"><a xlink:title=" ">
<path fill="none" stroke="#63b8ff" d="M1281.46,-252.94C1225.51,-231.31 1078.24,-174.37 1013.22,-149.23"/>
<polygon fill="#63b8ff" stroke="#63b8ff" points="1014.47,-145.96 1003.88,-145.62 1011.94,-152.49 1014.47,-145.96"/>
</a>
</g>
</g>
<!-- Node25 -->
<g id="Node000025" class="node">
<title>Node25</title>
<g id="a_Node000025"><a xlink:title=" ">
<polygon fill="#e0e0e0" stroke="#999999" points="1469.09,-145.5 1422.09,-145.5 1422.09,-126.5 1469.09,-126.5 1469.09,-145.5"/>
<text text-anchor="middle" x="1445.59" y="-133.5" font-family="Helvetica,sans-Serif" font-size="10.00">vector</text>
</a>
</g>
</g>
<!-- Node24&#45;&gt;Node25 -->
<g id="edge55_Node000024_Node000025" class="edge">
<title>Node24&#45;&gt;Node25</title>
<g id="a_edge55_Node000024_Node000025"><a xlink:title=" ">
<path fill="none" stroke="#63b8ff" d="M1365.72,-252.94C1407.65,-245.74 1457.61,-233.89 1470.59,-217 1485.01,-198.23 1471.02,-171.02 1458.89,-153.67"/>
<polygon fill="#63b8ff" stroke="#63b8ff" points="1461.66,-151.53 1452.88,-145.59 1456.04,-155.7 1461.66,-151.53"/>
</a>
</g>
</g>
<!-- Node26 -->
<g id="Node000026" class="node">
<title>Node26</title>
<g id="a_Node000026"><a xlink:href="Vertex_8ixx.html" target="_top" xlink:title=" ">
<polygon fill="white" stroke="#666666" points="1316.59,-145.5 1186.59,-145.5 1186.59,-126.5 1316.59,-126.5 1316.59,-145.5"/>
<text text-anchor="middle" x="1251.59" y="-133.5" font-family="Helvetica,sans-Serif" font-size="10.00">helios.rendering.Vertex</text>
</a>
</g>
</g>
<!-- Node24&#45;&gt;Node26 -->
<g id="edge58_Node000024_Node000026" class="edge">
<title>Node24&#45;&gt;Node26</title>
<g id="a_edge58_Node000024_Node000026"><a xlink:title=" ">
<path fill="none" stroke="#63b8ff" d="M1291.19,-252.83C1280.81,-244.83 1266.62,-231.94 1259.59,-217 1250.51,-197.71 1249.42,-172.96 1250.02,-156.13"/>
<polygon fill="#63b8ff" stroke="#63b8ff" points="1253.52,-156.1 1250.62,-145.91 1246.54,-155.68 1253.52,-156.1"/>
</a>
</g>
</g>
<!-- Node27 -->
<g id="Node000027" class="node">
<title>Node27</title>
<g id="a_Node000027"><a xlink:href="Shape_8ixx.html" target="_top" xlink:title=" ">
<polygon fill="white" stroke="#666666" points="1461.59,-217 1301.59,-217 1301.59,-187 1461.59,-187 1461.59,-217"/>
<text text-anchor="start" x="1309.59" y="-205" font-family="Helvetica,sans-Serif" font-size="10.00">helios.rendering.asset.shape.</text>
<text text-anchor="middle" x="1381.59" y="-194" font-family="Helvetica,sans-Serif" font-size="10.00">Shape</text>
</a>
</g>
</g>
<!-- Node24&#45;&gt;Node27 -->
<g id="edge60_Node000024_Node000027" class="edge">
<title>Node24&#45;&gt;Node27</title>
<g id="a_edge60_Node000024_Node000027"><a xlink:title=" ">
<path fill="none" stroke="#63b8ff" d="M1315.1,-252.87C1325.49,-245.08 1341.17,-233.32 1354.69,-223.17"/>
<polygon fill="#63b8ff" stroke="#63b8ff" points="1356.87,-225.91 1362.77,-217.11 1352.67,-220.31 1356.87,-225.91"/>
</a>
</g>
</g>
<!-- Node29 -->
<g id="Node000029" class="node">
<title>Node29</title>
<g id="a_Node000029"><a xlink:href="MeshConfig_8ixx.html" target="_top" xlink:title=" ">
<polygon fill="white" stroke="#666666" points="1681.59,-217 1517.59,-217 1517.59,-187 1681.59,-187 1681.59,-217"/>
<text text-anchor="start" x="1525.59" y="-205" font-family="Helvetica,sans-Serif" font-size="10.00">helios.rendering.model.config.</text>
<text text-anchor="middle" x="1599.59" y="-194" font-family="Helvetica,sans-Serif" font-size="10.00">MeshConfig</text>
</a>
</g>
</g>
<!-- Node24&#45;&gt;Node29 -->
<g id="edge65_Node000024_Node000029" class="edge">
<title>Node24&#45;&gt;Node29</title>
<g id="a_edge65_Node000024_Node000029"><a xlink:title=" ">
<path fill="none" stroke="#63b8ff" d="M1346.63,-252.99C1391.63,-244.1 1463.3,-229.94 1518.89,-218.95"/>
<polygon fill="#63b8ff" stroke="#63b8ff" points="1519.58,-222.38 1528.71,-217.01 1518.23,-215.51 1519.58,-222.38"/>
</a>
</g>
</g>
<!-- Node26&#45;&gt;Node3 -->
<g id="edge59_Node000026_Node000003" class="edge">
<title>Node26&#45;&gt;Node3</title>
<g id="a_edge59_Node000026_Node000003"><a xlink:title=" ">
<path fill="none" stroke="#63b8ff" d="M1186.43,-129.87C1033.11,-117.8 651.16,-87.73 500.81,-75.9"/>
<polygon fill="#63b8ff" stroke="#63b8ff" points="501.06,-72.41 490.82,-75.11 500.51,-79.39 501.06,-72.41"/>
</a>
</g>
</g>
<!-- Node27&#45;&gt;Node2 -->
<g id="edge61_Node000027_Node000002" class="edge">
<title>Node27&#45;&gt;Node2</title>
<g id="a_edge61_Node000027_Node000002"><a xlink:title=" ">
<path fill="none" stroke="#63b8ff" d="M1381.65,-186.95C1380.92,-169.03 1376.86,-138.28 1358.59,-121 1333.04,-96.83 1234.77,-81.9 1178.94,-75.18"/>
<polygon fill="#63b8ff" stroke="#63b8ff" points="1179.05,-71.67 1168.71,-73.99 1178.24,-78.63 1179.05,-71.67"/>
</a>
</g>
</g>
<!-- Node27&#45;&gt;Node25 -->
<g id="edge62_Node000027_Node000025" class="edge">
<title>Node27&#45;&gt;Node25</title>
<g id="a_edge62_Node000027_Node000025"><a xlink:title=" ">
<path fill="none" stroke="#63b8ff" d="M1395.79,-186.8C1405.77,-176.82 1419.13,-163.46 1429.5,-153.09"/>
<polygon fill="#63b8ff" stroke="#63b8ff" points="1432.15,-155.39 1436.75,-145.84 1427.2,-150.44 1432.15,-155.39"/>
</a>
</g>
</g>
<!-- Node27&#45;&gt;Node26 -->
<g id="edge64_Node000027_Node000026" class="edge">
<title>Node27&#45;&gt;Node26</title>
<g id="a_edge64_Node000027_Node000026"><a xlink:title=" ">
<path fill="none" stroke="#63b8ff" d="M1353.06,-186.95C1330.66,-175.93 1299.73,-160.7 1277.92,-149.96"/>
<polygon fill="#63b8ff" stroke="#63b8ff" points="1279.41,-146.79 1268.89,-145.52 1276.32,-153.07 1279.41,-146.79"/>
</a>
</g>
</g>
<!-- Node28 -->
<g id="Node000028" class="node">
<title>Node28</title>
<g id="a_Node000028"><a xlink:href="PrimitiveType_8ixx.html" target="_top" xlink:title=" ">
<polygon fill="white" stroke="#666666" points="1671.59,-151 1507.59,-151 1507.59,-121 1671.59,-121 1671.59,-151"/>
<text text-anchor="start" x="1515.59" y="-139" font-family="Helvetica,sans-Serif" font-size="10.00">helios.rendering.model.config.</text>
<text text-anchor="middle" x="1589.59" y="-128" font-family="Helvetica,sans-Serif" font-size="10.00">PrimitiveType</text>
</a>
</g>
</g>
<!-- Node27&#45;&gt;Node28 -->
<g id="edge63_Node000027_Node000028" class="edge">
<title>Node27&#45;&gt;Node28</title>
<g id="a_edge63_Node000027_Node000028"><a xlink:title=" ">
<path fill="none" stroke="#63b8ff" d="M1427.24,-186.95C1458.8,-177.24 1500.97,-164.27 1534.42,-153.98"/>
<polygon fill="#63b8ff" stroke="#63b8ff" points="1535.52,-157.3 1544.05,-151.01 1533.46,-150.61 1535.52,-157.3"/>
</a>
</g>
</g>
<!-- Node29&#45;&gt;Node28 -->
<g id="edge66_Node000029_Node000028" class="edge">
<title>Node29&#45;&gt;Node28</title>
<g id="a_edge66_Node000029_Node000028"><a xlink:title=" ">
<path fill="none" stroke="#63b8ff" d="M1597.37,-186.8C1596.19,-179.26 1594.71,-169.78 1593.36,-161.13"/>
<polygon fill="#63b8ff" stroke="#63b8ff" points="1596.81,-160.5 1591.8,-151.16 1589.89,-161.58 1596.81,-160.5"/>
</a>
</g>
</g>
</g>
</svg>
