<?xml version="1.0" encoding="UTF-8" standalone="no"?>
<!DOCTYPE svg PUBLIC "-//W3C//DTD SVG 1.1//EN"
 "http://www.w3.org/Graphics/SVG/1.1/DTD/svg11.dtd">
<!-- Generated by graphviz version 2.43.0 (0)
 -->
<!-- Title: include/helios/scene/SnapshotItem.ixx Pages: 1 -->
<!--zoomable 511 -->

<svg id="main" version="1.1" xmlns="http://www.w3.org/2000/svg" xmlns:xlink="http://www.w3.org/1999/xlink" xml:space="preserve" onload="init(evt)">

<style type="text/css"><![CDATA[
.node, .edge {opacity: 0.7;}
.node.selected, .edge.selected {opacity: 1;}
.edge:hover path { stroke: red; }
.edge:hover polygon { stroke: red; fill: red; }
]]></style>

<defs>
  <circle id="rim" cx="0" cy="0" r="7"/>
  <circle id="rim2" cx="0" cy="0" r="3.5"/>
  <g id="zoomPlus">
    <use xlink:href="#rim" fill="#404040"><set attributeName="fill" to="#808080" begin="zoomplus.mouseover" end="zoomplus.mouseout"/></use>
    <path d="M-4,0h8M0,-4v8" fill="none" stroke="white" stroke-width="1.5" pointer-events="none"/>
  </g>
  <g id="zoomMin">
    <use xlink:href="#rim" fill="#404040"><set attributeName="fill" to="#808080" begin="zoomminus.mouseover" end="zoomminus.mouseout"/></use>
    <path d="M-4,0h8" fill="none" stroke="white" stroke-width="1.5" pointer-events="none"/>
  </g>
  <g id="arrowUp" transform="translate(30 24)">
    <use xlink:href="#rim"/>
    <path pointer-events="none" fill="none" stroke="white" stroke-width="1.5" d="M0,-3.0v7 M-2.5,-0.5L0,-3.0L2.5,-0.5"/>
  </g>
  <g id="arrowRight" transform="rotate(90) translate(36 -43)">
    <use xlink:href="#rim"/>
    <path pointer-events="none" fill="none" stroke="white" stroke-width="1.5" d="M0,-3.0v7 M-2.5,-0.5L0,-3.0L2.5,-0.5"/>
  </g>
  <g id="arrowDown" transform="rotate(180) translate(-30 -48)">
    <use xlink:href="#rim"/>
    <path pointer-events="none" fill="none" stroke="white" stroke-width="1.5" d="M0,-3.0v7 M-2.5,-0.5L0,-3.0L2.5,-0.5"/>
  </g>
  <g id="arrowLeft" transform="rotate(270) translate(-36 17)">
    <use xlink:href="#rim"/>
    <path pointer-events="none" fill="none" stroke="white" stroke-width="1.5" d="M0,-3.0v7 M-2.5,-0.5L0,-3.0L2.5,-0.5"/>
  </g>
  <g id="resetDef">
    <use xlink:href="#rim2" fill="#404040"><set attributeName="fill" to="#808080" begin="reset.mouseover" end="reset.mouseout"/></use>
  </g>
</defs>
<script type="application/ecmascript">
var viewWidth = 1650;
var viewHeight = 511;
var sectionId = 'dynsection-0';
</script>
<script type="application/ecmascript" xlink:href="svg.min.js"/>
<svg id="graph" class="graph">
<g id="viewport">
<title>include/helios/scene/SnapshotItem.ixx</title>
<!-- Node1 -->
<g id="Node000001" class="node">
<title>Node1</title>
<g id="a_Node000001"><a xlink:title="Snapshot item bundling a Renderable reference and its world matrix.">
<polygon fill="#999999" stroke="#666666" points="861,-503 745,-503 745,-473 861,-473 861,-503"/>
<text text-anchor="start" x="753" y="-491" font-family="Helvetica,sans-Serif" font-size="10.00">include/helios/scene</text>
<text text-anchor="middle" x="803" y="-480" font-family="Helvetica,sans-Serif" font-size="10.00">/SnapshotItem.ixx</text>
</a>
</g>
</g>
<!-- Node2 -->
<g id="Node000002" class="node">
<title>Node2</title>
<g id="a_Node000002"><a xlink:title=" ">
<polygon fill="#e0e0e0" stroke="#999999" points="176,-74 118,-74 118,-55 176,-55 176,-74"/>
<text text-anchor="middle" x="147" y="-62" font-family="Helvetica,sans-Serif" font-size="10.00">memory</text>
</a>
</g>
</g>
<!-- Node1&#45;&gt;Node2 -->
<g id="edge1_Node000001_Node000002" class="edge">
<title>Node1&#45;&gt;Node2</title>
<g id="a_edge1_Node000001_Node000002"><a xlink:title=" ">
<path fill="none" stroke="#63b8ff" d="M744.93,-484.91C560.47,-477.5 0,-448.78 0,-373.5 0,-373.5 0,-373.5 0,-190 0,-131.7 68.16,-95.07 111.65,-77.63"/>
<polygon fill="#63b8ff" stroke="#63b8ff" points="112.99,-80.87 121.06,-74 110.47,-74.34 112.99,-80.87"/>
</a>
</g>
</g>
<!-- Node3 -->
<g id="Node000003" class="node">
<title>Node3</title>
<g id="a_Node000003"><a xlink:href="helios_2math_2types_2__module_8ixx.html" target="_top" xlink:title="Module exports for vector and matrix type definitions.">
<polygon fill="white" stroke="#666666" points="1211,-134.5 1107,-134.5 1107,-115.5 1211,-115.5 1211,-134.5"/>
<text text-anchor="middle" x="1159" y="-122.5" font-family="Helvetica,sans-Serif" font-size="10.00">helios.math.types</text>
</a>
</g>
</g>
<!-- Node1&#45;&gt;Node3 -->
<g id="edge2_Node000001_Node000003" class="edge">
<title>Node1&#45;&gt;Node3</title>
<g id="a_edge2_Node000001_Node000003"><a xlink:title=" ">
<path fill="none" stroke="#63b8ff" d="M861.35,-480.34C961.16,-467.31 1154,-434.26 1154,-373.5 1154,-373.5 1154,-373.5 1154,-256 1154,-216.42 1156.34,-170.11 1157.82,-144.83"/>
<polygon fill="#63b8ff" stroke="#63b8ff" points="1161.34,-144.71 1158.45,-134.51 1154.35,-144.28 1161.34,-144.71"/>
</a>
</g>
</g>
<!-- Node4 -->
<g id="Node000004" class="node">
<title>Node4</title>
<g id="a_Node000004"><a xlink:href="Renderable_8ixx.html" target="_top" xlink:title="Representative of a configurable Renderable rendered by the underlying GL API.">
<polygon fill="white" stroke="#666666" points="880,-437 726,-437 726,-418 880,-418 880,-437"/>
<text text-anchor="middle" x="803" y="-425" font-family="Helvetica,sans-Serif" font-size="10.00">helios.rendering.Renderable</text>
</a>
</g>
</g>
<!-- Node1&#45;&gt;Node4 -->
<g id="edge4_Node000001_Node000004" class="edge">
<title>Node1&#45;&gt;Node4</title>
<g id="a_edge4_Node000001_Node000004"><a xlink:title=" ">
<path fill="none" stroke="#63b8ff" d="M803,-472.84C803,-465.21 803,-455.7 803,-447.45"/>
<polygon fill="#63b8ff" stroke="#63b8ff" points="806.5,-447.27 803,-437.27 799.5,-447.27 806.5,-447.27"/>
</a>
</g>
</g>
<!-- Node3&#45;&gt;Node3 -->
<g id="edge3_Node000003_Node000003" class="edge">
<title>Node3&#45;&gt;Node3</title>
<g id="a_edge3_Node000003_Node000003"><a xlink:title=" ">
<path fill="none" stroke="#63b8ff" d="M1184.85,-134.53C1206.44,-138.61 1229,-135.43 1229,-125 1229,-116.2 1212.94,-112.56 1194.95,-114.09"/>
<polygon fill="#63b8ff" stroke="#63b8ff" points="1194.28,-110.65 1184.85,-115.47 1195.23,-117.58 1194.28,-110.65"/>
</a>
</g>
</g>
<!-- Node4&#45;&gt;Node2 -->
<g id="edge5_Node000004_Node000002" class="edge">
<title>Node4&#45;&gt;Node2</title>
<g id="a_edge5_Node000004_Node000002"><a xlink:title=" ">
<path fill="none" stroke="#63b8ff" d="M725.79,-423.61C531.55,-415.31 38,-387.45 38,-318.5 38,-318.5 38,-318.5 38,-190 38,-139.28 89.85,-99.3 122.03,-79.37"/>
<polygon fill="#63b8ff" stroke="#63b8ff" points="124.13,-82.2 130.92,-74.06 120.54,-76.19 124.13,-82.2"/>
</a>
</g>
</g>
<!-- Node5 -->
<g id="Node000005" class="node">
<title>Node5</title>
<g id="a_Node000005"><a xlink:title=" ">
<polygon fill="#e0e0e0" stroke="#999999" points="1446,-134.5 1390,-134.5 1390,-115.5 1446,-115.5 1446,-134.5"/>
<text text-anchor="middle" x="1418" y="-122.5" font-family="Helvetica,sans-Serif" font-size="10.00">optional</text>
</a>
</g>
</g>
<!-- Node4&#45;&gt;Node5 -->
<g id="edge6_Node000004_Node000005" class="edge">
<title>Node4&#45;&gt;Node5</title>
<g id="a_edge6_Node000004_Node000005"><a xlink:title=" ">
<path fill="none" stroke="#63b8ff" d="M880.14,-426.1C999.82,-421.42 1231.2,-395.65 1373,-272 1410.4,-239.38 1417.17,-176.46 1418.1,-144.95"/>
<polygon fill="#63b8ff" stroke="#63b8ff" points="1421.61,-144.58 1418.23,-134.54 1414.61,-144.5 1421.61,-144.58"/>
</a>
</g>
</g>
<!-- Node6 -->
<g id="Node000006" class="node">
<title>Node6</title>
<g id="a_Node000006"><a xlink:title=" ">
<polygon fill="#e0e0e0" stroke="#999999" points="871.5,-266.5 806.5,-266.5 806.5,-247.5 871.5,-247.5 871.5,-266.5"/>
<text text-anchor="middle" x="839" y="-254.5" font-family="Helvetica,sans-Serif" font-size="10.00">stdexcept</text>
</a>
</g>
</g>
<!-- Node4&#45;&gt;Node6 -->
<g id="edge7_Node000004_Node000006" class="edge">
<title>Node4&#45;&gt;Node6</title>
<g id="a_edge7_Node000004_Node000006"><a xlink:title=" ">
<path fill="none" stroke="#63b8ff" d="M804.83,-417.91C810.39,-391.89 827.15,-313.47 834.94,-277.01"/>
<polygon fill="#63b8ff" stroke="#63b8ff" points="838.46,-277.28 837.13,-266.77 831.61,-275.82 838.46,-277.28"/>
</a>
</g>
</g>
<!-- Node7 -->
<g id="Node000007" class="node">
<title>Node7</title>
<g id="a_Node000007"><a xlink:href="LogManager_8ixx.html" target="_top" xlink:title="Central manager for scoped loggers with configurable sinks.">
<polygon fill="white" stroke="#666666" points="636,-200.5 490,-200.5 490,-181.5 636,-181.5 636,-200.5"/>
<text text-anchor="middle" x="563" y="-188.5" font-family="Helvetica,sans-Serif" font-size="10.00">helios.util.log.LogManager</text>
</a>
</g>
</g>
<!-- Node4&#45;&gt;Node7 -->
<g id="edge8_Node000004_Node000007" class="edge">
<title>Node4&#45;&gt;Node7</title>
<g id="a_edge8_Node000004_Node000007"><a xlink:title=" ">
<path fill="none" stroke="#63b8ff" d="M732.9,-417.98C596.36,-399.74 303.14,-351.93 247,-272 155.21,-141.32 81.82,-270.78 481,-206 488.33,-204.81 496.03,-203.53 503.65,-202.25"/>
<polygon fill="#63b8ff" stroke="#63b8ff" points="504.31,-205.69 513.59,-200.57 503.15,-198.79 504.31,-205.69"/>
</a>
</g>
</g>
<!-- Node13 -->
<g id="Node000013" class="node">
<title>Node13</title>
<g id="a_Node000013"><a xlink:href="Logger_8ixx.html" target="_top" xlink:title="Simple synchronous logger with configurable output sinks.">
<polygon fill="white" stroke="#666666" points="833.5,-134.5 714.5,-134.5 714.5,-115.5 833.5,-115.5 833.5,-134.5"/>
<text text-anchor="middle" x="774" y="-122.5" font-family="Helvetica,sans-Serif" font-size="10.00">helios.util.log.Logger</text>
</a>
</g>
</g>
<!-- Node4&#45;&gt;Node13 -->
<g id="edge23_Node000004_Node000013" class="edge">
<title>Node4&#45;&gt;Node13</title>
<g id="a_edge23_Node000004_Node000013"><a xlink:title=" ">
<path fill="none" stroke="#63b8ff" d="M800.3,-417.62C792.49,-390.23 771.9,-305.14 797,-242 805.13,-221.55 822.87,-226.45 831,-206 835.93,-193.61 836.5,-188.15 831,-176 824.22,-161.04 810.52,-148.79 798.25,-140.16"/>
<polygon fill="#63b8ff" stroke="#63b8ff" points="799.96,-137.1 789.68,-134.53 796.12,-142.95 799.96,-137.1"/>
</a>
</g>
</g>
<!-- Node15 -->
<g id="Node000015" class="node">
<title>Node15</title>
<g id="a_Node000015"><a xlink:href="UniformValueMap_8ixx.html" target="_top" xlink:title="Mapping of uniform names to values used by shader programs.">
<polygon fill="white" stroke="#666666" points="1392,-206 1258,-206 1258,-176 1392,-176 1392,-206"/>
<text text-anchor="start" x="1266" y="-194" font-family="Helvetica,sans-Serif" font-size="10.00">helios.rendering.shader.</text>
<text text-anchor="middle" x="1325" y="-183" font-family="Helvetica,sans-Serif" font-size="10.00">UniformValueMap</text>
</a>
</g>
</g>
<!-- Node4&#45;&gt;Node15 -->
<g id="edge24_Node000004_Node000015" class="edge">
<title>Node4&#45;&gt;Node15</title>
<g id="a_edge24_Node000004_Node000015"><a xlink:title=" ">
<path fill="none" stroke="#63b8ff" d="M880.01,-426.73C1038.52,-426.39 1389.52,-421.18 1426,-382 1474.53,-329.88 1394.78,-250.02 1350.88,-212.64"/>
<polygon fill="#63b8ff" stroke="#63b8ff" points="1353.06,-209.9 1343.14,-206.17 1348.57,-215.27 1353.06,-209.9"/>
</a>
</g>
</g>
<!-- Node19 -->
<g id="Node000019" class="node">
<title>Node19</title>
<g id="a_Node000019"><a xlink:href="MaterialPropertiesOverride_8ixx.html" target="_top" xlink:title="Overrides for material properties to customize rendering parameters.">
<polygon fill="white" stroke="#666666" points="1642,-272 1478,-272 1478,-242 1642,-242 1642,-272"/>
<text text-anchor="start" x="1486" y="-260" font-family="Helvetica,sans-Serif" font-size="10.00">helios.rendering.model.config.</text>
<text text-anchor="middle" x="1560" y="-249" font-family="Helvetica,sans-Serif" font-size="10.00">MaterialPropertiesOverride</text>
</a>
</g>
</g>
<!-- Node4&#45;&gt;Node19 -->
<g id="edge30_Node000004_Node000019" class="edge">
<title>Node4&#45;&gt;Node19</title>
<g id="a_edge30_Node000004_Node000019"><a xlink:title=" ">
<path fill="none" stroke="#63b8ff" d="M880.13,-424.84C1043.49,-420.83 1413.6,-408.86 1464,-382 1505.66,-359.8 1534.93,-310.78 1549.48,-281.46"/>
<polygon fill="#63b8ff" stroke="#63b8ff" points="1552.68,-282.87 1553.84,-272.34 1546.37,-279.85 1552.68,-282.87"/>
</a>
</g>
</g>
<!-- Node20 -->
<g id="Node000020" class="node">
<title>Node20</title>
<g id="a_Node000020"><a xlink:href="RenderPrototype_8ixx.html" target="_top" xlink:title="An immutable, shared prototype of a renderable object.">
<polygon fill="white" stroke="#666666" points="741,-382 561,-382 561,-363 741,-363 741,-382"/>
<text text-anchor="middle" x="651" y="-370" font-family="Helvetica,sans-Serif" font-size="10.00">helios.rendering.RenderPrototype</text>
</a>
</g>
</g>
<!-- Node4&#45;&gt;Node20 -->
<g id="edge35_Node000004_Node000020" class="edge">
<title>Node4&#45;&gt;Node20</title>
<g id="a_edge35_Node000004_Node000020"><a xlink:title=" ">
<path fill="none" stroke="#63b8ff" d="M778.58,-417.98C753.28,-409.16 713.55,-395.31 685.14,-385.41"/>
<polygon fill="#63b8ff" stroke="#63b8ff" points="686.21,-382.07 675.61,-382.08 683.9,-388.68 686.21,-382.07"/>
</a>
</g>
</g>
<!-- Node7&#45;&gt;Node2 -->
<g id="edge12_Node000007_Node000002" class="edge">
<title>Node7&#45;&gt;Node2</title>
<g id="a_edge12_Node000007_Node000002"><a xlink:title=" ">
<path fill="none" stroke="#63b8ff" d="M513.94,-181.43C467.77,-172.84 396.97,-158.27 337,-140 278.29,-122.12 212.04,-94.33 175.34,-78.22"/>
<polygon fill="#63b8ff" stroke="#63b8ff" points="176.36,-74.85 165.8,-74.01 173.53,-81.25 176.36,-74.85"/>
</a>
</g>
</g>
<!-- Node8 -->
<g id="Node000008" class="node">
<title>Node8</title>
<g id="a_Node000008"><a xlink:title=" ">
<polygon fill="#e0e0e0" stroke="#999999" points="841,-19 797,-19 797,0 841,0 841,-19"/>
<text text-anchor="middle" x="819" y="-7" font-family="Helvetica,sans-Serif" font-size="10.00">string</text>
</a>
</g>
</g>
<!-- Node7&#45;&gt;Node8 -->
<g id="edge9_Node000007_Node000008" class="edge">
<title>Node7&#45;&gt;Node8</title>
<g id="a_edge9_Node000007_Node000008"><a xlink:title=" ">
<path fill="none" stroke="#63b8ff" d="M566.7,-181.17C577.26,-157.01 610.04,-89.36 659,-55 697.71,-27.83 752.5,-17.21 786.88,-13.08"/>
<polygon fill="#63b8ff" stroke="#63b8ff" points="787.28,-16.56 796.85,-12 786.53,-9.6 787.28,-16.56"/>
</a>
</g>
</g>
<!-- Node9 -->
<g id="Node000009" class="node">
<title>Node9</title>
<g id="a_Node000009"><a xlink:title=" ">
<polygon fill="#e0e0e0" stroke="#999999" points="439.5,-134.5 346.5,-134.5 346.5,-115.5 439.5,-115.5 439.5,-134.5"/>
<text text-anchor="middle" x="393" y="-122.5" font-family="Helvetica,sans-Serif" font-size="10.00">unordered_map</text>
</a>
</g>
</g>
<!-- Node7&#45;&gt;Node9 -->
<g id="edge10_Node000007_Node000009" class="edge">
<title>Node7&#45;&gt;Node9</title>
<g id="a_edge10_Node000007_Node000009"><a xlink:title=" ">
<path fill="none" stroke="#63b8ff" d="M540.07,-181.37C510.46,-170.22 458.75,-150.75 425.2,-138.12"/>
<polygon fill="#63b8ff" stroke="#63b8ff" points="426.43,-134.84 415.83,-134.6 423.96,-141.4 426.43,-134.84"/>
</a>
</g>
</g>
<!-- Node10 -->
<g id="Node000010" class="node">
<title>Node10</title>
<g id="a_Node000010"><a xlink:title=" ">
<polygon fill="#e0e0e0" stroke="#999999" points="544,-134.5 458,-134.5 458,-115.5 544,-115.5 544,-134.5"/>
<text text-anchor="middle" x="501" y="-122.5" font-family="Helvetica,sans-Serif" font-size="10.00">unordered_set</text>
</a>
</g>
</g>
<!-- Node7&#45;&gt;Node10 -->
<g id="edge11_Node000007_Node000010" class="edge">
<title>Node7&#45;&gt;Node10</title>
<g id="a_edge11_Node000007_Node000010"><a xlink:title=" ">
<path fill="none" stroke="#63b8ff" d="M554.64,-181.37C544.99,-171.4 528.89,-154.79 516.85,-142.36"/>
<polygon fill="#63b8ff" stroke="#63b8ff" points="519.1,-139.65 509.63,-134.91 514.07,-144.52 519.1,-139.65"/>
</a>
</g>
</g>
<!-- Node11 -->
<g id="Node000011" class="node">
<title>Node11</title>
<g id="a_Node000011"><a xlink:title=" ">
<polygon fill="#e0e0e0" stroke="#999999" points="716,-74 668,-74 668,-55 716,-55 716,-74"/>
<text text-anchor="middle" x="692" y="-62" font-family="Helvetica,sans-Serif" font-size="10.00">mutex</text>
</a>
</g>
</g>
<!-- Node7&#45;&gt;Node11 -->
<g id="edge13_Node000007_Node000011" class="edge">
<title>Node7&#45;&gt;Node11</title>
<g id="a_edge13_Node000007_Node000011"><a xlink:title=" ">
<path fill="none" stroke="#63b8ff" d="M574.66,-181.26C587.25,-171.63 607.7,-155.45 624,-140 643.94,-121.09 664.99,-97.37 678.29,-81.84"/>
<polygon fill="#63b8ff" stroke="#63b8ff" points="681.03,-84.03 684.83,-74.14 675.69,-79.5 681.03,-84.03"/>
</a>
</g>
</g>
<!-- Node12 -->
<g id="Node000012" class="node">
<title>Node12</title>
<g id="a_Node000012"><a xlink:title=" ">
<polygon fill="#e0e0e0" stroke="#999999" points="461.5,-74 414.5,-74 414.5,-55 461.5,-55 461.5,-74"/>
<text text-anchor="middle" x="438" y="-62" font-family="Helvetica,sans-Serif" font-size="10.00">vector</text>
</a>
</g>
</g>
<!-- Node7&#45;&gt;Node12 -->
<g id="edge14_Node000007_Node000012" class="edge">
<title>Node7&#45;&gt;Node12</title>
<g id="a_edge14_Node000007_Node000012"><a xlink:title=" ">
<path fill="none" stroke="#63b8ff" d="M564.54,-181.47C566.89,-165.59 569.54,-131.18 553,-110 533.46,-84.98 497.96,-74.01 471.55,-69.21"/>
<polygon fill="#63b8ff" stroke="#63b8ff" points="472.01,-65.74 461.58,-67.61 470.9,-72.65 472.01,-65.74"/>
</a>
</g>
</g>
<!-- Node7&#45;&gt;Node13 -->
<g id="edge15_Node000007_Node000013" class="edge">
<title>Node7&#45;&gt;Node13</title>
<g id="a_edge15_Node000007_Node000013"><a xlink:title=" ">
<path fill="none" stroke="#63b8ff" d="M591.46,-181.37C628.76,-170.05 694.33,-150.16 735.9,-137.56"/>
<polygon fill="#63b8ff" stroke="#63b8ff" points="737.1,-140.85 745.66,-134.6 735.07,-134.15 737.1,-140.85"/>
</a>
</g>
</g>
<!-- Node14 -->
<g id="Node000014" class="node">
<title>Node14</title>
<g id="a_Node000014"><a xlink:href="LogSink_8ixx.html" target="_top" xlink:title="Abstract interface for log output destinations.">
<polygon fill="white" stroke="#666666" points="926,-74 802,-74 802,-55 926,-55 926,-74"/>
<text text-anchor="middle" x="864" y="-62" font-family="Helvetica,sans-Serif" font-size="10.00">helios.util.log.LogSink</text>
</a>
</g>
</g>
<!-- Node7&#45;&gt;Node14 -->
<g id="edge22_Node000007_Node000014" class="edge">
<title>Node7&#45;&gt;Node14</title>
<g id="a_edge22_Node000007_Node000014"><a xlink:title=" ">
<path fill="none" stroke="#63b8ff" d="M578.65,-181.4C596.64,-171.5 627.02,-154.71 653,-140 676.22,-126.85 680.4,-120.34 705,-110 739.93,-95.31 781.18,-83.93 812.91,-76.35"/>
<polygon fill="#63b8ff" stroke="#63b8ff" points="813.92,-79.71 822.86,-74.02 812.33,-72.89 813.92,-79.71"/>
</a>
</g>
</g>
<!-- Node13&#45;&gt;Node2 -->
<g id="edge18_Node000013_Node000002" class="edge">
<title>Node13&#45;&gt;Node2</title>
<g id="a_edge18_Node000013_Node000002"><a xlink:title=" ">
<path fill="none" stroke="#63b8ff" d="M714.45,-118.44C587.39,-106.59 292.64,-79.09 186.22,-69.16"/>
<polygon fill="#63b8ff" stroke="#63b8ff" points="186.51,-65.67 176.22,-68.23 185.86,-72.64 186.51,-65.67"/>
</a>
</g>
</g>
<!-- Node13&#45;&gt;Node8 -->
<g id="edge16_Node000013_Node000008" class="edge">
<title>Node13&#45;&gt;Node8</title>
<g id="a_edge16_Node000013_Node000008"><a xlink:title=" ">
<path fill="none" stroke="#63b8ff" d="M775.64,-115.26C778.32,-101.92 784.22,-75.84 793,-55 797,-45.52 802.65,-35.57 807.66,-27.5"/>
<polygon fill="#63b8ff" stroke="#63b8ff" points="810.65,-29.32 813.12,-19.01 804.77,-25.53 810.65,-29.32"/>
</a>
</g>
</g>
<!-- Node13&#45;&gt;Node11 -->
<g id="edge19_Node000013_Node000011" class="edge">
<title>Node13&#45;&gt;Node11</title>
<g id="a_edge19_Node000013_Node000011"><a xlink:title=" ">
<path fill="none" stroke="#63b8ff" d="M761.9,-115.37C748.94,-106.12 728.14,-91.28 712.6,-80.19"/>
<polygon fill="#63b8ff" stroke="#63b8ff" points="714.32,-77.13 704.15,-74.17 710.26,-82.82 714.32,-77.13"/>
</a>
</g>
</g>
<!-- Node13&#45;&gt;Node12 -->
<g id="edge17_Node000013_Node000012" class="edge">
<title>Node13&#45;&gt;Node12</title>
<g id="a_edge17_Node000013_Node000012"><a xlink:title=" ">
<path fill="none" stroke="#63b8ff" d="M725.14,-115.49C655.95,-103.45 531.2,-81.73 471.54,-71.34"/>
<polygon fill="#63b8ff" stroke="#63b8ff" points="471.98,-67.86 461.53,-69.6 470.78,-74.76 471.98,-67.86"/>
</a>
</g>
</g>
<!-- Node13&#45;&gt;Node14 -->
<g id="edge20_Node000013_Node000014" class="edge">
<title>Node13&#45;&gt;Node14</title>
<g id="a_edge20_Node000013_Node000014"><a xlink:title=" ">
<path fill="none" stroke="#63b8ff" d="M787.28,-115.37C801.64,-106.04 824.76,-91.01 841.87,-79.88"/>
<polygon fill="#63b8ff" stroke="#63b8ff" points="844.19,-82.55 850.67,-74.17 840.37,-76.68 844.19,-82.55"/>
</a>
</g>
</g>
<!-- Node14&#45;&gt;Node8 -->
<g id="edge21_Node000014_Node000008" class="edge">
<title>Node14&#45;&gt;Node8</title>
<g id="a_edge21_Node000014_Node000008"><a xlink:title=" ">
<path fill="none" stroke="#63b8ff" d="M856.57,-54.75C850.15,-47.18 840.69,-36.05 832.88,-26.84"/>
<polygon fill="#63b8ff" stroke="#63b8ff" points="835.43,-24.45 826.29,-19.09 830.1,-28.98 835.43,-24.45"/>
</a>
</g>
</g>
<!-- Node15&#45;&gt;Node3 -->
<g id="edge28_Node000015_Node000003" class="edge">
<title>Node15&#45;&gt;Node3</title>
<g id="a_edge28_Node000015_Node000003"><a xlink:title=" ">
<path fill="none" stroke="#63b8ff" d="M1288.57,-175.95C1259.33,-164.68 1218.69,-149.01 1190.76,-138.25"/>
<polygon fill="#63b8ff" stroke="#63b8ff" points="1191.68,-134.85 1181.09,-134.52 1189.16,-141.38 1191.68,-134.85"/>
</a>
</g>
</g>
<!-- Node15&#45;&gt;Node5 -->
<g id="edge26_Node000015_Node000005" class="edge">
<title>Node15&#45;&gt;Node5</title>
<g id="a_edge26_Node000015_Node000005"><a xlink:title=" ">
<path fill="none" stroke="#63b8ff" d="M1345.64,-175.8C1360.94,-165.27 1381.71,-150.97 1397.08,-140.4"/>
<polygon fill="#63b8ff" stroke="#63b8ff" points="1399.16,-143.21 1405.42,-134.66 1395.2,-137.44 1399.16,-143.21"/>
</a>
</g>
</g>
<!-- Node16 -->
<g id="Node000016" class="node">
<title>Node16</title>
<g id="a_Node000016"><a xlink:title=" ">
<polygon fill="#e0e0e0" stroke="#999999" points="1369,-134.5 1327,-134.5 1327,-115.5 1369,-115.5 1369,-134.5"/>
<text text-anchor="middle" x="1348" y="-122.5" font-family="Helvetica,sans-Serif" font-size="10.00">array</text>
</a>
</g>
</g>
<!-- Node15&#45;&gt;Node16 -->
<g id="edge25_Node000015_Node000016" class="edge">
<title>Node15&#45;&gt;Node16</title>
<g id="a_edge25_Node000015_Node000016"><a xlink:title=" ">
<path fill="none" stroke="#63b8ff" d="M1330.1,-175.8C1333.44,-166.5 1337.84,-154.27 1341.44,-144.26"/>
<polygon fill="#63b8ff" stroke="#63b8ff" points="1344.73,-145.44 1344.82,-134.84 1338.15,-143.07 1344.73,-145.44"/>
</a>
</g>
</g>
<!-- Node17 -->
<g id="Node000017" class="node">
<title>Node17</title>
<g id="a_Node000017"><a xlink:title=" ">
<polygon fill="#e0e0e0" stroke="#999999" points="1308.5,-134.5 1257.5,-134.5 1257.5,-115.5 1308.5,-115.5 1308.5,-134.5"/>
<text text-anchor="middle" x="1283" y="-122.5" font-family="Helvetica,sans-Serif" font-size="10.00">variant</text>
</a>
</g>
</g>
<!-- Node15&#45;&gt;Node17 -->
<g id="edge27_Node000015_Node000017" class="edge">
<title>Node15&#45;&gt;Node17</title>
<g id="a_edge27_Node000015_Node000017"><a xlink:title=" ">
<path fill="none" stroke="#63b8ff" d="M1315.68,-175.8C1309.39,-166.21 1301.05,-153.5 1294.37,-143.32"/>
<polygon fill="#63b8ff" stroke="#63b8ff" points="1297.22,-141.28 1288.8,-134.84 1291.36,-145.13 1297.22,-141.28"/>
</a>
</g>
</g>
<!-- Node18 -->
<g id="Node000018" class="node">
<title>Node18</title>
<g id="a_Node000018"><a xlink:href="UniformSemantics_8ixx.html" target="_top" xlink:title="Definitions of uniform semantics used by shaders.">
<polygon fill="white" stroke="#666666" points="1598,-140 1464,-140 1464,-110 1598,-110 1598,-140"/>
<text text-anchor="start" x="1472" y="-128" font-family="Helvetica,sans-Serif" font-size="10.00">helios.rendering.shader.</text>
<text text-anchor="middle" x="1531" y="-117" font-family="Helvetica,sans-Serif" font-size="10.00">UniformSemantics</text>
</a>
</g>
</g>
<!-- Node15&#45;&gt;Node18 -->
<g id="edge29_Node000015_Node000018" class="edge">
<title>Node15&#45;&gt;Node18</title>
<g id="a_edge29_Node000015_Node000018"><a xlink:title=" ">
<path fill="none" stroke="#63b8ff" d="M1370.21,-175.95C1401.33,-166.28 1442.87,-153.38 1475.93,-143.11"/>
<polygon fill="#63b8ff" stroke="#63b8ff" points="1477.39,-146.32 1485.9,-140.01 1475.31,-139.64 1477.39,-146.32"/>
</a>
</g>
</g>
<!-- Node19&#45;&gt;Node3 -->
<g id="edge34_Node000019_Node000003" class="edge">
<title>Node19&#45;&gt;Node3</title>
<g id="a_edge34_Node000019_Node000003"><a xlink:title=" ">
<path fill="none" stroke="#63b8ff" d="M1477.93,-255.47C1412.92,-252.14 1321.31,-240.81 1249,-206 1231.14,-197.4 1230.78,-189.2 1216,-176 1203.01,-164.4 1188.23,-151.44 1176.97,-141.62"/>
<polygon fill="#63b8ff" stroke="#63b8ff" points="1178.98,-138.73 1169.14,-134.8 1174.38,-144 1178.98,-138.73"/>
</a>
</g>
</g>
<!-- Node19&#45;&gt;Node5 -->
<g id="edge31_Node000019_Node000005" class="edge">
<title>Node19&#45;&gt;Node5</title>
<g id="a_edge31_Node000019_Node000005"><a xlink:title=" ">
<path fill="none" stroke="#63b8ff" d="M1544.53,-241.84C1517.71,-217.28 1462.77,-166.99 1434.95,-141.52"/>
<polygon fill="#63b8ff" stroke="#63b8ff" points="1437.29,-138.92 1427.56,-134.75 1432.57,-144.08 1437.29,-138.92"/>
</a>
</g>
</g>
<!-- Node19&#45;&gt;Node15 -->
<g id="edge33_Node000019_Node000015" class="edge">
<title>Node19&#45;&gt;Node15</title>
<g id="a_edge33_Node000019_Node000015"><a xlink:title=" ">
<path fill="none" stroke="#63b8ff" d="M1508.43,-241.95C1472.46,-232.16 1424.31,-219.05 1386.36,-208.71"/>
<polygon fill="#63b8ff" stroke="#63b8ff" points="1387.02,-205.26 1376.45,-206.01 1385.18,-212.02 1387.02,-205.26"/>
</a>
</g>
</g>
<!-- Node19&#45;&gt;Node18 -->
<g id="edge32_Node000019_Node000018" class="edge">
<title>Node19&#45;&gt;Node18</title>
<g id="a_edge32_Node000019_Node000018"><a xlink:title=" ">
<path fill="none" stroke="#63b8ff" d="M1556.84,-241.84C1551.92,-219.76 1542.35,-176.89 1536.34,-149.94"/>
<polygon fill="#63b8ff" stroke="#63b8ff" points="1539.75,-149.14 1534.15,-140.14 1532.92,-150.66 1539.75,-149.14"/>
</a>
</g>
</g>
<!-- Node20&#45;&gt;Node2 -->
<g id="edge36_Node000020_Node000002" class="edge">
<title>Node20&#45;&gt;Node2</title>
<g id="a_edge36_Node000020_Node000002"><a xlink:title=" ">
<path fill="none" stroke="#63b8ff" d="M560.79,-365.04C432.51,-354.01 206.4,-327.17 148,-272 95.85,-222.73 124.62,-124.3 139.67,-83.68"/>
<polygon fill="#63b8ff" stroke="#63b8ff" points="142.97,-84.84 143.3,-74.25 136.44,-82.32 142.97,-84.84"/>
</a>
</g>
</g>
<!-- Node21 -->
<g id="Node000021" class="node">
<title>Node21</title>
<g id="a_Node000021"><a xlink:href="Mesh_8ixx.html" target="_top" xlink:title="Mesh abstraction: immutable vertex/index data and configuration.">
<polygon fill="white" stroke="#666666" points="722,-327 564,-327 564,-308 722,-308 722,-327"/>
<text text-anchor="middle" x="643" y="-315" font-family="Helvetica,sans-Serif" font-size="10.00">helios.rendering.model.Mesh</text>
</a>
</g>
</g>
<!-- Node20&#45;&gt;Node21 -->
<g id="edge37_Node000020_Node000021" class="edge">
<title>Node20&#45;&gt;Node21</title>
<g id="a_edge37_Node000020_Node000021"><a xlink:title=" ">
<path fill="none" stroke="#63b8ff" d="M649.68,-362.75C648.63,-355.8 647.13,-345.85 645.81,-337.13"/>
<polygon fill="#63b8ff" stroke="#63b8ff" points="649.25,-336.45 644.3,-327.09 642.33,-337.5 649.25,-336.45"/>
</a>
</g>
</g>
<!-- Node26 -->
<g id="Node000026" class="node">
<title>Node26</title>
<g id="a_Node000026"><a xlink:href="Material_8ixx.html" target="_top" xlink:title="Material abstraction: shader + material properties.">
<polygon fill="white" stroke="#666666" points="1043.5,-327 870.5,-327 870.5,-308 1043.5,-308 1043.5,-327"/>
<text text-anchor="middle" x="957" y="-315" font-family="Helvetica,sans-Serif" font-size="10.00">helios.rendering.model.Material</text>
</a>
</g>
</g>
<!-- Node20&#45;&gt;Node26 -->
<g id="edge53_Node000020_Node000026" class="edge">
<title>Node20&#45;&gt;Node26</title>
<g id="a_edge53_Node000020_Node000026"><a xlink:title=" ">
<path fill="none" stroke="#63b8ff" d="M700.16,-362.98C753.95,-353.67 840.16,-338.74 897.67,-328.78"/>
<polygon fill="#63b8ff" stroke="#63b8ff" points="898.45,-332.19 907.7,-327.04 897.25,-325.3 898.45,-332.19"/>
</a>
</g>
</g>
<!-- Node21&#45;&gt;Node2 -->
<g id="edge38_Node000021_Node000002" class="edge">
<title>Node21&#45;&gt;Node2</title>
<g id="a_edge38_Node000021_Node000002"><a xlink:title=" ">
<path fill="none" stroke="#63b8ff" d="M563.81,-313.53C438.59,-308.15 205.93,-295.16 176,-272 118.56,-227.56 133.34,-125.96 142.42,-84.08"/>
<polygon fill="#63b8ff" stroke="#63b8ff" points="145.87,-84.68 144.71,-74.15 139.05,-83.11 145.87,-84.68"/>
</a>
</g>
</g>
<!-- Node21&#45;&gt;Node3 -->
<g id="edge41_Node000021_Node000003" class="edge">
<title>Node21&#45;&gt;Node3</title>
<g id="a_edge41_Node000021_Node000003"><a xlink:title=" ">
<path fill="none" stroke="#63b8ff" d="M658.85,-307.91C686.4,-293.19 745.15,-262.73 797,-242 910.37,-196.67 1048.94,-156.28 1117.07,-137.36"/>
<polygon fill="#63b8ff" stroke="#63b8ff" points="1118.29,-140.65 1127,-134.62 1116.43,-133.91 1118.29,-140.65"/>
</a>
</g>
</g>
<!-- Node21&#45;&gt;Node6 -->
<g id="edge39_Node000021_Node000006" class="edge">
<title>Node21&#45;&gt;Node6</title>
<g id="a_edge39_Node000021_Node000006"><a xlink:title=" ">
<path fill="none" stroke="#63b8ff" d="M671.5,-307.99C705.61,-297.81 762.87,-280.72 800.79,-269.4"/>
<polygon fill="#63b8ff" stroke="#63b8ff" points="801.88,-272.73 810.47,-266.52 799.88,-266.02 801.88,-272.73"/>
</a>
</g>
</g>
<!-- Node21&#45;&gt;Node7 -->
<g id="edge43_Node000021_Node000007" class="edge">
<title>Node21&#45;&gt;Node7</title>
<g id="a_edge43_Node000021_Node000007"><a xlink:title=" ">
<path fill="none" stroke="#63b8ff" d="M639.71,-307.83C634.08,-293.5 621.77,-264.26 607,-242 598.89,-229.78 588.01,-217.39 579.11,-208.01"/>
<polygon fill="#63b8ff" stroke="#63b8ff" points="581.39,-205.33 571.9,-200.61 576.37,-210.22 581.39,-205.33"/>
</a>
</g>
</g>
<!-- Node21&#45;&gt;Node12 -->
<g id="edge40_Node000021_Node000012" class="edge">
<title>Node21&#45;&gt;Node12</title>
<g id="a_edge40_Node000021_Node000012"><a xlink:title=" ">
<path fill="none" stroke="#63b8ff" d="M563.59,-313.15C454.06,-307.71 267.69,-295.15 247,-272 206.42,-226.6 198.23,-209 308,-110 334.9,-85.74 375.63,-74.6 404.31,-69.56"/>
<polygon fill="#63b8ff" stroke="#63b8ff" points="404.97,-73 414.29,-67.96 403.86,-66.08 404.97,-73"/>
</a>
</g>
</g>
<!-- Node21&#45;&gt;Node13 -->
<g id="edge42_Node000021_Node000013" class="edge">
<title>Node21&#45;&gt;Node13</title>
<g id="a_edge42_Node000021_Node000013"><a xlink:title=" ">
<path fill="none" stroke="#63b8ff" d="M643.22,-307.88C644.26,-284.22 650.12,-217.25 683,-176 696.87,-158.59 718.53,-146.35 737.24,-138.33"/>
<polygon fill="#63b8ff" stroke="#63b8ff" points="738.73,-141.5 746.7,-134.52 736.12,-135.01 738.73,-141.5"/>
</a>
</g>
</g>
<!-- Node22 -->
<g id="Node000022" class="node">
<title>Node22</title>
<g id="a_Node000022"><a xlink:href="Shape_8ixx.html" target="_top" xlink:title="Interface for simple geometric shapes used for testing and debugging.">
<polygon fill="white" stroke="#666666" points="416,-272 256,-272 256,-242 416,-242 416,-272"/>
<text text-anchor="start" x="264" y="-260" font-family="Helvetica,sans-Serif" font-size="10.00">helios.rendering.asset.shape.</text>
<text text-anchor="middle" x="336" y="-249" font-family="Helvetica,sans-Serif" font-size="10.00">Shape</text>
</a>
</g>
</g>
<!-- Node21&#45;&gt;Node22 -->
<g id="edge44_Node000021_Node000022" class="edge">
<title>Node21&#45;&gt;Node22</title>
<g id="a_edge44_Node000021_Node000022"><a xlink:title=" ">
<path fill="none" stroke="#63b8ff" d="M598.36,-307.99C551.59,-299.08 477.04,-284.88 419.35,-273.88"/>
<polygon fill="#63b8ff" stroke="#63b8ff" points="419.99,-270.44 409.51,-272.01 418.68,-277.32 419.99,-270.44"/>
</a>
</g>
</g>
<!-- Node24 -->
<g id="Node000024" class="node">
<title>Node24</title>
<g id="a_Node000024"><a xlink:href="Vertex_8ixx.html" target="_top" xlink:title="Vertex description and utilities for rendering.">
<polygon fill="white" stroke="#666666" points="822,-200.5 692,-200.5 692,-181.5 822,-181.5 822,-200.5"/>
<text text-anchor="middle" x="757" y="-188.5" font-family="Helvetica,sans-Serif" font-size="10.00">helios.rendering.Vertex</text>
</a>
</g>
</g>
<!-- Node21&#45;&gt;Node24 -->
<g id="edge52_Node000021_Node000024" class="edge">
<title>Node21&#45;&gt;Node24</title>
<g id="a_edge52_Node000021_Node000024"><a xlink:title=" ">
<path fill="none" stroke="#63b8ff" d="M650.84,-307.94C669.71,-287.33 717.93,-234.67 742.35,-208"/>
<polygon fill="#63b8ff" stroke="#63b8ff" points="744.94,-210.36 749.11,-200.62 739.77,-205.63 744.94,-210.36"/>
</a>
</g>
</g>
<!-- Node25 -->
<g id="Node000025" class="node">
<title>Node25</title>
<g id="a_Node000025"><a xlink:href="MeshConfig_8ixx.html" target="_top" xlink:title="Mesh configuration including primitive type.">
<polygon fill="white" stroke="#666666" points="598,-272 434,-272 434,-242 598,-242 598,-272"/>
<text text-anchor="start" x="442" y="-260" font-family="Helvetica,sans-Serif" font-size="10.00">helios.rendering.model.config.</text>
<text text-anchor="middle" x="516" y="-249" font-family="Helvetica,sans-Serif" font-size="10.00">MeshConfig</text>
</a>
</g>
</g>
<!-- Node21&#45;&gt;Node25 -->
<g id="edge50_Node000021_Node000025" class="edge">
<title>Node21&#45;&gt;Node25</title>
<g id="a_edge50_Node000021_Node000025"><a xlink:title=" ">
<path fill="none" stroke="#63b8ff" d="M624.53,-307.99C606.64,-299.75 578.9,-286.98 555.95,-276.4"/>
<polygon fill="#63b8ff" stroke="#63b8ff" points="557.33,-273.18 546.78,-272.18 554.4,-279.54 557.33,-273.18"/>
</a>
</g>
</g>
<!-- Node22&#45;&gt;Node2 -->
<g id="edge45_Node000022_Node000002" class="edge">
<title>Node22&#45;&gt;Node2</title>
<g id="a_edge45_Node000022_Node000002"><a xlink:title=" ">
<path fill="none" stroke="#63b8ff" d="M322.1,-241.99C287.86,-207.48 199.6,-118.51 163.13,-81.76"/>
<polygon fill="#63b8ff" stroke="#63b8ff" points="165.32,-79 155.79,-74.36 160.35,-83.93 165.32,-79"/>
</a>
</g>
</g>
<!-- Node22&#45;&gt;Node12 -->
<g id="edge46_Node000022_Node000012" class="edge">
<title>Node22&#45;&gt;Node12</title>
<g id="a_edge46_Node000022_Node000012"><a xlink:title=" ">
<path fill="none" stroke="#63b8ff" d="M321.51,-241.7C313.16,-232.41 303.46,-219.54 299,-206 294.82,-193.34 295.56,-188.88 299,-176 307.74,-143.3 311.82,-132.61 337,-110 356.32,-92.65 383.5,-81.2 404.79,-74.26"/>
<polygon fill="#63b8ff" stroke="#63b8ff" points="405.88,-77.59 414.41,-71.3 403.82,-70.9 405.88,-77.59"/>
</a>
</g>
</g>
<!-- Node23 -->
<g id="Node000023" class="node">
<title>Node23</title>
<g id="a_Node000023"><a xlink:href="PrimitiveType_8ixx.html" target="_top" xlink:title="Enum of primitive types for mesh rendering.">
<polygon fill="white" stroke="#666666" points="472,-206 308,-206 308,-176 472,-176 472,-206"/>
<text text-anchor="start" x="316" y="-194" font-family="Helvetica,sans-Serif" font-size="10.00">helios.rendering.model.config.</text>
<text text-anchor="middle" x="390" y="-183" font-family="Helvetica,sans-Serif" font-size="10.00">PrimitiveType</text>
</a>
</g>
</g>
<!-- Node22&#45;&gt;Node23 -->
<g id="edge47_Node000022_Node000023" class="edge">
<title>Node22&#45;&gt;Node23</title>
<g id="a_edge47_Node000022_Node000023"><a xlink:title=" ">
<path fill="none" stroke="#63b8ff" d="M347.98,-241.8C354.91,-233.59 363.76,-223.1 371.55,-213.87"/>
<polygon fill="#63b8ff" stroke="#63b8ff" points="374.28,-216.06 378.05,-206.16 368.93,-211.55 374.28,-216.06"/>
</a>
</g>
</g>
<!-- Node22&#45;&gt;Node24 -->
<g id="edge48_Node000022_Node000024" class="edge">
<title>Node22&#45;&gt;Node24</title>
<g id="a_edge48_Node000022_Node000024"><a xlink:title=" ">
<path fill="none" stroke="#63b8ff" d="M416.05,-243.38C419.07,-242.91 422.06,-242.45 425,-242 516.65,-227.89 622.6,-212.01 689.68,-202.01"/>
<polygon fill="#63b8ff" stroke="#63b8ff" points="690.33,-205.45 699.7,-200.51 689.29,-198.53 690.33,-205.45"/>
</a>
</g>
</g>
<!-- Node24&#45;&gt;Node3 -->
<g id="edge49_Node000024_Node000003" class="edge">
<title>Node24&#45;&gt;Node3</title>
<g id="a_edge49_Node000024_Node000003"><a xlink:title=" ">
<path fill="none" stroke="#63b8ff" d="M820.89,-181.49C888.23,-172.27 997.34,-156.64 1091,-140 1096.93,-138.95 1103.14,-137.77 1109.28,-136.56"/>
<polygon fill="#63b8ff" stroke="#63b8ff" points="1110.4,-139.91 1119.52,-134.51 1109.02,-133.04 1110.4,-139.91"/>
</a>
</g>
</g>
<!-- Node25&#45;&gt;Node23 -->
<g id="edge51_Node000025_Node000023" class="edge">
<title>Node25&#45;&gt;Node23</title>
<g id="a_edge51_Node000025_Node000023"><a xlink:title=" ">
<path fill="none" stroke="#63b8ff" d="M488.35,-241.95C470.21,-232.74 446.3,-220.6 426.59,-210.59"/>
<polygon fill="#63b8ff" stroke="#63b8ff" points="428.09,-207.42 417.59,-206.01 424.92,-213.66 428.09,-207.42"/>
</a>
</g>
</g>
<!-- Node26&#45;&gt;Node2 -->
<g id="edge54_Node000026_Node000002" class="edge">
<title>Node26&#45;&gt;Node2</title>
<g id="a_edge54_Node000026_Node000002"><a xlink:title=" ">
<path fill="none" stroke="#63b8ff" d="M870.18,-313.38C686.34,-306.47 272.48,-289.1 247,-272 180.65,-227.46 156.88,-125.92 149.7,-84.06"/>
<polygon fill="#63b8ff" stroke="#63b8ff" points="153.15,-83.47 148.12,-74.15 146.24,-84.57 153.15,-83.47"/>
</a>
</g>
</g>
<!-- Node26&#45;&gt;Node6 -->
<g id="edge55_Node000026_Node000006" class="edge">
<title>Node26&#45;&gt;Node6</title>
<g id="a_edge55_Node000026_Node000006"><a xlink:title=" ">
<path fill="none" stroke="#63b8ff" d="M939.84,-307.99C920.27,-298.29 888.03,-282.31 865.28,-271.03"/>
<polygon fill="#63b8ff" stroke="#63b8ff" points="866.69,-267.82 856.18,-266.52 863.58,-274.09 866.69,-267.82"/>
</a>
</g>
</g>
<!-- Node26&#45;&gt;Node15 -->
<g id="edge71_Node000026_Node000015" class="edge">
<title>Node26&#45;&gt;Node15</title>
<g id="a_edge71_Node000026_Node000015"><a xlink:title=" ">
<path fill="none" stroke="#63b8ff" d="M1043.81,-312.84C1154.65,-307.25 1334.63,-294.77 1355,-272 1369.62,-255.66 1357.35,-231.52 1344.38,-214.03"/>
<polygon fill="#63b8ff" stroke="#63b8ff" points="1347.01,-211.72 1338.06,-206.05 1341.52,-216.06 1347.01,-211.72"/>
</a>
</g>
</g>
<!-- Node27 -->
<g id="Node000027" class="node">
<title>Node27</title>
<g id="a_Node000027"><a xlink:href="helios_2util_2log_2__module_8ixx.html" target="_top" xlink:title="Module exports for logging.">
<polygon fill="white" stroke="#666666" points="1125.5,-266.5 1042.5,-266.5 1042.5,-247.5 1125.5,-247.5 1125.5,-266.5"/>
<text text-anchor="middle" x="1084" y="-254.5" font-family="Helvetica,sans-Serif" font-size="10.00">helios.util.log</text>
</a>
</g>
</g>
<!-- Node26&#45;&gt;Node27 -->
<g id="edge56_Node000026_Node000027" class="edge">
<title>Node26&#45;&gt;Node27</title>
<g id="a_edge56_Node000026_Node000027"><a xlink:title=" ">
<path fill="none" stroke="#63b8ff" d="M975.47,-307.99C996.72,-298.2 1031.85,-282.02 1056.37,-270.73"/>
<polygon fill="#63b8ff" stroke="#63b8ff" points="1057.89,-273.88 1065.51,-266.52 1054.96,-267.52 1057.89,-273.88"/>
</a>
</g>
</g>
<!-- Node29 -->
<g id="Node000029" class="node">
<title>Node29</title>
<g id="a_Node000029"><a xlink:href="MaterialProperties_8ixx.html" target="_top" xlink:title="Default material properties used by materials and instances.">
<polygon fill="white" stroke="#666666" points="1346,-272 1182,-272 1182,-242 1346,-242 1346,-272"/>
<text text-anchor="start" x="1190" y="-260" font-family="Helvetica,sans-Serif" font-size="10.00">helios.rendering.model.config.</text>
<text text-anchor="middle" x="1264" y="-249" font-family="Helvetica,sans-Serif" font-size="10.00">MaterialProperties</text>
</a>
</g>
</g>
<!-- Node26&#45;&gt;Node29 -->
<g id="edge63_Node000026_Node000029" class="edge">
<title>Node26&#45;&gt;Node29</title>
<g id="a_edge63_Node000026_Node000029"><a xlink:title=" ">
<path fill="none" stroke="#63b8ff" d="M1001.64,-307.99C1048.41,-299.08 1122.96,-284.88 1180.65,-273.88"/>
<polygon fill="#63b8ff" stroke="#63b8ff" points="1181.32,-277.32 1190.49,-272.01 1180.01,-270.44 1181.32,-277.32"/>
</a>
</g>
</g>
<!-- Node30 -->
<g id="Node000030" class="node">
<title>Node30</title>
<g id="a_Node000030"><a xlink:href="Shader_8ixx.html" target="_top" xlink:title="Abstraction for a compiled shader program.">
<polygon fill="white" stroke="#666666" points="1024,-272 890,-272 890,-242 1024,-242 1024,-272"/>
<text text-anchor="start" x="898" y="-260" font-family="Helvetica,sans-Serif" font-size="10.00">helios.rendering.shader.</text>
<text text-anchor="middle" x="957" y="-249" font-family="Helvetica,sans-Serif" font-size="10.00">Shader</text>
</a>
</g>
</g>
<!-- Node26&#45;&gt;Node30 -->
<g id="edge67_Node000026_Node000030" class="edge">
<title>Node26&#45;&gt;Node30</title>
<g id="a_edge67_Node000026_Node000030"><a xlink:title=" ">
<path fill="none" stroke="#63b8ff" d="M957,-307.87C957,-301.11 957,-291.35 957,-282.26"/>
<polygon fill="#63b8ff" stroke="#63b8ff" points="960.5,-282.11 957,-272.11 953.5,-282.11 960.5,-282.11"/>
</a>
</g>
</g>
<!-- Node27&#45;&gt;Node7 -->
<g id="edge57_Node000027_Node000007" class="edge">
<title>Node27&#45;&gt;Node7</title>
<g id="a_edge57_Node000027_Node000007"><a xlink:title=" ">
<path fill="none" stroke="#63b8ff" d="M1056.14,-247.46C1048.68,-245.42 1040.58,-243.42 1033,-242 879.3,-213.2 838.44,-223.06 683,-206 670.66,-204.65 657.61,-203.17 644.85,-201.7"/>
<polygon fill="#63b8ff" stroke="#63b8ff" points="645.02,-198.2 634.69,-200.53 644.22,-205.15 645.02,-198.2"/>
</a>
</g>
</g>
<!-- Node27&#45;&gt;Node13 -->
<g id="edge58_Node000027_Node000013" class="edge">
<title>Node27&#45;&gt;Node13</title>
<g id="a_edge58_Node000027_Node000013"><a xlink:title=" ">
<path fill="none" stroke="#63b8ff" d="M1057.31,-247.43C1029.89,-238.31 986.24,-222.89 950,-206 925.47,-194.57 921.37,-187.79 897,-176 867.14,-161.55 831.99,-147.55 806.92,-138.06"/>
<polygon fill="#63b8ff" stroke="#63b8ff" points="808.1,-134.76 797.51,-134.52 805.64,-141.31 808.1,-134.76"/>
</a>
</g>
</g>
<!-- Node27&#45;&gt;Node14 -->
<g id="edge62_Node000027_Node000014" class="edge">
<title>Node27&#45;&gt;Node14</title>
<g id="a_edge62_Node000027_Node000014"><a xlink:title=" ">
<path fill="none" stroke="#63b8ff" d="M1070.16,-247.35C1041.76,-229.28 975.48,-185.4 927,-140 907.78,-122 888.66,-98.38 876.62,-82.61"/>
<polygon fill="#63b8ff" stroke="#63b8ff" points="879.2,-80.22 870.4,-74.33 873.61,-84.43 879.2,-80.22"/>
</a>
</g>
</g>
<!-- Node28 -->
<g id="Node000028" class="node">
<title>Node28</title>
<g id="a_Node000028"><a xlink:href="ConsoleSink_8ixx.html" target="_top" xlink:title="Log sink that writes to stdout.">
<polygon fill="white" stroke="#666666" points="1082,-134.5 936,-134.5 936,-115.5 1082,-115.5 1082,-134.5"/>
<text text-anchor="middle" x="1009" y="-122.5" font-family="Helvetica,sans-Serif" font-size="10.00">helios.util.log.ConsoleSink</text>
</a>
</g>
</g>
<!-- Node27&#45;&gt;Node28 -->
<g id="edge59_Node000027_Node000028" class="edge">
<title>Node27&#45;&gt;Node28</title>
<g id="a_edge59_Node000027_Node000028"><a xlink:title=" ">
<path fill="none" stroke="#63b8ff" d="M1079.08,-247.47C1066.95,-226.45 1035.43,-171.82 1019.12,-143.54"/>
<polygon fill="#63b8ff" stroke="#63b8ff" points="1022.07,-141.64 1014.04,-134.73 1016,-145.14 1022.07,-141.64"/>
</a>
</g>
</g>
<!-- Node28&#45;&gt;Node8 -->
<g id="edge60_Node000028_Node000008" class="edge">
<title>Node28&#45;&gt;Node8</title>
<g id="a_edge60_Node000028_Node000008"><a xlink:title=" ">
<path fill="none" stroke="#63b8ff" d="M1001.64,-115.23C989.22,-100.89 962.71,-72.31 935,-55 908.59,-38.5 875.07,-26.46 850.87,-19.09"/>
<polygon fill="#63b8ff" stroke="#63b8ff" points="851.69,-15.69 841.11,-16.22 849.72,-22.4 851.69,-15.69"/>
</a>
</g>
</g>
<!-- Node28&#45;&gt;Node14 -->
<g id="edge61_Node000028_Node000014" class="edge">
<title>Node28&#45;&gt;Node14</title>
<g id="a_edge61_Node000028_Node000014"><a xlink:title=" ">
<path fill="none" stroke="#63b8ff" d="M987.92,-115.49C963.32,-105.57 922.47,-89.09 894.44,-77.78"/>
<polygon fill="#63b8ff" stroke="#63b8ff" points="895.69,-74.51 885.11,-74.02 893.07,-81 895.69,-74.51"/>
</a>
</g>
</g>
<!-- Node29&#45;&gt;Node3 -->
<g id="edge66_Node000029_Node000003" class="edge">
<title>Node29&#45;&gt;Node3</title>
<g id="a_edge66_Node000029_Node000003"><a xlink:title=" ">
<path fill="none" stroke="#63b8ff" d="M1249.13,-241.65C1239.34,-231.92 1226.44,-218.6 1216,-206 1198.9,-185.36 1181.31,-159.92 1170.28,-143.34"/>
<polygon fill="#63b8ff" stroke="#63b8ff" points="1173.02,-141.14 1164.6,-134.71 1167.18,-144.99 1173.02,-141.14"/>
</a>
</g>
</g>
<!-- Node29&#45;&gt;Node15 -->
<g id="edge65_Node000029_Node000015" class="edge">
<title>Node29&#45;&gt;Node15</title>
<g id="a_edge65_Node000029_Node000015"><a xlink:title=" ">
<path fill="none" stroke="#63b8ff" d="M1277.54,-241.8C1285.44,-233.51 1295.56,-222.89 1304.42,-213.59"/>
<polygon fill="#63b8ff" stroke="#63b8ff" points="1307.13,-215.82 1311.5,-206.16 1302.07,-210.99 1307.13,-215.82"/>
</a>
</g>
</g>
<!-- Node29&#45;&gt;Node18 -->
<g id="edge64_Node000029_Node000018" class="edge">
<title>Node29&#45;&gt;Node18</title>
<g id="a_edge64_Node000029_Node000018"><a xlink:title=" ">
<path fill="none" stroke="#63b8ff" d="M1309.68,-241.9C1336.78,-232.91 1371.49,-220.29 1401,-206 1437.49,-188.34 1476.78,-163.22 1502.51,-145.86"/>
<polygon fill="#63b8ff" stroke="#63b8ff" points="1504.72,-148.59 1511.01,-140.07 1500.78,-142.81 1504.72,-148.59"/>
</a>
</g>
</g>
<!-- Node30&#45;&gt;Node7 -->
<g id="edge70_Node000030_Node000007" class="edge">
<title>Node30&#45;&gt;Node7</title>
<g id="a_edge70_Node000030_Node000007"><a xlink:title=" ">
<path fill="none" stroke="#63b8ff" d="M889.82,-243.69C886.5,-243.11 883.21,-242.55 880,-242 793.71,-227.35 693.95,-211.85 629.75,-202.06"/>
<polygon fill="#63b8ff" stroke="#63b8ff" points="630.17,-198.59 619.76,-200.54 629.12,-205.51 630.17,-198.59"/>
</a>
</g>
</g>
<!-- Node30&#45;&gt;Node13 -->
<g id="edge69_Node000030_Node000013" class="edge">
<title>Node30&#45;&gt;Node13</title>
<g id="a_edge69_Node000030_Node000013"><a xlink:title=" ">
<path fill="none" stroke="#63b8ff" d="M942.62,-241.99C924.97,-225.19 893.7,-196.7 864,-176 843.77,-161.9 819.21,-148.48 800.86,-139.1"/>
<polygon fill="#63b8ff" stroke="#63b8ff" points="802.39,-135.95 791.88,-134.58 799.24,-142.2 802.39,-135.95"/>
</a>
</g>
</g>
<!-- Node30&#45;&gt;Node15 -->
<g id="edge68_Node000030_Node000015" class="edge">
<title>Node30&#45;&gt;Node15</title>
<g id="a_edge68_Node000030_Node000015"><a xlink:title=" ">
<path fill="none" stroke="#63b8ff" d="M1024.13,-243.59C1027.13,-243.05 1030.09,-242.52 1033,-242 1105.88,-229.05 1189.11,-214.86 1248.01,-204.91"/>
<polygon fill="#63b8ff" stroke="#63b8ff" points="1248.7,-208.34 1257.98,-203.23 1247.54,-201.44 1248.7,-208.34"/>
</a>
</g>
</g>
</g>
</svg>

<g id="navigator" transform="translate(0 0)" fill="#404254">
  <rect fill="#f2f5e9" fill-opacity="0.5" stroke="#606060" stroke-width=".5" x="0" y="0" width="60" height="60"/>
  <use id="zoomplus" xlink:href="#zoomPlus" x="17" y="9" onmousedown="handleZoom(evt,'in')"/>
  <use id="zoomminus" xlink:href="#zoomMin" x="42" y="9" onmousedown="handleZoom(evt,'out')"/>
  <use id="reset" xlink:href="#resetDef" x="30" y="36" onmousedown="handleReset()"/>
   <use id="arrowup" xlink:href="#arrowUp" x="0" y="0" onmousedown="handlePan(0,-1)"/>
  <use id="arrowright" xlink:href="#arrowRight" x="0" y="0" onmousedown="handlePan(1,0)"/>
  <use id="arrowdown" xlink:href="#arrowDown" x="0" y="0" onmousedown="handlePan(0,1)"/>
  <use id="arrowleft" xlink:href="#arrowLeft" x="0" y="0" onmousedown="handlePan(-1,0)"/>
</g>
<svg viewBox="0 0 15 15" width="100%" height="30px" preserveAspectRatio="xMaxYMin meet">
 <g id="arrow_out" transform="scale(0.3 0.3)">
  <a xlink:href="SnapshotItem_8ixx__incl_org.svg" target="_base">
   <rect id="button" ry="5" rx="5" y="6" x="6" height="38" width="38"
        fill="#f2f5e9" fill-opacity="0.5" stroke="#606060" stroke-width="1.0"/>
   <path id="arrow"
     d="M 11.500037,31.436501 C 11.940474,20.09759 22.043105,11.32322 32.158766,21.979434 L 37.068811,17.246167 C 37.068811,17.246167 37.088388,32 37.088388,32 L 22.160133,31.978069 C 22.160133,31.978069 26.997745,27.140456 26.997745,27.140456 C 18.528582,18.264221 13.291696,25.230495 11.500037,31.436501 z"
     style="fill:#404040;"/>
  </a>
 </g>
</svg>

<style type='text/css'>
<![CDATA[
[data-mouse-over-selected='false'] { opacity: 0.7; }
[data-mouse-over-selected='true']  { opacity: 1.0; }
]]>
</style>
<script type="application/ecmascript"><![CDATA[
document.addEventListener('DOMContentLoaded', (event) => {
  highlightEdges();
  highlightAdjacentNodes();
});
]]></script>
</svg>
