<?xml version="1.0" encoding="UTF-8" standalone="no"?>
<!DOCTYPE svg PUBLIC "-//W3C//DTD SVG 1.1//EN"
 "http://www.w3.org/Graphics/SVG/1.1/DTD/svg11.dtd">
<!-- Generated by graphviz version 2.43.0 (0)
 -->
<!-- Title: helios::ext::glfw::window::GLFWWindowUserPointer Pages: 1 -->
<svg width="292pt" height="193pt"
 viewBox="0.00 0.00 291.50 193.00" xmlns="http://www.w3.org/2000/svg" xmlns:xlink="http://www.w3.org/1999/xlink">
<g id="graph0" class="graph" transform="scale(1 1) rotate(0) translate(4 189)">
<title>helios::ext::glfw::window::GLFWWindowUserPointer</title>
<!-- Node1 -->
<g id="Node000001" class="node">
<title>Node1</title>
<g id="a_Node000001"><a xlink:title="A structure to hold user defined data associated with a GLFWwindow.">
<polygon fill="#999999" stroke="#666666" points="232.5,-30 48.5,-30 48.5,0 232.5,0 232.5,-30"/>
<text text-anchor="start" x="56.5" y="-18" font-family="Helvetica,sans-Serif" font-size="10.00">helios::ext::glfw::</text>
<text text-anchor="middle" x="140.5" y="-7" font-family="Helvetica,sans-Serif" font-size="10.00">window::GLFWWindowUserPointer</text>
</a>
</g>
</g>
<!-- Node2 -->
<g id="Node000002" class="node">
<title>Node2</title>
<g id="a_Node000002"><a xlink:href="classhelios_1_1app_1_1Application.html" target="_top" xlink:title="Class providing the entry point for a helios application.">
<polygon fill="white" stroke="#666666" points="131,-102 0,-102 0,-83 131,-83 131,-102"/>
<text text-anchor="middle" x="65.5" y="-90" font-family="Helvetica,sans-Serif" font-size="10.00">helios::app::Application</text>
</a>
</g>
</g>
<!-- Node2&#45;&gt;Node1 -->
<g id="edge1_Node000001_Node000002" class="edge">
<title>Node2&#45;&gt;Node1</title>
<g id="a_edge1_Node000001_Node000002"><a xlink:title=" ">
<path fill="none" stroke="#9a32cd" stroke-dasharray="5,2" d="M81.22,-75.68C94.56,-62.25 113.53,-43.15 126.39,-30.21"/>
<polygon fill="#9a32cd" stroke="#9a32cd" points="78.67,-73.28 74.1,-82.84 83.63,-78.21 78.67,-73.28"/>
</a>
</g>
<text text-anchor="start" x="111" y="-53.5" font-family="Helvetica,sans-Serif" font-size="10.00" fill="grey">application</text>
</g>
<!-- Node3 -->
<g id="Node000003" class="node">
<title>Node3</title>
<g id="a_Node000003"><a xlink:href="classhelios_1_1util_1_1log_1_1Logger.html" target="_top" xlink:title="Logger implementation with configurable output sinks.">
<polygon fill="white" stroke="#666666" points="188,-185 93,-185 93,-155 188,-155 188,-185"/>
<text text-anchor="start" x="101" y="-173" font-family="Helvetica,sans-Serif" font-size="10.00">helios::util::log::</text>
<text text-anchor="middle" x="140.5" y="-162" font-family="Helvetica,sans-Serif" font-size="10.00">Logger</text>
</a>
</g>
</g>
<!-- Node3&#45;&gt;Node2 -->
<g id="edge2_Node000002_Node000003" class="edge">
<title>Node3&#45;&gt;Node2</title>
<g id="a_edge2_Node000002_Node000003"><a xlink:title=" ">
<path fill="none" stroke="#9a32cd" stroke-dasharray="5,2" d="M119,-147.36C104,-132.26 84.8,-112.92 73.95,-102.01"/>
<polygon fill="#9a32cd" stroke="#9a32cd" points="116.86,-150.17 126.39,-154.8 121.83,-145.24 116.86,-150.17"/>
</a>
</g>
<text text-anchor="start" x="111" y="-125.5" font-family="Helvetica,sans-Serif" font-size="10.00" fill="grey">logger_</text>
</g>
<!-- Node4 -->
<g id="Node000004" class="node">
<title>Node4</title>
<g id="a_Node000004"><a xlink:href="classhelios_1_1window_1_1Window.html" target="_top" xlink:title="Abstract base class representing a generic window.">
<polygon fill="white" stroke="#666666" points="283.5,-102 149.5,-102 149.5,-83 283.5,-83 283.5,-102"/>
<text text-anchor="middle" x="216.5" y="-90" font-family="Helvetica,sans-Serif" font-size="10.00">helios::window::Window</text>
</a>
</g>
</g>
<!-- Node3&#45;&gt;Node4 -->
<g id="edge4_Node000004_Node000003" class="edge">
<title>Node3&#45;&gt;Node4</title>
<g id="a_edge4_Node000004_Node000003"><a xlink:title=" ">
<path fill="none" stroke="#9a32cd" stroke-dasharray="5,2" d="M162.29,-147.36C177.49,-132.26 196.95,-112.92 207.94,-102.01"/>
<polygon fill="#9a32cd" stroke="#9a32cd" points="159.42,-145.27 154.8,-154.8 164.36,-150.23 159.42,-145.27"/>
</a>
</g>
<text text-anchor="start" x="194" y="-125.5" font-family="Helvetica,sans-Serif" font-size="10.00" fill="grey">logger_</text>
</g>
<!-- Node4&#45;&gt;Node1 -->
<g id="edge3_Node000001_Node000004" class="edge">
<title>Node4&#45;&gt;Node1</title>
<g id="a_edge3_Node000001_Node000004"><a xlink:title=" ">
<path fill="none" stroke="#9a32cd" stroke-dasharray="5,2" d="M200.57,-75.68C187.05,-62.25 167.83,-43.15 154.8,-30.21"/>
<polygon fill="#9a32cd" stroke="#9a32cd" points="198.22,-78.27 207.78,-82.84 203.15,-73.31 198.22,-78.27"/>
</a>
</g>
<text text-anchor="start" x="193.5" y="-53.5" font-family="Helvetica,sans-Serif" font-size="10.00" fill="grey">window</text>
</g>
</g>
</svg>
