<?xml version="1.0" encoding="UTF-8" standalone="no"?>
<!DOCTYPE svg PUBLIC "-//W3C//DTD SVG 1.1//EN"
 "http://www.w3.org/Graphics/SVG/1.1/DTD/svg11.dtd">
<!-- Generated by graphviz version 2.43.0 (0)
 -->
<!-- Title: helios::rendering::asset::shape::Shape::Shape Pages: 1 -->
<svg width="284pt" height="285pt"
 viewBox="0.00 0.00 284.00 285.00" xmlns="http://www.w3.org/2000/svg" xmlns:xlink="http://www.w3.org/1999/xlink">

<svg id="main" version="1.1" xmlns="http://www.w3.org/2000/svg" xmlns:xlink="http://www.w3.org/1999/xlink" xml:space="preserve">

<style type="text/css"><![CDATA[
.node, .edge {opacity: 0.7;}
.node.selected, .edge.selected {opacity: 1;}
.edge:hover path { stroke: red; }
.edge:hover polygon { stroke: red; fill: red; }
]]></style>
<script type="application/ecmascript" xlink:href="svg.min.js"/>
<svg id="graph" class="graph">
<g id="graph0" class="graph" transform="scale(1 1) rotate(0) translate(4 281)">
<title>helios::rendering::asset::shape::Shape::Shape</title>
<!-- Node1 -->
<g id="Node000001" class="node">
<title>Node1</title>
<g id="a_Node000001"><a xlink:title="Creates a new shape from the given vertices and indices. The data is copied into immutable shared vec...">
<polygon fill="#999999" stroke="#666666" points="276,-159 162,-159 162,-118 276,-118 276,-159"/>
<text text-anchor="start" x="170" y="-147" font-family="Helvetica,sans-Serif" font-size="10.00">helios::rendering::</text>
<text text-anchor="start" x="170" y="-136" font-family="Helvetica,sans-Serif" font-size="10.00">asset::shape::Shape</text>
<text text-anchor="middle" x="219" y="-125" font-family="Helvetica,sans-Serif" font-size="10.00">::Shape</text>
</a>
</g>
</g>
<!-- Node2 -->
<g id="Node000002" class="node">
<title>Node2</title>
<g id="a_Node000002"><a xlink:href="structhelios_1_1rendering_1_1asset_1_1shape_1_1basic_1_1Circle.html#a7216e5fe912fe498b88884e55966be91" target="_top" xlink:title="Creates a circle with a specific radius and segment count.">
<polygon fill="white" stroke="#666666" points="118,-277 8,-277 8,-236 118,-236 118,-277"/>
<text text-anchor="start" x="16" y="-265" font-family="Helvetica,sans-Serif" font-size="10.00">helios::rendering::</text>
<text text-anchor="start" x="16" y="-254" font-family="Helvetica,sans-Serif" font-size="10.00">asset::shape::basic</text>
<text text-anchor="middle" x="63" y="-243" font-family="Helvetica,sans-Serif" font-size="10.00">::Circle::Circle</text>
</a>
</g>
</g>
<!-- Node1&#45;&gt;Node2 -->
<g id="edge1_Node000001_Node000002" class="edge">
<title>Node1&#45;&gt;Node2</title>
<g id="a_edge1_Node000001_Node000002"><a xlink:title=" ">
<path fill="none" stroke="#63b8ff" d="M193.47,-166.71C176.01,-185.6 151.25,-210.11 126,-227.5 121.69,-230.47 117.04,-233.27 112.28,-235.88"/>
<polygon fill="#63b8ff" stroke="#63b8ff" points="196.12,-169.01 200.26,-159.26 190.94,-164.3 196.12,-169.01"/>
</a>
</g>
</g>
<!-- Node3 -->
<g id="Node000003" class="node">
<title>Node3</title>
<g id="a_Node000003"><a xlink:href="structhelios_1_1rendering_1_1asset_1_1shape_1_1basic_1_1Cube.html#a298bea767099a4c310ab7108024f848e" target="_top" xlink:title=" ">
<polygon fill="white" stroke="#666666" points="118,-218 8,-218 8,-177 118,-177 118,-218"/>
<text text-anchor="start" x="16" y="-206" font-family="Helvetica,sans-Serif" font-size="10.00">helios::rendering::</text>
<text text-anchor="start" x="16" y="-195" font-family="Helvetica,sans-Serif" font-size="10.00">asset::shape::basic</text>
<text text-anchor="middle" x="63" y="-184" font-family="Helvetica,sans-Serif" font-size="10.00">::Cube::Cube</text>
</a>
</g>
</g>
<!-- Node1&#45;&gt;Node3 -->
<g id="edge2_Node000001_Node000003" class="edge">
<title>Node1&#45;&gt;Node3</title>
<g id="a_edge2_Node000001_Node000003"><a xlink:title=" ">
<path fill="none" stroke="#63b8ff" d="M154.44,-162.85C142.19,-167.55 129.47,-172.42 117.57,-176.98"/>
<polygon fill="#63b8ff" stroke="#63b8ff" points="156.05,-165.98 164.14,-159.14 153.55,-159.44 156.05,-165.98"/>
</a>
</g>
</g>
<!-- Node4 -->
<g id="Node000004" class="node">
<title>Node4</title>
<g id="a_Node000004"><a xlink:href="structhelios_1_1rendering_1_1asset_1_1shape_1_1basic_1_1Line.html#a427210e20dc07acf0a3d765892d66074" target="_top" xlink:title=" ">
<polygon fill="white" stroke="#666666" points="118,-159 8,-159 8,-118 118,-118 118,-159"/>
<text text-anchor="start" x="16" y="-147" font-family="Helvetica,sans-Serif" font-size="10.00">helios::rendering::</text>
<text text-anchor="start" x="16" y="-136" font-family="Helvetica,sans-Serif" font-size="10.00">asset::shape::basic</text>
<text text-anchor="middle" x="63" y="-125" font-family="Helvetica,sans-Serif" font-size="10.00">::Line::Line</text>
</a>
</g>
</g>
<!-- Node1&#45;&gt;Node4 -->
<g id="edge3_Node000001_Node000004" class="edge">
<title>Node1&#45;&gt;Node4</title>
<g id="a_edge3_Node000001_Node000004"><a xlink:title=" ">
<path fill="none" stroke="#63b8ff" d="M151.79,-138.5C140.57,-138.5 129.05,-138.5 118.19,-138.5"/>
<polygon fill="#63b8ff" stroke="#63b8ff" points="151.97,-142 161.97,-138.5 151.97,-135 151.97,-142"/>
</a>
</g>
</g>
<!-- Node5 -->
<g id="Node000005" class="node">
<title>Node5</title>
<g id="a_Node000005"><a xlink:href="structhelios_1_1rendering_1_1asset_1_1shape_1_1basic_1_1Rectangle.html#a107d9bec5afd9fdf6e99ca68deee8f7f" target="_top" xlink:title=" ">
<polygon fill="white" stroke="#666666" points="126,-100 0,-100 0,-59 126,-59 126,-100"/>
<text text-anchor="start" x="8" y="-88" font-family="Helvetica,sans-Serif" font-size="10.00">helios::rendering::</text>
<text text-anchor="start" x="8" y="-77" font-family="Helvetica,sans-Serif" font-size="10.00">asset::shape::basic</text>
<text text-anchor="middle" x="63" y="-66" font-family="Helvetica,sans-Serif" font-size="10.00">::Rectangle::Rectangle</text>
</a>
</g>
</g>
<!-- Node1&#45;&gt;Node5 -->
<g id="edge4_Node000001_Node000005" class="edge">
<title>Node1&#45;&gt;Node5</title>
<g id="a_edge4_Node000001_Node000005"><a xlink:title=" ">
<path fill="none" stroke="#63b8ff" d="M154.44,-114.15C142.19,-109.45 129.47,-104.58 117.57,-100.02"/>
<polygon fill="#63b8ff" stroke="#63b8ff" points="153.55,-117.56 164.14,-117.86 156.05,-111.02 153.55,-117.56"/>
</a>
</g>
</g>
<!-- Node6 -->
<g id="Node000006" class="node">
<title>Node6</title>
<g id="a_Node000006"><a xlink:href="structhelios_1_1rendering_1_1asset_1_1shape_1_1basic_1_1Triangle.html#acfd0d45878444edb071fb66cd8d0ee1d" target="_top" xlink:title=" ">
<polygon fill="white" stroke="#666666" points="118,-41 8,-41 8,0 118,0 118,-41"/>
<text text-anchor="start" x="16" y="-29" font-family="Helvetica,sans-Serif" font-size="10.00">helios::rendering::</text>
<text text-anchor="start" x="16" y="-18" font-family="Helvetica,sans-Serif" font-size="10.00">asset::shape::basic</text>
<text text-anchor="middle" x="63" y="-7" font-family="Helvetica,sans-Serif" font-size="10.00">::Triangle::Triangle</text>
</a>
</g>
</g>
<!-- Node1&#45;&gt;Node6 -->
<g id="edge5_Node000001_Node000006" class="edge">
<title>Node1&#45;&gt;Node6</title>
<g id="a_edge5_Node000001_Node000006"><a xlink:title=" ">
<path fill="none" stroke="#63b8ff" d="M192.78,-110.12C175.29,-91.58 150.78,-67.71 126,-50.5 121.19,-47.16 115.95,-44 110.61,-41.07"/>
<polygon fill="#63b8ff" stroke="#63b8ff" points="190.45,-112.76 199.82,-117.71 195.58,-108 190.45,-112.76"/>
</a>
</g>
</g>
</g>
</svg>
</svg>

<style type='text/css'>
<![CDATA[
[data-mouse-over-selected='false'] { opacity: 0.7; }
[data-mouse-over-selected='true']  { opacity: 1.0; }
]]>
</style>
<script type="application/ecmascript"><![CDATA[
document.addEventListener('DOMContentLoaded', (event) => {
  highlightEdges();
  highlightAdjacentNodes();
});
]]></script>
</svg>
