<?xml version="1.0" encoding="UTF-8" standalone="no"?>
<!DOCTYPE svg PUBLIC "-//W3C//DTD SVG 1.1//EN"
 "http://www.w3.org/Graphics/SVG/1.1/DTD/svg11.dtd">
<!-- Generated by graphviz version 2.43.0 (0)
 -->
<!-- Title: helios::math::vec3::vec3 Pages: 1 -->
<svg width="279pt" height="124pt"
 viewBox="0.00 0.00 279.00 124.00" xmlns="http://www.w3.org/2000/svg" xmlns:xlink="http://www.w3.org/1999/xlink">
<g id="graph0" class="graph" transform="scale(1 1) rotate(0) translate(4 120)">
<title>helios::math::vec3::vec3</title>
<!-- Node1 -->
<g id="Node000001" class="node">
<title>Node1</title>
<g id="a_Node000001"><a xlink:title="Creates a new vec3 with its values initialized to (0, 0, 0).">
<polygon fill="#999999" stroke="#666666" points="271,-73 164,-73 164,-43 271,-43 271,-73"/>
<text text-anchor="start" x="172" y="-61" font-family="Helvetica,sans-Serif" font-size="10.00">helios::math::vec3</text>
<text text-anchor="middle" x="217.5" y="-50" font-family="Helvetica,sans-Serif" font-size="10.00">::vec3</text>
</a>
</g>
</g>
<!-- Node2 -->
<g id="Node000002" class="node">
<title>Node2</title>
<g id="a_Node000002"><a xlink:href="structhelios_1_1math_1_1vec3.html#ae59861132e8e9d8cde196eeebec0faae" target="_top" xlink:title="Computes the cross product of this vector and v2.">
<polygon fill="white" stroke="#666666" points="117.5,-116 10.5,-116 10.5,-86 117.5,-86 117.5,-116"/>
<text text-anchor="start" x="18.5" y="-104" font-family="Helvetica,sans-Serif" font-size="10.00">helios::math::vec3</text>
<text text-anchor="middle" x="64" y="-93" font-family="Helvetica,sans-Serif" font-size="10.00">::cross</text>
</a>
</g>
</g>
<!-- Node1&#45;&gt;Node2 -->
<g id="edge1_Node000001_Node000002" class="edge">
<title>Node1&#45;&gt;Node2</title>
<g id="a_edge1_Node000001_Node000002"><a xlink:title=" ">
<path fill="none" stroke="#63b8ff" d="M153.96,-75.75C141.92,-79.17 129.42,-82.72 117.73,-86.03"/>
<polygon fill="#63b8ff" stroke="#63b8ff" points="155.27,-79.02 163.94,-72.92 153.36,-72.28 155.27,-79.02"/>
</a>
</g>
</g>
<!-- Node3 -->
<g id="Node000003" class="node">
<title>Node3</title>
<g id="a_Node000003"><a xlink:href="structhelios_1_1math_1_1vec3.html#ad64bf63ac24905fed6d397d59088340d" target="_top" xlink:title="Computes the dot product of this vector and v2.">
<polygon fill="white" stroke="#666666" points="128,-67.5 0,-67.5 0,-48.5 128,-48.5 128,-67.5"/>
<text text-anchor="middle" x="64" y="-55.5" font-family="Helvetica,sans-Serif" font-size="10.00">helios::math::vec3::dot</text>
</a>
</g>
</g>
<!-- Node1&#45;&gt;Node3 -->
<g id="edge2_Node000001_Node000003" class="edge">
<title>Node1&#45;&gt;Node3</title>
<g id="a_edge2_Node000001_Node000003"><a xlink:title=" ">
<path fill="none" stroke="#63b8ff" d="M153.76,-58C145.31,-58 136.63,-58 128.16,-58"/>
<polygon fill="#63b8ff" stroke="#63b8ff" points="153.94,-61.5 163.94,-58 153.94,-54.5 153.94,-61.5"/>
</a>
</g>
</g>
<!-- Node4 -->
<g id="Node000004" class="node">
<title>Node4</title>
<g id="a_Node000004"><a xlink:href="structhelios_1_1math_1_1vec3.html#a3bbdd06a78770b9dadc233e0acca4295" target="_top" xlink:title="Returns a normalized version of this vector.">
<polygon fill="white" stroke="#666666" points="117.5,-30 10.5,-30 10.5,0 117.5,0 117.5,-30"/>
<text text-anchor="start" x="18.5" y="-18" font-family="Helvetica,sans-Serif" font-size="10.00">helios::math::vec3</text>
<text text-anchor="middle" x="64" y="-7" font-family="Helvetica,sans-Serif" font-size="10.00">::normalize</text>
</a>
</g>
</g>
<!-- Node1&#45;&gt;Node4 -->
<g id="edge3_Node000001_Node000004" class="edge">
<title>Node1&#45;&gt;Node4</title>
<g id="a_edge3_Node000001_Node000004"><a xlink:title=" ">
<path fill="none" stroke="#63b8ff" d="M153.96,-40.25C141.92,-36.83 129.42,-33.28 117.73,-29.97"/>
<polygon fill="#63b8ff" stroke="#63b8ff" points="153.36,-43.72 163.94,-43.08 155.27,-36.98 153.36,-43.72"/>
</a>
</g>
</g>
</g>
</svg>
