<?xml version="1.0" encoding="UTF-8" standalone="no"?>
<!DOCTYPE svg PUBLIC "-//W3C//DTD SVG 1.1//EN"
 "http://www.w3.org/Graphics/SVG/1.1/DTD/svg11.dtd">
<!-- Generated by graphviz version 2.43.0 (0)
 -->
<!-- Title: helios::scene::SnapshotItem::SnapshotItem Pages: 1 -->
<svg width="352pt" height="188pt"
 viewBox="0.00 0.00 352.00 188.00" xmlns="http://www.w3.org/2000/svg" xmlns:xlink="http://www.w3.org/1999/xlink">

<svg id="main" version="1.1" xmlns="http://www.w3.org/2000/svg" xmlns:xlink="http://www.w3.org/1999/xlink" xml:space="preserve">

<style type="text/css"><![CDATA[
.node, .edge {opacity: 0.7;}
.node.selected, .edge.selected {opacity: 1;}
.edge:hover path { stroke: red; }
.edge:hover polygon { stroke: red; fill: red; }
]]></style>
<script type="application/ecmascript" xlink:href="svg.min.js"/>
<svg id="graph" class="graph">
<g id="graph0" class="graph" transform="scale(1 1) rotate(0) translate(4 184)">
<title>helios::scene::SnapshotItem::SnapshotItem</title>
<!-- Node1 -->
<g id="Node000001" class="node">
<title>Node1</title>
<g id="a_Node000001"><a xlink:title="Constructs a new SnapshotItem with the specified renderable and the worldMatrix.">
<polygon fill="#999999" stroke="#666666" points="154,-96 0,-96 0,-66 154,-66 154,-96"/>
<text text-anchor="start" x="8" y="-84" font-family="Helvetica,sans-Serif" font-size="10.00">helios::scene::SnapshotItem</text>
<text text-anchor="middle" x="77" y="-73" font-family="Helvetica,sans-Serif" font-size="10.00">::SnapshotItem</text>
</a>
</g>
</g>
<!-- Node2 -->
<g id="Node000002" class="node">
<title>Node2</title>
<g id="a_Node000002"><a xlink:href="structhelios_1_1scene_1_1SnapshotItem.html#a3145126ee37604f07f27f3f8ed8d30e2" target="_top" xlink:title="Returns a weak_ptr to the Renderable of this SnapshotItem. Use `.lock()` on the returned weak_ptr to ...">
<polygon fill="white" stroke="#666666" points="344,-162 190,-162 190,-132 344,-132 344,-162"/>
<text text-anchor="start" x="198" y="-150" font-family="Helvetica,sans-Serif" font-size="10.00">helios::scene::SnapshotItem</text>
<text text-anchor="middle" x="267" y="-139" font-family="Helvetica,sans-Serif" font-size="10.00">::renderable</text>
</a>
</g>
</g>
<!-- Node1&#45;&gt;Node2 -->
<g id="edge1_Node000001_Node000002" class="edge">
<title>Node1&#45;&gt;Node2</title>
<g id="a_edge1_Node000001_Node000002"><a xlink:title=" ">
<path fill="none" stroke="#63b8ff" d="M116.69,-96.09C138.18,-104.32 165.46,-114.53 190,-123 195.53,-124.91 201.31,-126.84 207.1,-128.74"/>
<polygon fill="#63b8ff" stroke="#63b8ff" points="206.22,-132.13 216.82,-131.89 208.38,-125.47 206.22,-132.13"/>
</a>
</g>
</g>
<!-- Node3 -->
<g id="Node000003" class="node">
<title>Node3</title>
<g id="a_Node000003"><a xlink:href="structhelios_1_1scene_1_1SnapshotItem.html#a896b2a4f5c6bf92b2dd560281cd0b3f6" target="_top" xlink:title="Prevent copying.">
<polygon fill="white" stroke="#666666" points="344,-96 190,-96 190,-66 344,-66 344,-96"/>
<text text-anchor="start" x="198" y="-84" font-family="Helvetica,sans-Serif" font-size="10.00">helios::scene::SnapshotItem</text>
<text text-anchor="middle" x="267" y="-73" font-family="Helvetica,sans-Serif" font-size="10.00">::SnapshotItem</text>
</a>
</g>
</g>
<!-- Node1&#45;&gt;Node3 -->
<g id="edge3_Node000001_Node000003" class="edge">
<title>Node1&#45;&gt;Node3</title>
<g id="a_edge3_Node000001_Node000003"><a xlink:title=" ">
<path fill="none" stroke="#63b8ff" d="M154.2,-81C162.52,-81 171.03,-81 179.47,-81"/>
<polygon fill="#63b8ff" stroke="#63b8ff" points="179.7,-84.5 189.7,-81 179.7,-77.5 179.7,-84.5"/>
</a>
</g>
</g>
<!-- Node4 -->
<g id="Node000004" class="node">
<title>Node4</title>
<g id="a_Node000004"><a xlink:href="structhelios_1_1scene_1_1SnapshotItem.html#a9b1e4c1e12d5c92284036256995442f5" target="_top" xlink:title="Returns a const ref to the worldMatrix of this SnapshotItem. The world transformation matrix is a cop...">
<polygon fill="white" stroke="#666666" points="344,-30 190,-30 190,0 344,0 344,-30"/>
<text text-anchor="start" x="198" y="-18" font-family="Helvetica,sans-Serif" font-size="10.00">helios::scene::SnapshotItem</text>
<text text-anchor="middle" x="267" y="-7" font-family="Helvetica,sans-Serif" font-size="10.00">::worldMatrix</text>
</a>
</g>
</g>
<!-- Node1&#45;&gt;Node4 -->
<g id="edge5_Node000001_Node000004" class="edge">
<title>Node1&#45;&gt;Node4</title>
<g id="a_edge5_Node000001_Node000004"><a xlink:title=" ">
<path fill="none" stroke="#63b8ff" d="M121.13,-65.86C148.6,-56.22 184.35,-43.66 213.47,-33.44"/>
<polygon fill="#63b8ff" stroke="#63b8ff" points="214.79,-36.69 223.07,-30.07 212.47,-30.08 214.79,-36.69"/>
</a>
</g>
</g>
<!-- Node2&#45;&gt;Node2 -->
<g id="edge2_Node000002_Node000002" class="edge">
<title>Node2&#45;&gt;Node2</title>
<g id="a_edge2_Node000002_Node000002"><a xlink:title=" ">
<path fill="none" stroke="#63b8ff" d="M233.6,-162.28C226.18,-171.41 237.31,-180 267,-180 284.63,-180 295.71,-176.97 300.26,-172.6"/>
<polygon fill="#63b8ff" stroke="#63b8ff" points="303.76,-172.32 300.4,-162.28 296.76,-172.23 303.76,-172.32"/>
</a>
</g>
</g>
<!-- Node3&#45;&gt;Node3 -->
<g id="edge4_Node000003_Node000003" class="edge">
<title>Node3&#45;&gt;Node3</title>
<g id="a_edge4_Node000003_Node000003"><a xlink:title=" ">
<path fill="none" stroke="#63b8ff" d="M233.6,-96.28C226.18,-105.41 237.31,-114 267,-114 284.63,-114 295.71,-110.97 300.26,-106.6"/>
<polygon fill="#63b8ff" stroke="#63b8ff" points="303.76,-106.32 300.4,-96.28 296.76,-106.23 303.76,-106.32"/>
</a>
</g>
</g>
<!-- Node4&#45;&gt;Node4 -->
<g id="edge6_Node000004_Node000004" class="edge">
<title>Node4&#45;&gt;Node4</title>
<g id="a_edge6_Node000004_Node000004"><a xlink:title=" ">
<path fill="none" stroke="#63b8ff" d="M233.6,-30.28C226.18,-39.41 237.31,-48 267,-48 284.63,-48 295.71,-44.97 300.26,-40.6"/>
<polygon fill="#63b8ff" stroke="#63b8ff" points="303.76,-40.32 300.4,-30.28 296.76,-40.23 303.76,-40.32"/>
</a>
</g>
</g>
</g>
</svg>
</svg>

<style type='text/css'>
<![CDATA[
[data-mouse-over-selected='false'] { opacity: 0.7; }
[data-mouse-over-selected='true']  { opacity: 1.0; }
]]>
</style>
<script type="application/ecmascript"><![CDATA[
document.addEventListener('DOMContentLoaded', (event) => {
  highlightEdges();
  highlightAdjacentNodes();
});
]]></script>
</svg>
