<?xml version="1.0" encoding="UTF-8" standalone="no"?>
<!DOCTYPE svg PUBLIC "-//W3C//DTD SVG 1.1//EN"
 "http://www.w3.org/Graphics/SVG/1.1/DTD/svg11.dtd">
<!-- Generated by graphviz version 2.43.0 (0)
 -->
<!-- Title: helios::rendering::asset::shape::Shape Pages: 1 -->
<svg width="298pt" height="312pt"
 viewBox="0.00 0.00 298.00 312.00" xmlns="http://www.w3.org/2000/svg" xmlns:xlink="http://www.w3.org/1999/xlink">

<svg id="main" version="1.1" xmlns="http://www.w3.org/2000/svg" xmlns:xlink="http://www.w3.org/1999/xlink" xml:space="preserve">

<style type="text/css"><![CDATA[
.node, .edge {opacity: 0.7;}
.node.selected, .edge.selected {opacity: 1;}
.edge:hover path { stroke: red; }
.edge:hover polygon { stroke: red; fill: red; }
]]></style>
<script type="application/ecmascript" xlink:href="svg.min.js"/>
<svg id="graph" class="graph">
<g id="graph0" class="graph" transform="scale(1 1) rotate(0) translate(4 308)">
<title>helios::rendering::asset::shape::Shape</title>
<!-- Node1 -->
<g id="Node000001" class="node">
<title>Node1</title>
<g id="a_Node000001"><a xlink:title="Struct representing geometric primitives and indices for various shapes. provides immutable,...">
<polygon fill="#999999" stroke="#666666" points="114,-172.5 0,-172.5 0,-142.5 114,-142.5 114,-172.5"/>
<text text-anchor="start" x="8" y="-160.5" font-family="Helvetica,sans-Serif" font-size="10.00">helios::rendering::</text>
<text text-anchor="middle" x="57" y="-149.5" font-family="Helvetica,sans-Serif" font-size="10.00">asset::shape::Shape</text>
</a>
</g>
</g>
<!-- Node2 -->
<g id="Node000002" class="node">
<title>Node2</title>
<g id="a_Node000002"><a xlink:href="structhelios_1_1rendering_1_1asset_1_1shape_1_1basic_1_1Circle.html" target="_top" xlink:title="Basic Circle Shape (2D, in XY plane).">
<polygon fill="white" stroke="#666666" points="275,-304 165,-304 165,-263 275,-263 275,-304"/>
<text text-anchor="start" x="173" y="-292" font-family="Helvetica,sans-Serif" font-size="10.00">helios::rendering::</text>
<text text-anchor="start" x="173" y="-281" font-family="Helvetica,sans-Serif" font-size="10.00">asset::shape::basic</text>
<text text-anchor="middle" x="220" y="-270" font-family="Helvetica,sans-Serif" font-size="10.00">::Circle</text>
</a>
</g>
</g>
<!-- Node1&#45;&gt;Node2 -->
<g id="edge1_Node000001_Node000002" class="edge">
<title>Node1&#45;&gt;Node2</title>
<g id="a_edge1_Node000001_Node000002"><a xlink:title=" ">
<path fill="none" stroke="#63b8ff" d="M75.54,-180.47C92.66,-201.67 120.4,-232.88 150,-253.5 154.93,-256.93 160.32,-260.1 165.84,-262.99"/>
<polygon fill="#63b8ff" stroke="#63b8ff" points="78.25,-178.27 69.3,-172.61 72.77,-182.62 78.25,-178.27"/>
</a>
</g>
</g>
<!-- Node3 -->
<g id="Node000003" class="node">
<title>Node3</title>
<g id="a_Node000003"><a xlink:href="structhelios_1_1rendering_1_1asset_1_1shape_1_1basic_1_1Cube.html" target="_top" xlink:title="Basic Cube Shape.">
<polygon fill="white" stroke="#666666" points="290,-244.5 150,-244.5 150,-214.5 290,-214.5 290,-244.5"/>
<text text-anchor="start" x="158" y="-232.5" font-family="Helvetica,sans-Serif" font-size="10.00">helios::rendering::</text>
<text text-anchor="middle" x="220" y="-221.5" font-family="Helvetica,sans-Serif" font-size="10.00">asset::shape::basic::Cube</text>
</a>
</g>
</g>
<!-- Node1&#45;&gt;Node3 -->
<g id="edge2_Node000001_Node000003" class="edge">
<title>Node1&#45;&gt;Node3</title>
<g id="a_edge2_Node000001_Node000003"><a xlink:title=" ">
<path fill="none" stroke="#63b8ff" d="M93.42,-177.53C110.27,-186.65 130.88,-197.24 150,-205.5 157.22,-208.62 164.99,-211.63 172.62,-214.41"/>
<polygon fill="#63b8ff" stroke="#63b8ff" points="94.92,-174.36 84.47,-172.63 91.56,-180.5 94.92,-174.36"/>
</a>
</g>
</g>
<!-- Node4 -->
<g id="Node000004" class="node">
<title>Node4</title>
<g id="a_Node000004"><a xlink:href="structhelios_1_1rendering_1_1asset_1_1shape_1_1basic_1_1Grid.html" target="_top" xlink:title="A configurable grid shape for rendering reference lines in 3D space.">
<polygon fill="white" stroke="#666666" points="288,-196.5 152,-196.5 152,-166.5 288,-166.5 288,-196.5"/>
<text text-anchor="start" x="160" y="-184.5" font-family="Helvetica,sans-Serif" font-size="10.00">helios::rendering::</text>
<text text-anchor="middle" x="220" y="-173.5" font-family="Helvetica,sans-Serif" font-size="10.00">asset::shape::basic::Grid</text>
</a>
</g>
</g>
<!-- Node1&#45;&gt;Node4 -->
<g id="edge3_Node000001_Node000004" class="edge">
<title>Node1&#45;&gt;Node4</title>
<g id="a_edge3_Node000001_Node000004"><a xlink:title=" ">
<path fill="none" stroke="#63b8ff" d="M124.43,-167.4C133.52,-168.76 142.84,-170.15 151.94,-171.5"/>
<polygon fill="#63b8ff" stroke="#63b8ff" points="124.72,-163.91 114.31,-165.89 123.68,-170.83 124.72,-163.91"/>
</a>
</g>
</g>
<!-- Node5 -->
<g id="Node000005" class="node">
<title>Node5</title>
<g id="a_Node000005"><a xlink:href="structhelios_1_1rendering_1_1asset_1_1shape_1_1basic_1_1Line.html" target="_top" xlink:title="Basic Line Shape.">
<polygon fill="white" stroke="#666666" points="288,-148.5 152,-148.5 152,-118.5 288,-118.5 288,-148.5"/>
<text text-anchor="start" x="160" y="-136.5" font-family="Helvetica,sans-Serif" font-size="10.00">helios::rendering::</text>
<text text-anchor="middle" x="220" y="-125.5" font-family="Helvetica,sans-Serif" font-size="10.00">asset::shape::basic::Line</text>
</a>
</g>
</g>
<!-- Node1&#45;&gt;Node5 -->
<g id="edge4_Node000001_Node000005" class="edge">
<title>Node1&#45;&gt;Node5</title>
<g id="a_edge4_Node000001_Node000005"><a xlink:title=" ">
<path fill="none" stroke="#63b8ff" d="M124.43,-147.6C133.52,-146.24 142.84,-144.85 151.94,-143.5"/>
<polygon fill="#63b8ff" stroke="#63b8ff" points="123.68,-144.17 114.31,-149.11 124.72,-151.09 123.68,-144.17"/>
</a>
</g>
</g>
<!-- Node6 -->
<g id="Node000006" class="node">
<title>Node6</title>
<g id="a_Node000006"><a xlink:href="structhelios_1_1rendering_1_1asset_1_1shape_1_1basic_1_1Rectangle.html" target="_top" xlink:title="Basic Rectangle Shape.">
<polygon fill="white" stroke="#666666" points="275,-100 165,-100 165,-59 275,-59 275,-100"/>
<text text-anchor="start" x="173" y="-88" font-family="Helvetica,sans-Serif" font-size="10.00">helios::rendering::</text>
<text text-anchor="start" x="173" y="-77" font-family="Helvetica,sans-Serif" font-size="10.00">asset::shape::basic</text>
<text text-anchor="middle" x="220" y="-66" font-family="Helvetica,sans-Serif" font-size="10.00">::Rectangle</text>
</a>
</g>
</g>
<!-- Node1&#45;&gt;Node6 -->
<g id="edge5_Node000001_Node000006" class="edge">
<title>Node1&#45;&gt;Node6</title>
<g id="a_edge5_Node000001_Node000006"><a xlink:title=" ">
<path fill="none" stroke="#63b8ff" d="M94.45,-137.73C111.23,-128.82 131.48,-118.34 150,-109.5 156.6,-106.35 163.62,-103.14 170.55,-100.05"/>
<polygon fill="#63b8ff" stroke="#63b8ff" points="92.7,-134.69 85.52,-142.49 95.99,-140.87 92.7,-134.69"/>
</a>
</g>
</g>
<!-- Node7 -->
<g id="Node000007" class="node">
<title>Node7</title>
<g id="a_Node000007"><a xlink:href="structhelios_1_1rendering_1_1asset_1_1shape_1_1basic_1_1Triangle.html" target="_top" xlink:title="Basic Triangle Shape.">
<polygon fill="white" stroke="#666666" points="275,-41 165,-41 165,0 275,0 275,-41"/>
<text text-anchor="start" x="173" y="-29" font-family="Helvetica,sans-Serif" font-size="10.00">helios::rendering::</text>
<text text-anchor="start" x="173" y="-18" font-family="Helvetica,sans-Serif" font-size="10.00">asset::shape::basic</text>
<text text-anchor="middle" x="220" y="-7" font-family="Helvetica,sans-Serif" font-size="10.00">::Triangle</text>
</a>
</g>
</g>
<!-- Node1&#45;&gt;Node7 -->
<g id="edge6_Node000001_Node000007" class="edge">
<title>Node1&#45;&gt;Node7</title>
<g id="a_edge6_Node000001_Node000007"><a xlink:title=" ">
<path fill="none" stroke="#63b8ff" d="M73.37,-134.07C89.92,-110.37 118.18,-73.96 150,-50.5 154.63,-47.09 159.7,-43.96 164.93,-41.13"/>
<polygon fill="#63b8ff" stroke="#63b8ff" points="70.38,-132.25 67.62,-142.48 76.16,-136.2 70.38,-132.25"/>
</a>
</g>
</g>
</g>
</svg>
</svg>

<style type='text/css'>
<![CDATA[
[data-mouse-over-selected='false'] { opacity: 0.7; }
[data-mouse-over-selected='true']  { opacity: 1.0; }
]]>
</style>
<script type="application/ecmascript"><![CDATA[
document.addEventListener('DOMContentLoaded', (event) => {
  highlightEdges();
  highlightAdjacentNodes();
});
]]></script>
</svg>
