<?xml version="1.0" encoding="UTF-8" standalone="no"?>
<!DOCTYPE svg PUBLIC "-//W3C//DTD SVG 1.1//EN"
 "http://www.w3.org/Graphics/SVG/1.1/DTD/svg11.dtd">
<!-- Generated by graphviz version 2.43.0 (0)
 -->
<!-- Title: helios::scene::SnapshotItem::SnapshotItem Pages: 1 -->
<svg width="352pt" height="134pt"
 viewBox="0.00 0.00 352.00 134.00" xmlns="http://www.w3.org/2000/svg" xmlns:xlink="http://www.w3.org/1999/xlink">
<g id="graph0" class="graph" transform="scale(1 1) rotate(0) translate(4 130)">
<title>helios::scene::SnapshotItem::SnapshotItem</title>
<!-- Node1 -->
<g id="Node000001" class="node">
<title>Node1</title>
<g id="a_Node000001"><a xlink:title="Prevent copying.">
<polygon fill="#999999" stroke="#666666" points="344,-78 190,-78 190,-48 344,-48 344,-78"/>
<text text-anchor="start" x="198" y="-66" font-family="Helvetica,sans-Serif" font-size="10.00">helios::scene::SnapshotItem</text>
<text text-anchor="middle" x="267" y="-55" font-family="Helvetica,sans-Serif" font-size="10.00">::SnapshotItem</text>
</a>
</g>
</g>
<!-- Node1&#45;&gt;Node1 -->
<g id="edge2_Node000001_Node000001" class="edge">
<title>Node1&#45;&gt;Node1</title>
<g id="a_edge2_Node000001_Node000001"><a xlink:title=" ">
<path fill="none" stroke="#63b8ff" d="M300.26,-88.6C295.71,-92.97 284.63,-96 267,-96 237.31,-96 226.18,-87.41 233.6,-78.28"/>
<polygon fill="#63b8ff" stroke="#63b8ff" points="303.76,-88.32 300.4,-78.28 296.76,-88.23 303.76,-88.32"/>
</a>
</g>
</g>
<!-- Node2 -->
<g id="Node000002" class="node">
<title>Node2</title>
<g id="a_Node000002"><a xlink:href="structhelios_1_1scene_1_1SnapshotItem.html#a10f299edb3444212e2837607f7cba4b9" target="_top" xlink:title=" ">
<polygon fill="white" stroke="#666666" points="154,-126 0,-126 0,-96 154,-96 154,-126"/>
<text text-anchor="start" x="8" y="-114" font-family="Helvetica,sans-Serif" font-size="10.00">helios::scene::SnapshotItem</text>
<text text-anchor="middle" x="77" y="-103" font-family="Helvetica,sans-Serif" font-size="10.00">::operator=</text>
</a>
</g>
</g>
<!-- Node1&#45;&gt;Node2 -->
<g id="edge1_Node000001_Node000002" class="edge">
<title>Node1&#45;&gt;Node2</title>
<g id="a_edge1_Node000001_Node000002"><a xlink:title=" ">
<path fill="none" stroke="#63b8ff" d="M197.14,-80.58C177.33,-85.64 155.9,-91.11 136.76,-96"/>
<polygon fill="#63b8ff" stroke="#63b8ff" points="198.21,-83.92 207.03,-78.06 196.48,-77.14 198.21,-83.92"/>
</a>
</g>
</g>
<!-- Node3 -->
<g id="Node000003" class="node">
<title>Node3</title>
<g id="a_Node000003"><a xlink:href="structhelios_1_1scene_1_1SnapshotItem.html#a6eab653f8e9aca29ddbbf1d147df23b3" target="_top" xlink:title="Provide custom move constructor.">
<polygon fill="white" stroke="#666666" points="154,-78 0,-78 0,-48 154,-48 154,-78"/>
<text text-anchor="start" x="8" y="-66" font-family="Helvetica,sans-Serif" font-size="10.00">helios::scene::SnapshotItem</text>
<text text-anchor="middle" x="77" y="-55" font-family="Helvetica,sans-Serif" font-size="10.00">::SnapshotItem</text>
</a>
</g>
</g>
<!-- Node1&#45;&gt;Node3 -->
<g id="edge3_Node000001_Node000003" class="edge">
<title>Node1&#45;&gt;Node3</title>
<g id="a_edge3_Node000001_Node000003"><a xlink:title=" ">
<path fill="none" stroke="#63b8ff" d="M179.58,-63C171.14,-63 162.63,-63 154.3,-63"/>
<polygon fill="#63b8ff" stroke="#63b8ff" points="179.8,-66.5 189.8,-63 179.8,-59.5 179.8,-66.5"/>
</a>
</g>
</g>
<!-- Node4 -->
<g id="Node000004" class="node">
<title>Node4</title>
<g id="a_Node000004"><a xlink:href="structhelios_1_1scene_1_1SnapshotItem.html#a3d91e9c3e4e5529eb95aee6ca15c3c98" target="_top" xlink:title="Constructs a new SnapshotItem with the specified renderable and the worldMatrix.">
<polygon fill="white" stroke="#666666" points="154,-30 0,-30 0,0 154,0 154,-30"/>
<text text-anchor="start" x="8" y="-18" font-family="Helvetica,sans-Serif" font-size="10.00">helios::scene::SnapshotItem</text>
<text text-anchor="middle" x="77" y="-7" font-family="Helvetica,sans-Serif" font-size="10.00">::SnapshotItem</text>
</a>
</g>
</g>
<!-- Node1&#45;&gt;Node4 -->
<g id="edge4_Node000001_Node000004" class="edge">
<title>Node1&#45;&gt;Node4</title>
<g id="a_edge4_Node000001_Node000004"><a xlink:title=" ">
<path fill="none" stroke="#63b8ff" d="M197.14,-45.42C177.33,-40.36 155.9,-34.89 136.76,-30"/>
<polygon fill="#63b8ff" stroke="#63b8ff" points="196.48,-48.86 207.03,-47.94 198.21,-42.08 196.48,-48.86"/>
</a>
</g>
</g>
</g>
</svg>
