<?xml version="1.0" encoding="UTF-8" standalone="no"?>
<!DOCTYPE svg PUBLIC "-//W3C//DTD SVG 1.1//EN"
 "http://www.w3.org/Graphics/SVG/1.1/DTD/svg11.dtd">
<!-- Generated by graphviz version 2.43.0 (0)
 -->
<!-- Title: helios::rendering::asset::shape::Shape Pages: 1 -->
<svg width="298pt" height="372pt"
 viewBox="0.00 0.00 298.00 372.00" xmlns="http://www.w3.org/2000/svg" xmlns:xlink="http://www.w3.org/1999/xlink">

<svg id="main" version="1.1" xmlns="http://www.w3.org/2000/svg" xmlns:xlink="http://www.w3.org/1999/xlink" xml:space="preserve">

<style type="text/css"><![CDATA[
.node, .edge {opacity: 0.7;}
.node.selected, .edge.selected {opacity: 1;}
.edge:hover path { stroke: red; }
.edge:hover polygon { stroke: red; fill: red; }
]]></style>
<script type="application/ecmascript" xlink:href="svg.min.js"/>
<svg id="graph" class="graph">
<g id="graph0" class="graph" transform="scale(1 1) rotate(0) translate(4 368)">
<title>helios::rendering::asset::shape::Shape</title>
<!-- Node1 -->
<g id="Node000001" class="node">
<title>Node1</title>
<g id="a_Node000001"><a xlink:title="Struct representing geometric primitives and indices for various shapes. provides immutable,...">
<polygon fill="#999999" stroke="#666666" points="114,-196.5 0,-196.5 0,-166.5 114,-166.5 114,-196.5"/>
<text text-anchor="start" x="8" y="-184.5" font-family="Helvetica,sans-Serif" font-size="10.00">helios::rendering::</text>
<text text-anchor="middle" x="57" y="-173.5" font-family="Helvetica,sans-Serif" font-size="10.00">asset::shape::Shape</text>
</a>
</g>
</g>
<!-- Node2 -->
<g id="Node000002" class="node">
<title>Node2</title>
<g id="a_Node000002"><a xlink:href="structhelios_1_1rendering_1_1asset_1_1shape_1_1basic_1_1Circle.html" target="_top" xlink:title="Basic Circle Shape (2D, in XY plane).">
<polygon fill="white" stroke="#666666" points="275,-364 165,-364 165,-323 275,-323 275,-364"/>
<text text-anchor="start" x="173" y="-352" font-family="Helvetica,sans-Serif" font-size="10.00">helios::rendering::</text>
<text text-anchor="start" x="173" y="-341" font-family="Helvetica,sans-Serif" font-size="10.00">asset::shape::basic</text>
<text text-anchor="middle" x="220" y="-330" font-family="Helvetica,sans-Serif" font-size="10.00">::Circle</text>
</a>
</g>
</g>
<!-- Node1&#45;&gt;Node2 -->
<g id="edge1_Node000001_Node000002" class="edge">
<title>Node1&#45;&gt;Node2</title>
<g id="a_edge1_Node000001_Node000002"><a xlink:title=" ">
<path fill="none" stroke="#63b8ff" d="M69.55,-205.64C84.51,-234.68 113.11,-283.29 150,-313.5 154.55,-317.22 159.63,-320.57 164.92,-323.54"/>
<polygon fill="#63b8ff" stroke="#63b8ff" points="72.62,-203.96 65,-196.59 66.37,-207.1 72.62,-203.96"/>
</a>
</g>
</g>
<!-- Node3 -->
<g id="Node000003" class="node">
<title>Node3</title>
<g id="a_Node000003"><a xlink:href="structhelios_1_1rendering_1_1asset_1_1shape_1_1basic_1_1Cube.html" target="_top" xlink:title="Basic Cube Shape.">
<polygon fill="white" stroke="#666666" points="290,-304.5 150,-304.5 150,-274.5 290,-274.5 290,-304.5"/>
<text text-anchor="start" x="158" y="-292.5" font-family="Helvetica,sans-Serif" font-size="10.00">helios::rendering::</text>
<text text-anchor="middle" x="220" y="-281.5" font-family="Helvetica,sans-Serif" font-size="10.00">asset::shape::basic::Cube</text>
</a>
</g>
</g>
<!-- Node1&#45;&gt;Node3 -->
<g id="edge2_Node000001_Node000003" class="edge">
<title>Node1&#45;&gt;Node3</title>
<g id="a_edge2_Node000001_Node000003"><a xlink:title=" ">
<path fill="none" stroke="#63b8ff" d="M77.75,-204.05C95.16,-222.74 122.04,-248.84 150,-265.5 155.67,-268.88 161.88,-271.87 168.18,-274.5"/>
<polygon fill="#63b8ff" stroke="#63b8ff" points="80.22,-201.57 70.89,-196.55 75.05,-206.29 80.22,-201.57"/>
</a>
</g>
</g>
<!-- Node4 -->
<g id="Node000004" class="node">
<title>Node4</title>
<g id="a_Node000004"><a xlink:href="structhelios_1_1rendering_1_1asset_1_1shape_1_1basic_1_1Ellipse.html" target="_top" xlink:title="Basic Ellipse Shape (2D, in XY plane).">
<polygon fill="white" stroke="#666666" points="275,-256 165,-256 165,-215 275,-215 275,-256"/>
<text text-anchor="start" x="173" y="-244" font-family="Helvetica,sans-Serif" font-size="10.00">helios::rendering::</text>
<text text-anchor="start" x="173" y="-233" font-family="Helvetica,sans-Serif" font-size="10.00">asset::shape::basic</text>
<text text-anchor="middle" x="220" y="-222" font-family="Helvetica,sans-Serif" font-size="10.00">::Ellipse</text>
</a>
</g>
</g>
<!-- Node1&#45;&gt;Node4 -->
<g id="edge3_Node000001_Node000004" class="edge">
<title>Node1&#45;&gt;Node4</title>
<g id="a_edge3_Node000001_Node000004"><a xlink:title=" ">
<path fill="none" stroke="#63b8ff" d="M112.58,-199.81C129.48,-205.47 148.09,-211.72 164.96,-217.37"/>
<polygon fill="#63b8ff" stroke="#63b8ff" points="113.44,-196.4 102.85,-196.54 111.22,-203.04 113.44,-196.4"/>
</a>
</g>
</g>
<!-- Node5 -->
<g id="Node000005" class="node">
<title>Node5</title>
<g id="a_Node000005"><a xlink:href="structhelios_1_1rendering_1_1asset_1_1shape_1_1basic_1_1Grid.html" target="_top" xlink:title="A configurable grid shape for rendering reference lines in 3D space.">
<polygon fill="white" stroke="#666666" points="288,-196.5 152,-196.5 152,-166.5 288,-166.5 288,-196.5"/>
<text text-anchor="start" x="160" y="-184.5" font-family="Helvetica,sans-Serif" font-size="10.00">helios::rendering::</text>
<text text-anchor="middle" x="220" y="-173.5" font-family="Helvetica,sans-Serif" font-size="10.00">asset::shape::basic::Grid</text>
</a>
</g>
</g>
<!-- Node1&#45;&gt;Node5 -->
<g id="edge4_Node000001_Node000005" class="edge">
<title>Node1&#45;&gt;Node5</title>
<g id="a_edge4_Node000001_Node000005"><a xlink:title=" ">
<path fill="none" stroke="#63b8ff" d="M124.43,-181.5C133.52,-181.5 142.84,-181.5 151.94,-181.5"/>
<polygon fill="#63b8ff" stroke="#63b8ff" points="124.31,-178 114.31,-181.5 124.31,-185 124.31,-178"/>
</a>
</g>
</g>
<!-- Node6 -->
<g id="Node000006" class="node">
<title>Node6</title>
<g id="a_Node000006"><a xlink:href="structhelios_1_1rendering_1_1asset_1_1shape_1_1basic_1_1Line.html" target="_top" xlink:title="Basic Line Shape.">
<polygon fill="white" stroke="#666666" points="288,-148.5 152,-148.5 152,-118.5 288,-118.5 288,-148.5"/>
<text text-anchor="start" x="160" y="-136.5" font-family="Helvetica,sans-Serif" font-size="10.00">helios::rendering::</text>
<text text-anchor="middle" x="220" y="-125.5" font-family="Helvetica,sans-Serif" font-size="10.00">asset::shape::basic::Line</text>
</a>
</g>
</g>
<!-- Node1&#45;&gt;Node6 -->
<g id="edge5_Node000001_Node000006" class="edge">
<title>Node1&#45;&gt;Node6</title>
<g id="a_edge5_Node000001_Node000006"><a xlink:title=" ">
<path fill="none" stroke="#63b8ff" d="M118.13,-163.57C134.77,-158.61 152.66,-153.28 168.68,-148.5"/>
<polygon fill="#63b8ff" stroke="#63b8ff" points="117.08,-160.23 108.5,-166.44 119.08,-166.94 117.08,-160.23"/>
</a>
</g>
</g>
<!-- Node7 -->
<g id="Node000007" class="node">
<title>Node7</title>
<g id="a_Node000007"><a xlink:href="structhelios_1_1rendering_1_1asset_1_1shape_1_1basic_1_1Rectangle.html" target="_top" xlink:title="Basic Rectangle Shape.">
<polygon fill="white" stroke="#666666" points="275,-100 165,-100 165,-59 275,-59 275,-100"/>
<text text-anchor="start" x="173" y="-88" font-family="Helvetica,sans-Serif" font-size="10.00">helios::rendering::</text>
<text text-anchor="start" x="173" y="-77" font-family="Helvetica,sans-Serif" font-size="10.00">asset::shape::basic</text>
<text text-anchor="middle" x="220" y="-66" font-family="Helvetica,sans-Serif" font-size="10.00">::Rectangle</text>
</a>
</g>
</g>
<!-- Node1&#45;&gt;Node7 -->
<g id="edge6_Node000001_Node000007" class="edge">
<title>Node1&#45;&gt;Node7</title>
<g id="a_edge6_Node000001_Node000007"><a xlink:title=" ">
<path fill="none" stroke="#63b8ff" d="M82.34,-159.65C100.2,-144.34 125.52,-124.08 150,-109.5 155.61,-106.16 161.66,-102.98 167.77,-100.02"/>
<polygon fill="#63b8ff" stroke="#63b8ff" points="79.94,-157.1 74.68,-166.31 84.53,-162.39 79.94,-157.1"/>
</a>
</g>
</g>
<!-- Node8 -->
<g id="Node000008" class="node">
<title>Node8</title>
<g id="a_Node000008"><a xlink:href="structhelios_1_1rendering_1_1asset_1_1shape_1_1basic_1_1Triangle.html" target="_top" xlink:title="Basic Triangle Shape.">
<polygon fill="white" stroke="#666666" points="275,-41 165,-41 165,0 275,0 275,-41"/>
<text text-anchor="start" x="173" y="-29" font-family="Helvetica,sans-Serif" font-size="10.00">helios::rendering::</text>
<text text-anchor="start" x="173" y="-18" font-family="Helvetica,sans-Serif" font-size="10.00">asset::shape::basic</text>
<text text-anchor="middle" x="220" y="-7" font-family="Helvetica,sans-Serif" font-size="10.00">::Triangle</text>
</a>
</g>
</g>
<!-- Node1&#45;&gt;Node8 -->
<g id="edge7_Node000001_Node000008" class="edge">
<title>Node1&#45;&gt;Node8</title>
<g id="a_edge7_Node000001_Node000008"><a xlink:title=" ">
<path fill="none" stroke="#63b8ff" d="M69.83,-157.09C84.9,-128.22 113.43,-80.33 150,-50.5 154.55,-46.78 159.64,-43.45 164.93,-40.47"/>
<polygon fill="#63b8ff" stroke="#63b8ff" points="66.66,-155.6 65.24,-166.1 72.9,-158.78 66.66,-155.6"/>
</a>
</g>
</g>
</g>
</svg>
</svg>

<style type='text/css'>
<![CDATA[
[data-mouse-over-selected='false'] { opacity: 0.7; }
[data-mouse-over-selected='true']  { opacity: 1.0; }
]]>
</style>
<script type="application/ecmascript"><![CDATA[
document.addEventListener('DOMContentLoaded', (event) => {
  highlightEdges();
  highlightAdjacentNodes();
});
]]></script>
</svg>
