<?xml version="1.0" encoding="UTF-8" standalone="no"?>
<!DOCTYPE svg PUBLIC "-//W3C//DTD SVG 1.1//EN"
 "http://www.w3.org/Graphics/SVG/1.1/DTD/svg11.dtd">
<!-- Generated by graphviz version 2.43.0 (0)
 -->
<!-- Title: helios::rendering::asset::shape::Shape::Shape Pages: 1 -->
<svg width="284pt" height="344pt"
 viewBox="0.00 0.00 284.00 344.00" xmlns="http://www.w3.org/2000/svg" xmlns:xlink="http://www.w3.org/1999/xlink">

<svg id="main" version="1.1" xmlns="http://www.w3.org/2000/svg" xmlns:xlink="http://www.w3.org/1999/xlink" xml:space="preserve">

<style type="text/css"><![CDATA[
.node, .edge {opacity: 0.7;}
.node.selected, .edge.selected {opacity: 1;}
.edge:hover path { stroke: red; }
.edge:hover polygon { stroke: red; fill: red; }
]]></style>
<script type="application/ecmascript" xlink:href="svg.min.js"/>
<svg id="graph" class="graph">
<g id="graph0" class="graph" transform="scale(1 1) rotate(0) translate(4 340)">
<title>helios::rendering::asset::shape::Shape::Shape</title>
<!-- Node1 -->
<g id="Node000001" class="node">
<title>Node1</title>
<g id="a_Node000001"><a xlink:title="Creates a new shape from the given vertices and indices. The data is copied into immutable shared vec...">
<polygon fill="#999999" stroke="#666666" points="276,-188 162,-188 162,-147 276,-147 276,-188"/>
<text text-anchor="start" x="170" y="-176" font-family="Helvetica,sans-Serif" font-size="10.00">helios::rendering::</text>
<text text-anchor="start" x="170" y="-165" font-family="Helvetica,sans-Serif" font-size="10.00">asset::shape::Shape</text>
<text text-anchor="middle" x="219" y="-154" font-family="Helvetica,sans-Serif" font-size="10.00">::Shape</text>
</a>
</g>
</g>
<!-- Node2 -->
<g id="Node000002" class="node">
<title>Node2</title>
<g id="a_Node000002"><a xlink:href="structhelios_1_1rendering_1_1asset_1_1shape_1_1basic_1_1Circle.html#a7216e5fe912fe498b88884e55966be91" target="_top" xlink:title="Creates a circle with a specific radius and segment count.">
<polygon fill="white" stroke="#666666" points="118,-336 8,-336 8,-295 118,-295 118,-336"/>
<text text-anchor="start" x="16" y="-324" font-family="Helvetica,sans-Serif" font-size="10.00">helios::rendering::</text>
<text text-anchor="start" x="16" y="-313" font-family="Helvetica,sans-Serif" font-size="10.00">asset::shape::basic</text>
<text text-anchor="middle" x="63" y="-302" font-family="Helvetica,sans-Serif" font-size="10.00">::Circle::Circle</text>
</a>
</g>
</g>
<!-- Node1&#45;&gt;Node2 -->
<g id="edge1_Node000001_Node000002" class="edge">
<title>Node1&#45;&gt;Node2</title>
<g id="a_edge1_Node000001_Node000002"><a xlink:title=" ">
<path fill="none" stroke="#63b8ff" d="M201.02,-196.77C184.57,-223.04 157.55,-261.24 126,-286.5 122.2,-289.54 118.02,-292.36 113.69,-294.94"/>
<polygon fill="#63b8ff" stroke="#63b8ff" points="204.14,-198.37 206.38,-188.01 198.17,-194.71 204.14,-198.37"/>
</a>
</g>
</g>
<!-- Node3 -->
<g id="Node000003" class="node">
<title>Node3</title>
<g id="a_Node000003"><a xlink:href="structhelios_1_1rendering_1_1asset_1_1shape_1_1basic_1_1Cube.html#a298bea767099a4c310ab7108024f848e" target="_top" xlink:title=" ">
<polygon fill="white" stroke="#666666" points="118,-277 8,-277 8,-236 118,-236 118,-277"/>
<text text-anchor="start" x="16" y="-265" font-family="Helvetica,sans-Serif" font-size="10.00">helios::rendering::</text>
<text text-anchor="start" x="16" y="-254" font-family="Helvetica,sans-Serif" font-size="10.00">asset::shape::basic</text>
<text text-anchor="middle" x="63" y="-243" font-family="Helvetica,sans-Serif" font-size="10.00">::Cube::Cube</text>
</a>
</g>
</g>
<!-- Node1&#45;&gt;Node3 -->
<g id="edge2_Node000001_Node000003" class="edge">
<title>Node1&#45;&gt;Node3</title>
<g id="a_edge2_Node000001_Node000003"><a xlink:title=" ">
<path fill="none" stroke="#63b8ff" d="M180.11,-193.93C163.78,-204.86 144.28,-217.33 126,-227.5 120.81,-230.39 115.28,-233.26 109.74,-236"/>
<polygon fill="#63b8ff" stroke="#63b8ff" points="182.5,-196.54 188.82,-188.04 178.58,-190.74 182.5,-196.54"/>
</a>
</g>
</g>
<!-- Node4 -->
<g id="Node000004" class="node">
<title>Node4</title>
<g id="a_Node000004"><a xlink:href="structhelios_1_1rendering_1_1asset_1_1shape_1_1basic_1_1Ellipse.html#a0a00d877402b4a268fff6d4321c40c02" target="_top" xlink:title="Creates an ellipse with specific radii and segment count.">
<polygon fill="white" stroke="#666666" points="118,-218 8,-218 8,-177 118,-177 118,-218"/>
<text text-anchor="start" x="16" y="-206" font-family="Helvetica,sans-Serif" font-size="10.00">helios::rendering::</text>
<text text-anchor="start" x="16" y="-195" font-family="Helvetica,sans-Serif" font-size="10.00">asset::shape::basic</text>
<text text-anchor="middle" x="63" y="-184" font-family="Helvetica,sans-Serif" font-size="10.00">::Ellipse::Ellipse</text>
</a>
</g>
</g>
<!-- Node1&#45;&gt;Node4 -->
<g id="edge3_Node000001_Node000004" class="edge">
<title>Node1&#45;&gt;Node4</title>
<g id="a_edge3_Node000001_Node000004"><a xlink:title=" ">
<path fill="none" stroke="#63b8ff" d="M152.13,-180.33C140.81,-182.54 129.16,-184.81 118.19,-186.94"/>
<polygon fill="#63b8ff" stroke="#63b8ff" points="152.82,-183.76 161.97,-178.42 151.48,-176.89 152.82,-183.76"/>
</a>
</g>
</g>
<!-- Node5 -->
<g id="Node000005" class="node">
<title>Node5</title>
<g id="a_Node000005"><a xlink:href="structhelios_1_1rendering_1_1asset_1_1shape_1_1basic_1_1Line.html#a427210e20dc07acf0a3d765892d66074" target="_top" xlink:title=" ">
<polygon fill="white" stroke="#666666" points="118,-159 8,-159 8,-118 118,-118 118,-159"/>
<text text-anchor="start" x="16" y="-147" font-family="Helvetica,sans-Serif" font-size="10.00">helios::rendering::</text>
<text text-anchor="start" x="16" y="-136" font-family="Helvetica,sans-Serif" font-size="10.00">asset::shape::basic</text>
<text text-anchor="middle" x="63" y="-125" font-family="Helvetica,sans-Serif" font-size="10.00">::Line::Line</text>
</a>
</g>
</g>
<!-- Node1&#45;&gt;Node5 -->
<g id="edge4_Node000001_Node000005" class="edge">
<title>Node1&#45;&gt;Node5</title>
<g id="a_edge4_Node000001_Node000005"><a xlink:title=" ">
<path fill="none" stroke="#63b8ff" d="M152.13,-155.1C140.81,-152.96 129.16,-150.77 118.19,-148.7"/>
<polygon fill="#63b8ff" stroke="#63b8ff" points="151.49,-158.54 161.97,-156.95 152.79,-151.66 151.49,-158.54"/>
</a>
</g>
</g>
<!-- Node6 -->
<g id="Node000006" class="node">
<title>Node6</title>
<g id="a_Node000006"><a xlink:href="structhelios_1_1rendering_1_1asset_1_1shape_1_1basic_1_1Rectangle.html#a107d9bec5afd9fdf6e99ca68deee8f7f" target="_top" xlink:title=" ">
<polygon fill="white" stroke="#666666" points="126,-100 0,-100 0,-59 126,-59 126,-100"/>
<text text-anchor="start" x="8" y="-88" font-family="Helvetica,sans-Serif" font-size="10.00">helios::rendering::</text>
<text text-anchor="start" x="8" y="-77" font-family="Helvetica,sans-Serif" font-size="10.00">asset::shape::basic</text>
<text text-anchor="middle" x="63" y="-66" font-family="Helvetica,sans-Serif" font-size="10.00">::Rectangle::Rectangle</text>
</a>
</g>
</g>
<!-- Node1&#45;&gt;Node6 -->
<g id="edge5_Node000001_Node000006" class="edge">
<title>Node1&#45;&gt;Node6</title>
<g id="a_edge5_Node000001_Node000006"><a xlink:title=" ">
<path fill="none" stroke="#63b8ff" d="M178.42,-141.19C162.39,-130.89 143.55,-119.24 126,-109.5 120.25,-106.31 114.11,-103.1 108.01,-100.04"/>
<polygon fill="#63b8ff" stroke="#63b8ff" points="176.72,-144.25 187.02,-146.75 180.52,-138.38 176.72,-144.25"/>
</a>
</g>
</g>
<!-- Node7 -->
<g id="Node000007" class="node">
<title>Node7</title>
<g id="a_Node000007"><a xlink:href="structhelios_1_1rendering_1_1asset_1_1shape_1_1basic_1_1Triangle.html#acfd0d45878444edb071fb66cd8d0ee1d" target="_top" xlink:title=" ">
<polygon fill="white" stroke="#666666" points="118,-41 8,-41 8,0 118,0 118,-41"/>
<text text-anchor="start" x="16" y="-29" font-family="Helvetica,sans-Serif" font-size="10.00">helios::rendering::</text>
<text text-anchor="start" x="16" y="-18" font-family="Helvetica,sans-Serif" font-size="10.00">asset::shape::basic</text>
<text text-anchor="middle" x="63" y="-7" font-family="Helvetica,sans-Serif" font-size="10.00">::Triangle::Triangle</text>
</a>
</g>
</g>
<!-- Node1&#45;&gt;Node7 -->
<g id="edge6_Node000001_Node000007" class="edge">
<title>Node1&#45;&gt;Node7</title>
<g id="a_edge6_Node000001_Node000007"><a xlink:title=" ">
<path fill="none" stroke="#63b8ff" d="M200.54,-138.39C183.95,-112.65 156.98,-75.42 126,-50.5 121.81,-47.13 117.17,-44.01 112.38,-41.17"/>
<polygon fill="#63b8ff" stroke="#63b8ff" points="197.67,-140.39 205.97,-146.98 203.59,-136.65 197.67,-140.39"/>
</a>
</g>
</g>
</g>
</svg>
</svg>

<style type='text/css'>
<![CDATA[
[data-mouse-over-selected='false'] { opacity: 0.7; }
[data-mouse-over-selected='true']  { opacity: 1.0; }
]]>
</style>
<script type="application/ecmascript"><![CDATA[
document.addEventListener('DOMContentLoaded', (event) => {
  highlightEdges();
  highlightAdjacentNodes();
});
]]></script>
</svg>
