<?xml version="1.0" encoding="UTF-8" standalone="no"?>
<!DOCTYPE svg PUBLIC "-//W3C//DTD SVG 1.1//EN"
 "http://www.w3.org/Graphics/SVG/1.1/DTD/svg11.dtd">
<!-- Generated by graphviz version 2.43.0 (0)
 -->
<!-- Title: helios::rendering::asset::shape::Shape Pages: 1 -->
<svg width="298pt" height="205pt"
 viewBox="0.00 0.00 298.00 205.00" xmlns="http://www.w3.org/2000/svg" xmlns:xlink="http://www.w3.org/1999/xlink">

<svg id="main" version="1.1" xmlns="http://www.w3.org/2000/svg" xmlns:xlink="http://www.w3.org/1999/xlink" xml:space="preserve">

<style type="text/css"><![CDATA[
.node, .edge {opacity: 0.7;}
.node.selected, .edge.selected {opacity: 1;}
.edge:hover path { stroke: red; }
.edge:hover polygon { stroke: red; fill: red; }
]]></style>
<script type="application/ecmascript" xlink:href="svg.min.js"/>
<svg id="graph" class="graph">
<g id="graph0" class="graph" transform="scale(1 1) rotate(0) translate(4 201)">
<title>helios::rendering::asset::shape::Shape</title>
<!-- Node1 -->
<g id="Node000001" class="node">
<title>Node1</title>
<g id="a_Node000001"><a xlink:title="Struct representing geometric primitives and indices for various shapes. provides immutable,...">
<polygon fill="#999999" stroke="#666666" points="114,-113.5 0,-113.5 0,-83.5 114,-83.5 114,-113.5"/>
<text text-anchor="start" x="8" y="-101.5" font-family="Helvetica,sans-Serif" font-size="10.00">helios::rendering::</text>
<text text-anchor="middle" x="57" y="-90.5" font-family="Helvetica,sans-Serif" font-size="10.00">asset::shape::Shape</text>
</a>
</g>
</g>
<!-- Node2 -->
<g id="Node000002" class="node">
<title>Node2</title>
<g id="a_Node000002"><a xlink:href="structhelios_1_1rendering_1_1asset_1_1shape_1_1basic_1_1Circle.html" target="_top" xlink:title="Basic Circle Shape (2D, in XY plane).">
<polygon fill="white" stroke="#666666" points="275,-197 165,-197 165,-156 275,-156 275,-197"/>
<text text-anchor="start" x="173" y="-185" font-family="Helvetica,sans-Serif" font-size="10.00">helios::rendering::</text>
<text text-anchor="start" x="173" y="-174" font-family="Helvetica,sans-Serif" font-size="10.00">asset::shape::basic</text>
<text text-anchor="middle" x="220" y="-163" font-family="Helvetica,sans-Serif" font-size="10.00">::Circle</text>
</a>
</g>
</g>
<!-- Node1&#45;&gt;Node2 -->
<g id="edge1_Node000001_Node000002" class="edge">
<title>Node1&#45;&gt;Node2</title>
<g id="a_edge1_Node000001_Node000002"><a xlink:title=" ">
<path fill="none" stroke="#63b8ff" d="M94.45,-118.27C111.23,-127.18 131.48,-137.66 150,-146.5 156.6,-149.65 163.62,-152.86 170.55,-155.95"/>
<polygon fill="#63b8ff" stroke="#63b8ff" points="95.99,-115.13 85.52,-113.51 92.7,-121.31 95.99,-115.13"/>
</a>
</g>
</g>
<!-- Node3 -->
<g id="Node000003" class="node">
<title>Node3</title>
<g id="a_Node000003"><a xlink:href="structhelios_1_1rendering_1_1asset_1_1shape_1_1basic_1_1Cube.html" target="_top" xlink:title="Basic Cube Shape.">
<polygon fill="white" stroke="#666666" points="290,-137.5 150,-137.5 150,-107.5 290,-107.5 290,-137.5"/>
<text text-anchor="start" x="158" y="-125.5" font-family="Helvetica,sans-Serif" font-size="10.00">helios::rendering::</text>
<text text-anchor="middle" x="220" y="-114.5" font-family="Helvetica,sans-Serif" font-size="10.00">asset::shape::basic::Cube</text>
</a>
</g>
</g>
<!-- Node1&#45;&gt;Node3 -->
<g id="edge2_Node000001_Node000003" class="edge">
<title>Node1&#45;&gt;Node3</title>
<g id="a_edge2_Node000001_Node000003"><a xlink:title=" ">
<path fill="none" stroke="#63b8ff" d="M124.45,-108.41C132.88,-109.66 141.51,-110.95 149.97,-112.21"/>
<polygon fill="#63b8ff" stroke="#63b8ff" points="124.72,-104.91 114.31,-106.89 123.68,-111.83 124.72,-104.91"/>
</a>
</g>
</g>
<!-- Node4 -->
<g id="Node000004" class="node">
<title>Node4</title>
<g id="a_Node000004"><a xlink:href="structhelios_1_1rendering_1_1asset_1_1shape_1_1basic_1_1Line.html" target="_top" xlink:title="Basic Line Shape.">
<polygon fill="white" stroke="#666666" points="288,-89.5 152,-89.5 152,-59.5 288,-59.5 288,-89.5"/>
<text text-anchor="start" x="160" y="-77.5" font-family="Helvetica,sans-Serif" font-size="10.00">helios::rendering::</text>
<text text-anchor="middle" x="220" y="-66.5" font-family="Helvetica,sans-Serif" font-size="10.00">asset::shape::basic::Line</text>
</a>
</g>
</g>
<!-- Node1&#45;&gt;Node4 -->
<g id="edge3_Node000001_Node000004" class="edge">
<title>Node1&#45;&gt;Node4</title>
<g id="a_edge3_Node000001_Node000004"><a xlink:title=" ">
<path fill="none" stroke="#63b8ff" d="M124.43,-88.6C133.52,-87.24 142.84,-85.85 151.94,-84.5"/>
<polygon fill="#63b8ff" stroke="#63b8ff" points="123.68,-85.17 114.31,-90.11 124.72,-92.09 123.68,-85.17"/>
</a>
</g>
</g>
<!-- Node5 -->
<g id="Node000005" class="node">
<title>Node5</title>
<g id="a_Node000005"><a xlink:href="structhelios_1_1rendering_1_1asset_1_1shape_1_1basic_1_1Rectangle.html" target="_top" xlink:title="Basic Rectangle Shape.">
<polygon fill="white" stroke="#666666" points="275,-41 165,-41 165,0 275,0 275,-41"/>
<text text-anchor="start" x="173" y="-29" font-family="Helvetica,sans-Serif" font-size="10.00">helios::rendering::</text>
<text text-anchor="start" x="173" y="-18" font-family="Helvetica,sans-Serif" font-size="10.00">asset::shape::basic</text>
<text text-anchor="middle" x="220" y="-7" font-family="Helvetica,sans-Serif" font-size="10.00">::Rectangle</text>
</a>
</g>
</g>
<!-- Node1&#45;&gt;Node5 -->
<g id="edge4_Node000001_Node000005" class="edge">
<title>Node1&#45;&gt;Node5</title>
<g id="a_edge4_Node000001_Node000005"><a xlink:title=" ">
<path fill="none" stroke="#63b8ff" d="M94.45,-78.73C111.23,-69.82 131.48,-59.34 150,-50.5 156.6,-47.35 163.62,-44.14 170.55,-41.05"/>
<polygon fill="#63b8ff" stroke="#63b8ff" points="92.7,-75.69 85.52,-83.49 95.99,-81.87 92.7,-75.69"/>
</a>
</g>
</g>
</g>
</svg>
</svg>

<style type='text/css'>
<![CDATA[
[data-mouse-over-selected='false'] { opacity: 0.7; }
[data-mouse-over-selected='true']  { opacity: 1.0; }
]]>
</style>
<script type="application/ecmascript"><![CDATA[
document.addEventListener('DOMContentLoaded', (event) => {
  highlightEdges();
  highlightAdjacentNodes();
});
]]></script>
</svg>
