<?xml version="1.0" encoding="UTF-8" standalone="no"?>
<!DOCTYPE svg PUBLIC "-//W3C//DTD SVG 1.1//EN"
 "http://www.w3.org/Graphics/SVG/1.1/DTD/svg11.dtd">
<!-- Generated by graphviz version 2.43.0 (0)
 -->
<!-- Title: helios::scene::SnapshotItem::renderable Pages: 1 -->
<svg width="352pt" height="56pt"
 viewBox="0.00 0.00 352.00 56.00" xmlns="http://www.w3.org/2000/svg" xmlns:xlink="http://www.w3.org/1999/xlink">
<g id="graph0" class="graph" transform="scale(1 1) rotate(0) translate(4 52)">
<title>helios::scene::SnapshotItem::renderable</title>
<!-- Node1 -->
<g id="Node000001" class="node">
<title>Node1</title>
<g id="a_Node000001"><a xlink:title="Returns a weak_ptr to the Renderable of this SnapshotItem. Use `.lock()` on the returned weak_ptr to ...">
<polygon fill="#999999" stroke="#666666" points="344,-30 190,-30 190,0 344,0 344,-30"/>
<text text-anchor="start" x="198" y="-18" font-family="Helvetica,sans-Serif" font-size="10.00">helios::scene::SnapshotItem</text>
<text text-anchor="middle" x="267" y="-7" font-family="Helvetica,sans-Serif" font-size="10.00">::renderable</text>
</a>
</g>
</g>
<!-- Node1&#45;&gt;Node1 -->
<g id="edge1_Node000001_Node000001" class="edge">
<title>Node1&#45;&gt;Node1</title>
<g id="a_edge1_Node000001_Node000001"><a xlink:title=" ">
<path fill="none" stroke="#63b8ff" d="M300.26,-40.6C295.71,-44.97 284.63,-48 267,-48 237.31,-48 226.18,-39.41 233.6,-30.28"/>
<polygon fill="#63b8ff" stroke="#63b8ff" points="303.76,-40.32 300.4,-30.28 296.76,-40.23 303.76,-40.32"/>
</a>
</g>
</g>
<!-- Node2 -->
<g id="Node000002" class="node">
<title>Node2</title>
<g id="a_Node000002"><a xlink:href="structhelios_1_1scene_1_1SnapshotItem.html#a3d91e9c3e4e5529eb95aee6ca15c3c98" target="_top" xlink:title="Constructs a new SnapshotItem with the specified renderable and the worldMatrix.">
<polygon fill="white" stroke="#666666" points="154,-30 0,-30 0,0 154,0 154,-30"/>
<text text-anchor="start" x="8" y="-18" font-family="Helvetica,sans-Serif" font-size="10.00">helios::scene::SnapshotItem</text>
<text text-anchor="middle" x="77" y="-7" font-family="Helvetica,sans-Serif" font-size="10.00">::SnapshotItem</text>
</a>
</g>
</g>
<!-- Node1&#45;&gt;Node2 -->
<g id="edge2_Node000001_Node000002" class="edge">
<title>Node1&#45;&gt;Node2</title>
<g id="a_edge2_Node000001_Node000002"><a xlink:title=" ">
<path fill="none" stroke="#63b8ff" d="M179.58,-15C171.14,-15 162.63,-15 154.3,-15"/>
<polygon fill="#63b8ff" stroke="#63b8ff" points="179.8,-18.5 189.8,-15 179.8,-11.5 179.8,-18.5"/>
</a>
</g>
</g>
</g>
</svg>
