<?xml version="1.0" encoding="UTF-8" standalone="no"?>
<!DOCTYPE svg PUBLIC "-//W3C//DTD SVG 1.1//EN"
 "http://www.w3.org/Graphics/SVG/1.1/DTD/svg11.dtd">
<!-- Generated by graphviz version 2.43.0 (0)
 -->
<!-- Title: helios::engine::game::UpdateContext::UpdateContext Pages: 1 -->
<svg width="407pt" height="86pt"
 viewBox="0.00 0.00 407.00 86.00" xmlns="http://www.w3.org/2000/svg" xmlns:xlink="http://www.w3.org/1999/xlink">
<g id="graph0" class="graph" transform="scale(1 1) rotate(0) translate(4 82)">
<title>helios::engine::game::UpdateContext::UpdateContext</title>
<!-- Node1 -->
<g id="Node000001" class="node">
<title>Node1</title>
<g id="a_Node000001"><a xlink:title="Constructs an UpdateContext with required dependencies.">
<polygon fill="#999999" stroke="#666666" points="399,-54 223,-54 223,-24 399,-24 399,-54"/>
<text text-anchor="start" x="231" y="-42" font-family="Helvetica,sans-Serif" font-size="10.00">helios::engine::game</text>
<text text-anchor="middle" x="311" y="-31" font-family="Helvetica,sans-Serif" font-size="10.00">::UpdateContext::UpdateContext</text>
</a>
</g>
</g>
<!-- Node2 -->
<g id="Node000002" class="node">
<title>Node2</title>
<g id="a_Node000002"><a xlink:href="structhelios_1_1engine_1_1game_1_1UpdateContext.html#a0b42a27336552776221f1c260d5abdd2" target="_top" xlink:title="Sets the time elapsed since the last frame.">
<polygon fill="white" stroke="#666666" points="177.5,-78 9.5,-78 9.5,-48 177.5,-48 177.5,-78"/>
<text text-anchor="start" x="17.5" y="-66" font-family="Helvetica,sans-Serif" font-size="10.00">helios::engine::game</text>
<text text-anchor="middle" x="93.5" y="-55" font-family="Helvetica,sans-Serif" font-size="10.00">::UpdateContext::setDeltaTime</text>
</a>
</g>
</g>
<!-- Node1&#45;&gt;Node2 -->
<g id="edge1_Node000001_Node000002" class="edge">
<title>Node1&#45;&gt;Node2</title>
<g id="a_edge1_Node000001_Node000002"><a xlink:title=" ">
<path fill="none" stroke="#63b8ff" d="M212.74,-49.83C201.02,-51.14 189.15,-52.46 177.66,-53.74"/>
<polygon fill="#63b8ff" stroke="#63b8ff" points="213.42,-53.28 222.97,-48.69 212.64,-46.32 213.42,-53.28"/>
</a>
</g>
</g>
<!-- Node3 -->
<g id="Node000003" class="node">
<title>Node3</title>
<g id="a_Node000003"><a xlink:href="structhelios_1_1engine_1_1game_1_1UpdateContext.html#ad7d1812f2b80a365d37df32228f85ecd" target="_top" xlink:title="Sets the input snapshot for this frame.">
<polygon fill="white" stroke="#666666" points="187,-30 0,-30 0,0 187,0 187,-30"/>
<text text-anchor="start" x="8" y="-18" font-family="Helvetica,sans-Serif" font-size="10.00">helios::engine::game</text>
<text text-anchor="middle" x="93.5" y="-7" font-family="Helvetica,sans-Serif" font-size="10.00">::UpdateContext::setInputSnapshot</text>
</a>
</g>
</g>
<!-- Node1&#45;&gt;Node3 -->
<g id="edge2_Node000001_Node000003" class="edge">
<title>Node1&#45;&gt;Node3</title>
<g id="a_edge2_Node000001_Node000003"><a xlink:title=" ">
<path fill="none" stroke="#63b8ff" d="M212.95,-28.19C204.36,-27.24 195.68,-26.27 187.14,-25.32"/>
<polygon fill="#63b8ff" stroke="#63b8ff" points="212.64,-31.68 222.97,-29.31 213.42,-24.72 212.64,-31.68"/>
</a>
</g>
</g>
</g>
</svg>
