<?xml version="1.0" encoding="UTF-8" standalone="no"?>
<!DOCTYPE svg PUBLIC "-//W3C//DTD SVG 1.1//EN"
 "http://www.w3.org/Graphics/SVG/1.1/DTD/svg11.dtd">
<!-- Generated by graphviz version 2.43.0 (0)
 -->
<!-- Title: helios::math::vec2::length Pages: 1 -->
<svg width="304pt" height="98pt"
 viewBox="0.00 0.00 304.00 97.50" xmlns="http://www.w3.org/2000/svg" xmlns:xlink="http://www.w3.org/1999/xlink">
<g id="graph0" class="graph" transform="scale(1 1) rotate(0) translate(4 93.5)">
<title>helios::math::vec2::length</title>
<!-- Node1 -->
<g id="Node000001" class="node">
<title>Node1</title>
<g id="a_Node000001"><a xlink:title="Returns the magnitude of this vec2&lt;T&gt;.">
<polygon fill="#999999" stroke="#666666" points="296,-57 189,-57 189,-27 296,-27 296,-57"/>
<text text-anchor="start" x="197" y="-45" font-family="Helvetica,sans-Serif" font-size="10.00">helios::math::vec2</text>
<text text-anchor="middle" x="242.5" y="-34" font-family="Helvetica,sans-Serif" font-size="10.00">::length</text>
</a>
</g>
</g>
<!-- Node2 -->
<g id="Node000002" class="node">
<title>Node2</title>
<g id="a_Node000002"><a xlink:href="classhelios_1_1engine_1_1game_1_1components_1_1physics_1_1Move2DComponent.html#aca8a4ccdd4bdedc05bb52c2b931cfc7a" target="_top" xlink:title="Sets the movement direction and throttle.">
<polygon fill="white" stroke="#666666" points="153,-89.5 0,-89.5 0,-48.5 153,-48.5 153,-89.5"/>
<text text-anchor="start" x="8" y="-77.5" font-family="Helvetica,sans-Serif" font-size="10.00">helios::engine::game</text>
<text text-anchor="start" x="8" y="-66.5" font-family="Helvetica,sans-Serif" font-size="10.00">::components::physics</text>
<text text-anchor="middle" x="76.5" y="-55.5" font-family="Helvetica,sans-Serif" font-size="10.00">::Move2DComponent::move</text>
</a>
</g>
</g>
<!-- Node1&#45;&gt;Node2 -->
<g id="edge1_Node000001_Node000002" class="edge">
<title>Node1&#45;&gt;Node2</title>
<g id="a_edge1_Node000001_Node000002"><a xlink:title=" ">
<path fill="none" stroke="#63b8ff" d="M178.69,-52.34C170.35,-53.71 161.72,-55.13 153.19,-56.54"/>
<polygon fill="#63b8ff" stroke="#63b8ff" points="179.41,-55.77 188.71,-50.69 178.27,-48.86 179.41,-55.77"/>
</a>
</g>
</g>
<!-- Node3 -->
<g id="Node000003" class="node">
<title>Node3</title>
<g id="a_Node000003"><a xlink:href="structhelios_1_1math_1_1vec2.html#a4f47bd1a12c6a4461761f26ffabfb439" target="_top" xlink:title=" ">
<polygon fill="white" stroke="#666666" points="134.5,-30 18.5,-30 18.5,0 134.5,0 134.5,-30"/>
<text text-anchor="start" x="26.5" y="-18" font-family="Helvetica,sans-Serif" font-size="10.00">helios::math::vec2</text>
<text text-anchor="middle" x="76.5" y="-7" font-family="Helvetica,sans-Serif" font-size="10.00">&lt; float &gt;::normalize</text>
</a>
</g>
</g>
<!-- Node1&#45;&gt;Node3 -->
<g id="edge2_Node000001_Node000003" class="edge">
<title>Node1&#45;&gt;Node3</title>
<g id="a_edge2_Node000001_Node000003"><a xlink:title=" ">
<path fill="none" stroke="#63b8ff" d="M178.83,-31.68C164.33,-29.3 148.98,-26.77 134.73,-24.42"/>
<polygon fill="#63b8ff" stroke="#63b8ff" points="178.27,-35.14 188.71,-33.31 179.41,-28.23 178.27,-35.14"/>
</a>
</g>
</g>
</g>
</svg>
