<?xml version="1.0" encoding="UTF-8" standalone="no"?>
<!DOCTYPE svg PUBLIC "-//W3C//DTD SVG 1.1//EN"
 "http://www.w3.org/Graphics/SVG/1.1/DTD/svg11.dtd">
<!-- Generated by graphviz version 2.43.0 (0)
 -->
<!-- Title: helios::engine::game::systems::gameplay::ProjectilePoolSystem::ProjectileObject Pages: 1 -->
<svg width="210pt" height="204pt"
 viewBox="0.00 0.00 210.00 204.00" xmlns="http://www.w3.org/2000/svg" xmlns:xlink="http://www.w3.org/1999/xlink">
<g id="graph0" class="graph" transform="scale(1 1) rotate(0) translate(4 200)">
<title>helios::engine::game::systems::gameplay::ProjectilePoolSystem::ProjectileObject</title>
<!-- Node1 -->
<g id="Node000001" class="node">
<title>Node1</title>
<g id="a_Node000001"><a xlink:title="Internal representation of an active projectile.">
<polygon fill="#999999" stroke="#666666" points="133.5,-52 7.5,-52 7.5,0 133.5,0 133.5,-52"/>
<text text-anchor="start" x="15.5" y="-40" font-family="Helvetica,sans-Serif" font-size="10.00">helios::engine::game</text>
<text text-anchor="start" x="15.5" y="-29" font-family="Helvetica,sans-Serif" font-size="10.00">::systems::gameplay::</text>
<text text-anchor="start" x="15.5" y="-18" font-family="Helvetica,sans-Serif" font-size="10.00">ProjectilePoolSystem::</text>
<text text-anchor="middle" x="70.5" y="-7" font-family="Helvetica,sans-Serif" font-size="10.00">ProjectileObject</text>
</a>
</g>
</g>
<!-- Node2 -->
<g id="Node000002" class="node">
<title>Node2</title>
<g id="a_Node000002"><a xlink:href="classhelios_1_1scene_1_1SceneNode.html" target="_top" xlink:title="Represents a SceneNode within a SceneGraph.">
<polygon fill="white" stroke="#666666" points="141,-124 0,-124 0,-105 141,-105 141,-124"/>
<text text-anchor="middle" x="70.5" y="-112" font-family="Helvetica,sans-Serif" font-size="10.00">helios::scene::SceneNode</text>
</a>
</g>
</g>
<!-- Node2&#45;&gt;Node1 -->
<g id="edge1_Node000001_Node000002" class="edge">
<title>Node2&#45;&gt;Node1</title>
<g id="a_edge1_Node000001_Node000002"><a xlink:title=" ">
<path fill="none" stroke="#9a32cd" stroke-dasharray="5,2" d="M70.5,-94.82C70.5,-82.41 70.5,-65.95 70.5,-52.36"/>
<polygon fill="#9a32cd" stroke="#9a32cd" points="67,-94.89 70.5,-104.89 74,-94.89 67,-94.89"/>
</a>
</g>
<text text-anchor="start" x="74" y="-75.5" font-family="Helvetica,sans-Serif" font-size="10.00" fill="grey">projectileNodePtr</text>
</g>
<!-- Node2&#45;&gt;Node2 -->
<g id="edge2_Node000002_Node000002" class="edge">
<title>Node2&#45;&gt;Node2</title>
<g id="a_edge2_Node000002_Node000002"><a xlink:title=" ">
<path fill="none" stroke="#9a32cd" stroke-dasharray="5,2" d="M151.55,-119.09C156.21,-117.99 159,-116.46 159,-114.5 159,-111.37 151.87,-109.33 141.33,-108.38"/>
<polygon fill="#9a32cd" stroke="#9a32cd" points="150.7,-115.68 141.33,-120.62 151.73,-122.6 150.7,-115.68"/>
</a>
</g>
<text text-anchor="start" x="162.5" y="-111.5" font-family="Helvetica,sans-Serif" font-size="10.00" fill="grey">parent_</text>
</g>
<!-- Node3 -->
<g id="Node000003" class="node">
<title>Node3</title>
<g id="a_Node000003"><a xlink:href="classhelios_1_1core_1_1Transform.html" target="_top" xlink:title="Represents a 3D transformation consisting of translation, rotation and scale.">
<polygon fill="white" stroke="#666666" points="134.5,-196 6.5,-196 6.5,-177 134.5,-177 134.5,-196"/>
<text text-anchor="middle" x="70.5" y="-184" font-family="Helvetica,sans-Serif" font-size="10.00">helios::core::Transform</text>
</a>
</g>
</g>
<!-- Node3&#45;&gt;Node2 -->
<g id="edge3_Node000002_Node000003" class="edge">
<title>Node3&#45;&gt;Node2</title>
<g id="a_edge3_Node000002_Node000003"><a xlink:title=" ">
<path fill="none" stroke="#9a32cd" stroke-dasharray="5,2" d="M70.5,-166.58C70.5,-152.76 70.5,-134.68 70.5,-124.15"/>
<polygon fill="#9a32cd" stroke="#9a32cd" points="67,-166.92 70.5,-176.92 74,-166.92 67,-166.92"/>
</a>
</g>
<text text-anchor="start" x="73.5" y="-147.5" font-family="Helvetica,sans-Serif" font-size="10.00" fill="grey">localTransform_</text>
</g>
</g>
</svg>
