<?xml version="1.0" encoding="UTF-8" standalone="no"?>
<!DOCTYPE svg PUBLIC "-//W3C//DTD SVG 1.1//EN"
 "http://www.w3.org/Graphics/SVG/1.1/DTD/svg11.dtd">
<!-- Generated by graphviz version 2.43.0 (0)
 -->
<!-- Title: helios::engine::game::UpdateContext::setInputSnapshot Pages: 1 -->
<svg width="623pt" height="86pt"
 viewBox="0.00 0.00 623.00 86.00" xmlns="http://www.w3.org/2000/svg" xmlns:xlink="http://www.w3.org/1999/xlink">
<g id="graph0" class="graph" transform="scale(1 1) rotate(0) translate(4 82)">
<title>helios::engine::game::UpdateContext::setInputSnapshot</title>
<!-- Node1 -->
<g id="Node000001" class="node">
<title>Node1</title>
<g id="a_Node000001"><a xlink:title="Sets the input snapshot for this frame.">
<polygon fill="#999999" stroke="#666666" points="187,-54 0,-54 0,-24 187,-24 187,-54"/>
<text text-anchor="start" x="8" y="-42" font-family="Helvetica,sans-Serif" font-size="10.00">helios::engine::game</text>
<text text-anchor="middle" x="93.5" y="-31" font-family="Helvetica,sans-Serif" font-size="10.00">::UpdateContext::setInputSnapshot</text>
</a>
</g>
</g>
<!-- Node2 -->
<g id="Node000002" class="node">
<title>Node2</title>
<g id="a_Node000002"><a xlink:href="structhelios_1_1engine_1_1game_1_1UpdateContext.html#a2144af14fa3ae62f75de20cfb4eea5a6" target="_top" xlink:title="Constructs an UpdateContext with required dependencies.">
<polygon fill="white" stroke="#666666" points="399,-54 223,-54 223,-24 399,-24 399,-54"/>
<text text-anchor="start" x="231" y="-42" font-family="Helvetica,sans-Serif" font-size="10.00">helios::engine::game</text>
<text text-anchor="middle" x="311" y="-31" font-family="Helvetica,sans-Serif" font-size="10.00">::UpdateContext::UpdateContext</text>
</a>
</g>
</g>
<!-- Node1&#45;&gt;Node2 -->
<g id="edge1_Node000001_Node000002" class="edge">
<title>Node1&#45;&gt;Node2</title>
<g id="a_edge1_Node000001_Node000002"><a xlink:title=" ">
<path fill="none" stroke="#63b8ff" d="M187.14,-39C195.67,-39 204.33,-39 212.89,-39"/>
<polygon fill="#63b8ff" stroke="#63b8ff" points="212.89,-42.5 222.89,-39 212.89,-35.5 212.89,-42.5"/>
</a>
</g>
</g>
<!-- Node3 -->
<g id="Node000003" class="node">
<title>Node3</title>
<g id="a_Node000003"><a xlink:href="structhelios_1_1engine_1_1game_1_1UpdateContext.html#a8282c9dcfe53edfa615372dc537d4e76" target="_top" xlink:title="Returns the command buffer for queueing commands.">
<polygon fill="white" stroke="#666666" points="615,-78 435,-78 435,-48 615,-48 615,-78"/>
<text text-anchor="start" x="443" y="-66" font-family="Helvetica,sans-Serif" font-size="10.00">helios::engine::game</text>
<text text-anchor="middle" x="525" y="-55" font-family="Helvetica,sans-Serif" font-size="10.00">::UpdateContext::commandBuffer</text>
</a>
</g>
</g>
<!-- Node2&#45;&gt;Node3 -->
<g id="edge2_Node000002_Node000003" class="edge">
<title>Node2&#45;&gt;Node3</title>
<g id="a_edge2_Node000002_Node000003"><a xlink:title=" ">
<path fill="none" stroke="#63b8ff" d="M399.15,-48.87C407.6,-49.82 416.22,-50.8 424.78,-51.77"/>
<polygon fill="#63b8ff" stroke="#63b8ff" points="424.46,-55.25 434.79,-52.9 425.25,-48.3 424.46,-55.25"/>
</a>
</g>
</g>
<!-- Node4 -->
<g id="Node000004" class="node">
<title>Node4</title>
<g id="a_Node000004"><a xlink:href="structhelios_1_1engine_1_1game_1_1UpdateContext.html#ae12523c4ac013b3b4907dd83cba3519e" target="_top" xlink:title="Returns the game world for entity lookups.">
<polygon fill="white" stroke="#666666" points="604,-30 446,-30 446,0 604,0 604,-30"/>
<text text-anchor="start" x="454" y="-18" font-family="Helvetica,sans-Serif" font-size="10.00">helios::engine::game</text>
<text text-anchor="middle" x="525" y="-7" font-family="Helvetica,sans-Serif" font-size="10.00">::UpdateContext::gameWorld</text>
</a>
</g>
</g>
<!-- Node2&#45;&gt;Node4 -->
<g id="edge3_Node000002_Node000004" class="edge">
<title>Node2&#45;&gt;Node4</title>
<g id="a_edge3_Node000002_Node000004"><a xlink:title=" ">
<path fill="none" stroke="#63b8ff" d="M399.15,-29.13C411.19,-27.77 423.57,-26.37 435.64,-25"/>
<polygon fill="#63b8ff" stroke="#63b8ff" points="436.14,-28.47 445.69,-23.87 435.36,-21.51 436.14,-28.47"/>
</a>
</g>
</g>
</g>
</svg>
