<?xml version="1.0" encoding="UTF-8" standalone="no"?>
<!DOCTYPE svg PUBLIC "-//W3C//DTD SVG 1.1//EN"
 "http://www.w3.org/Graphics/SVG/1.1/DTD/svg11.dtd">
<!-- Generated by graphviz version 2.43.0 (0)
 -->
<!-- Title: helios::math::vec3::normalize Pages: 1 -->
<svg width="258pt" height="86pt"
 viewBox="0.00 0.00 258.00 86.00" xmlns="http://www.w3.org/2000/svg" xmlns:xlink="http://www.w3.org/1999/xlink">
<g id="graph0" class="graph" transform="scale(1 1) rotate(0) translate(4 82)">
<title>helios::math::vec3::normalize</title>
<!-- Node1 -->
<g id="Node000001" class="node">
<title>Node1</title>
<g id="a_Node000001"><a xlink:title="Returns a normalized version of this vector.">
<polygon fill="#999999" stroke="#666666" points="107,-54 0,-54 0,-24 107,-24 107,-54"/>
<text text-anchor="start" x="8" y="-42" font-family="Helvetica,sans-Serif" font-size="10.00">helios::math::vec3</text>
<text text-anchor="middle" x="53.5" y="-31" font-family="Helvetica,sans-Serif" font-size="10.00">::normalize</text>
</a>
</g>
</g>
<!-- Node2 -->
<g id="Node000002" class="node">
<title>Node2</title>
<g id="a_Node000002"><a xlink:href="structhelios_1_1math_1_1vec3.html#a634150a5ce28ebfb3c09fa63226f0b3f" target="_top" xlink:title="Computes the Euclidean norm (magnitude) of this vector and returns it.">
<polygon fill="white" stroke="#666666" points="250,-78 143,-78 143,-48 250,-48 250,-78"/>
<text text-anchor="start" x="151" y="-66" font-family="Helvetica,sans-Serif" font-size="10.00">helios::math::vec3</text>
<text text-anchor="middle" x="196.5" y="-55" font-family="Helvetica,sans-Serif" font-size="10.00">::norm</text>
</a>
</g>
</g>
<!-- Node1&#45;&gt;Node2 -->
<g id="edge1_Node000001_Node000002" class="edge">
<title>Node1&#45;&gt;Node2</title>
<g id="a_edge1_Node000001_Node000002"><a xlink:title=" ">
<path fill="none" stroke="#63b8ff" d="M107,-47.94C115.44,-49.37 124.26,-50.87 132.9,-52.35"/>
<polygon fill="#63b8ff" stroke="#63b8ff" points="132.51,-55.83 142.95,-54.06 133.68,-48.93 132.51,-55.83"/>
</a>
</g>
</g>
<!-- Node3 -->
<g id="Node000003" class="node">
<title>Node3</title>
<g id="a_Node000003"><a xlink:href="structhelios_1_1math_1_1vec3.html#a6a604e51ca84090aa8e8d7f46bd02009" target="_top" xlink:title="Creates a new vec3 with its values initialized to (0, 0, 0).">
<polygon fill="white" stroke="#666666" points="250,-30 143,-30 143,0 250,0 250,-30"/>
<text text-anchor="start" x="151" y="-18" font-family="Helvetica,sans-Serif" font-size="10.00">helios::math::vec3</text>
<text text-anchor="middle" x="196.5" y="-7" font-family="Helvetica,sans-Serif" font-size="10.00">::vec3</text>
</a>
</g>
</g>
<!-- Node1&#45;&gt;Node3 -->
<g id="edge2_Node000001_Node000003" class="edge">
<title>Node1&#45;&gt;Node3</title>
<g id="a_edge2_Node000001_Node000003"><a xlink:title=" ">
<path fill="none" stroke="#63b8ff" d="M107,-30.06C115.44,-28.63 124.26,-27.13 132.9,-25.65"/>
<polygon fill="#63b8ff" stroke="#63b8ff" points="133.68,-29.07 142.95,-23.94 132.51,-22.17 133.68,-29.07"/>
</a>
</g>
</g>
</g>
</svg>
