<?xml version="1.0" encoding="UTF-8" standalone="no"?>
<!DOCTYPE svg PUBLIC "-//W3C//DTD SVG 1.1//EN"
 "http://www.w3.org/Graphics/SVG/1.1/DTD/svg11.dtd">
<!-- Generated by graphviz version 2.43.0 (0)
 -->
<!-- Title: include/helios/scene/Transform.ixx Pages: 1 -->
<svg width="292pt" height="95pt"
 viewBox="0.00 0.00 291.50 95.20" xmlns="http://www.w3.org/2000/svg" xmlns:xlink="http://www.w3.org/1999/xlink">

<svg id="main" version="1.1" xmlns="http://www.w3.org/2000/svg" xmlns:xlink="http://www.w3.org/1999/xlink" xml:space="preserve">

<style type="text/css"><![CDATA[
.node, .edge {opacity: 0.7;}
.node.selected, .edge.selected {opacity: 1;}
.edge:hover path { stroke: red; }
.edge:hover polygon { stroke: red; fill: red; }
]]></style>
<script type="application/ecmascript" xlink:href="svg.min.js"/>
<svg id="graph" class="graph">
<g id="graph0" class="graph" transform="scale(1 1) rotate(0) translate(4 91.2)">
<title>include/helios/scene/Transform.ixx</title>
<!-- Node1 -->
<g id="Node000001" class="node">
<title>Node1</title>
<g id="a_Node000001"><a xlink:title="Represents a 3D transformation consisting of translation, rotation and scale.">
<polygon fill="#999999" stroke="#666666" points="195.5,-87.2 79.5,-87.2 79.5,-57.2 195.5,-57.2 195.5,-87.2"/>
<text text-anchor="start" x="87.5" y="-75.2" font-family="Helvetica,sans-Serif" font-size="10.00">include/helios/scene</text>
<text text-anchor="middle" x="137.5" y="-64.2" font-family="Helvetica,sans-Serif" font-size="10.00">/Transform.ixx</text>
</a>
</g>
</g>
<!-- Node2 -->
<g id="Node000002" class="node">
<title>Node2</title>
<g id="a_Node000002"><a xlink:href="helios_2math_2transform_2__module_8ixx.html" target="_top" xlink:title="Module exports for transformation utilities.">
<polygon fill="white" stroke="#666666" points="125,-21.2 0,-21.2 0,-2.2 125,-2.2 125,-21.2"/>
<text text-anchor="middle" x="62.5" y="-9.2" font-family="Helvetica,sans-Serif" font-size="10.00">helios.math.transform</text>
</a>
</g>
</g>
<!-- Node1&#45;&gt;Node2 -->
<g id="edge1_Node000001_Node000002" class="edge">
<title>Node1&#45;&gt;Node2</title>
<g id="a_edge1_Node000001_Node000002"><a xlink:title=" ">
<path fill="none" stroke="#63b8ff" d="M119.34,-57.04C108.01,-48.2 93.44,-36.83 81.88,-27.82"/>
<polygon fill="#63b8ff" stroke="#63b8ff" points="83.78,-24.86 73.74,-21.47 79.47,-30.38 83.78,-24.86"/>
</a>
</g>
</g>
<!-- Node3 -->
<g id="Node000003" class="node">
<title>Node3</title>
<g id="a_Node000003"><a xlink:href="helios_2math_2types_2__module_8ixx.html" target="_top" xlink:title="Module exports for vector and matrix type definitions.">
<polygon fill="white" stroke="#666666" points="265.5,-21.2 161.5,-21.2 161.5,-2.2 265.5,-2.2 265.5,-21.2"/>
<text text-anchor="middle" x="213.5" y="-9.2" font-family="Helvetica,sans-Serif" font-size="10.00">helios.math.types</text>
</a>
</g>
</g>
<!-- Node1&#45;&gt;Node3 -->
<g id="edge3_Node000001_Node000003" class="edge">
<title>Node1&#45;&gt;Node3</title>
<g id="a_edge3_Node000001_Node000003"><a xlink:title=" ">
<path fill="none" stroke="#63b8ff" d="M155.9,-57.04C167.38,-48.2 182.15,-36.83 193.86,-27.82"/>
<polygon fill="#63b8ff" stroke="#63b8ff" points="196.32,-30.34 202.11,-21.47 192.05,-24.79 196.32,-30.34"/>
</a>
</g>
</g>
<!-- Node2&#45;&gt;Node2 -->
<g id="edge2_Node000002_Node000002" class="edge">
<title>Node2&#45;&gt;Node2</title>
<g id="a_edge2_Node000002_Node000002"><a xlink:title=" ">
<path fill="none" stroke="#63b8ff" d="M92.22,-21.23C117.05,-25.31 143,-22.13 143,-11.7 143,-2.7 123.66,0.9 102.4,-0.9"/>
<polygon fill="#63b8ff" stroke="#63b8ff" points="101.72,2.54 92.22,-2.17 102.58,-4.41 101.72,2.54"/>
</a>
</g>
</g>
<!-- Node3&#45;&gt;Node3 -->
<g id="edge4_Node000003_Node000003" class="edge">
<title>Node3&#45;&gt;Node3</title>
<g id="a_edge4_Node000003_Node000003"><a xlink:title=" ">
<path fill="none" stroke="#63b8ff" d="M239.35,-21.23C260.94,-25.31 283.5,-22.13 283.5,-11.7 283.5,-2.9 267.44,0.74 249.45,-0.79"/>
<polygon fill="#63b8ff" stroke="#63b8ff" points="248.78,2.65 239.35,-2.17 249.73,-4.28 248.78,2.65"/>
</a>
</g>
</g>
</g>
</svg>
</svg>

<style type='text/css'>
<![CDATA[
[data-mouse-over-selected='false'] { opacity: 0.7; }
[data-mouse-over-selected='true']  { opacity: 1.0; }
]]>
</style>
<script type="application/ecmascript"><![CDATA[
document.addEventListener('DOMContentLoaded', (event) => {
  highlightEdges();
  highlightAdjacentNodes();
});
]]></script>
</svg>
