<?xml version="1.0" encoding="UTF-8" standalone="no"?>
<!DOCTYPE svg PUBLIC "-//W3C//DTD SVG 1.1//EN"
 "http://www.w3.org/Graphics/SVG/1.1/DTD/svg11.dtd">
<!-- Generated by graphviz version 2.43.0 (0)
 -->
<!-- Title: include/helios/core/units.ixx Pages: 1 -->
<svg width="555pt" height="258pt"
 viewBox="0.00 0.00 555.20 258.00" xmlns="http://www.w3.org/2000/svg" xmlns:xlink="http://www.w3.org/1999/xlink">
<g id="graph0" class="graph" transform="scale(1 1) rotate(0) translate(4 254)">
<title>include/helios/core/units.ixx</title>
<!-- Node1 -->
<g id="Node000001" class="node">
<title>Node1</title>
<g id="a_Node000001"><a xlink:title="Canonical length units and conversion helpers for helios to keep spatial and temporal data consistent...">
<polygon fill="#999999" stroke="#666666" points="173.2,-250 65.2,-250 65.2,-220 173.2,-220 173.2,-250"/>
<text text-anchor="start" x="73.2" y="-238" font-family="Helvetica,sans-Serif" font-size="10.00">include/helios/core</text>
<text text-anchor="middle" x="119.2" y="-227" font-family="Helvetica,sans-Serif" font-size="10.00">/units.ixx</text>
</a>
</g>
</g>
<!-- Node2 -->
<g id="Node000002" class="node">
<title>Node2</title>
<g id="a_Node000002"><a xlink:title=" ">
<polygon fill="#e0e0e0" stroke="#999999" points="197.2,-19 153.2,-19 153.2,0 197.2,0 197.2,-19"/>
<text text-anchor="middle" x="175.2" y="-7" font-family="Helvetica,sans-Serif" font-size="10.00">string</text>
</a>
</g>
</g>
<!-- Node1&#45;&gt;Node2 -->
<g id="edge1_Node000001_Node000002" class="edge">
<title>Node1&#45;&gt;Node2</title>
<g id="a_edge1_Node000001_Node000002"><a xlink:title=" ">
<path fill="none" stroke="#63b8ff" d="M99.15,-219.85C57.39,-188.66 -31.52,-112.26 12.2,-55 27.99,-34.32 100.15,-20.94 142.99,-14.66"/>
<polygon fill="#63b8ff" stroke="#63b8ff" points="143.53,-18.12 152.94,-13.26 142.55,-11.19 143.53,-18.12"/>
</a>
</g>
</g>
<!-- Node3 -->
<g id="Node000003" class="node">
<title>Node3</title>
<g id="a_Node000003"><a xlink:href="LogManager_8ixx.html" target="_top" xlink:title="Central manager for scoped loggers with configurable sinks.">
<polygon fill="white" stroke="#666666" points="318.2,-184 172.2,-184 172.2,-165 318.2,-165 318.2,-184"/>
<text text-anchor="middle" x="245.2" y="-172" font-family="Helvetica,sans-Serif" font-size="10.00">helios.util.log.LogManager</text>
</a>
</g>
</g>
<!-- Node1&#45;&gt;Node3 -->
<g id="edge2_Node000001_Node000003" class="edge">
<title>Node1&#45;&gt;Node3</title>
<g id="a_edge2_Node000001_Node000003"><a xlink:title=" ">
<path fill="none" stroke="#63b8ff" d="M149.38,-219.99C170.03,-210.4 197.2,-197.79 217.34,-188.44"/>
<polygon fill="#63b8ff" stroke="#63b8ff" points="219,-191.52 226.6,-184.14 216.05,-185.18 219,-191.52"/>
</a>
</g>
</g>
<!-- Node9 -->
<g id="Node000009" class="node">
<title>Node9</title>
<g id="a_Node000009"><a xlink:href="Logger_8ixx.html" target="_top" xlink:title="Simple synchronous logger with configurable output sinks.">
<polygon fill="white" stroke="#666666" points="178.7,-129 59.7,-129 59.7,-110 178.7,-110 178.7,-129"/>
<text text-anchor="middle" x="119.2" y="-117" font-family="Helvetica,sans-Serif" font-size="10.00">helios.util.log.Logger</text>
</a>
</g>
</g>
<!-- Node1&#45;&gt;Node9 -->
<g id="edge17_Node000001_Node000009" class="edge">
<title>Node1&#45;&gt;Node9</title>
<g id="a_edge17_Node000001_Node000009"><a xlink:title=" ">
<path fill="none" stroke="#63b8ff" d="M119.2,-219.63C119.2,-199.21 119.2,-161.81 119.2,-139.24"/>
<polygon fill="#63b8ff" stroke="#63b8ff" points="122.7,-139.23 119.2,-129.23 115.7,-139.23 122.7,-139.23"/>
</a>
</g>
</g>
<!-- Node3&#45;&gt;Node2 -->
<g id="edge3_Node000003_Node000002" class="edge">
<title>Node3&#45;&gt;Node2</title>
<g id="a_edge3_Node000003_Node000002"><a xlink:title=" ">
<path fill="none" stroke="#63b8ff" d="M318.39,-165.72C344.38,-159.53 371.93,-148.52 391.2,-129 414.84,-105.06 428.64,-80.94 407.2,-55 382.24,-24.79 265.26,-14.89 207.56,-11.81"/>
<polygon fill="#63b8ff" stroke="#63b8ff" points="207.67,-8.31 197.51,-11.31 207.32,-15.3 207.67,-8.31"/>
</a>
</g>
</g>
<!-- Node4 -->
<g id="Node000004" class="node">
<title>Node4</title>
<g id="a_Node000004"><a xlink:title=" ">
<polygon fill="#e0e0e0" stroke="#999999" points="366.7,-129 273.7,-129 273.7,-110 366.7,-110 366.7,-129"/>
<text text-anchor="middle" x="320.2" y="-117" font-family="Helvetica,sans-Serif" font-size="10.00">unordered_map</text>
</a>
</g>
</g>
<!-- Node3&#45;&gt;Node4 -->
<g id="edge4_Node000003_Node000004" class="edge">
<title>Node3&#45;&gt;Node4</title>
<g id="a_edge4_Node000003_Node000004"><a xlink:title=" ">
<path fill="none" stroke="#63b8ff" d="M257.25,-164.98C268.67,-156.92 286.03,-144.65 299.64,-135.03"/>
<polygon fill="#63b8ff" stroke="#63b8ff" points="301.79,-137.8 307.93,-129.17 297.75,-132.08 301.79,-137.8"/>
</a>
</g>
</g>
<!-- Node5 -->
<g id="Node000005" class="node">
<title>Node5</title>
<g id="a_Node000005"><a xlink:title=" ">
<polygon fill="#e0e0e0" stroke="#999999" points="547.2,-129 461.2,-129 461.2,-110 547.2,-110 547.2,-129"/>
<text text-anchor="middle" x="504.2" y="-117" font-family="Helvetica,sans-Serif" font-size="10.00">unordered_set</text>
</a>
</g>
</g>
<!-- Node3&#45;&gt;Node5 -->
<g id="edge5_Node000003_Node000005" class="edge">
<title>Node3&#45;&gt;Node5</title>
<g id="a_edge5_Node000003_Node000005"><a xlink:title=" ">
<path fill="none" stroke="#63b8ff" d="M286.82,-164.98C331.8,-155.78 403.59,-141.09 452.25,-131.13"/>
<polygon fill="#63b8ff" stroke="#63b8ff" points="453.17,-134.52 462.26,-129.08 451.77,-127.66 453.17,-134.52"/>
</a>
</g>
</g>
<!-- Node6 -->
<g id="Node000006" class="node">
<title>Node6</title>
<g id="a_Node000006"><a xlink:title=" ">
<polygon fill="#e0e0e0" stroke="#999999" points="398.2,-74 340.2,-74 340.2,-55 398.2,-55 398.2,-74"/>
<text text-anchor="middle" x="369.2" y="-62" font-family="Helvetica,sans-Serif" font-size="10.00">memory</text>
</a>
</g>
</g>
<!-- Node3&#45;&gt;Node6 -->
<g id="edge6_Node000003_Node000006" class="edge">
<title>Node3&#45;&gt;Node6</title>
<g id="a_edge6_Node000003_Node000006"><a xlink:title=" ">
<path fill="none" stroke="#63b8ff" d="M318.47,-164.91C340.28,-158.55 361.89,-147.63 375.2,-129 384.45,-116.06 381.43,-97.66 377,-83.99"/>
<polygon fill="#63b8ff" stroke="#63b8ff" points="380.14,-82.38 373.35,-74.24 373.58,-84.83 380.14,-82.38"/>
</a>
</g>
</g>
<!-- Node7 -->
<g id="Node000007" class="node">
<title>Node7</title>
<g id="a_Node000007"><a xlink:title=" ">
<polygon fill="#e0e0e0" stroke="#999999" points="69.2,-74 21.2,-74 21.2,-55 69.2,-55 69.2,-74"/>
<text text-anchor="middle" x="45.2" y="-62" font-family="Helvetica,sans-Serif" font-size="10.00">mutex</text>
</a>
</g>
</g>
<!-- Node3&#45;&gt;Node7 -->
<g id="edge7_Node000003_Node000007" class="edge">
<title>Node3&#45;&gt;Node7</title>
<g id="a_edge7_Node000003_Node000007"><a xlink:title=" ">
<path fill="none" stroke="#63b8ff" d="M172.19,-165.84C123.74,-159.14 66.21,-147.53 50.2,-129 39.71,-116.85 39.51,-98.06 41.3,-84.06"/>
<polygon fill="#63b8ff" stroke="#63b8ff" points="44.77,-84.54 43.01,-74.09 37.87,-83.36 44.77,-84.54"/>
</a>
</g>
</g>
<!-- Node8 -->
<g id="Node000008" class="node">
<title>Node8</title>
<g id="a_Node000008"><a xlink:title=" ">
<polygon fill="#e0e0e0" stroke="#999999" points="172.7,-74 125.7,-74 125.7,-55 172.7,-55 172.7,-74"/>
<text text-anchor="middle" x="149.2" y="-62" font-family="Helvetica,sans-Serif" font-size="10.00">vector</text>
</a>
</g>
</g>
<!-- Node3&#45;&gt;Node8 -->
<g id="edge8_Node000003_Node000008" class="edge">
<title>Node3&#45;&gt;Node8</title>
<g id="a_edge8_Node000003_Node000008"><a xlink:title=" ">
<path fill="none" stroke="#63b8ff" d="M237.35,-164.66C221.23,-146.54 184.24,-104.91 163.67,-81.77"/>
<polygon fill="#63b8ff" stroke="#63b8ff" points="166.16,-79.31 156.9,-74.16 160.93,-83.96 166.16,-79.31"/>
</a>
</g>
</g>
<!-- Node3&#45;&gt;Node9 -->
<g id="edge9_Node000003_Node000009" class="edge">
<title>Node3&#45;&gt;Node9</title>
<g id="a_edge9_Node000003_Node000009"><a xlink:title=" ">
<path fill="none" stroke="#63b8ff" d="M224.96,-164.98C204.51,-156.38 172.67,-142.99 149.27,-133.15"/>
<polygon fill="#63b8ff" stroke="#63b8ff" points="150.39,-129.82 139.82,-129.17 147.68,-136.27 150.39,-129.82"/>
</a>
</g>
</g>
<!-- Node10 -->
<g id="Node000010" class="node">
<title>Node10</title>
<g id="a_Node000010"><a xlink:href="LogSink_8ixx.html" target="_top" xlink:title="Abstract interface for log output destinations.">
<polygon fill="white" stroke="#666666" points="315.2,-74 191.2,-74 191.2,-55 315.2,-55 315.2,-74"/>
<text text-anchor="middle" x="253.2" y="-62" font-family="Helvetica,sans-Serif" font-size="10.00">helios.util.log.LogSink</text>
</a>
</g>
</g>
<!-- Node3&#45;&gt;Node10 -->
<g id="edge16_Node000003_Node000010" class="edge">
<title>Node3&#45;&gt;Node10</title>
<g id="a_edge16_Node000003_Node000010"><a xlink:title=" ">
<path fill="none" stroke="#63b8ff" d="M245.86,-164.66C247.15,-147.17 250.07,-107.8 251.81,-84.27"/>
<polygon fill="#63b8ff" stroke="#63b8ff" points="255.31,-84.39 252.56,-74.16 248.33,-83.87 255.31,-84.39"/>
</a>
</g>
</g>
<!-- Node9&#45;&gt;Node2 -->
<g id="edge10_Node000009_Node000002" class="edge">
<title>Node9&#45;&gt;Node2</title>
<g id="a_edge10_Node000009_Node000002"><a xlink:title=" ">
<path fill="none" stroke="#63b8ff" d="M116.22,-109.73C112.43,-96.95 107.34,-72.78 116.2,-55 122.77,-41.82 135.3,-31.52 147.14,-24.16"/>
<polygon fill="#63b8ff" stroke="#63b8ff" points="149.01,-27.12 155.94,-19.1 145.52,-21.05 149.01,-27.12"/>
</a>
</g>
</g>
<!-- Node9&#45;&gt;Node6 -->
<g id="edge12_Node000009_Node000006" class="edge">
<title>Node9&#45;&gt;Node6</title>
<g id="a_edge12_Node000009_Node000006"><a xlink:title=" ">
<path fill="none" stroke="#63b8ff" d="M159.37,-109.98C206.34,-100.03 283.55,-83.66 330.07,-73.8"/>
<polygon fill="#63b8ff" stroke="#63b8ff" points="331.01,-77.17 340.07,-71.68 329.56,-70.33 331.01,-77.17"/>
</a>
</g>
</g>
<!-- Node9&#45;&gt;Node7 -->
<g id="edge13_Node000009_Node000007" class="edge">
<title>Node9&#45;&gt;Node7</title>
<g id="a_edge13_Node000009_Node000007"><a xlink:title=" ">
<path fill="none" stroke="#63b8ff" d="M107.31,-109.98C96.05,-101.92 78.92,-89.65 65.49,-80.03"/>
<polygon fill="#63b8ff" stroke="#63b8ff" points="67.48,-77.15 57.31,-74.17 63.4,-82.84 67.48,-77.15"/>
</a>
</g>
</g>
<!-- Node9&#45;&gt;Node8 -->
<g id="edge11_Node000009_Node000008" class="edge">
<title>Node9&#45;&gt;Node8</title>
<g id="a_edge11_Node000009_Node000008"><a xlink:title=" ">
<path fill="none" stroke="#63b8ff" d="M124.16,-109.75C128.26,-102.49 134.23,-91.95 139.31,-82.98"/>
<polygon fill="#63b8ff" stroke="#63b8ff" points="142.46,-84.52 144.34,-74.09 136.37,-81.07 142.46,-84.52"/>
</a>
</g>
</g>
<!-- Node9&#45;&gt;Node10 -->
<g id="edge14_Node000009_Node000010" class="edge">
<title>Node9&#45;&gt;Node10</title>
<g id="a_edge14_Node000009_Node000010"><a xlink:title=" ">
<path fill="none" stroke="#63b8ff" d="M140.73,-109.98C162.68,-101.3 196.94,-87.75 221.89,-77.88"/>
<polygon fill="#63b8ff" stroke="#63b8ff" points="223.27,-81.1 231.28,-74.17 220.7,-74.59 223.27,-81.1"/>
</a>
</g>
</g>
<!-- Node10&#45;&gt;Node2 -->
<g id="edge15_Node000010_Node000002" class="edge">
<title>Node10&#45;&gt;Node2</title>
<g id="a_edge15_Node000010_Node000002"><a xlink:title=" ">
<path fill="none" stroke="#63b8ff" d="M240.67,-54.98C228.8,-46.92 210.74,-34.65 196.59,-25.03"/>
<polygon fill="#63b8ff" stroke="#63b8ff" points="198.2,-21.9 187.96,-19.17 194.27,-27.69 198.2,-21.9"/>
</a>
</g>
</g>
</g>
</svg>
