<?xml version="1.0" encoding="UTF-8" standalone="no"?>
<!DOCTYPE svg PUBLIC "-//W3C//DTD SVG 1.1//EN"
 "http://www.w3.org/Graphics/SVG/1.1/DTD/svg11.dtd">
<!-- Generated by graphviz version 2.43.0 (0)
 -->
<!-- Title: include/helios/util/io/_module.ixx Pages: 1 -->
<svg width="525pt" height="335pt"
 viewBox="0.00 0.00 524.50 335.00" xmlns="http://www.w3.org/2000/svg" xmlns:xlink="http://www.w3.org/1999/xlink">
<g id="graph0" class="graph" transform="scale(1 1) rotate(0) translate(4 331)">
<title>include/helios/util/io/_module.ixx</title>
<!-- Node1 -->
<g id="Node000001" class="node">
<title>Node1</title>
<g id="a_Node000001"><a xlink:title=" ">
<polygon fill="#999999" stroke="#666666" points="165.5,-327 62.5,-327 62.5,-297 165.5,-297 165.5,-327"/>
<text text-anchor="start" x="70.5" y="-315" font-family="Helvetica,sans-Serif" font-size="10.00">include/helios/util</text>
<text text-anchor="middle" x="114" y="-304" font-family="Helvetica,sans-Serif" font-size="10.00">/io/_module.ixx</text>
</a>
</g>
</g>
<!-- Node2 -->
<g id="Node000002" class="node">
<title>Node2</title>
<g id="a_Node000002"><a xlink:href="BasicStringFileReader_8ixx.html" target="_top" xlink:title=" ">
<polygon fill="white" stroke="#666666" points="134,-261 0,-261 0,-231 134,-231 134,-261"/>
<text text-anchor="start" x="8" y="-249" font-family="Helvetica,sans-Serif" font-size="10.00">helios.util.io.BasicString</text>
<text text-anchor="middle" x="67" y="-238" font-family="Helvetica,sans-Serif" font-size="10.00">FileReader</text>
</a>
</g>
</g>
<!-- Node1&#45;&gt;Node2 -->
<g id="edge1_Node000001_Node000002" class="edge">
<title>Node1&#45;&gt;Node2</title>
<g id="a_edge1_Node000001_Node000002"><a xlink:title=" ">
<path fill="none" stroke="#63b8ff" d="M103.57,-296.8C97.67,-288.76 90.15,-278.53 83.47,-269.43"/>
<polygon fill="#63b8ff" stroke="#63b8ff" points="86.14,-267.15 77.4,-261.16 80.5,-271.3 86.14,-267.15"/>
</a>
</g>
</g>
<!-- Node4 -->
<g id="Node000004" class="node">
<title>Node4</title>
<g id="a_Node000004"><a xlink:href="StringFileReader_8ixx.html" target="_top" xlink:title=" ">
<polygon fill="white" stroke="#666666" points="224.5,-195 99.5,-195 99.5,-165 224.5,-165 224.5,-195"/>
<text text-anchor="start" x="107.5" y="-183" font-family="Helvetica,sans-Serif" font-size="10.00">helios.util.io.StringFile</text>
<text text-anchor="middle" x="162" y="-172" font-family="Helvetica,sans-Serif" font-size="10.00">Reader</text>
</a>
</g>
</g>
<!-- Node1&#45;&gt;Node4 -->
<g id="edge14_Node000001_Node000004" class="edge">
<title>Node1&#45;&gt;Node4</title>
<g id="a_edge14_Node000001_Node000004"><a xlink:title=" ">
<path fill="none" stroke="#63b8ff" d="M123.81,-296.7C130.08,-287 137.95,-273.68 143,-261 150.17,-243.01 155.08,-221.61 158.11,-205.48"/>
<polygon fill="#63b8ff" stroke="#63b8ff" points="161.62,-205.71 159.91,-195.25 154.73,-204.5 161.62,-205.71"/>
</a>
</g>
</g>
<!-- Node3 -->
<g id="Node000003" class="node">
<title>Node3</title>
<g id="a_Node000003"><a xlink:title=" ">
<polygon fill="#e0e0e0" stroke="#999999" points="118,-19 74,-19 74,0 118,0 118,-19"/>
<text text-anchor="middle" x="96" y="-7" font-family="Helvetica,sans-Serif" font-size="10.00">string</text>
</a>
</g>
</g>
<!-- Node2&#45;&gt;Node3 -->
<g id="edge2_Node000002_Node000003" class="edge">
<title>Node2&#45;&gt;Node3</title>
<g id="a_edge2_Node000002_Node000003"><a xlink:title=" ">
<path fill="none" stroke="#63b8ff" d="M68.77,-230.68C73.78,-190.17 88.06,-74.68 93.69,-29.22"/>
<polygon fill="#63b8ff" stroke="#63b8ff" points="97.16,-29.61 94.92,-19.26 90.22,-28.75 97.16,-29.61"/>
</a>
</g>
</g>
<!-- Node2&#45;&gt;Node4 -->
<g id="edge3_Node000002_Node000004" class="edge">
<title>Node2&#45;&gt;Node4</title>
<g id="a_edge3_Node000002_Node000004"><a xlink:title=" ">
<path fill="none" stroke="#63b8ff" d="M88.08,-230.8C101.12,-222.01 118.05,-210.61 132.42,-200.93"/>
<polygon fill="#63b8ff" stroke="#63b8ff" points="134.64,-203.65 140.98,-195.16 130.73,-197.85 134.64,-203.65"/>
</a>
</g>
</g>
<!-- Node4&#45;&gt;Node3 -->
<g id="edge4_Node000004_Node000003" class="edge">
<title>Node4&#45;&gt;Node3</title>
<g id="a_edge4_Node000004_Node000003"><a xlink:title=" ">
<path fill="none" stroke="#63b8ff" d="M155.02,-164.98C145.27,-145.07 127.38,-107.32 115,-74 109.48,-59.15 104.4,-41.91 100.89,-29.14"/>
<polygon fill="#63b8ff" stroke="#63b8ff" points="104.2,-27.99 98.23,-19.25 97.44,-29.81 104.2,-27.99"/>
</a>
</g>
</g>
<!-- Node5 -->
<g id="Node000005" class="node">
<title>Node5</title>
<g id="a_Node000005"><a xlink:href="LogManager_8ixx.html" target="_top" xlink:title=" ">
<polygon fill="white" stroke="#666666" points="304,-129 158,-129 158,-110 304,-110 304,-129"/>
<text text-anchor="middle" x="231" y="-117" font-family="Helvetica,sans-Serif" font-size="10.00">helios.util.log.LogManager</text>
</a>
</g>
</g>
<!-- Node4&#45;&gt;Node5 -->
<g id="edge5_Node000004_Node000005" class="edge">
<title>Node4&#45;&gt;Node5</title>
<g id="a_edge5_Node000004_Node000005"><a xlink:title=" ">
<path fill="none" stroke="#63b8ff" d="M178.7,-164.84C189.03,-156.09 202.28,-144.85 212.86,-135.88"/>
<polygon fill="#63b8ff" stroke="#63b8ff" points="215.3,-138.4 220.66,-129.27 210.77,-133.06 215.3,-138.4"/>
</a>
</g>
</g>
<!-- Node9 -->
<g id="Node000009" class="node">
<title>Node9</title>
<g id="a_Node000009"><a xlink:href="Logger_8ixx.html" target="_top" xlink:title=" ">
<polygon fill="white" stroke="#666666" points="516.5,-74 397.5,-74 397.5,-55 516.5,-55 516.5,-74"/>
<text text-anchor="middle" x="457" y="-62" font-family="Helvetica,sans-Serif" font-size="10.00">helios.util.log.Logger</text>
</a>
</g>
</g>
<!-- Node4&#45;&gt;Node9 -->
<g id="edge13_Node000004_Node000009" class="edge">
<title>Node4&#45;&gt;Node9</title>
<g id="a_edge13_Node000004_Node000009"><a xlink:title=" ">
<path fill="none" stroke="#63b8ff" d="M208.33,-164.92C238.42,-155.47 278.34,-142.35 313,-129 354.28,-113.1 400.95,-91.91 429.67,-78.49"/>
<polygon fill="#63b8ff" stroke="#63b8ff" points="431.48,-81.5 439.05,-74.08 428.51,-75.17 431.48,-81.5"/>
</a>
</g>
</g>
<!-- Node5&#45;&gt;Node3 -->
<g id="edge6_Node000005_Node000003" class="edge">
<title>Node5&#45;&gt;Node3</title>
<g id="a_edge6_Node000005_Node000003"><a xlink:title=" ">
<path fill="none" stroke="#63b8ff" d="M200.75,-109.88C180.13,-102.83 153.18,-91.19 134,-74 120.13,-61.56 109.78,-42.84 103.41,-28.94"/>
<polygon fill="#63b8ff" stroke="#63b8ff" points="106.49,-27.24 99.33,-19.44 100.06,-30.01 106.49,-27.24"/>
</a>
</g>
</g>
<!-- Node6 -->
<g id="Node000006" class="node">
<title>Node6</title>
<g id="a_Node000006"><a xlink:title=" ">
<polygon fill="#e0e0e0" stroke="#999999" points="236.5,-74 143.5,-74 143.5,-55 236.5,-55 236.5,-74"/>
<text text-anchor="middle" x="190" y="-62" font-family="Helvetica,sans-Serif" font-size="10.00">unordered_map</text>
</a>
</g>
</g>
<!-- Node5&#45;&gt;Node6 -->
<g id="edge7_Node000005_Node000006" class="edge">
<title>Node5&#45;&gt;Node6</title>
<g id="a_edge7_Node000005_Node000006"><a xlink:title=" ">
<path fill="none" stroke="#63b8ff" d="M224.23,-109.75C218.44,-102.26 209.94,-91.28 202.86,-82.13"/>
<polygon fill="#63b8ff" stroke="#63b8ff" points="205.53,-79.86 196.64,-74.09 199.99,-84.14 205.53,-79.86"/>
</a>
</g>
</g>
<!-- Node7 -->
<g id="Node000007" class="node">
<title>Node7</title>
<g id="a_Node000007"><a xlink:title=" ">
<polygon fill="#e0e0e0" stroke="#999999" points="313,-74 255,-74 255,-55 313,-55 313,-74"/>
<text text-anchor="middle" x="284" y="-62" font-family="Helvetica,sans-Serif" font-size="10.00">memory</text>
</a>
</g>
</g>
<!-- Node5&#45;&gt;Node7 -->
<g id="edge8_Node000005_Node000007" class="edge">
<title>Node5&#45;&gt;Node7</title>
<g id="a_edge8_Node000005_Node000007"><a xlink:title=" ">
<path fill="none" stroke="#63b8ff" d="M239.75,-109.75C247.47,-102.03 258.9,-90.6 268.22,-81.28"/>
<polygon fill="#63b8ff" stroke="#63b8ff" points="270.81,-83.64 275.41,-74.09 265.86,-78.69 270.81,-83.64"/>
</a>
</g>
</g>
<!-- Node8 -->
<g id="Node000008" class="node">
<title>Node8</title>
<g id="a_Node000008"><a xlink:title=" ">
<polygon fill="#e0e0e0" stroke="#999999" points="379,-74 331,-74 331,-55 379,-55 379,-74"/>
<text text-anchor="middle" x="355" y="-62" font-family="Helvetica,sans-Serif" font-size="10.00">mutex</text>
</a>
</g>
</g>
<!-- Node5&#45;&gt;Node8 -->
<g id="edge9_Node000005_Node000008" class="edge">
<title>Node5&#45;&gt;Node8</title>
<g id="a_edge9_Node000005_Node000008"><a xlink:title=" ">
<path fill="none" stroke="#63b8ff" d="M250.92,-109.98C271.05,-101.38 302.38,-87.99 325.41,-78.15"/>
<polygon fill="#63b8ff" stroke="#63b8ff" points="326.9,-81.32 334.71,-74.17 324.14,-74.88 326.9,-81.32"/>
</a>
</g>
</g>
<!-- Node5&#45;&gt;Node9 -->
<g id="edge10_Node000005_Node000009" class="edge">
<title>Node5&#45;&gt;Node9</title>
<g id="a_edge10_Node000005_Node000009"><a xlink:title=" ">
<path fill="none" stroke="#63b8ff" d="M267.31,-109.98C306.24,-100.86 368.16,-86.33 410.6,-76.38"/>
<polygon fill="#63b8ff" stroke="#63b8ff" points="411.47,-79.77 420.4,-74.08 409.87,-72.96 411.47,-79.77"/>
</a>
</g>
</g>
<!-- Node9&#45;&gt;Node3 -->
<g id="edge12_Node000009_Node000003" class="edge">
<title>Node9&#45;&gt;Node3</title>
<g id="a_edge12_Node000009_Node000003"><a xlink:title=" ">
<path fill="none" stroke="#63b8ff" d="M399,-54.98C322.29,-43.72 189.68,-24.25 128.57,-15.28"/>
<polygon fill="#63b8ff" stroke="#63b8ff" points="128.76,-11.77 118.36,-13.78 127.75,-18.7 128.76,-11.77"/>
</a>
</g>
</g>
<!-- Node10 -->
<g id="Node000010" class="node">
<title>Node10</title>
<g id="a_Node000010"><a xlink:title=" ">
<polygon fill="#e0e0e0" stroke="#999999" points="487,-19 427,-19 427,0 487,0 487,-19"/>
<text text-anchor="middle" x="457" y="-7" font-family="Helvetica,sans-Serif" font-size="10.00">iostream</text>
</a>
</g>
</g>
<!-- Node9&#45;&gt;Node10 -->
<g id="edge11_Node000009_Node000010" class="edge">
<title>Node9&#45;&gt;Node10</title>
<g id="a_edge11_Node000009_Node000010"><a xlink:title=" ">
<path fill="none" stroke="#63b8ff" d="M457,-54.75C457,-47.8 457,-37.85 457,-29.13"/>
<polygon fill="#63b8ff" stroke="#63b8ff" points="460.5,-29.09 457,-19.09 453.5,-29.09 460.5,-29.09"/>
</a>
</g>
</g>
</g>
</svg>
