<?xml version="1.0" encoding="UTF-8" standalone="no"?>
<!DOCTYPE svg PUBLIC "-//W3C//DTD SVG 1.1//EN"
 "http://www.w3.org/Graphics/SVG/1.1/DTD/svg11.dtd">
<!-- Generated by graphviz version 2.43.0 (0)
 -->
<!-- Title: include/helios/util/_module.ixx Pages: 1 -->
<svg width="584pt" height="390pt"
 viewBox="0.00 0.00 583.50 390.00" xmlns="http://www.w3.org/2000/svg" xmlns:xlink="http://www.w3.org/1999/xlink">
<g id="graph0" class="graph" transform="scale(1 1) rotate(0) translate(4 386)">
<title>include/helios/util/_module.ixx</title>
<!-- Node1 -->
<g id="Node000001" class="node">
<title>Node1</title>
<g id="a_Node000001"><a xlink:title=" ">
<polygon fill="#999999" stroke="#666666" points="391,-382 288,-382 288,-352 391,-352 391,-382"/>
<text text-anchor="start" x="296" y="-370" font-family="Helvetica,sans-Serif" font-size="10.00">include/helios/util</text>
<text text-anchor="middle" x="339.5" y="-359" font-family="Helvetica,sans-Serif" font-size="10.00">/_module.ixx</text>
</a>
</g>
</g>
<!-- Node2 -->
<g id="Node000002" class="node">
<title>Node2</title>
<g id="a_Node000002"><a xlink:href="util_2io_2__module_8ixx.html" target="_top" xlink:title=" ">
<polygon fill="white" stroke="#666666" points="378,-316 301,-316 301,-297 378,-297 378,-316"/>
<text text-anchor="middle" x="339.5" y="-304" font-family="Helvetica,sans-Serif" font-size="10.00">helios.util.io</text>
</a>
</g>
</g>
<!-- Node1&#45;&gt;Node2 -->
<g id="edge1_Node000001_Node000002" class="edge">
<title>Node1&#45;&gt;Node2</title>
<g id="a_edge1_Node000001_Node000002"><a xlink:title=" ">
<path fill="none" stroke="#63b8ff" d="M339.5,-351.84C339.5,-344.21 339.5,-334.7 339.5,-326.45"/>
<polygon fill="#63b8ff" stroke="#63b8ff" points="343,-326.27 339.5,-316.27 336,-326.27 343,-326.27"/>
</a>
</g>
</g>
<!-- Node12 -->
<g id="Node000012" class="node">
<title>Node12</title>
<g id="a_Node000012"><a xlink:href="util_2log_2__module_8ixx.html" target="_top" xlink:title=" ">
<polygon fill="white" stroke="#666666" points="218,-189.5 135,-189.5 135,-170.5 218,-170.5 218,-189.5"/>
<text text-anchor="middle" x="176.5" y="-177.5" font-family="Helvetica,sans-Serif" font-size="10.00">helios.util.log</text>
</a>
</g>
</g>
<!-- Node1&#45;&gt;Node12 -->
<g id="edge16_Node000001_Node000012" class="edge">
<title>Node1&#45;&gt;Node12</title>
<g id="a_edge16_Node000001_Node000012"><a xlink:title=" ">
<path fill="none" stroke="#63b8ff" d="M325.41,-351.77C315.72,-341.88 302.64,-328.32 291.5,-316 253.81,-274.33 211.42,-223.47 190.18,-197.7"/>
<polygon fill="#63b8ff" stroke="#63b8ff" points="192.65,-195.18 183.59,-189.68 187.24,-199.63 192.65,-195.18"/>
</a>
</g>
</g>
<!-- Node13 -->
<g id="Node000013" class="node">
<title>Node13</title>
<g id="a_Node000013"><a xlink:href="Guid_8ixx.html" target="_top" xlink:title=" ">
<polygon fill="white" stroke="#666666" points="527.5,-316 437.5,-316 437.5,-297 527.5,-297 527.5,-316"/>
<text text-anchor="middle" x="482.5" y="-304" font-family="Helvetica,sans-Serif" font-size="10.00">helios.util.Guid</text>
</a>
</g>
</g>
<!-- Node1&#45;&gt;Node13 -->
<g id="edge19_Node000001_Node000013" class="edge">
<title>Node1&#45;&gt;Node13</title>
<g id="a_edge19_Node000001_Node000013"><a xlink:title=" ">
<path fill="none" stroke="#63b8ff" d="M373.75,-351.99C397.61,-342.23 429.15,-329.33 452.11,-319.93"/>
<polygon fill="#63b8ff" stroke="#63b8ff" points="453.45,-323.17 461.38,-316.14 450.8,-316.69 453.45,-323.17"/>
</a>
</g>
</g>
<!-- Node3 -->
<g id="Node000003" class="node">
<title>Node3</title>
<g id="a_Node000003"><a xlink:href="BasicStringFileReader_8ixx.html" target="_top" xlink:title=" ">
<polygon fill="white" stroke="#666666" points="439.5,-261 305.5,-261 305.5,-231 439.5,-231 439.5,-261"/>
<text text-anchor="start" x="313.5" y="-249" font-family="Helvetica,sans-Serif" font-size="10.00">helios.util.io.BasicString</text>
<text text-anchor="middle" x="372.5" y="-238" font-family="Helvetica,sans-Serif" font-size="10.00">FileReader</text>
</a>
</g>
</g>
<!-- Node2&#45;&gt;Node3 -->
<g id="edge2_Node000002_Node000003" class="edge">
<title>Node2&#45;&gt;Node3</title>
<g id="a_edge2_Node000002_Node000003"><a xlink:title=" ">
<path fill="none" stroke="#63b8ff" d="M344.37,-296.87C348.35,-289.81 354.17,-279.5 359.48,-270.08"/>
<polygon fill="#63b8ff" stroke="#63b8ff" points="362.67,-271.54 364.54,-261.11 356.58,-268.1 362.67,-271.54"/>
</a>
</g>
</g>
<!-- Node5 -->
<g id="Node000005" class="node">
<title>Node5</title>
<g id="a_Node000005"><a xlink:href="StringFileReader_8ixx.html" target="_top" xlink:title=" ">
<polygon fill="white" stroke="#666666" points="361,-195 236,-195 236,-165 361,-165 361,-195"/>
<text text-anchor="start" x="244" y="-183" font-family="Helvetica,sans-Serif" font-size="10.00">helios.util.io.StringFile</text>
<text text-anchor="middle" x="298.5" y="-172" font-family="Helvetica,sans-Serif" font-size="10.00">Reader</text>
</a>
</g>
</g>
<!-- Node2&#45;&gt;Node5 -->
<g id="edge15_Node000002_Node000005" class="edge">
<title>Node2&#45;&gt;Node5</title>
<g id="a_edge15_Node000002_Node000005"><a xlink:title=" ">
<path fill="none" stroke="#63b8ff" d="M327.01,-296.93C316.63,-288.99 302.62,-276.14 296.5,-261 289.32,-243.25 290.45,-221.43 293.03,-205.06"/>
<polygon fill="#63b8ff" stroke="#63b8ff" points="296.48,-205.66 294.85,-195.19 289.59,-204.39 296.48,-205.66"/>
</a>
</g>
</g>
<!-- Node4 -->
<g id="Node000004" class="node">
<title>Node4</title>
<g id="a_Node000004"><a xlink:title=" ">
<polygon fill="#e0e0e0" stroke="#999999" points="442.5,-19 398.5,-19 398.5,0 442.5,0 442.5,-19"/>
<text text-anchor="middle" x="420.5" y="-7" font-family="Helvetica,sans-Serif" font-size="10.00">string</text>
</a>
</g>
</g>
<!-- Node3&#45;&gt;Node4 -->
<g id="edge3_Node000003_Node000004" class="edge">
<title>Node3&#45;&gt;Node4</title>
<g id="a_edge3_Node000003_Node000004"><a xlink:title=" ">
<path fill="none" stroke="#63b8ff" d="M378.32,-230.68C389.75,-201.7 414.78,-133.78 423.5,-74 425.67,-59.12 424.68,-42.08 423.28,-29.41"/>
<polygon fill="#63b8ff" stroke="#63b8ff" points="426.71,-28.65 421.96,-19.18 419.77,-29.55 426.71,-28.65"/>
</a>
</g>
</g>
<!-- Node3&#45;&gt;Node5 -->
<g id="edge4_Node000003_Node000005" class="edge">
<title>Node3&#45;&gt;Node5</title>
<g id="a_edge4_Node000003_Node000005"><a xlink:title=" ">
<path fill="none" stroke="#63b8ff" d="M356.08,-230.8C346.21,-222.26 333.48,-211.25 322.5,-201.75"/>
<polygon fill="#63b8ff" stroke="#63b8ff" points="324.73,-199.06 314.88,-195.16 320.15,-204.35 324.73,-199.06"/>
</a>
</g>
</g>
<!-- Node5&#45;&gt;Node4 -->
<g id="edge5_Node000005_Node000004" class="edge">
<title>Node5&#45;&gt;Node4</title>
<g id="a_edge5_Node000005_Node000004"><a xlink:title=" ">
<path fill="none" stroke="#63b8ff" d="M318.54,-164.68C342.63,-146.4 382.55,-112.47 404.5,-74 412.34,-60.25 416.39,-42.68 418.45,-29.5"/>
<polygon fill="#63b8ff" stroke="#63b8ff" points="421.96,-29.64 419.79,-19.27 415.02,-28.73 421.96,-29.64"/>
</a>
</g>
</g>
<!-- Node6 -->
<g id="Node000006" class="node">
<title>Node6</title>
<g id="a_Node000006"><a xlink:href="LogManager_8ixx.html" target="_top" xlink:title=" ">
<polygon fill="white" stroke="#666666" points="310.5,-129 164.5,-129 164.5,-110 310.5,-110 310.5,-129"/>
<text text-anchor="middle" x="237.5" y="-117" font-family="Helvetica,sans-Serif" font-size="10.00">helios.util.log.LogManager</text>
</a>
</g>
</g>
<!-- Node5&#45;&gt;Node6 -->
<g id="edge6_Node000005_Node000006" class="edge">
<title>Node5&#45;&gt;Node6</title>
<g id="a_edge6_Node000005_Node000006"><a xlink:title=" ">
<path fill="none" stroke="#63b8ff" d="M283.73,-164.84C274.79,-156.26 263.36,-145.3 254.1,-136.42"/>
<polygon fill="#63b8ff" stroke="#63b8ff" points="256.28,-133.66 246.64,-129.27 251.44,-138.71 256.28,-133.66"/>
</a>
</g>
</g>
<!-- Node10 -->
<g id="Node000010" class="node">
<title>Node10</title>
<g id="a_Node000010"><a xlink:href="Logger_8ixx.html" target="_top" xlink:title=" ">
<polygon fill="white" stroke="#666666" points="119,-74 0,-74 0,-55 119,-55 119,-74"/>
<text text-anchor="middle" x="59.5" y="-62" font-family="Helvetica,sans-Serif" font-size="10.00">helios.util.log.Logger</text>
</a>
</g>
</g>
<!-- Node5&#45;&gt;Node10 -->
<g id="edge14_Node000005_Node000010" class="edge">
<title>Node5&#45;&gt;Node10</title>
<g id="a_edge14_Node000005_Node000010"><a xlink:title=" ">
<path fill="none" stroke="#63b8ff" d="M248.62,-164.91C220.57,-156.16 185.31,-143.78 155.5,-129 127.22,-114.97 97.28,-94.08 78.51,-80.13"/>
<polygon fill="#63b8ff" stroke="#63b8ff" points="80.57,-77.3 70.47,-74.08 76.36,-82.89 80.57,-77.3"/>
</a>
</g>
</g>
<!-- Node6&#45;&gt;Node4 -->
<g id="edge7_Node000006_Node000004" class="edge">
<title>Node6&#45;&gt;Node4</title>
<g id="a_edge7_Node000006_Node000004"><a xlink:title=" ">
<path fill="none" stroke="#63b8ff" d="M297.37,-109.99C325.16,-103.68 357.31,-92.77 381.5,-74 396.63,-62.26 407.31,-42.86 413.62,-28.58"/>
<polygon fill="#63b8ff" stroke="#63b8ff" points="416.88,-29.86 417.44,-19.28 410.4,-27.2 416.88,-29.86"/>
</a>
</g>
</g>
<!-- Node7 -->
<g id="Node000007" class="node">
<title>Node7</title>
<g id="a_Node000007"><a xlink:title=" ">
<polygon fill="#e0e0e0" stroke="#999999" points="373,-74 280,-74 280,-55 373,-55 373,-74"/>
<text text-anchor="middle" x="326.5" y="-62" font-family="Helvetica,sans-Serif" font-size="10.00">unordered_map</text>
</a>
</g>
</g>
<!-- Node6&#45;&gt;Node7 -->
<g id="edge8_Node000006_Node000007" class="edge">
<title>Node6&#45;&gt;Node7</title>
<g id="a_edge8_Node000006_Node000007"><a xlink:title=" ">
<path fill="none" stroke="#63b8ff" d="M251.8,-109.98C265.6,-101.77 286.74,-89.18 303.01,-79.49"/>
<polygon fill="#63b8ff" stroke="#63b8ff" points="305.14,-82.29 311.94,-74.17 301.56,-76.28 305.14,-82.29"/>
</a>
</g>
</g>
<!-- Node8 -->
<g id="Node000008" class="node">
<title>Node8</title>
<g id="a_Node000008"><a xlink:title=" ">
<polygon fill="#e0e0e0" stroke="#999999" points="195.5,-74 137.5,-74 137.5,-55 195.5,-55 195.5,-74"/>
<text text-anchor="middle" x="166.5" y="-62" font-family="Helvetica,sans-Serif" font-size="10.00">memory</text>
</a>
</g>
</g>
<!-- Node6&#45;&gt;Node8 -->
<g id="edge9_Node000006_Node000008" class="edge">
<title>Node6&#45;&gt;Node8</title>
<g id="a_edge9_Node000006_Node000008"><a xlink:title=" ">
<path fill="none" stroke="#63b8ff" d="M226.09,-109.98C215.39,-102 199.16,-89.88 186.34,-80.31"/>
<polygon fill="#63b8ff" stroke="#63b8ff" points="188.22,-77.35 178.11,-74.17 184.03,-82.96 188.22,-77.35"/>
</a>
</g>
</g>
<!-- Node9 -->
<g id="Node000009" class="node">
<title>Node9</title>
<g id="a_Node000009"><a xlink:title=" ">
<polygon fill="#e0e0e0" stroke="#999999" points="261.5,-74 213.5,-74 213.5,-55 261.5,-55 261.5,-74"/>
<text text-anchor="middle" x="237.5" y="-62" font-family="Helvetica,sans-Serif" font-size="10.00">mutex</text>
</a>
</g>
</g>
<!-- Node6&#45;&gt;Node9 -->
<g id="edge10_Node000006_Node000009" class="edge">
<title>Node6&#45;&gt;Node9</title>
<g id="a_edge10_Node000006_Node000009"><a xlink:title=" ">
<path fill="none" stroke="#63b8ff" d="M237.5,-109.75C237.5,-102.8 237.5,-92.85 237.5,-84.13"/>
<polygon fill="#63b8ff" stroke="#63b8ff" points="241,-84.09 237.5,-74.09 234,-84.09 241,-84.09"/>
</a>
</g>
</g>
<!-- Node6&#45;&gt;Node10 -->
<g id="edge11_Node000006_Node000010" class="edge">
<title>Node6&#45;&gt;Node10</title>
<g id="a_edge11_Node000006_Node000010"><a xlink:title=" ">
<path fill="none" stroke="#63b8ff" d="M208.9,-109.98C178.89,-101.05 131.52,-86.94 98.18,-77.02"/>
<polygon fill="#63b8ff" stroke="#63b8ff" points="98.91,-73.58 88.32,-74.08 96.91,-80.29 98.91,-73.58"/>
</a>
</g>
</g>
<!-- Node10&#45;&gt;Node4 -->
<g id="edge13_Node000010_Node000004" class="edge">
<title>Node10&#45;&gt;Node4</title>
<g id="a_edge13_Node000010_Node000004"><a xlink:title=" ">
<path fill="none" stroke="#63b8ff" d="M117.5,-54.98C194.21,-43.72 326.82,-24.25 387.93,-15.28"/>
<polygon fill="#63b8ff" stroke="#63b8ff" points="388.75,-18.7 398.14,-13.78 387.74,-11.77 388.75,-18.7"/>
</a>
</g>
</g>
<!-- Node11 -->
<g id="Node000011" class="node">
<title>Node11</title>
<g id="a_Node000011"><a xlink:title=" ">
<polygon fill="#e0e0e0" stroke="#999999" points="89.5,-19 29.5,-19 29.5,0 89.5,0 89.5,-19"/>
<text text-anchor="middle" x="59.5" y="-7" font-family="Helvetica,sans-Serif" font-size="10.00">iostream</text>
</a>
</g>
</g>
<!-- Node10&#45;&gt;Node11 -->
<g id="edge12_Node000010_Node000011" class="edge">
<title>Node10&#45;&gt;Node11</title>
<g id="a_edge12_Node000010_Node000011"><a xlink:title=" ">
<path fill="none" stroke="#63b8ff" d="M59.5,-54.75C59.5,-47.8 59.5,-37.85 59.5,-29.13"/>
<polygon fill="#63b8ff" stroke="#63b8ff" points="63,-29.09 59.5,-19.09 56,-29.09 63,-29.09"/>
</a>
</g>
</g>
<!-- Node12&#45;&gt;Node6 -->
<g id="edge17_Node000012_Node000006" class="edge">
<title>Node12&#45;&gt;Node6</title>
<g id="a_edge17_Node000012_Node000006"><a xlink:title=" ">
<path fill="none" stroke="#63b8ff" d="M185.5,-170.37C194.87,-161.38 209.75,-147.11 221.2,-136.14"/>
<polygon fill="#63b8ff" stroke="#63b8ff" points="223.67,-138.62 228.46,-129.17 218.82,-133.56 223.67,-138.62"/>
</a>
</g>
</g>
<!-- Node12&#45;&gt;Node10 -->
<g id="edge18_Node000012_Node000010" class="edge">
<title>Node12&#45;&gt;Node10</title>
<g id="a_edge18_Node000012_Node000010"><a xlink:title=" ">
<path fill="none" stroke="#63b8ff" d="M163.59,-170.15C150.18,-160.69 128.91,-144.89 112.5,-129 97.41,-114.39 82.27,-95.75 72.05,-82.45"/>
<polygon fill="#63b8ff" stroke="#63b8ff" points="74.65,-80.08 65.83,-74.21 69.06,-84.3 74.65,-80.08"/>
</a>
</g>
</g>
<!-- Node14 -->
<g id="Node000014" class="node">
<title>Node14</title>
<g id="a_Node000014"><a xlink:title=" ">
<polygon fill="#e0e0e0" stroke="#999999" points="575.5,-255.5 525.5,-255.5 525.5,-236.5 575.5,-236.5 575.5,-255.5"/>
<text text-anchor="middle" x="550.5" y="-243.5" font-family="Helvetica,sans-Serif" font-size="10.00">atomic</text>
</a>
</g>
</g>
<!-- Node13&#45;&gt;Node14 -->
<g id="edge20_Node000013_Node000014" class="edge">
<title>Node13&#45;&gt;Node14</title>
<g id="a_edge20_Node000013_Node000014"><a xlink:title=" ">
<path fill="none" stroke="#63b8ff" d="M492.53,-296.87C503.08,-287.8 519.89,-273.34 532.69,-262.32"/>
<polygon fill="#63b8ff" stroke="#63b8ff" points="535.13,-264.84 540.43,-255.67 530.56,-259.54 535.13,-264.84"/>
</a>
</g>
</g>
<!-- Node15 -->
<g id="Node000015" class="node">
<title>Node15</title>
<g id="a_Node000015"><a xlink:title=" ">
<polygon fill="#e0e0e0" stroke="#999999" points="507.5,-255.5 457.5,-255.5 457.5,-236.5 507.5,-236.5 507.5,-255.5"/>
<text text-anchor="middle" x="482.5" y="-243.5" font-family="Helvetica,sans-Serif" font-size="10.00">cstdint</text>
</a>
</g>
</g>
<!-- Node13&#45;&gt;Node15 -->
<g id="edge21_Node000013_Node000015" class="edge">
<title>Node13&#45;&gt;Node15</title>
<g id="a_edge21_Node000013_Node000015"><a xlink:title=" ">
<path fill="none" stroke="#63b8ff" d="M482.5,-296.87C482.5,-288.75 482.5,-276.31 482.5,-265.89"/>
<polygon fill="#63b8ff" stroke="#63b8ff" points="486,-265.67 482.5,-255.67 479,-265.67 486,-265.67"/>
</a>
</g>
</g>
</g>
</svg>
