<?xml version="1.0" encoding="UTF-8" standalone="no"?>
<!DOCTYPE svg PUBLIC "-//W3C//DTD SVG 1.1//EN"
 "http://www.w3.org/Graphics/SVG/1.1/DTD/svg11.dtd">
<!-- Generated by graphviz version 2.43.0 (0)
 -->
<!-- Title: include/helios/util/log/_module.ixx Pages: 1 -->
<svg width="396pt" height="203pt"
 viewBox="0.00 0.00 396.49 203.00" xmlns="http://www.w3.org/2000/svg" xmlns:xlink="http://www.w3.org/1999/xlink">

<svg id="main" version="1.1" xmlns="http://www.w3.org/2000/svg" xmlns:xlink="http://www.w3.org/1999/xlink" xml:space="preserve">

<style type="text/css"><![CDATA[
.node, .edge {opacity: 0.7;}
.node.selected, .edge.selected {opacity: 1;}
.edge:hover path { stroke: red; }
.edge:hover polygon { stroke: red; fill: red; }
]]></style>
<script type="application/ecmascript" xlink:href="svg.min.js"/>
<svg id="graph" class="graph">
<g id="graph0" class="graph" transform="scale(1 1) rotate(0) translate(4 199)">
<title>include/helios/util/log/_module.ixx</title>
<!-- Node1 -->
<g id="Node000001" class="node">
<title>Node1</title>
<g id="a_Node000001"><a xlink:title=" ">
<polygon fill="#999999" stroke="#666666" points="292.49,-195 189.49,-195 189.49,-165 292.49,-165 292.49,-195"/>
<text text-anchor="start" x="197.49" y="-183" font-family="Helvetica,sans-Serif" font-size="10.00">include/helios/util</text>
<text text-anchor="middle" x="240.99" y="-172" font-family="Helvetica,sans-Serif" font-size="10.00">/log/_module.ixx</text>
</a>
</g>
</g>
<!-- Node2 -->
<g id="Node000002" class="node">
<title>Node2</title>
<g id="a_Node000002"><a xlink:href="LogManager_8ixx.html" target="_top" xlink:title=" ">
<polygon fill="white" stroke="#666666" points="263.99,-129 117.99,-129 117.99,-110 263.99,-110 263.99,-129"/>
<text text-anchor="middle" x="190.99" y="-117" font-family="Helvetica,sans-Serif" font-size="10.00">helios.util.log.LogManager</text>
</a>
</g>
</g>
<!-- Node1&#45;&gt;Node2 -->
<g id="edge1_Node000001_Node000002" class="edge">
<title>Node1&#45;&gt;Node2</title>
<g id="a_edge1_Node000001_Node000002"><a xlink:title=" ">
<path fill="none" stroke="#63b8ff" d="M228.89,-164.84C221.71,-156.43 212.57,-145.74 205.06,-136.96"/>
<polygon fill="#63b8ff" stroke="#63b8ff" points="207.64,-134.59 198.49,-129.27 202.32,-139.14 207.64,-134.59"/>
</a>
</g>
</g>
<!-- Node7 -->
<g id="Node000007" class="node">
<title>Node7</title>
<g id="a_Node000007"><a xlink:href="Logger_8ixx.html" target="_top" xlink:title=" ">
<polygon fill="white" stroke="#666666" points="388.49,-74 269.49,-74 269.49,-55 388.49,-55 388.49,-74"/>
<text text-anchor="middle" x="328.99" y="-62" font-family="Helvetica,sans-Serif" font-size="10.00">helios.util.log.Logger</text>
</a>
</g>
</g>
<!-- Node1&#45;&gt;Node7 -->
<g id="edge9_Node000001_Node000007" class="edge">
<title>Node1&#45;&gt;Node7</title>
<g id="a_edge9_Node000001_Node000007"><a xlink:title=" ">
<path fill="none" stroke="#63b8ff" d="M252.14,-164.63C268.4,-143.65 298.57,-104.75 315.87,-82.42"/>
<polygon fill="#63b8ff" stroke="#63b8ff" points="318.87,-84.28 322.23,-74.23 313.33,-79.99 318.87,-84.28"/>
</a>
</g>
</g>
<!-- Node3 -->
<g id="Node000003" class="node">
<title>Node3</title>
<g id="a_Node000003"><a xlink:title=" ">
<polygon fill="#e0e0e0" stroke="#999999" points="144.99,-19 100.99,-19 100.99,0 144.99,0 144.99,-19"/>
<text text-anchor="middle" x="122.99" y="-7" font-family="Helvetica,sans-Serif" font-size="10.00">string</text>
</a>
</g>
</g>
<!-- Node2&#45;&gt;Node3 -->
<g id="edge2_Node000002_Node000003" class="edge">
<title>Node2&#45;&gt;Node3</title>
<g id="a_edge2_Node000002_Node000003"><a xlink:title=" ">
<path fill="none" stroke="#63b8ff" d="M117.81,-110.19C72.38,-103.35 20.05,-91.84 5.99,-74 -19.64,-41.47 47.96,-23.36 90.82,-15.43"/>
<polygon fill="#63b8ff" stroke="#63b8ff" points="91.6,-18.85 100.85,-13.67 90.39,-11.95 91.6,-18.85"/>
</a>
</g>
</g>
<!-- Node4 -->
<g id="Node000004" class="node">
<title>Node4</title>
<g id="a_Node000004"><a xlink:title=" ">
<polygon fill="#e0e0e0" stroke="#999999" points="108.49,-74 15.49,-74 15.49,-55 108.49,-55 108.49,-74"/>
<text text-anchor="middle" x="61.99" y="-62" font-family="Helvetica,sans-Serif" font-size="10.00">unordered_map</text>
</a>
</g>
</g>
<!-- Node2&#45;&gt;Node4 -->
<g id="edge3_Node000002_Node000004" class="edge">
<title>Node2&#45;&gt;Node4</title>
<g id="a_edge3_Node000002_Node000004"><a xlink:title=" ">
<path fill="none" stroke="#63b8ff" d="M170.27,-109.98C149.24,-101.34 116.45,-87.87 92.46,-78.02"/>
<polygon fill="#63b8ff" stroke="#63b8ff" points="93.68,-74.73 83.1,-74.17 91.02,-81.21 93.68,-74.73"/>
</a>
</g>
</g>
<!-- Node5 -->
<g id="Node000005" class="node">
<title>Node5</title>
<g id="a_Node000005"><a xlink:title=" ">
<polygon fill="#e0e0e0" stroke="#999999" points="184.99,-74 126.99,-74 126.99,-55 184.99,-55 184.99,-74"/>
<text text-anchor="middle" x="155.99" y="-62" font-family="Helvetica,sans-Serif" font-size="10.00">memory</text>
</a>
</g>
</g>
<!-- Node2&#45;&gt;Node5 -->
<g id="edge4_Node000002_Node000005" class="edge">
<title>Node2&#45;&gt;Node5</title>
<g id="a_edge4_Node000002_Node000005"><a xlink:title=" ">
<path fill="none" stroke="#63b8ff" d="M185.22,-109.75C180.37,-102.42 173.32,-91.73 167.35,-82.7"/>
<polygon fill="#63b8ff" stroke="#63b8ff" points="170.1,-80.5 161.67,-74.09 164.26,-84.36 170.1,-80.5"/>
</a>
</g>
</g>
<!-- Node6 -->
<g id="Node000006" class="node">
<title>Node6</title>
<g id="a_Node000006"><a xlink:title=" ">
<polygon fill="#e0e0e0" stroke="#999999" points="250.99,-74 202.99,-74 202.99,-55 250.99,-55 250.99,-74"/>
<text text-anchor="middle" x="226.99" y="-62" font-family="Helvetica,sans-Serif" font-size="10.00">mutex</text>
</a>
</g>
</g>
<!-- Node2&#45;&gt;Node6 -->
<g id="edge5_Node000002_Node000006" class="edge">
<title>Node2&#45;&gt;Node6</title>
<g id="a_edge5_Node000002_Node000006"><a xlink:title=" ">
<path fill="none" stroke="#63b8ff" d="M196.94,-109.75C201.97,-102.34 209.33,-91.5 215.51,-82.41"/>
<polygon fill="#63b8ff" stroke="#63b8ff" points="218.44,-84.33 221.16,-74.09 212.65,-80.39 218.44,-84.33"/>
</a>
</g>
</g>
<!-- Node2&#45;&gt;Node7 -->
<g id="edge6_Node000002_Node000007" class="edge">
<title>Node2&#45;&gt;Node7</title>
<g id="a_edge6_Node000002_Node000007"><a xlink:title=" ">
<path fill="none" stroke="#63b8ff" d="M213.17,-109.98C235.77,-101.3 271.06,-87.75 296.75,-77.88"/>
<polygon fill="#63b8ff" stroke="#63b8ff" points="298.34,-81.02 306.42,-74.17 295.83,-74.49 298.34,-81.02"/>
</a>
</g>
</g>
<!-- Node7&#45;&gt;Node3 -->
<g id="edge8_Node000007_Node000003" class="edge">
<title>Node7&#45;&gt;Node3</title>
<g id="a_edge8_Node000007_Node000003"><a xlink:title=" ">
<path fill="none" stroke="#63b8ff" d="M295.9,-54.98C257.22,-45.03 193.66,-28.68 155.32,-18.82"/>
<polygon fill="#63b8ff" stroke="#63b8ff" points="155.77,-15.32 145.22,-16.22 154.03,-22.1 155.77,-15.32"/>
</a>
</g>
</g>
<!-- Node8 -->
<g id="Node000008" class="node">
<title>Node8</title>
<g id="a_Node000008"><a xlink:title=" ">
<polygon fill="#e0e0e0" stroke="#999999" points="358.99,-19 298.99,-19 298.99,0 358.99,0 358.99,-19"/>
<text text-anchor="middle" x="328.99" y="-7" font-family="Helvetica,sans-Serif" font-size="10.00">iostream</text>
</a>
</g>
</g>
<!-- Node7&#45;&gt;Node8 -->
<g id="edge7_Node000007_Node000008" class="edge">
<title>Node7&#45;&gt;Node8</title>
<g id="a_edge7_Node000007_Node000008"><a xlink:title=" ">
<path fill="none" stroke="#63b8ff" d="M328.99,-54.75C328.99,-47.8 328.99,-37.85 328.99,-29.13"/>
<polygon fill="#63b8ff" stroke="#63b8ff" points="332.49,-29.09 328.99,-19.09 325.49,-29.09 332.49,-29.09"/>
</a>
</g>
</g>
</g>
</svg>
</svg>

<style type='text/css'>
<![CDATA[
[data-mouse-over-selected='false'] { opacity: 0.7; }
[data-mouse-over-selected='true']  { opacity: 1.0; }
]]>
</style>
<script type="application/ecmascript"><![CDATA[
document.addEventListener('DOMContentLoaded', (event) => {
  highlightEdges();
  highlightAdjacentNodes();
});
]]></script>
</svg>
