<?xml version="1.0" encoding="UTF-8" standalone="no"?>
<!DOCTYPE svg PUBLIC "-//W3C//DTD SVG 1.1//EN"
 "http://www.w3.org/Graphics/SVG/1.1/DTD/svg11.dtd">
<!-- Generated by graphviz version 2.43.0 (0)
 -->
<!-- Title: include/helios/math/types/vec2.ixx Pages: 1 -->
<svg width="294pt" height="95pt"
 viewBox="0.00 0.00 293.50 95.20" xmlns="http://www.w3.org/2000/svg" xmlns:xlink="http://www.w3.org/1999/xlink">
<g id="graph0" class="graph" transform="scale(1 1) rotate(0) translate(4 91.2)">
<title>include/helios/math/types/vec2.ixx</title>
<!-- Node1 -->
<g id="Node000001" class="node">
<title>Node1</title>
<g id="a_Node000001"><a xlink:title=" ">
<polygon fill="#999999" stroke="#666666" points="155.5,-87.2 42.5,-87.2 42.5,-57.2 155.5,-57.2 155.5,-87.2"/>
<text text-anchor="start" x="50.5" y="-75.2" font-family="Helvetica,sans-Serif" font-size="10.00">include/helios/math</text>
<text text-anchor="middle" x="99" y="-64.2" font-family="Helvetica,sans-Serif" font-size="10.00">/types/vec2.ixx</text>
</a>
</g>
</g>
<!-- Node2 -->
<g id="Node000002" class="node">
<title>Node2</title>
<g id="a_Node000002"><a xlink:title=" ">
<polygon fill="#e0e0e0" stroke="#999999" points="52,-21.2 0,-21.2 0,-2.2 52,-2.2 52,-21.2"/>
<text text-anchor="middle" x="26" y="-9.2" font-family="Helvetica,sans-Serif" font-size="10.00">cassert</text>
</a>
</g>
</g>
<!-- Node1&#45;&gt;Node2 -->
<g id="edge1_Node000001_Node000002" class="edge">
<title>Node1&#45;&gt;Node2</title>
<g id="a_edge1_Node000001_Node000002"><a xlink:title=" ">
<path fill="none" stroke="#63b8ff" d="M81.33,-57.04C70.3,-48.2 56.11,-36.83 44.87,-27.82"/>
<polygon fill="#63b8ff" stroke="#63b8ff" points="46.93,-24.99 36.94,-21.47 42.55,-30.45 46.93,-24.99"/>
</a>
</g>
</g>
<!-- Node3 -->
<g id="Node000003" class="node">
<title>Node3</title>
<g id="a_Node000003"><a xlink:title=" ">
<polygon fill="#e0e0e0" stroke="#999999" points="128,-21.2 70,-21.2 70,-2.2 128,-2.2 128,-21.2"/>
<text text-anchor="middle" x="99" y="-9.2" font-family="Helvetica,sans-Serif" font-size="10.00">memory</text>
</a>
</g>
</g>
<!-- Node1&#45;&gt;Node3 -->
<g id="edge2_Node000001_Node000003" class="edge">
<title>Node1&#45;&gt;Node3</title>
<g id="a_edge2_Node000001_Node000003"><a xlink:title=" ">
<path fill="none" stroke="#63b8ff" d="M99,-57.04C99,-49.41 99,-39.9 99,-31.65"/>
<polygon fill="#63b8ff" stroke="#63b8ff" points="102.5,-31.47 99,-21.47 95.5,-31.47 102.5,-31.47"/>
</a>
</g>
</g>
<!-- Node4 -->
<g id="Node000004" class="node">
<title>Node4</title>
<g id="a_Node000004"><a xlink:href="math_2concepts_2__module_8ixx.html" target="_top" xlink:title=" ">
<polygon fill="white" stroke="#666666" points="267.5,-21.2 146.5,-21.2 146.5,-2.2 267.5,-2.2 267.5,-21.2"/>
<text text-anchor="middle" x="207" y="-9.2" font-family="Helvetica,sans-Serif" font-size="10.00">helios.math.concepts</text>
</a>
</g>
</g>
<!-- Node1&#45;&gt;Node4 -->
<g id="edge3_Node000001_Node000004" class="edge">
<title>Node1&#45;&gt;Node4</title>
<g id="a_edge3_Node000001_Node000004"><a xlink:title=" ">
<path fill="none" stroke="#63b8ff" d="M124.87,-57.19C142.24,-47.78 165.01,-35.44 182.17,-26.15"/>
<polygon fill="#63b8ff" stroke="#63b8ff" points="183.92,-29.18 191.05,-21.34 180.59,-23.02 183.92,-29.18"/>
</a>
</g>
</g>
<!-- Node4&#45;&gt;Node4 -->
<g id="edge4_Node000004_Node000004" class="edge">
<title>Node4&#45;&gt;Node4</title>
<g id="a_edge4_Node000004_Node000004"><a xlink:title=" ">
<path fill="none" stroke="#63b8ff" d="M235.99,-21.23C260.2,-25.31 285.5,-22.13 285.5,-11.7 285.5,-2.7 266.64,0.9 245.91,-0.9"/>
<polygon fill="#63b8ff" stroke="#63b8ff" points="245.46,2.57 235.99,-2.17 246.35,-4.38 245.46,2.57"/>
</a>
</g>
</g>
</g>
</svg>
