<?xml version="1.0" encoding="UTF-8" standalone="no"?>
<!DOCTYPE svg PUBLIC "-//W3C//DTD SVG 1.1//EN"
 "http://www.w3.org/Graphics/SVG/1.1/DTD/svg11.dtd">
<!-- Generated by graphviz version 2.43.0 (0)
 -->
<!-- Title: include/helios/math/types/vec2.ixx Pages: 1 -->
<svg width="524pt" height="159pt"
 viewBox="0.00 0.00 523.50 159.00" xmlns="http://www.w3.org/2000/svg" xmlns:xlink="http://www.w3.org/1999/xlink">
<g id="graph0" class="graph" transform="scale(1 1) rotate(0) translate(4 155)">
<title>include/helios/math/types/vec2.ixx</title>
<!-- Node1 -->
<g id="Node000001" class="node">
<title>Node1</title>
<g id="a_Node000001"><a xlink:title="2D vector type and utility functions.">
<polygon fill="#999999" stroke="#666666" points="221.5,-151 108.5,-151 108.5,-121 221.5,-121 221.5,-151"/>
<text text-anchor="start" x="116.5" y="-139" font-family="Helvetica,sans-Serif" font-size="10.00">include/helios/math</text>
<text text-anchor="middle" x="165" y="-128" font-family="Helvetica,sans-Serif" font-size="10.00">/types/vec2.ixx</text>
</a>
</g>
</g>
<!-- Node2 -->
<g id="Node000002" class="node">
<title>Node2</title>
<g id="a_Node000002"><a xlink:title=" ">
<polygon fill="#e0e0e0" stroke="#999999" points="52,-79.5 0,-79.5 0,-60.5 52,-60.5 52,-79.5"/>
<text text-anchor="middle" x="26" y="-67.5" font-family="Helvetica,sans-Serif" font-size="10.00">cassert</text>
</a>
</g>
</g>
<!-- Node1&#45;&gt;Node2 -->
<g id="edge1_Node000001_Node000002" class="edge">
<title>Node1&#45;&gt;Node2</title>
<g id="a_edge1_Node000001_Node000002"><a xlink:title=" ">
<path fill="none" stroke="#63b8ff" d="M134.5,-120.95C110.44,-109.88 77.17,-94.56 53.84,-83.82"/>
<polygon fill="#63b8ff" stroke="#63b8ff" points="55.05,-80.52 44.5,-79.52 52.12,-86.88 55.05,-80.52"/>
</a>
</g>
</g>
<!-- Node3 -->
<g id="Node000003" class="node">
<title>Node3</title>
<g id="a_Node000003"><a xlink:title=" ">
<polygon fill="#e0e0e0" stroke="#999999" points="117.5,-79.5 70.5,-79.5 70.5,-60.5 117.5,-60.5 117.5,-79.5"/>
<text text-anchor="middle" x="94" y="-67.5" font-family="Helvetica,sans-Serif" font-size="10.00">cmath</text>
</a>
</g>
</g>
<!-- Node1&#45;&gt;Node3 -->
<g id="edge2_Node000001_Node000003" class="edge">
<title>Node1&#45;&gt;Node3</title>
<g id="a_edge2_Node000001_Node000003"><a xlink:title=" ">
<path fill="none" stroke="#63b8ff" d="M149.24,-120.8C138.07,-110.72 123.06,-97.19 111.51,-86.78"/>
<polygon fill="#63b8ff" stroke="#63b8ff" points="113.58,-83.94 103.81,-79.84 108.9,-89.14 113.58,-83.94"/>
</a>
</g>
</g>
<!-- Node4 -->
<g id="Node000004" class="node">
<title>Node4</title>
<g id="a_Node000004"><a xlink:title=" ">
<polygon fill="#e0e0e0" stroke="#999999" points="194,-79.5 136,-79.5 136,-60.5 194,-60.5 194,-79.5"/>
<text text-anchor="middle" x="165" y="-67.5" font-family="Helvetica,sans-Serif" font-size="10.00">memory</text>
</a>
</g>
</g>
<!-- Node1&#45;&gt;Node4 -->
<g id="edge3_Node000001_Node000004" class="edge">
<title>Node1&#45;&gt;Node4</title>
<g id="a_edge3_Node000001_Node000004"><a xlink:title=" ">
<path fill="none" stroke="#63b8ff" d="M165,-120.8C165,-111.7 165,-99.79 165,-89.9"/>
<polygon fill="#63b8ff" stroke="#63b8ff" points="168.5,-89.84 165,-79.84 161.5,-89.84 168.5,-89.84"/>
</a>
</g>
</g>
<!-- Node5 -->
<g id="Node000005" class="node">
<title>Node5</title>
<g id="a_Node000005"><a xlink:href="FloatingPointTypeTrait_8ixx.html" target="_top" xlink:title=" ">
<polygon fill="white" stroke="#666666" points="358,-85 212,-85 212,-55 358,-55 358,-85"/>
<text text-anchor="start" x="220" y="-73" font-family="Helvetica,sans-Serif" font-size="10.00">helios.math.traits.Floating</text>
<text text-anchor="middle" x="285" y="-62" font-family="Helvetica,sans-Serif" font-size="10.00">PointType</text>
</a>
</g>
</g>
<!-- Node1&#45;&gt;Node5 -->
<g id="edge4_Node000001_Node000005" class="edge">
<title>Node1&#45;&gt;Node5</title>
<g id="a_edge4_Node000001_Node000005"><a xlink:title=" ">
<path fill="none" stroke="#63b8ff" d="M191.33,-120.95C208.53,-111.78 231.18,-99.71 249.89,-89.72"/>
<polygon fill="#63b8ff" stroke="#63b8ff" points="251.55,-92.81 258.73,-85.01 248.26,-86.63 251.55,-92.81"/>
</a>
</g>
</g>
<!-- Node7 -->
<g id="Node000007" class="node">
<title>Node7</title>
<g id="a_Node000007"><a xlink:href="helios_2math_2concepts_2__module_8ixx.html" target="_top" xlink:title="Math concepts module exports.">
<polygon fill="white" stroke="#666666" points="497.5,-79.5 376.5,-79.5 376.5,-60.5 497.5,-60.5 497.5,-79.5"/>
<text text-anchor="middle" x="437" y="-67.5" font-family="Helvetica,sans-Serif" font-size="10.00">helios.math.concepts</text>
</a>
</g>
</g>
<!-- Node1&#45;&gt;Node7 -->
<g id="edge6_Node000001_Node000007" class="edge">
<title>Node1&#45;&gt;Node7</title>
<g id="a_edge6_Node000001_Node000007"><a xlink:title=" ">
<path fill="none" stroke="#63b8ff" d="M221.69,-121.66C271.88,-109.85 344.21,-92.83 390.92,-81.84"/>
<polygon fill="#63b8ff" stroke="#63b8ff" points="391.83,-85.22 400.77,-79.53 390.23,-78.41 391.83,-85.22"/>
</a>
</g>
</g>
<!-- Node6 -->
<g id="Node000006" class="node">
<title>Node6</title>
<g id="a_Node000006"><a xlink:title=" ">
<polygon fill="#e0e0e0" stroke="#999999" points="319.5,-19 250.5,-19 250.5,0 319.5,0 319.5,-19"/>
<text text-anchor="middle" x="285" y="-7" font-family="Helvetica,sans-Serif" font-size="10.00">type_traits</text>
</a>
</g>
</g>
<!-- Node5&#45;&gt;Node6 -->
<g id="edge5_Node000005_Node000006" class="edge">
<title>Node5&#45;&gt;Node6</title>
<g id="a_edge5_Node000005_Node000006"><a xlink:title=" ">
<path fill="none" stroke="#63b8ff" d="M285,-54.84C285,-47.21 285,-37.7 285,-29.45"/>
<polygon fill="#63b8ff" stroke="#63b8ff" points="288.5,-29.27 285,-19.27 281.5,-29.27 288.5,-29.27"/>
</a>
</g>
</g>
<!-- Node7&#45;&gt;Node7 -->
<g id="edge7_Node000007_Node000007" class="edge">
<title>Node7&#45;&gt;Node7</title>
<g id="a_edge7_Node000007_Node000007"><a xlink:title=" ">
<path fill="none" stroke="#63b8ff" d="M465.99,-79.53C490.2,-83.61 515.5,-80.43 515.5,-70 515.5,-61 496.64,-57.4 475.91,-59.2"/>
<polygon fill="#63b8ff" stroke="#63b8ff" points="475.46,-55.73 465.99,-60.47 476.35,-62.67 475.46,-55.73"/>
</a>
</g>
</g>
</g>
</svg>
