<?xml version="1.0" encoding="UTF-8" standalone="no"?>
<!DOCTYPE svg PUBLIC "-//W3C//DTD SVG 1.1//EN"
 "http://www.w3.org/Graphics/SVG/1.1/DTD/svg11.dtd">
<!-- Generated by graphviz version 2.43.0 (0)
 -->
<!-- Title: include/helios/math/types/vec3.ixx Pages: 1 -->
<svg width="527pt" height="95pt"
 viewBox="0.00 0.00 526.50 95.21" xmlns="http://www.w3.org/2000/svg" xmlns:xlink="http://www.w3.org/1999/xlink">
<g id="graph0" class="graph" transform="scale(1 1) rotate(0) translate(4 91.21)">
<title>include/helios/math/types/vec3.ixx</title>
<!-- Node1 -->
<g id="Node000001" class="node">
<title>Node1</title>
<g id="a_Node000001"><a xlink:title=" ">
<polygon fill="#999999" stroke="#666666" points="221.5,-87.21 108.5,-87.21 108.5,-57.21 221.5,-57.21 221.5,-87.21"/>
<text text-anchor="start" x="116.5" y="-75.21" font-family="Helvetica,sans-Serif" font-size="10.00">include/helios/math</text>
<text text-anchor="middle" x="165" y="-64.21" font-family="Helvetica,sans-Serif" font-size="10.00">/types/vec3.ixx</text>
</a>
</g>
</g>
<!-- Node2 -->
<g id="Node000002" class="node">
<title>Node2</title>
<g id="a_Node000002"><a xlink:title=" ">
<polygon fill="#e0e0e0" stroke="#999999" points="52,-21.21 0,-21.21 0,-2.21 52,-2.21 52,-21.21"/>
<text text-anchor="middle" x="26" y="-9.21" font-family="Helvetica,sans-Serif" font-size="10.00">cassert</text>
</a>
</g>
</g>
<!-- Node1&#45;&gt;Node2 -->
<g id="edge1_Node000001_Node000002" class="edge">
<title>Node1&#45;&gt;Node2</title>
<g id="a_edge1_Node000001_Node000002"><a xlink:title=" ">
<path fill="none" stroke="#63b8ff" d="M131.71,-57.2C108.62,-47.48 78.13,-34.65 55.84,-25.27"/>
<polygon fill="#63b8ff" stroke="#63b8ff" points="57.1,-22 46.53,-21.35 54.39,-28.45 57.1,-22"/>
</a>
</g>
</g>
<!-- Node3 -->
<g id="Node000003" class="node">
<title>Node3</title>
<g id="a_Node000003"><a xlink:title=" ">
<polygon fill="#e0e0e0" stroke="#999999" points="117.5,-21.21 70.5,-21.21 70.5,-2.21 117.5,-2.21 117.5,-21.21"/>
<text text-anchor="middle" x="94" y="-9.21" font-family="Helvetica,sans-Serif" font-size="10.00">cmath</text>
</a>
</g>
</g>
<!-- Node1&#45;&gt;Node3 -->
<g id="edge2_Node000001_Node000003" class="edge">
<title>Node1&#45;&gt;Node3</title>
<g id="a_edge2_Node000001_Node000003"><a xlink:title=" ">
<path fill="none" stroke="#63b8ff" d="M147.81,-57.05C137.19,-48.29 123.56,-37.06 112.67,-28.09"/>
<polygon fill="#63b8ff" stroke="#63b8ff" points="114.58,-25.13 104.64,-21.47 110.13,-30.53 114.58,-25.13"/>
</a>
</g>
</g>
<!-- Node4 -->
<g id="Node000004" class="node">
<title>Node4</title>
<g id="a_Node000004"><a xlink:title=" ">
<polygon fill="#e0e0e0" stroke="#999999" points="194,-21.21 136,-21.21 136,-2.21 194,-2.21 194,-21.21"/>
<text text-anchor="middle" x="165" y="-9.21" font-family="Helvetica,sans-Serif" font-size="10.00">memory</text>
</a>
</g>
</g>
<!-- Node1&#45;&gt;Node4 -->
<g id="edge3_Node000001_Node000004" class="edge">
<title>Node1&#45;&gt;Node4</title>
<g id="a_edge3_Node000001_Node000004"><a xlink:title=" ">
<path fill="none" stroke="#63b8ff" d="M165,-57.05C165,-49.42 165,-39.91 165,-31.66"/>
<polygon fill="#63b8ff" stroke="#63b8ff" points="168.5,-31.47 165,-21.47 161.5,-31.47 168.5,-31.47"/>
</a>
</g>
</g>
<!-- Node5 -->
<g id="Node000005" class="node">
<title>Node5</title>
<g id="a_Node000005"><a xlink:href="math_2concepts_2__module_8ixx.html" target="_top" xlink:title=" ">
<polygon fill="white" stroke="#666666" points="333.5,-21.21 212.5,-21.21 212.5,-2.21 333.5,-2.21 333.5,-21.21"/>
<text text-anchor="middle" x="273" y="-9.21" font-family="Helvetica,sans-Serif" font-size="10.00">helios.math.concepts</text>
</a>
</g>
</g>
<!-- Node1&#45;&gt;Node5 -->
<g id="edge4_Node000001_Node000005" class="edge">
<title>Node1&#45;&gt;Node5</title>
<g id="a_edge4_Node000001_Node000005"><a xlink:title=" ">
<path fill="none" stroke="#63b8ff" d="M190.87,-57.2C208.24,-47.78 231.01,-35.45 248.17,-26.16"/>
<polygon fill="#63b8ff" stroke="#63b8ff" points="249.92,-29.19 257.05,-21.35 246.59,-23.03 249.92,-29.19"/>
</a>
</g>
</g>
<!-- Node6 -->
<g id="Node000006" class="node">
<title>Node6</title>
<g id="a_Node000006"><a xlink:href="math_2types_2__module_8ixx.html" target="_top" xlink:title=" ">
<polygon fill="white" stroke="#666666" points="500.5,-21.21 369.5,-21.21 369.5,-2.21 500.5,-2.21 500.5,-21.21"/>
<text text-anchor="middle" x="435" y="-9.21" font-family="Helvetica,sans-Serif" font-size="10.00">helios.math.types:vec2</text>
</a>
</g>
</g>
<!-- Node1&#45;&gt;Node6 -->
<g id="edge6_Node000001_Node000006" class="edge">
<title>Node1&#45;&gt;Node6</title>
<g id="a_edge6_Node000001_Node000006"><a xlink:title=" ">
<path fill="none" stroke="#63b8ff" d="M221.6,-58.94C270.15,-48.43 339.4,-33.42 385.71,-23.39"/>
<polygon fill="#63b8ff" stroke="#63b8ff" points="386.48,-26.8 395.51,-21.26 385,-19.96 386.48,-26.8"/>
</a>
</g>
</g>
<!-- Node5&#45;&gt;Node5 -->
<g id="edge5_Node000005_Node000005" class="edge">
<title>Node5&#45;&gt;Node5</title>
<g id="a_edge5_Node000005_Node000005"><a xlink:title=" ">
<path fill="none" stroke="#63b8ff" d="M301.99,-21.24C326.2,-25.32 351.5,-22.14 351.5,-11.71 351.5,-2.7 332.64,0.9 311.91,-0.91"/>
<polygon fill="#63b8ff" stroke="#63b8ff" points="311.46,2.56 301.99,-2.17 312.35,-4.38 311.46,2.56"/>
</a>
</g>
</g>
<!-- Node6&#45;&gt;Node6 -->
<g id="edge7_Node000006_Node000006" class="edge">
<title>Node6&#45;&gt;Node6</title>
<g id="a_edge7_Node000006_Node000006"><a xlink:title=" ">
<path fill="none" stroke="#63b8ff" d="M465.83,-21.24C491.59,-25.32 518.5,-22.14 518.5,-11.71 518.5,-2.62 498.08,0.96 475.79,-0.96"/>
<polygon fill="#63b8ff" stroke="#63b8ff" points="475.33,2.51 465.83,-2.17 476.18,-4.44 475.33,2.51"/>
</a>
</g>
</g>
</g>
</svg>
