<?xml version="1.0" encoding="UTF-8" standalone="no"?>
<!DOCTYPE svg PUBLIC "-//W3C//DTD SVG 1.1//EN"
 "http://www.w3.org/Graphics/SVG/1.1/DTD/svg11.dtd">
<!-- Generated by graphviz version 2.43.0 (0)
 -->
<!-- Title: include/helios/math/types/vec3.ixx Pages: 1 -->
<svg width="691pt" height="159pt"
 viewBox="0.00 0.00 690.50 159.00" xmlns="http://www.w3.org/2000/svg" xmlns:xlink="http://www.w3.org/1999/xlink">
<g id="graph0" class="graph" transform="scale(1 1) rotate(0) translate(4 155)">
<title>include/helios/math/types/vec3.ixx</title>
<!-- Node1 -->
<g id="Node000001" class="node">
<title>Node1</title>
<g id="a_Node000001"><a xlink:title="3D vector type and utilities.">
<polygon fill="#999999" stroke="#666666" points="281.5,-151 168.5,-151 168.5,-121 281.5,-121 281.5,-151"/>
<text text-anchor="start" x="176.5" y="-139" font-family="Helvetica,sans-Serif" font-size="10.00">include/helios/math</text>
<text text-anchor="middle" x="225" y="-128" font-family="Helvetica,sans-Serif" font-size="10.00">/types/vec3.ixx</text>
</a>
</g>
</g>
<!-- Node2 -->
<g id="Node000002" class="node">
<title>Node2</title>
<g id="a_Node000002"><a xlink:title=" ">
<polygon fill="#e0e0e0" stroke="#999999" points="52,-79.5 0,-79.5 0,-60.5 52,-60.5 52,-79.5"/>
<text text-anchor="middle" x="26" y="-67.5" font-family="Helvetica,sans-Serif" font-size="10.00">cassert</text>
</a>
</g>
</g>
<!-- Node1&#45;&gt;Node2 -->
<g id="edge1_Node000001_Node000002" class="edge">
<title>Node1&#45;&gt;Node2</title>
<g id="a_edge1_Node000001_Node000002"><a xlink:title=" ">
<path fill="none" stroke="#63b8ff" d="M175.84,-120.94C143.33,-111.4 99.89,-98.16 62,-85 60.35,-84.43 58.65,-83.82 56.95,-83.2"/>
<polygon fill="#63b8ff" stroke="#63b8ff" points="57.82,-79.79 47.22,-79.55 55.36,-86.34 57.82,-79.79"/>
</a>
</g>
</g>
<!-- Node3 -->
<g id="Node000003" class="node">
<title>Node3</title>
<g id="a_Node000003"><a xlink:title=" ">
<polygon fill="#e0e0e0" stroke="#999999" points="117.5,-79.5 70.5,-79.5 70.5,-60.5 117.5,-60.5 117.5,-79.5"/>
<text text-anchor="middle" x="94" y="-67.5" font-family="Helvetica,sans-Serif" font-size="10.00">cmath</text>
</a>
</g>
</g>
<!-- Node1&#45;&gt;Node3 -->
<g id="edge2_Node000001_Node000003" class="edge">
<title>Node1&#45;&gt;Node3</title>
<g id="a_edge2_Node000001_Node000003"><a xlink:title=" ">
<path fill="none" stroke="#63b8ff" d="M196.25,-120.95C173.68,-109.93 142.51,-94.7 120.53,-83.96"/>
<polygon fill="#63b8ff" stroke="#63b8ff" points="121.96,-80.76 111.43,-79.52 118.88,-87.05 121.96,-80.76"/>
</a>
</g>
</g>
<!-- Node4 -->
<g id="Node000004" class="node">
<title>Node4</title>
<g id="a_Node000004"><a xlink:title=" ">
<polygon fill="#e0e0e0" stroke="#999999" points="194,-79.5 136,-79.5 136,-60.5 194,-60.5 194,-79.5"/>
<text text-anchor="middle" x="165" y="-67.5" font-family="Helvetica,sans-Serif" font-size="10.00">memory</text>
</a>
</g>
</g>
<!-- Node1&#45;&gt;Node4 -->
<g id="edge3_Node000001_Node000004" class="edge">
<title>Node1&#45;&gt;Node4</title>
<g id="a_edge3_Node000001_Node000004"><a xlink:title=" ">
<path fill="none" stroke="#63b8ff" d="M211.68,-120.8C202.42,-110.92 190.05,-97.72 180.37,-87.39"/>
<polygon fill="#63b8ff" stroke="#63b8ff" points="182.68,-84.75 173.29,-79.84 177.58,-89.53 182.68,-84.75"/>
</a>
</g>
</g>
<!-- Node5 -->
<g id="Node000005" class="node">
<title>Node5</title>
<g id="a_Node000005"><a xlink:href="FloatingPointTypeTrait_8ixx.html" target="_top" xlink:title=" ">
<polygon fill="white" stroke="#666666" points="358,-85 212,-85 212,-55 358,-55 358,-85"/>
<text text-anchor="start" x="220" y="-73" font-family="Helvetica,sans-Serif" font-size="10.00">helios.math.traits.Floating</text>
<text text-anchor="middle" x="285" y="-62" font-family="Helvetica,sans-Serif" font-size="10.00">PointType</text>
</a>
</g>
</g>
<!-- Node1&#45;&gt;Node5 -->
<g id="edge4_Node000001_Node000005" class="edge">
<title>Node1&#45;&gt;Node5</title>
<g id="a_edge4_Node000001_Node000005"><a xlink:title=" ">
<path fill="none" stroke="#63b8ff" d="M238.32,-120.8C246.08,-112.51 256.04,-101.89 264.76,-92.59"/>
<polygon fill="#63b8ff" stroke="#63b8ff" points="267.44,-94.85 271.72,-85.16 262.33,-90.07 267.44,-94.85"/>
</a>
</g>
</g>
<!-- Node7 -->
<g id="Node000007" class="node">
<title>Node7</title>
<g id="a_Node000007"><a xlink:href="helios_2math_2concepts_2__module_8ixx.html" target="_top" xlink:title="Math concepts module exports.">
<polygon fill="white" stroke="#666666" points="497.5,-79.5 376.5,-79.5 376.5,-60.5 497.5,-60.5 497.5,-79.5"/>
<text text-anchor="middle" x="437" y="-67.5" font-family="Helvetica,sans-Serif" font-size="10.00">helios.math.concepts</text>
</a>
</g>
</g>
<!-- Node1&#45;&gt;Node7 -->
<g id="edge6_Node000001_Node000007" class="edge">
<title>Node1&#45;&gt;Node7</title>
<g id="a_edge6_Node000001_Node000007"><a xlink:title=" ">
<path fill="none" stroke="#63b8ff" d="M271.52,-120.95C309.69,-109.43 363.05,-93.32 398.76,-82.54"/>
<polygon fill="#63b8ff" stroke="#63b8ff" points="400.22,-85.76 408.79,-79.52 398.2,-79.06 400.22,-85.76"/>
</a>
</g>
</g>
<!-- Node8 -->
<g id="Node000008" class="node">
<title>Node8</title>
<g id="a_Node000008"><a xlink:href="helios_2math_2types_2__module_8ixx.html" target="_top" xlink:title="Module exports for vector and matrix type definitions.">
<polygon fill="white" stroke="#666666" points="664.5,-79.5 533.5,-79.5 533.5,-60.5 664.5,-60.5 664.5,-79.5"/>
<text text-anchor="middle" x="599" y="-67.5" font-family="Helvetica,sans-Serif" font-size="10.00">helios.math.types:vec2</text>
</a>
</g>
</g>
<!-- Node1&#45;&gt;Node8 -->
<g id="edge8_Node000001_Node000008" class="edge">
<title>Node1&#45;&gt;Node8</title>
<g id="a_edge8_Node000001_Node000008"><a xlink:title=" ">
<path fill="none" stroke="#63b8ff" d="M281.74,-125.92C342.11,-116.17 440.39,-100.05 525,-85 531.34,-83.87 537.97,-82.66 544.56,-81.44"/>
<polygon fill="#63b8ff" stroke="#63b8ff" points="545.63,-84.8 554.81,-79.52 544.34,-77.92 545.63,-84.8"/>
</a>
</g>
</g>
<!-- Node6 -->
<g id="Node000006" class="node">
<title>Node6</title>
<g id="a_Node000006"><a xlink:title=" ">
<polygon fill="#e0e0e0" stroke="#999999" points="319.5,-19 250.5,-19 250.5,0 319.5,0 319.5,-19"/>
<text text-anchor="middle" x="285" y="-7" font-family="Helvetica,sans-Serif" font-size="10.00">type_traits</text>
</a>
</g>
</g>
<!-- Node5&#45;&gt;Node6 -->
<g id="edge5_Node000005_Node000006" class="edge">
<title>Node5&#45;&gt;Node6</title>
<g id="a_edge5_Node000005_Node000006"><a xlink:title=" ">
<path fill="none" stroke="#63b8ff" d="M285,-54.84C285,-47.21 285,-37.7 285,-29.45"/>
<polygon fill="#63b8ff" stroke="#63b8ff" points="288.5,-29.27 285,-19.27 281.5,-29.27 288.5,-29.27"/>
</a>
</g>
</g>
<!-- Node7&#45;&gt;Node7 -->
<g id="edge7_Node000007_Node000007" class="edge">
<title>Node7&#45;&gt;Node7</title>
<g id="a_edge7_Node000007_Node000007"><a xlink:title=" ">
<path fill="none" stroke="#63b8ff" d="M465.99,-79.53C490.2,-83.61 515.5,-80.43 515.5,-70 515.5,-61 496.64,-57.4 475.91,-59.2"/>
<polygon fill="#63b8ff" stroke="#63b8ff" points="475.46,-55.73 465.99,-60.47 476.35,-62.67 475.46,-55.73"/>
</a>
</g>
</g>
<!-- Node8&#45;&gt;Node8 -->
<g id="edge9_Node000008_Node000008" class="edge">
<title>Node8&#45;&gt;Node8</title>
<g id="a_edge9_Node000008_Node000008"><a xlink:title=" ">
<path fill="none" stroke="#63b8ff" d="M629.83,-79.53C655.59,-83.61 682.5,-80.43 682.5,-70 682.5,-60.91 662.08,-57.33 639.79,-59.25"/>
<polygon fill="#63b8ff" stroke="#63b8ff" points="639.33,-55.78 629.83,-60.47 640.18,-62.73 639.33,-55.78"/>
</a>
</g>
</g>
</g>
</svg>
