<?xml version="1.0" encoding="UTF-8" standalone="no"?>
<!DOCTYPE svg PUBLIC "-//W3C//DTD SVG 1.1//EN"
 "http://www.w3.org/Graphics/SVG/1.1/DTD/svg11.dtd">
<!-- Generated by graphviz version 2.43.0 (0)
 -->
<!-- Title: include/helios/math/types/vec4.ixx Pages: 1 -->
<svg width="461pt" height="95pt"
 viewBox="0.00 0.00 460.50 95.21" xmlns="http://www.w3.org/2000/svg" xmlns:xlink="http://www.w3.org/1999/xlink">
<g id="graph0" class="graph" transform="scale(1 1) rotate(0) translate(4 91.21)">
<title>include/helios/math/types/vec4.ixx</title>
<!-- Node1 -->
<g id="Node000001" class="node">
<title>Node1</title>
<g id="a_Node000001"><a xlink:title="4D vector type and utilities.">
<polygon fill="#999999" stroke="#666666" points="211.5,-87.21 98.5,-87.21 98.5,-57.21 211.5,-57.21 211.5,-87.21"/>
<text text-anchor="start" x="106.5" y="-75.21" font-family="Helvetica,sans-Serif" font-size="10.00">include/helios/math</text>
<text text-anchor="middle" x="155" y="-64.21" font-family="Helvetica,sans-Serif" font-size="10.00">/types/vec4.ixx</text>
</a>
</g>
</g>
<!-- Node2 -->
<g id="Node000002" class="node">
<title>Node2</title>
<g id="a_Node000002"><a xlink:title=" ">
<polygon fill="#e0e0e0" stroke="#999999" points="52,-21.21 0,-21.21 0,-2.21 52,-2.21 52,-21.21"/>
<text text-anchor="middle" x="26" y="-9.21" font-family="Helvetica,sans-Serif" font-size="10.00">cassert</text>
</a>
</g>
</g>
<!-- Node1&#45;&gt;Node2 -->
<g id="edge1_Node000001_Node000002" class="edge">
<title>Node1&#45;&gt;Node2</title>
<g id="a_edge1_Node000001_Node000002"><a xlink:title=" ">
<path fill="none" stroke="#63b8ff" d="M124.1,-57.2C102.87,-47.57 74.89,-34.88 54.25,-25.52"/>
<polygon fill="#63b8ff" stroke="#63b8ff" points="55.6,-22.29 45.05,-21.35 52.71,-28.66 55.6,-22.29"/>
</a>
</g>
</g>
<!-- Node3 -->
<g id="Node000003" class="node">
<title>Node3</title>
<g id="a_Node000003"><a xlink:title=" ">
<polygon fill="#e0e0e0" stroke="#999999" points="128,-21.21 70,-21.21 70,-2.21 128,-2.21 128,-21.21"/>
<text text-anchor="middle" x="99" y="-9.21" font-family="Helvetica,sans-Serif" font-size="10.00">memory</text>
</a>
</g>
</g>
<!-- Node1&#45;&gt;Node3 -->
<g id="edge2_Node000001_Node000003" class="edge">
<title>Node1&#45;&gt;Node3</title>
<g id="a_edge2_Node000001_Node000003"><a xlink:title=" ">
<path fill="none" stroke="#63b8ff" d="M141.44,-57.05C133.32,-48.55 122.95,-37.73 114.5,-28.9"/>
<polygon fill="#63b8ff" stroke="#63b8ff" points="116.83,-26.28 107.39,-21.47 111.78,-31.12 116.83,-26.28"/>
</a>
</g>
</g>
<!-- Node4 -->
<g id="Node000004" class="node">
<title>Node4</title>
<g id="a_Node000004"><a xlink:href="helios_2math_2types_2__module_8ixx.html" target="_top" xlink:title="Module exports for vector and matrix type definitions.">
<polygon fill="white" stroke="#666666" points="277.5,-21.21 146.5,-21.21 146.5,-2.21 277.5,-2.21 277.5,-21.21"/>
<text text-anchor="middle" x="212" y="-9.21" font-family="Helvetica,sans-Serif" font-size="10.00">helios.math.types:vec3</text>
</a>
</g>
</g>
<!-- Node1&#45;&gt;Node4 -->
<g id="edge3_Node000001_Node000004" class="edge">
<title>Node1&#45;&gt;Node4</title>
<g id="a_edge3_Node000001_Node000004"><a xlink:title=" ">
<path fill="none" stroke="#63b8ff" d="M168.8,-57.05C177.07,-48.55 187.62,-37.73 196.23,-28.9"/>
<polygon fill="#63b8ff" stroke="#63b8ff" points="198.99,-31.08 203.46,-21.47 193.97,-26.19 198.99,-31.08"/>
</a>
</g>
</g>
<!-- Node5 -->
<g id="Node000005" class="node">
<title>Node5</title>
<g id="a_Node000005"><a xlink:href="helios_2math_2concepts_2__module_8ixx.html" target="_top" xlink:title="Math concepts module exports.">
<polygon fill="white" stroke="#666666" points="434.5,-21.21 313.5,-21.21 313.5,-2.21 434.5,-2.21 434.5,-21.21"/>
<text text-anchor="middle" x="374" y="-9.21" font-family="Helvetica,sans-Serif" font-size="10.00">helios.math.concepts</text>
</a>
</g>
</g>
<!-- Node1&#45;&gt;Node5 -->
<g id="edge5_Node000001_Node000005" class="edge">
<title>Node1&#45;&gt;Node5</title>
<g id="a_edge5_Node000001_Node000005"><a xlink:title=" ">
<path fill="none" stroke="#63b8ff" d="M207.46,-57.2C245.58,-47.01 296.5,-33.41 331.96,-23.94"/>
<polygon fill="#63b8ff" stroke="#63b8ff" points="333.22,-27.22 341.98,-21.26 331.41,-20.46 333.22,-27.22"/>
</a>
</g>
</g>
<!-- Node4&#45;&gt;Node4 -->
<g id="edge4_Node000004_Node000004" class="edge">
<title>Node4&#45;&gt;Node4</title>
<g id="a_edge4_Node000004_Node000004"><a xlink:title=" ">
<path fill="none" stroke="#63b8ff" d="M242.83,-21.24C268.59,-25.32 295.5,-22.14 295.5,-11.71 295.5,-2.62 275.08,0.96 252.79,-0.96"/>
<polygon fill="#63b8ff" stroke="#63b8ff" points="252.33,2.51 242.83,-2.17 253.18,-4.44 252.33,2.51"/>
</a>
</g>
</g>
<!-- Node5&#45;&gt;Node5 -->
<g id="edge6_Node000005_Node000005" class="edge">
<title>Node5&#45;&gt;Node5</title>
<g id="a_edge6_Node000005_Node000005"><a xlink:title=" ">
<path fill="none" stroke="#63b8ff" d="M402.99,-21.24C427.2,-25.32 452.5,-22.14 452.5,-11.71 452.5,-2.7 433.64,0.9 412.91,-0.91"/>
<polygon fill="#63b8ff" stroke="#63b8ff" points="412.46,2.56 402.99,-2.17 413.35,-4.38 412.46,2.56"/>
</a>
</g>
</g>
</g>
</svg>
