<?xml version="1.0" encoding="UTF-8" standalone="no"?>
<!DOCTYPE svg PUBLIC "-//W3C//DTD SVG 1.1//EN"
 "http://www.w3.org/Graphics/SVG/1.1/DTD/svg11.dtd">
<!-- Generated by graphviz version 2.43.0 (0)
 -->
<!-- Title: include/helios/rendering/Vertex.ixx Pages: 1 -->
<svg width="145pt" height="95pt"
 viewBox="0.00 0.00 145.00 95.17" xmlns="http://www.w3.org/2000/svg" xmlns:xlink="http://www.w3.org/1999/xlink">
<g id="graph0" class="graph" transform="scale(1 1) rotate(0) translate(4 91.17)">
<title>include/helios/rendering/Vertex.ixx</title>
<!-- Node1 -->
<g id="Node000001" class="node">
<title>Node1</title>
<g id="a_Node000001"><a xlink:title="Vertex description and utilities for rendering.">
<polygon fill="#999999" stroke="#666666" points="134,-87.17 0,-87.17 0,-57.17 134,-57.17 134,-87.17"/>
<text text-anchor="start" x="8" y="-75.17" font-family="Helvetica,sans-Serif" font-size="10.00">include/helios/rendering</text>
<text text-anchor="middle" x="67" y="-64.17" font-family="Helvetica,sans-Serif" font-size="10.00">/Vertex.ixx</text>
</a>
</g>
</g>
<!-- Node2 -->
<g id="Node000002" class="node">
<title>Node2</title>
<g id="a_Node000002"><a xlink:href="helios_2math_2types_2__module_8ixx.html" target="_top" xlink:title="Module exports for vector and matrix type definitions.">
<polygon fill="white" stroke="#666666" points="119,-21.17 15,-21.17 15,-2.17 119,-2.17 119,-21.17"/>
<text text-anchor="middle" x="67" y="-9.17" font-family="Helvetica,sans-Serif" font-size="10.00">helios.math.types</text>
</a>
</g>
</g>
<!-- Node1&#45;&gt;Node2 -->
<g id="edge1_Node000001_Node000002" class="edge">
<title>Node1&#45;&gt;Node2</title>
<g id="a_edge1_Node000001_Node000002"><a xlink:title=" ">
<path fill="none" stroke="#63b8ff" d="M67,-57.01C67,-49.39 67,-39.88 67,-31.62"/>
<polygon fill="#63b8ff" stroke="#63b8ff" points="70.5,-31.44 67,-21.44 63.5,-31.44 70.5,-31.44"/>
</a>
</g>
</g>
<!-- Node2&#45;&gt;Node2 -->
<g id="edge2_Node000002_Node000002" class="edge">
<title>Node2&#45;&gt;Node2</title>
<g id="a_edge2_Node000002_Node000002"><a xlink:title=" ">
<path fill="none" stroke="#63b8ff" d="M92.85,-21.21C114.44,-25.28 137,-22.1 137,-11.67 137,-2.87 120.94,0.76 102.95,-0.76"/>
<polygon fill="#63b8ff" stroke="#63b8ff" points="102.28,2.68 92.85,-2.14 103.23,-4.26 102.28,2.68"/>
</a>
</g>
</g>
</g>
</svg>
