<?xml version="1.0" encoding="UTF-8" standalone="no"?>
<!DOCTYPE svg PUBLIC "-//W3C//DTD SVG 1.1//EN"
 "http://www.w3.org/Graphics/SVG/1.1/DTD/svg11.dtd">
<!-- Generated by graphviz version 2.43.0 (0)
 -->
<!-- Title: include/helios/window/event/_module.ixx Pages: 1 -->
<svg width="324pt" height="335pt"
 viewBox="0.00 0.00 323.50 335.00" xmlns="http://www.w3.org/2000/svg" xmlns:xlink="http://www.w3.org/1999/xlink">

<svg id="main" version="1.1" xmlns="http://www.w3.org/2000/svg" xmlns:xlink="http://www.w3.org/1999/xlink" xml:space="preserve">

<style type="text/css"><![CDATA[
.node, .edge {opacity: 0.7;}
.node.selected, .edge.selected {opacity: 1;}
.edge:hover path { stroke: red; }
.edge:hover polygon { stroke: red; fill: red; }
]]></style>
<script type="application/ecmascript" xlink:href="svg.min.js"/>
<svg id="graph" class="graph">
<g id="graph0" class="graph" transform="scale(1 1) rotate(0) translate(4 331)">
<title>include/helios/window/event/_module.ixx</title>
<!-- Node1 -->
<g id="Node000001" class="node">
<title>Node1</title>
<g id="a_Node000001"><a xlink:title=" ">
<polygon fill="#999999" stroke="#666666" points="188.5,-327 63.5,-327 63.5,-297 188.5,-297 188.5,-327"/>
<text text-anchor="start" x="71.5" y="-315" font-family="Helvetica,sans-Serif" font-size="10.00">include/helios/window</text>
<text text-anchor="middle" x="126" y="-304" font-family="Helvetica,sans-Serif" font-size="10.00">/event/_module.ixx</text>
</a>
</g>
</g>
<!-- Node2 -->
<g id="Node000002" class="node">
<title>Node2</title>
<g id="a_Node000002"><a xlink:href="FrameBufferResizeEvent_8ixx.html" target="_top" xlink:title=" ">
<polygon fill="white" stroke="#666666" points="150,-261 0,-261 0,-231 150,-231 150,-261"/>
<text text-anchor="start" x="8" y="-249" font-family="Helvetica,sans-Serif" font-size="10.00">helios.window.event.Frame</text>
<text text-anchor="middle" x="75" y="-238" font-family="Helvetica,sans-Serif" font-size="10.00">BufferResizeEvent</text>
</a>
</g>
</g>
<!-- Node1&#45;&gt;Node2 -->
<g id="edge1_Node000001_Node000002" class="edge">
<title>Node1&#45;&gt;Node2</title>
<g id="a_edge1_Node000001_Node000002"><a xlink:title=" ">
<path fill="none" stroke="#63b8ff" d="M114.68,-296.8C108.21,-288.68 99.95,-278.31 92.65,-269.15"/>
<polygon fill="#63b8ff" stroke="#63b8ff" points="95.26,-266.8 86.29,-261.16 89.78,-271.17 95.26,-266.8"/>
</a>
</g>
</g>
<!-- Node6 -->
<g id="Node000006" class="node">
<title>Node6</title>
<g id="a_Node000006"><a xlink:href="WindowEvent_8ixx.html" target="_top" xlink:title=" ">
<polygon fill="white" stroke="#666666" points="259,-195 101,-195 101,-165 259,-165 259,-195"/>
<text text-anchor="start" x="109" y="-183" font-family="Helvetica,sans-Serif" font-size="10.00">helios.window.event.Window</text>
<text text-anchor="middle" x="180" y="-172" font-family="Helvetica,sans-Serif" font-size="10.00">Event</text>
</a>
</g>
</g>
<!-- Node1&#45;&gt;Node6 -->
<g id="edge12_Node000001_Node000006" class="edge">
<title>Node1&#45;&gt;Node6</title>
<g id="a_edge12_Node000001_Node000006"><a xlink:title=" ">
<path fill="none" stroke="#63b8ff" d="M137.15,-296.85C144.28,-287.22 153.23,-273.92 159,-261 166.99,-243.1 172.43,-221.55 175.77,-205.32"/>
<polygon fill="#63b8ff" stroke="#63b8ff" points="179.29,-205.53 177.75,-195.05 172.42,-204.21 179.29,-205.53"/>
</a>
</g>
</g>
<!-- Node3 -->
<g id="Node000003" class="node">
<title>Node3</title>
<g id="a_Node000003"><a xlink:title=" ">
<polygon fill="#e0e0e0" stroke="#999999" points="136,-19 86,-19 86,0 136,0 136,-19"/>
<text text-anchor="middle" x="111" y="-7" font-family="Helvetica,sans-Serif" font-size="10.00">cstdint</text>
</a>
</g>
</g>
<!-- Node2&#45;&gt;Node3 -->
<g id="edge2_Node000002_Node000003" class="edge">
<title>Node2&#45;&gt;Node3</title>
<g id="a_edge2_Node000002_Node000003"><a xlink:title=" ">
<path fill="none" stroke="#63b8ff" d="M74.79,-230.78C74.73,-214.74 75.15,-187.89 78,-165 84.2,-115.26 98.36,-57.81 105.96,-29"/>
<polygon fill="#63b8ff" stroke="#63b8ff" points="109.4,-29.69 108.61,-19.12 102.64,-27.88 109.4,-29.69"/>
</a>
</g>
</g>
<!-- Node4 -->
<g id="Node000004" class="node">
<title>Node4</title>
<g id="a_Node000004"><a xlink:href="Guid_8ixx.html" target="_top" xlink:title=" ">
<polygon fill="white" stroke="#666666" points="229,-74 139,-74 139,-55 229,-55 229,-74"/>
<text text-anchor="middle" x="184" y="-62" font-family="Helvetica,sans-Serif" font-size="10.00">helios.util.Guid</text>
</a>
</g>
</g>
<!-- Node2&#45;&gt;Node4 -->
<g id="edge3_Node000002_Node000004" class="edge">
<title>Node2&#45;&gt;Node4</title>
<g id="a_edge3_Node000002_Node000004"><a xlink:title=" ">
<path fill="none" stroke="#63b8ff" d="M75.73,-230.94C77.09,-214.35 80.97,-186.31 92,-165 110.07,-130.11 143.71,-98.4 164.92,-80.57"/>
<polygon fill="#63b8ff" stroke="#63b8ff" points="167.4,-83.06 172.91,-74.02 162.96,-77.65 167.4,-83.06"/>
</a>
</g>
</g>
<!-- Node2&#45;&gt;Node6 -->
<g id="edge6_Node000002_Node000006" class="edge">
<title>Node2&#45;&gt;Node6</title>
<g id="a_edge6_Node000002_Node000006"><a xlink:title=" ">
<path fill="none" stroke="#63b8ff" d="M98.04,-230.95C112.81,-221.95 132.19,-210.14 148.39,-200.27"/>
<polygon fill="#63b8ff" stroke="#63b8ff" points="150.29,-203.21 157.01,-195.01 146.65,-197.23 150.29,-203.21"/>
</a>
</g>
</g>
<!-- Node4&#45;&gt;Node3 -->
<g id="edge5_Node000004_Node000003" class="edge">
<title>Node4&#45;&gt;Node3</title>
<g id="a_edge5_Node000004_Node000003"><a xlink:title=" ">
<path fill="none" stroke="#63b8ff" d="M172.27,-54.98C161.27,-47 144.58,-34.88 131.4,-25.31"/>
<polygon fill="#63b8ff" stroke="#63b8ff" points="133.09,-22.21 122.94,-19.17 128.98,-27.88 133.09,-22.21"/>
</a>
</g>
</g>
<!-- Node5 -->
<g id="Node000005" class="node">
<title>Node5</title>
<g id="a_Node000005"><a xlink:title=" ">
<polygon fill="#e0e0e0" stroke="#999999" points="209,-19 159,-19 159,0 209,0 209,-19"/>
<text text-anchor="middle" x="184" y="-7" font-family="Helvetica,sans-Serif" font-size="10.00">atomic</text>
</a>
</g>
</g>
<!-- Node4&#45;&gt;Node5 -->
<g id="edge4_Node000004_Node000005" class="edge">
<title>Node4&#45;&gt;Node5</title>
<g id="a_edge4_Node000004_Node000005"><a xlink:title=" ">
<path fill="none" stroke="#63b8ff" d="M184,-54.75C184,-47.8 184,-37.85 184,-29.13"/>
<polygon fill="#63b8ff" stroke="#63b8ff" points="187.5,-29.09 184,-19.09 180.5,-29.09 187.5,-29.09"/>
</a>
</g>
</g>
<!-- Node6&#45;&gt;Node3 -->
<g id="edge7_Node000006_Node000003" class="edge">
<title>Node6&#45;&gt;Node3</title>
<g id="a_edge7_Node000006_Node000003"><a xlink:title=" ">
<path fill="none" stroke="#63b8ff" d="M172.32,-164.7C161.83,-144.78 142.84,-107.35 130,-74 124.31,-59.22 119.24,-41.97 115.78,-29.18"/>
<polygon fill="#63b8ff" stroke="#63b8ff" points="119.1,-28.05 113.17,-19.27 112.33,-29.83 119.1,-28.05"/>
</a>
</g>
</g>
<!-- Node6&#45;&gt;Node4 -->
<g id="edge11_Node000006_Node000004" class="edge">
<title>Node6&#45;&gt;Node4</title>
<g id="a_edge11_Node000006_Node000004"><a xlink:title=" ">
<path fill="none" stroke="#63b8ff" d="M180.51,-164.63C181.23,-144.21 182.54,-106.81 183.34,-84.24"/>
<polygon fill="#63b8ff" stroke="#63b8ff" points="186.84,-84.35 183.69,-74.23 179.84,-84.1 186.84,-84.35"/>
</a>
</g>
</g>
<!-- Node7 -->
<g id="Node000007" class="node">
<title>Node7</title>
<g id="a_Node000007"><a xlink:href="Event_8ixx.html" target="_top" xlink:title=" ">
<polygon fill="white" stroke="#666666" points="315.5,-129 208.5,-129 208.5,-110 315.5,-110 315.5,-129"/>
<text text-anchor="middle" x="262" y="-117" font-family="Helvetica,sans-Serif" font-size="10.00">helios.event.Event</text>
</a>
</g>
</g>
<!-- Node6&#45;&gt;Node7 -->
<g id="edge8_Node000006_Node000007" class="edge">
<title>Node6&#45;&gt;Node7</title>
<g id="a_edge8_Node000006_Node000007"><a xlink:title=" ">
<path fill="none" stroke="#63b8ff" d="M199.85,-164.84C212.48,-155.83 228.8,-144.18 241.55,-135.09"/>
<polygon fill="#63b8ff" stroke="#63b8ff" points="243.6,-137.92 249.71,-129.27 239.54,-132.22 243.6,-137.92"/>
</a>
</g>
</g>
<!-- Node7&#45;&gt;Node4 -->
<g id="edge10_Node000007_Node000004" class="edge">
<title>Node7&#45;&gt;Node4</title>
<g id="a_edge10_Node000007_Node000004"><a xlink:title=" ">
<path fill="none" stroke="#63b8ff" d="M249.47,-109.98C237.6,-101.92 219.54,-89.65 205.39,-80.03"/>
<polygon fill="#63b8ff" stroke="#63b8ff" points="207,-76.9 196.76,-74.17 203.06,-82.69 207,-76.9"/>
</a>
</g>
</g>
<!-- Node8 -->
<g id="Node000008" class="node">
<title>Node8</title>
<g id="a_Node000008"><a xlink:title=" ">
<polygon fill="#e0e0e0" stroke="#999999" points="305,-74 247,-74 247,-55 305,-55 305,-74"/>
<text text-anchor="middle" x="276" y="-62" font-family="Helvetica,sans-Serif" font-size="10.00">memory</text>
</a>
</g>
</g>
<!-- Node7&#45;&gt;Node8 -->
<g id="edge9_Node000007_Node000008" class="edge">
<title>Node7&#45;&gt;Node8</title>
<g id="a_edge9_Node000007_Node000008"><a xlink:title=" ">
<path fill="none" stroke="#63b8ff" d="M264.31,-109.75C266.17,-102.72 268.84,-92.62 271.15,-83.84"/>
<polygon fill="#63b8ff" stroke="#63b8ff" points="274.56,-84.65 273.73,-74.09 267.79,-82.86 274.56,-84.65"/>
</a>
</g>
</g>
</g>
</svg>
</svg>

<style type='text/css'>
<![CDATA[
[data-mouse-over-selected='false'] { opacity: 0.7; }
[data-mouse-over-selected='true']  { opacity: 1.0; }
]]>
</style>
<script type="application/ecmascript"><![CDATA[
document.addEventListener('DOMContentLoaded', (event) => {
  highlightEdges();
  highlightAdjacentNodes();
});
]]></script>
</svg>
