<?xml version="1.0" encoding="UTF-8" standalone="no"?>
<!DOCTYPE svg PUBLIC "-//W3C//DTD SVG 1.1//EN"
 "http://www.w3.org/Graphics/SVG/1.1/DTD/svg11.dtd">
<!-- Generated by graphviz version 2.43.0 (0)
 -->
<!-- Title: include/helios/window/_module.ixx Pages: 1 -->
<!--zoomable 390 -->

<svg id="main" version="1.1" xmlns="http://www.w3.org/2000/svg" xmlns:xlink="http://www.w3.org/1999/xlink" xml:space="preserve" onload="init(evt)">

<style type="text/css"><![CDATA[
.node, .edge {opacity: 0.7;}
.node.selected, .edge.selected {opacity: 1;}
.edge:hover path { stroke: red; }
.edge:hover polygon { stroke: red; fill: red; }
]]></style>

<defs>
  <circle id="rim" cx="0" cy="0" r="7"/>
  <circle id="rim2" cx="0" cy="0" r="3.5"/>
  <g id="zoomPlus">
    <use xlink:href="#rim" fill="#404040"><set attributeName="fill" to="#808080" begin="zoomplus.mouseover" end="zoomplus.mouseout"/></use>
    <path d="M-4,0h8M0,-4v8" fill="none" stroke="white" stroke-width="1.5" pointer-events="none"/>
  </g>
  <g id="zoomMin">
    <use xlink:href="#rim" fill="#404040"><set attributeName="fill" to="#808080" begin="zoomminus.mouseover" end="zoomminus.mouseout"/></use>
    <path d="M-4,0h8" fill="none" stroke="white" stroke-width="1.5" pointer-events="none"/>
  </g>
  <g id="arrowUp" transform="translate(30 24)">
    <use xlink:href="#rim"/>
    <path pointer-events="none" fill="none" stroke="white" stroke-width="1.5" d="M0,-3.0v7 M-2.5,-0.5L0,-3.0L2.5,-0.5"/>
  </g>
  <g id="arrowRight" transform="rotate(90) translate(36 -43)">
    <use xlink:href="#rim"/>
    <path pointer-events="none" fill="none" stroke="white" stroke-width="1.5" d="M0,-3.0v7 M-2.5,-0.5L0,-3.0L2.5,-0.5"/>
  </g>
  <g id="arrowDown" transform="rotate(180) translate(-30 -48)">
    <use xlink:href="#rim"/>
    <path pointer-events="none" fill="none" stroke="white" stroke-width="1.5" d="M0,-3.0v7 M-2.5,-0.5L0,-3.0L2.5,-0.5"/>
  </g>
  <g id="arrowLeft" transform="rotate(270) translate(-36 17)">
    <use xlink:href="#rim"/>
    <path pointer-events="none" fill="none" stroke="white" stroke-width="1.5" d="M0,-3.0v7 M-2.5,-0.5L0,-3.0L2.5,-0.5"/>
  </g>
  <g id="resetDef">
    <use xlink:href="#rim2" fill="#404040"><set attributeName="fill" to="#808080" begin="reset.mouseover" end="reset.mouseout"/></use>
  </g>
</defs>
<script type="application/ecmascript">
var viewWidth = 975;
var viewHeight = 390;
var sectionId = 'dynsection-0';
</script>
<script type="application/ecmascript" xlink:href="svg.min.js"/>
<svg id="graph" class="graph">
<g id="viewport">
<title>include/helios/window/_module.ixx</title>
<!-- Node1 -->
<g id="Node000001" class="node">
<title>Node1</title>
<g id="a_Node000001"><a xlink:title=" ">
<polygon fill="#999999" stroke="#666666" points="482.5,-382 357.5,-382 357.5,-352 482.5,-352 482.5,-382"/>
<text text-anchor="start" x="365.5" y="-370" font-family="Helvetica,sans-Serif" font-size="10.00">include/helios/window</text>
<text text-anchor="middle" x="420" y="-359" font-family="Helvetica,sans-Serif" font-size="10.00">/_module.ixx</text>
</a>
</g>
</g>
<!-- Node2 -->
<g id="Node000002" class="node">
<title>Node2</title>
<g id="a_Node000002"><a xlink:href="window_2event_2__module_8ixx.html" target="_top" xlink:title=" ">
<polygon fill="white" stroke="#666666" points="238,-316 122,-316 122,-297 238,-297 238,-316"/>
<text text-anchor="middle" x="180" y="-304" font-family="Helvetica,sans-Serif" font-size="10.00">helios.window.event</text>
</a>
</g>
</g>
<!-- Node1&#45;&gt;Node2 -->
<g id="edge1_Node000001_Node000002" class="edge">
<title>Node1&#45;&gt;Node2</title>
<g id="a_edge1_Node000001_Node000002"><a xlink:title=" ">
<path fill="none" stroke="#63b8ff" d="M362.51,-351.99C320.38,-341.72 263.97,-327.97 225.08,-318.49"/>
<polygon fill="#63b8ff" stroke="#63b8ff" points="225.64,-315.02 215.09,-316.05 223.98,-321.82 225.64,-315.02"/>
</a>
</g>
</g>
<!-- Node10 -->
<g id="Node000010" class="node">
<title>Node10</title>
<g id="a_Node000010"><a xlink:href="WindowConfig_8ixx.html" target="_top" xlink:title=" ">
<polygon fill="white" stroke="#666666" points="499,-255.5 341,-255.5 341,-236.5 499,-236.5 499,-255.5"/>
<text text-anchor="middle" x="420" y="-243.5" font-family="Helvetica,sans-Serif" font-size="10.00">helios.window.WindowConfig</text>
</a>
</g>
</g>
<!-- Node1&#45;&gt;Node10 -->
<g id="edge14_Node000001_Node000010" class="edge">
<title>Node1&#45;&gt;Node10</title>
<g id="a_edge14_Node000001_Node000010"><a xlink:title=" ">
<path fill="none" stroke="#63b8ff" d="M420,-351.88C420,-330.51 420,-289.89 420,-265.96"/>
<polygon fill="#63b8ff" stroke="#63b8ff" points="423.5,-265.71 420,-255.71 416.5,-265.71 423.5,-265.71"/>
</a>
</g>
</g>
<!-- Node13 -->
<g id="Node000013" class="node">
<title>Node13</title>
<g id="a_Node000013"><a xlink:href="Window_8ixx.html" target="_top" xlink:title=" ">
<polygon fill="white" stroke="#666666" points="591,-316 463,-316 463,-297 591,-297 591,-316"/>
<text text-anchor="middle" x="527" y="-304" font-family="Helvetica,sans-Serif" font-size="10.00">helios.window.Window</text>
</a>
</g>
</g>
<!-- Node1&#45;&gt;Node13 -->
<g id="edge18_Node000001_Node000013" class="edge">
<title>Node1&#45;&gt;Node13</title>
<g id="a_edge18_Node000001_Node000013"><a xlink:title=" ">
<path fill="none" stroke="#63b8ff" d="M445.63,-351.99C462.84,-342.58 485.4,-330.24 502.4,-320.95"/>
<polygon fill="#63b8ff" stroke="#63b8ff" points="504.1,-324.01 511.2,-316.14 500.75,-317.87 504.1,-324.01"/>
</a>
</g>
</g>
<!-- Node3 -->
<g id="Node000003" class="node">
<title>Node3</title>
<g id="a_Node000003"><a xlink:href="FrameBufferResizeEvent_8ixx.html" target="_top" xlink:title=" ">
<polygon fill="white" stroke="#666666" points="150,-261 0,-261 0,-231 150,-231 150,-261"/>
<text text-anchor="start" x="8" y="-249" font-family="Helvetica,sans-Serif" font-size="10.00">helios.window.event.Frame</text>
<text text-anchor="middle" x="75" y="-238" font-family="Helvetica,sans-Serif" font-size="10.00">BufferResizeEvent</text>
</a>
</g>
</g>
<!-- Node2&#45;&gt;Node3 -->
<g id="edge2_Node000002_Node000003" class="edge">
<title>Node2&#45;&gt;Node3</title>
<g id="a_edge2_Node000002_Node000003"><a xlink:title=" ">
<path fill="none" stroke="#63b8ff" d="M164.51,-296.87C150,-288.78 127.81,-276.42 109.16,-266.03"/>
<polygon fill="#63b8ff" stroke="#63b8ff" points="110.77,-262.92 100.33,-261.11 107.37,-269.04 110.77,-262.92"/>
</a>
</g>
</g>
<!-- Node7 -->
<g id="Node000007" class="node">
<title>Node7</title>
<g id="a_Node000007"><a xlink:href="WindowEvent_8ixx.html" target="_top" xlink:title=" ">
<polygon fill="white" stroke="#666666" points="259,-195 101,-195 101,-165 259,-165 259,-195"/>
<text text-anchor="start" x="109" y="-183" font-family="Helvetica,sans-Serif" font-size="10.00">helios.window.event.Window</text>
<text text-anchor="middle" x="180" y="-172" font-family="Helvetica,sans-Serif" font-size="10.00">Event</text>
</a>
</g>
</g>
<!-- Node2&#45;&gt;Node7 -->
<g id="edge13_Node000002_Node000007" class="edge">
<title>Node2&#45;&gt;Node7</title>
<g id="a_edge13_Node000002_Node000007"><a xlink:title=" ">
<path fill="none" stroke="#63b8ff" d="M180,-296.94C180,-278.32 180,-233.53 180,-205.39"/>
<polygon fill="#63b8ff" stroke="#63b8ff" points="183.5,-205.16 180,-195.16 176.5,-205.16 183.5,-205.16"/>
</a>
</g>
</g>
<!-- Node4 -->
<g id="Node000004" class="node">
<title>Node4</title>
<g id="a_Node000004"><a xlink:title=" ">
<polygon fill="#e0e0e0" stroke="#999999" points="136,-19 86,-19 86,0 136,0 136,-19"/>
<text text-anchor="middle" x="111" y="-7" font-family="Helvetica,sans-Serif" font-size="10.00">cstdint</text>
</a>
</g>
</g>
<!-- Node3&#45;&gt;Node4 -->
<g id="edge3_Node000003_Node000004" class="edge">
<title>Node3&#45;&gt;Node4</title>
<g id="a_edge3_Node000003_Node000004"><a xlink:title=" ">
<path fill="none" stroke="#63b8ff" d="M74.79,-230.78C74.73,-214.74 75.15,-187.89 78,-165 84.2,-115.26 98.36,-57.81 105.96,-29"/>
<polygon fill="#63b8ff" stroke="#63b8ff" points="109.4,-29.69 108.61,-19.12 102.64,-27.88 109.4,-29.69"/>
</a>
</g>
</g>
<!-- Node5 -->
<g id="Node000005" class="node">
<title>Node5</title>
<g id="a_Node000005"><a xlink:href="Guid_8ixx.html" target="_top" xlink:title=" ">
<polygon fill="white" stroke="#666666" points="229,-74 139,-74 139,-55 229,-55 229,-74"/>
<text text-anchor="middle" x="184" y="-62" font-family="Helvetica,sans-Serif" font-size="10.00">helios.util.Guid</text>
</a>
</g>
</g>
<!-- Node3&#45;&gt;Node5 -->
<g id="edge4_Node000003_Node000005" class="edge">
<title>Node3&#45;&gt;Node5</title>
<g id="a_edge4_Node000003_Node000005"><a xlink:title=" ">
<path fill="none" stroke="#63b8ff" d="M75.73,-230.94C77.09,-214.35 80.97,-186.31 92,-165 110.07,-130.11 143.71,-98.4 164.92,-80.57"/>
<polygon fill="#63b8ff" stroke="#63b8ff" points="167.4,-83.06 172.91,-74.02 162.96,-77.65 167.4,-83.06"/>
</a>
</g>
</g>
<!-- Node3&#45;&gt;Node7 -->
<g id="edge7_Node000003_Node000007" class="edge">
<title>Node3&#45;&gt;Node7</title>
<g id="a_edge7_Node000003_Node000007"><a xlink:title=" ">
<path fill="none" stroke="#63b8ff" d="M98.04,-230.95C112.81,-221.95 132.19,-210.14 148.39,-200.27"/>
<polygon fill="#63b8ff" stroke="#63b8ff" points="150.29,-203.21 157.01,-195.01 146.65,-197.23 150.29,-203.21"/>
</a>
</g>
</g>
<!-- Node5&#45;&gt;Node4 -->
<g id="edge6_Node000005_Node000004" class="edge">
<title>Node5&#45;&gt;Node4</title>
<g id="a_edge6_Node000005_Node000004"><a xlink:title=" ">
<path fill="none" stroke="#63b8ff" d="M172.27,-54.98C161.27,-47 144.58,-34.88 131.4,-25.31"/>
<polygon fill="#63b8ff" stroke="#63b8ff" points="133.09,-22.21 122.94,-19.17 128.98,-27.88 133.09,-22.21"/>
</a>
</g>
</g>
<!-- Node6 -->
<g id="Node000006" class="node">
<title>Node6</title>
<g id="a_Node000006"><a xlink:title=" ">
<polygon fill="#e0e0e0" stroke="#999999" points="209,-19 159,-19 159,0 209,0 209,-19"/>
<text text-anchor="middle" x="184" y="-7" font-family="Helvetica,sans-Serif" font-size="10.00">atomic</text>
</a>
</g>
</g>
<!-- Node5&#45;&gt;Node6 -->
<g id="edge5_Node000005_Node000006" class="edge">
<title>Node5&#45;&gt;Node6</title>
<g id="a_edge5_Node000005_Node000006"><a xlink:title=" ">
<path fill="none" stroke="#63b8ff" d="M184,-54.75C184,-47.8 184,-37.85 184,-29.13"/>
<polygon fill="#63b8ff" stroke="#63b8ff" points="187.5,-29.09 184,-19.09 180.5,-29.09 187.5,-29.09"/>
</a>
</g>
</g>
<!-- Node7&#45;&gt;Node4 -->
<g id="edge8_Node000007_Node000004" class="edge">
<title>Node7&#45;&gt;Node4</title>
<g id="a_edge8_Node000007_Node000004"><a xlink:title=" ">
<path fill="none" stroke="#63b8ff" d="M172.32,-164.7C161.83,-144.78 142.84,-107.35 130,-74 124.31,-59.22 119.24,-41.97 115.78,-29.18"/>
<polygon fill="#63b8ff" stroke="#63b8ff" points="119.1,-28.05 113.17,-19.27 112.33,-29.83 119.1,-28.05"/>
</a>
</g>
</g>
<!-- Node7&#45;&gt;Node5 -->
<g id="edge12_Node000007_Node000005" class="edge">
<title>Node7&#45;&gt;Node5</title>
<g id="a_edge12_Node000007_Node000005"><a xlink:title=" ">
<path fill="none" stroke="#63b8ff" d="M175.11,-164.99C170.88,-151.04 165.88,-129.03 169,-110 170.47,-101.05 173.49,-91.47 176.44,-83.51"/>
<polygon fill="#63b8ff" stroke="#63b8ff" points="179.72,-84.74 180.14,-74.15 173.21,-82.16 179.72,-84.74"/>
</a>
</g>
</g>
<!-- Node8 -->
<g id="Node000008" class="node">
<title>Node8</title>
<g id="a_Node000008"><a xlink:href="Event_8ixx.html" target="_top" xlink:title=" ">
<polygon fill="white" stroke="#666666" points="284.5,-129 177.5,-129 177.5,-110 284.5,-110 284.5,-129"/>
<text text-anchor="middle" x="231" y="-117" font-family="Helvetica,sans-Serif" font-size="10.00">helios.event.Event</text>
</a>
</g>
</g>
<!-- Node7&#45;&gt;Node8 -->
<g id="edge9_Node000007_Node000008" class="edge">
<title>Node7&#45;&gt;Node8</title>
<g id="a_edge9_Node000007_Node000008"><a xlink:title=" ">
<path fill="none" stroke="#63b8ff" d="M192.35,-164.84C199.67,-156.43 209,-145.74 216.65,-136.96"/>
<polygon fill="#63b8ff" stroke="#63b8ff" points="219.42,-139.1 223.36,-129.27 214.15,-134.5 219.42,-139.1"/>
</a>
</g>
</g>
<!-- Node8&#45;&gt;Node5 -->
<g id="edge11_Node000008_Node000005" class="edge">
<title>Node8&#45;&gt;Node5</title>
<g id="a_edge11_Node000008_Node000005"><a xlink:title=" ">
<path fill="none" stroke="#63b8ff" d="M223.24,-109.75C216.53,-102.18 206.66,-91.05 198.49,-81.84"/>
<polygon fill="#63b8ff" stroke="#63b8ff" points="200.87,-79.25 191.62,-74.09 195.63,-83.89 200.87,-79.25"/>
</a>
</g>
</g>
<!-- Node9 -->
<g id="Node000009" class="node">
<title>Node9</title>
<g id="a_Node000009"><a xlink:title=" ">
<polygon fill="#e0e0e0" stroke="#999999" points="576,-74 518,-74 518,-55 576,-55 576,-74"/>
<text text-anchor="middle" x="547" y="-62" font-family="Helvetica,sans-Serif" font-size="10.00">memory</text>
</a>
</g>
</g>
<!-- Node8&#45;&gt;Node9 -->
<g id="edge10_Node000008_Node000009" class="edge">
<title>Node8&#45;&gt;Node9</title>
<g id="a_edge10_Node000008_Node000009"><a xlink:title=" ">
<path fill="none" stroke="#63b8ff" d="M281.77,-109.98C344.68,-99.43 450.52,-81.68 507.62,-72.1"/>
<polygon fill="#63b8ff" stroke="#63b8ff" points="508.42,-75.52 517.7,-70.41 507.26,-68.62 508.42,-75.52"/>
</a>
</g>
</g>
<!-- Node11 -->
<g id="Node000011" class="node">
<title>Node11</title>
<g id="a_Node000011"><a xlink:title=" ">
<polygon fill="#e0e0e0" stroke="#999999" points="689,-129 645,-129 645,-110 689,-110 689,-129"/>
<text text-anchor="middle" x="667" y="-117" font-family="Helvetica,sans-Serif" font-size="10.00">string</text>
</a>
</g>
</g>
<!-- Node10&#45;&gt;Node11 -->
<g id="edge15_Node000010_Node000011" class="edge">
<title>Node10&#45;&gt;Node11</title>
<g id="a_edge15_Node000010_Node000011"><a xlink:title=" ">
<path fill="none" stroke="#63b8ff" d="M414.54,-236.38C405.14,-220.34 388.54,-185.69 406,-165 434.94,-130.71 571.5,-122.84 634.73,-121.04"/>
<polygon fill="#63b8ff" stroke="#63b8ff" points="635.02,-124.53 644.93,-120.78 634.85,-117.53 635.02,-124.53"/>
</a>
</g>
</g>
<!-- Node12 -->
<g id="Node000012" class="node">
<title>Node12</title>
<g id="a_Node000012"><a xlink:href="math_2types_2__module_8ixx.html" target="_top" xlink:title=" ">
<polygon fill="white" stroke="#666666" points="519,-189.5 415,-189.5 415,-170.5 519,-170.5 519,-189.5"/>
<text text-anchor="middle" x="467" y="-177.5" font-family="Helvetica,sans-Serif" font-size="10.00">helios.math.types</text>
</a>
</g>
</g>
<!-- Node10&#45;&gt;Node12 -->
<g id="edge16_Node000010_Node000012" class="edge">
<title>Node10&#45;&gt;Node12</title>
<g id="a_edge16_Node000010_Node000012"><a xlink:title=" ">
<path fill="none" stroke="#63b8ff" d="M426.34,-236.37C433.52,-226.59 445.39,-210.42 454.46,-198.08"/>
<polygon fill="#63b8ff" stroke="#63b8ff" points="457.36,-200.04 460.46,-189.91 451.72,-195.89 457.36,-200.04"/>
</a>
</g>
</g>
<!-- Node12&#45;&gt;Node12 -->
<g id="edge17_Node000012_Node000012" class="edge">
<title>Node12&#45;&gt;Node12</title>
<g id="a_edge17_Node000012_Node000012"><a xlink:title=" ">
<path fill="none" stroke="#63b8ff" d="M492.85,-189.53C514.44,-193.61 537,-190.43 537,-180 537,-171.2 520.94,-167.56 502.95,-169.09"/>
<polygon fill="#63b8ff" stroke="#63b8ff" points="502.28,-165.65 492.85,-170.47 503.23,-172.58 502.28,-165.65"/>
</a>
</g>
</g>
<!-- Node13&#45;&gt;Node5 -->
<g id="edge31_Node000013_Node000005" class="edge">
<title>Node13&#45;&gt;Node5</title>
<g id="a_edge31_Node000013_Node000005"><a xlink:title=" ">
<path fill="none" stroke="#63b8ff" d="M462.97,-298.16C413.52,-291.2 350.49,-279.09 332,-261 282.53,-212.61 339.45,-162.19 294,-110 279.76,-93.64 258.63,-83.22 238.68,-76.6"/>
<polygon fill="#63b8ff" stroke="#63b8ff" points="239.61,-73.23 229.02,-73.66 237.56,-79.92 239.61,-73.23"/>
</a>
</g>
</g>
<!-- Node13&#45;&gt;Node10 -->
<g id="edge30_Node000013_Node000010" class="edge">
<title>Node13&#45;&gt;Node10</title>
<g id="a_edge30_Node000013_Node000010"><a xlink:title=" ">
<path fill="none" stroke="#63b8ff" d="M511.21,-296.87C493.67,-287.28 465.12,-271.67 444.63,-260.47"/>
<polygon fill="#63b8ff" stroke="#63b8ff" points="446.31,-257.39 435.85,-255.67 442.95,-263.54 446.31,-257.39"/>
</a>
</g>
</g>
<!-- Node13&#45;&gt;Node11 -->
<g id="edge19_Node000013_Node000011" class="edge">
<title>Node13&#45;&gt;Node11</title>
<g id="a_edge19_Node000013_Node000011"><a xlink:title=" ">
<path fill="none" stroke="#63b8ff" d="M528.48,-296.84C532.95,-273.06 548.29,-205.81 585,-165 598.58,-149.9 618.53,-138.92 635.35,-131.64"/>
<polygon fill="#63b8ff" stroke="#63b8ff" points="636.88,-134.79 644.82,-127.78 634.24,-128.31 636.88,-134.79"/>
</a>
</g>
</g>
<!-- Node13&#45;&gt;Node12 -->
<g id="edge29_Node000013_Node000012" class="edge">
<title>Node13&#45;&gt;Node12</title>
<g id="a_edge29_Node000013_Node000012"><a xlink:title=" ">
<path fill="none" stroke="#63b8ff" d="M526.03,-296.8C524.16,-282.44 519.21,-253.15 508,-231 501.65,-218.45 491.7,-206.21 483.18,-196.98"/>
<polygon fill="#63b8ff" stroke="#63b8ff" points="485.66,-194.5 476.2,-189.71 480.61,-199.35 485.66,-194.5"/>
</a>
</g>
</g>
<!-- Node14 -->
<g id="Node000014" class="node">
<title>Node14</title>
<g id="a_Node000014"><a xlink:href="LogManager_8ixx.html" target="_top" xlink:title=" ">
<polygon fill="white" stroke="#666666" points="821,-255.5 675,-255.5 675,-236.5 821,-236.5 821,-255.5"/>
<text text-anchor="middle" x="748" y="-243.5" font-family="Helvetica,sans-Serif" font-size="10.00">helios.util.log.LogManager</text>
</a>
</g>
</g>
<!-- Node13&#45;&gt;Node14 -->
<g id="edge20_Node000013_Node000014" class="edge">
<title>Node13&#45;&gt;Node14</title>
<g id="a_edge20_Node000013_Node000014"><a xlink:title=" ">
<path fill="none" stroke="#63b8ff" d="M559.14,-296.99C597.93,-286.73 663.26,-269.43 706.01,-258.12"/>
<polygon fill="#63b8ff" stroke="#63b8ff" points="707.05,-261.46 715.83,-255.52 705.26,-254.69 707.05,-261.46"/>
</a>
</g>
</g>
<!-- Node17 -->
<g id="Node000017" class="node">
<title>Node17</title>
<g id="a_Node000017"><a xlink:href="Logger_8ixx.html" target="_top" xlink:title=" ">
<polygon fill="white" stroke="#666666" points="966.5,-189.5 847.5,-189.5 847.5,-170.5 966.5,-170.5 966.5,-189.5"/>
<text text-anchor="middle" x="907" y="-177.5" font-family="Helvetica,sans-Serif" font-size="10.00">helios.util.log.Logger</text>
</a>
</g>
</g>
<!-- Node13&#45;&gt;Node17 -->
<g id="edge28_Node000013_Node000017" class="edge">
<title>Node13&#45;&gt;Node17</title>
<g id="a_edge28_Node000013_Node000017"><a xlink:title=" ">
<path fill="none" stroke="#63b8ff" d="M591.33,-300.95C667.61,-294.7 789.52,-281.83 830,-261 858.59,-246.29 882.62,-216.78 895.89,-198.01"/>
<polygon fill="#63b8ff" stroke="#63b8ff" points="898.92,-199.77 901.66,-189.53 893.14,-195.83 898.92,-199.77"/>
</a>
</g>
</g>
<!-- Node14&#45;&gt;Node9 -->
<g id="edge23_Node000014_Node000009" class="edge">
<title>Node14&#45;&gt;Node9</title>
<g id="a_edge23_Node000014_Node000009"><a xlink:title=" ">
<path fill="none" stroke="#63b8ff" d="M756.17,-236.3C769.25,-221.29 792.11,-189.75 779,-165 742.09,-95.33 642.48,-74.44 586.53,-68.18"/>
<polygon fill="#63b8ff" stroke="#63b8ff" points="586.58,-64.67 576.28,-67.14 585.88,-71.63 586.58,-64.67"/>
</a>
</g>
</g>
<!-- Node14&#45;&gt;Node11 -->
<g id="edge21_Node000014_Node000011" class="edge">
<title>Node14&#45;&gt;Node11</title>
<g id="a_edge21_Node000014_Node000011"><a xlink:title=" ">
<path fill="none" stroke="#63b8ff" d="M753.18,-236.3C761.7,-220.72 776.37,-187.61 762,-165 748.25,-143.37 720.91,-132.08 699.08,-126.29"/>
<polygon fill="#63b8ff" stroke="#63b8ff" points="699.74,-122.85 689.2,-123.93 698.11,-129.66 699.74,-122.85"/>
</a>
</g>
</g>
<!-- Node15 -->
<g id="Node000015" class="node">
<title>Node15</title>
<g id="a_Node000015"><a xlink:title=" ">
<polygon fill="#e0e0e0" stroke="#999999" points="686.5,-189.5 593.5,-189.5 593.5,-170.5 686.5,-170.5 686.5,-189.5"/>
<text text-anchor="middle" x="640" y="-177.5" font-family="Helvetica,sans-Serif" font-size="10.00">unordered_map</text>
</a>
</g>
</g>
<!-- Node14&#45;&gt;Node15 -->
<g id="edge22_Node000014_Node000015" class="edge">
<title>Node14&#45;&gt;Node15</title>
<g id="a_edge22_Node000014_Node000015"><a xlink:title=" ">
<path fill="none" stroke="#63b8ff" d="M733.43,-236.37C715.48,-225.73 684.73,-207.51 663.44,-194.89"/>
<polygon fill="#63b8ff" stroke="#63b8ff" points="665.07,-191.79 654.68,-189.7 661.5,-197.81 665.07,-191.79"/>
</a>
</g>
</g>
<!-- Node16 -->
<g id="Node000016" class="node">
<title>Node16</title>
<g id="a_Node000016"><a xlink:title=" ">
<polygon fill="#e0e0e0" stroke="#999999" points="753,-189.5 705,-189.5 705,-170.5 753,-170.5 753,-189.5"/>
<text text-anchor="middle" x="729" y="-177.5" font-family="Helvetica,sans-Serif" font-size="10.00">mutex</text>
</a>
</g>
</g>
<!-- Node14&#45;&gt;Node16 -->
<g id="edge24_Node000014_Node000016" class="edge">
<title>Node14&#45;&gt;Node16</title>
<g id="a_edge24_Node000014_Node000016"><a xlink:title=" ">
<path fill="none" stroke="#63b8ff" d="M745.44,-236.37C742.65,-226.97 738.11,-211.67 734.5,-199.53"/>
<polygon fill="#63b8ff" stroke="#63b8ff" points="737.85,-198.5 731.64,-189.91 731.13,-200.49 737.85,-198.5"/>
</a>
</g>
</g>
<!-- Node14&#45;&gt;Node17 -->
<g id="edge25_Node000014_Node000017" class="edge">
<title>Node14&#45;&gt;Node17</title>
<g id="a_edge25_Node000014_Node000017"><a xlink:title=" ">
<path fill="none" stroke="#63b8ff" d="M769.44,-236.37C796.9,-225.32 844.68,-206.08 876.07,-193.45"/>
<polygon fill="#63b8ff" stroke="#63b8ff" points="877.67,-196.58 885.64,-189.6 875.06,-190.08 877.67,-196.58"/>
</a>
</g>
</g>
<!-- Node17&#45;&gt;Node11 -->
<g id="edge27_Node000017_Node000011" class="edge">
<title>Node17&#45;&gt;Node11</title>
<g id="a_edge27_Node000017_Node000011"><a xlink:title=" ">
<path fill="none" stroke="#63b8ff" d="M872.1,-170.49C825.55,-159.15 743.78,-139.22 698.83,-128.26"/>
<polygon fill="#63b8ff" stroke="#63b8ff" points="699.58,-124.84 689.03,-125.87 697.92,-131.64 699.58,-124.84"/>
</a>
</g>
</g>
<!-- Node18 -->
<g id="Node000018" class="node">
<title>Node18</title>
<g id="a_Node000018"><a xlink:title=" ">
<polygon fill="#e0e0e0" stroke="#999999" points="937,-129 877,-129 877,-110 937,-110 937,-129"/>
<text text-anchor="middle" x="907" y="-117" font-family="Helvetica,sans-Serif" font-size="10.00">iostream</text>
</a>
</g>
</g>
<!-- Node17&#45;&gt;Node18 -->
<g id="edge26_Node000017_Node000018" class="edge">
<title>Node17&#45;&gt;Node18</title>
<g id="a_edge26_Node000017_Node000018"><a xlink:title=" ">
<path fill="none" stroke="#63b8ff" d="M907,-170.37C907,-162.25 907,-149.81 907,-139.39"/>
<polygon fill="#63b8ff" stroke="#63b8ff" points="910.5,-139.17 907,-129.17 903.5,-139.17 910.5,-139.17"/>
</a>
</g>
</g>
</g>
</svg>

<g id="navigator" transform="translate(0 0)" fill="#404254">
  <rect fill="#f2f5e9" fill-opacity="0.5" stroke="#606060" stroke-width=".5" x="0" y="0" width="60" height="60"/>
  <use id="zoomplus" xlink:href="#zoomPlus" x="17" y="9" onmousedown="handleZoom(evt,'in')"/>
  <use id="zoomminus" xlink:href="#zoomMin" x="42" y="9" onmousedown="handleZoom(evt,'out')"/>
  <use id="reset" xlink:href="#resetDef" x="30" y="36" onmousedown="handleReset()"/>
   <use id="arrowup" xlink:href="#arrowUp" x="0" y="0" onmousedown="handlePan(0,-1)"/>
  <use id="arrowright" xlink:href="#arrowRight" x="0" y="0" onmousedown="handlePan(1,0)"/>
  <use id="arrowdown" xlink:href="#arrowDown" x="0" y="0" onmousedown="handlePan(0,1)"/>
  <use id="arrowleft" xlink:href="#arrowLeft" x="0" y="0" onmousedown="handlePan(-1,0)"/>
</g>
<svg viewBox="0 0 15 15" width="100%" height="30px" preserveAspectRatio="xMaxYMin meet">
 <g id="arrow_out" transform="scale(0.3 0.3)">
  <a xlink:href="window_2__module_8ixx__incl_org.svg" target="_base">
   <rect id="button" ry="5" rx="5" y="6" x="6" height="38" width="38"
        fill="#f2f5e9" fill-opacity="0.5" stroke="#606060" stroke-width="1.0"/>
   <path id="arrow"
     d="M 11.500037,31.436501 C 11.940474,20.09759 22.043105,11.32322 32.158766,21.979434 L 37.068811,17.246167 C 37.068811,17.246167 37.088388,32 37.088388,32 L 22.160133,31.978069 C 22.160133,31.978069 26.997745,27.140456 26.997745,27.140456 C 18.528582,18.264221 13.291696,25.230495 11.500037,31.436501 z"
     style="fill:#404040;"/>
  </a>
 </g>
</svg>

<style type='text/css'>
<![CDATA[
[data-mouse-over-selected='false'] { opacity: 0.7; }
[data-mouse-over-selected='true']  { opacity: 1.0; }
]]>
</style>
<script type="application/ecmascript"><![CDATA[
document.addEventListener('DOMContentLoaded', (event) => {
  highlightEdges();
  highlightAdjacentNodes();
});
]]></script>
</svg>
