<?xml version="1.0" encoding="UTF-8" standalone="no"?>
<!DOCTYPE svg PUBLIC "-//W3C//DTD SVG 1.1//EN"
 "http://www.w3.org/Graphics/SVG/1.1/DTD/svg11.dtd">
<!-- Generated by graphviz version 2.43.0 (0)
 -->
<!-- Title: include/helios/window/event/WindowEvent.ixx Pages: 1 -->
<svg width="247pt" height="203pt"
 viewBox="0.00 0.00 247.49 203.00" xmlns="http://www.w3.org/2000/svg" xmlns:xlink="http://www.w3.org/1999/xlink">
<g id="graph0" class="graph" transform="scale(1 1) rotate(0) translate(4 199)">
<title>include/helios/window/event/WindowEvent.ixx</title>
<!-- Node1 -->
<g id="Node000001" class="node">
<title>Node1</title>
<g id="a_Node000001"><a xlink:title="Abstract base class for window&#45;related events.">
<polygon fill="#999999" stroke="#666666" points="176.99,-195 41.99,-195 41.99,-165 176.99,-165 176.99,-195"/>
<text text-anchor="start" x="49.99" y="-183" font-family="Helvetica,sans-Serif" font-size="10.00">include/helios/window</text>
<text text-anchor="middle" x="109.49" y="-172" font-family="Helvetica,sans-Serif" font-size="10.00">/event/WindowEvent.ixx</text>
</a>
</g>
</g>
<!-- Node2 -->
<g id="Node000002" class="node">
<title>Node2</title>
<g id="a_Node000002"><a xlink:title=" ">
<polygon fill="#e0e0e0" stroke="#999999" points="80.49,-19 30.49,-19 30.49,0 80.49,0 80.49,-19"/>
<text text-anchor="middle" x="55.49" y="-7" font-family="Helvetica,sans-Serif" font-size="10.00">cstdint</text>
</a>
</g>
</g>
<!-- Node1&#45;&gt;Node2 -->
<g id="edge1_Node000001_Node000002" class="edge">
<title>Node1&#45;&gt;Node2</title>
<g id="a_edge1_Node000001_Node000002"><a xlink:title=" ">
<path fill="none" stroke="#63b8ff" d="M85.47,-164.91C58.68,-147.53 17.19,-115.18 2.49,-74 -0.35,-66.05 -1.07,-62.65 2.49,-55 8.32,-42.49 19.59,-32.25 30.24,-24.76"/>
<polygon fill="#63b8ff" stroke="#63b8ff" points="32.43,-27.51 38.91,-19.13 28.62,-21.64 32.43,-27.51"/>
</a>
</g>
</g>
<!-- Node3 -->
<g id="Node000003" class="node">
<title>Node3</title>
<g id="a_Node000003"><a xlink:href="Event_8ixx.html" target="_top" xlink:title="Base class for events in the helios framework.">
<polygon fill="white" stroke="#666666" points="162.99,-129 55.99,-129 55.99,-110 162.99,-110 162.99,-129"/>
<text text-anchor="middle" x="109.49" y="-117" font-family="Helvetica,sans-Serif" font-size="10.00">helios.event.Event</text>
</a>
</g>
</g>
<!-- Node1&#45;&gt;Node3 -->
<g id="edge2_Node000001_Node000003" class="edge">
<title>Node1&#45;&gt;Node3</title>
<g id="a_edge2_Node000001_Node000003"><a xlink:title=" ">
<path fill="none" stroke="#63b8ff" d="M109.49,-164.84C109.49,-157.21 109.49,-147.7 109.49,-139.45"/>
<polygon fill="#63b8ff" stroke="#63b8ff" points="112.99,-139.27 109.49,-129.27 105.99,-139.27 112.99,-139.27"/>
</a>
</g>
</g>
<!-- Node6 -->
<g id="Node000006" class="node">
<title>Node6</title>
<g id="a_Node000006"><a xlink:href="Guid_8ixx.html" target="_top" xlink:title="Lightweight GUID (globally unique identifier) implementation.">
<polygon fill="white" stroke="#666666" points="239.49,-74 149.49,-74 149.49,-55 239.49,-55 239.49,-74"/>
<text text-anchor="middle" x="194.49" y="-62" font-family="Helvetica,sans-Serif" font-size="10.00">helios.util.Guid</text>
</a>
</g>
</g>
<!-- Node1&#45;&gt;Node6 -->
<g id="edge8_Node000001_Node000006" class="edge">
<title>Node1&#45;&gt;Node6</title>
<g id="a_edge8_Node000001_Node000006"><a xlink:title=" ">
<path fill="none" stroke="#63b8ff" d="M132.78,-164.81C145.71,-155.91 161.21,-143.41 171.49,-129 181.07,-115.58 187.07,-97.74 190.53,-84.39"/>
<polygon fill="#63b8ff" stroke="#63b8ff" points="193.99,-84.96 192.86,-74.42 187.17,-83.36 193.99,-84.96"/>
</a>
</g>
</g>
<!-- Node4 -->
<g id="Node000004" class="node">
<title>Node4</title>
<g id="a_Node000004"><a xlink:title=" ">
<polygon fill="#e0e0e0" stroke="#999999" points="69.49,-74 11.49,-74 11.49,-55 69.49,-55 69.49,-74"/>
<text text-anchor="middle" x="40.49" y="-62" font-family="Helvetica,sans-Serif" font-size="10.00">memory</text>
</a>
</g>
</g>
<!-- Node3&#45;&gt;Node4 -->
<g id="edge3_Node000003_Node000004" class="edge">
<title>Node3&#45;&gt;Node4</title>
<g id="a_edge3_Node000003_Node000004"><a xlink:title=" ">
<path fill="none" stroke="#63b8ff" d="M98.41,-109.98C88.01,-102 72.23,-89.88 59.77,-80.31"/>
<polygon fill="#63b8ff" stroke="#63b8ff" points="61.84,-77.49 51.78,-74.17 57.58,-83.04 61.84,-77.49"/>
</a>
</g>
</g>
<!-- Node5 -->
<g id="Node000005" class="node">
<title>Node5</title>
<g id="a_Node000005"><a xlink:title=" ">
<polygon fill="#e0e0e0" stroke="#999999" points="131.49,-74 87.49,-74 87.49,-55 131.49,-55 131.49,-74"/>
<text text-anchor="middle" x="109.49" y="-62" font-family="Helvetica,sans-Serif" font-size="10.00">string</text>
</a>
</g>
</g>
<!-- Node3&#45;&gt;Node5 -->
<g id="edge4_Node000003_Node000005" class="edge">
<title>Node3&#45;&gt;Node5</title>
<g id="a_edge4_Node000003_Node000005"><a xlink:title=" ">
<path fill="none" stroke="#63b8ff" d="M109.49,-109.75C109.49,-102.8 109.49,-92.85 109.49,-84.13"/>
<polygon fill="#63b8ff" stroke="#63b8ff" points="112.99,-84.09 109.49,-74.09 105.99,-84.09 112.99,-84.09"/>
</a>
</g>
</g>
<!-- Node3&#45;&gt;Node6 -->
<g id="edge5_Node000003_Node000006" class="edge">
<title>Node3&#45;&gt;Node6</title>
<g id="a_edge5_Node000003_Node000006"><a xlink:title=" ">
<path fill="none" stroke="#63b8ff" d="M123.15,-109.98C136.33,-101.77 156.52,-89.18 172.06,-79.49"/>
<polygon fill="#63b8ff" stroke="#63b8ff" points="173.95,-82.43 180.59,-74.17 170.25,-76.49 173.95,-82.43"/>
</a>
</g>
</g>
<!-- Node6&#45;&gt;Node2 -->
<g id="edge7_Node000006_Node000002" class="edge">
<title>Node6&#45;&gt;Node2</title>
<g id="a_edge7_Node000006_Node000002"><a xlink:title=" ">
<path fill="none" stroke="#63b8ff" d="M172.16,-54.98C149.3,-46.27 113.54,-32.63 87.63,-22.75"/>
<polygon fill="#63b8ff" stroke="#63b8ff" points="88.82,-19.46 78.23,-19.17 86.33,-26 88.82,-19.46"/>
</a>
</g>
</g>
<!-- Node7 -->
<g id="Node000007" class="node">
<title>Node7</title>
<g id="a_Node000007"><a xlink:title=" ">
<polygon fill="#e0e0e0" stroke="#999999" points="219.49,-19 169.49,-19 169.49,0 219.49,0 219.49,-19"/>
<text text-anchor="middle" x="194.49" y="-7" font-family="Helvetica,sans-Serif" font-size="10.00">atomic</text>
</a>
</g>
</g>
<!-- Node6&#45;&gt;Node7 -->
<g id="edge6_Node000006_Node000007" class="edge">
<title>Node6&#45;&gt;Node7</title>
<g id="a_edge6_Node000006_Node000007"><a xlink:title=" ">
<path fill="none" stroke="#63b8ff" d="M194.49,-54.75C194.49,-47.8 194.49,-37.85 194.49,-29.13"/>
<polygon fill="#63b8ff" stroke="#63b8ff" points="197.99,-29.09 194.49,-19.09 190.99,-29.09 197.99,-29.09"/>
</a>
</g>
</g>
</g>
</svg>
