<?xml version="1.0" encoding="UTF-8" standalone="no"?>
<!DOCTYPE svg PUBLIC "-//W3C//DTD SVG 1.1//EN"
 "http://www.w3.org/Graphics/SVG/1.1/DTD/svg11.dtd">
<!-- Generated by graphviz version 2.43.0 (0)
 -->
<!-- Title: include/helios/window/Window.ixx Pages: 1 -->
<svg width="821pt" height="203pt"
 viewBox="0.00 0.00 820.50 203.00" xmlns="http://www.w3.org/2000/svg" xmlns:xlink="http://www.w3.org/1999/xlink">
<g id="graph0" class="graph" transform="scale(1 1) rotate(0) translate(4 199)">
<title>include/helios/window/Window.ixx</title>
<!-- Node1 -->
<g id="Node000001" class="node">
<title>Node1</title>
<g id="a_Node000001"><a xlink:title=" ">
<polygon fill="#999999" stroke="#666666" points="555,-195 430,-195 430,-165 555,-165 555,-195"/>
<text text-anchor="start" x="438" y="-183" font-family="Helvetica,sans-Serif" font-size="10.00">include/helios/window</text>
<text text-anchor="middle" x="492.5" y="-172" font-family="Helvetica,sans-Serif" font-size="10.00">/Window.ixx</text>
</a>
</g>
</g>
<!-- Node2 -->
<g id="Node000002" class="node">
<title>Node2</title>
<g id="a_Node000002"><a xlink:title=" ">
<polygon fill="#e0e0e0" stroke="#999999" points="315.5,-19 271.5,-19 271.5,0 315.5,0 315.5,-19"/>
<text text-anchor="middle" x="293.5" y="-7" font-family="Helvetica,sans-Serif" font-size="10.00">string</text>
</a>
</g>
</g>
<!-- Node1&#45;&gt;Node2 -->
<g id="edge1_Node000001_Node000002" class="edge">
<title>Node1&#45;&gt;Node2</title>
<g id="a_edge1_Node000001_Node000002"><a xlink:title=" ">
<path fill="none" stroke="#63b8ff" d="M482.24,-164.84C475.26,-154.98 465.96,-141.42 458.5,-129 439.35,-97.13 447.63,-79.31 419.5,-55 392.73,-31.87 353.13,-20.5 325.5,-15.1"/>
<polygon fill="#63b8ff" stroke="#63b8ff" points="326.01,-11.63 315.54,-13.3 324.76,-18.52 326.01,-11.63"/>
</a>
</g>
</g>
<!-- Node3 -->
<g id="Node000003" class="node">
<title>Node3</title>
<g id="a_Node000003"><a xlink:href="LogManager_8ixx.html" target="_top" xlink:title=" ">
<polygon fill="white" stroke="#666666" points="319.5,-129 173.5,-129 173.5,-110 319.5,-110 319.5,-129"/>
<text text-anchor="middle" x="246.5" y="-117" font-family="Helvetica,sans-Serif" font-size="10.00">helios.util.log.LogManager</text>
</a>
</g>
</g>
<!-- Node1&#45;&gt;Node3 -->
<g id="edge2_Node000001_Node000003" class="edge">
<title>Node1&#45;&gt;Node3</title>
<g id="a_edge2_Node000001_Node000003"><a xlink:title=" ">
<path fill="none" stroke="#63b8ff" d="M433.58,-164.99C390.3,-154.7 332.33,-140.91 292.45,-131.43"/>
<polygon fill="#63b8ff" stroke="#63b8ff" points="293.01,-127.96 282.47,-129.05 291.39,-134.77 293.01,-127.96"/>
</a>
</g>
</g>
<!-- Node7 -->
<g id="Node000007" class="node">
<title>Node7</title>
<g id="a_Node000007"><a xlink:href="Logger_8ixx.html" target="_top" xlink:title=" ">
<polygon fill="white" stroke="#666666" points="119,-74 0,-74 0,-55 119,-55 119,-74"/>
<text text-anchor="middle" x="59.5" y="-62" font-family="Helvetica,sans-Serif" font-size="10.00">helios.util.log.Logger</text>
</a>
</g>
</g>
<!-- Node1&#45;&gt;Node7 -->
<g id="edge10_Node000001_Node000007" class="edge">
<title>Node1&#45;&gt;Node7</title>
<g id="a_edge10_Node000001_Node000007"><a xlink:title=" ">
<path fill="none" stroke="#63b8ff" d="M429.97,-176.72C362.62,-172.61 253.18,-161.13 164.5,-129 132.05,-117.24 98.61,-94.93 78.44,-80.14"/>
<polygon fill="#63b8ff" stroke="#63b8ff" points="80.51,-77.31 70.4,-74.12 76.31,-82.91 80.51,-77.31"/>
</a>
</g>
</g>
<!-- Node9 -->
<g id="Node000009" class="node">
<title>Node9</title>
<g id="a_Node000009"><a xlink:href="math_2types_2__module_8ixx.html" target="_top" xlink:title=" ">
<polygon fill="white" stroke="#666666" points="644.5,-74 540.5,-74 540.5,-55 644.5,-55 644.5,-74"/>
<text text-anchor="middle" x="592.5" y="-62" font-family="Helvetica,sans-Serif" font-size="10.00">helios.math.types</text>
</a>
</g>
</g>
<!-- Node1&#45;&gt;Node9 -->
<g id="edge11_Node000001_Node000009" class="edge">
<title>Node1&#45;&gt;Node9</title>
<g id="a_edge11_Node000001_Node000009"><a xlink:title=" ">
<path fill="none" stroke="#63b8ff" d="M555.17,-173.25C584.31,-167.08 616.45,-154.49 634.5,-129 646.14,-112.56 629.03,-93.18 613.28,-80.2"/>
<polygon fill="#63b8ff" stroke="#63b8ff" points="615.37,-77.39 605.32,-74.04 611.09,-82.93 615.37,-77.39"/>
</a>
</g>
</g>
<!-- Node10 -->
<g id="Node000010" class="node">
<title>Node10</title>
<g id="a_Node000010"><a xlink:href="WindowConfig_8ixx.html" target="_top" xlink:title=" ">
<polygon fill="white" stroke="#666666" points="625.5,-129 467.5,-129 467.5,-110 625.5,-110 625.5,-129"/>
<text text-anchor="middle" x="546.5" y="-117" font-family="Helvetica,sans-Serif" font-size="10.00">helios.window.WindowConfig</text>
</a>
</g>
</g>
<!-- Node1&#45;&gt;Node10 -->
<g id="edge13_Node000001_Node000010" class="edge">
<title>Node1&#45;&gt;Node10</title>
<g id="a_edge13_Node000001_Node000010"><a xlink:title=" ">
<path fill="none" stroke="#63b8ff" d="M505.57,-164.84C513.41,-156.35 523.41,-145.52 531.56,-136.69"/>
<polygon fill="#63b8ff" stroke="#63b8ff" points="534.2,-138.99 538.41,-129.27 529.05,-134.24 534.2,-138.99"/>
</a>
</g>
</g>
<!-- Node11 -->
<g id="Node000011" class="node">
<title>Node11</title>
<g id="a_Node000011"><a xlink:href="Guid_8ixx.html" target="_top" xlink:title=" ">
<polygon fill="white" stroke="#666666" points="771.5,-129 681.5,-129 681.5,-110 771.5,-110 771.5,-129"/>
<text text-anchor="middle" x="726.5" y="-117" font-family="Helvetica,sans-Serif" font-size="10.00">helios.util.Guid</text>
</a>
</g>
</g>
<!-- Node1&#45;&gt;Node11 -->
<g id="edge16_Node000001_Node000011" class="edge">
<title>Node1&#45;&gt;Node11</title>
<g id="a_edge16_Node000001_Node000011"><a xlink:title=" ">
<path fill="none" stroke="#63b8ff" d="M548.55,-164.99C589.63,-154.72 644.62,-140.97 682.55,-131.49"/>
<polygon fill="#63b8ff" stroke="#63b8ff" points="683.43,-134.87 692.29,-129.05 681.74,-128.08 683.43,-134.87"/>
</a>
</g>
</g>
<!-- Node3&#45;&gt;Node2 -->
<g id="edge3_Node000003_Node000002" class="edge">
<title>Node3&#45;&gt;Node2</title>
<g id="a_edge3_Node000003_Node000002"><a xlink:title=" ">
<path fill="none" stroke="#63b8ff" d="M219.05,-109.95C189.58,-99.29 149.16,-79.44 166.5,-55 187.78,-25 230.92,-15.07 260.98,-11.87"/>
<polygon fill="#63b8ff" stroke="#63b8ff" points="261.35,-15.35 271.01,-10.99 260.75,-8.37 261.35,-15.35"/>
</a>
</g>
</g>
<!-- Node4 -->
<g id="Node000004" class="node">
<title>Node4</title>
<g id="a_Node000004"><a xlink:title=" ">
<polygon fill="#e0e0e0" stroke="#999999" points="411,-74 318,-74 318,-55 411,-55 411,-74"/>
<text text-anchor="middle" x="364.5" y="-62" font-family="Helvetica,sans-Serif" font-size="10.00">unordered_map</text>
</a>
</g>
</g>
<!-- Node3&#45;&gt;Node4 -->
<g id="edge4_Node000003_Node000004" class="edge">
<title>Node3&#45;&gt;Node4</title>
<g id="a_edge4_Node000003_Node000004"><a xlink:title=" ">
<path fill="none" stroke="#63b8ff" d="M265.46,-109.98C284.53,-101.42 314.16,-88.11 336.05,-78.28"/>
<polygon fill="#63b8ff" stroke="#63b8ff" points="337.51,-81.46 345.2,-74.17 334.64,-75.07 337.51,-81.46"/>
</a>
</g>
</g>
<!-- Node5 -->
<g id="Node000005" class="node">
<title>Node5</title>
<g id="a_Node000005"><a xlink:title=" ">
<polygon fill="#e0e0e0" stroke="#999999" points="233.5,-74 175.5,-74 175.5,-55 233.5,-55 233.5,-74"/>
<text text-anchor="middle" x="204.5" y="-62" font-family="Helvetica,sans-Serif" font-size="10.00">memory</text>
</a>
</g>
</g>
<!-- Node3&#45;&gt;Node5 -->
<g id="edge5_Node000003_Node000005" class="edge">
<title>Node3&#45;&gt;Node5</title>
<g id="a_edge5_Node000003_Node000005"><a xlink:title=" ">
<path fill="none" stroke="#63b8ff" d="M239.56,-109.75C233.63,-102.26 224.93,-91.28 217.68,-82.13"/>
<polygon fill="#63b8ff" stroke="#63b8ff" points="220.26,-79.75 211.31,-74.09 214.77,-84.1 220.26,-79.75"/>
</a>
</g>
</g>
<!-- Node6 -->
<g id="Node000006" class="node">
<title>Node6</title>
<g id="a_Node000006"><a xlink:title=" ">
<polygon fill="#e0e0e0" stroke="#999999" points="299.5,-74 251.5,-74 251.5,-55 299.5,-55 299.5,-74"/>
<text text-anchor="middle" x="275.5" y="-62" font-family="Helvetica,sans-Serif" font-size="10.00">mutex</text>
</a>
</g>
</g>
<!-- Node3&#45;&gt;Node6 -->
<g id="edge6_Node000003_Node000006" class="edge">
<title>Node3&#45;&gt;Node6</title>
<g id="a_edge6_Node000003_Node000006"><a xlink:title=" ">
<path fill="none" stroke="#63b8ff" d="M251.29,-109.75C255.26,-102.49 261.03,-91.95 265.93,-82.98"/>
<polygon fill="#63b8ff" stroke="#63b8ff" points="269.07,-84.54 270.8,-74.09 262.93,-81.18 269.07,-84.54"/>
</a>
</g>
</g>
<!-- Node3&#45;&gt;Node7 -->
<g id="edge7_Node000003_Node000007" class="edge">
<title>Node3&#45;&gt;Node7</title>
<g id="a_edge7_Node000003_Node000007"><a xlink:title=" ">
<path fill="none" stroke="#63b8ff" d="M216.46,-109.98C184.79,-101.01 134.73,-86.82 99.69,-76.89"/>
<polygon fill="#63b8ff" stroke="#63b8ff" points="100.36,-73.44 89.78,-74.08 98.45,-80.18 100.36,-73.44"/>
</a>
</g>
</g>
<!-- Node7&#45;&gt;Node2 -->
<g id="edge9_Node000007_Node000002" class="edge">
<title>Node7&#45;&gt;Node2</title>
<g id="a_edge9_Node000007_Node000002"><a xlink:title=" ">
<path fill="none" stroke="#63b8ff" d="M97.1,-54.98C142.69,-44.66 218.74,-27.43 261.6,-17.73"/>
<polygon fill="#63b8ff" stroke="#63b8ff" points="262.51,-21.11 271.49,-15.49 260.96,-14.28 262.51,-21.11"/>
</a>
</g>
</g>
<!-- Node8 -->
<g id="Node000008" class="node">
<title>Node8</title>
<g id="a_Node000008"><a xlink:title=" ">
<polygon fill="#e0e0e0" stroke="#999999" points="89.5,-19 29.5,-19 29.5,0 89.5,0 89.5,-19"/>
<text text-anchor="middle" x="59.5" y="-7" font-family="Helvetica,sans-Serif" font-size="10.00">iostream</text>
</a>
</g>
</g>
<!-- Node7&#45;&gt;Node8 -->
<g id="edge8_Node000007_Node000008" class="edge">
<title>Node7&#45;&gt;Node8</title>
<g id="a_edge8_Node000007_Node000008"><a xlink:title=" ">
<path fill="none" stroke="#63b8ff" d="M59.5,-54.75C59.5,-47.8 59.5,-37.85 59.5,-29.13"/>
<polygon fill="#63b8ff" stroke="#63b8ff" points="63,-29.09 59.5,-19.09 56,-29.09 63,-29.09"/>
</a>
</g>
</g>
<!-- Node9&#45;&gt;Node9 -->
<g id="edge12_Node000009_Node000009" class="edge">
<title>Node9&#45;&gt;Node9</title>
<g id="a_edge12_Node000009_Node000009"><a xlink:title=" ">
<path fill="none" stroke="#63b8ff" d="M625.27,-74.03C644.5,-76.06 662.5,-72.88 662.5,-64.5 662.5,-57.62 650.39,-54.25 635.42,-54.38"/>
<polygon fill="#63b8ff" stroke="#63b8ff" points="635.05,-50.89 625.27,-54.97 635.45,-57.88 635.05,-50.89"/>
</a>
</g>
</g>
<!-- Node10&#45;&gt;Node2 -->
<g id="edge14_Node000010_Node000002" class="edge">
<title>Node10&#45;&gt;Node2</title>
<g id="a_edge14_Node000010_Node000002"><a xlink:title=" ">
<path fill="none" stroke="#63b8ff" d="M536.31,-109.86C519.89,-96.33 486.12,-70.17 453.5,-55 411.27,-35.37 358.64,-22.79 325.54,-16.19"/>
<polygon fill="#63b8ff" stroke="#63b8ff" points="326,-12.71 315.52,-14.25 324.67,-19.58 326,-12.71"/>
</a>
</g>
</g>
<!-- Node10&#45;&gt;Node9 -->
<g id="edge15_Node000010_Node000009" class="edge">
<title>Node10&#45;&gt;Node9</title>
<g id="a_edge15_Node000010_Node000009"><a xlink:title=" ">
<path fill="none" stroke="#63b8ff" d="M554.1,-109.75C560.66,-102.18 570.32,-91.05 578.31,-81.84"/>
<polygon fill="#63b8ff" stroke="#63b8ff" points="581.13,-83.94 585.05,-74.09 575.85,-79.35 581.13,-83.94"/>
</a>
</g>
</g>
<!-- Node12 -->
<g id="Node000012" class="node">
<title>Node12</title>
<g id="a_Node000012"><a xlink:title=" ">
<polygon fill="#e0e0e0" stroke="#999999" points="744.5,-74 694.5,-74 694.5,-55 744.5,-55 744.5,-74"/>
<text text-anchor="middle" x="719.5" y="-62" font-family="Helvetica,sans-Serif" font-size="10.00">atomic</text>
</a>
</g>
</g>
<!-- Node11&#45;&gt;Node12 -->
<g id="edge17_Node000011_Node000012" class="edge">
<title>Node11&#45;&gt;Node12</title>
<g id="a_edge17_Node000011_Node000012"><a xlink:title=" ">
<path fill="none" stroke="#63b8ff" d="M725.34,-109.75C724.43,-102.8 723.11,-92.85 721.96,-84.13"/>
<polygon fill="#63b8ff" stroke="#63b8ff" points="725.41,-83.54 720.63,-74.09 718.47,-84.46 725.41,-83.54"/>
</a>
</g>
</g>
<!-- Node13 -->
<g id="Node000013" class="node">
<title>Node13</title>
<g id="a_Node000013"><a xlink:title=" ">
<polygon fill="#e0e0e0" stroke="#999999" points="812.5,-74 762.5,-74 762.5,-55 812.5,-55 812.5,-74"/>
<text text-anchor="middle" x="787.5" y="-62" font-family="Helvetica,sans-Serif" font-size="10.00">cstdint</text>
</a>
</g>
</g>
<!-- Node11&#45;&gt;Node13 -->
<g id="edge18_Node000011_Node000013" class="edge">
<title>Node11&#45;&gt;Node13</title>
<g id="a_edge18_Node000011_Node000013"><a xlink:title=" ">
<path fill="none" stroke="#63b8ff" d="M736.3,-109.98C745.32,-102.15 758.91,-90.34 769.82,-80.86"/>
<polygon fill="#63b8ff" stroke="#63b8ff" points="772.27,-83.37 777.52,-74.17 767.68,-78.09 772.27,-83.37"/>
</a>
</g>
</g>
</g>
</svg>
