<?xml version="1.0" encoding="UTF-8" standalone="no"?>
<!DOCTYPE svg PUBLIC "-//W3C//DTD SVG 1.1//EN"
 "http://www.w3.org/Graphics/SVG/1.1/DTD/svg11.dtd">
<!-- Generated by graphviz version 2.43.0 (0)
 -->
<!-- Title: include/helios/window/event/WindowEvent.ixx Pages: 1 -->
<svg width="196pt" height="203pt"
 viewBox="0.00 0.00 195.74 203.00" xmlns="http://www.w3.org/2000/svg" xmlns:xlink="http://www.w3.org/1999/xlink">
<g id="graph0" class="graph" transform="scale(1 1) rotate(0) translate(4 199)">
<title>include/helios/window/event/WindowEvent.ixx</title>
<!-- Node1 -->
<g id="Node000001" class="node">
<title>Node1</title>
<g id="a_Node000001"><a xlink:title=" ">
<polygon fill="#999999" stroke="#666666" points="136.24,-195 1.24,-195 1.24,-165 136.24,-165 136.24,-195"/>
<text text-anchor="start" x="9.24" y="-183" font-family="Helvetica,sans-Serif" font-size="10.00">include/helios/window</text>
<text text-anchor="middle" x="68.74" y="-172" font-family="Helvetica,sans-Serif" font-size="10.00">/event/WindowEvent.ixx</text>
</a>
</g>
</g>
<!-- Node2 -->
<g id="Node000002" class="node">
<title>Node2</title>
<g id="a_Node000002"><a xlink:title=" ">
<polygon fill="#e0e0e0" stroke="#999999" points="55.74,-19 5.74,-19 5.74,0 55.74,0 55.74,-19"/>
<text text-anchor="middle" x="30.74" y="-7" font-family="Helvetica,sans-Serif" font-size="10.00">cstdint</text>
</a>
</g>
</g>
<!-- Node1&#45;&gt;Node2 -->
<g id="edge1_Node000001_Node000002" class="edge">
<title>Node1&#45;&gt;Node2</title>
<g id="a_edge1_Node000001_Node000002"><a xlink:title=" ">
<path fill="none" stroke="#63b8ff" d="M41.87,-164.96C28.68,-156.49 14.08,-144.34 6.74,-129 -9.19,-95.7 8.1,-52.22 20.48,-28.27"/>
<polygon fill="#63b8ff" stroke="#63b8ff" points="23.66,-29.74 25.37,-19.29 17.51,-26.39 23.66,-29.74"/>
</a>
</g>
</g>
<!-- Node3 -->
<g id="Node000003" class="node">
<title>Node3</title>
<g id="a_Node000003"><a xlink:href="Event_8ixx.html" target="_top" xlink:title=" ">
<polygon fill="white" stroke="#666666" points="122.24,-129 15.24,-129 15.24,-110 122.24,-110 122.24,-129"/>
<text text-anchor="middle" x="68.74" y="-117" font-family="Helvetica,sans-Serif" font-size="10.00">helios.event.Event</text>
</a>
</g>
</g>
<!-- Node1&#45;&gt;Node3 -->
<g id="edge2_Node000001_Node000003" class="edge">
<title>Node1&#45;&gt;Node3</title>
<g id="a_edge2_Node000001_Node000003"><a xlink:title=" ">
<path fill="none" stroke="#63b8ff" d="M68.74,-164.84C68.74,-157.21 68.74,-147.7 68.74,-139.45"/>
<polygon fill="#63b8ff" stroke="#63b8ff" points="72.24,-139.27 68.74,-129.27 65.24,-139.27 72.24,-139.27"/>
</a>
</g>
</g>
<!-- Node5 -->
<g id="Node000005" class="node">
<title>Node5</title>
<g id="a_Node000005"><a xlink:href="Guid_8ixx.html" target="_top" xlink:title=" ">
<polygon fill="white" stroke="#666666" points="187.74,-74 97.74,-74 97.74,-55 187.74,-55 187.74,-74"/>
<text text-anchor="middle" x="142.74" y="-62" font-family="Helvetica,sans-Serif" font-size="10.00">helios.util.Guid</text>
</a>
</g>
</g>
<!-- Node1&#45;&gt;Node5 -->
<g id="edge7_Node000001_Node000005" class="edge">
<title>Node1&#45;&gt;Node5</title>
<g id="a_edge7_Node000001_Node000005"><a xlink:title=" ">
<path fill="none" stroke="#63b8ff" d="M94.35,-164.91C107.6,-156.28 122.83,-144.01 131.74,-129 139.69,-115.61 142.25,-98 142.92,-84.72"/>
<polygon fill="#63b8ff" stroke="#63b8ff" points="146.43,-84.45 143.12,-74.39 139.43,-84.32 146.43,-84.45"/>
</a>
</g>
</g>
<!-- Node4 -->
<g id="Node000004" class="node">
<title>Node4</title>
<g id="a_Node000004"><a xlink:title=" ">
<polygon fill="#e0e0e0" stroke="#999999" points="79.74,-74 21.74,-74 21.74,-55 79.74,-55 79.74,-74"/>
<text text-anchor="middle" x="50.74" y="-62" font-family="Helvetica,sans-Serif" font-size="10.00">memory</text>
</a>
</g>
</g>
<!-- Node3&#45;&gt;Node4 -->
<g id="edge3_Node000003_Node000004" class="edge">
<title>Node3&#45;&gt;Node4</title>
<g id="a_edge3_Node000003_Node000004"><a xlink:title=" ">
<path fill="none" stroke="#63b8ff" d="M65.77,-109.75C63.38,-102.72 59.95,-92.62 56.97,-83.84"/>
<polygon fill="#63b8ff" stroke="#63b8ff" points="60.19,-82.43 53.66,-74.09 53.56,-84.68 60.19,-82.43"/>
</a>
</g>
</g>
<!-- Node3&#45;&gt;Node5 -->
<g id="edge4_Node000003_Node000005" class="edge">
<title>Node3&#45;&gt;Node5</title>
<g id="a_edge4_Node000003_Node000005"><a xlink:title=" ">
<path fill="none" stroke="#63b8ff" d="M80.63,-109.98C91.89,-101.92 109.03,-89.65 122.45,-80.03"/>
<polygon fill="#63b8ff" stroke="#63b8ff" points="124.54,-82.84 130.63,-74.17 120.47,-77.15 124.54,-82.84"/>
</a>
</g>
</g>
<!-- Node5&#45;&gt;Node2 -->
<g id="edge6_Node000005_Node000002" class="edge">
<title>Node5&#45;&gt;Node2</title>
<g id="a_edge6_Node000005_Node000002"><a xlink:title=" ">
<path fill="none" stroke="#63b8ff" d="M124.74,-54.98C106.81,-46.5 79.02,-33.35 58.31,-23.54"/>
<polygon fill="#63b8ff" stroke="#63b8ff" points="59.6,-20.28 49.06,-19.17 56.6,-26.61 59.6,-20.28"/>
</a>
</g>
</g>
<!-- Node6 -->
<g id="Node000006" class="node">
<title>Node6</title>
<g id="a_Node000006"><a xlink:title=" ">
<polygon fill="#e0e0e0" stroke="#999999" points="167.74,-19 117.74,-19 117.74,0 167.74,0 167.74,-19"/>
<text text-anchor="middle" x="142.74" y="-7" font-family="Helvetica,sans-Serif" font-size="10.00">atomic</text>
</a>
</g>
</g>
<!-- Node5&#45;&gt;Node6 -->
<g id="edge5_Node000005_Node000006" class="edge">
<title>Node5&#45;&gt;Node6</title>
<g id="a_edge5_Node000005_Node000006"><a xlink:title=" ">
<path fill="none" stroke="#63b8ff" d="M142.74,-54.75C142.74,-47.8 142.74,-37.85 142.74,-29.13"/>
<polygon fill="#63b8ff" stroke="#63b8ff" points="146.24,-29.09 142.74,-19.09 139.24,-29.09 146.24,-29.09"/>
</a>
</g>
</g>
</g>
</svg>
